<?xml version="1.0" encoding="utf-8" standalone="no"?>
<!DOCTYPE svg PUBLIC "-//W3C//DTD SVG 1.1//EN"
  "http://www.w3.org/Graphics/SVG/1.1/DTD/svg11.dtd">
<svg xmlns:xlink="http://www.w3.org/1999/xlink" width="343.042188pt" height="146.763469pt" viewBox="0 0 343.042188 146.763469" xmlns="http://www.w3.org/2000/svg" version="1.1">
 <metadata>
  <rdf:RDF xmlns:dc="http://purl.org/dc/elements/1.1/" xmlns:cc="http://creativecommons.org/ns#" xmlns:rdf="http://www.w3.org/1999/02/22-rdf-syntax-ns#">
   <cc:Work>
    <dc:type rdf:resource="http://purl.org/dc/dcmitype/StillImage"/>
    <dc:date>2025-01-14T12:31:25.237782</dc:date>
    <dc:format>image/svg+xml</dc:format>
    <dc:creator>
     <cc:Agent>
      <dc:title>Matplotlib v3.9.2, https://matplotlib.org/</dc:title>
     </cc:Agent>
    </dc:creator>
   </cc:Work>
  </rdf:RDF>
 </metadata>
 <defs>
  <style type="text/css">*{stroke-linejoin: round; stroke-linecap: butt}</style>
 </defs>
 <g id="figure_1">
  <g id="patch_1">
   <path d="M 0 146.763469 
L 343.042188 146.763469 
L 343.042188 0 
L 0 0 
z
" style="fill: #ffffff"/>
  </g>
  <g id="axes_1">
   <g id="patch_2">
    <path d="M 28.942188 109.207219 
L 335.842188 109.207219 
L 335.842188 10.999219 
L 28.942188 10.999219 
z
" style="fill: #ffffff"/>
   </g>
   <g id="matplotlib.axis_1">
    <g id="xtick_1">
     <g id="line2d_1">
      <defs>
       <path id="meaa9a7a76b" d="M 0 0 
L 0 3.5 
" style="stroke: #000000; stroke-width: 0.8"/>
      </defs>
      <g>
       <use xlink:href="#meaa9a7a76b" x="53.494188" y="109.207219" style="stroke: #000000; stroke-width: 0.8"/>
      </g>
     </g>
     <g id="text_1">
      <!-- 0.13 -->
      <g transform="translate(42.361375 123.805656) scale(0.1 -0.1)">
       <defs>
        <path id="DejaVuSans-30" d="M 2034 4250 
Q 1547 4250 1301 3770 
Q 1056 3291 1056 2328 
Q 1056 1369 1301 889 
Q 1547 409 2034 409 
Q 2525 409 2770 889 
Q 3016 1369 3016 2328 
Q 3016 3291 2770 3770 
Q 2525 4250 2034 4250 
z
M 2034 4750 
Q 2819 4750 3233 4129 
Q 3647 3509 3647 2328 
Q 3647 1150 3233 529 
Q 2819 -91 2034 -91 
Q 1250 -91 836 529 
Q 422 1150 422 2328 
Q 422 3509 836 4129 
Q 1250 4750 2034 4750 
z
" transform="scale(0.015625)"/>
        <path id="DejaVuSans-2e" d="M 684 794 
L 1344 794 
L 1344 0 
L 684 0 
L 684 794 
z
" transform="scale(0.015625)"/>
        <path id="DejaVuSans-31" d="M 794 531 
L 1825 531 
L 1825 4091 
L 703 3866 
L 703 4441 
L 1819 4666 
L 2450 4666 
L 2450 531 
L 3481 531 
L 3481 0 
L 794 0 
L 794 531 
z
" transform="scale(0.015625)"/>
        <path id="DejaVuSans-33" d="M 2597 2516 
Q 3050 2419 3304 2112 
Q 3559 1806 3559 1356 
Q 3559 666 3084 287 
Q 2609 -91 1734 -91 
Q 1441 -91 1130 -33 
Q 819 25 488 141 
L 488 750 
Q 750 597 1062 519 
Q 1375 441 1716 441 
Q 2309 441 2620 675 
Q 2931 909 2931 1356 
Q 2931 1769 2642 2001 
Q 2353 2234 1838 2234 
L 1294 2234 
L 1294 2753 
L 1863 2753 
Q 2328 2753 2575 2939 
Q 2822 3125 2822 3475 
Q 2822 3834 2567 4026 
Q 2313 4219 1838 4219 
Q 1578 4219 1281 4162 
Q 984 4106 628 3988 
L 628 4550 
Q 988 4650 1302 4700 
Q 1616 4750 1894 4750 
Q 2613 4750 3031 4423 
Q 3450 4097 3450 3541 
Q 3450 3153 3228 2886 
Q 3006 2619 2597 2516 
z
" transform="scale(0.015625)"/>
       </defs>
       <use xlink:href="#DejaVuSans-30"/>
       <use xlink:href="#DejaVuSans-2e" x="63.623047"/>
       <use xlink:href="#DejaVuSans-31" x="95.410156"/>
       <use xlink:href="#DejaVuSans-33" x="159.033203"/>
      </g>
     </g>
    </g>
    <g id="xtick_2">
     <g id="line2d_2">
      <g>
       <use xlink:href="#meaa9a7a76b" x="102.598187" y="109.207219" style="stroke: #000000; stroke-width: 0.8"/>
      </g>
     </g>
     <g id="text_2">
      <!-- 0.14 -->
      <g transform="translate(91.465375 123.805656) scale(0.1 -0.1)">
       <defs>
        <path id="DejaVuSans-34" d="M 2419 4116 
L 825 1625 
L 2419 1625 
L 2419 4116 
z
M 2253 4666 
L 3047 4666 
L 3047 1625 
L 3713 1625 
L 3713 1100 
L 3047 1100 
L 3047 0 
L 2419 0 
L 2419 1100 
L 313 1100 
L 313 1709 
L 2253 4666 
z
" transform="scale(0.015625)"/>
       </defs>
       <use xlink:href="#DejaVuSans-30"/>
       <use xlink:href="#DejaVuSans-2e" x="63.623047"/>
       <use xlink:href="#DejaVuSans-31" x="95.410156"/>
       <use xlink:href="#DejaVuSans-34" x="159.033203"/>
      </g>
     </g>
    </g>
    <g id="xtick_3">
     <g id="line2d_3">
      <g>
       <use xlink:href="#meaa9a7a76b" x="151.702188" y="109.207219" style="stroke: #000000; stroke-width: 0.8"/>
      </g>
     </g>
     <g id="text_3">
      <!-- 0.15 -->
      <g transform="translate(140.569375 123.805656) scale(0.1 -0.1)">
       <defs>
        <path id="DejaVuSans-35" d="M 691 4666 
L 3169 4666 
L 3169 4134 
L 1269 4134 
L 1269 2991 
Q 1406 3038 1543 3061 
Q 1681 3084 1819 3084 
Q 2600 3084 3056 2656 
Q 3513 2228 3513 1497 
Q 3513 744 3044 326 
Q 2575 -91 1722 -91 
Q 1428 -91 1123 -41 
Q 819 9 494 109 
L 494 744 
Q 775 591 1075 516 
Q 1375 441 1709 441 
Q 2250 441 2565 725 
Q 2881 1009 2881 1497 
Q 2881 1984 2565 2268 
Q 2250 2553 1709 2553 
Q 1456 2553 1204 2497 
Q 953 2441 691 2322 
L 691 4666 
z
" transform="scale(0.015625)"/>
       </defs>
       <use xlink:href="#DejaVuSans-30"/>
       <use xlink:href="#DejaVuSans-2e" x="63.623047"/>
       <use xlink:href="#DejaVuSans-31" x="95.410156"/>
       <use xlink:href="#DejaVuSans-35" x="159.033203"/>
      </g>
     </g>
    </g>
    <g id="xtick_4">
     <g id="line2d_4">
      <g>
       <use xlink:href="#meaa9a7a76b" x="200.806188" y="109.207219" style="stroke: #000000; stroke-width: 0.8"/>
      </g>
     </g>
     <g id="text_4">
      <!-- 0.16 -->
      <g transform="translate(189.673375 123.805656) scale(0.1 -0.1)">
       <defs>
        <path id="DejaVuSans-36" d="M 2113 2584 
Q 1688 2584 1439 2293 
Q 1191 2003 1191 1497 
Q 1191 994 1439 701 
Q 1688 409 2113 409 
Q 2538 409 2786 701 
Q 3034 994 3034 1497 
Q 3034 2003 2786 2293 
Q 2538 2584 2113 2584 
z
M 3366 4563 
L 3366 3988 
Q 3128 4100 2886 4159 
Q 2644 4219 2406 4219 
Q 1781 4219 1451 3797 
Q 1122 3375 1075 2522 
Q 1259 2794 1537 2939 
Q 1816 3084 2150 3084 
Q 2853 3084 3261 2657 
Q 3669 2231 3669 1497 
Q 3669 778 3244 343 
Q 2819 -91 2113 -91 
Q 1303 -91 875 529 
Q 447 1150 447 2328 
Q 447 3434 972 4092 
Q 1497 4750 2381 4750 
Q 2619 4750 2861 4703 
Q 3103 4656 3366 4563 
z
" transform="scale(0.015625)"/>
       </defs>
       <use xlink:href="#DejaVuSans-30"/>
       <use xlink:href="#DejaVuSans-2e" x="63.623047"/>
       <use xlink:href="#DejaVuSans-31" x="95.410156"/>
       <use xlink:href="#DejaVuSans-36" x="159.033203"/>
      </g>
     </g>
    </g>
    <g id="xtick_5">
     <g id="line2d_5">
      <g>
       <use xlink:href="#meaa9a7a76b" x="249.910188" y="109.207219" style="stroke: #000000; stroke-width: 0.8"/>
      </g>
     </g>
     <g id="text_5">
      <!-- 0.17 -->
      <g transform="translate(238.777375 123.805656) scale(0.1 -0.1)">
       <defs>
        <path id="DejaVuSans-37" d="M 525 4666 
L 3525 4666 
L 3525 4397 
L 1831 0 
L 1172 0 
L 2766 4134 
L 525 4134 
L 525 4666 
z
" transform="scale(0.015625)"/>
       </defs>
       <use xlink:href="#DejaVuSans-30"/>
       <use xlink:href="#DejaVuSans-2e" x="63.623047"/>
       <use xlink:href="#DejaVuSans-31" x="95.410156"/>
       <use xlink:href="#DejaVuSans-37" x="159.033203"/>
      </g>
     </g>
    </g>
    <g id="xtick_6">
     <g id="line2d_6">
      <g>
       <use xlink:href="#meaa9a7a76b" x="299.014188" y="109.207219" style="stroke: #000000; stroke-width: 0.8"/>
      </g>
     </g>
     <g id="text_6">
      <!-- 0.18 -->
      <g transform="translate(287.881375 123.805656) scale(0.1 -0.1)">
       <defs>
        <path id="DejaVuSans-38" d="M 2034 2216 
Q 1584 2216 1326 1975 
Q 1069 1734 1069 1313 
Q 1069 891 1326 650 
Q 1584 409 2034 409 
Q 2484 409 2743 651 
Q 3003 894 3003 1313 
Q 3003 1734 2745 1975 
Q 2488 2216 2034 2216 
z
M 1403 2484 
Q 997 2584 770 2862 
Q 544 3141 544 3541 
Q 544 4100 942 4425 
Q 1341 4750 2034 4750 
Q 2731 4750 3128 4425 
Q 3525 4100 3525 3541 
Q 3525 3141 3298 2862 
Q 3072 2584 2669 2484 
Q 3125 2378 3379 2068 
Q 3634 1759 3634 1313 
Q 3634 634 3220 271 
Q 2806 -91 2034 -91 
Q 1263 -91 848 271 
Q 434 634 434 1313 
Q 434 1759 690 2068 
Q 947 2378 1403 2484 
z
M 1172 3481 
Q 1172 3119 1398 2916 
Q 1625 2713 2034 2713 
Q 2441 2713 2670 2916 
Q 2900 3119 2900 3481 
Q 2900 3844 2670 4047 
Q 2441 4250 2034 4250 
Q 1625 4250 1398 4047 
Q 1172 3844 1172 3481 
z
" transform="scale(0.015625)"/>
       </defs>
       <use xlink:href="#DejaVuSans-30"/>
       <use xlink:href="#DejaVuSans-2e" x="63.623047"/>
       <use xlink:href="#DejaVuSans-31" x="95.410156"/>
       <use xlink:href="#DejaVuSans-38" x="159.033203"/>
      </g>
     </g>
    </g>
    <g id="text_7">
     <!-- Time [s] -->
     <g transform="translate(162.063281 137.483781) scale(0.1 -0.1)">
      <defs>
       <path id="DejaVuSans-54" d="M -19 4666 
L 3928 4666 
L 3928 4134 
L 2272 4134 
L 2272 0 
L 1638 0 
L 1638 4134 
L -19 4134 
L -19 4666 
z
" transform="scale(0.015625)"/>
       <path id="DejaVuSans-69" d="M 603 3500 
L 1178 3500 
L 1178 0 
L 603 0 
L 603 3500 
z
M 603 4863 
L 1178 4863 
L 1178 4134 
L 603 4134 
L 603 4863 
z
" transform="scale(0.015625)"/>
       <path id="DejaVuSans-6d" d="M 3328 2828 
Q 3544 3216 3844 3400 
Q 4144 3584 4550 3584 
Q 5097 3584 5394 3201 
Q 5691 2819 5691 2113 
L 5691 0 
L 5113 0 
L 5113 2094 
Q 5113 2597 4934 2840 
Q 4756 3084 4391 3084 
Q 3944 3084 3684 2787 
Q 3425 2491 3425 1978 
L 3425 0 
L 2847 0 
L 2847 2094 
Q 2847 2600 2669 2842 
Q 2491 3084 2119 3084 
Q 1678 3084 1418 2786 
Q 1159 2488 1159 1978 
L 1159 0 
L 581 0 
L 581 3500 
L 1159 3500 
L 1159 2956 
Q 1356 3278 1631 3431 
Q 1906 3584 2284 3584 
Q 2666 3584 2933 3390 
Q 3200 3197 3328 2828 
z
" transform="scale(0.015625)"/>
       <path id="DejaVuSans-65" d="M 3597 1894 
L 3597 1613 
L 953 1613 
Q 991 1019 1311 708 
Q 1631 397 2203 397 
Q 2534 397 2845 478 
Q 3156 559 3463 722 
L 3463 178 
Q 3153 47 2828 -22 
Q 2503 -91 2169 -91 
Q 1331 -91 842 396 
Q 353 884 353 1716 
Q 353 2575 817 3079 
Q 1281 3584 2069 3584 
Q 2775 3584 3186 3129 
Q 3597 2675 3597 1894 
z
M 3022 2063 
Q 3016 2534 2758 2815 
Q 2500 3097 2075 3097 
Q 1594 3097 1305 2825 
Q 1016 2553 972 2059 
L 3022 2063 
z
" transform="scale(0.015625)"/>
       <path id="DejaVuSans-20" transform="scale(0.015625)"/>
       <path id="DejaVuSans-5b" d="M 550 4863 
L 1875 4863 
L 1875 4416 
L 1125 4416 
L 1125 -397 
L 1875 -397 
L 1875 -844 
L 550 -844 
L 550 4863 
z
" transform="scale(0.015625)"/>
       <path id="DejaVuSans-73" d="M 2834 3397 
L 2834 2853 
Q 2591 2978 2328 3040 
Q 2066 3103 1784 3103 
Q 1356 3103 1142 2972 
Q 928 2841 928 2578 
Q 928 2378 1081 2264 
Q 1234 2150 1697 2047 
L 1894 2003 
Q 2506 1872 2764 1633 
Q 3022 1394 3022 966 
Q 3022 478 2636 193 
Q 2250 -91 1575 -91 
Q 1294 -91 989 -36 
Q 684 19 347 128 
L 347 722 
Q 666 556 975 473 
Q 1284 391 1588 391 
Q 1994 391 2212 530 
Q 2431 669 2431 922 
Q 2431 1156 2273 1281 
Q 2116 1406 1581 1522 
L 1381 1569 
Q 847 1681 609 1914 
Q 372 2147 372 2553 
Q 372 3047 722 3315 
Q 1072 3584 1716 3584 
Q 2034 3584 2315 3537 
Q 2597 3491 2834 3397 
z
" transform="scale(0.015625)"/>
       <path id="DejaVuSans-5d" d="M 1947 4863 
L 1947 -844 
L 622 -844 
L 622 -397 
L 1369 -397 
L 1369 4416 
L 622 4416 
L 622 4863 
L 1947 4863 
z
" transform="scale(0.015625)"/>
      </defs>
      <use xlink:href="#DejaVuSans-54"/>
      <use xlink:href="#DejaVuSans-69" x="57.958984"/>
      <use xlink:href="#DejaVuSans-6d" x="85.742188"/>
      <use xlink:href="#DejaVuSans-65" x="183.154297"/>
      <use xlink:href="#DejaVuSans-20" x="244.677734"/>
      <use xlink:href="#DejaVuSans-5b" x="276.464844"/>
      <use xlink:href="#DejaVuSans-73" x="315.478516"/>
      <use xlink:href="#DejaVuSans-5d" x="367.578125"/>
     </g>
    </g>
   </g>
   <g id="matplotlib.axis_2">
    <g id="ytick_1">
     <g id="line2d_7">
      <defs>
       <path id="m9254244e9b" d="M 0 0 
L -3.5 0 
" style="stroke: #000000; stroke-width: 0.8"/>
      </defs>
      <g>
       <use xlink:href="#m9254244e9b" x="28.942188" y="109.207219" style="stroke: #000000; stroke-width: 0.8"/>
      </g>
     </g>
     <g id="text_8">
      <!-- −2 -->
      <g transform="translate(7.2 113.006438) scale(0.1 -0.1)">
       <defs>
        <path id="DejaVuSans-2212" d="M 678 2272 
L 4684 2272 
L 4684 1741 
L 678 1741 
L 678 2272 
z
" transform="scale(0.015625)"/>
        <path id="DejaVuSans-32" d="M 1228 531 
L 3431 531 
L 3431 0 
L 469 0 
L 469 531 
Q 828 903 1448 1529 
Q 2069 2156 2228 2338 
Q 2531 2678 2651 2914 
Q 2772 3150 2772 3378 
Q 2772 3750 2511 3984 
Q 2250 4219 1831 4219 
Q 1534 4219 1204 4116 
Q 875 4013 500 3803 
L 500 4441 
Q 881 4594 1212 4672 
Q 1544 4750 1819 4750 
Q 2544 4750 2975 4387 
Q 3406 4025 3406 3419 
Q 3406 3131 3298 2873 
Q 3191 2616 2906 2266 
Q 2828 2175 2409 1742 
Q 1991 1309 1228 531 
z
" transform="scale(0.015625)"/>
       </defs>
       <use xlink:href="#DejaVuSans-2212"/>
       <use xlink:href="#DejaVuSans-32" x="83.789062"/>
      </g>
     </g>
    </g>
    <g id="ytick_2">
     <g id="line2d_8">
      <g>
       <use xlink:href="#m9254244e9b" x="28.942188" y="84.655219" style="stroke: #000000; stroke-width: 0.8"/>
      </g>
     </g>
     <g id="text_9">
      <!-- −1 -->
      <g transform="translate(7.2 88.454438) scale(0.1 -0.1)">
       <use xlink:href="#DejaVuSans-2212"/>
       <use xlink:href="#DejaVuSans-31" x="83.789062"/>
      </g>
     </g>
    </g>
    <g id="ytick_3">
     <g id="line2d_9">
      <g>
       <use xlink:href="#m9254244e9b" x="28.942188" y="60.103219" style="stroke: #000000; stroke-width: 0.8"/>
      </g>
     </g>
     <g id="text_10">
      <!-- 0 -->
      <g transform="translate(15.579688 63.902438) scale(0.1 -0.1)">
       <use xlink:href="#DejaVuSans-30"/>
      </g>
     </g>
    </g>
    <g id="ytick_4">
     <g id="line2d_10">
      <g>
       <use xlink:href="#m9254244e9b" x="28.942188" y="35.551219" style="stroke: #000000; stroke-width: 0.8"/>
      </g>
     </g>
     <g id="text_11">
      <!-- 1 -->
      <g transform="translate(15.579688 39.350437) scale(0.1 -0.1)">
       <use xlink:href="#DejaVuSans-31"/>
      </g>
     </g>
    </g>
    <g id="ytick_5">
     <g id="line2d_11">
      <g>
       <use xlink:href="#m9254244e9b" x="28.942188" y="10.999219" style="stroke: #000000; stroke-width: 0.8"/>
      </g>
     </g>
     <g id="text_12">
      <!-- 2 -->
      <g transform="translate(15.579688 14.798438) scale(0.1 -0.1)">
       <use xlink:href="#DejaVuSans-32"/>
      </g>
     </g>
    </g>
   </g>
   <g id="line2d_12">
    <path d="M 27.892957 79.35385 
L 29.092078 64.328988 
L 30.291198 85.28382 
L 31.490319 74.275272 
L 32.68944 57.282792 
L 33.888561 55.672866 
L 35.087682 57.307349 
L 36.286803 68.004501 
L 37.485924 63.269182 
L 38.685045 41.038343 
L 39.884166 37.09355 
L 41.083286 60.600379 
L 42.282407 79.968946 
L 43.481528 75.313397 
L 44.680649 92.920464 
L 45.87977 120.591643 
L 47.078891 87.47323 
L 48.278012 47.846778 
L 49.477133 38.958106 
L 50.676253 18.929542 
L 51.875374 28.875208 
L 53.074495 47.947121 
L 54.273616 36.590853 
L 55.472737 76.094024 
L 56.671858 109.136065 
L 57.870979 66.726678 
L 59.0701 66.190302 
L 60.26922 84.27549 
L 61.468341 49.706538 
L 62.667462 39.071659 
L 63.866583 31.978391 
L 65.065704 16.154234 
L 66.264825 53.055645 
L 67.463946 68.175125 
L 68.663067 52.073272 
L 69.862188 83.773539 
L 71.061308 95.042067 
L 72.260429 53.607908 
L 73.45955 29.183793 
L 74.658671 25.505856 
L 75.857792 31.599479 
L 77.056913 45.459613 
L 78.256034 55.109077 
L 79.455155 70.040845 
L 80.654275 86.696201 
L 81.853396 86.659829 
L 83.052517 60.788329 
L 84.251638 42.757359 
L 85.450759 66.76458 
L 86.64988 67.946598 
L 87.849001 36.057521 
L 89.048122 48.57191 
L 90.247242 59.189508 
L 91.446363 43.591945 
L 92.645484 59.279312 
L 93.844605 62.104252 
L 95.043726 67.915598 
L 96.242847 110.144178 
L 97.441968 88.334883 
L 98.641089 51.913424 
L 99.840209 82.687702 
L 101.03933 72.716909 
L 102.238451 41.208723 
L 103.437572 58.360751 
L 104.636693 54.948666 
L 105.835814 53.33997 
L 107.034935 68.41206 
L 108.234056 44.646892 
L 109.433177 51.790849 
L 110.632297 94.892191 
L 111.831418 85.090778 
L 113.030539 66.668138 
L 114.22966 77.238626 
L 115.428781 73.489304 
L 116.627902 55.890089 
L 117.827023 44.055496 
L 119.026144 48.811509 
L 120.225264 63.077092 
L 121.424385 64.759093 
L 122.623506 51.0751 
L 123.822627 32.654431 
L 125.021748 41.928652 
L 126.220869 63.401365 
L 127.41999 48.471132 
L 128.619111 58.597917 
L 129.818231 101.807755 
L 131.017352 84.361308 
L 132.216473 54.303741 
L 133.415594 49.08766 
L 134.614715 22.324032 
L 135.813836 29.765738 
L 137.012957 48.628179 
L 138.212078 26.557275 
L 139.411198 59.271964 
L 140.610319 99.59988 
L 141.80944 62.169172 
L 143.008561 55.911169 
L 144.207682 74.105545 
L 145.406803 50.705064 
L 146.605924 45.772925 
L 147.805045 38.983609 
L 149.004166 23.583499 
L 150.203286 58.609887 
L 151.402407 79.473099 
L 152.601528 67.681874 
L 153.800649 91.556999 
L 154.99977 109.483052 
L 156.198891 79.123401 
L 157.398012 39.689391 
L 158.597133 21.650671 
L 159.796253 25.12318 
L 160.995374 33.772361 
L 162.194495 50.773631 
L 163.393616 77.326076 
L 164.592737 99.980794 
L 165.791858 117.840531 
L 166.990979 97.102764 
L 168.1901 57.844685 
L 169.38922 71.760126 
L 170.588341 72.09944 
L 171.787462 31.054628 
L 172.986583 40.309274 
L 174.185704 53.472341 
L 175.384825 41.199571 
L 176.583946 62.561962 
L 177.783067 62.733866 
L 178.982188 62.359173 
L 180.181308 109.819971 
L 181.380429 94.1592 
L 182.57955 49.868986 
L 183.778671 70.539494 
L 184.977792 63.325876 
L 186.176913 34.314868 
L 187.376034 46.231427 
L 188.575155 45.871991 
L 189.774275 51.304709 
L 190.973396 68.068233 
L 192.172517 44.096582 
L 193.371638 39.457051 
L 194.570759 72.65454 
L 195.76988 72.594223 
L 196.969001 53.654935 
L 198.168122 55.134395 
L 199.367242 62.309266 
L 200.566363 51.441166 
L 201.765484 35.226292 
L 202.964605 44.994256 
L 204.163726 62.808725 
L 205.362847 72.509106 
L 206.561968 72.486239 
L 207.761089 44.367455 
L 208.960209 38.339522 
L 210.15933 58.890906 
L 211.358451 32.861081 
L 212.557572 30.520078 
L 213.756693 82.478283 
L 214.955814 82.75324 
L 216.154935 69.70458 
L 217.354056 75.199508 
L 218.553177 47.868463 
L 219.752297 53.834148 
L 220.951418 71.488145 
L 222.150539 38.298871 
L 223.34966 57.191412 
L 224.548781 97.802634 
L 225.747902 67.060544 
L 226.947023 55.61396 
L 228.146144 71.077178 
L 229.345264 59.150109 
L 230.544385 60.626883 
L 231.743506 54.364364 
L 232.942627 37.886131 
L 234.141748 63.977146 
L 235.340869 84.587292 
L 236.53999 75.390452 
L 237.739111 87.756922 
L 238.938231 110.552571 
L 240.137352 98.140593 
L 241.336473 53.044179 
L 242.535594 24.069975 
L 243.734715 21.980858 
L 244.933836 18.441497 
L 246.132957 33.295025 
L 247.332078 61.909366 
L 248.531198 83.193679 
L 249.730319 117.197588 
L 250.92944 108.997296 
L 252.128561 57.592704 
L 253.327682 63.735137 
L 254.526803 65.891406 
L 255.725924 21.001748 
L 256.925045 27.167409 
L 258.124166 41.357366 
L 259.323286 32.662918 
L 260.522407 58.701729 
L 261.721528 56.224603 
L 262.920649 47.457237 
L 264.11977 94.745084 
L 265.318891 87.653238 
L 266.518012 42.129863 
L 267.717133 53.790397 
L 268.916253 52.125661 
L 270.115374 31.813998 
L 271.314495 41.703342 
L 272.513616 46.62704 
L 273.712737 60.882748 
L 274.911858 81.102525 
L 276.110979 61.301329 
L 277.3101 45.288366 
L 278.50922 62.6239 
L 279.708341 69.333157 
L 280.907462 51.267804 
L 282.106583 43.370388 
L 283.305704 61.10461 
L 284.504825 60.271655 
L 285.703946 42.913777 
L 286.903067 56.574734 
L 288.102188 74.309244 
L 290.500429 104.75182 
L 291.69955 72.414712 
L 292.898671 52.620122 
L 294.097792 70.645094 
L 295.296913 34.050258 
L 296.496034 14.009464 
L 297.695155 62.68742 
L 298.894275 73.889512 
L 300.093396 76.424538 
L 301.292517 93.2749 
L 302.491638 68.617764 
L 303.690759 73.541511 
L 304.88988 90.031123 
L 306.089001 48.550674 
L 307.288122 50.036826 
L 308.487242 84.617746 
L 309.686363 61.589032 
L 310.885484 45.943195 
L 312.084605 55.803798 
L 313.283726 54.068479 
L 314.482847 61.797505 
L 315.681968 57.161004 
L 316.881089 40.47617 
L 318.080209 53.56814 
L 319.27933 69.512238 
L 320.478451 62.290197 
L 321.677572 61.122441 
L 322.876693 86.531888 
L 324.075814 97.990054 
L 325.274935 60.08115 
L 326.474056 30.550985 
L 327.673177 27.670757 
L 328.872297 12.345846 
L 330.071418 20.376998 
L 331.270539 43.403909 
L 332.46966 55.165588 
L 333.668781 99.583609 
L 334.867902 108.153317 
L 336.067023 54.814337 
L 336.067023 54.814337 
" clip-path="url(#pc81c59a41a)" style="fill: none; stroke: #ff0000; stroke-width: 1.5; stroke-linecap: square"/>
   </g>
   <g id="patch_3">
    <path d="M 28.942188 109.207219 
L 28.942188 10.999219 
" style="fill: none; stroke: #000000; stroke-width: 0.8; stroke-linejoin: miter; stroke-linecap: square"/>
   </g>
   <g id="patch_4">
    <path d="M 335.842188 109.207219 
L 335.842188 10.999219 
" style="fill: none; stroke: #000000; stroke-width: 0.8; stroke-linejoin: miter; stroke-linecap: square"/>
   </g>
   <g id="patch_5">
    <path d="M 28.942188 109.207219 
L 335.842188 109.207219 
" style="fill: none; stroke: #000000; stroke-width: 0.8; stroke-linejoin: miter; stroke-linecap: square"/>
   </g>
   <g id="patch_6">
    <path d="M 28.942188 10.999219 
L 335.842188 10.999219 
" style="fill: none; stroke: #000000; stroke-width: 0.8; stroke-linejoin: miter; stroke-linecap: square"/>
   </g>
  </g>
 </g>
 <defs>
  <clipPath id="pc81c59a41a">
   <rect x="28.942188" y="10.999219" width="306.9" height="98.208"/>
  </clipPath>
 </defs>
</svg>
