<?xml version="1.0" encoding="utf-8" standalone="no"?>
<!DOCTYPE svg PUBLIC "-//W3C//DTD SVG 1.1//EN"
  "http://www.w3.org/Graphics/SVG/1.1/DTD/svg11.dtd">
<svg xmlns:xlink="http://www.w3.org/1999/xlink" width="343.042188pt" height="146.763469pt" viewBox="0 0 343.042188 146.763469" xmlns="http://www.w3.org/2000/svg" version="1.1">
 <metadata>
  <rdf:RDF xmlns:dc="http://purl.org/dc/elements/1.1/" xmlns:cc="http://creativecommons.org/ns#" xmlns:rdf="http://www.w3.org/1999/02/22-rdf-syntax-ns#">
   <cc:Work>
    <dc:type rdf:resource="http://purl.org/dc/dcmitype/StillImage"/>
    <dc:date>2025-01-14T12:31:24.842307</dc:date>
    <dc:format>image/svg+xml</dc:format>
    <dc:creator>
     <cc:Agent>
      <dc:title>Matplotlib v3.9.2, https://matplotlib.org/</dc:title>
     </cc:Agent>
    </dc:creator>
   </cc:Work>
  </rdf:RDF>
 </metadata>
 <defs>
  <style type="text/css">*{stroke-linejoin: round; stroke-linecap: butt}</style>
 </defs>
 <g id="figure_1">
  <g id="patch_1">
   <path d="M 0 146.763469 
L 343.042188 146.763469 
L 343.042188 0 
L 0 0 
z
" style="fill: #ffffff"/>
  </g>
  <g id="axes_1">
   <g id="patch_2">
    <path d="M 28.942188 109.207219 
L 335.842188 109.207219 
L 335.842188 10.999219 
L 28.942188 10.999219 
z
" style="fill: #ffffff"/>
   </g>
   <g id="matplotlib.axis_1">
    <g id="xtick_1">
     <g id="line2d_1">
      <defs>
       <path id="mcd0b6715ba" d="M 0 0 
L 0 3.5 
" style="stroke: #000000; stroke-width: 0.8"/>
      </defs>
      <g>
       <use xlink:href="#mcd0b6715ba" x="53.494188" y="109.207219" style="stroke: #000000; stroke-width: 0.8"/>
      </g>
     </g>
     <g id="text_1">
      <!-- 0.13 -->
      <g transform="translate(42.361375 123.805656) scale(0.1 -0.1)">
       <defs>
        <path id="DejaVuSans-30" d="M 2034 4250 
Q 1547 4250 1301 3770 
Q 1056 3291 1056 2328 
Q 1056 1369 1301 889 
Q 1547 409 2034 409 
Q 2525 409 2770 889 
Q 3016 1369 3016 2328 
Q 3016 3291 2770 3770 
Q 2525 4250 2034 4250 
z
M 2034 4750 
Q 2819 4750 3233 4129 
Q 3647 3509 3647 2328 
Q 3647 1150 3233 529 
Q 2819 -91 2034 -91 
Q 1250 -91 836 529 
Q 422 1150 422 2328 
Q 422 3509 836 4129 
Q 1250 4750 2034 4750 
z
" transform="scale(0.015625)"/>
        <path id="DejaVuSans-2e" d="M 684 794 
L 1344 794 
L 1344 0 
L 684 0 
L 684 794 
z
" transform="scale(0.015625)"/>
        <path id="DejaVuSans-31" d="M 794 531 
L 1825 531 
L 1825 4091 
L 703 3866 
L 703 4441 
L 1819 4666 
L 2450 4666 
L 2450 531 
L 3481 531 
L 3481 0 
L 794 0 
L 794 531 
z
" transform="scale(0.015625)"/>
        <path id="DejaVuSans-33" d="M 2597 2516 
Q 3050 2419 3304 2112 
Q 3559 1806 3559 1356 
Q 3559 666 3084 287 
Q 2609 -91 1734 -91 
Q 1441 -91 1130 -33 
Q 819 25 488 141 
L 488 750 
Q 750 597 1062 519 
Q 1375 441 1716 441 
Q 2309 441 2620 675 
Q 2931 909 2931 1356 
Q 2931 1769 2642 2001 
Q 2353 2234 1838 2234 
L 1294 2234 
L 1294 2753 
L 1863 2753 
Q 2328 2753 2575 2939 
Q 2822 3125 2822 3475 
Q 2822 3834 2567 4026 
Q 2313 4219 1838 4219 
Q 1578 4219 1281 4162 
Q 984 4106 628 3988 
L 628 4550 
Q 988 4650 1302 4700 
Q 1616 4750 1894 4750 
Q 2613 4750 3031 4423 
Q 3450 4097 3450 3541 
Q 3450 3153 3228 2886 
Q 3006 2619 2597 2516 
z
" transform="scale(0.015625)"/>
       </defs>
       <use xlink:href="#DejaVuSans-30"/>
       <use xlink:href="#DejaVuSans-2e" x="63.623047"/>
       <use xlink:href="#DejaVuSans-31" x="95.410156"/>
       <use xlink:href="#DejaVuSans-33" x="159.033203"/>
      </g>
     </g>
    </g>
    <g id="xtick_2">
     <g id="line2d_2">
      <g>
       <use xlink:href="#mcd0b6715ba" x="102.598187" y="109.207219" style="stroke: #000000; stroke-width: 0.8"/>
      </g>
     </g>
     <g id="text_2">
      <!-- 0.14 -->
      <g transform="translate(91.465375 123.805656) scale(0.1 -0.1)">
       <defs>
        <path id="DejaVuSans-34" d="M 2419 4116 
L 825 1625 
L 2419 1625 
L 2419 4116 
z
M 2253 4666 
L 3047 4666 
L 3047 1625 
L 3713 1625 
L 3713 1100 
L 3047 1100 
L 3047 0 
L 2419 0 
L 2419 1100 
L 313 1100 
L 313 1709 
L 2253 4666 
z
" transform="scale(0.015625)"/>
       </defs>
       <use xlink:href="#DejaVuSans-30"/>
       <use xlink:href="#DejaVuSans-2e" x="63.623047"/>
       <use xlink:href="#DejaVuSans-31" x="95.410156"/>
       <use xlink:href="#DejaVuSans-34" x="159.033203"/>
      </g>
     </g>
    </g>
    <g id="xtick_3">
     <g id="line2d_3">
      <g>
       <use xlink:href="#mcd0b6715ba" x="151.702188" y="109.207219" style="stroke: #000000; stroke-width: 0.8"/>
      </g>
     </g>
     <g id="text_3">
      <!-- 0.15 -->
      <g transform="translate(140.569375 123.805656) scale(0.1 -0.1)">
       <defs>
        <path id="DejaVuSans-35" d="M 691 4666 
L 3169 4666 
L 3169 4134 
L 1269 4134 
L 1269 2991 
Q 1406 3038 1543 3061 
Q 1681 3084 1819 3084 
Q 2600 3084 3056 2656 
Q 3513 2228 3513 1497 
Q 3513 744 3044 326 
Q 2575 -91 1722 -91 
Q 1428 -91 1123 -41 
Q 819 9 494 109 
L 494 744 
Q 775 591 1075 516 
Q 1375 441 1709 441 
Q 2250 441 2565 725 
Q 2881 1009 2881 1497 
Q 2881 1984 2565 2268 
Q 2250 2553 1709 2553 
Q 1456 2553 1204 2497 
Q 953 2441 691 2322 
L 691 4666 
z
" transform="scale(0.015625)"/>
       </defs>
       <use xlink:href="#DejaVuSans-30"/>
       <use xlink:href="#DejaVuSans-2e" x="63.623047"/>
       <use xlink:href="#DejaVuSans-31" x="95.410156"/>
       <use xlink:href="#DejaVuSans-35" x="159.033203"/>
      </g>
     </g>
    </g>
    <g id="xtick_4">
     <g id="line2d_4">
      <g>
       <use xlink:href="#mcd0b6715ba" x="200.806188" y="109.207219" style="stroke: #000000; stroke-width: 0.8"/>
      </g>
     </g>
     <g id="text_4">
      <!-- 0.16 -->
      <g transform="translate(189.673375 123.805656) scale(0.1 -0.1)">
       <defs>
        <path id="DejaVuSans-36" d="M 2113 2584 
Q 1688 2584 1439 2293 
Q 1191 2003 1191 1497 
Q 1191 994 1439 701 
Q 1688 409 2113 409 
Q 2538 409 2786 701 
Q 3034 994 3034 1497 
Q 3034 2003 2786 2293 
Q 2538 2584 2113 2584 
z
M 3366 4563 
L 3366 3988 
Q 3128 4100 2886 4159 
Q 2644 4219 2406 4219 
Q 1781 4219 1451 3797 
Q 1122 3375 1075 2522 
Q 1259 2794 1537 2939 
Q 1816 3084 2150 3084 
Q 2853 3084 3261 2657 
Q 3669 2231 3669 1497 
Q 3669 778 3244 343 
Q 2819 -91 2113 -91 
Q 1303 -91 875 529 
Q 447 1150 447 2328 
Q 447 3434 972 4092 
Q 1497 4750 2381 4750 
Q 2619 4750 2861 4703 
Q 3103 4656 3366 4563 
z
" transform="scale(0.015625)"/>
       </defs>
       <use xlink:href="#DejaVuSans-30"/>
       <use xlink:href="#DejaVuSans-2e" x="63.623047"/>
       <use xlink:href="#DejaVuSans-31" x="95.410156"/>
       <use xlink:href="#DejaVuSans-36" x="159.033203"/>
      </g>
     </g>
    </g>
    <g id="xtick_5">
     <g id="line2d_5">
      <g>
       <use xlink:href="#mcd0b6715ba" x="249.910188" y="109.207219" style="stroke: #000000; stroke-width: 0.8"/>
      </g>
     </g>
     <g id="text_5">
      <!-- 0.17 -->
      <g transform="translate(238.777375 123.805656) scale(0.1 -0.1)">
       <defs>
        <path id="DejaVuSans-37" d="M 525 4666 
L 3525 4666 
L 3525 4397 
L 1831 0 
L 1172 0 
L 2766 4134 
L 525 4134 
L 525 4666 
z
" transform="scale(0.015625)"/>
       </defs>
       <use xlink:href="#DejaVuSans-30"/>
       <use xlink:href="#DejaVuSans-2e" x="63.623047"/>
       <use xlink:href="#DejaVuSans-31" x="95.410156"/>
       <use xlink:href="#DejaVuSans-37" x="159.033203"/>
      </g>
     </g>
    </g>
    <g id="xtick_6">
     <g id="line2d_6">
      <g>
       <use xlink:href="#mcd0b6715ba" x="299.014188" y="109.207219" style="stroke: #000000; stroke-width: 0.8"/>
      </g>
     </g>
     <g id="text_6">
      <!-- 0.18 -->
      <g transform="translate(287.881375 123.805656) scale(0.1 -0.1)">
       <defs>
        <path id="DejaVuSans-38" d="M 2034 2216 
Q 1584 2216 1326 1975 
Q 1069 1734 1069 1313 
Q 1069 891 1326 650 
Q 1584 409 2034 409 
Q 2484 409 2743 651 
Q 3003 894 3003 1313 
Q 3003 1734 2745 1975 
Q 2488 2216 2034 2216 
z
M 1403 2484 
Q 997 2584 770 2862 
Q 544 3141 544 3541 
Q 544 4100 942 4425 
Q 1341 4750 2034 4750 
Q 2731 4750 3128 4425 
Q 3525 4100 3525 3541 
Q 3525 3141 3298 2862 
Q 3072 2584 2669 2484 
Q 3125 2378 3379 2068 
Q 3634 1759 3634 1313 
Q 3634 634 3220 271 
Q 2806 -91 2034 -91 
Q 1263 -91 848 271 
Q 434 634 434 1313 
Q 434 1759 690 2068 
Q 947 2378 1403 2484 
z
M 1172 3481 
Q 1172 3119 1398 2916 
Q 1625 2713 2034 2713 
Q 2441 2713 2670 2916 
Q 2900 3119 2900 3481 
Q 2900 3844 2670 4047 
Q 2441 4250 2034 4250 
Q 1625 4250 1398 4047 
Q 1172 3844 1172 3481 
z
" transform="scale(0.015625)"/>
       </defs>
       <use xlink:href="#DejaVuSans-30"/>
       <use xlink:href="#DejaVuSans-2e" x="63.623047"/>
       <use xlink:href="#DejaVuSans-31" x="95.410156"/>
       <use xlink:href="#DejaVuSans-38" x="159.033203"/>
      </g>
     </g>
    </g>
    <g id="text_7">
     <!-- Time [s] -->
     <g transform="translate(162.063281 137.483781) scale(0.1 -0.1)">
      <defs>
       <path id="DejaVuSans-54" d="M -19 4666 
L 3928 4666 
L 3928 4134 
L 2272 4134 
L 2272 0 
L 1638 0 
L 1638 4134 
L -19 4134 
L -19 4666 
z
" transform="scale(0.015625)"/>
       <path id="DejaVuSans-69" d="M 603 3500 
L 1178 3500 
L 1178 0 
L 603 0 
L 603 3500 
z
M 603 4863 
L 1178 4863 
L 1178 4134 
L 603 4134 
L 603 4863 
z
" transform="scale(0.015625)"/>
       <path id="DejaVuSans-6d" d="M 3328 2828 
Q 3544 3216 3844 3400 
Q 4144 3584 4550 3584 
Q 5097 3584 5394 3201 
Q 5691 2819 5691 2113 
L 5691 0 
L 5113 0 
L 5113 2094 
Q 5113 2597 4934 2840 
Q 4756 3084 4391 3084 
Q 3944 3084 3684 2787 
Q 3425 2491 3425 1978 
L 3425 0 
L 2847 0 
L 2847 2094 
Q 2847 2600 2669 2842 
Q 2491 3084 2119 3084 
Q 1678 3084 1418 2786 
Q 1159 2488 1159 1978 
L 1159 0 
L 581 0 
L 581 3500 
L 1159 3500 
L 1159 2956 
Q 1356 3278 1631 3431 
Q 1906 3584 2284 3584 
Q 2666 3584 2933 3390 
Q 3200 3197 3328 2828 
z
" transform="scale(0.015625)"/>
       <path id="DejaVuSans-65" d="M 3597 1894 
L 3597 1613 
L 953 1613 
Q 991 1019 1311 708 
Q 1631 397 2203 397 
Q 2534 397 2845 478 
Q 3156 559 3463 722 
L 3463 178 
Q 3153 47 2828 -22 
Q 2503 -91 2169 -91 
Q 1331 -91 842 396 
Q 353 884 353 1716 
Q 353 2575 817 3079 
Q 1281 3584 2069 3584 
Q 2775 3584 3186 3129 
Q 3597 2675 3597 1894 
z
M 3022 2063 
Q 3016 2534 2758 2815 
Q 2500 3097 2075 3097 
Q 1594 3097 1305 2825 
Q 1016 2553 972 2059 
L 3022 2063 
z
" transform="scale(0.015625)"/>
       <path id="DejaVuSans-20" transform="scale(0.015625)"/>
       <path id="DejaVuSans-5b" d="M 550 4863 
L 1875 4863 
L 1875 4416 
L 1125 4416 
L 1125 -397 
L 1875 -397 
L 1875 -844 
L 550 -844 
L 550 4863 
z
" transform="scale(0.015625)"/>
       <path id="DejaVuSans-73" d="M 2834 3397 
L 2834 2853 
Q 2591 2978 2328 3040 
Q 2066 3103 1784 3103 
Q 1356 3103 1142 2972 
Q 928 2841 928 2578 
Q 928 2378 1081 2264 
Q 1234 2150 1697 2047 
L 1894 2003 
Q 2506 1872 2764 1633 
Q 3022 1394 3022 966 
Q 3022 478 2636 193 
Q 2250 -91 1575 -91 
Q 1294 -91 989 -36 
Q 684 19 347 128 
L 347 722 
Q 666 556 975 473 
Q 1284 391 1588 391 
Q 1994 391 2212 530 
Q 2431 669 2431 922 
Q 2431 1156 2273 1281 
Q 2116 1406 1581 1522 
L 1381 1569 
Q 847 1681 609 1914 
Q 372 2147 372 2553 
Q 372 3047 722 3315 
Q 1072 3584 1716 3584 
Q 2034 3584 2315 3537 
Q 2597 3491 2834 3397 
z
" transform="scale(0.015625)"/>
       <path id="DejaVuSans-5d" d="M 1947 4863 
L 1947 -844 
L 622 -844 
L 622 -397 
L 1369 -397 
L 1369 4416 
L 622 4416 
L 622 4863 
L 1947 4863 
z
" transform="scale(0.015625)"/>
      </defs>
      <use xlink:href="#DejaVuSans-54"/>
      <use xlink:href="#DejaVuSans-69" x="57.958984"/>
      <use xlink:href="#DejaVuSans-6d" x="85.742188"/>
      <use xlink:href="#DejaVuSans-65" x="183.154297"/>
      <use xlink:href="#DejaVuSans-20" x="244.677734"/>
      <use xlink:href="#DejaVuSans-5b" x="276.464844"/>
      <use xlink:href="#DejaVuSans-73" x="315.478516"/>
      <use xlink:href="#DejaVuSans-5d" x="367.578125"/>
     </g>
    </g>
   </g>
   <g id="matplotlib.axis_2">
    <g id="ytick_1">
     <g id="line2d_7">
      <defs>
       <path id="m45ff0b8076" d="M 0 0 
L -3.5 0 
" style="stroke: #000000; stroke-width: 0.8"/>
      </defs>
      <g>
       <use xlink:href="#m45ff0b8076" x="28.942188" y="109.207219" style="stroke: #000000; stroke-width: 0.8"/>
      </g>
     </g>
     <g id="text_8">
      <!-- −2 -->
      <g transform="translate(7.2 113.006438) scale(0.1 -0.1)">
       <defs>
        <path id="DejaVuSans-2212" d="M 678 2272 
L 4684 2272 
L 4684 1741 
L 678 1741 
L 678 2272 
z
" transform="scale(0.015625)"/>
        <path id="DejaVuSans-32" d="M 1228 531 
L 3431 531 
L 3431 0 
L 469 0 
L 469 531 
Q 828 903 1448 1529 
Q 2069 2156 2228 2338 
Q 2531 2678 2651 2914 
Q 2772 3150 2772 3378 
Q 2772 3750 2511 3984 
Q 2250 4219 1831 4219 
Q 1534 4219 1204 4116 
Q 875 4013 500 3803 
L 500 4441 
Q 881 4594 1212 4672 
Q 1544 4750 1819 4750 
Q 2544 4750 2975 4387 
Q 3406 4025 3406 3419 
Q 3406 3131 3298 2873 
Q 3191 2616 2906 2266 
Q 2828 2175 2409 1742 
Q 1991 1309 1228 531 
z
" transform="scale(0.015625)"/>
       </defs>
       <use xlink:href="#DejaVuSans-2212"/>
       <use xlink:href="#DejaVuSans-32" x="83.789062"/>
      </g>
     </g>
    </g>
    <g id="ytick_2">
     <g id="line2d_8">
      <g>
       <use xlink:href="#m45ff0b8076" x="28.942188" y="84.655219" style="stroke: #000000; stroke-width: 0.8"/>
      </g>
     </g>
     <g id="text_9">
      <!-- −1 -->
      <g transform="translate(7.2 88.454438) scale(0.1 -0.1)">
       <use xlink:href="#DejaVuSans-2212"/>
       <use xlink:href="#DejaVuSans-31" x="83.789062"/>
      </g>
     </g>
    </g>
    <g id="ytick_3">
     <g id="line2d_9">
      <g>
       <use xlink:href="#m45ff0b8076" x="28.942188" y="60.103219" style="stroke: #000000; stroke-width: 0.8"/>
      </g>
     </g>
     <g id="text_10">
      <!-- 0 -->
      <g transform="translate(15.579688 63.902438) scale(0.1 -0.1)">
       <use xlink:href="#DejaVuSans-30"/>
      </g>
     </g>
    </g>
    <g id="ytick_4">
     <g id="line2d_10">
      <g>
       <use xlink:href="#m45ff0b8076" x="28.942188" y="35.551219" style="stroke: #000000; stroke-width: 0.8"/>
      </g>
     </g>
     <g id="text_11">
      <!-- 1 -->
      <g transform="translate(15.579688 39.350437) scale(0.1 -0.1)">
       <use xlink:href="#DejaVuSans-31"/>
      </g>
     </g>
    </g>
    <g id="ytick_5">
     <g id="line2d_11">
      <g>
       <use xlink:href="#m45ff0b8076" x="28.942188" y="10.999219" style="stroke: #000000; stroke-width: 0.8"/>
      </g>
     </g>
     <g id="text_12">
      <!-- 2 -->
      <g transform="translate(15.579688 14.798438) scale(0.1 -0.1)">
       <use xlink:href="#DejaVuSans-32"/>
      </g>
     </g>
    </g>
   </g>
   <g id="line2d_12">
    <path d="M 27.892957 23.760565 
L 29.092078 33.846351 
L 30.291198 61.151563 
L 31.490319 66.963005 
L 32.68944 59.374549 
L 33.888561 34.857722 
L 35.087682 45.519794 
L 36.286803 78.49902 
L 37.485924 91.279452 
L 38.685045 78.161885 
L 39.884166 43.824365 
L 41.083286 65.00849 
L 42.282407 83.385583 
L 43.481528 110.455024 
L 44.680649 87.579153 
L 45.87977 76.960173 
L 47.078891 68.715889 
L 49.477133 98.077193 
L 50.676253 96.563953 
L 51.875374 74.981328 
L 53.074495 57.098242 
L 54.273616 63.646418 
L 55.472737 96.114435 
L 56.671858 94.541401 
L 57.870979 70.641911 
L 59.0701 34.38447 
L 60.26922 44.566691 
L 61.468341 67.573569 
L 62.667462 71.85236 
L 63.866583 55.961099 
L 65.065704 25.240706 
L 66.264825 33.904231 
L 67.463946 35.977189 
L 68.663067 60.274499 
L 69.862188 44.173946 
L 71.061308 32.133896 
L 72.260429 13.577946 
L 73.45955 30.902222 
L 74.658671 53.958589 
L 75.857792 54.655342 
L 77.056913 27.552518 
L 78.256034 13.512919 
L 79.455155 31.554563 
L 80.654275 70.854892 
L 81.853396 71.713093 
L 83.052517 58.497907 
L 84.251638 31.867666 
L 85.450759 44.53135 
L 87.849001 83.216728 
L 89.048122 83.834329 
L 90.247242 61.769572 
L 91.446363 66.448917 
L 92.645484 73.598604 
L 93.844605 106.716107 
L 96.242847 75.561335 
L 97.441968 58.634677 
L 98.641089 83.747249 
L 99.840209 106.3115 
L 101.03933 102.510339 
L 102.238451 73.38416 
L 103.437572 56.540875 
L 104.636693 63.21307 
L 105.835814 91.420222 
L 107.034935 91.754604 
L 108.234056 81.375222 
L 109.433177 43.887103 
L 110.632297 42.22041 
L 111.831418 52.153015 
L 113.030539 71.345883 
L 114.22966 62.752396 
L 115.428781 32.959049 
L 116.627902 31.907149 
L 117.827023 39.098599 
L 119.026144 65.192942 
L 120.225264 42.993544 
L 122.623506 7.832996 
L 125.021748 52.908569 
L 126.220869 59.332249 
L 128.619111 19.725464 
L 129.818231 22.514307 
L 131.017352 56.398319 
L 132.216473 68.087575 
L 133.415594 66.061642 
L 134.614715 34.039357 
L 135.813836 43.691152 
L 137.012957 60.971412 
L 138.212078 86.588884 
L 139.411198 80.208916 
L 140.610319 60.923477 
L 141.80944 64.158769 
L 143.008561 74.998176 
L 144.207682 105.300404 
L 145.406803 93.526934 
L 146.605924 79.774096 
L 147.805045 56.100043 
L 149.004166 73.917175 
L 150.203286 99.717285 
L 151.402407 110.232001 
L 153.800649 61.631169 
L 154.99977 59.720738 
L 156.198891 85.52418 
L 157.398012 87.150379 
L 158.597133 79.402438 
L 159.796253 44.623401 
L 160.995374 48.991855 
L 162.194495 54.216814 
L 163.393616 75.99096 
L 164.592737 64.810224 
L 165.791858 38.491872 
L 166.990979 24.787831 
L 168.1901 30.098393 
L 169.38922 61.768685 
L 170.588341 52.406634 
L 171.787462 34.161041 
L 172.986583 7.483628 
L 174.185704 25.257868 
L 175.384825 48.725939 
L 176.583946 57.836695 
L 178.982188 24.541815 
L 180.181308 25.835413 
L 181.380429 51.221651 
L 182.57955 61.399414 
L 183.778671 65.747411 
L 184.977792 35.135245 
L 186.176913 40.933254 
L 187.376034 54.38364 
L 188.575155 93.899456 
L 189.774275 88.897586 
L 190.973396 65.254087 
L 192.172517 52.62779 
L 193.371638 66.493452 
L 194.570759 99.488334 
L 195.76988 93.943146 
L 196.969001 84.393549 
L 198.168122 65.861734 
L 199.367242 79.104216 
L 200.566363 93.734066 
L 201.765484 102.981614 
L 202.964605 88.911582 
L 204.163726 65.234463 
L 205.362847 56.099442 
L 206.561968 79.917235 
L 207.761089 94.022632 
L 208.960209 90.007175 
L 210.15933 43.984536 
L 211.358451 41.662841 
L 212.557572 50.332015 
L 213.756693 82.637879 
L 214.955814 66.515534 
L 216.154935 44.074997 
L 217.354056 27.45586 
L 218.553177 30.326122 
L 219.752297 48.721687 
L 220.951418 46.293551 
L 222.150539 42.414397 
L 223.34966 19.537227 
L 224.548781 24.440051 
L 226.947023 61.414203 
L 228.146144 45.42361 
L 229.345264 15.1427 
L 230.544385 13.296304 
L 231.743506 49.752584 
L 232.942627 71.107376 
L 234.141748 70.311591 
L 235.340869 36.229227 
L 236.53999 44.055632 
L 237.739111 49.842746 
L 238.938231 82.47634 
L 241.336473 76.95254 
L 242.535594 60.417824 
L 243.734715 62.254658 
L 244.933836 87.844062 
L 246.132957 98.730525 
L 247.332078 91.47259 
L 248.531198 61.787322 
L 249.730319 70.844858 
L 250.92944 98.800021 
L 252.128561 112.900354 
L 253.327682 88.659045 
L 254.526803 57.290826 
L 255.725924 55.591956 
L 256.925045 78.376422 
L 258.124166 89.542282 
L 259.323286 91.462178 
L 260.522407 61.410114 
L 261.721528 53.933477 
L 262.920649 39.486234 
L 264.11977 68.817982 
L 265.318891 66.240614 
L 266.518012 54.718223 
L 267.717133 22.499162 
L 268.916253 26.960564 
L 270.115374 55.62079 
L 271.314495 60.003095 
L 272.513616 39.45128 
L 273.712737 10.507999 
L 274.911858 22.567291 
L 276.110979 45.205309 
L 277.3101 56.031706 
L 278.50922 45.228733 
L 279.708341 25.835662 
L 280.907462 20.293182 
L 282.106583 34.74504 
L 283.305704 58.475933 
L 284.504825 76.702487 
L 285.703946 51.081226 
L 286.903067 41.668926 
L 288.102188 39.155631 
L 289.301308 84.481408 
L 290.500429 82.707061 
L 291.69955 70.962747 
L 292.898671 47.75584 
L 294.097792 67.727773 
L 295.296913 95.657717 
L 296.496034 100.903432 
L 297.695155 89.664606 
L 298.894275 69.295756 
L 300.093396 70.504861 
L 301.292517 82.176842 
L 302.491638 99.589895 
L 303.690759 100.701933 
L 304.88988 74.552766 
L 306.089001 56.493336 
L 307.288122 67.459304 
L 308.487242 93.410916 
L 309.686363 97.625287 
L 310.885484 57.80798 
L 312.084605 45.225652 
L 313.283726 44.154634 
L 314.482847 78.598596 
L 315.681968 63.384238 
L 316.881089 52.127545 
L 318.080209 25.972084 
L 319.27933 32.290789 
L 321.677572 56.484756 
L 322.876693 52.736878 
L 324.075814 25.630934 
L 325.274935 13.331339 
L 326.474056 27.607618 
L 327.673177 53.540484 
L 328.872297 54.503768 
L 330.071418 25.272303 
L 331.270539 18.416899 
L 332.46966 40.220203 
L 333.668781 67.895089 
L 334.867902 69.036587 
L 336.067023 41.642419 
L 336.067023 41.642419 
" clip-path="url(#pe00b41ffee)" style="fill: none; stroke: #ff0000; stroke-width: 1.5; stroke-linecap: square"/>
   </g>
   <g id="patch_3">
    <path d="M 28.942188 109.207219 
L 28.942188 10.999219 
" style="fill: none; stroke: #000000; stroke-width: 0.8; stroke-linejoin: miter; stroke-linecap: square"/>
   </g>
   <g id="patch_4">
    <path d="M 335.842188 109.207219 
L 335.842188 10.999219 
" style="fill: none; stroke: #000000; stroke-width: 0.8; stroke-linejoin: miter; stroke-linecap: square"/>
   </g>
   <g id="patch_5">
    <path d="M 28.942188 109.207219 
L 335.842188 109.207219 
" style="fill: none; stroke: #000000; stroke-width: 0.8; stroke-linejoin: miter; stroke-linecap: square"/>
   </g>
   <g id="patch_6">
    <path d="M 28.942188 10.999219 
L 335.842188 10.999219 
" style="fill: none; stroke: #000000; stroke-width: 0.8; stroke-linejoin: miter; stroke-linecap: square"/>
   </g>
  </g>
 </g>
 <defs>
  <clipPath id="pe00b41ffee">
   <rect x="28.942188" y="10.999219" width="306.9" height="98.208"/>
  </clipPath>
 </defs>
</svg>
