<?xml version="1.0" encoding="utf-8" standalone="no"?>
<!DOCTYPE svg PUBLIC "-//W3C//DTD SVG 1.1//EN"
  "http://www.w3.org/Graphics/SVG/1.1/DTD/svg11.dtd">
<svg xmlns:xlink="http://www.w3.org/1999/xlink" width="357.884375pt" height="242.595469pt" viewBox="0 0 357.884375 242.595469" xmlns="http://www.w3.org/2000/svg" version="1.1">
 <metadata>
  <rdf:RDF xmlns:dc="http://purl.org/dc/elements/1.1/" xmlns:cc="http://creativecommons.org/ns#" xmlns:rdf="http://www.w3.org/1999/02/22-rdf-syntax-ns#">
   <cc:Work>
    <dc:type rdf:resource="http://purl.org/dc/dcmitype/StillImage"/>
    <dc:date>2025-01-14T09:05:40.764124</dc:date>
    <dc:format>image/svg+xml</dc:format>
    <dc:creator>
     <cc:Agent>
      <dc:title>Matplotlib v3.9.2, https://matplotlib.org/</dc:title>
     </cc:Agent>
    </dc:creator>
   </cc:Work>
  </rdf:RDF>
 </metadata>
 <defs>
  <style type="text/css">*{stroke-linejoin: round; stroke-linecap: butt}</style>
 </defs>
 <g id="figure_1">
  <g id="patch_1">
   <path d="M 0 242.595469 
L 357.884375 242.595469 
L 357.884375 0 
L 0 0 
z
" style="fill: #ffffff"/>
  </g>
  <g id="axes_1">
   <g id="patch_2">
    <path d="M 40.603125 205.039219 
L 347.503125 205.039219 
L 347.503125 10.999219 
L 40.603125 10.999219 
z
" style="fill: #ffffff"/>
   </g>
   <g id="matplotlib.axis_1">
    <g id="xtick_1">
     <g id="line2d_1">
      <path d="M 40.603125 205.039219 
L 40.603125 10.999219 
" clip-path="url(#pcc0150a42e)" style="fill: none; stroke: #b0b0b0; stroke-width: 0.8; stroke-linecap: square"/>
     </g>
     <g id="line2d_2">
      <defs>
       <path id="m9e7462253b" d="M 0 0 
L 0 3.5 
" style="stroke: #000000; stroke-width: 0.8"/>
      </defs>
      <g>
       <use xlink:href="#m9e7462253b" x="40.603125" y="205.039219" style="stroke: #000000; stroke-width: 0.8"/>
      </g>
     </g>
     <g id="text_1">
      <!-- −3 -->
      <g transform="translate(33.232031 219.637656) scale(0.1 -0.1)">
       <defs>
        <path id="DejaVuSans-2212" d="M 678 2272 
L 4684 2272 
L 4684 1741 
L 678 1741 
L 678 2272 
z
" transform="scale(0.015625)"/>
        <path id="DejaVuSans-33" d="M 2597 2516 
Q 3050 2419 3304 2112 
Q 3559 1806 3559 1356 
Q 3559 666 3084 287 
Q 2609 -91 1734 -91 
Q 1441 -91 1130 -33 
Q 819 25 488 141 
L 488 750 
Q 750 597 1062 519 
Q 1375 441 1716 441 
Q 2309 441 2620 675 
Q 2931 909 2931 1356 
Q 2931 1769 2642 2001 
Q 2353 2234 1838 2234 
L 1294 2234 
L 1294 2753 
L 1863 2753 
Q 2328 2753 2575 2939 
Q 2822 3125 2822 3475 
Q 2822 3834 2567 4026 
Q 2313 4219 1838 4219 
Q 1578 4219 1281 4162 
Q 984 4106 628 3988 
L 628 4550 
Q 988 4650 1302 4700 
Q 1616 4750 1894 4750 
Q 2613 4750 3031 4423 
Q 3450 4097 3450 3541 
Q 3450 3153 3228 2886 
Q 3006 2619 2597 2516 
z
" transform="scale(0.015625)"/>
       </defs>
       <use xlink:href="#DejaVuSans-2212"/>
       <use xlink:href="#DejaVuSans-33" x="83.789062"/>
      </g>
     </g>
    </g>
    <g id="xtick_2">
     <g id="line2d_3">
      <path d="M 91.753125 205.039219 
L 91.753125 10.999219 
" clip-path="url(#pcc0150a42e)" style="fill: none; stroke: #b0b0b0; stroke-width: 0.8; stroke-linecap: square"/>
     </g>
     <g id="line2d_4">
      <g>
       <use xlink:href="#m9e7462253b" x="91.753125" y="205.039219" style="stroke: #000000; stroke-width: 0.8"/>
      </g>
     </g>
     <g id="text_2">
      <!-- −2 -->
      <g transform="translate(84.382031 219.637656) scale(0.1 -0.1)">
       <defs>
        <path id="DejaVuSans-32" d="M 1228 531 
L 3431 531 
L 3431 0 
L 469 0 
L 469 531 
Q 828 903 1448 1529 
Q 2069 2156 2228 2338 
Q 2531 2678 2651 2914 
Q 2772 3150 2772 3378 
Q 2772 3750 2511 3984 
Q 2250 4219 1831 4219 
Q 1534 4219 1204 4116 
Q 875 4013 500 3803 
L 500 4441 
Q 881 4594 1212 4672 
Q 1544 4750 1819 4750 
Q 2544 4750 2975 4387 
Q 3406 4025 3406 3419 
Q 3406 3131 3298 2873 
Q 3191 2616 2906 2266 
Q 2828 2175 2409 1742 
Q 1991 1309 1228 531 
z
" transform="scale(0.015625)"/>
       </defs>
       <use xlink:href="#DejaVuSans-2212"/>
       <use xlink:href="#DejaVuSans-32" x="83.789062"/>
      </g>
     </g>
    </g>
    <g id="xtick_3">
     <g id="line2d_5">
      <path d="M 142.903125 205.039219 
L 142.903125 10.999219 
" clip-path="url(#pcc0150a42e)" style="fill: none; stroke: #b0b0b0; stroke-width: 0.8; stroke-linecap: square"/>
     </g>
     <g id="line2d_6">
      <g>
       <use xlink:href="#m9e7462253b" x="142.903125" y="205.039219" style="stroke: #000000; stroke-width: 0.8"/>
      </g>
     </g>
     <g id="text_3">
      <!-- −1 -->
      <g transform="translate(135.532031 219.637656) scale(0.1 -0.1)">
       <defs>
        <path id="DejaVuSans-31" d="M 794 531 
L 1825 531 
L 1825 4091 
L 703 3866 
L 703 4441 
L 1819 4666 
L 2450 4666 
L 2450 531 
L 3481 531 
L 3481 0 
L 794 0 
L 794 531 
z
" transform="scale(0.015625)"/>
       </defs>
       <use xlink:href="#DejaVuSans-2212"/>
       <use xlink:href="#DejaVuSans-31" x="83.789062"/>
      </g>
     </g>
    </g>
    <g id="xtick_4">
     <g id="line2d_7">
      <path d="M 194.053125 205.039219 
L 194.053125 10.999219 
" clip-path="url(#pcc0150a42e)" style="fill: none; stroke: #b0b0b0; stroke-width: 0.8; stroke-linecap: square"/>
     </g>
     <g id="line2d_8">
      <g>
       <use xlink:href="#m9e7462253b" x="194.053125" y="205.039219" style="stroke: #000000; stroke-width: 0.8"/>
      </g>
     </g>
     <g id="text_4">
      <!-- 0 -->
      <g transform="translate(190.871875 219.637656) scale(0.1 -0.1)">
       <defs>
        <path id="DejaVuSans-30" d="M 2034 4250 
Q 1547 4250 1301 3770 
Q 1056 3291 1056 2328 
Q 1056 1369 1301 889 
Q 1547 409 2034 409 
Q 2525 409 2770 889 
Q 3016 1369 3016 2328 
Q 3016 3291 2770 3770 
Q 2525 4250 2034 4250 
z
M 2034 4750 
Q 2819 4750 3233 4129 
Q 3647 3509 3647 2328 
Q 3647 1150 3233 529 
Q 2819 -91 2034 -91 
Q 1250 -91 836 529 
Q 422 1150 422 2328 
Q 422 3509 836 4129 
Q 1250 4750 2034 4750 
z
" transform="scale(0.015625)"/>
       </defs>
       <use xlink:href="#DejaVuSans-30"/>
      </g>
     </g>
    </g>
    <g id="xtick_5">
     <g id="line2d_9">
      <path d="M 245.203125 205.039219 
L 245.203125 10.999219 
" clip-path="url(#pcc0150a42e)" style="fill: none; stroke: #b0b0b0; stroke-width: 0.8; stroke-linecap: square"/>
     </g>
     <g id="line2d_10">
      <g>
       <use xlink:href="#m9e7462253b" x="245.203125" y="205.039219" style="stroke: #000000; stroke-width: 0.8"/>
      </g>
     </g>
     <g id="text_5">
      <!-- 1 -->
      <g transform="translate(242.021875 219.637656) scale(0.1 -0.1)">
       <use xlink:href="#DejaVuSans-31"/>
      </g>
     </g>
    </g>
    <g id="xtick_6">
     <g id="line2d_11">
      <path d="M 296.353125 205.039219 
L 296.353125 10.999219 
" clip-path="url(#pcc0150a42e)" style="fill: none; stroke: #b0b0b0; stroke-width: 0.8; stroke-linecap: square"/>
     </g>
     <g id="line2d_12">
      <g>
       <use xlink:href="#m9e7462253b" x="296.353125" y="205.039219" style="stroke: #000000; stroke-width: 0.8"/>
      </g>
     </g>
     <g id="text_6">
      <!-- 2 -->
      <g transform="translate(293.171875 219.637656) scale(0.1 -0.1)">
       <use xlink:href="#DejaVuSans-32"/>
      </g>
     </g>
    </g>
    <g id="xtick_7">
     <g id="line2d_13">
      <path d="M 347.503125 205.039219 
L 347.503125 10.999219 
" clip-path="url(#pcc0150a42e)" style="fill: none; stroke: #b0b0b0; stroke-width: 0.8; stroke-linecap: square"/>
     </g>
     <g id="line2d_14">
      <g>
       <use xlink:href="#m9e7462253b" x="347.503125" y="205.039219" style="stroke: #000000; stroke-width: 0.8"/>
      </g>
     </g>
     <g id="text_7">
      <!-- 3 -->
      <g transform="translate(344.321875 219.637656) scale(0.1 -0.1)">
       <use xlink:href="#DejaVuSans-33"/>
      </g>
     </g>
    </g>
    <g id="text_8">
     <!-- $x$ -->
     <g transform="translate(191.053125 233.315781) scale(0.1 -0.1)">
      <defs>
       <path id="DejaVuSans-Oblique-78" d="M 3841 3500 
L 2234 1784 
L 3219 0 
L 2559 0 
L 1819 1388 
L 531 0 
L -166 0 
L 1556 1844 
L 641 3500 
L 1300 3500 
L 1972 2234 
L 3144 3500 
L 3841 3500 
z
" transform="scale(0.015625)"/>
      </defs>
      <use xlink:href="#DejaVuSans-Oblique-78" transform="translate(0 0.3125)"/>
     </g>
    </g>
   </g>
   <g id="matplotlib.axis_2">
    <g id="ytick_1">
     <g id="line2d_15">
      <path d="M 40.603125 205.039219 
L 347.503125 205.039219 
" clip-path="url(#pcc0150a42e)" style="fill: none; stroke: #b0b0b0; stroke-width: 0.8; stroke-linecap: square"/>
     </g>
     <g id="line2d_16">
      <defs>
       <path id="m88a5f8f345" d="M 0 0 
L -3.5 0 
" style="stroke: #000000; stroke-width: 0.8"/>
      </defs>
      <g>
       <use xlink:href="#m88a5f8f345" x="40.603125" y="205.039219" style="stroke: #000000; stroke-width: 0.8"/>
      </g>
     </g>
     <g id="text_9">
      <!-- 0 -->
      <g transform="translate(27.240625 208.838437) scale(0.1 -0.1)">
       <use xlink:href="#DejaVuSans-30"/>
      </g>
     </g>
    </g>
    <g id="ytick_2">
     <g id="line2d_17">
      <path d="M 40.603125 166.231219 
L 347.503125 166.231219 
" clip-path="url(#pcc0150a42e)" style="fill: none; stroke: #b0b0b0; stroke-width: 0.8; stroke-linecap: square"/>
     </g>
     <g id="line2d_18">
      <g>
       <use xlink:href="#m88a5f8f345" x="40.603125" y="166.231219" style="stroke: #000000; stroke-width: 0.8"/>
      </g>
     </g>
     <g id="text_10">
      <!-- 2 -->
      <g transform="translate(27.240625 170.030437) scale(0.1 -0.1)">
       <use xlink:href="#DejaVuSans-32"/>
      </g>
     </g>
    </g>
    <g id="ytick_3">
     <g id="line2d_19">
      <path d="M 40.603125 127.423219 
L 347.503125 127.423219 
" clip-path="url(#pcc0150a42e)" style="fill: none; stroke: #b0b0b0; stroke-width: 0.8; stroke-linecap: square"/>
     </g>
     <g id="line2d_20">
      <g>
       <use xlink:href="#m88a5f8f345" x="40.603125" y="127.423219" style="stroke: #000000; stroke-width: 0.8"/>
      </g>
     </g>
     <g id="text_11">
      <!-- 4 -->
      <g transform="translate(27.240625 131.222437) scale(0.1 -0.1)">
       <defs>
        <path id="DejaVuSans-34" d="M 2419 4116 
L 825 1625 
L 2419 1625 
L 2419 4116 
z
M 2253 4666 
L 3047 4666 
L 3047 1625 
L 3713 1625 
L 3713 1100 
L 3047 1100 
L 3047 0 
L 2419 0 
L 2419 1100 
L 313 1100 
L 313 1709 
L 2253 4666 
z
" transform="scale(0.015625)"/>
       </defs>
       <use xlink:href="#DejaVuSans-34"/>
      </g>
     </g>
    </g>
    <g id="ytick_4">
     <g id="line2d_21">
      <path d="M 40.603125 88.615219 
L 347.503125 88.615219 
" clip-path="url(#pcc0150a42e)" style="fill: none; stroke: #b0b0b0; stroke-width: 0.8; stroke-linecap: square"/>
     </g>
     <g id="line2d_22">
      <g>
       <use xlink:href="#m88a5f8f345" x="40.603125" y="88.615219" style="stroke: #000000; stroke-width: 0.8"/>
      </g>
     </g>
     <g id="text_12">
      <!-- 6 -->
      <g transform="translate(27.240625 92.414437) scale(0.1 -0.1)">
       <defs>
        <path id="DejaVuSans-36" d="M 2113 2584 
Q 1688 2584 1439 2293 
Q 1191 2003 1191 1497 
Q 1191 994 1439 701 
Q 1688 409 2113 409 
Q 2538 409 2786 701 
Q 3034 994 3034 1497 
Q 3034 2003 2786 2293 
Q 2538 2584 2113 2584 
z
M 3366 4563 
L 3366 3988 
Q 3128 4100 2886 4159 
Q 2644 4219 2406 4219 
Q 1781 4219 1451 3797 
Q 1122 3375 1075 2522 
Q 1259 2794 1537 2939 
Q 1816 3084 2150 3084 
Q 2853 3084 3261 2657 
Q 3669 2231 3669 1497 
Q 3669 778 3244 343 
Q 2819 -91 2113 -91 
Q 1303 -91 875 529 
Q 447 1150 447 2328 
Q 447 3434 972 4092 
Q 1497 4750 2381 4750 
Q 2619 4750 2861 4703 
Q 3103 4656 3366 4563 
z
" transform="scale(0.015625)"/>
       </defs>
       <use xlink:href="#DejaVuSans-36"/>
      </g>
     </g>
    </g>
    <g id="ytick_5">
     <g id="line2d_23">
      <path d="M 40.603125 49.807219 
L 347.503125 49.807219 
" clip-path="url(#pcc0150a42e)" style="fill: none; stroke: #b0b0b0; stroke-width: 0.8; stroke-linecap: square"/>
     </g>
     <g id="line2d_24">
      <g>
       <use xlink:href="#m88a5f8f345" x="40.603125" y="49.807219" style="stroke: #000000; stroke-width: 0.8"/>
      </g>
     </g>
     <g id="text_13">
      <!-- 8 -->
      <g transform="translate(27.240625 53.606437) scale(0.1 -0.1)">
       <defs>
        <path id="DejaVuSans-38" d="M 2034 2216 
Q 1584 2216 1326 1975 
Q 1069 1734 1069 1313 
Q 1069 891 1326 650 
Q 1584 409 2034 409 
Q 2484 409 2743 651 
Q 3003 894 3003 1313 
Q 3003 1734 2745 1975 
Q 2488 2216 2034 2216 
z
M 1403 2484 
Q 997 2584 770 2862 
Q 544 3141 544 3541 
Q 544 4100 942 4425 
Q 1341 4750 2034 4750 
Q 2731 4750 3128 4425 
Q 3525 4100 3525 3541 
Q 3525 3141 3298 2862 
Q 3072 2584 2669 2484 
Q 3125 2378 3379 2068 
Q 3634 1759 3634 1313 
Q 3634 634 3220 271 
Q 2806 -91 2034 -91 
Q 1263 -91 848 271 
Q 434 634 434 1313 
Q 434 1759 690 2068 
Q 947 2378 1403 2484 
z
M 1172 3481 
Q 1172 3119 1398 2916 
Q 1625 2713 2034 2713 
Q 2441 2713 2670 2916 
Q 2900 3119 2900 3481 
Q 2900 3844 2670 4047 
Q 2441 4250 2034 4250 
Q 1625 4250 1398 4047 
Q 1172 3844 1172 3481 
z
" transform="scale(0.015625)"/>
       </defs>
       <use xlink:href="#DejaVuSans-38"/>
      </g>
     </g>
    </g>
    <g id="ytick_6">
     <g id="line2d_25">
      <path d="M 40.603125 10.999219 
L 347.503125 10.999219 
" clip-path="url(#pcc0150a42e)" style="fill: none; stroke: #b0b0b0; stroke-width: 0.8; stroke-linecap: square"/>
     </g>
     <g id="line2d_26">
      <g>
       <use xlink:href="#m88a5f8f345" x="40.603125" y="10.999219" style="stroke: #000000; stroke-width: 0.8"/>
      </g>
     </g>
     <g id="text_14">
      <!-- 10 -->
      <g transform="translate(20.878125 14.798437) scale(0.1 -0.1)">
       <use xlink:href="#DejaVuSans-31"/>
       <use xlink:href="#DejaVuSans-30" x="63.623047"/>
      </g>
     </g>
    </g>
    <g id="text_15">
     <!-- $y$ -->
     <g transform="translate(14.778125 111.019219) rotate(-90) scale(0.1 -0.1)">
      <defs>
       <path id="DejaVuSans-Oblique-79" d="M 1588 -325 
Q 1188 -997 936 -1164 
Q 684 -1331 294 -1331 
L -159 -1331 
L -63 -850 
L 269 -850 
Q 509 -850 678 -719 
Q 847 -588 1056 -206 
L 1234 128 
L 459 3500 
L 1069 3500 
L 1650 819 
L 3256 3500 
L 3859 3500 
L 1588 -325 
z
" transform="scale(0.015625)"/>
      </defs>
      <use xlink:href="#DejaVuSans-Oblique-79" transform="translate(0 0.3125)"/>
     </g>
    </g>
   </g>
   <g id="line2d_27">
    <defs>
     <path id="md5b5292a78" d="M 0 3 
C 0.795609 3 1.55874 2.683901 2.12132 2.12132 
C 2.683901 1.55874 3 0.795609 3 0 
C 3 -0.795609 2.683901 -1.55874 2.12132 -2.12132 
C 1.55874 -2.683901 0.795609 -3 0 -3 
C -0.795609 -3 -1.55874 -2.683901 -2.12132 -2.12132 
C -2.683901 -1.55874 -3 -0.795609 -3 0 
C -3 0.795609 -2.683901 1.55874 -2.12132 2.12132 
C -1.55874 2.683901 -0.795609 3 0 3 
z
" style="stroke: #ff0000"/>
    </defs>
    <g clip-path="url(#pcc0150a42e)">
     <use xlink:href="#md5b5292a78" x="230.143994" y="149.390009" style="fill: #ff0000; stroke: #ff0000"/>
     <use xlink:href="#md5b5292a78" x="308.278824" y="92.672052" style="fill: #ff0000; stroke: #ff0000"/>
     <use xlink:href="#md5b5292a78" x="309.683699" y="65.999823" style="fill: #ff0000; stroke: #ff0000"/>
     <use xlink:href="#md5b5292a78" x="318.692671" y="87.615052" style="fill: #ff0000; stroke: #ff0000"/>
     <use xlink:href="#md5b5292a78" x="62.867282" y="184.894793" style="fill: #ff0000; stroke: #ff0000"/>
     <use xlink:href="#md5b5292a78" x="316.475394" y="82.972855" style="fill: #ff0000; stroke: #ff0000"/>
     <use xlink:href="#md5b5292a78" x="255.147948" y="124.902898" style="fill: #ff0000; stroke: #ff0000"/>
     <use xlink:href="#md5b5292a78" x="59.400275" y="123.07374" style="fill: #ff0000; stroke: #ff0000"/>
     <use xlink:href="#md5b5292a78" x="280.312687" y="95.868488" style="fill: #ff0000; stroke: #ff0000"/>
     <use xlink:href="#md5b5292a78" x="122.725102" y="180.471813" style="fill: #ff0000; stroke: #ff0000"/>
     <use xlink:href="#md5b5292a78" x="254.782027" y="168.394341" style="fill: #ff0000; stroke: #ff0000"/>
     <use xlink:href="#md5b5292a78" x="230.061252" y="156.721573" style="fill: #ff0000; stroke: #ff0000"/>
     <use xlink:href="#md5b5292a78" x="320.320797" y="49.858209" style="fill: #ff0000; stroke: #ff0000"/>
     <use xlink:href="#md5b5292a78" x="230.302503" y="175.791806" style="fill: #ff0000; stroke: #ff0000"/>
     <use xlink:href="#md5b5292a78" x="139.8016" y="193.773426" style="fill: #ff0000; stroke: #ff0000"/>
     <use xlink:href="#md5b5292a78" x="72.887956" y="121.066754" style="fill: #ff0000; stroke: #ff0000"/>
     <use xlink:href="#md5b5292a78" x="192.381311" y="167.855492" style="fill: #ff0000; stroke: #ff0000"/>
     <use xlink:href="#md5b5292a78" x="164.808988" y="169.17043" style="fill: #ff0000; stroke: #ff0000"/>
     <use xlink:href="#md5b5292a78" x="48.902673" y="157.128681" style="fill: #ff0000; stroke: #ff0000"/>
     <use xlink:href="#md5b5292a78" x="72.991767" y="159.052509" style="fill: #ff0000; stroke: #ff0000"/>
     <use xlink:href="#md5b5292a78" x="344.622945" y="19.241258" style="fill: #ff0000; stroke: #ff0000"/>
     <use xlink:href="#md5b5292a78" x="122.245468" y="151.661112" style="fill: #ff0000; stroke: #ff0000"/>
     <use xlink:href="#md5b5292a78" x="221.384363" y="139.618849" style="fill: #ff0000; stroke: #ff0000"/>
     <use xlink:href="#md5b5292a78" x="44.878869" y="160.834865" style="fill: #ff0000; stroke: #ff0000"/>
     <use xlink:href="#md5b5292a78" x="318.045351" y="58.437357" style="fill: #ff0000; stroke: #ff0000"/>
     <use xlink:href="#md5b5292a78" x="92.046315" y="176.825738" style="fill: #ff0000; stroke: #ff0000"/>
     <use xlink:href="#md5b5292a78" x="187.776841" y="168.656149" style="fill: #ff0000; stroke: #ff0000"/>
     <use xlink:href="#md5b5292a78" x="98.372668" y="144.549734" style="fill: #ff0000; stroke: #ff0000"/>
     <use xlink:href="#md5b5292a78" x="97.379868" y="163.658549" style="fill: #ff0000; stroke: #ff0000"/>
     <use xlink:href="#md5b5292a78" x="78.034708" y="163.953353" style="fill: #ff0000; stroke: #ff0000"/>
     <use xlink:href="#md5b5292a78" x="47.882189" y="160.235184" style="fill: #ff0000; stroke: #ff0000"/>
     <use xlink:href="#md5b5292a78" x="154.973357" y="162.472386" style="fill: #ff0000; stroke: #ff0000"/>
     <use xlink:href="#md5b5292a78" x="118.787183" y="162.792871" style="fill: #ff0000; stroke: #ff0000"/>
     <use xlink:href="#md5b5292a78" x="73.404436" y="175.958864" style="fill: #ff0000; stroke: #ff0000"/>
     <use xlink:href="#md5b5292a78" x="275.154895" y="95.123597" style="fill: #ff0000; stroke: #ff0000"/>
     <use xlink:href="#md5b5292a78" x="90.085894" y="167.371653" style="fill: #ff0000; stroke: #ff0000"/>
     <use xlink:href="#md5b5292a78" x="255.68403" y="89.231313" style="fill: #ff0000; stroke: #ff0000"/>
     <use xlink:href="#md5b5292a78" x="332.931443" y="31.19058" style="fill: #ff0000; stroke: #ff0000"/>
     <use xlink:href="#md5b5292a78" x="221.671377" y="198.677467" style="fill: #ff0000; stroke: #ff0000"/>
     <use xlink:href="#md5b5292a78" x="291.458675" y="75.569878" style="fill: #ff0000; stroke: #ff0000"/>
     <use xlink:href="#md5b5292a78" x="100.322017" y="182.036088" style="fill: #ff0000; stroke: #ff0000"/>
     <use xlink:href="#md5b5292a78" x="226.394772" y="177.924755" style="fill: #ff0000; stroke: #ff0000"/>
     <use xlink:href="#md5b5292a78" x="106.887803" y="160.423072" style="fill: #ff0000; stroke: #ff0000"/>
     <use xlink:href="#md5b5292a78" x="324.616883" y="34.662785" style="fill: #ff0000; stroke: #ff0000"/>
     <use xlink:href="#md5b5292a78" x="325.443794" y="45.732509" style="fill: #ff0000; stroke: #ff0000"/>
     <use xlink:href="#md5b5292a78" x="164.934471" y="179.505416" style="fill: #ff0000; stroke: #ff0000"/>
     <use xlink:href="#md5b5292a78" x="161.912402" y="185.070551" style="fill: #ff0000; stroke: #ff0000"/>
     <use xlink:href="#md5b5292a78" x="48.306142" y="124.040309" style="fill: #ff0000; stroke: #ff0000"/>
     <use xlink:href="#md5b5292a78" x="84.574396" y="162.02108" style="fill: #ff0000; stroke: #ff0000"/>
     <use xlink:href="#md5b5292a78" x="168.008309" y="178.809888" style="fill: #ff0000; stroke: #ff0000"/>
     <use xlink:href="#md5b5292a78" x="306.728405" y="76.816272" style="fill: #ff0000; stroke: #ff0000"/>
     <use xlink:href="#md5b5292a78" x="56.022648" y="148.104033" style="fill: #ff0000; stroke: #ff0000"/>
     <use xlink:href="#md5b5292a78" x="302.365726" y="88.541041" style="fill: #ff0000; stroke: #ff0000"/>
     <use xlink:href="#md5b5292a78" x="215.281459" y="168.034318" style="fill: #ff0000; stroke: #ff0000"/>
     <use xlink:href="#md5b5292a78" x="62.634565" y="182.875142" style="fill: #ff0000; stroke: #ff0000"/>
     <use xlink:href="#md5b5292a78" x="142.096551" y="163.626204" style="fill: #ff0000; stroke: #ff0000"/>
     <use xlink:href="#md5b5292a78" x="307.635002" y="59.177399" style="fill: #ff0000; stroke: #ff0000"/>
     <use xlink:href="#md5b5292a78" x="236.41396" y="127.546837" style="fill: #ff0000; stroke: #ff0000"/>
     <use xlink:href="#md5b5292a78" x="346.02415" y="42.602221" style="fill: #ff0000; stroke: #ff0000"/>
     <use xlink:href="#md5b5292a78" x="155.83608" y="190.577628" style="fill: #ff0000; stroke: #ff0000"/>
     <use xlink:href="#md5b5292a78" x="297.006368" y="64.336738" style="fill: #ff0000; stroke: #ff0000"/>
     <use xlink:href="#md5b5292a78" x="239.980622" y="124.959258" style="fill: #ff0000; stroke: #ff0000"/>
     <use xlink:href="#md5b5292a78" x="292.095077" y="99.252247" style="fill: #ff0000; stroke: #ff0000"/>
     <use xlink:href="#md5b5292a78" x="322.10177" y="37.375642" style="fill: #ff0000; stroke: #ff0000"/>
     <use xlink:href="#md5b5292a78" x="270.678333" y="93.527034" style="fill: #ff0000; stroke: #ff0000"/>
     <use xlink:href="#md5b5292a78" x="221.778622" y="177.023418" style="fill: #ff0000; stroke: #ff0000"/>
     <use xlink:href="#md5b5292a78" x="338.839824" y="18.840681" style="fill: #ff0000; stroke: #ff0000"/>
     <use xlink:href="#md5b5292a78" x="253.312458" y="154.176507" style="fill: #ff0000; stroke: #ff0000"/>
     <use xlink:href="#md5b5292a78" x="335.259316" y="2.056723" style="fill: #ff0000; stroke: #ff0000"/>
     <use xlink:href="#md5b5292a78" x="51.881875" y="128.316726" style="fill: #ff0000; stroke: #ff0000"/>
     <use xlink:href="#md5b5292a78" x="99.961978" y="155.688224" style="fill: #ff0000; stroke: #ff0000"/>
     <use xlink:href="#md5b5292a78" x="335.145722" y="39.084222" style="fill: #ff0000; stroke: #ff0000"/>
     <use xlink:href="#md5b5292a78" x="235.044242" y="135.82076" style="fill: #ff0000; stroke: #ff0000"/>
     <use xlink:href="#md5b5292a78" x="213.313087" y="155.312967" style="fill: #ff0000; stroke: #ff0000"/>
     <use xlink:href="#md5b5292a78" x="161.591202" y="184.315007" style="fill: #ff0000; stroke: #ff0000"/>
     <use xlink:href="#md5b5292a78" x="153.52674" y="163.210982" style="fill: #ff0000; stroke: #ff0000"/>
     <use xlink:href="#md5b5292a78" x="317.979896" y="73.634918" style="fill: #ff0000; stroke: #ff0000"/>
     <use xlink:href="#md5b5292a78" x="292.099066" y="89.561569" style="fill: #ff0000; stroke: #ff0000"/>
     <use xlink:href="#md5b5292a78" x="292.408489" y="76.824392" style="fill: #ff0000; stroke: #ff0000"/>
     <use xlink:href="#md5b5292a78" x="79.2493" y="170.160446" style="fill: #ff0000; stroke: #ff0000"/>
     <use xlink:href="#md5b5292a78" x="307.268271" y="79.914563" style="fill: #ff0000; stroke: #ff0000"/>
     <use xlink:href="#md5b5292a78" x="341.663973" y="27.128086" style="fill: #ff0000; stroke: #ff0000"/>
     <use xlink:href="#md5b5292a78" x="257.14724" y="138.555293" style="fill: #ff0000; stroke: #ff0000"/>
     <use xlink:href="#md5b5292a78" x="210.0059" y="124.40425" style="fill: #ff0000; stroke: #ff0000"/>
     <use xlink:href="#md5b5292a78" x="90.629014" y="182.24992" style="fill: #ff0000; stroke: #ff0000"/>
     <use xlink:href="#md5b5292a78" x="119.1047" y="168.089483" style="fill: #ff0000; stroke: #ff0000"/>
     <use xlink:href="#md5b5292a78" x="203.534482" y="163.403475" style="fill: #ff0000; stroke: #ff0000"/>
     <use xlink:href="#md5b5292a78" x="203.266076" y="168.228566" style="fill: #ff0000; stroke: #ff0000"/>
     <use xlink:href="#md5b5292a78" x="318.95294" y="52.190677" style="fill: #ff0000; stroke: #ff0000"/>
     <use xlink:href="#md5b5292a78" x="281.983123" y="108.633829" style="fill: #ff0000; stroke: #ff0000"/>
     <use xlink:href="#md5b5292a78" x="84.812481" y="182.945008" style="fill: #ff0000; stroke: #ff0000"/>
     <use xlink:href="#md5b5292a78" x="339.157534" y="5.93109" style="fill: #ff0000; stroke: #ff0000"/>
     <use xlink:href="#md5b5292a78" x="224.436182" y="125.177864" style="fill: #ff0000; stroke: #ff0000"/>
     <use xlink:href="#md5b5292a78" x="158.070548" y="178.782784" style="fill: #ff0000; stroke: #ff0000"/>
     <use xlink:href="#md5b5292a78" x="194.751309" y="179.330976" style="fill: #ff0000; stroke: #ff0000"/>
     <use xlink:href="#md5b5292a78" x="209.866312" y="179.416167" style="fill: #ff0000; stroke: #ff0000"/>
     <use xlink:href="#md5b5292a78" x="142.971259" y="193.492131" style="fill: #ff0000; stroke: #ff0000"/>
     <use xlink:href="#md5b5292a78" x="41.323964" y="123.892552" style="fill: #ff0000; stroke: #ff0000"/>
     <use xlink:href="#md5b5292a78" x="300.072354" y="81.136661" style="fill: #ff0000; stroke: #ff0000"/>
     <use xlink:href="#md5b5292a78" x="307.822175" y="80.986852" style="fill: #ff0000; stroke: #ff0000"/>
    </g>
   </g>
   <g id="line2d_28">
    <path d="M 40.603125 195.92499 
L 45.718125 193.784602 
L 50.833125 191.644214 
L 55.948125 189.503826 
L 61.063125 187.363438 
L 66.178125 185.22305 
L 71.293125 183.082662 
L 76.408125 180.942274 
L 81.523125 178.801886 
L 86.638125 176.661498 
L 91.753125 174.52111 
L 96.868125 172.380722 
L 101.983125 170.240334 
L 107.098125 168.099946 
L 112.213125 165.959559 
L 117.328125 163.819171 
L 122.443125 161.678783 
L 127.558125 159.538395 
L 132.673125 157.398007 
L 137.788125 155.257619 
L 142.903125 153.117231 
L 148.018125 150.976843 
L 153.133125 148.836455 
L 158.248125 146.696067 
L 163.363125 144.555679 
L 168.478125 142.415291 
L 173.593125 140.274903 
L 178.708125 138.134515 
L 183.823125 135.994127 
L 188.938125 133.853739 
L 194.053125 131.713351 
L 199.168125 129.572964 
L 204.283125 127.432576 
L 209.398125 125.292188 
L 214.513125 123.1518 
L 219.628125 121.011412 
L 224.743125 118.871024 
L 229.858125 116.730636 
L 234.973125 114.590248 
L 240.088125 112.44986 
L 245.203125 110.309472 
L 250.318125 108.169084 
L 255.433125 106.028696 
L 260.548125 103.888308 
L 265.663125 101.74792 
L 270.778125 99.607532 
L 275.893125 97.467144 
L 281.008125 95.326756 
L 286.123125 93.186369 
L 291.238125 91.045981 
L 296.353125 88.905593 
L 301.468125 86.765205 
L 306.583125 84.624817 
L 311.698125 82.484429 
L 316.813125 80.344041 
L 321.928125 78.203653 
L 327.043125 76.063265 
L 332.158125 73.922877 
L 337.273125 71.782489 
L 342.388125 69.642101 
" clip-path="url(#pcc0150a42e)" style="fill: none; stroke: #1f77b4; stroke-width: 1.5; stroke-linecap: square"/>
   </g>
   <g id="line2d_29">
    <path d="M 40.603125 136.990653 
L 45.718125 141.053949 
L 50.833125 144.909738 
L 55.948125 148.558021 
L 61.063125 151.998797 
L 66.178125 155.232067 
L 71.293125 158.257831 
L 76.408125 161.076089 
L 81.523125 163.68684 
L 86.638125 166.090085 
L 91.753125 168.285823 
L 96.868125 170.274055 
L 101.983125 172.054781 
L 107.098125 173.628 
L 112.213125 174.993713 
L 117.328125 176.15192 
L 122.443125 177.10262 
L 127.558125 177.845814 
L 132.673125 178.381501 
L 137.788125 178.709682 
L 142.903125 178.830357 
L 148.018125 178.743525 
L 153.133125 178.449188 
L 158.248125 177.947343 
L 163.363125 177.237993 
L 168.478125 176.321136 
L 173.593125 175.196772 
L 178.708125 173.864903 
L 183.823125 172.325526 
L 188.938125 170.578644 
L 194.053125 168.624255 
L 199.168125 166.46236 
L 204.283125 164.092958 
L 209.398125 161.516051 
L 214.513125 158.731636 
L 219.628125 155.739716 
L 224.743125 152.540289 
L 229.858125 149.133355 
L 234.973125 145.518916 
L 240.088125 141.69697 
L 245.203125 137.667517 
L 250.318125 133.430559 
L 255.433125 128.986093 
L 260.548125 124.334122 
L 265.663125 119.474644 
L 270.778125 114.40766 
L 275.893125 109.133169 
L 281.008125 103.651172 
L 286.123125 97.961669 
L 291.238125 92.064659 
L 296.353125 85.960143 
L 301.468125 79.648121 
L 306.583125 73.128592 
L 311.698125 66.401557 
L 316.813125 59.467016 
L 321.928125 52.324968 
L 327.043125 44.975414 
L 332.158125 37.418353 
L 337.273125 29.653786 
L 342.388125 21.681713 
" clip-path="url(#pcc0150a42e)" style="fill: none; stroke: #ff7f0e; stroke-width: 1.5; stroke-linecap: square"/>
   </g>
   <g id="line2d_30">
    <path d="M 40.603125 124.588769 
L 45.718125 145.606951 
L 50.833125 147.486129 
L 55.948125 147.73313 
L 61.063125 151.121101 
L 66.178125 156.929009 
L 71.293125 162.939391 
L 76.408125 167.332168 
L 81.523125 169.310276 
L 86.638125 169.044385 
L 91.753125 167.326384 
L 96.868125 165.169985 
L 101.983125 163.485983 
L 107.098125 162.88301 
L 112.213125 163.595737 
L 117.328125 165.515048 
L 122.443125 168.283284 
L 127.558125 171.417042 
L 132.673125 174.426267 
L 137.788125 176.907868 
L 142.903125 178.602486 
L 148.018125 179.41242 
L 153.133125 179.386003 
L 158.248125 178.678371 
L 163.363125 177.500576 
L 168.478125 176.068603 
L 173.593125 174.561613 
L 178.708125 173.095417 
L 183.823125 171.713318 
L 188.938125 170.392916 
L 194.053125 169.064605 
L 199.168125 167.635783 
L 204.283125 166.014408 
L 209.398125 164.126403 
L 214.513125 161.923323 
L 219.628125 159.379383 
L 224.743125 156.479706 
L 229.858125 153.204202 
L 234.973125 149.513067 
L 240.088125 145.340276 
L 245.203125 140.600221 
L 250.318125 135.209887 
L 255.433125 129.124845 
L 260.548125 122.382523 
L 265.663125 115.141495 
L 270.778125 107.70209 
L 275.893125 100.492749 
L 281.008125 94.009632 
L 286.123125 88.704953 
L 291.238125 84.833059 
L 296.353125 82.281838 
L 301.468125 80.438637 
L 306.583125 78.160301 
L 311.698125 73.928941 
L 316.813125 66.267274 
L 321.928125 54.443269 
L 327.043125 39.390284 
L 332.158125 24.574323 
L 337.273125 16.213069 
L 342.388125 21.738112 
" clip-path="url(#pcc0150a42e)" style="fill: none; stroke: #2ca02c; stroke-width: 1.5; stroke-linecap: square"/>
   </g>
   <g id="line2d_31">
    <path d="M 50.820501 -1 
L 50.820527 243.595469 
M 55.90944 243.595469 
L 55.920098 -1 
M 73.000833 -1 
L 76.408125 199.468407 
L 81.523125 163.265536 
L 86.638125 174.740618 
L 91.753125 174.126695 
L 96.868125 166.440659 
L 101.983125 157.666788 
L 107.098125 166.448905 
L 112.213125 169.628293 
L 117.328125 162.236264 
L 122.443125 168.934639 
L 127.558125 191.695948 
L 132.673125 205.537136 
L 137.788125 196.920262 
L 142.903125 178.171175 
L 148.018125 167.699481 
L 153.133125 170.440064 
L 158.248125 178.134997 
L 163.363125 180.801525 
L 168.478125 175.085218 
L 173.593125 165.07573 
L 178.708125 158.25786 
L 183.823125 159.790323 
L 188.938125 168.069709 
L 194.053125 175.197885 
L 199.168125 173.598102 
L 204.283125 163.842575 
L 209.398125 155.249319 
L 214.513125 156.496059 
L 219.628125 164.916416 
L 224.743125 167.482534 
L 229.858125 155.373422 
L 234.973125 136.654927 
L 240.088125 129.311812 
L 245.203125 138.655292 
L 250.318125 146.99036 
L 255.433125 134.250185 
L 260.548125 106.405952 
L 265.663125 89.072281 
L 270.778125 91.10509 
L 275.893125 97.324249 
L 281.008125 101.778223 
L 286.123125 105.900558 
L 291.238125 89.650364 
L 296.353125 67.569573 
L 301.468125 85.025995 
L 306.583125 81.500008 
L 311.698125 77.904604 
L 316.813125 79.95919 
L 321.928125 37.769313 
L 325.19755 -1 
M 332.432704 -1 
L 332.504711 243.595469 
M 337.277525 243.595469 
L 337.277591 -1 
" clip-path="url(#pcc0150a42e)" style="fill: none; stroke: #d62728; stroke-width: 1.5; stroke-linecap: square"/>
   </g>
   <g id="patch_3">
    <path d="M 40.603125 205.039219 
L 40.603125 10.999219 
" style="fill: none; stroke: #000000; stroke-width: 0.8; stroke-linejoin: miter; stroke-linecap: square"/>
   </g>
   <g id="patch_4">
    <path d="M 347.503125 205.039219 
L 347.503125 10.999219 
" style="fill: none; stroke: #000000; stroke-width: 0.8; stroke-linejoin: miter; stroke-linecap: square"/>
   </g>
   <g id="patch_5">
    <path d="M 40.603125 205.039219 
L 347.503125 205.039219 
" style="fill: none; stroke: #000000; stroke-width: 0.8; stroke-linejoin: miter; stroke-linecap: square"/>
   </g>
   <g id="patch_6">
    <path d="M 40.603125 10.999219 
L 347.503125 10.999219 
" style="fill: none; stroke: #000000; stroke-width: 0.8; stroke-linejoin: miter; stroke-linecap: square"/>
   </g>
   <g id="legend_1">
    <g id="patch_7">
     <path d="M 47.603125 92.389844 
L 143.954688 92.389844 
Q 145.954688 92.389844 145.954688 90.389844 
L 145.954688 17.999219 
Q 145.954688 15.999219 143.954688 15.999219 
L 47.603125 15.999219 
Q 45.603125 15.999219 45.603125 17.999219 
L 45.603125 90.389844 
Q 45.603125 92.389844 47.603125 92.389844 
z
" style="fill: #ffffff; opacity: 0.8; stroke: #cccccc; stroke-linejoin: miter"/>
    </g>
    <g id="line2d_32">
     <g>
      <use xlink:href="#md5b5292a78" x="59.603125" y="24.097656" style="fill: #ff0000; stroke: #ff0000"/>
     </g>
    </g>
    <g id="text_16">
     <!-- observations -->
     <g transform="translate(77.603125 27.597656) scale(0.1 -0.1)">
      <defs>
       <path id="DejaVuSans-6f" d="M 1959 3097 
Q 1497 3097 1228 2736 
Q 959 2375 959 1747 
Q 959 1119 1226 758 
Q 1494 397 1959 397 
Q 2419 397 2687 759 
Q 2956 1122 2956 1747 
Q 2956 2369 2687 2733 
Q 2419 3097 1959 3097 
z
M 1959 3584 
Q 2709 3584 3137 3096 
Q 3566 2609 3566 1747 
Q 3566 888 3137 398 
Q 2709 -91 1959 -91 
Q 1206 -91 779 398 
Q 353 888 353 1747 
Q 353 2609 779 3096 
Q 1206 3584 1959 3584 
z
" transform="scale(0.015625)"/>
       <path id="DejaVuSans-62" d="M 3116 1747 
Q 3116 2381 2855 2742 
Q 2594 3103 2138 3103 
Q 1681 3103 1420 2742 
Q 1159 2381 1159 1747 
Q 1159 1113 1420 752 
Q 1681 391 2138 391 
Q 2594 391 2855 752 
Q 3116 1113 3116 1747 
z
M 1159 2969 
Q 1341 3281 1617 3432 
Q 1894 3584 2278 3584 
Q 2916 3584 3314 3078 
Q 3713 2572 3713 1747 
Q 3713 922 3314 415 
Q 2916 -91 2278 -91 
Q 1894 -91 1617 61 
Q 1341 213 1159 525 
L 1159 0 
L 581 0 
L 581 4863 
L 1159 4863 
L 1159 2969 
z
" transform="scale(0.015625)"/>
       <path id="DejaVuSans-73" d="M 2834 3397 
L 2834 2853 
Q 2591 2978 2328 3040 
Q 2066 3103 1784 3103 
Q 1356 3103 1142 2972 
Q 928 2841 928 2578 
Q 928 2378 1081 2264 
Q 1234 2150 1697 2047 
L 1894 2003 
Q 2506 1872 2764 1633 
Q 3022 1394 3022 966 
Q 3022 478 2636 193 
Q 2250 -91 1575 -91 
Q 1294 -91 989 -36 
Q 684 19 347 128 
L 347 722 
Q 666 556 975 473 
Q 1284 391 1588 391 
Q 1994 391 2212 530 
Q 2431 669 2431 922 
Q 2431 1156 2273 1281 
Q 2116 1406 1581 1522 
L 1381 1569 
Q 847 1681 609 1914 
Q 372 2147 372 2553 
Q 372 3047 722 3315 
Q 1072 3584 1716 3584 
Q 2034 3584 2315 3537 
Q 2597 3491 2834 3397 
z
" transform="scale(0.015625)"/>
       <path id="DejaVuSans-65" d="M 3597 1894 
L 3597 1613 
L 953 1613 
Q 991 1019 1311 708 
Q 1631 397 2203 397 
Q 2534 397 2845 478 
Q 3156 559 3463 722 
L 3463 178 
Q 3153 47 2828 -22 
Q 2503 -91 2169 -91 
Q 1331 -91 842 396 
Q 353 884 353 1716 
Q 353 2575 817 3079 
Q 1281 3584 2069 3584 
Q 2775 3584 3186 3129 
Q 3597 2675 3597 1894 
z
M 3022 2063 
Q 3016 2534 2758 2815 
Q 2500 3097 2075 3097 
Q 1594 3097 1305 2825 
Q 1016 2553 972 2059 
L 3022 2063 
z
" transform="scale(0.015625)"/>
       <path id="DejaVuSans-72" d="M 2631 2963 
Q 2534 3019 2420 3045 
Q 2306 3072 2169 3072 
Q 1681 3072 1420 2755 
Q 1159 2438 1159 1844 
L 1159 0 
L 581 0 
L 581 3500 
L 1159 3500 
L 1159 2956 
Q 1341 3275 1631 3429 
Q 1922 3584 2338 3584 
Q 2397 3584 2469 3576 
Q 2541 3569 2628 3553 
L 2631 2963 
z
" transform="scale(0.015625)"/>
       <path id="DejaVuSans-76" d="M 191 3500 
L 800 3500 
L 1894 563 
L 2988 3500 
L 3597 3500 
L 2284 0 
L 1503 0 
L 191 3500 
z
" transform="scale(0.015625)"/>
       <path id="DejaVuSans-61" d="M 2194 1759 
Q 1497 1759 1228 1600 
Q 959 1441 959 1056 
Q 959 750 1161 570 
Q 1363 391 1709 391 
Q 2188 391 2477 730 
Q 2766 1069 2766 1631 
L 2766 1759 
L 2194 1759 
z
M 3341 1997 
L 3341 0 
L 2766 0 
L 2766 531 
Q 2569 213 2275 61 
Q 1981 -91 1556 -91 
Q 1019 -91 701 211 
Q 384 513 384 1019 
Q 384 1609 779 1909 
Q 1175 2209 1959 2209 
L 2766 2209 
L 2766 2266 
Q 2766 2663 2505 2880 
Q 2244 3097 1772 3097 
Q 1472 3097 1187 3025 
Q 903 2953 641 2809 
L 641 3341 
Q 956 3463 1253 3523 
Q 1550 3584 1831 3584 
Q 2591 3584 2966 3190 
Q 3341 2797 3341 1997 
z
" transform="scale(0.015625)"/>
       <path id="DejaVuSans-74" d="M 1172 4494 
L 1172 3500 
L 2356 3500 
L 2356 3053 
L 1172 3053 
L 1172 1153 
Q 1172 725 1289 603 
Q 1406 481 1766 481 
L 2356 481 
L 2356 0 
L 1766 0 
Q 1100 0 847 248 
Q 594 497 594 1153 
L 594 3053 
L 172 3053 
L 172 3500 
L 594 3500 
L 594 4494 
L 1172 4494 
z
" transform="scale(0.015625)"/>
       <path id="DejaVuSans-69" d="M 603 3500 
L 1178 3500 
L 1178 0 
L 603 0 
L 603 3500 
z
M 603 4863 
L 1178 4863 
L 1178 4134 
L 603 4134 
L 603 4863 
z
" transform="scale(0.015625)"/>
       <path id="DejaVuSans-6e" d="M 3513 2113 
L 3513 0 
L 2938 0 
L 2938 2094 
Q 2938 2591 2744 2837 
Q 2550 3084 2163 3084 
Q 1697 3084 1428 2787 
Q 1159 2491 1159 1978 
L 1159 0 
L 581 0 
L 581 3500 
L 1159 3500 
L 1159 2956 
Q 1366 3272 1645 3428 
Q 1925 3584 2291 3584 
Q 2894 3584 3203 3211 
Q 3513 2838 3513 2113 
z
" transform="scale(0.015625)"/>
      </defs>
      <use xlink:href="#DejaVuSans-6f"/>
      <use xlink:href="#DejaVuSans-62" x="61.181641"/>
      <use xlink:href="#DejaVuSans-73" x="124.658203"/>
      <use xlink:href="#DejaVuSans-65" x="176.757812"/>
      <use xlink:href="#DejaVuSans-72" x="238.28125"/>
      <use xlink:href="#DejaVuSans-76" x="279.394531"/>
      <use xlink:href="#DejaVuSans-61" x="338.574219"/>
      <use xlink:href="#DejaVuSans-74" x="399.853516"/>
      <use xlink:href="#DejaVuSans-69" x="439.0625"/>
      <use xlink:href="#DejaVuSans-6f" x="466.845703"/>
      <use xlink:href="#DejaVuSans-6e" x="528.027344"/>
      <use xlink:href="#DejaVuSans-73" x="591.40625"/>
     </g>
    </g>
    <g id="line2d_33">
     <path d="M 49.603125 38.775781 
L 59.603125 38.775781 
L 69.603125 38.775781 
" style="fill: none; stroke: #1f77b4; stroke-width: 1.5; stroke-linecap: square"/>
    </g>
    <g id="text_17">
     <!-- $m=1$ -->
     <g transform="translate(77.603125 42.275781) scale(0.1 -0.1)">
      <defs>
       <path id="DejaVuSans-Oblique-6d" d="M 5747 2113 
L 5338 0 
L 4763 0 
L 5166 2094 
Q 5191 2228 5203 2325 
Q 5216 2422 5216 2491 
Q 5216 2772 5059 2928 
Q 4903 3084 4622 3084 
Q 4203 3084 3875 2770 
Q 3547 2456 3450 1953 
L 3066 0 
L 2491 0 
L 2900 2094 
Q 2925 2209 2937 2307 
Q 2950 2406 2950 2484 
Q 2950 2769 2794 2926 
Q 2638 3084 2363 3084 
Q 1938 3084 1609 2770 
Q 1281 2456 1184 1953 
L 800 0 
L 225 0 
L 909 3500 
L 1484 3500 
L 1375 2956 
Q 1609 3263 1923 3423 
Q 2238 3584 2597 3584 
Q 2978 3584 3223 3384 
Q 3469 3184 3519 2828 
Q 3781 3197 4126 3390 
Q 4472 3584 4856 3584 
Q 5306 3584 5551 3325 
Q 5797 3066 5797 2591 
Q 5797 2488 5784 2364 
Q 5772 2241 5747 2113 
z
" transform="scale(0.015625)"/>
       <path id="DejaVuSans-3d" d="M 678 2906 
L 4684 2906 
L 4684 2381 
L 678 2381 
L 678 2906 
z
M 678 1631 
L 4684 1631 
L 4684 1100 
L 678 1100 
L 678 1631 
z
" transform="scale(0.015625)"/>
      </defs>
      <use xlink:href="#DejaVuSans-Oblique-6d" transform="translate(0 0.09375)"/>
      <use xlink:href="#DejaVuSans-3d" transform="translate(116.894531 0.09375)"/>
      <use xlink:href="#DejaVuSans-31" transform="translate(220.166016 0.09375)"/>
     </g>
    </g>
    <g id="line2d_34">
     <path d="M 49.603125 53.453906 
L 59.603125 53.453906 
L 69.603125 53.453906 
" style="fill: none; stroke: #ff7f0e; stroke-width: 1.5; stroke-linecap: square"/>
    </g>
    <g id="text_18">
     <!-- $m=2$ -->
     <g transform="translate(77.603125 56.953906) scale(0.1 -0.1)">
      <use xlink:href="#DejaVuSans-Oblique-6d" transform="translate(0 0.78125)"/>
      <use xlink:href="#DejaVuSans-3d" transform="translate(116.894531 0.78125)"/>
      <use xlink:href="#DejaVuSans-32" transform="translate(220.166016 0.78125)"/>
     </g>
    </g>
    <g id="line2d_35">
     <path d="M 49.603125 68.132031 
L 59.603125 68.132031 
L 69.603125 68.132031 
" style="fill: none; stroke: #2ca02c; stroke-width: 1.5; stroke-linecap: square"/>
    </g>
    <g id="text_19">
     <!-- $m=16$ -->
     <g transform="translate(77.603125 71.632031) scale(0.1 -0.1)">
      <use xlink:href="#DejaVuSans-Oblique-6d" transform="translate(0 0.78125)"/>
      <use xlink:href="#DejaVuSans-3d" transform="translate(116.894531 0.78125)"/>
      <use xlink:href="#DejaVuSans-31" transform="translate(220.166016 0.78125)"/>
      <use xlink:href="#DejaVuSans-36" transform="translate(283.789062 0.78125)"/>
     </g>
    </g>
    <g id="line2d_36">
     <path d="M 49.603125 82.810156 
L 59.603125 82.810156 
L 69.603125 82.810156 
" style="fill: none; stroke: #d62728; stroke-width: 1.5; stroke-linecap: square"/>
    </g>
    <g id="text_20">
     <!-- $m=300$ -->
     <g transform="translate(77.603125 86.310156) scale(0.1 -0.1)">
      <use xlink:href="#DejaVuSans-Oblique-6d" transform="translate(0 0.78125)"/>
      <use xlink:href="#DejaVuSans-3d" transform="translate(116.894531 0.78125)"/>
      <use xlink:href="#DejaVuSans-33" transform="translate(220.166016 0.78125)"/>
      <use xlink:href="#DejaVuSans-30" transform="translate(283.789062 0.78125)"/>
      <use xlink:href="#DejaVuSans-30" transform="translate(347.412109 0.78125)"/>
     </g>
    </g>
   </g>
  </g>
 </g>
 <defs>
  <clipPath id="pcc0150a42e">
   <rect x="40.603125" y="10.999219" width="306.9" height="194.04"/>
  </clipPath>
 </defs>
</svg>
