<?xml version="1.0" encoding="utf-8" standalone="no"?>
<!DOCTYPE svg PUBLIC "-//W3C//DTD SVG 1.1//EN"
  "http://www.w3.org/Graphics/SVG/1.1/DTD/svg11.dtd">
<svg xmlns:xlink="http://www.w3.org/1999/xlink" width="362.126562pt" height="259.157344pt" viewBox="0 0 362.126562 259.157344" xmlns="http://www.w3.org/2000/svg" version="1.1">
 <metadata>
  <rdf:RDF xmlns:dc="http://purl.org/dc/elements/1.1/" xmlns:cc="http://creativecommons.org/ns#" xmlns:rdf="http://www.w3.org/1999/02/22-rdf-syntax-ns#">
   <cc:Work>
    <dc:type rdf:resource="http://purl.org/dc/dcmitype/StillImage"/>
    <dc:date>2025-01-14T12:28:12.990037</dc:date>
    <dc:format>image/svg+xml</dc:format>
    <dc:creator>
     <cc:Agent>
      <dc:title>Matplotlib v3.9.2, https://matplotlib.org/</dc:title>
     </cc:Agent>
    </dc:creator>
   </cc:Work>
  </rdf:RDF>
 </metadata>
 <defs>
  <style type="text/css">*{stroke-linejoin: round; stroke-linecap: butt}</style>
 </defs>
 <g id="figure_1">
  <g id="patch_1">
   <path d="M 0 259.157344 
L 362.126562 259.157344 
L 362.126562 0 
L 0 0 
z
" style="fill: #ffffff"/>
  </g>
  <g id="axes_1">
   <g id="patch_2">
    <path d="M 38.482813 55.4111 
L 345.382813 55.4111 
L 345.382813 10.999219 
L 38.482813 10.999219 
z
" style="fill: #ffffff"/>
   </g>
   <g id="patch_3">
    <path d="M 37.255212 33.205159 
L 39.710412 33.205159 
L 39.710412 46.734104 
L 37.255212 46.734104 
z
" clip-path="url(#p0f910e604e)" style="fill: #1f77b4"/>
   </g>
   <g id="patch_4">
    <path d="M 40.324213 33.205159 
L 42.779412 33.205159 
L 42.779412 30.209048 
L 40.324213 30.209048 
z
" clip-path="url(#p0f910e604e)" style="fill: #1f77b4"/>
   </g>
   <g id="patch_5">
    <path d="M 43.393213 33.205159 
L 45.848413 33.205159 
L 45.848413 38.234723 
L 43.393213 38.234723 
z
" clip-path="url(#p0f910e604e)" style="fill: #1f77b4"/>
   </g>
   <g id="patch_6">
    <path d="M 46.462212 33.205159 
L 48.917412 33.205159 
L 48.917412 26.561889 
L 46.462212 26.561889 
z
" clip-path="url(#p0f910e604e)" style="fill: #1f77b4"/>
   </g>
   <g id="patch_7">
    <path d="M 49.531213 33.205159 
L 51.986413 33.205159 
L 51.986413 36.915035 
L 49.531213 36.915035 
z
" clip-path="url(#p0f910e604e)" style="fill: #1f77b4"/>
   </g>
   <g id="patch_8">
    <path d="M 52.600212 33.205159 
L 55.055412 33.205159 
L 55.055412 38.485067 
L 52.600212 38.485067 
z
" clip-path="url(#p0f910e604e)" style="fill: #1f77b4"/>
   </g>
   <g id="patch_9">
    <path d="M 55.669213 33.205159 
L 58.124412 33.205159 
L 58.124412 25.483661 
L 55.669213 25.483661 
z
" clip-path="url(#p0f910e604e)" style="fill: #1f77b4"/>
   </g>
   <g id="patch_10">
    <path d="M 58.738213 33.205159 
L 61.193413 33.205159 
L 61.193413 46.548751 
L 58.738213 46.548751 
z
" clip-path="url(#p0f910e604e)" style="fill: #1f77b4"/>
   </g>
   <g id="patch_11">
    <path d="M 61.807213 33.205159 
L 64.262413 33.205159 
L 64.262413 29.513211 
L 61.807213 29.513211 
z
" clip-path="url(#p0f910e604e)" style="fill: #1f77b4"/>
   </g>
   <g id="patch_12">
    <path d="M 64.876213 33.205159 
L 67.331413 33.205159 
L 67.331413 37.188678 
L 64.876213 37.188678 
z
" clip-path="url(#p0f910e604e)" style="fill: #1f77b4"/>
   </g>
   <g id="patch_13">
    <path d="M 67.945212 33.205159 
L 70.400413 33.205159 
L 70.400413 33.418565 
L 67.945212 33.418565 
z
" clip-path="url(#p0f910e604e)" style="fill: #1f77b4"/>
   </g>
   <g id="patch_14">
    <path d="M 71.014213 33.205159 
L 73.469413 33.205159 
L 73.469413 54.599767 
L 71.014213 54.599767 
z
" clip-path="url(#p0f910e604e)" style="fill: #1f77b4"/>
   </g>
   <g id="patch_15">
    <path d="M 74.083213 33.205159 
L 76.538413 33.205159 
L 76.538413 26.376541 
L 74.083213 26.376541 
z
" clip-path="url(#p0f910e604e)" style="fill: #1f77b4"/>
   </g>
   <g id="patch_16">
    <path d="M 77.152213 33.205159 
L 79.607413 33.205159 
L 79.607413 47.243559 
L 77.152213 47.243559 
z
" clip-path="url(#p0f910e604e)" style="fill: #1f77b4"/>
   </g>
   <g id="patch_17">
    <path d="M 80.221213 33.205159 
L 82.676413 33.205159 
L 82.676413 29.886503 
L 80.221213 29.886503 
z
" clip-path="url(#p0f910e604e)" style="fill: #1f77b4"/>
   </g>
   <g id="patch_18">
    <path d="M 83.290212 33.205159 
L 85.745413 33.205159 
L 85.745413 26.918907 
L 83.290212 26.918907 
z
" clip-path="url(#p0f910e604e)" style="fill: #1f77b4"/>
   </g>
   <g id="patch_19">
    <path d="M 86.359213 33.205159 
L 88.814413 33.205159 
L 88.814413 17.512416 
L 86.359213 17.512416 
z
" clip-path="url(#p0f910e604e)" style="fill: #1f77b4"/>
   </g>
   <g id="patch_20">
    <path d="M 89.428213 33.205159 
L 91.883413 33.205159 
L 91.883413 19.639744 
L 89.428213 19.639744 
z
" clip-path="url(#p0f910e604e)" style="fill: #1f77b4"/>
   </g>
   <g id="patch_21">
    <path d="M 92.497213 33.205159 
L 94.952413 33.205159 
L 94.952413 30.201652 
L 92.497213 30.201652 
z
" clip-path="url(#p0f910e604e)" style="fill: #1f77b4"/>
   </g>
   <g id="patch_22">
    <path d="M 95.566213 33.205159 
L 98.021413 33.205159 
L 98.021413 27.016939 
L 95.566213 27.016939 
z
" clip-path="url(#p0f910e604e)" style="fill: #1f77b4"/>
   </g>
   <g id="patch_23">
    <path d="M 98.635213 33.205159 
L 101.090413 33.205159 
L 101.090413 50.572248 
L 98.635213 50.572248 
z
" clip-path="url(#p0f910e604e)" style="fill: #1f77b4"/>
   </g>
   <g id="patch_24">
    <path d="M 101.704213 33.205159 
L 104.159413 33.205159 
L 104.159413 27.529369 
L 101.704213 27.529369 
z
" clip-path="url(#p0f910e604e)" style="fill: #1f77b4"/>
   </g>
   <g id="patch_25">
    <path d="M 104.773213 33.205159 
L 107.228413 33.205159 
L 107.228413 37.786895 
L 104.773213 37.786895 
z
" clip-path="url(#p0f910e604e)" style="fill: #1f77b4"/>
   </g>
   <g id="patch_26">
    <path d="M 107.842213 33.205159 
L 110.297413 33.205159 
L 110.297413 23.448022 
L 107.842213 23.448022 
z
" clip-path="url(#p0f910e604e)" style="fill: #1f77b4"/>
   </g>
   <g id="patch_27">
    <path d="M 110.911213 33.205159 
L 113.366413 33.205159 
L 113.366413 2.093158 
L 110.911213 2.093158 
z
" clip-path="url(#p0f910e604e)" style="fill: #1f77b4"/>
   </g>
   <g id="patch_28">
    <path d="M 113.980213 33.205159 
L 116.435413 33.205159 
L 116.435413 19.926209 
L 113.980213 19.926209 
z
" clip-path="url(#p0f910e604e)" style="fill: #1f77b4"/>
   </g>
   <g id="patch_29">
    <path d="M 117.049213 33.205159 
L 119.504413 33.205159 
L 119.504413 32.663143 
L 117.049213 32.663143 
z
" clip-path="url(#p0f910e604e)" style="fill: #1f77b4"/>
   </g>
   <g id="patch_30">
    <path d="M 120.118213 33.205159 
L 122.573413 33.205159 
L 122.573413 29.007199 
L 120.118213 29.007199 
z
" clip-path="url(#p0f910e604e)" style="fill: #1f77b4"/>
   </g>
   <g id="patch_31">
    <path d="M 123.187213 33.205159 
L 125.642413 33.205159 
L 125.642413 48.236068 
L 123.187213 48.236068 
z
" clip-path="url(#p0f910e604e)" style="fill: #1f77b4"/>
   </g>
   <g id="patch_32">
    <path d="M 126.256213 33.205159 
L 128.711412 33.205159 
L 128.711412 21.131734 
L 126.256213 21.131734 
z
" clip-path="url(#p0f910e604e)" style="fill: #1f77b4"/>
   </g>
   <g id="patch_33">
    <path d="M 129.325213 33.205159 
L 131.780413 33.205159 
L 131.780413 21.502756 
L 129.325213 21.502756 
z
" clip-path="url(#p0f910e604e)" style="fill: #1f77b4"/>
   </g>
   <g id="patch_34">
    <path d="M 132.394213 33.205159 
L 134.849412 33.205159 
L 134.849412 33.757762 
L 132.394213 33.757762 
z
" clip-path="url(#p0f910e604e)" style="fill: #1f77b4"/>
   </g>
   <g id="patch_35">
    <path d="M 135.463213 33.205159 
L 137.918413 33.205159 
L 137.918413 28.99471 
L 135.463213 28.99471 
z
" clip-path="url(#p0f910e604e)" style="fill: #1f77b4"/>
   </g>
   <g id="patch_36">
    <path d="M 138.532213 33.205159 
L 140.987413 33.205159 
L 140.987413 49.62427 
L 138.532213 49.62427 
z
" clip-path="url(#p0f910e604e)" style="fill: #1f77b4"/>
   </g>
   <g id="patch_37">
    <path d="M 141.601213 33.205159 
L 144.056413 33.205159 
L 144.056413 26.899311 
L 141.601213 26.899311 
z
" clip-path="url(#p0f910e604e)" style="fill: #1f77b4"/>
   </g>
   <g id="patch_38">
    <path d="M 144.670213 33.205159 
L 147.125413 33.205159 
L 147.125413 16.224777 
L 144.670213 16.224777 
z
" clip-path="url(#p0f910e604e)" style="fill: #1f77b4"/>
   </g>
   <g id="patch_39">
    <path d="M 147.739213 33.205159 
L 150.194412 33.205159 
L 150.194412 37.407328 
L 147.739213 37.407328 
z
" clip-path="url(#p0f910e604e)" style="fill: #1f77b4"/>
   </g>
   <g id="patch_40">
    <path d="M 150.808213 33.205159 
L 153.263413 33.205159 
L 153.263413 29.541187 
L 150.808213 29.541187 
z
" clip-path="url(#p0f910e604e)" style="fill: #1f77b4"/>
   </g>
   <g id="patch_41">
    <path d="M 153.877213 33.205159 
L 156.332413 33.205159 
L 156.332413 40.508558 
L 153.877213 40.508558 
z
" clip-path="url(#p0f910e604e)" style="fill: #1f77b4"/>
   </g>
   <g id="patch_42">
    <path d="M 156.946213 33.205159 
L 159.401413 33.205159 
L 159.401413 37.216118 
L 156.946213 37.216118 
z
" clip-path="url(#p0f910e604e)" style="fill: #1f77b4"/>
   </g>
   <g id="patch_43">
    <path d="M 160.015213 33.205159 
L 162.470413 33.205159 
L 162.470413 30.167089 
L 160.015213 30.167089 
z
" clip-path="url(#p0f910e604e)" style="fill: #1f77b4"/>
   </g>
   <g id="patch_44">
    <path d="M 163.084213 33.205159 
L 165.539413 33.205159 
L 165.539413 25.526878 
L 163.084213 25.526878 
z
" clip-path="url(#p0f910e604e)" style="fill: #1f77b4"/>
   </g>
   <g id="patch_45">
    <path d="M 166.153213 33.205159 
L 168.608413 33.205159 
L 168.608413 39.032763 
L 166.153213 39.032763 
z
" clip-path="url(#p0f910e604e)" style="fill: #1f77b4"/>
   </g>
   <g id="patch_46">
    <path d="M 169.222213 33.205159 
L 171.677413 33.205159 
L 171.677413 52.860701 
L 169.222213 52.860701 
z
" clip-path="url(#p0f910e604e)" style="fill: #1f77b4"/>
   </g>
   <g id="patch_47">
    <path d="M 172.291213 33.205159 
L 174.746413 33.205159 
L 174.746413 13.379864 
L 172.291213 13.379864 
z
" clip-path="url(#p0f910e604e)" style="fill: #1f77b4"/>
   </g>
   <g id="patch_48">
    <path d="M 175.360213 33.205159 
L 177.815413 33.205159 
L 177.815413 25.844158 
L 175.360213 25.844158 
z
" clip-path="url(#p0f910e604e)" style="fill: #1f77b4"/>
   </g>
   <g id="patch_49">
    <path d="M 178.429213 33.205159 
L 180.884412 33.205159 
L 180.884412 30.972379 
L 178.429213 30.972379 
z
" clip-path="url(#p0f910e604e)" style="fill: #1f77b4"/>
   </g>
   <g id="patch_50">
    <path d="M 181.498213 33.205159 
L 183.953413 33.205159 
L 183.953413 21.776332 
L 181.498213 21.776332 
z
" clip-path="url(#p0f910e604e)" style="fill: #1f77b4"/>
   </g>
   <g id="patch_51">
    <path d="M 184.567213 33.205159 
L 187.022413 33.205159 
L 187.022413 29.98088 
L 184.567213 29.98088 
z
" clip-path="url(#p0f910e604e)" style="fill: #1f77b4"/>
   </g>
   <g id="patch_52">
    <path d="M 187.636213 33.205159 
L 190.091413 33.205159 
L 190.091413 34.69444 
L 187.636213 34.69444 
z
" clip-path="url(#p0f910e604e)" style="fill: #1f77b4"/>
   </g>
   <g id="patch_53">
    <path d="M 190.705213 33.205159 
L 193.160413 33.205159 
L 193.160413 46.562794 
L 190.705213 46.562794 
z
" clip-path="url(#p0f910e604e)" style="fill: #1f77b4"/>
   </g>
   <g id="patch_54">
    <path d="M 193.774213 33.205159 
L 196.229413 33.205159 
L 196.229413 36.170695 
L 193.774213 36.170695 
z
" clip-path="url(#p0f910e604e)" style="fill: #1f77b4"/>
   </g>
   <g id="patch_55">
    <path d="M 196.843213 33.205159 
L 199.298413 33.205159 
L 199.298413 22.22435 
L 196.843213 22.22435 
z
" clip-path="url(#p0f910e604e)" style="fill: #1f77b4"/>
   </g>
   <g id="patch_56">
    <path d="M 199.912213 33.205159 
L 202.367413 33.205159 
L 202.367413 20.960698 
L 199.912213 20.960698 
z
" clip-path="url(#p0f910e604e)" style="fill: #1f77b4"/>
   </g>
   <g id="patch_57">
    <path d="M 202.981213 33.205159 
L 205.436413 33.205159 
L 205.436413 26.464027 
L 202.981213 26.464027 
z
" clip-path="url(#p0f910e604e)" style="fill: #1f77b4"/>
   </g>
   <g id="patch_58">
    <path d="M 206.050213 33.205159 
L 208.505413 33.205159 
L 208.505413 40.949496 
L 206.050213 40.949496 
z
" clip-path="url(#p0f910e604e)" style="fill: #1f77b4"/>
   </g>
   <g id="patch_59">
    <path d="M 209.119213 33.205159 
L 211.574413 33.205159 
L 211.574413 28.467191 
L 209.119213 28.467191 
z
" clip-path="url(#p0f910e604e)" style="fill: #1f77b4"/>
   </g>
   <g id="patch_60">
    <path d="M 212.188213 33.205159 
L 214.643413 33.205159 
L 214.643413 30.887379 
L 212.188213 30.887379 
z
" clip-path="url(#p0f910e604e)" style="fill: #1f77b4"/>
   </g>
   <g id="patch_61">
    <path d="M 215.257213 33.205159 
L 217.712412 33.205159 
L 217.712412 19.068562 
L 215.257213 19.068562 
z
" clip-path="url(#p0f910e604e)" style="fill: #1f77b4"/>
   </g>
   <g id="patch_62">
    <path d="M 218.326213 33.205159 
L 220.781413 33.205159 
L 220.781413 36.380249 
L 218.326213 36.380249 
z
" clip-path="url(#p0f910e604e)" style="fill: #1f77b4"/>
   </g>
   <g id="patch_63">
    <path d="M 221.395213 33.205159 
L 223.850413 33.205159 
L 223.850413 25.851038 
L 221.395213 25.851038 
z
" clip-path="url(#p0f910e604e)" style="fill: #1f77b4"/>
   </g>
   <g id="patch_64">
    <path d="M 224.464213 33.205159 
L 226.919413 33.205159 
L 226.919413 28.950012 
L 224.464213 28.950012 
z
" clip-path="url(#p0f910e604e)" style="fill: #1f77b4"/>
   </g>
   <g id="patch_65">
    <path d="M 227.533213 33.205159 
L 229.988413 33.205159 
L 229.988413 30.061447 
L 227.533213 30.061447 
z
" clip-path="url(#p0f910e604e)" style="fill: #1f77b4"/>
   </g>
   <g id="patch_66">
    <path d="M 230.602213 33.205159 
L 233.057413 33.205159 
L 233.057413 32.579506 
L 230.602213 32.579506 
z
" clip-path="url(#p0f910e604e)" style="fill: #1f77b4"/>
   </g>
   <g id="patch_67">
    <path d="M 233.671213 33.205159 
L 236.126413 33.205159 
L 236.126413 48.924677 
L 233.671213 48.924677 
z
" clip-path="url(#p0f910e604e)" style="fill: #1f77b4"/>
   </g>
   <g id="patch_68">
    <path d="M 236.740213 33.205159 
L 239.195413 33.205159 
L 239.195413 5.722925 
L 236.740213 5.722925 
z
" clip-path="url(#p0f910e604e)" style="fill: #1f77b4"/>
   </g>
   <g id="patch_69">
    <path d="M 239.809213 33.205159 
L 242.264412 33.205159 
L 242.264412 26.372176 
L 239.809213 26.372176 
z
" clip-path="url(#p0f910e604e)" style="fill: #1f77b4"/>
   </g>
   <g id="patch_70">
    <path d="M 242.878212 33.205159 
L 245.333412 33.205159 
L 245.333412 22.071838 
L 242.878212 22.071838 
z
" clip-path="url(#p0f910e604e)" style="fill: #1f77b4"/>
   </g>
   <g id="patch_71">
    <path d="M 245.947213 33.205159 
L 248.402412 33.205159 
L 248.402412 27.297442 
L 245.947213 27.297442 
z
" clip-path="url(#p0f910e604e)" style="fill: #1f77b4"/>
   </g>
   <g id="patch_72">
    <path d="M 249.016212 33.205159 
L 251.471412 33.205159 
L 251.471412 23.351223 
L 249.016212 23.351223 
z
" clip-path="url(#p0f910e604e)" style="fill: #1f77b4"/>
   </g>
   <g id="patch_73">
    <path d="M 252.085213 33.205159 
L 254.540413 33.205159 
L 254.540413 11.745286 
L 252.085213 11.745286 
z
" clip-path="url(#p0f910e604e)" style="fill: #1f77b4"/>
   </g>
   <g id="patch_74">
    <path d="M 255.154212 33.205159 
L 257.609413 33.205159 
L 257.609413 30.450594 
L 255.154212 30.450594 
z
" clip-path="url(#p0f910e604e)" style="fill: #1f77b4"/>
   </g>
   <g id="patch_75">
    <path d="M 258.223213 33.205159 
L 260.678413 33.205159 
L 260.678413 22.757032 
L 258.223213 22.757032 
z
" clip-path="url(#p0f910e604e)" style="fill: #1f77b4"/>
   </g>
   <g id="patch_76">
    <path d="M 261.292213 33.205159 
L 263.747412 33.205159 
L 263.747412 21.460953 
L 261.292213 21.460953 
z
" clip-path="url(#p0f910e604e)" style="fill: #1f77b4"/>
   </g>
   <g id="patch_77">
    <path d="M 264.361213 33.205159 
L 266.816413 33.205159 
L 266.816413 49.364686 
L 264.361213 49.364686 
z
" clip-path="url(#p0f910e604e)" style="fill: #1f77b4"/>
   </g>
   <g id="patch_78">
    <path d="M 267.430213 33.205159 
L 269.885413 33.205159 
L 269.885413 42.899082 
L 267.430213 42.899082 
z
" clip-path="url(#p0f910e604e)" style="fill: #1f77b4"/>
   </g>
   <g id="patch_79">
    <path d="M 270.499212 33.205159 
L 272.954412 33.205159 
L 272.954412 35.269102 
L 270.499212 35.269102 
z
" clip-path="url(#p0f910e604e)" style="fill: #1f77b4"/>
   </g>
   <g id="patch_80">
    <path d="M 273.568213 33.205159 
L 276.023413 33.205159 
L 276.023413 38.919579 
L 273.568213 38.919579 
z
" clip-path="url(#p0f910e604e)" style="fill: #1f77b4"/>
   </g>
   <g id="patch_81">
    <path d="M 276.637213 33.205159 
L 279.092413 33.205159 
L 279.092413 23.877382 
L 276.637213 23.877382 
z
" clip-path="url(#p0f910e604e)" style="fill: #1f77b4"/>
   </g>
   <g id="patch_82">
    <path d="M 279.706213 33.205159 
L 282.161413 33.205159 
L 282.161413 24.901824 
L 279.706213 24.901824 
z
" clip-path="url(#p0f910e604e)" style="fill: #1f77b4"/>
   </g>
   <g id="patch_83">
    <path d="M 282.775213 33.205159 
L 285.230412 33.205159 
L 285.230412 16.457957 
L 282.775213 16.457957 
z
" clip-path="url(#p0f910e604e)" style="fill: #1f77b4"/>
   </g>
   <g id="patch_84">
    <path d="M 285.844213 33.205159 
L 288.299413 33.205159 
L 288.299413 33.968855 
L 285.844213 33.968855 
z
" clip-path="url(#p0f910e604e)" style="fill: #1f77b4"/>
   </g>
   <g id="patch_85">
    <path d="M 288.913213 33.205159 
L 291.368413 33.205159 
L 291.368413 38.33156 
L 288.913213 38.33156 
z
" clip-path="url(#p0f910e604e)" style="fill: #1f77b4"/>
   </g>
   <g id="patch_86">
    <path d="M 291.982213 33.205159 
L 294.437412 33.205159 
L 294.437412 22.446281 
L 291.982213 22.446281 
z
" clip-path="url(#p0f910e604e)" style="fill: #1f77b4"/>
   </g>
   <g id="patch_87">
    <path d="M 295.051213 33.205159 
L 297.506413 33.205159 
L 297.506413 31.6209 
L 295.051213 31.6209 
z
" clip-path="url(#p0f910e604e)" style="fill: #1f77b4"/>
   </g>
   <g id="patch_88">
    <path d="M 298.120213 33.205159 
L 300.575413 33.205159 
L 300.575413 35.045886 
L 298.120213 35.045886 
z
" clip-path="url(#p0f910e604e)" style="fill: #1f77b4"/>
   </g>
   <g id="patch_89">
    <path d="M 301.189213 33.205159 
L 303.644413 33.205159 
L 303.644413 41.279551 
L 301.189213 41.279551 
z
" clip-path="url(#p0f910e604e)" style="fill: #1f77b4"/>
   </g>
   <g id="patch_90">
    <path d="M 304.258213 33.205159 
L 306.713413 33.205159 
L 306.713413 34.784548 
L 304.258213 34.784548 
z
" clip-path="url(#p0f910e604e)" style="fill: #1f77b4"/>
   </g>
   <g id="patch_91">
    <path d="M 307.327213 33.205159 
L 309.782413 33.205159 
L 309.782413 27.471095 
L 307.327213 27.471095 
z
" clip-path="url(#p0f910e604e)" style="fill: #1f77b4"/>
   </g>
   <g id="patch_92">
    <path d="M 310.396213 33.205159 
L 312.851413 33.205159 
L 312.851413 34.875631 
L 310.396213 34.875631 
z
" clip-path="url(#p0f910e604e)" style="fill: #1f77b4"/>
   </g>
   <g id="patch_93">
    <path d="M 313.465213 33.205159 
L 315.920413 33.205159 
L 315.920413 27.385457 
L 313.465213 27.385457 
z
" clip-path="url(#p0f910e604e)" style="fill: #1f77b4"/>
   </g>
   <g id="patch_94">
    <path d="M 316.534213 33.205159 
L 318.989413 33.205159 
L 318.989413 32.690991 
L 316.534213 32.690991 
z
" clip-path="url(#p0f910e604e)" style="fill: #1f77b4"/>
   </g>
   <g id="patch_95">
    <path d="M 319.603213 33.205159 
L 322.058413 33.205159 
L 322.058413 33.716632 
L 319.603213 33.716632 
z
" clip-path="url(#p0f910e604e)" style="fill: #1f77b4"/>
   </g>
   <g id="patch_96">
    <path d="M 322.672213 33.205159 
L 325.127413 33.205159 
L 325.127413 16.96955 
L 322.672213 16.96955 
z
" clip-path="url(#p0f910e604e)" style="fill: #1f77b4"/>
   </g>
   <g id="patch_97">
    <path d="M 325.741213 33.205159 
L 328.196413 33.205159 
L 328.196413 35.771928 
L 325.741213 35.771928 
z
" clip-path="url(#p0f910e604e)" style="fill: #1f77b4"/>
   </g>
   <g id="patch_98">
    <path d="M 328.810213 33.205159 
L 331.265413 33.205159 
L 331.265413 41.023699 
L 328.810213 41.023699 
z
" clip-path="url(#p0f910e604e)" style="fill: #1f77b4"/>
   </g>
   <g id="patch_99">
    <path d="M 331.879213 33.205159 
L 334.334413 33.205159 
L 334.334413 31.303874 
L 331.879213 31.303874 
z
" clip-path="url(#p0f910e604e)" style="fill: #1f77b4"/>
   </g>
   <g id="patch_100">
    <path d="M 334.948213 33.205159 
L 337.403413 33.205159 
L 337.403413 30.18126 
L 334.948213 30.18126 
z
" clip-path="url(#p0f910e604e)" style="fill: #1f77b4"/>
   </g>
   <g id="patch_101">
    <path d="M 338.017213 33.205159 
L 340.472413 33.205159 
L 340.472413 27.986032 
L 338.017213 27.986032 
z
" clip-path="url(#p0f910e604e)" style="fill: #1f77b4"/>
   </g>
   <g id="patch_102">
    <path d="M 341.086213 33.205159 
L 343.541413 33.205159 
L 343.541413 42.628107 
L 341.086213 42.628107 
z
" clip-path="url(#p0f910e604e)" style="fill: #1f77b4"/>
   </g>
   <g id="matplotlib.axis_1"/>
   <g id="matplotlib.axis_2">
    <g id="ytick_1">
     <g id="line2d_1">
      <defs>
       <path id="m2d2ad68429" d="M 0 0 
L -3.5 0 
" style="stroke: #000000; stroke-width: 0.8"/>
      </defs>
      <g>
       <use xlink:href="#m2d2ad68429" x="38.482813" y="55.4111" style="stroke: #000000; stroke-width: 0.8"/>
      </g>
     </g>
     <g id="text_1">
      <!-- −0.1 -->
      <g transform="translate(7.2 59.210319) scale(0.1 -0.1)">
       <defs>
        <path id="DejaVuSans-2212" d="M 678 2272 
L 4684 2272 
L 4684 1741 
L 678 1741 
L 678 2272 
z
" transform="scale(0.015625)"/>
        <path id="DejaVuSans-30" d="M 2034 4250 
Q 1547 4250 1301 3770 
Q 1056 3291 1056 2328 
Q 1056 1369 1301 889 
Q 1547 409 2034 409 
Q 2525 409 2770 889 
Q 3016 1369 3016 2328 
Q 3016 3291 2770 3770 
Q 2525 4250 2034 4250 
z
M 2034 4750 
Q 2819 4750 3233 4129 
Q 3647 3509 3647 2328 
Q 3647 1150 3233 529 
Q 2819 -91 2034 -91 
Q 1250 -91 836 529 
Q 422 1150 422 2328 
Q 422 3509 836 4129 
Q 1250 4750 2034 4750 
z
" transform="scale(0.015625)"/>
        <path id="DejaVuSans-2e" d="M 684 794 
L 1344 794 
L 1344 0 
L 684 0 
L 684 794 
z
" transform="scale(0.015625)"/>
        <path id="DejaVuSans-31" d="M 794 531 
L 1825 531 
L 1825 4091 
L 703 3866 
L 703 4441 
L 1819 4666 
L 2450 4666 
L 2450 531 
L 3481 531 
L 3481 0 
L 794 0 
L 794 531 
z
" transform="scale(0.015625)"/>
       </defs>
       <use xlink:href="#DejaVuSans-2212"/>
       <use xlink:href="#DejaVuSans-30" x="83.789062"/>
       <use xlink:href="#DejaVuSans-2e" x="147.412109"/>
       <use xlink:href="#DejaVuSans-31" x="179.199219"/>
      </g>
     </g>
    </g>
    <g id="ytick_2">
     <g id="line2d_2">
      <g>
       <use xlink:href="#m2d2ad68429" x="38.482813" y="33.205159" style="stroke: #000000; stroke-width: 0.8"/>
      </g>
     </g>
     <g id="text_2">
      <!-- 0.0 -->
      <g transform="translate(15.579688 37.004378) scale(0.1 -0.1)">
       <use xlink:href="#DejaVuSans-30"/>
       <use xlink:href="#DejaVuSans-2e" x="63.623047"/>
       <use xlink:href="#DejaVuSans-30" x="95.410156"/>
      </g>
     </g>
    </g>
    <g id="ytick_3">
     <g id="line2d_3">
      <g>
       <use xlink:href="#m2d2ad68429" x="38.482813" y="10.999219" style="stroke: #000000; stroke-width: 0.8"/>
      </g>
     </g>
     <g id="text_3">
      <!-- 0.1 -->
      <g transform="translate(15.579688 14.798438) scale(0.1 -0.1)">
       <use xlink:href="#DejaVuSans-30"/>
       <use xlink:href="#DejaVuSans-2e" x="63.623047"/>
       <use xlink:href="#DejaVuSans-31" x="95.410156"/>
      </g>
     </g>
    </g>
   </g>
   <g id="patch_103">
    <path d="M 38.482813 55.4111 
L 38.482813 10.999219 
" style="fill: none; stroke: #000000; stroke-width: 0.8; stroke-linejoin: miter; stroke-linecap: square"/>
   </g>
   <g id="patch_104">
    <path d="M 345.382813 55.4111 
L 345.382813 10.999219 
" style="fill: none; stroke: #000000; stroke-width: 0.8; stroke-linejoin: miter; stroke-linecap: square"/>
   </g>
   <g id="patch_105">
    <path d="M 38.482813 55.4111 
L 345.382813 55.4111 
" style="fill: none; stroke: #000000; stroke-width: 0.8; stroke-linejoin: miter; stroke-linecap: square"/>
   </g>
   <g id="patch_106">
    <path d="M 38.482813 10.999219 
L 345.382813 10.999219 
" style="fill: none; stroke: #000000; stroke-width: 0.8; stroke-linejoin: miter; stroke-linecap: square"/>
   </g>
   <g id="text_4">
    <!-- $\lambda_1=0$ -->
    <g transform="translate(53.827813 22.102189) scale(0.1 -0.1)">
     <defs>
      <path id="DejaVuSans-Oblique-3bb" d="M 2350 4316 
L 3125 0 
L 2516 0 
L 2038 2588 
L 328 0 
L -281 0 
L 1903 3356 
L 1794 3975 
Q 1725 4369 1391 4369 
L 1091 4369 
L 1184 4863 
L 1550 4856 
Q 2253 4847 2350 4316 
z
" transform="scale(0.015625)"/>
      <path id="DejaVuSans-3d" d="M 678 2906 
L 4684 2906 
L 4684 2381 
L 678 2381 
L 678 2906 
z
M 678 1631 
L 4684 1631 
L 4684 1100 
L 678 1100 
L 678 1631 
z
" transform="scale(0.015625)"/>
     </defs>
     <use xlink:href="#DejaVuSans-Oblique-3bb" transform="translate(0 0.015625)"/>
     <use xlink:href="#DejaVuSans-31" transform="translate(59.179688 -16.390625) scale(0.7)"/>
     <use xlink:href="#DejaVuSans-3d" transform="translate(125.932617 0.015625)"/>
     <use xlink:href="#DejaVuSans-30" transform="translate(229.204102 0.015625)"/>
    </g>
   </g>
  </g>
  <g id="axes_2">
   <g id="patch_107">
    <path d="M 38.482813 235.279219 
L 128.747518 235.279219 
L 128.747518 190.867338 
L 38.482813 190.867338 
z
" style="fill: #ffffff"/>
   </g>
   <g id="patch_108">
    <path d="M 40.131803 235.279219 
L 45.467643 235.279219 
L 45.467643 234.010308 
L 40.131803 234.010308 
z
" clip-path="url(#pe085d066eb)" style="fill: #1f77b4"/>
   </g>
   <g id="patch_109">
    <path d="M 45.467643 235.279219 
L 50.803482 235.279219 
L 50.803482 233.375852 
L 45.467643 233.375852 
z
" clip-path="url(#pe085d066eb)" style="fill: #1f77b4"/>
   </g>
   <g id="patch_110">
    <path d="M 50.803482 235.279219 
L 56.139322 235.279219 
L 56.139322 232.741397 
L 50.803482 232.741397 
z
" clip-path="url(#pe085d066eb)" style="fill: #1f77b4"/>
   </g>
   <g id="patch_111">
    <path d="M 56.139322 235.279219 
L 61.475162 235.279219 
L 61.475162 234.010308 
L 56.139322 234.010308 
z
" clip-path="url(#pe085d066eb)" style="fill: #1f77b4"/>
   </g>
   <g id="patch_112">
    <path d="M 61.475162 235.279219 
L 66.811001 235.279219 
L 66.811001 234.010308 
L 61.475162 234.010308 
z
" clip-path="url(#pe085d066eb)" style="fill: #1f77b4"/>
   </g>
   <g id="patch_113">
    <path d="M 66.811001 235.279219 
L 72.146841 235.279219 
L 72.146841 231.472486 
L 66.811001 231.472486 
z
" clip-path="url(#pe085d066eb)" style="fill: #1f77b4"/>
   </g>
   <g id="patch_114">
    <path d="M 72.146841 235.279219 
L 77.482681 235.279219 
L 77.482681 229.56912 
L 72.146841 229.56912 
z
" clip-path="url(#pe085d066eb)" style="fill: #1f77b4"/>
   </g>
   <g id="patch_115">
    <path d="M 77.482681 235.279219 
L 82.81852 235.279219 
L 82.81852 228.934664 
L 77.482681 228.934664 
z
" clip-path="url(#pe085d066eb)" style="fill: #1f77b4"/>
   </g>
   <g id="patch_116">
    <path d="M 82.81852 235.279219 
L 88.15436 235.279219 
L 88.15436 230.838031 
L 82.81852 230.838031 
z
" clip-path="url(#pe085d066eb)" style="fill: #1f77b4"/>
   </g>
   <g id="patch_117">
    <path d="M 88.15436 235.279219 
L 93.4902 235.279219 
L 93.4902 225.762387 
L 88.15436 225.762387 
z
" clip-path="url(#pe085d066eb)" style="fill: #1f77b4"/>
   </g>
   <g id="patch_118">
    <path d="M 93.4902 235.279219 
L 98.826039 235.279219 
L 98.826039 226.396843 
L 93.4902 226.396843 
z
" clip-path="url(#pe085d066eb)" style="fill: #1f77b4"/>
   </g>
   <g id="patch_119">
    <path d="M 98.826039 235.279219 
L 104.161879 235.279219 
L 104.161879 231.472486 
L 98.826039 231.472486 
z
" clip-path="url(#pe085d066eb)" style="fill: #1f77b4"/>
   </g>
   <g id="patch_120">
    <path d="M 104.161879 235.279219 
L 109.497719 235.279219 
L 109.497719 229.56912 
L 104.161879 229.56912 
z
" clip-path="url(#pe085d066eb)" style="fill: #1f77b4"/>
   </g>
   <g id="patch_121">
    <path d="M 109.497719 235.279219 
L 114.833558 235.279219 
L 114.833558 233.375852 
L 109.497719 233.375852 
z
" clip-path="url(#pe085d066eb)" style="fill: #1f77b4"/>
   </g>
   <g id="patch_122">
    <path d="M 114.833558 235.279219 
L 120.169398 235.279219 
L 120.169398 232.741397 
L 114.833558 232.741397 
z
" clip-path="url(#pe085d066eb)" style="fill: #1f77b4"/>
   </g>
   <g id="patch_123">
    <path d="M 120.169398 235.279219 
L 125.505238 235.279219 
L 125.505238 234.644763 
L 120.169398 234.644763 
z
" clip-path="url(#pe085d066eb)" style="fill: #1f77b4"/>
   </g>
   <g id="patch_124">
    <path d="M 125.505238 235.279219 
L 130.841078 235.279219 
L 130.841078 234.644763 
L 125.505238 234.644763 
z
" clip-path="url(#pe085d066eb)" style="fill: #1f77b4"/>
   </g>
   <g id="patch_125">
    <path d="M 130.841078 235.279219 
L 136.176917 235.279219 
L 136.176917 235.279219 
L 130.841078 235.279219 
z
" clip-path="url(#pe085d066eb)" style="fill: #1f77b4"/>
   </g>
   <g id="patch_126">
    <path d="M 136.176917 235.279219 
L 141.512757 235.279219 
L 141.512757 234.644763 
L 136.176917 234.644763 
z
" clip-path="url(#pe085d066eb)" style="fill: #1f77b4"/>
   </g>
   <g id="patch_127">
    <path d="M 141.512757 235.279219 
L 146.848597 235.279219 
L 146.848597 234.644763 
L 141.512757 234.644763 
z
" clip-path="url(#pe085d066eb)" style="fill: #1f77b4"/>
   </g>
   <g id="matplotlib.axis_3">
    <g id="xtick_1">
     <g id="line2d_4">
      <defs>
       <path id="m52508a8059" d="M 0 0 
L 0 3.5 
" style="stroke: #000000; stroke-width: 0.8"/>
      </defs>
      <g>
       <use xlink:href="#m52508a8059" x="38.482812" y="235.279219" style="stroke: #000000; stroke-width: 0.8"/>
      </g>
     </g>
     <g id="text_5">
      <!-- −0.1 -->
      <g transform="translate(26.341406 249.877656) scale(0.1 -0.1)">
       <use xlink:href="#DejaVuSans-2212"/>
       <use xlink:href="#DejaVuSans-30" x="83.789062"/>
       <use xlink:href="#DejaVuSans-2e" x="147.412109"/>
       <use xlink:href="#DejaVuSans-31" x="179.199219"/>
      </g>
     </g>
    </g>
    <g id="xtick_2">
     <g id="line2d_5">
      <g>
       <use xlink:href="#m52508a8059" x="83.615165" y="235.279219" style="stroke: #000000; stroke-width: 0.8"/>
      </g>
     </g>
     <g id="text_6">
      <!-- 0.0 -->
      <g transform="translate(75.663603 249.877656) scale(0.1 -0.1)">
       <use xlink:href="#DejaVuSans-30"/>
       <use xlink:href="#DejaVuSans-2e" x="63.623047"/>
       <use xlink:href="#DejaVuSans-30" x="95.410156"/>
      </g>
     </g>
    </g>
    <g id="xtick_3">
     <g id="line2d_6">
      <g>
       <use xlink:href="#m52508a8059" x="128.747518" y="235.279219" style="stroke: #000000; stroke-width: 0.8"/>
      </g>
     </g>
     <g id="text_7">
      <!-- 0.1 -->
      <g transform="translate(120.795956 249.877656) scale(0.1 -0.1)">
       <use xlink:href="#DejaVuSans-30"/>
       <use xlink:href="#DejaVuSans-2e" x="63.623047"/>
       <use xlink:href="#DejaVuSans-31" x="95.410156"/>
      </g>
     </g>
    </g>
   </g>
   <g id="matplotlib.axis_4">
    <g id="ytick_4">
     <g id="line2d_7">
      <g>
       <use xlink:href="#m2d2ad68429" x="38.482813" y="235.279219" style="stroke: #000000; stroke-width: 0.8"/>
      </g>
     </g>
     <g id="text_8">
      <!-- 0 -->
      <g transform="translate(25.120313 239.078438) scale(0.1 -0.1)">
       <use xlink:href="#DejaVuSans-30"/>
      </g>
     </g>
    </g>
    <g id="ytick_5">
     <g id="line2d_8">
      <g>
       <use xlink:href="#m2d2ad68429" x="38.482813" y="203.556446" style="stroke: #000000; stroke-width: 0.8"/>
      </g>
     </g>
     <g id="text_9">
      <!-- 50 -->
      <g transform="translate(18.757812 207.355665) scale(0.1 -0.1)">
       <defs>
        <path id="DejaVuSans-35" d="M 691 4666 
L 3169 4666 
L 3169 4134 
L 1269 4134 
L 1269 2991 
Q 1406 3038 1543 3061 
Q 1681 3084 1819 3084 
Q 2600 3084 3056 2656 
Q 3513 2228 3513 1497 
Q 3513 744 3044 326 
Q 2575 -91 1722 -91 
Q 1428 -91 1123 -41 
Q 819 9 494 109 
L 494 744 
Q 775 591 1075 516 
Q 1375 441 1709 441 
Q 2250 441 2565 725 
Q 2881 1009 2881 1497 
Q 2881 1984 2565 2268 
Q 2250 2553 1709 2553 
Q 1456 2553 1204 2497 
Q 953 2441 691 2322 
L 691 4666 
z
" transform="scale(0.015625)"/>
       </defs>
       <use xlink:href="#DejaVuSans-35"/>
       <use xlink:href="#DejaVuSans-30" x="63.623047"/>
      </g>
     </g>
    </g>
   </g>
   <g id="patch_128">
    <path d="M 38.482813 235.279219 
L 38.482813 190.867338 
" style="fill: none; stroke: #000000; stroke-width: 0.8; stroke-linejoin: miter; stroke-linecap: square"/>
   </g>
   <g id="patch_129">
    <path d="M 128.747518 235.279219 
L 128.747518 190.867338 
" style="fill: none; stroke: #000000; stroke-width: 0.8; stroke-linejoin: miter; stroke-linecap: square"/>
   </g>
   <g id="patch_130">
    <path d="M 38.482812 235.279219 
L 128.747518 235.279219 
" style="fill: none; stroke: #000000; stroke-width: 0.8; stroke-linejoin: miter; stroke-linecap: square"/>
   </g>
   <g id="patch_131">
    <path d="M 38.482812 190.867338 
L 128.747518 190.867338 
" style="fill: none; stroke: #000000; stroke-width: 0.8; stroke-linejoin: miter; stroke-linecap: square"/>
   </g>
   <g id="text_10">
    <!-- $\lambda_1=0$ -->
    <g transform="translate(47.509283 203.556446) scale(0.1 -0.1)">
     <use xlink:href="#DejaVuSans-Oblique-3bb" transform="translate(0 0.015625)"/>
     <use xlink:href="#DejaVuSans-31" transform="translate(59.179688 -16.390625) scale(0.7)"/>
     <use xlink:href="#DejaVuSans-3d" transform="translate(125.932617 0.015625)"/>
     <use xlink:href="#DejaVuSans-30" transform="translate(229.204102 0.015625)"/>
    </g>
   </g>
  </g>
  <g id="axes_3">
   <g id="patch_132">
    <path d="M 38.482813 115.36714 
L 345.382813 115.36714 
L 345.382813 70.955258 
L 38.482813 70.955258 
z
" style="fill: #ffffff"/>
   </g>
   <g id="patch_133">
    <path d="M 37.255212 93.161199 
L 39.710412 93.161199 
L 39.710412 98.728659 
L 37.255212 98.728659 
z
" clip-path="url(#p0efe9884cb)" style="fill: #1f77b4"/>
   </g>
   <g id="patch_134">
    <path d="M 40.324213 93.161199 
L 42.779412 93.161199 
L 42.779412 93.161199 
L 40.324213 93.161199 
z
" clip-path="url(#p0efe9884cb)" style="fill: #1f77b4"/>
   </g>
   <g id="patch_135">
    <path d="M 43.393213 93.161199 
L 45.848413 93.161199 
L 45.848413 93.804322 
L 43.393213 93.804322 
z
" clip-path="url(#p0efe9884cb)" style="fill: #1f77b4"/>
   </g>
   <g id="patch_136">
    <path d="M 46.462212 93.161199 
L 48.917412 93.161199 
L 48.917412 90.781891 
L 46.462212 90.781891 
z
" clip-path="url(#p0efe9884cb)" style="fill: #1f77b4"/>
   </g>
   <g id="patch_137">
    <path d="M 49.531213 93.161199 
L 51.986413 93.161199 
L 51.986413 93.969531 
L 49.531213 93.969531 
z
" clip-path="url(#p0efe9884cb)" style="fill: #1f77b4"/>
   </g>
   <g id="patch_138">
    <path d="M 52.600212 93.161199 
L 55.055412 93.161199 
L 55.055412 93.579635 
L 52.600212 93.579635 
z
" clip-path="url(#p0efe9884cb)" style="fill: #1f77b4"/>
   </g>
   <g id="patch_139">
    <path d="M 55.669213 93.161199 
L 58.124412 93.161199 
L 58.124412 86.863752 
L 55.669213 86.863752 
z
" clip-path="url(#p0efe9884cb)" style="fill: #1f77b4"/>
   </g>
   <g id="patch_140">
    <path d="M 58.738213 93.161199 
L 61.193413 93.161199 
L 61.193413 100.019988 
L 58.738213 100.019988 
z
" clip-path="url(#p0efe9884cb)" style="fill: #1f77b4"/>
   </g>
   <g id="patch_141">
    <path d="M 61.807213 93.161199 
L 64.262413 93.161199 
L 64.262413 93.161199 
L 61.807213 93.161199 
z
" clip-path="url(#p0efe9884cb)" style="fill: #1f77b4"/>
   </g>
   <g id="patch_142">
    <path d="M 64.876213 93.161199 
L 67.331413 93.161199 
L 67.331413 93.1612 
L 64.876213 93.1612 
z
" clip-path="url(#p0efe9884cb)" style="fill: #1f77b4"/>
   </g>
   <g id="patch_143">
    <path d="M 67.945212 93.161199 
L 70.400413 93.161199 
L 70.400413 93.015638 
L 67.945212 93.015638 
z
" clip-path="url(#p0efe9884cb)" style="fill: #1f77b4"/>
   </g>
   <g id="patch_144">
    <path d="M 71.014213 93.161199 
L 73.469413 93.161199 
L 73.469413 111.958675 
L 71.014213 111.958675 
z
" clip-path="url(#p0efe9884cb)" style="fill: #1f77b4"/>
   </g>
   <g id="patch_145">
    <path d="M 74.083213 93.161199 
L 76.538413 93.161199 
L 76.538413 89.511406 
L 74.083213 89.511406 
z
" clip-path="url(#p0efe9884cb)" style="fill: #1f77b4"/>
   </g>
   <g id="patch_146">
    <path d="M 77.152213 93.161199 
L 79.607413 93.161199 
L 79.607413 104.63525 
L 77.152213 104.63525 
z
" clip-path="url(#p0efe9884cb)" style="fill: #1f77b4"/>
   </g>
   <g id="patch_147">
    <path d="M 80.221213 93.161199 
L 82.676413 93.161199 
L 82.676413 91.249064 
L 80.221213 91.249064 
z
" clip-path="url(#p0efe9884cb)" style="fill: #1f77b4"/>
   </g>
   <g id="patch_148">
    <path d="M 83.290212 93.161199 
L 85.745413 93.161199 
L 85.745413 92.365847 
L 83.290212 92.365847 
z
" clip-path="url(#p0efe9884cb)" style="fill: #1f77b4"/>
   </g>
   <g id="patch_149">
    <path d="M 86.359213 93.161199 
L 88.814413 93.161199 
L 88.814413 80.813735 
L 86.359213 80.813735 
z
" clip-path="url(#p0efe9884cb)" style="fill: #1f77b4"/>
   </g>
   <g id="patch_150">
    <path d="M 89.428213 93.161199 
L 91.883413 93.161199 
L 91.883413 82.90925 
L 89.428213 82.90925 
z
" clip-path="url(#p0efe9884cb)" style="fill: #1f77b4"/>
   </g>
   <g id="patch_151">
    <path d="M 92.497213 93.161199 
L 94.952413 93.161199 
L 94.952413 92.359866 
L 92.497213 92.359866 
z
" clip-path="url(#p0efe9884cb)" style="fill: #1f77b4"/>
   </g>
   <g id="patch_152">
    <path d="M 95.566213 93.161199 
L 98.021413 93.161199 
L 98.021413 89.363845 
L 95.566213 89.363845 
z
" clip-path="url(#p0efe9884cb)" style="fill: #1f77b4"/>
   </g>
   <g id="patch_153">
    <path d="M 98.635213 93.161199 
L 101.090413 93.161199 
L 101.090413 101.282788 
L 98.635213 101.282788 
z
" clip-path="url(#p0efe9884cb)" style="fill: #1f77b4"/>
   </g>
   <g id="patch_154">
    <path d="M 101.704213 93.161199 
L 104.159413 93.161199 
L 104.159413 90.548131 
L 101.704213 90.548131 
z
" clip-path="url(#p0efe9884cb)" style="fill: #1f77b4"/>
   </g>
   <g id="patch_155">
    <path d="M 104.773213 93.161199 
L 107.228413 93.161199 
L 107.228413 95.329079 
L 104.773213 95.329079 
z
" clip-path="url(#p0efe9884cb)" style="fill: #1f77b4"/>
   </g>
   <g id="patch_156">
    <path d="M 107.842213 93.161199 
L 110.297413 93.161199 
L 110.297413 89.980852 
L 107.842213 89.980852 
z
" clip-path="url(#p0efe9884cb)" style="fill: #1f77b4"/>
   </g>
   <g id="patch_157">
    <path d="M 110.911213 93.161199 
L 113.366413 93.161199 
L 113.366413 63.81714 
L 110.911213 63.81714 
z
" clip-path="url(#p0efe9884cb)" style="fill: #1f77b4"/>
   </g>
   <g id="patch_158">
    <path d="M 113.980213 93.161199 
L 116.435413 93.161199 
L 116.435413 84.20621 
L 113.980213 84.20621 
z
" clip-path="url(#p0efe9884cb)" style="fill: #1f77b4"/>
   </g>
   <g id="patch_159">
    <path d="M 117.049213 93.161199 
L 119.504413 93.161199 
L 119.504413 93.161199 
L 117.049213 93.161199 
z
" clip-path="url(#p0efe9884cb)" style="fill: #1f77b4"/>
   </g>
   <g id="patch_160">
    <path d="M 120.118213 93.161199 
L 122.573413 93.161199 
L 122.573413 91.651803 
L 120.118213 91.651803 
z
" clip-path="url(#p0efe9884cb)" style="fill: #1f77b4"/>
   </g>
   <g id="patch_161">
    <path d="M 123.187213 93.161199 
L 125.642413 93.161199 
L 125.642413 100.636025 
L 123.187213 100.636025 
z
" clip-path="url(#p0efe9884cb)" style="fill: #1f77b4"/>
   </g>
   <g id="patch_162">
    <path d="M 126.256213 93.161199 
L 128.711412 93.161199 
L 128.711412 81.889444 
L 126.256213 81.889444 
z
" clip-path="url(#p0efe9884cb)" style="fill: #1f77b4"/>
   </g>
   <g id="patch_163">
    <path d="M 129.325213 93.161199 
L 131.780413 93.161199 
L 131.780413 84.495062 
L 129.325213 84.495062 
z
" clip-path="url(#p0efe9884cb)" style="fill: #1f77b4"/>
   </g>
   <g id="patch_164">
    <path d="M 132.394213 93.161199 
L 134.849412 93.161199 
L 134.849412 93.161199 
L 132.394213 93.161199 
z
" clip-path="url(#p0efe9884cb)" style="fill: #1f77b4"/>
   </g>
   <g id="patch_165">
    <path d="M 135.463213 93.161199 
L 137.918413 93.161199 
L 137.918413 90.131367 
L 135.463213 90.131367 
z
" clip-path="url(#p0efe9884cb)" style="fill: #1f77b4"/>
   </g>
   <g id="patch_166">
    <path d="M 138.532213 93.161199 
L 140.987413 93.161199 
L 140.987413 103.978049 
L 138.532213 103.978049 
z
" clip-path="url(#p0efe9884cb)" style="fill: #1f77b4"/>
   </g>
   <g id="patch_167">
    <path d="M 141.601213 93.161199 
L 144.056413 93.161199 
L 144.056413 90.449083 
L 141.601213 90.449083 
z
" clip-path="url(#p0efe9884cb)" style="fill: #1f77b4"/>
   </g>
   <g id="patch_168">
    <path d="M 144.670213 93.161199 
L 147.125413 93.161199 
L 147.125413 79.23686 
L 144.670213 79.23686 
z
" clip-path="url(#p0efe9884cb)" style="fill: #1f77b4"/>
   </g>
   <g id="patch_169">
    <path d="M 147.739213 93.161199 
L 150.194412 93.161199 
L 150.194412 93.161202 
L 147.739213 93.161202 
z
" clip-path="url(#p0efe9884cb)" style="fill: #1f77b4"/>
   </g>
   <g id="patch_170">
    <path d="M 150.808213 93.161199 
L 153.263413 93.161199 
L 153.263413 93.161199 
L 150.808213 93.161199 
z
" clip-path="url(#p0efe9884cb)" style="fill: #1f77b4"/>
   </g>
   <g id="patch_171">
    <path d="M 153.877213 93.161199 
L 156.332413 93.161199 
L 156.332413 94.878141 
L 153.877213 94.878141 
z
" clip-path="url(#p0efe9884cb)" style="fill: #1f77b4"/>
   </g>
   <g id="patch_172">
    <path d="M 156.946213 93.161199 
L 159.401413 93.161199 
L 159.401413 93.1612 
L 156.946213 93.1612 
z
" clip-path="url(#p0efe9884cb)" style="fill: #1f77b4"/>
   </g>
   <g id="patch_173">
    <path d="M 160.015213 93.161199 
L 162.470413 93.161199 
L 162.470413 93.1612 
L 160.015213 93.1612 
z
" clip-path="url(#p0efe9884cb)" style="fill: #1f77b4"/>
   </g>
   <g id="patch_174">
    <path d="M 163.084213 93.161199 
L 165.539413 93.161199 
L 165.539413 88.020667 
L 163.084213 88.020667 
z
" clip-path="url(#p0efe9884cb)" style="fill: #1f77b4"/>
   </g>
   <g id="patch_175">
    <path d="M 166.153213 93.161199 
L 168.608413 93.161199 
L 168.608413 93.314813 
L 166.153213 93.314813 
z
" clip-path="url(#p0efe9884cb)" style="fill: #1f77b4"/>
   </g>
   <g id="patch_176">
    <path d="M 169.222213 93.161199 
L 171.677413 93.161199 
L 171.677413 107.79651 
L 169.222213 107.79651 
z
" clip-path="url(#p0efe9884cb)" style="fill: #1f77b4"/>
   </g>
   <g id="patch_177">
    <path d="M 172.291213 93.161199 
L 174.746413 93.161199 
L 174.746413 80.288297 
L 172.291213 80.288297 
z
" clip-path="url(#p0efe9884cb)" style="fill: #1f77b4"/>
   </g>
   <g id="patch_178">
    <path d="M 175.360213 93.161199 
L 177.815413 93.161199 
L 177.815413 86.444958 
L 175.360213 86.444958 
z
" clip-path="url(#p0efe9884cb)" style="fill: #1f77b4"/>
   </g>
   <g id="patch_179">
    <path d="M 178.429213 93.161199 
L 180.884412 93.161199 
L 180.884412 93.1612 
L 178.429213 93.1612 
z
" clip-path="url(#p0efe9884cb)" style="fill: #1f77b4"/>
   </g>
   <g id="patch_180">
    <path d="M 181.498213 93.161199 
L 183.953413 93.161199 
L 183.953413 84.132928 
L 181.498213 84.132928 
z
" clip-path="url(#p0efe9884cb)" style="fill: #1f77b4"/>
   </g>
   <g id="patch_181">
    <path d="M 184.567213 93.161199 
L 187.022413 93.161199 
L 187.022413 92.91542 
L 184.567213 92.91542 
z
" clip-path="url(#p0efe9884cb)" style="fill: #1f77b4"/>
   </g>
   <g id="patch_182">
    <path d="M 187.636213 93.161199 
L 190.091413 93.161199 
L 190.091413 93.1612 
L 187.636213 93.1612 
z
" clip-path="url(#p0efe9884cb)" style="fill: #1f77b4"/>
   </g>
   <g id="patch_183">
    <path d="M 190.705213 93.161199 
L 193.160413 93.161199 
L 193.160413 98.790059 
L 190.705213 98.790059 
z
" clip-path="url(#p0efe9884cb)" style="fill: #1f77b4"/>
   </g>
   <g id="patch_184">
    <path d="M 193.774213 93.161199 
L 196.229413 93.161199 
L 196.229413 93.161201 
L 193.774213 93.161201 
z
" clip-path="url(#p0efe9884cb)" style="fill: #1f77b4"/>
   </g>
   <g id="patch_185">
    <path d="M 196.843213 93.161199 
L 199.298413 93.161199 
L 199.298413 86.018147 
L 196.843213 86.018147 
z
" clip-path="url(#p0efe9884cb)" style="fill: #1f77b4"/>
   </g>
   <g id="patch_186">
    <path d="M 199.912213 93.161199 
L 202.367413 93.161199 
L 202.367413 83.467832 
L 199.912213 83.467832 
z
" clip-path="url(#p0efe9884cb)" style="fill: #1f77b4"/>
   </g>
   <g id="patch_187">
    <path d="M 202.981213 93.161199 
L 205.436413 93.161199 
L 205.436413 89.681987 
L 202.981213 89.681987 
z
" clip-path="url(#p0efe9884cb)" style="fill: #1f77b4"/>
   </g>
   <g id="patch_188">
    <path d="M 206.050213 93.161199 
L 208.505413 93.161199 
L 208.505413 97.140307 
L 206.050213 97.140307 
z
" clip-path="url(#p0efe9884cb)" style="fill: #1f77b4"/>
   </g>
   <g id="patch_189">
    <path d="M 209.119213 93.161199 
L 211.574413 93.161199 
L 211.574413 89.398083 
L 209.119213 89.398083 
z
" clip-path="url(#p0efe9884cb)" style="fill: #1f77b4"/>
   </g>
   <g id="patch_190">
    <path d="M 212.188213 93.161199 
L 214.643413 93.161199 
L 214.643413 90.95788 
L 212.188213 90.95788 
z
" clip-path="url(#p0efe9884cb)" style="fill: #1f77b4"/>
   </g>
   <g id="patch_191">
    <path d="M 215.257213 93.161199 
L 217.712412 93.161199 
L 217.712412 80.883931 
L 215.257213 80.883931 
z
" clip-path="url(#p0efe9884cb)" style="fill: #1f77b4"/>
   </g>
   <g id="patch_192">
    <path d="M 218.326213 93.161199 
L 220.781413 93.161199 
L 220.781413 93.161201 
L 218.326213 93.161201 
z
" clip-path="url(#p0efe9884cb)" style="fill: #1f77b4"/>
   </g>
   <g id="patch_193">
    <path d="M 221.395213 93.161199 
L 223.850413 93.161199 
L 223.850413 88.990168 
L 221.395213 88.990168 
z
" clip-path="url(#p0efe9884cb)" style="fill: #1f77b4"/>
   </g>
   <g id="patch_194">
    <path d="M 224.464213 93.161199 
L 226.919413 93.161199 
L 226.919413 92.489377 
L 224.464213 92.489377 
z
" clip-path="url(#p0efe9884cb)" style="fill: #1f77b4"/>
   </g>
   <g id="patch_195">
    <path d="M 227.533213 93.161199 
L 229.988413 93.161199 
L 229.988413 91.646495 
L 227.533213 91.646495 
z
" clip-path="url(#p0efe9884cb)" style="fill: #1f77b4"/>
   </g>
   <g id="patch_196">
    <path d="M 230.602213 93.161199 
L 233.057413 93.161199 
L 233.057413 92.803822 
L 230.602213 92.803822 
z
" clip-path="url(#p0efe9884cb)" style="fill: #1f77b4"/>
   </g>
   <g id="patch_197">
    <path d="M 233.671213 93.161199 
L 236.126413 93.161199 
L 236.126413 103.013173 
L 233.671213 103.013173 
z
" clip-path="url(#p0efe9884cb)" style="fill: #1f77b4"/>
   </g>
   <g id="patch_198">
    <path d="M 236.740213 93.161199 
L 239.195413 93.161199 
L 239.195413 69.940991 
L 236.740213 69.940991 
z
" clip-path="url(#p0efe9884cb)" style="fill: #1f77b4"/>
   </g>
   <g id="patch_199">
    <path d="M 239.809213 93.161199 
L 242.264412 93.161199 
L 242.264412 89.28784 
L 239.809213 89.28784 
z
" clip-path="url(#p0efe9884cb)" style="fill: #1f77b4"/>
   </g>
   <g id="patch_200">
    <path d="M 242.878212 93.161199 
L 245.333412 93.161199 
L 245.333412 85.353206 
L 242.878212 85.353206 
z
" clip-path="url(#p0efe9884cb)" style="fill: #1f77b4"/>
   </g>
   <g id="patch_201">
    <path d="M 245.947213 93.161199 
L 248.402412 93.161199 
L 248.402412 85.207694 
L 245.947213 85.207694 
z
" clip-path="url(#p0efe9884cb)" style="fill: #1f77b4"/>
   </g>
   <g id="patch_202">
    <path d="M 249.016212 93.161199 
L 251.471412 93.161199 
L 251.471412 87.879882 
L 249.016212 87.879882 
z
" clip-path="url(#p0efe9884cb)" style="fill: #1f77b4"/>
   </g>
   <g id="patch_203">
    <path d="M 252.085213 93.161199 
L 254.540413 93.161199 
L 254.540413 73.791056 
L 252.085213 73.791056 
z
" clip-path="url(#p0efe9884cb)" style="fill: #1f77b4"/>
   </g>
   <g id="patch_204">
    <path d="M 255.154212 93.161199 
L 257.609413 93.161199 
L 257.609413 91.810678 
L 255.154212 91.810678 
z
" clip-path="url(#p0efe9884cb)" style="fill: #1f77b4"/>
   </g>
   <g id="patch_205">
    <path d="M 258.223213 93.161199 
L 260.678413 93.161199 
L 260.678413 86.637821 
L 258.223213 86.637821 
z
" clip-path="url(#p0efe9884cb)" style="fill: #1f77b4"/>
   </g>
   <g id="patch_206">
    <path d="M 261.292213 93.161199 
L 263.747412 93.161199 
L 263.747412 81.435642 
L 261.292213 81.435642 
z
" clip-path="url(#p0efe9884cb)" style="fill: #1f77b4"/>
   </g>
   <g id="patch_207">
    <path d="M 264.361213 93.161199 
L 266.816413 93.161199 
L 266.816413 102.879763 
L 264.361213 102.879763 
z
" clip-path="url(#p0efe9884cb)" style="fill: #1f77b4"/>
   </g>
   <g id="patch_208">
    <path d="M 267.430213 93.161199 
L 269.885413 93.161199 
L 269.885413 95.55229 
L 267.430213 95.55229 
z
" clip-path="url(#p0efe9884cb)" style="fill: #1f77b4"/>
   </g>
   <g id="patch_209">
    <path d="M 270.499212 93.161199 
L 272.954412 93.161199 
L 272.954412 93.161203 
L 270.499212 93.161203 
z
" clip-path="url(#p0efe9884cb)" style="fill: #1f77b4"/>
   </g>
   <g id="patch_210">
    <path d="M 273.568213 93.161199 
L 276.023413 93.161199 
L 276.023413 93.161202 
L 273.568213 93.161202 
z
" clip-path="url(#p0efe9884cb)" style="fill: #1f77b4"/>
   </g>
   <g id="patch_211">
    <path d="M 276.637213 93.161199 
L 279.092413 93.161199 
L 279.092413 85.939976 
L 276.637213 85.939976 
z
" clip-path="url(#p0efe9884cb)" style="fill: #1f77b4"/>
   </g>
   <g id="patch_212">
    <path d="M 279.706213 93.161199 
L 282.161413 93.161199 
L 282.161413 89.791266 
L 279.706213 89.791266 
z
" clip-path="url(#p0efe9884cb)" style="fill: #1f77b4"/>
   </g>
   <g id="patch_213">
    <path d="M 282.775213 93.161199 
L 285.230412 93.161199 
L 285.230412 78.07532 
L 282.775213 78.07532 
z
" clip-path="url(#p0efe9884cb)" style="fill: #1f77b4"/>
   </g>
   <g id="patch_214">
    <path d="M 285.844213 93.161199 
L 288.299413 93.161199 
L 288.299413 93.161201 
L 285.844213 93.161201 
z
" clip-path="url(#p0efe9884cb)" style="fill: #1f77b4"/>
   </g>
   <g id="patch_215">
    <path d="M 288.913213 93.161199 
L 291.368413 93.161199 
L 291.368413 93.161284 
L 288.913213 93.161284 
z
" clip-path="url(#p0efe9884cb)" style="fill: #1f77b4"/>
   </g>
   <g id="patch_216">
    <path d="M 291.982213 93.161199 
L 294.437412 93.161199 
L 294.437412 85.666898 
L 291.982213 85.666898 
z
" clip-path="url(#p0efe9884cb)" style="fill: #1f77b4"/>
   </g>
   <g id="patch_217">
    <path d="M 295.051213 93.161199 
L 297.506413 93.161199 
L 297.506413 91.803409 
L 295.051213 91.803409 
z
" clip-path="url(#p0efe9884cb)" style="fill: #1f77b4"/>
   </g>
   <g id="patch_218">
    <path d="M 298.120213 93.161199 
L 300.575413 93.161199 
L 300.575413 93.161201 
L 298.120213 93.161201 
z
" clip-path="url(#p0efe9884cb)" style="fill: #1f77b4"/>
   </g>
   <g id="patch_219">
    <path d="M 301.189213 93.161199 
L 303.644413 93.161199 
L 303.644413 96.193463 
L 301.189213 96.193463 
z
" clip-path="url(#p0efe9884cb)" style="fill: #1f77b4"/>
   </g>
   <g id="patch_220">
    <path d="M 304.258213 93.161199 
L 306.713413 93.161199 
L 306.713413 93.1612 
L 304.258213 93.1612 
z
" clip-path="url(#p0efe9884cb)" style="fill: #1f77b4"/>
   </g>
   <g id="patch_221">
    <path d="M 307.327213 93.161199 
L 309.782413 93.161199 
L 309.782413 89.296863 
L 307.327213 89.296863 
z
" clip-path="url(#p0efe9884cb)" style="fill: #1f77b4"/>
   </g>
   <g id="patch_222">
    <path d="M 310.396213 93.161199 
L 312.851413 93.161199 
L 312.851413 93.161201 
L 310.396213 93.161201 
z
" clip-path="url(#p0efe9884cb)" style="fill: #1f77b4"/>
   </g>
   <g id="patch_223">
    <path d="M 313.465213 93.161199 
L 315.920413 93.161199 
L 315.920413 91.696826 
L 313.465213 91.696826 
z
" clip-path="url(#p0efe9884cb)" style="fill: #1f77b4"/>
   </g>
   <g id="patch_224">
    <path d="M 316.534213 93.161199 
L 318.989413 93.161199 
L 318.989413 92.995922 
L 316.534213 92.995922 
z
" clip-path="url(#p0efe9884cb)" style="fill: #1f77b4"/>
   </g>
   <g id="patch_225">
    <path d="M 319.603213 93.161199 
L 322.058413 93.161199 
L 322.058413 93.161199 
L 319.603213 93.161199 
z
" clip-path="url(#p0efe9884cb)" style="fill: #1f77b4"/>
   </g>
   <g id="patch_226">
    <path d="M 322.672213 93.161199 
L 325.127413 93.161199 
L 325.127413 80.076014 
L 322.672213 80.076014 
z
" clip-path="url(#p0efe9884cb)" style="fill: #1f77b4"/>
   </g>
   <g id="patch_227">
    <path d="M 325.741213 93.161199 
L 328.196413 93.161199 
L 328.196413 93.161202 
L 325.741213 93.161202 
z
" clip-path="url(#p0efe9884cb)" style="fill: #1f77b4"/>
   </g>
   <g id="patch_228">
    <path d="M 328.810213 93.161199 
L 331.265413 93.161199 
L 331.265413 96.314185 
L 328.810213 96.314185 
z
" clip-path="url(#p0efe9884cb)" style="fill: #1f77b4"/>
   </g>
   <g id="patch_229">
    <path d="M 331.879213 93.161199 
L 334.334413 93.161199 
L 334.334413 92.955248 
L 331.879213 92.955248 
z
" clip-path="url(#p0efe9884cb)" style="fill: #1f77b4"/>
   </g>
   <g id="patch_230">
    <path d="M 334.948213 93.161199 
L 337.403413 93.161199 
L 337.403413 93.081361 
L 334.948213 93.081361 
z
" clip-path="url(#p0efe9884cb)" style="fill: #1f77b4"/>
   </g>
   <g id="patch_231">
    <path d="M 338.017213 93.161199 
L 340.472413 93.161199 
L 340.472413 92.724575 
L 338.017213 92.724575 
z
" clip-path="url(#p0efe9884cb)" style="fill: #1f77b4"/>
   </g>
   <g id="patch_232">
    <path d="M 341.086213 93.161199 
L 343.541413 93.161199 
L 343.541413 97.895011 
L 341.086213 97.895011 
z
" clip-path="url(#p0efe9884cb)" style="fill: #1f77b4"/>
   </g>
   <g id="matplotlib.axis_5"/>
   <g id="matplotlib.axis_6">
    <g id="ytick_6">
     <g id="line2d_9">
      <g>
       <use xlink:href="#m2d2ad68429" x="38.482813" y="115.36714" style="stroke: #000000; stroke-width: 0.8"/>
      </g>
     </g>
     <g id="text_11">
      <!-- −0.1 -->
      <g transform="translate(7.2 119.166358) scale(0.1 -0.1)">
       <use xlink:href="#DejaVuSans-2212"/>
       <use xlink:href="#DejaVuSans-30" x="83.789062"/>
       <use xlink:href="#DejaVuSans-2e" x="147.412109"/>
       <use xlink:href="#DejaVuSans-31" x="179.199219"/>
      </g>
     </g>
    </g>
    <g id="ytick_7">
     <g id="line2d_10">
      <g>
       <use xlink:href="#m2d2ad68429" x="38.482813" y="93.161199" style="stroke: #000000; stroke-width: 0.8"/>
      </g>
     </g>
     <g id="text_12">
      <!-- 0.0 -->
      <g transform="translate(15.579688 96.960418) scale(0.1 -0.1)">
       <use xlink:href="#DejaVuSans-30"/>
       <use xlink:href="#DejaVuSans-2e" x="63.623047"/>
       <use xlink:href="#DejaVuSans-30" x="95.410156"/>
      </g>
     </g>
    </g>
    <g id="ytick_8">
     <g id="line2d_11">
      <g>
       <use xlink:href="#m2d2ad68429" x="38.482813" y="70.955258" style="stroke: #000000; stroke-width: 0.8"/>
      </g>
     </g>
     <g id="text_13">
      <!-- 0.1 -->
      <g transform="translate(15.579688 74.754477) scale(0.1 -0.1)">
       <use xlink:href="#DejaVuSans-30"/>
       <use xlink:href="#DejaVuSans-2e" x="63.623047"/>
       <use xlink:href="#DejaVuSans-31" x="95.410156"/>
      </g>
     </g>
    </g>
   </g>
   <g id="patch_233">
    <path d="M 38.482813 115.36714 
L 38.482813 70.955258 
" style="fill: none; stroke: #000000; stroke-width: 0.8; stroke-linejoin: miter; stroke-linecap: square"/>
   </g>
   <g id="patch_234">
    <path d="M 345.382813 115.36714 
L 345.382813 70.955258 
" style="fill: none; stroke: #000000; stroke-width: 0.8; stroke-linejoin: miter; stroke-linecap: square"/>
   </g>
   <g id="patch_235">
    <path d="M 38.482813 115.36714 
L 345.382813 115.36714 
" style="fill: none; stroke: #000000; stroke-width: 0.8; stroke-linejoin: miter; stroke-linecap: square"/>
   </g>
   <g id="patch_236">
    <path d="M 38.482813 70.955258 
L 345.382813 70.955258 
" style="fill: none; stroke: #000000; stroke-width: 0.8; stroke-linejoin: miter; stroke-linecap: square"/>
   </g>
   <g id="text_14">
    <!-- $\lambda_1=0.1$ -->
    <g transform="translate(53.827813 82.058229) scale(0.1 -0.1)">
     <use xlink:href="#DejaVuSans-Oblique-3bb" transform="translate(0 0.015625)"/>
     <use xlink:href="#DejaVuSans-31" transform="translate(59.179688 -16.390625) scale(0.7)"/>
     <use xlink:href="#DejaVuSans-3d" transform="translate(125.932617 0.015625)"/>
     <use xlink:href="#DejaVuSans-30" transform="translate(229.204102 0.015625)"/>
     <use xlink:href="#DejaVuSans-2e" transform="translate(292.827148 0.015625)"/>
     <use xlink:href="#DejaVuSans-31" transform="translate(324.614258 0.015625)"/>
    </g>
   </g>
  </g>
  <g id="axes_4">
   <g id="patch_237">
    <path d="M 146.80046 235.279219 
L 237.065165 235.279219 
L 237.065165 190.867338 
L 146.80046 190.867338 
z
" style="fill: #ffffff"/>
   </g>
   <g id="patch_238">
    <path d="M 153.727976 235.279219 
L 158.620227 235.279219 
L 158.620227 234.644763 
L 153.727976 234.644763 
z
" clip-path="url(#p393b3e4a53)" style="fill: #1f77b4"/>
   </g>
   <g id="patch_239">
    <path d="M 158.620227 235.279219 
L 163.512478 235.279219 
L 163.512478 234.644763 
L 158.620227 234.644763 
z
" clip-path="url(#p393b3e4a53)" style="fill: #1f77b4"/>
   </g>
   <g id="patch_240">
    <path d="M 163.512478 235.279219 
L 168.404729 235.279219 
L 168.404729 235.279219 
L 163.512478 235.279219 
z
" clip-path="url(#p393b3e4a53)" style="fill: #1f77b4"/>
   </g>
   <g id="patch_241">
    <path d="M 168.404729 235.279219 
L 173.29698 235.279219 
L 173.29698 232.741397 
L 168.404729 232.741397 
z
" clip-path="url(#p393b3e4a53)" style="fill: #1f77b4"/>
   </g>
   <g id="patch_242">
    <path d="M 173.29698 235.279219 
L 178.189231 235.279219 
L 178.189231 233.375852 
L 173.29698 233.375852 
z
" clip-path="url(#p393b3e4a53)" style="fill: #1f77b4"/>
   </g>
   <g id="patch_243">
    <path d="M 178.189231 235.279219 
L 183.081482 235.279219 
L 183.081482 233.375852 
L 178.189231 233.375852 
z
" clip-path="url(#p393b3e4a53)" style="fill: #1f77b4"/>
   </g>
   <g id="patch_244">
    <path d="M 183.081482 235.279219 
L 187.973734 235.279219 
L 187.973734 232.106942 
L 183.081482 232.106942 
z
" clip-path="url(#p393b3e4a53)" style="fill: #1f77b4"/>
   </g>
   <g id="patch_245">
    <path d="M 187.973734 235.279219 
L 192.865985 235.279219 
L 192.865985 213.707734 
L 187.973734 213.707734 
z
" clip-path="url(#p393b3e4a53)" style="fill: #1f77b4"/>
   </g>
   <g id="patch_246">
    <path d="M 192.865985 235.279219 
L 197.758236 235.279219 
L 197.758236 227.031298 
L 192.865985 227.031298 
z
" clip-path="url(#p393b3e4a53)" style="fill: #1f77b4"/>
   </g>
   <g id="patch_247">
    <path d="M 197.758236 235.279219 
L 202.650487 235.279219 
L 202.650487 228.300209 
L 197.758236 228.300209 
z
" clip-path="url(#p393b3e4a53)" style="fill: #1f77b4"/>
   </g>
   <g id="patch_248">
    <path d="M 202.650487 235.279219 
L 207.542738 235.279219 
L 207.542738 230.838031 
L 202.650487 230.838031 
z
" clip-path="url(#p393b3e4a53)" style="fill: #1f77b4"/>
   </g>
   <g id="patch_249">
    <path d="M 207.542738 235.279219 
L 212.434989 235.279219 
L 212.434989 231.472486 
L 207.542738 231.472486 
z
" clip-path="url(#p393b3e4a53)" style="fill: #1f77b4"/>
   </g>
   <g id="patch_250">
    <path d="M 212.434989 235.279219 
L 217.32724 235.279219 
L 217.32724 232.106942 
L 212.434989 232.106942 
z
" clip-path="url(#p393b3e4a53)" style="fill: #1f77b4"/>
   </g>
   <g id="patch_251">
    <path d="M 217.32724 235.279219 
L 222.219492 235.279219 
L 222.219492 233.375852 
L 217.32724 233.375852 
z
" clip-path="url(#p393b3e4a53)" style="fill: #1f77b4"/>
   </g>
   <g id="patch_252">
    <path d="M 222.219492 235.279219 
L 227.111743 235.279219 
L 227.111743 234.644763 
L 222.219492 234.644763 
z
" clip-path="url(#p393b3e4a53)" style="fill: #1f77b4"/>
   </g>
   <g id="patch_253">
    <path d="M 227.111743 235.279219 
L 232.003994 235.279219 
L 232.003994 234.644763 
L 227.111743 234.644763 
z
" clip-path="url(#p393b3e4a53)" style="fill: #1f77b4"/>
   </g>
   <g id="patch_254">
    <path d="M 232.003994 235.279219 
L 236.896245 235.279219 
L 236.896245 235.279219 
L 232.003994 235.279219 
z
" clip-path="url(#p393b3e4a53)" style="fill: #1f77b4"/>
   </g>
   <g id="patch_255">
    <path d="M 236.896245 235.279219 
L 241.788496 235.279219 
L 241.788496 234.644763 
L 236.896245 234.644763 
z
" clip-path="url(#p393b3e4a53)" style="fill: #1f77b4"/>
   </g>
   <g id="patch_256">
    <path d="M 241.788496 235.279219 
L 246.680747 235.279219 
L 246.680747 235.279219 
L 241.788496 235.279219 
z
" clip-path="url(#p393b3e4a53)" style="fill: #1f77b4"/>
   </g>
   <g id="patch_257">
    <path d="M 246.680747 235.279219 
L 251.572998 235.279219 
L 251.572998 234.644763 
L 246.680747 234.644763 
z
" clip-path="url(#p393b3e4a53)" style="fill: #1f77b4"/>
   </g>
   <g id="matplotlib.axis_7">
    <g id="xtick_4">
     <g id="line2d_12">
      <g>
       <use xlink:href="#m52508a8059" x="146.80046" y="235.279219" style="stroke: #000000; stroke-width: 0.8"/>
      </g>
     </g>
     <g id="text_15">
      <!-- −0.1 -->
      <g transform="translate(134.659053 249.877656) scale(0.1 -0.1)">
       <use xlink:href="#DejaVuSans-2212"/>
       <use xlink:href="#DejaVuSans-30" x="83.789062"/>
       <use xlink:href="#DejaVuSans-2e" x="147.412109"/>
       <use xlink:href="#DejaVuSans-31" x="179.199219"/>
      </g>
     </g>
    </g>
    <g id="xtick_5">
     <g id="line2d_13">
      <g>
       <use xlink:href="#m52508a8059" x="191.932813" y="235.279219" style="stroke: #000000; stroke-width: 0.8"/>
      </g>
     </g>
     <g id="text_16">
      <!-- 0.0 -->
      <g transform="translate(183.98125 249.877656) scale(0.1 -0.1)">
       <use xlink:href="#DejaVuSans-30"/>
       <use xlink:href="#DejaVuSans-2e" x="63.623047"/>
       <use xlink:href="#DejaVuSans-30" x="95.410156"/>
      </g>
     </g>
    </g>
    <g id="xtick_6">
     <g id="line2d_14">
      <g>
       <use xlink:href="#m52508a8059" x="237.065165" y="235.279219" style="stroke: #000000; stroke-width: 0.8"/>
      </g>
     </g>
     <g id="text_17">
      <!-- 0.1 -->
      <g transform="translate(229.113603 249.877656) scale(0.1 -0.1)">
       <use xlink:href="#DejaVuSans-30"/>
       <use xlink:href="#DejaVuSans-2e" x="63.623047"/>
       <use xlink:href="#DejaVuSans-31" x="95.410156"/>
      </g>
     </g>
    </g>
   </g>
   <g id="matplotlib.axis_8"/>
   <g id="patch_258">
    <path d="M 146.80046 235.279219 
L 146.80046 190.867338 
" style="fill: none; stroke: #000000; stroke-width: 0.8; stroke-linejoin: miter; stroke-linecap: square"/>
   </g>
   <g id="patch_259">
    <path d="M 237.065165 235.279219 
L 237.065165 190.867338 
" style="fill: none; stroke: #000000; stroke-width: 0.8; stroke-linejoin: miter; stroke-linecap: square"/>
   </g>
   <g id="patch_260">
    <path d="M 146.80046 235.279219 
L 237.065165 235.279219 
" style="fill: none; stroke: #000000; stroke-width: 0.8; stroke-linejoin: miter; stroke-linecap: square"/>
   </g>
   <g id="patch_261">
    <path d="M 146.80046 190.867338 
L 237.065165 190.867338 
" style="fill: none; stroke: #000000; stroke-width: 0.8; stroke-linejoin: miter; stroke-linecap: square"/>
   </g>
   <g id="text_18">
    <!-- $\lambda_1=0.1$ -->
    <g transform="translate(155.82693 203.556446) scale(0.1 -0.1)">
     <use xlink:href="#DejaVuSans-Oblique-3bb" transform="translate(0 0.015625)"/>
     <use xlink:href="#DejaVuSans-31" transform="translate(59.179688 -16.390625) scale(0.7)"/>
     <use xlink:href="#DejaVuSans-3d" transform="translate(125.932617 0.015625)"/>
     <use xlink:href="#DejaVuSans-30" transform="translate(229.204102 0.015625)"/>
     <use xlink:href="#DejaVuSans-2e" transform="translate(292.827148 0.015625)"/>
     <use xlink:href="#DejaVuSans-31" transform="translate(324.614258 0.015625)"/>
    </g>
   </g>
  </g>
  <g id="axes_5">
   <g id="patch_262">
    <path d="M 38.482813 175.323179 
L 345.382813 175.323179 
L 345.382813 130.911298 
L 38.482813 130.911298 
z
" style="fill: #ffffff"/>
   </g>
   <g id="patch_263">
    <path d="M 37.255212 153.117239 
L 39.710412 153.117239 
L 39.710412 153.11724 
L 37.255212 153.11724 
z
" clip-path="url(#pa2e69cd405)" style="fill: #1f77b4"/>
   </g>
   <g id="patch_264">
    <path d="M 40.324213 153.117239 
L 42.779412 153.117239 
L 42.779412 153.117237 
L 40.324213 153.117237 
z
" clip-path="url(#pa2e69cd405)" style="fill: #1f77b4"/>
   </g>
   <g id="patch_265">
    <path d="M 43.393213 153.117239 
L 45.848413 153.117239 
L 45.848413 153.117239 
L 43.393213 153.117239 
z
" clip-path="url(#pa2e69cd405)" style="fill: #1f77b4"/>
   </g>
   <g id="patch_266">
    <path d="M 46.462212 153.117239 
L 48.917412 153.117239 
L 48.917412 153.117207 
L 46.462212 153.117207 
z
" clip-path="url(#pa2e69cd405)" style="fill: #1f77b4"/>
   </g>
   <g id="patch_267">
    <path d="M 49.531213 153.117239 
L 51.986413 153.117239 
L 51.986413 153.11724 
L 49.531213 153.11724 
z
" clip-path="url(#pa2e69cd405)" style="fill: #1f77b4"/>
   </g>
   <g id="patch_268">
    <path d="M 52.600212 153.117239 
L 55.055412 153.117239 
L 55.055412 153.11724 
L 52.600212 153.11724 
z
" clip-path="url(#pa2e69cd405)" style="fill: #1f77b4"/>
   </g>
   <g id="patch_269">
    <path d="M 55.669213 153.117239 
L 58.124412 153.117239 
L 58.124412 148.987508 
L 55.669213 148.987508 
z
" clip-path="url(#pa2e69cd405)" style="fill: #1f77b4"/>
   </g>
   <g id="patch_270">
    <path d="M 58.738213 153.117239 
L 61.193413 153.117239 
L 61.193413 153.117241 
L 58.738213 153.117241 
z
" clip-path="url(#pa2e69cd405)" style="fill: #1f77b4"/>
   </g>
   <g id="patch_271">
    <path d="M 61.807213 153.117239 
L 64.262413 153.117239 
L 64.262413 153.117238 
L 61.807213 153.117238 
z
" clip-path="url(#pa2e69cd405)" style="fill: #1f77b4"/>
   </g>
   <g id="patch_272">
    <path d="M 64.876213 153.117239 
L 67.331413 153.117239 
L 67.331413 153.117237 
L 64.876213 153.117237 
z
" clip-path="url(#pa2e69cd405)" style="fill: #1f77b4"/>
   </g>
   <g id="patch_273">
    <path d="M 67.945212 153.117239 
L 70.400413 153.117239 
L 70.400413 153.117238 
L 67.945212 153.117238 
z
" clip-path="url(#pa2e69cd405)" style="fill: #1f77b4"/>
   </g>
   <g id="patch_274">
    <path d="M 71.014213 153.117239 
L 73.469413 153.117239 
L 73.469413 153.117252 
L 71.014213 153.117252 
z
" clip-path="url(#pa2e69cd405)" style="fill: #1f77b4"/>
   </g>
   <g id="patch_275">
    <path d="M 74.083213 153.117239 
L 76.538413 153.117239 
L 76.538413 151.703983 
L 74.083213 151.703983 
z
" clip-path="url(#pa2e69cd405)" style="fill: #1f77b4"/>
   </g>
   <g id="patch_276">
    <path d="M 77.152213 153.117239 
L 79.607413 153.117239 
L 79.607413 153.117241 
L 77.152213 153.117241 
z
" clip-path="url(#pa2e69cd405)" style="fill: #1f77b4"/>
   </g>
   <g id="patch_277">
    <path d="M 80.221213 153.117239 
L 82.676413 153.117239 
L 82.676413 153.117194 
L 80.221213 153.117194 
z
" clip-path="url(#pa2e69cd405)" style="fill: #1f77b4"/>
   </g>
   <g id="patch_278">
    <path d="M 83.290212 153.117239 
L 85.745413 153.117239 
L 85.745413 153.117238 
L 83.290212 153.117238 
z
" clip-path="url(#pa2e69cd405)" style="fill: #1f77b4"/>
   </g>
   <g id="patch_279">
    <path d="M 86.359213 153.117239 
L 88.814413 153.117239 
L 88.814413 145.927036 
L 86.359213 145.927036 
z
" clip-path="url(#pa2e69cd405)" style="fill: #1f77b4"/>
   </g>
   <g id="patch_280">
    <path d="M 89.428213 153.117239 
L 91.883413 153.117239 
L 91.883413 146.50482 
L 89.428213 146.50482 
z
" clip-path="url(#pa2e69cd405)" style="fill: #1f77b4"/>
   </g>
   <g id="patch_281">
    <path d="M 92.497213 153.117239 
L 94.952413 153.117239 
L 94.952413 153.117234 
L 92.497213 153.117234 
z
" clip-path="url(#pa2e69cd405)" style="fill: #1f77b4"/>
   </g>
   <g id="patch_282">
    <path d="M 95.566213 153.117239 
L 98.021413 153.117239 
L 98.021413 153.113982 
L 95.566213 153.113982 
z
" clip-path="url(#pa2e69cd405)" style="fill: #1f77b4"/>
   </g>
   <g id="patch_283">
    <path d="M 98.635213 153.117239 
L 101.090413 153.117239 
L 101.090413 153.11724 
L 98.635213 153.11724 
z
" clip-path="url(#pa2e69cd405)" style="fill: #1f77b4"/>
   </g>
   <g id="patch_284">
    <path d="M 101.704213 153.117239 
L 104.159413 153.117239 
L 104.159413 153.104809 
L 101.704213 153.104809 
z
" clip-path="url(#pa2e69cd405)" style="fill: #1f77b4"/>
   </g>
   <g id="patch_285">
    <path d="M 104.773213 153.117239 
L 107.228413 153.117239 
L 107.228413 153.11724 
L 104.773213 153.11724 
z
" clip-path="url(#pa2e69cd405)" style="fill: #1f77b4"/>
   </g>
   <g id="patch_286">
    <path d="M 107.842213 153.117239 
L 110.297413 153.117239 
L 110.297413 153.11722 
L 107.842213 153.11722 
z
" clip-path="url(#pa2e69cd405)" style="fill: #1f77b4"/>
   </g>
   <g id="patch_287">
    <path d="M 110.911213 153.117239 
L 113.366413 153.117239 
L 113.366413 124.94755 
L 110.911213 124.94755 
z
" clip-path="url(#pa2e69cd405)" style="fill: #1f77b4"/>
   </g>
   <g id="patch_288">
    <path d="M 113.980213 153.117239 
L 116.435413 153.117239 
L 116.435413 150.331806 
L 113.980213 150.331806 
z
" clip-path="url(#pa2e69cd405)" style="fill: #1f77b4"/>
   </g>
   <g id="patch_289">
    <path d="M 117.049213 153.117239 
L 119.504413 153.117239 
L 119.504413 153.117239 
L 117.049213 153.117239 
z
" clip-path="url(#pa2e69cd405)" style="fill: #1f77b4"/>
   </g>
   <g id="patch_290">
    <path d="M 120.118213 153.117239 
L 122.573413 153.117239 
L 122.573413 153.117236 
L 120.118213 153.117236 
z
" clip-path="url(#pa2e69cd405)" style="fill: #1f77b4"/>
   </g>
   <g id="patch_291">
    <path d="M 123.187213 153.117239 
L 125.642413 153.117239 
L 125.642413 153.11724 
L 123.187213 153.11724 
z
" clip-path="url(#pa2e69cd405)" style="fill: #1f77b4"/>
   </g>
   <g id="patch_292">
    <path d="M 126.256213 153.117239 
L 128.711412 153.117239 
L 128.711412 143.117712 
L 126.256213 143.117712 
z
" clip-path="url(#pa2e69cd405)" style="fill: #1f77b4"/>
   </g>
   <g id="patch_293">
    <path d="M 129.325213 153.117239 
L 131.780413 153.117239 
L 131.780413 147.17788 
L 129.325213 147.17788 
z
" clip-path="url(#pa2e69cd405)" style="fill: #1f77b4"/>
   </g>
   <g id="patch_294">
    <path d="M 132.394213 153.117239 
L 134.849412 153.117239 
L 134.849412 153.117237 
L 132.394213 153.117237 
z
" clip-path="url(#pa2e69cd405)" style="fill: #1f77b4"/>
   </g>
   <g id="patch_295">
    <path d="M 135.463213 153.117239 
L 137.918413 153.117239 
L 137.918413 152.460917 
L 135.463213 152.460917 
z
" clip-path="url(#pa2e69cd405)" style="fill: #1f77b4"/>
   </g>
   <g id="patch_296">
    <path d="M 138.532213 153.117239 
L 140.987413 153.117239 
L 140.987413 153.11724 
L 138.532213 153.11724 
z
" clip-path="url(#pa2e69cd405)" style="fill: #1f77b4"/>
   </g>
   <g id="patch_297">
    <path d="M 141.601213 153.117239 
L 144.056413 153.117239 
L 144.056413 153.117239 
L 141.601213 153.117239 
z
" clip-path="url(#pa2e69cd405)" style="fill: #1f77b4"/>
   </g>
   <g id="patch_298">
    <path d="M 144.670213 153.117239 
L 147.125413 153.117239 
L 147.125413 142.005419 
L 144.670213 142.005419 
z
" clip-path="url(#pa2e69cd405)" style="fill: #1f77b4"/>
   </g>
   <g id="patch_299">
    <path d="M 147.739213 153.117239 
L 150.194412 153.117239 
L 150.194412 153.117239 
L 147.739213 153.117239 
z
" clip-path="url(#pa2e69cd405)" style="fill: #1f77b4"/>
   </g>
   <g id="patch_300">
    <path d="M 150.808213 153.117239 
L 153.263413 153.117239 
L 153.263413 153.117239 
L 150.808213 153.117239 
z
" clip-path="url(#pa2e69cd405)" style="fill: #1f77b4"/>
   </g>
   <g id="patch_301">
    <path d="M 153.877213 153.117239 
L 156.332413 153.117239 
L 156.332413 153.11724 
L 153.877213 153.11724 
z
" clip-path="url(#pa2e69cd405)" style="fill: #1f77b4"/>
   </g>
   <g id="patch_302">
    <path d="M 156.946213 153.117239 
L 159.401413 153.117239 
L 159.401413 153.117239 
L 156.946213 153.117239 
z
" clip-path="url(#pa2e69cd405)" style="fill: #1f77b4"/>
   </g>
   <g id="patch_303">
    <path d="M 160.015213 153.117239 
L 162.470413 153.117239 
L 162.470413 153.11724 
L 160.015213 153.11724 
z
" clip-path="url(#pa2e69cd405)" style="fill: #1f77b4"/>
   </g>
   <g id="patch_304">
    <path d="M 163.084213 153.117239 
L 165.539413 153.117239 
L 165.539413 150.815687 
L 163.084213 150.815687 
z
" clip-path="url(#pa2e69cd405)" style="fill: #1f77b4"/>
   </g>
   <g id="patch_305">
    <path d="M 166.153213 153.117239 
L 168.608413 153.117239 
L 168.608413 153.117239 
L 166.153213 153.117239 
z
" clip-path="url(#pa2e69cd405)" style="fill: #1f77b4"/>
   </g>
   <g id="patch_306">
    <path d="M 169.222213 153.117239 
L 171.677413 153.117239 
L 171.677413 153.117241 
L 169.222213 153.117241 
z
" clip-path="url(#pa2e69cd405)" style="fill: #1f77b4"/>
   </g>
   <g id="patch_307">
    <path d="M 172.291213 153.117239 
L 174.746413 153.117239 
L 174.746413 147.803201 
L 172.291213 147.803201 
z
" clip-path="url(#pa2e69cd405)" style="fill: #1f77b4"/>
   </g>
   <g id="patch_308">
    <path d="M 175.360213 153.117239 
L 177.815413 153.117239 
L 177.815413 146.24067 
L 175.360213 146.24067 
z
" clip-path="url(#pa2e69cd405)" style="fill: #1f77b4"/>
   </g>
   <g id="patch_309">
    <path d="M 178.429213 153.117239 
L 180.884412 153.117239 
L 180.884412 153.117238 
L 178.429213 153.117238 
z
" clip-path="url(#pa2e69cd405)" style="fill: #1f77b4"/>
   </g>
   <g id="patch_310">
    <path d="M 181.498213 153.117239 
L 183.953413 153.117239 
L 183.953413 149.020713 
L 181.498213 149.020713 
z
" clip-path="url(#pa2e69cd405)" style="fill: #1f77b4"/>
   </g>
   <g id="patch_311">
    <path d="M 184.567213 153.117239 
L 187.022413 153.117239 
L 187.022413 153.117231 
L 184.567213 153.117231 
z
" clip-path="url(#pa2e69cd405)" style="fill: #1f77b4"/>
   </g>
   <g id="patch_312">
    <path d="M 187.636213 153.117239 
L 190.091413 153.117239 
L 190.091413 153.117239 
L 187.636213 153.117239 
z
" clip-path="url(#pa2e69cd405)" style="fill: #1f77b4"/>
   </g>
   <g id="patch_313">
    <path d="M 190.705213 153.117239 
L 193.160413 153.117239 
L 193.160413 153.11724 
L 190.705213 153.11724 
z
" clip-path="url(#pa2e69cd405)" style="fill: #1f77b4"/>
   </g>
   <g id="patch_314">
    <path d="M 193.774213 153.117239 
L 196.229413 153.117239 
L 196.229413 153.117239 
L 193.774213 153.117239 
z
" clip-path="url(#pa2e69cd405)" style="fill: #1f77b4"/>
   </g>
   <g id="patch_315">
    <path d="M 196.843213 153.117239 
L 199.298413 153.117239 
L 199.298413 151.028688 
L 196.843213 151.028688 
z
" clip-path="url(#pa2e69cd405)" style="fill: #1f77b4"/>
   </g>
   <g id="patch_316">
    <path d="M 199.912213 153.117239 
L 202.367413 153.117239 
L 202.367413 147.651574 
L 199.912213 147.651574 
z
" clip-path="url(#pa2e69cd405)" style="fill: #1f77b4"/>
   </g>
   <g id="patch_317">
    <path d="M 202.981213 153.117239 
L 205.436413 153.117239 
L 205.436413 153.117232 
L 202.981213 153.117232 
z
" clip-path="url(#pa2e69cd405)" style="fill: #1f77b4"/>
   </g>
   <g id="patch_318">
    <path d="M 206.050213 153.117239 
L 208.505413 153.117239 
L 208.505413 153.11724 
L 206.050213 153.11724 
z
" clip-path="url(#pa2e69cd405)" style="fill: #1f77b4"/>
   </g>
   <g id="patch_319">
    <path d="M 209.119213 153.117239 
L 211.574413 153.117239 
L 211.574413 151.586232 
L 209.119213 151.586232 
z
" clip-path="url(#pa2e69cd405)" style="fill: #1f77b4"/>
   </g>
   <g id="patch_320">
    <path d="M 212.188213 153.117239 
L 214.643413 153.117239 
L 214.643413 151.376299 
L 212.188213 151.376299 
z
" clip-path="url(#pa2e69cd405)" style="fill: #1f77b4"/>
   </g>
   <g id="patch_321">
    <path d="M 215.257213 153.117239 
L 217.712412 153.117239 
L 217.712412 143.2987 
L 215.257213 143.2987 
z
" clip-path="url(#pa2e69cd405)" style="fill: #1f77b4"/>
   </g>
   <g id="patch_322">
    <path d="M 218.326213 153.117239 
L 220.781413 153.117239 
L 220.781413 153.117239 
L 218.326213 153.117239 
z
" clip-path="url(#pa2e69cd405)" style="fill: #1f77b4"/>
   </g>
   <g id="patch_323">
    <path d="M 221.395213 153.117239 
L 223.850413 153.117239 
L 223.850413 153.116896 
L 221.395213 153.116896 
z
" clip-path="url(#pa2e69cd405)" style="fill: #1f77b4"/>
   </g>
   <g id="patch_324">
    <path d="M 224.464213 153.117239 
L 226.919413 153.117239 
L 226.919413 153.11724 
L 224.464213 153.11724 
z
" clip-path="url(#pa2e69cd405)" style="fill: #1f77b4"/>
   </g>
   <g id="patch_325">
    <path d="M 227.533213 153.117239 
L 229.988413 153.117239 
L 229.988413 152.867794 
L 227.533213 152.867794 
z
" clip-path="url(#pa2e69cd405)" style="fill: #1f77b4"/>
   </g>
   <g id="patch_326">
    <path d="M 230.602213 153.117239 
L 233.057413 153.117239 
L 233.057413 153.117238 
L 230.602213 153.117238 
z
" clip-path="url(#pa2e69cd405)" style="fill: #1f77b4"/>
   </g>
   <g id="patch_327">
    <path d="M 233.671213 153.117239 
L 236.126413 153.117239 
L 236.126413 153.11724 
L 233.671213 153.11724 
z
" clip-path="url(#pa2e69cd405)" style="fill: #1f77b4"/>
   </g>
   <g id="patch_328">
    <path d="M 236.740213 153.117239 
L 239.195413 153.117239 
L 239.195413 132.61851 
L 236.740213 132.61851 
z
" clip-path="url(#pa2e69cd405)" style="fill: #1f77b4"/>
   </g>
   <g id="patch_329">
    <path d="M 239.809213 153.117239 
L 242.264412 153.117239 
L 242.264412 151.851716 
L 239.809213 151.851716 
z
" clip-path="url(#pa2e69cd405)" style="fill: #1f77b4"/>
   </g>
   <g id="patch_330">
    <path d="M 242.878212 153.117239 
L 245.333412 153.117239 
L 245.333412 148.888273 
L 242.878212 148.888273 
z
" clip-path="url(#pa2e69cd405)" style="fill: #1f77b4"/>
   </g>
   <g id="patch_331">
    <path d="M 245.947213 153.117239 
L 248.402412 153.117239 
L 248.402412 144.773485 
L 245.947213 144.773485 
z
" clip-path="url(#pa2e69cd405)" style="fill: #1f77b4"/>
   </g>
   <g id="patch_332">
    <path d="M 249.016212 153.117239 
L 251.471412 153.117239 
L 251.471412 152.274379 
L 249.016212 152.274379 
z
" clip-path="url(#pa2e69cd405)" style="fill: #1f77b4"/>
   </g>
   <g id="patch_333">
    <path d="M 252.085213 153.117239 
L 254.540413 153.117239 
L 254.540413 135.301908 
L 252.085213 135.301908 
z
" clip-path="url(#pa2e69cd405)" style="fill: #1f77b4"/>
   </g>
   <g id="patch_334">
    <path d="M 255.154212 153.117239 
L 257.609413 153.117239 
L 257.609413 153.07975 
L 255.154212 153.07975 
z
" clip-path="url(#pa2e69cd405)" style="fill: #1f77b4"/>
   </g>
   <g id="patch_335">
    <path d="M 258.223213 153.117239 
L 260.678413 153.117239 
L 260.678413 153.114764 
L 258.223213 153.114764 
z
" clip-path="url(#pa2e69cd405)" style="fill: #1f77b4"/>
   </g>
   <g id="patch_336">
    <path d="M 261.292213 153.117239 
L 263.747412 153.117239 
L 263.747412 142.37526 
L 261.292213 142.37526 
z
" clip-path="url(#pa2e69cd405)" style="fill: #1f77b4"/>
   </g>
   <g id="patch_337">
    <path d="M 264.361213 153.117239 
L 266.816413 153.117239 
L 266.816413 153.11724 
L 264.361213 153.11724 
z
" clip-path="url(#pa2e69cd405)" style="fill: #1f77b4"/>
   </g>
   <g id="patch_338">
    <path d="M 267.430213 153.117239 
L 269.885413 153.117239 
L 269.885413 153.11724 
L 267.430213 153.11724 
z
" clip-path="url(#pa2e69cd405)" style="fill: #1f77b4"/>
   </g>
   <g id="patch_339">
    <path d="M 270.499212 153.117239 
L 272.954412 153.117239 
L 272.954412 153.11724 
L 270.499212 153.11724 
z
" clip-path="url(#pa2e69cd405)" style="fill: #1f77b4"/>
   </g>
   <g id="patch_340">
    <path d="M 273.568213 153.117239 
L 276.023413 153.117239 
L 276.023413 153.117239 
L 273.568213 153.117239 
z
" clip-path="url(#pa2e69cd405)" style="fill: #1f77b4"/>
   </g>
   <g id="patch_341">
    <path d="M 276.637213 153.117239 
L 279.092413 153.117239 
L 279.092413 148.303663 
L 276.637213 148.303663 
z
" clip-path="url(#pa2e69cd405)" style="fill: #1f77b4"/>
   </g>
   <g id="patch_342">
    <path d="M 279.706213 153.117239 
L 282.161413 153.117239 
L 282.161413 153.117204 
L 279.706213 153.117204 
z
" clip-path="url(#pa2e69cd405)" style="fill: #1f77b4"/>
   </g>
   <g id="patch_343">
    <path d="M 282.775213 153.117239 
L 285.230412 153.117239 
L 285.230412 141.581554 
L 282.775213 141.581554 
z
" clip-path="url(#pa2e69cd405)" style="fill: #1f77b4"/>
   </g>
   <g id="patch_344">
    <path d="M 285.844213 153.117239 
L 288.299413 153.117239 
L 288.299413 153.11724 
L 285.844213 153.11724 
z
" clip-path="url(#pa2e69cd405)" style="fill: #1f77b4"/>
   </g>
   <g id="patch_345">
    <path d="M 288.913213 153.117239 
L 291.368413 153.117239 
L 291.368413 153.11724 
L 288.913213 153.11724 
z
" clip-path="url(#pa2e69cd405)" style="fill: #1f77b4"/>
   </g>
   <g id="patch_346">
    <path d="M 291.982213 153.117239 
L 294.437412 153.117239 
L 294.437412 150.317039 
L 291.982213 150.317039 
z
" clip-path="url(#pa2e69cd405)" style="fill: #1f77b4"/>
   </g>
   <g id="patch_347">
    <path d="M 295.051213 153.117239 
L 297.506413 153.117239 
L 297.506413 151.886115 
L 295.051213 151.886115 
z
" clip-path="url(#pa2e69cd405)" style="fill: #1f77b4"/>
   </g>
   <g id="patch_348">
    <path d="M 298.120213 153.117239 
L 300.575413 153.117239 
L 300.575413 153.117239 
L 298.120213 153.117239 
z
" clip-path="url(#pa2e69cd405)" style="fill: #1f77b4"/>
   </g>
   <g id="patch_349">
    <path d="M 301.189213 153.117239 
L 303.644413 153.117239 
L 303.644413 153.117239 
L 301.189213 153.117239 
z
" clip-path="url(#pa2e69cd405)" style="fill: #1f77b4"/>
   </g>
   <g id="patch_350">
    <path d="M 304.258213 153.117239 
L 306.713413 153.117239 
L 306.713413 153.11724 
L 304.258213 153.11724 
z
" clip-path="url(#pa2e69cd405)" style="fill: #1f77b4"/>
   </g>
   <g id="patch_351">
    <path d="M 307.327213 153.117239 
L 309.782413 153.117239 
L 309.782413 150.535763 
L 307.327213 150.535763 
z
" clip-path="url(#pa2e69cd405)" style="fill: #1f77b4"/>
   </g>
   <g id="patch_352">
    <path d="M 310.396213 153.117239 
L 312.851413 153.117239 
L 312.851413 153.11724 
L 310.396213 153.11724 
z
" clip-path="url(#pa2e69cd405)" style="fill: #1f77b4"/>
   </g>
   <g id="patch_353">
    <path d="M 313.465213 153.117239 
L 315.920413 153.117239 
L 315.920413 153.117236 
L 313.465213 153.117236 
z
" clip-path="url(#pa2e69cd405)" style="fill: #1f77b4"/>
   </g>
   <g id="patch_354">
    <path d="M 316.534213 153.117239 
L 318.989413 153.117239 
L 318.989413 153.117235 
L 316.534213 153.117235 
z
" clip-path="url(#pa2e69cd405)" style="fill: #1f77b4"/>
   </g>
   <g id="patch_355">
    <path d="M 319.603213 153.117239 
L 322.058413 153.117239 
L 322.058413 153.117239 
L 319.603213 153.117239 
z
" clip-path="url(#pa2e69cd405)" style="fill: #1f77b4"/>
   </g>
   <g id="patch_356">
    <path d="M 322.672213 153.117239 
L 325.127413 153.117239 
L 325.127413 145.468781 
L 322.672213 145.468781 
z
" clip-path="url(#pa2e69cd405)" style="fill: #1f77b4"/>
   </g>
   <g id="patch_357">
    <path d="M 325.741213 153.117239 
L 328.196413 153.117239 
L 328.196413 153.11724 
L 325.741213 153.11724 
z
" clip-path="url(#pa2e69cd405)" style="fill: #1f77b4"/>
   </g>
   <g id="patch_358">
    <path d="M 328.810213 153.117239 
L 331.265413 153.117239 
L 331.265413 153.11724 
L 328.810213 153.11724 
z
" clip-path="url(#pa2e69cd405)" style="fill: #1f77b4"/>
   </g>
   <g id="patch_359">
    <path d="M 331.879213 153.117239 
L 334.334413 153.117239 
L 334.334413 153.117218 
L 331.879213 153.117218 
z
" clip-path="url(#pa2e69cd405)" style="fill: #1f77b4"/>
   </g>
   <g id="patch_360">
    <path d="M 334.948213 153.117239 
L 337.403413 153.117239 
L 337.403413 153.117237 
L 334.948213 153.117237 
z
" clip-path="url(#pa2e69cd405)" style="fill: #1f77b4"/>
   </g>
   <g id="patch_361">
    <path d="M 338.017213 153.117239 
L 340.472413 153.117239 
L 340.472413 153.117239 
L 338.017213 153.117239 
z
" clip-path="url(#pa2e69cd405)" style="fill: #1f77b4"/>
   </g>
   <g id="patch_362">
    <path d="M 341.086213 153.117239 
L 343.541413 153.117239 
L 343.541413 153.11724 
L 341.086213 153.11724 
z
" clip-path="url(#pa2e69cd405)" style="fill: #1f77b4"/>
   </g>
   <g id="matplotlib.axis_9">
    <g id="xtick_7">
     <g id="line2d_15">
      <g>
       <use xlink:href="#m52508a8059" x="38.482813" y="175.323179" style="stroke: #000000; stroke-width: 0.8"/>
      </g>
     </g>
     <g id="text_19">
      <!-- 0 -->
      <g transform="translate(35.301563 189.921617) scale(0.1 -0.1)">
       <use xlink:href="#DejaVuSans-30"/>
      </g>
     </g>
    </g>
    <g id="xtick_8">
     <g id="line2d_16">
      <g>
       <use xlink:href="#m52508a8059" x="99.862813" y="175.323179" style="stroke: #000000; stroke-width: 0.8"/>
      </g>
     </g>
     <g id="text_20">
      <!-- 20 -->
      <g transform="translate(93.500313 189.921617) scale(0.1 -0.1)">
       <defs>
        <path id="DejaVuSans-32" d="M 1228 531 
L 3431 531 
L 3431 0 
L 469 0 
L 469 531 
Q 828 903 1448 1529 
Q 2069 2156 2228 2338 
Q 2531 2678 2651 2914 
Q 2772 3150 2772 3378 
Q 2772 3750 2511 3984 
Q 2250 4219 1831 4219 
Q 1534 4219 1204 4116 
Q 875 4013 500 3803 
L 500 4441 
Q 881 4594 1212 4672 
Q 1544 4750 1819 4750 
Q 2544 4750 2975 4387 
Q 3406 4025 3406 3419 
Q 3406 3131 3298 2873 
Q 3191 2616 2906 2266 
Q 2828 2175 2409 1742 
Q 1991 1309 1228 531 
z
" transform="scale(0.015625)"/>
       </defs>
       <use xlink:href="#DejaVuSans-32"/>
       <use xlink:href="#DejaVuSans-30" x="63.623047"/>
      </g>
     </g>
    </g>
    <g id="xtick_9">
     <g id="line2d_17">
      <g>
       <use xlink:href="#m52508a8059" x="161.242813" y="175.323179" style="stroke: #000000; stroke-width: 0.8"/>
      </g>
     </g>
     <g id="text_21">
      <!-- 40 -->
      <g transform="translate(154.880313 189.921617) scale(0.1 -0.1)">
       <defs>
        <path id="DejaVuSans-34" d="M 2419 4116 
L 825 1625 
L 2419 1625 
L 2419 4116 
z
M 2253 4666 
L 3047 4666 
L 3047 1625 
L 3713 1625 
L 3713 1100 
L 3047 1100 
L 3047 0 
L 2419 0 
L 2419 1100 
L 313 1100 
L 313 1709 
L 2253 4666 
z
" transform="scale(0.015625)"/>
       </defs>
       <use xlink:href="#DejaVuSans-34"/>
       <use xlink:href="#DejaVuSans-30" x="63.623047"/>
      </g>
     </g>
    </g>
    <g id="xtick_10">
     <g id="line2d_18">
      <g>
       <use xlink:href="#m52508a8059" x="222.622813" y="175.323179" style="stroke: #000000; stroke-width: 0.8"/>
      </g>
     </g>
     <g id="text_22">
      <!-- 60 -->
      <g transform="translate(216.260312 189.921617) scale(0.1 -0.1)">
       <defs>
        <path id="DejaVuSans-36" d="M 2113 2584 
Q 1688 2584 1439 2293 
Q 1191 2003 1191 1497 
Q 1191 994 1439 701 
Q 1688 409 2113 409 
Q 2538 409 2786 701 
Q 3034 994 3034 1497 
Q 3034 2003 2786 2293 
Q 2538 2584 2113 2584 
z
M 3366 4563 
L 3366 3988 
Q 3128 4100 2886 4159 
Q 2644 4219 2406 4219 
Q 1781 4219 1451 3797 
Q 1122 3375 1075 2522 
Q 1259 2794 1537 2939 
Q 1816 3084 2150 3084 
Q 2853 3084 3261 2657 
Q 3669 2231 3669 1497 
Q 3669 778 3244 343 
Q 2819 -91 2113 -91 
Q 1303 -91 875 529 
Q 447 1150 447 2328 
Q 447 3434 972 4092 
Q 1497 4750 2381 4750 
Q 2619 4750 2861 4703 
Q 3103 4656 3366 4563 
z
" transform="scale(0.015625)"/>
       </defs>
       <use xlink:href="#DejaVuSans-36"/>
       <use xlink:href="#DejaVuSans-30" x="63.623047"/>
      </g>
     </g>
    </g>
    <g id="xtick_11">
     <g id="line2d_19">
      <g>
       <use xlink:href="#m52508a8059" x="284.002813" y="175.323179" style="stroke: #000000; stroke-width: 0.8"/>
      </g>
     </g>
     <g id="text_23">
      <!-- 80 -->
      <g transform="translate(277.640313 189.921617) scale(0.1 -0.1)">
       <defs>
        <path id="DejaVuSans-38" d="M 2034 2216 
Q 1584 2216 1326 1975 
Q 1069 1734 1069 1313 
Q 1069 891 1326 650 
Q 1584 409 2034 409 
Q 2484 409 2743 651 
Q 3003 894 3003 1313 
Q 3003 1734 2745 1975 
Q 2488 2216 2034 2216 
z
M 1403 2484 
Q 997 2584 770 2862 
Q 544 3141 544 3541 
Q 544 4100 942 4425 
Q 1341 4750 2034 4750 
Q 2731 4750 3128 4425 
Q 3525 4100 3525 3541 
Q 3525 3141 3298 2862 
Q 3072 2584 2669 2484 
Q 3125 2378 3379 2068 
Q 3634 1759 3634 1313 
Q 3634 634 3220 271 
Q 2806 -91 2034 -91 
Q 1263 -91 848 271 
Q 434 634 434 1313 
Q 434 1759 690 2068 
Q 947 2378 1403 2484 
z
M 1172 3481 
Q 1172 3119 1398 2916 
Q 1625 2713 2034 2713 
Q 2441 2713 2670 2916 
Q 2900 3119 2900 3481 
Q 2900 3844 2670 4047 
Q 2441 4250 2034 4250 
Q 1625 4250 1398 4047 
Q 1172 3844 1172 3481 
z
" transform="scale(0.015625)"/>
       </defs>
       <use xlink:href="#DejaVuSans-38"/>
       <use xlink:href="#DejaVuSans-30" x="63.623047"/>
      </g>
     </g>
    </g>
    <g id="xtick_12">
     <g id="line2d_20">
      <g>
       <use xlink:href="#m52508a8059" x="345.382813" y="175.323179" style="stroke: #000000; stroke-width: 0.8"/>
      </g>
     </g>
     <g id="text_24">
      <!-- 100 -->
      <g transform="translate(335.839063 189.921617) scale(0.1 -0.1)">
       <use xlink:href="#DejaVuSans-31"/>
       <use xlink:href="#DejaVuSans-30" x="63.623047"/>
       <use xlink:href="#DejaVuSans-30" x="127.246094"/>
      </g>
     </g>
    </g>
   </g>
   <g id="matplotlib.axis_10">
    <g id="ytick_9">
     <g id="line2d_21">
      <g>
       <use xlink:href="#m2d2ad68429" x="38.482813" y="175.323179" style="stroke: #000000; stroke-width: 0.8"/>
      </g>
     </g>
     <g id="text_25">
      <!-- −0.1 -->
      <g transform="translate(7.2 179.122398) scale(0.1 -0.1)">
       <use xlink:href="#DejaVuSans-2212"/>
       <use xlink:href="#DejaVuSans-30" x="83.789062"/>
       <use xlink:href="#DejaVuSans-2e" x="147.412109"/>
       <use xlink:href="#DejaVuSans-31" x="179.199219"/>
      </g>
     </g>
    </g>
    <g id="ytick_10">
     <g id="line2d_22">
      <g>
       <use xlink:href="#m2d2ad68429" x="38.482813" y="153.117239" style="stroke: #000000; stroke-width: 0.8"/>
      </g>
     </g>
     <g id="text_26">
      <!-- 0.0 -->
      <g transform="translate(15.579688 156.916457) scale(0.1 -0.1)">
       <use xlink:href="#DejaVuSans-30"/>
       <use xlink:href="#DejaVuSans-2e" x="63.623047"/>
       <use xlink:href="#DejaVuSans-30" x="95.410156"/>
      </g>
     </g>
    </g>
    <g id="ytick_11">
     <g id="line2d_23">
      <g>
       <use xlink:href="#m2d2ad68429" x="38.482813" y="130.911298" style="stroke: #000000; stroke-width: 0.8"/>
      </g>
     </g>
     <g id="text_27">
      <!-- 0.1 -->
      <g transform="translate(15.579688 134.710517) scale(0.1 -0.1)">
       <use xlink:href="#DejaVuSans-30"/>
       <use xlink:href="#DejaVuSans-2e" x="63.623047"/>
       <use xlink:href="#DejaVuSans-31" x="95.410156"/>
      </g>
     </g>
    </g>
   </g>
   <g id="patch_363">
    <path d="M 38.482813 175.323179 
L 38.482813 130.911298 
" style="fill: none; stroke: #000000; stroke-width: 0.8; stroke-linejoin: miter; stroke-linecap: square"/>
   </g>
   <g id="patch_364">
    <path d="M 345.382813 175.323179 
L 345.382813 130.911298 
" style="fill: none; stroke: #000000; stroke-width: 0.8; stroke-linejoin: miter; stroke-linecap: square"/>
   </g>
   <g id="patch_365">
    <path d="M 38.482813 175.323179 
L 345.382813 175.323179 
" style="fill: none; stroke: #000000; stroke-width: 0.8; stroke-linejoin: miter; stroke-linecap: square"/>
   </g>
   <g id="patch_366">
    <path d="M 38.482813 130.911298 
L 345.382813 130.911298 
" style="fill: none; stroke: #000000; stroke-width: 0.8; stroke-linejoin: miter; stroke-linecap: square"/>
   </g>
   <g id="text_28">
    <!-- $\lambda_1=0.5$ -->
    <g transform="translate(53.827813 142.014268) scale(0.1 -0.1)">
     <use xlink:href="#DejaVuSans-Oblique-3bb" transform="translate(0 0.015625)"/>
     <use xlink:href="#DejaVuSans-31" transform="translate(59.179688 -16.390625) scale(0.7)"/>
     <use xlink:href="#DejaVuSans-3d" transform="translate(125.932617 0.015625)"/>
     <use xlink:href="#DejaVuSans-30" transform="translate(229.204102 0.015625)"/>
     <use xlink:href="#DejaVuSans-2e" transform="translate(292.827148 0.015625)"/>
     <use xlink:href="#DejaVuSans-35" transform="translate(324.614258 0.015625)"/>
    </g>
   </g>
  </g>
  <g id="axes_6">
   <g id="patch_367">
    <path d="M 255.118107 235.279219 
L 345.382813 235.279219 
L 345.382813 190.867338 
L 255.118107 190.867338 
z
" style="fill: #ffffff"/>
   </g>
   <g id="patch_368">
    <path d="M 300.250431 235.279219 
L 303.1131 235.279219 
L 303.1131 189.598427 
L 300.250431 189.598427 
z
" clip-path="url(#pd986504bb5)" style="fill: #1f77b4"/>
   </g>
   <g id="patch_369">
    <path d="M 303.1131 235.279219 
L 305.975769 235.279219 
L 305.975769 230.203575 
L 303.1131 230.203575 
z
" clip-path="url(#pd986504bb5)" style="fill: #1f77b4"/>
   </g>
   <g id="patch_370">
    <path d="M 305.975769 235.279219 
L 308.838437 235.279219 
L 308.838437 234.010308 
L 305.975769 234.010308 
z
" clip-path="url(#pd986504bb5)" style="fill: #1f77b4"/>
   </g>
   <g id="patch_371">
    <path d="M 308.838437 235.279219 
L 311.701106 235.279219 
L 311.701106 232.741397 
L 308.838437 232.741397 
z
" clip-path="url(#pd986504bb5)" style="fill: #1f77b4"/>
   </g>
   <g id="patch_372">
    <path d="M 311.701106 235.279219 
L 314.563774 235.279219 
L 314.563774 233.375852 
L 311.701106 233.375852 
z
" clip-path="url(#pd986504bb5)" style="fill: #1f77b4"/>
   </g>
   <g id="patch_373">
    <path d="M 314.563774 235.279219 
L 317.426443 235.279219 
L 317.426443 233.375852 
L 314.563774 233.375852 
z
" clip-path="url(#pd986504bb5)" style="fill: #1f77b4"/>
   </g>
   <g id="patch_374">
    <path d="M 317.426443 235.279219 
L 320.289111 235.279219 
L 320.289111 234.644763 
L 317.426443 234.644763 
z
" clip-path="url(#pd986504bb5)" style="fill: #1f77b4"/>
   </g>
   <g id="patch_375">
    <path d="M 320.289111 235.279219 
L 323.15178 235.279219 
L 323.15178 233.375852 
L 320.289111 233.375852 
z
" clip-path="url(#pd986504bb5)" style="fill: #1f77b4"/>
   </g>
   <g id="patch_376">
    <path d="M 323.15178 235.279219 
L 326.014448 235.279219 
L 326.014448 234.644763 
L 323.15178 234.644763 
z
" clip-path="url(#pd986504bb5)" style="fill: #1f77b4"/>
   </g>
   <g id="patch_377">
    <path d="M 326.014448 235.279219 
L 328.877117 235.279219 
L 328.877117 235.279219 
L 326.014448 235.279219 
z
" clip-path="url(#pd986504bb5)" style="fill: #1f77b4"/>
   </g>
   <g id="patch_378">
    <path d="M 328.877117 235.279219 
L 331.739785 235.279219 
L 331.739785 235.279219 
L 328.877117 235.279219 
z
" clip-path="url(#pd986504bb5)" style="fill: #1f77b4"/>
   </g>
   <g id="patch_379">
    <path d="M 331.739785 235.279219 
L 334.602454 235.279219 
L 334.602454 235.279219 
L 331.739785 235.279219 
z
" clip-path="url(#pd986504bb5)" style="fill: #1f77b4"/>
   </g>
   <g id="patch_380">
    <path d="M 334.602454 235.279219 
L 337.465123 235.279219 
L 337.465123 234.644763 
L 334.602454 234.644763 
z
" clip-path="url(#pd986504bb5)" style="fill: #1f77b4"/>
   </g>
   <g id="patch_381">
    <path d="M 337.465123 235.279219 
L 340.327791 235.279219 
L 340.327791 235.279219 
L 337.465123 235.279219 
z
" clip-path="url(#pd986504bb5)" style="fill: #1f77b4"/>
   </g>
   <g id="patch_382">
    <path d="M 340.327791 235.279219 
L 343.19046 235.279219 
L 343.19046 234.644763 
L 340.327791 234.644763 
z
" clip-path="url(#pd986504bb5)" style="fill: #1f77b4"/>
   </g>
   <g id="patch_383">
    <path d="M 343.19046 235.279219 
L 346.053128 235.279219 
L 346.053128 235.279219 
L 343.19046 235.279219 
z
" clip-path="url(#pd986504bb5)" style="fill: #1f77b4"/>
   </g>
   <g id="patch_384">
    <path d="M 346.053128 235.279219 
L 348.915797 235.279219 
L 348.915797 235.279219 
L 346.053128 235.279219 
z
" clip-path="url(#pd986504bb5)" style="fill: #1f77b4"/>
   </g>
   <g id="patch_385">
    <path d="M 348.915797 235.279219 
L 351.778465 235.279219 
L 351.778465 235.279219 
L 348.915797 235.279219 
z
" clip-path="url(#pd986504bb5)" style="fill: #1f77b4"/>
   </g>
   <g id="patch_386">
    <path d="M 351.778465 235.279219 
L 354.641134 235.279219 
L 354.641134 235.279219 
L 351.778465 235.279219 
z
" clip-path="url(#pd986504bb5)" style="fill: #1f77b4"/>
   </g>
   <g id="patch_387">
    <path d="M 354.641134 235.279219 
L 357.503802 235.279219 
L 357.503802 234.644763 
L 354.641134 234.644763 
z
" clip-path="url(#pd986504bb5)" style="fill: #1f77b4"/>
   </g>
   <g id="matplotlib.axis_11">
    <g id="xtick_13">
     <g id="line2d_24">
      <g>
       <use xlink:href="#m52508a8059" x="255.118107" y="235.279219" style="stroke: #000000; stroke-width: 0.8"/>
      </g>
     </g>
     <g id="text_29">
      <!-- −0.1 -->
      <g transform="translate(242.9767 249.877656) scale(0.1 -0.1)">
       <use xlink:href="#DejaVuSans-2212"/>
       <use xlink:href="#DejaVuSans-30" x="83.789062"/>
       <use xlink:href="#DejaVuSans-2e" x="147.412109"/>
       <use xlink:href="#DejaVuSans-31" x="179.199219"/>
      </g>
     </g>
    </g>
    <g id="xtick_14">
     <g id="line2d_25">
      <g>
       <use xlink:href="#m52508a8059" x="300.25046" y="235.279219" style="stroke: #000000; stroke-width: 0.8"/>
      </g>
     </g>
     <g id="text_30">
      <!-- 0.0 -->
      <g transform="translate(292.298897 249.877656) scale(0.1 -0.1)">
       <use xlink:href="#DejaVuSans-30"/>
       <use xlink:href="#DejaVuSans-2e" x="63.623047"/>
       <use xlink:href="#DejaVuSans-30" x="95.410156"/>
      </g>
     </g>
    </g>
    <g id="xtick_15">
     <g id="line2d_26">
      <g>
       <use xlink:href="#m52508a8059" x="345.382813" y="235.279219" style="stroke: #000000; stroke-width: 0.8"/>
      </g>
     </g>
     <g id="text_31">
      <!-- 0.1 -->
      <g transform="translate(337.43125 249.877656) scale(0.1 -0.1)">
       <use xlink:href="#DejaVuSans-30"/>
       <use xlink:href="#DejaVuSans-2e" x="63.623047"/>
       <use xlink:href="#DejaVuSans-31" x="95.410156"/>
      </g>
     </g>
    </g>
   </g>
   <g id="matplotlib.axis_12"/>
   <g id="patch_388">
    <path d="M 255.118107 235.279219 
L 255.118107 190.867338 
" style="fill: none; stroke: #000000; stroke-width: 0.8; stroke-linejoin: miter; stroke-linecap: square"/>
   </g>
   <g id="patch_389">
    <path d="M 345.382813 235.279219 
L 345.382813 190.867338 
" style="fill: none; stroke: #000000; stroke-width: 0.8; stroke-linejoin: miter; stroke-linecap: square"/>
   </g>
   <g id="patch_390">
    <path d="M 255.118107 235.279219 
L 345.382813 235.279219 
" style="fill: none; stroke: #000000; stroke-width: 0.8; stroke-linejoin: miter; stroke-linecap: square"/>
   </g>
   <g id="patch_391">
    <path d="M 255.118107 190.867338 
L 345.382813 190.867338 
" style="fill: none; stroke: #000000; stroke-width: 0.8; stroke-linejoin: miter; stroke-linecap: square"/>
   </g>
   <g id="text_32">
    <!-- $\lambda_1=0.5$ -->
    <g transform="translate(264.144577 203.556446) scale(0.1 -0.1)">
     <use xlink:href="#DejaVuSans-Oblique-3bb" transform="translate(0 0.015625)"/>
     <use xlink:href="#DejaVuSans-31" transform="translate(59.179688 -16.390625) scale(0.7)"/>
     <use xlink:href="#DejaVuSans-3d" transform="translate(125.932617 0.015625)"/>
     <use xlink:href="#DejaVuSans-30" transform="translate(229.204102 0.015625)"/>
     <use xlink:href="#DejaVuSans-2e" transform="translate(292.827148 0.015625)"/>
     <use xlink:href="#DejaVuSans-35" transform="translate(324.614258 0.015625)"/>
    </g>
   </g>
  </g>
 </g>
 <defs>
  <clipPath id="p0f910e604e">
   <rect x="38.482813" y="10.999219" width="306.9" height="44.411881"/>
  </clipPath>
  <clipPath id="pe085d066eb">
   <rect x="38.482813" y="190.867338" width="90.264706" height="44.411881"/>
  </clipPath>
  <clipPath id="p0efe9884cb">
   <rect x="38.482813" y="70.955258" width="306.9" height="44.411881"/>
  </clipPath>
  <clipPath id="p393b3e4a53">
   <rect x="146.80046" y="190.867338" width="90.264706" height="44.411881"/>
  </clipPath>
  <clipPath id="pa2e69cd405">
   <rect x="38.482813" y="130.911298" width="306.9" height="44.411881"/>
  </clipPath>
  <clipPath id="pd986504bb5">
   <rect x="255.118107" y="190.867338" width="90.264706" height="44.411881"/>
  </clipPath>
 </defs>
</svg>
