<?xml version="1.0" encoding="utf-8" standalone="no"?>
<!DOCTYPE svg PUBLIC "-//W3C//DTD SVG 1.1//EN"
  "http://www.w3.org/Graphics/SVG/1.1/DTD/svg11.dtd">
<svg xmlns:xlink="http://www.w3.org/1999/xlink" width="356.720313pt" height="137.75625pt" viewBox="0 0 356.720313 137.75625" xmlns="http://www.w3.org/2000/svg" version="1.1">
 <metadata>
  <rdf:RDF xmlns:dc="http://purl.org/dc/elements/1.1/" xmlns:cc="http://creativecommons.org/ns#" xmlns:rdf="http://www.w3.org/1999/02/22-rdf-syntax-ns#">
   <cc:Work>
    <dc:type rdf:resource="http://purl.org/dc/dcmitype/StillImage"/>
    <dc:date>2025-01-14T09:39:02.642893</dc:date>
    <dc:format>image/svg+xml</dc:format>
    <dc:creator>
     <cc:Agent>
      <dc:title>Matplotlib v3.9.2, https://matplotlib.org/</dc:title>
     </cc:Agent>
    </dc:creator>
   </cc:Work>
  </rdf:RDF>
 </metadata>
 <defs>
  <style type="text/css">*{stroke-linejoin: round; stroke-linecap: butt}</style>
 </defs>
 <g id="figure_1">
  <g id="patch_1">
   <path d="M 0 137.75625 
L 356.720313 137.75625 
L 356.720313 0 
L 0 0 
z
" style="fill: #ffffff"/>
  </g>
  <g id="axes_1">
   <g id="patch_2">
    <path d="M 42.620313 100.2 
L 349.520313 100.2 
L 349.520313 7.2 
L 42.620313 7.2 
z
" style="fill: #ffffff"/>
   </g>
   <g id="matplotlib.axis_1">
    <g id="xtick_1">
     <g id="line2d_1">
      <defs>
       <path id="md4c99ad318" d="M 0 0 
L 0 3.5 
" style="stroke: #000000; stroke-width: 0.8"/>
      </defs>
      <g>
       <use xlink:href="#md4c99ad318" x="56.570313" y="100.2" style="stroke: #000000; stroke-width: 0.8"/>
      </g>
     </g>
     <g id="text_1">
      <!-- 0 -->
      <g transform="translate(53.389063 114.798438) scale(0.1 -0.1)">
       <defs>
        <path id="DejaVuSans-30" d="M 2034 4250 
Q 1547 4250 1301 3770 
Q 1056 3291 1056 2328 
Q 1056 1369 1301 889 
Q 1547 409 2034 409 
Q 2525 409 2770 889 
Q 3016 1369 3016 2328 
Q 3016 3291 2770 3770 
Q 2525 4250 2034 4250 
z
M 2034 4750 
Q 2819 4750 3233 4129 
Q 3647 3509 3647 2328 
Q 3647 1150 3233 529 
Q 2819 -91 2034 -91 
Q 1250 -91 836 529 
Q 422 1150 422 2328 
Q 422 3509 836 4129 
Q 1250 4750 2034 4750 
z
" transform="scale(0.015625)"/>
       </defs>
       <use xlink:href="#DejaVuSans-30"/>
      </g>
     </g>
    </g>
    <g id="xtick_2">
     <g id="line2d_2">
      <g>
       <use xlink:href="#md4c99ad318" x="112.075599" y="100.2" style="stroke: #000000; stroke-width: 0.8"/>
      </g>
     </g>
     <g id="text_2">
      <!-- 5 -->
      <g transform="translate(108.894349 114.798438) scale(0.1 -0.1)">
       <defs>
        <path id="DejaVuSans-35" d="M 691 4666 
L 3169 4666 
L 3169 4134 
L 1269 4134 
L 1269 2991 
Q 1406 3038 1543 3061 
Q 1681 3084 1819 3084 
Q 2600 3084 3056 2656 
Q 3513 2228 3513 1497 
Q 3513 744 3044 326 
Q 2575 -91 1722 -91 
Q 1428 -91 1123 -41 
Q 819 9 494 109 
L 494 744 
Q 775 591 1075 516 
Q 1375 441 1709 441 
Q 2250 441 2565 725 
Q 2881 1009 2881 1497 
Q 2881 1984 2565 2268 
Q 2250 2553 1709 2553 
Q 1456 2553 1204 2497 
Q 953 2441 691 2322 
L 691 4666 
z
" transform="scale(0.015625)"/>
       </defs>
       <use xlink:href="#DejaVuSans-35"/>
      </g>
     </g>
    </g>
    <g id="xtick_3">
     <g id="line2d_3">
      <g>
       <use xlink:href="#md4c99ad318" x="167.580885" y="100.2" style="stroke: #000000; stroke-width: 0.8"/>
      </g>
     </g>
     <g id="text_3">
      <!-- 10 -->
      <g transform="translate(161.218385 114.798438) scale(0.1 -0.1)">
       <defs>
        <path id="DejaVuSans-31" d="M 794 531 
L 1825 531 
L 1825 4091 
L 703 3866 
L 703 4441 
L 1819 4666 
L 2450 4666 
L 2450 531 
L 3481 531 
L 3481 0 
L 794 0 
L 794 531 
z
" transform="scale(0.015625)"/>
       </defs>
       <use xlink:href="#DejaVuSans-31"/>
       <use xlink:href="#DejaVuSans-30" x="63.623047"/>
      </g>
     </g>
    </g>
    <g id="xtick_4">
     <g id="line2d_4">
      <g>
       <use xlink:href="#md4c99ad318" x="223.086172" y="100.2" style="stroke: #000000; stroke-width: 0.8"/>
      </g>
     </g>
     <g id="text_4">
      <!-- 15 -->
      <g transform="translate(216.723672 114.798438) scale(0.1 -0.1)">
       <use xlink:href="#DejaVuSans-31"/>
       <use xlink:href="#DejaVuSans-35" x="63.623047"/>
      </g>
     </g>
    </g>
    <g id="xtick_5">
     <g id="line2d_5">
      <g>
       <use xlink:href="#md4c99ad318" x="278.591458" y="100.2" style="stroke: #000000; stroke-width: 0.8"/>
      </g>
     </g>
     <g id="text_5">
      <!-- 20 -->
      <g transform="translate(272.228958 114.798438) scale(0.1 -0.1)">
       <defs>
        <path id="DejaVuSans-32" d="M 1228 531 
L 3431 531 
L 3431 0 
L 469 0 
L 469 531 
Q 828 903 1448 1529 
Q 2069 2156 2228 2338 
Q 2531 2678 2651 2914 
Q 2772 3150 2772 3378 
Q 2772 3750 2511 3984 
Q 2250 4219 1831 4219 
Q 1534 4219 1204 4116 
Q 875 4013 500 3803 
L 500 4441 
Q 881 4594 1212 4672 
Q 1544 4750 1819 4750 
Q 2544 4750 2975 4387 
Q 3406 4025 3406 3419 
Q 3406 3131 3298 2873 
Q 3191 2616 2906 2266 
Q 2828 2175 2409 1742 
Q 1991 1309 1228 531 
z
" transform="scale(0.015625)"/>
       </defs>
       <use xlink:href="#DejaVuSans-32"/>
       <use xlink:href="#DejaVuSans-30" x="63.623047"/>
      </g>
     </g>
    </g>
    <g id="xtick_6">
     <g id="line2d_6">
      <g>
       <use xlink:href="#md4c99ad318" x="334.096745" y="100.2" style="stroke: #000000; stroke-width: 0.8"/>
      </g>
     </g>
     <g id="text_6">
      <!-- 25 -->
      <g transform="translate(327.734245 114.798438) scale(0.1 -0.1)">
       <use xlink:href="#DejaVuSans-32"/>
       <use xlink:href="#DejaVuSans-35" x="63.623047"/>
      </g>
     </g>
    </g>
    <g id="text_7">
     <!-- t -->
     <g transform="translate(194.110156 128.476563) scale(0.1 -0.1)">
      <defs>
       <path id="DejaVuSans-74" d="M 1172 4494 
L 1172 3500 
L 2356 3500 
L 2356 3053 
L 1172 3053 
L 1172 1153 
Q 1172 725 1289 603 
Q 1406 481 1766 481 
L 2356 481 
L 2356 0 
L 1766 0 
Q 1100 0 847 248 
Q 594 497 594 1153 
L 594 3053 
L 172 3053 
L 172 3500 
L 594 3500 
L 594 4494 
L 1172 4494 
z
" transform="scale(0.015625)"/>
      </defs>
      <use xlink:href="#DejaVuSans-74"/>
     </g>
    </g>
   </g>
   <g id="matplotlib.axis_2">
    <g id="ytick_1">
     <g id="line2d_7">
      <defs>
       <path id="mfc241201d8" d="M 0 0 
L -3.5 0 
" style="stroke: #000000; stroke-width: 0.8"/>
      </defs>
      <g>
       <use xlink:href="#mfc241201d8" x="42.620313" y="84.7" style="stroke: #000000; stroke-width: 0.8"/>
      </g>
     </g>
     <g id="text_8">
      <!-- −1 -->
      <g transform="translate(20.878125 88.499219) scale(0.1 -0.1)">
       <defs>
        <path id="DejaVuSans-2212" d="M 678 2272 
L 4684 2272 
L 4684 1741 
L 678 1741 
L 678 2272 
z
" transform="scale(0.015625)"/>
       </defs>
       <use xlink:href="#DejaVuSans-2212"/>
       <use xlink:href="#DejaVuSans-31" x="83.789062"/>
      </g>
     </g>
    </g>
    <g id="ytick_2">
     <g id="line2d_8">
      <g>
       <use xlink:href="#mfc241201d8" x="42.620313" y="53.7" style="stroke: #000000; stroke-width: 0.8"/>
      </g>
     </g>
     <g id="text_9">
      <!-- 0 -->
      <g transform="translate(29.257813 57.499219) scale(0.1 -0.1)">
       <use xlink:href="#DejaVuSans-30"/>
      </g>
     </g>
    </g>
    <g id="ytick_3">
     <g id="line2d_9">
      <g>
       <use xlink:href="#mfc241201d8" x="42.620313" y="22.7" style="stroke: #000000; stroke-width: 0.8"/>
      </g>
     </g>
     <g id="text_10">
      <!-- 1 -->
      <g transform="translate(29.257813 26.499219) scale(0.1 -0.1)">
       <use xlink:href="#DejaVuSans-31"/>
      </g>
     </g>
    </g>
    <g id="text_11">
     <!-- x -->
     <g transform="translate(14.798438 56.659375) rotate(-90) scale(0.1 -0.1)">
      <defs>
       <path id="DejaVuSans-78" d="M 3513 3500 
L 2247 1797 
L 3578 0 
L 2900 0 
L 1881 1375 
L 863 0 
L 184 0 
L 1544 1831 
L 300 3500 
L 978 3500 
L 1906 2253 
L 2834 3500 
L 3513 3500 
z
" transform="scale(0.015625)"/>
      </defs>
      <use xlink:href="#DejaVuSans-78"/>
     </g>
    </g>
   </g>
   <g id="line2d_10">
    <path d="M 56.570313 53.7 
L 60.933949 41.82582 
L 63.115767 36.462484 
L 65.024858 32.307551 
L 66.661222 29.24434 
L 68.024858 27.094367 
L 69.388494 25.34535 
L 70.479403 24.25275 
L 71.570312 23.444298 
L 72.661222 22.927794 
L 73.752131 22.708222 
L 74.570312 22.739788 
L 75.661222 23.043211 
L 76.752131 23.642452 
L 77.84304 24.531729 
L 78.933949 25.702462 
L 80.297585 27.544214 
L 81.661222 29.780143 
L 83.297585 32.935736 
L 85.206676 37.181104 
L 87.388494 42.621707 
L 90.388494 50.753263 
L 91.479403 53.7 
L 126.115767 53.7 
L 126.388494 53.509602 
L 130.752131 41.650167 
L 132.933949 36.30456 
L 134.84304 32.170156 
L 136.479403 29.127795 
L 137.84304 26.997149 
L 139.206676 25.268924 
L 140.297585 24.193802 
L 141.388494 23.403397 
L 142.479403 22.905335 
L 143.570312 22.704422 
L 144.388494 22.750016 
L 145.479403 23.072042 
L 146.570313 23.689609 
L 147.661222 24.596758 
L 148.752131 25.784734 
L 150.115767 27.646906 
L 151.479403 29.901706 
L 153.115767 33.077504 
L 155.024858 37.34253 
L 157.206676 42.799741 
L 160.479403 51.70219 
L 161.297585 53.7 
L 195.933949 53.7 
L 196.206676 53.31921 
L 200.297585 42.178464 
L 202.752131 36.147291 
L 204.661222 32.033574 
L 206.297585 29.012178 
L 207.661222 26.900939 
L 209.024858 25.19357 
L 210.115767 24.135968 
L 211.206676 23.363639 
L 212.297585 22.884038 
L 213.388494 22.701791 
L 214.206676 22.761411 
L 215.297585 23.102029 
L 216.388494 23.737899 
L 217.479403 24.662884 
L 218.570312 25.868059 
L 219.933949 27.75058 
L 221.297585 30.024167 
L 222.933949 33.220049 
L 224.84304 37.504574 
L 227.024858 42.978187 
L 230.297585 51.89223 
L 230.84304 53.414405 
L 231.115767 53.7 
L 265.752131 53.7 
L 266.297585 52.367614 
L 270.115767 42.001921 
L 272.570313 35.990685 
L 274.479403 31.897809 
L 276.115767 28.897492 
L 277.479403 26.805739 
L 278.84304 25.119292 
L 279.933949 24.079248 
L 281.024858 23.325026 
L 282.115767 22.863903 
L 283.206676 22.700329 
L 284.024858 22.773973 
L 285.115767 23.133171 
L 286.206676 23.787319 
L 287.297585 24.730106 
L 288.388494 25.952435 
L 289.752131 27.855233 
L 291.115767 30.147521 
L 292.752131 33.363368 
L 294.661222 37.667228 
L 296.84304 43.157037 
L 300.115767 52.082339 
L 300.661222 53.6048 
L 301.206676 53.7 
L 335.570312 53.7 
L 335.570312 53.7 
" clip-path="url(#pf4c88cb11d)" style="fill: none; stroke-dasharray: 5.55,2.4; stroke-dashoffset: 0; stroke: #1f77b4; stroke-width: 1.5"/>
   </g>
   <g id="line2d_11">
    <path d="M 56.570313 53.7 
L 59.570313 53.599876 
L 61.206676 53.33973 
L 62.84304 52.839921 
L 64.206676 52.207979 
L 65.84304 51.178802 
L 67.479403 49.872216 
L 69.661222 47.793658 
L 74.84304 42.621366 
L 76.479403 41.396344 
L 77.84304 40.684619 
L 78.933949 40.360734 
L 80.024858 40.281179 
L 81.115767 40.462877 
L 82.206676 40.915155 
L 83.297585 41.639229 
L 84.388494 42.627978 
L 85.752131 44.211914 
L 87.115767 46.137573 
L 89.024858 49.282419 
L 92.297585 55.280436 
L 94.479403 59.071392 
L 95.84304 61.057083 
L 96.933949 62.332405 
L 98.024858 63.275342 
L 98.84304 63.742053 
L 99.661222 63.990959 
L 100.479403 64.016661 
L 101.297585 63.818604 
L 102.115767 63.401081 
L 102.933949 62.773149 
L 104.024858 61.632765 
L 105.388494 59.784045 
L 107.024858 57.094692 
L 112.752131 47.065968 
L 114.115767 45.338293 
L 115.206676 44.313696 
L 116.024858 43.780781 
L 116.84304 43.463006 
L 117.661222 43.367264 
L 118.479403 43.495631 
L 119.297585 43.845323 
L 120.115767 44.408755 
L 121.206676 45.470726 
L 122.297585 46.84956 
L 123.661222 48.936809 
L 125.570313 52.307982 
L 128.84304 58.176632 
L 130.206676 60.14335 
L 131.297585 61.330523 
L 132.115767 61.946611 
L 132.933949 62.300051 
L 133.752131 62.372683 
L 134.570312 62.152944 
L 135.388494 61.636184 
L 136.206676 60.824809 
L 137.024858 59.728282 
L 138.115767 57.851898 
L 139.479403 54.923776 
L 141.115767 50.760458 
L 146.570313 36.174356 
L 147.661222 33.975069 
L 148.752131 32.255354 
L 149.570312 31.327677 
L 150.388494 30.739733 
L 150.933949 30.546344 
L 151.479403 30.516691 
L 152.024858 30.653344 
L 152.570312 30.957407 
L 153.388494 31.726161 
L 154.206676 32.862856 
L 155.024858 34.352568 
L 156.115767 36.848918 
L 157.479403 40.686473 
L 159.115767 46.103293 
L 162.115767 57.111505 
L 164.024858 63.785018 
L 165.388494 67.869499 
L 166.479403 70.53457 
L 167.297585 72.112694 
L 168.115767 73.291461 
L 168.933949 74.045304 
L 169.479403 74.303331 
L 170.024858 74.362549 
L 170.570312 74.222387 
L 171.115767 73.884197 
L 171.933949 73.013262 
L 172.752131 71.723438 
L 173.570313 70.042699 
L 174.661222 67.257755 
L 176.024858 63.057014 
L 177.933949 56.295257 
L 181.479403 43.559633 
L 182.84304 39.484367 
L 183.933949 36.828696 
L 184.752131 35.258571 
L 185.570312 34.088427 
L 186.388494 33.343643 
L 186.933949 33.091801 
L 187.479403 33.038815 
L 188.024858 33.185196 
L 188.570312 33.529532 
L 189.388494 34.409418 
L 190.206676 35.707703 
L 191.024858 37.396227 
L 192.115767 40.19021 
L 193.479403 44.399619 
L 195.388494 51.167719 
L 198.661222 62.935585 
L 200.024858 66.983542 
L 201.115767 69.543228 
L 201.933949 70.982537 
L 202.752131 71.962324 
L 203.297585 72.344115 
L 203.84304 72.500691 
L 204.388494 72.427675 
L 204.933949 72.123023 
L 205.479403 71.587045 
L 206.297585 70.355836 
L 207.115767 68.62957 
L 208.206676 65.611779 
L 209.297585 61.87052 
L 210.661222 56.379997 
L 212.84304 46.47179 
L 215.570312 34.164578 
L 216.933949 28.902441 
L 218.024858 25.431988 
L 218.84304 23.356906 
L 219.661222 21.79096 
L 220.479403 20.774241 
L 221.024858 20.41633 
L 221.570312 20.321314 
L 222.115767 20.492482 
L 222.661222 20.930688 
L 223.206676 21.634338 
L 224.024858 23.178043 
L 224.84304 25.285657 
L 225.933949 28.910217 
L 227.024858 33.359214 
L 228.388494 39.857426 
L 230.570312 51.606999 
L 233.570312 67.820338 
L 234.933949 74.108388 
L 236.024858 78.272205 
L 237.115767 81.489884 
L 237.933949 83.206198 
L 238.479403 83.996603 
L 239.024858 84.494665 
L 239.570312 84.695578 
L 240.115767 84.597404 
L 240.661222 84.201088 
L 241.206676 83.510457 
L 242.024858 81.938006 
L 242.84304 79.753094 
L 243.933949 75.970857 
L 245.024858 71.331095 
L 246.661222 63.161748 
L 252.115767 34.38777 
L 253.206676 30.024167 
L 254.297585 26.572187 
L 255.115767 24.662884 
L 255.933949 23.383375 
L 256.479403 22.894541 
L 257.024858 22.70296 
L 257.570312 22.810481 
L 258.115767 23.216066 
L 258.661222 23.915802 
L 259.479403 25.501408 
L 260.297585 27.69862 
L 261.388494 31.49547 
L 262.479403 36.147291 
L 264.115767 44.328953 
L 269.297585 71.720164 
L 270.388494 76.084182 
L 271.479403 79.467045 
L 272.297585 81.264521 
L 272.84304 82.081705 
L 273.388494 82.580816 
L 273.933949 82.75413 
L 274.479403 82.597181 
L 275.024858 82.108808 
L 275.570312 81.291177 
L 276.388494 79.460245 
L 277.206676 76.933731 
L 278.297585 72.56814 
L 279.388494 67.207148 
L 280.752131 59.406626 
L 283.206676 43.699971 
L 285.661222 28.432341 
L 287.024858 21.251663 
L 288.115767 16.575738 
L 288.933949 13.820702 
L 289.752131 11.78409 
L 290.297585 10.851119 
L 290.84304 10.271382 
L 291.388494 10.052721 
L 291.933949 10.199635 
L 292.479403 10.713228 
L 293.024858 11.591197 
L 293.570312 12.827841 
L 294.388494 15.33464 
L 295.206676 18.583154 
L 296.297585 23.962857 
L 297.661222 32.110901 
L 299.297585 43.390876 
L 303.933949 76.471922 
L 305.297585 84.177703 
L 306.388494 89.043215 
L 307.206676 91.807611 
L 308.024858 93.745482 
L 308.570313 94.556691 
L 309.115767 94.973659 
L 309.661222 94.992362 
L 310.206676 94.61262 
L 310.752131 93.838097 
L 311.297585 92.676266 
L 312.115767 90.232839 
L 312.933949 86.997043 
L 314.024858 81.573665 
L 315.388494 73.313712 
L 317.297585 59.896273 
L 320.84304 34.31012 
L 322.206676 26.014314 
L 323.297585 20.553999 
L 324.115767 17.286596 
L 324.933949 14.808972 
L 325.479403 13.623269 
L 326.024858 12.824281 
L 326.570312 12.419718 
L 327.115767 12.413483 
L 327.661222 12.805638 
L 328.206676 13.592397 
L 328.752131 14.766169 
L 329.570312 17.226706 
L 330.388494 20.478321 
L 331.479403 25.920194 
L 332.84304 34.198112 
L 334.752131 47.629255 
L 335.570312 53.7 
L 335.570312 53.7 
" clip-path="url(#pf4c88cb11d)" style="fill: none; stroke: #ff7f0e; stroke-width: 1.5; stroke-linecap: square"/>
   </g>
   <g id="line2d_12">
    <path d="M 56.570313 43.587773 
L 335.570312 3.742989 
L 335.570312 3.742989 
" clip-path="url(#pf4c88cb11d)" style="fill: none; stroke-dasharray: 1.5,2.475; stroke-dashoffset: 0; stroke: #000000; stroke-width: 1.5"/>
   </g>
   <g id="patch_3">
    <path d="M 42.620313 100.2 
L 42.620313 7.2 
" style="fill: none; stroke: #000000; stroke-width: 0.8; stroke-linejoin: miter; stroke-linecap: square"/>
   </g>
   <g id="patch_4">
    <path d="M 349.520313 100.2 
L 349.520313 7.2 
" style="fill: none; stroke: #000000; stroke-width: 0.8; stroke-linejoin: miter; stroke-linecap: square"/>
   </g>
   <g id="patch_5">
    <path d="M 42.620313 100.2 
L 349.520313 100.2 
" style="fill: none; stroke: #000000; stroke-width: 0.8; stroke-linejoin: miter; stroke-linecap: square"/>
   </g>
   <g id="patch_6">
    <path d="M 42.620313 7.2 
L 349.520313 7.2 
" style="fill: none; stroke: #000000; stroke-width: 0.8; stroke-linejoin: miter; stroke-linecap: square"/>
   </g>
   <g id="legend_1">
    <g id="patch_7">
     <path d="M 49.620313 95.2 
L 92.620313 95.2 
Q 94.620313 95.2 94.620313 93.2 
L 94.620313 64.84375 
Q 94.620313 62.84375 92.620313 62.84375 
L 49.620313 62.84375 
Q 47.620313 62.84375 47.620313 64.84375 
L 47.620313 93.2 
Q 47.620313 95.2 49.620313 95.2 
z
" style="fill: #ffffff; opacity: 0.8; stroke: #cccccc; stroke-linejoin: miter"/>
    </g>
    <g id="line2d_13">
     <path d="M 51.620313 70.942188 
L 61.620313 70.942188 
L 71.620313 70.942188 
" style="fill: none; stroke-dasharray: 5.55,2.4; stroke-dashoffset: 0; stroke: #1f77b4; stroke-width: 1.5"/>
    </g>
    <g id="text_12">
     <!-- $x_A$ -->
     <g transform="translate(79.620313 74.442188) scale(0.1 -0.1)">
      <defs>
       <path id="DejaVuSans-Oblique-78" d="M 3841 3500 
L 2234 1784 
L 3219 0 
L 2559 0 
L 1819 1388 
L 531 0 
L -166 0 
L 1556 1844 
L 641 3500 
L 1300 3500 
L 1972 2234 
L 3144 3500 
L 3841 3500 
z
" transform="scale(0.015625)"/>
       <path id="DejaVuSans-Oblique-41" d="M 2356 4666 
L 3072 4666 
L 3938 0 
L 3278 0 
L 3084 1197 
L 984 1197 
L 325 0 
L -341 0 
L 2356 4666 
z
M 2584 4044 
L 1275 1722 
L 2988 1722 
L 2584 4044 
z
" transform="scale(0.015625)"/>
      </defs>
      <use xlink:href="#DejaVuSans-Oblique-78" transform="translate(0 0.3125)"/>
      <use xlink:href="#DejaVuSans-Oblique-41" transform="translate(59.179688 -16.09375) scale(0.7)"/>
     </g>
    </g>
    <g id="line2d_14">
     <path d="M 51.620313 85.620313 
L 61.620313 85.620313 
L 71.620313 85.620313 
" style="fill: none; stroke: #ff7f0e; stroke-width: 1.5; stroke-linecap: square"/>
    </g>
    <g id="text_13">
     <!-- $x$ -->
     <g transform="translate(79.620313 89.120313) scale(0.1 -0.1)">
      <use xlink:href="#DejaVuSans-Oblique-78" transform="translate(0 0.3125)"/>
     </g>
    </g>
   </g>
  </g>
 </g>
 <defs>
  <clipPath id="pf4c88cb11d">
   <rect x="42.620313" y="7.2" width="306.9" height="93"/>
  </clipPath>
 </defs>
</svg>
