<?xml version="1.0" encoding="utf-8" standalone="no"?>
<!DOCTYPE svg PUBLIC "-//W3C//DTD SVG 1.1//EN"
  "http://www.w3.org/Graphics/SVG/1.1/DTD/svg11.dtd">
<svg xmlns:xlink="http://www.w3.org/1999/xlink" width="440.420313pt" height="163.119886pt" viewBox="0 0 440.420313 163.119886" xmlns="http://www.w3.org/2000/svg" version="1.1">
 <metadata>
  <rdf:RDF xmlns:dc="http://purl.org/dc/elements/1.1/" xmlns:cc="http://creativecommons.org/ns#" xmlns:rdf="http://www.w3.org/1999/02/22-rdf-syntax-ns#">
   <cc:Work>
    <dc:type rdf:resource="http://purl.org/dc/dcmitype/StillImage"/>
    <dc:date>2025-01-14T12:28:31.880003</dc:date>
    <dc:format>image/svg+xml</dc:format>
    <dc:creator>
     <cc:Agent>
      <dc:title>Matplotlib v3.9.2, https://matplotlib.org/</dc:title>
     </cc:Agent>
    </dc:creator>
   </cc:Work>
  </rdf:RDF>
 </metadata>
 <defs>
  <style type="text/css">*{stroke-linejoin: round; stroke-linecap: butt}</style>
 </defs>
 <g id="figure_1">
  <g id="patch_1">
   <path d="M 0 163.119886 
L 440.420313 163.119886 
L 440.420313 0 
L 0 0 
z
" style="fill: #ffffff"/>
  </g>
  <g id="axes_1">
   <g id="patch_2">
    <path d="M 42.620312 125.563636 
L 433.220313 125.563636 
L 433.220313 7.2 
L 42.620312 7.2 
z
" style="fill: #ffffff"/>
   </g>
   <g id="matplotlib.axis_1">
    <g id="xtick_1">
     <g id="line2d_1">
      <defs>
       <path id="m35fbe6ed49" d="M 0 0 
L 0 3.5 
" style="stroke: #000000; stroke-width: 0.8"/>
      </defs>
      <g>
       <use xlink:href="#m35fbe6ed49" x="60.374858" y="125.563636" style="stroke: #000000; stroke-width: 0.8"/>
      </g>
     </g>
     <g id="text_1">
      <!-- 0 -->
      <g transform="translate(57.193608 140.162074) scale(0.1 -0.1)">
       <defs>
        <path id="DejaVuSans-30" d="M 2034 4250 
Q 1547 4250 1301 3770 
Q 1056 3291 1056 2328 
Q 1056 1369 1301 889 
Q 1547 409 2034 409 
Q 2525 409 2770 889 
Q 3016 1369 3016 2328 
Q 3016 3291 2770 3770 
Q 2525 4250 2034 4250 
z
M 2034 4750 
Q 2819 4750 3233 4129 
Q 3647 3509 3647 2328 
Q 3647 1150 3233 529 
Q 2819 -91 2034 -91 
Q 1250 -91 836 529 
Q 422 1150 422 2328 
Q 422 3509 836 4129 
Q 1250 4750 2034 4750 
z
" transform="scale(0.015625)"/>
       </defs>
       <use xlink:href="#DejaVuSans-30"/>
      </g>
     </g>
    </g>
    <g id="xtick_2">
     <g id="line2d_2">
      <g>
       <use xlink:href="#m35fbe6ed49" x="131.01795" y="125.563636" style="stroke: #000000; stroke-width: 0.8"/>
      </g>
     </g>
     <g id="text_2">
      <!-- 5 -->
      <g transform="translate(127.8367 140.162074) scale(0.1 -0.1)">
       <defs>
        <path id="DejaVuSans-35" d="M 691 4666 
L 3169 4666 
L 3169 4134 
L 1269 4134 
L 1269 2991 
Q 1406 3038 1543 3061 
Q 1681 3084 1819 3084 
Q 2600 3084 3056 2656 
Q 3513 2228 3513 1497 
Q 3513 744 3044 326 
Q 2575 -91 1722 -91 
Q 1428 -91 1123 -41 
Q 819 9 494 109 
L 494 744 
Q 775 591 1075 516 
Q 1375 441 1709 441 
Q 2250 441 2565 725 
Q 2881 1009 2881 1497 
Q 2881 1984 2565 2268 
Q 2250 2553 1709 2553 
Q 1456 2553 1204 2497 
Q 953 2441 691 2322 
L 691 4666 
z
" transform="scale(0.015625)"/>
       </defs>
       <use xlink:href="#DejaVuSans-35"/>
      </g>
     </g>
    </g>
    <g id="xtick_3">
     <g id="line2d_3">
      <g>
       <use xlink:href="#m35fbe6ed49" x="201.661042" y="125.563636" style="stroke: #000000; stroke-width: 0.8"/>
      </g>
     </g>
     <g id="text_3">
      <!-- 10 -->
      <g transform="translate(195.298542 140.162074) scale(0.1 -0.1)">
       <defs>
        <path id="DejaVuSans-31" d="M 794 531 
L 1825 531 
L 1825 4091 
L 703 3866 
L 703 4441 
L 1819 4666 
L 2450 4666 
L 2450 531 
L 3481 531 
L 3481 0 
L 794 0 
L 794 531 
z
" transform="scale(0.015625)"/>
       </defs>
       <use xlink:href="#DejaVuSans-31"/>
       <use xlink:href="#DejaVuSans-30" x="63.623047"/>
      </g>
     </g>
    </g>
    <g id="xtick_4">
     <g id="line2d_4">
      <g>
       <use xlink:href="#m35fbe6ed49" x="272.304133" y="125.563636" style="stroke: #000000; stroke-width: 0.8"/>
      </g>
     </g>
     <g id="text_4">
      <!-- 15 -->
      <g transform="translate(265.941633 140.162074) scale(0.1 -0.1)">
       <use xlink:href="#DejaVuSans-31"/>
       <use xlink:href="#DejaVuSans-35" x="63.623047"/>
      </g>
     </g>
    </g>
    <g id="xtick_5">
     <g id="line2d_5">
      <g>
       <use xlink:href="#m35fbe6ed49" x="342.947225" y="125.563636" style="stroke: #000000; stroke-width: 0.8"/>
      </g>
     </g>
     <g id="text_5">
      <!-- 20 -->
      <g transform="translate(336.584725 140.162074) scale(0.1 -0.1)">
       <defs>
        <path id="DejaVuSans-32" d="M 1228 531 
L 3431 531 
L 3431 0 
L 469 0 
L 469 531 
Q 828 903 1448 1529 
Q 2069 2156 2228 2338 
Q 2531 2678 2651 2914 
Q 2772 3150 2772 3378 
Q 2772 3750 2511 3984 
Q 2250 4219 1831 4219 
Q 1534 4219 1204 4116 
Q 875 4013 500 3803 
L 500 4441 
Q 881 4594 1212 4672 
Q 1544 4750 1819 4750 
Q 2544 4750 2975 4387 
Q 3406 4025 3406 3419 
Q 3406 3131 3298 2873 
Q 3191 2616 2906 2266 
Q 2828 2175 2409 1742 
Q 1991 1309 1228 531 
z
" transform="scale(0.015625)"/>
       </defs>
       <use xlink:href="#DejaVuSans-32"/>
       <use xlink:href="#DejaVuSans-30" x="63.623047"/>
      </g>
     </g>
    </g>
    <g id="xtick_6">
     <g id="line2d_6">
      <g>
       <use xlink:href="#m35fbe6ed49" x="413.590317" y="125.563636" style="stroke: #000000; stroke-width: 0.8"/>
      </g>
     </g>
     <g id="text_6">
      <!-- 25 -->
      <g transform="translate(407.227817 140.162074) scale(0.1 -0.1)">
       <use xlink:href="#DejaVuSans-32"/>
       <use xlink:href="#DejaVuSans-35" x="63.623047"/>
      </g>
     </g>
    </g>
    <g id="text_7">
     <!-- t -->
     <g transform="translate(235.960156 153.840199) scale(0.1 -0.1)">
      <defs>
       <path id="DejaVuSans-74" d="M 1172 4494 
L 1172 3500 
L 2356 3500 
L 2356 3053 
L 1172 3053 
L 1172 1153 
Q 1172 725 1289 603 
Q 1406 481 1766 481 
L 2356 481 
L 2356 0 
L 1766 0 
Q 1100 0 847 248 
Q 594 497 594 1153 
L 594 3053 
L 172 3053 
L 172 3500 
L 594 3500 
L 594 4494 
L 1172 4494 
z
" transform="scale(0.015625)"/>
      </defs>
      <use xlink:href="#DejaVuSans-74"/>
     </g>
    </g>
   </g>
   <g id="matplotlib.axis_2">
    <g id="ytick_1">
     <g id="line2d_7">
      <defs>
       <path id="mbaa2250d4b" d="M 0 0 
L -3.5 0 
" style="stroke: #000000; stroke-width: 0.8"/>
      </defs>
      <g>
       <use xlink:href="#mbaa2250d4b" x="42.620312" y="105.836364" style="stroke: #000000; stroke-width: 0.8"/>
      </g>
     </g>
     <g id="text_8">
      <!-- −1 -->
      <g transform="translate(20.878125 109.635582) scale(0.1 -0.1)">
       <defs>
        <path id="DejaVuSans-2212" d="M 678 2272 
L 4684 2272 
L 4684 1741 
L 678 1741 
L 678 2272 
z
" transform="scale(0.015625)"/>
       </defs>
       <use xlink:href="#DejaVuSans-2212"/>
       <use xlink:href="#DejaVuSans-31" x="83.789062"/>
      </g>
     </g>
    </g>
    <g id="ytick_2">
     <g id="line2d_8">
      <g>
       <use xlink:href="#mbaa2250d4b" x="42.620312" y="66.381818" style="stroke: #000000; stroke-width: 0.8"/>
      </g>
     </g>
     <g id="text_9">
      <!-- 0 -->
      <g transform="translate(29.257812 70.181037) scale(0.1 -0.1)">
       <use xlink:href="#DejaVuSans-30"/>
      </g>
     </g>
    </g>
    <g id="ytick_3">
     <g id="line2d_9">
      <g>
       <use xlink:href="#mbaa2250d4b" x="42.620312" y="26.927273" style="stroke: #000000; stroke-width: 0.8"/>
      </g>
     </g>
     <g id="text_10">
      <!-- 1 -->
      <g transform="translate(29.257812 30.726491) scale(0.1 -0.1)">
       <use xlink:href="#DejaVuSans-31"/>
      </g>
     </g>
    </g>
    <g id="text_11">
     <!-- x -->
     <g transform="translate(14.798437 69.341193) rotate(-90) scale(0.1 -0.1)">
      <defs>
       <path id="DejaVuSans-78" d="M 3513 3500 
L 2247 1797 
L 3578 0 
L 2900 0 
L 1881 1375 
L 863 0 
L 184 0 
L 1544 1831 
L 300 3500 
L 978 3500 
L 1906 2253 
L 2834 3500 
L 3513 3500 
z
" transform="scale(0.015625)"/>
      </defs>
      <use xlink:href="#DejaVuSans-78"/>
     </g>
    </g>
   </g>
   <g id="line2d_10">
    <path d="M 60.374858 66.381818 
L 65.58147 52.169077 
L 68.358329 45.25534 
L 70.440974 40.590401 
L 72.523618 36.484858 
L 74.259155 33.555542 
L 75.647585 31.566401 
L 77.036015 29.913208 
L 78.424445 28.611913 
L 79.812874 27.675074 
L 80.854197 27.217192 
L 81.895519 26.971961 
L 82.936841 26.940714 
L 83.978164 27.123619 
L 85.019486 27.519683 
L 86.060808 28.126756 
L 87.102131 28.941543 
L 88.49056 30.343227 
L 89.87899 32.092661 
L 91.26742 34.172964 
L 93.002957 37.207757 
L 94.738494 40.682213 
L 96.821139 45.357769 
L 99.250891 51.381219 
L 102.374858 59.749474 
L 104.80461 66.381818 
L 148.887255 66.381818 
L 149.234362 66.139493 
L 154.093866 52.849624 
L 156.870726 45.872868 
L 158.95337 41.144893 
L 161.036015 36.964287 
L 162.771552 33.964399 
L 164.507089 31.453052 
L 165.895519 29.82142 
L 167.283949 28.542571 
L 168.672379 27.628848 
L 169.713701 27.188608 
L 170.755023 26.961174 
L 171.796346 26.947782 
L 172.837668 27.148504 
L 173.87899 27.562251 
L 174.920313 28.186775 
L 176.308742 29.341328 
L 177.697172 30.853298 
L 179.085602 32.708095 
L 180.821139 35.481127 
L 182.556676 38.719841 
L 184.639321 43.151826 
L 187.069073 48.951897 
L 189.845932 56.199492 
L 193.664114 66.381818 
L 237.746759 66.381818 
L 238.093866 65.897177 
L 242.95337 52.622253 
L 245.73023 45.666241 
L 247.812874 40.959101 
L 249.895519 36.80336 
L 251.631056 33.826884 
L 253.366593 31.341021 
L 254.755023 29.731011 
L 256.143453 28.474657 
L 257.184775 27.771904 
L 258.226098 27.278791 
L 259.26742 26.997995 
L 260.308742 26.93104 
L 261.350065 27.07829 
L 262.391387 27.438947 
L 263.432709 28.01105 
L 264.474032 28.791494 
L 265.862461 30.148689 
L 267.250891 31.85551 
L 268.639321 33.895488 
L 270.374858 36.883684 
L 272.110395 40.316426 
L 274.19304 44.949252 
L 276.622792 50.934104 
L 279.746759 59.27223 
L 282.176511 66.018333 
L 282.523618 66.381818 
L 326.606263 66.381818 
L 327.300478 64.686054 
L 331.812874 52.395401 
L 334.589734 45.460396 
L 336.672379 40.774268 
L 338.755023 36.643548 
L 340.49056 33.690596 
L 341.87899 31.681064 
L 343.26742 30.006371 
L 344.65585 28.682679 
L 346.044279 27.72276 
L 347.085602 27.247253 
L 348.126924 26.984235 
L 349.168246 26.935133 
L 350.209569 27.100214 
L 351.250891 27.478581 
L 352.292213 28.068181 
L 353.333536 28.865811 
L 354.721965 30.245276 
L 356.110395 31.973437 
L 357.498825 34.033616 
L 359.234362 37.045168 
L 360.969899 40.498831 
L 363.052544 45.15311 
L 365.482296 51.157375 
L 368.606263 59.510722 
L 371.036015 66.260655 
L 371.383122 66.381818 
L 415.465767 66.381818 
L 415.465767 66.381818 
" clip-path="url(#pa977a7a568)" style="fill: none; stroke-dasharray: 5.55,2.4; stroke-dashoffset: 0; stroke: #1f77b4; stroke-width: 1.5"/>
   </g>
   <g id="line2d_11">
    <path d="M 60.374858 66.381818 
L 63.845932 66.285773 
L 65.928577 65.997619 
L 67.664114 65.537315 
L 69.399651 64.835866 
L 71.135189 63.874543 
L 72.870726 62.655538 
L 74.95337 60.887622 
L 77.383122 58.510534 
L 83.283949 52.581925 
L 85.019486 51.191387 
L 86.407916 50.312144 
L 87.796346 49.686096 
L 89.184775 49.349107 
L 90.226098 49.303319 
L 91.26742 49.444764 
L 92.308742 49.778993 
L 93.350065 50.308326 
L 94.738494 51.315355 
L 96.126924 52.655321 
L 97.515354 54.306073 
L 99.250891 56.756912 
L 101.333536 60.155485 
L 104.110395 65.171256 
L 107.928577 72.082848 
L 109.664114 74.794127 
L 111.052544 76.606277 
L 112.440974 78.02474 
L 113.482296 78.796743 
L 114.523618 79.299475 
L 115.564941 79.522033 
L 116.606263 79.459589 
L 117.647585 79.113499 
L 118.688908 78.491268 
L 119.73023 77.606392 
L 121.11866 76.051942 
L 122.507089 74.125149 
L 124.242627 71.307214 
L 127.019486 66.260657 
L 130.143453 60.64442 
L 131.87899 57.938505 
L 133.26742 56.132006 
L 134.65585 54.720169 
L 135.697172 53.953626 
L 136.738494 53.45664 
L 137.779817 53.239992 
L 138.821139 53.30838 
L 139.862461 53.660321 
L 140.903784 54.288181 
L 141.945106 55.178344 
L 143.333536 56.739113 
L 144.721965 58.671169 
L 146.457503 61.493894 
L 149.234362 66.543364 
L 152.011222 71.514003 
L 153.746759 74.130982 
L 155.135189 75.762875 
L 156.176511 76.651903 
L 157.217833 77.216131 
L 157.912048 77.398766 
L 158.606263 77.419778 
L 159.300478 77.275228 
L 159.994693 76.962917 
L 161.036015 76.179448 
L 162.077337 75.024038 
L 163.11866 73.511685 
L 164.507089 70.982061 
L 165.895519 67.939351 
L 167.631056 63.570904 
L 170.407916 55.856407 
L 173.184775 48.250995 
L 174.920313 44.076453 
L 176.308742 41.277361 
L 177.350065 39.572806 
L 178.391387 38.254932 
L 179.432709 37.35935 
L 180.126924 37.010822 
L 180.821139 36.868362 
L 181.515354 36.93616 
L 182.209569 37.216558 
L 182.903784 37.710019 
L 183.597998 38.415114 
L 184.639321 39.861816 
L 185.680643 41.757814 
L 186.721965 44.075054 
L 188.110395 47.755613 
L 189.845932 53.150317 
L 191.928577 60.446126 
L 197.135189 79.217296 
L 198.870726 84.415726 
L 200.259155 87.807634 
L 201.300478 89.816156 
L 202.3418 91.316405 
L 203.036015 92.017651 
L 203.73023 92.471528 
L 204.424445 92.673656 
L 205.11866 92.622084 
L 205.812874 92.31731 
L 206.507089 91.762275 
L 207.201304 90.962334 
L 208.242627 89.320739 
L 209.283949 87.181616 
L 210.672379 83.637143 
L 212.060808 79.428264 
L 214.143453 72.229168 
L 219.697172 52.365785 
L 221.085602 48.289195 
L 222.474032 44.909249 
L 223.515354 42.910909 
L 224.556676 41.421635 
L 225.250891 40.728028 
L 225.945106 40.281965 
L 226.639321 40.087748 
L 227.333536 40.147253 
L 228.027751 40.459905 
L 228.721965 41.022687 
L 229.41618 41.830169 
L 230.457503 43.482531 
L 231.498825 45.631561 
L 232.887255 49.18754 
L 234.275684 53.405573 
L 236.358329 60.61325 
L 241.564941 79.247051 
L 242.95337 83.288144 
L 243.994693 85.814252 
L 245.036015 87.829756 
L 246.077337 89.276868 
L 246.771552 89.903101 
L 247.465767 90.246578 
L 248.159982 90.300265 
L 248.854197 90.060069 
L 249.548412 89.524884 
L 250.242627 88.696614 
L 250.936841 87.580155 
L 251.978164 85.383089 
L 253.019486 82.594542 
L 254.407916 78.048813 
L 255.796346 72.704891 
L 257.87899 63.621739 
L 263.085602 40.091891 
L 264.474032 34.821288 
L 265.862461 30.404348 
L 266.903784 27.763334 
L 267.945106 25.770313 
L 268.639321 24.827397 
L 269.333536 24.207102 
L 270.027751 23.918161 
L 270.721965 23.966291 
L 271.41618 24.354133 
L 272.110395 25.081217 
L 272.80461 26.14396 
L 273.498825 27.535691 
L 274.540147 30.218109 
L 275.58147 33.573175 
L 276.969899 38.989027 
L 278.358329 45.319663 
L 280.440974 56.067406 
L 286.3418 87.712556 
L 287.73023 93.783437 
L 289.11866 98.799237 
L 290.159982 101.750762 
L 291.201304 103.935161 
L 291.895519 104.941131 
L 292.589734 105.575028 
L 293.283949 105.830736 
L 293.978164 105.705786 
L 294.672379 105.201385 
L 295.366593 104.3224 
L 296.060808 103.077312 
L 297.102131 100.550457 
L 298.143453 97.28251 
L 299.184775 93.34435 
L 300.573205 87.200416 
L 302.308742 78.424043 
L 306.126924 57.374698 
L 308.209569 46.602103 
L 309.597998 40.316426 
L 310.986428 35.034381 
L 312.027751 31.85551 
L 313.069073 29.425489 
L 313.763288 28.248235 
L 314.457503 27.438947 
L 315.151717 27.005432 
L 315.845932 26.951874 
L 316.540147 27.278791 
L 317.234362 27.983027 
L 317.928577 29.057788 
L 318.622792 30.492701 
L 319.664114 33.289153 
L 320.705436 36.80336 
L 322.093866 42.471697 
L 323.829403 50.822687 
L 326.259155 63.960074 
L 329.73023 82.762345 
L 331.465767 90.809351 
L 332.854197 96.072908 
L 333.895519 99.17624 
L 334.936841 101.463936 
L 335.631056 102.503988 
L 336.325271 103.13922 
L 337.019486 103.359802 
L 337.713701 103.160048 
L 338.407916 102.538483 
L 339.102131 101.497862 
L 339.796346 100.045155 
L 340.837668 97.118872 
L 341.87899 93.345857 
L 342.920313 88.799939 
L 344.308742 81.697092 
L 346.044279 71.517798 
L 349.168246 51.395767 
L 351.597998 36.232919 
L 353.333536 26.774825 
L 354.721965 20.490872 
L 355.763288 16.697296 
L 356.80461 13.792336 
L 357.498825 12.385179 
L 358.19304 11.421036 
L 358.887255 10.911981 
L 359.234362 10.830735 
L 359.58147 10.865877 
L 360.275684 11.286295 
L 360.969899 12.172473 
L 361.664114 13.51931 
L 362.358329 15.317414 
L 363.399651 18.829809 
L 364.440974 23.262978 
L 365.829403 30.461225 
L 367.217833 38.904783 
L 369.300478 53.261115 
L 375.201304 95.364264 
L 376.589734 103.379475 
L 377.978164 109.970114 
L 379.019486 113.823209 
L 380.060808 116.647337 
L 380.755023 117.927229 
L 381.449238 118.70974 
L 382.143453 118.987321 
L 382.49056 118.935733 
L 382.837668 118.757291 
L 383.531883 118.021871 
L 384.226098 116.788157 
L 384.920313 115.068054 
L 385.961635 111.613472 
L 387.002957 107.177849 
L 388.391387 99.906714 
L 389.779817 91.344724 
L 391.862461 76.813046 
L 397.069073 39.451736 
L 398.457503 31.145491 
L 399.845932 24.195998 
L 400.887255 20.037485 
L 401.928577 16.884146 
L 402.622792 15.375069 
L 403.317007 14.358176 
L 404.011222 13.843277 
L 404.358329 13.77582 
L 404.705436 13.835342 
L 405.052544 14.021702 
L 405.746759 14.772826 
L 406.440974 16.021945 
L 407.135189 17.757004 
L 408.176511 21.232866 
L 409.217833 25.687974 
L 410.606263 32.981577 
L 411.994693 41.561234 
L 414.077337 56.108982 
L 415.465767 66.381818 
L 415.465767 66.381818 
" clip-path="url(#pa977a7a568)" style="fill: none; stroke: #ff7f0e; stroke-width: 1.5; stroke-linecap: square"/>
   </g>
   <g id="line2d_12">
    <path d="M 60.374858 53.511712 
L 415.465767 2.800168 
L 415.465767 2.800168 
" clip-path="url(#pa977a7a568)" style="fill: none; stroke-dasharray: 1.5,2.475; stroke-dashoffset: 0; stroke: #000000; stroke-width: 1.5"/>
   </g>
   <g id="patch_3">
    <path d="M 42.620312 125.563636 
L 42.620312 7.2 
" style="fill: none; stroke: #000000; stroke-width: 0.8; stroke-linejoin: miter; stroke-linecap: square"/>
   </g>
   <g id="patch_4">
    <path d="M 433.220313 125.563636 
L 433.220313 7.2 
" style="fill: none; stroke: #000000; stroke-width: 0.8; stroke-linejoin: miter; stroke-linecap: square"/>
   </g>
   <g id="patch_5">
    <path d="M 42.620312 125.563636 
L 433.220313 125.563636 
" style="fill: none; stroke: #000000; stroke-width: 0.8; stroke-linejoin: miter; stroke-linecap: square"/>
   </g>
   <g id="patch_6">
    <path d="M 42.620312 7.2 
L 433.220313 7.2 
" style="fill: none; stroke: #000000; stroke-width: 0.8; stroke-linejoin: miter; stroke-linecap: square"/>
   </g>
   <g id="legend_1">
    <g id="patch_7">
     <path d="M 49.620312 120.563636 
L 92.620312 120.563636 
Q 94.620312 120.563636 94.620312 118.563636 
L 94.620312 90.207386 
Q 94.620312 88.207386 92.620312 88.207386 
L 49.620312 88.207386 
Q 47.620312 88.207386 47.620312 90.207386 
L 47.620312 118.563636 
Q 47.620312 120.563636 49.620312 120.563636 
z
" style="fill: #ffffff; opacity: 0.8; stroke: #cccccc; stroke-linejoin: miter"/>
    </g>
    <g id="line2d_13">
     <path d="M 51.620312 96.305824 
L 61.620312 96.305824 
L 71.620312 96.305824 
" style="fill: none; stroke-dasharray: 5.55,2.4; stroke-dashoffset: 0; stroke: #1f77b4; stroke-width: 1.5"/>
    </g>
    <g id="text_12">
     <!-- $x_A$ -->
     <g transform="translate(79.620312 99.805824) scale(0.1 -0.1)">
      <defs>
       <path id="DejaVuSans-Oblique-78" d="M 3841 3500 
L 2234 1784 
L 3219 0 
L 2559 0 
L 1819 1388 
L 531 0 
L -166 0 
L 1556 1844 
L 641 3500 
L 1300 3500 
L 1972 2234 
L 3144 3500 
L 3841 3500 
z
" transform="scale(0.015625)"/>
       <path id="DejaVuSans-Oblique-41" d="M 2356 4666 
L 3072 4666 
L 3938 0 
L 3278 0 
L 3084 1197 
L 984 1197 
L 325 0 
L -341 0 
L 2356 4666 
z
M 2584 4044 
L 1275 1722 
L 2988 1722 
L 2584 4044 
z
" transform="scale(0.015625)"/>
      </defs>
      <use xlink:href="#DejaVuSans-Oblique-78" transform="translate(0 0.3125)"/>
      <use xlink:href="#DejaVuSans-Oblique-41" transform="translate(59.179688 -16.09375) scale(0.7)"/>
     </g>
    </g>
    <g id="line2d_14">
     <path d="M 51.620312 110.983949 
L 61.620312 110.983949 
L 71.620312 110.983949 
" style="fill: none; stroke: #ff7f0e; stroke-width: 1.5; stroke-linecap: square"/>
    </g>
    <g id="text_13">
     <!-- $x$ -->
     <g transform="translate(79.620312 114.483949) scale(0.1 -0.1)">
      <use xlink:href="#DejaVuSans-Oblique-78" transform="translate(0 0.3125)"/>
     </g>
    </g>
   </g>
  </g>
 </g>
 <defs>
  <clipPath id="pa977a7a568">
   <rect x="42.620312" y="7.2" width="390.6" height="118.363636"/>
  </clipPath>
 </defs>
</svg>
