<svg version="1.1" xmlns="http://www.w3.org/2000/svg" viewBox="0 0 660.8403049222325 221.51081406629925" width="660.8403049222325" height="221.51081406629925">
  <!-- svg-source:excalidraw -->
  
  <defs>
    <style class="style-fonts">
      
    </style>
    
  </defs>
  <g stroke-linecap="round" transform="translate(30 30.000000000000057) rotate(0 30 80)"><path d="M-1.01 -1.63 L61.98 -1.05 L61.74 159.59 L0.08 158.49" stroke="none" stroke-width="0" fill="#a5d8ff"></path><path d="M0 0 C21.49 -0.16, 41.03 -0.98, 60 0 M0 0 C19.03 -0.84, 37.28 -0.02, 60 0 M60 0 C58.38 57.29, 57.44 112.01, 60 160 M60 0 C60.63 35.85, 61.37 73.65, 60 160 M60 160 C38.55 158.84, 17.81 160.4, 0 160 M60 160 C43.49 160.15, 25.05 160.04, 0 160 M0 160 C-0.92 98.24, -1.4 40.04, 0 0 M0 160 C0.37 103.76, 0.84 46.13, 0 0" stroke="#1971c2" stroke-width="1" fill="none"></path></g><g stroke-linecap="round" transform="translate(110 30.000000000000057) rotate(0 40 80)"><path d="M1.98 -1.05 L81.74 -0.41 L80.08 158.49 L-0.08 160.49" stroke="none" stroke-width="0" fill="#ffc9c9"></path><path d="M0 0 C28.75 -0.68, 58.64 -0.37, 80 0 M0 0 C26.57 0.67, 52.01 -0.36, 80 0 M80 0 C78.8 31.78, 78.49 67.04, 80 160 M80 0 C79.96 42.3, 80.04 85.59, 80 160 M80 160 C56.18 159.95, 31.92 161.1, 0 160 M80 160 C51.35 159.55, 23.75 160.24, 0 160 M0 160 C-0.53 100.08, 1.31 36.12, 0 0 M0 160 C0.88 102.6, 0.59 45.6, 0 0" stroke="#e03131" stroke-width="1" fill="none"></path></g><g stroke-linecap="round" transform="translate(519.9999999999991 -20.000000000000256) rotate(90 30 79.99999999999999)"><path d="M0.37 0.26 L61.52 1.96 L58.5 160.84 L-0.14 161.23" stroke="none" stroke-width="0" fill="#a5d8ff"></path><path d="M0 0 C18.2 -0.35, 41.63 0.95, 60 0 M0 0 C23.22 -0.04, 46.52 -0.51, 60 0 M60 0 C59.45 63.4, 61.3 124.7, 60 160 M60 0 C60.8 59.83, 60.31 121, 60 160 M60 160 C39.46 161.64, 19.52 158.68, 0 160 M60 160 C39.91 160.9, 18.68 159.57, 0 160 M0 160 C-1.83 117.8, 0.09 77.67, 0 0 M0 160 C-0.93 128.67, -0.88 95.62, 0 0" stroke="#1971c2" stroke-width="1" fill="none"></path></g><g stroke-linecap="round" transform="translate(510 70.00000000000017) rotate(90 40 80)"><path d="M1.52 1.96 L78.5 0.84 L79.86 161.23 L1.31 160.54" stroke="none" stroke-width="0" fill="#ffc9c9"></path><path d="M0 0 C32.5 1.41, 64.18 0.39, 80 0 M0 0 C19.07 -0.56, 37.78 0.1, 80 0 M80 0 C81.62 52.18, 81.45 101.31, 80 160 M80 0 C80.05 36.01, 80.58 72.2, 80 160 M80 160 C46.97 158.54, 17.59 159.68, 0 160 M80 160 C51.32 159.76, 23.78 161.34, 0 160 M0 160 C1.83 109.98, -1.62 58.23, 0 0 M0 160 C0.64 101.12, 1.76 42.31, 0 0" stroke="#e03131" stroke-width="1" fill="none"></path></g><g stroke-linecap="round" transform="translate(236.62858446221435 49.65609514367378) rotate(44.75545838221954 40.25748188469561 10)"><path d="M0.67 0 L81.03 1.91 L79.27 19.59 L0.81 20.21" stroke="none" stroke-width="0" fill="#a5d8ff"></path><path d="M0 0 C21.33 -1.25, 39.59 -0.36, 80.51 0 M0 0 C29.99 -0.83, 58.92 -0.79, 80.51 0 M80.51 0 C79.41 8.57, 79.2 15.99, 80.51 20 M80.51 0 C80.38 5.89, 81.14 13.05, 80.51 20 M80.51 20 C51.24 18.77, 22.84 20.73, 0 20 M80.51 20 C56.31 20.27, 30.24 19.79, 0 20 M0 20 C-1.01 14.31, -1.57 5.73, 0 0 M0 20 C0 14.11, 1.13 8.91, 0 0" stroke="#1971c2" stroke-width="1" fill="none"></path></g><g stroke-linecap="round" transform="translate(302.44059767177714 139.97852208967998) rotate(44.75545838221954 64.39647073743936 10)"><path d="M0.51 1.91 L127.55 -0.41 L129.61 20.21 L-0.26 19.61" stroke="none" stroke-width="0" fill="#ffc9c9"></path><path d="M0 0 C49.53 0.72, 102.89 -0.98, 128.79 0 M0 0 C40.73 0.25, 80.93 0.46, 128.79 0 M128.79 0 C127.47 9.1, 128.99 17.13, 128.79 20 M128.79 0 C129.19 6.02, 129.38 10.16, 128.79 20 M128.79 20 C93.27 20.15, 55.75 17.47, 0 20 M128.79 20 C101.44 21.79, 75.28 21.25, 0 20 M0 20 C-1.47 13.07, -0.67 3.95, 0 0 M0 20 C1 13.94, 0.36 9.14, 0 0" stroke="#e03131" stroke-width="1" fill="none"></path></g><g stroke-linecap="round"><g transform="translate(30 10.562525076189104) rotate(0 -10 100)"><path d="M0 0 C-7.08 -0.15, -11.28 -1.19, -20 0 M0 0 C-5.09 0.35, -8.99 0.68, -20 0 M-20 0 C-18.07 57.95, -18.75 112.91, -20 200 M-20 0 C-18.06 48.16, -19.15 95.93, -20 200 M-20 200 C-14.89 198.73, -9.75 200.21, 0 200 M-20 200 C-12.96 199.5, -6.53 200.11, 0 200" stroke="#1e1e1e" stroke-width="1" fill="none"></path></g></g><mask></mask><g stroke-linecap="round"><g transform="translate(250.1289269195604 10.524999458511445) rotate(0 -10 100)"><path d="M0 0 C-6.52 -0.09, -10.77 -1.13, -20 0 M0 0 C-8.1 0.08, -14.41 -0.49, -20 0 M-20 0 C-17.26 50.68, -17.85 102.84, -20 200 M-20 0 C-19.26 45.42, -20.52 88.8, -20 200 M-20 200 C-14.75 201.21, -11.16 201.42, 0 200 M-20 200 C-15.82 199.57, -10.58 199.68, 0 200" stroke="#1e1e1e" stroke-width="1" fill="none"></path></g></g><mask></mask><g stroke-linecap="round"><g transform="translate(470.0271711412024 10.742112626133974) rotate(0 -10 100)"><path d="M0 0 C-4.07 -1.65, -7.44 -0.04, -20 0 M0 0 C-6.86 -0.19, -14.63 -0.83, -20 0 M-20 0 C-20.15 65.18, -19.63 133, -20 200 M-20 0 C-19.5 43.57, -19.95 85.75, -20 200 M-20 200 C-13.11 199.06, -7.03 200.63, 0 200 M-20 200 C-13.01 199.68, -4.47 200.09, 0 200" stroke="#1e1e1e" stroke-width="1" fill="none"></path></g></g><mask></mask><g stroke-linecap="round"><g transform="translate(190 11.233246382875393) rotate(0 10 100)"><path d="M0 0 C5.48 -2.03, 10.72 -1.2, 20 0 M0 0 C6.4 -1.18, 10.37 -0.7, 20 0 M20 0 C19.65 55.58, 19.04 111.16, 20 200 M20 0 C21.31 46.26, 21.41 93.52, 20 200 M20 200 C16.32 199.07, 10.05 199.73, 0 200 M20 200 C14.69 199.15, 9.63 200.84, 0 200" stroke="#1e1e1e" stroke-width="1" fill="none"></path></g></g><mask></mask><g stroke-linecap="round"><g transform="translate(410 10.219691090169817) rotate(0 10 100)"><path d="M0 0 C7.65 0.05, 16.27 -0.52, 20 0 M0 0 C7.85 0.9, 14.57 0.47, 20 0 M20 0 C21.65 67.85, 19.49 133.33, 20 200 M20 0 C20.01 45.54, 20.04 92.03, 20 200 M20 200 C12.68 200.25, 6.48 200.49, 0 200 M20 200 C14.98 199.88, 11.06 200.19, 0 200" stroke="#1e1e1e" stroke-width="1" fill="none"></path></g></g><mask></mask><g stroke-linecap="round"><g transform="translate(630 10.000000000000057) rotate(0 10 100)"><path d="M0 0 C7.28 0.92, 13.57 0.45, 20 0 M0 0 C4.88 0.33, 9.84 0.05, 20 0 M20 0 C18.48 65.83, 21.1 129.87, 20 200 M20 0 C21.5 48.45, 20.67 97.16, 20 200 M20 200 C16.74 199.06, 10.75 199.61, 0 200 M20 200 C12.67 199.22, 5.53 199.89, 0 200" stroke="#1e1e1e" stroke-width="1" fill="none"></path></g></g><mask></mask></svg>