<?xml version="1.0" encoding="utf-8" standalone="no"?>
<!DOCTYPE svg PUBLIC "-//W3C//DTD SVG 1.1//EN"
  "http://www.w3.org/Graphics/SVG/1.1/DTD/svg11.dtd">
<svg xmlns:xlink="http://www.w3.org/1999/xlink" width="365.9pt" height="143.812509pt" viewBox="0 0 365.9 143.812509" xmlns="http://www.w3.org/2000/svg" version="1.1">
 <metadata>
  <rdf:RDF xmlns:dc="http://purl.org/dc/elements/1.1/" xmlns:cc="http://creativecommons.org/ns#" xmlns:rdf="http://www.w3.org/1999/02/22-rdf-syntax-ns#">
   <cc:Work>
    <dc:type rdf:resource="http://purl.org/dc/dcmitype/StillImage"/>
    <dc:date>2025-01-14T09:04:39.954664</dc:date>
    <dc:format>image/svg+xml</dc:format>
    <dc:creator>
     <cc:Agent>
      <dc:title>Matplotlib v3.9.2, https://matplotlib.org/</dc:title>
     </cc:Agent>
    </dc:creator>
   </cc:Work>
  </rdf:RDF>
 </metadata>
 <defs>
  <style type="text/css">*{stroke-linejoin: round; stroke-linecap: butt}</style>
 </defs>
 <g id="figure_1">
  <g id="patch_1">
   <path d="M 0 143.812509 
L 365.9 143.812509 
L 365.9 0 
L 0 0 
z
" style="fill: #ffffff"/>
  </g>
  <g id="axes_1">
   <g id="patch_2">
    <path d="M 51.8 106.256259 
L 358.7 106.256259 
L 358.7 7.420108 
L 51.8 7.420108 
z
" style="fill: #ffffff"/>
   </g>
   <g id="matplotlib.axis_1">
    <g id="xtick_1">
     <g id="line2d_1">
      <defs>
       <path id="m75d1223b08" d="M 0 0 
L 0 3.5 
" style="stroke: #000000; stroke-width: 0.8"/>
      </defs>
      <g>
       <use xlink:href="#m75d1223b08" x="65.75" y="106.256259" style="stroke: #000000; stroke-width: 0.8"/>
      </g>
     </g>
     <g id="text_1">
      <!-- 0 -->
      <g transform="translate(62.56875 120.854697) scale(0.1 -0.1)">
       <defs>
        <path id="DejaVuSans-30" d="M 2034 4250 
Q 1547 4250 1301 3770 
Q 1056 3291 1056 2328 
Q 1056 1369 1301 889 
Q 1547 409 2034 409 
Q 2525 409 2770 889 
Q 3016 1369 3016 2328 
Q 3016 3291 2770 3770 
Q 2525 4250 2034 4250 
z
M 2034 4750 
Q 2819 4750 3233 4129 
Q 3647 3509 3647 2328 
Q 3647 1150 3233 529 
Q 2819 -91 2034 -91 
Q 1250 -91 836 529 
Q 422 1150 422 2328 
Q 422 3509 836 4129 
Q 1250 4750 2034 4750 
z
" transform="scale(0.015625)"/>
       </defs>
       <use xlink:href="#DejaVuSans-30"/>
      </g>
     </g>
    </g>
    <g id="xtick_2">
     <g id="line2d_2">
      <g>
       <use xlink:href="#m75d1223b08" x="102.95" y="106.256259" style="stroke: #000000; stroke-width: 0.8"/>
      </g>
     </g>
     <g id="text_2">
      <!-- 200 -->
      <g transform="translate(93.40625 120.854697) scale(0.1 -0.1)">
       <defs>
        <path id="DejaVuSans-32" d="M 1228 531 
L 3431 531 
L 3431 0 
L 469 0 
L 469 531 
Q 828 903 1448 1529 
Q 2069 2156 2228 2338 
Q 2531 2678 2651 2914 
Q 2772 3150 2772 3378 
Q 2772 3750 2511 3984 
Q 2250 4219 1831 4219 
Q 1534 4219 1204 4116 
Q 875 4013 500 3803 
L 500 4441 
Q 881 4594 1212 4672 
Q 1544 4750 1819 4750 
Q 2544 4750 2975 4387 
Q 3406 4025 3406 3419 
Q 3406 3131 3298 2873 
Q 3191 2616 2906 2266 
Q 2828 2175 2409 1742 
Q 1991 1309 1228 531 
z
" transform="scale(0.015625)"/>
       </defs>
       <use xlink:href="#DejaVuSans-32"/>
       <use xlink:href="#DejaVuSans-30" x="63.623047"/>
       <use xlink:href="#DejaVuSans-30" x="127.246094"/>
      </g>
     </g>
    </g>
    <g id="xtick_3">
     <g id="line2d_3">
      <g>
       <use xlink:href="#m75d1223b08" x="140.15" y="106.256259" style="stroke: #000000; stroke-width: 0.8"/>
      </g>
     </g>
     <g id="text_3">
      <!-- 400 -->
      <g transform="translate(130.60625 120.854697) scale(0.1 -0.1)">
       <defs>
        <path id="DejaVuSans-34" d="M 2419 4116 
L 825 1625 
L 2419 1625 
L 2419 4116 
z
M 2253 4666 
L 3047 4666 
L 3047 1625 
L 3713 1625 
L 3713 1100 
L 3047 1100 
L 3047 0 
L 2419 0 
L 2419 1100 
L 313 1100 
L 313 1709 
L 2253 4666 
z
" transform="scale(0.015625)"/>
       </defs>
       <use xlink:href="#DejaVuSans-34"/>
       <use xlink:href="#DejaVuSans-30" x="63.623047"/>
       <use xlink:href="#DejaVuSans-30" x="127.246094"/>
      </g>
     </g>
    </g>
    <g id="xtick_4">
     <g id="line2d_4">
      <g>
       <use xlink:href="#m75d1223b08" x="177.35" y="106.256259" style="stroke: #000000; stroke-width: 0.8"/>
      </g>
     </g>
     <g id="text_4">
      <!-- 600 -->
      <g transform="translate(167.80625 120.854697) scale(0.1 -0.1)">
       <defs>
        <path id="DejaVuSans-36" d="M 2113 2584 
Q 1688 2584 1439 2293 
Q 1191 2003 1191 1497 
Q 1191 994 1439 701 
Q 1688 409 2113 409 
Q 2538 409 2786 701 
Q 3034 994 3034 1497 
Q 3034 2003 2786 2293 
Q 2538 2584 2113 2584 
z
M 3366 4563 
L 3366 3988 
Q 3128 4100 2886 4159 
Q 2644 4219 2406 4219 
Q 1781 4219 1451 3797 
Q 1122 3375 1075 2522 
Q 1259 2794 1537 2939 
Q 1816 3084 2150 3084 
Q 2853 3084 3261 2657 
Q 3669 2231 3669 1497 
Q 3669 778 3244 343 
Q 2819 -91 2113 -91 
Q 1303 -91 875 529 
Q 447 1150 447 2328 
Q 447 3434 972 4092 
Q 1497 4750 2381 4750 
Q 2619 4750 2861 4703 
Q 3103 4656 3366 4563 
z
" transform="scale(0.015625)"/>
       </defs>
       <use xlink:href="#DejaVuSans-36"/>
       <use xlink:href="#DejaVuSans-30" x="63.623047"/>
       <use xlink:href="#DejaVuSans-30" x="127.246094"/>
      </g>
     </g>
    </g>
    <g id="xtick_5">
     <g id="line2d_5">
      <g>
       <use xlink:href="#m75d1223b08" x="214.55" y="106.256259" style="stroke: #000000; stroke-width: 0.8"/>
      </g>
     </g>
     <g id="text_5">
      <!-- 800 -->
      <g transform="translate(205.00625 120.854697) scale(0.1 -0.1)">
       <defs>
        <path id="DejaVuSans-38" d="M 2034 2216 
Q 1584 2216 1326 1975 
Q 1069 1734 1069 1313 
Q 1069 891 1326 650 
Q 1584 409 2034 409 
Q 2484 409 2743 651 
Q 3003 894 3003 1313 
Q 3003 1734 2745 1975 
Q 2488 2216 2034 2216 
z
M 1403 2484 
Q 997 2584 770 2862 
Q 544 3141 544 3541 
Q 544 4100 942 4425 
Q 1341 4750 2034 4750 
Q 2731 4750 3128 4425 
Q 3525 4100 3525 3541 
Q 3525 3141 3298 2862 
Q 3072 2584 2669 2484 
Q 3125 2378 3379 2068 
Q 3634 1759 3634 1313 
Q 3634 634 3220 271 
Q 2806 -91 2034 -91 
Q 1263 -91 848 271 
Q 434 634 434 1313 
Q 434 1759 690 2068 
Q 947 2378 1403 2484 
z
M 1172 3481 
Q 1172 3119 1398 2916 
Q 1625 2713 2034 2713 
Q 2441 2713 2670 2916 
Q 2900 3119 2900 3481 
Q 2900 3844 2670 4047 
Q 2441 4250 2034 4250 
Q 1625 4250 1398 4047 
Q 1172 3844 1172 3481 
z
" transform="scale(0.015625)"/>
       </defs>
       <use xlink:href="#DejaVuSans-38"/>
       <use xlink:href="#DejaVuSans-30" x="63.623047"/>
       <use xlink:href="#DejaVuSans-30" x="127.246094"/>
      </g>
     </g>
    </g>
    <g id="xtick_6">
     <g id="line2d_6">
      <g>
       <use xlink:href="#m75d1223b08" x="251.75" y="106.256259" style="stroke: #000000; stroke-width: 0.8"/>
      </g>
     </g>
     <g id="text_6">
      <!-- 1000 -->
      <g transform="translate(239.025 120.854697) scale(0.1 -0.1)">
       <defs>
        <path id="DejaVuSans-31" d="M 794 531 
L 1825 531 
L 1825 4091 
L 703 3866 
L 703 4441 
L 1819 4666 
L 2450 4666 
L 2450 531 
L 3481 531 
L 3481 0 
L 794 0 
L 794 531 
z
" transform="scale(0.015625)"/>
       </defs>
       <use xlink:href="#DejaVuSans-31"/>
       <use xlink:href="#DejaVuSans-30" x="63.623047"/>
       <use xlink:href="#DejaVuSans-30" x="127.246094"/>
       <use xlink:href="#DejaVuSans-30" x="190.869141"/>
      </g>
     </g>
    </g>
    <g id="xtick_7">
     <g id="line2d_7">
      <g>
       <use xlink:href="#m75d1223b08" x="288.95" y="106.256259" style="stroke: #000000; stroke-width: 0.8"/>
      </g>
     </g>
     <g id="text_7">
      <!-- 1200 -->
      <g transform="translate(276.225 120.854697) scale(0.1 -0.1)">
       <use xlink:href="#DejaVuSans-31"/>
       <use xlink:href="#DejaVuSans-32" x="63.623047"/>
       <use xlink:href="#DejaVuSans-30" x="127.246094"/>
       <use xlink:href="#DejaVuSans-30" x="190.869141"/>
      </g>
     </g>
    </g>
    <g id="xtick_8">
     <g id="line2d_8">
      <g>
       <use xlink:href="#m75d1223b08" x="326.15" y="106.256259" style="stroke: #000000; stroke-width: 0.8"/>
      </g>
     </g>
     <g id="text_8">
      <!-- 1400 -->
      <g transform="translate(313.425 120.854697) scale(0.1 -0.1)">
       <use xlink:href="#DejaVuSans-31"/>
       <use xlink:href="#DejaVuSans-34" x="63.623047"/>
       <use xlink:href="#DejaVuSans-30" x="127.246094"/>
       <use xlink:href="#DejaVuSans-30" x="190.869141"/>
      </g>
     </g>
    </g>
    <g id="text_9">
     <!-- index -->
     <g transform="translate(191.569531 134.532822) scale(0.1 -0.1)">
      <defs>
       <path id="DejaVuSans-69" d="M 603 3500 
L 1178 3500 
L 1178 0 
L 603 0 
L 603 3500 
z
M 603 4863 
L 1178 4863 
L 1178 4134 
L 603 4134 
L 603 4863 
z
" transform="scale(0.015625)"/>
       <path id="DejaVuSans-6e" d="M 3513 2113 
L 3513 0 
L 2938 0 
L 2938 2094 
Q 2938 2591 2744 2837 
Q 2550 3084 2163 3084 
Q 1697 3084 1428 2787 
Q 1159 2491 1159 1978 
L 1159 0 
L 581 0 
L 581 3500 
L 1159 3500 
L 1159 2956 
Q 1366 3272 1645 3428 
Q 1925 3584 2291 3584 
Q 2894 3584 3203 3211 
Q 3513 2838 3513 2113 
z
" transform="scale(0.015625)"/>
       <path id="DejaVuSans-64" d="M 2906 2969 
L 2906 4863 
L 3481 4863 
L 3481 0 
L 2906 0 
L 2906 525 
Q 2725 213 2448 61 
Q 2172 -91 1784 -91 
Q 1150 -91 751 415 
Q 353 922 353 1747 
Q 353 2572 751 3078 
Q 1150 3584 1784 3584 
Q 2172 3584 2448 3432 
Q 2725 3281 2906 2969 
z
M 947 1747 
Q 947 1113 1208 752 
Q 1469 391 1925 391 
Q 2381 391 2643 752 
Q 2906 1113 2906 1747 
Q 2906 2381 2643 2742 
Q 2381 3103 1925 3103 
Q 1469 3103 1208 2742 
Q 947 2381 947 1747 
z
" transform="scale(0.015625)"/>
       <path id="DejaVuSans-65" d="M 3597 1894 
L 3597 1613 
L 953 1613 
Q 991 1019 1311 708 
Q 1631 397 2203 397 
Q 2534 397 2845 478 
Q 3156 559 3463 722 
L 3463 178 
Q 3153 47 2828 -22 
Q 2503 -91 2169 -91 
Q 1331 -91 842 396 
Q 353 884 353 1716 
Q 353 2575 817 3079 
Q 1281 3584 2069 3584 
Q 2775 3584 3186 3129 
Q 3597 2675 3597 1894 
z
M 3022 2063 
Q 3016 2534 2758 2815 
Q 2500 3097 2075 3097 
Q 1594 3097 1305 2825 
Q 1016 2553 972 2059 
L 3022 2063 
z
" transform="scale(0.015625)"/>
       <path id="DejaVuSans-78" d="M 3513 3500 
L 2247 1797 
L 3578 0 
L 2900 0 
L 1881 1375 
L 863 0 
L 184 0 
L 1544 1831 
L 300 3500 
L 978 3500 
L 1906 2253 
L 2834 3500 
L 3513 3500 
z
" transform="scale(0.015625)"/>
      </defs>
      <use xlink:href="#DejaVuSans-69"/>
      <use xlink:href="#DejaVuSans-6e" x="27.783203"/>
      <use xlink:href="#DejaVuSans-64" x="91.162109"/>
      <use xlink:href="#DejaVuSans-65" x="154.638672"/>
      <use xlink:href="#DejaVuSans-78" x="214.412109"/>
     </g>
    </g>
   </g>
   <g id="matplotlib.axis_2">
    <g id="ytick_1">
     <g id="line2d_9">
      <defs>
       <path id="m33946e5cbe" d="M 0 0 
L -3.5 0 
" style="stroke: #000000; stroke-width: 0.8"/>
      </defs>
      <g>
       <use xlink:href="#m33946e5cbe" x="51.8" y="89.119219" style="stroke: #000000; stroke-width: 0.8"/>
      </g>
     </g>
     <g id="text_10">
      <!-- $\mathdefault{10^{-3}}$ -->
      <g transform="translate(21.3 92.918438) scale(0.1 -0.1)">
       <defs>
        <path id="DejaVuSans-2212" d="M 678 2272 
L 4684 2272 
L 4684 1741 
L 678 1741 
L 678 2272 
z
" transform="scale(0.015625)"/>
        <path id="DejaVuSans-33" d="M 2597 2516 
Q 3050 2419 3304 2112 
Q 3559 1806 3559 1356 
Q 3559 666 3084 287 
Q 2609 -91 1734 -91 
Q 1441 -91 1130 -33 
Q 819 25 488 141 
L 488 750 
Q 750 597 1062 519 
Q 1375 441 1716 441 
Q 2309 441 2620 675 
Q 2931 909 2931 1356 
Q 2931 1769 2642 2001 
Q 2353 2234 1838 2234 
L 1294 2234 
L 1294 2753 
L 1863 2753 
Q 2328 2753 2575 2939 
Q 2822 3125 2822 3475 
Q 2822 3834 2567 4026 
Q 2313 4219 1838 4219 
Q 1578 4219 1281 4162 
Q 984 4106 628 3988 
L 628 4550 
Q 988 4650 1302 4700 
Q 1616 4750 1894 4750 
Q 2613 4750 3031 4423 
Q 3450 4097 3450 3541 
Q 3450 3153 3228 2886 
Q 3006 2619 2597 2516 
z
" transform="scale(0.015625)"/>
       </defs>
       <use xlink:href="#DejaVuSans-31" transform="translate(0 0.765625)"/>
       <use xlink:href="#DejaVuSans-30" transform="translate(63.623047 0.765625)"/>
       <use xlink:href="#DejaVuSans-2212" transform="translate(128.203125 39.046875) scale(0.7)"/>
       <use xlink:href="#DejaVuSans-33" transform="translate(186.855469 39.046875) scale(0.7)"/>
      </g>
     </g>
    </g>
    <g id="ytick_2">
     <g id="line2d_10">
      <g>
       <use xlink:href="#m33946e5cbe" x="51.8" y="63.079219" style="stroke: #000000; stroke-width: 0.8"/>
      </g>
     </g>
     <g id="text_11">
      <!-- $\mathdefault{10^{-1}}$ -->
      <g transform="translate(21.3 66.878437) scale(0.1 -0.1)">
       <use xlink:href="#DejaVuSans-31" transform="translate(0 0.684375)"/>
       <use xlink:href="#DejaVuSans-30" transform="translate(63.623047 0.684375)"/>
       <use xlink:href="#DejaVuSans-2212" transform="translate(128.203125 38.965625) scale(0.7)"/>
       <use xlink:href="#DejaVuSans-31" transform="translate(186.855469 38.965625) scale(0.7)"/>
      </g>
     </g>
    </g>
    <g id="ytick_3">
     <g id="line2d_11">
      <g>
       <use xlink:href="#m33946e5cbe" x="51.8" y="37.039219" style="stroke: #000000; stroke-width: 0.8"/>
      </g>
     </g>
     <g id="text_12">
      <!-- $\mathdefault{10^{1}}$ -->
      <g transform="translate(27.2 40.838437) scale(0.1 -0.1)">
       <use xlink:href="#DejaVuSans-31" transform="translate(0 0.684375)"/>
       <use xlink:href="#DejaVuSans-30" transform="translate(63.623047 0.684375)"/>
       <use xlink:href="#DejaVuSans-31" transform="translate(128.203125 38.965625) scale(0.7)"/>
      </g>
     </g>
    </g>
    <g id="ytick_4">
     <g id="line2d_12">
      <g>
       <use xlink:href="#m33946e5cbe" x="51.8" y="10.999219" style="stroke: #000000; stroke-width: 0.8"/>
      </g>
     </g>
     <g id="text_13">
      <!-- $\mathdefault{10^{3}}$ -->
      <g transform="translate(27.2 14.798437) scale(0.1 -0.1)">
       <use xlink:href="#DejaVuSans-31" transform="translate(0 0.765625)"/>
       <use xlink:href="#DejaVuSans-30" transform="translate(63.623047 0.765625)"/>
       <use xlink:href="#DejaVuSans-33" transform="translate(128.203125 39.046875) scale(0.7)"/>
      </g>
     </g>
    </g>
    <g id="text_14">
     <!-- $|\lambda_i|$ -->
     <g transform="translate(14.9 64.288184) rotate(-90) scale(0.1 -0.1)">
      <defs>
       <path id="DejaVuSans-7c" d="M 1344 4891 
L 1344 -1509 
L 813 -1509 
L 813 4891 
L 1344 4891 
z
" transform="scale(0.015625)"/>
       <path id="DejaVuSans-Oblique-3bb" d="M 2350 4316 
L 3125 0 
L 2516 0 
L 2038 2588 
L 328 0 
L -281 0 
L 1903 3356 
L 1794 3975 
Q 1725 4369 1391 4369 
L 1091 4369 
L 1184 4863 
L 1550 4856 
Q 2253 4847 2350 4316 
z
" transform="scale(0.015625)"/>
       <path id="DejaVuSans-Oblique-69" d="M 1172 4863 
L 1747 4863 
L 1606 4134 
L 1031 4134 
L 1172 4863 
z
M 909 3500 
L 1484 3500 
L 800 0 
L 225 0 
L 909 3500 
z
" transform="scale(0.015625)"/>
      </defs>
      <use xlink:href="#DejaVuSans-7c" transform="translate(0 0.578125)"/>
      <use xlink:href="#DejaVuSans-Oblique-3bb" transform="translate(33.691406 0.578125)"/>
      <use xlink:href="#DejaVuSans-Oblique-69" transform="translate(92.871094 -15.828125) scale(0.7)"/>
      <use xlink:href="#DejaVuSans-7c" transform="translate(115.053711 0.578125)"/>
     </g>
    </g>
   </g>
   <g id="line2d_13">
    <path d="M 65.75 11.91266 
L 66.122 31.176781 
L 66.308 31.176781 
L 66.494 32.02577 
L 66.68 32.02577 
L 66.866 32.254751 
L 67.052 32.689909 
L 67.238 32.689909 
L 67.424 32.93197 
L 67.61 34.452021 
L 67.796 34.452021 
L 67.982 34.862745 
L 68.168 34.862745 
L 68.354 35.040705 
L 68.54 35.844668 
L 68.726 35.844668 
L 68.912 36.269424 
L 69.098 36.269424 
L 69.284 36.662468 
L 69.656 36.719259 
L 69.842 37.195341 
L 70.4 37.230229 
L 70.586 37.394017 
L 70.772 37.394017 
L 70.958 37.708676 
L 71.702 37.856212 
L 71.888 38.453987 
L 72.446 38.53367 
L 72.632 38.788012 
L 73.004 38.824135 
L 73.748 39.031871 
L 73.934 39.488915 
L 74.12 39.488915 
L 74.306 39.814196 
L 74.864 39.906296 
L 75.608 40.021419 
L 75.794 40.288539 
L 75.98 40.288539 
L 76.166 40.71055 
L 77.096 40.811166 
L 77.282 40.866083 
L 77.468 41.096568 
L 77.654 41.096568 
L 77.84 41.290692 
L 78.398 41.384378 
L 78.584 41.74127 
L 78.77 41.74127 
L 78.956 41.945015 
L 79.142 41.945015 
L 79.514 42.074295 
L 79.886 42.160839 
L 80.072 42.571177 
L 80.63 42.60256 
L 81.002 42.714055 
L 81.932 42.837588 
L 82.118 43.007946 
L 82.49 43.06163 
L 82.862 43.219635 
L 83.42 43.262681 
L 84.164 43.695774 
L 84.35 43.704298 
L 84.536 43.882734 
L 84.722 43.882734 
L 84.908 44.080566 
L 85.838 44.104047 
L 86.024 44.340727 
L 86.954 44.397519 
L 87.698 44.621882 
L 88.628 44.722497 
L 89.93 44.952908 
L 90.488 44.982894 
L 90.674 45.131889 
L 90.86 45.131889 
L 91.232 45.24565 
L 91.79 45.323894 
L 92.72 45.400306 
L 93.092 45.516386 
L 95.324 45.892725 
L 95.696 46.008278 
L 96.626 46.215257 
L 98.3 46.319431 
L 100.346 46.716115 
L 100.718 46.720103 
L 100.904 46.865315 
L 101.462 46.969297 
L 101.834 47.084643 
L 102.392 47.197074 
L 103.136 47.259928 
L 103.694 47.350191 
L 106.112 47.436759 
L 106.67 47.556921 
L 107.228 47.616828 
L 107.6 47.71318 
L 113.552 48.304247 
L 115.412 48.42172 
L 115.97 48.497205 
L 116.156 48.497205 
L 116.528 48.615802 
L 117.086 48.721295 
L 118.388 48.806486 
L 120.806 49.187277 
L 123.596 49.277125 
L 124.154 49.390302 
L 124.712 49.433152 
L 125.084 49.504393 
L 126.944 49.621821 
L 127.316 49.730121 
L 132.152 50.010955 
L 133.082 50.191286 
L 135.128 50.27598 
L 135.5 50.390376 
L 139.406 50.718537 
L 141.266 50.80265 
L 141.824 50.934145 
L 142.754 50.992911 
L 143.126 51.112935 
L 146.102 51.311968 
L 147.404 51.388843 
L 148.334 51.53605 
L 150.008 51.6455 
L 151.124 51.801071 
L 153.914 52.044803 
L 154.286 52.174524 
L 154.658 52.247205 
L 158.378 52.443309 
L 158.75 52.549813 
L 164.888 53.174328 
L 165.818 53.278512 
L 169.538 53.718774 
L 170.468 53.876717 
L 171.398 53.894327 
L 171.77 54.017139 
L 173.258 54.114949 
L 173.444 54.284819 
L 174.374 54.365572 
L 174.932 54.449727 
L 176.234 54.544669 
L 176.978 54.729252 
L 179.024 54.832896 
L 180.14 54.989125 
L 181.814 55.0745 
L 182.186 55.149254 
L 182.744 55.242429 
L 182.93 55.500405 
L 183.86 55.603956 
L 193.904 57.000644 
L 194.276 57.076452 
L 195.392 57.159106 
L 195.578 57.300898 
L 196.136 57.370735 
L 196.694 57.423272 
L 196.88 57.423272 
L 197.252 57.55163 
L 198.182 57.813904 
L 198.74 57.81701 
L 199.112 57.952473 
L 199.67 58.030993 
L 200.6 58.078303 
L 201.158 58.214201 
L 201.53 58.29985 
L 201.716 58.468806 
L 202.274 58.539492 
L 202.832 58.722555 
L 203.39 58.783692 
L 203.762 58.914313 
L 205.25 59.190246 
L 205.436 59.411944 
L 206.924 59.504432 
L 207.11 59.686683 
L 207.668 59.742061 
L 207.854 59.933163 
L 208.784 59.979187 
L 208.97 60.149706 
L 210.272 60.224062 
L 213.992 61.131941 
L 214.178 61.288818 
L 214.364 61.288818 
L 214.736 61.406171 
L 215.666 61.434106 
L 215.852 61.745049 
L 216.41 61.800561 
L 216.782 61.869597 
L 217.526 61.923278 
L 217.712 62.064415 
L 217.898 62.064415 
L 218.084 62.240279 
L 218.27 62.240279 
L 218.456 62.391752 
L 219.386 62.500271 
L 219.944 62.586878 
L 220.874 62.656396 
L 221.06 62.84454 
L 221.246 62.84454 
L 221.804 63.080274 
L 222.548 63.161255 
L 222.734 63.485348 
L 223.664 63.546147 
L 224.222 63.700087 
L 224.408 63.700087 
L 224.78 63.827874 
L 228.128 64.611815 
L 228.872 64.66719 
L 229.058 64.927431 
L 229.244 64.927431 
L 229.43 65.145926 
L 229.616 65.145926 
L 229.988 65.280816 
L 231.29 65.391081 
L 232.22 65.48913 
L 232.964 65.59406 
L 233.336 65.595993 
L 233.522 65.933613 
L 233.708 65.933613 
L 233.894 66.133705 
L 234.266 66.149209 
L 234.452 66.459939 
L 235.382 66.564852 
L 237.242 66.857519 
L 238.544 66.941262 
L 238.916 67.017511 
L 241.148 67.204271 
L 241.706 67.325468 
L 241.892 67.325468 
L 242.264 67.462355 
L 243.38 67.663579 
L 244.682 67.982985 
L 245.612 68.023255 
L 246.17 68.115794 
L 246.542 68.213059 
L 250.634 68.410183 
L 251.192 68.622078 
L 253.982 68.675398 
L 254.354 68.761802 
L 259.934 69.283495 
L 260.678 69.399426 
L 269.792 70.022578 
L 270.722 70.231029 
L 272.582 70.268027 
L 272.954 70.350272 
L 275.744 70.52521 
L 277.418 70.598946 
L 277.79 70.670395 
L 281.882 70.888144 
L 284.3 71.045167 
L 285.23 71.125504 
L 285.788 71.19244 
L 288.02 71.26965 
L 288.95 71.347326 
L 290.996 71.438865 
L 291.554 71.537221 
L 293.228 71.597283 
L 293.786 71.693925 
L 295.46 71.792455 
L 304.388 72.571392 
L 304.76 72.664852 
L 308.852 72.960069 
L 311.27 73.090239 
L 312.2 73.283386 
L 312.758 73.321384 
L 313.13 73.445532 
L 314.99 73.565215 
L 315.362 73.657487 
L 316.106 73.771097 
L 319.082 73.926885 
L 319.268 74.181699 
L 320.57 74.23575 
L 320.942 74.339997 
L 321.314 74.34511 
L 321.5 74.510058 
L 322.058 74.578505 
L 322.43 74.712352 
L 327.638 75.342976 
L 327.824 75.570879 
L 328.382 75.631679 
L 328.94 75.719464 
L 331.172 76.318783 
L 331.73 76.341864 
L 332.102 76.451299 
L 333.218 76.588401 
L 333.404 76.783951 
L 334.706 76.907188 
L 334.892 77.218052 
L 335.636 77.248417 
L 335.822 77.413185 
L 336.008 77.413185 
L 336.194 77.820855 
L 336.38 77.820855 
L 336.566 78.018497 
L 337.124 78.060401 
L 337.496 78.187921 
L 338.054 78.386617 
L 338.798 78.602031 
L 339.356 78.674325 
L 339.728 78.729032 
L 339.914 79.233967 
L 340.658 79.559674 
L 340.844 79.97403 
L 341.03 79.97403 
L 341.216 80.518205 
L 341.402 80.518205 
L 341.588 81.002378 
L 341.774 81.002378 
L 341.96 81.754537 
L 342.518 81.96722 
L 342.704 82.520589 
L 342.89 82.520589 
L 343.076 83.375139 
L 343.262 83.375139 
L 343.448 83.65304 
L 343.634 83.65304 
L 344.006 83.769927 
L 344.192 85.178927 
L 344.378 92.357057 
L 344.564 92.357057 
L 344.75 101.763707 
L 344.75 101.763707 
" clip-path="url(#p6ad36d147b)" style="fill: none; stroke: #1f77b4; stroke-width: 1.5; stroke-linecap: square"/>
   </g>
   <g id="patch_3">
    <path d="M 51.8 106.256259 
L 51.8 7.420108 
" style="fill: none; stroke: #000000; stroke-width: 0.8; stroke-linejoin: miter; stroke-linecap: square"/>
   </g>
   <g id="patch_4">
    <path d="M 358.7 106.256259 
L 358.7 7.420108 
" style="fill: none; stroke: #000000; stroke-width: 0.8; stroke-linejoin: miter; stroke-linecap: square"/>
   </g>
   <g id="patch_5">
    <path d="M 51.8 106.256259 
L 358.7 106.256259 
" style="fill: none; stroke: #000000; stroke-width: 0.8; stroke-linejoin: miter; stroke-linecap: square"/>
   </g>
   <g id="patch_6">
    <path d="M 51.8 7.420108 
L 358.7 7.420108 
" style="fill: none; stroke: #000000; stroke-width: 0.8; stroke-linejoin: miter; stroke-linecap: square"/>
   </g>
  </g>
 </g>
 <defs>
  <clipPath id="p6ad36d147b">
   <rect x="51.8" y="7.420108" width="306.9" height="98.836151"/>
  </clipPath>
 </defs>
</svg>
