<?xml version="1.0" encoding="utf-8" standalone="no"?>
<!DOCTYPE svg PUBLIC "-//W3C//DTD SVG 1.1//EN"
  "http://www.w3.org/Graphics/SVG/1.1/DTD/svg11.dtd">
<svg xmlns:xlink="http://www.w3.org/1999/xlink" width="418.3625pt" height="176.913707pt" viewBox="0 0 418.3625 176.913707" xmlns="http://www.w3.org/2000/svg" version="1.1">
 <metadata>
  <rdf:RDF xmlns:dc="http://purl.org/dc/elements/1.1/" xmlns:cc="http://creativecommons.org/ns#" xmlns:rdf="http://www.w3.org/1999/02/22-rdf-syntax-ns#">
   <cc:Work>
    <dc:type rdf:resource="http://purl.org/dc/dcmitype/StillImage"/>
    <dc:date>2025-01-16T10:19:43.577184</dc:date>
    <dc:format>image/svg+xml</dc:format>
    <dc:creator>
     <cc:Agent>
      <dc:title>Matplotlib v3.9.2, https://matplotlib.org/</dc:title>
     </cc:Agent>
    </dc:creator>
   </cc:Work>
  </rdf:RDF>
 </metadata>
 <defs>
  <style type="text/css">*{stroke-linejoin: round; stroke-linecap: butt}</style>
 </defs>
 <g id="figure_1">
  <g id="patch_1">
   <path d="M 0 176.913707 
L 418.3625 176.913707 
L 418.3625 0 
L 0 0 
z
" style="fill: #ffffff"/>
  </g>
  <g id="axes_1">
   <g id="patch_2">
    <path d="M 20.5625 153.035582 
L 411.1625 153.035582 
L 411.1625 10.999219 
L 20.5625 10.999219 
z
" style="fill: #ffffff"/>
   </g>
   <g id="matplotlib.axis_1">
    <g id="xtick_1">
     <g id="line2d_1">
      <path d="M 20.5625 153.035582 
L 20.5625 10.999219 
" clip-path="url(#p31a58814c2)" style="fill: none; stroke: #b0b0b0; stroke-width: 0.8; stroke-linecap: square"/>
     </g>
     <g id="line2d_2">
      <defs>
       <path id="md73d919edf" d="M 0 0 
L 0 3.5 
" style="stroke: #000000; stroke-width: 0.8"/>
      </defs>
      <g>
       <use xlink:href="#md73d919edf" x="20.5625" y="153.035582" style="stroke: #000000; stroke-width: 0.8"/>
      </g>
     </g>
     <g id="text_1">
      <!-- 0 -->
      <g transform="translate(17.38125 167.63402) scale(0.1 -0.1)">
       <defs>
        <path id="DejaVuSans-30" d="M 2034 4250 
Q 1547 4250 1301 3770 
Q 1056 3291 1056 2328 
Q 1056 1369 1301 889 
Q 1547 409 2034 409 
Q 2525 409 2770 889 
Q 3016 1369 3016 2328 
Q 3016 3291 2770 3770 
Q 2525 4250 2034 4250 
z
M 2034 4750 
Q 2819 4750 3233 4129 
Q 3647 3509 3647 2328 
Q 3647 1150 3233 529 
Q 2819 -91 2034 -91 
Q 1250 -91 836 529 
Q 422 1150 422 2328 
Q 422 3509 836 4129 
Q 1250 4750 2034 4750 
z
" transform="scale(0.015625)"/>
       </defs>
       <use xlink:href="#DejaVuSans-30"/>
      </g>
     </g>
    </g>
    <g id="xtick_2">
     <g id="line2d_3">
      <path d="M 91.580682 153.035582 
L 91.580682 10.999219 
" clip-path="url(#p31a58814c2)" style="fill: none; stroke: #b0b0b0; stroke-width: 0.8; stroke-linecap: square"/>
     </g>
     <g id="line2d_4">
      <g>
       <use xlink:href="#md73d919edf" x="91.580682" y="153.035582" style="stroke: #000000; stroke-width: 0.8"/>
      </g>
     </g>
     <g id="text_2">
      <!-- 2 -->
      <g transform="translate(88.399432 167.63402) scale(0.1 -0.1)">
       <defs>
        <path id="DejaVuSans-32" d="M 1228 531 
L 3431 531 
L 3431 0 
L 469 0 
L 469 531 
Q 828 903 1448 1529 
Q 2069 2156 2228 2338 
Q 2531 2678 2651 2914 
Q 2772 3150 2772 3378 
Q 2772 3750 2511 3984 
Q 2250 4219 1831 4219 
Q 1534 4219 1204 4116 
Q 875 4013 500 3803 
L 500 4441 
Q 881 4594 1212 4672 
Q 1544 4750 1819 4750 
Q 2544 4750 2975 4387 
Q 3406 4025 3406 3419 
Q 3406 3131 3298 2873 
Q 3191 2616 2906 2266 
Q 2828 2175 2409 1742 
Q 1991 1309 1228 531 
z
" transform="scale(0.015625)"/>
       </defs>
       <use xlink:href="#DejaVuSans-32"/>
      </g>
     </g>
    </g>
    <g id="xtick_3">
     <g id="line2d_5">
      <path d="M 162.598864 153.035582 
L 162.598864 10.999219 
" clip-path="url(#p31a58814c2)" style="fill: none; stroke: #b0b0b0; stroke-width: 0.8; stroke-linecap: square"/>
     </g>
     <g id="line2d_6">
      <g>
       <use xlink:href="#md73d919edf" x="162.598864" y="153.035582" style="stroke: #000000; stroke-width: 0.8"/>
      </g>
     </g>
     <g id="text_3">
      <!-- 4 -->
      <g transform="translate(159.417614 167.63402) scale(0.1 -0.1)">
       <defs>
        <path id="DejaVuSans-34" d="M 2419 4116 
L 825 1625 
L 2419 1625 
L 2419 4116 
z
M 2253 4666 
L 3047 4666 
L 3047 1625 
L 3713 1625 
L 3713 1100 
L 3047 1100 
L 3047 0 
L 2419 0 
L 2419 1100 
L 313 1100 
L 313 1709 
L 2253 4666 
z
" transform="scale(0.015625)"/>
       </defs>
       <use xlink:href="#DejaVuSans-34"/>
      </g>
     </g>
    </g>
    <g id="xtick_4">
     <g id="line2d_7">
      <path d="M 233.617045 153.035582 
L 233.617045 10.999219 
" clip-path="url(#p31a58814c2)" style="fill: none; stroke: #b0b0b0; stroke-width: 0.8; stroke-linecap: square"/>
     </g>
     <g id="line2d_8">
      <g>
       <use xlink:href="#md73d919edf" x="233.617045" y="153.035582" style="stroke: #000000; stroke-width: 0.8"/>
      </g>
     </g>
     <g id="text_4">
      <!-- 6 -->
      <g transform="translate(230.435795 167.63402) scale(0.1 -0.1)">
       <defs>
        <path id="DejaVuSans-36" d="M 2113 2584 
Q 1688 2584 1439 2293 
Q 1191 2003 1191 1497 
Q 1191 994 1439 701 
Q 1688 409 2113 409 
Q 2538 409 2786 701 
Q 3034 994 3034 1497 
Q 3034 2003 2786 2293 
Q 2538 2584 2113 2584 
z
M 3366 4563 
L 3366 3988 
Q 3128 4100 2886 4159 
Q 2644 4219 2406 4219 
Q 1781 4219 1451 3797 
Q 1122 3375 1075 2522 
Q 1259 2794 1537 2939 
Q 1816 3084 2150 3084 
Q 2853 3084 3261 2657 
Q 3669 2231 3669 1497 
Q 3669 778 3244 343 
Q 2819 -91 2113 -91 
Q 1303 -91 875 529 
Q 447 1150 447 2328 
Q 447 3434 972 4092 
Q 1497 4750 2381 4750 
Q 2619 4750 2861 4703 
Q 3103 4656 3366 4563 
z
" transform="scale(0.015625)"/>
       </defs>
       <use xlink:href="#DejaVuSans-36"/>
      </g>
     </g>
    </g>
    <g id="xtick_5">
     <g id="line2d_9">
      <path d="M 304.635227 153.035582 
L 304.635227 10.999219 
" clip-path="url(#p31a58814c2)" style="fill: none; stroke: #b0b0b0; stroke-width: 0.8; stroke-linecap: square"/>
     </g>
     <g id="line2d_10">
      <g>
       <use xlink:href="#md73d919edf" x="304.635227" y="153.035582" style="stroke: #000000; stroke-width: 0.8"/>
      </g>
     </g>
     <g id="text_5">
      <!-- 8 -->
      <g transform="translate(301.453977 167.63402) scale(0.1 -0.1)">
       <defs>
        <path id="DejaVuSans-38" d="M 2034 2216 
Q 1584 2216 1326 1975 
Q 1069 1734 1069 1313 
Q 1069 891 1326 650 
Q 1584 409 2034 409 
Q 2484 409 2743 651 
Q 3003 894 3003 1313 
Q 3003 1734 2745 1975 
Q 2488 2216 2034 2216 
z
M 1403 2484 
Q 997 2584 770 2862 
Q 544 3141 544 3541 
Q 544 4100 942 4425 
Q 1341 4750 2034 4750 
Q 2731 4750 3128 4425 
Q 3525 4100 3525 3541 
Q 3525 3141 3298 2862 
Q 3072 2584 2669 2484 
Q 3125 2378 3379 2068 
Q 3634 1759 3634 1313 
Q 3634 634 3220 271 
Q 2806 -91 2034 -91 
Q 1263 -91 848 271 
Q 434 634 434 1313 
Q 434 1759 690 2068 
Q 947 2378 1403 2484 
z
M 1172 3481 
Q 1172 3119 1398 2916 
Q 1625 2713 2034 2713 
Q 2441 2713 2670 2916 
Q 2900 3119 2900 3481 
Q 2900 3844 2670 4047 
Q 2441 4250 2034 4250 
Q 1625 4250 1398 4047 
Q 1172 3844 1172 3481 
z
" transform="scale(0.015625)"/>
       </defs>
       <use xlink:href="#DejaVuSans-38"/>
      </g>
     </g>
    </g>
    <g id="xtick_6">
     <g id="line2d_11">
      <path d="M 375.653409 153.035582 
L 375.653409 10.999219 
" clip-path="url(#p31a58814c2)" style="fill: none; stroke: #b0b0b0; stroke-width: 0.8; stroke-linecap: square"/>
     </g>
     <g id="line2d_12">
      <g>
       <use xlink:href="#md73d919edf" x="375.653409" y="153.035582" style="stroke: #000000; stroke-width: 0.8"/>
      </g>
     </g>
     <g id="text_6">
      <!-- 10 -->
      <g transform="translate(369.290909 167.63402) scale(0.1 -0.1)">
       <defs>
        <path id="DejaVuSans-31" d="M 794 531 
L 1825 531 
L 1825 4091 
L 703 3866 
L 703 4441 
L 1819 4666 
L 2450 4666 
L 2450 531 
L 3481 531 
L 3481 0 
L 794 0 
L 794 531 
z
" transform="scale(0.015625)"/>
       </defs>
       <use xlink:href="#DejaVuSans-31"/>
       <use xlink:href="#DejaVuSans-30" x="63.623047"/>
      </g>
     </g>
    </g>
   </g>
   <g id="matplotlib.axis_2">
    <g id="ytick_1">
     <g id="line2d_13">
      <path d="M 20.5625 153.035582 
L 411.1625 153.035582 
" clip-path="url(#p31a58814c2)" style="fill: none; stroke: #b0b0b0; stroke-width: 0.8; stroke-linecap: square"/>
     </g>
     <g id="line2d_14">
      <defs>
       <path id="maefb214684" d="M 0 0 
L -3.5 0 
" style="stroke: #000000; stroke-width: 0.8"/>
      </defs>
      <g>
       <use xlink:href="#maefb214684" x="20.5625" y="153.035582" style="stroke: #000000; stroke-width: 0.8"/>
      </g>
     </g>
     <g id="text_7">
      <!-- 0 -->
      <g transform="translate(7.2 156.834801) scale(0.1 -0.1)">
       <use xlink:href="#DejaVuSans-30"/>
      </g>
     </g>
    </g>
    <g id="ytick_2">
     <g id="line2d_15">
      <path d="M 20.5625 117.526491 
L 411.1625 117.526491 
" clip-path="url(#p31a58814c2)" style="fill: none; stroke: #b0b0b0; stroke-width: 0.8; stroke-linecap: square"/>
     </g>
     <g id="line2d_16">
      <g>
       <use xlink:href="#maefb214684" x="20.5625" y="117.526491" style="stroke: #000000; stroke-width: 0.8"/>
      </g>
     </g>
     <g id="text_8">
      <!-- 1 -->
      <g transform="translate(7.2 121.32571) scale(0.1 -0.1)">
       <use xlink:href="#DejaVuSans-31"/>
      </g>
     </g>
    </g>
    <g id="ytick_3">
     <g id="line2d_17">
      <path d="M 20.5625 82.017401 
L 411.1625 82.017401 
" clip-path="url(#p31a58814c2)" style="fill: none; stroke: #b0b0b0; stroke-width: 0.8; stroke-linecap: square"/>
     </g>
     <g id="line2d_18">
      <g>
       <use xlink:href="#maefb214684" x="20.5625" y="82.017401" style="stroke: #000000; stroke-width: 0.8"/>
      </g>
     </g>
     <g id="text_9">
      <!-- 2 -->
      <g transform="translate(7.2 85.816619) scale(0.1 -0.1)">
       <use xlink:href="#DejaVuSans-32"/>
      </g>
     </g>
    </g>
    <g id="ytick_4">
     <g id="line2d_19">
      <path d="M 20.5625 46.50831 
L 411.1625 46.50831 
" clip-path="url(#p31a58814c2)" style="fill: none; stroke: #b0b0b0; stroke-width: 0.8; stroke-linecap: square"/>
     </g>
     <g id="line2d_20">
      <g>
       <use xlink:href="#maefb214684" x="20.5625" y="46.50831" style="stroke: #000000; stroke-width: 0.8"/>
      </g>
     </g>
     <g id="text_10">
      <!-- 3 -->
      <g transform="translate(7.2 50.307528) scale(0.1 -0.1)">
       <defs>
        <path id="DejaVuSans-33" d="M 2597 2516 
Q 3050 2419 3304 2112 
Q 3559 1806 3559 1356 
Q 3559 666 3084 287 
Q 2609 -91 1734 -91 
Q 1441 -91 1130 -33 
Q 819 25 488 141 
L 488 750 
Q 750 597 1062 519 
Q 1375 441 1716 441 
Q 2309 441 2620 675 
Q 2931 909 2931 1356 
Q 2931 1769 2642 2001 
Q 2353 2234 1838 2234 
L 1294 2234 
L 1294 2753 
L 1863 2753 
Q 2328 2753 2575 2939 
Q 2822 3125 2822 3475 
Q 2822 3834 2567 4026 
Q 2313 4219 1838 4219 
Q 1578 4219 1281 4162 
Q 984 4106 628 3988 
L 628 4550 
Q 988 4650 1302 4700 
Q 1616 4750 1894 4750 
Q 2613 4750 3031 4423 
Q 3450 4097 3450 3541 
Q 3450 3153 3228 2886 
Q 3006 2619 2597 2516 
z
" transform="scale(0.015625)"/>
       </defs>
       <use xlink:href="#DejaVuSans-33"/>
      </g>
     </g>
    </g>
    <g id="ytick_5">
     <g id="line2d_21">
      <path d="M 20.5625 10.999219 
L 411.1625 10.999219 
" clip-path="url(#p31a58814c2)" style="fill: none; stroke: #b0b0b0; stroke-width: 0.8; stroke-linecap: square"/>
     </g>
     <g id="line2d_22">
      <g>
       <use xlink:href="#maefb214684" x="20.5625" y="10.999219" style="stroke: #000000; stroke-width: 0.8"/>
      </g>
     </g>
     <g id="text_11">
      <!-- 4 -->
      <g transform="translate(7.2 14.798437) scale(0.1 -0.1)">
       <use xlink:href="#DejaVuSans-34"/>
      </g>
     </g>
    </g>
   </g>
   <g id="line2d_23">
    <defs>
     <path id="m13354a6e6c" d="M 0 3 
C 0.795609 3 1.55874 2.683901 2.12132 2.12132 
C 2.683901 1.55874 3 0.795609 3 0 
C 3 -0.795609 2.683901 -1.55874 2.12132 -2.12132 
C 1.55874 -2.683901 0.795609 -3 0 -3 
C -0.795609 -3 -1.55874 -2.683901 -2.12132 -2.12132 
C -2.683901 -1.55874 -3 -0.795609 -3 0 
C -3 0.795609 -2.683901 1.55874 -2.12132 2.12132 
C -1.55874 2.683901 -0.795609 3 0 3 
z
" style="stroke: #ff0000"/>
    </defs>
    <g clip-path="url(#p31a58814c2)">
     <use xlink:href="#m13354a6e6c" x="56.071591" y="145.933764" style="fill: #ff0000; stroke: #ff0000"/>
     <use xlink:href="#m13354a6e6c" x="91.580682" y="135.281037" style="fill: #ff0000; stroke: #ff0000"/>
     <use xlink:href="#m13354a6e6c" x="127.089773" y="142.382855" style="fill: #ff0000; stroke: #ff0000"/>
     <use xlink:href="#m13354a6e6c" x="162.598864" y="28.753764" style="fill: #ff0000; stroke: #ff0000"/>
     <use xlink:href="#m13354a6e6c" x="198.107955" y="117.526491" style="fill: #ff0000; stroke: #ff0000"/>
     <use xlink:href="#m13354a6e6c" x="233.617045" y="99.771946" style="fill: #ff0000; stroke: #ff0000"/>
     <use xlink:href="#m13354a6e6c" x="269.126136" y="89.119219" style="fill: #ff0000; stroke: #ff0000"/>
     <use xlink:href="#m13354a6e6c" x="304.635227" y="82.017401" style="fill: #ff0000; stroke: #ff0000"/>
     <use xlink:href="#m13354a6e6c" x="340.144318" y="71.364673" style="fill: #ff0000; stroke: #ff0000"/>
     <use xlink:href="#m13354a6e6c" x="375.653409" y="74.915582" style="fill: #ff0000; stroke: #ff0000"/>
    </g>
   </g>
   <g id="line2d_24">
    <path d="M 20.5625 119.292392 
L 24.113409 118.328853 
L 27.664318 117.365313 
L 31.215227 116.401773 
L 34.766136 115.438234 
L 38.317045 114.474694 
L 41.867955 113.511154 
L 45.418864 112.547614 
L 48.969773 111.584075 
L 52.520682 110.620535 
L 56.071591 109.656995 
L 59.6225 108.693456 
L 63.173409 107.729916 
L 66.724318 106.766376 
L 70.275227 105.802836 
L 73.826136 104.839297 
L 77.377045 103.875757 
L 80.927955 102.912217 
L 84.478864 101.948677 
L 88.029773 100.985138 
L 91.580682 100.021598 
L 95.131591 99.058058 
L 98.6825 98.094519 
L 102.233409 97.130979 
L 105.784318 96.167439 
L 109.335227 95.203899 
L 112.886136 94.24036 
L 116.437045 93.27682 
L 119.987955 92.31328 
L 123.538864 91.349741 
L 127.089773 90.386201 
L 130.640682 89.422661 
L 134.191591 88.459121 
L 137.7425 87.495582 
L 141.293409 86.532042 
L 144.844318 85.568502 
L 148.395227 84.604963 
L 151.946136 83.641423 
L 155.497045 82.677883 
L 159.047955 81.714343 
L 162.598864 80.750804 
L 166.149773 79.787264 
L 169.700682 78.823724 
L 173.251591 77.860185 
L 176.8025 76.896645 
L 180.353409 75.933105 
L 183.904318 74.969565 
L 187.455227 74.006026 
L 191.006136 73.042486 
L 194.557045 72.078946 
L 198.107955 71.115406 
L 201.658864 70.151867 
L 205.209773 69.188327 
L 208.760682 68.224787 
L 212.311591 67.261248 
L 215.8625 66.297708 
L 219.413409 65.334168 
L 222.964318 64.370628 
L 226.515227 63.407089 
L 230.066136 62.443549 
L 233.617045 61.480009 
L 237.167955 60.51647 
L 240.718864 59.55293 
L 244.269773 58.58939 
L 247.820682 57.62585 
L 251.371591 56.662311 
L 254.9225 55.698771 
L 258.473409 54.735231 
L 262.024318 53.771692 
L 265.575227 52.808152 
L 269.126136 51.844612 
L 272.677045 50.881072 
L 276.227955 49.917533 
L 279.778864 48.953993 
L 283.329773 47.990453 
L 286.880682 47.026913 
L 290.431591 46.063374 
L 293.9825 45.099834 
L 297.533409 44.136294 
L 301.084318 43.172755 
L 304.635227 42.209215 
L 308.186136 41.245675 
L 311.737045 40.282135 
L 315.287955 39.318596 
L 318.838864 38.355056 
L 322.389773 37.391516 
L 325.940682 36.427977 
L 329.491591 35.464437 
L 333.0425 34.500897 
L 336.593409 33.537357 
L 340.144318 32.573818 
L 343.695227 31.610278 
L 347.246136 30.646738 
L 350.797045 29.683199 
L 354.347955 28.719659 
L 357.898864 27.756119 
L 361.449773 26.792579 
L 365.000682 25.82904 
L 368.551591 24.8655 
L 372.1025 23.90196 
L 375.653409 22.93842 
L 379.204318 21.974881 
L 382.755227 21.011341 
L 386.306136 20.047801 
L 389.857045 19.084262 
L 393.407955 18.120722 
L 396.958864 17.157182 
L 400.509773 16.193642 
L 404.060682 15.230103 
L 407.611591 14.266563 
" clip-path="url(#p31a58814c2)" style="fill: none; stroke: #1f77b4; stroke-width: 1.5; stroke-linecap: square"/>
   </g>
   <g id="line2d_25">
    <path d="M 20.5625 155.164565 
L 24.113409 154.241406 
L 27.664318 153.318247 
L 31.215227 152.395088 
L 34.766136 151.47193 
L 38.317045 150.548771 
L 41.867955 149.625612 
L 45.418864 148.702454 
L 48.969773 147.779295 
L 52.520682 146.856136 
L 56.071591 145.932977 
L 59.6225 145.009819 
L 63.173409 144.08666 
L 66.724318 143.163501 
L 70.275227 142.240342 
L 73.826136 141.317184 
L 77.377045 140.394025 
L 80.927955 139.470866 
L 84.478864 138.547707 
L 88.029773 137.624549 
L 91.580682 136.70139 
L 95.131591 135.778231 
L 98.6825 134.855072 
L 102.233409 133.931914 
L 105.784318 133.008755 
L 109.335227 132.085596 
L 112.886136 131.162437 
L 116.437045 130.239279 
L 119.987955 129.31612 
L 123.538864 128.392961 
L 127.089773 127.469803 
L 130.640682 126.546644 
L 134.191591 125.623485 
L 137.7425 124.700326 
L 141.293409 123.777168 
L 144.844318 122.854009 
L 148.395227 121.93085 
L 151.946136 121.007691 
L 155.497045 120.084533 
L 159.047955 119.161374 
L 162.598864 118.238215 
L 166.149773 117.315056 
L 169.700682 116.391898 
L 173.251591 115.468739 
L 176.8025 114.54558 
L 180.353409 113.622421 
L 183.904318 112.699263 
L 187.455227 111.776104 
L 191.006136 110.852945 
L 194.557045 109.929786 
L 198.107955 109.006628 
L 201.658864 108.083469 
L 205.209773 107.16031 
L 208.760682 106.237152 
L 212.311591 105.313993 
L 215.8625 104.390834 
L 219.413409 103.467675 
L 222.964318 102.544517 
L 226.515227 101.621358 
L 230.066136 100.698199 
L 233.617045 99.77504 
L 237.167955 98.851882 
L 240.718864 97.928723 
L 244.269773 97.005564 
L 247.820682 96.082405 
L 251.371591 95.159247 
L 254.9225 94.236088 
L 258.473409 93.312929 
L 262.024318 92.38977 
L 265.575227 91.466612 
L 269.126136 90.543453 
L 272.677045 89.620294 
L 276.227955 88.697135 
L 279.778864 87.773977 
L 283.329773 86.850818 
L 286.880682 85.927659 
L 290.431591 85.004501 
L 293.9825 84.081342 
L 297.533409 83.158183 
L 301.084318 82.235024 
L 304.635227 81.311866 
L 308.186136 80.388707 
L 311.737045 79.465548 
L 315.287955 78.542389 
L 318.838864 77.619231 
L 322.389773 76.696072 
L 325.940682 75.772913 
L 329.491591 74.849754 
L 333.0425 73.926596 
L 336.593409 73.003437 
L 340.144318 72.080278 
L 343.695227 71.157119 
L 347.246136 70.233961 
L 350.797045 69.310802 
L 354.347955 68.387643 
L 357.898864 67.464484 
L 361.449773 66.541326 
L 365.000682 65.618167 
L 368.551591 64.695008 
L 372.1025 63.77185 
L 375.653409 62.848691 
L 379.204318 61.925532 
L 382.755227 61.002373 
L 386.306136 60.079215 
L 389.857045 59.156056 
L 393.407955 58.232897 
L 396.958864 57.309738 
L 400.509773 56.38658 
L 404.060682 55.463421 
L 407.611591 54.540262 
" clip-path="url(#p31a58814c2)" style="fill: none; stroke-dasharray: 7.4,3.2; stroke-dashoffset: 0; stroke: #ff7f0e; stroke-width: 2"/>
   </g>
   <g id="line2d_26">
    <path d="M 20.5625 139.541244 
L 24.113409 138.798811 
L 27.664318 138.056379 
L 31.215227 137.313947 
L 34.766136 136.571514 
L 38.317045 135.829082 
L 41.867955 135.08665 
L 45.418864 134.344218 
L 48.969773 133.601785 
L 52.520682 132.859353 
L 56.071591 132.116921 
L 59.6225 131.374488 
L 63.173409 130.632056 
L 66.724318 129.889624 
L 70.275227 129.147192 
L 73.826136 128.404759 
L 77.377045 127.662327 
L 80.927955 126.919895 
L 84.478864 126.177462 
L 88.029773 125.43503 
L 91.580682 124.692598 
L 95.131591 123.950166 
L 98.6825 123.207733 
L 102.233409 122.465301 
L 105.784318 121.722869 
L 109.335227 120.980436 
L 112.886136 120.238004 
L 116.437045 119.495572 
L 119.987955 118.75314 
L 123.538864 118.010707 
L 127.089773 117.268275 
L 130.640682 116.525843 
L 134.191591 115.78341 
L 137.7425 115.040978 
L 141.293409 114.298546 
L 144.844318 113.556114 
L 148.395227 112.813681 
L 151.946136 112.071249 
L 155.497045 111.328817 
L 159.047955 110.586384 
L 162.598864 109.843952 
L 166.149773 109.10152 
L 169.700682 108.359088 
L 173.251591 107.616655 
L 176.8025 106.874223 
L 180.353409 106.131791 
L 183.904318 105.389358 
L 187.455227 104.646926 
L 191.006136 103.904494 
L 194.557045 103.162062 
L 198.107955 102.419629 
L 201.658864 101.677197 
L 205.209773 100.934765 
L 208.760682 100.192332 
L 212.311591 99.4499 
L 215.8625 98.707468 
L 219.413409 97.965036 
L 222.964318 97.222603 
L 226.515227 96.480171 
L 230.066136 95.737739 
L 233.617045 94.995306 
L 237.167955 94.252874 
L 240.718864 93.510442 
L 244.269773 92.76801 
L 247.820682 92.025577 
L 251.371591 91.283145 
L 254.9225 90.540713 
L 258.473409 89.79828 
L 262.024318 89.055848 
L 265.575227 88.313416 
L 269.126136 87.570984 
L 272.677045 86.828551 
L 276.227955 86.086119 
L 279.778864 85.343687 
L 283.329773 84.601254 
L 286.880682 83.858822 
L 290.431591 83.11639 
L 293.9825 82.373958 
L 297.533409 81.631525 
L 301.084318 80.889093 
L 304.635227 80.146661 
L 308.186136 79.404228 
L 311.737045 78.661796 
L 315.287955 77.919364 
L 318.838864 77.176932 
L 322.389773 76.434499 
L 325.940682 75.692067 
L 329.491591 74.949635 
L 333.0425 74.207202 
L 336.593409 73.46477 
L 340.144318 72.722338 
L 343.695227 71.979906 
L 347.246136 71.237473 
L 350.797045 70.495041 
L 354.347955 69.752609 
L 357.898864 69.010176 
L 361.449773 68.267744 
L 365.000682 67.525312 
L 368.551591 66.78288 
L 372.1025 66.040447 
L 375.653409 65.298015 
L 379.204318 64.555583 
L 382.755227 63.81315 
L 386.306136 63.070718 
L 389.857045 62.328286 
L 393.407955 61.585854 
L 396.958864 60.843421 
L 400.509773 60.100989 
L 404.060682 59.358557 
L 407.611591 58.616124 
" clip-path="url(#p31a58814c2)" style="fill: none; stroke-dasharray: 12.8,3.2,2,3.2; stroke-dashoffset: 0; stroke: #2ca02c; stroke-width: 2"/>
   </g>
   <g id="line2d_27">
    <path d="M 20.5625 139.542128 
L 24.113409 138.799665 
L 27.664318 138.057202 
L 31.215227 137.314739 
L 34.766136 136.572277 
L 38.317045 135.829814 
L 41.867955 135.087351 
L 45.418864 134.344888 
L 48.969773 133.602425 
L 52.520682 132.859963 
L 56.071591 132.1175 
L 59.6225 131.375037 
L 63.173409 130.632574 
L 66.724318 129.890111 
L 70.275227 129.147649 
L 73.826136 128.405186 
L 77.377045 127.662723 
L 80.927955 126.92026 
L 84.478864 126.177797 
L 88.029773 125.435334 
L 91.580682 124.692872 
L 95.131591 123.950409 
L 98.6825 123.207946 
L 102.233409 122.465483 
L 105.784318 121.72302 
L 109.335227 120.980558 
L 112.886136 120.238095 
L 116.437045 119.495632 
L 119.987955 118.753169 
L 123.538864 118.010706 
L 127.089773 117.268244 
L 130.640682 116.525781 
L 134.191591 115.783318 
L 137.7425 115.040855 
L 141.293409 114.298392 
L 144.844318 113.555929 
L 148.395227 112.813467 
L 151.946136 112.071004 
L 155.497045 111.328541 
L 159.047955 110.586078 
L 162.598864 109.843615 
L 166.149773 109.101153 
L 169.700682 108.35869 
L 173.251591 107.616227 
L 176.8025 106.873764 
L 180.353409 106.131301 
L 183.904318 105.388839 
L 187.455227 104.646376 
L 191.006136 103.903913 
L 194.557045 103.16145 
L 198.107955 102.418987 
L 201.658864 101.676525 
L 205.209773 100.934062 
L 208.760682 100.191599 
L 212.311591 99.449136 
L 215.8625 98.706673 
L 219.413409 97.96421 
L 222.964318 97.221748 
L 226.515227 96.479285 
L 230.066136 95.736822 
L 233.617045 94.994359 
L 237.167955 94.251896 
L 240.718864 93.509434 
L 244.269773 92.766971 
L 247.820682 92.024508 
L 251.371591 91.282045 
L 254.9225 90.539582 
L 258.473409 89.79712 
L 262.024318 89.054657 
L 265.575227 88.312194 
L 269.126136 87.569731 
L 272.677045 86.827268 
L 276.227955 86.084806 
L 279.778864 85.342343 
L 283.329773 84.59988 
L 286.880682 83.857417 
L 290.431591 83.114954 
L 293.9825 82.372491 
L 297.533409 81.630029 
L 301.084318 80.887566 
L 304.635227 80.145103 
L 308.186136 79.40264 
L 311.737045 78.660177 
L 315.287955 77.917715 
L 318.838864 77.175252 
L 322.389773 76.432789 
L 325.940682 75.690326 
L 329.491591 74.947863 
L 333.0425 74.205401 
L 336.593409 73.462938 
L 340.144318 72.720475 
L 343.695227 71.978012 
L 347.246136 71.235549 
L 350.797045 70.493087 
L 354.347955 69.750624 
L 357.898864 69.008161 
L 361.449773 68.265698 
L 365.000682 67.523235 
L 368.551591 66.780772 
L 372.1025 66.03831 
L 375.653409 65.295847 
L 379.204318 64.553384 
L 382.755227 63.810921 
L 386.306136 63.068458 
L 389.857045 62.325996 
L 393.407955 61.583533 
L 396.958864 60.84107 
L 400.509773 60.098607 
L 404.060682 59.356144 
L 407.611591 58.613682 
" clip-path="url(#p31a58814c2)" style="fill: none; stroke-dasharray: 2,3.3; stroke-dashoffset: 0; stroke: #d62728; stroke-width: 2"/>
   </g>
   <g id="patch_3">
    <path d="M 20.5625 153.035582 
L 20.5625 10.999219 
" style="fill: none; stroke: #000000; stroke-width: 0.8; stroke-linejoin: miter; stroke-linecap: square"/>
   </g>
   <g id="patch_4">
    <path d="M 411.1625 153.035582 
L 411.1625 10.999219 
" style="fill: none; stroke: #000000; stroke-width: 0.8; stroke-linejoin: miter; stroke-linecap: square"/>
   </g>
   <g id="patch_5">
    <path d="M 20.5625 153.035582 
L 411.1625 153.035582 
" style="fill: none; stroke: #000000; stroke-width: 0.8; stroke-linejoin: miter; stroke-linecap: square"/>
   </g>
   <g id="patch_6">
    <path d="M 20.5625 10.999219 
L 411.1625 10.999219 
" style="fill: none; stroke: #000000; stroke-width: 0.8; stroke-linejoin: miter; stroke-linecap: square"/>
   </g>
   <g id="legend_1">
    <g id="patch_7">
     <path d="M 27.5625 92.389844 
L 123.914062 92.389844 
Q 125.914062 92.389844 125.914062 90.389844 
L 125.914062 17.999219 
Q 125.914062 15.999219 123.914062 15.999219 
L 27.5625 15.999219 
Q 25.5625 15.999219 25.5625 17.999219 
L 25.5625 90.389844 
Q 25.5625 92.389844 27.5625 92.389844 
z
" style="fill: #ffffff; opacity: 0.8; stroke: #cccccc; stroke-linejoin: miter"/>
    </g>
    <g id="line2d_28">
     <g>
      <use xlink:href="#m13354a6e6c" x="39.5625" y="24.097656" style="fill: #ff0000; stroke: #ff0000"/>
     </g>
    </g>
    <g id="text_12">
     <!-- observations -->
     <g transform="translate(57.5625 27.597656) scale(0.1 -0.1)">
      <defs>
       <path id="DejaVuSans-6f" d="M 1959 3097 
Q 1497 3097 1228 2736 
Q 959 2375 959 1747 
Q 959 1119 1226 758 
Q 1494 397 1959 397 
Q 2419 397 2687 759 
Q 2956 1122 2956 1747 
Q 2956 2369 2687 2733 
Q 2419 3097 1959 3097 
z
M 1959 3584 
Q 2709 3584 3137 3096 
Q 3566 2609 3566 1747 
Q 3566 888 3137 398 
Q 2709 -91 1959 -91 
Q 1206 -91 779 398 
Q 353 888 353 1747 
Q 353 2609 779 3096 
Q 1206 3584 1959 3584 
z
" transform="scale(0.015625)"/>
       <path id="DejaVuSans-62" d="M 3116 1747 
Q 3116 2381 2855 2742 
Q 2594 3103 2138 3103 
Q 1681 3103 1420 2742 
Q 1159 2381 1159 1747 
Q 1159 1113 1420 752 
Q 1681 391 2138 391 
Q 2594 391 2855 752 
Q 3116 1113 3116 1747 
z
M 1159 2969 
Q 1341 3281 1617 3432 
Q 1894 3584 2278 3584 
Q 2916 3584 3314 3078 
Q 3713 2572 3713 1747 
Q 3713 922 3314 415 
Q 2916 -91 2278 -91 
Q 1894 -91 1617 61 
Q 1341 213 1159 525 
L 1159 0 
L 581 0 
L 581 4863 
L 1159 4863 
L 1159 2969 
z
" transform="scale(0.015625)"/>
       <path id="DejaVuSans-73" d="M 2834 3397 
L 2834 2853 
Q 2591 2978 2328 3040 
Q 2066 3103 1784 3103 
Q 1356 3103 1142 2972 
Q 928 2841 928 2578 
Q 928 2378 1081 2264 
Q 1234 2150 1697 2047 
L 1894 2003 
Q 2506 1872 2764 1633 
Q 3022 1394 3022 966 
Q 3022 478 2636 193 
Q 2250 -91 1575 -91 
Q 1294 -91 989 -36 
Q 684 19 347 128 
L 347 722 
Q 666 556 975 473 
Q 1284 391 1588 391 
Q 1994 391 2212 530 
Q 2431 669 2431 922 
Q 2431 1156 2273 1281 
Q 2116 1406 1581 1522 
L 1381 1569 
Q 847 1681 609 1914 
Q 372 2147 372 2553 
Q 372 3047 722 3315 
Q 1072 3584 1716 3584 
Q 2034 3584 2315 3537 
Q 2597 3491 2834 3397 
z
" transform="scale(0.015625)"/>
       <path id="DejaVuSans-65" d="M 3597 1894 
L 3597 1613 
L 953 1613 
Q 991 1019 1311 708 
Q 1631 397 2203 397 
Q 2534 397 2845 478 
Q 3156 559 3463 722 
L 3463 178 
Q 3153 47 2828 -22 
Q 2503 -91 2169 -91 
Q 1331 -91 842 396 
Q 353 884 353 1716 
Q 353 2575 817 3079 
Q 1281 3584 2069 3584 
Q 2775 3584 3186 3129 
Q 3597 2675 3597 1894 
z
M 3022 2063 
Q 3016 2534 2758 2815 
Q 2500 3097 2075 3097 
Q 1594 3097 1305 2825 
Q 1016 2553 972 2059 
L 3022 2063 
z
" transform="scale(0.015625)"/>
       <path id="DejaVuSans-72" d="M 2631 2963 
Q 2534 3019 2420 3045 
Q 2306 3072 2169 3072 
Q 1681 3072 1420 2755 
Q 1159 2438 1159 1844 
L 1159 0 
L 581 0 
L 581 3500 
L 1159 3500 
L 1159 2956 
Q 1341 3275 1631 3429 
Q 1922 3584 2338 3584 
Q 2397 3584 2469 3576 
Q 2541 3569 2628 3553 
L 2631 2963 
z
" transform="scale(0.015625)"/>
       <path id="DejaVuSans-76" d="M 191 3500 
L 800 3500 
L 1894 563 
L 2988 3500 
L 3597 3500 
L 2284 0 
L 1503 0 
L 191 3500 
z
" transform="scale(0.015625)"/>
       <path id="DejaVuSans-61" d="M 2194 1759 
Q 1497 1759 1228 1600 
Q 959 1441 959 1056 
Q 959 750 1161 570 
Q 1363 391 1709 391 
Q 2188 391 2477 730 
Q 2766 1069 2766 1631 
L 2766 1759 
L 2194 1759 
z
M 3341 1997 
L 3341 0 
L 2766 0 
L 2766 531 
Q 2569 213 2275 61 
Q 1981 -91 1556 -91 
Q 1019 -91 701 211 
Q 384 513 384 1019 
Q 384 1609 779 1909 
Q 1175 2209 1959 2209 
L 2766 2209 
L 2766 2266 
Q 2766 2663 2505 2880 
Q 2244 3097 1772 3097 
Q 1472 3097 1187 3025 
Q 903 2953 641 2809 
L 641 3341 
Q 956 3463 1253 3523 
Q 1550 3584 1831 3584 
Q 2591 3584 2966 3190 
Q 3341 2797 3341 1997 
z
" transform="scale(0.015625)"/>
       <path id="DejaVuSans-74" d="M 1172 4494 
L 1172 3500 
L 2356 3500 
L 2356 3053 
L 1172 3053 
L 1172 1153 
Q 1172 725 1289 603 
Q 1406 481 1766 481 
L 2356 481 
L 2356 0 
L 1766 0 
Q 1100 0 847 248 
Q 594 497 594 1153 
L 594 3053 
L 172 3053 
L 172 3500 
L 594 3500 
L 594 4494 
L 1172 4494 
z
" transform="scale(0.015625)"/>
       <path id="DejaVuSans-69" d="M 603 3500 
L 1178 3500 
L 1178 0 
L 603 0 
L 603 3500 
z
M 603 4863 
L 1178 4863 
L 1178 4134 
L 603 4134 
L 603 4863 
z
" transform="scale(0.015625)"/>
       <path id="DejaVuSans-6e" d="M 3513 2113 
L 3513 0 
L 2938 0 
L 2938 2094 
Q 2938 2591 2744 2837 
Q 2550 3084 2163 3084 
Q 1697 3084 1428 2787 
Q 1159 2491 1159 1978 
L 1159 0 
L 581 0 
L 581 3500 
L 1159 3500 
L 1159 2956 
Q 1366 3272 1645 3428 
Q 1925 3584 2291 3584 
Q 2894 3584 3203 3211 
Q 3513 2838 3513 2113 
z
" transform="scale(0.015625)"/>
      </defs>
      <use xlink:href="#DejaVuSans-6f"/>
      <use xlink:href="#DejaVuSans-62" x="61.181641"/>
      <use xlink:href="#DejaVuSans-73" x="124.658203"/>
      <use xlink:href="#DejaVuSans-65" x="176.757812"/>
      <use xlink:href="#DejaVuSans-72" x="238.28125"/>
      <use xlink:href="#DejaVuSans-76" x="279.394531"/>
      <use xlink:href="#DejaVuSans-61" x="338.574219"/>
      <use xlink:href="#DejaVuSans-74" x="399.853516"/>
      <use xlink:href="#DejaVuSans-69" x="439.0625"/>
      <use xlink:href="#DejaVuSans-6f" x="466.845703"/>
      <use xlink:href="#DejaVuSans-6e" x="528.027344"/>
      <use xlink:href="#DejaVuSans-73" x="591.40625"/>
     </g>
    </g>
    <g id="line2d_29">
     <path d="M 29.5625 38.775781 
L 39.5625 38.775781 
L 49.5625 38.775781 
" style="fill: none; stroke: #1f77b4; stroke-width: 1.5; stroke-linecap: square"/>
    </g>
    <g id="text_13">
     <!-- $E_\infty$ -->
     <g transform="translate(57.5625 42.275781) scale(0.1 -0.1)">
      <defs>
       <path id="DejaVuSans-Oblique-45" d="M 1081 4666 
L 4031 4666 
L 3928 4134 
L 1606 4134 
L 1338 2753 
L 3566 2753 
L 3463 2222 
L 1234 2222 
L 909 531 
L 3284 531 
L 3181 0 
L 172 0 
L 1081 4666 
z
" transform="scale(0.015625)"/>
       <path id="DejaVuSans-221e" d="M 2916 1091 
Q 2819 1203 2666 1466 
Q 2456 1091 2272 925 
Q 2041 725 1681 725 
Q 1259 725 981 1041 
Q 688 1372 688 1919 
Q 688 2444 981 2800 
Q 1244 3116 1688 3116 
Q 1916 3116 2084 3022 
Q 2281 2919 2416 2741 
Q 2541 2581 2666 2366 
Q 2875 2741 3059 2906 
Q 3291 3106 3650 3106 
Q 4072 3106 4350 2791 
Q 4644 2459 4644 1913 
Q 4644 1388 4350 1031 
Q 4088 716 3644 716 
Q 3416 716 3247 809 
Q 3078 894 2916 1091 
z
M 1647 1134 
Q 2163 1134 2472 1884 
Q 2075 2703 1647 2703 
Q 1334 2703 1175 2478 
Q 1003 2238 1003 1919 
Q 1003 1569 1175 1353 
Q 1350 1134 1647 1134 
z
M 3684 2697 
Q 3219 2697 2859 1947 
Q 3253 1128 3684 1128 
Q 3997 1128 4156 1353 
Q 4328 1594 4328 1913 
Q 4328 2263 4156 2478 
Q 3981 2697 3684 2697 
z
" transform="scale(0.015625)"/>
      </defs>
      <use xlink:href="#DejaVuSans-Oblique-45" transform="translate(0 0.09375)"/>
      <use xlink:href="#DejaVuSans-221e" transform="translate(63.183594 -16.3125) scale(0.7)"/>
     </g>
    </g>
    <g id="line2d_30">
     <path d="M 29.5625 53.453906 
L 39.5625 53.453906 
L 49.5625 53.453906 
" style="fill: none; stroke-dasharray: 7.4,3.2; stroke-dashoffset: 0; stroke: #ff7f0e; stroke-width: 2"/>
    </g>
    <g id="text_14">
     <!-- $E_1$ -->
     <g transform="translate(57.5625 56.953906) scale(0.1 -0.1)">
      <use xlink:href="#DejaVuSans-Oblique-45" transform="translate(0 0.09375)"/>
      <use xlink:href="#DejaVuSans-31" transform="translate(63.183594 -16.3125) scale(0.7)"/>
     </g>
    </g>
    <g id="line2d_31">
     <path d="M 29.5625 68.132031 
L 39.5625 68.132031 
L 49.5625 68.132031 
" style="fill: none; stroke-dasharray: 12.8,3.2,2,3.2; stroke-dashoffset: 0; stroke: #2ca02c; stroke-width: 2"/>
    </g>
    <g id="text_15">
     <!-- $E_2$ -->
     <g transform="translate(57.5625 71.632031) scale(0.1 -0.1)">
      <use xlink:href="#DejaVuSans-Oblique-45" transform="translate(0 0.09375)"/>
      <use xlink:href="#DejaVuSans-32" transform="translate(63.183594 -16.3125) scale(0.7)"/>
     </g>
    </g>
    <g id="line2d_32">
     <path d="M 29.5625 82.810156 
L 39.5625 82.810156 
L 49.5625 82.810156 
" style="fill: none; stroke-dasharray: 2,3.3; stroke-dashoffset: 0; stroke: #d62728; stroke-width: 2"/>
    </g>
    <g id="text_16">
     <!-- $X^\dagger$ -->
     <g transform="translate(57.5625 86.310156) scale(0.1 -0.1)">
      <defs>
       <path id="DejaVuSans-Oblique-58" d="M 878 4666 
L 1516 4666 
L 2316 2981 
L 3763 4666 
L 4500 4666 
L 2578 2438 
L 3738 0 
L 3103 0 
L 2163 1966 
L 459 0 
L -275 0 
L 1906 2509 
L 878 4666 
z
" transform="scale(0.015625)"/>
       <path id="DejaVuSans-2020" d="M 1325 4666 
L 1875 4666 
L 1875 3353 
L 3022 3353 
L 3022 2875 
L 1875 2875 
L 1875 -616 
L 1325 -616 
L 1325 2875 
L 178 2875 
L 178 3353 
L 1325 3353 
L 1325 4666 
z
" transform="scale(0.015625)"/>
      </defs>
      <use xlink:href="#DejaVuSans-Oblique-58" transform="translate(0 0.684375)"/>
      <use xlink:href="#DejaVuSans-2020" transform="translate(89.160326 38.965625) scale(0.7)"/>
     </g>
    </g>
   </g>
  </g>
 </g>
 <defs>
  <clipPath id="p31a58814c2">
   <rect x="20.5625" y="10.999219" width="390.6" height="142.036364"/>
  </clipPath>
 </defs>
</svg>
