<?xml version="1.0" encoding="utf-8" standalone="no"?>
<!DOCTYPE svg PUBLIC "-//W3C//DTD SVG 1.1//EN"
  "http://www.w3.org/Graphics/SVG/1.1/DTD/svg11.dtd">
<svg xmlns:xlink="http://www.w3.org/1999/xlink" width="418.3625pt" height="176.913707pt" viewBox="0 0 418.3625 176.913707" xmlns="http://www.w3.org/2000/svg" version="1.1">
 <metadata>
  <rdf:RDF xmlns:dc="http://purl.org/dc/elements/1.1/" xmlns:cc="http://creativecommons.org/ns#" xmlns:rdf="http://www.w3.org/1999/02/22-rdf-syntax-ns#">
   <cc:Work>
    <dc:type rdf:resource="http://purl.org/dc/dcmitype/StillImage"/>
    <dc:date>2026-01-05T12:17:02.636294</dc:date>
    <dc:format>image/svg+xml</dc:format>
    <dc:creator>
     <cc:Agent>
      <dc:title>Matplotlib v3.10.3, https://matplotlib.org/</dc:title>
     </cc:Agent>
    </dc:creator>
   </cc:Work>
  </rdf:RDF>
 </metadata>
 <defs>
  <style type="text/css">*{stroke-linejoin: round; stroke-linecap: butt}</style>
 </defs>
 <g id="figure_1">
  <g id="patch_1">
   <path d="M 0 176.913707 
L 418.3625 176.913707 
L 418.3625 0 
L 0 0 
z
" style="fill: #ffffff"/>
  </g>
  <g id="axes_1">
   <g id="patch_2">
    <path d="M 20.5625 153.035582 
L 411.1625 153.035582 
L 411.1625 10.999219 
L 20.5625 10.999219 
z
" style="fill: #ffffff"/>
   </g>
   <g id="matplotlib.axis_1">
    <g id="xtick_1">
     <g id="line2d_1">
      <path d="M 20.5625 153.035582 
L 20.5625 10.999219 
" clip-path="url(#pc95b6e5a0c)" style="fill: none; stroke: #b0b0b0; stroke-width: 0.8; stroke-linecap: square"/>
     </g>
     <g id="line2d_2">
      <defs>
       <path id="m456fada36e" d="M 0 0 
L 0 3.5 
" style="stroke: #000000; stroke-width: 0.8"/>
      </defs>
      <g>
       <use xlink:href="#m456fada36e" x="20.5625" y="153.035582" style="stroke: #000000; stroke-width: 0.8"/>
      </g>
     </g>
     <g id="text_1">
      <!-- 0 -->
      <g transform="translate(17.38125 167.63402) scale(0.1 -0.1)">
       <defs>
        <path id="DejaVuSans-30" d="M 2034 4250 
Q 1547 4250 1301 3770 
Q 1056 3291 1056 2328 
Q 1056 1369 1301 889 
Q 1547 409 2034 409 
Q 2525 409 2770 889 
Q 3016 1369 3016 2328 
Q 3016 3291 2770 3770 
Q 2525 4250 2034 4250 
z
M 2034 4750 
Q 2819 4750 3233 4129 
Q 3647 3509 3647 2328 
Q 3647 1150 3233 529 
Q 2819 -91 2034 -91 
Q 1250 -91 836 529 
Q 422 1150 422 2328 
Q 422 3509 836 4129 
Q 1250 4750 2034 4750 
z
" transform="scale(0.015625)"/>
       </defs>
       <use xlink:href="#DejaVuSans-30"/>
      </g>
     </g>
    </g>
    <g id="xtick_2">
     <g id="line2d_3">
      <path d="M 91.580682 153.035582 
L 91.580682 10.999219 
" clip-path="url(#pc95b6e5a0c)" style="fill: none; stroke: #b0b0b0; stroke-width: 0.8; stroke-linecap: square"/>
     </g>
     <g id="line2d_4">
      <g>
       <use xlink:href="#m456fada36e" x="91.580682" y="153.035582" style="stroke: #000000; stroke-width: 0.8"/>
      </g>
     </g>
     <g id="text_2">
      <!-- 2 -->
      <g transform="translate(88.399432 167.63402) scale(0.1 -0.1)">
       <defs>
        <path id="DejaVuSans-32" d="M 1228 531 
L 3431 531 
L 3431 0 
L 469 0 
L 469 531 
Q 828 903 1448 1529 
Q 2069 2156 2228 2338 
Q 2531 2678 2651 2914 
Q 2772 3150 2772 3378 
Q 2772 3750 2511 3984 
Q 2250 4219 1831 4219 
Q 1534 4219 1204 4116 
Q 875 4013 500 3803 
L 500 4441 
Q 881 4594 1212 4672 
Q 1544 4750 1819 4750 
Q 2544 4750 2975 4387 
Q 3406 4025 3406 3419 
Q 3406 3131 3298 2873 
Q 3191 2616 2906 2266 
Q 2828 2175 2409 1742 
Q 1991 1309 1228 531 
z
" transform="scale(0.015625)"/>
       </defs>
       <use xlink:href="#DejaVuSans-32"/>
      </g>
     </g>
    </g>
    <g id="xtick_3">
     <g id="line2d_5">
      <path d="M 162.598864 153.035582 
L 162.598864 10.999219 
" clip-path="url(#pc95b6e5a0c)" style="fill: none; stroke: #b0b0b0; stroke-width: 0.8; stroke-linecap: square"/>
     </g>
     <g id="line2d_6">
      <g>
       <use xlink:href="#m456fada36e" x="162.598864" y="153.035582" style="stroke: #000000; stroke-width: 0.8"/>
      </g>
     </g>
     <g id="text_3">
      <!-- 4 -->
      <g transform="translate(159.417614 167.63402) scale(0.1 -0.1)">
       <defs>
        <path id="DejaVuSans-34" d="M 2419 4116 
L 825 1625 
L 2419 1625 
L 2419 4116 
z
M 2253 4666 
L 3047 4666 
L 3047 1625 
L 3713 1625 
L 3713 1100 
L 3047 1100 
L 3047 0 
L 2419 0 
L 2419 1100 
L 313 1100 
L 313 1709 
L 2253 4666 
z
" transform="scale(0.015625)"/>
       </defs>
       <use xlink:href="#DejaVuSans-34"/>
      </g>
     </g>
    </g>
    <g id="xtick_4">
     <g id="line2d_7">
      <path d="M 233.617045 153.035582 
L 233.617045 10.999219 
" clip-path="url(#pc95b6e5a0c)" style="fill: none; stroke: #b0b0b0; stroke-width: 0.8; stroke-linecap: square"/>
     </g>
     <g id="line2d_8">
      <g>
       <use xlink:href="#m456fada36e" x="233.617045" y="153.035582" style="stroke: #000000; stroke-width: 0.8"/>
      </g>
     </g>
     <g id="text_4">
      <!-- 6 -->
      <g transform="translate(230.435795 167.63402) scale(0.1 -0.1)">
       <defs>
        <path id="DejaVuSans-36" d="M 2113 2584 
Q 1688 2584 1439 2293 
Q 1191 2003 1191 1497 
Q 1191 994 1439 701 
Q 1688 409 2113 409 
Q 2538 409 2786 701 
Q 3034 994 3034 1497 
Q 3034 2003 2786 2293 
Q 2538 2584 2113 2584 
z
M 3366 4563 
L 3366 3988 
Q 3128 4100 2886 4159 
Q 2644 4219 2406 4219 
Q 1781 4219 1451 3797 
Q 1122 3375 1075 2522 
Q 1259 2794 1537 2939 
Q 1816 3084 2150 3084 
Q 2853 3084 3261 2657 
Q 3669 2231 3669 1497 
Q 3669 778 3244 343 
Q 2819 -91 2113 -91 
Q 1303 -91 875 529 
Q 447 1150 447 2328 
Q 447 3434 972 4092 
Q 1497 4750 2381 4750 
Q 2619 4750 2861 4703 
Q 3103 4656 3366 4563 
z
" transform="scale(0.015625)"/>
       </defs>
       <use xlink:href="#DejaVuSans-36"/>
      </g>
     </g>
    </g>
    <g id="xtick_5">
     <g id="line2d_9">
      <path d="M 304.635227 153.035582 
L 304.635227 10.999219 
" clip-path="url(#pc95b6e5a0c)" style="fill: none; stroke: #b0b0b0; stroke-width: 0.8; stroke-linecap: square"/>
     </g>
     <g id="line2d_10">
      <g>
       <use xlink:href="#m456fada36e" x="304.635227" y="153.035582" style="stroke: #000000; stroke-width: 0.8"/>
      </g>
     </g>
     <g id="text_5">
      <!-- 8 -->
      <g transform="translate(301.453977 167.63402) scale(0.1 -0.1)">
       <defs>
        <path id="DejaVuSans-38" d="M 2034 2216 
Q 1584 2216 1326 1975 
Q 1069 1734 1069 1313 
Q 1069 891 1326 650 
Q 1584 409 2034 409 
Q 2484 409 2743 651 
Q 3003 894 3003 1313 
Q 3003 1734 2745 1975 
Q 2488 2216 2034 2216 
z
M 1403 2484 
Q 997 2584 770 2862 
Q 544 3141 544 3541 
Q 544 4100 942 4425 
Q 1341 4750 2034 4750 
Q 2731 4750 3128 4425 
Q 3525 4100 3525 3541 
Q 3525 3141 3298 2862 
Q 3072 2584 2669 2484 
Q 3125 2378 3379 2068 
Q 3634 1759 3634 1313 
Q 3634 634 3220 271 
Q 2806 -91 2034 -91 
Q 1263 -91 848 271 
Q 434 634 434 1313 
Q 434 1759 690 2068 
Q 947 2378 1403 2484 
z
M 1172 3481 
Q 1172 3119 1398 2916 
Q 1625 2713 2034 2713 
Q 2441 2713 2670 2916 
Q 2900 3119 2900 3481 
Q 2900 3844 2670 4047 
Q 2441 4250 2034 4250 
Q 1625 4250 1398 4047 
Q 1172 3844 1172 3481 
z
" transform="scale(0.015625)"/>
       </defs>
       <use xlink:href="#DejaVuSans-38"/>
      </g>
     </g>
    </g>
    <g id="xtick_6">
     <g id="line2d_11">
      <path d="M 375.653409 153.035582 
L 375.653409 10.999219 
" clip-path="url(#pc95b6e5a0c)" style="fill: none; stroke: #b0b0b0; stroke-width: 0.8; stroke-linecap: square"/>
     </g>
     <g id="line2d_12">
      <g>
       <use xlink:href="#m456fada36e" x="375.653409" y="153.035582" style="stroke: #000000; stroke-width: 0.8"/>
      </g>
     </g>
     <g id="text_6">
      <!-- 10 -->
      <g transform="translate(369.290909 167.63402) scale(0.1 -0.1)">
       <defs>
        <path id="DejaVuSans-31" d="M 794 531 
L 1825 531 
L 1825 4091 
L 703 3866 
L 703 4441 
L 1819 4666 
L 2450 4666 
L 2450 531 
L 3481 531 
L 3481 0 
L 794 0 
L 794 531 
z
" transform="scale(0.015625)"/>
       </defs>
       <use xlink:href="#DejaVuSans-31"/>
       <use xlink:href="#DejaVuSans-30" transform="translate(63.623047 0)"/>
      </g>
     </g>
    </g>
   </g>
   <g id="matplotlib.axis_2">
    <g id="ytick_1">
     <g id="line2d_13">
      <path d="M 20.5625 153.035582 
L 411.1625 153.035582 
" clip-path="url(#pc95b6e5a0c)" style="fill: none; stroke: #b0b0b0; stroke-width: 0.8; stroke-linecap: square"/>
     </g>
     <g id="line2d_14">
      <defs>
       <path id="m7425b2b7d2" d="M 0 0 
L -3.5 0 
" style="stroke: #000000; stroke-width: 0.8"/>
      </defs>
      <g>
       <use xlink:href="#m7425b2b7d2" x="20.5625" y="153.035582" style="stroke: #000000; stroke-width: 0.8"/>
      </g>
     </g>
     <g id="text_7">
      <!-- 0 -->
      <g transform="translate(7.2 156.834801) scale(0.1 -0.1)">
       <use xlink:href="#DejaVuSans-30"/>
      </g>
     </g>
    </g>
    <g id="ytick_2">
     <g id="line2d_15">
      <path d="M 20.5625 117.526491 
L 411.1625 117.526491 
" clip-path="url(#pc95b6e5a0c)" style="fill: none; stroke: #b0b0b0; stroke-width: 0.8; stroke-linecap: square"/>
     </g>
     <g id="line2d_16">
      <g>
       <use xlink:href="#m7425b2b7d2" x="20.5625" y="117.526491" style="stroke: #000000; stroke-width: 0.8"/>
      </g>
     </g>
     <g id="text_8">
      <!-- 1 -->
      <g transform="translate(7.2 121.32571) scale(0.1 -0.1)">
       <use xlink:href="#DejaVuSans-31"/>
      </g>
     </g>
    </g>
    <g id="ytick_3">
     <g id="line2d_17">
      <path d="M 20.5625 82.017401 
L 411.1625 82.017401 
" clip-path="url(#pc95b6e5a0c)" style="fill: none; stroke: #b0b0b0; stroke-width: 0.8; stroke-linecap: square"/>
     </g>
     <g id="line2d_18">
      <g>
       <use xlink:href="#m7425b2b7d2" x="20.5625" y="82.017401" style="stroke: #000000; stroke-width: 0.8"/>
      </g>
     </g>
     <g id="text_9">
      <!-- 2 -->
      <g transform="translate(7.2 85.816619) scale(0.1 -0.1)">
       <use xlink:href="#DejaVuSans-32"/>
      </g>
     </g>
    </g>
    <g id="ytick_4">
     <g id="line2d_19">
      <path d="M 20.5625 46.50831 
L 411.1625 46.50831 
" clip-path="url(#pc95b6e5a0c)" style="fill: none; stroke: #b0b0b0; stroke-width: 0.8; stroke-linecap: square"/>
     </g>
     <g id="line2d_20">
      <g>
       <use xlink:href="#m7425b2b7d2" x="20.5625" y="46.50831" style="stroke: #000000; stroke-width: 0.8"/>
      </g>
     </g>
     <g id="text_10">
      <!-- 3 -->
      <g transform="translate(7.2 50.307528) scale(0.1 -0.1)">
       <defs>
        <path id="DejaVuSans-33" d="M 2597 2516 
Q 3050 2419 3304 2112 
Q 3559 1806 3559 1356 
Q 3559 666 3084 287 
Q 2609 -91 1734 -91 
Q 1441 -91 1130 -33 
Q 819 25 488 141 
L 488 750 
Q 750 597 1062 519 
Q 1375 441 1716 441 
Q 2309 441 2620 675 
Q 2931 909 2931 1356 
Q 2931 1769 2642 2001 
Q 2353 2234 1838 2234 
L 1294 2234 
L 1294 2753 
L 1863 2753 
Q 2328 2753 2575 2939 
Q 2822 3125 2822 3475 
Q 2822 3834 2567 4026 
Q 2313 4219 1838 4219 
Q 1578 4219 1281 4162 
Q 984 4106 628 3988 
L 628 4550 
Q 988 4650 1302 4700 
Q 1616 4750 1894 4750 
Q 2613 4750 3031 4423 
Q 3450 4097 3450 3541 
Q 3450 3153 3228 2886 
Q 3006 2619 2597 2516 
z
" transform="scale(0.015625)"/>
       </defs>
       <use xlink:href="#DejaVuSans-33"/>
      </g>
     </g>
    </g>
    <g id="ytick_5">
     <g id="line2d_21">
      <path d="M 20.5625 10.999219 
L 411.1625 10.999219 
" clip-path="url(#pc95b6e5a0c)" style="fill: none; stroke: #b0b0b0; stroke-width: 0.8; stroke-linecap: square"/>
     </g>
     <g id="line2d_22">
      <g>
       <use xlink:href="#m7425b2b7d2" x="20.5625" y="10.999219" style="stroke: #000000; stroke-width: 0.8"/>
      </g>
     </g>
     <g id="text_11">
      <!-- 4 -->
      <g transform="translate(7.2 14.798437) scale(0.1 -0.1)">
       <use xlink:href="#DejaVuSans-34"/>
      </g>
     </g>
    </g>
   </g>
   <g id="line2d_23">
    <defs>
     <path id="m3ed2ed5bf5" d="M 0 3 
C 0.795609 3 1.55874 2.683901 2.12132 2.12132 
C 2.683901 1.55874 3 0.795609 3 0 
C 3 -0.795609 2.683901 -1.55874 2.12132 -2.12132 
C 1.55874 -2.683901 0.795609 -3 0 -3 
C -0.795609 -3 -1.55874 -2.683901 -2.12132 -2.12132 
C -2.683901 -1.55874 -3 -0.795609 -3 0 
C -3 0.795609 -2.683901 1.55874 -2.12132 2.12132 
C -1.55874 2.683901 -0.795609 3 0 3 
z
" style="stroke: #ff0000"/>
    </defs>
    <g clip-path="url(#pc95b6e5a0c)">
     <use xlink:href="#m3ed2ed5bf5" x="56.071591" y="145.933764" style="fill: #ff0000; stroke: #ff0000"/>
     <use xlink:href="#m3ed2ed5bf5" x="91.580682" y="135.281037" style="fill: #ff0000; stroke: #ff0000"/>
     <use xlink:href="#m3ed2ed5bf5" x="127.089773" y="142.382855" style="fill: #ff0000; stroke: #ff0000"/>
     <use xlink:href="#m3ed2ed5bf5" x="162.598864" y="135.281037" style="fill: #ff0000; stroke: #ff0000"/>
     <use xlink:href="#m3ed2ed5bf5" x="198.107955" y="117.526491" style="fill: #ff0000; stroke: #ff0000"/>
     <use xlink:href="#m3ed2ed5bf5" x="233.617045" y="99.771946" style="fill: #ff0000; stroke: #ff0000"/>
     <use xlink:href="#m3ed2ed5bf5" x="269.126136" y="89.119219" style="fill: #ff0000; stroke: #ff0000"/>
     <use xlink:href="#m3ed2ed5bf5" x="304.635227" y="82.017401" style="fill: #ff0000; stroke: #ff0000"/>
     <use xlink:href="#m3ed2ed5bf5" x="340.144318" y="71.364673" style="fill: #ff0000; stroke: #ff0000"/>
     <use xlink:href="#m3ed2ed5bf5" x="375.653409" y="74.915582" style="fill: #ff0000; stroke: #ff0000"/>
    </g>
   </g>
   <g id="line2d_24">
    <path d="M 20.5625 162.97782 
L 24.113409 162.054596 
L 27.664318 161.131371 
L 31.215227 160.208147 
L 34.766136 159.284923 
L 38.317045 158.361698 
L 41.867955 157.438474 
L 45.418864 156.51525 
L 48.969773 155.592025 
L 52.520682 154.668801 
L 56.071591 153.745576 
L 59.6225 152.822352 
L 63.173409 151.899128 
L 66.724318 150.975903 
L 70.275227 150.052679 
L 73.826136 149.129455 
L 77.377045 148.20623 
L 80.927955 147.283006 
L 84.478864 146.359781 
L 88.029773 145.436557 
L 91.580682 144.513333 
L 95.131591 143.590108 
L 98.6825 142.666884 
L 102.233409 141.74366 
L 105.784318 140.820435 
L 109.335227 139.897211 
L 112.886136 138.973986 
L 116.437045 138.050762 
L 119.987955 137.127538 
L 123.538864 136.204313 
L 127.089773 135.281089 
L 130.640682 134.357865 
L 134.191591 133.43464 
L 137.7425 132.511416 
L 141.293409 131.588191 
L 144.844318 130.664967 
L 148.395227 129.741743 
L 151.946136 128.818518 
L 155.497045 127.895294 
L 159.047955 126.97207 
L 162.598864 126.048845 
L 166.149773 125.125621 
L 169.700682 124.202396 
L 173.251591 123.279172 
L 176.8025 122.355948 
L 180.353409 121.432723 
L 183.904318 120.509499 
L 187.455227 119.586275 
L 191.006136 118.66305 
L 194.557045 117.739826 
L 198.107955 116.816601 
L 201.658864 115.893377 
L 205.209773 114.970153 
L 208.760682 114.046928 
L 212.311591 113.123704 
L 215.8625 112.200479 
L 219.413409 111.277255 
L 222.964318 110.354031 
L 226.515227 109.430806 
L 230.066136 108.507582 
L 233.617045 107.584358 
L 237.167955 106.661133 
L 240.718864 105.737909 
L 244.269773 104.814684 
L 247.820682 103.89146 
L 251.371591 102.968236 
L 254.9225 102.045011 
L 258.473409 101.121787 
L 262.024318 100.198563 
L 265.575227 99.275338 
L 269.126136 98.352114 
L 272.677045 97.428889 
L 276.227955 96.505665 
L 279.778864 95.582441 
L 283.329773 94.659216 
L 286.880682 93.735992 
L 290.431591 92.812768 
L 293.9825 91.889543 
L 297.533409 90.966319 
L 301.084318 90.043094 
L 304.635227 89.11987 
L 308.186136 88.196646 
L 311.737045 87.273421 
L 315.287955 86.350197 
L 318.838864 85.426973 
L 322.389773 84.503748 
L 325.940682 83.580524 
L 329.491591 82.657299 
L 333.0425 81.734075 
L 336.593409 80.810851 
L 340.144318 79.887626 
L 343.695227 78.964402 
L 347.246136 78.041178 
L 350.797045 77.117953 
L 354.347955 76.194729 
L 357.898864 75.271504 
L 361.449773 74.34828 
L 365.000682 73.425056 
L 368.551591 72.501831 
L 372.1025 71.578607 
L 375.653409 70.655383 
L 379.204318 69.732158 
L 382.755227 68.808934 
L 386.306136 67.885709 
L 389.857045 66.962485 
L 393.407955 66.039261 
L 396.958864 65.116036 
L 400.509773 64.192812 
L 404.060682 63.269588 
L 407.611591 62.346363 
" clip-path="url(#pc95b6e5a0c)" style="fill: none; stroke: #1f77b4; stroke-width: 1.5; stroke-linecap: square"/>
   </g>
   <g id="line2d_25">
    <path d="M 20.5625 155.065416 
L 24.113409 154.152328 
L 27.664318 153.23924 
L 31.215227 152.326152 
L 34.766136 151.413063 
L 38.317045 150.499975 
L 41.867955 149.586887 
L 45.418864 148.673798 
L 48.969773 147.76071 
L 52.520682 146.847622 
L 56.071591 145.934533 
L 59.6225 145.021445 
L 63.173409 144.108357 
L 66.724318 143.195268 
L 70.275227 142.28218 
L 73.826136 141.369092 
L 77.377045 140.456003 
L 80.927955 139.542915 
L 84.478864 138.629827 
L 88.029773 137.716738 
L 91.580682 136.80365 
L 95.131591 135.890562 
L 98.6825 134.977473 
L 102.233409 134.064385 
L 105.784318 133.151297 
L 109.335227 132.238208 
L 112.886136 131.32512 
L 116.437045 130.412032 
L 119.987955 129.498943 
L 123.538864 128.585855 
L 127.089773 127.672767 
L 130.640682 126.759678 
L 134.191591 125.84659 
L 137.7425 124.933502 
L 141.293409 124.020414 
L 144.844318 123.107325 
L 148.395227 122.194237 
L 151.946136 121.281149 
L 155.497045 120.36806 
L 159.047955 119.454972 
L 162.598864 118.541884 
L 166.149773 117.628795 
L 169.700682 116.715707 
L 173.251591 115.802619 
L 176.8025 114.88953 
L 180.353409 113.976442 
L 183.904318 113.063354 
L 187.455227 112.150265 
L 191.006136 111.237177 
L 194.557045 110.324089 
L 198.107955 109.411 
L 201.658864 108.497912 
L 205.209773 107.584824 
L 208.760682 106.671735 
L 212.311591 105.758647 
L 215.8625 104.845559 
L 219.413409 103.93247 
L 222.964318 103.019382 
L 226.515227 102.106294 
L 230.066136 101.193205 
L 233.617045 100.280117 
L 237.167955 99.367029 
L 240.718864 98.45394 
L 244.269773 97.540852 
L 247.820682 96.627764 
L 251.371591 95.714676 
L 254.9225 94.801587 
L 258.473409 93.888499 
L 262.024318 92.975411 
L 265.575227 92.062322 
L 269.126136 91.149234 
L 272.677045 90.236146 
L 276.227955 89.323057 
L 279.778864 88.409969 
L 283.329773 87.496881 
L 286.880682 86.583792 
L 290.431591 85.670704 
L 293.9825 84.757616 
L 297.533409 83.844527 
L 301.084318 82.931439 
L 304.635227 82.018351 
L 308.186136 81.105262 
L 311.737045 80.192174 
L 315.287955 79.279086 
L 318.838864 78.365997 
L 322.389773 77.452909 
L 325.940682 76.539821 
L 329.491591 75.626732 
L 333.0425 74.713644 
L 336.593409 73.800556 
L 340.144318 72.887467 
L 343.695227 71.974379 
L 347.246136 71.061291 
L 350.797045 70.148202 
L 354.347955 69.235114 
L 357.898864 68.322026 
L 361.449773 67.408938 
L 365.000682 66.495849 
L 368.551591 65.582761 
L 372.1025 64.669673 
L 375.653409 63.756584 
L 379.204318 62.843496 
L 382.755227 61.930408 
L 386.306136 61.017319 
L 389.857045 60.104231 
L 393.407955 59.191143 
L 396.958864 58.278054 
L 400.509773 57.364966 
L 404.060682 56.451878 
L 407.611591 55.538789 
" clip-path="url(#pc95b6e5a0c)" style="fill: none; stroke-dasharray: 7.4,3.2; stroke-dashoffset: 0; stroke: #ff7f0e; stroke-width: 2"/>
   </g>
   <g id="line2d_26">
    <path d="M 20.5625 160.84838 
L 24.113409 159.912209 
L 27.664318 158.976037 
L 31.215227 158.039866 
L 34.766136 157.103695 
L 38.317045 156.167523 
L 41.867955 155.231352 
L 45.418864 154.29518 
L 48.969773 153.359009 
L 52.520682 152.422838 
L 56.071591 151.486666 
L 59.6225 150.550495 
L 63.173409 149.614323 
L 66.724318 148.678152 
L 70.275227 147.741981 
L 73.826136 146.805809 
L 77.377045 145.869638 
L 80.927955 144.933466 
L 84.478864 143.997295 
L 88.029773 143.061124 
L 91.580682 142.124952 
L 95.131591 141.188781 
L 98.6825 140.252609 
L 102.233409 139.316438 
L 105.784318 138.380267 
L 109.335227 137.444095 
L 112.886136 136.507924 
L 116.437045 135.571752 
L 119.987955 134.635581 
L 123.538864 133.69941 
L 127.089773 132.763238 
L 130.640682 131.827067 
L 134.191591 130.890896 
L 137.7425 129.954724 
L 141.293409 129.018553 
L 144.844318 128.082381 
L 148.395227 127.14621 
L 151.946136 126.210039 
L 155.497045 125.273867 
L 159.047955 124.337696 
L 162.598864 123.401524 
L 166.149773 122.465353 
L 169.700682 121.529182 
L 173.251591 120.59301 
L 176.8025 119.656839 
L 180.353409 118.720667 
L 183.904318 117.784496 
L 187.455227 116.848325 
L 191.006136 115.912153 
L 194.557045 114.975982 
L 198.107955 114.03981 
L 201.658864 113.103639 
L 205.209773 112.167468 
L 208.760682 111.231296 
L 212.311591 110.295125 
L 215.8625 109.358953 
L 219.413409 108.422782 
L 222.964318 107.486611 
L 226.515227 106.550439 
L 230.066136 105.614268 
L 233.617045 104.678097 
L 237.167955 103.741925 
L 240.718864 102.805754 
L 244.269773 101.869582 
L 247.820682 100.933411 
L 251.371591 99.99724 
L 254.9225 99.061068 
L 258.473409 98.124897 
L 262.024318 97.188725 
L 265.575227 96.252554 
L 269.126136 95.316383 
L 272.677045 94.380211 
L 276.227955 93.44404 
L 279.778864 92.507868 
L 283.329773 91.571697 
L 286.880682 90.635526 
L 290.431591 89.699354 
L 293.9825 88.763183 
L 297.533409 87.827011 
L 301.084318 86.89084 
L 304.635227 85.954669 
L 308.186136 85.018497 
L 311.737045 84.082326 
L 315.287955 83.146154 
L 318.838864 82.209983 
L 322.389773 81.273812 
L 325.940682 80.33764 
L 329.491591 79.401469 
L 333.0425 78.465298 
L 336.593409 77.529126 
L 340.144318 76.592955 
L 343.695227 75.656783 
L 347.246136 74.720612 
L 350.797045 73.784441 
L 354.347955 72.848269 
L 357.898864 71.912098 
L 361.449773 70.975926 
L 365.000682 70.039755 
L 368.551591 69.103584 
L 372.1025 68.167412 
L 375.653409 67.231241 
L 379.204318 66.295069 
L 382.755227 65.358898 
L 386.306136 64.422727 
L 389.857045 63.486555 
L 393.407955 62.550384 
L 396.958864 61.614212 
L 400.509773 60.678041 
L 404.060682 59.74187 
L 407.611591 58.805698 
" clip-path="url(#pc95b6e5a0c)" style="fill: none; stroke-dasharray: 12.8,3.2,2,3.2; stroke-dashoffset: 0; stroke: #2ca02c; stroke-width: 2"/>
   </g>
   <g id="line2d_27">
    <path d="M 20.5625 160.847582 
L 24.113409 159.911434 
L 27.664318 158.975285 
L 31.215227 158.039136 
L 34.766136 157.102987 
L 38.317045 156.166839 
L 41.867955 155.23069 
L 45.418864 154.294541 
L 48.969773 153.358392 
L 52.520682 152.422244 
L 56.071591 151.486095 
L 59.6225 150.549946 
L 63.173409 149.613797 
L 66.724318 148.677649 
L 70.275227 147.7415 
L 73.826136 146.805351 
L 77.377045 145.869202 
L 80.927955 144.933053 
L 84.478864 143.996905 
L 88.029773 143.060756 
L 91.580682 142.124607 
L 95.131591 141.188458 
L 98.6825 140.25231 
L 102.233409 139.316161 
L 105.784318 138.380012 
L 109.335227 137.443863 
L 112.886136 136.507715 
L 116.437045 135.571566 
L 119.987955 134.635417 
L 123.538864 133.699268 
L 127.089773 132.76312 
L 130.640682 131.826971 
L 134.191591 130.890822 
L 137.7425 129.954673 
L 141.293409 129.018525 
L 144.844318 128.082376 
L 148.395227 127.146227 
L 151.946136 126.210078 
L 155.497045 125.273929 
L 159.047955 124.337781 
L 162.598864 123.401632 
L 166.149773 122.465483 
L 169.700682 121.529334 
L 173.251591 120.593186 
L 176.8025 119.657037 
L 180.353409 118.720888 
L 183.904318 117.784739 
L 187.455227 116.848591 
L 191.006136 115.912442 
L 194.557045 114.976293 
L 198.107955 114.040144 
L 201.658864 113.103996 
L 205.209773 112.167847 
L 208.760682 111.231698 
L 212.311591 110.295549 
L 215.8625 109.359401 
L 219.413409 108.423252 
L 222.964318 107.487103 
L 226.515227 106.550954 
L 230.066136 105.614806 
L 233.617045 104.678657 
L 237.167955 103.742508 
L 240.718864 102.806359 
L 244.269773 101.87021 
L 247.820682 100.934062 
L 251.371591 99.997913 
L 254.9225 99.061764 
L 258.473409 98.125615 
L 262.024318 97.189467 
L 265.575227 96.253318 
L 269.126136 95.317169 
L 272.677045 94.38102 
L 276.227955 93.444872 
L 279.778864 92.508723 
L 283.329773 91.572574 
L 286.880682 90.636425 
L 290.431591 89.700277 
L 293.9825 88.764128 
L 297.533409 87.827979 
L 301.084318 86.89183 
L 304.635227 85.955682 
L 308.186136 85.019533 
L 311.737045 84.083384 
L 315.287955 83.147235 
L 318.838864 82.211087 
L 322.389773 81.274938 
L 325.940682 80.338789 
L 329.491591 79.40264 
L 333.0425 78.466491 
L 336.593409 77.530343 
L 340.144318 76.594194 
L 343.695227 75.658045 
L 347.246136 74.721896 
L 350.797045 73.785748 
L 354.347955 72.849599 
L 357.898864 71.91345 
L 361.449773 70.977301 
L 365.000682 70.041153 
L 368.551591 69.105004 
L 372.1025 68.168855 
L 375.653409 67.232706 
L 379.204318 66.296558 
L 382.755227 65.360409 
L 386.306136 64.42426 
L 389.857045 63.488111 
L 393.407955 62.551963 
L 396.958864 61.615814 
L 400.509773 60.679665 
L 404.060682 59.743516 
L 407.611591 58.807368 
" clip-path="url(#pc95b6e5a0c)" style="fill: none; stroke-dasharray: 2,3.3; stroke-dashoffset: 0; stroke: #d62728; stroke-width: 2"/>
   </g>
   <g id="patch_3">
    <path d="M 20.5625 153.035582 
L 20.5625 10.999219 
" style="fill: none; stroke: #000000; stroke-width: 0.8; stroke-linejoin: miter; stroke-linecap: square"/>
   </g>
   <g id="patch_4">
    <path d="M 411.1625 153.035582 
L 411.1625 10.999219 
" style="fill: none; stroke: #000000; stroke-width: 0.8; stroke-linejoin: miter; stroke-linecap: square"/>
   </g>
   <g id="patch_5">
    <path d="M 20.5625 153.035582 
L 411.1625 153.035582 
" style="fill: none; stroke: #000000; stroke-width: 0.8; stroke-linejoin: miter; stroke-linecap: square"/>
   </g>
   <g id="patch_6">
    <path d="M 20.5625 10.999219 
L 411.1625 10.999219 
" style="fill: none; stroke: #000000; stroke-width: 0.8; stroke-linejoin: miter; stroke-linecap: square"/>
   </g>
   <g id="legend_1">
    <g id="patch_7">
     <path d="M 27.5625 92.389844 
L 123.914062 92.389844 
Q 125.914062 92.389844 125.914062 90.389844 
L 125.914062 17.999219 
Q 125.914062 15.999219 123.914062 15.999219 
L 27.5625 15.999219 
Q 25.5625 15.999219 25.5625 17.999219 
L 25.5625 90.389844 
Q 25.5625 92.389844 27.5625 92.389844 
z
" style="fill: #ffffff; opacity: 0.8; stroke: #cccccc; stroke-linejoin: miter"/>
    </g>
    <g id="line2d_28">
     <g>
      <use xlink:href="#m3ed2ed5bf5" x="39.5625" y="24.097656" style="fill: #ff0000; stroke: #ff0000"/>
     </g>
    </g>
    <g id="text_12">
     <!-- observations -->
     <g transform="translate(57.5625 27.597656) scale(0.1 -0.1)">
      <defs>
       <path id="DejaVuSans-6f" d="M 1959 3097 
Q 1497 3097 1228 2736 
Q 959 2375 959 1747 
Q 959 1119 1226 758 
Q 1494 397 1959 397 
Q 2419 397 2687 759 
Q 2956 1122 2956 1747 
Q 2956 2369 2687 2733 
Q 2419 3097 1959 3097 
z
M 1959 3584 
Q 2709 3584 3137 3096 
Q 3566 2609 3566 1747 
Q 3566 888 3137 398 
Q 2709 -91 1959 -91 
Q 1206 -91 779 398 
Q 353 888 353 1747 
Q 353 2609 779 3096 
Q 1206 3584 1959 3584 
z
" transform="scale(0.015625)"/>
       <path id="DejaVuSans-62" d="M 3116 1747 
Q 3116 2381 2855 2742 
Q 2594 3103 2138 3103 
Q 1681 3103 1420 2742 
Q 1159 2381 1159 1747 
Q 1159 1113 1420 752 
Q 1681 391 2138 391 
Q 2594 391 2855 752 
Q 3116 1113 3116 1747 
z
M 1159 2969 
Q 1341 3281 1617 3432 
Q 1894 3584 2278 3584 
Q 2916 3584 3314 3078 
Q 3713 2572 3713 1747 
Q 3713 922 3314 415 
Q 2916 -91 2278 -91 
Q 1894 -91 1617 61 
Q 1341 213 1159 525 
L 1159 0 
L 581 0 
L 581 4863 
L 1159 4863 
L 1159 2969 
z
" transform="scale(0.015625)"/>
       <path id="DejaVuSans-73" d="M 2834 3397 
L 2834 2853 
Q 2591 2978 2328 3040 
Q 2066 3103 1784 3103 
Q 1356 3103 1142 2972 
Q 928 2841 928 2578 
Q 928 2378 1081 2264 
Q 1234 2150 1697 2047 
L 1894 2003 
Q 2506 1872 2764 1633 
Q 3022 1394 3022 966 
Q 3022 478 2636 193 
Q 2250 -91 1575 -91 
Q 1294 -91 989 -36 
Q 684 19 347 128 
L 347 722 
Q 666 556 975 473 
Q 1284 391 1588 391 
Q 1994 391 2212 530 
Q 2431 669 2431 922 
Q 2431 1156 2273 1281 
Q 2116 1406 1581 1522 
L 1381 1569 
Q 847 1681 609 1914 
Q 372 2147 372 2553 
Q 372 3047 722 3315 
Q 1072 3584 1716 3584 
Q 2034 3584 2315 3537 
Q 2597 3491 2834 3397 
z
" transform="scale(0.015625)"/>
       <path id="DejaVuSans-65" d="M 3597 1894 
L 3597 1613 
L 953 1613 
Q 991 1019 1311 708 
Q 1631 397 2203 397 
Q 2534 397 2845 478 
Q 3156 559 3463 722 
L 3463 178 
Q 3153 47 2828 -22 
Q 2503 -91 2169 -91 
Q 1331 -91 842 396 
Q 353 884 353 1716 
Q 353 2575 817 3079 
Q 1281 3584 2069 3584 
Q 2775 3584 3186 3129 
Q 3597 2675 3597 1894 
z
M 3022 2063 
Q 3016 2534 2758 2815 
Q 2500 3097 2075 3097 
Q 1594 3097 1305 2825 
Q 1016 2553 972 2059 
L 3022 2063 
z
" transform="scale(0.015625)"/>
       <path id="DejaVuSans-72" d="M 2631 2963 
Q 2534 3019 2420 3045 
Q 2306 3072 2169 3072 
Q 1681 3072 1420 2755 
Q 1159 2438 1159 1844 
L 1159 0 
L 581 0 
L 581 3500 
L 1159 3500 
L 1159 2956 
Q 1341 3275 1631 3429 
Q 1922 3584 2338 3584 
Q 2397 3584 2469 3576 
Q 2541 3569 2628 3553 
L 2631 2963 
z
" transform="scale(0.015625)"/>
       <path id="DejaVuSans-76" d="M 191 3500 
L 800 3500 
L 1894 563 
L 2988 3500 
L 3597 3500 
L 2284 0 
L 1503 0 
L 191 3500 
z
" transform="scale(0.015625)"/>
       <path id="DejaVuSans-61" d="M 2194 1759 
Q 1497 1759 1228 1600 
Q 959 1441 959 1056 
Q 959 750 1161 570 
Q 1363 391 1709 391 
Q 2188 391 2477 730 
Q 2766 1069 2766 1631 
L 2766 1759 
L 2194 1759 
z
M 3341 1997 
L 3341 0 
L 2766 0 
L 2766 531 
Q 2569 213 2275 61 
Q 1981 -91 1556 -91 
Q 1019 -91 701 211 
Q 384 513 384 1019 
Q 384 1609 779 1909 
Q 1175 2209 1959 2209 
L 2766 2209 
L 2766 2266 
Q 2766 2663 2505 2880 
Q 2244 3097 1772 3097 
Q 1472 3097 1187 3025 
Q 903 2953 641 2809 
L 641 3341 
Q 956 3463 1253 3523 
Q 1550 3584 1831 3584 
Q 2591 3584 2966 3190 
Q 3341 2797 3341 1997 
z
" transform="scale(0.015625)"/>
       <path id="DejaVuSans-74" d="M 1172 4494 
L 1172 3500 
L 2356 3500 
L 2356 3053 
L 1172 3053 
L 1172 1153 
Q 1172 725 1289 603 
Q 1406 481 1766 481 
L 2356 481 
L 2356 0 
L 1766 0 
Q 1100 0 847 248 
Q 594 497 594 1153 
L 594 3053 
L 172 3053 
L 172 3500 
L 594 3500 
L 594 4494 
L 1172 4494 
z
" transform="scale(0.015625)"/>
       <path id="DejaVuSans-69" d="M 603 3500 
L 1178 3500 
L 1178 0 
L 603 0 
L 603 3500 
z
M 603 4863 
L 1178 4863 
L 1178 4134 
L 603 4134 
L 603 4863 
z
" transform="scale(0.015625)"/>
       <path id="DejaVuSans-6e" d="M 3513 2113 
L 3513 0 
L 2938 0 
L 2938 2094 
Q 2938 2591 2744 2837 
Q 2550 3084 2163 3084 
Q 1697 3084 1428 2787 
Q 1159 2491 1159 1978 
L 1159 0 
L 581 0 
L 581 3500 
L 1159 3500 
L 1159 2956 
Q 1366 3272 1645 3428 
Q 1925 3584 2291 3584 
Q 2894 3584 3203 3211 
Q 3513 2838 3513 2113 
z
" transform="scale(0.015625)"/>
      </defs>
      <use xlink:href="#DejaVuSans-6f"/>
      <use xlink:href="#DejaVuSans-62" transform="translate(61.181641 0)"/>
      <use xlink:href="#DejaVuSans-73" transform="translate(124.658203 0)"/>
      <use xlink:href="#DejaVuSans-65" transform="translate(176.757812 0)"/>
      <use xlink:href="#DejaVuSans-72" transform="translate(238.28125 0)"/>
      <use xlink:href="#DejaVuSans-76" transform="translate(279.394531 0)"/>
      <use xlink:href="#DejaVuSans-61" transform="translate(338.574219 0)"/>
      <use xlink:href="#DejaVuSans-74" transform="translate(399.853516 0)"/>
      <use xlink:href="#DejaVuSans-69" transform="translate(439.0625 0)"/>
      <use xlink:href="#DejaVuSans-6f" transform="translate(466.845703 0)"/>
      <use xlink:href="#DejaVuSans-6e" transform="translate(528.027344 0)"/>
      <use xlink:href="#DejaVuSans-73" transform="translate(591.40625 0)"/>
     </g>
    </g>
    <g id="line2d_29">
     <path d="M 29.5625 38.775781 
L 39.5625 38.775781 
L 49.5625 38.775781 
" style="fill: none; stroke: #1f77b4; stroke-width: 1.5; stroke-linecap: square"/>
    </g>
    <g id="text_13">
     <!-- $E_\infty$ -->
     <g transform="translate(57.5625 42.275781) scale(0.1 -0.1)">
      <defs>
       <path id="DejaVuSans-Oblique-45" d="M 1081 4666 
L 4031 4666 
L 3928 4134 
L 1606 4134 
L 1338 2753 
L 3566 2753 
L 3463 2222 
L 1234 2222 
L 909 531 
L 3284 531 
L 3181 0 
L 172 0 
L 1081 4666 
z
" transform="scale(0.015625)"/>
       <path id="DejaVuSans-221e" d="M 2916 1091 
Q 2819 1203 2666 1466 
Q 2456 1091 2272 925 
Q 2041 725 1681 725 
Q 1259 725 981 1041 
Q 688 1372 688 1919 
Q 688 2444 981 2800 
Q 1244 3116 1688 3116 
Q 1916 3116 2084 3022 
Q 2281 2919 2416 2741 
Q 2541 2581 2666 2366 
Q 2875 2741 3059 2906 
Q 3291 3106 3650 3106 
Q 4072 3106 4350 2791 
Q 4644 2459 4644 1913 
Q 4644 1388 4350 1031 
Q 4088 716 3644 716 
Q 3416 716 3247 809 
Q 3078 894 2916 1091 
z
M 1647 1134 
Q 2163 1134 2472 1884 
Q 2075 2703 1647 2703 
Q 1334 2703 1175 2478 
Q 1003 2238 1003 1919 
Q 1003 1569 1175 1353 
Q 1350 1134 1647 1134 
z
M 3684 2697 
Q 3219 2697 2859 1947 
Q 3253 1128 3684 1128 
Q 3997 1128 4156 1353 
Q 4328 1594 4328 1913 
Q 4328 2263 4156 2478 
Q 3981 2697 3684 2697 
z
" transform="scale(0.015625)"/>
      </defs>
      <use xlink:href="#DejaVuSans-Oblique-45" transform="translate(0 0.09375)"/>
      <use xlink:href="#DejaVuSans-221e" transform="translate(63.183594 -16.3125) scale(0.7)"/>
     </g>
    </g>
    <g id="line2d_30">
     <path d="M 29.5625 53.453906 
L 39.5625 53.453906 
L 49.5625 53.453906 
" style="fill: none; stroke-dasharray: 7.4,3.2; stroke-dashoffset: 0; stroke: #ff7f0e; stroke-width: 2"/>
    </g>
    <g id="text_14">
     <!-- $E_1$ -->
     <g transform="translate(57.5625 56.953906) scale(0.1 -0.1)">
      <use xlink:href="#DejaVuSans-Oblique-45" transform="translate(0 0.09375)"/>
      <use xlink:href="#DejaVuSans-31" transform="translate(63.183594 -16.3125) scale(0.7)"/>
     </g>
    </g>
    <g id="line2d_31">
     <path d="M 29.5625 68.132031 
L 39.5625 68.132031 
L 49.5625 68.132031 
" style="fill: none; stroke-dasharray: 12.8,3.2,2,3.2; stroke-dashoffset: 0; stroke: #2ca02c; stroke-width: 2"/>
    </g>
    <g id="text_15">
     <!-- $E_2$ -->
     <g transform="translate(57.5625 71.632031) scale(0.1 -0.1)">
      <use xlink:href="#DejaVuSans-Oblique-45" transform="translate(0 0.09375)"/>
      <use xlink:href="#DejaVuSans-32" transform="translate(63.183594 -16.3125) scale(0.7)"/>
     </g>
    </g>
    <g id="line2d_32">
     <path d="M 29.5625 82.810156 
L 39.5625 82.810156 
L 49.5625 82.810156 
" style="fill: none; stroke-dasharray: 2,3.3; stroke-dashoffset: 0; stroke: #d62728; stroke-width: 2"/>
    </g>
    <g id="text_16">
     <!-- $X^\dagger$ -->
     <g transform="translate(57.5625 86.310156) scale(0.1 -0.1)">
      <defs>
       <path id="DejaVuSans-Oblique-58" d="M 878 4666 
L 1516 4666 
L 2316 2981 
L 3763 4666 
L 4500 4666 
L 2578 2438 
L 3738 0 
L 3103 0 
L 2163 1966 
L 459 0 
L -275 0 
L 1906 2509 
L 878 4666 
z
" transform="scale(0.015625)"/>
       <path id="DejaVuSans-2020" d="M 1325 4666 
L 1875 4666 
L 1875 3353 
L 3022 3353 
L 3022 2875 
L 1875 2875 
L 1875 -616 
L 1325 -616 
L 1325 2875 
L 178 2875 
L 178 3353 
L 1325 3353 
L 1325 4666 
z
" transform="scale(0.015625)"/>
      </defs>
      <use xlink:href="#DejaVuSans-Oblique-58" transform="translate(0 0.684375)"/>
      <use xlink:href="#DejaVuSans-2020" transform="translate(89.160326 38.965625) scale(0.7)"/>
     </g>
    </g>
   </g>
  </g>
 </g>
 <defs>
  <clipPath id="pc95b6e5a0c">
   <rect x="20.5625" y="10.999219" width="390.6" height="142.036364"/>
  </clipPath>
 </defs>
</svg>
