<?xml version="1.0" encoding="utf-8" standalone="no"?>
<!DOCTYPE svg PUBLIC "-//W3C//DTD SVG 1.1//EN"
  "http://www.w3.org/Graphics/SVG/1.1/DTD/svg11.dtd">
<svg xmlns:xlink="http://www.w3.org/1999/xlink" width="418.3625pt" height="398.99625pt" viewBox="0 0 418.3625 398.99625" xmlns="http://www.w3.org/2000/svg" version="1.1">
 <metadata>
  <rdf:RDF xmlns:dc="http://purl.org/dc/elements/1.1/" xmlns:cc="http://creativecommons.org/ns#" xmlns:rdf="http://www.w3.org/1999/02/22-rdf-syntax-ns#">
   <cc:Work>
    <dc:type rdf:resource="http://purl.org/dc/dcmitype/StillImage"/>
    <dc:date>2024-10-18T10:11:49.651521</dc:date>
    <dc:format>image/svg+xml</dc:format>
    <dc:creator>
     <cc:Agent>
      <dc:title>Matplotlib v3.9.2, https://matplotlib.org/</dc:title>
     </cc:Agent>
    </dc:creator>
   </cc:Work>
  </rdf:RDF>
 </metadata>
 <defs>
  <style type="text/css">*{stroke-linejoin: round; stroke-linecap: butt}</style>
 </defs>
 <g id="figure_1">
  <g id="patch_1">
   <path d="M 0 398.99625 
L 418.3625 398.99625 
L 418.3625 0 
L 0 0 
z
" style="fill: #ffffff"/>
  </g>
  <g id="axes_1">
   <g id="patch_2">
    <path d="M 20.5625 172.445785 
L 411.1625 172.445785 
L 411.1625 22.318125 
L 20.5625 22.318125 
z
" style="fill: #ffffff"/>
   </g>
   <g id="matplotlib.axis_1">
    <g id="xtick_1">
     <g id="line2d_1">
      <defs>
       <path id="m3859f57ba9" d="M 0 0 
L 0 3.5 
" style="stroke: #000000; stroke-width: 0.8"/>
      </defs>
      <g>
       <use xlink:href="#m3859f57ba9" x="20.5625" y="172.445785" style="stroke: #000000; stroke-width: 0.8"/>
      </g>
     </g>
     <g id="text_1">
      <!-- 0 -->
      <g transform="translate(17.38125 187.044222) scale(0.1 -0.1)">
       <defs>
        <path id="DejaVuSans-30" d="M 2034 4250 
Q 1547 4250 1301 3770 
Q 1056 3291 1056 2328 
Q 1056 1369 1301 889 
Q 1547 409 2034 409 
Q 2525 409 2770 889 
Q 3016 1369 3016 2328 
Q 3016 3291 2770 3770 
Q 2525 4250 2034 4250 
z
M 2034 4750 
Q 2819 4750 3233 4129 
Q 3647 3509 3647 2328 
Q 3647 1150 3233 529 
Q 2819 -91 2034 -91 
Q 1250 -91 836 529 
Q 422 1150 422 2328 
Q 422 3509 836 4129 
Q 1250 4750 2034 4750 
z
" transform="scale(0.015625)"/>
       </defs>
       <use xlink:href="#DejaVuSans-30"/>
      </g>
     </g>
    </g>
    <g id="xtick_2">
     <g id="line2d_2">
      <g>
       <use xlink:href="#m3859f57ba9" x="91.580682" y="172.445785" style="stroke: #000000; stroke-width: 0.8"/>
      </g>
     </g>
     <g id="text_2">
      <!-- 2 -->
      <g transform="translate(88.399432 187.044222) scale(0.1 -0.1)">
       <defs>
        <path id="DejaVuSans-32" d="M 1228 531 
L 3431 531 
L 3431 0 
L 469 0 
L 469 531 
Q 828 903 1448 1529 
Q 2069 2156 2228 2338 
Q 2531 2678 2651 2914 
Q 2772 3150 2772 3378 
Q 2772 3750 2511 3984 
Q 2250 4219 1831 4219 
Q 1534 4219 1204 4116 
Q 875 4013 500 3803 
L 500 4441 
Q 881 4594 1212 4672 
Q 1544 4750 1819 4750 
Q 2544 4750 2975 4387 
Q 3406 4025 3406 3419 
Q 3406 3131 3298 2873 
Q 3191 2616 2906 2266 
Q 2828 2175 2409 1742 
Q 1991 1309 1228 531 
z
" transform="scale(0.015625)"/>
       </defs>
       <use xlink:href="#DejaVuSans-32"/>
      </g>
     </g>
    </g>
    <g id="xtick_3">
     <g id="line2d_3">
      <g>
       <use xlink:href="#m3859f57ba9" x="162.598864" y="172.445785" style="stroke: #000000; stroke-width: 0.8"/>
      </g>
     </g>
     <g id="text_3">
      <!-- 4 -->
      <g transform="translate(159.417614 187.044222) scale(0.1 -0.1)">
       <defs>
        <path id="DejaVuSans-34" d="M 2419 4116 
L 825 1625 
L 2419 1625 
L 2419 4116 
z
M 2253 4666 
L 3047 4666 
L 3047 1625 
L 3713 1625 
L 3713 1100 
L 3047 1100 
L 3047 0 
L 2419 0 
L 2419 1100 
L 313 1100 
L 313 1709 
L 2253 4666 
z
" transform="scale(0.015625)"/>
       </defs>
       <use xlink:href="#DejaVuSans-34"/>
      </g>
     </g>
    </g>
    <g id="xtick_4">
     <g id="line2d_4">
      <g>
       <use xlink:href="#m3859f57ba9" x="233.617045" y="172.445785" style="stroke: #000000; stroke-width: 0.8"/>
      </g>
     </g>
     <g id="text_4">
      <!-- 6 -->
      <g transform="translate(230.435795 187.044222) scale(0.1 -0.1)">
       <defs>
        <path id="DejaVuSans-36" d="M 2113 2584 
Q 1688 2584 1439 2293 
Q 1191 2003 1191 1497 
Q 1191 994 1439 701 
Q 1688 409 2113 409 
Q 2538 409 2786 701 
Q 3034 994 3034 1497 
Q 3034 2003 2786 2293 
Q 2538 2584 2113 2584 
z
M 3366 4563 
L 3366 3988 
Q 3128 4100 2886 4159 
Q 2644 4219 2406 4219 
Q 1781 4219 1451 3797 
Q 1122 3375 1075 2522 
Q 1259 2794 1537 2939 
Q 1816 3084 2150 3084 
Q 2853 3084 3261 2657 
Q 3669 2231 3669 1497 
Q 3669 778 3244 343 
Q 2819 -91 2113 -91 
Q 1303 -91 875 529 
Q 447 1150 447 2328 
Q 447 3434 972 4092 
Q 1497 4750 2381 4750 
Q 2619 4750 2861 4703 
Q 3103 4656 3366 4563 
z
" transform="scale(0.015625)"/>
       </defs>
       <use xlink:href="#DejaVuSans-36"/>
      </g>
     </g>
    </g>
    <g id="xtick_5">
     <g id="line2d_5">
      <g>
       <use xlink:href="#m3859f57ba9" x="304.635227" y="172.445785" style="stroke: #000000; stroke-width: 0.8"/>
      </g>
     </g>
     <g id="text_5">
      <!-- 8 -->
      <g transform="translate(301.453977 187.044222) scale(0.1 -0.1)">
       <defs>
        <path id="DejaVuSans-38" d="M 2034 2216 
Q 1584 2216 1326 1975 
Q 1069 1734 1069 1313 
Q 1069 891 1326 650 
Q 1584 409 2034 409 
Q 2484 409 2743 651 
Q 3003 894 3003 1313 
Q 3003 1734 2745 1975 
Q 2488 2216 2034 2216 
z
M 1403 2484 
Q 997 2584 770 2862 
Q 544 3141 544 3541 
Q 544 4100 942 4425 
Q 1341 4750 2034 4750 
Q 2731 4750 3128 4425 
Q 3525 4100 3525 3541 
Q 3525 3141 3298 2862 
Q 3072 2584 2669 2484 
Q 3125 2378 3379 2068 
Q 3634 1759 3634 1313 
Q 3634 634 3220 271 
Q 2806 -91 2034 -91 
Q 1263 -91 848 271 
Q 434 634 434 1313 
Q 434 1759 690 2068 
Q 947 2378 1403 2484 
z
M 1172 3481 
Q 1172 3119 1398 2916 
Q 1625 2713 2034 2713 
Q 2441 2713 2670 2916 
Q 2900 3119 2900 3481 
Q 2900 3844 2670 4047 
Q 2441 4250 2034 4250 
Q 1625 4250 1398 4047 
Q 1172 3844 1172 3481 
z
" transform="scale(0.015625)"/>
       </defs>
       <use xlink:href="#DejaVuSans-38"/>
      </g>
     </g>
    </g>
    <g id="xtick_6">
     <g id="line2d_6">
      <g>
       <use xlink:href="#m3859f57ba9" x="375.653409" y="172.445785" style="stroke: #000000; stroke-width: 0.8"/>
      </g>
     </g>
     <g id="text_6">
      <!-- 10 -->
      <g transform="translate(369.290909 187.044222) scale(0.1 -0.1)">
       <defs>
        <path id="DejaVuSans-31" d="M 794 531 
L 1825 531 
L 1825 4091 
L 703 3866 
L 703 4441 
L 1819 4666 
L 2450 4666 
L 2450 531 
L 3481 531 
L 3481 0 
L 794 0 
L 794 531 
z
" transform="scale(0.015625)"/>
       </defs>
       <use xlink:href="#DejaVuSans-31"/>
       <use xlink:href="#DejaVuSans-30" x="63.623047"/>
      </g>
     </g>
    </g>
   </g>
   <g id="matplotlib.axis_2">
    <g id="ytick_1">
     <g id="line2d_7">
      <defs>
       <path id="m60af0fcbad" d="M 0 0 
L -3.5 0 
" style="stroke: #000000; stroke-width: 0.8"/>
      </defs>
      <g>
       <use xlink:href="#m60af0fcbad" x="20.5625" y="172.445785" style="stroke: #000000; stroke-width: 0.8"/>
      </g>
     </g>
     <g id="text_7">
      <!-- 0 -->
      <g transform="translate(7.2 176.245003) scale(0.1 -0.1)">
       <use xlink:href="#DejaVuSans-30"/>
      </g>
     </g>
    </g>
    <g id="ytick_2">
     <g id="line2d_8">
      <g>
       <use xlink:href="#m60af0fcbad" x="20.5625" y="134.91387" style="stroke: #000000; stroke-width: 0.8"/>
      </g>
     </g>
     <g id="text_8">
      <!-- 1 -->
      <g transform="translate(7.2 138.713088) scale(0.1 -0.1)">
       <use xlink:href="#DejaVuSans-31"/>
      </g>
     </g>
    </g>
    <g id="ytick_3">
     <g id="line2d_9">
      <g>
       <use xlink:href="#m60af0fcbad" x="20.5625" y="97.381955" style="stroke: #000000; stroke-width: 0.8"/>
      </g>
     </g>
     <g id="text_9">
      <!-- 2 -->
      <g transform="translate(7.2 101.181174) scale(0.1 -0.1)">
       <use xlink:href="#DejaVuSans-32"/>
      </g>
     </g>
    </g>
    <g id="ytick_4">
     <g id="line2d_10">
      <g>
       <use xlink:href="#m60af0fcbad" x="20.5625" y="59.85004" style="stroke: #000000; stroke-width: 0.8"/>
      </g>
     </g>
     <g id="text_10">
      <!-- 3 -->
      <g transform="translate(7.2 63.649259) scale(0.1 -0.1)">
       <defs>
        <path id="DejaVuSans-33" d="M 2597 2516 
Q 3050 2419 3304 2112 
Q 3559 1806 3559 1356 
Q 3559 666 3084 287 
Q 2609 -91 1734 -91 
Q 1441 -91 1130 -33 
Q 819 25 488 141 
L 488 750 
Q 750 597 1062 519 
Q 1375 441 1716 441 
Q 2309 441 2620 675 
Q 2931 909 2931 1356 
Q 2931 1769 2642 2001 
Q 2353 2234 1838 2234 
L 1294 2234 
L 1294 2753 
L 1863 2753 
Q 2328 2753 2575 2939 
Q 2822 3125 2822 3475 
Q 2822 3834 2567 4026 
Q 2313 4219 1838 4219 
Q 1578 4219 1281 4162 
Q 984 4106 628 3988 
L 628 4550 
Q 988 4650 1302 4700 
Q 1616 4750 1894 4750 
Q 2613 4750 3031 4423 
Q 3450 4097 3450 3541 
Q 3450 3153 3228 2886 
Q 3006 2619 2597 2516 
z
" transform="scale(0.015625)"/>
       </defs>
       <use xlink:href="#DejaVuSans-33"/>
      </g>
     </g>
    </g>
    <g id="ytick_5">
     <g id="line2d_11">
      <g>
       <use xlink:href="#m60af0fcbad" x="20.5625" y="22.318125" style="stroke: #000000; stroke-width: 0.8"/>
      </g>
     </g>
     <g id="text_11">
      <!-- 4 -->
      <g transform="translate(7.2 26.117344) scale(0.1 -0.1)">
       <use xlink:href="#DejaVuSans-34"/>
      </g>
     </g>
    </g>
   </g>
   <g id="line2d_12">
    <defs>
     <path id="m4f4fd0915b" d="M 0 3 
C 0.795609 3 1.55874 2.683901 2.12132 2.12132 
C 2.683901 1.55874 3 0.795609 3 0 
C 3 -0.795609 2.683901 -1.55874 2.12132 -2.12132 
C 1.55874 -2.683901 0.795609 -3 0 -3 
C -0.795609 -3 -1.55874 -2.683901 -2.12132 -2.12132 
C -2.683901 -1.55874 -3 -0.795609 -3 0 
C -3 0.795609 -2.683901 1.55874 -2.12132 2.12132 
C -1.55874 2.683901 -0.795609 3 0 3 
z
" style="stroke: #ff0000"/>
    </defs>
    <g clip-path="url(#pc91d46196f)">
     <use xlink:href="#m4f4fd0915b" x="56.071591" y="164.939402" style="fill: #ff0000; stroke: #ff0000"/>
     <use xlink:href="#m4f4fd0915b" x="91.580682" y="153.679827" style="fill: #ff0000; stroke: #ff0000"/>
     <use xlink:href="#m4f4fd0915b" x="127.089773" y="161.18621" style="fill: #ff0000; stroke: #ff0000"/>
     <use xlink:href="#m4f4fd0915b" x="162.598864" y="153.679827" style="fill: #ff0000; stroke: #ff0000"/>
     <use xlink:href="#m4f4fd0915b" x="198.107955" y="134.91387" style="fill: #ff0000; stroke: #ff0000"/>
     <use xlink:href="#m4f4fd0915b" x="233.617045" y="116.147912" style="fill: #ff0000; stroke: #ff0000"/>
     <use xlink:href="#m4f4fd0915b" x="269.126136" y="104.888338" style="fill: #ff0000; stroke: #ff0000"/>
     <use xlink:href="#m4f4fd0915b" x="304.635227" y="97.381955" style="fill: #ff0000; stroke: #ff0000"/>
     <use xlink:href="#m4f4fd0915b" x="340.144318" y="86.12238" style="fill: #ff0000; stroke: #ff0000"/>
     <use xlink:href="#m4f4fd0915b" x="375.653409" y="89.875572" style="fill: #ff0000; stroke: #ff0000"/>
    </g>
   </g>
   <g id="line2d_13">
    <path d="M 20.5625 182.954396 
L 24.113409 181.978578 
L 27.664318 181.002761 
L 31.215227 180.026944 
L 34.766136 179.051127 
L 38.317045 178.07531 
L 41.867955 177.099493 
L 45.418864 176.123676 
L 48.969773 175.147859 
L 52.520682 174.172041 
L 56.071591 173.196224 
L 59.6225 172.220407 
L 63.173409 171.24459 
L 66.724318 170.268773 
L 70.275227 169.292956 
L 73.826136 168.317139 
L 77.377045 167.341322 
L 80.927955 166.365505 
L 84.478864 165.389687 
L 88.029773 164.41387 
L 91.580682 163.438053 
L 95.131591 162.462236 
L 98.6825 161.486419 
L 102.233409 160.510602 
L 105.784318 159.534785 
L 109.335227 158.558968 
L 112.886136 157.583151 
L 116.437045 156.607333 
L 119.987955 155.631516 
L 123.538864 154.655699 
L 127.089773 153.679882 
L 130.640682 152.704065 
L 134.191591 151.728248 
L 137.7425 150.752431 
L 141.293409 149.776614 
L 144.844318 148.800796 
L 148.395227 147.824979 
L 151.946136 146.849162 
L 155.497045 145.873345 
L 159.047955 144.897528 
L 162.598864 143.921711 
L 166.149773 142.945894 
L 169.700682 141.970077 
L 173.251591 140.99426 
L 176.8025 140.018442 
L 180.353409 139.042625 
L 183.904318 138.066808 
L 187.455227 137.090991 
L 191.006136 136.115174 
L 194.557045 135.139357 
L 198.107955 134.16354 
L 201.658864 133.187723 
L 205.209773 132.211905 
L 208.760682 131.236088 
L 212.311591 130.260271 
L 215.8625 129.284454 
L 219.413409 128.308637 
L 222.964318 127.33282 
L 226.515227 126.357003 
L 230.066136 125.381186 
L 233.617045 124.405369 
L 237.167955 123.429551 
L 240.718864 122.453734 
L 244.269773 121.477917 
L 247.820682 120.5021 
L 251.371591 119.526283 
L 254.9225 118.550466 
L 258.473409 117.574649 
L 262.024318 116.598832 
L 265.575227 115.623015 
L 269.126136 114.647197 
L 272.677045 113.67138 
L 276.227955 112.695563 
L 279.778864 111.719746 
L 283.329773 110.743929 
L 286.880682 109.768112 
L 290.431591 108.792295 
L 293.9825 107.816478 
L 297.533409 106.84066 
L 301.084318 105.864843 
L 304.635227 104.889026 
L 308.186136 103.913209 
L 311.737045 102.937392 
L 315.287955 101.961575 
L 318.838864 100.985758 
L 322.389773 100.009941 
L 325.940682 99.034124 
L 329.491591 98.058306 
L 333.0425 97.082489 
L 336.593409 96.106672 
L 340.144318 95.130855 
L 343.695227 94.155038 
L 347.246136 93.179221 
L 350.797045 92.203404 
L 354.347955 91.227587 
L 357.898864 90.251769 
L 361.449773 89.275952 
L 365.000682 88.300135 
L 368.551591 87.324318 
L 372.1025 86.348501 
L 375.653409 85.372684 
L 379.204318 84.396867 
L 382.755227 83.42105 
L 386.306136 82.445233 
L 389.857045 81.469415 
L 393.407955 80.493598 
L 396.958864 79.517781 
L 400.509773 78.541964 
L 404.060682 77.566147 
L 407.611591 76.59033 
" clip-path="url(#pc91d46196f)" style="fill: none; stroke: #1f77b4; stroke-width: 1.5; stroke-linecap: square"/>
   </g>
   <g id="line2d_14">
    <path d="M 20.5625 174.591251 
L 24.113409 173.626147 
L 27.664318 172.661044 
L 31.215227 171.69594 
L 34.766136 170.730836 
L 38.317045 169.765733 
L 41.867955 168.800629 
L 45.418864 167.835525 
L 48.969773 166.870422 
L 52.520682 165.905318 
L 56.071591 164.940214 
L 59.6225 163.975111 
L 63.173409 163.010007 
L 66.724318 162.044903 
L 70.275227 161.0798 
L 73.826136 160.114696 
L 77.377045 159.149593 
L 80.927955 158.184489 
L 84.478864 157.219385 
L 88.029773 156.254282 
L 91.580682 155.289178 
L 95.131591 154.324074 
L 98.6825 153.358971 
L 102.233409 152.393867 
L 105.784318 151.428763 
L 109.335227 150.46366 
L 112.886136 149.498556 
L 116.437045 148.533452 
L 119.987955 147.568349 
L 123.538864 146.603245 
L 127.089773 145.638141 
L 130.640682 144.673038 
L 134.191591 143.707934 
L 137.7425 142.742831 
L 141.293409 141.777727 
L 144.844318 140.812623 
L 148.395227 139.84752 
L 151.946136 138.882416 
L 155.497045 137.917312 
L 159.047955 136.952209 
L 162.598864 135.987105 
L 166.149773 135.022001 
L 169.700682 134.056898 
L 173.251591 133.091794 
L 176.8025 132.12669 
L 180.353409 131.161587 
L 183.904318 130.196483 
L 187.455227 129.231379 
L 191.006136 128.266276 
L 194.557045 127.301172 
L 198.107955 126.336068 
L 201.658864 125.370965 
L 205.209773 124.405861 
L 208.760682 123.440758 
L 212.311591 122.475654 
L 215.8625 121.51055 
L 219.413409 120.545447 
L 222.964318 119.580343 
L 226.515227 118.615239 
L 230.066136 117.650136 
L 233.617045 116.685032 
L 237.167955 115.719928 
L 240.718864 114.754825 
L 244.269773 113.789721 
L 247.820682 112.824617 
L 251.371591 111.859514 
L 254.9225 110.89441 
L 258.473409 109.929306 
L 262.024318 108.964203 
L 265.575227 107.999099 
L 269.126136 107.033996 
L 272.677045 106.068892 
L 276.227955 105.103788 
L 279.778864 104.138685 
L 283.329773 103.173581 
L 286.880682 102.208477 
L 290.431591 101.243374 
L 293.9825 100.27827 
L 297.533409 99.313166 
L 301.084318 98.348063 
L 304.635227 97.382959 
L 308.186136 96.417855 
L 311.737045 95.452752 
L 315.287955 94.487648 
L 318.838864 93.522544 
L 322.389773 92.557441 
L 325.940682 91.592337 
L 329.491591 90.627233 
L 333.0425 89.66213 
L 336.593409 88.697026 
L 340.144318 87.731923 
L 343.695227 86.766819 
L 347.246136 85.801715 
L 350.797045 84.836612 
L 354.347955 83.871508 
L 357.898864 82.906404 
L 361.449773 81.941301 
L 365.000682 80.976197 
L 368.551591 80.011093 
L 372.1025 79.04599 
L 375.653409 78.080886 
L 379.204318 77.115782 
L 382.755227 76.150679 
L 386.306136 75.185575 
L 389.857045 74.220471 
L 393.407955 73.255368 
L 396.958864 72.290264 
L 400.509773 71.32516 
L 404.060682 70.360057 
L 407.611591 69.394953 
" clip-path="url(#pc91d46196f)" style="fill: none; stroke-dasharray: 7.4,3.2; stroke-dashoffset: 0; stroke: #ff7f0e; stroke-width: 2"/>
   </g>
   <g id="line2d_15">
    <path d="M 20.5625 180.703649 
L 24.113409 179.714147 
L 27.664318 178.724646 
L 31.215227 177.735144 
L 34.766136 176.745642 
L 38.317045 175.756141 
L 41.867955 174.766639 
L 45.418864 173.777137 
L 48.969773 172.787636 
L 52.520682 171.798134 
L 56.071591 170.808632 
L 59.6225 169.819131 
L 63.173409 168.829629 
L 66.724318 167.840127 
L 70.275227 166.850625 
L 73.826136 165.861124 
L 77.377045 164.871622 
L 80.927955 163.88212 
L 84.478864 162.892619 
L 88.029773 161.903117 
L 91.580682 160.913615 
L 95.131591 159.924114 
L 98.6825 158.934612 
L 102.233409 157.94511 
L 105.784318 156.955609 
L 109.335227 155.966107 
L 112.886136 154.976605 
L 116.437045 153.987104 
L 119.987955 152.997602 
L 123.538864 152.0081 
L 127.089773 151.018599 
L 130.640682 150.029097 
L 134.191591 149.039595 
L 137.7425 148.050094 
L 141.293409 147.060592 
L 144.844318 146.07109 
L 148.395227 145.081589 
L 151.946136 144.092087 
L 155.497045 143.102585 
L 159.047955 142.113084 
L 162.598864 141.123582 
L 166.149773 140.13408 
L 169.700682 139.144579 
L 173.251591 138.155077 
L 176.8025 137.165575 
L 180.353409 136.176073 
L 183.904318 135.186572 
L 187.455227 134.19707 
L 191.006136 133.207568 
L 194.557045 132.218067 
L 198.107955 131.228565 
L 201.658864 130.239063 
L 205.209773 129.249562 
L 208.760682 128.26006 
L 212.311591 127.270558 
L 215.8625 126.281057 
L 219.413409 125.291555 
L 222.964318 124.302053 
L 226.515227 123.312552 
L 230.066136 122.32305 
L 233.617045 121.333548 
L 237.167955 120.344047 
L 240.718864 119.354545 
L 244.269773 118.365043 
L 247.820682 117.375542 
L 251.371591 116.38604 
L 254.9225 115.396538 
L 258.473409 114.407037 
L 262.024318 113.417535 
L 265.575227 112.428033 
L 269.126136 111.438532 
L 272.677045 110.44903 
L 276.227955 109.459528 
L 279.778864 108.470026 
L 283.329773 107.480525 
L 286.880682 106.491023 
L 290.431591 105.501521 
L 293.9825 104.51202 
L 297.533409 103.522518 
L 301.084318 102.533016 
L 304.635227 101.543515 
L 308.186136 100.554013 
L 311.737045 99.564511 
L 315.287955 98.57501 
L 318.838864 97.585508 
L 322.389773 96.596006 
L 325.940682 95.606505 
L 329.491591 94.617003 
L 333.0425 93.627501 
L 336.593409 92.638 
L 340.144318 91.648498 
L 343.695227 90.658996 
L 347.246136 89.669495 
L 350.797045 88.679993 
L 354.347955 87.690491 
L 357.898864 86.70099 
L 361.449773 85.711488 
L 365.000682 84.721986 
L 368.551591 83.732485 
L 372.1025 82.742983 
L 375.653409 81.753481 
L 379.204318 80.76398 
L 382.755227 79.774478 
L 386.306136 78.784976 
L 389.857045 77.795474 
L 393.407955 76.805973 
L 396.958864 75.816471 
L 400.509773 74.826969 
L 404.060682 73.837468 
L 407.611591 72.847966 
" clip-path="url(#pc91d46196f)" style="fill: none; stroke-dasharray: 2,3.3; stroke-dashoffset: 0; stroke: #2ca02c; stroke-width: 2"/>
   </g>
   <g id="patch_3">
    <path d="M 20.5625 172.445785 
L 20.5625 22.318125 
" style="fill: none; stroke: #000000; stroke-width: 0.8; stroke-linejoin: miter; stroke-linecap: square"/>
   </g>
   <g id="patch_4">
    <path d="M 411.1625 172.445785 
L 411.1625 22.318125 
" style="fill: none; stroke: #000000; stroke-width: 0.8; stroke-linejoin: miter; stroke-linecap: square"/>
   </g>
   <g id="patch_5">
    <path d="M 20.5625 172.445785 
L 411.1625 172.445785 
" style="fill: none; stroke: #000000; stroke-width: 0.8; stroke-linejoin: miter; stroke-linecap: square"/>
   </g>
   <g id="patch_6">
    <path d="M 20.5625 22.318125 
L 411.1625 22.318125 
" style="fill: none; stroke: #000000; stroke-width: 0.8; stroke-linejoin: miter; stroke-linecap: square"/>
   </g>
   <g id="text_12">
    <!-- Observations with no outliers. -->
    <g transform="translate(125.92625 16.318125) scale(0.12 -0.12)">
     <defs>
      <path id="DejaVuSans-4f" d="M 2522 4238 
Q 1834 4238 1429 3725 
Q 1025 3213 1025 2328 
Q 1025 1447 1429 934 
Q 1834 422 2522 422 
Q 3209 422 3611 934 
Q 4013 1447 4013 2328 
Q 4013 3213 3611 3725 
Q 3209 4238 2522 4238 
z
M 2522 4750 
Q 3503 4750 4090 4092 
Q 4678 3434 4678 2328 
Q 4678 1225 4090 567 
Q 3503 -91 2522 -91 
Q 1538 -91 948 565 
Q 359 1222 359 2328 
Q 359 3434 948 4092 
Q 1538 4750 2522 4750 
z
" transform="scale(0.015625)"/>
      <path id="DejaVuSans-62" d="M 3116 1747 
Q 3116 2381 2855 2742 
Q 2594 3103 2138 3103 
Q 1681 3103 1420 2742 
Q 1159 2381 1159 1747 
Q 1159 1113 1420 752 
Q 1681 391 2138 391 
Q 2594 391 2855 752 
Q 3116 1113 3116 1747 
z
M 1159 2969 
Q 1341 3281 1617 3432 
Q 1894 3584 2278 3584 
Q 2916 3584 3314 3078 
Q 3713 2572 3713 1747 
Q 3713 922 3314 415 
Q 2916 -91 2278 -91 
Q 1894 -91 1617 61 
Q 1341 213 1159 525 
L 1159 0 
L 581 0 
L 581 4863 
L 1159 4863 
L 1159 2969 
z
" transform="scale(0.015625)"/>
      <path id="DejaVuSans-73" d="M 2834 3397 
L 2834 2853 
Q 2591 2978 2328 3040 
Q 2066 3103 1784 3103 
Q 1356 3103 1142 2972 
Q 928 2841 928 2578 
Q 928 2378 1081 2264 
Q 1234 2150 1697 2047 
L 1894 2003 
Q 2506 1872 2764 1633 
Q 3022 1394 3022 966 
Q 3022 478 2636 193 
Q 2250 -91 1575 -91 
Q 1294 -91 989 -36 
Q 684 19 347 128 
L 347 722 
Q 666 556 975 473 
Q 1284 391 1588 391 
Q 1994 391 2212 530 
Q 2431 669 2431 922 
Q 2431 1156 2273 1281 
Q 2116 1406 1581 1522 
L 1381 1569 
Q 847 1681 609 1914 
Q 372 2147 372 2553 
Q 372 3047 722 3315 
Q 1072 3584 1716 3584 
Q 2034 3584 2315 3537 
Q 2597 3491 2834 3397 
z
" transform="scale(0.015625)"/>
      <path id="DejaVuSans-65" d="M 3597 1894 
L 3597 1613 
L 953 1613 
Q 991 1019 1311 708 
Q 1631 397 2203 397 
Q 2534 397 2845 478 
Q 3156 559 3463 722 
L 3463 178 
Q 3153 47 2828 -22 
Q 2503 -91 2169 -91 
Q 1331 -91 842 396 
Q 353 884 353 1716 
Q 353 2575 817 3079 
Q 1281 3584 2069 3584 
Q 2775 3584 3186 3129 
Q 3597 2675 3597 1894 
z
M 3022 2063 
Q 3016 2534 2758 2815 
Q 2500 3097 2075 3097 
Q 1594 3097 1305 2825 
Q 1016 2553 972 2059 
L 3022 2063 
z
" transform="scale(0.015625)"/>
      <path id="DejaVuSans-72" d="M 2631 2963 
Q 2534 3019 2420 3045 
Q 2306 3072 2169 3072 
Q 1681 3072 1420 2755 
Q 1159 2438 1159 1844 
L 1159 0 
L 581 0 
L 581 3500 
L 1159 3500 
L 1159 2956 
Q 1341 3275 1631 3429 
Q 1922 3584 2338 3584 
Q 2397 3584 2469 3576 
Q 2541 3569 2628 3553 
L 2631 2963 
z
" transform="scale(0.015625)"/>
      <path id="DejaVuSans-76" d="M 191 3500 
L 800 3500 
L 1894 563 
L 2988 3500 
L 3597 3500 
L 2284 0 
L 1503 0 
L 191 3500 
z
" transform="scale(0.015625)"/>
      <path id="DejaVuSans-61" d="M 2194 1759 
Q 1497 1759 1228 1600 
Q 959 1441 959 1056 
Q 959 750 1161 570 
Q 1363 391 1709 391 
Q 2188 391 2477 730 
Q 2766 1069 2766 1631 
L 2766 1759 
L 2194 1759 
z
M 3341 1997 
L 3341 0 
L 2766 0 
L 2766 531 
Q 2569 213 2275 61 
Q 1981 -91 1556 -91 
Q 1019 -91 701 211 
Q 384 513 384 1019 
Q 384 1609 779 1909 
Q 1175 2209 1959 2209 
L 2766 2209 
L 2766 2266 
Q 2766 2663 2505 2880 
Q 2244 3097 1772 3097 
Q 1472 3097 1187 3025 
Q 903 2953 641 2809 
L 641 3341 
Q 956 3463 1253 3523 
Q 1550 3584 1831 3584 
Q 2591 3584 2966 3190 
Q 3341 2797 3341 1997 
z
" transform="scale(0.015625)"/>
      <path id="DejaVuSans-74" d="M 1172 4494 
L 1172 3500 
L 2356 3500 
L 2356 3053 
L 1172 3053 
L 1172 1153 
Q 1172 725 1289 603 
Q 1406 481 1766 481 
L 2356 481 
L 2356 0 
L 1766 0 
Q 1100 0 847 248 
Q 594 497 594 1153 
L 594 3053 
L 172 3053 
L 172 3500 
L 594 3500 
L 594 4494 
L 1172 4494 
z
" transform="scale(0.015625)"/>
      <path id="DejaVuSans-69" d="M 603 3500 
L 1178 3500 
L 1178 0 
L 603 0 
L 603 3500 
z
M 603 4863 
L 1178 4863 
L 1178 4134 
L 603 4134 
L 603 4863 
z
" transform="scale(0.015625)"/>
      <path id="DejaVuSans-6f" d="M 1959 3097 
Q 1497 3097 1228 2736 
Q 959 2375 959 1747 
Q 959 1119 1226 758 
Q 1494 397 1959 397 
Q 2419 397 2687 759 
Q 2956 1122 2956 1747 
Q 2956 2369 2687 2733 
Q 2419 3097 1959 3097 
z
M 1959 3584 
Q 2709 3584 3137 3096 
Q 3566 2609 3566 1747 
Q 3566 888 3137 398 
Q 2709 -91 1959 -91 
Q 1206 -91 779 398 
Q 353 888 353 1747 
Q 353 2609 779 3096 
Q 1206 3584 1959 3584 
z
" transform="scale(0.015625)"/>
      <path id="DejaVuSans-6e" d="M 3513 2113 
L 3513 0 
L 2938 0 
L 2938 2094 
Q 2938 2591 2744 2837 
Q 2550 3084 2163 3084 
Q 1697 3084 1428 2787 
Q 1159 2491 1159 1978 
L 1159 0 
L 581 0 
L 581 3500 
L 1159 3500 
L 1159 2956 
Q 1366 3272 1645 3428 
Q 1925 3584 2291 3584 
Q 2894 3584 3203 3211 
Q 3513 2838 3513 2113 
z
" transform="scale(0.015625)"/>
      <path id="DejaVuSans-20" transform="scale(0.015625)"/>
      <path id="DejaVuSans-77" d="M 269 3500 
L 844 3500 
L 1563 769 
L 2278 3500 
L 2956 3500 
L 3675 769 
L 4391 3500 
L 4966 3500 
L 4050 0 
L 3372 0 
L 2619 2869 
L 1863 0 
L 1184 0 
L 269 3500 
z
" transform="scale(0.015625)"/>
      <path id="DejaVuSans-68" d="M 3513 2113 
L 3513 0 
L 2938 0 
L 2938 2094 
Q 2938 2591 2744 2837 
Q 2550 3084 2163 3084 
Q 1697 3084 1428 2787 
Q 1159 2491 1159 1978 
L 1159 0 
L 581 0 
L 581 4863 
L 1159 4863 
L 1159 2956 
Q 1366 3272 1645 3428 
Q 1925 3584 2291 3584 
Q 2894 3584 3203 3211 
Q 3513 2838 3513 2113 
z
" transform="scale(0.015625)"/>
      <path id="DejaVuSans-75" d="M 544 1381 
L 544 3500 
L 1119 3500 
L 1119 1403 
Q 1119 906 1312 657 
Q 1506 409 1894 409 
Q 2359 409 2629 706 
Q 2900 1003 2900 1516 
L 2900 3500 
L 3475 3500 
L 3475 0 
L 2900 0 
L 2900 538 
Q 2691 219 2414 64 
Q 2138 -91 1772 -91 
Q 1169 -91 856 284 
Q 544 659 544 1381 
z
M 1991 3584 
L 1991 3584 
z
" transform="scale(0.015625)"/>
      <path id="DejaVuSans-6c" d="M 603 4863 
L 1178 4863 
L 1178 0 
L 603 0 
L 603 4863 
z
" transform="scale(0.015625)"/>
      <path id="DejaVuSans-2e" d="M 684 794 
L 1344 794 
L 1344 0 
L 684 0 
L 684 794 
z
" transform="scale(0.015625)"/>
     </defs>
     <use xlink:href="#DejaVuSans-4f"/>
     <use xlink:href="#DejaVuSans-62" x="78.710938"/>
     <use xlink:href="#DejaVuSans-73" x="142.1875"/>
     <use xlink:href="#DejaVuSans-65" x="194.287109"/>
     <use xlink:href="#DejaVuSans-72" x="255.810547"/>
     <use xlink:href="#DejaVuSans-76" x="296.923828"/>
     <use xlink:href="#DejaVuSans-61" x="356.103516"/>
     <use xlink:href="#DejaVuSans-74" x="417.382812"/>
     <use xlink:href="#DejaVuSans-69" x="456.591797"/>
     <use xlink:href="#DejaVuSans-6f" x="484.375"/>
     <use xlink:href="#DejaVuSans-6e" x="545.556641"/>
     <use xlink:href="#DejaVuSans-73" x="608.935547"/>
     <use xlink:href="#DejaVuSans-20" x="661.035156"/>
     <use xlink:href="#DejaVuSans-77" x="692.822266"/>
     <use xlink:href="#DejaVuSans-69" x="774.609375"/>
     <use xlink:href="#DejaVuSans-74" x="802.392578"/>
     <use xlink:href="#DejaVuSans-68" x="841.601562"/>
     <use xlink:href="#DejaVuSans-20" x="904.980469"/>
     <use xlink:href="#DejaVuSans-6e" x="936.767578"/>
     <use xlink:href="#DejaVuSans-6f" x="1000.146484"/>
     <use xlink:href="#DejaVuSans-20" x="1061.328125"/>
     <use xlink:href="#DejaVuSans-6f" x="1093.115234"/>
     <use xlink:href="#DejaVuSans-75" x="1154.296875"/>
     <use xlink:href="#DejaVuSans-74" x="1217.675781"/>
     <use xlink:href="#DejaVuSans-6c" x="1256.884766"/>
     <use xlink:href="#DejaVuSans-69" x="1284.667969"/>
     <use xlink:href="#DejaVuSans-65" x="1312.451172"/>
     <use xlink:href="#DejaVuSans-72" x="1373.974609"/>
     <use xlink:href="#DejaVuSans-73" x="1415.087891"/>
     <use xlink:href="#DejaVuSans-2e" x="1467.1875"/>
    </g>
   </g>
   <g id="legend_1">
    <g id="patch_7">
     <path d="M 27.5625 89.030625 
L 123.914062 89.030625 
Q 125.914062 89.030625 125.914062 87.030625 
L 125.914062 29.318125 
Q 125.914062 27.318125 123.914062 27.318125 
L 27.5625 27.318125 
Q 25.5625 27.318125 25.5625 29.318125 
L 25.5625 87.030625 
Q 25.5625 89.030625 27.5625 89.030625 
z
" style="fill: #ffffff; opacity: 0.8; stroke: #cccccc; stroke-linejoin: miter"/>
    </g>
    <g id="line2d_16">
     <g>
      <use xlink:href="#m4f4fd0915b" x="39.5625" y="35.416562" style="fill: #ff0000; stroke: #ff0000"/>
     </g>
    </g>
    <g id="text_13">
     <!-- observations -->
     <g transform="translate(57.5625 38.916562) scale(0.1 -0.1)">
      <use xlink:href="#DejaVuSans-6f"/>
      <use xlink:href="#DejaVuSans-62" x="61.181641"/>
      <use xlink:href="#DejaVuSans-73" x="124.658203"/>
      <use xlink:href="#DejaVuSans-65" x="176.757812"/>
      <use xlink:href="#DejaVuSans-72" x="238.28125"/>
      <use xlink:href="#DejaVuSans-76" x="279.394531"/>
      <use xlink:href="#DejaVuSans-61" x="338.574219"/>
      <use xlink:href="#DejaVuSans-74" x="399.853516"/>
      <use xlink:href="#DejaVuSans-69" x="439.0625"/>
      <use xlink:href="#DejaVuSans-6f" x="466.845703"/>
      <use xlink:href="#DejaVuSans-6e" x="528.027344"/>
      <use xlink:href="#DejaVuSans-73" x="591.40625"/>
     </g>
    </g>
    <g id="line2d_17">
     <path d="M 29.5625 50.094688 
L 39.5625 50.094688 
L 49.5625 50.094688 
" style="fill: none; stroke: #1f77b4; stroke-width: 1.5; stroke-linecap: square"/>
    </g>
    <g id="text_14">
     <!-- $E_\infty$ -->
     <g transform="translate(57.5625 53.594688) scale(0.1 -0.1)">
      <defs>
       <path id="DejaVuSans-Oblique-45" d="M 1081 4666 
L 4031 4666 
L 3928 4134 
L 1606 4134 
L 1338 2753 
L 3566 2753 
L 3463 2222 
L 1234 2222 
L 909 531 
L 3284 531 
L 3181 0 
L 172 0 
L 1081 4666 
z
" transform="scale(0.015625)"/>
       <path id="DejaVuSans-221e" d="M 2916 1091 
Q 2819 1203 2666 1466 
Q 2456 1091 2272 925 
Q 2041 725 1681 725 
Q 1259 725 981 1041 
Q 688 1372 688 1919 
Q 688 2444 981 2800 
Q 1244 3116 1688 3116 
Q 1916 3116 2084 3022 
Q 2281 2919 2416 2741 
Q 2541 2581 2666 2366 
Q 2875 2741 3059 2906 
Q 3291 3106 3650 3106 
Q 4072 3106 4350 2791 
Q 4644 2459 4644 1913 
Q 4644 1388 4350 1031 
Q 4088 716 3644 716 
Q 3416 716 3247 809 
Q 3078 894 2916 1091 
z
M 1647 1134 
Q 2163 1134 2472 1884 
Q 2075 2703 1647 2703 
Q 1334 2703 1175 2478 
Q 1003 2238 1003 1919 
Q 1003 1569 1175 1353 
Q 1350 1134 1647 1134 
z
M 3684 2697 
Q 3219 2697 2859 1947 
Q 3253 1128 3684 1128 
Q 3997 1128 4156 1353 
Q 4328 1594 4328 1913 
Q 4328 2263 4156 2478 
Q 3981 2697 3684 2697 
z
" transform="scale(0.015625)"/>
      </defs>
      <use xlink:href="#DejaVuSans-Oblique-45" transform="translate(0 0.09375)"/>
      <use xlink:href="#DejaVuSans-221e" transform="translate(63.183594 -16.3125) scale(0.7)"/>
     </g>
    </g>
    <g id="line2d_18">
     <path d="M 29.5625 64.772812 
L 39.5625 64.772812 
L 49.5625 64.772812 
" style="fill: none; stroke-dasharray: 7.4,3.2; stroke-dashoffset: 0; stroke: #ff7f0e; stroke-width: 2"/>
    </g>
    <g id="text_15">
     <!-- $E_1$ -->
     <g transform="translate(57.5625 68.272812) scale(0.1 -0.1)">
      <use xlink:href="#DejaVuSans-Oblique-45" transform="translate(0 0.09375)"/>
      <use xlink:href="#DejaVuSans-31" transform="translate(63.183594 -16.3125) scale(0.7)"/>
     </g>
    </g>
    <g id="line2d_19">
     <path d="M 29.5625 79.450938 
L 39.5625 79.450938 
L 49.5625 79.450938 
" style="fill: none; stroke-dasharray: 2,3.3; stroke-dashoffset: 0; stroke: #2ca02c; stroke-width: 2"/>
    </g>
    <g id="text_16">
     <!-- $E_2$ -->
     <g transform="translate(57.5625 82.950938) scale(0.1 -0.1)">
      <use xlink:href="#DejaVuSans-Oblique-45" transform="translate(0 0.09375)"/>
      <use xlink:href="#DejaVuSans-32" transform="translate(63.183594 -16.3125) scale(0.7)"/>
     </g>
    </g>
   </g>
  </g>
  <g id="axes_2">
   <g id="patch_8">
    <path d="M 20.5625 375.118125 
L 411.1625 375.118125 
L 411.1625 224.990465 
L 20.5625 224.990465 
z
" style="fill: #ffffff"/>
   </g>
   <g id="matplotlib.axis_3">
    <g id="xtick_7">
     <g id="line2d_20">
      <g>
       <use xlink:href="#m3859f57ba9" x="20.5625" y="375.118125" style="stroke: #000000; stroke-width: 0.8"/>
      </g>
     </g>
     <g id="text_17">
      <!-- 0 -->
      <g transform="translate(17.38125 389.716562) scale(0.1 -0.1)">
       <use xlink:href="#DejaVuSans-30"/>
      </g>
     </g>
    </g>
    <g id="xtick_8">
     <g id="line2d_21">
      <g>
       <use xlink:href="#m3859f57ba9" x="91.580682" y="375.118125" style="stroke: #000000; stroke-width: 0.8"/>
      </g>
     </g>
     <g id="text_18">
      <!-- 2 -->
      <g transform="translate(88.399432 389.716562) scale(0.1 -0.1)">
       <use xlink:href="#DejaVuSans-32"/>
      </g>
     </g>
    </g>
    <g id="xtick_9">
     <g id="line2d_22">
      <g>
       <use xlink:href="#m3859f57ba9" x="162.598864" y="375.118125" style="stroke: #000000; stroke-width: 0.8"/>
      </g>
     </g>
     <g id="text_19">
      <!-- 4 -->
      <g transform="translate(159.417614 389.716562) scale(0.1 -0.1)">
       <use xlink:href="#DejaVuSans-34"/>
      </g>
     </g>
    </g>
    <g id="xtick_10">
     <g id="line2d_23">
      <g>
       <use xlink:href="#m3859f57ba9" x="233.617045" y="375.118125" style="stroke: #000000; stroke-width: 0.8"/>
      </g>
     </g>
     <g id="text_20">
      <!-- 6 -->
      <g transform="translate(230.435795 389.716562) scale(0.1 -0.1)">
       <use xlink:href="#DejaVuSans-36"/>
      </g>
     </g>
    </g>
    <g id="xtick_11">
     <g id="line2d_24">
      <g>
       <use xlink:href="#m3859f57ba9" x="304.635227" y="375.118125" style="stroke: #000000; stroke-width: 0.8"/>
      </g>
     </g>
     <g id="text_21">
      <!-- 8 -->
      <g transform="translate(301.453977 389.716562) scale(0.1 -0.1)">
       <use xlink:href="#DejaVuSans-38"/>
      </g>
     </g>
    </g>
    <g id="xtick_12">
     <g id="line2d_25">
      <g>
       <use xlink:href="#m3859f57ba9" x="375.653409" y="375.118125" style="stroke: #000000; stroke-width: 0.8"/>
      </g>
     </g>
     <g id="text_22">
      <!-- 10 -->
      <g transform="translate(369.290909 389.716562) scale(0.1 -0.1)">
       <use xlink:href="#DejaVuSans-31"/>
       <use xlink:href="#DejaVuSans-30" x="63.623047"/>
      </g>
     </g>
    </g>
   </g>
   <g id="matplotlib.axis_4">
    <g id="ytick_6">
     <g id="line2d_26">
      <g>
       <use xlink:href="#m60af0fcbad" x="20.5625" y="375.118125" style="stroke: #000000; stroke-width: 0.8"/>
      </g>
     </g>
     <g id="text_23">
      <!-- 0 -->
      <g transform="translate(7.2 378.917344) scale(0.1 -0.1)">
       <use xlink:href="#DejaVuSans-30"/>
      </g>
     </g>
    </g>
    <g id="ytick_7">
     <g id="line2d_27">
      <g>
       <use xlink:href="#m60af0fcbad" x="20.5625" y="337.58621" style="stroke: #000000; stroke-width: 0.8"/>
      </g>
     </g>
     <g id="text_24">
      <!-- 1 -->
      <g transform="translate(7.2 341.385429) scale(0.1 -0.1)">
       <use xlink:href="#DejaVuSans-31"/>
      </g>
     </g>
    </g>
    <g id="ytick_8">
     <g id="line2d_28">
      <g>
       <use xlink:href="#m60af0fcbad" x="20.5625" y="300.054295" style="stroke: #000000; stroke-width: 0.8"/>
      </g>
     </g>
     <g id="text_25">
      <!-- 2 -->
      <g transform="translate(7.2 303.853514) scale(0.1 -0.1)">
       <use xlink:href="#DejaVuSans-32"/>
      </g>
     </g>
    </g>
    <g id="ytick_9">
     <g id="line2d_29">
      <g>
       <use xlink:href="#m60af0fcbad" x="20.5625" y="262.52238" style="stroke: #000000; stroke-width: 0.8"/>
      </g>
     </g>
     <g id="text_26">
      <!-- 3 -->
      <g transform="translate(7.2 266.321599) scale(0.1 -0.1)">
       <use xlink:href="#DejaVuSans-33"/>
      </g>
     </g>
    </g>
    <g id="ytick_10">
     <g id="line2d_30">
      <g>
       <use xlink:href="#m60af0fcbad" x="20.5625" y="224.990465" style="stroke: #000000; stroke-width: 0.8"/>
      </g>
     </g>
     <g id="text_27">
      <!-- 4 -->
      <g transform="translate(7.2 228.789684) scale(0.1 -0.1)">
       <use xlink:href="#DejaVuSans-34"/>
      </g>
     </g>
    </g>
   </g>
   <g id="line2d_31">
    <g clip-path="url(#p89dfdbf009)">
     <use xlink:href="#m4f4fd0915b" x="56.071591" y="367.611742" style="fill: #ff0000; stroke: #ff0000"/>
     <use xlink:href="#m4f4fd0915b" x="91.580682" y="356.352168" style="fill: #ff0000; stroke: #ff0000"/>
     <use xlink:href="#m4f4fd0915b" x="127.089773" y="363.858551" style="fill: #ff0000; stroke: #ff0000"/>
     <use xlink:href="#m4f4fd0915b" x="162.598864" y="243.756423" style="fill: #ff0000; stroke: #ff0000"/>
     <use xlink:href="#m4f4fd0915b" x="198.107955" y="337.58621" style="fill: #ff0000; stroke: #ff0000"/>
     <use xlink:href="#m4f4fd0915b" x="233.617045" y="318.820253" style="fill: #ff0000; stroke: #ff0000"/>
     <use xlink:href="#m4f4fd0915b" x="269.126136" y="307.560678" style="fill: #ff0000; stroke: #ff0000"/>
     <use xlink:href="#m4f4fd0915b" x="304.635227" y="300.054295" style="fill: #ff0000; stroke: #ff0000"/>
     <use xlink:href="#m4f4fd0915b" x="340.144318" y="288.794721" style="fill: #ff0000; stroke: #ff0000"/>
     <use xlink:href="#m4f4fd0915b" x="375.653409" y="292.547912" style="fill: #ff0000; stroke: #ff0000"/>
    </g>
   </g>
   <g id="line2d_32">
    <path d="M 20.5625 339.452708 
L 24.113409 338.434279 
L 27.664318 337.41585 
L 31.215227 336.397421 
L 34.766136 335.378992 
L 38.317045 334.360563 
L 41.867955 333.342134 
L 45.418864 332.323704 
L 48.969773 331.305275 
L 52.520682 330.286846 
L 56.071591 329.268417 
L 59.6225 328.249988 
L 63.173409 327.231559 
L 66.724318 326.21313 
L 70.275227 325.194701 
L 73.826136 324.176272 
L 77.377045 323.157843 
L 80.927955 322.139414 
L 84.478864 321.120985 
L 88.029773 320.102556 
L 91.580682 319.084126 
L 95.131591 318.065697 
L 98.6825 317.047268 
L 102.233409 316.028839 
L 105.784318 315.01041 
L 109.335227 313.991981 
L 112.886136 312.973552 
L 116.437045 311.955123 
L 119.987955 310.936694 
L 123.538864 309.918265 
L 127.089773 308.899836 
L 130.640682 307.881407 
L 134.191591 306.862978 
L 137.7425 305.844548 
L 141.293409 304.826119 
L 144.844318 303.80769 
L 148.395227 302.789261 
L 151.946136 301.770832 
L 155.497045 300.752403 
L 159.047955 299.733974 
L 162.598864 298.715545 
L 166.149773 297.697116 
L 169.700682 296.678687 
L 173.251591 295.660258 
L 176.8025 294.641829 
L 180.353409 293.623399 
L 183.904318 292.60497 
L 187.455227 291.586541 
L 191.006136 290.568112 
L 194.557045 289.549683 
L 198.107955 288.531254 
L 201.658864 287.512825 
L 205.209773 286.494396 
L 208.760682 285.475967 
L 212.311591 284.457538 
L 215.8625 283.439109 
L 219.413409 282.42068 
L 222.964318 281.402251 
L 226.515227 280.383821 
L 230.066136 279.365392 
L 233.617045 278.346963 
L 237.167955 277.328534 
L 240.718864 276.310105 
L 244.269773 275.291676 
L 247.820682 274.273247 
L 251.371591 273.254818 
L 254.9225 272.236389 
L 258.473409 271.21796 
L 262.024318 270.199531 
L 265.575227 269.181102 
L 269.126136 268.162673 
L 272.677045 267.144243 
L 276.227955 266.125814 
L 279.778864 265.107385 
L 283.329773 264.088956 
L 286.880682 263.070527 
L 290.431591 262.052098 
L 293.9825 261.033669 
L 297.533409 260.01524 
L 301.084318 258.996811 
L 304.635227 257.978382 
L 308.186136 256.959953 
L 311.737045 255.941524 
L 315.287955 254.923094 
L 318.838864 253.904665 
L 322.389773 252.886236 
L 325.940682 251.867807 
L 329.491591 250.849378 
L 333.0425 249.830949 
L 336.593409 248.81252 
L 340.144318 247.794091 
L 343.695227 246.775662 
L 347.246136 245.757233 
L 350.797045 244.738804 
L 354.347955 243.720375 
L 357.898864 242.701946 
L 361.449773 241.683516 
L 365.000682 240.665087 
L 368.551591 239.646658 
L 372.1025 238.628229 
L 375.653409 237.6098 
L 379.204318 236.591371 
L 382.755227 235.572942 
L 386.306136 234.554513 
L 389.857045 233.536084 
L 393.407955 232.517655 
L 396.958864 231.499226 
L 400.509773 230.480797 
L 404.060682 229.462368 
L 407.611591 228.443938 
" clip-path="url(#p89dfdbf009)" style="fill: none; stroke: #1f77b4; stroke-width: 1.5; stroke-linecap: square"/>
   </g>
   <g id="line2d_33">
    <path d="M 20.5625 377.368388 
L 24.113409 376.39264 
L 27.664318 375.416892 
L 31.215227 374.441144 
L 34.766136 373.465397 
L 38.317045 372.489649 
L 41.867955 371.513901 
L 45.418864 370.538154 
L 48.969773 369.562406 
L 52.520682 368.586658 
L 56.071591 367.61091 
L 59.6225 366.635163 
L 63.173409 365.659415 
L 66.724318 364.683667 
L 70.275227 363.707919 
L 73.826136 362.732172 
L 77.377045 361.756424 
L 80.927955 360.780676 
L 84.478864 359.804928 
L 88.029773 358.829181 
L 91.580682 357.853433 
L 95.131591 356.877685 
L 98.6825 355.901937 
L 102.233409 354.92619 
L 105.784318 353.950442 
L 109.335227 352.974694 
L 112.886136 351.998946 
L 116.437045 351.023199 
L 119.987955 350.047451 
L 123.538864 349.071703 
L 127.089773 348.095955 
L 130.640682 347.120208 
L 134.191591 346.14446 
L 137.7425 345.168712 
L 141.293409 344.192965 
L 144.844318 343.217217 
L 148.395227 342.241469 
L 151.946136 341.265721 
L 155.497045 340.289974 
L 159.047955 339.314226 
L 162.598864 338.338478 
L 166.149773 337.36273 
L 169.700682 336.386983 
L 173.251591 335.411235 
L 176.8025 334.435487 
L 180.353409 333.459739 
L 183.904318 332.483992 
L 187.455227 331.508244 
L 191.006136 330.532496 
L 194.557045 329.556748 
L 198.107955 328.581001 
L 201.658864 327.605253 
L 205.209773 326.629505 
L 208.760682 325.653757 
L 212.311591 324.67801 
L 215.8625 323.702262 
L 219.413409 322.726514 
L 222.964318 321.750766 
L 226.515227 320.775019 
L 230.066136 319.799271 
L 233.617045 318.823523 
L 237.167955 317.847776 
L 240.718864 316.872028 
L 244.269773 315.89628 
L 247.820682 314.920532 
L 251.371591 313.944785 
L 254.9225 312.969037 
L 258.473409 311.993289 
L 262.024318 311.017541 
L 265.575227 310.041794 
L 269.126136 309.066046 
L 272.677045 308.090298 
L 276.227955 307.11455 
L 279.778864 306.138803 
L 283.329773 305.163055 
L 286.880682 304.187307 
L 290.431591 303.211559 
L 293.9825 302.235812 
L 297.533409 301.260064 
L 301.084318 300.284316 
L 304.635227 299.308568 
L 308.186136 298.332821 
L 311.737045 297.357073 
L 315.287955 296.381325 
L 318.838864 295.405577 
L 322.389773 294.42983 
L 325.940682 293.454082 
L 329.491591 292.478334 
L 333.0425 291.502587 
L 336.593409 290.526839 
L 340.144318 289.551091 
L 343.695227 288.575343 
L 347.246136 287.599596 
L 350.797045 286.623848 
L 354.347955 285.6481 
L 357.898864 284.672352 
L 361.449773 283.696605 
L 365.000682 282.720857 
L 368.551591 281.745109 
L 372.1025 280.769361 
L 375.653409 279.793614 
L 379.204318 278.817866 
L 382.755227 277.842118 
L 386.306136 276.86637 
L 389.857045 275.890623 
L 393.407955 274.914875 
L 396.958864 273.939127 
L 400.509773 272.963379 
L 404.060682 271.987632 
L 407.611591 271.011884 
" clip-path="url(#p89dfdbf009)" style="fill: none; stroke-dasharray: 7.4,3.2; stroke-dashoffset: 0; stroke: #ff7f0e; stroke-width: 2"/>
   </g>
   <g id="line2d_34">
    <path d="M 20.5625 360.855063 
L 24.113409 360.070337 
L 27.664318 359.285611 
L 31.215227 358.500885 
L 34.766136 357.716159 
L 38.317045 356.931433 
L 41.867955 356.146707 
L 45.418864 355.361981 
L 48.969773 354.577255 
L 52.520682 353.792529 
L 56.071591 353.007803 
L 59.6225 352.223077 
L 63.173409 351.438351 
L 66.724318 350.653625 
L 70.275227 349.868899 
L 73.826136 349.084173 
L 77.377045 348.299447 
L 80.927955 347.514721 
L 84.478864 346.729995 
L 88.029773 345.94527 
L 91.580682 345.160544 
L 95.131591 344.375818 
L 98.6825 343.591092 
L 102.233409 342.806366 
L 105.784318 342.02164 
L 109.335227 341.236914 
L 112.886136 340.452188 
L 116.437045 339.667462 
L 119.987955 338.882736 
L 123.538864 338.09801 
L 127.089773 337.313284 
L 130.640682 336.528558 
L 134.191591 335.743832 
L 137.7425 334.959106 
L 141.293409 334.17438 
L 144.844318 333.389654 
L 148.395227 332.604928 
L 151.946136 331.820202 
L 155.497045 331.035476 
L 159.047955 330.25075 
L 162.598864 329.466024 
L 166.149773 328.681298 
L 169.700682 327.896572 
L 173.251591 327.111847 
L 176.8025 326.327121 
L 180.353409 325.542395 
L 183.904318 324.757669 
L 187.455227 323.972943 
L 191.006136 323.188217 
L 194.557045 322.403491 
L 198.107955 321.618765 
L 201.658864 320.834039 
L 205.209773 320.049313 
L 208.760682 319.264587 
L 212.311591 318.479861 
L 215.8625 317.695135 
L 219.413409 316.910409 
L 222.964318 316.125683 
L 226.515227 315.340957 
L 230.066136 314.556231 
L 233.617045 313.771505 
L 237.167955 312.986779 
L 240.718864 312.202053 
L 244.269773 311.417327 
L 247.820682 310.632601 
L 251.371591 309.847875 
L 254.9225 309.063149 
L 258.473409 308.278424 
L 262.024318 307.493698 
L 265.575227 306.708972 
L 269.126136 305.924246 
L 272.677045 305.13952 
L 276.227955 304.354794 
L 279.778864 303.570068 
L 283.329773 302.785342 
L 286.880682 302.000616 
L 290.431591 301.21589 
L 293.9825 300.431164 
L 297.533409 299.646438 
L 301.084318 298.861712 
L 304.635227 298.076986 
L 308.186136 297.29226 
L 311.737045 296.507534 
L 315.287955 295.722808 
L 318.838864 294.938082 
L 322.389773 294.153356 
L 325.940682 293.36863 
L 329.491591 292.583904 
L 333.0425 291.799178 
L 336.593409 291.014452 
L 340.144318 290.229726 
L 343.695227 289.445001 
L 347.246136 288.660275 
L 350.797045 287.875549 
L 354.347955 287.090823 
L 357.898864 286.306097 
L 361.449773 285.521371 
L 365.000682 284.736645 
L 368.551591 283.951919 
L 372.1025 283.167193 
L 375.653409 282.382467 
L 379.204318 281.597741 
L 382.755227 280.813015 
L 386.306136 280.028289 
L 389.857045 279.243563 
L 393.407955 278.458837 
L 396.958864 277.674111 
L 400.509773 276.889385 
L 404.060682 276.104659 
L 407.611591 275.319933 
" clip-path="url(#p89dfdbf009)" style="fill: none; stroke-dasharray: 2,3.3; stroke-dashoffset: 0; stroke: #2ca02c; stroke-width: 2"/>
   </g>
   <g id="patch_9">
    <path d="M 20.5625 375.118125 
L 20.5625 224.990465 
" style="fill: none; stroke: #000000; stroke-width: 0.8; stroke-linejoin: miter; stroke-linecap: square"/>
   </g>
   <g id="patch_10">
    <path d="M 411.1625 375.118125 
L 411.1625 224.990465 
" style="fill: none; stroke: #000000; stroke-width: 0.8; stroke-linejoin: miter; stroke-linecap: square"/>
   </g>
   <g id="patch_11">
    <path d="M 20.5625 375.118125 
L 411.1625 375.118125 
" style="fill: none; stroke: #000000; stroke-width: 0.8; stroke-linejoin: miter; stroke-linecap: square"/>
   </g>
   <g id="patch_12">
    <path d="M 20.5625 224.990465 
L 411.1625 224.990465 
" style="fill: none; stroke: #000000; stroke-width: 0.8; stroke-linejoin: miter; stroke-linecap: square"/>
   </g>
   <g id="text_28">
    <!-- Observations with outliers. -->
    <g transform="translate(135.306875 218.990465) scale(0.12 -0.12)">
     <use xlink:href="#DejaVuSans-4f"/>
     <use xlink:href="#DejaVuSans-62" x="78.710938"/>
     <use xlink:href="#DejaVuSans-73" x="142.1875"/>
     <use xlink:href="#DejaVuSans-65" x="194.287109"/>
     <use xlink:href="#DejaVuSans-72" x="255.810547"/>
     <use xlink:href="#DejaVuSans-76" x="296.923828"/>
     <use xlink:href="#DejaVuSans-61" x="356.103516"/>
     <use xlink:href="#DejaVuSans-74" x="417.382812"/>
     <use xlink:href="#DejaVuSans-69" x="456.591797"/>
     <use xlink:href="#DejaVuSans-6f" x="484.375"/>
     <use xlink:href="#DejaVuSans-6e" x="545.556641"/>
     <use xlink:href="#DejaVuSans-73" x="608.935547"/>
     <use xlink:href="#DejaVuSans-20" x="661.035156"/>
     <use xlink:href="#DejaVuSans-77" x="692.822266"/>
     <use xlink:href="#DejaVuSans-69" x="774.609375"/>
     <use xlink:href="#DejaVuSans-74" x="802.392578"/>
     <use xlink:href="#DejaVuSans-68" x="841.601562"/>
     <use xlink:href="#DejaVuSans-20" x="904.980469"/>
     <use xlink:href="#DejaVuSans-6f" x="936.767578"/>
     <use xlink:href="#DejaVuSans-75" x="997.949219"/>
     <use xlink:href="#DejaVuSans-74" x="1061.328125"/>
     <use xlink:href="#DejaVuSans-6c" x="1100.537109"/>
     <use xlink:href="#DejaVuSans-69" x="1128.320312"/>
     <use xlink:href="#DejaVuSans-65" x="1156.103516"/>
     <use xlink:href="#DejaVuSans-72" x="1217.626953"/>
     <use xlink:href="#DejaVuSans-73" x="1258.740234"/>
     <use xlink:href="#DejaVuSans-2e" x="1310.839844"/>
    </g>
   </g>
  </g>
 </g>
 <defs>
  <clipPath id="pc91d46196f">
   <rect x="20.5625" y="22.318125" width="390.6" height="150.12766"/>
  </clipPath>
  <clipPath id="p89dfdbf009">
   <rect x="20.5625" y="224.990465" width="390.6" height="150.12766"/>
  </clipPath>
 </defs>
</svg>
