<?xml version="1.0" encoding="utf-8" standalone="no"?>
<!DOCTYPE svg PUBLIC "-//W3C//DTD SVG 1.1//EN"
  "http://www.w3.org/Graphics/SVG/1.1/DTD/svg11.dtd">
<svg xmlns:xlink="http://www.w3.org/1999/xlink" width="426.742188pt" height="173.547469pt" viewBox="0 0 426.742188 173.547469" xmlns="http://www.w3.org/2000/svg" version="1.1">
 <metadata>
  <rdf:RDF xmlns:dc="http://purl.org/dc/elements/1.1/" xmlns:cc="http://creativecommons.org/ns#" xmlns:rdf="http://www.w3.org/1999/02/22-rdf-syntax-ns#">
   <cc:Work>
    <dc:type rdf:resource="http://purl.org/dc/dcmitype/StillImage"/>
    <dc:date>2025-01-15T15:43:43.990227</dc:date>
    <dc:format>image/svg+xml</dc:format>
    <dc:creator>
     <cc:Agent>
      <dc:title>Matplotlib v3.9.2, https://matplotlib.org/</dc:title>
     </cc:Agent>
    </dc:creator>
   </cc:Work>
  </rdf:RDF>
 </metadata>
 <defs>
  <style type="text/css">*{stroke-linejoin: round; stroke-linecap: butt}</style>
 </defs>
 <g id="figure_1">
  <g id="patch_1">
   <path d="M 0 173.547469 
L 426.742188 173.547469 
L 426.742188 0 
L 0 0 
z
" style="fill: #ffffff"/>
  </g>
  <g id="axes_1">
   <g id="patch_2">
    <path d="M 28.942188 135.991219 
L 419.542188 135.991219 
L 419.542188 10.999219 
L 28.942188 10.999219 
z
" style="fill: #ffffff"/>
   </g>
   <g id="matplotlib.axis_1">
    <g id="xtick_1">
     <g id="line2d_1">
      <defs>
       <path id="m7ec280a298" d="M 0 0 
L 0 3.5 
" style="stroke: #000000; stroke-width: 0.8"/>
      </defs>
      <g>
       <use xlink:href="#m7ec280a298" x="60.190188" y="135.991219" style="stroke: #000000; stroke-width: 0.8"/>
      </g>
     </g>
     <g id="text_1">
      <!-- 0.13 -->
      <g transform="translate(49.057375 150.589656) scale(0.1 -0.1)">
       <defs>
        <path id="DejaVuSans-30" d="M 2034 4250 
Q 1547 4250 1301 3770 
Q 1056 3291 1056 2328 
Q 1056 1369 1301 889 
Q 1547 409 2034 409 
Q 2525 409 2770 889 
Q 3016 1369 3016 2328 
Q 3016 3291 2770 3770 
Q 2525 4250 2034 4250 
z
M 2034 4750 
Q 2819 4750 3233 4129 
Q 3647 3509 3647 2328 
Q 3647 1150 3233 529 
Q 2819 -91 2034 -91 
Q 1250 -91 836 529 
Q 422 1150 422 2328 
Q 422 3509 836 4129 
Q 1250 4750 2034 4750 
z
" transform="scale(0.015625)"/>
        <path id="DejaVuSans-2e" d="M 684 794 
L 1344 794 
L 1344 0 
L 684 0 
L 684 794 
z
" transform="scale(0.015625)"/>
        <path id="DejaVuSans-31" d="M 794 531 
L 1825 531 
L 1825 4091 
L 703 3866 
L 703 4441 
L 1819 4666 
L 2450 4666 
L 2450 531 
L 3481 531 
L 3481 0 
L 794 0 
L 794 531 
z
" transform="scale(0.015625)"/>
        <path id="DejaVuSans-33" d="M 2597 2516 
Q 3050 2419 3304 2112 
Q 3559 1806 3559 1356 
Q 3559 666 3084 287 
Q 2609 -91 1734 -91 
Q 1441 -91 1130 -33 
Q 819 25 488 141 
L 488 750 
Q 750 597 1062 519 
Q 1375 441 1716 441 
Q 2309 441 2620 675 
Q 2931 909 2931 1356 
Q 2931 1769 2642 2001 
Q 2353 2234 1838 2234 
L 1294 2234 
L 1294 2753 
L 1863 2753 
Q 2328 2753 2575 2939 
Q 2822 3125 2822 3475 
Q 2822 3834 2567 4026 
Q 2313 4219 1838 4219 
Q 1578 4219 1281 4162 
Q 984 4106 628 3988 
L 628 4550 
Q 988 4650 1302 4700 
Q 1616 4750 1894 4750 
Q 2613 4750 3031 4423 
Q 3450 4097 3450 3541 
Q 3450 3153 3228 2886 
Q 3006 2619 2597 2516 
z
" transform="scale(0.015625)"/>
       </defs>
       <use xlink:href="#DejaVuSans-30"/>
       <use xlink:href="#DejaVuSans-2e" x="63.623047"/>
       <use xlink:href="#DejaVuSans-31" x="95.410156"/>
       <use xlink:href="#DejaVuSans-33" x="159.033203"/>
      </g>
     </g>
    </g>
    <g id="xtick_2">
     <g id="line2d_2">
      <g>
       <use xlink:href="#m7ec280a298" x="122.686187" y="135.991219" style="stroke: #000000; stroke-width: 0.8"/>
      </g>
     </g>
     <g id="text_2">
      <!-- 0.14 -->
      <g transform="translate(111.553375 150.589656) scale(0.1 -0.1)">
       <defs>
        <path id="DejaVuSans-34" d="M 2419 4116 
L 825 1625 
L 2419 1625 
L 2419 4116 
z
M 2253 4666 
L 3047 4666 
L 3047 1625 
L 3713 1625 
L 3713 1100 
L 3047 1100 
L 3047 0 
L 2419 0 
L 2419 1100 
L 313 1100 
L 313 1709 
L 2253 4666 
z
" transform="scale(0.015625)"/>
       </defs>
       <use xlink:href="#DejaVuSans-30"/>
       <use xlink:href="#DejaVuSans-2e" x="63.623047"/>
       <use xlink:href="#DejaVuSans-31" x="95.410156"/>
       <use xlink:href="#DejaVuSans-34" x="159.033203"/>
      </g>
     </g>
    </g>
    <g id="xtick_3">
     <g id="line2d_3">
      <g>
       <use xlink:href="#m7ec280a298" x="185.182188" y="135.991219" style="stroke: #000000; stroke-width: 0.8"/>
      </g>
     </g>
     <g id="text_3">
      <!-- 0.15 -->
      <g transform="translate(174.049375 150.589656) scale(0.1 -0.1)">
       <defs>
        <path id="DejaVuSans-35" d="M 691 4666 
L 3169 4666 
L 3169 4134 
L 1269 4134 
L 1269 2991 
Q 1406 3038 1543 3061 
Q 1681 3084 1819 3084 
Q 2600 3084 3056 2656 
Q 3513 2228 3513 1497 
Q 3513 744 3044 326 
Q 2575 -91 1722 -91 
Q 1428 -91 1123 -41 
Q 819 9 494 109 
L 494 744 
Q 775 591 1075 516 
Q 1375 441 1709 441 
Q 2250 441 2565 725 
Q 2881 1009 2881 1497 
Q 2881 1984 2565 2268 
Q 2250 2553 1709 2553 
Q 1456 2553 1204 2497 
Q 953 2441 691 2322 
L 691 4666 
z
" transform="scale(0.015625)"/>
       </defs>
       <use xlink:href="#DejaVuSans-30"/>
       <use xlink:href="#DejaVuSans-2e" x="63.623047"/>
       <use xlink:href="#DejaVuSans-31" x="95.410156"/>
       <use xlink:href="#DejaVuSans-35" x="159.033203"/>
      </g>
     </g>
    </g>
    <g id="xtick_4">
     <g id="line2d_4">
      <g>
       <use xlink:href="#m7ec280a298" x="247.678188" y="135.991219" style="stroke: #000000; stroke-width: 0.8"/>
      </g>
     </g>
     <g id="text_4">
      <!-- 0.16 -->
      <g transform="translate(236.545375 150.589656) scale(0.1 -0.1)">
       <defs>
        <path id="DejaVuSans-36" d="M 2113 2584 
Q 1688 2584 1439 2293 
Q 1191 2003 1191 1497 
Q 1191 994 1439 701 
Q 1688 409 2113 409 
Q 2538 409 2786 701 
Q 3034 994 3034 1497 
Q 3034 2003 2786 2293 
Q 2538 2584 2113 2584 
z
M 3366 4563 
L 3366 3988 
Q 3128 4100 2886 4159 
Q 2644 4219 2406 4219 
Q 1781 4219 1451 3797 
Q 1122 3375 1075 2522 
Q 1259 2794 1537 2939 
Q 1816 3084 2150 3084 
Q 2853 3084 3261 2657 
Q 3669 2231 3669 1497 
Q 3669 778 3244 343 
Q 2819 -91 2113 -91 
Q 1303 -91 875 529 
Q 447 1150 447 2328 
Q 447 3434 972 4092 
Q 1497 4750 2381 4750 
Q 2619 4750 2861 4703 
Q 3103 4656 3366 4563 
z
" transform="scale(0.015625)"/>
       </defs>
       <use xlink:href="#DejaVuSans-30"/>
       <use xlink:href="#DejaVuSans-2e" x="63.623047"/>
       <use xlink:href="#DejaVuSans-31" x="95.410156"/>
       <use xlink:href="#DejaVuSans-36" x="159.033203"/>
      </g>
     </g>
    </g>
    <g id="xtick_5">
     <g id="line2d_5">
      <g>
       <use xlink:href="#m7ec280a298" x="310.174188" y="135.991219" style="stroke: #000000; stroke-width: 0.8"/>
      </g>
     </g>
     <g id="text_5">
      <!-- 0.17 -->
      <g transform="translate(299.041375 150.589656) scale(0.1 -0.1)">
       <defs>
        <path id="DejaVuSans-37" d="M 525 4666 
L 3525 4666 
L 3525 4397 
L 1831 0 
L 1172 0 
L 2766 4134 
L 525 4134 
L 525 4666 
z
" transform="scale(0.015625)"/>
       </defs>
       <use xlink:href="#DejaVuSans-30"/>
       <use xlink:href="#DejaVuSans-2e" x="63.623047"/>
       <use xlink:href="#DejaVuSans-31" x="95.410156"/>
       <use xlink:href="#DejaVuSans-37" x="159.033203"/>
      </g>
     </g>
    </g>
    <g id="xtick_6">
     <g id="line2d_6">
      <g>
       <use xlink:href="#m7ec280a298" x="372.670188" y="135.991219" style="stroke: #000000; stroke-width: 0.8"/>
      </g>
     </g>
     <g id="text_6">
      <!-- 0.18 -->
      <g transform="translate(361.537375 150.589656) scale(0.1 -0.1)">
       <defs>
        <path id="DejaVuSans-38" d="M 2034 2216 
Q 1584 2216 1326 1975 
Q 1069 1734 1069 1313 
Q 1069 891 1326 650 
Q 1584 409 2034 409 
Q 2484 409 2743 651 
Q 3003 894 3003 1313 
Q 3003 1734 2745 1975 
Q 2488 2216 2034 2216 
z
M 1403 2484 
Q 997 2584 770 2862 
Q 544 3141 544 3541 
Q 544 4100 942 4425 
Q 1341 4750 2034 4750 
Q 2731 4750 3128 4425 
Q 3525 4100 3525 3541 
Q 3525 3141 3298 2862 
Q 3072 2584 2669 2484 
Q 3125 2378 3379 2068 
Q 3634 1759 3634 1313 
Q 3634 634 3220 271 
Q 2806 -91 2034 -91 
Q 1263 -91 848 271 
Q 434 634 434 1313 
Q 434 1759 690 2068 
Q 947 2378 1403 2484 
z
M 1172 3481 
Q 1172 3119 1398 2916 
Q 1625 2713 2034 2713 
Q 2441 2713 2670 2916 
Q 2900 3119 2900 3481 
Q 2900 3844 2670 4047 
Q 2441 4250 2034 4250 
Q 1625 4250 1398 4047 
Q 1172 3844 1172 3481 
z
" transform="scale(0.015625)"/>
       </defs>
       <use xlink:href="#DejaVuSans-30"/>
       <use xlink:href="#DejaVuSans-2e" x="63.623047"/>
       <use xlink:href="#DejaVuSans-31" x="95.410156"/>
       <use xlink:href="#DejaVuSans-38" x="159.033203"/>
      </g>
     </g>
    </g>
    <g id="text_7">
     <!-- Time [s] -->
     <g transform="translate(203.913281 164.267781) scale(0.1 -0.1)">
      <defs>
       <path id="DejaVuSans-54" d="M -19 4666 
L 3928 4666 
L 3928 4134 
L 2272 4134 
L 2272 0 
L 1638 0 
L 1638 4134 
L -19 4134 
L -19 4666 
z
" transform="scale(0.015625)"/>
       <path id="DejaVuSans-69" d="M 603 3500 
L 1178 3500 
L 1178 0 
L 603 0 
L 603 3500 
z
M 603 4863 
L 1178 4863 
L 1178 4134 
L 603 4134 
L 603 4863 
z
" transform="scale(0.015625)"/>
       <path id="DejaVuSans-6d" d="M 3328 2828 
Q 3544 3216 3844 3400 
Q 4144 3584 4550 3584 
Q 5097 3584 5394 3201 
Q 5691 2819 5691 2113 
L 5691 0 
L 5113 0 
L 5113 2094 
Q 5113 2597 4934 2840 
Q 4756 3084 4391 3084 
Q 3944 3084 3684 2787 
Q 3425 2491 3425 1978 
L 3425 0 
L 2847 0 
L 2847 2094 
Q 2847 2600 2669 2842 
Q 2491 3084 2119 3084 
Q 1678 3084 1418 2786 
Q 1159 2488 1159 1978 
L 1159 0 
L 581 0 
L 581 3500 
L 1159 3500 
L 1159 2956 
Q 1356 3278 1631 3431 
Q 1906 3584 2284 3584 
Q 2666 3584 2933 3390 
Q 3200 3197 3328 2828 
z
" transform="scale(0.015625)"/>
       <path id="DejaVuSans-65" d="M 3597 1894 
L 3597 1613 
L 953 1613 
Q 991 1019 1311 708 
Q 1631 397 2203 397 
Q 2534 397 2845 478 
Q 3156 559 3463 722 
L 3463 178 
Q 3153 47 2828 -22 
Q 2503 -91 2169 -91 
Q 1331 -91 842 396 
Q 353 884 353 1716 
Q 353 2575 817 3079 
Q 1281 3584 2069 3584 
Q 2775 3584 3186 3129 
Q 3597 2675 3597 1894 
z
M 3022 2063 
Q 3016 2534 2758 2815 
Q 2500 3097 2075 3097 
Q 1594 3097 1305 2825 
Q 1016 2553 972 2059 
L 3022 2063 
z
" transform="scale(0.015625)"/>
       <path id="DejaVuSans-20" transform="scale(0.015625)"/>
       <path id="DejaVuSans-5b" d="M 550 4863 
L 1875 4863 
L 1875 4416 
L 1125 4416 
L 1125 -397 
L 1875 -397 
L 1875 -844 
L 550 -844 
L 550 4863 
z
" transform="scale(0.015625)"/>
       <path id="DejaVuSans-73" d="M 2834 3397 
L 2834 2853 
Q 2591 2978 2328 3040 
Q 2066 3103 1784 3103 
Q 1356 3103 1142 2972 
Q 928 2841 928 2578 
Q 928 2378 1081 2264 
Q 1234 2150 1697 2047 
L 1894 2003 
Q 2506 1872 2764 1633 
Q 3022 1394 3022 966 
Q 3022 478 2636 193 
Q 2250 -91 1575 -91 
Q 1294 -91 989 -36 
Q 684 19 347 128 
L 347 722 
Q 666 556 975 473 
Q 1284 391 1588 391 
Q 1994 391 2212 530 
Q 2431 669 2431 922 
Q 2431 1156 2273 1281 
Q 2116 1406 1581 1522 
L 1381 1569 
Q 847 1681 609 1914 
Q 372 2147 372 2553 
Q 372 3047 722 3315 
Q 1072 3584 1716 3584 
Q 2034 3584 2315 3537 
Q 2597 3491 2834 3397 
z
" transform="scale(0.015625)"/>
       <path id="DejaVuSans-5d" d="M 1947 4863 
L 1947 -844 
L 622 -844 
L 622 -397 
L 1369 -397 
L 1369 4416 
L 622 4416 
L 622 4863 
L 1947 4863 
z
" transform="scale(0.015625)"/>
      </defs>
      <use xlink:href="#DejaVuSans-54"/>
      <use xlink:href="#DejaVuSans-69" x="57.958984"/>
      <use xlink:href="#DejaVuSans-6d" x="85.742188"/>
      <use xlink:href="#DejaVuSans-65" x="183.154297"/>
      <use xlink:href="#DejaVuSans-20" x="244.677734"/>
      <use xlink:href="#DejaVuSans-5b" x="276.464844"/>
      <use xlink:href="#DejaVuSans-73" x="315.478516"/>
      <use xlink:href="#DejaVuSans-5d" x="367.578125"/>
     </g>
    </g>
   </g>
   <g id="matplotlib.axis_2">
    <g id="ytick_1">
     <g id="line2d_7">
      <defs>
       <path id="m08dcd00f4a" d="M 0 0 
L -3.5 0 
" style="stroke: #000000; stroke-width: 0.8"/>
      </defs>
      <g>
       <use xlink:href="#m08dcd00f4a" x="28.942188" y="135.991219" style="stroke: #000000; stroke-width: 0.8"/>
      </g>
     </g>
     <g id="text_8">
      <!-- −2 -->
      <g transform="translate(7.2 139.790437) scale(0.1 -0.1)">
       <defs>
        <path id="DejaVuSans-2212" d="M 678 2272 
L 4684 2272 
L 4684 1741 
L 678 1741 
L 678 2272 
z
" transform="scale(0.015625)"/>
        <path id="DejaVuSans-32" d="M 1228 531 
L 3431 531 
L 3431 0 
L 469 0 
L 469 531 
Q 828 903 1448 1529 
Q 2069 2156 2228 2338 
Q 2531 2678 2651 2914 
Q 2772 3150 2772 3378 
Q 2772 3750 2511 3984 
Q 2250 4219 1831 4219 
Q 1534 4219 1204 4116 
Q 875 4013 500 3803 
L 500 4441 
Q 881 4594 1212 4672 
Q 1544 4750 1819 4750 
Q 2544 4750 2975 4387 
Q 3406 4025 3406 3419 
Q 3406 3131 3298 2873 
Q 3191 2616 2906 2266 
Q 2828 2175 2409 1742 
Q 1991 1309 1228 531 
z
" transform="scale(0.015625)"/>
       </defs>
       <use xlink:href="#DejaVuSans-2212"/>
       <use xlink:href="#DejaVuSans-32" x="83.789062"/>
      </g>
     </g>
    </g>
    <g id="ytick_2">
     <g id="line2d_8">
      <g>
       <use xlink:href="#m08dcd00f4a" x="28.942188" y="104.743219" style="stroke: #000000; stroke-width: 0.8"/>
      </g>
     </g>
     <g id="text_9">
      <!-- −1 -->
      <g transform="translate(7.2 108.542437) scale(0.1 -0.1)">
       <use xlink:href="#DejaVuSans-2212"/>
       <use xlink:href="#DejaVuSans-31" x="83.789062"/>
      </g>
     </g>
    </g>
    <g id="ytick_3">
     <g id="line2d_9">
      <g>
       <use xlink:href="#m08dcd00f4a" x="28.942188" y="73.495219" style="stroke: #000000; stroke-width: 0.8"/>
      </g>
     </g>
     <g id="text_10">
      <!-- 0 -->
      <g transform="translate(15.579688 77.294437) scale(0.1 -0.1)">
       <use xlink:href="#DejaVuSans-30"/>
      </g>
     </g>
    </g>
    <g id="ytick_4">
     <g id="line2d_10">
      <g>
       <use xlink:href="#m08dcd00f4a" x="28.942188" y="42.247219" style="stroke: #000000; stroke-width: 0.8"/>
      </g>
     </g>
     <g id="text_11">
      <!-- 1 -->
      <g transform="translate(15.579688 46.046437) scale(0.1 -0.1)">
       <use xlink:href="#DejaVuSans-31"/>
      </g>
     </g>
    </g>
    <g id="ytick_5">
     <g id="line2d_11">
      <g>
       <use xlink:href="#m08dcd00f4a" x="28.942188" y="10.999219" style="stroke: #000000; stroke-width: 0.8"/>
      </g>
     </g>
     <g id="text_12">
      <!-- 2 -->
      <g transform="translate(15.579688 14.798437) scale(0.1 -0.1)">
       <use xlink:href="#DejaVuSans-32"/>
      </g>
     </g>
    </g>
   </g>
   <g id="line2d_12">
    <path d="M 27.606803 97.996023 
L 29.132957 78.87347 
L 30.659111 105.543257 
L 32.185264 91.532378 
L 33.711418 69.905584 
L 35.237572 67.856589 
L 36.763726 69.936839 
L 38.28988 83.551396 
L 39.816034 77.524627 
L 41.342188 49.230832 
L 42.868341 44.210185 
L 44.394495 74.127968 
L 45.920649 98.778872 
L 47.446803 92.853627 
L 48.972957 115.262622 
L 50.499111 150.480486 
L 52.025264 108.329779 
L 53.551418 57.896112 
L 55.077572 46.583257 
L 56.603726 21.092357 
L 58.12988 33.750478 
L 59.656034 58.023822 
L 61.182188 43.570389 
L 62.708341 93.847152 
L 64.234495 135.90066 
L 65.760649 81.925075 
L 67.286803 81.242415 
L 68.812957 104.259927 
L 70.339111 60.26308 
L 71.865264 46.72778 
L 73.391418 37.699984 
L 74.917572 17.560147 
L 76.443726 64.525579 
L 77.96988 83.768554 
L 79.496034 63.275287 
L 81.022188 103.621081 
L 82.548341 117.962844 
L 84.074495 65.22846 
L 85.600649 34.143222 
L 87.126803 29.462212 
L 88.652957 37.217732 
L 90.179111 54.857903 
L 91.705264 67.139039 
L 93.231418 86.143107 
L 94.757572 107.340833 
L 96.283726 107.294541 
L 97.80988 74.367177 
L 99.336034 51.41867 
L 100.862188 81.973315 
L 102.388341 83.477702 
L 103.914495 42.891603 
L 105.440649 58.819007 
L 106.966803 72.332314 
L 108.492957 52.480871 
L 110.019111 72.446611 
L 111.545264 76.041989 
L 113.071418 83.438247 
L 114.597572 137.183712 
L 116.123726 109.426428 
L 117.64988 63.071844 
L 119.176034 102.239106 
L 120.702188 89.549006 
L 122.228341 49.447679 
L 123.754495 71.277533 
L 125.280649 66.934879 
L 126.806803 64.887448 
L 128.332957 84.070108 
L 129.859111 53.82353 
L 131.385264 62.915839 
L 132.911418 117.772092 
L 134.437572 105.297567 
L 135.963726 81.85057 
L 137.48988 95.303919 
L 139.016034 90.532055 
L 140.542187 68.133054 
L 142.068341 53.070844 
L 143.594495 59.123952 
L 145.120649 77.280148 
L 146.646803 79.420877 
L 148.172957 62.004886 
L 149.699111 38.560398 
L 151.225264 50.363952 
L 152.751418 77.69286 
L 154.277572 58.690745 
L 155.803726 71.57938 
L 157.32988 126.57372 
L 158.856034 104.36915 
L 160.382188 66.114065 
L 161.908341 59.475417 
L 163.434495 25.412618 
L 164.960649 34.88388 
L 166.486803 58.890622 
L 168.012957 30.800382 
L 169.539111 72.437258 
L 171.065264 123.763696 
L 172.591418 76.124614 
L 174.117572 68.159883 
L 175.643726 91.316361 
L 177.16988 61.533931 
L 178.696034 55.256663 
L 180.222188 46.615716 
L 181.748341 27.015576 
L 183.274495 71.594615 
L 184.800649 98.147793 
L 186.326803 83.14078 
L 187.852957 113.527302 
L 189.379111 136.342279 
L 190.905264 97.702723 
L 192.431418 47.513983 
L 193.957572 24.555613 
L 195.483726 28.975169 
L 197.00988 39.983218 
L 198.536034 61.621198 
L 200.062188 95.415219 
L 201.588341 124.248496 
L 203.114495 146.97907 
L 204.640649 120.585549 
L 206.166803 70.620721 
L 207.692957 88.331283 
L 209.219111 88.763137 
L 210.745264 36.524285 
L 212.271418 48.302925 
L 213.797572 65.05592 
L 215.323726 49.43603 
L 216.84988 76.624528 
L 218.376034 76.843315 
L 219.902188 76.366433 
L 221.428341 136.771086 
L 222.954495 116.839195 
L 224.480649 60.469832 
L 226.006803 86.777751 
L 227.532957 77.596783 
L 229.059111 40.673681 
L 230.585264 55.840212 
L 232.111418 55.382748 
L 233.637572 62.297116 
L 235.163726 83.63251 
L 236.68988 53.123135 
L 238.216034 47.218278 
L 239.742188 89.469628 
L 241.268341 89.392861 
L 242.794495 65.288312 
L 244.320649 67.171261 
L 245.846803 76.302915 
L 247.372957 62.470788 
L 248.899111 41.833675 
L 250.425264 54.26563 
L 251.951418 76.93859 
L 253.477572 89.28453 
L 255.003726 89.255426 
L 256.52988 53.467883 
L 258.056034 45.795969 
L 259.582188 71.952275 
L 261.108341 38.823407 
L 262.634495 35.843948 
L 264.160649 101.972573 
L 265.686803 102.322518 
L 267.212957 85.715133 
L 268.739111 92.708678 
L 270.265264 57.923711 
L 271.791418 65.516401 
L 273.317572 87.985125 
L 274.843726 45.74423 
L 276.36988 69.789283 
L 277.896034 121.476293 
L 279.422188 82.349996 
L 280.948341 67.781617 
L 282.474495 87.462076 
L 284.000649 72.28217 
L 285.526803 74.161701 
L 287.052957 66.191221 
L 288.579111 45.218925 
L 290.105264 78.425672 
L 291.631418 104.656767 
L 293.157572 92.951698 
L 294.683726 108.690841 
L 296.20988 137.703486 
L 297.736034 121.906423 
L 299.262188 64.510987 
L 300.788341 27.634727 
L 302.314495 24.97585 
L 303.840649 20.47121 
L 305.366803 39.3757 
L 306.892957 75.793952 
L 308.419111 102.883077 
L 309.945264 146.160779 
L 311.471418 135.724044 
L 312.997572 70.300019 
L 314.523726 78.117661 
L 316.04988 80.862002 
L 317.576034 23.72971 
L 319.102188 31.576915 
L 320.628341 49.636861 
L 322.154495 38.571199 
L 323.680649 71.711505 
L 325.206803 68.558799 
L 326.732957 57.400333 
L 328.259111 117.584865 
L 329.785264 108.558879 
L 331.311418 50.620038 
L 332.837572 65.460719 
L 334.363726 63.341963 
L 335.88988 37.490756 
L 337.416034 50.077194 
L 338.942188 56.343719 
L 340.468341 74.487346 
L 341.994495 100.221609 
L 343.520649 75.020087 
L 345.046803 54.639952 
L 346.572957 76.703358 
L 348.099111 85.242413 
L 349.625264 62.250146 
L 351.151418 52.198888 
L 352.677572 74.769717 
L 354.203726 73.709592 
L 355.72988 51.617748 
L 357.256034 69.00442 
L 358.782188 91.575615 
L 361.834495 130.320711 
L 363.360649 89.164392 
L 364.886803 63.971278 
L 366.412957 86.912151 
L 367.939111 40.336905 
L 369.465264 14.830439 
L 370.991418 76.784202 
L 372.517572 91.04141 
L 374.043726 94.267807 
L 375.56988 115.713722 
L 377.096034 84.331913 
L 378.622188 90.5985 
L 380.148341 111.585279 
L 381.674495 58.79198 
L 383.200649 60.683447 
L 384.726803 104.695526 
L 386.252957 75.386254 
L 387.779111 55.47337 
L 389.305264 68.023229 
L 390.831418 65.814641 
L 392.357572 75.651584 
L 393.883726 69.750581 
L 395.40988 48.515338 
L 396.936034 65.177846 
L 398.462188 85.470334 
L 399.988341 76.278646 
L 401.514495 74.792411 
L 403.040649 107.131707 
L 404.566803 121.714827 
L 406.092957 73.467132 
L 407.619111 35.883285 
L 409.145264 32.21754 
L 410.671418 12.713109 
L 412.197572 22.934574 
L 413.723726 52.241552 
L 415.24988 67.210961 
L 416.776034 123.742988 
L 418.302188 134.649889 
L 419.828341 66.763915 
L 419.828341 66.763915 
" clip-path="url(#p84ef4d5502)" style="fill: none; stroke: #ff0000; stroke-width: 1.5; stroke-linecap: square"/>
   </g>
   <g id="patch_3">
    <path d="M 28.942188 135.991219 
L 28.942188 10.999219 
" style="fill: none; stroke: #000000; stroke-width: 0.8; stroke-linejoin: miter; stroke-linecap: square"/>
   </g>
   <g id="patch_4">
    <path d="M 419.542188 135.991219 
L 419.542188 10.999219 
" style="fill: none; stroke: #000000; stroke-width: 0.8; stroke-linejoin: miter; stroke-linecap: square"/>
   </g>
   <g id="patch_5">
    <path d="M 28.942188 135.991219 
L 419.542188 135.991219 
" style="fill: none; stroke: #000000; stroke-width: 0.8; stroke-linejoin: miter; stroke-linecap: square"/>
   </g>
   <g id="patch_6">
    <path d="M 28.942188 10.999219 
L 419.542188 10.999219 
" style="fill: none; stroke: #000000; stroke-width: 0.8; stroke-linejoin: miter; stroke-linecap: square"/>
   </g>
  </g>
 </g>
 <defs>
  <clipPath id="p84ef4d5502">
   <rect x="28.942188" y="10.999219" width="390.6" height="124.992"/>
  </clipPath>
 </defs>
</svg>
