<?xml version="1.0" encoding="utf-8" standalone="no"?>
<!DOCTYPE svg PUBLIC "-//W3C//DTD SVG 1.1//EN"
  "http://www.w3.org/Graphics/SVG/1.1/DTD/svg11.dtd">
<svg xmlns:xlink="http://www.w3.org/1999/xlink" width="426.742188pt" height="173.547469pt" viewBox="0 0 426.742188 173.547469" xmlns="http://www.w3.org/2000/svg" version="1.1">
 <metadata>
  <rdf:RDF xmlns:dc="http://purl.org/dc/elements/1.1/" xmlns:cc="http://creativecommons.org/ns#" xmlns:rdf="http://www.w3.org/1999/02/22-rdf-syntax-ns#">
   <cc:Work>
    <dc:type rdf:resource="http://purl.org/dc/dcmitype/StillImage"/>
    <dc:date>2025-01-20T08:15:25.488382</dc:date>
    <dc:format>image/svg+xml</dc:format>
    <dc:creator>
     <cc:Agent>
      <dc:title>Matplotlib v3.9.2, https://matplotlib.org/</dc:title>
     </cc:Agent>
    </dc:creator>
   </cc:Work>
  </rdf:RDF>
 </metadata>
 <defs>
  <style type="text/css">*{stroke-linejoin: round; stroke-linecap: butt}</style>
 </defs>
 <g id="figure_1">
  <g id="patch_1">
   <path d="M 0 173.547469 
L 426.742188 173.547469 
L 426.742188 0 
L 0 0 
z
" style="fill: #ffffff"/>
  </g>
  <g id="axes_1">
   <g id="patch_2">
    <path d="M 28.942188 135.991219 
L 419.542188 135.991219 
L 419.542188 10.999219 
L 28.942188 10.999219 
z
" style="fill: #ffffff"/>
   </g>
   <g id="matplotlib.axis_1">
    <g id="xtick_1">
     <g id="line2d_1">
      <defs>
       <path id="m0afbe33f9b" d="M 0 0 
L 0 3.5 
" style="stroke: #000000; stroke-width: 0.8"/>
      </defs>
      <g>
       <use xlink:href="#m0afbe33f9b" x="60.190188" y="135.991219" style="stroke: #000000; stroke-width: 0.8"/>
      </g>
     </g>
     <g id="text_1">
      <!-- 0.13 -->
      <g transform="translate(49.057375 150.589656) scale(0.1 -0.1)">
       <defs>
        <path id="DejaVuSans-30" d="M 2034 4250 
Q 1547 4250 1301 3770 
Q 1056 3291 1056 2328 
Q 1056 1369 1301 889 
Q 1547 409 2034 409 
Q 2525 409 2770 889 
Q 3016 1369 3016 2328 
Q 3016 3291 2770 3770 
Q 2525 4250 2034 4250 
z
M 2034 4750 
Q 2819 4750 3233 4129 
Q 3647 3509 3647 2328 
Q 3647 1150 3233 529 
Q 2819 -91 2034 -91 
Q 1250 -91 836 529 
Q 422 1150 422 2328 
Q 422 3509 836 4129 
Q 1250 4750 2034 4750 
z
" transform="scale(0.015625)"/>
        <path id="DejaVuSans-2e" d="M 684 794 
L 1344 794 
L 1344 0 
L 684 0 
L 684 794 
z
" transform="scale(0.015625)"/>
        <path id="DejaVuSans-31" d="M 794 531 
L 1825 531 
L 1825 4091 
L 703 3866 
L 703 4441 
L 1819 4666 
L 2450 4666 
L 2450 531 
L 3481 531 
L 3481 0 
L 794 0 
L 794 531 
z
" transform="scale(0.015625)"/>
        <path id="DejaVuSans-33" d="M 2597 2516 
Q 3050 2419 3304 2112 
Q 3559 1806 3559 1356 
Q 3559 666 3084 287 
Q 2609 -91 1734 -91 
Q 1441 -91 1130 -33 
Q 819 25 488 141 
L 488 750 
Q 750 597 1062 519 
Q 1375 441 1716 441 
Q 2309 441 2620 675 
Q 2931 909 2931 1356 
Q 2931 1769 2642 2001 
Q 2353 2234 1838 2234 
L 1294 2234 
L 1294 2753 
L 1863 2753 
Q 2328 2753 2575 2939 
Q 2822 3125 2822 3475 
Q 2822 3834 2567 4026 
Q 2313 4219 1838 4219 
Q 1578 4219 1281 4162 
Q 984 4106 628 3988 
L 628 4550 
Q 988 4650 1302 4700 
Q 1616 4750 1894 4750 
Q 2613 4750 3031 4423 
Q 3450 4097 3450 3541 
Q 3450 3153 3228 2886 
Q 3006 2619 2597 2516 
z
" transform="scale(0.015625)"/>
       </defs>
       <use xlink:href="#DejaVuSans-30"/>
       <use xlink:href="#DejaVuSans-2e" x="63.623047"/>
       <use xlink:href="#DejaVuSans-31" x="95.410156"/>
       <use xlink:href="#DejaVuSans-33" x="159.033203"/>
      </g>
     </g>
    </g>
    <g id="xtick_2">
     <g id="line2d_2">
      <g>
       <use xlink:href="#m0afbe33f9b" x="122.686187" y="135.991219" style="stroke: #000000; stroke-width: 0.8"/>
      </g>
     </g>
     <g id="text_2">
      <!-- 0.14 -->
      <g transform="translate(111.553375 150.589656) scale(0.1 -0.1)">
       <defs>
        <path id="DejaVuSans-34" d="M 2419 4116 
L 825 1625 
L 2419 1625 
L 2419 4116 
z
M 2253 4666 
L 3047 4666 
L 3047 1625 
L 3713 1625 
L 3713 1100 
L 3047 1100 
L 3047 0 
L 2419 0 
L 2419 1100 
L 313 1100 
L 313 1709 
L 2253 4666 
z
" transform="scale(0.015625)"/>
       </defs>
       <use xlink:href="#DejaVuSans-30"/>
       <use xlink:href="#DejaVuSans-2e" x="63.623047"/>
       <use xlink:href="#DejaVuSans-31" x="95.410156"/>
       <use xlink:href="#DejaVuSans-34" x="159.033203"/>
      </g>
     </g>
    </g>
    <g id="xtick_3">
     <g id="line2d_3">
      <g>
       <use xlink:href="#m0afbe33f9b" x="185.182188" y="135.991219" style="stroke: #000000; stroke-width: 0.8"/>
      </g>
     </g>
     <g id="text_3">
      <!-- 0.15 -->
      <g transform="translate(174.049375 150.589656) scale(0.1 -0.1)">
       <defs>
        <path id="DejaVuSans-35" d="M 691 4666 
L 3169 4666 
L 3169 4134 
L 1269 4134 
L 1269 2991 
Q 1406 3038 1543 3061 
Q 1681 3084 1819 3084 
Q 2600 3084 3056 2656 
Q 3513 2228 3513 1497 
Q 3513 744 3044 326 
Q 2575 -91 1722 -91 
Q 1428 -91 1123 -41 
Q 819 9 494 109 
L 494 744 
Q 775 591 1075 516 
Q 1375 441 1709 441 
Q 2250 441 2565 725 
Q 2881 1009 2881 1497 
Q 2881 1984 2565 2268 
Q 2250 2553 1709 2553 
Q 1456 2553 1204 2497 
Q 953 2441 691 2322 
L 691 4666 
z
" transform="scale(0.015625)"/>
       </defs>
       <use xlink:href="#DejaVuSans-30"/>
       <use xlink:href="#DejaVuSans-2e" x="63.623047"/>
       <use xlink:href="#DejaVuSans-31" x="95.410156"/>
       <use xlink:href="#DejaVuSans-35" x="159.033203"/>
      </g>
     </g>
    </g>
    <g id="xtick_4">
     <g id="line2d_4">
      <g>
       <use xlink:href="#m0afbe33f9b" x="247.678188" y="135.991219" style="stroke: #000000; stroke-width: 0.8"/>
      </g>
     </g>
     <g id="text_4">
      <!-- 0.16 -->
      <g transform="translate(236.545375 150.589656) scale(0.1 -0.1)">
       <defs>
        <path id="DejaVuSans-36" d="M 2113 2584 
Q 1688 2584 1439 2293 
Q 1191 2003 1191 1497 
Q 1191 994 1439 701 
Q 1688 409 2113 409 
Q 2538 409 2786 701 
Q 3034 994 3034 1497 
Q 3034 2003 2786 2293 
Q 2538 2584 2113 2584 
z
M 3366 4563 
L 3366 3988 
Q 3128 4100 2886 4159 
Q 2644 4219 2406 4219 
Q 1781 4219 1451 3797 
Q 1122 3375 1075 2522 
Q 1259 2794 1537 2939 
Q 1816 3084 2150 3084 
Q 2853 3084 3261 2657 
Q 3669 2231 3669 1497 
Q 3669 778 3244 343 
Q 2819 -91 2113 -91 
Q 1303 -91 875 529 
Q 447 1150 447 2328 
Q 447 3434 972 4092 
Q 1497 4750 2381 4750 
Q 2619 4750 2861 4703 
Q 3103 4656 3366 4563 
z
" transform="scale(0.015625)"/>
       </defs>
       <use xlink:href="#DejaVuSans-30"/>
       <use xlink:href="#DejaVuSans-2e" x="63.623047"/>
       <use xlink:href="#DejaVuSans-31" x="95.410156"/>
       <use xlink:href="#DejaVuSans-36" x="159.033203"/>
      </g>
     </g>
    </g>
    <g id="xtick_5">
     <g id="line2d_5">
      <g>
       <use xlink:href="#m0afbe33f9b" x="310.174188" y="135.991219" style="stroke: #000000; stroke-width: 0.8"/>
      </g>
     </g>
     <g id="text_5">
      <!-- 0.17 -->
      <g transform="translate(299.041375 150.589656) scale(0.1 -0.1)">
       <defs>
        <path id="DejaVuSans-37" d="M 525 4666 
L 3525 4666 
L 3525 4397 
L 1831 0 
L 1172 0 
L 2766 4134 
L 525 4134 
L 525 4666 
z
" transform="scale(0.015625)"/>
       </defs>
       <use xlink:href="#DejaVuSans-30"/>
       <use xlink:href="#DejaVuSans-2e" x="63.623047"/>
       <use xlink:href="#DejaVuSans-31" x="95.410156"/>
       <use xlink:href="#DejaVuSans-37" x="159.033203"/>
      </g>
     </g>
    </g>
    <g id="xtick_6">
     <g id="line2d_6">
      <g>
       <use xlink:href="#m0afbe33f9b" x="372.670188" y="135.991219" style="stroke: #000000; stroke-width: 0.8"/>
      </g>
     </g>
     <g id="text_6">
      <!-- 0.18 -->
      <g transform="translate(361.537375 150.589656) scale(0.1 -0.1)">
       <defs>
        <path id="DejaVuSans-38" d="M 2034 2216 
Q 1584 2216 1326 1975 
Q 1069 1734 1069 1313 
Q 1069 891 1326 650 
Q 1584 409 2034 409 
Q 2484 409 2743 651 
Q 3003 894 3003 1313 
Q 3003 1734 2745 1975 
Q 2488 2216 2034 2216 
z
M 1403 2484 
Q 997 2584 770 2862 
Q 544 3141 544 3541 
Q 544 4100 942 4425 
Q 1341 4750 2034 4750 
Q 2731 4750 3128 4425 
Q 3525 4100 3525 3541 
Q 3525 3141 3298 2862 
Q 3072 2584 2669 2484 
Q 3125 2378 3379 2068 
Q 3634 1759 3634 1313 
Q 3634 634 3220 271 
Q 2806 -91 2034 -91 
Q 1263 -91 848 271 
Q 434 634 434 1313 
Q 434 1759 690 2068 
Q 947 2378 1403 2484 
z
M 1172 3481 
Q 1172 3119 1398 2916 
Q 1625 2713 2034 2713 
Q 2441 2713 2670 2916 
Q 2900 3119 2900 3481 
Q 2900 3844 2670 4047 
Q 2441 4250 2034 4250 
Q 1625 4250 1398 4047 
Q 1172 3844 1172 3481 
z
" transform="scale(0.015625)"/>
       </defs>
       <use xlink:href="#DejaVuSans-30"/>
       <use xlink:href="#DejaVuSans-2e" x="63.623047"/>
       <use xlink:href="#DejaVuSans-31" x="95.410156"/>
       <use xlink:href="#DejaVuSans-38" x="159.033203"/>
      </g>
     </g>
    </g>
    <g id="text_7">
     <!-- Time [s] -->
     <g transform="translate(203.913281 164.267781) scale(0.1 -0.1)">
      <defs>
       <path id="DejaVuSans-54" d="M -19 4666 
L 3928 4666 
L 3928 4134 
L 2272 4134 
L 2272 0 
L 1638 0 
L 1638 4134 
L -19 4134 
L -19 4666 
z
" transform="scale(0.015625)"/>
       <path id="DejaVuSans-69" d="M 603 3500 
L 1178 3500 
L 1178 0 
L 603 0 
L 603 3500 
z
M 603 4863 
L 1178 4863 
L 1178 4134 
L 603 4134 
L 603 4863 
z
" transform="scale(0.015625)"/>
       <path id="DejaVuSans-6d" d="M 3328 2828 
Q 3544 3216 3844 3400 
Q 4144 3584 4550 3584 
Q 5097 3584 5394 3201 
Q 5691 2819 5691 2113 
L 5691 0 
L 5113 0 
L 5113 2094 
Q 5113 2597 4934 2840 
Q 4756 3084 4391 3084 
Q 3944 3084 3684 2787 
Q 3425 2491 3425 1978 
L 3425 0 
L 2847 0 
L 2847 2094 
Q 2847 2600 2669 2842 
Q 2491 3084 2119 3084 
Q 1678 3084 1418 2786 
Q 1159 2488 1159 1978 
L 1159 0 
L 581 0 
L 581 3500 
L 1159 3500 
L 1159 2956 
Q 1356 3278 1631 3431 
Q 1906 3584 2284 3584 
Q 2666 3584 2933 3390 
Q 3200 3197 3328 2828 
z
" transform="scale(0.015625)"/>
       <path id="DejaVuSans-65" d="M 3597 1894 
L 3597 1613 
L 953 1613 
Q 991 1019 1311 708 
Q 1631 397 2203 397 
Q 2534 397 2845 478 
Q 3156 559 3463 722 
L 3463 178 
Q 3153 47 2828 -22 
Q 2503 -91 2169 -91 
Q 1331 -91 842 396 
Q 353 884 353 1716 
Q 353 2575 817 3079 
Q 1281 3584 2069 3584 
Q 2775 3584 3186 3129 
Q 3597 2675 3597 1894 
z
M 3022 2063 
Q 3016 2534 2758 2815 
Q 2500 3097 2075 3097 
Q 1594 3097 1305 2825 
Q 1016 2553 972 2059 
L 3022 2063 
z
" transform="scale(0.015625)"/>
       <path id="DejaVuSans-20" transform="scale(0.015625)"/>
       <path id="DejaVuSans-5b" d="M 550 4863 
L 1875 4863 
L 1875 4416 
L 1125 4416 
L 1125 -397 
L 1875 -397 
L 1875 -844 
L 550 -844 
L 550 4863 
z
" transform="scale(0.015625)"/>
       <path id="DejaVuSans-73" d="M 2834 3397 
L 2834 2853 
Q 2591 2978 2328 3040 
Q 2066 3103 1784 3103 
Q 1356 3103 1142 2972 
Q 928 2841 928 2578 
Q 928 2378 1081 2264 
Q 1234 2150 1697 2047 
L 1894 2003 
Q 2506 1872 2764 1633 
Q 3022 1394 3022 966 
Q 3022 478 2636 193 
Q 2250 -91 1575 -91 
Q 1294 -91 989 -36 
Q 684 19 347 128 
L 347 722 
Q 666 556 975 473 
Q 1284 391 1588 391 
Q 1994 391 2212 530 
Q 2431 669 2431 922 
Q 2431 1156 2273 1281 
Q 2116 1406 1581 1522 
L 1381 1569 
Q 847 1681 609 1914 
Q 372 2147 372 2553 
Q 372 3047 722 3315 
Q 1072 3584 1716 3584 
Q 2034 3584 2315 3537 
Q 2597 3491 2834 3397 
z
" transform="scale(0.015625)"/>
       <path id="DejaVuSans-5d" d="M 1947 4863 
L 1947 -844 
L 622 -844 
L 622 -397 
L 1369 -397 
L 1369 4416 
L 622 4416 
L 622 4863 
L 1947 4863 
z
" transform="scale(0.015625)"/>
      </defs>
      <use xlink:href="#DejaVuSans-54"/>
      <use xlink:href="#DejaVuSans-69" x="57.958984"/>
      <use xlink:href="#DejaVuSans-6d" x="85.742188"/>
      <use xlink:href="#DejaVuSans-65" x="183.154297"/>
      <use xlink:href="#DejaVuSans-20" x="244.677734"/>
      <use xlink:href="#DejaVuSans-5b" x="276.464844"/>
      <use xlink:href="#DejaVuSans-73" x="315.478516"/>
      <use xlink:href="#DejaVuSans-5d" x="367.578125"/>
     </g>
    </g>
   </g>
   <g id="matplotlib.axis_2">
    <g id="ytick_1">
     <g id="line2d_7">
      <defs>
       <path id="m17ddf6c1f4" d="M 0 0 
L -3.5 0 
" style="stroke: #000000; stroke-width: 0.8"/>
      </defs>
      <g>
       <use xlink:href="#m17ddf6c1f4" x="28.942188" y="135.991219" style="stroke: #000000; stroke-width: 0.8"/>
      </g>
     </g>
     <g id="text_8">
      <!-- −2 -->
      <g transform="translate(7.2 139.790437) scale(0.1 -0.1)">
       <defs>
        <path id="DejaVuSans-2212" d="M 678 2272 
L 4684 2272 
L 4684 1741 
L 678 1741 
L 678 2272 
z
" transform="scale(0.015625)"/>
        <path id="DejaVuSans-32" d="M 1228 531 
L 3431 531 
L 3431 0 
L 469 0 
L 469 531 
Q 828 903 1448 1529 
Q 2069 2156 2228 2338 
Q 2531 2678 2651 2914 
Q 2772 3150 2772 3378 
Q 2772 3750 2511 3984 
Q 2250 4219 1831 4219 
Q 1534 4219 1204 4116 
Q 875 4013 500 3803 
L 500 4441 
Q 881 4594 1212 4672 
Q 1544 4750 1819 4750 
Q 2544 4750 2975 4387 
Q 3406 4025 3406 3419 
Q 3406 3131 3298 2873 
Q 3191 2616 2906 2266 
Q 2828 2175 2409 1742 
Q 1991 1309 1228 531 
z
" transform="scale(0.015625)"/>
       </defs>
       <use xlink:href="#DejaVuSans-2212"/>
       <use xlink:href="#DejaVuSans-32" x="83.789062"/>
      </g>
     </g>
    </g>
    <g id="ytick_2">
     <g id="line2d_8">
      <g>
       <use xlink:href="#m17ddf6c1f4" x="28.942188" y="104.743219" style="stroke: #000000; stroke-width: 0.8"/>
      </g>
     </g>
     <g id="text_9">
      <!-- −1 -->
      <g transform="translate(7.2 108.542437) scale(0.1 -0.1)">
       <use xlink:href="#DejaVuSans-2212"/>
       <use xlink:href="#DejaVuSans-31" x="83.789062"/>
      </g>
     </g>
    </g>
    <g id="ytick_3">
     <g id="line2d_9">
      <g>
       <use xlink:href="#m17ddf6c1f4" x="28.942188" y="73.495219" style="stroke: #000000; stroke-width: 0.8"/>
      </g>
     </g>
     <g id="text_10">
      <!-- 0 -->
      <g transform="translate(15.579688 77.294437) scale(0.1 -0.1)">
       <use xlink:href="#DejaVuSans-30"/>
      </g>
     </g>
    </g>
    <g id="ytick_4">
     <g id="line2d_10">
      <g>
       <use xlink:href="#m17ddf6c1f4" x="28.942188" y="42.247219" style="stroke: #000000; stroke-width: 0.8"/>
      </g>
     </g>
     <g id="text_11">
      <!-- 1 -->
      <g transform="translate(15.579688 46.046437) scale(0.1 -0.1)">
       <use xlink:href="#DejaVuSans-31"/>
      </g>
     </g>
    </g>
    <g id="ytick_5">
     <g id="line2d_11">
      <g>
       <use xlink:href="#m17ddf6c1f4" x="28.942188" y="10.999219" style="stroke: #000000; stroke-width: 0.8"/>
      </g>
     </g>
     <g id="text_12">
      <!-- 2 -->
      <g transform="translate(15.579688 14.798437) scale(0.1 -0.1)">
       <use xlink:href="#DejaVuSans-32"/>
      </g>
     </g>
    </g>
   </g>
   <g id="line2d_12">
    <path d="M 27.606803 27.240932 
L 29.132957 40.077387 
L 30.659111 74.829475 
L 32.185264 82.225856 
L 33.711418 72.567821 
L 35.237572 41.364587 
L 36.763726 54.934497 
L 38.28988 96.908057 
L 39.816034 113.174062 
L 41.342188 96.478975 
L 42.868341 52.776678 
L 44.394495 79.738291 
L 45.920649 103.127319 
L 47.446803 137.579335 
L 48.972957 108.46459 
L 50.499111 94.949524 
L 52.025264 84.456799 
L 55.077572 121.825732 
L 56.603726 119.89979 
L 58.12988 92.430994 
L 59.656034 69.670703 
L 61.182188 78.004745 
L 62.708341 119.327675 
L 64.234495 117.325632 
L 65.760649 86.9081 
L 67.286803 40.762266 
L 68.812957 53.721456 
L 70.339111 83.002937 
L 71.865264 88.448671 
L 73.391418 68.223429 
L 74.917572 29.124748 
L 76.443726 40.151052 
L 77.96988 42.789363 
L 79.496034 73.713211 
L 81.022188 53.221599 
L 82.548341 37.897899 
L 84.074495 14.281235 
L 85.600649 36.330313 
L 87.126803 65.674781 
L 88.652957 66.561558 
L 90.179111 32.067054 
L 91.705264 14.198474 
L 93.231418 37.160566 
L 94.757572 87.179167 
L 96.283726 88.271422 
L 97.80988 71.452095 
L 99.336034 37.559061 
L 100.862188 53.676476 
L 103.914495 102.912412 
L 105.440649 103.69845 
L 106.966803 75.616032 
L 108.492957 81.571562 
L 110.019111 90.671164 
L 111.545264 132.820713 
L 114.597572 93.169185 
L 116.123726 71.626166 
L 117.64988 103.587621 
L 119.176034 132.305759 
L 120.702188 127.467917 
L 122.228341 90.398235 
L 123.754495 68.961327 
L 125.280649 77.453212 
L 126.806803 113.353222 
L 128.332957 113.7788 
L 129.859111 100.568677 
L 131.385264 52.856526 
L 132.911418 50.73528 
L 134.437572 63.376778 
L 135.963726 87.804064 
L 137.48988 76.866899 
L 139.016034 38.948093 
L 140.542187 37.609312 
L 142.068341 46.762067 
L 143.594495 79.973049 
L 145.120649 51.71927 
L 148.172957 6.96948 
L 151.225264 64.338392 
L 152.751418 72.513984 
L 154.277572 46.21023 
L 155.803726 22.105349 
L 157.32988 25.654785 
L 158.856034 68.779892 
L 160.382188 83.657127 
L 161.908341 81.078666 
L 163.434495 40.323031 
L 164.960649 52.607134 
L 166.486803 74.600192 
L 168.012957 107.204248 
L 169.539111 99.084289 
L 171.065264 74.539183 
L 172.591418 78.656828 
L 174.117572 92.452437 
L 175.643726 131.018909 
L 177.16988 116.034492 
L 178.696034 98.53088 
L 180.222188 68.400268 
L 181.748341 91.076618 
L 183.274495 123.913122 
L 184.800649 137.295487 
L 187.852957 75.439883 
L 189.379111 73.008425 
L 190.905264 105.84917 
L 192.431418 107.918877 
L 193.957572 98.057862 
L 195.483726 53.793633 
L 197.00988 59.353482 
L 198.536034 66.003431 
L 200.062188 93.715981 
L 201.588341 79.485952 
L 203.114495 45.989869 
L 204.640649 28.548362 
L 206.166803 35.307258 
L 207.692957 75.614903 
L 209.219111 63.699565 
L 210.745264 40.477902 
L 212.271418 6.524831 
L 213.797572 29.14659 
L 215.323726 59.015045 
L 216.84988 70.610552 
L 218.376034 48.533848 
L 219.902188 28.23525 
L 221.428341 29.881648 
L 222.954495 62.191405 
L 224.480649 75.144922 
L 226.006803 80.678737 
L 227.532957 41.717797 
L 229.059111 49.097081 
L 230.585264 66.215754 
L 232.111418 116.508611 
L 233.637572 110.142595 
L 235.163726 80.05087 
L 236.68988 63.981037 
L 238.216034 81.628243 
L 239.742188 123.621729 
L 241.268341 116.564218 
L 242.794495 104.410184 
L 244.320649 80.824239 
L 245.846803 97.678307 
L 247.372957 116.298116 
L 248.899111 128.067722 
L 250.425264 110.160408 
L 251.951418 80.025893 
L 253.477572 68.399503 
L 255.003726 98.713057 
L 256.52988 116.665381 
L 258.056034 111.554799 
L 259.582188 52.980532 
L 261.108341 50.025647 
L 262.634495 61.059141 
L 264.160649 102.175695 
L 265.686803 81.656347 
L 267.212957 53.095664 
L 268.739111 31.944036 
L 270.265264 35.597095 
L 271.791418 59.009633 
L 273.317572 55.919278 
L 274.843726 50.982173 
L 276.36988 21.865774 
L 277.896034 28.105732 
L 280.948341 75.163744 
L 282.474495 54.81208 
L 284.000649 16.27274 
L 285.526803 13.922782 
L 287.052957 60.321683 
L 288.579111 87.50051 
L 290.105264 86.487692 
L 291.631418 43.110139 
L 293.157572 53.071017 
L 294.683726 60.436436 
L 296.20988 101.9701 
L 299.262188 94.939809 
L 300.788341 73.895625 
L 302.314495 76.233414 
L 303.840649 108.801747 
L 305.366803 122.657245 
L 306.892957 113.419874 
L 308.419111 75.638623 
L 309.945264 87.166395 
L 311.471418 122.745694 
L 312.997572 140.691572 
L 314.523726 109.838997 
L 316.04988 69.91581 
L 317.576034 67.753612 
L 319.102188 96.752023 
L 320.628341 110.963117 
L 322.154495 113.406622 
L 323.680649 75.15854 
L 325.206803 65.64282 
L 326.732957 47.25542 
L 328.259111 84.586735 
L 329.785264 81.306449 
L 331.311418 66.641588 
L 332.837572 25.63551 
L 334.363726 31.313658 
L 335.88988 67.79031 
L 337.416034 73.367788 
L 338.942188 47.210933 
L 340.468341 10.37403 
L 341.994495 25.72222 
L 343.520649 54.534243 
L 345.046803 68.313294 
L 346.572957 54.564055 
L 348.099111 29.881965 
L 349.625264 22.827899 
L 351.151418 41.221173 
L 352.677572 71.424128 
L 354.203726 94.621561 
L 355.72988 62.012683 
L 357.256034 50.033392 
L 358.782188 46.834652 
L 360.308341 104.522005 
L 361.834495 102.263745 
L 363.360649 87.316436 
L 364.886803 57.780374 
L 366.412957 83.199197 
L 367.939111 118.746398 
L 369.465264 125.422763 
L 370.991418 111.118803 
L 372.517572 85.194811 
L 374.043726 86.733673 
L 375.56988 101.588922 
L 377.096034 123.750989 
L 378.622188 125.166309 
L 380.148341 91.885552 
L 381.674495 68.900822 
L 383.200649 82.857509 
L 384.726803 115.886833 
L 386.252957 121.250578 
L 387.779111 70.574005 
L 389.305264 54.560134 
L 390.831418 53.19702 
L 392.357572 97.03479 
L 393.883726 77.671062 
L 395.40988 63.344361 
L 396.936034 30.055592 
L 398.462188 38.097581 
L 401.514495 68.889903 
L 403.040649 64.119875 
L 404.566803 29.621402 
L 406.092957 13.967372 
L 407.619111 32.137181 
L 409.145264 65.142648 
L 410.671418 66.368645 
L 412.197572 29.164962 
L 413.723726 20.439902 
L 415.24988 48.189563 
L 416.776034 83.412144 
L 418.302188 84.86496 
L 419.828341 49.999655 
L 419.828341 49.999655 
" clip-path="url(#p2efbf5360c)" style="fill: none; stroke: #ff0000; stroke-width: 1.5; stroke-linecap: square"/>
   </g>
   <g id="patch_3">
    <path d="M 28.942188 135.991219 
L 28.942188 10.999219 
" style="fill: none; stroke: #000000; stroke-width: 0.8; stroke-linejoin: miter; stroke-linecap: square"/>
   </g>
   <g id="patch_4">
    <path d="M 419.542188 135.991219 
L 419.542188 10.999219 
" style="fill: none; stroke: #000000; stroke-width: 0.8; stroke-linejoin: miter; stroke-linecap: square"/>
   </g>
   <g id="patch_5">
    <path d="M 28.942188 135.991219 
L 419.542188 135.991219 
" style="fill: none; stroke: #000000; stroke-width: 0.8; stroke-linejoin: miter; stroke-linecap: square"/>
   </g>
   <g id="patch_6">
    <path d="M 28.942188 10.999219 
L 419.542188 10.999219 
" style="fill: none; stroke: #000000; stroke-width: 0.8; stroke-linejoin: miter; stroke-linecap: square"/>
   </g>
  </g>
 </g>
 <defs>
  <clipPath id="p2efbf5360c">
   <rect x="28.942188" y="10.999219" width="390.6" height="124.992"/>
  </clipPath>
 </defs>
</svg>
