<?xml version="1.0" encoding="utf-8" standalone="no"?>
<!DOCTYPE svg PUBLIC "-//W3C//DTD SVG 1.1//EN"
  "http://www.w3.org/Graphics/SVG/1.1/DTD/svg11.dtd">
<svg xmlns:xlink="http://www.w3.org/1999/xlink" width="426.742188pt" height="173.547469pt" viewBox="0 0 426.742188 173.547469" xmlns="http://www.w3.org/2000/svg" version="1.1">
 <metadata>
  <rdf:RDF xmlns:dc="http://purl.org/dc/elements/1.1/" xmlns:cc="http://creativecommons.org/ns#" xmlns:rdf="http://www.w3.org/1999/02/22-rdf-syntax-ns#">
   <cc:Work>
    <dc:type rdf:resource="http://purl.org/dc/dcmitype/StillImage"/>
    <dc:date>2025-10-21T11:03:03.634607</dc:date>
    <dc:format>image/svg+xml</dc:format>
    <dc:creator>
     <cc:Agent>
      <dc:title>Matplotlib v3.10.3, https://matplotlib.org/</dc:title>
     </cc:Agent>
    </dc:creator>
   </cc:Work>
  </rdf:RDF>
 </metadata>
 <defs>
  <style type="text/css">*{stroke-linejoin: round; stroke-linecap: butt}</style>
 </defs>
 <g id="figure_1">
  <g id="patch_1">
   <path d="M 0 173.547469 
L 426.742188 173.547469 
L 426.742188 0 
L 0 0 
z
" style="fill: #ffffff"/>
  </g>
  <g id="axes_1">
   <g id="patch_2">
    <path d="M 28.942188 135.991219 
L 419.542188 135.991219 
L 419.542188 10.999219 
L 28.942188 10.999219 
z
" style="fill: #ffffff"/>
   </g>
   <g id="matplotlib.axis_1">
    <g id="xtick_1">
     <g id="line2d_1">
      <defs>
       <path id="ma1ad6347bf" d="M 0 0 
L 0 3.5 
" style="stroke: #000000; stroke-width: 0.8"/>
      </defs>
      <g>
       <use xlink:href="#ma1ad6347bf" x="60.190188" y="135.991219" style="stroke: #000000; stroke-width: 0.8"/>
      </g>
     </g>
     <g id="text_1">
      <!-- 0.13 -->
      <g transform="translate(49.057375 150.589656) scale(0.1 -0.1)">
       <defs>
        <path id="DejaVuSans-30" d="M 2034 4250 
Q 1547 4250 1301 3770 
Q 1056 3291 1056 2328 
Q 1056 1369 1301 889 
Q 1547 409 2034 409 
Q 2525 409 2770 889 
Q 3016 1369 3016 2328 
Q 3016 3291 2770 3770 
Q 2525 4250 2034 4250 
z
M 2034 4750 
Q 2819 4750 3233 4129 
Q 3647 3509 3647 2328 
Q 3647 1150 3233 529 
Q 2819 -91 2034 -91 
Q 1250 -91 836 529 
Q 422 1150 422 2328 
Q 422 3509 836 4129 
Q 1250 4750 2034 4750 
z
" transform="scale(0.015625)"/>
        <path id="DejaVuSans-2e" d="M 684 794 
L 1344 794 
L 1344 0 
L 684 0 
L 684 794 
z
" transform="scale(0.015625)"/>
        <path id="DejaVuSans-31" d="M 794 531 
L 1825 531 
L 1825 4091 
L 703 3866 
L 703 4441 
L 1819 4666 
L 2450 4666 
L 2450 531 
L 3481 531 
L 3481 0 
L 794 0 
L 794 531 
z
" transform="scale(0.015625)"/>
        <path id="DejaVuSans-33" d="M 2597 2516 
Q 3050 2419 3304 2112 
Q 3559 1806 3559 1356 
Q 3559 666 3084 287 
Q 2609 -91 1734 -91 
Q 1441 -91 1130 -33 
Q 819 25 488 141 
L 488 750 
Q 750 597 1062 519 
Q 1375 441 1716 441 
Q 2309 441 2620 675 
Q 2931 909 2931 1356 
Q 2931 1769 2642 2001 
Q 2353 2234 1838 2234 
L 1294 2234 
L 1294 2753 
L 1863 2753 
Q 2328 2753 2575 2939 
Q 2822 3125 2822 3475 
Q 2822 3834 2567 4026 
Q 2313 4219 1838 4219 
Q 1578 4219 1281 4162 
Q 984 4106 628 3988 
L 628 4550 
Q 988 4650 1302 4700 
Q 1616 4750 1894 4750 
Q 2613 4750 3031 4423 
Q 3450 4097 3450 3541 
Q 3450 3153 3228 2886 
Q 3006 2619 2597 2516 
z
" transform="scale(0.015625)"/>
       </defs>
       <use xlink:href="#DejaVuSans-30"/>
       <use xlink:href="#DejaVuSans-2e" transform="translate(63.623047 0)"/>
       <use xlink:href="#DejaVuSans-31" transform="translate(95.410156 0)"/>
       <use xlink:href="#DejaVuSans-33" transform="translate(159.033203 0)"/>
      </g>
     </g>
    </g>
    <g id="xtick_2">
     <g id="line2d_2">
      <g>
       <use xlink:href="#ma1ad6347bf" x="122.686187" y="135.991219" style="stroke: #000000; stroke-width: 0.8"/>
      </g>
     </g>
     <g id="text_2">
      <!-- 0.14 -->
      <g transform="translate(111.553375 150.589656) scale(0.1 -0.1)">
       <defs>
        <path id="DejaVuSans-34" d="M 2419 4116 
L 825 1625 
L 2419 1625 
L 2419 4116 
z
M 2253 4666 
L 3047 4666 
L 3047 1625 
L 3713 1625 
L 3713 1100 
L 3047 1100 
L 3047 0 
L 2419 0 
L 2419 1100 
L 313 1100 
L 313 1709 
L 2253 4666 
z
" transform="scale(0.015625)"/>
       </defs>
       <use xlink:href="#DejaVuSans-30"/>
       <use xlink:href="#DejaVuSans-2e" transform="translate(63.623047 0)"/>
       <use xlink:href="#DejaVuSans-31" transform="translate(95.410156 0)"/>
       <use xlink:href="#DejaVuSans-34" transform="translate(159.033203 0)"/>
      </g>
     </g>
    </g>
    <g id="xtick_3">
     <g id="line2d_3">
      <g>
       <use xlink:href="#ma1ad6347bf" x="185.182188" y="135.991219" style="stroke: #000000; stroke-width: 0.8"/>
      </g>
     </g>
     <g id="text_3">
      <!-- 0.15 -->
      <g transform="translate(174.049375 150.589656) scale(0.1 -0.1)">
       <defs>
        <path id="DejaVuSans-35" d="M 691 4666 
L 3169 4666 
L 3169 4134 
L 1269 4134 
L 1269 2991 
Q 1406 3038 1543 3061 
Q 1681 3084 1819 3084 
Q 2600 3084 3056 2656 
Q 3513 2228 3513 1497 
Q 3513 744 3044 326 
Q 2575 -91 1722 -91 
Q 1428 -91 1123 -41 
Q 819 9 494 109 
L 494 744 
Q 775 591 1075 516 
Q 1375 441 1709 441 
Q 2250 441 2565 725 
Q 2881 1009 2881 1497 
Q 2881 1984 2565 2268 
Q 2250 2553 1709 2553 
Q 1456 2553 1204 2497 
Q 953 2441 691 2322 
L 691 4666 
z
" transform="scale(0.015625)"/>
       </defs>
       <use xlink:href="#DejaVuSans-30"/>
       <use xlink:href="#DejaVuSans-2e" transform="translate(63.623047 0)"/>
       <use xlink:href="#DejaVuSans-31" transform="translate(95.410156 0)"/>
       <use xlink:href="#DejaVuSans-35" transform="translate(159.033203 0)"/>
      </g>
     </g>
    </g>
    <g id="xtick_4">
     <g id="line2d_4">
      <g>
       <use xlink:href="#ma1ad6347bf" x="247.678188" y="135.991219" style="stroke: #000000; stroke-width: 0.8"/>
      </g>
     </g>
     <g id="text_4">
      <!-- 0.16 -->
      <g transform="translate(236.545375 150.589656) scale(0.1 -0.1)">
       <defs>
        <path id="DejaVuSans-36" d="M 2113 2584 
Q 1688 2584 1439 2293 
Q 1191 2003 1191 1497 
Q 1191 994 1439 701 
Q 1688 409 2113 409 
Q 2538 409 2786 701 
Q 3034 994 3034 1497 
Q 3034 2003 2786 2293 
Q 2538 2584 2113 2584 
z
M 3366 4563 
L 3366 3988 
Q 3128 4100 2886 4159 
Q 2644 4219 2406 4219 
Q 1781 4219 1451 3797 
Q 1122 3375 1075 2522 
Q 1259 2794 1537 2939 
Q 1816 3084 2150 3084 
Q 2853 3084 3261 2657 
Q 3669 2231 3669 1497 
Q 3669 778 3244 343 
Q 2819 -91 2113 -91 
Q 1303 -91 875 529 
Q 447 1150 447 2328 
Q 447 3434 972 4092 
Q 1497 4750 2381 4750 
Q 2619 4750 2861 4703 
Q 3103 4656 3366 4563 
z
" transform="scale(0.015625)"/>
       </defs>
       <use xlink:href="#DejaVuSans-30"/>
       <use xlink:href="#DejaVuSans-2e" transform="translate(63.623047 0)"/>
       <use xlink:href="#DejaVuSans-31" transform="translate(95.410156 0)"/>
       <use xlink:href="#DejaVuSans-36" transform="translate(159.033203 0)"/>
      </g>
     </g>
    </g>
    <g id="xtick_5">
     <g id="line2d_5">
      <g>
       <use xlink:href="#ma1ad6347bf" x="310.174188" y="135.991219" style="stroke: #000000; stroke-width: 0.8"/>
      </g>
     </g>
     <g id="text_5">
      <!-- 0.17 -->
      <g transform="translate(299.041375 150.589656) scale(0.1 -0.1)">
       <defs>
        <path id="DejaVuSans-37" d="M 525 4666 
L 3525 4666 
L 3525 4397 
L 1831 0 
L 1172 0 
L 2766 4134 
L 525 4134 
L 525 4666 
z
" transform="scale(0.015625)"/>
       </defs>
       <use xlink:href="#DejaVuSans-30"/>
       <use xlink:href="#DejaVuSans-2e" transform="translate(63.623047 0)"/>
       <use xlink:href="#DejaVuSans-31" transform="translate(95.410156 0)"/>
       <use xlink:href="#DejaVuSans-37" transform="translate(159.033203 0)"/>
      </g>
     </g>
    </g>
    <g id="xtick_6">
     <g id="line2d_6">
      <g>
       <use xlink:href="#ma1ad6347bf" x="372.670188" y="135.991219" style="stroke: #000000; stroke-width: 0.8"/>
      </g>
     </g>
     <g id="text_6">
      <!-- 0.18 -->
      <g transform="translate(361.537375 150.589656) scale(0.1 -0.1)">
       <defs>
        <path id="DejaVuSans-38" d="M 2034 2216 
Q 1584 2216 1326 1975 
Q 1069 1734 1069 1313 
Q 1069 891 1326 650 
Q 1584 409 2034 409 
Q 2484 409 2743 651 
Q 3003 894 3003 1313 
Q 3003 1734 2745 1975 
Q 2488 2216 2034 2216 
z
M 1403 2484 
Q 997 2584 770 2862 
Q 544 3141 544 3541 
Q 544 4100 942 4425 
Q 1341 4750 2034 4750 
Q 2731 4750 3128 4425 
Q 3525 4100 3525 3541 
Q 3525 3141 3298 2862 
Q 3072 2584 2669 2484 
Q 3125 2378 3379 2068 
Q 3634 1759 3634 1313 
Q 3634 634 3220 271 
Q 2806 -91 2034 -91 
Q 1263 -91 848 271 
Q 434 634 434 1313 
Q 434 1759 690 2068 
Q 947 2378 1403 2484 
z
M 1172 3481 
Q 1172 3119 1398 2916 
Q 1625 2713 2034 2713 
Q 2441 2713 2670 2916 
Q 2900 3119 2900 3481 
Q 2900 3844 2670 4047 
Q 2441 4250 2034 4250 
Q 1625 4250 1398 4047 
Q 1172 3844 1172 3481 
z
" transform="scale(0.015625)"/>
       </defs>
       <use xlink:href="#DejaVuSans-30"/>
       <use xlink:href="#DejaVuSans-2e" transform="translate(63.623047 0)"/>
       <use xlink:href="#DejaVuSans-31" transform="translate(95.410156 0)"/>
       <use xlink:href="#DejaVuSans-38" transform="translate(159.033203 0)"/>
      </g>
     </g>
    </g>
    <g id="text_7">
     <!-- Time [s] -->
     <g transform="translate(203.913281 164.267781) scale(0.1 -0.1)">
      <defs>
       <path id="DejaVuSans-54" d="M -19 4666 
L 3928 4666 
L 3928 4134 
L 2272 4134 
L 2272 0 
L 1638 0 
L 1638 4134 
L -19 4134 
L -19 4666 
z
" transform="scale(0.015625)"/>
       <path id="DejaVuSans-69" d="M 603 3500 
L 1178 3500 
L 1178 0 
L 603 0 
L 603 3500 
z
M 603 4863 
L 1178 4863 
L 1178 4134 
L 603 4134 
L 603 4863 
z
" transform="scale(0.015625)"/>
       <path id="DejaVuSans-6d" d="M 3328 2828 
Q 3544 3216 3844 3400 
Q 4144 3584 4550 3584 
Q 5097 3584 5394 3201 
Q 5691 2819 5691 2113 
L 5691 0 
L 5113 0 
L 5113 2094 
Q 5113 2597 4934 2840 
Q 4756 3084 4391 3084 
Q 3944 3084 3684 2787 
Q 3425 2491 3425 1978 
L 3425 0 
L 2847 0 
L 2847 2094 
Q 2847 2600 2669 2842 
Q 2491 3084 2119 3084 
Q 1678 3084 1418 2786 
Q 1159 2488 1159 1978 
L 1159 0 
L 581 0 
L 581 3500 
L 1159 3500 
L 1159 2956 
Q 1356 3278 1631 3431 
Q 1906 3584 2284 3584 
Q 2666 3584 2933 3390 
Q 3200 3197 3328 2828 
z
" transform="scale(0.015625)"/>
       <path id="DejaVuSans-65" d="M 3597 1894 
L 3597 1613 
L 953 1613 
Q 991 1019 1311 708 
Q 1631 397 2203 397 
Q 2534 397 2845 478 
Q 3156 559 3463 722 
L 3463 178 
Q 3153 47 2828 -22 
Q 2503 -91 2169 -91 
Q 1331 -91 842 396 
Q 353 884 353 1716 
Q 353 2575 817 3079 
Q 1281 3584 2069 3584 
Q 2775 3584 3186 3129 
Q 3597 2675 3597 1894 
z
M 3022 2063 
Q 3016 2534 2758 2815 
Q 2500 3097 2075 3097 
Q 1594 3097 1305 2825 
Q 1016 2553 972 2059 
L 3022 2063 
z
" transform="scale(0.015625)"/>
       <path id="DejaVuSans-20" transform="scale(0.015625)"/>
       <path id="DejaVuSans-5b" d="M 550 4863 
L 1875 4863 
L 1875 4416 
L 1125 4416 
L 1125 -397 
L 1875 -397 
L 1875 -844 
L 550 -844 
L 550 4863 
z
" transform="scale(0.015625)"/>
       <path id="DejaVuSans-73" d="M 2834 3397 
L 2834 2853 
Q 2591 2978 2328 3040 
Q 2066 3103 1784 3103 
Q 1356 3103 1142 2972 
Q 928 2841 928 2578 
Q 928 2378 1081 2264 
Q 1234 2150 1697 2047 
L 1894 2003 
Q 2506 1872 2764 1633 
Q 3022 1394 3022 966 
Q 3022 478 2636 193 
Q 2250 -91 1575 -91 
Q 1294 -91 989 -36 
Q 684 19 347 128 
L 347 722 
Q 666 556 975 473 
Q 1284 391 1588 391 
Q 1994 391 2212 530 
Q 2431 669 2431 922 
Q 2431 1156 2273 1281 
Q 2116 1406 1581 1522 
L 1381 1569 
Q 847 1681 609 1914 
Q 372 2147 372 2553 
Q 372 3047 722 3315 
Q 1072 3584 1716 3584 
Q 2034 3584 2315 3537 
Q 2597 3491 2834 3397 
z
" transform="scale(0.015625)"/>
       <path id="DejaVuSans-5d" d="M 1947 4863 
L 1947 -844 
L 622 -844 
L 622 -397 
L 1369 -397 
L 1369 4416 
L 622 4416 
L 622 4863 
L 1947 4863 
z
" transform="scale(0.015625)"/>
      </defs>
      <use xlink:href="#DejaVuSans-54"/>
      <use xlink:href="#DejaVuSans-69" transform="translate(57.958984 0)"/>
      <use xlink:href="#DejaVuSans-6d" transform="translate(85.742188 0)"/>
      <use xlink:href="#DejaVuSans-65" transform="translate(183.154297 0)"/>
      <use xlink:href="#DejaVuSans-20" transform="translate(244.677734 0)"/>
      <use xlink:href="#DejaVuSans-5b" transform="translate(276.464844 0)"/>
      <use xlink:href="#DejaVuSans-73" transform="translate(315.478516 0)"/>
      <use xlink:href="#DejaVuSans-5d" transform="translate(367.578125 0)"/>
     </g>
    </g>
   </g>
   <g id="matplotlib.axis_2">
    <g id="ytick_1">
     <g id="line2d_7">
      <defs>
       <path id="m942cb4a617" d="M 0 0 
L -3.5 0 
" style="stroke: #000000; stroke-width: 0.8"/>
      </defs>
      <g>
       <use xlink:href="#m942cb4a617" x="28.942188" y="135.991219" style="stroke: #000000; stroke-width: 0.8"/>
      </g>
     </g>
     <g id="text_8">
      <!-- −2 -->
      <g transform="translate(7.2 139.790437) scale(0.1 -0.1)">
       <defs>
        <path id="DejaVuSans-2212" d="M 678 2272 
L 4684 2272 
L 4684 1741 
L 678 1741 
L 678 2272 
z
" transform="scale(0.015625)"/>
        <path id="DejaVuSans-32" d="M 1228 531 
L 3431 531 
L 3431 0 
L 469 0 
L 469 531 
Q 828 903 1448 1529 
Q 2069 2156 2228 2338 
Q 2531 2678 2651 2914 
Q 2772 3150 2772 3378 
Q 2772 3750 2511 3984 
Q 2250 4219 1831 4219 
Q 1534 4219 1204 4116 
Q 875 4013 500 3803 
L 500 4441 
Q 881 4594 1212 4672 
Q 1544 4750 1819 4750 
Q 2544 4750 2975 4387 
Q 3406 4025 3406 3419 
Q 3406 3131 3298 2873 
Q 3191 2616 2906 2266 
Q 2828 2175 2409 1742 
Q 1991 1309 1228 531 
z
" transform="scale(0.015625)"/>
       </defs>
       <use xlink:href="#DejaVuSans-2212"/>
       <use xlink:href="#DejaVuSans-32" transform="translate(83.789062 0)"/>
      </g>
     </g>
    </g>
    <g id="ytick_2">
     <g id="line2d_8">
      <g>
       <use xlink:href="#m942cb4a617" x="28.942188" y="104.743219" style="stroke: #000000; stroke-width: 0.8"/>
      </g>
     </g>
     <g id="text_9">
      <!-- −1 -->
      <g transform="translate(7.2 108.542437) scale(0.1 -0.1)">
       <use xlink:href="#DejaVuSans-2212"/>
       <use xlink:href="#DejaVuSans-31" transform="translate(83.789062 0)"/>
      </g>
     </g>
    </g>
    <g id="ytick_3">
     <g id="line2d_9">
      <g>
       <use xlink:href="#m942cb4a617" x="28.942188" y="73.495219" style="stroke: #000000; stroke-width: 0.8"/>
      </g>
     </g>
     <g id="text_10">
      <!-- 0 -->
      <g transform="translate(15.579688 77.294437) scale(0.1 -0.1)">
       <use xlink:href="#DejaVuSans-30"/>
      </g>
     </g>
    </g>
    <g id="ytick_4">
     <g id="line2d_10">
      <g>
       <use xlink:href="#m942cb4a617" x="28.942188" y="42.247219" style="stroke: #000000; stroke-width: 0.8"/>
      </g>
     </g>
     <g id="text_11">
      <!-- 1 -->
      <g transform="translate(15.579688 46.046437) scale(0.1 -0.1)">
       <use xlink:href="#DejaVuSans-31"/>
      </g>
     </g>
    </g>
    <g id="ytick_5">
     <g id="line2d_11">
      <g>
       <use xlink:href="#m942cb4a617" x="28.942188" y="10.999219" style="stroke: #000000; stroke-width: 0.8"/>
      </g>
     </g>
     <g id="text_12">
      <!-- 2 -->
      <g transform="translate(15.579688 14.798437) scale(0.1 -0.1)">
       <use xlink:href="#DejaVuSans-32"/>
      </g>
     </g>
    </g>
   </g>
   <g id="line2d_12">
    <path d="M 27.606803 18.501709 
L 29.132957 33.244259 
L 30.659111 71.878612 
L 32.185264 90.126287 
L 33.711418 69.907246 
L 35.237572 42.025501 
L 36.763726 47.215305 
L 38.28988 84.661776 
L 39.816034 112.901612 
L 41.342188 101.971118 
L 42.868341 71.058414 
L 44.394495 64.192339 
L 45.920649 94.621051 
L 47.446803 128.00781 
L 48.972957 125.6322 
L 50.499111 93.13257 
L 52.025264 73.339004 
L 53.551418 92.234002 
L 55.077572 126.172169 
L 56.603726 131.687378 
L 59.656034 69.270958 
L 61.182188 74.626738 
L 62.708341 105.856335 
L 64.234495 119.216601 
L 65.760649 92.986264 
L 67.286803 54.958986 
L 68.812957 47.519001 
L 70.339111 74.327848 
L 71.865264 95.834499 
L 73.391418 79.266724 
L 74.917572 40.073967 
L 76.443726 22.569613 
L 77.96988 44.175365 
L 79.496034 73.559476 
L 81.022188 70.228913 
L 82.548341 35.657403 
L 84.074495 11.487679 
L 85.600649 27.073126 
L 87.126803 62.495063 
L 88.652957 73.68129 
L 90.179111 47.957417 
L 91.705264 19.994588 
L 93.231418 28.04811 
L 94.757572 65.660493 
L 96.283726 89.72105 
L 97.80988 74.722672 
L 99.336034 44.813331 
L 100.862188 43.235557 
L 103.914495 110.484871 
L 105.440649 105.955026 
L 106.966803 75.275395 
L 108.492957 62.266956 
L 110.019111 88.031288 
L 111.545264 124.242687 
L 113.071418 128.768057 
L 114.597572 98.708621 
L 116.123726 73.992517 
L 117.64988 86.990263 
L 119.176034 121.67669 
L 120.702188 133.826771 
L 122.228341 106.783507 
L 123.754495 72.487937 
L 125.280649 71.256907 
L 126.806803 101.017961 
L 128.332957 120.002338 
L 129.859111 99.4991 
L 131.385264 60.15822 
L 132.911418 46.070972 
L 134.437572 69.303376 
L 135.963726 94.809798 
L 137.48988 84.744194 
L 139.016034 46.300514 
L 140.542187 22.764409 
L 142.068341 39.055178 
L 143.594495 70.413718 
L 145.120649 73.711032 
L 146.646803 41.90282 
L 148.172957 12.974458 
L 149.699111 22.09752 
L 151.225264 57.315746 
L 152.751418 74.629015 
L 154.277572 53.457883 
L 155.803726 22.56164 
L 157.32988 23.734144 
L 158.856034 59.049147 
L 160.382188 88.167263 
L 161.908341 79.101576 
L 163.434495 48.44089 
L 164.960649 40.321221 
L 166.486803 70.659883 
L 168.012957 106.96204 
L 169.539111 109.161529 
L 171.065264 80.008436 
L 172.591418 61.479798 
L 174.117572 81.741335 
L 175.643726 119.531101 
L 177.16988 130.87091 
L 178.696034 104.431054 
L 180.222188 75.748699 
L 181.748341 82.375479 
L 183.274495 116.503317 
L 184.800649 134.796413 
L 186.326803 113.033946 
L 187.852957 76.672214 
L 189.379111 68.794252 
L 190.905264 95.853669 
L 192.431418 119.615132 
L 193.957572 105.450886 
L 195.483726 66.101166 
L 197.00988 45.725017 
L 198.536034 64.347044 
L 200.062188 92.736521 
L 201.588341 89.387402 
L 203.114495 52.97365 
L 204.640649 24.143724 
L 206.166803 34.389101 
L 207.692957 66.448575 
L 209.219111 76.166479 
L 210.745264 48.244822 
L 212.271418 15.59767 
L 213.797572 17.905139 
L 215.323726 51.619171 
L 216.84988 74.450899 
L 218.376034 58.681804 
L 219.902188 26.086419 
L 221.428341 20.438089 
L 224.480649 85.491125 
L 226.006803 82.846785 
L 227.532957 52.737424 
L 229.059111 38.544509 
L 230.585264 63.809474 
L 232.111418 102.428843 
L 233.637572 111.437224 
L 235.163726 85.049617 
L 236.68988 61.831683 
L 238.216034 75.96073 
L 239.742188 114.028015 
L 241.268341 131.846509 
L 242.794495 110.075797 
L 244.320649 78.53654 
L 245.846803 78.561429 
L 247.372957 110.850049 
L 248.899111 134.570709 
L 250.425264 118.841977 
L 251.951418 81.688195 
L 253.477572 67.355109 
L 255.003726 90.584181 
L 256.52988 118.100808 
L 258.056034 110.653663 
L 259.582188 72.601851 
L 261.108341 46.530357 
L 262.634495 59.679923 
L 264.160649 89.72758 
L 265.686803 93.05748 
L 268.739111 26.685039 
L 270.265264 30.376245 
L 271.791418 61.832858 
L 273.317572 77.520189 
L 274.843726 54.458524 
L 276.36988 19.265728 
L 277.896034 14.652944 
L 279.422188 45.612932 
L 280.948341 73.143609 
L 282.474495 63.419475 
L 284.000649 30.417772 
L 285.526803 18.258614 
L 287.052957 45.52473 
L 288.579111 81.761252 
L 290.105264 85.785175 
L 291.631418 57.507529 
L 293.157572 37.935345 
L 294.683726 57.353379 
L 296.20988 97.018405 
L 297.736034 112.662981 
L 299.262188 90.178964 
L 300.788341 63.280269 
L 302.314495 70.879184 
L 303.840649 107.916925 
L 305.366803 131.641556 
L 306.892957 115.420555 
L 308.419111 82.245435 
L 309.945264 75.688882 
L 312.997572 133.167476 
L 314.523726 124.005722 
L 316.04988 87.368312 
L 317.576034 67.016797 
L 319.102188 85.433381 
L 320.628341 115.546575 
L 322.154495 114.94692 
L 323.680649 79.453224 
L 325.206803 48.493193 
L 326.732957 55.512361 
L 328.259111 85.930979 
L 329.785264 95.652217 
L 331.311418 66.78456 
L 332.837572 30.323243 
L 334.363726 27.192214 
L 335.88988 56.760568 
L 337.416034 77.739189 
L 338.942188 60.32493 
L 340.468341 23.849269 
L 341.994495 12.464042 
L 343.520649 39.517327 
L 345.046803 70.747016 
L 346.572957 67.480388 
L 348.099111 35.375489 
L 349.625264 17.253678 
L 351.151418 39.060491 
L 352.677572 77.086152 
L 354.203726 87.77416 
L 357.256034 38.480294 
L 358.782188 51.495686 
L 360.308341 90.896328 
L 361.834495 112.75841 
L 363.360649 95.17268 
L 364.886803 65.741666 
L 366.412957 66.659539 
L 367.939111 101.403042 
L 369.465264 130.245708 
L 370.991418 120.253109 
L 372.517572 86.729309 
L 374.043726 73.86235 
L 375.56988 98.971403 
L 377.096034 130.647261 
L 378.622188 128.34622 
L 380.148341 93.519244 
L 381.674495 67.814714 
L 383.200649 80.61995 
L 384.726803 112.077744 
L 386.252957 118.203542 
L 387.779111 86.434843 
L 389.305264 51.576441 
L 390.831418 52.036108 
L 392.357572 81.524256 
L 393.883726 97.109826 
L 395.40988 73.473093 
L 396.936034 34.953026 
L 398.462188 24.98254 
L 401.514495 76.833807 
L 403.040649 65.639082 
L 404.566803 29.185967 
L 406.092957 11.423091 
L 407.619111 33.557158 
L 409.145264 67.342727 
L 410.671418 70.700341 
L 412.197572 40.757039 
L 413.723726 17.438393 
L 415.24988 33.084022 
L 416.776034 71.610214 
L 418.302188 88.707041 
L 419.828341 67.608131 
L 419.828341 67.608131 
" clip-path="url(#p1588bf5d92)" style="fill: none; stroke: #000000; stroke-width: 1.5; stroke-linecap: square"/>
   </g>
   <g id="line2d_13">
    <defs>
     <path id="m534b54cc2f" d="M -6 6 
L 6 -6 
M -6 -6 
L 6 6 
" style="stroke: #ff0000; stroke-width: 4"/>
    </defs>
    <g clip-path="url(#p1588bf5d92)">
     <use xlink:href="#m534b54cc2f" x="3106.442969" y="27.446128" style="fill: #ff0000; stroke: #ff0000; stroke-width: 4"/>
     <use xlink:href="#m534b54cc2f" x="4697.832813" y="94.621051" style="fill: #ff0000; stroke: #ff0000; stroke-width: 4"/>
     <use xlink:href="#m534b54cc2f" x="4726.822656" y="65.834497" style="fill: #ff0000; stroke: #ff0000; stroke-width: 4"/>
     <use xlink:href="#m534b54cc2f" x="4909.916406" y="27.608179" style="fill: #ff0000; stroke: #ff0000; stroke-width: 4"/>
     <use xlink:href="#m534b54cc2f" x="-1" y="60.012468" style="fill: #ff0000; stroke: #ff0000; stroke-width: 4"/>
     <use xlink:href="#m534b54cc2f" x="-1" y="63.71808" style="fill: #ff0000; stroke: #ff0000; stroke-width: 4"/>
     <use xlink:href="#m534b54cc2f" x="4864.142969" y="92.09313" style="fill: #ff0000; stroke: #ff0000; stroke-width: 4"/>
     <use xlink:href="#m534b54cc2f" x="3616.053906" y="57.943674" style="fill: #ff0000; stroke: #ff0000; stroke-width: 4"/>
     <use xlink:href="#m534b54cc2f" x="-1" y="73.133226" style="fill: #ff0000; stroke: #ff0000; stroke-width: 4"/>
     <use xlink:href="#m534b54cc2f" x="-1" y="71.606642" style="fill: #ff0000; stroke: #ff0000; stroke-width: 4"/>
     <use xlink:href="#m534b54cc2f" x="4128.716406" y="37.216749" style="fill: #ff0000; stroke: #ff0000; stroke-width: 4"/>
     <use xlink:href="#m534b54cc2f" x="919.998438" y="12.945395" style="fill: #ff0000; stroke: #ff0000; stroke-width: 4"/>
     <use xlink:href="#m534b54cc2f" x="3608.425" y="90.635325" style="fill: #ff0000; stroke: #ff0000; stroke-width: 4"/>
     <use xlink:href="#m534b54cc2f" x="3104.917188" y="65.219083" style="fill: #ff0000; stroke: #ff0000; stroke-width: 4"/>
     <use xlink:href="#m534b54cc2f" x="4943.483594" y="113.367188" style="fill: #ff0000; stroke: #ff0000; stroke-width: 4"/>
     <use xlink:href="#m534b54cc2f" x="3109.494531" y="41.846291" style="fill: #ff0000; stroke: #ff0000; stroke-width: 4"/>
     <use xlink:href="#m534b54cc2f" x="1266.350781" y="59.317067" style="fill: #ff0000; stroke: #ff0000; stroke-width: 4"/>
     <use xlink:href="#m534b54cc2f" x="-1" y="85.626707" style="fill: #ff0000; stroke: #ff0000; stroke-width: 4"/>
     <use xlink:href="#m534b54cc2f" x="-1" y="85.707546" style="fill: #ff0000; stroke: #ff0000; stroke-width: 4"/>
     <use xlink:href="#m534b54cc2f" x="2337.449219" y="39.148661" style="fill: #ff0000; stroke: #ff0000; stroke-width: 4"/>
     <use xlink:href="#m534b54cc2f" x="1775.961719" y="99.365959" style="fill: #ff0000; stroke: #ff0000; stroke-width: 4"/>
     <use xlink:href="#m534b54cc2f" x="-1" y="82.125748" style="fill: #ff0000; stroke: #ff0000; stroke-width: 4"/>
     <use xlink:href="#m534b54cc2f" x="-1" y="39.507985" style="fill: #ff0000; stroke: #ff0000; stroke-width: 4"/>
     <use xlink:href="#m534b54cc2f" x="5437.836719" y="40.478682" style="fill: #ff0000; stroke: #ff0000; stroke-width: 4"/>
     <use xlink:href="#m534b54cc2f" x="909.317969" y="85.943798" style="fill: #ff0000; stroke: #ff0000; stroke-width: 4"/>
     <use xlink:href="#m534b54cc2f" x="2927.926563" y="69.18104" style="fill: #ff0000; stroke: #ff0000; stroke-width: 4"/>
     <use xlink:href="#m534b54cc2f" x="-1" y="77.520627" style="fill: #ff0000; stroke: #ff0000; stroke-width: 4"/>
     <use xlink:href="#m534b54cc2f" x="-1" y="83.445757" style="fill: #ff0000; stroke: #ff0000; stroke-width: 4"/>
     <use xlink:href="#m534b54cc2f" x="4896.184375" y="113.182428" style="fill: #ff0000; stroke: #ff0000; stroke-width: 4"/>
     <use xlink:href="#m534b54cc2f" x="294.428125" y="57.353379" style="fill: #ff0000; stroke: #ff0000; stroke-width: 4"/>
     <use xlink:href="#m534b54cc2f" x="2244.376563" y="121.776731" style="fill: #ff0000; stroke: #ff0000; stroke-width: 4"/>
     <use xlink:href="#m534b54cc2f" x="424.119531" y="84.254559" style="fill: #ff0000; stroke: #ff0000; stroke-width: 4"/>
     <use xlink:href="#m534b54cc2f" x="402.758594" y="65.639082" style="fill: #ff0000; stroke: #ff0000; stroke-width: 4"/>
     <use xlink:href="#m534b54cc2f" x="9.107031" y="73.125373" style="fill: #ff0000; stroke: #ff0000; stroke-width: 4"/>
     <use xlink:href="#m534b54cc2f" x="-1" y="73.709529" style="fill: #ff0000; stroke: #ff0000; stroke-width: 4"/>
     <use xlink:href="#m534b54cc2f" x="-1" y="101.901226" style="fill: #ff0000; stroke: #ff0000; stroke-width: 4"/>
     <use xlink:href="#m534b54cc2f" x="1576.084375" y="84.451648" style="fill: #ff0000; stroke: #ff0000; stroke-width: 4"/>
     <use xlink:href="#m534b54cc2f" x="839.132031" y="56.454872" style="fill: #ff0000; stroke: #ff0000; stroke-width: 4"/>
     <use xlink:href="#m534b54cc2f" x="-1" y="64.126574" style="fill: #ff0000; stroke: #ff0000; stroke-width: 4"/>
     <use xlink:href="#m534b54cc2f" x="-1" y="64.156746" style="fill: #ff0000; stroke: #ff0000; stroke-width: 4"/>
     <use xlink:href="#m534b54cc2f" x="4023.4375" y="28.84457" style="fill: #ff0000; stroke: #ff0000; stroke-width: 4"/>
     <use xlink:href="#m534b54cc2f" x="254.757813" y="90.584181" style="fill: #ff0000; stroke: #ff0000; stroke-width: 4"/>
     <use xlink:href="#m534b54cc2f" x="3626.734375" y="71.174799" style="fill: #ff0000; stroke: #ff0000; stroke-width: 4"/>
     <use xlink:href="#m534b54cc2f" x="5199.814844" y="87.750067" style="fill: #ff0000; stroke: #ff0000; stroke-width: 4"/>
     <use xlink:href="#m534b54cc2f" x="2934.029688" y="96.779409" style="fill: #ff0000; stroke: #ff0000; stroke-width: 4"/>
     <use xlink:href="#m534b54cc2f" x="4356.057813" y="86.434843" style="fill: #ff0000; stroke: #ff0000; stroke-width: 4"/>
     <use xlink:href="#m534b54cc2f" x="463.789844" y="46.104032" style="fill: #ff0000; stroke: #ff0000; stroke-width: 4"/>
     <use xlink:href="#m534b54cc2f" x="3030.153906" y="101.140222" style="fill: #ff0000; stroke: #ff0000; stroke-width: 4"/>
     <use xlink:href="#m534b54cc2f" x="596.532813" y="47.730871" style="fill: #ff0000; stroke: #ff0000; stroke-width: 4"/>
     <use xlink:href="#m534b54cc2f" x="5030.453125" y="46.895601" style="fill: #ff0000; stroke: #ff0000; stroke-width: 4"/>
     <use xlink:href="#m534b54cc2f" x="5047.236719" y="36.295869" style="fill: #ff0000; stroke: #ff0000; stroke-width: 4"/>
     <use xlink:href="#m534b54cc2f" x="1779.013281" y="75.928536" style="fill: #ff0000; stroke: #ff0000; stroke-width: 4"/>
     <use xlink:href="#m534b54cc2f" x="1717.982031" y="81.244071" style="fill: #ff0000; stroke: #ff0000; stroke-width: 4"/>
     <use xlink:href="#m534b54cc2f" x="-1" y="109.637097" style="fill: #ff0000; stroke: #ff0000; stroke-width: 4"/>
     <use xlink:href="#m534b54cc2f" x="-1" y="54.611513" style="fill: #ff0000; stroke: #ff0000; stroke-width: 4"/>
     <use xlink:href="#m534b54cc2f" x="141.85" y="39.055178" style="fill: #ff0000; stroke: #ff0000; stroke-width: 4"/>
     <use xlink:href="#m534b54cc2f" x="1841.570312" y="105.890249" style="fill: #ff0000; stroke: #ff0000; stroke-width: 4"/>
     <use xlink:href="#m534b54cc2f" x="4665.791406" y="44.175365" style="fill: #ff0000; stroke: #ff0000; stroke-width: 4"/>
     <use xlink:href="#m534b54cc2f" x="-1" y="30.503932" style="fill: #ff0000; stroke: #ff0000; stroke-width: 4"/>
     <use xlink:href="#m534b54cc2f" x="-1" y="32.841375" style="fill: #ff0000; stroke: #ff0000; stroke-width: 4"/>
     <use xlink:href="#m534b54cc2f" x="4577.296094" y="70.659883" style="fill: #ff0000; stroke: #ff0000; stroke-width: 4"/>
     <use xlink:href="#m534b54cc2f" x="2804.338281" y="74.961474" style="fill: #ff0000; stroke: #ff0000; stroke-width: 4"/>
     <use xlink:href="#m534b54cc2f" x="-1" y="40.061368" style="fill: #ff0000; stroke: #ff0000; stroke-width: 4"/>
     <use xlink:href="#m534b54cc2f" x="-1" y="33.01802" style="fill: #ff0000; stroke: #ff0000; stroke-width: 4"/>
     <use xlink:href="#m534b54cc2f" x="1313.65" y="18.781034" style="fill: #ff0000; stroke: #ff0000; stroke-width: 4"/>
     <use xlink:href="#m534b54cc2f" x="4684.100781" y="69.270958" style="fill: #ff0000; stroke: #ff0000; stroke-width: 4"/>
     <use xlink:href="#m534b54cc2f" x="3234.608594" y="39.119668" style="fill: #ff0000; stroke: #ff0000; stroke-width: 4"/>
     <use xlink:href="#m534b54cc2f" x="5466.826563" y="127.892863" style="fill: #ff0000; stroke: #ff0000; stroke-width: 4"/>
     <use xlink:href="#m534b54cc2f" x="1592.867969" y="120.152268" style="fill: #ff0000; stroke: #ff0000; stroke-width: 4"/>
     <use xlink:href="#m534b54cc2f" x="4468.965625" y="54.458524" style="fill: #ff0000; stroke: #ff0000; stroke-width: 4"/>
     <use xlink:href="#m534b54cc2f" x="3306.320313" y="48.54267" style="fill: #ff0000; stroke: #ff0000; stroke-width: 4"/>
     <use xlink:href="#m534b54cc2f" x="4368.264063" y="98.971403" style="fill: #ff0000; stroke: #ff0000; stroke-width: 4"/>
     <use xlink:href="#m534b54cc2f" x="4978.576563" y="56.650905" style="fill: #ff0000; stroke: #ff0000; stroke-width: 4"/>
     <use xlink:href="#m534b54cc2f" x="3931.890625" y="110.421811" style="fill: #ff0000; stroke: #ff0000; stroke-width: 4"/>
     <use xlink:href="#m534b54cc2f" x="2937.08125" y="68.958038" style="fill: #ff0000; stroke: #ff0000; stroke-width: 4"/>
     <use xlink:href="#m534b54cc2f" x="5320.351562" y="65.171112" style="fill: #ff0000; stroke: #ff0000; stroke-width: 4"/>
     <use xlink:href="#m534b54cc2f" x="3577.909375" y="99.800707" style="fill: #ff0000; stroke: #ff0000; stroke-width: 4"/>
     <use xlink:href="#m534b54cc2f" x="5247.114063" y="25.296379" style="fill: #ff0000; stroke: #ff0000; stroke-width: 4"/>
     <use xlink:href="#m534b54cc2f" x="-1" y="123.57656" style="fill: #ff0000; stroke: #ff0000; stroke-width: 4"/>
     <use xlink:href="#m534b54cc2f" x="-1" y="103.147293" style="fill: #ff0000; stroke: #ff0000; stroke-width: 4"/>
     <use xlink:href="#m534b54cc2f" x="456.160938" y="76.707837" style="fill: #ff0000; stroke: #ff0000; stroke-width: 4"/>
     <use xlink:href="#m534b54cc2f" x="5245.588281" y="27.037257" style="fill: #ff0000; stroke: #ff0000; stroke-width: 4"/>
     <use xlink:href="#m534b54cc2f" x="3207.144531" y="127.536638" style="fill: #ff0000; stroke: #ff0000; stroke-width: 4"/>
     <use xlink:href="#m534b54cc2f" x="2764.667969" y="118.594279" style="fill: #ff0000; stroke: #ff0000; stroke-width: 4"/>
     <use xlink:href="#m534b54cc2f" x="1710.353125" y="69.116447" style="fill: #ff0000; stroke: #ff0000; stroke-width: 4"/>
     <use xlink:href="#m534b54cc2f" x="1547.094531" y="54.41386" style="fill: #ff0000; stroke: #ff0000; stroke-width: 4"/>
     <use xlink:href="#m534b54cc2f" x="4894.658594" y="87.275036" style="fill: #ff0000; stroke: #ff0000; stroke-width: 4"/>
     <use xlink:href="#m534b54cc2f" x="4368.264063" y="98.971403" style="fill: #ff0000; stroke: #ff0000; stroke-width: 4"/>
     <use xlink:href="#m534b54cc2f" x="4374.367188" y="130.245708" style="fill: #ff0000; stroke: #ff0000; stroke-width: 4"/>
     <use xlink:href="#m534b54cc2f" x="33.519531" y="69.907246" style="fill: #ff0000; stroke: #ff0000; stroke-width: 4"/>
     <use xlink:href="#m534b54cc2f" x="4677.997656" y="92.986264" style="fill: #ff0000; stroke: #ff0000; stroke-width: 4"/>
     <use xlink:href="#m534b54cc2f" x="5378.33125" y="83.541018" style="fill: #ff0000; stroke: #ff0000; stroke-width: 4"/>
     <use xlink:href="#m534b54cc2f" x="3657.25" y="123.354131" style="fill: #ff0000; stroke: #ff0000; stroke-width: 4"/>
     <use xlink:href="#m534b54cc2f" x="2696.007812" y="90.654585" style="fill: #ff0000; stroke: #ff0000; stroke-width: 4"/>
     <use xlink:href="#m534b54cc2f" x="265.438281" y="93.05748" style="fill: #ff0000; stroke: #ff0000; stroke-width: 4"/>
     <use xlink:href="#m534b54cc2f" x="845.235156" y="80.190064" style="fill: #ff0000; stroke: #ff0000; stroke-width: 4"/>
     <use xlink:href="#m534b54cc2f" x="2564.790625" y="135.97943" style="fill: #ff0000; stroke: #ff0000; stroke-width: 4"/>
     <use xlink:href="#m534b54cc2f" x="2558.6875" y="100.229422" style="fill: #ff0000; stroke: #ff0000; stroke-width: 4"/>
     <use xlink:href="#m534b54cc2f" x="4914.49375" y="50.838206" style="fill: #ff0000; stroke: #ff0000; stroke-width: 4"/>
     <use xlink:href="#m534b54cc2f" x="4162.283594" y="66.567583" style="fill: #ff0000; stroke: #ff0000; stroke-width: 4"/>
     <use xlink:href="#m534b54cc2f" x="147.953125" y="12.974458" style="fill: #ff0000; stroke: #ff0000; stroke-width: 4"/>
     <use xlink:href="#m534b54cc2f" x="5326.454688" y="66.044246" style="fill: #ff0000; stroke: #ff0000; stroke-width: 4"/>
     <use xlink:href="#m534b54cc2f" x="2990.483594" y="77.961788" style="fill: #ff0000; stroke: #ff0000; stroke-width: 4"/>
     <use xlink:href="#m534b54cc2f" x="1638.641406" y="65.219083" style="fill: #ff0000; stroke: #ff0000; stroke-width: 4"/>
     <use xlink:href="#m534b54cc2f" x="2386.274219" y="88.511241" style="fill: #ff0000; stroke: #ff0000; stroke-width: 4"/>
     <use xlink:href="#m534b54cc2f" x="2694.482031" y="125.963289" style="fill: #ff0000; stroke: #ff0000; stroke-width: 4"/>
     <use xlink:href="#m534b54cc2f" x="1331.959375" y="81.409331" style="fill: #ff0000; stroke: #ff0000; stroke-width: 4"/>
     <use xlink:href="#m534b54cc2f" x="-1" y="76.987425" style="fill: #ff0000; stroke: #ff0000; stroke-width: 4"/>
     <use xlink:href="#m534b54cc2f" x="-1" y="66.61252" style="fill: #ff0000; stroke: #ff0000; stroke-width: 4"/>
     <use xlink:href="#m534b54cc2f" x="4529.996875" y="17.905139" style="fill: #ff0000; stroke: #ff0000; stroke-width: 4"/>
     <use xlink:href="#m534b54cc2f" x="4688.678125" y="126.172169" style="fill: #ff0000; stroke: #ff0000; stroke-width: 4"/>
     <use xlink:href="#m534b54cc2f" x="-1" y="59.140849" style="fill: #ff0000; stroke: #ff0000; stroke-width: 4"/>
     <use xlink:href="#m534b54cc2f" x="-1" y="56.78282" style="fill: #ff0000; stroke: #ff0000; stroke-width: 4"/>
     <use xlink:href="#m534b54cc2f" x="2140.623438" y="46.214967" style="fill: #ff0000; stroke: #ff0000; stroke-width: 4"/>
     <use xlink:href="#m534b54cc2f" x="515.666406" y="99.889314" style="fill: #ff0000; stroke: #ff0000; stroke-width: 4"/>
     <use xlink:href="#m534b54cc2f" x="2851.6375" y="29.49686" style="fill: #ff0000; stroke: #ff0000; stroke-width: 4"/>
     <use xlink:href="#m534b54cc2f" x="1766.807031" y="52.428311" style="fill: #ff0000; stroke: #ff0000; stroke-width: 4"/>
     <use xlink:href="#m534b54cc2f" x="1318.227344" y="85.212218" style="fill: #ff0000; stroke: #ff0000; stroke-width: 4"/>
     <use xlink:href="#m534b54cc2f" x="4249.253125" y="61.287974" style="fill: #ff0000; stroke: #ff0000; stroke-width: 4"/>
     <use xlink:href="#m534b54cc2f" x="2671.595313" y="49.12007" style="fill: #ff0000; stroke: #ff0000; stroke-width: 4"/>
     <use xlink:href="#m534b54cc2f" x="900.163281" y="122.516756" style="fill: #ff0000; stroke: #ff0000; stroke-width: 4"/>
     <use xlink:href="#m534b54cc2f" x="4815.317969" y="124.211514" style="fill: #ff0000; stroke: #ff0000; stroke-width: 4"/>
     <use xlink:href="#m534b54cc2f" x="2128.417188" y="76.226955" style="fill: #ff0000; stroke: #ff0000; stroke-width: 4"/>
     <use xlink:href="#m534b54cc2f" x="1313.65" y="18.781034" style="fill: #ff0000; stroke: #ff0000; stroke-width: 4"/>
     <use xlink:href="#m534b54cc2f" x="720.121094" y="28.84457" style="fill: #ff0000; stroke: #ff0000; stroke-width: 4"/>
     <use xlink:href="#m534b54cc2f" x="2920.297656" y="49.631256" style="fill: #ff0000; stroke: #ff0000; stroke-width: 4"/>
     <use xlink:href="#m534b54cc2f" x="3301.742969" y="26.056822" style="fill: #ff0000; stroke: #ff0000; stroke-width: 4"/>
     <use xlink:href="#m534b54cc2f" x="1919.385156" y="102.647286" style="fill: #ff0000; stroke: #ff0000; stroke-width: 4"/>
     <use xlink:href="#m534b54cc2f" x="5382.908594" y="42.71631" style="fill: #ff0000; stroke: #ff0000; stroke-width: 4"/>
     <use xlink:href="#m534b54cc2f" x="1766.807031" y="52.428311" style="fill: #ff0000; stroke: #ff0000; stroke-width: 4"/>
     <use xlink:href="#m534b54cc2f" x="-1" y="112.447549" style="fill: #ff0000; stroke: #ff0000; stroke-width: 4"/>
     <use xlink:href="#m534b54cc2f" x="-1" y="77.695637" style="fill: #ff0000; stroke: #ff0000; stroke-width: 4"/>
     <use xlink:href="#m534b54cc2f" x="5250.165625" y="91.119714" style="fill: #ff0000; stroke: #ff0000; stroke-width: 4"/>
     <use xlink:href="#m534b54cc2f" x="5115.896875" y="47.673019" style="fill: #ff0000; stroke: #ff0000; stroke-width: 4"/>
     <use xlink:href="#m534b54cc2f" x="2128.417188" y="76.226955" style="fill: #ff0000; stroke: #ff0000; stroke-width: 4"/>
     <use xlink:href="#m534b54cc2f" x="-1" y="48.739721" style="fill: #ff0000; stroke: #ff0000; stroke-width: 4"/>
     <use xlink:href="#m534b54cc2f" x="-1" y="42.810145" style="fill: #ff0000; stroke: #ff0000; stroke-width: 4"/>
     <use xlink:href="#m534b54cc2f" x="4475.06875" y="26.685039" style="fill: #ff0000; stroke: #ff0000; stroke-width: 4"/>
     <use xlink:href="#m534b54cc2f" x="2909.617188" y="78.546673" style="fill: #ff0000; stroke: #ff0000; stroke-width: 4"/>
     <use xlink:href="#m534b54cc2f" x="620.945312" y="82.798721" style="fill: #ff0000; stroke: #ff0000; stroke-width: 4"/>
     <use xlink:href="#m534b54cc2f" x="3519.929688" y="93.894524" style="fill: #ff0000; stroke: #ff0000; stroke-width: 4"/>
    </g>
   </g>
   <g id="patch_3">
    <path d="M 28.942188 135.991219 
L 28.942188 10.999219 
" style="fill: none; stroke: #000000; stroke-width: 0.8; stroke-linejoin: miter; stroke-linecap: square"/>
   </g>
   <g id="patch_4">
    <path d="M 419.542188 135.991219 
L 419.542188 10.999219 
" style="fill: none; stroke: #000000; stroke-width: 0.8; stroke-linejoin: miter; stroke-linecap: square"/>
   </g>
   <g id="patch_5">
    <path d="M 28.942188 135.991219 
L 419.542188 135.991219 
" style="fill: none; stroke: #000000; stroke-width: 0.8; stroke-linejoin: miter; stroke-linecap: square"/>
   </g>
   <g id="patch_6">
    <path d="M 28.942188 10.999219 
L 419.542188 10.999219 
" style="fill: none; stroke: #000000; stroke-width: 0.8; stroke-linejoin: miter; stroke-linecap: square"/>
   </g>
  </g>
 </g>
 <defs>
  <clipPath id="p1588bf5d92">
   <rect x="28.942188" y="10.999219" width="390.6" height="124.992"/>
  </clipPath>
 </defs>
</svg>
