<?xml version="1.0" encoding="utf-8" standalone="no"?>
<!DOCTYPE svg PUBLIC "-//W3C//DTD SVG 1.1//EN"
  "http://www.w3.org/Graphics/SVG/1.1/DTD/svg11.dtd">
<svg xmlns:xlink="http://www.w3.org/1999/xlink" width="348.340625pt" height="160.155469pt" viewBox="0 0 348.340625 160.155469" xmlns="http://www.w3.org/2000/svg" version="1.1">
 <metadata>
  <rdf:RDF xmlns:dc="http://purl.org/dc/elements/1.1/" xmlns:cc="http://creativecommons.org/ns#" xmlns:rdf="http://www.w3.org/1999/02/22-rdf-syntax-ns#">
   <cc:Work>
    <dc:type rdf:resource="http://purl.org/dc/dcmitype/StillImage"/>
    <dc:date>2025-01-14T09:38:21.096343</dc:date>
    <dc:format>image/svg+xml</dc:format>
    <dc:creator>
     <cc:Agent>
      <dc:title>Matplotlib v3.9.2, https://matplotlib.org/</dc:title>
     </cc:Agent>
    </dc:creator>
   </cc:Work>
  </rdf:RDF>
 </metadata>
 <defs>
  <style type="text/css">*{stroke-linejoin: round; stroke-linecap: butt}</style>
 </defs>
 <g id="figure_1">
  <g id="patch_1">
   <path d="M 0 160.155469 
L 348.340625 160.155469 
L 348.340625 0 
L 0 0 
z
" style="fill: #ffffff"/>
  </g>
  <g id="axes_1">
   <g id="patch_2">
    <path d="M 34.240625 122.599219 
L 341.140625 122.599219 
L 341.140625 10.999219 
L 34.240625 10.999219 
z
" style="fill: #ffffff"/>
   </g>
   <g id="matplotlib.axis_1">
    <g id="xtick_1">
     <g id="line2d_1">
      <path d="M 34.240625 122.599219 
L 34.240625 10.999219 
" clip-path="url(#p4a7618501a)" style="fill: none; stroke: #b0b0b0; stroke-width: 0.8; stroke-linecap: square"/>
     </g>
     <g id="line2d_2">
      <defs>
       <path id="mb15fdacd70" d="M 0 0 
L 0 3.5 
" style="stroke: #000000; stroke-width: 0.8"/>
      </defs>
      <g>
       <use xlink:href="#mb15fdacd70" x="34.240625" y="122.599219" style="stroke: #000000; stroke-width: 0.8"/>
      </g>
     </g>
     <g id="text_1">
      <!-- 0 -->
      <g transform="translate(31.059375 137.197656) scale(0.1 -0.1)">
       <defs>
        <path id="DejaVuSans-30" d="M 2034 4250 
Q 1547 4250 1301 3770 
Q 1056 3291 1056 2328 
Q 1056 1369 1301 889 
Q 1547 409 2034 409 
Q 2525 409 2770 889 
Q 3016 1369 3016 2328 
Q 3016 3291 2770 3770 
Q 2525 4250 2034 4250 
z
M 2034 4750 
Q 2819 4750 3233 4129 
Q 3647 3509 3647 2328 
Q 3647 1150 3233 529 
Q 2819 -91 2034 -91 
Q 1250 -91 836 529 
Q 422 1150 422 2328 
Q 422 3509 836 4129 
Q 1250 4750 2034 4750 
z
" transform="scale(0.015625)"/>
       </defs>
       <use xlink:href="#DejaVuSans-30"/>
      </g>
     </g>
    </g>
    <g id="xtick_2">
     <g id="line2d_3">
      <path d="M 90.040625 122.599219 
L 90.040625 10.999219 
" clip-path="url(#p4a7618501a)" style="fill: none; stroke: #b0b0b0; stroke-width: 0.8; stroke-linecap: square"/>
     </g>
     <g id="line2d_4">
      <g>
       <use xlink:href="#mb15fdacd70" x="90.040625" y="122.599219" style="stroke: #000000; stroke-width: 0.8"/>
      </g>
     </g>
     <g id="text_2">
      <!-- 2 -->
      <g transform="translate(86.859375 137.197656) scale(0.1 -0.1)">
       <defs>
        <path id="DejaVuSans-32" d="M 1228 531 
L 3431 531 
L 3431 0 
L 469 0 
L 469 531 
Q 828 903 1448 1529 
Q 2069 2156 2228 2338 
Q 2531 2678 2651 2914 
Q 2772 3150 2772 3378 
Q 2772 3750 2511 3984 
Q 2250 4219 1831 4219 
Q 1534 4219 1204 4116 
Q 875 4013 500 3803 
L 500 4441 
Q 881 4594 1212 4672 
Q 1544 4750 1819 4750 
Q 2544 4750 2975 4387 
Q 3406 4025 3406 3419 
Q 3406 3131 3298 2873 
Q 3191 2616 2906 2266 
Q 2828 2175 2409 1742 
Q 1991 1309 1228 531 
z
" transform="scale(0.015625)"/>
       </defs>
       <use xlink:href="#DejaVuSans-32"/>
      </g>
     </g>
    </g>
    <g id="xtick_3">
     <g id="line2d_5">
      <path d="M 145.840625 122.599219 
L 145.840625 10.999219 
" clip-path="url(#p4a7618501a)" style="fill: none; stroke: #b0b0b0; stroke-width: 0.8; stroke-linecap: square"/>
     </g>
     <g id="line2d_6">
      <g>
       <use xlink:href="#mb15fdacd70" x="145.840625" y="122.599219" style="stroke: #000000; stroke-width: 0.8"/>
      </g>
     </g>
     <g id="text_3">
      <!-- 4 -->
      <g transform="translate(142.659375 137.197656) scale(0.1 -0.1)">
       <defs>
        <path id="DejaVuSans-34" d="M 2419 4116 
L 825 1625 
L 2419 1625 
L 2419 4116 
z
M 2253 4666 
L 3047 4666 
L 3047 1625 
L 3713 1625 
L 3713 1100 
L 3047 1100 
L 3047 0 
L 2419 0 
L 2419 1100 
L 313 1100 
L 313 1709 
L 2253 4666 
z
" transform="scale(0.015625)"/>
       </defs>
       <use xlink:href="#DejaVuSans-34"/>
      </g>
     </g>
    </g>
    <g id="xtick_4">
     <g id="line2d_7">
      <path d="M 201.640625 122.599219 
L 201.640625 10.999219 
" clip-path="url(#p4a7618501a)" style="fill: none; stroke: #b0b0b0; stroke-width: 0.8; stroke-linecap: square"/>
     </g>
     <g id="line2d_8">
      <g>
       <use xlink:href="#mb15fdacd70" x="201.640625" y="122.599219" style="stroke: #000000; stroke-width: 0.8"/>
      </g>
     </g>
     <g id="text_4">
      <!-- 6 -->
      <g transform="translate(198.459375 137.197656) scale(0.1 -0.1)">
       <defs>
        <path id="DejaVuSans-36" d="M 2113 2584 
Q 1688 2584 1439 2293 
Q 1191 2003 1191 1497 
Q 1191 994 1439 701 
Q 1688 409 2113 409 
Q 2538 409 2786 701 
Q 3034 994 3034 1497 
Q 3034 2003 2786 2293 
Q 2538 2584 2113 2584 
z
M 3366 4563 
L 3366 3988 
Q 3128 4100 2886 4159 
Q 2644 4219 2406 4219 
Q 1781 4219 1451 3797 
Q 1122 3375 1075 2522 
Q 1259 2794 1537 2939 
Q 1816 3084 2150 3084 
Q 2853 3084 3261 2657 
Q 3669 2231 3669 1497 
Q 3669 778 3244 343 
Q 2819 -91 2113 -91 
Q 1303 -91 875 529 
Q 447 1150 447 2328 
Q 447 3434 972 4092 
Q 1497 4750 2381 4750 
Q 2619 4750 2861 4703 
Q 3103 4656 3366 4563 
z
" transform="scale(0.015625)"/>
       </defs>
       <use xlink:href="#DejaVuSans-36"/>
      </g>
     </g>
    </g>
    <g id="xtick_5">
     <g id="line2d_9">
      <path d="M 257.440625 122.599219 
L 257.440625 10.999219 
" clip-path="url(#p4a7618501a)" style="fill: none; stroke: #b0b0b0; stroke-width: 0.8; stroke-linecap: square"/>
     </g>
     <g id="line2d_10">
      <g>
       <use xlink:href="#mb15fdacd70" x="257.440625" y="122.599219" style="stroke: #000000; stroke-width: 0.8"/>
      </g>
     </g>
     <g id="text_5">
      <!-- 8 -->
      <g transform="translate(254.259375 137.197656) scale(0.1 -0.1)">
       <defs>
        <path id="DejaVuSans-38" d="M 2034 2216 
Q 1584 2216 1326 1975 
Q 1069 1734 1069 1313 
Q 1069 891 1326 650 
Q 1584 409 2034 409 
Q 2484 409 2743 651 
Q 3003 894 3003 1313 
Q 3003 1734 2745 1975 
Q 2488 2216 2034 2216 
z
M 1403 2484 
Q 997 2584 770 2862 
Q 544 3141 544 3541 
Q 544 4100 942 4425 
Q 1341 4750 2034 4750 
Q 2731 4750 3128 4425 
Q 3525 4100 3525 3541 
Q 3525 3141 3298 2862 
Q 3072 2584 2669 2484 
Q 3125 2378 3379 2068 
Q 3634 1759 3634 1313 
Q 3634 634 3220 271 
Q 2806 -91 2034 -91 
Q 1263 -91 848 271 
Q 434 634 434 1313 
Q 434 1759 690 2068 
Q 947 2378 1403 2484 
z
M 1172 3481 
Q 1172 3119 1398 2916 
Q 1625 2713 2034 2713 
Q 2441 2713 2670 2916 
Q 2900 3119 2900 3481 
Q 2900 3844 2670 4047 
Q 2441 4250 2034 4250 
Q 1625 4250 1398 4047 
Q 1172 3844 1172 3481 
z
" transform="scale(0.015625)"/>
       </defs>
       <use xlink:href="#DejaVuSans-38"/>
      </g>
     </g>
    </g>
    <g id="xtick_6">
     <g id="line2d_11">
      <path d="M 313.240625 122.599219 
L 313.240625 10.999219 
" clip-path="url(#p4a7618501a)" style="fill: none; stroke: #b0b0b0; stroke-width: 0.8; stroke-linecap: square"/>
     </g>
     <g id="line2d_12">
      <g>
       <use xlink:href="#mb15fdacd70" x="313.240625" y="122.599219" style="stroke: #000000; stroke-width: 0.8"/>
      </g>
     </g>
     <g id="text_6">
      <!-- 10 -->
      <g transform="translate(306.878125 137.197656) scale(0.1 -0.1)">
       <defs>
        <path id="DejaVuSans-31" d="M 794 531 
L 1825 531 
L 1825 4091 
L 703 3866 
L 703 4441 
L 1819 4666 
L 2450 4666 
L 2450 531 
L 3481 531 
L 3481 0 
L 794 0 
L 794 531 
z
" transform="scale(0.015625)"/>
       </defs>
       <use xlink:href="#DejaVuSans-31"/>
       <use xlink:href="#DejaVuSans-30" x="63.623047"/>
      </g>
     </g>
    </g>
    <g id="text_7">
     <!-- x -->
     <g transform="translate(184.73125 150.875781) scale(0.1 -0.1)">
      <defs>
       <path id="DejaVuSans-78" d="M 3513 3500 
L 2247 1797 
L 3578 0 
L 2900 0 
L 1881 1375 
L 863 0 
L 184 0 
L 1544 1831 
L 300 3500 
L 978 3500 
L 1906 2253 
L 2834 3500 
L 3513 3500 
z
" transform="scale(0.015625)"/>
      </defs>
      <use xlink:href="#DejaVuSans-78"/>
     </g>
    </g>
   </g>
   <g id="matplotlib.axis_2">
    <g id="ytick_1">
     <g id="line2d_13">
      <path d="M 34.240625 122.599219 
L 341.140625 122.599219 
" clip-path="url(#p4a7618501a)" style="fill: none; stroke: #b0b0b0; stroke-width: 0.8; stroke-linecap: square"/>
     </g>
     <g id="line2d_14">
      <defs>
       <path id="m53fa7b0715" d="M 0 0 
L -3.5 0 
" style="stroke: #000000; stroke-width: 0.8"/>
      </defs>
      <g>
       <use xlink:href="#m53fa7b0715" x="34.240625" y="122.599219" style="stroke: #000000; stroke-width: 0.8"/>
      </g>
     </g>
     <g id="text_8">
      <!-- 0 -->
      <g transform="translate(20.878125 126.398438) scale(0.1 -0.1)">
       <use xlink:href="#DejaVuSans-30"/>
      </g>
     </g>
    </g>
    <g id="ytick_2">
     <g id="line2d_15">
      <path d="M 34.240625 94.699219 
L 341.140625 94.699219 
" clip-path="url(#p4a7618501a)" style="fill: none; stroke: #b0b0b0; stroke-width: 0.8; stroke-linecap: square"/>
     </g>
     <g id="line2d_16">
      <g>
       <use xlink:href="#m53fa7b0715" x="34.240625" y="94.699219" style="stroke: #000000; stroke-width: 0.8"/>
      </g>
     </g>
     <g id="text_9">
      <!-- 1 -->
      <g transform="translate(20.878125 98.498437) scale(0.1 -0.1)">
       <use xlink:href="#DejaVuSans-31"/>
      </g>
     </g>
    </g>
    <g id="ytick_3">
     <g id="line2d_17">
      <path d="M 34.240625 66.799219 
L 341.140625 66.799219 
" clip-path="url(#p4a7618501a)" style="fill: none; stroke: #b0b0b0; stroke-width: 0.8; stroke-linecap: square"/>
     </g>
     <g id="line2d_18">
      <g>
       <use xlink:href="#m53fa7b0715" x="34.240625" y="66.799219" style="stroke: #000000; stroke-width: 0.8"/>
      </g>
     </g>
     <g id="text_10">
      <!-- 2 -->
      <g transform="translate(20.878125 70.598438) scale(0.1 -0.1)">
       <use xlink:href="#DejaVuSans-32"/>
      </g>
     </g>
    </g>
    <g id="ytick_4">
     <g id="line2d_19">
      <path d="M 34.240625 38.899219 
L 341.140625 38.899219 
" clip-path="url(#p4a7618501a)" style="fill: none; stroke: #b0b0b0; stroke-width: 0.8; stroke-linecap: square"/>
     </g>
     <g id="line2d_20">
      <g>
       <use xlink:href="#m53fa7b0715" x="34.240625" y="38.899219" style="stroke: #000000; stroke-width: 0.8"/>
      </g>
     </g>
     <g id="text_11">
      <!-- 3 -->
      <g transform="translate(20.878125 42.698438) scale(0.1 -0.1)">
       <defs>
        <path id="DejaVuSans-33" d="M 2597 2516 
Q 3050 2419 3304 2112 
Q 3559 1806 3559 1356 
Q 3559 666 3084 287 
Q 2609 -91 1734 -91 
Q 1441 -91 1130 -33 
Q 819 25 488 141 
L 488 750 
Q 750 597 1062 519 
Q 1375 441 1716 441 
Q 2309 441 2620 675 
Q 2931 909 2931 1356 
Q 2931 1769 2642 2001 
Q 2353 2234 1838 2234 
L 1294 2234 
L 1294 2753 
L 1863 2753 
Q 2328 2753 2575 2939 
Q 2822 3125 2822 3475 
Q 2822 3834 2567 4026 
Q 2313 4219 1838 4219 
Q 1578 4219 1281 4162 
Q 984 4106 628 3988 
L 628 4550 
Q 988 4650 1302 4700 
Q 1616 4750 1894 4750 
Q 2613 4750 3031 4423 
Q 3450 4097 3450 3541 
Q 3450 3153 3228 2886 
Q 3006 2619 2597 2516 
z
" transform="scale(0.015625)"/>
       </defs>
       <use xlink:href="#DejaVuSans-33"/>
      </g>
     </g>
    </g>
    <g id="ytick_5">
     <g id="line2d_21">
      <path d="M 34.240625 10.999219 
L 341.140625 10.999219 
" clip-path="url(#p4a7618501a)" style="fill: none; stroke: #b0b0b0; stroke-width: 0.8; stroke-linecap: square"/>
     </g>
     <g id="line2d_22">
      <g>
       <use xlink:href="#m53fa7b0715" x="34.240625" y="10.999219" style="stroke: #000000; stroke-width: 0.8"/>
      </g>
     </g>
     <g id="text_12">
      <!-- 4 -->
      <g transform="translate(20.878125 14.798438) scale(0.1 -0.1)">
       <use xlink:href="#DejaVuSans-34"/>
      </g>
     </g>
    </g>
    <g id="text_13">
     <!-- y -->
     <g transform="translate(14.798438 69.758594) rotate(-90) scale(0.1 -0.1)">
      <defs>
       <path id="DejaVuSans-79" d="M 2059 -325 
Q 1816 -950 1584 -1140 
Q 1353 -1331 966 -1331 
L 506 -1331 
L 506 -850 
L 844 -850 
Q 1081 -850 1212 -737 
Q 1344 -625 1503 -206 
L 1606 56 
L 191 3500 
L 800 3500 
L 1894 763 
L 2988 3500 
L 3597 3500 
L 2059 -325 
z
" transform="scale(0.015625)"/>
      </defs>
      <use xlink:href="#DejaVuSans-79"/>
     </g>
    </g>
   </g>
   <g id="line2d_23">
    <defs>
     <path id="m0211708b05" d="M 0 3 
C 0.795609 3 1.55874 2.683901 2.12132 2.12132 
C 2.683901 1.55874 3 0.795609 3 0 
C 3 -0.795609 2.683901 -1.55874 2.12132 -2.12132 
C 1.55874 -2.683901 0.795609 -3 0 -3 
C -0.795609 -3 -1.55874 -2.683901 -2.12132 -2.12132 
C -2.683901 -1.55874 -3 -0.795609 -3 0 
C -3 0.795609 -2.683901 1.55874 -2.12132 2.12132 
C -1.55874 2.683901 -0.795609 3 0 3 
z
" style="stroke: #ff0000"/>
    </defs>
    <g clip-path="url(#p4a7618501a)">
     <use xlink:href="#m0211708b05" x="62.140625" y="117.019219" style="fill: #ff0000; stroke: #ff0000"/>
     <use xlink:href="#m0211708b05" x="90.040625" y="108.649219" style="fill: #ff0000; stroke: #ff0000"/>
     <use xlink:href="#m0211708b05" x="117.940625" y="114.229219" style="fill: #ff0000; stroke: #ff0000"/>
     <use xlink:href="#m0211708b05" x="145.840625" y="108.649219" style="fill: #ff0000; stroke: #ff0000"/>
     <use xlink:href="#m0211708b05" x="173.740625" y="94.699219" style="fill: #ff0000; stroke: #ff0000"/>
     <use xlink:href="#m0211708b05" x="201.640625" y="80.749219" style="fill: #ff0000; stroke: #ff0000"/>
     <use xlink:href="#m0211708b05" x="229.540625" y="72.379219" style="fill: #ff0000; stroke: #ff0000"/>
     <use xlink:href="#m0211708b05" x="257.440625" y="66.799219" style="fill: #ff0000; stroke: #ff0000"/>
     <use xlink:href="#m0211708b05" x="285.340625" y="58.429219" style="fill: #ff0000; stroke: #ff0000"/>
     <use xlink:href="#m0211708b05" x="313.240625" y="61.219219" style="fill: #ff0000; stroke: #ff0000"/>
    </g>
   </g>
   <g id="line2d_24">
    <path d="M 34.240625 103.744765 
L 37.030625 103.365002 
L 39.820625 102.98524 
L 42.610625 102.605478 
L 45.400625 102.225715 
L 48.190625 101.845953 
L 50.980625 101.466191 
L 53.770625 101.086428 
L 56.560625 100.706666 
L 59.350625 100.326904 
L 62.140625 99.947141 
L 64.930625 99.567379 
L 67.720625 99.187617 
L 70.510625 98.807854 
L 73.300625 98.428092 
L 76.090625 98.04833 
L 78.880625 97.668567 
L 81.670625 97.288805 
L 84.460625 96.909043 
L 87.250625 96.52928 
L 90.040625 96.149518 
L 92.830625 95.769756 
L 95.620625 95.389993 
L 98.410625 95.010231 
L 101.200625 94.630469 
L 103.990625 94.250706 
L 106.780625 93.870944 
L 109.570625 93.491182 
L 112.360625 93.111419 
L 115.150625 92.731657 
L 117.940625 92.351895 
L 120.730625 91.972132 
L 123.520625 91.59237 
L 126.310625 91.212608 
L 129.100625 90.832845 
L 131.890625 90.453083 
L 134.680625 90.073321 
L 137.470625 89.693558 
L 140.260625 89.313796 
L 143.050625 88.934034 
L 145.840625 88.554271 
L 148.630625 88.174509 
L 151.420625 87.794747 
L 154.210625 87.414984 
L 157.000625 87.035222 
L 159.790625 86.65546 
L 162.580625 86.275697 
L 165.370625 85.895935 
L 168.160625 85.516173 
L 170.950625 85.13641 
L 173.740625 84.756648 
L 176.530625 84.376886 
L 179.320625 83.997123 
L 182.110625 83.617361 
L 184.900625 83.237599 
L 187.690625 82.857837 
L 190.480625 82.478074 
L 193.270625 82.098312 
L 196.060625 81.71855 
L 198.850625 81.338787 
L 201.640625 80.959025 
L 204.430625 80.579263 
L 207.220625 80.1995 
L 210.010625 79.819738 
L 212.800625 79.439976 
L 215.590625 79.060213 
L 218.380625 78.680451 
L 221.170625 78.300689 
L 223.960625 77.920926 
L 226.750625 77.541164 
L 229.540625 77.161402 
L 232.330625 76.781639 
L 235.120625 76.401877 
L 237.910625 76.022115 
L 240.700625 75.642352 
L 243.490625 75.26259 
L 246.280625 74.882828 
L 249.070625 74.503065 
L 251.860625 74.123303 
L 254.650625 73.743541 
L 257.440625 73.363778 
L 260.230625 72.984016 
L 263.020625 72.604254 
L 265.810625 72.224491 
L 268.600625 71.844729 
L 271.390625 71.464967 
L 274.180625 71.085204 
L 276.970625 70.705442 
L 279.760625 70.32568 
L 282.550625 69.945917 
L 285.340625 69.566155 
L 288.130625 69.186393 
L 290.920625 68.80663 
L 293.710625 68.426868 
L 296.500625 68.047106 
L 299.290625 67.667343 
L 302.080625 67.287581 
L 304.870625 66.907819 
L 307.660625 66.528056 
L 310.450625 66.148294 
L 313.240625 65.768532 
L 316.030625 65.388769 
L 318.820625 65.009007 
L 321.610625 64.629245 
L 324.400625 64.249482 
L 327.190625 63.86972 
L 329.980625 63.489958 
L 332.770625 63.110195 
L 335.560625 62.730433 
L 338.350625 62.350671 
" clip-path="url(#p4a7618501a)" style="fill: none; stroke: #1f77b4; stroke-width: 1.5; stroke-linecap: square"/>
   </g>
   <g id="line2d_25">
    <path d="M 34.240625 111.626996 
L 37.030625 111.143014 
L 39.820625 110.659031 
L 42.610625 110.175049 
L 45.400625 109.691066 
L 48.190625 109.207084 
L 50.980625 108.723102 
L 53.770625 108.239119 
L 56.560625 107.755137 
L 59.350625 107.271155 
L 62.140625 106.787172 
L 64.930625 106.30319 
L 67.720625 105.819207 
L 70.510625 105.335225 
L 73.300625 104.851243 
L 76.090625 104.36726 
L 78.880625 103.883278 
L 81.670625 103.399295 
L 84.460625 102.915313 
L 87.250625 102.431331 
L 90.040625 101.947348 
L 92.830625 101.463366 
L 95.620625 100.979383 
L 98.410625 100.495401 
L 101.200625 100.011419 
L 103.990625 99.527436 
L 106.780625 99.043454 
L 109.570625 98.559471 
L 112.360625 98.075489 
L 115.150625 97.591507 
L 117.940625 97.107524 
L 120.730625 96.623542 
L 123.520625 96.13956 
L 126.310625 95.655577 
L 129.100625 95.171595 
L 131.890625 94.687612 
L 134.680625 94.20363 
L 137.470625 93.719648 
L 140.260625 93.235665 
L 143.050625 92.751683 
L 145.840625 92.2677 
L 148.630625 91.783718 
L 151.420625 91.299736 
L 154.210625 90.815753 
L 157.000625 90.331771 
L 159.790625 89.847788 
L 162.580625 89.363806 
L 165.370625 88.879824 
L 168.160625 88.395841 
L 170.950625 87.911859 
L 173.740625 87.427877 
L 176.530625 86.943894 
L 179.320625 86.459912 
L 182.110625 85.975929 
L 184.900625 85.491947 
L 187.690625 85.007965 
L 190.480625 84.523982 
L 193.270625 84.04 
L 196.060625 83.556017 
L 198.850625 83.072035 
L 201.640625 82.588053 
L 204.430625 82.10407 
L 207.220625 81.620088 
L 210.010625 81.136105 
L 212.800625 80.652123 
L 215.590625 80.168141 
L 218.380625 79.684158 
L 221.170625 79.200176 
L 223.960625 78.716194 
L 226.750625 78.232211 
L 229.540625 77.748229 
L 232.330625 77.264246 
L 235.120625 76.780264 
L 237.910625 76.296282 
L 240.700625 75.812299 
L 243.490625 75.328317 
L 246.280625 74.844334 
L 249.070625 74.360352 
L 251.860625 73.87637 
L 254.650625 73.392387 
L 257.440625 72.908405 
L 260.230625 72.424422 
L 263.020625 71.94044 
L 265.810625 71.456458 
L 268.600625 70.972475 
L 271.390625 70.488493 
L 274.180625 70.00451 
L 276.970625 69.520528 
L 279.760625 69.036546 
L 282.550625 68.552563 
L 285.340625 68.068581 
L 288.130625 67.584599 
L 290.920625 67.100616 
L 293.710625 66.616634 
L 296.500625 66.132651 
L 299.290625 65.648669 
L 302.080625 65.164687 
L 304.870625 64.680704 
L 307.660625 64.196722 
L 310.450625 63.712739 
L 313.240625 63.228757 
L 316.030625 62.744775 
L 318.820625 62.260792 
L 321.610625 61.77681 
L 324.400625 61.292827 
L 327.190625 60.808845 
L 329.980625 60.324863 
L 332.770625 59.84088 
L 335.560625 59.356898 
L 338.350625 58.872916 
" clip-path="url(#p4a7618501a)" style="fill: none; stroke: #ff7f0e; stroke-width: 1.5; stroke-linecap: square"/>
   </g>
   <g id="line2d_26">
    <path d="M 34.240625 123.865707 
L 37.030625 123.200136 
L 39.820625 122.534565 
L 42.610625 121.868994 
L 45.400625 121.203423 
L 48.190625 120.537853 
L 50.980625 119.872282 
L 53.770625 119.206711 
L 56.560625 118.54114 
L 59.350625 117.87557 
L 62.140625 117.209999 
L 64.930625 116.544428 
L 67.720625 115.878857 
L 70.510625 115.213286 
L 73.300625 114.547716 
L 76.090625 113.882145 
L 78.880625 113.216574 
L 81.670625 112.551003 
L 84.460625 111.885432 
L 87.250625 111.219862 
L 90.040625 110.554291 
L 92.830625 109.88872 
L 95.620625 109.223149 
L 98.410625 108.557579 
L 101.200625 107.892008 
L 103.990625 107.226437 
L 106.780625 106.560866 
L 109.570625 105.895295 
L 112.360625 105.229725 
L 115.150625 104.564154 
L 117.940625 103.898583 
L 120.730625 103.233012 
L 123.520625 102.567441 
L 126.310625 101.901871 
L 129.100625 101.2363 
L 131.890625 100.570729 
L 134.680625 99.905158 
L 137.470625 99.239588 
L 140.260625 98.574017 
L 143.050625 97.908446 
L 145.840625 97.242875 
L 148.630625 96.577304 
L 151.420625 95.911734 
L 154.210625 95.246163 
L 157.000625 94.580592 
L 159.790625 93.915021 
L 162.580625 93.24945 
L 165.370625 92.58388 
L 168.160625 91.918309 
L 170.950625 91.252738 
L 173.740625 90.587167 
L 176.530625 89.921597 
L 179.320625 89.256026 
L 182.110625 88.590455 
L 184.900625 87.924884 
L 187.690625 87.259313 
L 190.480625 86.593743 
L 193.270625 85.928172 
L 196.060625 85.262601 
L 198.850625 84.59703 
L 201.640625 83.931459 
L 204.430625 83.265889 
L 207.220625 82.600318 
L 210.010625 81.934747 
L 212.800625 81.269176 
L 215.590625 80.603606 
L 218.380625 79.938035 
L 221.170625 79.272464 
L 223.960625 78.606893 
L 226.750625 77.941322 
L 229.540625 77.275752 
L 232.330625 76.610181 
L 235.120625 75.94461 
L 237.910625 75.279039 
L 240.700625 74.613468 
L 243.490625 73.947898 
L 246.280625 73.282327 
L 249.070625 72.616756 
L 251.860625 71.951185 
L 254.650625 71.285615 
L 257.440625 70.620044 
L 260.230625 69.954473 
L 263.020625 69.288902 
L 265.810625 68.623331 
L 268.600625 67.957761 
L 271.390625 67.29219 
L 274.180625 66.626619 
L 276.970625 65.961048 
L 279.760625 65.295477 
L 282.550625 64.629907 
L 285.340625 63.964336 
L 288.130625 63.298765 
L 290.920625 62.633194 
L 293.710625 61.967624 
L 296.500625 61.302053 
L 299.290625 60.636482 
L 302.080625 59.970911 
L 304.870625 59.30534 
L 307.660625 58.63977 
L 310.450625 57.974199 
L 313.240625 57.308628 
L 316.030625 56.643057 
L 318.820625 55.977486 
L 321.610625 55.311916 
L 324.400625 54.646345 
L 327.190625 53.980774 
L 329.980625 53.315203 
L 332.770625 52.649633 
L 335.560625 51.984062 
L 338.350625 51.318491 
" clip-path="url(#p4a7618501a)" style="fill: none; stroke: #2ca02c; stroke-width: 1.5; stroke-linecap: square"/>
   </g>
   <g id="line2d_27">
    <path d="M 34.240625 128.737219 
L 37.030625 128.001673 
L 39.820625 127.266128 
L 42.610625 126.530582 
L 45.400625 125.795037 
L 48.190625 125.059491 
L 50.980625 124.323946 
L 53.770625 123.588401 
L 56.560625 122.852855 
L 59.350625 122.11731 
L 62.140625 121.381764 
L 64.930625 120.646219 
L 67.720625 119.910673 
L 70.510625 119.175128 
L 73.300625 118.439582 
L 76.090625 117.704037 
L 78.880625 116.968491 
L 81.670625 116.232946 
L 84.460625 115.497401 
L 87.250625 114.761855 
L 90.040625 114.02631 
L 92.830625 113.290764 
L 95.620625 112.555219 
L 98.410625 111.819673 
L 101.200625 111.084128 
L 103.990625 110.348582 
L 106.780625 109.613037 
L 109.570625 108.877491 
L 112.360625 108.141946 
L 115.150625 107.406401 
L 117.940625 106.670855 
L 120.730625 105.93531 
L 123.520625 105.199764 
L 126.310625 104.464219 
L 129.100625 103.728673 
L 131.890625 102.993128 
L 134.680625 102.257582 
L 137.470625 101.522037 
L 140.260625 100.786491 
L 143.050625 100.050946 
L 145.840625 99.315401 
L 148.630625 98.579855 
L 151.420625 97.84431 
L 154.210625 97.108764 
L 157.000625 96.373219 
L 159.790625 95.637673 
L 162.580625 94.902128 
L 165.370625 94.166582 
L 168.160625 93.431037 
L 170.950625 92.695491 
L 173.740625 91.959946 
L 176.530625 91.224401 
L 179.320625 90.488855 
L 182.110625 89.75331 
L 184.900625 89.017764 
L 187.690625 88.282219 
L 190.480625 87.546673 
L 193.270625 86.811128 
L 196.060625 86.075582 
L 198.850625 85.340037 
L 201.640625 84.604491 
L 204.430625 83.868946 
L 207.220625 83.133401 
L 210.010625 82.397855 
L 212.800625 81.66231 
L 215.590625 80.926764 
L 218.380625 80.191219 
L 221.170625 79.455673 
L 223.960625 78.720128 
L 226.750625 77.984582 
L 229.540625 77.249037 
L 232.330625 76.513491 
L 235.120625 75.777946 
L 237.910625 75.042401 
L 240.700625 74.306855 
L 243.490625 73.57131 
L 246.280625 72.835764 
L 249.070625 72.100219 
L 251.860625 71.364673 
L 254.650625 70.629128 
L 257.440625 69.893582 
L 260.230625 69.158037 
L 263.020625 68.422491 
L 265.810625 67.686946 
L 268.600625 66.951401 
L 271.390625 66.215855 
L 274.180625 65.48031 
L 276.970625 64.744764 
L 279.760625 64.009219 
L 282.550625 63.273673 
L 285.340625 62.538128 
L 288.130625 61.802582 
L 290.920625 61.067037 
L 293.710625 60.331491 
L 296.500625 59.595946 
L 299.290625 58.860401 
L 302.080625 58.124855 
L 304.870625 57.38931 
L 307.660625 56.653764 
L 310.450625 55.918219 
L 313.240625 55.182673 
L 316.030625 54.447128 
L 318.820625 53.711582 
L 321.610625 52.976037 
L 324.400625 52.240491 
L 327.190625 51.504946 
L 329.980625 50.769401 
L 332.770625 50.033855 
L 335.560625 49.29831 
L 338.350625 48.562764 
" clip-path="url(#p4a7618501a)" style="fill: none; stroke: #d62728; stroke-width: 1.5; stroke-linecap: square"/>
   </g>
   <g id="patch_3">
    <path d="M 34.240625 122.599219 
L 34.240625 10.999219 
" style="fill: none; stroke: #000000; stroke-width: 0.8; stroke-linejoin: miter; stroke-linecap: square"/>
   </g>
   <g id="patch_4">
    <path d="M 341.140625 122.599219 
L 341.140625 10.999219 
" style="fill: none; stroke: #000000; stroke-width: 0.8; stroke-linejoin: miter; stroke-linecap: square"/>
   </g>
   <g id="patch_5">
    <path d="M 34.240625 122.599219 
L 341.140625 122.599219 
" style="fill: none; stroke: #000000; stroke-width: 0.8; stroke-linejoin: miter; stroke-linecap: square"/>
   </g>
   <g id="patch_6">
    <path d="M 34.240625 10.999219 
L 341.140625 10.999219 
" style="fill: none; stroke: #000000; stroke-width: 0.8; stroke-linejoin: miter; stroke-linecap: square"/>
   </g>
   <g id="legend_1">
    <g id="patch_7">
     <path d="M 41.240625 92.389844 
L 158.840625 92.389844 
Q 160.840625 92.389844 160.840625 90.389844 
L 160.840625 17.999219 
Q 160.840625 15.999219 158.840625 15.999219 
L 41.240625 15.999219 
Q 39.240625 15.999219 39.240625 17.999219 
L 39.240625 90.389844 
Q 39.240625 92.389844 41.240625 92.389844 
z
" style="fill: #ffffff; opacity: 0.8; stroke: #cccccc; stroke-linejoin: miter"/>
    </g>
    <g id="line2d_28">
     <g>
      <use xlink:href="#m0211708b05" x="53.240625" y="24.097656" style="fill: #ff0000; stroke: #ff0000"/>
     </g>
    </g>
    <g id="text_14">
     <!-- observations -->
     <g transform="translate(71.240625 27.597656) scale(0.1 -0.1)">
      <defs>
       <path id="DejaVuSans-6f" d="M 1959 3097 
Q 1497 3097 1228 2736 
Q 959 2375 959 1747 
Q 959 1119 1226 758 
Q 1494 397 1959 397 
Q 2419 397 2687 759 
Q 2956 1122 2956 1747 
Q 2956 2369 2687 2733 
Q 2419 3097 1959 3097 
z
M 1959 3584 
Q 2709 3584 3137 3096 
Q 3566 2609 3566 1747 
Q 3566 888 3137 398 
Q 2709 -91 1959 -91 
Q 1206 -91 779 398 
Q 353 888 353 1747 
Q 353 2609 779 3096 
Q 1206 3584 1959 3584 
z
" transform="scale(0.015625)"/>
       <path id="DejaVuSans-62" d="M 3116 1747 
Q 3116 2381 2855 2742 
Q 2594 3103 2138 3103 
Q 1681 3103 1420 2742 
Q 1159 2381 1159 1747 
Q 1159 1113 1420 752 
Q 1681 391 2138 391 
Q 2594 391 2855 752 
Q 3116 1113 3116 1747 
z
M 1159 2969 
Q 1341 3281 1617 3432 
Q 1894 3584 2278 3584 
Q 2916 3584 3314 3078 
Q 3713 2572 3713 1747 
Q 3713 922 3314 415 
Q 2916 -91 2278 -91 
Q 1894 -91 1617 61 
Q 1341 213 1159 525 
L 1159 0 
L 581 0 
L 581 4863 
L 1159 4863 
L 1159 2969 
z
" transform="scale(0.015625)"/>
       <path id="DejaVuSans-73" d="M 2834 3397 
L 2834 2853 
Q 2591 2978 2328 3040 
Q 2066 3103 1784 3103 
Q 1356 3103 1142 2972 
Q 928 2841 928 2578 
Q 928 2378 1081 2264 
Q 1234 2150 1697 2047 
L 1894 2003 
Q 2506 1872 2764 1633 
Q 3022 1394 3022 966 
Q 3022 478 2636 193 
Q 2250 -91 1575 -91 
Q 1294 -91 989 -36 
Q 684 19 347 128 
L 347 722 
Q 666 556 975 473 
Q 1284 391 1588 391 
Q 1994 391 2212 530 
Q 2431 669 2431 922 
Q 2431 1156 2273 1281 
Q 2116 1406 1581 1522 
L 1381 1569 
Q 847 1681 609 1914 
Q 372 2147 372 2553 
Q 372 3047 722 3315 
Q 1072 3584 1716 3584 
Q 2034 3584 2315 3537 
Q 2597 3491 2834 3397 
z
" transform="scale(0.015625)"/>
       <path id="DejaVuSans-65" d="M 3597 1894 
L 3597 1613 
L 953 1613 
Q 991 1019 1311 708 
Q 1631 397 2203 397 
Q 2534 397 2845 478 
Q 3156 559 3463 722 
L 3463 178 
Q 3153 47 2828 -22 
Q 2503 -91 2169 -91 
Q 1331 -91 842 396 
Q 353 884 353 1716 
Q 353 2575 817 3079 
Q 1281 3584 2069 3584 
Q 2775 3584 3186 3129 
Q 3597 2675 3597 1894 
z
M 3022 2063 
Q 3016 2534 2758 2815 
Q 2500 3097 2075 3097 
Q 1594 3097 1305 2825 
Q 1016 2553 972 2059 
L 3022 2063 
z
" transform="scale(0.015625)"/>
       <path id="DejaVuSans-72" d="M 2631 2963 
Q 2534 3019 2420 3045 
Q 2306 3072 2169 3072 
Q 1681 3072 1420 2755 
Q 1159 2438 1159 1844 
L 1159 0 
L 581 0 
L 581 3500 
L 1159 3500 
L 1159 2956 
Q 1341 3275 1631 3429 
Q 1922 3584 2338 3584 
Q 2397 3584 2469 3576 
Q 2541 3569 2628 3553 
L 2631 2963 
z
" transform="scale(0.015625)"/>
       <path id="DejaVuSans-76" d="M 191 3500 
L 800 3500 
L 1894 563 
L 2988 3500 
L 3597 3500 
L 2284 0 
L 1503 0 
L 191 3500 
z
" transform="scale(0.015625)"/>
       <path id="DejaVuSans-61" d="M 2194 1759 
Q 1497 1759 1228 1600 
Q 959 1441 959 1056 
Q 959 750 1161 570 
Q 1363 391 1709 391 
Q 2188 391 2477 730 
Q 2766 1069 2766 1631 
L 2766 1759 
L 2194 1759 
z
M 3341 1997 
L 3341 0 
L 2766 0 
L 2766 531 
Q 2569 213 2275 61 
Q 1981 -91 1556 -91 
Q 1019 -91 701 211 
Q 384 513 384 1019 
Q 384 1609 779 1909 
Q 1175 2209 1959 2209 
L 2766 2209 
L 2766 2266 
Q 2766 2663 2505 2880 
Q 2244 3097 1772 3097 
Q 1472 3097 1187 3025 
Q 903 2953 641 2809 
L 641 3341 
Q 956 3463 1253 3523 
Q 1550 3584 1831 3584 
Q 2591 3584 2966 3190 
Q 3341 2797 3341 1997 
z
" transform="scale(0.015625)"/>
       <path id="DejaVuSans-74" d="M 1172 4494 
L 1172 3500 
L 2356 3500 
L 2356 3053 
L 1172 3053 
L 1172 1153 
Q 1172 725 1289 603 
Q 1406 481 1766 481 
L 2356 481 
L 2356 0 
L 1766 0 
Q 1100 0 847 248 
Q 594 497 594 1153 
L 594 3053 
L 172 3053 
L 172 3500 
L 594 3500 
L 594 4494 
L 1172 4494 
z
" transform="scale(0.015625)"/>
       <path id="DejaVuSans-69" d="M 603 3500 
L 1178 3500 
L 1178 0 
L 603 0 
L 603 3500 
z
M 603 4863 
L 1178 4863 
L 1178 4134 
L 603 4134 
L 603 4863 
z
" transform="scale(0.015625)"/>
       <path id="DejaVuSans-6e" d="M 3513 2113 
L 3513 0 
L 2938 0 
L 2938 2094 
Q 2938 2591 2744 2837 
Q 2550 3084 2163 3084 
Q 1697 3084 1428 2787 
Q 1159 2491 1159 1978 
L 1159 0 
L 581 0 
L 581 3500 
L 1159 3500 
L 1159 2956 
Q 1366 3272 1645 3428 
Q 1925 3584 2291 3584 
Q 2894 3584 3203 3211 
Q 3513 2838 3513 2113 
z
" transform="scale(0.015625)"/>
      </defs>
      <use xlink:href="#DejaVuSans-6f"/>
      <use xlink:href="#DejaVuSans-62" x="61.181641"/>
      <use xlink:href="#DejaVuSans-73" x="124.658203"/>
      <use xlink:href="#DejaVuSans-65" x="176.757812"/>
      <use xlink:href="#DejaVuSans-72" x="238.28125"/>
      <use xlink:href="#DejaVuSans-76" x="279.394531"/>
      <use xlink:href="#DejaVuSans-61" x="338.574219"/>
      <use xlink:href="#DejaVuSans-74" x="399.853516"/>
      <use xlink:href="#DejaVuSans-69" x="439.0625"/>
      <use xlink:href="#DejaVuSans-6f" x="466.845703"/>
      <use xlink:href="#DejaVuSans-6e" x="528.027344"/>
      <use xlink:href="#DejaVuSans-73" x="591.40625"/>
     </g>
    </g>
    <g id="line2d_29">
     <path d="M 43.240625 38.775781 
L 53.240625 38.775781 
L 63.240625 38.775781 
" style="fill: none; stroke: #1f77b4; stroke-width: 1.5; stroke-linecap: square"/>
    </g>
    <g id="text_15">
     <!-- #I=$1$ -->
     <g transform="translate(71.240625 42.275781) scale(0.1 -0.1)">
      <defs>
       <path id="DejaVuSans-23" d="M 3272 2816 
L 2363 2816 
L 2100 1772 
L 3016 1772 
L 3272 2816 
z
M 2803 4594 
L 2478 3297 
L 3391 3297 
L 3719 4594 
L 4219 4594 
L 3897 3297 
L 4872 3297 
L 4872 2816 
L 3775 2816 
L 3519 1772 
L 4513 1772 
L 4513 1294 
L 3397 1294 
L 3072 0 
L 2572 0 
L 2894 1294 
L 1978 1294 
L 1656 0 
L 1153 0 
L 1478 1294 
L 494 1294 
L 494 1772 
L 1594 1772 
L 1856 2816 
L 850 2816 
L 850 3297 
L 1978 3297 
L 2297 4594 
L 2803 4594 
z
" transform="scale(0.015625)"/>
       <path id="DejaVuSans-49" d="M 628 4666 
L 1259 4666 
L 1259 0 
L 628 0 
L 628 4666 
z
" transform="scale(0.015625)"/>
       <path id="DejaVuSans-3d" d="M 678 2906 
L 4684 2906 
L 4684 2381 
L 678 2381 
L 678 2906 
z
M 678 1631 
L 4684 1631 
L 4684 1100 
L 678 1100 
L 678 1631 
z
" transform="scale(0.015625)"/>
      </defs>
      <use xlink:href="#DejaVuSans-23" transform="translate(0 0.09375)"/>
      <use xlink:href="#DejaVuSans-49" transform="translate(83.789062 0.09375)"/>
      <use xlink:href="#DejaVuSans-3d" transform="translate(113.28125 0.09375)"/>
      <use xlink:href="#DejaVuSans-31" transform="translate(197.070312 0.09375)"/>
     </g>
    </g>
    <g id="line2d_30">
     <path d="M 43.240625 53.453906 
L 53.240625 53.453906 
L 63.240625 53.453906 
" style="fill: none; stroke: #ff7f0e; stroke-width: 1.5; stroke-linecap: square"/>
    </g>
    <g id="text_16">
     <!-- #I=$3$ -->
     <g transform="translate(71.240625 56.953906) scale(0.1 -0.1)">
      <use xlink:href="#DejaVuSans-23" transform="translate(0 0.78125)"/>
      <use xlink:href="#DejaVuSans-49" transform="translate(83.789062 0.78125)"/>
      <use xlink:href="#DejaVuSans-3d" transform="translate(113.28125 0.78125)"/>
      <use xlink:href="#DejaVuSans-33" transform="translate(197.070312 0.78125)"/>
     </g>
    </g>
    <g id="line2d_31">
     <path d="M 43.240625 68.132031 
L 53.240625 68.132031 
L 63.240625 68.132031 
" style="fill: none; stroke: #2ca02c; stroke-width: 1.5; stroke-linecap: square"/>
    </g>
    <g id="text_17">
     <!-- #I=$3$ GD $n=100$ -->
     <g transform="translate(71.240625 71.632031) scale(0.1 -0.1)">
      <defs>
       <path id="DejaVuSans-20" transform="scale(0.015625)"/>
       <path id="DejaVuSans-47" d="M 3809 666 
L 3809 1919 
L 2778 1919 
L 2778 2438 
L 4434 2438 
L 4434 434 
Q 4069 175 3628 42 
Q 3188 -91 2688 -91 
Q 1594 -91 976 548 
Q 359 1188 359 2328 
Q 359 3472 976 4111 
Q 1594 4750 2688 4750 
Q 3144 4750 3555 4637 
Q 3966 4525 4313 4306 
L 4313 3634 
Q 3963 3931 3569 4081 
Q 3175 4231 2741 4231 
Q 1884 4231 1454 3753 
Q 1025 3275 1025 2328 
Q 1025 1384 1454 906 
Q 1884 428 2741 428 
Q 3075 428 3337 486 
Q 3600 544 3809 666 
z
" transform="scale(0.015625)"/>
       <path id="DejaVuSans-44" d="M 1259 4147 
L 1259 519 
L 2022 519 
Q 2988 519 3436 956 
Q 3884 1394 3884 2338 
Q 3884 3275 3436 3711 
Q 2988 4147 2022 4147 
L 1259 4147 
z
M 628 4666 
L 1925 4666 
Q 3281 4666 3915 4102 
Q 4550 3538 4550 2338 
Q 4550 1131 3912 565 
Q 3275 0 1925 0 
L 628 0 
L 628 4666 
z
" transform="scale(0.015625)"/>
       <path id="DejaVuSans-Oblique-6e" d="M 3566 2113 
L 3156 0 
L 2578 0 
L 2988 2091 
Q 3016 2238 3031 2350 
Q 3047 2463 3047 2528 
Q 3047 2791 2881 2937 
Q 2716 3084 2419 3084 
Q 1956 3084 1622 2776 
Q 1288 2469 1184 1941 
L 800 0 
L 225 0 
L 903 3500 
L 1478 3500 
L 1363 2950 
Q 1603 3253 1940 3418 
Q 2278 3584 2650 3584 
Q 3113 3584 3367 3334 
Q 3622 3084 3622 2631 
Q 3622 2519 3608 2391 
Q 3594 2263 3566 2113 
z
" transform="scale(0.015625)"/>
      </defs>
      <use xlink:href="#DejaVuSans-23" transform="translate(0 0.78125)"/>
      <use xlink:href="#DejaVuSans-49" transform="translate(83.789062 0.78125)"/>
      <use xlink:href="#DejaVuSans-3d" transform="translate(113.28125 0.78125)"/>
      <use xlink:href="#DejaVuSans-33" transform="translate(197.070312 0.78125)"/>
      <use xlink:href="#DejaVuSans-20" transform="translate(260.693359 0.78125)"/>
      <use xlink:href="#DejaVuSans-47" transform="translate(292.480469 0.78125)"/>
      <use xlink:href="#DejaVuSans-44" transform="translate(369.970703 0.78125)"/>
      <use xlink:href="#DejaVuSans-20" transform="translate(446.972656 0.78125)"/>
      <use xlink:href="#DejaVuSans-Oblique-6e" transform="translate(478.759766 0.78125)"/>
      <use xlink:href="#DejaVuSans-3d" transform="translate(561.621094 0.78125)"/>
      <use xlink:href="#DejaVuSans-31" transform="translate(664.892578 0.78125)"/>
      <use xlink:href="#DejaVuSans-30" transform="translate(728.515625 0.78125)"/>
      <use xlink:href="#DejaVuSans-30" transform="translate(792.138672 0.78125)"/>
     </g>
    </g>
    <g id="line2d_32">
     <path d="M 43.240625 82.810156 
L 53.240625 82.810156 
L 63.240625 82.810156 
" style="fill: none; stroke: #d62728; stroke-width: 1.5; stroke-linecap: square"/>
    </g>
    <g id="text_18">
     <!-- $E_2$ -->
     <g transform="translate(71.240625 86.310156) scale(0.1 -0.1)">
      <defs>
       <path id="DejaVuSans-Oblique-45" d="M 1081 4666 
L 4031 4666 
L 3928 4134 
L 1606 4134 
L 1338 2753 
L 3566 2753 
L 3463 2222 
L 1234 2222 
L 909 531 
L 3284 531 
L 3181 0 
L 172 0 
L 1081 4666 
z
" transform="scale(0.015625)"/>
      </defs>
      <use xlink:href="#DejaVuSans-Oblique-45" transform="translate(0 0.09375)"/>
      <use xlink:href="#DejaVuSans-32" transform="translate(63.183594 -16.3125) scale(0.7)"/>
     </g>
    </g>
   </g>
  </g>
 </g>
 <defs>
  <clipPath id="p4a7618501a">
   <rect x="34.240625" y="10.999219" width="306.9" height="111.6"/>
  </clipPath>
 </defs>
</svg>
