<?xml version="1.0" encoding="utf-8" standalone="no"?>
<!DOCTYPE svg PUBLIC "-//W3C//DTD SVG 1.1//EN"
  "http://www.w3.org/Graphics/SVG/1.1/DTD/svg11.dtd">
<svg xmlns:xlink="http://www.w3.org/1999/xlink" width="380.153125pt" height="225.118125pt" viewBox="0 0 380.153125 225.118125" xmlns="http://www.w3.org/2000/svg" version="1.1">
 <metadata>
  <rdf:RDF xmlns:dc="http://purl.org/dc/elements/1.1/" xmlns:cc="http://creativecommons.org/ns#" xmlns:rdf="http://www.w3.org/1999/02/22-rdf-syntax-ns#">
   <cc:Work>
    <dc:type rdf:resource="http://purl.org/dc/dcmitype/StillImage"/>
    <dc:date>2025-01-14T09:38:21.327720</dc:date>
    <dc:format>image/svg+xml</dc:format>
    <dc:creator>
     <cc:Agent>
      <dc:title>Matplotlib v3.9.2, https://matplotlib.org/</dc:title>
     </cc:Agent>
    </dc:creator>
   </cc:Work>
  </rdf:RDF>
 </metadata>
 <defs>
  <style type="text/css">*{stroke-linejoin: round; stroke-linecap: butt}</style>
 </defs>
 <g id="figure_1">
  <g id="patch_1">
   <path d="M 0 225.118125 
L 380.153125 225.118125 
L 380.153125 0 
L 0 0 
z
" style="fill: #ffffff"/>
  </g>
  <g id="axes_1">
   <g id="patch_2">
    <path d="M 66.053125 201.24 
L 372.953125 201.24 
L 372.953125 7.2 
L 66.053125 7.2 
z
" style="fill: #ffffff"/>
   </g>
   <g id="matplotlib.axis_1">
    <g id="xtick_1">
     <g id="line2d_1">
      <path d="M 80.003125 201.24 
L 80.003125 7.2 
" clip-path="url(#pe25fee19dc)" style="fill: none; stroke: #b0b0b0; stroke-width: 0.8; stroke-linecap: square"/>
     </g>
     <g id="line2d_2">
      <defs>
       <path id="me52ec32fe9" d="M 0 0 
L 0 3.5 
" style="stroke: #000000; stroke-width: 0.8"/>
      </defs>
      <g>
       <use xlink:href="#me52ec32fe9" x="80.003125" y="201.24" style="stroke: #000000; stroke-width: 0.8"/>
      </g>
     </g>
     <g id="text_1">
      <!-- 2010 -->
      <g transform="translate(67.278125 215.838438) scale(0.1 -0.1)">
       <defs>
        <path id="DejaVuSans-32" d="M 1228 531 
L 3431 531 
L 3431 0 
L 469 0 
L 469 531 
Q 828 903 1448 1529 
Q 2069 2156 2228 2338 
Q 2531 2678 2651 2914 
Q 2772 3150 2772 3378 
Q 2772 3750 2511 3984 
Q 2250 4219 1831 4219 
Q 1534 4219 1204 4116 
Q 875 4013 500 3803 
L 500 4441 
Q 881 4594 1212 4672 
Q 1544 4750 1819 4750 
Q 2544 4750 2975 4387 
Q 3406 4025 3406 3419 
Q 3406 3131 3298 2873 
Q 3191 2616 2906 2266 
Q 2828 2175 2409 1742 
Q 1991 1309 1228 531 
z
" transform="scale(0.015625)"/>
        <path id="DejaVuSans-30" d="M 2034 4250 
Q 1547 4250 1301 3770 
Q 1056 3291 1056 2328 
Q 1056 1369 1301 889 
Q 1547 409 2034 409 
Q 2525 409 2770 889 
Q 3016 1369 3016 2328 
Q 3016 3291 2770 3770 
Q 2525 4250 2034 4250 
z
M 2034 4750 
Q 2819 4750 3233 4129 
Q 3647 3509 3647 2328 
Q 3647 1150 3233 529 
Q 2819 -91 2034 -91 
Q 1250 -91 836 529 
Q 422 1150 422 2328 
Q 422 3509 836 4129 
Q 1250 4750 2034 4750 
z
" transform="scale(0.015625)"/>
        <path id="DejaVuSans-31" d="M 794 531 
L 1825 531 
L 1825 4091 
L 703 3866 
L 703 4441 
L 1819 4666 
L 2450 4666 
L 2450 531 
L 3481 531 
L 3481 0 
L 794 0 
L 794 531 
z
" transform="scale(0.015625)"/>
       </defs>
       <use xlink:href="#DejaVuSans-32"/>
       <use xlink:href="#DejaVuSans-30" x="63.623047"/>
       <use xlink:href="#DejaVuSans-31" x="127.246094"/>
       <use xlink:href="#DejaVuSans-30" x="190.869141"/>
      </g>
     </g>
    </g>
    <g id="xtick_2">
     <g id="line2d_3">
      <path d="M 108.183413 201.24 
L 108.183413 7.2 
" clip-path="url(#pe25fee19dc)" style="fill: none; stroke: #b0b0b0; stroke-width: 0.8; stroke-linecap: square"/>
     </g>
     <g id="line2d_4">
      <g>
       <use xlink:href="#me52ec32fe9" x="108.183413" y="201.24" style="stroke: #000000; stroke-width: 0.8"/>
      </g>
     </g>
     <g id="text_2">
      <!-- 2011 -->
      <g transform="translate(95.458413 215.838438) scale(0.1 -0.1)">
       <use xlink:href="#DejaVuSans-32"/>
       <use xlink:href="#DejaVuSans-30" x="63.623047"/>
       <use xlink:href="#DejaVuSans-31" x="127.246094"/>
       <use xlink:href="#DejaVuSans-31" x="190.869141"/>
      </g>
     </g>
    </g>
    <g id="xtick_3">
     <g id="line2d_5">
      <path d="M 136.363701 201.24 
L 136.363701 7.2 
" clip-path="url(#pe25fee19dc)" style="fill: none; stroke: #b0b0b0; stroke-width: 0.8; stroke-linecap: square"/>
     </g>
     <g id="line2d_6">
      <g>
       <use xlink:href="#me52ec32fe9" x="136.363701" y="201.24" style="stroke: #000000; stroke-width: 0.8"/>
      </g>
     </g>
     <g id="text_3">
      <!-- 2012 -->
      <g transform="translate(123.638701 215.838438) scale(0.1 -0.1)">
       <use xlink:href="#DejaVuSans-32"/>
       <use xlink:href="#DejaVuSans-30" x="63.623047"/>
       <use xlink:href="#DejaVuSans-31" x="127.246094"/>
       <use xlink:href="#DejaVuSans-32" x="190.869141"/>
      </g>
     </g>
    </g>
    <g id="xtick_4">
     <g id="line2d_7">
      <path d="M 164.543988 201.24 
L 164.543988 7.2 
" clip-path="url(#pe25fee19dc)" style="fill: none; stroke: #b0b0b0; stroke-width: 0.8; stroke-linecap: square"/>
     </g>
     <g id="line2d_8">
      <g>
       <use xlink:href="#me52ec32fe9" x="164.543988" y="201.24" style="stroke: #000000; stroke-width: 0.8"/>
      </g>
     </g>
     <g id="text_4">
      <!-- 2013 -->
      <g transform="translate(151.818988 215.838438) scale(0.1 -0.1)">
       <defs>
        <path id="DejaVuSans-33" d="M 2597 2516 
Q 3050 2419 3304 2112 
Q 3559 1806 3559 1356 
Q 3559 666 3084 287 
Q 2609 -91 1734 -91 
Q 1441 -91 1130 -33 
Q 819 25 488 141 
L 488 750 
Q 750 597 1062 519 
Q 1375 441 1716 441 
Q 2309 441 2620 675 
Q 2931 909 2931 1356 
Q 2931 1769 2642 2001 
Q 2353 2234 1838 2234 
L 1294 2234 
L 1294 2753 
L 1863 2753 
Q 2328 2753 2575 2939 
Q 2822 3125 2822 3475 
Q 2822 3834 2567 4026 
Q 2313 4219 1838 4219 
Q 1578 4219 1281 4162 
Q 984 4106 628 3988 
L 628 4550 
Q 988 4650 1302 4700 
Q 1616 4750 1894 4750 
Q 2613 4750 3031 4423 
Q 3450 4097 3450 3541 
Q 3450 3153 3228 2886 
Q 3006 2619 2597 2516 
z
" transform="scale(0.015625)"/>
       </defs>
       <use xlink:href="#DejaVuSans-32"/>
       <use xlink:href="#DejaVuSans-30" x="63.623047"/>
       <use xlink:href="#DejaVuSans-31" x="127.246094"/>
       <use xlink:href="#DejaVuSans-33" x="190.869141"/>
      </g>
     </g>
    </g>
    <g id="xtick_5">
     <g id="line2d_9">
      <path d="M 192.724276 201.24 
L 192.724276 7.2 
" clip-path="url(#pe25fee19dc)" style="fill: none; stroke: #b0b0b0; stroke-width: 0.8; stroke-linecap: square"/>
     </g>
     <g id="line2d_10">
      <g>
       <use xlink:href="#me52ec32fe9" x="192.724276" y="201.24" style="stroke: #000000; stroke-width: 0.8"/>
      </g>
     </g>
     <g id="text_5">
      <!-- 2014 -->
      <g transform="translate(179.999276 215.838438) scale(0.1 -0.1)">
       <defs>
        <path id="DejaVuSans-34" d="M 2419 4116 
L 825 1625 
L 2419 1625 
L 2419 4116 
z
M 2253 4666 
L 3047 4666 
L 3047 1625 
L 3713 1625 
L 3713 1100 
L 3047 1100 
L 3047 0 
L 2419 0 
L 2419 1100 
L 313 1100 
L 313 1709 
L 2253 4666 
z
" transform="scale(0.015625)"/>
       </defs>
       <use xlink:href="#DejaVuSans-32"/>
       <use xlink:href="#DejaVuSans-30" x="63.623047"/>
       <use xlink:href="#DejaVuSans-31" x="127.246094"/>
       <use xlink:href="#DejaVuSans-34" x="190.869141"/>
      </g>
     </g>
    </g>
    <g id="xtick_6">
     <g id="line2d_11">
      <path d="M 220.904564 201.24 
L 220.904564 7.2 
" clip-path="url(#pe25fee19dc)" style="fill: none; stroke: #b0b0b0; stroke-width: 0.8; stroke-linecap: square"/>
     </g>
     <g id="line2d_12">
      <g>
       <use xlink:href="#me52ec32fe9" x="220.904564" y="201.24" style="stroke: #000000; stroke-width: 0.8"/>
      </g>
     </g>
     <g id="text_6">
      <!-- 2015 -->
      <g transform="translate(208.179564 215.838438) scale(0.1 -0.1)">
       <defs>
        <path id="DejaVuSans-35" d="M 691 4666 
L 3169 4666 
L 3169 4134 
L 1269 4134 
L 1269 2991 
Q 1406 3038 1543 3061 
Q 1681 3084 1819 3084 
Q 2600 3084 3056 2656 
Q 3513 2228 3513 1497 
Q 3513 744 3044 326 
Q 2575 -91 1722 -91 
Q 1428 -91 1123 -41 
Q 819 9 494 109 
L 494 744 
Q 775 591 1075 516 
Q 1375 441 1709 441 
Q 2250 441 2565 725 
Q 2881 1009 2881 1497 
Q 2881 1984 2565 2268 
Q 2250 2553 1709 2553 
Q 1456 2553 1204 2497 
Q 953 2441 691 2322 
L 691 4666 
z
" transform="scale(0.015625)"/>
       </defs>
       <use xlink:href="#DejaVuSans-32"/>
       <use xlink:href="#DejaVuSans-30" x="63.623047"/>
       <use xlink:href="#DejaVuSans-31" x="127.246094"/>
       <use xlink:href="#DejaVuSans-35" x="190.869141"/>
      </g>
     </g>
    </g>
    <g id="xtick_7">
     <g id="line2d_13">
      <path d="M 249.084852 201.24 
L 249.084852 7.2 
" clip-path="url(#pe25fee19dc)" style="fill: none; stroke: #b0b0b0; stroke-width: 0.8; stroke-linecap: square"/>
     </g>
     <g id="line2d_14">
      <g>
       <use xlink:href="#me52ec32fe9" x="249.084852" y="201.24" style="stroke: #000000; stroke-width: 0.8"/>
      </g>
     </g>
     <g id="text_7">
      <!-- 2016 -->
      <g transform="translate(236.359852 215.838438) scale(0.1 -0.1)">
       <defs>
        <path id="DejaVuSans-36" d="M 2113 2584 
Q 1688 2584 1439 2293 
Q 1191 2003 1191 1497 
Q 1191 994 1439 701 
Q 1688 409 2113 409 
Q 2538 409 2786 701 
Q 3034 994 3034 1497 
Q 3034 2003 2786 2293 
Q 2538 2584 2113 2584 
z
M 3366 4563 
L 3366 3988 
Q 3128 4100 2886 4159 
Q 2644 4219 2406 4219 
Q 1781 4219 1451 3797 
Q 1122 3375 1075 2522 
Q 1259 2794 1537 2939 
Q 1816 3084 2150 3084 
Q 2853 3084 3261 2657 
Q 3669 2231 3669 1497 
Q 3669 778 3244 343 
Q 2819 -91 2113 -91 
Q 1303 -91 875 529 
Q 447 1150 447 2328 
Q 447 3434 972 4092 
Q 1497 4750 2381 4750 
Q 2619 4750 2861 4703 
Q 3103 4656 3366 4563 
z
" transform="scale(0.015625)"/>
       </defs>
       <use xlink:href="#DejaVuSans-32"/>
       <use xlink:href="#DejaVuSans-30" x="63.623047"/>
       <use xlink:href="#DejaVuSans-31" x="127.246094"/>
       <use xlink:href="#DejaVuSans-36" x="190.869141"/>
      </g>
     </g>
    </g>
    <g id="xtick_8">
     <g id="line2d_15">
      <path d="M 277.26514 201.24 
L 277.26514 7.2 
" clip-path="url(#pe25fee19dc)" style="fill: none; stroke: #b0b0b0; stroke-width: 0.8; stroke-linecap: square"/>
     </g>
     <g id="line2d_16">
      <g>
       <use xlink:href="#me52ec32fe9" x="277.26514" y="201.24" style="stroke: #000000; stroke-width: 0.8"/>
      </g>
     </g>
     <g id="text_8">
      <!-- 2017 -->
      <g transform="translate(264.54014 215.838438) scale(0.1 -0.1)">
       <defs>
        <path id="DejaVuSans-37" d="M 525 4666 
L 3525 4666 
L 3525 4397 
L 1831 0 
L 1172 0 
L 2766 4134 
L 525 4134 
L 525 4666 
z
" transform="scale(0.015625)"/>
       </defs>
       <use xlink:href="#DejaVuSans-32"/>
       <use xlink:href="#DejaVuSans-30" x="63.623047"/>
       <use xlink:href="#DejaVuSans-31" x="127.246094"/>
       <use xlink:href="#DejaVuSans-37" x="190.869141"/>
      </g>
     </g>
    </g>
    <g id="xtick_9">
     <g id="line2d_17">
      <path d="M 305.445427 201.24 
L 305.445427 7.2 
" clip-path="url(#pe25fee19dc)" style="fill: none; stroke: #b0b0b0; stroke-width: 0.8; stroke-linecap: square"/>
     </g>
     <g id="line2d_18">
      <g>
       <use xlink:href="#me52ec32fe9" x="305.445427" y="201.24" style="stroke: #000000; stroke-width: 0.8"/>
      </g>
     </g>
     <g id="text_9">
      <!-- 2018 -->
      <g transform="translate(292.720427 215.838438) scale(0.1 -0.1)">
       <defs>
        <path id="DejaVuSans-38" d="M 2034 2216 
Q 1584 2216 1326 1975 
Q 1069 1734 1069 1313 
Q 1069 891 1326 650 
Q 1584 409 2034 409 
Q 2484 409 2743 651 
Q 3003 894 3003 1313 
Q 3003 1734 2745 1975 
Q 2488 2216 2034 2216 
z
M 1403 2484 
Q 997 2584 770 2862 
Q 544 3141 544 3541 
Q 544 4100 942 4425 
Q 1341 4750 2034 4750 
Q 2731 4750 3128 4425 
Q 3525 4100 3525 3541 
Q 3525 3141 3298 2862 
Q 3072 2584 2669 2484 
Q 3125 2378 3379 2068 
Q 3634 1759 3634 1313 
Q 3634 634 3220 271 
Q 2806 -91 2034 -91 
Q 1263 -91 848 271 
Q 434 634 434 1313 
Q 434 1759 690 2068 
Q 947 2378 1403 2484 
z
M 1172 3481 
Q 1172 3119 1398 2916 
Q 1625 2713 2034 2713 
Q 2441 2713 2670 2916 
Q 2900 3119 2900 3481 
Q 2900 3844 2670 4047 
Q 2441 4250 2034 4250 
Q 1625 4250 1398 4047 
Q 1172 3844 1172 3481 
z
" transform="scale(0.015625)"/>
       </defs>
       <use xlink:href="#DejaVuSans-32"/>
       <use xlink:href="#DejaVuSans-30" x="63.623047"/>
       <use xlink:href="#DejaVuSans-31" x="127.246094"/>
       <use xlink:href="#DejaVuSans-38" x="190.869141"/>
      </g>
     </g>
    </g>
    <g id="xtick_10">
     <g id="line2d_19">
      <path d="M 333.625715 201.24 
L 333.625715 7.2 
" clip-path="url(#pe25fee19dc)" style="fill: none; stroke: #b0b0b0; stroke-width: 0.8; stroke-linecap: square"/>
     </g>
     <g id="line2d_20">
      <g>
       <use xlink:href="#me52ec32fe9" x="333.625715" y="201.24" style="stroke: #000000; stroke-width: 0.8"/>
      </g>
     </g>
     <g id="text_10">
      <!-- 2019 -->
      <g transform="translate(320.900715 215.838438) scale(0.1 -0.1)">
       <defs>
        <path id="DejaVuSans-39" d="M 703 97 
L 703 672 
Q 941 559 1184 500 
Q 1428 441 1663 441 
Q 2288 441 2617 861 
Q 2947 1281 2994 2138 
Q 2813 1869 2534 1725 
Q 2256 1581 1919 1581 
Q 1219 1581 811 2004 
Q 403 2428 403 3163 
Q 403 3881 828 4315 
Q 1253 4750 1959 4750 
Q 2769 4750 3195 4129 
Q 3622 3509 3622 2328 
Q 3622 1225 3098 567 
Q 2575 -91 1691 -91 
Q 1453 -91 1209 -44 
Q 966 3 703 97 
z
M 1959 2075 
Q 2384 2075 2632 2365 
Q 2881 2656 2881 3163 
Q 2881 3666 2632 3958 
Q 2384 4250 1959 4250 
Q 1534 4250 1286 3958 
Q 1038 3666 1038 3163 
Q 1038 2656 1286 2365 
Q 1534 2075 1959 2075 
z
" transform="scale(0.015625)"/>
       </defs>
       <use xlink:href="#DejaVuSans-32"/>
       <use xlink:href="#DejaVuSans-30" x="63.623047"/>
       <use xlink:href="#DejaVuSans-31" x="127.246094"/>
       <use xlink:href="#DejaVuSans-39" x="190.869141"/>
      </g>
     </g>
    </g>
   </g>
   <g id="matplotlib.axis_2">
    <g id="ytick_1">
     <g id="line2d_21">
      <path d="M 66.053125 196.166558 
L 372.953125 196.166558 
" clip-path="url(#pe25fee19dc)" style="fill: none; stroke: #b0b0b0; stroke-width: 0.8; stroke-linecap: square"/>
     </g>
     <g id="line2d_22">
      <defs>
       <path id="m591cbfd4a1" d="M 0 0 
L -3.5 0 
" style="stroke: #000000; stroke-width: 0.8"/>
      </defs>
      <g>
       <use xlink:href="#m591cbfd4a1" x="66.053125" y="196.166558" style="stroke: #000000; stroke-width: 0.8"/>
      </g>
     </g>
     <g id="text_11">
      <!-- 200000 -->
      <g transform="translate(20.878125 199.965776) scale(0.1 -0.1)">
       <use xlink:href="#DejaVuSans-32"/>
       <use xlink:href="#DejaVuSans-30" x="63.623047"/>
       <use xlink:href="#DejaVuSans-30" x="127.246094"/>
       <use xlink:href="#DejaVuSans-30" x="190.869141"/>
       <use xlink:href="#DejaVuSans-30" x="254.492188"/>
       <use xlink:href="#DejaVuSans-30" x="318.115234"/>
      </g>
     </g>
    </g>
    <g id="ytick_2">
     <g id="line2d_23">
      <path d="M 66.053125 156.132032 
L 372.953125 156.132032 
" clip-path="url(#pe25fee19dc)" style="fill: none; stroke: #b0b0b0; stroke-width: 0.8; stroke-linecap: square"/>
     </g>
     <g id="line2d_24">
      <g>
       <use xlink:href="#m591cbfd4a1" x="66.053125" y="156.132032" style="stroke: #000000; stroke-width: 0.8"/>
      </g>
     </g>
     <g id="text_12">
      <!-- 250000 -->
      <g transform="translate(20.878125 159.931251) scale(0.1 -0.1)">
       <use xlink:href="#DejaVuSans-32"/>
       <use xlink:href="#DejaVuSans-35" x="63.623047"/>
       <use xlink:href="#DejaVuSans-30" x="127.246094"/>
       <use xlink:href="#DejaVuSans-30" x="190.869141"/>
       <use xlink:href="#DejaVuSans-30" x="254.492188"/>
       <use xlink:href="#DejaVuSans-30" x="318.115234"/>
      </g>
     </g>
    </g>
    <g id="ytick_3">
     <g id="line2d_25">
      <path d="M 66.053125 116.097506 
L 372.953125 116.097506 
" clip-path="url(#pe25fee19dc)" style="fill: none; stroke: #b0b0b0; stroke-width: 0.8; stroke-linecap: square"/>
     </g>
     <g id="line2d_26">
      <g>
       <use xlink:href="#m591cbfd4a1" x="66.053125" y="116.097506" style="stroke: #000000; stroke-width: 0.8"/>
      </g>
     </g>
     <g id="text_13">
      <!-- 300000 -->
      <g transform="translate(20.878125 119.896725) scale(0.1 -0.1)">
       <use xlink:href="#DejaVuSans-33"/>
       <use xlink:href="#DejaVuSans-30" x="63.623047"/>
       <use xlink:href="#DejaVuSans-30" x="127.246094"/>
       <use xlink:href="#DejaVuSans-30" x="190.869141"/>
       <use xlink:href="#DejaVuSans-30" x="254.492188"/>
       <use xlink:href="#DejaVuSans-30" x="318.115234"/>
      </g>
     </g>
    </g>
    <g id="ytick_4">
     <g id="line2d_27">
      <path d="M 66.053125 76.062981 
L 372.953125 76.062981 
" clip-path="url(#pe25fee19dc)" style="fill: none; stroke: #b0b0b0; stroke-width: 0.8; stroke-linecap: square"/>
     </g>
     <g id="line2d_28">
      <g>
       <use xlink:href="#m591cbfd4a1" x="66.053125" y="76.062981" style="stroke: #000000; stroke-width: 0.8"/>
      </g>
     </g>
     <g id="text_14">
      <!-- 350000 -->
      <g transform="translate(20.878125 79.8622) scale(0.1 -0.1)">
       <use xlink:href="#DejaVuSans-33"/>
       <use xlink:href="#DejaVuSans-35" x="63.623047"/>
       <use xlink:href="#DejaVuSans-30" x="127.246094"/>
       <use xlink:href="#DejaVuSans-30" x="190.869141"/>
       <use xlink:href="#DejaVuSans-30" x="254.492188"/>
       <use xlink:href="#DejaVuSans-30" x="318.115234"/>
      </g>
     </g>
    </g>
    <g id="ytick_5">
     <g id="line2d_29">
      <path d="M 66.053125 36.028455 
L 372.953125 36.028455 
" clip-path="url(#pe25fee19dc)" style="fill: none; stroke: #b0b0b0; stroke-width: 0.8; stroke-linecap: square"/>
     </g>
     <g id="line2d_30">
      <g>
       <use xlink:href="#m591cbfd4a1" x="66.053125" y="36.028455" style="stroke: #000000; stroke-width: 0.8"/>
      </g>
     </g>
     <g id="text_15">
      <!-- 400000 -->
      <g transform="translate(20.878125 39.827674) scale(0.1 -0.1)">
       <use xlink:href="#DejaVuSans-34"/>
       <use xlink:href="#DejaVuSans-30" x="63.623047"/>
       <use xlink:href="#DejaVuSans-30" x="127.246094"/>
       <use xlink:href="#DejaVuSans-30" x="190.869141"/>
       <use xlink:href="#DejaVuSans-30" x="254.492188"/>
       <use xlink:href="#DejaVuSans-30" x="318.115234"/>
      </g>
     </g>
    </g>
    <g id="text_16">
     <!-- Unemployment -->
     <g transform="translate(14.798438 142.652813) rotate(-90) scale(0.1 -0.1)">
      <defs>
       <path id="DejaVuSans-55" d="M 556 4666 
L 1191 4666 
L 1191 1831 
Q 1191 1081 1462 751 
Q 1734 422 2344 422 
Q 2950 422 3222 751 
Q 3494 1081 3494 1831 
L 3494 4666 
L 4128 4666 
L 4128 1753 
Q 4128 841 3676 375 
Q 3225 -91 2344 -91 
Q 1459 -91 1007 375 
Q 556 841 556 1753 
L 556 4666 
z
" transform="scale(0.015625)"/>
       <path id="DejaVuSans-6e" d="M 3513 2113 
L 3513 0 
L 2938 0 
L 2938 2094 
Q 2938 2591 2744 2837 
Q 2550 3084 2163 3084 
Q 1697 3084 1428 2787 
Q 1159 2491 1159 1978 
L 1159 0 
L 581 0 
L 581 3500 
L 1159 3500 
L 1159 2956 
Q 1366 3272 1645 3428 
Q 1925 3584 2291 3584 
Q 2894 3584 3203 3211 
Q 3513 2838 3513 2113 
z
" transform="scale(0.015625)"/>
       <path id="DejaVuSans-65" d="M 3597 1894 
L 3597 1613 
L 953 1613 
Q 991 1019 1311 708 
Q 1631 397 2203 397 
Q 2534 397 2845 478 
Q 3156 559 3463 722 
L 3463 178 
Q 3153 47 2828 -22 
Q 2503 -91 2169 -91 
Q 1331 -91 842 396 
Q 353 884 353 1716 
Q 353 2575 817 3079 
Q 1281 3584 2069 3584 
Q 2775 3584 3186 3129 
Q 3597 2675 3597 1894 
z
M 3022 2063 
Q 3016 2534 2758 2815 
Q 2500 3097 2075 3097 
Q 1594 3097 1305 2825 
Q 1016 2553 972 2059 
L 3022 2063 
z
" transform="scale(0.015625)"/>
       <path id="DejaVuSans-6d" d="M 3328 2828 
Q 3544 3216 3844 3400 
Q 4144 3584 4550 3584 
Q 5097 3584 5394 3201 
Q 5691 2819 5691 2113 
L 5691 0 
L 5113 0 
L 5113 2094 
Q 5113 2597 4934 2840 
Q 4756 3084 4391 3084 
Q 3944 3084 3684 2787 
Q 3425 2491 3425 1978 
L 3425 0 
L 2847 0 
L 2847 2094 
Q 2847 2600 2669 2842 
Q 2491 3084 2119 3084 
Q 1678 3084 1418 2786 
Q 1159 2488 1159 1978 
L 1159 0 
L 581 0 
L 581 3500 
L 1159 3500 
L 1159 2956 
Q 1356 3278 1631 3431 
Q 1906 3584 2284 3584 
Q 2666 3584 2933 3390 
Q 3200 3197 3328 2828 
z
" transform="scale(0.015625)"/>
       <path id="DejaVuSans-70" d="M 1159 525 
L 1159 -1331 
L 581 -1331 
L 581 3500 
L 1159 3500 
L 1159 2969 
Q 1341 3281 1617 3432 
Q 1894 3584 2278 3584 
Q 2916 3584 3314 3078 
Q 3713 2572 3713 1747 
Q 3713 922 3314 415 
Q 2916 -91 2278 -91 
Q 1894 -91 1617 61 
Q 1341 213 1159 525 
z
M 3116 1747 
Q 3116 2381 2855 2742 
Q 2594 3103 2138 3103 
Q 1681 3103 1420 2742 
Q 1159 2381 1159 1747 
Q 1159 1113 1420 752 
Q 1681 391 2138 391 
Q 2594 391 2855 752 
Q 3116 1113 3116 1747 
z
" transform="scale(0.015625)"/>
       <path id="DejaVuSans-6c" d="M 603 4863 
L 1178 4863 
L 1178 0 
L 603 0 
L 603 4863 
z
" transform="scale(0.015625)"/>
       <path id="DejaVuSans-6f" d="M 1959 3097 
Q 1497 3097 1228 2736 
Q 959 2375 959 1747 
Q 959 1119 1226 758 
Q 1494 397 1959 397 
Q 2419 397 2687 759 
Q 2956 1122 2956 1747 
Q 2956 2369 2687 2733 
Q 2419 3097 1959 3097 
z
M 1959 3584 
Q 2709 3584 3137 3096 
Q 3566 2609 3566 1747 
Q 3566 888 3137 398 
Q 2709 -91 1959 -91 
Q 1206 -91 779 398 
Q 353 888 353 1747 
Q 353 2609 779 3096 
Q 1206 3584 1959 3584 
z
" transform="scale(0.015625)"/>
       <path id="DejaVuSans-79" d="M 2059 -325 
Q 1816 -950 1584 -1140 
Q 1353 -1331 966 -1331 
L 506 -1331 
L 506 -850 
L 844 -850 
Q 1081 -850 1212 -737 
Q 1344 -625 1503 -206 
L 1606 56 
L 191 3500 
L 800 3500 
L 1894 763 
L 2988 3500 
L 3597 3500 
L 2059 -325 
z
" transform="scale(0.015625)"/>
       <path id="DejaVuSans-74" d="M 1172 4494 
L 1172 3500 
L 2356 3500 
L 2356 3053 
L 1172 3053 
L 1172 1153 
Q 1172 725 1289 603 
Q 1406 481 1766 481 
L 2356 481 
L 2356 0 
L 1766 0 
Q 1100 0 847 248 
Q 594 497 594 1153 
L 594 3053 
L 172 3053 
L 172 3500 
L 594 3500 
L 594 4494 
L 1172 4494 
z
" transform="scale(0.015625)"/>
      </defs>
      <use xlink:href="#DejaVuSans-55"/>
      <use xlink:href="#DejaVuSans-6e" x="73.193359"/>
      <use xlink:href="#DejaVuSans-65" x="136.572266"/>
      <use xlink:href="#DejaVuSans-6d" x="198.095703"/>
      <use xlink:href="#DejaVuSans-70" x="295.507812"/>
      <use xlink:href="#DejaVuSans-6c" x="358.984375"/>
      <use xlink:href="#DejaVuSans-6f" x="386.767578"/>
      <use xlink:href="#DejaVuSans-79" x="447.949219"/>
      <use xlink:href="#DejaVuSans-6d" x="507.128906"/>
      <use xlink:href="#DejaVuSans-65" x="604.541016"/>
      <use xlink:href="#DejaVuSans-6e" x="666.064453"/>
      <use xlink:href="#DejaVuSans-74" x="729.443359"/>
     </g>
    </g>
   </g>
   <g id="line2d_31">
    <defs>
     <path id="mba1aaefeff" d="M 0 3 
C 0.795609 3 1.55874 2.683901 2.12132 2.12132 
C 2.683901 1.55874 3 0.795609 3 0 
C 3 -0.795609 2.683901 -1.55874 2.12132 -2.12132 
C 1.55874 -2.683901 0.795609 -3 0 -3 
C -0.795609 -3 -1.55874 -2.683901 -2.12132 -2.12132 
C -2.683901 -1.55874 -3 -0.795609 -3 0 
C -3 0.795609 -2.683901 1.55874 -2.12132 2.12132 
C -1.55874 2.683901 -0.795609 3 0 3 
z
" style="stroke: #ff0000"/>
    </defs>
    <g clip-path="url(#pe25fee19dc)">
     <use xlink:href="#mba1aaefeff" x="80.003125" y="97.160375" style="fill: #ff0000; stroke: #ff0000"/>
     <use xlink:href="#mba1aaefeff" x="82.351482" y="105.763795" style="fill: #ff0000; stroke: #ff0000"/>
     <use xlink:href="#mba1aaefeff" x="84.472579" y="143.064763" style="fill: #ff0000; stroke: #ff0000"/>
     <use xlink:href="#mba1aaefeff" x="86.820937" y="156.389054" style="fill: #ff0000; stroke: #ff0000"/>
     <use xlink:href="#mba1aaefeff" x="89.09354" y="174.476652" style="fill: #ff0000; stroke: #ff0000"/>
     <use xlink:href="#mba1aaefeff" x="91.441898" y="185.955351" style="fill: #ff0000; stroke: #ff0000"/>
     <use xlink:href="#mba1aaefeff" x="93.714502" y="186.831307" style="fill: #ff0000; stroke: #ff0000"/>
     <use xlink:href="#mba1aaefeff" x="96.062859" y="181.435454" style="fill: #ff0000; stroke: #ff0000"/>
     <use xlink:href="#mba1aaefeff" x="98.411216" y="184.823175" style="fill: #ff0000; stroke: #ff0000"/>
     <use xlink:href="#mba1aaefeff" x="100.68382" y="175.23891" style="fill: #ff0000; stroke: #ff0000"/>
     <use xlink:href="#mba1aaefeff" x="103.032177" y="160.659136" style="fill: #ff0000; stroke: #ff0000"/>
     <use xlink:href="#mba1aaefeff" x="105.304781" y="114.272733" style="fill: #ff0000; stroke: #ff0000"/>
     <use xlink:href="#mba1aaefeff" x="107.653139" y="108.423689" style="fill: #ff0000; stroke: #ff0000"/>
     <use xlink:href="#mba1aaefeff" x="110.001496" y="122.296452" style="fill: #ff0000; stroke: #ff0000"/>
     <use xlink:href="#mba1aaefeff" x="112.122593" y="154.060646" style="fill: #ff0000; stroke: #ff0000"/>
     <use xlink:href="#mba1aaefeff" x="114.47095" y="167.098289" style="fill: #ff0000; stroke: #ff0000"/>
     <use xlink:href="#mba1aaefeff" x="116.743554" y="179.056602" style="fill: #ff0000; stroke: #ff0000"/>
     <use xlink:href="#mba1aaefeff" x="119.091911" y="189.805872" style="fill: #ff0000; stroke: #ff0000"/>
     <use xlink:href="#mba1aaefeff" x="121.364515" y="188.36543" style="fill: #ff0000; stroke: #ff0000"/>
     <use xlink:href="#mba1aaefeff" x="123.712872" y="180.755667" style="fill: #ff0000; stroke: #ff0000"/>
     <use xlink:href="#mba1aaefeff" x="126.06123" y="181.588385" style="fill: #ff0000; stroke: #ff0000"/>
     <use xlink:href="#mba1aaefeff" x="128.333834" y="168.137585" style="fill: #ff0000; stroke: #ff0000"/>
     <use xlink:href="#mba1aaefeff" x="130.682191" y="153.392069" style="fill: #ff0000; stroke: #ff0000"/>
     <use xlink:href="#mba1aaefeff" x="132.954795" y="112.291824" style="fill: #ff0000; stroke: #ff0000"/>
     <use xlink:href="#mba1aaefeff" x="135.303152" y="101.663459" style="fill: #ff0000; stroke: #ff0000"/>
     <use xlink:href="#mba1aaefeff" x="137.651509" y="108.039357" style="fill: #ff0000; stroke: #ff0000"/>
     <use xlink:href="#mba1aaefeff" x="139.84836" y="145.103321" style="fill: #ff0000; stroke: #ff0000"/>
     <use xlink:href="#mba1aaefeff" x="142.196717" y="154.672373" style="fill: #ff0000; stroke: #ff0000"/>
     <use xlink:href="#mba1aaefeff" x="144.469321" y="171.283499" style="fill: #ff0000; stroke: #ff0000"/>
     <use xlink:href="#mba1aaefeff" x="146.817678" y="180.096699" style="fill: #ff0000; stroke: #ff0000"/>
     <use xlink:href="#mba1aaefeff" x="149.090282" y="173.852114" style="fill: #ff0000; stroke: #ff0000"/>
     <use xlink:href="#mba1aaefeff" x="151.43864" y="170.015205" style="fill: #ff0000; stroke: #ff0000"/>
     <use xlink:href="#mba1aaefeff" x="153.786997" y="172.926515" style="fill: #ff0000; stroke: #ff0000"/>
     <use xlink:href="#mba1aaefeff" x="156.059601" y="156.202493" style="fill: #ff0000; stroke: #ff0000"/>
     <use xlink:href="#mba1aaefeff" x="158.407958" y="139.769121" style="fill: #ff0000; stroke: #ff0000"/>
     <use xlink:href="#mba1aaefeff" x="160.680562" y="97.696838" style="fill: #ff0000; stroke: #ff0000"/>
     <use xlink:href="#mba1aaefeff" x="163.028919" y="85.334176" style="fill: #ff0000; stroke: #ff0000"/>
     <use xlink:href="#mba1aaefeff" x="165.377277" y="94.958476" style="fill: #ff0000; stroke: #ff0000"/>
     <use xlink:href="#mba1aaefeff" x="167.498373" y="124.06838" style="fill: #ff0000; stroke: #ff0000"/>
     <use xlink:href="#mba1aaefeff" x="169.846731" y="137.619267" style="fill: #ff0000; stroke: #ff0000"/>
     <use xlink:href="#mba1aaefeff" x="172.119335" y="154.614723" style="fill: #ff0000; stroke: #ff0000"/>
     <use xlink:href="#mba1aaefeff" x="174.467692" y="162.343789" style="fill: #ff0000; stroke: #ff0000"/>
     <use xlink:href="#mba1aaefeff" x="176.740296" y="150.932348" style="fill: #ff0000; stroke: #ff0000"/>
     <use xlink:href="#mba1aaefeff" x="179.088653" y="145.653395" style="fill: #ff0000; stroke: #ff0000"/>
     <use xlink:href="#mba1aaefeff" x="181.43701" y="147.117057" style="fill: #ff0000; stroke: #ff0000"/>
     <use xlink:href="#mba1aaefeff" x="183.709614" y="131.842285" style="fill: #ff0000; stroke: #ff0000"/>
     <use xlink:href="#mba1aaefeff" x="186.057972" y="114.577796" style="fill: #ff0000; stroke: #ff0000"/>
     <use xlink:href="#mba1aaefeff" x="188.330575" y="67.031993" style="fill: #ff0000; stroke: #ff0000"/>
     <use xlink:href="#mba1aaefeff" x="190.678933" y="60.179683" style="fill: #ff0000; stroke: #ff0000"/>
     <use xlink:href="#mba1aaefeff" x="193.02729" y="70.662323" style="fill: #ff0000; stroke: #ff0000"/>
     <use xlink:href="#mba1aaefeff" x="195.148387" y="100.744266" style="fill: #ff0000; stroke: #ff0000"/>
     <use xlink:href="#mba1aaefeff" x="197.496744" y="110.078716" style="fill: #ff0000; stroke: #ff0000"/>
     <use xlink:href="#mba1aaefeff" x="199.769348" y="123.390196" style="fill: #ff0000; stroke: #ff0000"/>
     <use xlink:href="#mba1aaefeff" x="202.117706" y="130.857435" style="fill: #ff0000; stroke: #ff0000"/>
     <use xlink:href="#mba1aaefeff" x="204.390309" y="127.016523" style="fill: #ff0000; stroke: #ff0000"/>
     <use xlink:href="#mba1aaefeff" x="206.738667" y="122.246009" style="fill: #ff0000; stroke: #ff0000"/>
     <use xlink:href="#mba1aaefeff" x="209.087024" y="122.394937" style="fill: #ff0000; stroke: #ff0000"/>
     <use xlink:href="#mba1aaefeff" x="211.359628" y="107.84559" style="fill: #ff0000; stroke: #ff0000"/>
     <use xlink:href="#mba1aaefeff" x="213.707985" y="90.670778" style="fill: #ff0000; stroke: #ff0000"/>
     <use xlink:href="#mba1aaefeff" x="215.980589" y="41.093623" style="fill: #ff0000; stroke: #ff0000"/>
     <use xlink:href="#mba1aaefeff" x="218.328946" y="31.032947" style="fill: #ff0000; stroke: #ff0000"/>
     <use xlink:href="#mba1aaefeff" x="220.677304" y="37.95892" style="fill: #ff0000; stroke: #ff0000"/>
     <use xlink:href="#mba1aaefeff" x="222.798401" y="67.886329" style="fill: #ff0000; stroke: #ff0000"/>
     <use xlink:href="#mba1aaefeff" x="225.146758" y="74.47361" style="fill: #ff0000; stroke: #ff0000"/>
     <use xlink:href="#mba1aaefeff" x="227.419362" y="91.815766" style="fill: #ff0000; stroke: #ff0000"/>
     <use xlink:href="#mba1aaefeff" x="229.767719" y="99.945977" style="fill: #ff0000; stroke: #ff0000"/>
     <use xlink:href="#mba1aaefeff" x="232.040323" y="100.179779" style="fill: #ff0000; stroke: #ff0000"/>
     <use xlink:href="#mba1aaefeff" x="234.38868" y="94.362762" style="fill: #ff0000; stroke: #ff0000"/>
     <use xlink:href="#mba1aaefeff" x="236.737038" y="98.312569" style="fill: #ff0000; stroke: #ff0000"/>
     <use xlink:href="#mba1aaefeff" x="239.009641" y="84.540692" style="fill: #ff0000; stroke: #ff0000"/>
     <use xlink:href="#mba1aaefeff" x="241.357999" y="68.622164" style="fill: #ff0000; stroke: #ff0000"/>
     <use xlink:href="#mba1aaefeff" x="243.630603" y="22.005162" style="fill: #ff0000; stroke: #ff0000"/>
     <use xlink:href="#mba1aaefeff" x="245.97896" y="16.02" style="fill: #ff0000; stroke: #ff0000"/>
     <use xlink:href="#mba1aaefeff" x="248.327317" y="31.446904" style="fill: #ff0000; stroke: #ff0000"/>
     <use xlink:href="#mba1aaefeff" x="250.524168" y="61.990044" style="fill: #ff0000; stroke: #ff0000"/>
     <use xlink:href="#mba1aaefeff" x="252.872525" y="72.961106" style="fill: #ff0000; stroke: #ff0000"/>
     <use xlink:href="#mba1aaefeff" x="255.145129" y="88.56256" style="fill: #ff0000; stroke: #ff0000"/>
     <use xlink:href="#mba1aaefeff" x="257.493486" y="100.108518" style="fill: #ff0000; stroke: #ff0000"/>
     <use xlink:href="#mba1aaefeff" x="259.76609" y="99.078029" style="fill: #ff0000; stroke: #ff0000"/>
     <use xlink:href="#mba1aaefeff" x="262.114447" y="92.187286" style="fill: #ff0000; stroke: #ff0000"/>
     <use xlink:href="#mba1aaefeff" x="264.462805" y="97.49026" style="fill: #ff0000; stroke: #ff0000"/>
     <use xlink:href="#mba1aaefeff" x="266.735408" y="83.446148" style="fill: #ff0000; stroke: #ff0000"/>
     <use xlink:href="#mba1aaefeff" x="269.083766" y="71.523866" style="fill: #ff0000; stroke: #ff0000"/>
     <use xlink:href="#mba1aaefeff" x="271.35637" y="27.678054" style="fill: #ff0000; stroke: #ff0000"/>
     <use xlink:href="#mba1aaefeff" x="273.704727" y="18.203483" style="fill: #ff0000; stroke: #ff0000"/>
     <use xlink:href="#mba1aaefeff" x="276.053084" y="35.532828" style="fill: #ff0000; stroke: #ff0000"/>
     <use xlink:href="#mba1aaefeff" x="278.174181" y="72.802569" style="fill: #ff0000; stroke: #ff0000"/>
     <use xlink:href="#mba1aaefeff" x="280.522539" y="85.73292" style="fill: #ff0000; stroke: #ff0000"/>
     <use xlink:href="#mba1aaefeff" x="282.795142" y="101.667462" style="fill: #ff0000; stroke: #ff0000"/>
     <use xlink:href="#mba1aaefeff" x="285.1435" y="112.939583" style="fill: #ff0000; stroke: #ff0000"/>
     <use xlink:href="#mba1aaefeff" x="287.416104" y="110.339741" style="fill: #ff0000; stroke: #ff0000"/>
     <use xlink:href="#mba1aaefeff" x="289.764461" y="106.895971" style="fill: #ff0000; stroke: #ff0000"/>
     <use xlink:href="#mba1aaefeff" x="292.112818" y="113.821143" style="fill: #ff0000; stroke: #ff0000"/>
     <use xlink:href="#mba1aaefeff" x="294.385422" y="103.50905" style="fill: #ff0000; stroke: #ff0000"/>
     <use xlink:href="#mba1aaefeff" x="296.733779" y="94.578148" style="fill: #ff0000; stroke: #ff0000"/>
     <use xlink:href="#mba1aaefeff" x="299.006383" y="53.050335" style="fill: #ff0000; stroke: #ff0000"/>
     <use xlink:href="#mba1aaefeff" x="301.354741" y="52.675612" style="fill: #ff0000; stroke: #ff0000"/>
     <use xlink:href="#mba1aaefeff" x="303.703098" y="64.332865" style="fill: #ff0000; stroke: #ff0000"/>
     <use xlink:href="#mba1aaefeff" x="305.824195" y="98.559982" style="fill: #ff0000; stroke: #ff0000"/>
     <use xlink:href="#mba1aaefeff" x="308.172552" y="109.004189" style="fill: #ff0000; stroke: #ff0000"/>
     <use xlink:href="#mba1aaefeff" x="310.445156" y="127.189472" style="fill: #ff0000; stroke: #ff0000"/>
     <use xlink:href="#mba1aaefeff" x="312.793513" y="136.381399" style="fill: #ff0000; stroke: #ff0000"/>
     <use xlink:href="#mba1aaefeff" x="315.066117" y="130.043133" style="fill: #ff0000; stroke: #ff0000"/>
     <use xlink:href="#mba1aaefeff" x="317.414474" y="125.556864" style="fill: #ff0000; stroke: #ff0000"/>
     <use xlink:href="#mba1aaefeff" x="319.762832" y="132.192186" style="fill: #ff0000; stroke: #ff0000"/>
     <use xlink:href="#mba1aaefeff" x="322.035436" y="119.111305" style="fill: #ff0000; stroke: #ff0000"/>
     <use xlink:href="#mba1aaefeff" x="324.383793" y="110.243658" style="fill: #ff0000; stroke: #ff0000"/>
     <use xlink:href="#mba1aaefeff" x="326.656397" y="71.549488" style="fill: #ff0000; stroke: #ff0000"/>
     <use xlink:href="#mba1aaefeff" x="329.004754" y="61.667366" style="fill: #ff0000; stroke: #ff0000"/>
     <use xlink:href="#mba1aaefeff" x="331.353111" y="81.347538" style="fill: #ff0000; stroke: #ff0000"/>
     <use xlink:href="#mba1aaefeff" x="333.474208" y="112.565661" style="fill: #ff0000; stroke: #ff0000"/>
     <use xlink:href="#mba1aaefeff" x="335.822566" y="119.080079" style="fill: #ff0000; stroke: #ff0000"/>
     <use xlink:href="#mba1aaefeff" x="338.09517" y="132.953643" style="fill: #ff0000; stroke: #ff0000"/>
     <use xlink:href="#mba1aaefeff" x="340.443527" y="144.506006" style="fill: #ff0000; stroke: #ff0000"/>
     <use xlink:href="#mba1aaefeff" x="342.716131" y="138.695395" style="fill: #ff0000; stroke: #ff0000"/>
     <use xlink:href="#mba1aaefeff" x="345.064488" y="132.775089" style="fill: #ff0000; stroke: #ff0000"/>
     <use xlink:href="#mba1aaefeff" x="347.412845" y="138.438373" style="fill: #ff0000; stroke: #ff0000"/>
     <use xlink:href="#mba1aaefeff" x="349.685449" y="125.67937" style="fill: #ff0000; stroke: #ff0000"/>
     <use xlink:href="#mba1aaefeff" x="352.033807" y="116.476233" style="fill: #ff0000; stroke: #ff0000"/>
     <use xlink:href="#mba1aaefeff" x="354.30641" y="76.227122" style="fill: #ff0000; stroke: #ff0000"/>
     <use xlink:href="#mba1aaefeff" x="356.654768" y="71.791297" style="fill: #ff0000; stroke: #ff0000"/>
     <use xlink:href="#mba1aaefeff" x="359.003125" y="88.884438" style="fill: #ff0000; stroke: #ff0000"/>
    </g>
   </g>
   <g id="line2d_32">
    <path d="M 80.003125 107.905481 
L 82.351482 120.500243 
L 84.472579 155.513739 
L 86.820937 166.483416 
L 89.09354 182.500729 
L 91.441898 192.42 
L 93.714502 188.676486 
L 96.062859 183.240694 
L 98.411216 186.761699 
L 100.68382 173.106959 
L 103.032177 159.18478 
L 105.304781 114.913532 
L 107.653139 105.613295 
L 110.001496 117.315515 
L 112.122593 151.543899 
L 114.47095 161.667653 
L 116.743554 176.889651 
L 119.091911 186.011196 
L 121.364515 181.519011 
L 123.712872 175.333691 
L 126.06123 178.129661 
L 128.333834 163.796597 
L 130.682191 149.197582 
L 132.954795 104.294652 
L 135.303152 94.365775 
L 137.651509 105.463851 
L 139.84836 139.125267 
L 142.196717 148.690362 
L 144.469321 163.395108 
L 146.817678 172.006324 
L 149.090282 167.043657 
L 151.43864 160.396337 
L 153.786997 162.754869 
L 156.059601 148.021862 
L 158.407958 133.033738 
L 160.680562 87.777636 
L 163.028919 77.50798 
L 165.377277 88.289838 
L 167.498373 121.729088 
L 169.846731 131.025841 
L 172.119335 145.494223 
L 174.467692 153.885295 
L 176.740296 148.732906 
L 179.088653 141.91364 
L 181.43701 144.124719 
L 183.709614 129.272338 
L 186.057972 114.184958 
L 188.330575 68.856125 
L 190.678933 58.535411 
L 193.02729 69.290705 
L 195.148387 102.727016 
L 197.496744 112.043823 
L 199.769348 126.554933 
L 202.117706 135.014256 
L 204.390309 129.951238 
L 206.738667 123.248421 
L 209.087024 125.600443 
L 211.359628 110.90778 
L 213.707985 96.00954 
L 215.980589 50.887068 
L 218.328946 40.803692 
L 220.677304 51.820818 
L 222.798401 85.514676 
L 225.146758 95.139932 
L 227.419362 109.972863 
L 229.767719 118.788833 
L 232.040323 114.094279 
L 234.38868 107.796307 
L 236.737038 110.577667 
L 239.009641 96.323814 
L 241.357999 81.903111 
L 243.630603 37.266092 
L 245.97896 27.70845 
L 248.327317 39.275804 
L 250.524168 73.46498 
L 252.872525 83.689113 
L 255.145129 99.124987 
L 257.493486 108.588163 
L 259.76609 104.543324 
L 262.114447 98.940887 
L 264.462805 102.442344 
L 266.735408 88.908744 
L 269.083766 75.256468 
L 271.35637 31.386472 
L 273.704727 22.645587 
L 276.053084 35.054258 
L 278.174181 70.047158 
L 280.522539 81.157322 
L 282.795142 97.473967 
L 285.1435 107.871372 
L 287.416104 104.753946 
L 289.764461 100.133935 
L 292.112818 104.642312 
L 294.385422 92.106473 
L 296.733779 79.509314 
L 299.006383 36.683722 
L 301.354741 29.046152 
L 303.703098 42.582632 
L 305.824195 78.615252 
L 308.172552 90.899842 
L 310.445156 108.37635 
L 312.793513 119.996379 
L 315.066117 118.085459 
L 317.414474 114.73627 
L 319.762832 120.539963 
L 322.035436 109.280977 
L 324.383793 98.027331 
L 326.656397 56.525235 
L 329.004754 50.279376 
L 331.353111 65.232061 
L 333.474208 102.564886 
L 335.822566 116.312299 
L 338.09517 135.227763 
L 340.443527 148.358812 
L 342.716131 147.933491 
L 345.064488 146.14352 
L 347.412845 153.530924 
L 349.685449 143.827883 
L 352.033807 134.206147 
L 354.30641 94.306638 
L 356.654768 89.740886 
L 359.003125 106.398171 
" clip-path="url(#pe25fee19dc)" style="fill: none; stroke: #1f77b4; stroke-width: 1.5; stroke-linecap: square"/>
   </g>
   <g id="patch_3">
    <path d="M 66.053125 201.24 
L 66.053125 7.2 
" style="fill: none; stroke: #000000; stroke-width: 0.8; stroke-linejoin: miter; stroke-linecap: square"/>
   </g>
   <g id="patch_4">
    <path d="M 372.953125 201.24 
L 372.953125 7.2 
" style="fill: none; stroke: #000000; stroke-width: 0.8; stroke-linejoin: miter; stroke-linecap: square"/>
   </g>
   <g id="patch_5">
    <path d="M 66.053125 201.24 
L 372.953125 201.24 
" style="fill: none; stroke: #000000; stroke-width: 0.8; stroke-linejoin: miter; stroke-linecap: square"/>
   </g>
   <g id="patch_6">
    <path d="M 66.053125 7.2 
L 372.953125 7.2 
" style="fill: none; stroke: #000000; stroke-width: 0.8; stroke-linejoin: miter; stroke-linecap: square"/>
   </g>
  </g>
 </g>
 <defs>
  <clipPath id="pe25fee19dc">
   <rect x="66.053125" y="7.2" width="306.9" height="194.04"/>
  </clipPath>
 </defs>
</svg>
