<?xml version="1.0" encoding="utf-8" standalone="no"?>
<!DOCTYPE svg PUBLIC "-//W3C//DTD SVG 1.1//EN"
  "http://www.w3.org/Graphics/SVG/1.1/DTD/svg11.dtd">
<svg xmlns:xlink="http://www.w3.org/1999/xlink" width="348.340625pt" height="160.155469pt" viewBox="0 0 348.340625 160.155469" xmlns="http://www.w3.org/2000/svg" version="1.1">
 <metadata>
  <rdf:RDF xmlns:dc="http://purl.org/dc/elements/1.1/" xmlns:cc="http://creativecommons.org/ns#" xmlns:rdf="http://www.w3.org/1999/02/22-rdf-syntax-ns#">
   <cc:Work>
    <dc:type rdf:resource="http://purl.org/dc/dcmitype/StillImage"/>
    <dc:date>2025-01-14T12:27:53.497646</dc:date>
    <dc:format>image/svg+xml</dc:format>
    <dc:creator>
     <cc:Agent>
      <dc:title>Matplotlib v3.9.2, https://matplotlib.org/</dc:title>
     </cc:Agent>
    </dc:creator>
   </cc:Work>
  </rdf:RDF>
 </metadata>
 <defs>
  <style type="text/css">*{stroke-linejoin: round; stroke-linecap: butt}</style>
 </defs>
 <g id="figure_1">
  <g id="patch_1">
   <path d="M 0 160.155469 
L 348.340625 160.155469 
L 348.340625 0 
L 0 0 
z
" style="fill: #ffffff"/>
  </g>
  <g id="axes_1">
   <g id="patch_2">
    <path d="M 34.240625 122.599219 
L 341.140625 122.599219 
L 341.140625 10.999219 
L 34.240625 10.999219 
z
" style="fill: #ffffff"/>
   </g>
   <g id="matplotlib.axis_1">
    <g id="xtick_1">
     <g id="line2d_1">
      <path d="M 34.240625 122.599219 
L 34.240625 10.999219 
" clip-path="url(#pfd9d22057b)" style="fill: none; stroke: #b0b0b0; stroke-width: 0.8; stroke-linecap: square"/>
     </g>
     <g id="line2d_2">
      <defs>
       <path id="mb1c9c761e0" d="M 0 0 
L 0 3.5 
" style="stroke: #000000; stroke-width: 0.8"/>
      </defs>
      <g>
       <use xlink:href="#mb1c9c761e0" x="34.240625" y="122.599219" style="stroke: #000000; stroke-width: 0.8"/>
      </g>
     </g>
     <g id="text_1">
      <!-- 0 -->
      <g transform="translate(31.059375 137.197656) scale(0.1 -0.1)">
       <defs>
        <path id="DejaVuSans-30" d="M 2034 4250 
Q 1547 4250 1301 3770 
Q 1056 3291 1056 2328 
Q 1056 1369 1301 889 
Q 1547 409 2034 409 
Q 2525 409 2770 889 
Q 3016 1369 3016 2328 
Q 3016 3291 2770 3770 
Q 2525 4250 2034 4250 
z
M 2034 4750 
Q 2819 4750 3233 4129 
Q 3647 3509 3647 2328 
Q 3647 1150 3233 529 
Q 2819 -91 2034 -91 
Q 1250 -91 836 529 
Q 422 1150 422 2328 
Q 422 3509 836 4129 
Q 1250 4750 2034 4750 
z
" transform="scale(0.015625)"/>
       </defs>
       <use xlink:href="#DejaVuSans-30"/>
      </g>
     </g>
    </g>
    <g id="xtick_2">
     <g id="line2d_3">
      <path d="M 90.040625 122.599219 
L 90.040625 10.999219 
" clip-path="url(#pfd9d22057b)" style="fill: none; stroke: #b0b0b0; stroke-width: 0.8; stroke-linecap: square"/>
     </g>
     <g id="line2d_4">
      <g>
       <use xlink:href="#mb1c9c761e0" x="90.040625" y="122.599219" style="stroke: #000000; stroke-width: 0.8"/>
      </g>
     </g>
     <g id="text_2">
      <!-- 2 -->
      <g transform="translate(86.859375 137.197656) scale(0.1 -0.1)">
       <defs>
        <path id="DejaVuSans-32" d="M 1228 531 
L 3431 531 
L 3431 0 
L 469 0 
L 469 531 
Q 828 903 1448 1529 
Q 2069 2156 2228 2338 
Q 2531 2678 2651 2914 
Q 2772 3150 2772 3378 
Q 2772 3750 2511 3984 
Q 2250 4219 1831 4219 
Q 1534 4219 1204 4116 
Q 875 4013 500 3803 
L 500 4441 
Q 881 4594 1212 4672 
Q 1544 4750 1819 4750 
Q 2544 4750 2975 4387 
Q 3406 4025 3406 3419 
Q 3406 3131 3298 2873 
Q 3191 2616 2906 2266 
Q 2828 2175 2409 1742 
Q 1991 1309 1228 531 
z
" transform="scale(0.015625)"/>
       </defs>
       <use xlink:href="#DejaVuSans-32"/>
      </g>
     </g>
    </g>
    <g id="xtick_3">
     <g id="line2d_5">
      <path d="M 145.840625 122.599219 
L 145.840625 10.999219 
" clip-path="url(#pfd9d22057b)" style="fill: none; stroke: #b0b0b0; stroke-width: 0.8; stroke-linecap: square"/>
     </g>
     <g id="line2d_6">
      <g>
       <use xlink:href="#mb1c9c761e0" x="145.840625" y="122.599219" style="stroke: #000000; stroke-width: 0.8"/>
      </g>
     </g>
     <g id="text_3">
      <!-- 4 -->
      <g transform="translate(142.659375 137.197656) scale(0.1 -0.1)">
       <defs>
        <path id="DejaVuSans-34" d="M 2419 4116 
L 825 1625 
L 2419 1625 
L 2419 4116 
z
M 2253 4666 
L 3047 4666 
L 3047 1625 
L 3713 1625 
L 3713 1100 
L 3047 1100 
L 3047 0 
L 2419 0 
L 2419 1100 
L 313 1100 
L 313 1709 
L 2253 4666 
z
" transform="scale(0.015625)"/>
       </defs>
       <use xlink:href="#DejaVuSans-34"/>
      </g>
     </g>
    </g>
    <g id="xtick_4">
     <g id="line2d_7">
      <path d="M 201.640625 122.599219 
L 201.640625 10.999219 
" clip-path="url(#pfd9d22057b)" style="fill: none; stroke: #b0b0b0; stroke-width: 0.8; stroke-linecap: square"/>
     </g>
     <g id="line2d_8">
      <g>
       <use xlink:href="#mb1c9c761e0" x="201.640625" y="122.599219" style="stroke: #000000; stroke-width: 0.8"/>
      </g>
     </g>
     <g id="text_4">
      <!-- 6 -->
      <g transform="translate(198.459375 137.197656) scale(0.1 -0.1)">
       <defs>
        <path id="DejaVuSans-36" d="M 2113 2584 
Q 1688 2584 1439 2293 
Q 1191 2003 1191 1497 
Q 1191 994 1439 701 
Q 1688 409 2113 409 
Q 2538 409 2786 701 
Q 3034 994 3034 1497 
Q 3034 2003 2786 2293 
Q 2538 2584 2113 2584 
z
M 3366 4563 
L 3366 3988 
Q 3128 4100 2886 4159 
Q 2644 4219 2406 4219 
Q 1781 4219 1451 3797 
Q 1122 3375 1075 2522 
Q 1259 2794 1537 2939 
Q 1816 3084 2150 3084 
Q 2853 3084 3261 2657 
Q 3669 2231 3669 1497 
Q 3669 778 3244 343 
Q 2819 -91 2113 -91 
Q 1303 -91 875 529 
Q 447 1150 447 2328 
Q 447 3434 972 4092 
Q 1497 4750 2381 4750 
Q 2619 4750 2861 4703 
Q 3103 4656 3366 4563 
z
" transform="scale(0.015625)"/>
       </defs>
       <use xlink:href="#DejaVuSans-36"/>
      </g>
     </g>
    </g>
    <g id="xtick_5">
     <g id="line2d_9">
      <path d="M 257.440625 122.599219 
L 257.440625 10.999219 
" clip-path="url(#pfd9d22057b)" style="fill: none; stroke: #b0b0b0; stroke-width: 0.8; stroke-linecap: square"/>
     </g>
     <g id="line2d_10">
      <g>
       <use xlink:href="#mb1c9c761e0" x="257.440625" y="122.599219" style="stroke: #000000; stroke-width: 0.8"/>
      </g>
     </g>
     <g id="text_5">
      <!-- 8 -->
      <g transform="translate(254.259375 137.197656) scale(0.1 -0.1)">
       <defs>
        <path id="DejaVuSans-38" d="M 2034 2216 
Q 1584 2216 1326 1975 
Q 1069 1734 1069 1313 
Q 1069 891 1326 650 
Q 1584 409 2034 409 
Q 2484 409 2743 651 
Q 3003 894 3003 1313 
Q 3003 1734 2745 1975 
Q 2488 2216 2034 2216 
z
M 1403 2484 
Q 997 2584 770 2862 
Q 544 3141 544 3541 
Q 544 4100 942 4425 
Q 1341 4750 2034 4750 
Q 2731 4750 3128 4425 
Q 3525 4100 3525 3541 
Q 3525 3141 3298 2862 
Q 3072 2584 2669 2484 
Q 3125 2378 3379 2068 
Q 3634 1759 3634 1313 
Q 3634 634 3220 271 
Q 2806 -91 2034 -91 
Q 1263 -91 848 271 
Q 434 634 434 1313 
Q 434 1759 690 2068 
Q 947 2378 1403 2484 
z
M 1172 3481 
Q 1172 3119 1398 2916 
Q 1625 2713 2034 2713 
Q 2441 2713 2670 2916 
Q 2900 3119 2900 3481 
Q 2900 3844 2670 4047 
Q 2441 4250 2034 4250 
Q 1625 4250 1398 4047 
Q 1172 3844 1172 3481 
z
" transform="scale(0.015625)"/>
       </defs>
       <use xlink:href="#DejaVuSans-38"/>
      </g>
     </g>
    </g>
    <g id="xtick_6">
     <g id="line2d_11">
      <path d="M 313.240625 122.599219 
L 313.240625 10.999219 
" clip-path="url(#pfd9d22057b)" style="fill: none; stroke: #b0b0b0; stroke-width: 0.8; stroke-linecap: square"/>
     </g>
     <g id="line2d_12">
      <g>
       <use xlink:href="#mb1c9c761e0" x="313.240625" y="122.599219" style="stroke: #000000; stroke-width: 0.8"/>
      </g>
     </g>
     <g id="text_6">
      <!-- 10 -->
      <g transform="translate(306.878125 137.197656) scale(0.1 -0.1)">
       <defs>
        <path id="DejaVuSans-31" d="M 794 531 
L 1825 531 
L 1825 4091 
L 703 3866 
L 703 4441 
L 1819 4666 
L 2450 4666 
L 2450 531 
L 3481 531 
L 3481 0 
L 794 0 
L 794 531 
z
" transform="scale(0.015625)"/>
       </defs>
       <use xlink:href="#DejaVuSans-31"/>
       <use xlink:href="#DejaVuSans-30" x="63.623047"/>
      </g>
     </g>
    </g>
    <g id="text_7">
     <!-- x -->
     <g transform="translate(184.73125 150.875781) scale(0.1 -0.1)">
      <defs>
       <path id="DejaVuSans-78" d="M 3513 3500 
L 2247 1797 
L 3578 0 
L 2900 0 
L 1881 1375 
L 863 0 
L 184 0 
L 1544 1831 
L 300 3500 
L 978 3500 
L 1906 2253 
L 2834 3500 
L 3513 3500 
z
" transform="scale(0.015625)"/>
      </defs>
      <use xlink:href="#DejaVuSans-78"/>
     </g>
    </g>
   </g>
   <g id="matplotlib.axis_2">
    <g id="ytick_1">
     <g id="line2d_13">
      <path d="M 34.240625 122.599219 
L 341.140625 122.599219 
" clip-path="url(#pfd9d22057b)" style="fill: none; stroke: #b0b0b0; stroke-width: 0.8; stroke-linecap: square"/>
     </g>
     <g id="line2d_14">
      <defs>
       <path id="md5f406b85b" d="M 0 0 
L -3.5 0 
" style="stroke: #000000; stroke-width: 0.8"/>
      </defs>
      <g>
       <use xlink:href="#md5f406b85b" x="34.240625" y="122.599219" style="stroke: #000000; stroke-width: 0.8"/>
      </g>
     </g>
     <g id="text_8">
      <!-- 0 -->
      <g transform="translate(20.878125 126.398438) scale(0.1 -0.1)">
       <use xlink:href="#DejaVuSans-30"/>
      </g>
     </g>
    </g>
    <g id="ytick_2">
     <g id="line2d_15">
      <path d="M 34.240625 94.699219 
L 341.140625 94.699219 
" clip-path="url(#pfd9d22057b)" style="fill: none; stroke: #b0b0b0; stroke-width: 0.8; stroke-linecap: square"/>
     </g>
     <g id="line2d_16">
      <g>
       <use xlink:href="#md5f406b85b" x="34.240625" y="94.699219" style="stroke: #000000; stroke-width: 0.8"/>
      </g>
     </g>
     <g id="text_9">
      <!-- 1 -->
      <g transform="translate(20.878125 98.498437) scale(0.1 -0.1)">
       <use xlink:href="#DejaVuSans-31"/>
      </g>
     </g>
    </g>
    <g id="ytick_3">
     <g id="line2d_17">
      <path d="M 34.240625 66.799219 
L 341.140625 66.799219 
" clip-path="url(#pfd9d22057b)" style="fill: none; stroke: #b0b0b0; stroke-width: 0.8; stroke-linecap: square"/>
     </g>
     <g id="line2d_18">
      <g>
       <use xlink:href="#md5f406b85b" x="34.240625" y="66.799219" style="stroke: #000000; stroke-width: 0.8"/>
      </g>
     </g>
     <g id="text_10">
      <!-- 2 -->
      <g transform="translate(20.878125 70.598438) scale(0.1 -0.1)">
       <use xlink:href="#DejaVuSans-32"/>
      </g>
     </g>
    </g>
    <g id="ytick_4">
     <g id="line2d_19">
      <path d="M 34.240625 38.899219 
L 341.140625 38.899219 
" clip-path="url(#pfd9d22057b)" style="fill: none; stroke: #b0b0b0; stroke-width: 0.8; stroke-linecap: square"/>
     </g>
     <g id="line2d_20">
      <g>
       <use xlink:href="#md5f406b85b" x="34.240625" y="38.899219" style="stroke: #000000; stroke-width: 0.8"/>
      </g>
     </g>
     <g id="text_11">
      <!-- 3 -->
      <g transform="translate(20.878125 42.698438) scale(0.1 -0.1)">
       <defs>
        <path id="DejaVuSans-33" d="M 2597 2516 
Q 3050 2419 3304 2112 
Q 3559 1806 3559 1356 
Q 3559 666 3084 287 
Q 2609 -91 1734 -91 
Q 1441 -91 1130 -33 
Q 819 25 488 141 
L 488 750 
Q 750 597 1062 519 
Q 1375 441 1716 441 
Q 2309 441 2620 675 
Q 2931 909 2931 1356 
Q 2931 1769 2642 2001 
Q 2353 2234 1838 2234 
L 1294 2234 
L 1294 2753 
L 1863 2753 
Q 2328 2753 2575 2939 
Q 2822 3125 2822 3475 
Q 2822 3834 2567 4026 
Q 2313 4219 1838 4219 
Q 1578 4219 1281 4162 
Q 984 4106 628 3988 
L 628 4550 
Q 988 4650 1302 4700 
Q 1616 4750 1894 4750 
Q 2613 4750 3031 4423 
Q 3450 4097 3450 3541 
Q 3450 3153 3228 2886 
Q 3006 2619 2597 2516 
z
" transform="scale(0.015625)"/>
       </defs>
       <use xlink:href="#DejaVuSans-33"/>
      </g>
     </g>
    </g>
    <g id="ytick_5">
     <g id="line2d_21">
      <path d="M 34.240625 10.999219 
L 341.140625 10.999219 
" clip-path="url(#pfd9d22057b)" style="fill: none; stroke: #b0b0b0; stroke-width: 0.8; stroke-linecap: square"/>
     </g>
     <g id="line2d_22">
      <g>
       <use xlink:href="#md5f406b85b" x="34.240625" y="10.999219" style="stroke: #000000; stroke-width: 0.8"/>
      </g>
     </g>
     <g id="text_12">
      <!-- 4 -->
      <g transform="translate(20.878125 14.798438) scale(0.1 -0.1)">
       <use xlink:href="#DejaVuSans-34"/>
      </g>
     </g>
    </g>
    <g id="text_13">
     <!-- y -->
     <g transform="translate(14.798438 69.758594) rotate(-90) scale(0.1 -0.1)">
      <defs>
       <path id="DejaVuSans-79" d="M 2059 -325 
Q 1816 -950 1584 -1140 
Q 1353 -1331 966 -1331 
L 506 -1331 
L 506 -850 
L 844 -850 
Q 1081 -850 1212 -737 
Q 1344 -625 1503 -206 
L 1606 56 
L 191 3500 
L 800 3500 
L 1894 763 
L 2988 3500 
L 3597 3500 
L 2059 -325 
z
" transform="scale(0.015625)"/>
      </defs>
      <use xlink:href="#DejaVuSans-79"/>
     </g>
    </g>
   </g>
   <g id="line2d_23">
    <defs>
     <path id="m11d128f52f" d="M 0 3 
C 0.795609 3 1.55874 2.683901 2.12132 2.12132 
C 2.683901 1.55874 3 0.795609 3 0 
C 3 -0.795609 2.683901 -1.55874 2.12132 -2.12132 
C 1.55874 -2.683901 0.795609 -3 0 -3 
C -0.795609 -3 -1.55874 -2.683901 -2.12132 -2.12132 
C -2.683901 -1.55874 -3 -0.795609 -3 0 
C -3 0.795609 -2.683901 1.55874 -2.12132 2.12132 
C -1.55874 2.683901 -0.795609 3 0 3 
z
" style="stroke: #ff0000"/>
    </defs>
    <g clip-path="url(#pfd9d22057b)">
     <use xlink:href="#m11d128f52f" x="62.140625" y="117.019219" style="fill: #ff0000; stroke: #ff0000"/>
     <use xlink:href="#m11d128f52f" x="90.040625" y="108.649219" style="fill: #ff0000; stroke: #ff0000"/>
     <use xlink:href="#m11d128f52f" x="117.940625" y="114.229219" style="fill: #ff0000; stroke: #ff0000"/>
     <use xlink:href="#m11d128f52f" x="145.840625" y="108.649219" style="fill: #ff0000; stroke: #ff0000"/>
     <use xlink:href="#m11d128f52f" x="173.740625" y="94.699219" style="fill: #ff0000; stroke: #ff0000"/>
     <use xlink:href="#m11d128f52f" x="201.640625" y="80.749219" style="fill: #ff0000; stroke: #ff0000"/>
     <use xlink:href="#m11d128f52f" x="229.540625" y="72.379219" style="fill: #ff0000; stroke: #ff0000"/>
     <use xlink:href="#m11d128f52f" x="257.440625" y="66.799219" style="fill: #ff0000; stroke: #ff0000"/>
     <use xlink:href="#m11d128f52f" x="285.340625" y="58.429219" style="fill: #ff0000; stroke: #ff0000"/>
     <use xlink:href="#m11d128f52f" x="313.240625" y="61.219219" style="fill: #ff0000; stroke: #ff0000"/>
    </g>
   </g>
   <g id="line2d_24">
    <path d="M 34.240625 109.907663 
L 37.030625 109.442586 
L 39.820625 108.977509 
L 42.610625 108.512433 
L 45.400625 108.047356 
L 48.190625 107.582279 
L 50.980625 107.117203 
L 53.770625 106.652126 
L 56.560625 106.187049 
L 59.350625 105.721973 
L 62.140625 105.256896 
L 64.930625 104.791819 
L 67.720625 104.326743 
L 70.510625 103.861666 
L 73.300625 103.396589 
L 76.090625 102.931513 
L 78.880625 102.466436 
L 81.670625 102.001359 
L 84.460625 101.536283 
L 87.250625 101.071206 
L 90.040625 100.606129 
L 92.830625 100.141053 
L 95.620625 99.675976 
L 98.410625 99.210899 
L 101.200625 98.745823 
L 103.990625 98.280746 
L 106.780625 97.815669 
L 109.570625 97.350593 
L 112.360625 96.885516 
L 115.150625 96.420439 
L 117.940625 95.955363 
L 120.730625 95.490286 
L 123.520625 95.025209 
L 126.310625 94.560133 
L 129.100625 94.095056 
L 131.890625 93.629979 
L 134.680625 93.164902 
L 137.470625 92.699826 
L 140.260625 92.234749 
L 143.050625 91.769672 
L 145.840625 91.304596 
L 148.630625 90.839519 
L 151.420625 90.374442 
L 154.210625 89.909366 
L 157.000625 89.444289 
L 159.790625 88.979212 
L 162.580625 88.514136 
L 165.370625 88.049059 
L 168.160625 87.583982 
L 170.950625 87.118906 
L 173.740625 86.653829 
L 176.530625 86.188752 
L 179.320625 85.723676 
L 182.110625 85.258599 
L 184.900625 84.793522 
L 187.690625 84.328446 
L 190.480625 83.863369 
L 193.270625 83.398292 
L 196.060625 82.933216 
L 198.850625 82.468139 
L 201.640625 82.003062 
L 204.430625 81.537986 
L 207.220625 81.072909 
L 210.010625 80.607832 
L 212.800625 80.142756 
L 215.590625 79.677679 
L 218.380625 79.212602 
L 221.170625 78.747526 
L 223.960625 78.282449 
L 226.750625 77.817372 
L 229.540625 77.352296 
L 232.330625 76.887219 
L 235.120625 76.422142 
L 237.910625 75.957065 
L 240.700625 75.491989 
L 243.490625 75.026912 
L 246.280625 74.561835 
L 249.070625 74.096759 
L 251.860625 73.631682 
L 254.650625 73.166605 
L 257.440625 72.701529 
L 260.230625 72.236452 
L 263.020625 71.771375 
L 265.810625 71.306299 
L 268.600625 70.841222 
L 271.390625 70.376145 
L 274.180625 69.911069 
L 276.970625 69.445992 
L 279.760625 68.980915 
L 282.550625 68.515839 
L 285.340625 68.050762 
L 288.130625 67.585685 
L 290.920625 67.120609 
L 293.710625 66.655532 
L 296.500625 66.190455 
L 299.290625 65.725379 
L 302.080625 65.260302 
L 304.870625 64.795225 
L 307.660625 64.330149 
L 310.450625 63.865072 
L 313.240625 63.399995 
L 316.030625 62.934919 
L 318.820625 62.469842 
L 321.610625 62.004765 
L 324.400625 61.539689 
L 327.190625 61.074612 
L 329.980625 60.609535 
L 332.770625 60.144459 
L 335.560625 59.679382 
L 338.350625 59.214305 
" clip-path="url(#pfd9d22057b)" style="fill: none; stroke: #1f77b4; stroke-width: 1.5; stroke-linecap: square"/>
   </g>
   <g id="line2d_25">
    <path d="M 34.240625 116.282061 
L 37.030625 115.725422 
L 39.820625 115.168783 
L 42.610625 114.612144 
L 45.400625 114.055505 
L 48.190625 113.498867 
L 50.980625 112.942228 
L 53.770625 112.385589 
L 56.560625 111.82895 
L 59.350625 111.272311 
L 62.140625 110.715672 
L 64.930625 110.159033 
L 67.720625 109.602394 
L 70.510625 109.045755 
L 73.300625 108.489117 
L 76.090625 107.932478 
L 78.880625 107.375839 
L 81.670625 106.8192 
L 84.460625 106.262561 
L 87.250625 105.705922 
L 90.040625 105.149283 
L 92.830625 104.592644 
L 95.620625 104.036006 
L 98.410625 103.479367 
L 101.200625 102.922728 
L 103.990625 102.366089 
L 106.780625 101.80945 
L 109.570625 101.252811 
L 112.360625 100.696172 
L 115.150625 100.139533 
L 117.940625 99.582894 
L 120.730625 99.026256 
L 123.520625 98.469617 
L 126.310625 97.912978 
L 129.100625 97.356339 
L 131.890625 96.7997 
L 134.680625 96.243061 
L 137.470625 95.686422 
L 140.260625 95.129783 
L 143.050625 94.573145 
L 145.840625 94.016506 
L 148.630625 93.459867 
L 151.420625 92.903228 
L 154.210625 92.346589 
L 157.000625 91.78995 
L 159.790625 91.233311 
L 162.580625 90.676672 
L 165.370625 90.120034 
L 168.160625 89.563395 
L 170.950625 89.006756 
L 173.740625 88.450117 
L 176.530625 87.893478 
L 179.320625 87.336839 
L 182.110625 86.7802 
L 184.900625 86.223561 
L 187.690625 85.666922 
L 190.480625 85.110284 
L 193.270625 84.553645 
L 196.060625 83.997006 
L 198.850625 83.440367 
L 201.640625 82.883728 
L 204.430625 82.327089 
L 207.220625 81.77045 
L 210.010625 81.213811 
L 212.800625 80.657173 
L 215.590625 80.100534 
L 218.380625 79.543895 
L 221.170625 78.987256 
L 223.960625 78.430617 
L 226.750625 77.873978 
L 229.540625 77.317339 
L 232.330625 76.7607 
L 235.120625 76.204061 
L 237.910625 75.647423 
L 240.700625 75.090784 
L 243.490625 74.534145 
L 246.280625 73.977506 
L 249.070625 73.420867 
L 251.860625 72.864228 
L 254.650625 72.307589 
L 257.440625 71.75095 
L 260.230625 71.194312 
L 263.020625 70.637673 
L 265.810625 70.081034 
L 268.600625 69.524395 
L 271.390625 68.967756 
L 274.180625 68.411117 
L 276.970625 67.854478 
L 279.760625 67.297839 
L 282.550625 66.7412 
L 285.340625 66.184562 
L 288.130625 65.627923 
L 290.920625 65.071284 
L 293.710625 64.514645 
L 296.500625 63.958006 
L 299.290625 63.401367 
L 302.080625 62.844728 
L 304.870625 62.288089 
L 307.660625 61.731451 
L 310.450625 61.174812 
L 313.240625 60.618173 
L 316.030625 60.061534 
L 318.820625 59.504895 
L 321.610625 58.948256 
L 324.400625 58.391617 
L 327.190625 57.834978 
L 329.980625 57.278339 
L 332.770625 56.721701 
L 335.560625 56.165062 
L 338.350625 55.608423 
" clip-path="url(#pfd9d22057b)" style="fill: none; stroke: #ff7f0e; stroke-width: 1.5; stroke-linecap: square"/>
   </g>
   <g id="line2d_26">
    <path d="M 34.240625 126.41236 
L 37.030625 125.710209 
L 39.820625 125.008058 
L 42.610625 124.305907 
L 45.400625 123.603756 
L 48.190625 122.901604 
L 50.980625 122.199453 
L 53.770625 121.497302 
L 56.560625 120.795151 
L 59.350625 120.093 
L 62.140625 119.390849 
L 64.930625 118.688698 
L 67.720625 117.986547 
L 70.510625 117.284396 
L 73.300625 116.582245 
L 76.090625 115.880094 
L 78.880625 115.177943 
L 81.670625 114.475792 
L 84.460625 113.773641 
L 87.250625 113.07149 
L 90.040625 112.369339 
L 92.830625 111.667188 
L 95.620625 110.965037 
L 98.410625 110.262886 
L 101.200625 109.560734 
L 103.990625 108.858583 
L 106.780625 108.156432 
L 109.570625 107.454281 
L 112.360625 106.75213 
L 115.150625 106.049979 
L 117.940625 105.347828 
L 120.730625 104.645677 
L 123.520625 103.943526 
L 126.310625 103.241375 
L 129.100625 102.539224 
L 131.890625 101.837073 
L 134.680625 101.134922 
L 137.470625 100.432771 
L 140.260625 99.73062 
L 143.050625 99.028469 
L 145.840625 98.326318 
L 148.630625 97.624167 
L 151.420625 96.922016 
L 154.210625 96.219865 
L 157.000625 95.517713 
L 159.790625 94.815562 
L 162.580625 94.113411 
L 165.370625 93.41126 
L 168.160625 92.709109 
L 170.950625 92.006958 
L 173.740625 91.304807 
L 176.530625 90.602656 
L 179.320625 89.900505 
L 182.110625 89.198354 
L 184.900625 88.496203 
L 187.690625 87.794052 
L 190.480625 87.091901 
L 193.270625 86.38975 
L 196.060625 85.687599 
L 198.850625 84.985448 
L 201.640625 84.283297 
L 204.430625 83.581146 
L 207.220625 82.878995 
L 210.010625 82.176843 
L 212.800625 81.474692 
L 215.590625 80.772541 
L 218.380625 80.07039 
L 221.170625 79.368239 
L 223.960625 78.666088 
L 226.750625 77.963937 
L 229.540625 77.261786 
L 232.330625 76.559635 
L 235.120625 75.857484 
L 237.910625 75.155333 
L 240.700625 74.453182 
L 243.490625 73.751031 
L 246.280625 73.04888 
L 249.070625 72.346729 
L 251.860625 71.644578 
L 254.650625 70.942427 
L 257.440625 70.240276 
L 260.230625 69.538125 
L 263.020625 68.835974 
L 265.810625 68.133822 
L 268.600625 67.431671 
L 271.390625 66.72952 
L 274.180625 66.027369 
L 276.970625 65.325218 
L 279.760625 64.623067 
L 282.550625 63.920916 
L 285.340625 63.218765 
L 288.130625 62.516614 
L 290.920625 61.814463 
L 293.710625 61.112312 
L 296.500625 60.410161 
L 299.290625 59.70801 
L 302.080625 59.005859 
L 304.870625 58.303708 
L 307.660625 57.601557 
L 310.450625 56.899406 
L 313.240625 56.197255 
L 316.030625 55.495104 
L 318.820625 54.792952 
L 321.610625 54.090801 
L 324.400625 53.38865 
L 327.190625 52.686499 
L 329.980625 51.984348 
L 332.770625 51.282197 
L 335.560625 50.580046 
L 338.350625 49.877895 
" clip-path="url(#pfd9d22057b)" style="fill: none; stroke: #2ca02c; stroke-width: 1.5; stroke-linecap: square"/>
   </g>
   <g id="line2d_27">
    <path d="M 34.240625 128.737219 
L 37.030625 128.001673 
L 39.820625 127.266128 
L 42.610625 126.530582 
L 45.400625 125.795037 
L 48.190625 125.059491 
L 50.980625 124.323946 
L 53.770625 123.588401 
L 56.560625 122.852855 
L 59.350625 122.11731 
L 62.140625 121.381764 
L 64.930625 120.646219 
L 67.720625 119.910673 
L 70.510625 119.175128 
L 73.300625 118.439582 
L 76.090625 117.704037 
L 78.880625 116.968491 
L 81.670625 116.232946 
L 84.460625 115.497401 
L 87.250625 114.761855 
L 90.040625 114.02631 
L 92.830625 113.290764 
L 95.620625 112.555219 
L 98.410625 111.819673 
L 101.200625 111.084128 
L 103.990625 110.348582 
L 106.780625 109.613037 
L 109.570625 108.877491 
L 112.360625 108.141946 
L 115.150625 107.406401 
L 117.940625 106.670855 
L 120.730625 105.93531 
L 123.520625 105.199764 
L 126.310625 104.464219 
L 129.100625 103.728673 
L 131.890625 102.993128 
L 134.680625 102.257582 
L 137.470625 101.522037 
L 140.260625 100.786491 
L 143.050625 100.050946 
L 145.840625 99.315401 
L 148.630625 98.579855 
L 151.420625 97.84431 
L 154.210625 97.108764 
L 157.000625 96.373219 
L 159.790625 95.637673 
L 162.580625 94.902128 
L 165.370625 94.166582 
L 168.160625 93.431037 
L 170.950625 92.695491 
L 173.740625 91.959946 
L 176.530625 91.224401 
L 179.320625 90.488855 
L 182.110625 89.75331 
L 184.900625 89.017764 
L 187.690625 88.282219 
L 190.480625 87.546673 
L 193.270625 86.811128 
L 196.060625 86.075582 
L 198.850625 85.340037 
L 201.640625 84.604491 
L 204.430625 83.868946 
L 207.220625 83.133401 
L 210.010625 82.397855 
L 212.800625 81.66231 
L 215.590625 80.926764 
L 218.380625 80.191219 
L 221.170625 79.455673 
L 223.960625 78.720128 
L 226.750625 77.984582 
L 229.540625 77.249037 
L 232.330625 76.513491 
L 235.120625 75.777946 
L 237.910625 75.042401 
L 240.700625 74.306855 
L 243.490625 73.57131 
L 246.280625 72.835764 
L 249.070625 72.100219 
L 251.860625 71.364673 
L 254.650625 70.629128 
L 257.440625 69.893582 
L 260.230625 69.158037 
L 263.020625 68.422491 
L 265.810625 67.686946 
L 268.600625 66.951401 
L 271.390625 66.215855 
L 274.180625 65.48031 
L 276.970625 64.744764 
L 279.760625 64.009219 
L 282.550625 63.273673 
L 285.340625 62.538128 
L 288.130625 61.802582 
L 290.920625 61.067037 
L 293.710625 60.331491 
L 296.500625 59.595946 
L 299.290625 58.860401 
L 302.080625 58.124855 
L 304.870625 57.38931 
L 307.660625 56.653764 
L 310.450625 55.918219 
L 313.240625 55.182673 
L 316.030625 54.447128 
L 318.820625 53.711582 
L 321.610625 52.976037 
L 324.400625 52.240491 
L 327.190625 51.504946 
L 329.980625 50.769401 
L 332.770625 50.033855 
L 335.560625 49.29831 
L 338.350625 48.562764 
" clip-path="url(#pfd9d22057b)" style="fill: none; stroke: #d62728; stroke-width: 1.5; stroke-linecap: square"/>
   </g>
   <g id="patch_3">
    <path d="M 34.240625 122.599219 
L 34.240625 10.999219 
" style="fill: none; stroke: #000000; stroke-width: 0.8; stroke-linejoin: miter; stroke-linecap: square"/>
   </g>
   <g id="patch_4">
    <path d="M 341.140625 122.599219 
L 341.140625 10.999219 
" style="fill: none; stroke: #000000; stroke-width: 0.8; stroke-linejoin: miter; stroke-linecap: square"/>
   </g>
   <g id="patch_5">
    <path d="M 34.240625 122.599219 
L 341.140625 122.599219 
" style="fill: none; stroke: #000000; stroke-width: 0.8; stroke-linejoin: miter; stroke-linecap: square"/>
   </g>
   <g id="patch_6">
    <path d="M 34.240625 10.999219 
L 341.140625 10.999219 
" style="fill: none; stroke: #000000; stroke-width: 0.8; stroke-linejoin: miter; stroke-linecap: square"/>
   </g>
   <g id="legend_1">
    <g id="patch_7">
     <path d="M 41.240625 92.389844 
L 137.592187 92.389844 
Q 139.592187 92.389844 139.592187 90.389844 
L 139.592187 17.999219 
Q 139.592187 15.999219 137.592187 15.999219 
L 41.240625 15.999219 
Q 39.240625 15.999219 39.240625 17.999219 
L 39.240625 90.389844 
Q 39.240625 92.389844 41.240625 92.389844 
z
" style="fill: #ffffff; opacity: 0.8; stroke: #cccccc; stroke-linejoin: miter"/>
    </g>
    <g id="line2d_28">
     <g>
      <use xlink:href="#m11d128f52f" x="53.240625" y="24.097656" style="fill: #ff0000; stroke: #ff0000"/>
     </g>
    </g>
    <g id="text_14">
     <!-- observations -->
     <g transform="translate(71.240625 27.597656) scale(0.1 -0.1)">
      <defs>
       <path id="DejaVuSans-6f" d="M 1959 3097 
Q 1497 3097 1228 2736 
Q 959 2375 959 1747 
Q 959 1119 1226 758 
Q 1494 397 1959 397 
Q 2419 397 2687 759 
Q 2956 1122 2956 1747 
Q 2956 2369 2687 2733 
Q 2419 3097 1959 3097 
z
M 1959 3584 
Q 2709 3584 3137 3096 
Q 3566 2609 3566 1747 
Q 3566 888 3137 398 
Q 2709 -91 1959 -91 
Q 1206 -91 779 398 
Q 353 888 353 1747 
Q 353 2609 779 3096 
Q 1206 3584 1959 3584 
z
" transform="scale(0.015625)"/>
       <path id="DejaVuSans-62" d="M 3116 1747 
Q 3116 2381 2855 2742 
Q 2594 3103 2138 3103 
Q 1681 3103 1420 2742 
Q 1159 2381 1159 1747 
Q 1159 1113 1420 752 
Q 1681 391 2138 391 
Q 2594 391 2855 752 
Q 3116 1113 3116 1747 
z
M 1159 2969 
Q 1341 3281 1617 3432 
Q 1894 3584 2278 3584 
Q 2916 3584 3314 3078 
Q 3713 2572 3713 1747 
Q 3713 922 3314 415 
Q 2916 -91 2278 -91 
Q 1894 -91 1617 61 
Q 1341 213 1159 525 
L 1159 0 
L 581 0 
L 581 4863 
L 1159 4863 
L 1159 2969 
z
" transform="scale(0.015625)"/>
       <path id="DejaVuSans-73" d="M 2834 3397 
L 2834 2853 
Q 2591 2978 2328 3040 
Q 2066 3103 1784 3103 
Q 1356 3103 1142 2972 
Q 928 2841 928 2578 
Q 928 2378 1081 2264 
Q 1234 2150 1697 2047 
L 1894 2003 
Q 2506 1872 2764 1633 
Q 3022 1394 3022 966 
Q 3022 478 2636 193 
Q 2250 -91 1575 -91 
Q 1294 -91 989 -36 
Q 684 19 347 128 
L 347 722 
Q 666 556 975 473 
Q 1284 391 1588 391 
Q 1994 391 2212 530 
Q 2431 669 2431 922 
Q 2431 1156 2273 1281 
Q 2116 1406 1581 1522 
L 1381 1569 
Q 847 1681 609 1914 
Q 372 2147 372 2553 
Q 372 3047 722 3315 
Q 1072 3584 1716 3584 
Q 2034 3584 2315 3537 
Q 2597 3491 2834 3397 
z
" transform="scale(0.015625)"/>
       <path id="DejaVuSans-65" d="M 3597 1894 
L 3597 1613 
L 953 1613 
Q 991 1019 1311 708 
Q 1631 397 2203 397 
Q 2534 397 2845 478 
Q 3156 559 3463 722 
L 3463 178 
Q 3153 47 2828 -22 
Q 2503 -91 2169 -91 
Q 1331 -91 842 396 
Q 353 884 353 1716 
Q 353 2575 817 3079 
Q 1281 3584 2069 3584 
Q 2775 3584 3186 3129 
Q 3597 2675 3597 1894 
z
M 3022 2063 
Q 3016 2534 2758 2815 
Q 2500 3097 2075 3097 
Q 1594 3097 1305 2825 
Q 1016 2553 972 2059 
L 3022 2063 
z
" transform="scale(0.015625)"/>
       <path id="DejaVuSans-72" d="M 2631 2963 
Q 2534 3019 2420 3045 
Q 2306 3072 2169 3072 
Q 1681 3072 1420 2755 
Q 1159 2438 1159 1844 
L 1159 0 
L 581 0 
L 581 3500 
L 1159 3500 
L 1159 2956 
Q 1341 3275 1631 3429 
Q 1922 3584 2338 3584 
Q 2397 3584 2469 3576 
Q 2541 3569 2628 3553 
L 2631 2963 
z
" transform="scale(0.015625)"/>
       <path id="DejaVuSans-76" d="M 191 3500 
L 800 3500 
L 1894 563 
L 2988 3500 
L 3597 3500 
L 2284 0 
L 1503 0 
L 191 3500 
z
" transform="scale(0.015625)"/>
       <path id="DejaVuSans-61" d="M 2194 1759 
Q 1497 1759 1228 1600 
Q 959 1441 959 1056 
Q 959 750 1161 570 
Q 1363 391 1709 391 
Q 2188 391 2477 730 
Q 2766 1069 2766 1631 
L 2766 1759 
L 2194 1759 
z
M 3341 1997 
L 3341 0 
L 2766 0 
L 2766 531 
Q 2569 213 2275 61 
Q 1981 -91 1556 -91 
Q 1019 -91 701 211 
Q 384 513 384 1019 
Q 384 1609 779 1909 
Q 1175 2209 1959 2209 
L 2766 2209 
L 2766 2266 
Q 2766 2663 2505 2880 
Q 2244 3097 1772 3097 
Q 1472 3097 1187 3025 
Q 903 2953 641 2809 
L 641 3341 
Q 956 3463 1253 3523 
Q 1550 3584 1831 3584 
Q 2591 3584 2966 3190 
Q 3341 2797 3341 1997 
z
" transform="scale(0.015625)"/>
       <path id="DejaVuSans-74" d="M 1172 4494 
L 1172 3500 
L 2356 3500 
L 2356 3053 
L 1172 3053 
L 1172 1153 
Q 1172 725 1289 603 
Q 1406 481 1766 481 
L 2356 481 
L 2356 0 
L 1766 0 
Q 1100 0 847 248 
Q 594 497 594 1153 
L 594 3053 
L 172 3053 
L 172 3500 
L 594 3500 
L 594 4494 
L 1172 4494 
z
" transform="scale(0.015625)"/>
       <path id="DejaVuSans-69" d="M 603 3500 
L 1178 3500 
L 1178 0 
L 603 0 
L 603 3500 
z
M 603 4863 
L 1178 4863 
L 1178 4134 
L 603 4134 
L 603 4863 
z
" transform="scale(0.015625)"/>
       <path id="DejaVuSans-6e" d="M 3513 2113 
L 3513 0 
L 2938 0 
L 2938 2094 
Q 2938 2591 2744 2837 
Q 2550 3084 2163 3084 
Q 1697 3084 1428 2787 
Q 1159 2491 1159 1978 
L 1159 0 
L 581 0 
L 581 3500 
L 1159 3500 
L 1159 2956 
Q 1366 3272 1645 3428 
Q 1925 3584 2291 3584 
Q 2894 3584 3203 3211 
Q 3513 2838 3513 2113 
z
" transform="scale(0.015625)"/>
      </defs>
      <use xlink:href="#DejaVuSans-6f"/>
      <use xlink:href="#DejaVuSans-62" x="61.181641"/>
      <use xlink:href="#DejaVuSans-73" x="124.658203"/>
      <use xlink:href="#DejaVuSans-65" x="176.757812"/>
      <use xlink:href="#DejaVuSans-72" x="238.28125"/>
      <use xlink:href="#DejaVuSans-76" x="279.394531"/>
      <use xlink:href="#DejaVuSans-61" x="338.574219"/>
      <use xlink:href="#DejaVuSans-74" x="399.853516"/>
      <use xlink:href="#DejaVuSans-69" x="439.0625"/>
      <use xlink:href="#DejaVuSans-6f" x="466.845703"/>
      <use xlink:href="#DejaVuSans-6e" x="528.027344"/>
      <use xlink:href="#DejaVuSans-73" x="591.40625"/>
     </g>
    </g>
    <g id="line2d_29">
     <path d="M 43.240625 38.775781 
L 53.240625 38.775781 
L 63.240625 38.775781 
" style="fill: none; stroke: #1f77b4; stroke-width: 1.5; stroke-linecap: square"/>
    </g>
    <g id="text_15">
     <!-- $n=50$ -->
     <g transform="translate(71.240625 42.275781) scale(0.1 -0.1)">
      <defs>
       <path id="DejaVuSans-Oblique-6e" d="M 3566 2113 
L 3156 0 
L 2578 0 
L 2988 2091 
Q 3016 2238 3031 2350 
Q 3047 2463 3047 2528 
Q 3047 2791 2881 2937 
Q 2716 3084 2419 3084 
Q 1956 3084 1622 2776 
Q 1288 2469 1184 1941 
L 800 0 
L 225 0 
L 903 3500 
L 1478 3500 
L 1363 2950 
Q 1603 3253 1940 3418 
Q 2278 3584 2650 3584 
Q 3113 3584 3367 3334 
Q 3622 3084 3622 2631 
Q 3622 2519 3608 2391 
Q 3594 2263 3566 2113 
z
" transform="scale(0.015625)"/>
       <path id="DejaVuSans-3d" d="M 678 2906 
L 4684 2906 
L 4684 2381 
L 678 2381 
L 678 2906 
z
M 678 1631 
L 4684 1631 
L 4684 1100 
L 678 1100 
L 678 1631 
z
" transform="scale(0.015625)"/>
       <path id="DejaVuSans-35" d="M 691 4666 
L 3169 4666 
L 3169 4134 
L 1269 4134 
L 1269 2991 
Q 1406 3038 1543 3061 
Q 1681 3084 1819 3084 
Q 2600 3084 3056 2656 
Q 3513 2228 3513 1497 
Q 3513 744 3044 326 
Q 2575 -91 1722 -91 
Q 1428 -91 1123 -41 
Q 819 9 494 109 
L 494 744 
Q 775 591 1075 516 
Q 1375 441 1709 441 
Q 2250 441 2565 725 
Q 2881 1009 2881 1497 
Q 2881 1984 2565 2268 
Q 2250 2553 1709 2553 
Q 1456 2553 1204 2497 
Q 953 2441 691 2322 
L 691 4666 
z
" transform="scale(0.015625)"/>
      </defs>
      <use xlink:href="#DejaVuSans-Oblique-6e" transform="translate(0 0.78125)"/>
      <use xlink:href="#DejaVuSans-3d" transform="translate(82.861328 0.78125)"/>
      <use xlink:href="#DejaVuSans-35" transform="translate(186.132812 0.78125)"/>
      <use xlink:href="#DejaVuSans-30" transform="translate(249.755859 0.78125)"/>
     </g>
    </g>
    <g id="line2d_30">
     <path d="M 43.240625 53.453906 
L 53.240625 53.453906 
L 63.240625 53.453906 
" style="fill: none; stroke: #ff7f0e; stroke-width: 1.5; stroke-linecap: square"/>
    </g>
    <g id="text_16">
     <!-- $n=100$ -->
     <g transform="translate(71.240625 56.953906) scale(0.1 -0.1)">
      <use xlink:href="#DejaVuSans-Oblique-6e" transform="translate(0 0.78125)"/>
      <use xlink:href="#DejaVuSans-3d" transform="translate(82.861328 0.78125)"/>
      <use xlink:href="#DejaVuSans-31" transform="translate(186.132812 0.78125)"/>
      <use xlink:href="#DejaVuSans-30" transform="translate(249.755859 0.78125)"/>
      <use xlink:href="#DejaVuSans-30" transform="translate(313.378906 0.78125)"/>
     </g>
    </g>
    <g id="line2d_31">
     <path d="M 43.240625 68.132031 
L 53.240625 68.132031 
L 63.240625 68.132031 
" style="fill: none; stroke: #2ca02c; stroke-width: 1.5; stroke-linecap: square"/>
    </g>
    <g id="text_17">
     <!-- $n=300$ -->
     <g transform="translate(71.240625 71.632031) scale(0.1 -0.1)">
      <use xlink:href="#DejaVuSans-Oblique-6e" transform="translate(0 0.78125)"/>
      <use xlink:href="#DejaVuSans-3d" transform="translate(82.861328 0.78125)"/>
      <use xlink:href="#DejaVuSans-33" transform="translate(186.132812 0.78125)"/>
      <use xlink:href="#DejaVuSans-30" transform="translate(249.755859 0.78125)"/>
      <use xlink:href="#DejaVuSans-30" transform="translate(313.378906 0.78125)"/>
     </g>
    </g>
    <g id="line2d_32">
     <path d="M 43.240625 82.810156 
L 53.240625 82.810156 
L 63.240625 82.810156 
" style="fill: none; stroke: #d62728; stroke-width: 1.5; stroke-linecap: square"/>
    </g>
    <g id="text_18">
     <!-- $E_2$ -->
     <g transform="translate(71.240625 86.310156) scale(0.1 -0.1)">
      <defs>
       <path id="DejaVuSans-Oblique-45" d="M 1081 4666 
L 4031 4666 
L 3928 4134 
L 1606 4134 
L 1338 2753 
L 3566 2753 
L 3463 2222 
L 1234 2222 
L 909 531 
L 3284 531 
L 3181 0 
L 172 0 
L 1081 4666 
z
" transform="scale(0.015625)"/>
      </defs>
      <use xlink:href="#DejaVuSans-Oblique-45" transform="translate(0 0.09375)"/>
      <use xlink:href="#DejaVuSans-32" transform="translate(63.183594 -16.3125) scale(0.7)"/>
     </g>
    </g>
   </g>
  </g>
 </g>
 <defs>
  <clipPath id="pfd9d22057b">
   <rect x="34.240625" y="10.999219" width="306.9" height="111.6"/>
  </clipPath>
 </defs>
</svg>
