<?xml version="1.0" encoding="utf-8" standalone="no"?>
<!DOCTYPE svg PUBLIC "-//W3C//DTD SVG 1.1//EN"
  "http://www.w3.org/Graphics/SVG/1.1/DTD/svg11.dtd">
<svg xmlns:xlink="http://www.w3.org/1999/xlink" width="434.265625pt" height="162.092121pt" viewBox="0 0 434.265625 162.092121" xmlns="http://www.w3.org/2000/svg" version="1.1">
 <metadata>
  <rdf:RDF xmlns:dc="http://purl.org/dc/elements/1.1/" xmlns:cc="http://creativecommons.org/ns#" xmlns:rdf="http://www.w3.org/1999/02/22-rdf-syntax-ns#">
   <cc:Work>
    <dc:type rdf:resource="http://purl.org/dc/dcmitype/StillImage"/>
    <dc:date>2025-12-16T09:22:59.507074</dc:date>
    <dc:format>image/svg+xml</dc:format>
    <dc:creator>
     <cc:Agent>
      <dc:title>Matplotlib v3.10.3, https://matplotlib.org/</dc:title>
     </cc:Agent>
    </dc:creator>
   </cc:Work>
  </rdf:RDF>
 </metadata>
 <defs>
  <style type="text/css">*{stroke-linejoin: round; stroke-linecap: butt}</style>
 </defs>
 <g id="figure_1">
  <g id="patch_1">
   <path d="M 0 162.092121 
L 434.265625 162.092121 
L 434.265625 0 
L 0 0 
z
" style="fill: #ffffff"/>
  </g>
  <g id="axes_1">
   <g id="patch_2">
    <path d="M 36.465625 138.213996 
L 427.065625 138.213996 
L 427.065625 10.258122 
L 36.465625 10.258122 
z
" style="fill: #ffffff"/>
   </g>
   <g id="matplotlib.axis_1">
    <g id="xtick_1">
     <g id="line2d_1">
      <defs>
       <path id="m9dbe9e8d2c" d="M 0 0 
L 0 3.5 
" style="stroke: #000000; stroke-width: 0.8"/>
      </defs>
      <g>
       <use xlink:href="#m9dbe9e8d2c" x="54.22017" y="138.213996" style="stroke: #000000; stroke-width: 0.8"/>
      </g>
     </g>
     <g id="text_1">
      <!-- 0 -->
      <g transform="translate(51.03892 152.812434) scale(0.1 -0.1)">
       <defs>
        <path id="DejaVuSans-30" d="M 2034 4250 
Q 1547 4250 1301 3770 
Q 1056 3291 1056 2328 
Q 1056 1369 1301 889 
Q 1547 409 2034 409 
Q 2525 409 2770 889 
Q 3016 1369 3016 2328 
Q 3016 3291 2770 3770 
Q 2525 4250 2034 4250 
z
M 2034 4750 
Q 2819 4750 3233 4129 
Q 3647 3509 3647 2328 
Q 3647 1150 3233 529 
Q 2819 -91 2034 -91 
Q 1250 -91 836 529 
Q 422 1150 422 2328 
Q 422 3509 836 4129 
Q 1250 4750 2034 4750 
z
" transform="scale(0.015625)"/>
       </defs>
       <use xlink:href="#DejaVuSans-30"/>
      </g>
     </g>
    </g>
    <g id="xtick_2">
     <g id="line2d_2">
      <g>
       <use xlink:href="#m9dbe9e8d2c" x="99.744646" y="138.213996" style="stroke: #000000; stroke-width: 0.8"/>
      </g>
     </g>
     <g id="text_2">
      <!-- 5 -->
      <g transform="translate(96.563396 152.812434) scale(0.1 -0.1)">
       <defs>
        <path id="DejaVuSans-35" d="M 691 4666 
L 3169 4666 
L 3169 4134 
L 1269 4134 
L 1269 2991 
Q 1406 3038 1543 3061 
Q 1681 3084 1819 3084 
Q 2600 3084 3056 2656 
Q 3513 2228 3513 1497 
Q 3513 744 3044 326 
Q 2575 -91 1722 -91 
Q 1428 -91 1123 -41 
Q 819 9 494 109 
L 494 744 
Q 775 591 1075 516 
Q 1375 441 1709 441 
Q 2250 441 2565 725 
Q 2881 1009 2881 1497 
Q 2881 1984 2565 2268 
Q 2250 2553 1709 2553 
Q 1456 2553 1204 2497 
Q 953 2441 691 2322 
L 691 4666 
z
" transform="scale(0.015625)"/>
       </defs>
       <use xlink:href="#DejaVuSans-35"/>
      </g>
     </g>
    </g>
    <g id="xtick_3">
     <g id="line2d_3">
      <g>
       <use xlink:href="#m9dbe9e8d2c" x="145.269122" y="138.213996" style="stroke: #000000; stroke-width: 0.8"/>
      </g>
     </g>
     <g id="text_3">
      <!-- 10 -->
      <g transform="translate(138.906622 152.812434) scale(0.1 -0.1)">
       <defs>
        <path id="DejaVuSans-31" d="M 794 531 
L 1825 531 
L 1825 4091 
L 703 3866 
L 703 4441 
L 1819 4666 
L 2450 4666 
L 2450 531 
L 3481 531 
L 3481 0 
L 794 0 
L 794 531 
z
" transform="scale(0.015625)"/>
       </defs>
       <use xlink:href="#DejaVuSans-31"/>
       <use xlink:href="#DejaVuSans-30" transform="translate(63.623047 0)"/>
      </g>
     </g>
    </g>
    <g id="xtick_4">
     <g id="line2d_4">
      <g>
       <use xlink:href="#m9dbe9e8d2c" x="190.793597" y="138.213996" style="stroke: #000000; stroke-width: 0.8"/>
      </g>
     </g>
     <g id="text_4">
      <!-- 15 -->
      <g transform="translate(184.431097 152.812434) scale(0.1 -0.1)">
       <use xlink:href="#DejaVuSans-31"/>
       <use xlink:href="#DejaVuSans-35" transform="translate(63.623047 0)"/>
      </g>
     </g>
    </g>
    <g id="xtick_5">
     <g id="line2d_5">
      <g>
       <use xlink:href="#m9dbe9e8d2c" x="236.318073" y="138.213996" style="stroke: #000000; stroke-width: 0.8"/>
      </g>
     </g>
     <g id="text_5">
      <!-- 20 -->
      <g transform="translate(229.955573 152.812434) scale(0.1 -0.1)">
       <defs>
        <path id="DejaVuSans-32" d="M 1228 531 
L 3431 531 
L 3431 0 
L 469 0 
L 469 531 
Q 828 903 1448 1529 
Q 2069 2156 2228 2338 
Q 2531 2678 2651 2914 
Q 2772 3150 2772 3378 
Q 2772 3750 2511 3984 
Q 2250 4219 1831 4219 
Q 1534 4219 1204 4116 
Q 875 4013 500 3803 
L 500 4441 
Q 881 4594 1212 4672 
Q 1544 4750 1819 4750 
Q 2544 4750 2975 4387 
Q 3406 4025 3406 3419 
Q 3406 3131 3298 2873 
Q 3191 2616 2906 2266 
Q 2828 2175 2409 1742 
Q 1991 1309 1228 531 
z
" transform="scale(0.015625)"/>
       </defs>
       <use xlink:href="#DejaVuSans-32"/>
       <use xlink:href="#DejaVuSans-30" transform="translate(63.623047 0)"/>
      </g>
     </g>
    </g>
    <g id="xtick_6">
     <g id="line2d_6">
      <g>
       <use xlink:href="#m9dbe9e8d2c" x="281.842548" y="138.213996" style="stroke: #000000; stroke-width: 0.8"/>
      </g>
     </g>
     <g id="text_6">
      <!-- 25 -->
      <g transform="translate(275.480048 152.812434) scale(0.1 -0.1)">
       <use xlink:href="#DejaVuSans-32"/>
       <use xlink:href="#DejaVuSans-35" transform="translate(63.623047 0)"/>
      </g>
     </g>
    </g>
    <g id="xtick_7">
     <g id="line2d_7">
      <g>
       <use xlink:href="#m9dbe9e8d2c" x="327.367024" y="138.213996" style="stroke: #000000; stroke-width: 0.8"/>
      </g>
     </g>
     <g id="text_7">
      <!-- 30 -->
      <g transform="translate(321.004524 152.812434) scale(0.1 -0.1)">
       <defs>
        <path id="DejaVuSans-33" d="M 2597 2516 
Q 3050 2419 3304 2112 
Q 3559 1806 3559 1356 
Q 3559 666 3084 287 
Q 2609 -91 1734 -91 
Q 1441 -91 1130 -33 
Q 819 25 488 141 
L 488 750 
Q 750 597 1062 519 
Q 1375 441 1716 441 
Q 2309 441 2620 675 
Q 2931 909 2931 1356 
Q 2931 1769 2642 2001 
Q 2353 2234 1838 2234 
L 1294 2234 
L 1294 2753 
L 1863 2753 
Q 2328 2753 2575 2939 
Q 2822 3125 2822 3475 
Q 2822 3834 2567 4026 
Q 2313 4219 1838 4219 
Q 1578 4219 1281 4162 
Q 984 4106 628 3988 
L 628 4550 
Q 988 4650 1302 4700 
Q 1616 4750 1894 4750 
Q 2613 4750 3031 4423 
Q 3450 4097 3450 3541 
Q 3450 3153 3228 2886 
Q 3006 2619 2597 2516 
z
" transform="scale(0.015625)"/>
       </defs>
       <use xlink:href="#DejaVuSans-33"/>
       <use xlink:href="#DejaVuSans-30" transform="translate(63.623047 0)"/>
      </g>
     </g>
    </g>
    <g id="xtick_8">
     <g id="line2d_8">
      <g>
       <use xlink:href="#m9dbe9e8d2c" x="372.891499" y="138.213996" style="stroke: #000000; stroke-width: 0.8"/>
      </g>
     </g>
     <g id="text_8">
      <!-- 35 -->
      <g transform="translate(366.528999 152.812434) scale(0.1 -0.1)">
       <use xlink:href="#DejaVuSans-33"/>
       <use xlink:href="#DejaVuSans-35" transform="translate(63.623047 0)"/>
      </g>
     </g>
    </g>
    <g id="xtick_9">
     <g id="line2d_9">
      <g>
       <use xlink:href="#m9dbe9e8d2c" x="418.415975" y="138.213996" style="stroke: #000000; stroke-width: 0.8"/>
      </g>
     </g>
     <g id="text_9">
      <!-- 40 -->
      <g transform="translate(412.053475 152.812434) scale(0.1 -0.1)">
       <defs>
        <path id="DejaVuSans-34" d="M 2419 4116 
L 825 1625 
L 2419 1625 
L 2419 4116 
z
M 2253 4666 
L 3047 4666 
L 3047 1625 
L 3713 1625 
L 3713 1100 
L 3047 1100 
L 3047 0 
L 2419 0 
L 2419 1100 
L 313 1100 
L 313 1709 
L 2253 4666 
z
" transform="scale(0.015625)"/>
       </defs>
       <use xlink:href="#DejaVuSans-34"/>
       <use xlink:href="#DejaVuSans-30" transform="translate(63.623047 0)"/>
      </g>
     </g>
    </g>
   </g>
   <g id="matplotlib.axis_2">
    <g id="ytick_1">
     <g id="line2d_10">
      <defs>
       <path id="m50e7041fff" d="M 0 0 
L -3.5 0 
" style="stroke: #000000; stroke-width: 0.8"/>
      </defs>
      <g>
       <use xlink:href="#m50e7041fff" x="36.465625" y="132.39782" style="stroke: #000000; stroke-width: 0.8"/>
      </g>
     </g>
     <g id="text_10">
      <!-- 0.00 -->
      <g transform="translate(7.2 136.197039) scale(0.1 -0.1)">
       <defs>
        <path id="DejaVuSans-2e" d="M 684 794 
L 1344 794 
L 1344 0 
L 684 0 
L 684 794 
z
" transform="scale(0.015625)"/>
       </defs>
       <use xlink:href="#DejaVuSans-30"/>
       <use xlink:href="#DejaVuSans-2e" transform="translate(63.623047 0)"/>
       <use xlink:href="#DejaVuSans-30" transform="translate(95.410156 0)"/>
       <use xlink:href="#DejaVuSans-30" transform="translate(159.033203 0)"/>
      </g>
     </g>
    </g>
    <g id="ytick_2">
     <g id="line2d_11">
      <g>
       <use xlink:href="#m50e7041fff" x="36.465625" y="102.04817" style="stroke: #000000; stroke-width: 0.8"/>
      </g>
     </g>
     <g id="text_11">
      <!-- 0.05 -->
      <g transform="translate(7.2 105.847389) scale(0.1 -0.1)">
       <use xlink:href="#DejaVuSans-30"/>
       <use xlink:href="#DejaVuSans-2e" transform="translate(63.623047 0)"/>
       <use xlink:href="#DejaVuSans-30" transform="translate(95.410156 0)"/>
       <use xlink:href="#DejaVuSans-35" transform="translate(159.033203 0)"/>
      </g>
     </g>
    </g>
    <g id="ytick_3">
     <g id="line2d_12">
      <g>
       <use xlink:href="#m50e7041fff" x="36.465625" y="71.698519" style="stroke: #000000; stroke-width: 0.8"/>
      </g>
     </g>
     <g id="text_12">
      <!-- 0.10 -->
      <g transform="translate(7.2 75.497738) scale(0.1 -0.1)">
       <use xlink:href="#DejaVuSans-30"/>
       <use xlink:href="#DejaVuSans-2e" transform="translate(63.623047 0)"/>
       <use xlink:href="#DejaVuSans-31" transform="translate(95.410156 0)"/>
       <use xlink:href="#DejaVuSans-30" transform="translate(159.033203 0)"/>
      </g>
     </g>
    </g>
    <g id="ytick_4">
     <g id="line2d_13">
      <g>
       <use xlink:href="#m50e7041fff" x="36.465625" y="41.348869" style="stroke: #000000; stroke-width: 0.8"/>
      </g>
     </g>
     <g id="text_13">
      <!-- 0.15 -->
      <g transform="translate(7.2 45.148088) scale(0.1 -0.1)">
       <use xlink:href="#DejaVuSans-30"/>
       <use xlink:href="#DejaVuSans-2e" transform="translate(63.623047 0)"/>
       <use xlink:href="#DejaVuSans-31" transform="translate(95.410156 0)"/>
       <use xlink:href="#DejaVuSans-35" transform="translate(159.033203 0)"/>
      </g>
     </g>
    </g>
    <g id="ytick_5">
     <g id="line2d_14">
      <g>
       <use xlink:href="#m50e7041fff" x="36.465625" y="10.999219" style="stroke: #000000; stroke-width: 0.8"/>
      </g>
     </g>
     <g id="text_14">
      <!-- 0.20 -->
      <g transform="translate(7.2 14.798437) scale(0.1 -0.1)">
       <use xlink:href="#DejaVuSans-30"/>
       <use xlink:href="#DejaVuSans-2e" transform="translate(63.623047 0)"/>
       <use xlink:href="#DejaVuSans-32" transform="translate(95.410156 0)"/>
       <use xlink:href="#DejaVuSans-30" transform="translate(159.033203 0)"/>
      </g>
     </g>
    </g>
   </g>
   <g id="line2d_15">
    <defs>
     <path id="mf7a94c3820" d="M 0 3 
C 0.795609 3 1.55874 2.683901 2.12132 2.12132 
C 2.683901 1.55874 3 0.795609 3 0 
C 3 -0.795609 2.683901 -1.55874 2.12132 -2.12132 
C 1.55874 -2.683901 0.795609 -3 0 -3 
C -0.795609 -3 -1.55874 -2.683901 -2.12132 -2.12132 
C -2.683901 -1.55874 -3 -0.795609 -3 0 
C -3 0.795609 -2.683901 1.55874 -2.12132 2.12132 
C -1.55874 2.683901 -0.795609 3 0 3 
z
" style="stroke: #1f77b4"/>
    </defs>
    <g clip-path="url(#pd8bad64169)">
     <use xlink:href="#mf7a94c3820" x="54.22017" y="132.397241" style="fill: #1f77b4; stroke: #1f77b4"/>
     <use xlink:href="#mf7a94c3820" x="63.325066" y="132.386243" style="fill: #1f77b4; stroke: #1f77b4"/>
     <use xlink:href="#mf7a94c3820" x="72.429961" y="132.287834" style="fill: #1f77b4; stroke: #1f77b4"/>
     <use xlink:href="#mf7a94c3820" x="81.534856" y="131.737904" style="fill: #1f77b4; stroke: #1f77b4"/>
     <use xlink:href="#mf7a94c3820" x="90.639751" y="129.593177" style="fill: #1f77b4; stroke: #1f77b4"/>
     <use xlink:href="#mf7a94c3820" x="99.744646" y="123.422963" style="fill: #1f77b4; stroke: #1f77b4"/>
     <use xlink:href="#mf7a94c3820" x="108.849541" y="109.960678" style="fill: #1f77b4; stroke: #1f77b4"/>
     <use xlink:href="#mf7a94c3820" x="117.954436" y="87.523535" style="fill: #1f77b4; stroke: #1f77b4"/>
     <use xlink:href="#mf7a94c3820" x="127.059331" y="59.477108" style="fill: #1f77b4; stroke: #1f77b4"/>
     <use xlink:href="#mf7a94c3820" x="136.164226" y="35.170203" style="fill: #1f77b4; stroke: #1f77b4"/>
     <use xlink:href="#mf7a94c3820" x="145.269122" y="25.447442" style="fill: #1f77b4; stroke: #1f77b4"/>
     <use xlink:href="#mf7a94c3820" x="154.374017" y="35.170203" style="fill: #1f77b4; stroke: #1f77b4"/>
     <use xlink:href="#mf7a94c3820" x="163.478912" y="59.477108" style="fill: #1f77b4; stroke: #1f77b4"/>
     <use xlink:href="#mf7a94c3820" x="172.583807" y="87.523535" style="fill: #1f77b4; stroke: #1f77b4"/>
     <use xlink:href="#mf7a94c3820" x="181.688702" y="109.960678" style="fill: #1f77b4; stroke: #1f77b4"/>
     <use xlink:href="#mf7a94c3820" x="190.793597" y="123.422963" style="fill: #1f77b4; stroke: #1f77b4"/>
     <use xlink:href="#mf7a94c3820" x="199.898492" y="129.593177" style="fill: #1f77b4; stroke: #1f77b4"/>
     <use xlink:href="#mf7a94c3820" x="209.003387" y="131.737904" style="fill: #1f77b4; stroke: #1f77b4"/>
     <use xlink:href="#mf7a94c3820" x="218.108282" y="132.287834" style="fill: #1f77b4; stroke: #1f77b4"/>
     <use xlink:href="#mf7a94c3820" x="227.213177" y="132.386243" style="fill: #1f77b4; stroke: #1f77b4"/>
     <use xlink:href="#mf7a94c3820" x="236.318073" y="132.397241" style="fill: #1f77b4; stroke: #1f77b4"/>
     <use xlink:href="#mf7a94c3820" x="245.422968" y="132.39782" style="fill: #1f77b4; stroke: #1f77b4"/>
     <use xlink:href="#mf7a94c3820" x="254.527863" y="132.39782" style="fill: #1f77b4; stroke: #1f77b4"/>
     <use xlink:href="#mf7a94c3820" x="263.632758" y="132.39782" style="fill: #1f77b4; stroke: #1f77b4"/>
     <use xlink:href="#mf7a94c3820" x="272.737653" y="132.39782" style="fill: #1f77b4; stroke: #1f77b4"/>
     <use xlink:href="#mf7a94c3820" x="281.842548" y="132.39782" style="fill: #1f77b4; stroke: #1f77b4"/>
     <use xlink:href="#mf7a94c3820" x="290.947443" y="132.39782" style="fill: #1f77b4; stroke: #1f77b4"/>
     <use xlink:href="#mf7a94c3820" x="300.052338" y="132.39782" style="fill: #1f77b4; stroke: #1f77b4"/>
     <use xlink:href="#mf7a94c3820" x="309.157233" y="132.39782" style="fill: #1f77b4; stroke: #1f77b4"/>
     <use xlink:href="#mf7a94c3820" x="318.262128" y="132.39782" style="fill: #1f77b4; stroke: #1f77b4"/>
     <use xlink:href="#mf7a94c3820" x="327.367024" y="132.39782" style="fill: #1f77b4; stroke: #1f77b4"/>
     <use xlink:href="#mf7a94c3820" x="336.471919" y="132.39782" style="fill: #1f77b4; stroke: #1f77b4"/>
     <use xlink:href="#mf7a94c3820" x="345.576814" y="132.39782" style="fill: #1f77b4; stroke: #1f77b4"/>
     <use xlink:href="#mf7a94c3820" x="354.681709" y="132.39782" style="fill: #1f77b4; stroke: #1f77b4"/>
     <use xlink:href="#mf7a94c3820" x="363.786604" y="132.39782" style="fill: #1f77b4; stroke: #1f77b4"/>
     <use xlink:href="#mf7a94c3820" x="372.891499" y="132.39782" style="fill: #1f77b4; stroke: #1f77b4"/>
     <use xlink:href="#mf7a94c3820" x="381.996394" y="132.39782" style="fill: #1f77b4; stroke: #1f77b4"/>
     <use xlink:href="#mf7a94c3820" x="391.101289" y="132.39782" style="fill: #1f77b4; stroke: #1f77b4"/>
     <use xlink:href="#mf7a94c3820" x="400.206184" y="132.39782" style="fill: #1f77b4; stroke: #1f77b4"/>
     <use xlink:href="#mf7a94c3820" x="409.31108" y="132.39782" style="fill: #1f77b4; stroke: #1f77b4"/>
    </g>
   </g>
   <g id="line2d_16">
    <defs>
     <path id="m463b5b2184" d="M -3 3 
L 3 -3 
M -3 -3 
L 3 3 
" style="stroke: #ff7f0e"/>
    </defs>
    <g clip-path="url(#pd8bad64169)">
     <use xlink:href="#m463b5b2184" x="54.22017" y="132.39782" style="fill: #ff7f0e; stroke: #ff7f0e"/>
     <use xlink:href="#m463b5b2184" x="63.325066" y="132.397819" style="fill: #ff7f0e; stroke: #ff7f0e"/>
     <use xlink:href="#m463b5b2184" x="72.429961" y="132.397798" style="fill: #ff7f0e; stroke: #ff7f0e"/>
     <use xlink:href="#m463b5b2184" x="81.534856" y="132.397514" style="fill: #ff7f0e; stroke: #ff7f0e"/>
     <use xlink:href="#m463b5b2184" x="90.639751" y="132.394781" style="fill: #ff7f0e; stroke: #ff7f0e"/>
     <use xlink:href="#m463b5b2184" x="99.744646" y="132.375125" style="fill: #ff7f0e; stroke: #ff7f0e"/>
     <use xlink:href="#m463b5b2184" x="108.849541" y="132.265431" style="fill: #ff7f0e; stroke: #ff7f0e"/>
     <use xlink:href="#m463b5b2184" x="117.954436" y="131.780003" style="fill: #ff7f0e; stroke: #ff7f0e"/>
     <use xlink:href="#m463b5b2184" x="127.059331" y="130.055263" style="fill: #ff7f0e; stroke: #ff7f0e"/>
     <use xlink:href="#m463b5b2184" x="136.164226" y="125.109865" style="fill: #ff7f0e; stroke: #ff7f0e"/>
     <use xlink:href="#m463b5b2184" x="145.269122" y="113.692068" style="fill: #ff7f0e; stroke: #ff7f0e"/>
     <use xlink:href="#m463b5b2184" x="154.374017" y="92.718951" style="fill: #ff7f0e; stroke: #ff7f0e"/>
     <use xlink:href="#m463b5b2184" x="163.478912" y="62.959799" style="fill: #ff7f0e; stroke: #ff7f0e"/>
     <use xlink:href="#m463b5b2184" x="172.583807" y="32.691944" style="fill: #ff7f0e; stroke: #ff7f0e"/>
     <use xlink:href="#m463b5b2184" x="181.688702" y="16.074298" style="fill: #ff7f0e; stroke: #ff7f0e"/>
     <use xlink:href="#m463b5b2184" x="190.793597" y="23.829199" style="fill: #ff7f0e; stroke: #ff7f0e"/>
     <use xlink:href="#m463b5b2184" x="199.898492" y="53.233201" style="fill: #ff7f0e; stroke: #ff7f0e"/>
     <use xlink:href="#m463b5b2184" x="209.003387" y="88.934892" style="fill: #ff7f0e; stroke: #ff7f0e"/>
     <use xlink:href="#m463b5b2184" x="218.108282" y="115.49557" style="fill: #ff7f0e; stroke: #ff7f0e"/>
     <use xlink:href="#m463b5b2184" x="227.213177" y="128.24639" style="fill: #ff7f0e; stroke: #ff7f0e"/>
     <use xlink:href="#m463b5b2184" x="236.318073" y="131.913487" style="fill: #ff7f0e; stroke: #ff7f0e"/>
     <use xlink:href="#m463b5b2184" x="245.422968" y="132.39782" style="fill: #ff7f0e; stroke: #ff7f0e"/>
     <use xlink:href="#m463b5b2184" x="254.527863" y="132.39782" style="fill: #ff7f0e; stroke: #ff7f0e"/>
     <use xlink:href="#m463b5b2184" x="263.632758" y="132.39782" style="fill: #ff7f0e; stroke: #ff7f0e"/>
     <use xlink:href="#m463b5b2184" x="272.737653" y="132.39782" style="fill: #ff7f0e; stroke: #ff7f0e"/>
     <use xlink:href="#m463b5b2184" x="281.842548" y="132.39782" style="fill: #ff7f0e; stroke: #ff7f0e"/>
     <use xlink:href="#m463b5b2184" x="290.947443" y="132.39782" style="fill: #ff7f0e; stroke: #ff7f0e"/>
     <use xlink:href="#m463b5b2184" x="300.052338" y="132.39782" style="fill: #ff7f0e; stroke: #ff7f0e"/>
     <use xlink:href="#m463b5b2184" x="309.157233" y="132.39782" style="fill: #ff7f0e; stroke: #ff7f0e"/>
     <use xlink:href="#m463b5b2184" x="318.262128" y="132.39782" style="fill: #ff7f0e; stroke: #ff7f0e"/>
     <use xlink:href="#m463b5b2184" x="327.367024" y="132.39782" style="fill: #ff7f0e; stroke: #ff7f0e"/>
     <use xlink:href="#m463b5b2184" x="336.471919" y="132.39782" style="fill: #ff7f0e; stroke: #ff7f0e"/>
     <use xlink:href="#m463b5b2184" x="345.576814" y="132.39782" style="fill: #ff7f0e; stroke: #ff7f0e"/>
     <use xlink:href="#m463b5b2184" x="354.681709" y="132.39782" style="fill: #ff7f0e; stroke: #ff7f0e"/>
     <use xlink:href="#m463b5b2184" x="363.786604" y="132.39782" style="fill: #ff7f0e; stroke: #ff7f0e"/>
     <use xlink:href="#m463b5b2184" x="372.891499" y="132.39782" style="fill: #ff7f0e; stroke: #ff7f0e"/>
     <use xlink:href="#m463b5b2184" x="381.996394" y="132.39782" style="fill: #ff7f0e; stroke: #ff7f0e"/>
     <use xlink:href="#m463b5b2184" x="391.101289" y="132.39782" style="fill: #ff7f0e; stroke: #ff7f0e"/>
     <use xlink:href="#m463b5b2184" x="400.206184" y="132.39782" style="fill: #ff7f0e; stroke: #ff7f0e"/>
     <use xlink:href="#m463b5b2184" x="409.31108" y="132.39782" style="fill: #ff7f0e; stroke: #ff7f0e"/>
    </g>
   </g>
   <g id="line2d_17">
    <defs>
     <path id="m900591c254" d="M -0 4.242641 
L 2.545584 0 
L 0 -4.242641 
L -2.545584 -0 
z
" style="stroke: #2ca02c; stroke-linejoin: miter"/>
    </defs>
    <g clip-path="url(#pd8bad64169)">
     <use xlink:href="#m900591c254" x="54.22017" y="132.39782" style="fill: #2ca02c; stroke: #2ca02c; stroke-linejoin: miter"/>
     <use xlink:href="#m900591c254" x="63.325066" y="132.39782" style="fill: #2ca02c; stroke: #2ca02c; stroke-linejoin: miter"/>
     <use xlink:href="#m900591c254" x="72.429961" y="132.39782" style="fill: #2ca02c; stroke: #2ca02c; stroke-linejoin: miter"/>
     <use xlink:href="#m900591c254" x="81.534856" y="132.397815" style="fill: #2ca02c; stroke: #2ca02c; stroke-linejoin: miter"/>
     <use xlink:href="#m900591c254" x="90.639751" y="132.39777" style="fill: #2ca02c; stroke: #2ca02c; stroke-linejoin: miter"/>
     <use xlink:href="#m900591c254" x="99.744646" y="132.397457" style="fill: #2ca02c; stroke: #2ca02c; stroke-linejoin: miter"/>
     <use xlink:href="#m900591c254" x="108.849541" y="132.395701" style="fill: #2ca02c; stroke: #2ca02c; stroke-linejoin: miter"/>
     <use xlink:href="#m900591c254" x="117.954436" y="132.387528" style="fill: #2ca02c; stroke: #2ca02c; stroke-linejoin: miter"/>
     <use xlink:href="#m900591c254" x="127.059331" y="132.355364" style="fill: #2ca02c; stroke: #2ca02c; stroke-linejoin: miter"/>
     <use xlink:href="#m900591c254" x="136.164226" y="132.246866" style="fill: #2ca02c; stroke: #2ca02c; stroke-linejoin: miter"/>
     <use xlink:href="#m900591c254" x="145.269122" y="131.929863" style="fill: #2ca02c; stroke: #2ca02c; stroke-linejoin: miter"/>
     <use xlink:href="#m900591c254" x="154.374017" y="131.121574" style="fill: #2ca02c; stroke: #2ca02c; stroke-linejoin: miter"/>
     <use xlink:href="#m900591c254" x="163.478912" y="129.313559" style="fill: #2ca02c; stroke: #2ca02c; stroke-linejoin: miter"/>
     <use xlink:href="#m900591c254" x="172.583807" y="125.754796" style="fill: #2ca02c; stroke: #2ca02c; stroke-linejoin: miter"/>
     <use xlink:href="#m900591c254" x="181.688702" y="119.586274" style="fill: #2ca02c; stroke: #2ca02c; stroke-linejoin: miter"/>
     <use xlink:href="#m900591c254" x="190.793597" y="110.19114" style="fill: #2ca02c; stroke: #2ca02c; stroke-linejoin: miter"/>
     <use xlink:href="#m900591c254" x="199.898492" y="97.699882" style="fill: #2ca02c; stroke: #2ca02c; stroke-linejoin: miter"/>
     <use xlink:href="#m900591c254" x="209.003387" y="83.412496" style="fill: #2ca02c; stroke: #2ca02c; stroke-linejoin: miter"/>
     <use xlink:href="#m900591c254" x="218.108282" y="69.805462" style="fill: #2ca02c; stroke: #2ca02c; stroke-linejoin: miter"/>
     <use xlink:href="#m900591c254" x="227.213177" y="59.922458" style="fill: #2ca02c; stroke: #2ca02c; stroke-linejoin: miter"/>
     <use xlink:href="#m900591c254" x="236.318073" y="56.298689" style="fill: #2ca02c; stroke: #2ca02c; stroke-linejoin: miter"/>
     <use xlink:href="#m900591c254" x="245.422968" y="59.922458" style="fill: #2ca02c; stroke: #2ca02c; stroke-linejoin: miter"/>
     <use xlink:href="#m900591c254" x="254.527863" y="69.805462" style="fill: #2ca02c; stroke: #2ca02c; stroke-linejoin: miter"/>
     <use xlink:href="#m900591c254" x="263.632758" y="83.412496" style="fill: #2ca02c; stroke: #2ca02c; stroke-linejoin: miter"/>
     <use xlink:href="#m900591c254" x="272.737653" y="97.699882" style="fill: #2ca02c; stroke: #2ca02c; stroke-linejoin: miter"/>
     <use xlink:href="#m900591c254" x="281.842548" y="110.19114" style="fill: #2ca02c; stroke: #2ca02c; stroke-linejoin: miter"/>
     <use xlink:href="#m900591c254" x="290.947443" y="119.586274" style="fill: #2ca02c; stroke: #2ca02c; stroke-linejoin: miter"/>
     <use xlink:href="#m900591c254" x="300.052338" y="125.754796" style="fill: #2ca02c; stroke: #2ca02c; stroke-linejoin: miter"/>
     <use xlink:href="#m900591c254" x="309.157233" y="129.313559" style="fill: #2ca02c; stroke: #2ca02c; stroke-linejoin: miter"/>
     <use xlink:href="#m900591c254" x="318.262128" y="131.121574" style="fill: #2ca02c; stroke: #2ca02c; stroke-linejoin: miter"/>
     <use xlink:href="#m900591c254" x="327.367024" y="131.929863" style="fill: #2ca02c; stroke: #2ca02c; stroke-linejoin: miter"/>
     <use xlink:href="#m900591c254" x="336.471919" y="132.246866" style="fill: #2ca02c; stroke: #2ca02c; stroke-linejoin: miter"/>
     <use xlink:href="#m900591c254" x="345.576814" y="132.355364" style="fill: #2ca02c; stroke: #2ca02c; stroke-linejoin: miter"/>
     <use xlink:href="#m900591c254" x="354.681709" y="132.387528" style="fill: #2ca02c; stroke: #2ca02c; stroke-linejoin: miter"/>
     <use xlink:href="#m900591c254" x="363.786604" y="132.395701" style="fill: #2ca02c; stroke: #2ca02c; stroke-linejoin: miter"/>
     <use xlink:href="#m900591c254" x="372.891499" y="132.397457" style="fill: #2ca02c; stroke: #2ca02c; stroke-linejoin: miter"/>
     <use xlink:href="#m900591c254" x="381.996394" y="132.39777" style="fill: #2ca02c; stroke: #2ca02c; stroke-linejoin: miter"/>
     <use xlink:href="#m900591c254" x="391.101289" y="132.397815" style="fill: #2ca02c; stroke: #2ca02c; stroke-linejoin: miter"/>
     <use xlink:href="#m900591c254" x="400.206184" y="132.39782" style="fill: #2ca02c; stroke: #2ca02c; stroke-linejoin: miter"/>
     <use xlink:href="#m900591c254" x="409.31108" y="132.39782" style="fill: #2ca02c; stroke: #2ca02c; stroke-linejoin: miter"/>
    </g>
   </g>
   <g id="patch_3">
    <path d="M 36.465625 138.213996 
L 36.465625 10.258122 
" style="fill: none; stroke: #000000; stroke-width: 0.8; stroke-linejoin: miter; stroke-linecap: square"/>
   </g>
   <g id="patch_4">
    <path d="M 427.065625 138.213996 
L 427.065625 10.258122 
" style="fill: none; stroke: #000000; stroke-width: 0.8; stroke-linejoin: miter; stroke-linecap: square"/>
   </g>
   <g id="patch_5">
    <path d="M 36.465625 138.213996 
L 427.065625 138.213996 
" style="fill: none; stroke: #000000; stroke-width: 0.8; stroke-linejoin: miter; stroke-linecap: square"/>
   </g>
   <g id="patch_6">
    <path d="M 36.465625 10.258122 
L 427.065625 10.258122 
" style="fill: none; stroke: #000000; stroke-width: 0.8; stroke-linejoin: miter; stroke-linecap: square"/>
   </g>
   <g id="legend_1">
    <g id="patch_7">
     <path d="M 322.765625 73.858122 
L 420.065625 73.858122 
Q 422.065625 73.858122 422.065625 71.858122 
L 422.065625 17.258122 
Q 422.065625 15.258122 420.065625 15.258122 
L 322.765625 15.258122 
Q 320.765625 15.258122 320.765625 17.258122 
L 320.765625 71.858122 
Q 320.765625 73.858122 322.765625 73.858122 
z
" style="fill: #ffffff; opacity: 0.8; stroke: #cccccc; stroke-linejoin: miter"/>
    </g>
    <g id="line2d_18">
     <g>
      <use xlink:href="#mf7a94c3820" x="334.765625" y="25.258122" style="fill: #1f77b4; stroke: #1f77b4"/>
     </g>
    </g>
    <g id="text_15">
     <!-- $n=20, p=\frac{1}{2}$ -->
     <g transform="translate(352.765625 28.758122) scale(0.1 -0.1)">
      <defs>
       <path id="DejaVuSans-Oblique-6e" d="M 3566 2113 
L 3156 0 
L 2578 0 
L 2988 2091 
Q 3016 2238 3031 2350 
Q 3047 2463 3047 2528 
Q 3047 2791 2881 2937 
Q 2716 3084 2419 3084 
Q 1956 3084 1622 2776 
Q 1288 2469 1184 1941 
L 800 0 
L 225 0 
L 903 3500 
L 1478 3500 
L 1363 2950 
Q 1603 3253 1940 3418 
Q 2278 3584 2650 3584 
Q 3113 3584 3367 3334 
Q 3622 3084 3622 2631 
Q 3622 2519 3608 2391 
Q 3594 2263 3566 2113 
z
" transform="scale(0.015625)"/>
       <path id="DejaVuSans-3d" d="M 678 2906 
L 4684 2906 
L 4684 2381 
L 678 2381 
L 678 2906 
z
M 678 1631 
L 4684 1631 
L 4684 1100 
L 678 1100 
L 678 1631 
z
" transform="scale(0.015625)"/>
       <path id="DejaVuSans-2c" d="M 750 794 
L 1409 794 
L 1409 256 
L 897 -744 
L 494 -744 
L 750 256 
L 750 794 
z
" transform="scale(0.015625)"/>
       <path id="DejaVuSans-Oblique-70" d="M 3175 2156 
Q 3175 2616 2975 2859 
Q 2775 3103 2400 3103 
Q 2144 3103 1911 2972 
Q 1678 2841 1497 2591 
Q 1319 2344 1212 1994 
Q 1106 1644 1106 1300 
Q 1106 863 1306 627 
Q 1506 391 1875 391 
Q 2147 391 2380 519 
Q 2613 647 2778 891 
Q 2956 1147 3065 1494 
Q 3175 1841 3175 2156 
z
M 1394 2969 
Q 1625 3272 1939 3428 
Q 2253 3584 2638 3584 
Q 3175 3584 3472 3232 
Q 3769 2881 3769 2247 
Q 3769 1728 3584 1258 
Q 3400 788 3053 416 
Q 2822 169 2531 39 
Q 2241 -91 1919 -91 
Q 1547 -91 1294 64 
Q 1041 219 916 525 
L 556 -1331 
L -19 -1331 
L 922 3500 
L 1497 3500 
L 1394 2969 
z
" transform="scale(0.015625)"/>
      </defs>
      <use xlink:href="#DejaVuSans-Oblique-6e" transform="translate(0 0.16875)"/>
      <use xlink:href="#DejaVuSans-3d" transform="translate(82.861328 0.16875)"/>
      <use xlink:href="#DejaVuSans-32" transform="translate(186.132812 0.16875)"/>
      <use xlink:href="#DejaVuSans-30" transform="translate(249.755859 0.16875)"/>
      <use xlink:href="#DejaVuSans-2c" transform="translate(313.378906 0.16875)"/>
      <use xlink:href="#DejaVuSans-Oblique-70" transform="translate(364.648438 0.16875)"/>
      <use xlink:href="#DejaVuSans-3d" transform="translate(447.607422 0.16875)"/>
      <use xlink:href="#DejaVuSans-31" transform="translate(550.878906 43.965625) scale(0.7)"/>
      <use xlink:href="#DejaVuSans-32" transform="translate(550.878906 -39.2375) scale(0.7)"/>
      <path d="M 550.878906 18.965625 
L 550.878906 25.215625 
L 595.415039 25.215625 
L 595.415039 18.965625 
L 550.878906 18.965625 
z
"/>
     </g>
    </g>
    <g id="line2d_19">
     <g>
      <use xlink:href="#m463b5b2184" x="334.765625" y="43.758122" style="fill: #ff7f0e; stroke: #ff7f0e"/>
     </g>
    </g>
    <g id="text_16">
     <!-- $n=20, p=\frac{7}{10}$ -->
     <g transform="translate(352.765625 47.258122) scale(0.1 -0.1)">
      <defs>
       <path id="DejaVuSans-37" d="M 525 4666 
L 3525 4666 
L 3525 4397 
L 1831 0 
L 1172 0 
L 2766 4134 
L 525 4134 
L 525 4666 
z
" transform="scale(0.015625)"/>
      </defs>
      <use xlink:href="#DejaVuSans-Oblique-6e" transform="translate(0 0.16875)"/>
      <use xlink:href="#DejaVuSans-3d" transform="translate(82.861328 0.16875)"/>
      <use xlink:href="#DejaVuSans-32" transform="translate(186.132812 0.16875)"/>
      <use xlink:href="#DejaVuSans-30" transform="translate(249.755859 0.16875)"/>
      <use xlink:href="#DejaVuSans-2c" transform="translate(313.378906 0.16875)"/>
      <use xlink:href="#DejaVuSans-Oblique-70" transform="translate(364.648438 0.16875)"/>
      <use xlink:href="#DejaVuSans-3d" transform="translate(447.607422 0.16875)"/>
      <use xlink:href="#DejaVuSans-37" transform="translate(572.878906 43.965625) scale(0.7)"/>
      <use xlink:href="#DejaVuSans-31" transform="translate(550.878906 -39.2375) scale(0.7)"/>
      <use xlink:href="#DejaVuSans-30" transform="translate(595.415039 -39.2375) scale(0.7)"/>
      <path d="M 550.878906 18.965625 
L 550.878906 25.215625 
L 639.951172 25.215625 
L 639.951172 18.965625 
L 550.878906 18.965625 
z
"/>
     </g>
    </g>
    <g id="line2d_20">
     <g>
      <use xlink:href="#m900591c254" x="334.765625" y="62.358122" style="fill: #2ca02c; stroke: #2ca02c; stroke-linejoin: miter"/>
     </g>
    </g>
    <g id="text_17">
     <!-- $n=40, p=\frac{1}{2}$ -->
     <g transform="translate(352.765625 65.858122) scale(0.1 -0.1)">
      <use xlink:href="#DejaVuSans-Oblique-6e" transform="translate(0 0.16875)"/>
      <use xlink:href="#DejaVuSans-3d" transform="translate(82.861328 0.16875)"/>
      <use xlink:href="#DejaVuSans-34" transform="translate(186.132812 0.16875)"/>
      <use xlink:href="#DejaVuSans-30" transform="translate(249.755859 0.16875)"/>
      <use xlink:href="#DejaVuSans-2c" transform="translate(313.378906 0.16875)"/>
      <use xlink:href="#DejaVuSans-Oblique-70" transform="translate(364.648438 0.16875)"/>
      <use xlink:href="#DejaVuSans-3d" transform="translate(447.607422 0.16875)"/>
      <use xlink:href="#DejaVuSans-31" transform="translate(550.878906 43.965625) scale(0.7)"/>
      <use xlink:href="#DejaVuSans-32" transform="translate(550.878906 -39.2375) scale(0.7)"/>
      <path d="M 550.878906 18.965625 
L 550.878906 25.215625 
L 595.415039 25.215625 
L 595.415039 18.965625 
L 550.878906 18.965625 
z
"/>
     </g>
    </g>
   </g>
  </g>
 </g>
 <defs>
  <clipPath id="pd8bad64169">
   <rect x="36.465625" y="10.258122" width="390.6" height="127.955875"/>
  </clipPath>
 </defs>
</svg>
