<?xml version="1.0" encoding="utf-8" standalone="no"?>
<!DOCTYPE svg PUBLIC "-//W3C//DTD SVG 1.1//EN"
  "http://www.w3.org/Graphics/SVG/1.1/DTD/svg11.dtd">
<svg xmlns:xlink="http://www.w3.org/1999/xlink" width="440.628125pt" height="159.004335pt" viewBox="0 0 440.628125 159.004335" xmlns="http://www.w3.org/2000/svg" version="1.1">
 <metadata>
  <rdf:RDF xmlns:dc="http://purl.org/dc/elements/1.1/" xmlns:cc="http://creativecommons.org/ns#" xmlns:rdf="http://www.w3.org/1999/02/22-rdf-syntax-ns#">
   <cc:Work>
    <dc:type rdf:resource="http://purl.org/dc/dcmitype/StillImage"/>
    <dc:date>2025-01-27T13:57:15.222383</dc:date>
    <dc:format>image/svg+xml</dc:format>
    <dc:creator>
     <cc:Agent>
      <dc:title>Matplotlib v3.9.2, https://matplotlib.org/</dc:title>
     </cc:Agent>
    </dc:creator>
   </cc:Work>
  </rdf:RDF>
 </metadata>
 <defs>
  <style type="text/css">*{stroke-linejoin: round; stroke-linecap: butt}</style>
 </defs>
 <g id="figure_1">
  <g id="patch_1">
   <path d="M 0 159.004335 
L 440.628125 159.004335 
L 440.628125 0 
L 0 0 
z
" style="fill: #ffffff"/>
  </g>
  <g id="axes_1">
   <g id="patch_2">
    <path d="M 42.828125 135.12621 
L 433.428125 135.12621 
L 433.428125 8.332401 
L 42.828125 8.332401 
z
" style="fill: #ffffff"/>
   </g>
   <g id="matplotlib.axis_1">
    <g id="xtick_1">
     <g id="line2d_1">
      <path d="M 60.58267 135.12621 
L 60.58267 8.332401 
" clip-path="url(#p021b2b23a3)" style="fill: none; stroke: #b0b0b0; stroke-width: 0.8; stroke-linecap: square"/>
     </g>
     <g id="line2d_2">
      <defs>
       <path id="ma7c9fb5e8f" d="M 0 0 
L 0 3.5 
" style="stroke: #000000; stroke-width: 0.8"/>
      </defs>
      <g>
       <use xlink:href="#ma7c9fb5e8f" x="60.58267" y="135.12621" style="stroke: #000000; stroke-width: 0.8"/>
      </g>
     </g>
     <g id="text_1">
      <!-- 0 -->
      <g transform="translate(57.40142 149.724648) scale(0.1 -0.1)">
       <defs>
        <path id="DejaVuSans-30" d="M 2034 4250 
Q 1547 4250 1301 3770 
Q 1056 3291 1056 2328 
Q 1056 1369 1301 889 
Q 1547 409 2034 409 
Q 2525 409 2770 889 
Q 3016 1369 3016 2328 
Q 3016 3291 2770 3770 
Q 2525 4250 2034 4250 
z
M 2034 4750 
Q 2819 4750 3233 4129 
Q 3647 3509 3647 2328 
Q 3647 1150 3233 529 
Q 2819 -91 2034 -91 
Q 1250 -91 836 529 
Q 422 1150 422 2328 
Q 422 3509 836 4129 
Q 1250 4750 2034 4750 
z
" transform="scale(0.015625)"/>
       </defs>
       <use xlink:href="#DejaVuSans-30"/>
      </g>
     </g>
    </g>
    <g id="xtick_2">
     <g id="line2d_3">
      <path d="M 104.969034 135.12621 
L 104.969034 8.332401 
" clip-path="url(#p021b2b23a3)" style="fill: none; stroke: #b0b0b0; stroke-width: 0.8; stroke-linecap: square"/>
     </g>
     <g id="line2d_4">
      <g>
       <use xlink:href="#ma7c9fb5e8f" x="104.969034" y="135.12621" style="stroke: #000000; stroke-width: 0.8"/>
      </g>
     </g>
     <g id="text_2">
      <!-- 50 -->
      <g transform="translate(98.606534 149.724648) scale(0.1 -0.1)">
       <defs>
        <path id="DejaVuSans-35" d="M 691 4666 
L 3169 4666 
L 3169 4134 
L 1269 4134 
L 1269 2991 
Q 1406 3038 1543 3061 
Q 1681 3084 1819 3084 
Q 2600 3084 3056 2656 
Q 3513 2228 3513 1497 
Q 3513 744 3044 326 
Q 2575 -91 1722 -91 
Q 1428 -91 1123 -41 
Q 819 9 494 109 
L 494 744 
Q 775 591 1075 516 
Q 1375 441 1709 441 
Q 2250 441 2565 725 
Q 2881 1009 2881 1497 
Q 2881 1984 2565 2268 
Q 2250 2553 1709 2553 
Q 1456 2553 1204 2497 
Q 953 2441 691 2322 
L 691 4666 
z
" transform="scale(0.015625)"/>
       </defs>
       <use xlink:href="#DejaVuSans-35"/>
       <use xlink:href="#DejaVuSans-30" x="63.623047"/>
      </g>
     </g>
    </g>
    <g id="xtick_3">
     <g id="line2d_5">
      <path d="M 149.355398 135.12621 
L 149.355398 8.332401 
" clip-path="url(#p021b2b23a3)" style="fill: none; stroke: #b0b0b0; stroke-width: 0.8; stroke-linecap: square"/>
     </g>
     <g id="line2d_6">
      <g>
       <use xlink:href="#ma7c9fb5e8f" x="149.355398" y="135.12621" style="stroke: #000000; stroke-width: 0.8"/>
      </g>
     </g>
     <g id="text_3">
      <!-- 100 -->
      <g transform="translate(139.811648 149.724648) scale(0.1 -0.1)">
       <defs>
        <path id="DejaVuSans-31" d="M 794 531 
L 1825 531 
L 1825 4091 
L 703 3866 
L 703 4441 
L 1819 4666 
L 2450 4666 
L 2450 531 
L 3481 531 
L 3481 0 
L 794 0 
L 794 531 
z
" transform="scale(0.015625)"/>
       </defs>
       <use xlink:href="#DejaVuSans-31"/>
       <use xlink:href="#DejaVuSans-30" x="63.623047"/>
       <use xlink:href="#DejaVuSans-30" x="127.246094"/>
      </g>
     </g>
    </g>
    <g id="xtick_4">
     <g id="line2d_7">
      <path d="M 193.741761 135.12621 
L 193.741761 8.332401 
" clip-path="url(#p021b2b23a3)" style="fill: none; stroke: #b0b0b0; stroke-width: 0.8; stroke-linecap: square"/>
     </g>
     <g id="line2d_8">
      <g>
       <use xlink:href="#ma7c9fb5e8f" x="193.741761" y="135.12621" style="stroke: #000000; stroke-width: 0.8"/>
      </g>
     </g>
     <g id="text_4">
      <!-- 150 -->
      <g transform="translate(184.198011 149.724648) scale(0.1 -0.1)">
       <use xlink:href="#DejaVuSans-31"/>
       <use xlink:href="#DejaVuSans-35" x="63.623047"/>
       <use xlink:href="#DejaVuSans-30" x="127.246094"/>
      </g>
     </g>
    </g>
    <g id="xtick_5">
     <g id="line2d_9">
      <path d="M 238.128125 135.12621 
L 238.128125 8.332401 
" clip-path="url(#p021b2b23a3)" style="fill: none; stroke: #b0b0b0; stroke-width: 0.8; stroke-linecap: square"/>
     </g>
     <g id="line2d_10">
      <g>
       <use xlink:href="#ma7c9fb5e8f" x="238.128125" y="135.12621" style="stroke: #000000; stroke-width: 0.8"/>
      </g>
     </g>
     <g id="text_5">
      <!-- 200 -->
      <g transform="translate(228.584375 149.724648) scale(0.1 -0.1)">
       <defs>
        <path id="DejaVuSans-32" d="M 1228 531 
L 3431 531 
L 3431 0 
L 469 0 
L 469 531 
Q 828 903 1448 1529 
Q 2069 2156 2228 2338 
Q 2531 2678 2651 2914 
Q 2772 3150 2772 3378 
Q 2772 3750 2511 3984 
Q 2250 4219 1831 4219 
Q 1534 4219 1204 4116 
Q 875 4013 500 3803 
L 500 4441 
Q 881 4594 1212 4672 
Q 1544 4750 1819 4750 
Q 2544 4750 2975 4387 
Q 3406 4025 3406 3419 
Q 3406 3131 3298 2873 
Q 3191 2616 2906 2266 
Q 2828 2175 2409 1742 
Q 1991 1309 1228 531 
z
" transform="scale(0.015625)"/>
       </defs>
       <use xlink:href="#DejaVuSans-32"/>
       <use xlink:href="#DejaVuSans-30" x="63.623047"/>
       <use xlink:href="#DejaVuSans-30" x="127.246094"/>
      </g>
     </g>
    </g>
    <g id="xtick_6">
     <g id="line2d_11">
      <path d="M 282.514489 135.12621 
L 282.514489 8.332401 
" clip-path="url(#p021b2b23a3)" style="fill: none; stroke: #b0b0b0; stroke-width: 0.8; stroke-linecap: square"/>
     </g>
     <g id="line2d_12">
      <g>
       <use xlink:href="#ma7c9fb5e8f" x="282.514489" y="135.12621" style="stroke: #000000; stroke-width: 0.8"/>
      </g>
     </g>
     <g id="text_6">
      <!-- 250 -->
      <g transform="translate(272.970739 149.724648) scale(0.1 -0.1)">
       <use xlink:href="#DejaVuSans-32"/>
       <use xlink:href="#DejaVuSans-35" x="63.623047"/>
       <use xlink:href="#DejaVuSans-30" x="127.246094"/>
      </g>
     </g>
    </g>
    <g id="xtick_7">
     <g id="line2d_13">
      <path d="M 326.900852 135.12621 
L 326.900852 8.332401 
" clip-path="url(#p021b2b23a3)" style="fill: none; stroke: #b0b0b0; stroke-width: 0.8; stroke-linecap: square"/>
     </g>
     <g id="line2d_14">
      <g>
       <use xlink:href="#ma7c9fb5e8f" x="326.900852" y="135.12621" style="stroke: #000000; stroke-width: 0.8"/>
      </g>
     </g>
     <g id="text_7">
      <!-- 300 -->
      <g transform="translate(317.357102 149.724648) scale(0.1 -0.1)">
       <defs>
        <path id="DejaVuSans-33" d="M 2597 2516 
Q 3050 2419 3304 2112 
Q 3559 1806 3559 1356 
Q 3559 666 3084 287 
Q 2609 -91 1734 -91 
Q 1441 -91 1130 -33 
Q 819 25 488 141 
L 488 750 
Q 750 597 1062 519 
Q 1375 441 1716 441 
Q 2309 441 2620 675 
Q 2931 909 2931 1356 
Q 2931 1769 2642 2001 
Q 2353 2234 1838 2234 
L 1294 2234 
L 1294 2753 
L 1863 2753 
Q 2328 2753 2575 2939 
Q 2822 3125 2822 3475 
Q 2822 3834 2567 4026 
Q 2313 4219 1838 4219 
Q 1578 4219 1281 4162 
Q 984 4106 628 3988 
L 628 4550 
Q 988 4650 1302 4700 
Q 1616 4750 1894 4750 
Q 2613 4750 3031 4423 
Q 3450 4097 3450 3541 
Q 3450 3153 3228 2886 
Q 3006 2619 2597 2516 
z
" transform="scale(0.015625)"/>
       </defs>
       <use xlink:href="#DejaVuSans-33"/>
       <use xlink:href="#DejaVuSans-30" x="63.623047"/>
       <use xlink:href="#DejaVuSans-30" x="127.246094"/>
      </g>
     </g>
    </g>
    <g id="xtick_8">
     <g id="line2d_15">
      <path d="M 371.287216 135.12621 
L 371.287216 8.332401 
" clip-path="url(#p021b2b23a3)" style="fill: none; stroke: #b0b0b0; stroke-width: 0.8; stroke-linecap: square"/>
     </g>
     <g id="line2d_16">
      <g>
       <use xlink:href="#ma7c9fb5e8f" x="371.287216" y="135.12621" style="stroke: #000000; stroke-width: 0.8"/>
      </g>
     </g>
     <g id="text_8">
      <!-- 350 -->
      <g transform="translate(361.743466 149.724648) scale(0.1 -0.1)">
       <use xlink:href="#DejaVuSans-33"/>
       <use xlink:href="#DejaVuSans-35" x="63.623047"/>
       <use xlink:href="#DejaVuSans-30" x="127.246094"/>
      </g>
     </g>
    </g>
    <g id="xtick_9">
     <g id="line2d_17">
      <path d="M 415.67358 135.12621 
L 415.67358 8.332401 
" clip-path="url(#p021b2b23a3)" style="fill: none; stroke: #b0b0b0; stroke-width: 0.8; stroke-linecap: square"/>
     </g>
     <g id="line2d_18">
      <g>
       <use xlink:href="#ma7c9fb5e8f" x="415.67358" y="135.12621" style="stroke: #000000; stroke-width: 0.8"/>
      </g>
     </g>
     <g id="text_9">
      <!-- 400 -->
      <g transform="translate(406.12983 149.724648) scale(0.1 -0.1)">
       <defs>
        <path id="DejaVuSans-34" d="M 2419 4116 
L 825 1625 
L 2419 1625 
L 2419 4116 
z
M 2253 4666 
L 3047 4666 
L 3047 1625 
L 3713 1625 
L 3713 1100 
L 3047 1100 
L 3047 0 
L 2419 0 
L 2419 1100 
L 313 1100 
L 313 1709 
L 2253 4666 
z
" transform="scale(0.015625)"/>
       </defs>
       <use xlink:href="#DejaVuSans-34"/>
       <use xlink:href="#DejaVuSans-30" x="63.623047"/>
       <use xlink:href="#DejaVuSans-30" x="127.246094"/>
      </g>
     </g>
    </g>
   </g>
   <g id="matplotlib.axis_2">
    <g id="ytick_1">
     <g id="line2d_19">
      <path d="M 42.828125 129.362855 
L 433.428125 129.362855 
" clip-path="url(#p021b2b23a3)" style="fill: none; stroke: #b0b0b0; stroke-width: 0.8; stroke-linecap: square"/>
     </g>
     <g id="line2d_20">
      <defs>
       <path id="mdd34a131ce" d="M 0 0 
L -3.5 0 
" style="stroke: #000000; stroke-width: 0.8"/>
      </defs>
      <g>
       <use xlink:href="#mdd34a131ce" x="42.828125" y="129.362855" style="stroke: #000000; stroke-width: 0.8"/>
      </g>
     </g>
     <g id="text_10">
      <!-- 0.000 -->
      <g transform="translate(7.2 133.162074) scale(0.1 -0.1)">
       <defs>
        <path id="DejaVuSans-2e" d="M 684 794 
L 1344 794 
L 1344 0 
L 684 0 
L 684 794 
z
" transform="scale(0.015625)"/>
       </defs>
       <use xlink:href="#DejaVuSans-30"/>
       <use xlink:href="#DejaVuSans-2e" x="63.623047"/>
       <use xlink:href="#DejaVuSans-30" x="95.410156"/>
       <use xlink:href="#DejaVuSans-30" x="159.033203"/>
       <use xlink:href="#DejaVuSans-30" x="222.65625"/>
      </g>
     </g>
    </g>
    <g id="ytick_2">
     <g id="line2d_21">
      <path d="M 42.828125 89.90831 
L 433.428125 89.90831 
" clip-path="url(#p021b2b23a3)" style="fill: none; stroke: #b0b0b0; stroke-width: 0.8; stroke-linecap: square"/>
     </g>
     <g id="line2d_22">
      <g>
       <use xlink:href="#mdd34a131ce" x="42.828125" y="89.90831" style="stroke: #000000; stroke-width: 0.8"/>
      </g>
     </g>
     <g id="text_11">
      <!-- 0.005 -->
      <g transform="translate(7.2 93.707528) scale(0.1 -0.1)">
       <use xlink:href="#DejaVuSans-30"/>
       <use xlink:href="#DejaVuSans-2e" x="63.623047"/>
       <use xlink:href="#DejaVuSans-30" x="95.410156"/>
       <use xlink:href="#DejaVuSans-30" x="159.033203"/>
       <use xlink:href="#DejaVuSans-35" x="222.65625"/>
      </g>
     </g>
    </g>
    <g id="ytick_3">
     <g id="line2d_23">
      <path d="M 42.828125 50.453764 
L 433.428125 50.453764 
" clip-path="url(#p021b2b23a3)" style="fill: none; stroke: #b0b0b0; stroke-width: 0.8; stroke-linecap: square"/>
     </g>
     <g id="line2d_24">
      <g>
       <use xlink:href="#mdd34a131ce" x="42.828125" y="50.453764" style="stroke: #000000; stroke-width: 0.8"/>
      </g>
     </g>
     <g id="text_12">
      <!-- 0.010 -->
      <g transform="translate(7.2 54.252983) scale(0.1 -0.1)">
       <use xlink:href="#DejaVuSans-30"/>
       <use xlink:href="#DejaVuSans-2e" x="63.623047"/>
       <use xlink:href="#DejaVuSans-30" x="95.410156"/>
       <use xlink:href="#DejaVuSans-31" x="159.033203"/>
       <use xlink:href="#DejaVuSans-30" x="222.65625"/>
      </g>
     </g>
    </g>
    <g id="ytick_4">
     <g id="line2d_25">
      <path d="M 42.828125 10.999219 
L 433.428125 10.999219 
" clip-path="url(#p021b2b23a3)" style="fill: none; stroke: #b0b0b0; stroke-width: 0.8; stroke-linecap: square"/>
     </g>
     <g id="line2d_26">
      <g>
       <use xlink:href="#mdd34a131ce" x="42.828125" y="10.999219" style="stroke: #000000; stroke-width: 0.8"/>
      </g>
     </g>
     <g id="text_13">
      <!-- 0.015 -->
      <g transform="translate(7.2 14.798437) scale(0.1 -0.1)">
       <use xlink:href="#DejaVuSans-30"/>
       <use xlink:href="#DejaVuSans-2e" x="63.623047"/>
       <use xlink:href="#DejaVuSans-30" x="95.410156"/>
       <use xlink:href="#DejaVuSans-31" x="159.033203"/>
       <use xlink:href="#DejaVuSans-35" x="222.65625"/>
      </g>
     </g>
    </g>
   </g>
   <g id="line2d_27">
    <path d="M 60.58267 129.362855 
L 209.838869 129.253075 
L 217.82234 129.007701 
L 223.028951 128.642436 
L 227.194241 128.135705 
L 230.665315 127.492753 
L 233.789282 126.677977 
L 236.566142 125.71129 
L 238.995894 124.634985 
L 241.425646 123.302615 
L 243.50829 121.925155 
L 245.590935 120.301719 
L 247.67358 118.405097 
L 249.756224 116.208913 
L 251.838869 113.688661 
L 253.921513 110.822858 
L 256.004158 107.59432 
L 258.086803 103.991488 
L 260.516555 99.309448 
L 262.946307 94.119168 
L 265.723166 87.597955 
L 268.847133 79.595171 
L 272.318208 70.058628 
L 284.119861 37.028088 
L 286.549613 31.147992 
L 288.632257 26.635303 
L 290.367794 23.316227 
L 292.103332 20.449489 
L 293.491761 18.510176 
L 294.880191 16.905773 
L 296.268621 15.651709 
L 297.657051 14.760149 
L 298.698373 14.334744 
L 299.739695 14.120563 
L 300.781018 14.118791 
L 301.82234 14.329438 
L 302.863662 14.75134 
L 303.904985 15.382168 
L 305.293414 16.542114 
L 306.681844 18.055918 
L 308.070274 19.908985 
L 309.805811 22.675196 
L 311.541348 25.903054 
L 313.623993 30.320087 
L 316.053745 36.109355 
L 318.830604 43.37656 
L 322.648786 54.083341 
L 330.979365 77.687769 
L 334.103332 85.83295 
L 336.880191 92.506056 
L 339.309943 97.841311 
L 341.739695 102.67368 
L 344.169447 106.991071 
L 346.252092 110.284456 
L 348.334737 113.212638 
L 350.417381 115.791916 
L 352.500026 118.043113 
L 354.58267 119.990293 
L 356.665315 121.659583 
L 358.74796 123.078116 
L 361.177712 124.45245 
L 363.607464 125.564591 
L 366.384323 126.565302 
L 369.161183 127.329215 
L 372.28515 127.964407 
L 376.103332 128.497715 
L 380.615728 128.887828 
L 386.516555 129.157012 
L 395.194241 129.308816 
L 414.28515 129.361039 
L 415.67358 129.36147 
L 415.67358 129.36147 
" clip-path="url(#p021b2b23a3)" style="fill: none; stroke: #1f77b4; stroke-width: 1.5; stroke-linecap: square"/>
   </g>
   <g id="line2d_28">
    <path d="M 60.58267 129.362855 
L 219.21077 129.25532 
L 227.888456 129.021235 
L 233.789282 128.65725 
L 238.301679 128.174156 
L 242.119861 127.555697 
L 245.590935 126.764877 
L 248.714902 125.813063 
L 251.491761 124.731686 
L 253.921513 123.570313 
L 256.351265 122.177755 
L 258.781018 120.524297 
L 261.21077 118.580466 
L 263.640522 116.318169 
L 266.070274 113.712029 
L 268.500026 110.740873 
L 270.929778 107.389338 
L 273.35953 103.649529 
L 275.789282 99.52264 
L 278.566142 94.34787 
L 281.690108 87.987319 
L 285.161183 80.353489 
L 289.67358 69.81779 
L 298.004158 50.256259 
L 301.128125 43.556457 
L 303.557877 38.821031 
L 305.640522 35.180666 
L 307.723166 31.991231 
L 309.458704 29.7176 
L 311.194241 27.823021 
L 312.58267 26.596168 
L 313.9711 25.6368 
L 315.35953 24.952647 
L 316.74796 24.54925 
L 318.136389 24.429888 
L 319.524819 24.595533 
L 320.913249 25.044836 
L 322.301679 25.774147 
L 323.690108 26.777564 
L 325.078538 28.04701 
L 326.814075 29.992287 
L 328.549613 32.313245 
L 330.28515 34.981667 
L 332.367794 38.59735 
L 334.797546 43.308668 
L 337.574406 49.215407 
L 341.04548 57.144591 
L 353.541348 86.241976 
L 356.665315 92.739488 
L 359.442175 98.052121 
L 362.219034 102.883548 
L 364.648786 106.698409 
L 367.078538 110.12447 
L 369.50829 113.167997 
L 371.938042 115.843042 
L 374.367794 118.169784 
L 376.797546 120.172912 
L 379.227299 121.880102 
L 381.657051 123.320657 
L 384.086803 124.524323 
L 386.863662 125.647309 
L 389.640522 126.54051 
L 392.764489 127.318167 
L 396.235563 127.956543 
L 400.400852 128.48527 
L 405.260356 128.872018 
L 411.855398 129.151345 
L 415.67358 129.236529 
L 415.67358 129.236529 
" clip-path="url(#p021b2b23a3)" style="fill: none; stroke: #ff7f0e; stroke-width: 1.5; stroke-linecap: square"/>
   </g>
   <g id="line2d_29">
    <path d="M 60.58267 129.362855 
L 207.062009 129.253398 
L 218.169447 129.007839 
L 225.458704 128.640744 
L 231.35953 128.125313 
L 236.219034 127.480485 
L 240.384323 126.712749 
L 244.202505 125.787606 
L 247.67358 124.723746 
L 250.797546 123.553831 
L 253.921513 122.154382 
L 257.04548 120.498345 
L 259.82234 118.790076 
L 262.599199 116.842419 
L 265.376059 114.64157 
L 268.152918 112.177126 
L 271.276885 109.08217 
L 274.400852 105.645365 
L 277.524819 101.875924 
L 280.995894 97.322766 
L 284.814075 91.924561 
L 289.326472 85.137917 
L 304.252092 62.283693 
L 307.376059 58.060236 
L 310.152918 54.652836 
L 312.58267 51.993007 
L 315.012423 49.67574 
L 317.095067 47.989539 
L 319.177712 46.60106 
L 320.913249 45.6833 
L 322.648786 44.991252 
L 324.384323 44.530657 
L 326.119861 44.305355 
L 327.855398 44.317228 
L 329.590935 44.566177 
L 331.326472 45.050122 
L 333.062009 45.76503 
L 334.797546 46.704975 
L 336.880191 48.118933 
L 338.962836 49.829105 
L 341.04548 51.815674 
L 343.475232 54.452325 
L 346.252092 57.836926 
L 349.376059 62.039786 
L 353.194241 67.606045 
L 358.400852 75.644911 
L 367.425646 89.617327 
L 371.590935 95.646045 
L 375.409117 100.772285 
L 378.880191 105.039818 
L 382.004158 108.53299 
L 385.128125 111.685123 
L 388.252092 114.495351 
L 391.028951 116.71241 
L 393.805811 118.675519 
L 396.929778 120.597525 
L 400.053745 122.238615 
L 403.177712 123.624595 
L 406.301679 124.782561 
L 409.772753 125.834904 
L 413.590935 126.749413 
L 415.67358 127.156572 
L 415.67358 127.156572 
" clip-path="url(#p021b2b23a3)" style="fill: none; stroke: #2ca02c; stroke-width: 1.5; stroke-linecap: square"/>
   </g>
   <g id="patch_3">
    <path d="M 42.828125 135.12621 
L 42.828125 8.332401 
" style="fill: none; stroke: #000000; stroke-width: 0.8; stroke-linejoin: miter; stroke-linecap: square"/>
   </g>
   <g id="patch_4">
    <path d="M 433.428125 135.12621 
L 433.428125 8.332401 
" style="fill: none; stroke: #000000; stroke-width: 0.8; stroke-linejoin: miter; stroke-linecap: square"/>
   </g>
   <g id="patch_5">
    <path d="M 42.828125 135.12621 
L 433.428125 135.12621 
" style="fill: none; stroke: #000000; stroke-width: 0.8; stroke-linejoin: miter; stroke-linecap: square"/>
   </g>
   <g id="patch_6">
    <path d="M 42.828125 8.332401 
L 433.428125 8.332401 
" style="fill: none; stroke: #000000; stroke-width: 0.8; stroke-linejoin: miter; stroke-linecap: square"/>
   </g>
  </g>
 </g>
 <defs>
  <clipPath id="p021b2b23a3">
   <rect x="42.828125" y="8.332401" width="390.6" height="126.793809"/>
  </clipPath>
 </defs>
</svg>
