<?xml version="1.0" encoding="utf-8" standalone="no"?>
<!DOCTYPE svg PUBLIC "-//W3C//DTD SVG 1.1//EN"
  "http://www.w3.org/Graphics/SVG/1.1/DTD/svg11.dtd">
<svg xmlns:xlink="http://www.w3.org/1999/xlink" width="441.125pt" height="173.925518pt" viewBox="0 0 441.125 173.925518" xmlns="http://www.w3.org/2000/svg" version="1.1">
 <metadata>
  <rdf:RDF xmlns:dc="http://purl.org/dc/elements/1.1/" xmlns:cc="http://creativecommons.org/ns#" xmlns:rdf="http://www.w3.org/1999/02/22-rdf-syntax-ns#">
   <cc:Work>
    <dc:type rdf:resource="http://purl.org/dc/dcmitype/StillImage"/>
    <dc:date>2025-11-17T20:53:37.726370</dc:date>
    <dc:format>image/svg+xml</dc:format>
    <dc:creator>
     <cc:Agent>
      <dc:title>Matplotlib v3.10.3, https://matplotlib.org/</dc:title>
     </cc:Agent>
    </dc:creator>
   </cc:Work>
  </rdf:RDF>
 </metadata>
 <defs>
  <style type="text/css">*{stroke-linejoin: round; stroke-linecap: butt}</style>
 </defs>
 <g id="figure_1">
  <g id="patch_1">
   <path d="M 0 173.925518 
L 441.125 173.925518 
L 441.125 0 
L 0 0 
z
" style="fill: #ffffff"/>
  </g>
  <g id="axes_1">
   <g id="patch_2">
    <path d="M 43.325 136.369268 
L 433.925 136.369268 
L 433.925 7.2 
L 43.325 7.2 
z
" style="fill: #ffffff"/>
   </g>
   <g id="matplotlib.axis_1">
    <g id="xtick_1">
     <g id="line2d_1">
      <path d="M 61.079545 136.369268 
L 61.079545 7.2 
" clip-path="url(#p680e8b98f5)" style="fill: none; stroke: #b0b0b0; stroke-width: 0.8; stroke-linecap: square"/>
     </g>
     <g id="line2d_2">
      <defs>
       <path id="mc18d1d9c50" d="M 0 0 
L 0 3.5 
" style="stroke: #000000; stroke-width: 0.8"/>
      </defs>
      <g>
       <use xlink:href="#mc18d1d9c50" x="61.079545" y="136.369268" style="stroke: #000000; stroke-width: 0.8"/>
      </g>
     </g>
     <g id="text_1">
      <!-- 0.0 -->
      <g transform="translate(53.127983 150.967706) scale(0.1 -0.1)">
       <defs>
        <path id="DejaVuSans-30" d="M 2034 4250 
Q 1547 4250 1301 3770 
Q 1056 3291 1056 2328 
Q 1056 1369 1301 889 
Q 1547 409 2034 409 
Q 2525 409 2770 889 
Q 3016 1369 3016 2328 
Q 3016 3291 2770 3770 
Q 2525 4250 2034 4250 
z
M 2034 4750 
Q 2819 4750 3233 4129 
Q 3647 3509 3647 2328 
Q 3647 1150 3233 529 
Q 2819 -91 2034 -91 
Q 1250 -91 836 529 
Q 422 1150 422 2328 
Q 422 3509 836 4129 
Q 1250 4750 2034 4750 
z
" transform="scale(0.015625)"/>
        <path id="DejaVuSans-2e" d="M 684 794 
L 1344 794 
L 1344 0 
L 684 0 
L 684 794 
z
" transform="scale(0.015625)"/>
       </defs>
       <use xlink:href="#DejaVuSans-30"/>
       <use xlink:href="#DejaVuSans-2e" transform="translate(63.623047 0)"/>
       <use xlink:href="#DejaVuSans-30" transform="translate(95.410156 0)"/>
      </g>
     </g>
    </g>
    <g id="xtick_2">
     <g id="line2d_3">
      <path d="M 132.097727 136.369268 
L 132.097727 7.2 
" clip-path="url(#p680e8b98f5)" style="fill: none; stroke: #b0b0b0; stroke-width: 0.8; stroke-linecap: square"/>
     </g>
     <g id="line2d_4">
      <g>
       <use xlink:href="#mc18d1d9c50" x="132.097727" y="136.369268" style="stroke: #000000; stroke-width: 0.8"/>
      </g>
     </g>
     <g id="text_2">
      <!-- 0.2 -->
      <g transform="translate(124.146165 150.967706) scale(0.1 -0.1)">
       <defs>
        <path id="DejaVuSans-32" d="M 1228 531 
L 3431 531 
L 3431 0 
L 469 0 
L 469 531 
Q 828 903 1448 1529 
Q 2069 2156 2228 2338 
Q 2531 2678 2651 2914 
Q 2772 3150 2772 3378 
Q 2772 3750 2511 3984 
Q 2250 4219 1831 4219 
Q 1534 4219 1204 4116 
Q 875 4013 500 3803 
L 500 4441 
Q 881 4594 1212 4672 
Q 1544 4750 1819 4750 
Q 2544 4750 2975 4387 
Q 3406 4025 3406 3419 
Q 3406 3131 3298 2873 
Q 3191 2616 2906 2266 
Q 2828 2175 2409 1742 
Q 1991 1309 1228 531 
z
" transform="scale(0.015625)"/>
       </defs>
       <use xlink:href="#DejaVuSans-30"/>
       <use xlink:href="#DejaVuSans-2e" transform="translate(63.623047 0)"/>
       <use xlink:href="#DejaVuSans-32" transform="translate(95.410156 0)"/>
      </g>
     </g>
    </g>
    <g id="xtick_3">
     <g id="line2d_5">
      <path d="M 203.115909 136.369268 
L 203.115909 7.2 
" clip-path="url(#p680e8b98f5)" style="fill: none; stroke: #b0b0b0; stroke-width: 0.8; stroke-linecap: square"/>
     </g>
     <g id="line2d_6">
      <g>
       <use xlink:href="#mc18d1d9c50" x="203.115909" y="136.369268" style="stroke: #000000; stroke-width: 0.8"/>
      </g>
     </g>
     <g id="text_3">
      <!-- 0.4 -->
      <g transform="translate(195.164347 150.967706) scale(0.1 -0.1)">
       <defs>
        <path id="DejaVuSans-34" d="M 2419 4116 
L 825 1625 
L 2419 1625 
L 2419 4116 
z
M 2253 4666 
L 3047 4666 
L 3047 1625 
L 3713 1625 
L 3713 1100 
L 3047 1100 
L 3047 0 
L 2419 0 
L 2419 1100 
L 313 1100 
L 313 1709 
L 2253 4666 
z
" transform="scale(0.015625)"/>
       </defs>
       <use xlink:href="#DejaVuSans-30"/>
       <use xlink:href="#DejaVuSans-2e" transform="translate(63.623047 0)"/>
       <use xlink:href="#DejaVuSans-34" transform="translate(95.410156 0)"/>
      </g>
     </g>
    </g>
    <g id="xtick_4">
     <g id="line2d_7">
      <path d="M 274.134091 136.369268 
L 274.134091 7.2 
" clip-path="url(#p680e8b98f5)" style="fill: none; stroke: #b0b0b0; stroke-width: 0.8; stroke-linecap: square"/>
     </g>
     <g id="line2d_8">
      <g>
       <use xlink:href="#mc18d1d9c50" x="274.134091" y="136.369268" style="stroke: #000000; stroke-width: 0.8"/>
      </g>
     </g>
     <g id="text_4">
      <!-- 0.6 -->
      <g transform="translate(266.182528 150.967706) scale(0.1 -0.1)">
       <defs>
        <path id="DejaVuSans-36" d="M 2113 2584 
Q 1688 2584 1439 2293 
Q 1191 2003 1191 1497 
Q 1191 994 1439 701 
Q 1688 409 2113 409 
Q 2538 409 2786 701 
Q 3034 994 3034 1497 
Q 3034 2003 2786 2293 
Q 2538 2584 2113 2584 
z
M 3366 4563 
L 3366 3988 
Q 3128 4100 2886 4159 
Q 2644 4219 2406 4219 
Q 1781 4219 1451 3797 
Q 1122 3375 1075 2522 
Q 1259 2794 1537 2939 
Q 1816 3084 2150 3084 
Q 2853 3084 3261 2657 
Q 3669 2231 3669 1497 
Q 3669 778 3244 343 
Q 2819 -91 2113 -91 
Q 1303 -91 875 529 
Q 447 1150 447 2328 
Q 447 3434 972 4092 
Q 1497 4750 2381 4750 
Q 2619 4750 2861 4703 
Q 3103 4656 3366 4563 
z
" transform="scale(0.015625)"/>
       </defs>
       <use xlink:href="#DejaVuSans-30"/>
       <use xlink:href="#DejaVuSans-2e" transform="translate(63.623047 0)"/>
       <use xlink:href="#DejaVuSans-36" transform="translate(95.410156 0)"/>
      </g>
     </g>
    </g>
    <g id="xtick_5">
     <g id="line2d_9">
      <path d="M 345.152273 136.369268 
L 345.152273 7.2 
" clip-path="url(#p680e8b98f5)" style="fill: none; stroke: #b0b0b0; stroke-width: 0.8; stroke-linecap: square"/>
     </g>
     <g id="line2d_10">
      <g>
       <use xlink:href="#mc18d1d9c50" x="345.152273" y="136.369268" style="stroke: #000000; stroke-width: 0.8"/>
      </g>
     </g>
     <g id="text_5">
      <!-- 0.8 -->
      <g transform="translate(337.20071 150.967706) scale(0.1 -0.1)">
       <defs>
        <path id="DejaVuSans-38" d="M 2034 2216 
Q 1584 2216 1326 1975 
Q 1069 1734 1069 1313 
Q 1069 891 1326 650 
Q 1584 409 2034 409 
Q 2484 409 2743 651 
Q 3003 894 3003 1313 
Q 3003 1734 2745 1975 
Q 2488 2216 2034 2216 
z
M 1403 2484 
Q 997 2584 770 2862 
Q 544 3141 544 3541 
Q 544 4100 942 4425 
Q 1341 4750 2034 4750 
Q 2731 4750 3128 4425 
Q 3525 4100 3525 3541 
Q 3525 3141 3298 2862 
Q 3072 2584 2669 2484 
Q 3125 2378 3379 2068 
Q 3634 1759 3634 1313 
Q 3634 634 3220 271 
Q 2806 -91 2034 -91 
Q 1263 -91 848 271 
Q 434 634 434 1313 
Q 434 1759 690 2068 
Q 947 2378 1403 2484 
z
M 1172 3481 
Q 1172 3119 1398 2916 
Q 1625 2713 2034 2713 
Q 2441 2713 2670 2916 
Q 2900 3119 2900 3481 
Q 2900 3844 2670 4047 
Q 2441 4250 2034 4250 
Q 1625 4250 1398 4047 
Q 1172 3844 1172 3481 
z
" transform="scale(0.015625)"/>
       </defs>
       <use xlink:href="#DejaVuSans-30"/>
       <use xlink:href="#DejaVuSans-2e" transform="translate(63.623047 0)"/>
       <use xlink:href="#DejaVuSans-38" transform="translate(95.410156 0)"/>
      </g>
     </g>
    </g>
    <g id="xtick_6">
     <g id="line2d_11">
      <path d="M 416.170455 136.369268 
L 416.170455 7.2 
" clip-path="url(#p680e8b98f5)" style="fill: none; stroke: #b0b0b0; stroke-width: 0.8; stroke-linecap: square"/>
     </g>
     <g id="line2d_12">
      <g>
       <use xlink:href="#mc18d1d9c50" x="416.170455" y="136.369268" style="stroke: #000000; stroke-width: 0.8"/>
      </g>
     </g>
     <g id="text_6">
      <!-- 1.0 -->
      <g transform="translate(408.218892 150.967706) scale(0.1 -0.1)">
       <defs>
        <path id="DejaVuSans-31" d="M 794 531 
L 1825 531 
L 1825 4091 
L 703 3866 
L 703 4441 
L 1819 4666 
L 2450 4666 
L 2450 531 
L 3481 531 
L 3481 0 
L 794 0 
L 794 531 
z
" transform="scale(0.015625)"/>
       </defs>
       <use xlink:href="#DejaVuSans-31"/>
       <use xlink:href="#DejaVuSans-2e" transform="translate(63.623047 0)"/>
       <use xlink:href="#DejaVuSans-30" transform="translate(95.410156 0)"/>
      </g>
     </g>
    </g>
    <g id="text_7">
     <!-- $x$ -->
     <g transform="translate(235.625 164.645831) scale(0.1 -0.1)">
      <defs>
       <path id="DejaVuSans-Oblique-78" d="M 3841 3500 
L 2234 1784 
L 3219 0 
L 2559 0 
L 1819 1388 
L 531 0 
L -166 0 
L 1556 1844 
L 641 3500 
L 1300 3500 
L 1972 2234 
L 3144 3500 
L 3841 3500 
z
" transform="scale(0.015625)"/>
      </defs>
      <use xlink:href="#DejaVuSans-Oblique-78" transform="translate(0 0.3125)"/>
     </g>
    </g>
   </g>
   <g id="matplotlib.axis_2">
    <g id="ytick_1">
     <g id="line2d_13">
      <path d="M 43.325 130.497938 
L 433.925 130.497938 
" clip-path="url(#p680e8b98f5)" style="fill: none; stroke: #b0b0b0; stroke-width: 0.8; stroke-linecap: square"/>
     </g>
     <g id="line2d_14">
      <defs>
       <path id="mb5dc904cbf" d="M 0 0 
L -3.5 0 
" style="stroke: #000000; stroke-width: 0.8"/>
      </defs>
      <g>
       <use xlink:href="#mb5dc904cbf" x="43.325" y="130.497938" style="stroke: #000000; stroke-width: 0.8"/>
      </g>
     </g>
     <g id="text_8">
      <!-- 0 -->
      <g transform="translate(29.9625 134.297157) scale(0.1 -0.1)">
       <use xlink:href="#DejaVuSans-30"/>
      </g>
     </g>
    </g>
    <g id="ytick_2">
     <g id="line2d_15">
      <path d="M 43.325 88.225211 
L 433.925 88.225211 
" clip-path="url(#p680e8b98f5)" style="fill: none; stroke: #b0b0b0; stroke-width: 0.8; stroke-linecap: square"/>
     </g>
     <g id="line2d_16">
      <g>
       <use xlink:href="#mb5dc904cbf" x="43.325" y="88.225211" style="stroke: #000000; stroke-width: 0.8"/>
      </g>
     </g>
     <g id="text_9">
      <!-- 5 -->
      <g transform="translate(29.9625 92.02443) scale(0.1 -0.1)">
       <defs>
        <path id="DejaVuSans-35" d="M 691 4666 
L 3169 4666 
L 3169 4134 
L 1269 4134 
L 1269 2991 
Q 1406 3038 1543 3061 
Q 1681 3084 1819 3084 
Q 2600 3084 3056 2656 
Q 3513 2228 3513 1497 
Q 3513 744 3044 326 
Q 2575 -91 1722 -91 
Q 1428 -91 1123 -41 
Q 819 9 494 109 
L 494 744 
Q 775 591 1075 516 
Q 1375 441 1709 441 
Q 2250 441 2565 725 
Q 2881 1009 2881 1497 
Q 2881 1984 2565 2268 
Q 2250 2553 1709 2553 
Q 1456 2553 1204 2497 
Q 953 2441 691 2322 
L 691 4666 
z
" transform="scale(0.015625)"/>
       </defs>
       <use xlink:href="#DejaVuSans-35"/>
      </g>
     </g>
    </g>
    <g id="ytick_3">
     <g id="line2d_17">
      <path d="M 43.325 45.952484 
L 433.925 45.952484 
" clip-path="url(#p680e8b98f5)" style="fill: none; stroke: #b0b0b0; stroke-width: 0.8; stroke-linecap: square"/>
     </g>
     <g id="line2d_18">
      <g>
       <use xlink:href="#mb5dc904cbf" x="43.325" y="45.952484" style="stroke: #000000; stroke-width: 0.8"/>
      </g>
     </g>
     <g id="text_10">
      <!-- 10 -->
      <g transform="translate(23.6 49.751702) scale(0.1 -0.1)">
       <use xlink:href="#DejaVuSans-31"/>
       <use xlink:href="#DejaVuSans-30" transform="translate(63.623047 0)"/>
      </g>
     </g>
    </g>
    <g id="text_11">
     <!-- $p(x|\frac{k}{n})$ -->
     <g transform="translate(16.9 86.384634) rotate(-90) scale(0.1 -0.1)">
      <defs>
       <path id="DejaVuSans-Oblique-70" d="M 3175 2156 
Q 3175 2616 2975 2859 
Q 2775 3103 2400 3103 
Q 2144 3103 1911 2972 
Q 1678 2841 1497 2591 
Q 1319 2344 1212 1994 
Q 1106 1644 1106 1300 
Q 1106 863 1306 627 
Q 1506 391 1875 391 
Q 2147 391 2380 519 
Q 2613 647 2778 891 
Q 2956 1147 3065 1494 
Q 3175 1841 3175 2156 
z
M 1394 2969 
Q 1625 3272 1939 3428 
Q 2253 3584 2638 3584 
Q 3175 3584 3472 3232 
Q 3769 2881 3769 2247 
Q 3769 1728 3584 1258 
Q 3400 788 3053 416 
Q 2822 169 2531 39 
Q 2241 -91 1919 -91 
Q 1547 -91 1294 64 
Q 1041 219 916 525 
L 556 -1331 
L -19 -1331 
L 922 3500 
L 1497 3500 
L 1394 2969 
z
" transform="scale(0.015625)"/>
       <path id="DejaVuSans-28" d="M 1984 4856 
Q 1566 4138 1362 3434 
Q 1159 2731 1159 2009 
Q 1159 1288 1364 580 
Q 1569 -128 1984 -844 
L 1484 -844 
Q 1016 -109 783 600 
Q 550 1309 550 2009 
Q 550 2706 781 3412 
Q 1013 4119 1484 4856 
L 1984 4856 
z
" transform="scale(0.015625)"/>
       <path id="DejaVuSans-7c" d="M 1344 4891 
L 1344 -1509 
L 813 -1509 
L 813 4891 
L 1344 4891 
z
" transform="scale(0.015625)"/>
       <path id="DejaVuSans-Oblique-6b" d="M 1172 4863 
L 1747 4863 
L 1197 2028 
L 3169 3500 
L 3916 3500 
L 1716 1825 
L 3322 0 
L 2625 0 
L 1131 1709 
L 800 0 
L 225 0 
L 1172 4863 
z
" transform="scale(0.015625)"/>
       <path id="DejaVuSans-Oblique-6e" d="M 3566 2113 
L 3156 0 
L 2578 0 
L 2988 2091 
Q 3016 2238 3031 2350 
Q 3047 2463 3047 2528 
Q 3047 2791 2881 2937 
Q 2716 3084 2419 3084 
Q 1956 3084 1622 2776 
Q 1288 2469 1184 1941 
L 800 0 
L 225 0 
L 903 3500 
L 1478 3500 
L 1363 2950 
Q 1603 3253 1940 3418 
Q 2278 3584 2650 3584 
Q 3113 3584 3367 3334 
Q 3622 3084 3622 2631 
Q 3622 2519 3608 2391 
Q 3594 2263 3566 2113 
z
" transform="scale(0.015625)"/>
       <path id="DejaVuSans-29" d="M 513 4856 
L 1013 4856 
Q 1481 4119 1714 3412 
Q 1947 2706 1947 2009 
Q 1947 1309 1714 600 
Q 1481 -109 1013 -844 
L 513 -844 
Q 928 -128 1133 580 
Q 1338 1288 1338 2009 
Q 1338 2731 1133 3434 
Q 928 4138 513 4856 
z
" transform="scale(0.015625)"/>
      </defs>
      <use xlink:href="#DejaVuSans-Oblique-70" transform="translate(0 0.014062)"/>
      <use xlink:href="#DejaVuSans-28" transform="translate(63.476562 0.014062)"/>
      <use xlink:href="#DejaVuSans-Oblique-78" transform="translate(102.490234 0.014062)"/>
      <use xlink:href="#DejaVuSans-7c" transform="translate(161.669922 0.014062)"/>
      <use xlink:href="#DejaVuSans-Oblique-6b" transform="translate(197.361328 43.810938) scale(0.7)"/>
      <use xlink:href="#DejaVuSans-Oblique-6e" transform="translate(195.361328 -26.639062) scale(0.7)"/>
      <use xlink:href="#DejaVuSans-29" transform="translate(252.226562 0.014062)"/>
      <path d="M 195.361328 18.810937 
L 195.361328 25.060937 
L 239.726562 25.060937 
L 239.726562 18.810937 
L 195.361328 18.810937 
z
"/>
     </g>
    </g>
   </g>
   <g id="line2d_19">
    <path d="M 61.079545 130.497938 
L 88.153926 130.392437 
L 92.666322 130.137359 
L 95.790289 129.734733 
L 98.220041 129.197853 
L 100.302686 128.511283 
L 102.038223 127.72996 
L 103.77376 126.713355 
L 105.509298 125.416363 
L 107.244835 123.79327 
L 108.980372 121.800363 
L 110.715909 119.399085 
L 112.451446 116.559581 
L 114.186983 113.264433 
L 115.922521 109.512307 
L 118.005165 104.433372 
L 120.434917 97.810204 
L 123.558884 88.510393 
L 129.112603 71.761752 
L 131.195248 66.179408 
L 132.930785 62.109292 
L 134.319215 59.33043 
L 135.707645 57.040176 
L 136.748967 55.67288 
L 137.790289 54.624302 
L 138.831612 53.906567 
L 139.872934 53.527478 
L 140.567149 53.464723 
L 141.261364 53.553932 
L 142.302686 53.970235 
L 143.344008 54.718935 
L 144.385331 55.788769 
L 145.426653 57.164523 
L 146.815083 59.441763 
L 148.203512 62.17589 
L 149.93905 66.14222 
L 152.021694 71.531326 
L 154.798554 79.390353 
L 161.046488 97.289143 
L 163.47624 103.528813 
L 165.558884 108.335157 
L 167.641529 112.58186 
L 169.377066 115.678701 
L 171.112603 118.378392 
L 172.84814 120.69765 
L 174.583678 122.661893 
L 176.319215 124.302482 
L 178.054752 125.65421 
L 179.790289 126.753147 
L 181.872934 127.788206 
L 183.955579 128.568368 
L 186.385331 129.225504 
L 189.16219 129.728055 
L 192.633264 130.103139 
L 197.145661 130.342815 
L 204.434917 130.468619 
L 224.914256 130.497841 
L 416.170455 130.497938 
L 416.170455 130.497938 
" clip-path="url(#p680e8b98f5)" style="fill: none; stroke: #1f77b4; stroke-width: 1.5; stroke-linecap: square"/>
   </g>
   <g id="line2d_20">
    <path d="M 61.079545 130.497938 
L 127.029959 130.391481 
L 129.806818 130.168537 
L 131.889463 129.785816 
L 133.277893 129.348055 
L 134.666322 128.690685 
L 136.054752 127.731377 
L 137.096074 126.754369 
L 138.137397 125.503834 
L 139.178719 123.928013 
L 140.220041 121.97293 
L 141.261364 119.584616 
L 142.302686 116.711906 
L 143.344008 113.309741 
L 144.732438 107.890828 
L 146.120868 101.425275 
L 147.509298 93.927371 
L 149.244835 83.241342 
L 151.674587 66.495362 
L 155.492769 39.69741 
L 157.228306 29.222138 
L 158.616736 22.369204 
L 159.658058 18.347085 
L 160.352273 16.262643 
L 161.046488 14.686272 
L 161.740702 13.636414 
L 162.434917 13.124278 
L 162.782025 13.07133 
L 163.129132 13.153651 
L 163.47624 13.370554 
L 164.170455 14.203083 
L 164.864669 15.554475 
L 165.558884 17.403545 
L 166.600207 21.048825 
L 167.641529 25.635832 
L 169.029959 32.977153 
L 170.765496 43.603893 
L 174.23657 66.87188 
L 176.666322 82.472738 
L 178.40186 92.426668 
L 180.137397 101.086966 
L 181.525826 107.010639 
L 182.914256 112.043765 
L 184.302686 116.230658 
L 185.691116 119.643245 
L 187.079545 122.370269 
L 188.467975 124.507944 
L 189.856405 126.15247 
L 191.244835 127.394581 
L 192.633264 128.315985 
L 194.021694 128.98748 
L 195.757231 129.564706 
L 197.839876 129.990646 
L 200.616736 130.284624 
L 204.782025 130.446041 
L 213.806818 130.496414 
L 399.856405 130.497938 
L 416.170455 130.497938 
L 416.170455 130.497938 
" clip-path="url(#p680e8b98f5)" style="fill: none; stroke-dasharray: 1.5,2.475; stroke-dashoffset: 0; stroke: #ff7f0e; stroke-width: 1.5"/>
   </g>
   <g id="line2d_21">
    <path d="M 61.079545 130.062245 
L 64.897727 129.642285 
L 68.021694 129.063739 
L 70.451446 128.401816 
L 72.881198 127.493467 
L 74.963843 126.470302 
L 77.046488 125.175459 
L 78.782025 123.856717 
L 80.517562 122.293294 
L 82.253099 120.462242 
L 83.988636 118.344212 
L 86.071281 115.4044 
L 88.153926 112.020679 
L 90.23657 108.200979 
L 92.666322 103.235423 
L 95.443182 97.005207 
L 99.955579 86.188419 
L 103.77376 77.238312 
L 106.203512 72.11561 
L 107.93905 68.903012 
L 109.674587 66.162232 
L 111.063017 64.361682 
L 112.451446 62.946232 
L 113.492769 62.15374 
L 114.534091 61.601634 
L 115.575413 61.295944 
L 116.616736 61.240062 
L 117.658058 61.43468 
L 118.69938 61.877778 
L 119.740702 62.564653 
L 120.782025 63.488007 
L 122.170455 65.069791 
L 123.558884 67.02496 
L 125.294421 69.939049 
L 127.029959 73.299371 
L 129.112603 77.793648 
L 132.23657 85.136369 
L 138.831612 100.824581 
L 141.608471 106.743863 
L 144.038223 111.358585 
L 146.120868 114.843728 
L 148.203512 117.880482 
L 150.286157 120.476197 
L 152.021694 122.31864 
L 153.757231 123.890123 
L 155.839876 125.451166 
L 157.922521 126.699746 
L 160.005165 127.681238 
L 162.434917 128.547342 
L 164.864669 129.174014 
L 167.641529 129.668452 
L 171.112603 130.052378 
L 175.625 130.311189 
L 182.567149 130.455184 
L 198.881198 130.497244 
L 416.170455 130.497938 
L 416.170455 130.497938 
" clip-path="url(#p680e8b98f5)" style="fill: none; stroke-dasharray: 9.6,2.4,1.5,2.4; stroke-dashoffset: 0; stroke: #2ca02c; stroke-width: 1.5"/>
   </g>
   <g id="patch_3">
    <path d="M 43.325 136.369268 
L 43.325 7.2 
" style="fill: none; stroke: #000000; stroke-width: 0.8; stroke-linejoin: miter; stroke-linecap: square"/>
   </g>
   <g id="patch_4">
    <path d="M 433.925 136.369268 
L 433.925 7.2 
" style="fill: none; stroke: #000000; stroke-width: 0.8; stroke-linejoin: miter; stroke-linecap: square"/>
   </g>
   <g id="patch_5">
    <path d="M 43.325 136.369268 
L 433.925 136.369268 
" style="fill: none; stroke: #000000; stroke-width: 0.8; stroke-linejoin: miter; stroke-linecap: square"/>
   </g>
   <g id="patch_6">
    <path d="M 43.325 7.2 
L 433.925 7.2 
" style="fill: none; stroke: #000000; stroke-width: 0.8; stroke-linejoin: miter; stroke-linecap: square"/>
   </g>
   <g id="legend_1">
    <g id="patch_7">
     <path d="M 321.225 59.234375 
L 426.925 59.234375 
Q 428.925 59.234375 428.925 57.234375 
L 428.925 14.2 
Q 428.925 12.2 426.925 12.2 
L 321.225 12.2 
Q 319.225 12.2 319.225 14.2 
L 319.225 57.234375 
Q 319.225 59.234375 321.225 59.234375 
z
" style="fill: #ffffff; opacity: 0.8; stroke: #cccccc; stroke-linejoin: miter"/>
    </g>
    <g id="line2d_22">
     <path d="M 323.225 20.298437 
L 333.225 20.298437 
L 343.225 20.298437 
" style="fill: none; stroke: #1f77b4; stroke-width: 1.5; stroke-linecap: square"/>
    </g>
    <g id="text_12">
     <!-- $n=5, k=15$ -->
     <g transform="translate(351.225 23.798437) scale(0.1 -0.1)">
      <defs>
       <path id="DejaVuSans-3d" d="M 678 2906 
L 4684 2906 
L 4684 2381 
L 678 2381 
L 678 2906 
z
M 678 1631 
L 4684 1631 
L 4684 1100 
L 678 1100 
L 678 1631 
z
" transform="scale(0.015625)"/>
       <path id="DejaVuSans-2c" d="M 750 794 
L 1409 794 
L 1409 256 
L 897 -744 
L 494 -744 
L 750 256 
L 750 794 
z
" transform="scale(0.015625)"/>
      </defs>
      <use xlink:href="#DejaVuSans-Oblique-6e" transform="translate(0 0.015625)"/>
      <use xlink:href="#DejaVuSans-3d" transform="translate(82.861328 0.015625)"/>
      <use xlink:href="#DejaVuSans-35" transform="translate(186.132812 0.015625)"/>
      <use xlink:href="#DejaVuSans-2c" transform="translate(249.755859 0.015625)"/>
      <use xlink:href="#DejaVuSans-Oblique-6b" transform="translate(301.025391 0.015625)"/>
      <use xlink:href="#DejaVuSans-3d" transform="translate(378.417969 0.015625)"/>
      <use xlink:href="#DejaVuSans-31" transform="translate(481.689453 0.015625)"/>
      <use xlink:href="#DejaVuSans-35" transform="translate(545.3125 0.015625)"/>
     </g>
    </g>
    <g id="line2d_23">
     <path d="M 323.225 34.976562 
L 333.225 34.976562 
L 343.225 34.976562 
" style="fill: none; stroke-dasharray: 1.5,2.475; stroke-dashoffset: 0; stroke: #ff7f0e; stroke-width: 1.5"/>
    </g>
    <g id="text_13">
     <!-- $n=50, k=150$ -->
     <g transform="translate(351.225 38.476562) scale(0.1 -0.1)">
      <use xlink:href="#DejaVuSans-Oblique-6e" transform="translate(0 0.015625)"/>
      <use xlink:href="#DejaVuSans-3d" transform="translate(82.861328 0.015625)"/>
      <use xlink:href="#DejaVuSans-35" transform="translate(186.132812 0.015625)"/>
      <use xlink:href="#DejaVuSans-30" transform="translate(249.755859 0.015625)"/>
      <use xlink:href="#DejaVuSans-2c" transform="translate(313.378906 0.015625)"/>
      <use xlink:href="#DejaVuSans-Oblique-6b" transform="translate(364.648438 0.015625)"/>
      <use xlink:href="#DejaVuSans-3d" transform="translate(442.041016 0.015625)"/>
      <use xlink:href="#DejaVuSans-31" transform="translate(545.3125 0.015625)"/>
      <use xlink:href="#DejaVuSans-35" transform="translate(608.935547 0.015625)"/>
      <use xlink:href="#DejaVuSans-30" transform="translate(672.558594 0.015625)"/>
     </g>
    </g>
    <g id="line2d_24">
     <path d="M 323.225 49.654687 
L 333.225 49.654687 
L 343.225 49.654687 
" style="fill: none; stroke-dasharray: 9.6,2.4,1.5,2.4; stroke-dashoffset: 0; stroke: #2ca02c; stroke-width: 1.5"/>
    </g>
    <g id="text_14">
     <!-- $n=0, k=15$ -->
     <g transform="translate(351.225 53.154687) scale(0.1 -0.1)">
      <use xlink:href="#DejaVuSans-Oblique-6e" transform="translate(0 0.015625)"/>
      <use xlink:href="#DejaVuSans-3d" transform="translate(82.861328 0.015625)"/>
      <use xlink:href="#DejaVuSans-30" transform="translate(186.132812 0.015625)"/>
      <use xlink:href="#DejaVuSans-2c" transform="translate(249.755859 0.015625)"/>
      <use xlink:href="#DejaVuSans-Oblique-6b" transform="translate(301.025391 0.015625)"/>
      <use xlink:href="#DejaVuSans-3d" transform="translate(378.417969 0.015625)"/>
      <use xlink:href="#DejaVuSans-31" transform="translate(481.689453 0.015625)"/>
      <use xlink:href="#DejaVuSans-35" transform="translate(545.3125 0.015625)"/>
     </g>
    </g>
   </g>
  </g>
 </g>
 <defs>
  <clipPath id="p680e8b98f5">
   <rect x="43.325" y="7.2" width="390.6" height="129.169268"/>
  </clipPath>
 </defs>
</svg>
