<?xml version="1.0" encoding="utf-8" standalone="no"?>
<!DOCTYPE svg PUBLIC "-//W3C//DTD SVG 1.1//EN"
  "http://www.w3.org/Graphics/SVG/1.1/DTD/svg11.dtd">
<svg xmlns:xlink="http://www.w3.org/1999/xlink" width="427.903125pt" height="164.616587pt" viewBox="0 0 427.903125 164.616587" xmlns="http://www.w3.org/2000/svg" version="1.1">
 <metadata>
  <rdf:RDF xmlns:dc="http://purl.org/dc/elements/1.1/" xmlns:cc="http://creativecommons.org/ns#" xmlns:rdf="http://www.w3.org/1999/02/22-rdf-syntax-ns#">
   <cc:Work>
    <dc:type rdf:resource="http://purl.org/dc/dcmitype/StillImage"/>
    <dc:date>2025-01-14T09:42:02.846708</dc:date>
    <dc:format>image/svg+xml</dc:format>
    <dc:creator>
     <cc:Agent>
      <dc:title>Matplotlib v3.9.2, https://matplotlib.org/</dc:title>
     </cc:Agent>
    </dc:creator>
   </cc:Work>
  </rdf:RDF>
 </metadata>
 <defs>
  <style type="text/css">*{stroke-linejoin: round; stroke-linecap: butt}</style>
 </defs>
 <g id="figure_1">
  <g id="patch_1">
   <path d="M 0 164.616587 
L 427.903125 164.616587 
L 427.903125 0 
L 0 0 
z
" style="fill: #ffffff"/>
  </g>
  <g id="axes_1">
   <g id="patch_2">
    <path d="M 30.103125 140.738462 
L 420.703125 140.738462 
L 420.703125 7.2 
L 30.103125 7.2 
z
" style="fill: #ffffff"/>
   </g>
   <g id="matplotlib.axis_1">
    <g id="xtick_1">
     <g id="line2d_1">
      <defs>
       <path id="m1f7a161287" d="M 0 0 
L 0 3.5 
" style="stroke: #000000; stroke-width: 0.8"/>
      </defs>
      <g>
       <use xlink:href="#m1f7a161287" x="47.85767" y="140.738462" style="stroke: #000000; stroke-width: 0.8"/>
      </g>
     </g>
     <g id="text_1">
      <!-- 0 -->
      <g transform="translate(44.67642 155.336899) scale(0.1 -0.1)">
       <defs>
        <path id="DejaVuSans-30" d="M 2034 4250 
Q 1547 4250 1301 3770 
Q 1056 3291 1056 2328 
Q 1056 1369 1301 889 
Q 1547 409 2034 409 
Q 2525 409 2770 889 
Q 3016 1369 3016 2328 
Q 3016 3291 2770 3770 
Q 2525 4250 2034 4250 
z
M 2034 4750 
Q 2819 4750 3233 4129 
Q 3647 3509 3647 2328 
Q 3647 1150 3233 529 
Q 2819 -91 2034 -91 
Q 1250 -91 836 529 
Q 422 1150 422 2328 
Q 422 3509 836 4129 
Q 1250 4750 2034 4750 
z
" transform="scale(0.015625)"/>
       </defs>
       <use xlink:href="#DejaVuSans-30"/>
      </g>
     </g>
    </g>
    <g id="xtick_2">
     <g id="line2d_2">
      <g>
       <use xlink:href="#m1f7a161287" x="93.382146" y="140.738462" style="stroke: #000000; stroke-width: 0.8"/>
      </g>
     </g>
     <g id="text_2">
      <!-- 5 -->
      <g transform="translate(90.200896 155.336899) scale(0.1 -0.1)">
       <defs>
        <path id="DejaVuSans-35" d="M 691 4666 
L 3169 4666 
L 3169 4134 
L 1269 4134 
L 1269 2991 
Q 1406 3038 1543 3061 
Q 1681 3084 1819 3084 
Q 2600 3084 3056 2656 
Q 3513 2228 3513 1497 
Q 3513 744 3044 326 
Q 2575 -91 1722 -91 
Q 1428 -91 1123 -41 
Q 819 9 494 109 
L 494 744 
Q 775 591 1075 516 
Q 1375 441 1709 441 
Q 2250 441 2565 725 
Q 2881 1009 2881 1497 
Q 2881 1984 2565 2268 
Q 2250 2553 1709 2553 
Q 1456 2553 1204 2497 
Q 953 2441 691 2322 
L 691 4666 
z
" transform="scale(0.015625)"/>
       </defs>
       <use xlink:href="#DejaVuSans-35"/>
      </g>
     </g>
    </g>
    <g id="xtick_3">
     <g id="line2d_3">
      <g>
       <use xlink:href="#m1f7a161287" x="138.906622" y="140.738462" style="stroke: #000000; stroke-width: 0.8"/>
      </g>
     </g>
     <g id="text_3">
      <!-- 10 -->
      <g transform="translate(132.544122 155.336899) scale(0.1 -0.1)">
       <defs>
        <path id="DejaVuSans-31" d="M 794 531 
L 1825 531 
L 1825 4091 
L 703 3866 
L 703 4441 
L 1819 4666 
L 2450 4666 
L 2450 531 
L 3481 531 
L 3481 0 
L 794 0 
L 794 531 
z
" transform="scale(0.015625)"/>
       </defs>
       <use xlink:href="#DejaVuSans-31"/>
       <use xlink:href="#DejaVuSans-30" x="63.623047"/>
      </g>
     </g>
    </g>
    <g id="xtick_4">
     <g id="line2d_4">
      <g>
       <use xlink:href="#m1f7a161287" x="184.431097" y="140.738462" style="stroke: #000000; stroke-width: 0.8"/>
      </g>
     </g>
     <g id="text_4">
      <!-- 15 -->
      <g transform="translate(178.068597 155.336899) scale(0.1 -0.1)">
       <use xlink:href="#DejaVuSans-31"/>
       <use xlink:href="#DejaVuSans-35" x="63.623047"/>
      </g>
     </g>
    </g>
    <g id="xtick_5">
     <g id="line2d_5">
      <g>
       <use xlink:href="#m1f7a161287" x="229.955573" y="140.738462" style="stroke: #000000; stroke-width: 0.8"/>
      </g>
     </g>
     <g id="text_5">
      <!-- 20 -->
      <g transform="translate(223.593073 155.336899) scale(0.1 -0.1)">
       <defs>
        <path id="DejaVuSans-32" d="M 1228 531 
L 3431 531 
L 3431 0 
L 469 0 
L 469 531 
Q 828 903 1448 1529 
Q 2069 2156 2228 2338 
Q 2531 2678 2651 2914 
Q 2772 3150 2772 3378 
Q 2772 3750 2511 3984 
Q 2250 4219 1831 4219 
Q 1534 4219 1204 4116 
Q 875 4013 500 3803 
L 500 4441 
Q 881 4594 1212 4672 
Q 1544 4750 1819 4750 
Q 2544 4750 2975 4387 
Q 3406 4025 3406 3419 
Q 3406 3131 3298 2873 
Q 3191 2616 2906 2266 
Q 2828 2175 2409 1742 
Q 1991 1309 1228 531 
z
" transform="scale(0.015625)"/>
       </defs>
       <use xlink:href="#DejaVuSans-32"/>
       <use xlink:href="#DejaVuSans-30" x="63.623047"/>
      </g>
     </g>
    </g>
    <g id="xtick_6">
     <g id="line2d_6">
      <g>
       <use xlink:href="#m1f7a161287" x="275.480048" y="140.738462" style="stroke: #000000; stroke-width: 0.8"/>
      </g>
     </g>
     <g id="text_6">
      <!-- 25 -->
      <g transform="translate(269.117548 155.336899) scale(0.1 -0.1)">
       <use xlink:href="#DejaVuSans-32"/>
       <use xlink:href="#DejaVuSans-35" x="63.623047"/>
      </g>
     </g>
    </g>
    <g id="xtick_7">
     <g id="line2d_7">
      <g>
       <use xlink:href="#m1f7a161287" x="321.004524" y="140.738462" style="stroke: #000000; stroke-width: 0.8"/>
      </g>
     </g>
     <g id="text_7">
      <!-- 30 -->
      <g transform="translate(314.642024 155.336899) scale(0.1 -0.1)">
       <defs>
        <path id="DejaVuSans-33" d="M 2597 2516 
Q 3050 2419 3304 2112 
Q 3559 1806 3559 1356 
Q 3559 666 3084 287 
Q 2609 -91 1734 -91 
Q 1441 -91 1130 -33 
Q 819 25 488 141 
L 488 750 
Q 750 597 1062 519 
Q 1375 441 1716 441 
Q 2309 441 2620 675 
Q 2931 909 2931 1356 
Q 2931 1769 2642 2001 
Q 2353 2234 1838 2234 
L 1294 2234 
L 1294 2753 
L 1863 2753 
Q 2328 2753 2575 2939 
Q 2822 3125 2822 3475 
Q 2822 3834 2567 4026 
Q 2313 4219 1838 4219 
Q 1578 4219 1281 4162 
Q 984 4106 628 3988 
L 628 4550 
Q 988 4650 1302 4700 
Q 1616 4750 1894 4750 
Q 2613 4750 3031 4423 
Q 3450 4097 3450 3541 
Q 3450 3153 3228 2886 
Q 3006 2619 2597 2516 
z
" transform="scale(0.015625)"/>
       </defs>
       <use xlink:href="#DejaVuSans-33"/>
       <use xlink:href="#DejaVuSans-30" x="63.623047"/>
      </g>
     </g>
    </g>
    <g id="xtick_8">
     <g id="line2d_8">
      <g>
       <use xlink:href="#m1f7a161287" x="366.528999" y="140.738462" style="stroke: #000000; stroke-width: 0.8"/>
      </g>
     </g>
     <g id="text_8">
      <!-- 35 -->
      <g transform="translate(360.166499 155.336899) scale(0.1 -0.1)">
       <use xlink:href="#DejaVuSans-33"/>
       <use xlink:href="#DejaVuSans-35" x="63.623047"/>
      </g>
     </g>
    </g>
    <g id="xtick_9">
     <g id="line2d_9">
      <g>
       <use xlink:href="#m1f7a161287" x="412.053475" y="140.738462" style="stroke: #000000; stroke-width: 0.8"/>
      </g>
     </g>
     <g id="text_9">
      <!-- 40 -->
      <g transform="translate(405.690975 155.336899) scale(0.1 -0.1)">
       <defs>
        <path id="DejaVuSans-34" d="M 2419 4116 
L 825 1625 
L 2419 1625 
L 2419 4116 
z
M 2253 4666 
L 3047 4666 
L 3047 1625 
L 3713 1625 
L 3713 1100 
L 3047 1100 
L 3047 0 
L 2419 0 
L 2419 1100 
L 313 1100 
L 313 1709 
L 2253 4666 
z
" transform="scale(0.015625)"/>
       </defs>
       <use xlink:href="#DejaVuSans-34"/>
       <use xlink:href="#DejaVuSans-30" x="63.623047"/>
      </g>
     </g>
    </g>
   </g>
   <g id="matplotlib.axis_2">
    <g id="ytick_1">
     <g id="line2d_10">
      <defs>
       <path id="m5f23a72f2e" d="M 0 0 
L -3.5 0 
" style="stroke: #000000; stroke-width: 0.8"/>
      </defs>
      <g>
       <use xlink:href="#m5f23a72f2e" x="30.103125" y="134.668531" style="stroke: #000000; stroke-width: 0.8"/>
      </g>
     </g>
     <g id="text_10">
      <!-- 0.0 -->
      <g transform="translate(7.2 138.46775) scale(0.1 -0.1)">
       <defs>
        <path id="DejaVuSans-2e" d="M 684 794 
L 1344 794 
L 1344 0 
L 684 0 
L 684 794 
z
" transform="scale(0.015625)"/>
       </defs>
       <use xlink:href="#DejaVuSans-30"/>
       <use xlink:href="#DejaVuSans-2e" x="63.623047"/>
       <use xlink:href="#DejaVuSans-30" x="95.410156"/>
      </g>
     </g>
    </g>
    <g id="ytick_2">
     <g id="line2d_11">
      <g>
       <use xlink:href="#m5f23a72f2e" x="30.103125" y="110.388811" style="stroke: #000000; stroke-width: 0.8"/>
      </g>
     </g>
     <g id="text_11">
      <!-- 0.2 -->
      <g transform="translate(7.2 114.18803) scale(0.1 -0.1)">
       <use xlink:href="#DejaVuSans-30"/>
       <use xlink:href="#DejaVuSans-2e" x="63.623047"/>
       <use xlink:href="#DejaVuSans-32" x="95.410156"/>
      </g>
     </g>
    </g>
    <g id="ytick_3">
     <g id="line2d_12">
      <g>
       <use xlink:href="#m5f23a72f2e" x="30.103125" y="86.109091" style="stroke: #000000; stroke-width: 0.8"/>
      </g>
     </g>
     <g id="text_12">
      <!-- 0.4 -->
      <g transform="translate(7.2 89.90831) scale(0.1 -0.1)">
       <use xlink:href="#DejaVuSans-30"/>
       <use xlink:href="#DejaVuSans-2e" x="63.623047"/>
       <use xlink:href="#DejaVuSans-34" x="95.410156"/>
      </g>
     </g>
    </g>
    <g id="ytick_4">
     <g id="line2d_13">
      <g>
       <use xlink:href="#m5f23a72f2e" x="30.103125" y="61.829371" style="stroke: #000000; stroke-width: 0.8"/>
      </g>
     </g>
     <g id="text_13">
      <!-- 0.6 -->
      <g transform="translate(7.2 65.628589) scale(0.1 -0.1)">
       <defs>
        <path id="DejaVuSans-36" d="M 2113 2584 
Q 1688 2584 1439 2293 
Q 1191 2003 1191 1497 
Q 1191 994 1439 701 
Q 1688 409 2113 409 
Q 2538 409 2786 701 
Q 3034 994 3034 1497 
Q 3034 2003 2786 2293 
Q 2538 2584 2113 2584 
z
M 3366 4563 
L 3366 3988 
Q 3128 4100 2886 4159 
Q 2644 4219 2406 4219 
Q 1781 4219 1451 3797 
Q 1122 3375 1075 2522 
Q 1259 2794 1537 2939 
Q 1816 3084 2150 3084 
Q 2853 3084 3261 2657 
Q 3669 2231 3669 1497 
Q 3669 778 3244 343 
Q 2819 -91 2113 -91 
Q 1303 -91 875 529 
Q 447 1150 447 2328 
Q 447 3434 972 4092 
Q 1497 4750 2381 4750 
Q 2619 4750 2861 4703 
Q 3103 4656 3366 4563 
z
" transform="scale(0.015625)"/>
       </defs>
       <use xlink:href="#DejaVuSans-30"/>
       <use xlink:href="#DejaVuSans-2e" x="63.623047"/>
       <use xlink:href="#DejaVuSans-36" x="95.410156"/>
      </g>
     </g>
    </g>
    <g id="ytick_5">
     <g id="line2d_14">
      <g>
       <use xlink:href="#m5f23a72f2e" x="30.103125" y="37.54965" style="stroke: #000000; stroke-width: 0.8"/>
      </g>
     </g>
     <g id="text_14">
      <!-- 0.8 -->
      <g transform="translate(7.2 41.348869) scale(0.1 -0.1)">
       <defs>
        <path id="DejaVuSans-38" d="M 2034 2216 
Q 1584 2216 1326 1975 
Q 1069 1734 1069 1313 
Q 1069 891 1326 650 
Q 1584 409 2034 409 
Q 2484 409 2743 651 
Q 3003 894 3003 1313 
Q 3003 1734 2745 1975 
Q 2488 2216 2034 2216 
z
M 1403 2484 
Q 997 2584 770 2862 
Q 544 3141 544 3541 
Q 544 4100 942 4425 
Q 1341 4750 2034 4750 
Q 2731 4750 3128 4425 
Q 3525 4100 3525 3541 
Q 3525 3141 3298 2862 
Q 3072 2584 2669 2484 
Q 3125 2378 3379 2068 
Q 3634 1759 3634 1313 
Q 3634 634 3220 271 
Q 2806 -91 2034 -91 
Q 1263 -91 848 271 
Q 434 634 434 1313 
Q 434 1759 690 2068 
Q 947 2378 1403 2484 
z
M 1172 3481 
Q 1172 3119 1398 2916 
Q 1625 2713 2034 2713 
Q 2441 2713 2670 2916 
Q 2900 3119 2900 3481 
Q 2900 3844 2670 4047 
Q 2441 4250 2034 4250 
Q 1625 4250 1398 4047 
Q 1172 3844 1172 3481 
z
" transform="scale(0.015625)"/>
       </defs>
       <use xlink:href="#DejaVuSans-30"/>
       <use xlink:href="#DejaVuSans-2e" x="63.623047"/>
       <use xlink:href="#DejaVuSans-38" x="95.410156"/>
      </g>
     </g>
    </g>
    <g id="ytick_6">
     <g id="line2d_15">
      <g>
       <use xlink:href="#m5f23a72f2e" x="30.103125" y="13.26993" style="stroke: #000000; stroke-width: 0.8"/>
      </g>
     </g>
     <g id="text_15">
      <!-- 1.0 -->
      <g transform="translate(7.2 17.069149) scale(0.1 -0.1)">
       <use xlink:href="#DejaVuSans-31"/>
       <use xlink:href="#DejaVuSans-2e" x="63.623047"/>
       <use xlink:href="#DejaVuSans-30" x="95.410156"/>
      </g>
     </g>
    </g>
   </g>
   <g id="line2d_16">
    <defs>
     <path id="m10dedd0f03" d="M 0 3 
C 0.795609 3 1.55874 2.683901 2.12132 2.12132 
C 2.683901 1.55874 3 0.795609 3 0 
C 3 -0.795609 2.683901 -1.55874 2.12132 -2.12132 
C 1.55874 -2.683901 0.795609 -3 0 -3 
C -0.795609 -3 -1.55874 -2.683901 -2.12132 -2.12132 
C -2.683901 -1.55874 -3 -0.795609 -3 0 
C -3 0.795609 -2.683901 1.55874 -2.12132 2.12132 
C -1.55874 2.683901 -0.795609 3 0 3 
z
" style="stroke: #1f77b4"/>
    </defs>
    <g clip-path="url(#p107570aa29)">
     <use xlink:href="#m10dedd0f03" x="47.85767" y="134.668416" style="fill: #1f77b4; stroke: #1f77b4"/>
     <use xlink:href="#m10dedd0f03" x="56.962566" y="134.6661" style="fill: #1f77b4; stroke: #1f77b4"/>
     <use xlink:href="#m10dedd0f03" x="66.067461" y="134.644103" style="fill: #1f77b4; stroke: #1f77b4"/>
     <use xlink:href="#m10dedd0f03" x="75.172356" y="134.51212" style="fill: #1f77b4; stroke: #1f77b4"/>
     <use xlink:href="#m10dedd0f03" x="84.277251" y="133.951191" style="fill: #1f77b4; stroke: #1f77b4"/>
     <use xlink:href="#m10dedd0f03" x="93.382146" y="132.15622" style="fill: #1f77b4; stroke: #1f77b4"/>
     <use xlink:href="#m10dedd0f03" x="102.487041" y="127.668791" style="fill: #1f77b4; stroke: #1f77b4"/>
     <use xlink:href="#m10dedd0f03" x="111.591936" y="118.693934" style="fill: #1f77b4; stroke: #1f77b4"/>
     <use xlink:href="#m10dedd0f03" x="120.696831" y="104.109792" style="fill: #1f77b4; stroke: #1f77b4"/>
     <use xlink:href="#m10dedd0f03" x="129.801726" y="84.664269" style="fill: #1f77b4; stroke: #1f77b4"/>
     <use xlink:href="#m10dedd0f03" x="138.906622" y="63.274193" style="fill: #1f77b4; stroke: #1f77b4"/>
     <use xlink:href="#m10dedd0f03" x="148.011517" y="43.82867" style="fill: #1f77b4; stroke: #1f77b4"/>
     <use xlink:href="#m10dedd0f03" x="157.116412" y="29.244527" style="fill: #1f77b4; stroke: #1f77b4"/>
     <use xlink:href="#m10dedd0f03" x="166.221307" y="20.26967" style="fill: #1f77b4; stroke: #1f77b4"/>
     <use xlink:href="#m10dedd0f03" x="175.326202" y="15.782242" style="fill: #1f77b4; stroke: #1f77b4"/>
     <use xlink:href="#m10dedd0f03" x="184.431097" y="13.98727" style="fill: #1f77b4; stroke: #1f77b4"/>
     <use xlink:href="#m10dedd0f03" x="193.535992" y="13.426342" style="fill: #1f77b4; stroke: #1f77b4"/>
     <use xlink:href="#m10dedd0f03" x="202.640887" y="13.294359" style="fill: #1f77b4; stroke: #1f77b4"/>
     <use xlink:href="#m10dedd0f03" x="211.745782" y="13.272361" style="fill: #1f77b4; stroke: #1f77b4"/>
     <use xlink:href="#m10dedd0f03" x="220.850677" y="13.270046" style="fill: #1f77b4; stroke: #1f77b4"/>
     <use xlink:href="#m10dedd0f03" x="229.955573" y="13.26993" style="fill: #1f77b4; stroke: #1f77b4"/>
     <use xlink:href="#m10dedd0f03" x="239.060468" y="13.26993" style="fill: #1f77b4; stroke: #1f77b4"/>
     <use xlink:href="#m10dedd0f03" x="248.165363" y="13.26993" style="fill: #1f77b4; stroke: #1f77b4"/>
     <use xlink:href="#m10dedd0f03" x="257.270258" y="13.26993" style="fill: #1f77b4; stroke: #1f77b4"/>
     <use xlink:href="#m10dedd0f03" x="266.375153" y="13.26993" style="fill: #1f77b4; stroke: #1f77b4"/>
     <use xlink:href="#m10dedd0f03" x="275.480048" y="13.26993" style="fill: #1f77b4; stroke: #1f77b4"/>
     <use xlink:href="#m10dedd0f03" x="284.584943" y="13.26993" style="fill: #1f77b4; stroke: #1f77b4"/>
     <use xlink:href="#m10dedd0f03" x="293.689838" y="13.26993" style="fill: #1f77b4; stroke: #1f77b4"/>
     <use xlink:href="#m10dedd0f03" x="302.794733" y="13.26993" style="fill: #1f77b4; stroke: #1f77b4"/>
     <use xlink:href="#m10dedd0f03" x="311.899628" y="13.26993" style="fill: #1f77b4; stroke: #1f77b4"/>
     <use xlink:href="#m10dedd0f03" x="321.004524" y="13.26993" style="fill: #1f77b4; stroke: #1f77b4"/>
     <use xlink:href="#m10dedd0f03" x="330.109419" y="13.26993" style="fill: #1f77b4; stroke: #1f77b4"/>
     <use xlink:href="#m10dedd0f03" x="339.214314" y="13.26993" style="fill: #1f77b4; stroke: #1f77b4"/>
     <use xlink:href="#m10dedd0f03" x="348.319209" y="13.26993" style="fill: #1f77b4; stroke: #1f77b4"/>
     <use xlink:href="#m10dedd0f03" x="357.424104" y="13.26993" style="fill: #1f77b4; stroke: #1f77b4"/>
     <use xlink:href="#m10dedd0f03" x="366.528999" y="13.26993" style="fill: #1f77b4; stroke: #1f77b4"/>
     <use xlink:href="#m10dedd0f03" x="375.633894" y="13.26993" style="fill: #1f77b4; stroke: #1f77b4"/>
     <use xlink:href="#m10dedd0f03" x="384.738789" y="13.26993" style="fill: #1f77b4; stroke: #1f77b4"/>
     <use xlink:href="#m10dedd0f03" x="393.843684" y="13.26993" style="fill: #1f77b4; stroke: #1f77b4"/>
     <use xlink:href="#m10dedd0f03" x="402.94858" y="13.26993" style="fill: #1f77b4; stroke: #1f77b4"/>
    </g>
   </g>
   <g id="line2d_17">
    <defs>
     <path id="m7568db0452" d="M -3 3 
L 3 -3 
M -3 -3 
L 3 3 
" style="stroke: #ff7f0e"/>
    </defs>
    <g clip-path="url(#p107570aa29)">
     <use xlink:href="#m7568db0452" x="47.85767" y="134.668531" style="fill: #ff7f0e; stroke: #ff7f0e"/>
     <use xlink:href="#m7568db0452" x="56.962566" y="134.668531" style="fill: #ff7f0e; stroke: #ff7f0e"/>
     <use xlink:href="#m7568db0452" x="66.067461" y="134.668527" style="fill: #ff7f0e; stroke: #ff7f0e"/>
     <use xlink:href="#m7568db0452" x="75.172356" y="134.668466" style="fill: #ff7f0e; stroke: #ff7f0e"/>
     <use xlink:href="#m7568db0452" x="84.277251" y="134.667858" style="fill: #ff7f0e; stroke: #ff7f0e"/>
     <use xlink:href="#m7568db0452" x="93.382146" y="134.663319" style="fill: #ff7f0e; stroke: #ff7f0e"/>
     <use xlink:href="#m7568db0452" x="102.487041" y="134.636841" style="fill: #ff7f0e; stroke: #ff7f0e"/>
     <use xlink:href="#m7568db0452" x="111.591936" y="134.513277" style="fill: #ff7f0e; stroke: #ff7f0e"/>
     <use xlink:href="#m7568db0452" x="120.696831" y="134.044766" style="fill: #ff7f0e; stroke: #ff7f0e"/>
     <use xlink:href="#m7568db0452" x="129.801726" y="132.587175" style="fill: #ff7f0e; stroke: #ff7f0e"/>
     <use xlink:href="#m7568db0452" x="138.906622" y="128.846024" style="fill: #ff7f0e; stroke: #ff7f0e"/>
     <use xlink:href="#m7568db0452" x="148.011517" y="120.91025" style="fill: #ff7f0e; stroke: #ff7f0e"/>
     <use xlink:href="#m7568db0452" x="157.116412" y="107.022646" style="fill: #ff7f0e; stroke: #ff7f0e"/>
     <use xlink:href="#m7568db0452" x="166.221307" y="87.081471" style="fill: #ff7f0e; stroke: #ff7f0e"/>
     <use xlink:href="#m7568db0452" x="175.326202" y="63.816766" style="fill: #ff7f0e; stroke: #ff7f0e"/>
     <use xlink:href="#m7568db0452" x="184.431097" y="42.103042" style="fill: #ff7f0e; stroke: #ff7f0e"/>
     <use xlink:href="#m7568db0452" x="193.535992" y="26.270118" style="fill: #ff7f0e; stroke: #ff7f0e"/>
     <use xlink:href="#m7568db0452" x="202.640887" y="17.577533" style="fill: #ff7f0e; stroke: #ff7f0e"/>
     <use xlink:href="#m7568db0452" x="211.745782" y="14.197083" style="fill: #ff7f0e; stroke: #ff7f0e"/>
     <use xlink:href="#m7568db0452" x="220.850677" y="13.366797" style="fill: #ff7f0e; stroke: #ff7f0e"/>
     <use xlink:href="#m7568db0452" x="229.955573" y="13.26993" style="fill: #ff7f0e; stroke: #ff7f0e"/>
     <use xlink:href="#m7568db0452" x="239.060468" y="13.26993" style="fill: #ff7f0e; stroke: #ff7f0e"/>
     <use xlink:href="#m7568db0452" x="248.165363" y="13.26993" style="fill: #ff7f0e; stroke: #ff7f0e"/>
     <use xlink:href="#m7568db0452" x="257.270258" y="13.26993" style="fill: #ff7f0e; stroke: #ff7f0e"/>
     <use xlink:href="#m7568db0452" x="266.375153" y="13.26993" style="fill: #ff7f0e; stroke: #ff7f0e"/>
     <use xlink:href="#m7568db0452" x="275.480048" y="13.26993" style="fill: #ff7f0e; stroke: #ff7f0e"/>
     <use xlink:href="#m7568db0452" x="284.584943" y="13.26993" style="fill: #ff7f0e; stroke: #ff7f0e"/>
     <use xlink:href="#m7568db0452" x="293.689838" y="13.26993" style="fill: #ff7f0e; stroke: #ff7f0e"/>
     <use xlink:href="#m7568db0452" x="302.794733" y="13.26993" style="fill: #ff7f0e; stroke: #ff7f0e"/>
     <use xlink:href="#m7568db0452" x="311.899628" y="13.26993" style="fill: #ff7f0e; stroke: #ff7f0e"/>
     <use xlink:href="#m7568db0452" x="321.004524" y="13.26993" style="fill: #ff7f0e; stroke: #ff7f0e"/>
     <use xlink:href="#m7568db0452" x="330.109419" y="13.26993" style="fill: #ff7f0e; stroke: #ff7f0e"/>
     <use xlink:href="#m7568db0452" x="339.214314" y="13.26993" style="fill: #ff7f0e; stroke: #ff7f0e"/>
     <use xlink:href="#m7568db0452" x="348.319209" y="13.26993" style="fill: #ff7f0e; stroke: #ff7f0e"/>
     <use xlink:href="#m7568db0452" x="357.424104" y="13.26993" style="fill: #ff7f0e; stroke: #ff7f0e"/>
     <use xlink:href="#m7568db0452" x="366.528999" y="13.26993" style="fill: #ff7f0e; stroke: #ff7f0e"/>
     <use xlink:href="#m7568db0452" x="375.633894" y="13.26993" style="fill: #ff7f0e; stroke: #ff7f0e"/>
     <use xlink:href="#m7568db0452" x="384.738789" y="13.26993" style="fill: #ff7f0e; stroke: #ff7f0e"/>
     <use xlink:href="#m7568db0452" x="393.843684" y="13.26993" style="fill: #ff7f0e; stroke: #ff7f0e"/>
     <use xlink:href="#m7568db0452" x="402.94858" y="13.26993" style="fill: #ff7f0e; stroke: #ff7f0e"/>
    </g>
   </g>
   <g id="line2d_18">
    <defs>
     <path id="m9028b77ea7" d="M -0 4.242641 
L 2.545584 0 
L 0 -4.242641 
L -2.545584 -0 
z
" style="stroke: #2ca02c; stroke-linejoin: miter"/>
    </defs>
    <g clip-path="url(#p107570aa29)">
     <use xlink:href="#m9028b77ea7" x="47.85767" y="134.668531" style="fill: #2ca02c; stroke: #2ca02c; stroke-linejoin: miter"/>
     <use xlink:href="#m9028b77ea7" x="56.962566" y="134.668531" style="fill: #2ca02c; stroke: #2ca02c; stroke-linejoin: miter"/>
     <use xlink:href="#m9028b77ea7" x="66.067461" y="134.668531" style="fill: #2ca02c; stroke: #2ca02c; stroke-linejoin: miter"/>
     <use xlink:href="#m9028b77ea7" x="75.172356" y="134.66853" style="fill: #2ca02c; stroke: #2ca02c; stroke-linejoin: miter"/>
     <use xlink:href="#m9028b77ea7" x="84.277251" y="134.66852" style="fill: #2ca02c; stroke: #2ca02c; stroke-linejoin: miter"/>
     <use xlink:href="#m9028b77ea7" x="93.382146" y="134.668448" style="fill: #2ca02c; stroke: #2ca02c; stroke-linejoin: miter"/>
     <use xlink:href="#m9028b77ea7" x="102.487041" y="134.668024" style="fill: #2ca02c; stroke: #2ca02c; stroke-linejoin: miter"/>
     <use xlink:href="#m9028b77ea7" x="111.591936" y="134.665965" style="fill: #2ca02c; stroke: #2ca02c; stroke-linejoin: miter"/>
     <use xlink:href="#m9028b77ea7" x="120.696831" y="134.657474" style="fill: #2ca02c; stroke: #2ca02c; stroke-linejoin: miter"/>
     <use xlink:href="#m9028b77ea7" x="129.801726" y="134.627283" style="fill: #2ca02c; stroke: #2ca02c; stroke-linejoin: miter"/>
     <use xlink:href="#m9028b77ea7" x="138.906622" y="134.533692" style="fill: #2ca02c; stroke: #2ca02c; stroke-linejoin: miter"/>
     <use xlink:href="#m9028b77ea7" x="148.011517" y="134.278443" style="fill: #2ca02c; stroke: #2ca02c; stroke-linejoin: miter"/>
     <use xlink:href="#m9028b77ea7" x="157.116412" y="133.661591" style="fill: #2ca02c; stroke: #2ca02c; stroke-linejoin: miter"/>
     <use xlink:href="#m9028b77ea7" x="166.221307" y="132.332986" style="fill: #2ca02c; stroke: #2ca02c; stroke-linejoin: miter"/>
     <use xlink:href="#m9028b77ea7" x="175.326202" y="129.770677" style="fill: #2ca02c; stroke: #2ca02c; stroke-linejoin: miter"/>
     <use xlink:href="#m9028b77ea7" x="184.431097" y="125.32934" style="fill: #2ca02c; stroke: #2ca02c; stroke-linejoin: miter"/>
     <use xlink:href="#m9028b77ea7" x="193.535992" y="118.389753" style="fill: #2ca02c; stroke: #2ca02c; stroke-linejoin: miter"/>
     <use xlink:href="#m9028b77ea7" x="202.640887" y="108.592688" style="fill: #2ca02c; stroke: #2ca02c; stroke-linejoin: miter"/>
     <use xlink:href="#m9028b77ea7" x="211.745782" y="96.074216" style="fill: #2ca02c; stroke: #2ca02c; stroke-linejoin: miter"/>
     <use xlink:href="#m9028b77ea7" x="220.850677" y="81.579144" style="fill: #2ca02c; stroke: #2ca02c; stroke-linejoin: miter"/>
     <use xlink:href="#m9028b77ea7" x="229.955573" y="66.359318" style="fill: #2ca02c; stroke: #2ca02c; stroke-linejoin: miter"/>
     <use xlink:href="#m9028b77ea7" x="239.060468" y="51.864245" style="fill: #2ca02c; stroke: #2ca02c; stroke-linejoin: miter"/>
     <use xlink:href="#m9028b77ea7" x="248.165363" y="39.345773" style="fill: #2ca02c; stroke: #2ca02c; stroke-linejoin: miter"/>
     <use xlink:href="#m9028b77ea7" x="257.270258" y="29.548709" style="fill: #2ca02c; stroke: #2ca02c; stroke-linejoin: miter"/>
     <use xlink:href="#m9028b77ea7" x="266.375153" y="22.609121" style="fill: #2ca02c; stroke: #2ca02c; stroke-linejoin: miter"/>
     <use xlink:href="#m9028b77ea7" x="275.480048" y="18.167785" style="fill: #2ca02c; stroke: #2ca02c; stroke-linejoin: miter"/>
     <use xlink:href="#m9028b77ea7" x="284.584943" y="15.605476" style="fill: #2ca02c; stroke: #2ca02c; stroke-linejoin: miter"/>
     <use xlink:href="#m9028b77ea7" x="293.689838" y="14.276871" style="fill: #2ca02c; stroke: #2ca02c; stroke-linejoin: miter"/>
     <use xlink:href="#m9028b77ea7" x="302.794733" y="13.660019" style="fill: #2ca02c; stroke: #2ca02c; stroke-linejoin: miter"/>
     <use xlink:href="#m9028b77ea7" x="311.899628" y="13.40477" style="fill: #2ca02c; stroke: #2ca02c; stroke-linejoin: miter"/>
     <use xlink:href="#m9028b77ea7" x="321.004524" y="13.311178" style="fill: #2ca02c; stroke: #2ca02c; stroke-linejoin: miter"/>
     <use xlink:href="#m9028b77ea7" x="330.109419" y="13.280987" style="fill: #2ca02c; stroke: #2ca02c; stroke-linejoin: miter"/>
     <use xlink:href="#m9028b77ea7" x="339.214314" y="13.272496" style="fill: #2ca02c; stroke: #2ca02c; stroke-linejoin: miter"/>
     <use xlink:href="#m9028b77ea7" x="348.319209" y="13.270438" style="fill: #2ca02c; stroke: #2ca02c; stroke-linejoin: miter"/>
     <use xlink:href="#m9028b77ea7" x="357.424104" y="13.270014" style="fill: #2ca02c; stroke: #2ca02c; stroke-linejoin: miter"/>
     <use xlink:href="#m9028b77ea7" x="366.528999" y="13.269941" style="fill: #2ca02c; stroke: #2ca02c; stroke-linejoin: miter"/>
     <use xlink:href="#m9028b77ea7" x="375.633894" y="13.269931" style="fill: #2ca02c; stroke: #2ca02c; stroke-linejoin: miter"/>
     <use xlink:href="#m9028b77ea7" x="384.738789" y="13.26993" style="fill: #2ca02c; stroke: #2ca02c; stroke-linejoin: miter"/>
     <use xlink:href="#m9028b77ea7" x="393.843684" y="13.26993" style="fill: #2ca02c; stroke: #2ca02c; stroke-linejoin: miter"/>
     <use xlink:href="#m9028b77ea7" x="402.94858" y="13.26993" style="fill: #2ca02c; stroke: #2ca02c; stroke-linejoin: miter"/>
    </g>
   </g>
   <g id="patch_3">
    <path d="M 30.103125 140.738462 
L 30.103125 7.2 
" style="fill: none; stroke: #000000; stroke-width: 0.8; stroke-linejoin: miter; stroke-linecap: square"/>
   </g>
   <g id="patch_4">
    <path d="M 420.703125 140.738462 
L 420.703125 7.2 
" style="fill: none; stroke: #000000; stroke-width: 0.8; stroke-linejoin: miter; stroke-linecap: square"/>
   </g>
   <g id="patch_5">
    <path d="M 30.103125 140.738462 
L 420.703125 140.738462 
" style="fill: none; stroke: #000000; stroke-width: 0.8; stroke-linejoin: miter; stroke-linecap: square"/>
   </g>
   <g id="patch_6">
    <path d="M 30.103125 7.2 
L 420.703125 7.2 
" style="fill: none; stroke: #000000; stroke-width: 0.8; stroke-linejoin: miter; stroke-linecap: square"/>
   </g>
   <g id="legend_1">
    <g id="patch_7">
     <path d="M 316.403125 135.738462 
L 413.703125 135.738462 
Q 415.703125 135.738462 415.703125 133.738462 
L 415.703125 79.138462 
Q 415.703125 77.138462 413.703125 77.138462 
L 316.403125 77.138462 
Q 314.403125 77.138462 314.403125 79.138462 
L 314.403125 133.738462 
Q 314.403125 135.738462 316.403125 135.738462 
z
" style="fill: #ffffff; opacity: 0.8; stroke: #cccccc; stroke-linejoin: miter"/>
    </g>
    <g id="line2d_19">
     <g>
      <use xlink:href="#m10dedd0f03" x="328.403125" y="87.138462" style="fill: #1f77b4; stroke: #1f77b4"/>
     </g>
    </g>
    <g id="text_16">
     <!-- $n=20, p=\frac{1}{2}$ -->
     <g transform="translate(346.403125 90.638462) scale(0.1 -0.1)">
      <defs>
       <path id="DejaVuSans-Oblique-6e" d="M 3566 2113 
L 3156 0 
L 2578 0 
L 2988 2091 
Q 3016 2238 3031 2350 
Q 3047 2463 3047 2528 
Q 3047 2791 2881 2937 
Q 2716 3084 2419 3084 
Q 1956 3084 1622 2776 
Q 1288 2469 1184 1941 
L 800 0 
L 225 0 
L 903 3500 
L 1478 3500 
L 1363 2950 
Q 1603 3253 1940 3418 
Q 2278 3584 2650 3584 
Q 3113 3584 3367 3334 
Q 3622 3084 3622 2631 
Q 3622 2519 3608 2391 
Q 3594 2263 3566 2113 
z
" transform="scale(0.015625)"/>
       <path id="DejaVuSans-3d" d="M 678 2906 
L 4684 2906 
L 4684 2381 
L 678 2381 
L 678 2906 
z
M 678 1631 
L 4684 1631 
L 4684 1100 
L 678 1100 
L 678 1631 
z
" transform="scale(0.015625)"/>
       <path id="DejaVuSans-2c" d="M 750 794 
L 1409 794 
L 1409 256 
L 897 -744 
L 494 -744 
L 750 256 
L 750 794 
z
" transform="scale(0.015625)"/>
       <path id="DejaVuSans-Oblique-70" d="M 3175 2156 
Q 3175 2616 2975 2859 
Q 2775 3103 2400 3103 
Q 2144 3103 1911 2972 
Q 1678 2841 1497 2591 
Q 1319 2344 1212 1994 
Q 1106 1644 1106 1300 
Q 1106 863 1306 627 
Q 1506 391 1875 391 
Q 2147 391 2380 519 
Q 2613 647 2778 891 
Q 2956 1147 3065 1494 
Q 3175 1841 3175 2156 
z
M 1394 2969 
Q 1625 3272 1939 3428 
Q 2253 3584 2638 3584 
Q 3175 3584 3472 3232 
Q 3769 2881 3769 2247 
Q 3769 1728 3584 1258 
Q 3400 788 3053 416 
Q 2822 169 2531 39 
Q 2241 -91 1919 -91 
Q 1547 -91 1294 64 
Q 1041 219 916 525 
L 556 -1331 
L -19 -1331 
L 922 3500 
L 1497 3500 
L 1394 2969 
z
" transform="scale(0.015625)"/>
      </defs>
      <use xlink:href="#DejaVuSans-Oblique-6e" transform="translate(0 0.16875)"/>
      <use xlink:href="#DejaVuSans-3d" transform="translate(82.861328 0.16875)"/>
      <use xlink:href="#DejaVuSans-32" transform="translate(186.132812 0.16875)"/>
      <use xlink:href="#DejaVuSans-30" transform="translate(249.755859 0.16875)"/>
      <use xlink:href="#DejaVuSans-2c" transform="translate(313.378906 0.16875)"/>
      <use xlink:href="#DejaVuSans-Oblique-70" transform="translate(364.648438 0.16875)"/>
      <use xlink:href="#DejaVuSans-3d" transform="translate(447.607422 0.16875)"/>
      <use xlink:href="#DejaVuSans-31" transform="translate(550.878906 43.965625) scale(0.7)"/>
      <use xlink:href="#DejaVuSans-32" transform="translate(550.878906 -39.2375) scale(0.7)"/>
      <path d="M 550.878906 18.965625 
L 550.878906 25.215625 
L 595.415039 25.215625 
L 595.415039 18.965625 
L 550.878906 18.965625 
z
"/>
     </g>
    </g>
    <g id="line2d_20">
     <g>
      <use xlink:href="#m7568db0452" x="328.403125" y="105.638462" style="fill: #ff7f0e; stroke: #ff7f0e"/>
     </g>
    </g>
    <g id="text_17">
     <!-- $n=20, p=\frac{7}{10}$ -->
     <g transform="translate(346.403125 109.138462) scale(0.1 -0.1)">
      <defs>
       <path id="DejaVuSans-37" d="M 525 4666 
L 3525 4666 
L 3525 4397 
L 1831 0 
L 1172 0 
L 2766 4134 
L 525 4134 
L 525 4666 
z
" transform="scale(0.015625)"/>
      </defs>
      <use xlink:href="#DejaVuSans-Oblique-6e" transform="translate(0 0.16875)"/>
      <use xlink:href="#DejaVuSans-3d" transform="translate(82.861328 0.16875)"/>
      <use xlink:href="#DejaVuSans-32" transform="translate(186.132812 0.16875)"/>
      <use xlink:href="#DejaVuSans-30" transform="translate(249.755859 0.16875)"/>
      <use xlink:href="#DejaVuSans-2c" transform="translate(313.378906 0.16875)"/>
      <use xlink:href="#DejaVuSans-Oblique-70" transform="translate(364.648438 0.16875)"/>
      <use xlink:href="#DejaVuSans-3d" transform="translate(447.607422 0.16875)"/>
      <use xlink:href="#DejaVuSans-37" transform="translate(572.878906 43.965625) scale(0.7)"/>
      <use xlink:href="#DejaVuSans-31" transform="translate(550.878906 -39.2375) scale(0.7)"/>
      <use xlink:href="#DejaVuSans-30" transform="translate(595.415039 -39.2375) scale(0.7)"/>
      <path d="M 550.878906 18.965625 
L 550.878906 25.215625 
L 639.951172 25.215625 
L 639.951172 18.965625 
L 550.878906 18.965625 
z
"/>
     </g>
    </g>
    <g id="line2d_21">
     <g>
      <use xlink:href="#m9028b77ea7" x="328.403125" y="124.238462" style="fill: #2ca02c; stroke: #2ca02c; stroke-linejoin: miter"/>
     </g>
    </g>
    <g id="text_18">
     <!-- $n=40, p=\frac{1}{2}$ -->
     <g transform="translate(346.403125 127.738462) scale(0.1 -0.1)">
      <use xlink:href="#DejaVuSans-Oblique-6e" transform="translate(0 0.16875)"/>
      <use xlink:href="#DejaVuSans-3d" transform="translate(82.861328 0.16875)"/>
      <use xlink:href="#DejaVuSans-34" transform="translate(186.132812 0.16875)"/>
      <use xlink:href="#DejaVuSans-30" transform="translate(249.755859 0.16875)"/>
      <use xlink:href="#DejaVuSans-2c" transform="translate(313.378906 0.16875)"/>
      <use xlink:href="#DejaVuSans-Oblique-70" transform="translate(364.648438 0.16875)"/>
      <use xlink:href="#DejaVuSans-3d" transform="translate(447.607422 0.16875)"/>
      <use xlink:href="#DejaVuSans-31" transform="translate(550.878906 43.965625) scale(0.7)"/>
      <use xlink:href="#DejaVuSans-32" transform="translate(550.878906 -39.2375) scale(0.7)"/>
      <path d="M 550.878906 18.965625 
L 550.878906 25.215625 
L 595.415039 25.215625 
L 595.415039 18.965625 
L 550.878906 18.965625 
z
"/>
     </g>
    </g>
   </g>
  </g>
 </g>
 <defs>
  <clipPath id="p107570aa29">
   <rect x="30.103125" y="7.2" width="390.6" height="133.538462"/>
  </clipPath>
 </defs>
</svg>
