<?xml version="1.0" encoding="utf-8" standalone="no"?>
<!DOCTYPE svg PUBLIC "-//W3C//DTD SVG 1.1//EN"
  "http://www.w3.org/Graphics/SVG/1.1/DTD/svg11.dtd">
<svg xmlns:xlink="http://www.w3.org/1999/xlink" width="454.328125pt" height="174.95625pt" viewBox="0 0 454.328125 174.95625" xmlns="http://www.w3.org/2000/svg" version="1.1">
 <metadata>
  <rdf:RDF xmlns:dc="http://purl.org/dc/elements/1.1/" xmlns:cc="http://creativecommons.org/ns#" xmlns:rdf="http://www.w3.org/1999/02/22-rdf-syntax-ns#">
   <cc:Work>
    <dc:type rdf:resource="http://purl.org/dc/dcmitype/StillImage"/>
    <dc:date>2025-01-31T15:53:42.305359</dc:date>
    <dc:format>image/svg+xml</dc:format>
    <dc:creator>
     <cc:Agent>
      <dc:title>Matplotlib v3.9.2, https://matplotlib.org/</dc:title>
     </cc:Agent>
    </dc:creator>
   </cc:Work>
  </rdf:RDF>
 </metadata>
 <defs>
  <style type="text/css">*{stroke-linejoin: round; stroke-linecap: butt}</style>
 </defs>
 <g id="figure_1">
  <g id="patch_1">
   <path d="M 0 174.95625 
L 454.328125 174.95625 
L 454.328125 0 
L 0 0 
z
" style="fill: #ffffff"/>
  </g>
  <g id="axes_1">
   <g id="patch_2">
    <path d="M 56.528125 137.4 
L 447.128125 137.4 
L 447.128125 7.2 
L 56.528125 7.2 
z
" style="fill: #ffffff"/>
   </g>
   <g id="PolyCollection_1">
    <path d="M 283.241348 131.481818 
L 283.241348 79.853584 
L 283.588456 78.913551 
L 283.935563 77.967374 
L 284.28267 77.015333 
L 284.629778 76.057717 
L 284.976885 75.094824 
L 285.323993 74.126961 
L 285.6711 73.154442 
L 286.018208 72.177591 
L 286.365315 71.196738 
L 286.712423 70.212224 
L 287.05953 69.224395 
L 287.406637 68.233606 
L 287.753745 67.240219 
L 288.100852 66.244604 
L 288.44796 65.247138 
L 288.795067 64.248203 
L 289.142175 63.248192 
L 289.489282 62.2475 
L 289.836389 61.246531 
L 290.183497 60.245695 
L 290.530604 59.245405 
L 290.877712 58.246084 
L 291.224819 57.248157 
L 291.571927 56.252054 
L 291.919034 55.258211 
L 292.266142 54.267069 
L 292.613249 53.27907 
L 292.960356 52.294664 
L 293.307464 51.314302 
L 293.654571 50.338437 
L 294.001679 49.367527 
L 294.348786 48.402031 
L 294.695894 47.442413 
L 295.043001 46.489134 
L 295.390108 45.54266 
L 295.737216 44.603457 
L 296.084323 43.671991 
L 296.431431 42.74873 
L 296.778538 41.834139 
L 297.125646 40.928686 
L 297.472753 40.032836 
L 297.819861 39.147052 
L 298.166968 38.271796 
L 298.514075 37.407531 
L 298.861183 36.554712 
L 299.20829 35.713795 
L 299.555398 34.885232 
L 299.902505 34.069471 
L 300.249613 33.266955 
L 300.59672 32.478125 
L 300.943827 31.703414 
L 301.290935 30.943252 
L 301.638042 30.198063 
L 301.98515 29.468264 
L 302.332257 28.754266 
L 302.679365 28.056475 
L 303.026472 27.375285 
L 303.37358 26.711089 
L 303.720687 26.064266 
L 304.067794 25.43519 
L 304.414902 24.824225 
L 304.762009 24.231728 
L 305.109117 23.658044 
L 305.456224 23.10351 
L 305.803332 22.568452 
L 306.150439 22.053186 
L 306.497546 21.558018 
L 306.844654 21.083241 
L 307.191761 20.629139 
L 307.538869 20.195985 
L 307.885976 19.784036 
L 308.233084 19.393541 
L 308.580191 19.024736 
L 308.927299 18.677843 
L 309.274406 18.353072 
L 309.621513 18.050621 
L 309.968621 17.770672 
L 310.315728 17.513397 
L 310.662836 17.278952 
L 311.009943 17.067481 
L 311.357051 16.879112 
L 311.704158 16.713962 
L 312.051265 16.572131 
L 312.398373 16.453707 
L 312.74548 16.358761 
L 313.092588 16.287353 
L 313.439695 16.239526 
L 313.786803 16.21531 
L 314.13391 16.214719 
L 314.481018 16.237755 
L 314.828125 16.284401 
L 315.175232 16.354631 
L 315.52234 16.448401 
L 315.869447 16.565654 
L 316.216555 16.706316 
L 316.563662 16.870303 
L 316.91077 17.057513 
L 317.257877 17.267832 
L 317.604985 17.501131 
L 317.952092 17.757268 
L 318.299199 18.036087 
L 318.646307 18.337418 
L 318.993414 18.661077 
L 319.340522 19.006869 
L 319.687629 19.374584 
L 320.034737 19.764 
L 320.381844 20.174881 
L 320.728951 20.606982 
L 321.076059 21.060043 
L 321.423166 21.533792 
L 321.770274 22.027948 
L 322.117381 22.542216 
L 322.464489 23.076292 
L 322.811596 23.62986 
L 323.158704 24.202594 
L 323.505811 24.794159 
L 323.852918 25.404208 
L 324.200026 26.032387 
L 324.547133 26.678332 
L 324.894241 27.341669 
L 325.241348 28.022018 
L 325.588456 28.718989 
L 325.935563 29.432186 
L 326.28267 30.161204 
L 326.629778 30.905634 
L 326.976885 31.665057 
L 327.323993 32.43905 
L 327.6711 33.227185 
L 328.018208 34.029027 
L 328.365315 34.844136 
L 328.712423 35.67207 
L 329.05953 36.51238 
L 329.406637 37.364614 
L 329.753745 38.228318 
L 330.100852 39.103035 
L 330.44796 39.988303 
L 330.795067 40.883662 
L 331.142175 41.788646 
L 331.489282 42.702791 
L 331.836389 43.625629 
L 332.183497 44.556696 
L 332.530604 45.495523 
L 332.877712 46.441645 
L 333.224819 47.394594 
L 333.571927 48.353907 
L 333.919034 49.319119 
L 334.266142 50.28977 
L 334.613249 51.265398 
L 334.960356 52.245546 
L 335.307464 53.229761 
L 335.654571 54.21759 
L 336.001679 55.208586 
L 336.348786 56.202304 
L 336.695894 57.198304 
L 337.043001 58.196151 
L 337.390108 59.195413 
L 337.737216 60.195664 
L 338.084323 61.196483 
L 338.431431 62.197455 
L 338.778538 63.19817 
L 339.125646 64.198225 
L 339.472753 65.197222 
L 339.819861 66.194772 
L 340.166968 67.190488 
L 340.514075 68.183995 
L 340.861183 69.174923 
L 341.20829 70.162909 
L 341.555398 71.147597 
L 341.902505 72.12864 
L 342.249613 73.105699 
L 342.59672 74.078443 
L 342.943827 75.046546 
L 343.290935 76.009695 
L 343.638042 76.967582 
L 343.98515 77.919909 
L 344.332257 78.866386 
L 344.679365 79.806732 
L 345.026472 80.740675 
L 345.37358 81.66795 
L 345.720687 82.588303 
L 346.067794 83.501488 
L 346.414902 84.407268 
L 346.762009 85.305415 
L 347.109117 86.19571 
L 347.456224 87.077943 
L 347.803332 87.951913 
L 348.150439 88.817428 
L 348.497546 89.674305 
L 348.844654 90.522369 
L 349.191761 91.361454 
L 349.538869 92.191406 
L 349.885976 93.012075 
L 350.233084 93.823323 
L 350.580191 94.625019 
L 350.927299 95.417042 
L 351.274406 96.199278 
L 351.621513 96.971623 
L 351.968621 97.733979 
L 352.315728 98.486258 
L 352.662836 99.228381 
L 353.009943 99.960274 
L 353.357051 100.681873 
L 353.704158 101.393122 
L 354.051265 102.093971 
L 354.398373 102.784378 
L 354.74548 103.464309 
L 355.092588 104.133738 
L 355.439695 104.792643 
L 355.786803 105.441011 
L 356.13391 106.078836 
L 356.481018 106.706118 
L 356.828125 107.322863 
L 357.175232 107.929084 
L 357.52234 108.524799 
L 357.869447 109.110034 
L 358.216555 109.684817 
L 358.563662 110.249186 
L 358.91077 110.803182 
L 359.257877 111.346851 
L 359.604985 111.880244 
L 359.952092 112.403419 
L 360.299199 112.916436 
L 360.646307 113.419361 
L 360.993414 113.912263 
L 361.340522 114.395218 
L 361.687629 114.868304 
L 362.034737 115.331601 
L 362.381844 115.785197 
L 362.728951 116.22918 
L 363.076059 116.663643 
L 363.423166 117.088681 
L 363.770274 117.504392 
L 364.117381 117.910879 
L 364.464489 118.308246 
L 364.811596 118.696598 
L 365.158704 119.076045 
L 365.505811 119.446698 
L 365.852918 119.80867 
L 366.200026 120.162076 
L 366.547133 120.507032 
L 366.894241 120.843657 
L 367.241348 121.17207 
L 367.588456 121.492393 
L 367.935563 121.804747 
L 368.28267 122.109256 
L 368.629778 122.406044 
L 368.976885 122.695234 
L 369.323993 122.976954 
L 369.6711 123.251328 
L 370.018208 123.518484 
L 370.365315 123.778547 
L 370.712423 124.031644 
L 371.05953 124.277902 
L 371.406637 124.517448 
L 371.753745 124.750409 
L 372.100852 124.976911 
L 372.44796 125.19708 
L 372.795067 125.411041 
L 373.142175 125.61892 
L 373.489282 125.820841 
L 373.836389 126.016928 
L 374.183497 126.207305 
L 374.530604 126.392093 
L 374.877712 126.571414 
L 375.224819 126.745387 
L 375.571927 126.914134 
L 375.919034 127.077771 
L 376.266142 127.236417 
L 376.613249 127.390186 
L 376.960356 127.539194 
L 377.307464 127.683554 
L 377.654571 127.823379 
L 378.001679 127.958778 
L 378.348786 128.089862 
L 378.695894 128.216737 
L 379.043001 128.339511 
L 379.390108 128.458289 
L 379.737216 128.573173 
L 380.084323 128.684265 
L 380.431431 128.791666 
L 380.778538 128.895473 
L 381.125646 128.995785 
L 381.472753 129.092696 
L 381.819861 129.186299 
L 382.166968 129.276688 
L 382.514075 129.363951 
L 382.861183 129.448178 
L 383.20829 129.529456 
L 383.555398 129.60787 
L 383.902505 129.683502 
L 384.249613 129.756436 
L 384.59672 129.826751 
L 384.943827 129.894527 
L 385.290935 129.959838 
L 385.638042 130.022762 
L 385.98515 130.08337 
L 386.332257 130.141736 
L 386.679365 130.197929 
L 387.026472 130.252018 
L 387.37358 130.30407 
L 387.720687 130.354149 
L 388.067794 130.402321 
L 388.414902 130.448646 
L 388.762009 130.493186 
L 389.109117 130.536 
L 389.456224 130.577146 
L 389.803332 130.616678 
L 390.150439 130.654653 
L 390.497546 130.691123 
L 390.844654 130.72614 
L 391.191761 130.759754 
L 391.538869 130.792015 
L 391.885976 130.822969 
L 392.233084 130.852663 
L 392.580191 130.881142 
L 392.927299 130.908449 
L 393.274406 130.934627 
L 393.621513 130.959717 
L 393.968621 130.983759 
L 394.315728 131.006791 
L 394.662836 131.028851 
L 395.009943 131.049974 
L 395.357051 131.070198 
L 395.704158 131.089554 
L 396.051265 131.108077 
L 396.398373 131.125798 
L 396.74548 131.142749 
L 397.092588 131.158958 
L 397.439695 131.174456 
L 397.786803 131.18927 
L 398.13391 131.203427 
L 398.481018 131.216953 
L 398.828125 131.229873 
L 399.175232 131.242213 
L 399.52234 131.253994 
L 399.869447 131.265241 
L 400.216555 131.275975 
L 400.563662 131.286217 
L 400.91077 131.295987 
L 401.257877 131.305306 
L 401.604985 131.314192 
L 401.952092 131.322663 
L 402.299199 131.330737 
L 402.646307 131.33843 
L 402.993414 131.34576 
L 403.340522 131.352742 
L 403.687629 131.35939 
L 404.034737 131.36572 
L 404.381844 131.371745 
L 404.728951 131.377479 
L 405.076059 131.382934 
L 405.423166 131.388123 
L 405.770274 131.393059 
L 406.117381 131.397751 
L 406.464489 131.402212 
L 406.811596 131.406451 
L 407.158704 131.41048 
L 407.505811 131.414307 
L 407.852918 131.417941 
L 408.200026 131.421393 
L 408.547133 131.424669 
L 408.894241 131.427779 
L 409.241348 131.43073 
L 409.588456 131.43353 
L 409.935563 131.436186 
L 410.28267 131.438705 
L 410.629778 131.441093 
L 410.976885 131.443356 
L 411.323993 131.445502 
L 411.6711 131.447534 
L 412.018208 131.44946 
L 412.365315 131.451283 
L 412.712423 131.45301 
L 413.05953 131.454645 
L 413.406637 131.456192 
L 413.753745 131.457656 
L 414.100852 131.459041 
L 414.44796 131.460351 
L 414.795067 131.46159 
L 415.142175 131.462761 
L 415.489282 131.463868 
L 415.836389 131.464914 
L 416.183497 131.465903 
L 416.530604 131.466837 
L 416.877712 131.467719 
L 417.224819 131.468551 
L 417.571927 131.469338 
L 417.919034 131.470079 
L 418.266142 131.47078 
L 418.613249 131.47144 
L 418.960356 131.472063 
L 419.307464 131.47265 
L 419.654571 131.473204 
L 420.001679 131.473726 
L 420.348786 131.474218 
L 420.695894 131.474682 
L 421.043001 131.475118 
L 421.390108 131.475529 
L 421.737216 131.475917 
L 422.084323 131.476281 
L 422.431431 131.476624 
L 422.778538 131.476947 
L 423.125646 131.47725 
L 423.472753 131.477536 
L 423.819861 131.477805 
L 424.166968 131.478057 
L 424.514075 131.478294 
L 424.861183 131.478517 
L 425.20829 131.478727 
L 425.555398 131.478924 
L 425.902505 131.479109 
L 426.249613 131.479282 
L 426.59672 131.479445 
L 426.943827 131.479598 
L 427.290935 131.479742 
L 427.638042 131.479876 
L 427.98515 131.480003 
L 428.332257 131.480121 
L 428.679365 131.480232 
L 429.026472 131.480336 
L 429.37358 131.480434 
L 429.37358 131.481818 
L 429.37358 131.481818 
L 429.026472 131.481818 
L 428.679365 131.481818 
L 428.332257 131.481818 
L 427.98515 131.481818 
L 427.638042 131.481818 
L 427.290935 131.481818 
L 426.943827 131.481818 
L 426.59672 131.481818 
L 426.249613 131.481818 
L 425.902505 131.481818 
L 425.555398 131.481818 
L 425.20829 131.481818 
L 424.861183 131.481818 
L 424.514075 131.481818 
L 424.166968 131.481818 
L 423.819861 131.481818 
L 423.472753 131.481818 
L 423.125646 131.481818 
L 422.778538 131.481818 
L 422.431431 131.481818 
L 422.084323 131.481818 
L 421.737216 131.481818 
L 421.390108 131.481818 
L 421.043001 131.481818 
L 420.695894 131.481818 
L 420.348786 131.481818 
L 420.001679 131.481818 
L 419.654571 131.481818 
L 419.307464 131.481818 
L 418.960356 131.481818 
L 418.613249 131.481818 
L 418.266142 131.481818 
L 417.919034 131.481818 
L 417.571927 131.481818 
L 417.224819 131.481818 
L 416.877712 131.481818 
L 416.530604 131.481818 
L 416.183497 131.481818 
L 415.836389 131.481818 
L 415.489282 131.481818 
L 415.142175 131.481818 
L 414.795067 131.481818 
L 414.44796 131.481818 
L 414.100852 131.481818 
L 413.753745 131.481818 
L 413.406637 131.481818 
L 413.05953 131.481818 
L 412.712423 131.481818 
L 412.365315 131.481818 
L 412.018208 131.481818 
L 411.6711 131.481818 
L 411.323993 131.481818 
L 410.976885 131.481818 
L 410.629778 131.481818 
L 410.28267 131.481818 
L 409.935563 131.481818 
L 409.588456 131.481818 
L 409.241348 131.481818 
L 408.894241 131.481818 
L 408.547133 131.481818 
L 408.200026 131.481818 
L 407.852918 131.481818 
L 407.505811 131.481818 
L 407.158704 131.481818 
L 406.811596 131.481818 
L 406.464489 131.481818 
L 406.117381 131.481818 
L 405.770274 131.481818 
L 405.423166 131.481818 
L 405.076059 131.481818 
L 404.728951 131.481818 
L 404.381844 131.481818 
L 404.034737 131.481818 
L 403.687629 131.481818 
L 403.340522 131.481818 
L 402.993414 131.481818 
L 402.646307 131.481818 
L 402.299199 131.481818 
L 401.952092 131.481818 
L 401.604985 131.481818 
L 401.257877 131.481818 
L 400.91077 131.481818 
L 400.563662 131.481818 
L 400.216555 131.481818 
L 399.869447 131.481818 
L 399.52234 131.481818 
L 399.175232 131.481818 
L 398.828125 131.481818 
L 398.481018 131.481818 
L 398.13391 131.481818 
L 397.786803 131.481818 
L 397.439695 131.481818 
L 397.092588 131.481818 
L 396.74548 131.481818 
L 396.398373 131.481818 
L 396.051265 131.481818 
L 395.704158 131.481818 
L 395.357051 131.481818 
L 395.009943 131.481818 
L 394.662836 131.481818 
L 394.315728 131.481818 
L 393.968621 131.481818 
L 393.621513 131.481818 
L 393.274406 131.481818 
L 392.927299 131.481818 
L 392.580191 131.481818 
L 392.233084 131.481818 
L 391.885976 131.481818 
L 391.538869 131.481818 
L 391.191761 131.481818 
L 390.844654 131.481818 
L 390.497546 131.481818 
L 390.150439 131.481818 
L 389.803332 131.481818 
L 389.456224 131.481818 
L 389.109117 131.481818 
L 388.762009 131.481818 
L 388.414902 131.481818 
L 388.067794 131.481818 
L 387.720687 131.481818 
L 387.37358 131.481818 
L 387.026472 131.481818 
L 386.679365 131.481818 
L 386.332257 131.481818 
L 385.98515 131.481818 
L 385.638042 131.481818 
L 385.290935 131.481818 
L 384.943827 131.481818 
L 384.59672 131.481818 
L 384.249613 131.481818 
L 383.902505 131.481818 
L 383.555398 131.481818 
L 383.20829 131.481818 
L 382.861183 131.481818 
L 382.514075 131.481818 
L 382.166968 131.481818 
L 381.819861 131.481818 
L 381.472753 131.481818 
L 381.125646 131.481818 
L 380.778538 131.481818 
L 380.431431 131.481818 
L 380.084323 131.481818 
L 379.737216 131.481818 
L 379.390108 131.481818 
L 379.043001 131.481818 
L 378.695894 131.481818 
L 378.348786 131.481818 
L 378.001679 131.481818 
L 377.654571 131.481818 
L 377.307464 131.481818 
L 376.960356 131.481818 
L 376.613249 131.481818 
L 376.266142 131.481818 
L 375.919034 131.481818 
L 375.571927 131.481818 
L 375.224819 131.481818 
L 374.877712 131.481818 
L 374.530604 131.481818 
L 374.183497 131.481818 
L 373.836389 131.481818 
L 373.489282 131.481818 
L 373.142175 131.481818 
L 372.795067 131.481818 
L 372.44796 131.481818 
L 372.100852 131.481818 
L 371.753745 131.481818 
L 371.406637 131.481818 
L 371.05953 131.481818 
L 370.712423 131.481818 
L 370.365315 131.481818 
L 370.018208 131.481818 
L 369.6711 131.481818 
L 369.323993 131.481818 
L 368.976885 131.481818 
L 368.629778 131.481818 
L 368.28267 131.481818 
L 367.935563 131.481818 
L 367.588456 131.481818 
L 367.241348 131.481818 
L 366.894241 131.481818 
L 366.547133 131.481818 
L 366.200026 131.481818 
L 365.852918 131.481818 
L 365.505811 131.481818 
L 365.158704 131.481818 
L 364.811596 131.481818 
L 364.464489 131.481818 
L 364.117381 131.481818 
L 363.770274 131.481818 
L 363.423166 131.481818 
L 363.076059 131.481818 
L 362.728951 131.481818 
L 362.381844 131.481818 
L 362.034737 131.481818 
L 361.687629 131.481818 
L 361.340522 131.481818 
L 360.993414 131.481818 
L 360.646307 131.481818 
L 360.299199 131.481818 
L 359.952092 131.481818 
L 359.604985 131.481818 
L 359.257877 131.481818 
L 358.91077 131.481818 
L 358.563662 131.481818 
L 358.216555 131.481818 
L 357.869447 131.481818 
L 357.52234 131.481818 
L 357.175232 131.481818 
L 356.828125 131.481818 
L 356.481018 131.481818 
L 356.13391 131.481818 
L 355.786803 131.481818 
L 355.439695 131.481818 
L 355.092588 131.481818 
L 354.74548 131.481818 
L 354.398373 131.481818 
L 354.051265 131.481818 
L 353.704158 131.481818 
L 353.357051 131.481818 
L 353.009943 131.481818 
L 352.662836 131.481818 
L 352.315728 131.481818 
L 351.968621 131.481818 
L 351.621513 131.481818 
L 351.274406 131.481818 
L 350.927299 131.481818 
L 350.580191 131.481818 
L 350.233084 131.481818 
L 349.885976 131.481818 
L 349.538869 131.481818 
L 349.191761 131.481818 
L 348.844654 131.481818 
L 348.497546 131.481818 
L 348.150439 131.481818 
L 347.803332 131.481818 
L 347.456224 131.481818 
L 347.109117 131.481818 
L 346.762009 131.481818 
L 346.414902 131.481818 
L 346.067794 131.481818 
L 345.720687 131.481818 
L 345.37358 131.481818 
L 345.026472 131.481818 
L 344.679365 131.481818 
L 344.332257 131.481818 
L 343.98515 131.481818 
L 343.638042 131.481818 
L 343.290935 131.481818 
L 342.943827 131.481818 
L 342.59672 131.481818 
L 342.249613 131.481818 
L 341.902505 131.481818 
L 341.555398 131.481818 
L 341.20829 131.481818 
L 340.861183 131.481818 
L 340.514075 131.481818 
L 340.166968 131.481818 
L 339.819861 131.481818 
L 339.472753 131.481818 
L 339.125646 131.481818 
L 338.778538 131.481818 
L 338.431431 131.481818 
L 338.084323 131.481818 
L 337.737216 131.481818 
L 337.390108 131.481818 
L 337.043001 131.481818 
L 336.695894 131.481818 
L 336.348786 131.481818 
L 336.001679 131.481818 
L 335.654571 131.481818 
L 335.307464 131.481818 
L 334.960356 131.481818 
L 334.613249 131.481818 
L 334.266142 131.481818 
L 333.919034 131.481818 
L 333.571927 131.481818 
L 333.224819 131.481818 
L 332.877712 131.481818 
L 332.530604 131.481818 
L 332.183497 131.481818 
L 331.836389 131.481818 
L 331.489282 131.481818 
L 331.142175 131.481818 
L 330.795067 131.481818 
L 330.44796 131.481818 
L 330.100852 131.481818 
L 329.753745 131.481818 
L 329.406637 131.481818 
L 329.05953 131.481818 
L 328.712423 131.481818 
L 328.365315 131.481818 
L 328.018208 131.481818 
L 327.6711 131.481818 
L 327.323993 131.481818 
L 326.976885 131.481818 
L 326.629778 131.481818 
L 326.28267 131.481818 
L 325.935563 131.481818 
L 325.588456 131.481818 
L 325.241348 131.481818 
L 324.894241 131.481818 
L 324.547133 131.481818 
L 324.200026 131.481818 
L 323.852918 131.481818 
L 323.505811 131.481818 
L 323.158704 131.481818 
L 322.811596 131.481818 
L 322.464489 131.481818 
L 322.117381 131.481818 
L 321.770274 131.481818 
L 321.423166 131.481818 
L 321.076059 131.481818 
L 320.728951 131.481818 
L 320.381844 131.481818 
L 320.034737 131.481818 
L 319.687629 131.481818 
L 319.340522 131.481818 
L 318.993414 131.481818 
L 318.646307 131.481818 
L 318.299199 131.481818 
L 317.952092 131.481818 
L 317.604985 131.481818 
L 317.257877 131.481818 
L 316.91077 131.481818 
L 316.563662 131.481818 
L 316.216555 131.481818 
L 315.869447 131.481818 
L 315.52234 131.481818 
L 315.175232 131.481818 
L 314.828125 131.481818 
L 314.481018 131.481818 
L 314.13391 131.481818 
L 313.786803 131.481818 
L 313.439695 131.481818 
L 313.092588 131.481818 
L 312.74548 131.481818 
L 312.398373 131.481818 
L 312.051265 131.481818 
L 311.704158 131.481818 
L 311.357051 131.481818 
L 311.009943 131.481818 
L 310.662836 131.481818 
L 310.315728 131.481818 
L 309.968621 131.481818 
L 309.621513 131.481818 
L 309.274406 131.481818 
L 308.927299 131.481818 
L 308.580191 131.481818 
L 308.233084 131.481818 
L 307.885976 131.481818 
L 307.538869 131.481818 
L 307.191761 131.481818 
L 306.844654 131.481818 
L 306.497546 131.481818 
L 306.150439 131.481818 
L 305.803332 131.481818 
L 305.456224 131.481818 
L 305.109117 131.481818 
L 304.762009 131.481818 
L 304.414902 131.481818 
L 304.067794 131.481818 
L 303.720687 131.481818 
L 303.37358 131.481818 
L 303.026472 131.481818 
L 302.679365 131.481818 
L 302.332257 131.481818 
L 301.98515 131.481818 
L 301.638042 131.481818 
L 301.290935 131.481818 
L 300.943827 131.481818 
L 300.59672 131.481818 
L 300.249613 131.481818 
L 299.902505 131.481818 
L 299.555398 131.481818 
L 299.20829 131.481818 
L 298.861183 131.481818 
L 298.514075 131.481818 
L 298.166968 131.481818 
L 297.819861 131.481818 
L 297.472753 131.481818 
L 297.125646 131.481818 
L 296.778538 131.481818 
L 296.431431 131.481818 
L 296.084323 131.481818 
L 295.737216 131.481818 
L 295.390108 131.481818 
L 295.043001 131.481818 
L 294.695894 131.481818 
L 294.348786 131.481818 
L 294.001679 131.481818 
L 293.654571 131.481818 
L 293.307464 131.481818 
L 292.960356 131.481818 
L 292.613249 131.481818 
L 292.266142 131.481818 
L 291.919034 131.481818 
L 291.571927 131.481818 
L 291.224819 131.481818 
L 290.877712 131.481818 
L 290.530604 131.481818 
L 290.183497 131.481818 
L 289.836389 131.481818 
L 289.489282 131.481818 
L 289.142175 131.481818 
L 288.795067 131.481818 
L 288.44796 131.481818 
L 288.100852 131.481818 
L 287.753745 131.481818 
L 287.406637 131.481818 
L 287.05953 131.481818 
L 286.712423 131.481818 
L 286.365315 131.481818 
L 286.018208 131.481818 
L 285.6711 131.481818 
L 285.323993 131.481818 
L 284.976885 131.481818 
L 284.629778 131.481818 
L 284.28267 131.481818 
L 283.935563 131.481818 
L 283.588456 131.481818 
L 283.241348 131.481818 
z
" clip-path="url(#p36cbe81d5a)" style="fill: #1f77b4"/>
   </g>
   <g id="matplotlib.axis_1">
    <g id="xtick_1">
     <g id="line2d_1">
      <path d="M 74.28267 137.4 
L 74.28267 7.2 
" clip-path="url(#p36cbe81d5a)" style="fill: none; stroke: #b0b0b0; stroke-width: 0.8; stroke-linecap: square"/>
     </g>
     <g id="line2d_2">
      <defs>
       <path id="mf4e81cb77b" d="M 0 0 
L 0 3.5 
" style="stroke: #000000; stroke-width: 0.8"/>
      </defs>
      <g>
       <use xlink:href="#mf4e81cb77b" x="74.28267" y="137.4" style="stroke: #000000; stroke-width: 0.8"/>
      </g>
     </g>
     <g id="text_1">
      <!-- 0 -->
      <g transform="translate(71.10142 151.998437) scale(0.1 -0.1)">
       <defs>
        <path id="DejaVuSans-30" d="M 2034 4250 
Q 1547 4250 1301 3770 
Q 1056 3291 1056 2328 
Q 1056 1369 1301 889 
Q 1547 409 2034 409 
Q 2525 409 2770 889 
Q 3016 1369 3016 2328 
Q 3016 3291 2770 3770 
Q 2525 4250 2034 4250 
z
M 2034 4750 
Q 2819 4750 3233 4129 
Q 3647 3509 3647 2328 
Q 3647 1150 3233 529 
Q 2819 -91 2034 -91 
Q 1250 -91 836 529 
Q 422 1150 422 2328 
Q 422 3509 836 4129 
Q 1250 4750 2034 4750 
z
" transform="scale(0.015625)"/>
       </defs>
       <use xlink:href="#DejaVuSans-30"/>
      </g>
     </g>
    </g>
    <g id="xtick_2">
     <g id="line2d_3">
      <path d="M 118.669034 137.4 
L 118.669034 7.2 
" clip-path="url(#p36cbe81d5a)" style="fill: none; stroke: #b0b0b0; stroke-width: 0.8; stroke-linecap: square"/>
     </g>
     <g id="line2d_4">
      <g>
       <use xlink:href="#mf4e81cb77b" x="118.669034" y="137.4" style="stroke: #000000; stroke-width: 0.8"/>
      </g>
     </g>
     <g id="text_2">
      <!-- 50 -->
      <g transform="translate(112.306534 151.998437) scale(0.1 -0.1)">
       <defs>
        <path id="DejaVuSans-35" d="M 691 4666 
L 3169 4666 
L 3169 4134 
L 1269 4134 
L 1269 2991 
Q 1406 3038 1543 3061 
Q 1681 3084 1819 3084 
Q 2600 3084 3056 2656 
Q 3513 2228 3513 1497 
Q 3513 744 3044 326 
Q 2575 -91 1722 -91 
Q 1428 -91 1123 -41 
Q 819 9 494 109 
L 494 744 
Q 775 591 1075 516 
Q 1375 441 1709 441 
Q 2250 441 2565 725 
Q 2881 1009 2881 1497 
Q 2881 1984 2565 2268 
Q 2250 2553 1709 2553 
Q 1456 2553 1204 2497 
Q 953 2441 691 2322 
L 691 4666 
z
" transform="scale(0.015625)"/>
       </defs>
       <use xlink:href="#DejaVuSans-35"/>
       <use xlink:href="#DejaVuSans-30" x="63.623047"/>
      </g>
     </g>
    </g>
    <g id="xtick_3">
     <g id="line2d_5">
      <path d="M 163.055398 137.4 
L 163.055398 7.2 
" clip-path="url(#p36cbe81d5a)" style="fill: none; stroke: #b0b0b0; stroke-width: 0.8; stroke-linecap: square"/>
     </g>
     <g id="line2d_6">
      <g>
       <use xlink:href="#mf4e81cb77b" x="163.055398" y="137.4" style="stroke: #000000; stroke-width: 0.8"/>
      </g>
     </g>
     <g id="text_3">
      <!-- 100 -->
      <g transform="translate(153.511648 151.998437) scale(0.1 -0.1)">
       <defs>
        <path id="DejaVuSans-31" d="M 794 531 
L 1825 531 
L 1825 4091 
L 703 3866 
L 703 4441 
L 1819 4666 
L 2450 4666 
L 2450 531 
L 3481 531 
L 3481 0 
L 794 0 
L 794 531 
z
" transform="scale(0.015625)"/>
       </defs>
       <use xlink:href="#DejaVuSans-31"/>
       <use xlink:href="#DejaVuSans-30" x="63.623047"/>
       <use xlink:href="#DejaVuSans-30" x="127.246094"/>
      </g>
     </g>
    </g>
    <g id="xtick_4">
     <g id="line2d_7">
      <path d="M 207.441761 137.4 
L 207.441761 7.2 
" clip-path="url(#p36cbe81d5a)" style="fill: none; stroke: #b0b0b0; stroke-width: 0.8; stroke-linecap: square"/>
     </g>
     <g id="line2d_8">
      <g>
       <use xlink:href="#mf4e81cb77b" x="207.441761" y="137.4" style="stroke: #000000; stroke-width: 0.8"/>
      </g>
     </g>
     <g id="text_4">
      <!-- 150 -->
      <g transform="translate(197.898011 151.998437) scale(0.1 -0.1)">
       <use xlink:href="#DejaVuSans-31"/>
       <use xlink:href="#DejaVuSans-35" x="63.623047"/>
       <use xlink:href="#DejaVuSans-30" x="127.246094"/>
      </g>
     </g>
    </g>
    <g id="xtick_5">
     <g id="line2d_9">
      <path d="M 251.828125 137.4 
L 251.828125 7.2 
" clip-path="url(#p36cbe81d5a)" style="fill: none; stroke: #b0b0b0; stroke-width: 0.8; stroke-linecap: square"/>
     </g>
     <g id="line2d_10">
      <g>
       <use xlink:href="#mf4e81cb77b" x="251.828125" y="137.4" style="stroke: #000000; stroke-width: 0.8"/>
      </g>
     </g>
     <g id="text_5">
      <!-- 200 -->
      <g transform="translate(242.284375 151.998437) scale(0.1 -0.1)">
       <defs>
        <path id="DejaVuSans-32" d="M 1228 531 
L 3431 531 
L 3431 0 
L 469 0 
L 469 531 
Q 828 903 1448 1529 
Q 2069 2156 2228 2338 
Q 2531 2678 2651 2914 
Q 2772 3150 2772 3378 
Q 2772 3750 2511 3984 
Q 2250 4219 1831 4219 
Q 1534 4219 1204 4116 
Q 875 4013 500 3803 
L 500 4441 
Q 881 4594 1212 4672 
Q 1544 4750 1819 4750 
Q 2544 4750 2975 4387 
Q 3406 4025 3406 3419 
Q 3406 3131 3298 2873 
Q 3191 2616 2906 2266 
Q 2828 2175 2409 1742 
Q 1991 1309 1228 531 
z
" transform="scale(0.015625)"/>
       </defs>
       <use xlink:href="#DejaVuSans-32"/>
       <use xlink:href="#DejaVuSans-30" x="63.623047"/>
       <use xlink:href="#DejaVuSans-30" x="127.246094"/>
      </g>
     </g>
    </g>
    <g id="xtick_6">
     <g id="line2d_11">
      <path d="M 296.214489 137.4 
L 296.214489 7.2 
" clip-path="url(#p36cbe81d5a)" style="fill: none; stroke: #b0b0b0; stroke-width: 0.8; stroke-linecap: square"/>
     </g>
     <g id="line2d_12">
      <g>
       <use xlink:href="#mf4e81cb77b" x="296.214489" y="137.4" style="stroke: #000000; stroke-width: 0.8"/>
      </g>
     </g>
     <g id="text_6">
      <!-- 250 -->
      <g transform="translate(286.670739 151.998437) scale(0.1 -0.1)">
       <use xlink:href="#DejaVuSans-32"/>
       <use xlink:href="#DejaVuSans-35" x="63.623047"/>
       <use xlink:href="#DejaVuSans-30" x="127.246094"/>
      </g>
     </g>
    </g>
    <g id="xtick_7">
     <g id="line2d_13">
      <path d="M 340.600852 137.4 
L 340.600852 7.2 
" clip-path="url(#p36cbe81d5a)" style="fill: none; stroke: #b0b0b0; stroke-width: 0.8; stroke-linecap: square"/>
     </g>
     <g id="line2d_14">
      <g>
       <use xlink:href="#mf4e81cb77b" x="340.600852" y="137.4" style="stroke: #000000; stroke-width: 0.8"/>
      </g>
     </g>
     <g id="text_7">
      <!-- 300 -->
      <g transform="translate(331.057102 151.998437) scale(0.1 -0.1)">
       <defs>
        <path id="DejaVuSans-33" d="M 2597 2516 
Q 3050 2419 3304 2112 
Q 3559 1806 3559 1356 
Q 3559 666 3084 287 
Q 2609 -91 1734 -91 
Q 1441 -91 1130 -33 
Q 819 25 488 141 
L 488 750 
Q 750 597 1062 519 
Q 1375 441 1716 441 
Q 2309 441 2620 675 
Q 2931 909 2931 1356 
Q 2931 1769 2642 2001 
Q 2353 2234 1838 2234 
L 1294 2234 
L 1294 2753 
L 1863 2753 
Q 2328 2753 2575 2939 
Q 2822 3125 2822 3475 
Q 2822 3834 2567 4026 
Q 2313 4219 1838 4219 
Q 1578 4219 1281 4162 
Q 984 4106 628 3988 
L 628 4550 
Q 988 4650 1302 4700 
Q 1616 4750 1894 4750 
Q 2613 4750 3031 4423 
Q 3450 4097 3450 3541 
Q 3450 3153 3228 2886 
Q 3006 2619 2597 2516 
z
" transform="scale(0.015625)"/>
       </defs>
       <use xlink:href="#DejaVuSans-33"/>
       <use xlink:href="#DejaVuSans-30" x="63.623047"/>
       <use xlink:href="#DejaVuSans-30" x="127.246094"/>
      </g>
     </g>
    </g>
    <g id="xtick_8">
     <g id="line2d_15">
      <path d="M 384.987216 137.4 
L 384.987216 7.2 
" clip-path="url(#p36cbe81d5a)" style="fill: none; stroke: #b0b0b0; stroke-width: 0.8; stroke-linecap: square"/>
     </g>
     <g id="line2d_16">
      <g>
       <use xlink:href="#mf4e81cb77b" x="384.987216" y="137.4" style="stroke: #000000; stroke-width: 0.8"/>
      </g>
     </g>
     <g id="text_8">
      <!-- 350 -->
      <g transform="translate(375.443466 151.998437) scale(0.1 -0.1)">
       <use xlink:href="#DejaVuSans-33"/>
       <use xlink:href="#DejaVuSans-35" x="63.623047"/>
       <use xlink:href="#DejaVuSans-30" x="127.246094"/>
      </g>
     </g>
    </g>
    <g id="xtick_9">
     <g id="line2d_17">
      <path d="M 429.37358 137.4 
L 429.37358 7.2 
" clip-path="url(#p36cbe81d5a)" style="fill: none; stroke: #b0b0b0; stroke-width: 0.8; stroke-linecap: square"/>
     </g>
     <g id="line2d_18">
      <g>
       <use xlink:href="#mf4e81cb77b" x="429.37358" y="137.4" style="stroke: #000000; stroke-width: 0.8"/>
      </g>
     </g>
     <g id="text_9">
      <!-- 400 -->
      <g transform="translate(419.82983 151.998437) scale(0.1 -0.1)">
       <defs>
        <path id="DejaVuSans-34" d="M 2419 4116 
L 825 1625 
L 2419 1625 
L 2419 4116 
z
M 2253 4666 
L 3047 4666 
L 3047 1625 
L 3713 1625 
L 3713 1100 
L 3047 1100 
L 3047 0 
L 2419 0 
L 2419 1100 
L 313 1100 
L 313 1709 
L 2253 4666 
z
" transform="scale(0.015625)"/>
       </defs>
       <use xlink:href="#DejaVuSans-34"/>
       <use xlink:href="#DejaVuSans-30" x="63.623047"/>
       <use xlink:href="#DejaVuSans-30" x="127.246094"/>
      </g>
     </g>
    </g>
    <g id="text_10">
     <!-- $x$ -->
     <g transform="translate(248.828125 165.676562) scale(0.1 -0.1)">
      <defs>
       <path id="DejaVuSans-Oblique-78" d="M 3841 3500 
L 2234 1784 
L 3219 0 
L 2559 0 
L 1819 1388 
L 531 0 
L -166 0 
L 1556 1844 
L 641 3500 
L 1300 3500 
L 1972 2234 
L 3144 3500 
L 3841 3500 
z
" transform="scale(0.015625)"/>
      </defs>
      <use xlink:href="#DejaVuSans-Oblique-78" transform="translate(0 0.3125)"/>
     </g>
    </g>
   </g>
   <g id="matplotlib.axis_2">
    <g id="ytick_1">
     <g id="line2d_19">
      <path d="M 56.528125 131.481818 
L 447.128125 131.481818 
" clip-path="url(#p36cbe81d5a)" style="fill: none; stroke: #b0b0b0; stroke-width: 0.8; stroke-linecap: square"/>
     </g>
     <g id="line2d_20">
      <defs>
       <path id="m91c71a7d72" d="M 0 0 
L -3.5 0 
" style="stroke: #000000; stroke-width: 0.8"/>
      </defs>
      <g>
       <use xlink:href="#m91c71a7d72" x="56.528125" y="131.481818" style="stroke: #000000; stroke-width: 0.8"/>
      </g>
     </g>
     <g id="text_11">
      <!-- 0.000 -->
      <g transform="translate(20.9 135.281037) scale(0.1 -0.1)">
       <defs>
        <path id="DejaVuSans-2e" d="M 684 794 
L 1344 794 
L 1344 0 
L 684 0 
L 684 794 
z
" transform="scale(0.015625)"/>
       </defs>
       <use xlink:href="#DejaVuSans-30"/>
       <use xlink:href="#DejaVuSans-2e" x="63.623047"/>
       <use xlink:href="#DejaVuSans-30" x="95.410156"/>
       <use xlink:href="#DejaVuSans-30" x="159.033203"/>
       <use xlink:href="#DejaVuSans-30" x="222.65625"/>
      </g>
     </g>
    </g>
    <g id="ytick_2">
     <g id="line2d_21">
      <path d="M 56.528125 92.027273 
L 447.128125 92.027273 
" clip-path="url(#p36cbe81d5a)" style="fill: none; stroke: #b0b0b0; stroke-width: 0.8; stroke-linecap: square"/>
     </g>
     <g id="line2d_22">
      <g>
       <use xlink:href="#m91c71a7d72" x="56.528125" y="92.027273" style="stroke: #000000; stroke-width: 0.8"/>
      </g>
     </g>
     <g id="text_12">
      <!-- 0.005 -->
      <g transform="translate(20.9 95.826491) scale(0.1 -0.1)">
       <use xlink:href="#DejaVuSans-30"/>
       <use xlink:href="#DejaVuSans-2e" x="63.623047"/>
       <use xlink:href="#DejaVuSans-30" x="95.410156"/>
       <use xlink:href="#DejaVuSans-30" x="159.033203"/>
       <use xlink:href="#DejaVuSans-35" x="222.65625"/>
      </g>
     </g>
    </g>
    <g id="ytick_3">
     <g id="line2d_23">
      <path d="M 56.528125 52.572727 
L 447.128125 52.572727 
" clip-path="url(#p36cbe81d5a)" style="fill: none; stroke: #b0b0b0; stroke-width: 0.8; stroke-linecap: square"/>
     </g>
     <g id="line2d_24">
      <g>
       <use xlink:href="#m91c71a7d72" x="56.528125" y="52.572727" style="stroke: #000000; stroke-width: 0.8"/>
      </g>
     </g>
     <g id="text_13">
      <!-- 0.010 -->
      <g transform="translate(20.9 56.371946) scale(0.1 -0.1)">
       <use xlink:href="#DejaVuSans-30"/>
       <use xlink:href="#DejaVuSans-2e" x="63.623047"/>
       <use xlink:href="#DejaVuSans-30" x="95.410156"/>
       <use xlink:href="#DejaVuSans-31" x="159.033203"/>
       <use xlink:href="#DejaVuSans-30" x="222.65625"/>
      </g>
     </g>
    </g>
    <g id="ytick_4">
     <g id="line2d_25">
      <path d="M 56.528125 13.118182 
L 447.128125 13.118182 
" clip-path="url(#p36cbe81d5a)" style="fill: none; stroke: #b0b0b0; stroke-width: 0.8; stroke-linecap: square"/>
     </g>
     <g id="line2d_26">
      <g>
       <use xlink:href="#m91c71a7d72" x="56.528125" y="13.118182" style="stroke: #000000; stroke-width: 0.8"/>
      </g>
     </g>
     <g id="text_14">
      <!-- 0.015 -->
      <g transform="translate(20.9 16.917401) scale(0.1 -0.1)">
       <use xlink:href="#DejaVuSans-30"/>
       <use xlink:href="#DejaVuSans-2e" x="63.623047"/>
       <use xlink:href="#DejaVuSans-30" x="95.410156"/>
       <use xlink:href="#DejaVuSans-31" x="159.033203"/>
       <use xlink:href="#DejaVuSans-35" x="222.65625"/>
      </g>
     </g>
    </g>
    <g id="text_15">
     <!-- $p(R_{aH})$ -->
     <g transform="translate(14.8 87.8) rotate(-90) scale(0.1 -0.1)">
      <defs>
       <path id="DejaVuSans-Oblique-70" d="M 3175 2156 
Q 3175 2616 2975 2859 
Q 2775 3103 2400 3103 
Q 2144 3103 1911 2972 
Q 1678 2841 1497 2591 
Q 1319 2344 1212 1994 
Q 1106 1644 1106 1300 
Q 1106 863 1306 627 
Q 1506 391 1875 391 
Q 2147 391 2380 519 
Q 2613 647 2778 891 
Q 2956 1147 3065 1494 
Q 3175 1841 3175 2156 
z
M 1394 2969 
Q 1625 3272 1939 3428 
Q 2253 3584 2638 3584 
Q 3175 3584 3472 3232 
Q 3769 2881 3769 2247 
Q 3769 1728 3584 1258 
Q 3400 788 3053 416 
Q 2822 169 2531 39 
Q 2241 -91 1919 -91 
Q 1547 -91 1294 64 
Q 1041 219 916 525 
L 556 -1331 
L -19 -1331 
L 922 3500 
L 1497 3500 
L 1394 2969 
z
" transform="scale(0.015625)"/>
       <path id="DejaVuSans-28" d="M 1984 4856 
Q 1566 4138 1362 3434 
Q 1159 2731 1159 2009 
Q 1159 1288 1364 580 
Q 1569 -128 1984 -844 
L 1484 -844 
Q 1016 -109 783 600 
Q 550 1309 550 2009 
Q 550 2706 781 3412 
Q 1013 4119 1484 4856 
L 1984 4856 
z
" transform="scale(0.015625)"/>
       <path id="DejaVuSans-Oblique-52" d="M 1613 4147 
L 1294 2491 
L 2106 2491 
Q 2584 2491 2879 2755 
Q 3175 3019 3175 3444 
Q 3175 3784 2976 3965 
Q 2778 4147 2406 4147 
L 1613 4147 
z
M 2772 2241 
Q 2972 2194 3105 2009 
Q 3238 1825 3413 1275 
L 3809 0 
L 3144 0 
L 2778 1197 
Q 2638 1659 2453 1815 
Q 2269 1972 1888 1972 
L 1191 1972 
L 806 0 
L 172 0 
L 1081 4666 
L 2503 4666 
Q 3150 4666 3495 4373 
Q 3841 4081 3841 3531 
Q 3841 3044 3547 2687 
Q 3253 2331 2772 2241 
z
" transform="scale(0.015625)"/>
       <path id="DejaVuSans-Oblique-61" d="M 3438 1997 
L 3047 0 
L 2472 0 
L 2578 531 
Q 2325 219 2001 64 
Q 1678 -91 1281 -91 
Q 834 -91 548 182 
Q 263 456 263 884 
Q 263 1497 752 1853 
Q 1241 2209 2100 2209 
L 2900 2209 
L 2931 2363 
Q 2938 2388 2941 2417 
Q 2944 2447 2944 2509 
Q 2944 2788 2717 2942 
Q 2491 3097 2081 3097 
Q 1800 3097 1504 3025 
Q 1209 2953 897 2809 
L 997 3341 
Q 1322 3463 1633 3523 
Q 1944 3584 2234 3584 
Q 2853 3584 3176 3315 
Q 3500 3047 3500 2534 
Q 3500 2431 3484 2292 
Q 3469 2153 3438 1997 
z
M 2816 1759 
L 2241 1759 
Q 1534 1759 1195 1570 
Q 856 1381 856 984 
Q 856 709 1029 553 
Q 1203 397 1509 397 
Q 1978 397 2328 733 
Q 2678 1069 2791 1631 
L 2816 1759 
z
" transform="scale(0.015625)"/>
       <path id="DejaVuSans-Oblique-48" d="M 1081 4666 
L 1716 4666 
L 1344 2753 
L 3634 2753 
L 4006 4666 
L 4641 4666 
L 3731 0 
L 3097 0 
L 3531 2222 
L 1241 2222 
L 806 0 
L 172 0 
L 1081 4666 
z
" transform="scale(0.015625)"/>
       <path id="DejaVuSans-29" d="M 513 4856 
L 1013 4856 
Q 1481 4119 1714 3412 
Q 1947 2706 1947 2009 
Q 1947 1309 1714 600 
Q 1481 -109 1013 -844 
L 513 -844 
Q 928 -128 1133 580 
Q 1338 1288 1338 2009 
Q 1338 2731 1133 3434 
Q 928 4138 513 4856 
z
" transform="scale(0.015625)"/>
      </defs>
      <use xlink:href="#DejaVuSans-Oblique-70" transform="translate(0 0.125)"/>
      <use xlink:href="#DejaVuSans-28" transform="translate(63.476562 0.125)"/>
      <use xlink:href="#DejaVuSans-Oblique-52" transform="translate(102.490234 0.125)"/>
      <use xlink:href="#DejaVuSans-Oblique-61" transform="translate(171.972656 -16.28125) scale(0.7)"/>
      <use xlink:href="#DejaVuSans-Oblique-48" transform="translate(214.868164 -16.28125) scale(0.7)"/>
      <use xlink:href="#DejaVuSans-29" transform="translate(270.239258 0.125)"/>
     </g>
    </g>
   </g>
   <g id="line2d_27">
    <path d="M 74.28267 131.481818 
L 223.538869 131.372038 
L 231.52234 131.126664 
L 236.728951 130.761399 
L 240.894241 130.254668 
L 244.365315 129.611716 
L 247.489282 128.796941 
L 250.266142 127.830253 
L 252.695894 126.753948 
L 255.125646 125.421578 
L 257.20829 124.044118 
L 259.290935 122.420683 
L 261.37358 120.52406 
L 263.456224 118.327877 
L 265.538869 115.807624 
L 267.621513 112.941821 
L 269.704158 109.713283 
L 271.786803 106.110451 
L 274.216555 101.428412 
L 276.646307 96.238131 
L 279.423166 89.716919 
L 282.547133 81.714134 
L 286.018208 72.177591 
L 297.819861 39.147052 
L 300.249613 33.266955 
L 302.332257 28.754266 
L 304.067794 25.43519 
L 305.803332 22.568452 
L 307.191761 20.629139 
L 308.580191 19.024736 
L 309.968621 17.770672 
L 311.357051 16.879112 
L 312.398373 16.453707 
L 313.439695 16.239526 
L 314.481018 16.237755 
L 315.52234 16.448401 
L 316.563662 16.870303 
L 317.604985 17.501131 
L 318.993414 18.661077 
L 320.381844 20.174881 
L 321.770274 22.027948 
L 323.505811 24.794159 
L 325.241348 28.022018 
L 327.323993 32.43905 
L 329.753745 38.228318 
L 332.530604 45.495523 
L 336.348786 56.202304 
L 344.679365 79.806732 
L 347.803332 87.951913 
L 350.580191 94.625019 
L 353.009943 99.960274 
L 355.439695 104.792643 
L 357.869447 109.110034 
L 359.952092 112.403419 
L 362.034737 115.331601 
L 364.117381 117.910879 
L 366.200026 120.162076 
L 368.28267 122.109256 
L 370.365315 123.778547 
L 372.44796 125.19708 
L 374.877712 126.571414 
L 377.307464 127.683554 
L 380.084323 128.684265 
L 382.861183 129.448178 
L 385.98515 130.08337 
L 389.803332 130.616678 
L 394.315728 131.006791 
L 400.216555 131.275975 
L 408.894241 131.427779 
L 427.98515 131.480003 
L 429.37358 131.480434 
L 429.37358 131.480434 
" clip-path="url(#p36cbe81d5a)" style="fill: none; stroke: #1f77b4; stroke-width: 1.5; stroke-linecap: square"/>
   </g>
   <g id="line2d_28">
    <path d="M 282.899313 131.481818 
L 282.899313 13.118182 
" clip-path="url(#p36cbe81d5a)" style="fill: none; stroke: #ff7f0e; stroke-width: 1.5; stroke-linecap: square"/>
   </g>
   <g id="patch_3">
    <path d="M 56.528125 137.4 
L 56.528125 7.2 
" style="fill: none; stroke: #000000; stroke-width: 0.8; stroke-linejoin: miter; stroke-linecap: square"/>
   </g>
   <g id="patch_4">
    <path d="M 447.128125 137.4 
L 447.128125 7.2 
" style="fill: none; stroke: #000000; stroke-width: 0.8; stroke-linejoin: miter; stroke-linecap: square"/>
   </g>
   <g id="patch_5">
    <path d="M 56.528125 137.4 
L 447.128125 137.4 
" style="fill: none; stroke: #000000; stroke-width: 0.8; stroke-linejoin: miter; stroke-linecap: square"/>
   </g>
   <g id="patch_6">
    <path d="M 56.528125 7.2 
L 447.128125 7.2 
" style="fill: none; stroke: #000000; stroke-width: 0.8; stroke-linejoin: miter; stroke-linecap: square"/>
   </g>
  </g>
 </g>
 <defs>
  <clipPath id="p36cbe81d5a">
   <rect x="56.528125" y="7.2" width="390.6" height="130.2"/>
  </clipPath>
 </defs>
</svg>
