<?xml version="1.0" encoding="utf-8" standalone="no"?>
<!DOCTYPE svg PUBLIC "-//W3C//DTD SVG 1.1//EN"
  "http://www.w3.org/Graphics/SVG/1.1/DTD/svg11.dtd">
<svg xmlns:xlink="http://www.w3.org/1999/xlink" width="418.3625pt" height="193.9116pt" viewBox="0 0 418.3625 193.9116" xmlns="http://www.w3.org/2000/svg" version="1.1">
 <metadata>
  <rdf:RDF xmlns:dc="http://purl.org/dc/elements/1.1/" xmlns:cc="http://creativecommons.org/ns#" xmlns:rdf="http://www.w3.org/1999/02/22-rdf-syntax-ns#">
   <cc:Work>
    <dc:type rdf:resource="http://purl.org/dc/dcmitype/StillImage"/>
    <dc:date>2025-11-10T06:40:05.021543</dc:date>
    <dc:format>image/svg+xml</dc:format>
    <dc:creator>
     <cc:Agent>
      <dc:title>Matplotlib v3.10.3, https://matplotlib.org/</dc:title>
     </cc:Agent>
    </dc:creator>
   </cc:Work>
  </rdf:RDF>
 </metadata>
 <defs>
  <style type="text/css">*{stroke-linejoin: round; stroke-linecap: butt}</style>
 </defs>
 <g id="figure_1">
  <g id="patch_1">
   <path d="M 0 193.9116 
L 418.3625 193.9116 
L 418.3625 0 
L 0 0 
z
" style="fill: #ffffff"/>
  </g>
  <g id="axes_1">
   <g id="patch_2">
    <path d="M 20.5625 170.033475 
L 411.1625 170.033475 
L 411.1625 7.2 
L 20.5625 7.2 
z
" style="fill: #ffffff"/>
   </g>
   <g id="matplotlib.axis_1">
    <g id="xtick_1">
     <g id="line2d_1">
      <defs>
       <path id="md1eaa3532c" d="M 0 0 
L 0 3.5 
" style="stroke: #000000; stroke-width: 0.8"/>
      </defs>
      <g>
       <use xlink:href="#md1eaa3532c" x="38.198642" y="170.033475" style="stroke: #000000; stroke-width: 0.8"/>
      </g>
     </g>
     <g id="text_1">
      <!-- 0.0 -->
      <g transform="translate(30.24708 184.631912) scale(0.1 -0.1)">
       <defs>
        <path id="DejaVuSans-30" d="M 2034 4250 
Q 1547 4250 1301 3770 
Q 1056 3291 1056 2328 
Q 1056 1369 1301 889 
Q 1547 409 2034 409 
Q 2525 409 2770 889 
Q 3016 1369 3016 2328 
Q 3016 3291 2770 3770 
Q 2525 4250 2034 4250 
z
M 2034 4750 
Q 2819 4750 3233 4129 
Q 3647 3509 3647 2328 
Q 3647 1150 3233 529 
Q 2819 -91 2034 -91 
Q 1250 -91 836 529 
Q 422 1150 422 2328 
Q 422 3509 836 4129 
Q 1250 4750 2034 4750 
z
" transform="scale(0.015625)"/>
        <path id="DejaVuSans-2e" d="M 684 794 
L 1344 794 
L 1344 0 
L 684 0 
L 684 794 
z
" transform="scale(0.015625)"/>
       </defs>
       <use xlink:href="#DejaVuSans-30"/>
       <use xlink:href="#DejaVuSans-2e" transform="translate(63.623047 0)"/>
       <use xlink:href="#DejaVuSans-30" transform="translate(95.410156 0)"/>
      </g>
     </g>
    </g>
    <g id="xtick_2">
     <g id="line2d_2">
      <g>
       <use xlink:href="#md1eaa3532c" x="97.400194" y="170.033475" style="stroke: #000000; stroke-width: 0.8"/>
      </g>
     </g>
     <g id="text_2">
      <!-- 0.5 -->
      <g transform="translate(89.448632 184.631912) scale(0.1 -0.1)">
       <defs>
        <path id="DejaVuSans-35" d="M 691 4666 
L 3169 4666 
L 3169 4134 
L 1269 4134 
L 1269 2991 
Q 1406 3038 1543 3061 
Q 1681 3084 1819 3084 
Q 2600 3084 3056 2656 
Q 3513 2228 3513 1497 
Q 3513 744 3044 326 
Q 2575 -91 1722 -91 
Q 1428 -91 1123 -41 
Q 819 9 494 109 
L 494 744 
Q 775 591 1075 516 
Q 1375 441 1709 441 
Q 2250 441 2565 725 
Q 2881 1009 2881 1497 
Q 2881 1984 2565 2268 
Q 2250 2553 1709 2553 
Q 1456 2553 1204 2497 
Q 953 2441 691 2322 
L 691 4666 
z
" transform="scale(0.015625)"/>
       </defs>
       <use xlink:href="#DejaVuSans-30"/>
       <use xlink:href="#DejaVuSans-2e" transform="translate(63.623047 0)"/>
       <use xlink:href="#DejaVuSans-35" transform="translate(95.410156 0)"/>
      </g>
     </g>
    </g>
    <g id="xtick_3">
     <g id="line2d_3">
      <g>
       <use xlink:href="#md1eaa3532c" x="156.601746" y="170.033475" style="stroke: #000000; stroke-width: 0.8"/>
      </g>
     </g>
     <g id="text_3">
      <!-- 1.0 -->
      <g transform="translate(148.650184 184.631912) scale(0.1 -0.1)">
       <defs>
        <path id="DejaVuSans-31" d="M 794 531 
L 1825 531 
L 1825 4091 
L 703 3866 
L 703 4441 
L 1819 4666 
L 2450 4666 
L 2450 531 
L 3481 531 
L 3481 0 
L 794 0 
L 794 531 
z
" transform="scale(0.015625)"/>
       </defs>
       <use xlink:href="#DejaVuSans-31"/>
       <use xlink:href="#DejaVuSans-2e" transform="translate(63.623047 0)"/>
       <use xlink:href="#DejaVuSans-30" transform="translate(95.410156 0)"/>
      </g>
     </g>
    </g>
    <g id="xtick_4">
     <g id="line2d_4">
      <g>
       <use xlink:href="#md1eaa3532c" x="215.803298" y="170.033475" style="stroke: #000000; stroke-width: 0.8"/>
      </g>
     </g>
     <g id="text_4">
      <!-- 1.5 -->
      <g transform="translate(207.851736 184.631912) scale(0.1 -0.1)">
       <use xlink:href="#DejaVuSans-31"/>
       <use xlink:href="#DejaVuSans-2e" transform="translate(63.623047 0)"/>
       <use xlink:href="#DejaVuSans-35" transform="translate(95.410156 0)"/>
      </g>
     </g>
    </g>
    <g id="xtick_5">
     <g id="line2d_5">
      <g>
       <use xlink:href="#md1eaa3532c" x="275.00485" y="170.033475" style="stroke: #000000; stroke-width: 0.8"/>
      </g>
     </g>
     <g id="text_5">
      <!-- 2.0 -->
      <g transform="translate(267.053288 184.631912) scale(0.1 -0.1)">
       <defs>
        <path id="DejaVuSans-32" d="M 1228 531 
L 3431 531 
L 3431 0 
L 469 0 
L 469 531 
Q 828 903 1448 1529 
Q 2069 2156 2228 2338 
Q 2531 2678 2651 2914 
Q 2772 3150 2772 3378 
Q 2772 3750 2511 3984 
Q 2250 4219 1831 4219 
Q 1534 4219 1204 4116 
Q 875 4013 500 3803 
L 500 4441 
Q 881 4594 1212 4672 
Q 1544 4750 1819 4750 
Q 2544 4750 2975 4387 
Q 3406 4025 3406 3419 
Q 3406 3131 3298 2873 
Q 3191 2616 2906 2266 
Q 2828 2175 2409 1742 
Q 1991 1309 1228 531 
z
" transform="scale(0.015625)"/>
       </defs>
       <use xlink:href="#DejaVuSans-32"/>
       <use xlink:href="#DejaVuSans-2e" transform="translate(63.623047 0)"/>
       <use xlink:href="#DejaVuSans-30" transform="translate(95.410156 0)"/>
      </g>
     </g>
    </g>
    <g id="xtick_6">
     <g id="line2d_6">
      <g>
       <use xlink:href="#md1eaa3532c" x="334.206403" y="170.033475" style="stroke: #000000; stroke-width: 0.8"/>
      </g>
     </g>
     <g id="text_6">
      <!-- 2.5 -->
      <g transform="translate(326.25484 184.631912) scale(0.1 -0.1)">
       <use xlink:href="#DejaVuSans-32"/>
       <use xlink:href="#DejaVuSans-2e" transform="translate(63.623047 0)"/>
       <use xlink:href="#DejaVuSans-35" transform="translate(95.410156 0)"/>
      </g>
     </g>
    </g>
    <g id="xtick_7">
     <g id="line2d_7">
      <g>
       <use xlink:href="#md1eaa3532c" x="393.407955" y="170.033475" style="stroke: #000000; stroke-width: 0.8"/>
      </g>
     </g>
     <g id="text_7">
      <!-- 3.0 -->
      <g transform="translate(385.456392 184.631912) scale(0.1 -0.1)">
       <defs>
        <path id="DejaVuSans-33" d="M 2597 2516 
Q 3050 2419 3304 2112 
Q 3559 1806 3559 1356 
Q 3559 666 3084 287 
Q 2609 -91 1734 -91 
Q 1441 -91 1130 -33 
Q 819 25 488 141 
L 488 750 
Q 750 597 1062 519 
Q 1375 441 1716 441 
Q 2309 441 2620 675 
Q 2931 909 2931 1356 
Q 2931 1769 2642 2001 
Q 2353 2234 1838 2234 
L 1294 2234 
L 1294 2753 
L 1863 2753 
Q 2328 2753 2575 2939 
Q 2822 3125 2822 3475 
Q 2822 3834 2567 4026 
Q 2313 4219 1838 4219 
Q 1578 4219 1281 4162 
Q 984 4106 628 3988 
L 628 4550 
Q 988 4650 1302 4700 
Q 1616 4750 1894 4750 
Q 2613 4750 3031 4423 
Q 3450 4097 3450 3541 
Q 3450 3153 3228 2886 
Q 3006 2619 2597 2516 
z
" transform="scale(0.015625)"/>
       </defs>
       <use xlink:href="#DejaVuSans-33"/>
       <use xlink:href="#DejaVuSans-2e" transform="translate(63.623047 0)"/>
       <use xlink:href="#DejaVuSans-30" transform="translate(95.410156 0)"/>
      </g>
     </g>
    </g>
   </g>
   <g id="matplotlib.axis_2">
    <g id="ytick_1">
     <g id="line2d_8">
      <defs>
       <path id="mdf82bfc2ad" d="M 0 0 
L -3.5 0 
" style="stroke: #000000; stroke-width: 0.8"/>
      </defs>
      <g>
       <use xlink:href="#mdf82bfc2ad" x="20.5625" y="162.631953" style="stroke: #000000; stroke-width: 0.8"/>
      </g>
     </g>
     <g id="text_8">
      <!-- 0 -->
      <g transform="translate(7.2 166.431172) scale(0.1 -0.1)">
       <use xlink:href="#DejaVuSans-30"/>
      </g>
     </g>
    </g>
    <g id="ytick_2">
     <g id="line2d_9">
      <g>
       <use xlink:href="#mdf82bfc2ad" x="20.5625" y="131.057792" style="stroke: #000000; stroke-width: 0.8"/>
      </g>
     </g>
     <g id="text_9">
      <!-- 1 -->
      <g transform="translate(7.2 134.857011) scale(0.1 -0.1)">
       <use xlink:href="#DejaVuSans-31"/>
      </g>
     </g>
    </g>
    <g id="ytick_3">
     <g id="line2d_10">
      <g>
       <use xlink:href="#mdf82bfc2ad" x="20.5625" y="99.483631" style="stroke: #000000; stroke-width: 0.8"/>
      </g>
     </g>
     <g id="text_10">
      <!-- 2 -->
      <g transform="translate(7.2 103.28285) scale(0.1 -0.1)">
       <use xlink:href="#DejaVuSans-32"/>
      </g>
     </g>
    </g>
    <g id="ytick_4">
     <g id="line2d_11">
      <g>
       <use xlink:href="#mdf82bfc2ad" x="20.5625" y="67.90947" style="stroke: #000000; stroke-width: 0.8"/>
      </g>
     </g>
     <g id="text_11">
      <!-- 3 -->
      <g transform="translate(7.2 71.708689) scale(0.1 -0.1)">
       <use xlink:href="#DejaVuSans-33"/>
      </g>
     </g>
    </g>
    <g id="ytick_5">
     <g id="line2d_12">
      <g>
       <use xlink:href="#mdf82bfc2ad" x="20.5625" y="36.335309" style="stroke: #000000; stroke-width: 0.8"/>
      </g>
     </g>
     <g id="text_12">
      <!-- 4 -->
      <g transform="translate(7.2 40.134528) scale(0.1 -0.1)">
       <defs>
        <path id="DejaVuSans-34" d="M 2419 4116 
L 825 1625 
L 2419 1625 
L 2419 4116 
z
M 2253 4666 
L 3047 4666 
L 3047 1625 
L 3713 1625 
L 3713 1100 
L 3047 1100 
L 3047 0 
L 2419 0 
L 2419 1100 
L 313 1100 
L 313 1709 
L 2253 4666 
z
" transform="scale(0.015625)"/>
       </defs>
       <use xlink:href="#DejaVuSans-34"/>
      </g>
     </g>
    </g>
   </g>
   <g id="line2d_13">
    <path d="M 38.317045 162.631953 
L 49.424483 162.539705 
L 51.507128 162.290002 
L 53.242665 161.885091 
L 54.978202 161.276932 
L 57.060847 160.294782 
L 59.490599 158.877513 
L 63.308781 156.344003 
L 68.515393 152.93711 
L 71.63936 151.155542 
L 74.763326 149.641935 
L 77.540186 148.529529 
L 80.664153 147.528454 
L 83.78812 146.768523 
L 87.259194 146.170674 
L 91.077376 145.764559 
L 95.242665 145.563396 
L 100.102169 145.573072 
L 105.655888 145.816317 
L 112.598037 146.347989 
L 122.664153 147.35951 
L 163.275723 151.652479 
L 179.589773 153.048351 
L 196.598037 154.277519 
L 215.341839 155.402172 
L 236.168285 156.421621 
L 259.771591 157.34813 
L 287.193079 158.194224 
L 319.47407 158.959318 
L 358.002996 159.643147 
L 393.407955 160.118189 
L 393.407955 160.118189 
" clip-path="url(#p6576a01720)" style="fill: none; stroke: #1f77b4; stroke-width: 1.5; stroke-linecap: square"/>
   </g>
   <g id="line2d_14">
    <path d="M 38.317045 162.631953 
L 45.259194 162.566876 
L 46.300517 162.30798 
L 46.994731 161.893012 
L 47.688946 161.172195 
L 48.383161 160.055783 
L 49.077376 158.476476 
L 49.771591 156.398895 
L 50.812913 152.355903 
L 51.854236 147.324992 
L 53.242665 139.500183 
L 57.755062 112.836653 
L 59.143492 106.094047 
L 60.531921 100.477923 
L 61.573244 97.036146 
L 62.614566 94.243219 
L 63.655888 92.068459 
L 64.697211 90.469073 
L 65.738533 89.395108 
L 66.432748 88.944745 
L 67.126963 88.68817 
L 67.821178 88.609514 
L 68.515393 88.69328 
L 69.556715 89.090922 
L 70.598037 89.772838 
L 71.63936 90.695151 
L 73.027789 92.230594 
L 74.763326 94.526439 
L 77.193079 98.207996 
L 81.01126 104.505093 
L 86.564979 113.608066 
L 90.036054 118.859764 
L 93.160021 123.193067 
L 96.283988 127.133655 
L 99.407955 130.688175 
L 102.531921 133.877313 
L 105.655888 136.728822 
L 108.779855 139.273207 
L 111.903822 141.541146 
L 115.374897 143.772514 
L 118.845971 145.736071 
L 122.664153 147.626612 
L 126.482335 149.273039 
L 130.647624 150.830721 
L 135.160021 152.279909 
L 140.019525 153.608257 
L 145.573244 154.882932 
L 151.47407 156.005861 
L 158.069112 157.035316 
L 165.705475 157.993923 
L 174.383161 158.850542 
L 184.449277 159.613652 
L 196.25093 160.281215 
L 210.829442 160.872371 
L 228.879029 161.370548 
L 252.482335 161.785063 
L 284.763326 162.112582 
L 332.664153 162.355902 
L 393.407955 162.4923 
L 393.407955 162.4923 
" clip-path="url(#p6576a01720)" style="fill: none; stroke: #ff7f0e; stroke-width: 1.5; stroke-linecap: square"/>
   </g>
   <g id="line2d_15">
    <path d="M 38.317045 162.631953 
L 41.441012 162.590691 
L 41.78812 162.471376 
L 42.135227 162.156712 
L 42.482335 161.485523 
L 42.829442 160.266646 
L 43.17655 158.312053 
L 43.523657 155.469615 
L 44.217872 146.818051 
L 44.912087 134.375434 
L 45.953409 110.764844 
L 48.036054 61.809744 
L 49.077376 42.698354 
L 49.771591 32.839434 
L 50.465806 25.299057 
L 51.160021 19.938484 
L 51.854236 16.545331 
L 52.201343 15.509897 
L 52.54845 14.872596 
L 52.895558 14.601522 
L 53.242665 14.665398 
L 53.589773 15.033924 
L 53.93688 15.678029 
L 54.631095 17.683855 
L 55.32531 20.480257 
L 56.366632 25.777023 
L 57.755062 34.161699 
L 64.697211 78.395668 
L 66.779855 89.388659 
L 68.515393 97.490471 
L 70.25093 104.679353 
L 71.986467 111.029372 
L 73.722004 116.623954 
L 75.457541 121.546955 
L 77.193079 125.877877 
L 78.928616 129.689575 
L 80.664153 133.047406 
L 82.746798 136.558614 
L 84.829442 139.585667 
L 86.912087 142.201884 
L 88.994731 144.469107 
L 91.077376 146.439373 
L 93.507128 148.420666 
L 95.93688 150.114705 
L 98.71374 151.759148 
L 101.490599 153.146829 
L 104.614566 154.457557 
L 108.08564 155.662703 
L 111.903822 156.745717 
L 116.069112 157.700241 
L 120.928616 158.584036 
L 126.482335 159.366739 
L 133.077376 160.067459 
L 141.060847 160.683518 
L 150.779855 161.204953 
L 163.275723 161.644781 
L 180.283988 162.004599 
L 204.581508 162.277384 
L 243.457541 162.468198 
L 319.47407 162.58175 
L 393.407955 162.61133 
L 393.407955 162.61133 
" clip-path="url(#p6576a01720)" style="fill: none; stroke: #2ca02c; stroke-width: 1.5; stroke-linecap: square"/>
   </g>
   <g id="patch_3">
    <path d="M 20.5625 170.033475 
L 20.5625 7.2 
" style="fill: none; stroke: #000000; stroke-width: 0.8; stroke-linejoin: miter; stroke-linecap: square"/>
   </g>
   <g id="patch_4">
    <path d="M 411.1625 170.033475 
L 411.1625 7.2 
" style="fill: none; stroke: #000000; stroke-width: 0.8; stroke-linejoin: miter; stroke-linecap: square"/>
   </g>
   <g id="patch_5">
    <path d="M 20.5625 170.033475 
L 411.1625 170.033475 
" style="fill: none; stroke: #000000; stroke-width: 0.8; stroke-linejoin: miter; stroke-linecap: square"/>
   </g>
   <g id="patch_6">
    <path d="M 20.5625 7.2 
L 411.1625 7.2 
" style="fill: none; stroke: #000000; stroke-width: 0.8; stroke-linejoin: miter; stroke-linecap: square"/>
   </g>
   <g id="legend_1">
    <g id="patch_7">
     <path d="M 305.9625 59.6 
L 404.1625 59.6 
Q 406.1625 59.6 406.1625 57.6 
L 406.1625 14.2 
Q 406.1625 12.2 404.1625 12.2 
L 305.9625 12.2 
Q 303.9625 12.2 303.9625 14.2 
L 303.9625 57.6 
Q 303.9625 59.6 305.9625 59.6 
z
" style="fill: #ffffff; opacity: 0.8; stroke: #cccccc; stroke-linejoin: miter"/>
    </g>
    <g id="line2d_16">
     <path d="M 307.9625 20.4 
L 317.9625 20.4 
L 327.9625 20.4 
" style="fill: none; stroke: #1f77b4; stroke-width: 1.5; stroke-linecap: square"/>
    </g>
    <g id="text_13">
     <!-- $\alpha=1$, $\beta=1$ -->
     <g transform="translate(335.9625 23.9) scale(0.1 -0.1)">
      <defs>
       <path id="DejaVuSans-Oblique-3b1" d="M 2619 1628 
L 2622 2350 
Q 2625 3088 2069 3091 
Q 1653 3094 1394 2747 
Q 1069 2319 959 1747 
Q 825 1059 994 731 
Q 1169 397 1547 397 
Q 1966 397 2319 1063 
L 2619 1628 
z
M 2166 3578 
Q 3141 3594 3128 2584 
Q 3128 2584 3616 3500 
L 4128 3500 
L 3119 1603 
L 3109 919 
Q 3109 766 3194 638 
Q 3291 488 3391 488 
L 3669 488 
L 3575 0 
L 3228 0 
Q 2934 0 2722 263 
Q 2622 394 2619 669 
Q 2416 334 2066 50 
Q 1900 -81 1453 -78 
Q 722 -72 456 397 
Q 184 884 353 1747 
Q 534 2675 1009 3097 
Q 1544 3569 2166 3578 
z
" transform="scale(0.015625)"/>
       <path id="DejaVuSans-3d" d="M 678 2906 
L 4684 2906 
L 4684 2381 
L 678 2381 
L 678 2906 
z
M 678 1631 
L 4684 1631 
L 4684 1100 
L 678 1100 
L 678 1631 
z
" transform="scale(0.015625)"/>
       <path id="DejaVuSans-2c" d="M 750 794 
L 1409 794 
L 1409 256 
L 897 -744 
L 494 -744 
L 750 256 
L 750 794 
z
" transform="scale(0.015625)"/>
       <path id="DejaVuSans-20" transform="scale(0.015625)"/>
       <path id="DejaVuSans-Oblique-3b2" d="M 872 216 
L 572 -1331 
L -6 -1331 
L 928 3478 
Q 1206 4903 2538 4903 
Q 3888 4903 3659 3700 
Q 3503 2844 2894 2531 
Q 3713 2250 3553 1416 
Q 3272 -69 1759 -66 
Q 1097 -63 872 216 
z
M 1019 966 
Q 1259 422 1875 425 
Q 2775 425 2966 1406 
Q 3138 2288 1675 2219 
L 1778 2750 
Q 2909 2731 3106 3750 
Q 3241 4438 2509 4434 
Q 1691 4434 1503 3459 
L 1019 966 
z
" transform="scale(0.015625)"/>
      </defs>
      <use xlink:href="#DejaVuSans-Oblique-3b1" transform="translate(0 0.390625)"/>
      <use xlink:href="#DejaVuSans-3d" transform="translate(85.400391 0.390625)"/>
      <use xlink:href="#DejaVuSans-31" transform="translate(188.671875 0.390625)"/>
      <use xlink:href="#DejaVuSans-2c" transform="translate(252.294922 0.390625)"/>
      <use xlink:href="#DejaVuSans-20" transform="translate(284.082031 0.390625)"/>
      <use xlink:href="#DejaVuSans-Oblique-3b2" transform="translate(315.869141 0.390625)"/>
      <use xlink:href="#DejaVuSans-3d" transform="translate(399.169922 0.390625)"/>
      <use xlink:href="#DejaVuSans-31" transform="translate(502.441406 0.390625)"/>
     </g>
    </g>
    <g id="line2d_17">
     <path d="M 307.9625 35.2 
L 317.9625 35.2 
L 327.9625 35.2 
" style="fill: none; stroke: #ff7f0e; stroke-width: 1.5; stroke-linecap: square"/>
    </g>
    <g id="text_14">
     <!-- $\alpha=3$, $\beta=1$ -->
     <g transform="translate(335.9625 38.7) scale(0.1 -0.1)">
      <use xlink:href="#DejaVuSans-Oblique-3b1" transform="translate(0 0.390625)"/>
      <use xlink:href="#DejaVuSans-3d" transform="translate(85.400391 0.390625)"/>
      <use xlink:href="#DejaVuSans-33" transform="translate(188.671875 0.390625)"/>
      <use xlink:href="#DejaVuSans-2c" transform="translate(252.294922 0.390625)"/>
      <use xlink:href="#DejaVuSans-20" transform="translate(284.082031 0.390625)"/>
      <use xlink:href="#DejaVuSans-Oblique-3b2" transform="translate(315.869141 0.390625)"/>
      <use xlink:href="#DejaVuSans-3d" transform="translate(399.169922 0.390625)"/>
      <use xlink:href="#DejaVuSans-31" transform="translate(502.441406 0.390625)"/>
     </g>
    </g>
    <g id="line2d_18">
     <path d="M 307.9625 50 
L 317.9625 50 
L 327.9625 50 
" style="fill: none; stroke: #2ca02c; stroke-width: 1.5; stroke-linecap: square"/>
    </g>
    <g id="text_15">
     <!-- $\alpha=3$, $\beta=0.5$ -->
     <g transform="translate(335.9625 53.5) scale(0.1 -0.1)">
      <use xlink:href="#DejaVuSans-Oblique-3b1" transform="translate(0 0.390625)"/>
      <use xlink:href="#DejaVuSans-3d" transform="translate(85.400391 0.390625)"/>
      <use xlink:href="#DejaVuSans-33" transform="translate(188.671875 0.390625)"/>
      <use xlink:href="#DejaVuSans-2c" transform="translate(252.294922 0.390625)"/>
      <use xlink:href="#DejaVuSans-20" transform="translate(284.082031 0.390625)"/>
      <use xlink:href="#DejaVuSans-Oblique-3b2" transform="translate(315.869141 0.390625)"/>
      <use xlink:href="#DejaVuSans-3d" transform="translate(399.169922 0.390625)"/>
      <use xlink:href="#DejaVuSans-30" transform="translate(502.441406 0.390625)"/>
      <use xlink:href="#DejaVuSans-2e" transform="translate(566.064453 0.390625)"/>
      <use xlink:href="#DejaVuSans-35" transform="translate(597.851562 0.390625)"/>
     </g>
    </g>
   </g>
  </g>
 </g>
 <defs>
  <clipPath id="p6576a01720">
   <rect x="20.5625" y="7.2" width="390.6" height="162.833475"/>
  </clipPath>
 </defs>
</svg>
