<?xml version="1.0" encoding="utf-8" standalone="no"?>
<!DOCTYPE svg PUBLIC "-//W3C//DTD SVG 1.1//EN"
  "http://www.w3.org/Graphics/SVG/1.1/DTD/svg11.dtd">
<svg xmlns:xlink="http://www.w3.org/1999/xlink" width="427.903125pt" height="149.560243pt" viewBox="0 0 427.903125 149.560243" xmlns="http://www.w3.org/2000/svg" version="1.1">
 <metadata>
  <rdf:RDF xmlns:dc="http://purl.org/dc/elements/1.1/" xmlns:cc="http://creativecommons.org/ns#" xmlns:rdf="http://www.w3.org/1999/02/22-rdf-syntax-ns#">
   <cc:Work>
    <dc:type rdf:resource="http://purl.org/dc/dcmitype/StillImage"/>
    <dc:date>2025-12-16T06:36:22.703312</dc:date>
    <dc:format>image/svg+xml</dc:format>
    <dc:creator>
     <cc:Agent>
      <dc:title>Matplotlib v3.10.3, https://matplotlib.org/</dc:title>
     </cc:Agent>
    </dc:creator>
   </cc:Work>
  </rdf:RDF>
 </metadata>
 <defs>
  <style type="text/css">*{stroke-linejoin: round; stroke-linecap: butt}</style>
 </defs>
 <g id="figure_1">
  <g id="patch_1">
   <path d="M 0 149.560243 
L 427.903125 149.560243 
L 427.903125 0 
L 0 0 
z
" style="fill: #ffffff"/>
  </g>
  <g id="axes_1">
   <g id="patch_2">
    <path d="M 30.103125 125.682118 
L 420.703125 125.682118 
L 420.703125 7.2 
L 30.103125 7.2 
z
" style="fill: #ffffff"/>
   </g>
   <g id="matplotlib.axis_1">
    <g id="xtick_1">
     <g id="line2d_1">
      <defs>
       <path id="mc991414ae2" d="M 0 0 
L 0 3.5 
" style="stroke: #000000; stroke-width: 0.8"/>
      </defs>
      <g>
       <use xlink:href="#mc991414ae2" x="47.85767" y="125.682118" style="stroke: #000000; stroke-width: 0.8"/>
      </g>
     </g>
     <g id="text_1">
      <!-- 0 -->
      <g transform="translate(44.67642 140.280556) scale(0.1 -0.1)">
       <defs>
        <path id="DejaVuSans-30" d="M 2034 4250 
Q 1547 4250 1301 3770 
Q 1056 3291 1056 2328 
Q 1056 1369 1301 889 
Q 1547 409 2034 409 
Q 2525 409 2770 889 
Q 3016 1369 3016 2328 
Q 3016 3291 2770 3770 
Q 2525 4250 2034 4250 
z
M 2034 4750 
Q 2819 4750 3233 4129 
Q 3647 3509 3647 2328 
Q 3647 1150 3233 529 
Q 2819 -91 2034 -91 
Q 1250 -91 836 529 
Q 422 1150 422 2328 
Q 422 3509 836 4129 
Q 1250 4750 2034 4750 
z
" transform="scale(0.015625)"/>
       </defs>
       <use xlink:href="#DejaVuSans-30"/>
      </g>
     </g>
    </g>
    <g id="xtick_2">
     <g id="line2d_2">
      <g>
       <use xlink:href="#mc991414ae2" x="118.946942" y="125.682118" style="stroke: #000000; stroke-width: 0.8"/>
      </g>
     </g>
     <g id="text_2">
      <!-- 200 -->
      <g transform="translate(109.403192 140.280556) scale(0.1 -0.1)">
       <defs>
        <path id="DejaVuSans-32" d="M 1228 531 
L 3431 531 
L 3431 0 
L 469 0 
L 469 531 
Q 828 903 1448 1529 
Q 2069 2156 2228 2338 
Q 2531 2678 2651 2914 
Q 2772 3150 2772 3378 
Q 2772 3750 2511 3984 
Q 2250 4219 1831 4219 
Q 1534 4219 1204 4116 
Q 875 4013 500 3803 
L 500 4441 
Q 881 4594 1212 4672 
Q 1544 4750 1819 4750 
Q 2544 4750 2975 4387 
Q 3406 4025 3406 3419 
Q 3406 3131 3298 2873 
Q 3191 2616 2906 2266 
Q 2828 2175 2409 1742 
Q 1991 1309 1228 531 
z
" transform="scale(0.015625)"/>
       </defs>
       <use xlink:href="#DejaVuSans-32"/>
       <use xlink:href="#DejaVuSans-30" transform="translate(63.623047 0)"/>
       <use xlink:href="#DejaVuSans-30" transform="translate(127.246094 0)"/>
      </g>
     </g>
    </g>
    <g id="xtick_3">
     <g id="line2d_3">
      <g>
       <use xlink:href="#mc991414ae2" x="190.036213" y="125.682118" style="stroke: #000000; stroke-width: 0.8"/>
      </g>
     </g>
     <g id="text_3">
      <!-- 400 -->
      <g transform="translate(180.492463 140.280556) scale(0.1 -0.1)">
       <defs>
        <path id="DejaVuSans-34" d="M 2419 4116 
L 825 1625 
L 2419 1625 
L 2419 4116 
z
M 2253 4666 
L 3047 4666 
L 3047 1625 
L 3713 1625 
L 3713 1100 
L 3047 1100 
L 3047 0 
L 2419 0 
L 2419 1100 
L 313 1100 
L 313 1709 
L 2253 4666 
z
" transform="scale(0.015625)"/>
       </defs>
       <use xlink:href="#DejaVuSans-34"/>
       <use xlink:href="#DejaVuSans-30" transform="translate(63.623047 0)"/>
       <use xlink:href="#DejaVuSans-30" transform="translate(127.246094 0)"/>
      </g>
     </g>
    </g>
    <g id="xtick_4">
     <g id="line2d_4">
      <g>
       <use xlink:href="#mc991414ae2" x="261.125484" y="125.682118" style="stroke: #000000; stroke-width: 0.8"/>
      </g>
     </g>
     <g id="text_4">
      <!-- 600 -->
      <g transform="translate(251.581734 140.280556) scale(0.1 -0.1)">
       <defs>
        <path id="DejaVuSans-36" d="M 2113 2584 
Q 1688 2584 1439 2293 
Q 1191 2003 1191 1497 
Q 1191 994 1439 701 
Q 1688 409 2113 409 
Q 2538 409 2786 701 
Q 3034 994 3034 1497 
Q 3034 2003 2786 2293 
Q 2538 2584 2113 2584 
z
M 3366 4563 
L 3366 3988 
Q 3128 4100 2886 4159 
Q 2644 4219 2406 4219 
Q 1781 4219 1451 3797 
Q 1122 3375 1075 2522 
Q 1259 2794 1537 2939 
Q 1816 3084 2150 3084 
Q 2853 3084 3261 2657 
Q 3669 2231 3669 1497 
Q 3669 778 3244 343 
Q 2819 -91 2113 -91 
Q 1303 -91 875 529 
Q 447 1150 447 2328 
Q 447 3434 972 4092 
Q 1497 4750 2381 4750 
Q 2619 4750 2861 4703 
Q 3103 4656 3366 4563 
z
" transform="scale(0.015625)"/>
       </defs>
       <use xlink:href="#DejaVuSans-36"/>
       <use xlink:href="#DejaVuSans-30" transform="translate(63.623047 0)"/>
       <use xlink:href="#DejaVuSans-30" transform="translate(127.246094 0)"/>
      </g>
     </g>
    </g>
    <g id="xtick_5">
     <g id="line2d_5">
      <g>
       <use xlink:href="#mc991414ae2" x="332.214755" y="125.682118" style="stroke: #000000; stroke-width: 0.8"/>
      </g>
     </g>
     <g id="text_5">
      <!-- 800 -->
      <g transform="translate(322.671005 140.280556) scale(0.1 -0.1)">
       <defs>
        <path id="DejaVuSans-38" d="M 2034 2216 
Q 1584 2216 1326 1975 
Q 1069 1734 1069 1313 
Q 1069 891 1326 650 
Q 1584 409 2034 409 
Q 2484 409 2743 651 
Q 3003 894 3003 1313 
Q 3003 1734 2745 1975 
Q 2488 2216 2034 2216 
z
M 1403 2484 
Q 997 2584 770 2862 
Q 544 3141 544 3541 
Q 544 4100 942 4425 
Q 1341 4750 2034 4750 
Q 2731 4750 3128 4425 
Q 3525 4100 3525 3541 
Q 3525 3141 3298 2862 
Q 3072 2584 2669 2484 
Q 3125 2378 3379 2068 
Q 3634 1759 3634 1313 
Q 3634 634 3220 271 
Q 2806 -91 2034 -91 
Q 1263 -91 848 271 
Q 434 634 434 1313 
Q 434 1759 690 2068 
Q 947 2378 1403 2484 
z
M 1172 3481 
Q 1172 3119 1398 2916 
Q 1625 2713 2034 2713 
Q 2441 2713 2670 2916 
Q 2900 3119 2900 3481 
Q 2900 3844 2670 4047 
Q 2441 4250 2034 4250 
Q 1625 4250 1398 4047 
Q 1172 3844 1172 3481 
z
" transform="scale(0.015625)"/>
       </defs>
       <use xlink:href="#DejaVuSans-38"/>
       <use xlink:href="#DejaVuSans-30" transform="translate(63.623047 0)"/>
       <use xlink:href="#DejaVuSans-30" transform="translate(127.246094 0)"/>
      </g>
     </g>
    </g>
    <g id="xtick_6">
     <g id="line2d_6">
      <g>
       <use xlink:href="#mc991414ae2" x="403.304026" y="125.682118" style="stroke: #000000; stroke-width: 0.8"/>
      </g>
     </g>
     <g id="text_6">
      <!-- 1000 -->
      <g transform="translate(390.579026 140.280556) scale(0.1 -0.1)">
       <defs>
        <path id="DejaVuSans-31" d="M 794 531 
L 1825 531 
L 1825 4091 
L 703 3866 
L 703 4441 
L 1819 4666 
L 2450 4666 
L 2450 531 
L 3481 531 
L 3481 0 
L 794 0 
L 794 531 
z
" transform="scale(0.015625)"/>
       </defs>
       <use xlink:href="#DejaVuSans-31"/>
       <use xlink:href="#DejaVuSans-30" transform="translate(63.623047 0)"/>
       <use xlink:href="#DejaVuSans-30" transform="translate(127.246094 0)"/>
       <use xlink:href="#DejaVuSans-30" transform="translate(190.869141 0)"/>
      </g>
     </g>
    </g>
   </g>
   <g id="matplotlib.axis_2">
    <g id="ytick_1">
     <g id="line2d_7">
      <defs>
       <path id="m99bbe470b9" d="M 0 0 
L -3.5 0 
" style="stroke: #000000; stroke-width: 0.8"/>
      </defs>
      <g>
       <use xlink:href="#m99bbe470b9" x="30.103125" y="120.296568" style="stroke: #000000; stroke-width: 0.8"/>
      </g>
     </g>
     <g id="text_7">
      <!-- 0.0 -->
      <g transform="translate(7.2 124.095786) scale(0.1 -0.1)">
       <defs>
        <path id="DejaVuSans-2e" d="M 684 794 
L 1344 794 
L 1344 0 
L 684 0 
L 684 794 
z
" transform="scale(0.015625)"/>
       </defs>
       <use xlink:href="#DejaVuSans-30"/>
       <use xlink:href="#DejaVuSans-2e" transform="translate(63.623047 0)"/>
       <use xlink:href="#DejaVuSans-30" transform="translate(95.410156 0)"/>
      </g>
     </g>
    </g>
    <g id="ytick_2">
     <g id="line2d_8">
      <g>
       <use xlink:href="#m99bbe470b9" x="30.103125" y="96.600144" style="stroke: #000000; stroke-width: 0.8"/>
      </g>
     </g>
     <g id="text_8">
      <!-- 0.2 -->
      <g transform="translate(7.2 100.399363) scale(0.1 -0.1)">
       <use xlink:href="#DejaVuSans-30"/>
       <use xlink:href="#DejaVuSans-2e" transform="translate(63.623047 0)"/>
       <use xlink:href="#DejaVuSans-32" transform="translate(95.410156 0)"/>
      </g>
     </g>
    </g>
    <g id="ytick_3">
     <g id="line2d_9">
      <g>
       <use xlink:href="#m99bbe470b9" x="30.103125" y="72.90372" style="stroke: #000000; stroke-width: 0.8"/>
      </g>
     </g>
     <g id="text_9">
      <!-- 0.4 -->
      <g transform="translate(7.2 76.702939) scale(0.1 -0.1)">
       <use xlink:href="#DejaVuSans-30"/>
       <use xlink:href="#DejaVuSans-2e" transform="translate(63.623047 0)"/>
       <use xlink:href="#DejaVuSans-34" transform="translate(95.410156 0)"/>
      </g>
     </g>
    </g>
    <g id="ytick_4">
     <g id="line2d_10">
      <g>
       <use xlink:href="#m99bbe470b9" x="30.103125" y="49.207297" style="stroke: #000000; stroke-width: 0.8"/>
      </g>
     </g>
     <g id="text_10">
      <!-- 0.6 -->
      <g transform="translate(7.2 53.006515) scale(0.1 -0.1)">
       <use xlink:href="#DejaVuSans-30"/>
       <use xlink:href="#DejaVuSans-2e" transform="translate(63.623047 0)"/>
       <use xlink:href="#DejaVuSans-36" transform="translate(95.410156 0)"/>
      </g>
     </g>
    </g>
    <g id="ytick_5">
     <g id="line2d_11">
      <g>
       <use xlink:href="#m99bbe470b9" x="30.103125" y="25.510873" style="stroke: #000000; stroke-width: 0.8"/>
      </g>
     </g>
     <g id="text_11">
      <!-- 0.8 -->
      <g transform="translate(7.2 29.310092) scale(0.1 -0.1)">
       <use xlink:href="#DejaVuSans-30"/>
       <use xlink:href="#DejaVuSans-2e" transform="translate(63.623047 0)"/>
       <use xlink:href="#DejaVuSans-38" transform="translate(95.410156 0)"/>
      </g>
     </g>
    </g>
   </g>
   <g id="line2d_12">
    <path d="M 48.213117 120.296568 
L 48.92401 120.296568 
L 49.634902 72.90372 
L 50.345795 69.518517 
L 51.76758 12.585551 
L 52.478473 65.612513 
L 53.189366 80.802528 
L 53.900258 85.448886 
L 54.611151 82.881162 
L 55.322044 46.950494 
L 56.032937 68.782603 
L 56.743829 58.685866 
L 57.454722 72.026075 
L 58.876507 55.322503 
L 59.5874 70.031426 
L 60.298293 62.74811 
L 61.009186 59.454399 
L 61.720078 80.802528 
L 62.430971 53.830989 
L 63.141864 54.167013 
L 63.852756 59.73904 
L 64.563649 49.711476 
L 65.274542 62.26451 
L 65.985435 62.217098 
L 66.696327 66.644288 
L 67.40722 51.361517 
L 68.118113 60.016192 
L 69.539898 52.315024 
L 70.250791 65.75718 
L 70.961684 61.966909 
L 71.672576 60.171313 
L 72.383469 61.914074 
L 73.094362 50.208554 
L 73.805254 63.490072 
L 74.516147 69.744197 
L 75.22704 61.824873 
L 75.937933 61.805395 
L 76.648825 50.084942 
L 77.359718 44.639311 
L 78.070611 64.540277 
L 78.781503 52.203396 
L 79.492396 59.058619 
L 80.203289 70.820518 
L 81.625074 46.712936 
L 82.335967 67.773567 
L 83.04686 60.457114 
L 83.757752 56.949692 
L 84.468645 48.977234 
L 85.179538 70.646918 
L 85.89043 60.501854 
L 86.601323 70.29494 
L 87.312216 55.184773 
L 88.023109 68.919366 
L 88.734001 64.661486 
L 89.444894 55.485836 
L 90.866679 57.62834 
L 91.577572 57.684066 
L 92.288465 52.998724 
L 92.999358 61.521973 
L 93.71025 59.677809 
L 94.421143 63.316618 
L 95.132036 56.155872 
L 95.842928 63.249622 
L 96.553821 64.947257 
L 97.264714 60.629314 
L 97.975607 63.996554 
L 98.686499 62.298328 
L 99.397392 59.012713 
L 100.108285 55.010502 
L 100.819177 63.043463 
L 101.53007 66.155732 
L 102.240963 49.826811 
L 102.951856 49.971697 
L 103.662748 57.659524 
L 104.373641 60.682923 
L 105.084534 58.47981 
L 105.795426 60.692066 
L 106.506319 52.07959 
L 107.217212 64.24814 
L 107.928105 64.210358 
L 108.638997 55.166046 
L 109.34989 54.549265 
L 110.060783 62.74811 
L 110.771675 59.382032 
L 111.482568 64.69602 
L 112.904354 59.4369 
L 114.326139 56.937146 
L 115.037032 56.353837 
L 115.747924 54.542094 
L 116.458817 63.204148 
L 117.16971 58.321306 
L 117.880602 55.943336 
L 119.302388 70.192189 
L 120.013281 57.845402 
L 120.724173 63.656335 
L 121.435066 63.631207 
L 122.145959 65.874159 
L 122.856851 68.636118 
L 123.567744 60.777381 
L 124.278637 55.269172 
L 124.98953 60.236508 
L 125.700422 59.161959 
L 126.411315 59.179095 
L 127.122208 62.383783 
L 127.8331 68.691023 
L 128.543993 68.623749 
L 129.254886 61.831592 
L 129.965779 60.286144 
L 130.676671 57.241706 
L 131.387564 57.778343 
L 132.098457 63.305169 
L 132.809349 60.311897 
L 133.520242 62.284576 
L 134.231135 55.935911 
L 134.942028 54.043301 
L 135.65292 56.018819 
L 136.363813 66.527574 
L 137.074706 58.931327 
L 137.785598 61.757972 
L 138.496491 64.075641 
L 139.207384 62.208058 
L 139.918277 66.773757 
L 140.629169 64.006213 
L 141.340062 68.038295 
L 142.050955 63.067469 
L 143.47274 65.680275 
L 144.183633 60.399703 
L 144.894525 58.234506 
L 145.605418 60.409242 
L 146.316311 58.275242 
L 147.027204 54.897836 
L 147.738096 59.579752 
L 148.448989 59.590182 
L 149.159882 53.780291 
L 149.870774 57.546456 
L 150.581667 63.310358 
L 151.29256 64.516326 
L 152.003453 66.110206 
L 152.714345 55.231811 
L 153.425238 58.861395 
L 154.136131 64.423729 
L 154.847023 52.5925 
L 155.557916 60.859993 
L 156.268809 62.803605 
L 156.979702 61.248476 
L 157.690594 60.86379 
L 158.401487 63.912794 
L 159.11238 56.323794 
L 159.823272 59.362907 
L 160.534165 63.858713 
L 161.245058 63.469721 
L 161.955951 60.870957 
L 162.666843 54.269381 
L 163.377736 62.33147 
L 164.088629 60.874343 
L 164.799521 56.553908 
L 165.510414 59.444724 
L 166.221307 66.570442 
L 166.9322 56.988212 
L 167.643092 60.176561 
L 168.353985 62.278775 
L 169.064878 60.534326 
L 169.77577 60.191936 
L 170.486663 57.449531 
L 171.197556 61.226232 
L 171.908449 62.583215 
L 172.619341 65.950069 
L 173.330234 57.195609 
L 174.041127 67.897434 
L 174.752019 57.57074 
L 176.173805 60.891406 
L 176.884697 57.62834 
L 177.59559 63.814681 
L 178.306483 59.279891 
L 179.017376 58.968425 
L 179.728268 66.644288 
L 180.439161 59.308453 
L 181.150054 64.057055 
L 181.860946 65.298237 
L 182.571839 61.837053 
L 183.282732 63.69881 
L 183.993625 59.972774 
L 184.704517 62.132619 
L 185.41541 57.840877 
L 186.126303 60.903218 
L 186.837195 54.84353 
L 187.548088 65.125505 
L 188.258981 60.305622 
L 188.969874 68.367377 
L 189.680766 68.330726 
L 190.391659 62.385108 
L 191.102552 61.790509 
L 191.813444 62.664525 
L 192.524337 60.327731 
L 193.23523 59.462228 
L 193.946123 62.352758 
L 194.657015 58.043251 
L 195.367908 57.772269 
L 196.078801 63.470612 
L 196.789693 62.327989 
L 197.500586 56.97477 
L 198.211479 58.674662 
L 198.922372 57.57074 
L 199.633264 61.749198 
L 200.344157 58.707961 
L 201.05505 58.718854 
L 201.765942 56.814232 
L 202.476835 61.191695 
L 203.187728 57.395306 
L 203.89862 62.539909 
L 204.609513 64.145178 
L 205.320406 61.456689 
L 206.031299 60.65613 
L 206.742191 61.188039 
L 207.453084 59.340288 
L 208.163977 62.763122 
L 208.874869 58.309234 
L 209.585762 64.050111 
L 210.296655 65.333309 
L 211.007548 61.700836 
L 211.71844 63.240103 
L 212.429333 62.207062 
L 213.140226 54.558102 
L 213.851118 60.674945 
L 214.562011 59.160805 
L 215.272904 59.923514 
L 215.983797 60.429282 
L 216.694689 64.422895 
L 217.405582 63.415215 
L 218.116475 59.20036 
L 218.827367 61.178671 
L 219.53826 58.234506 
L 220.249153 63.131999 
L 220.960046 63.853341 
L 221.670938 62.872719 
L 222.381831 62.624009 
L 223.092724 62.136988 
L 223.803616 56.627389 
L 224.514509 61.651495 
L 225.225402 60.461911 
L 225.936295 61.173754 
L 226.647187 59.053325 
L 227.35808 60.234345 
L 228.068973 59.770199 
L 228.779865 63.499639 
L 229.490758 60.47585 
L 230.201651 60.47811 
L 230.912544 60.940477 
L 231.623436 62.774301 
L 232.334329 61.626232 
L 233.045222 62.078866 
L 233.756114 67.285448 
L 234.467007 61.845389 
L 235.1779 62.292039 
L 235.888792 58.47981 
L 236.599685 59.158902 
L 237.310578 62.500412 
L 238.021471 56.958463 
L 238.732363 60.94519 
L 239.443256 59.40687 
L 240.154149 65.107115 
L 240.865041 58.328019 
L 241.575934 57.251037 
L 242.286827 58.131361 
L 242.99772 63.753189 
L 243.708612 64.38849 
L 244.419505 58.163088 
L 245.130398 60.308324 
L 245.84129 58.822003 
L 246.552183 61.373439 
L 247.263076 59.260325 
L 247.973969 62.844315 
L 248.684861 59.69244 
L 249.395754 60.5331 
L 250.106647 59.493793 
L 250.817539 58.669266 
L 251.528432 58.05727 
L 252.239325 66.515989 
L 252.950218 59.926129 
L 253.66111 61.567089 
L 254.372003 59.729977 
L 255.082896 60.547438 
L 255.793788 57.916239 
L 256.504681 63.174865 
L 257.215574 56.931767 
L 257.926467 57.747632 
L 258.637359 63.153421 
L 259.348252 60.358555 
L 260.059145 56.788564 
L 260.770037 64.714806 
L 261.48093 62.928354 
L 262.191823 59.58185 
L 262.902715 59.390884 
L 263.613608 65.252157 
L 265.035394 59.79506 
L 265.746286 60.572302 
L 266.457179 60.573874 
L 267.168072 61.727611 
L 267.878964 63.44812 
L 268.589857 64.012792 
L 269.30075 62.481858 
L 270.011643 61.719008 
L 270.722535 62.472759 
L 271.433428 63.410082 
L 272.144321 64.904769 
L 272.855213 60.58757 
L 273.566106 59.096355 
L 274.276999 65.612513 
L 274.987892 62.446144 
L 275.698784 60.59341 
L 276.409677 60.042053 
L 277.12057 63.71906 
L 277.831462 64.077077 
L 278.542355 60.416545 
L 279.253248 58.416506 
L 279.964141 60.601902 
L 280.675033 59.517954 
L 282.096819 60.965613 
L 282.807711 64.01308 
L 283.518604 61.323567 
L 284.229497 62.035436 
L 284.94039 63.098304 
L 285.651282 64.509023 
L 286.362175 61.320372 
L 287.073068 58.678824 
L 287.78396 60.792215 
L 288.494853 59.042887 
L 289.205746 61.666241 
L 289.916639 62.708343 
L 290.627531 59.407514 
L 291.338424 61.833858 
L 292.049317 59.589572 
L 292.760209 60.281677 
L 293.471102 61.655635 
L 294.181995 64.389421 
L 294.892887 60.458836 
L 295.60378 62.500412 
L 296.314673 59.614739 
L 297.025566 59.280812 
L 297.736458 63.667845 
L 298.447351 59.627001 
L 299.158244 63.82065 
L 300.580029 61.305471 
L 301.290922 64.129729 
L 302.001815 62.132619 
L 302.712707 60.972885 
L 303.4236 60.64354 
L 304.134493 65.0816 
L 304.845385 62.940079 
L 305.556278 63.098304 
L 306.978064 57.886234 
L 307.688956 57.408658 
L 308.399849 60.489768 
L 309.110742 58.556906 
L 309.821634 61.13589 
L 310.532527 56.486171 
L 311.24342 63.693774 
L 311.954313 65.600246 
L 312.665205 61.771172 
L 313.376098 56.217885 
L 314.086991 59.236357 
L 314.797883 60.503328 
L 315.508776 59.246021 
L 316.219669 58.466164 
L 316.930562 63.794527 
L 317.641454 57.230987 
L 318.352347 67.361061 
L 319.06324 62.530712 
L 320.485025 65.921462 
L 321.195918 60.36218 
L 321.906811 63.130098 
L 322.617703 60.519043 
L 323.328596 60.214668 
L 324.039489 59.301912 
L 324.750381 65.542315 
L 325.461274 58.248954 
L 326.172167 60.374577 
L 326.883059 63.69683 
L 327.593952 58.721998 
L 328.304845 59.929253 
L 329.015738 64.425733 
L 329.72663 58.142014 
L 330.437523 61.130025 
L 331.148416 59.197257 
L 331.859308 62.01938 
L 332.570201 59.058619 
L 333.281094 64.965566 
L 333.991987 59.657272 
L 334.702879 60.394827 
L 335.413772 60.103551 
L 336.124665 61.420743 
L 336.835557 63.89733 
L 337.54645 63.163472 
L 338.257343 59.532788 
L 338.968236 62.140509 
L 339.679128 61.416294 
L 340.390021 60.983527 
L 341.100914 60.265628 
L 341.811806 60.983875 
L 342.522699 59.268987 
L 343.233592 61.697108 
L 343.944485 65.962631 
L 344.655377 61.83593 
L 345.36627 62.258732 
L 346.077163 62.397082 
L 346.788055 61.548597 
L 347.498948 63.796198 
L 348.209841 59.44303 
L 348.920734 61.964757 
L 349.631626 61.962615 
L 350.342519 62.935072 
L 351.764304 62.371976 
L 352.475197 59.327356 
L 353.18609 61.262404 
L 353.896982 55.619918 
L 354.607875 60.163117 
L 355.318768 61.808863 
L 356.029661 57.160767 
L 356.740553 59.214877 
L 357.451446 60.443373 
L 358.162339 60.580494 
L 358.873231 59.904539 
L 359.584124 58.556171 
L 360.295017 58.427065 
L 361.00591 61.391723 
L 361.716802 61.927687 
L 362.427695 64.201644 
L 363.138588 62.190906 
L 363.84948 61.788525 
L 364.560373 61.78688 
L 365.271266 64.173459 
L 365.982159 60.724553 
L 366.693051 61.253639 
L 367.403944 64.416236 
L 368.114837 60.989758 
L 368.825729 62.958045 
L 369.536622 61.906485 
L 370.247515 60.075778 
L 370.958408 59.426216 
L 372.380193 61.250167 
L 373.091086 59.954855 
L 373.801978 63.187411 
L 374.512871 62.795997 
L 375.223764 63.178152 
L 375.934657 62.531721 
L 376.645549 63.937506 
L 377.356442 61.247227 
L 378.067335 63.414948 
L 378.778227 57.683031 
L 379.48912 60.23007 
L 380.200013 62.0059 
L 380.910906 63.268355 
L 381.621798 57.585585 
L 382.332691 62.755305 
L 383.043584 64.762001 
L 383.754476 61.243575 
L 384.465369 64.371006 
L 385.176262 60.368836 
L 385.887154 62.488257 
L 386.598047 57.263583 
L 387.30894 59.62876 
L 388.019833 63.593527 
L 388.730725 59.016974 
L 389.441618 60.254121 
L 390.152511 60.993991 
L 390.863403 62.221913 
L 391.574296 60.749195 
L 392.285189 62.706188 
L 392.996082 61.36056 
L 393.706974 60.264004 
L 394.417867 59.901067 
L 395.12876 61.843772 
L 395.839652 61.11602 
L 396.550545 59.545797 
L 397.261438 59.187276 
L 397.972331 63.882239 
L 398.683223 59.915103 
L 399.394116 58.59961 
L 400.105009 63.267334 
L 400.815901 61.115167 
L 402.237687 64.085894 
L 402.94858 61.233409 
L 402.94858 61.233409 
" clip-path="url(#pe4aa0e1b18)" style="fill: none; stroke: #1f77b4; stroke-width: 1.5; stroke-linecap: square"/>
   </g>
   <g id="line2d_13">
    <path d="M 47.85767 61.055508 
L 402.94858 61.055508 
" clip-path="url(#pe4aa0e1b18)" style="fill: none; stroke: #ff7f0e; stroke-width: 1.5; stroke-linecap: square"/>
   </g>
   <g id="patch_3">
    <path d="M 30.103125 125.682118 
L 30.103125 7.2 
" style="fill: none; stroke: #000000; stroke-width: 0.8; stroke-linejoin: miter; stroke-linecap: square"/>
   </g>
   <g id="patch_4">
    <path d="M 420.703125 125.682118 
L 420.703125 7.2 
" style="fill: none; stroke: #000000; stroke-width: 0.8; stroke-linejoin: miter; stroke-linecap: square"/>
   </g>
   <g id="patch_5">
    <path d="M 30.103125 125.682118 
L 420.703125 125.682118 
" style="fill: none; stroke: #000000; stroke-width: 0.8; stroke-linejoin: miter; stroke-linecap: square"/>
   </g>
   <g id="patch_6">
    <path d="M 30.103125 7.2 
L 420.703125 7.2 
" style="fill: none; stroke: #000000; stroke-width: 0.8; stroke-linejoin: miter; stroke-linecap: square"/>
   </g>
  </g>
 </g>
 <defs>
  <clipPath id="pe4aa0e1b18">
   <rect x="30.103125" y="7.2" width="390.6" height="118.482118"/>
  </clipPath>
 </defs>
</svg>
