<?xml version="1.0" encoding="utf-8" standalone="no"?>
<!DOCTYPE svg PUBLIC "-//W3C//DTD SVG 1.1//EN"
  "http://www.w3.org/Graphics/SVG/1.1/DTD/svg11.dtd">
<svg xmlns:xlink="http://www.w3.org/1999/xlink" width="440.628125pt" height="154.593728pt" viewBox="0 0 440.628125 154.593728" xmlns="http://www.w3.org/2000/svg" version="1.1">
 <metadata>
  <rdf:RDF xmlns:dc="http://purl.org/dc/elements/1.1/" xmlns:cc="http://creativecommons.org/ns#" xmlns:rdf="http://www.w3.org/1999/02/22-rdf-syntax-ns#">
   <cc:Work>
    <dc:type rdf:resource="http://purl.org/dc/dcmitype/StillImage"/>
    <dc:date>2025-12-15T11:10:02.191378</dc:date>
    <dc:format>image/svg+xml</dc:format>
    <dc:creator>
     <cc:Agent>
      <dc:title>Matplotlib v3.10.3, https://matplotlib.org/</dc:title>
     </cc:Agent>
    </dc:creator>
   </cc:Work>
  </rdf:RDF>
 </metadata>
 <defs>
  <style type="text/css">*{stroke-linejoin: round; stroke-linecap: butt}</style>
 </defs>
 <g id="figure_1">
  <g id="patch_1">
   <path d="M 0 154.593728 
L 440.628125 154.593728 
L 440.628125 -0 
L 0 -0 
z
" style="fill: #ffffff"/>
  </g>
  <g id="axes_1">
   <g id="patch_2">
    <path d="M 42.828125 130.715603 
L 433.428125 130.715603 
L 433.428125 7.2 
L 42.828125 7.2 
z
" style="fill: #ffffff"/>
   </g>
   <g id="matplotlib.axis_1">
    <g id="xtick_1">
     <g id="line2d_1">
      <path d="M 60.58267 130.715603 
L 60.58267 7.2 
" clip-path="url(#p5b191a5cdf)" style="fill: none; stroke: #b0b0b0; stroke-width: 0.8; stroke-linecap: square"/>
     </g>
     <g id="line2d_2">
      <defs>
       <path id="m03d2990da8" d="M 0 0 
L 0 3.5 
" style="stroke: #000000; stroke-width: 0.8"/>
      </defs>
      <g>
       <use xlink:href="#m03d2990da8" x="60.58267" y="130.715603" style="stroke: #000000; stroke-width: 0.8"/>
      </g>
     </g>
     <g id="text_1">
      <!-- 0 -->
      <g transform="translate(57.40142 145.314041) scale(0.1 -0.1)">
       <defs>
        <path id="DejaVuSans-30" d="M 2034 4250 
Q 1547 4250 1301 3770 
Q 1056 3291 1056 2328 
Q 1056 1369 1301 889 
Q 1547 409 2034 409 
Q 2525 409 2770 889 
Q 3016 1369 3016 2328 
Q 3016 3291 2770 3770 
Q 2525 4250 2034 4250 
z
M 2034 4750 
Q 2819 4750 3233 4129 
Q 3647 3509 3647 2328 
Q 3647 1150 3233 529 
Q 2819 -91 2034 -91 
Q 1250 -91 836 529 
Q 422 1150 422 2328 
Q 422 3509 836 4129 
Q 1250 4750 2034 4750 
z
" transform="scale(0.015625)"/>
       </defs>
       <use xlink:href="#DejaVuSans-30"/>
      </g>
     </g>
    </g>
    <g id="xtick_2">
     <g id="line2d_3">
      <path d="M 104.969034 130.715603 
L 104.969034 7.2 
" clip-path="url(#p5b191a5cdf)" style="fill: none; stroke: #b0b0b0; stroke-width: 0.8; stroke-linecap: square"/>
     </g>
     <g id="line2d_4">
      <g>
       <use xlink:href="#m03d2990da8" x="104.969034" y="130.715603" style="stroke: #000000; stroke-width: 0.8"/>
      </g>
     </g>
     <g id="text_2">
      <!-- 50 -->
      <g transform="translate(98.606534 145.314041) scale(0.1 -0.1)">
       <defs>
        <path id="DejaVuSans-35" d="M 691 4666 
L 3169 4666 
L 3169 4134 
L 1269 4134 
L 1269 2991 
Q 1406 3038 1543 3061 
Q 1681 3084 1819 3084 
Q 2600 3084 3056 2656 
Q 3513 2228 3513 1497 
Q 3513 744 3044 326 
Q 2575 -91 1722 -91 
Q 1428 -91 1123 -41 
Q 819 9 494 109 
L 494 744 
Q 775 591 1075 516 
Q 1375 441 1709 441 
Q 2250 441 2565 725 
Q 2881 1009 2881 1497 
Q 2881 1984 2565 2268 
Q 2250 2553 1709 2553 
Q 1456 2553 1204 2497 
Q 953 2441 691 2322 
L 691 4666 
z
" transform="scale(0.015625)"/>
       </defs>
       <use xlink:href="#DejaVuSans-35"/>
       <use xlink:href="#DejaVuSans-30" transform="translate(63.623047 0)"/>
      </g>
     </g>
    </g>
    <g id="xtick_3">
     <g id="line2d_5">
      <path d="M 149.355398 130.715603 
L 149.355398 7.2 
" clip-path="url(#p5b191a5cdf)" style="fill: none; stroke: #b0b0b0; stroke-width: 0.8; stroke-linecap: square"/>
     </g>
     <g id="line2d_6">
      <g>
       <use xlink:href="#m03d2990da8" x="149.355398" y="130.715603" style="stroke: #000000; stroke-width: 0.8"/>
      </g>
     </g>
     <g id="text_3">
      <!-- 100 -->
      <g transform="translate(139.811648 145.314041) scale(0.1 -0.1)">
       <defs>
        <path id="DejaVuSans-31" d="M 794 531 
L 1825 531 
L 1825 4091 
L 703 3866 
L 703 4441 
L 1819 4666 
L 2450 4666 
L 2450 531 
L 3481 531 
L 3481 0 
L 794 0 
L 794 531 
z
" transform="scale(0.015625)"/>
       </defs>
       <use xlink:href="#DejaVuSans-31"/>
       <use xlink:href="#DejaVuSans-30" transform="translate(63.623047 0)"/>
       <use xlink:href="#DejaVuSans-30" transform="translate(127.246094 0)"/>
      </g>
     </g>
    </g>
    <g id="xtick_4">
     <g id="line2d_7">
      <path d="M 193.741761 130.715603 
L 193.741761 7.2 
" clip-path="url(#p5b191a5cdf)" style="fill: none; stroke: #b0b0b0; stroke-width: 0.8; stroke-linecap: square"/>
     </g>
     <g id="line2d_8">
      <g>
       <use xlink:href="#m03d2990da8" x="193.741761" y="130.715603" style="stroke: #000000; stroke-width: 0.8"/>
      </g>
     </g>
     <g id="text_4">
      <!-- 150 -->
      <g transform="translate(184.198011 145.314041) scale(0.1 -0.1)">
       <use xlink:href="#DejaVuSans-31"/>
       <use xlink:href="#DejaVuSans-35" transform="translate(63.623047 0)"/>
       <use xlink:href="#DejaVuSans-30" transform="translate(127.246094 0)"/>
      </g>
     </g>
    </g>
    <g id="xtick_5">
     <g id="line2d_9">
      <path d="M 238.128125 130.715603 
L 238.128125 7.2 
" clip-path="url(#p5b191a5cdf)" style="fill: none; stroke: #b0b0b0; stroke-width: 0.8; stroke-linecap: square"/>
     </g>
     <g id="line2d_10">
      <g>
       <use xlink:href="#m03d2990da8" x="238.128125" y="130.715603" style="stroke: #000000; stroke-width: 0.8"/>
      </g>
     </g>
     <g id="text_5">
      <!-- 200 -->
      <g transform="translate(228.584375 145.314041) scale(0.1 -0.1)">
       <defs>
        <path id="DejaVuSans-32" d="M 1228 531 
L 3431 531 
L 3431 0 
L 469 0 
L 469 531 
Q 828 903 1448 1529 
Q 2069 2156 2228 2338 
Q 2531 2678 2651 2914 
Q 2772 3150 2772 3378 
Q 2772 3750 2511 3984 
Q 2250 4219 1831 4219 
Q 1534 4219 1204 4116 
Q 875 4013 500 3803 
L 500 4441 
Q 881 4594 1212 4672 
Q 1544 4750 1819 4750 
Q 2544 4750 2975 4387 
Q 3406 4025 3406 3419 
Q 3406 3131 3298 2873 
Q 3191 2616 2906 2266 
Q 2828 2175 2409 1742 
Q 1991 1309 1228 531 
z
" transform="scale(0.015625)"/>
       </defs>
       <use xlink:href="#DejaVuSans-32"/>
       <use xlink:href="#DejaVuSans-30" transform="translate(63.623047 0)"/>
       <use xlink:href="#DejaVuSans-30" transform="translate(127.246094 0)"/>
      </g>
     </g>
    </g>
    <g id="xtick_6">
     <g id="line2d_11">
      <path d="M 282.514489 130.715603 
L 282.514489 7.2 
" clip-path="url(#p5b191a5cdf)" style="fill: none; stroke: #b0b0b0; stroke-width: 0.8; stroke-linecap: square"/>
     </g>
     <g id="line2d_12">
      <g>
       <use xlink:href="#m03d2990da8" x="282.514489" y="130.715603" style="stroke: #000000; stroke-width: 0.8"/>
      </g>
     </g>
     <g id="text_6">
      <!-- 250 -->
      <g transform="translate(272.970739 145.314041) scale(0.1 -0.1)">
       <use xlink:href="#DejaVuSans-32"/>
       <use xlink:href="#DejaVuSans-35" transform="translate(63.623047 0)"/>
       <use xlink:href="#DejaVuSans-30" transform="translate(127.246094 0)"/>
      </g>
     </g>
    </g>
    <g id="xtick_7">
     <g id="line2d_13">
      <path d="M 326.900852 130.715603 
L 326.900852 7.2 
" clip-path="url(#p5b191a5cdf)" style="fill: none; stroke: #b0b0b0; stroke-width: 0.8; stroke-linecap: square"/>
     </g>
     <g id="line2d_14">
      <g>
       <use xlink:href="#m03d2990da8" x="326.900852" y="130.715603" style="stroke: #000000; stroke-width: 0.8"/>
      </g>
     </g>
     <g id="text_7">
      <!-- 300 -->
      <g transform="translate(317.357102 145.314041) scale(0.1 -0.1)">
       <defs>
        <path id="DejaVuSans-33" d="M 2597 2516 
Q 3050 2419 3304 2112 
Q 3559 1806 3559 1356 
Q 3559 666 3084 287 
Q 2609 -91 1734 -91 
Q 1441 -91 1130 -33 
Q 819 25 488 141 
L 488 750 
Q 750 597 1062 519 
Q 1375 441 1716 441 
Q 2309 441 2620 675 
Q 2931 909 2931 1356 
Q 2931 1769 2642 2001 
Q 2353 2234 1838 2234 
L 1294 2234 
L 1294 2753 
L 1863 2753 
Q 2328 2753 2575 2939 
Q 2822 3125 2822 3475 
Q 2822 3834 2567 4026 
Q 2313 4219 1838 4219 
Q 1578 4219 1281 4162 
Q 984 4106 628 3988 
L 628 4550 
Q 988 4650 1302 4700 
Q 1616 4750 1894 4750 
Q 2613 4750 3031 4423 
Q 3450 4097 3450 3541 
Q 3450 3153 3228 2886 
Q 3006 2619 2597 2516 
z
" transform="scale(0.015625)"/>
       </defs>
       <use xlink:href="#DejaVuSans-33"/>
       <use xlink:href="#DejaVuSans-30" transform="translate(63.623047 0)"/>
       <use xlink:href="#DejaVuSans-30" transform="translate(127.246094 0)"/>
      </g>
     </g>
    </g>
    <g id="xtick_8">
     <g id="line2d_15">
      <path d="M 371.287216 130.715603 
L 371.287216 7.2 
" clip-path="url(#p5b191a5cdf)" style="fill: none; stroke: #b0b0b0; stroke-width: 0.8; stroke-linecap: square"/>
     </g>
     <g id="line2d_16">
      <g>
       <use xlink:href="#m03d2990da8" x="371.287216" y="130.715603" style="stroke: #000000; stroke-width: 0.8"/>
      </g>
     </g>
     <g id="text_8">
      <!-- 350 -->
      <g transform="translate(361.743466 145.314041) scale(0.1 -0.1)">
       <use xlink:href="#DejaVuSans-33"/>
       <use xlink:href="#DejaVuSans-35" transform="translate(63.623047 0)"/>
       <use xlink:href="#DejaVuSans-30" transform="translate(127.246094 0)"/>
      </g>
     </g>
    </g>
    <g id="xtick_9">
     <g id="line2d_17">
      <path d="M 415.67358 130.715603 
L 415.67358 7.2 
" clip-path="url(#p5b191a5cdf)" style="fill: none; stroke: #b0b0b0; stroke-width: 0.8; stroke-linecap: square"/>
     </g>
     <g id="line2d_18">
      <g>
       <use xlink:href="#m03d2990da8" x="415.67358" y="130.715603" style="stroke: #000000; stroke-width: 0.8"/>
      </g>
     </g>
     <g id="text_9">
      <!-- 400 -->
      <g transform="translate(406.12983 145.314041) scale(0.1 -0.1)">
       <defs>
        <path id="DejaVuSans-34" d="M 2419 4116 
L 825 1625 
L 2419 1625 
L 2419 4116 
z
M 2253 4666 
L 3047 4666 
L 3047 1625 
L 3713 1625 
L 3713 1100 
L 3047 1100 
L 3047 0 
L 2419 0 
L 2419 1100 
L 313 1100 
L 313 1709 
L 2253 4666 
z
" transform="scale(0.015625)"/>
       </defs>
       <use xlink:href="#DejaVuSans-34"/>
       <use xlink:href="#DejaVuSans-30" transform="translate(63.623047 0)"/>
       <use xlink:href="#DejaVuSans-30" transform="translate(127.246094 0)"/>
      </g>
     </g>
    </g>
   </g>
   <g id="matplotlib.axis_2">
    <g id="ytick_1">
     <g id="line2d_19">
      <path d="M 42.828125 125.101258 
L 433.428125 125.101258 
" clip-path="url(#p5b191a5cdf)" style="fill: none; stroke: #b0b0b0; stroke-width: 0.8; stroke-linecap: square"/>
     </g>
     <g id="line2d_20">
      <defs>
       <path id="mb439d4b363" d="M 0 0 
L -3.5 0 
" style="stroke: #000000; stroke-width: 0.8"/>
      </defs>
      <g>
       <use xlink:href="#mb439d4b363" x="42.828125" y="125.101258" style="stroke: #000000; stroke-width: 0.8"/>
      </g>
     </g>
     <g id="text_10">
      <!-- 0.000 -->
      <g transform="translate(7.2 128.900476) scale(0.1 -0.1)">
       <defs>
        <path id="DejaVuSans-2e" d="M 684 794 
L 1344 794 
L 1344 0 
L 684 0 
L 684 794 
z
" transform="scale(0.015625)"/>
       </defs>
       <use xlink:href="#DejaVuSans-30"/>
       <use xlink:href="#DejaVuSans-2e" transform="translate(63.623047 0)"/>
       <use xlink:href="#DejaVuSans-30" transform="translate(95.410156 0)"/>
       <use xlink:href="#DejaVuSans-30" transform="translate(159.033203 0)"/>
       <use xlink:href="#DejaVuSans-30" transform="translate(222.65625 0)"/>
      </g>
     </g>
    </g>
    <g id="ytick_2">
     <g id="line2d_21">
      <path d="M 42.828125 98.200431 
L 433.428125 98.200431 
" clip-path="url(#p5b191a5cdf)" style="fill: none; stroke: #b0b0b0; stroke-width: 0.8; stroke-linecap: square"/>
     </g>
     <g id="line2d_22">
      <g>
       <use xlink:href="#mb439d4b363" x="42.828125" y="98.200431" style="stroke: #000000; stroke-width: 0.8"/>
      </g>
     </g>
     <g id="text_11">
      <!-- 0.005 -->
      <g transform="translate(7.2 101.99965) scale(0.1 -0.1)">
       <use xlink:href="#DejaVuSans-30"/>
       <use xlink:href="#DejaVuSans-2e" transform="translate(63.623047 0)"/>
       <use xlink:href="#DejaVuSans-30" transform="translate(95.410156 0)"/>
       <use xlink:href="#DejaVuSans-30" transform="translate(159.033203 0)"/>
       <use xlink:href="#DejaVuSans-35" transform="translate(222.65625 0)"/>
      </g>
     </g>
    </g>
    <g id="ytick_3">
     <g id="line2d_23">
      <path d="M 42.828125 71.299605 
L 433.428125 71.299605 
" clip-path="url(#p5b191a5cdf)" style="fill: none; stroke: #b0b0b0; stroke-width: 0.8; stroke-linecap: square"/>
     </g>
     <g id="line2d_24">
      <g>
       <use xlink:href="#mb439d4b363" x="42.828125" y="71.299605" style="stroke: #000000; stroke-width: 0.8"/>
      </g>
     </g>
     <g id="text_12">
      <!-- 0.010 -->
      <g transform="translate(7.2 75.098824) scale(0.1 -0.1)">
       <use xlink:href="#DejaVuSans-30"/>
       <use xlink:href="#DejaVuSans-2e" transform="translate(63.623047 0)"/>
       <use xlink:href="#DejaVuSans-30" transform="translate(95.410156 0)"/>
       <use xlink:href="#DejaVuSans-31" transform="translate(159.033203 0)"/>
       <use xlink:href="#DejaVuSans-30" transform="translate(222.65625 0)"/>
      </g>
     </g>
    </g>
    <g id="ytick_4">
     <g id="line2d_25">
      <path d="M 42.828125 44.398778 
L 433.428125 44.398778 
" clip-path="url(#p5b191a5cdf)" style="fill: none; stroke: #b0b0b0; stroke-width: 0.8; stroke-linecap: square"/>
     </g>
     <g id="line2d_26">
      <g>
       <use xlink:href="#mb439d4b363" x="42.828125" y="44.398778" style="stroke: #000000; stroke-width: 0.8"/>
      </g>
     </g>
     <g id="text_13">
      <!-- 0.015 -->
      <g transform="translate(7.2 48.197997) scale(0.1 -0.1)">
       <use xlink:href="#DejaVuSans-30"/>
       <use xlink:href="#DejaVuSans-2e" transform="translate(63.623047 0)"/>
       <use xlink:href="#DejaVuSans-30" transform="translate(95.410156 0)"/>
       <use xlink:href="#DejaVuSans-31" transform="translate(159.033203 0)"/>
       <use xlink:href="#DejaVuSans-35" transform="translate(222.65625 0)"/>
      </g>
     </g>
    </g>
    <g id="ytick_5">
     <g id="line2d_27">
      <path d="M 42.828125 17.497952 
L 433.428125 17.497952 
" clip-path="url(#p5b191a5cdf)" style="fill: none; stroke: #b0b0b0; stroke-width: 0.8; stroke-linecap: square"/>
     </g>
     <g id="line2d_28">
      <g>
       <use xlink:href="#mb439d4b363" x="42.828125" y="17.497952" style="stroke: #000000; stroke-width: 0.8"/>
      </g>
     </g>
     <g id="text_14">
      <!-- 0.020 -->
      <g transform="translate(7.2 21.297171) scale(0.1 -0.1)">
       <use xlink:href="#DejaVuSans-30"/>
       <use xlink:href="#DejaVuSans-2e" transform="translate(63.623047 0)"/>
       <use xlink:href="#DejaVuSans-30" transform="translate(95.410156 0)"/>
       <use xlink:href="#DejaVuSans-32" transform="translate(159.033203 0)"/>
       <use xlink:href="#DejaVuSans-30" transform="translate(222.65625 0)"/>
      </g>
     </g>
    </g>
   </g>
   <g id="line2d_29">
    <path d="M 60.58267 125.101258 
L 212.268621 124.993024 
L 220.599199 124.746116 
L 226.152918 124.366845 
L 230.318208 123.877663 
L 233.789282 123.270659 
L 236.913249 122.516372 
L 239.690108 121.637191 
L 242.466968 120.519486 
L 244.89672 119.311959 
L 247.326472 117.859294 
L 249.756224 116.132661 
L 252.185976 114.105366 
L 254.615728 111.754549 
L 257.04548 109.063054 
L 259.475232 106.021402 
L 261.904985 102.629749 
L 264.681844 98.340469 
L 267.458704 93.647826 
L 270.929778 87.312098 
L 275.789282 77.896041 
L 281.690108 66.506377 
L 284.814075 60.959698 
L 287.243827 57.070528 
L 289.326472 54.119531 
L 291.062009 51.976196 
L 292.797546 50.153212 
L 294.533084 48.677433 
L 295.921513 47.761805 
L 297.309943 47.091482 
L 298.698373 46.673 
L 300.086803 46.510457 
L 301.475232 46.605449 
L 302.863662 46.957043 
L 304.252092 47.561792 
L 305.640522 48.413792 
L 307.028951 49.504778 
L 308.764489 51.188399 
L 310.500026 53.203918 
L 312.58267 56.019021 
L 314.665315 59.211929 
L 317.095067 63.329787 
L 320.219034 69.081236 
L 325.772753 79.907215 
L 330.979365 89.868245 
L 334.450439 96.011901 
L 337.227299 100.511638 
L 340.004158 104.586237 
L 342.43391 107.781043 
L 344.863662 110.624463 
L 347.293414 113.122016 
L 349.723166 115.287755 
L 352.152918 117.142293 
L 354.58267 118.710874 
L 357.012423 120.021593 
L 359.789282 121.241501 
L 362.566142 122.206666 
L 365.690108 123.03976 
L 369.161183 123.714685 
L 372.979365 124.225879 
L 377.838869 124.630937 
L 384.086803 124.901793 
L 393.458704 125.052618 
L 414.28515 125.10002 
L 415.67358 125.100314 
L 415.67358 125.100314 
" clip-path="url(#p5b191a5cdf)" style="fill: none; stroke: #1f77b4; stroke-width: 1.5; stroke-linecap: square"/>
   </g>
   <g id="line2d_30">
    <path d="M 60.58267 125.101258 
L 205.326472 124.991099 
L 212.962836 124.742304 
L 217.82234 124.384473 
L 221.640522 123.906915 
L 225.111596 123.248453 
L 227.888456 122.51347 
L 230.665315 121.541706 
L 233.095067 120.454899 
L 235.524819 119.106767 
L 237.607464 117.712958 
L 239.690108 116.072958 
L 241.772753 114.16329 
L 243.855398 111.963037 
L 245.938042 109.455173 
L 248.020687 106.627976 
L 250.450439 102.919794 
L 252.880191 98.776864 
L 255.657051 93.541576 
L 258.781018 87.097569 
L 262.599199 78.644263 
L 270.929778 59.963115 
L 273.706637 54.388381 
L 275.789282 50.646358 
L 277.871927 47.376872 
L 279.607464 45.069796 
L 280.995894 43.526061 
L 282.384323 42.269403 
L 283.772753 41.313895 
L 285.161183 40.670334 
L 286.202505 40.396918 
L 287.243827 40.304921 
L 288.28515 40.394935 
L 289.326472 40.66638 
L 290.367794 41.117514 
L 291.756224 41.993382 
L 293.144654 43.173511 
L 294.533084 44.644649 
L 296.268621 46.867646 
L 298.004158 49.481684 
L 300.086803 53.072924 
L 302.516555 57.782604 
L 305.293414 63.674993 
L 309.805811 73.866623 
L 315.35953 86.326595 
L 318.483497 92.829837 
L 321.260356 98.130073 
L 323.690108 102.335557 
L 326.119861 106.108676 
L 328.549613 109.440635 
L 330.632257 111.950214 
L 332.714902 114.152102 
L 334.797546 116.0633 
L 336.880191 117.704708 
L 338.962836 119.099792 
L 341.392588 120.449238 
L 343.82234 121.537175 
L 346.599199 122.510014 
L 349.376059 123.245863 
L 352.500026 123.850127 
L 356.318208 124.348354 
L 360.830604 124.703235 
L 367.078538 124.947198 
L 376.797546 125.071078 
L 403.871927 125.101138 
L 415.67358 125.101251 
L 415.67358 125.101251 
" clip-path="url(#p5b191a5cdf)" style="fill: none; stroke: #ff7f0e; stroke-width: 1.5; stroke-linecap: square"/>
   </g>
   <g id="line2d_31">
    <path d="M 60.58267 125.101258 
L 209.144654 124.991463 
L 214.698373 124.749294 
L 218.516555 124.364491 
L 221.293414 123.879875 
L 223.723166 123.241771 
L 225.805811 122.47843 
L 227.888456 121.457037 
L 229.623993 120.362805 
L 231.35953 119.004128 
L 233.095067 117.337512 
L 234.830604 115.318209 
L 236.566142 112.901978 
L 238.301679 110.047284 
L 240.037216 106.717885 
L 241.772753 102.885751 
L 243.50829 98.534149 
L 245.590935 92.624455 
L 247.67358 85.993731 
L 250.103332 77.444216 
L 253.227299 65.474196 
L 260.516555 36.940888 
L 262.599199 29.80474 
L 264.334737 24.581958 
L 265.723166 20.985502 
L 267.111596 17.979928 
L 268.152918 16.148675 
L 269.194241 14.70264 
L 270.235563 13.657878 
L 270.929778 13.190259 
L 271.623993 12.908611 
L 272.318208 12.814346 
L 273.012423 12.907935 
L 273.706637 13.18891 
L 274.400852 13.655863 
L 275.442175 14.699645 
L 276.483497 16.144734 
L 277.524819 17.975085 
L 278.913249 20.97954 
L 280.301679 24.57499 
L 282.037216 29.796697 
L 284.119861 36.931854 
L 286.549613 46.102312 
L 295.921513 82.419755 
L 298.351265 90.483893 
L 300.43391 96.640037 
L 302.516555 102.051246 
L 304.252092 105.987096 
L 305.987629 109.41583 
L 307.723166 112.363455 
L 309.458704 114.8648 
L 311.194241 116.960554 
L 312.929778 118.694605 
L 314.665315 120.111753 
L 316.400852 121.255865 
L 318.483497 122.326635 
L 320.566142 123.129174 
L 322.995894 123.802089 
L 325.772753 124.314922 
L 329.243827 124.696978 
L 333.756224 124.941335 
L 340.698373 125.067815 
L 359.442175 125.101046 
L 415.67358 125.101258 
L 415.67358 125.101258 
" clip-path="url(#p5b191a5cdf)" style="fill: none; stroke: #2ca02c; stroke-width: 1.5; stroke-linecap: square"/>
   </g>
   <g id="patch_3">
    <path d="M 42.828125 130.715603 
L 42.828125 7.2 
" style="fill: none; stroke: #000000; stroke-width: 0.8; stroke-linejoin: miter; stroke-linecap: square"/>
   </g>
   <g id="patch_4">
    <path d="M 433.428125 130.715603 
L 433.428125 7.2 
" style="fill: none; stroke: #000000; stroke-width: 0.8; stroke-linejoin: miter; stroke-linecap: square"/>
   </g>
   <g id="patch_5">
    <path d="M 42.828125 130.715603 
L 433.428125 130.715603 
" style="fill: none; stroke: #000000; stroke-width: 0.8; stroke-linejoin: miter; stroke-linecap: square"/>
   </g>
   <g id="patch_6">
    <path d="M 42.828125 7.2 
L 433.428125 7.2 
" style="fill: none; stroke: #000000; stroke-width: 0.8; stroke-linejoin: miter; stroke-linecap: square"/>
   </g>
   <g id="legend_1">
    <g id="patch_7">
     <path d="M 49.828125 59.234375 
L 216.798438 59.234375 
Q 218.798438 59.234375 218.798438 57.234375 
L 218.798438 14.2 
Q 218.798438 12.2 216.798438 12.2 
L 49.828125 12.2 
Q 47.828125 12.2 47.828125 14.2 
L 47.828125 57.234375 
Q 47.828125 59.234375 49.828125 59.234375 
z
" style="fill: #ffffff; opacity: 0.8; stroke: #cccccc; stroke-linejoin: miter"/>
    </g>
    <g id="line2d_32">
     <path d="M 51.828125 20.298438 
L 61.828125 20.298438 
L 71.828125 20.298438 
" style="fill: none; stroke: #1f77b4; stroke-width: 1.5; stroke-linecap: square"/>
    </g>
    <g id="text_15">
     <!-- initial guess -->
     <g transform="translate(79.828125 23.798438) scale(0.1 -0.1)">
      <defs>
       <path id="DejaVuSans-69" d="M 603 3500 
L 1178 3500 
L 1178 0 
L 603 0 
L 603 3500 
z
M 603 4863 
L 1178 4863 
L 1178 4134 
L 603 4134 
L 603 4863 
z
" transform="scale(0.015625)"/>
       <path id="DejaVuSans-6e" d="M 3513 2113 
L 3513 0 
L 2938 0 
L 2938 2094 
Q 2938 2591 2744 2837 
Q 2550 3084 2163 3084 
Q 1697 3084 1428 2787 
Q 1159 2491 1159 1978 
L 1159 0 
L 581 0 
L 581 3500 
L 1159 3500 
L 1159 2956 
Q 1366 3272 1645 3428 
Q 1925 3584 2291 3584 
Q 2894 3584 3203 3211 
Q 3513 2838 3513 2113 
z
" transform="scale(0.015625)"/>
       <path id="DejaVuSans-74" d="M 1172 4494 
L 1172 3500 
L 2356 3500 
L 2356 3053 
L 1172 3053 
L 1172 1153 
Q 1172 725 1289 603 
Q 1406 481 1766 481 
L 2356 481 
L 2356 0 
L 1766 0 
Q 1100 0 847 248 
Q 594 497 594 1153 
L 594 3053 
L 172 3053 
L 172 3500 
L 594 3500 
L 594 4494 
L 1172 4494 
z
" transform="scale(0.015625)"/>
       <path id="DejaVuSans-61" d="M 2194 1759 
Q 1497 1759 1228 1600 
Q 959 1441 959 1056 
Q 959 750 1161 570 
Q 1363 391 1709 391 
Q 2188 391 2477 730 
Q 2766 1069 2766 1631 
L 2766 1759 
L 2194 1759 
z
M 3341 1997 
L 3341 0 
L 2766 0 
L 2766 531 
Q 2569 213 2275 61 
Q 1981 -91 1556 -91 
Q 1019 -91 701 211 
Q 384 513 384 1019 
Q 384 1609 779 1909 
Q 1175 2209 1959 2209 
L 2766 2209 
L 2766 2266 
Q 2766 2663 2505 2880 
Q 2244 3097 1772 3097 
Q 1472 3097 1187 3025 
Q 903 2953 641 2809 
L 641 3341 
Q 956 3463 1253 3523 
Q 1550 3584 1831 3584 
Q 2591 3584 2966 3190 
Q 3341 2797 3341 1997 
z
" transform="scale(0.015625)"/>
       <path id="DejaVuSans-6c" d="M 603 4863 
L 1178 4863 
L 1178 0 
L 603 0 
L 603 4863 
z
" transform="scale(0.015625)"/>
       <path id="DejaVuSans-20" transform="scale(0.015625)"/>
       <path id="DejaVuSans-67" d="M 2906 1791 
Q 2906 2416 2648 2759 
Q 2391 3103 1925 3103 
Q 1463 3103 1205 2759 
Q 947 2416 947 1791 
Q 947 1169 1205 825 
Q 1463 481 1925 481 
Q 2391 481 2648 825 
Q 2906 1169 2906 1791 
z
M 3481 434 
Q 3481 -459 3084 -895 
Q 2688 -1331 1869 -1331 
Q 1566 -1331 1297 -1286 
Q 1028 -1241 775 -1147 
L 775 -588 
Q 1028 -725 1275 -790 
Q 1522 -856 1778 -856 
Q 2344 -856 2625 -561 
Q 2906 -266 2906 331 
L 2906 616 
Q 2728 306 2450 153 
Q 2172 0 1784 0 
Q 1141 0 747 490 
Q 353 981 353 1791 
Q 353 2603 747 3093 
Q 1141 3584 1784 3584 
Q 2172 3584 2450 3431 
Q 2728 3278 2906 2969 
L 2906 3500 
L 3481 3500 
L 3481 434 
z
" transform="scale(0.015625)"/>
       <path id="DejaVuSans-75" d="M 544 1381 
L 544 3500 
L 1119 3500 
L 1119 1403 
Q 1119 906 1312 657 
Q 1506 409 1894 409 
Q 2359 409 2629 706 
Q 2900 1003 2900 1516 
L 2900 3500 
L 3475 3500 
L 3475 0 
L 2900 0 
L 2900 538 
Q 2691 219 2414 64 
Q 2138 -91 1772 -91 
Q 1169 -91 856 284 
Q 544 659 544 1381 
z
M 1991 3584 
L 1991 3584 
z
" transform="scale(0.015625)"/>
       <path id="DejaVuSans-65" d="M 3597 1894 
L 3597 1613 
L 953 1613 
Q 991 1019 1311 708 
Q 1631 397 2203 397 
Q 2534 397 2845 478 
Q 3156 559 3463 722 
L 3463 178 
Q 3153 47 2828 -22 
Q 2503 -91 2169 -91 
Q 1331 -91 842 396 
Q 353 884 353 1716 
Q 353 2575 817 3079 
Q 1281 3584 2069 3584 
Q 2775 3584 3186 3129 
Q 3597 2675 3597 1894 
z
M 3022 2063 
Q 3016 2534 2758 2815 
Q 2500 3097 2075 3097 
Q 1594 3097 1305 2825 
Q 1016 2553 972 2059 
L 3022 2063 
z
" transform="scale(0.015625)"/>
       <path id="DejaVuSans-73" d="M 2834 3397 
L 2834 2853 
Q 2591 2978 2328 3040 
Q 2066 3103 1784 3103 
Q 1356 3103 1142 2972 
Q 928 2841 928 2578 
Q 928 2378 1081 2264 
Q 1234 2150 1697 2047 
L 1894 2003 
Q 2506 1872 2764 1633 
Q 3022 1394 3022 966 
Q 3022 478 2636 193 
Q 2250 -91 1575 -91 
Q 1294 -91 989 -36 
Q 684 19 347 128 
L 347 722 
Q 666 556 975 473 
Q 1284 391 1588 391 
Q 1994 391 2212 530 
Q 2431 669 2431 922 
Q 2431 1156 2273 1281 
Q 2116 1406 1581 1522 
L 1381 1569 
Q 847 1681 609 1914 
Q 372 2147 372 2553 
Q 372 3047 722 3315 
Q 1072 3584 1716 3584 
Q 2034 3584 2315 3537 
Q 2597 3491 2834 3397 
z
" transform="scale(0.015625)"/>
      </defs>
      <use xlink:href="#DejaVuSans-69"/>
      <use xlink:href="#DejaVuSans-6e" transform="translate(27.783203 0)"/>
      <use xlink:href="#DejaVuSans-69" transform="translate(91.162109 0)"/>
      <use xlink:href="#DejaVuSans-74" transform="translate(118.945312 0)"/>
      <use xlink:href="#DejaVuSans-69" transform="translate(158.154297 0)"/>
      <use xlink:href="#DejaVuSans-61" transform="translate(185.9375 0)"/>
      <use xlink:href="#DejaVuSans-6c" transform="translate(247.216797 0)"/>
      <use xlink:href="#DejaVuSans-20" transform="translate(275 0)"/>
      <use xlink:href="#DejaVuSans-67" transform="translate(306.787109 0)"/>
      <use xlink:href="#DejaVuSans-75" transform="translate(370.263672 0)"/>
      <use xlink:href="#DejaVuSans-65" transform="translate(433.642578 0)"/>
      <use xlink:href="#DejaVuSans-73" transform="translate(495.166016 0)"/>
      <use xlink:href="#DejaVuSans-73" transform="translate(547.265625 0)"/>
     </g>
    </g>
    <g id="line2d_33">
     <path d="M 51.828125 34.976562 
L 61.828125 34.976562 
L 71.828125 34.976562 
" style="fill: none; stroke: #ff7f0e; stroke-width: 1.5; stroke-linecap: square"/>
    </g>
    <g id="text_16">
     <!-- update after 10 iterations -->
     <g transform="translate(79.828125 38.476562) scale(0.1 -0.1)">
      <defs>
       <path id="DejaVuSans-70" d="M 1159 525 
L 1159 -1331 
L 581 -1331 
L 581 3500 
L 1159 3500 
L 1159 2969 
Q 1341 3281 1617 3432 
Q 1894 3584 2278 3584 
Q 2916 3584 3314 3078 
Q 3713 2572 3713 1747 
Q 3713 922 3314 415 
Q 2916 -91 2278 -91 
Q 1894 -91 1617 61 
Q 1341 213 1159 525 
z
M 3116 1747 
Q 3116 2381 2855 2742 
Q 2594 3103 2138 3103 
Q 1681 3103 1420 2742 
Q 1159 2381 1159 1747 
Q 1159 1113 1420 752 
Q 1681 391 2138 391 
Q 2594 391 2855 752 
Q 3116 1113 3116 1747 
z
" transform="scale(0.015625)"/>
       <path id="DejaVuSans-64" d="M 2906 2969 
L 2906 4863 
L 3481 4863 
L 3481 0 
L 2906 0 
L 2906 525 
Q 2725 213 2448 61 
Q 2172 -91 1784 -91 
Q 1150 -91 751 415 
Q 353 922 353 1747 
Q 353 2572 751 3078 
Q 1150 3584 1784 3584 
Q 2172 3584 2448 3432 
Q 2725 3281 2906 2969 
z
M 947 1747 
Q 947 1113 1208 752 
Q 1469 391 1925 391 
Q 2381 391 2643 752 
Q 2906 1113 2906 1747 
Q 2906 2381 2643 2742 
Q 2381 3103 1925 3103 
Q 1469 3103 1208 2742 
Q 947 2381 947 1747 
z
" transform="scale(0.015625)"/>
       <path id="DejaVuSans-66" d="M 2375 4863 
L 2375 4384 
L 1825 4384 
Q 1516 4384 1395 4259 
Q 1275 4134 1275 3809 
L 1275 3500 
L 2222 3500 
L 2222 3053 
L 1275 3053 
L 1275 0 
L 697 0 
L 697 3053 
L 147 3053 
L 147 3500 
L 697 3500 
L 697 3744 
Q 697 4328 969 4595 
Q 1241 4863 1831 4863 
L 2375 4863 
z
" transform="scale(0.015625)"/>
       <path id="DejaVuSans-72" d="M 2631 2963 
Q 2534 3019 2420 3045 
Q 2306 3072 2169 3072 
Q 1681 3072 1420 2755 
Q 1159 2438 1159 1844 
L 1159 0 
L 581 0 
L 581 3500 
L 1159 3500 
L 1159 2956 
Q 1341 3275 1631 3429 
Q 1922 3584 2338 3584 
Q 2397 3584 2469 3576 
Q 2541 3569 2628 3553 
L 2631 2963 
z
" transform="scale(0.015625)"/>
       <path id="DejaVuSans-6f" d="M 1959 3097 
Q 1497 3097 1228 2736 
Q 959 2375 959 1747 
Q 959 1119 1226 758 
Q 1494 397 1959 397 
Q 2419 397 2687 759 
Q 2956 1122 2956 1747 
Q 2956 2369 2687 2733 
Q 2419 3097 1959 3097 
z
M 1959 3584 
Q 2709 3584 3137 3096 
Q 3566 2609 3566 1747 
Q 3566 888 3137 398 
Q 2709 -91 1959 -91 
Q 1206 -91 779 398 
Q 353 888 353 1747 
Q 353 2609 779 3096 
Q 1206 3584 1959 3584 
z
" transform="scale(0.015625)"/>
      </defs>
      <use xlink:href="#DejaVuSans-75"/>
      <use xlink:href="#DejaVuSans-70" transform="translate(63.378906 0)"/>
      <use xlink:href="#DejaVuSans-64" transform="translate(126.855469 0)"/>
      <use xlink:href="#DejaVuSans-61" transform="translate(190.332031 0)"/>
      <use xlink:href="#DejaVuSans-74" transform="translate(251.611328 0)"/>
      <use xlink:href="#DejaVuSans-65" transform="translate(290.820312 0)"/>
      <use xlink:href="#DejaVuSans-20" transform="translate(352.34375 0)"/>
      <use xlink:href="#DejaVuSans-61" transform="translate(384.130859 0)"/>
      <use xlink:href="#DejaVuSans-66" transform="translate(445.410156 0)"/>
      <use xlink:href="#DejaVuSans-74" transform="translate(478.865234 0)"/>
      <use xlink:href="#DejaVuSans-65" transform="translate(518.074219 0)"/>
      <use xlink:href="#DejaVuSans-72" transform="translate(579.597656 0)"/>
      <use xlink:href="#DejaVuSans-20" transform="translate(620.710938 0)"/>
      <use xlink:href="#DejaVuSans-31" transform="translate(652.498047 0)"/>
      <use xlink:href="#DejaVuSans-30" transform="translate(716.121094 0)"/>
      <use xlink:href="#DejaVuSans-20" transform="translate(779.744141 0)"/>
      <use xlink:href="#DejaVuSans-69" transform="translate(811.53125 0)"/>
      <use xlink:href="#DejaVuSans-74" transform="translate(839.314453 0)"/>
      <use xlink:href="#DejaVuSans-65" transform="translate(878.523438 0)"/>
      <use xlink:href="#DejaVuSans-72" transform="translate(940.046875 0)"/>
      <use xlink:href="#DejaVuSans-61" transform="translate(981.160156 0)"/>
      <use xlink:href="#DejaVuSans-74" transform="translate(1042.439453 0)"/>
      <use xlink:href="#DejaVuSans-69" transform="translate(1081.648438 0)"/>
      <use xlink:href="#DejaVuSans-6f" transform="translate(1109.431641 0)"/>
      <use xlink:href="#DejaVuSans-6e" transform="translate(1170.613281 0)"/>
      <use xlink:href="#DejaVuSans-73" transform="translate(1233.992188 0)"/>
     </g>
    </g>
    <g id="line2d_34">
     <path d="M 51.828125 49.654688 
L 61.828125 49.654688 
L 71.828125 49.654688 
" style="fill: none; stroke: #2ca02c; stroke-width: 1.5; stroke-linecap: square"/>
    </g>
    <g id="text_17">
     <!-- update after 100 iterations -->
     <g transform="translate(79.828125 53.154688) scale(0.1 -0.1)">
      <use xlink:href="#DejaVuSans-75"/>
      <use xlink:href="#DejaVuSans-70" transform="translate(63.378906 0)"/>
      <use xlink:href="#DejaVuSans-64" transform="translate(126.855469 0)"/>
      <use xlink:href="#DejaVuSans-61" transform="translate(190.332031 0)"/>
      <use xlink:href="#DejaVuSans-74" transform="translate(251.611328 0)"/>
      <use xlink:href="#DejaVuSans-65" transform="translate(290.820312 0)"/>
      <use xlink:href="#DejaVuSans-20" transform="translate(352.34375 0)"/>
      <use xlink:href="#DejaVuSans-61" transform="translate(384.130859 0)"/>
      <use xlink:href="#DejaVuSans-66" transform="translate(445.410156 0)"/>
      <use xlink:href="#DejaVuSans-74" transform="translate(478.865234 0)"/>
      <use xlink:href="#DejaVuSans-65" transform="translate(518.074219 0)"/>
      <use xlink:href="#DejaVuSans-72" transform="translate(579.597656 0)"/>
      <use xlink:href="#DejaVuSans-20" transform="translate(620.710938 0)"/>
      <use xlink:href="#DejaVuSans-31" transform="translate(652.498047 0)"/>
      <use xlink:href="#DejaVuSans-30" transform="translate(716.121094 0)"/>
      <use xlink:href="#DejaVuSans-30" transform="translate(779.744141 0)"/>
      <use xlink:href="#DejaVuSans-20" transform="translate(843.367188 0)"/>
      <use xlink:href="#DejaVuSans-69" transform="translate(875.154297 0)"/>
      <use xlink:href="#DejaVuSans-74" transform="translate(902.9375 0)"/>
      <use xlink:href="#DejaVuSans-65" transform="translate(942.146484 0)"/>
      <use xlink:href="#DejaVuSans-72" transform="translate(1003.669922 0)"/>
      <use xlink:href="#DejaVuSans-61" transform="translate(1044.783203 0)"/>
      <use xlink:href="#DejaVuSans-74" transform="translate(1106.0625 0)"/>
      <use xlink:href="#DejaVuSans-69" transform="translate(1145.271484 0)"/>
      <use xlink:href="#DejaVuSans-6f" transform="translate(1173.054688 0)"/>
      <use xlink:href="#DejaVuSans-6e" transform="translate(1234.236328 0)"/>
      <use xlink:href="#DejaVuSans-73" transform="translate(1297.615234 0)"/>
     </g>
    </g>
   </g>
  </g>
 </g>
 <defs>
  <clipPath id="p5b191a5cdf">
   <rect x="42.828125" y="7.2" width="390.6" height="123.515603"/>
  </clipPath>
 </defs>
</svg>
