<?xml version="1.0" encoding="utf-8" standalone="no"?>
<!DOCTYPE svg PUBLIC "-//W3C//DTD SVG 1.1//EN"
  "http://www.w3.org/Graphics/SVG/1.1/DTD/svg11.dtd">
<svg xmlns:xlink="http://www.w3.org/1999/xlink" width="449.6pt" height="170.547715pt" viewBox="0 0 449.6 170.547715" xmlns="http://www.w3.org/2000/svg" version="1.1">
 <metadata>
  <rdf:RDF xmlns:dc="http://purl.org/dc/elements/1.1/" xmlns:cc="http://creativecommons.org/ns#" xmlns:rdf="http://www.w3.org/1999/02/22-rdf-syntax-ns#">
   <cc:Work>
    <dc:type rdf:resource="http://purl.org/dc/dcmitype/StillImage"/>
    <dc:date>2025-10-21T11:00:09.466846</dc:date>
    <dc:format>image/svg+xml</dc:format>
    <dc:creator>
     <cc:Agent>
      <dc:title>Matplotlib v3.10.3, https://matplotlib.org/</dc:title>
     </cc:Agent>
    </dc:creator>
   </cc:Work>
  </rdf:RDF>
 </metadata>
 <defs>
  <style type="text/css">*{stroke-linejoin: round; stroke-linecap: butt}</style>
 </defs>
 <g id="figure_1">
  <g id="patch_1">
   <path d="M 0 170.547715 
L 449.6 170.547715 
L 449.6 -0 
L 0 -0 
z
" style="fill: #ffffff"/>
  </g>
  <g id="axes_1">
   <g id="patch_2">
    <path d="M 51.8 132.991465 
L 442.4 132.991465 
L 442.4 7.2 
L 51.8 7.2 
z
" style="fill: #ffffff"/>
   </g>
   <g id="matplotlib.axis_1">
    <g id="xtick_1">
     <g id="line2d_1">
      <defs>
       <path id="m395e0eb0de" d="M 0 0 
L 0 3.5 
" style="stroke: #000000; stroke-width: 0.8"/>
      </defs>
      <g>
       <use xlink:href="#m395e0eb0de" x="69.554545" y="132.991465" style="stroke: #000000; stroke-width: 0.8"/>
      </g>
     </g>
     <g id="text_1">
      <!-- 0 -->
      <g transform="translate(66.373295 147.589903) scale(0.1 -0.1)">
       <defs>
        <path id="DejaVuSans-30" d="M 2034 4250 
Q 1547 4250 1301 3770 
Q 1056 3291 1056 2328 
Q 1056 1369 1301 889 
Q 1547 409 2034 409 
Q 2525 409 2770 889 
Q 3016 1369 3016 2328 
Q 3016 3291 2770 3770 
Q 2525 4250 2034 4250 
z
M 2034 4750 
Q 2819 4750 3233 4129 
Q 3647 3509 3647 2328 
Q 3647 1150 3233 529 
Q 2819 -91 2034 -91 
Q 1250 -91 836 529 
Q 422 1150 422 2328 
Q 422 3509 836 4129 
Q 1250 4750 2034 4750 
z
" transform="scale(0.015625)"/>
       </defs>
       <use xlink:href="#DejaVuSans-30"/>
      </g>
     </g>
    </g>
    <g id="xtick_2">
     <g id="line2d_2">
      <g>
       <use xlink:href="#m395e0eb0de" x="116.9" y="132.991465" style="stroke: #000000; stroke-width: 0.8"/>
      </g>
     </g>
     <g id="text_2">
      <!-- 200 -->
      <g transform="translate(107.35625 147.589903) scale(0.1 -0.1)">
       <defs>
        <path id="DejaVuSans-32" d="M 1228 531 
L 3431 531 
L 3431 0 
L 469 0 
L 469 531 
Q 828 903 1448 1529 
Q 2069 2156 2228 2338 
Q 2531 2678 2651 2914 
Q 2772 3150 2772 3378 
Q 2772 3750 2511 3984 
Q 2250 4219 1831 4219 
Q 1534 4219 1204 4116 
Q 875 4013 500 3803 
L 500 4441 
Q 881 4594 1212 4672 
Q 1544 4750 1819 4750 
Q 2544 4750 2975 4387 
Q 3406 4025 3406 3419 
Q 3406 3131 3298 2873 
Q 3191 2616 2906 2266 
Q 2828 2175 2409 1742 
Q 1991 1309 1228 531 
z
" transform="scale(0.015625)"/>
       </defs>
       <use xlink:href="#DejaVuSans-32"/>
       <use xlink:href="#DejaVuSans-30" transform="translate(63.623047 0)"/>
       <use xlink:href="#DejaVuSans-30" transform="translate(127.246094 0)"/>
      </g>
     </g>
    </g>
    <g id="xtick_3">
     <g id="line2d_3">
      <g>
       <use xlink:href="#m395e0eb0de" x="164.245455" y="132.991465" style="stroke: #000000; stroke-width: 0.8"/>
      </g>
     </g>
     <g id="text_3">
      <!-- 400 -->
      <g transform="translate(154.701705 147.589903) scale(0.1 -0.1)">
       <defs>
        <path id="DejaVuSans-34" d="M 2419 4116 
L 825 1625 
L 2419 1625 
L 2419 4116 
z
M 2253 4666 
L 3047 4666 
L 3047 1625 
L 3713 1625 
L 3713 1100 
L 3047 1100 
L 3047 0 
L 2419 0 
L 2419 1100 
L 313 1100 
L 313 1709 
L 2253 4666 
z
" transform="scale(0.015625)"/>
       </defs>
       <use xlink:href="#DejaVuSans-34"/>
       <use xlink:href="#DejaVuSans-30" transform="translate(63.623047 0)"/>
       <use xlink:href="#DejaVuSans-30" transform="translate(127.246094 0)"/>
      </g>
     </g>
    </g>
    <g id="xtick_4">
     <g id="line2d_4">
      <g>
       <use xlink:href="#m395e0eb0de" x="211.590909" y="132.991465" style="stroke: #000000; stroke-width: 0.8"/>
      </g>
     </g>
     <g id="text_4">
      <!-- 600 -->
      <g transform="translate(202.047159 147.589903) scale(0.1 -0.1)">
       <defs>
        <path id="DejaVuSans-36" d="M 2113 2584 
Q 1688 2584 1439 2293 
Q 1191 2003 1191 1497 
Q 1191 994 1439 701 
Q 1688 409 2113 409 
Q 2538 409 2786 701 
Q 3034 994 3034 1497 
Q 3034 2003 2786 2293 
Q 2538 2584 2113 2584 
z
M 3366 4563 
L 3366 3988 
Q 3128 4100 2886 4159 
Q 2644 4219 2406 4219 
Q 1781 4219 1451 3797 
Q 1122 3375 1075 2522 
Q 1259 2794 1537 2939 
Q 1816 3084 2150 3084 
Q 2853 3084 3261 2657 
Q 3669 2231 3669 1497 
Q 3669 778 3244 343 
Q 2819 -91 2113 -91 
Q 1303 -91 875 529 
Q 447 1150 447 2328 
Q 447 3434 972 4092 
Q 1497 4750 2381 4750 
Q 2619 4750 2861 4703 
Q 3103 4656 3366 4563 
z
" transform="scale(0.015625)"/>
       </defs>
       <use xlink:href="#DejaVuSans-36"/>
       <use xlink:href="#DejaVuSans-30" transform="translate(63.623047 0)"/>
       <use xlink:href="#DejaVuSans-30" transform="translate(127.246094 0)"/>
      </g>
     </g>
    </g>
    <g id="xtick_5">
     <g id="line2d_5">
      <g>
       <use xlink:href="#m395e0eb0de" x="258.936364" y="132.991465" style="stroke: #000000; stroke-width: 0.8"/>
      </g>
     </g>
     <g id="text_5">
      <!-- 800 -->
      <g transform="translate(249.392614 147.589903) scale(0.1 -0.1)">
       <defs>
        <path id="DejaVuSans-38" d="M 2034 2216 
Q 1584 2216 1326 1975 
Q 1069 1734 1069 1313 
Q 1069 891 1326 650 
Q 1584 409 2034 409 
Q 2484 409 2743 651 
Q 3003 894 3003 1313 
Q 3003 1734 2745 1975 
Q 2488 2216 2034 2216 
z
M 1403 2484 
Q 997 2584 770 2862 
Q 544 3141 544 3541 
Q 544 4100 942 4425 
Q 1341 4750 2034 4750 
Q 2731 4750 3128 4425 
Q 3525 4100 3525 3541 
Q 3525 3141 3298 2862 
Q 3072 2584 2669 2484 
Q 3125 2378 3379 2068 
Q 3634 1759 3634 1313 
Q 3634 634 3220 271 
Q 2806 -91 2034 -91 
Q 1263 -91 848 271 
Q 434 634 434 1313 
Q 434 1759 690 2068 
Q 947 2378 1403 2484 
z
M 1172 3481 
Q 1172 3119 1398 2916 
Q 1625 2713 2034 2713 
Q 2441 2713 2670 2916 
Q 2900 3119 2900 3481 
Q 2900 3844 2670 4047 
Q 2441 4250 2034 4250 
Q 1625 4250 1398 4047 
Q 1172 3844 1172 3481 
z
" transform="scale(0.015625)"/>
       </defs>
       <use xlink:href="#DejaVuSans-38"/>
       <use xlink:href="#DejaVuSans-30" transform="translate(63.623047 0)"/>
       <use xlink:href="#DejaVuSans-30" transform="translate(127.246094 0)"/>
      </g>
     </g>
    </g>
    <g id="xtick_6">
     <g id="line2d_6">
      <g>
       <use xlink:href="#m395e0eb0de" x="306.281818" y="132.991465" style="stroke: #000000; stroke-width: 0.8"/>
      </g>
     </g>
     <g id="text_6">
      <!-- 1000 -->
      <g transform="translate(293.556818 147.589903) scale(0.1 -0.1)">
       <defs>
        <path id="DejaVuSans-31" d="M 794 531 
L 1825 531 
L 1825 4091 
L 703 3866 
L 703 4441 
L 1819 4666 
L 2450 4666 
L 2450 531 
L 3481 531 
L 3481 0 
L 794 0 
L 794 531 
z
" transform="scale(0.015625)"/>
       </defs>
       <use xlink:href="#DejaVuSans-31"/>
       <use xlink:href="#DejaVuSans-30" transform="translate(63.623047 0)"/>
       <use xlink:href="#DejaVuSans-30" transform="translate(127.246094 0)"/>
       <use xlink:href="#DejaVuSans-30" transform="translate(190.869141 0)"/>
      </g>
     </g>
    </g>
    <g id="xtick_7">
     <g id="line2d_7">
      <g>
       <use xlink:href="#m395e0eb0de" x="353.627273" y="132.991465" style="stroke: #000000; stroke-width: 0.8"/>
      </g>
     </g>
     <g id="text_7">
      <!-- 1200 -->
      <g transform="translate(340.902273 147.589903) scale(0.1 -0.1)">
       <use xlink:href="#DejaVuSans-31"/>
       <use xlink:href="#DejaVuSans-32" transform="translate(63.623047 0)"/>
       <use xlink:href="#DejaVuSans-30" transform="translate(127.246094 0)"/>
       <use xlink:href="#DejaVuSans-30" transform="translate(190.869141 0)"/>
      </g>
     </g>
    </g>
    <g id="xtick_8">
     <g id="line2d_8">
      <g>
       <use xlink:href="#m395e0eb0de" x="400.972727" y="132.991465" style="stroke: #000000; stroke-width: 0.8"/>
      </g>
     </g>
     <g id="text_8">
      <!-- 1400 -->
      <g transform="translate(388.247727 147.589903) scale(0.1 -0.1)">
       <use xlink:href="#DejaVuSans-31"/>
       <use xlink:href="#DejaVuSans-34" transform="translate(63.623047 0)"/>
       <use xlink:href="#DejaVuSans-30" transform="translate(127.246094 0)"/>
       <use xlink:href="#DejaVuSans-30" transform="translate(190.869141 0)"/>
      </g>
     </g>
    </g>
    <g id="text_9">
     <!-- index -->
     <g transform="translate(233.419531 161.268028) scale(0.1 -0.1)">
      <defs>
       <path id="DejaVuSans-69" d="M 603 3500 
L 1178 3500 
L 1178 0 
L 603 0 
L 603 3500 
z
M 603 4863 
L 1178 4863 
L 1178 4134 
L 603 4134 
L 603 4863 
z
" transform="scale(0.015625)"/>
       <path id="DejaVuSans-6e" d="M 3513 2113 
L 3513 0 
L 2938 0 
L 2938 2094 
Q 2938 2591 2744 2837 
Q 2550 3084 2163 3084 
Q 1697 3084 1428 2787 
Q 1159 2491 1159 1978 
L 1159 0 
L 581 0 
L 581 3500 
L 1159 3500 
L 1159 2956 
Q 1366 3272 1645 3428 
Q 1925 3584 2291 3584 
Q 2894 3584 3203 3211 
Q 3513 2838 3513 2113 
z
" transform="scale(0.015625)"/>
       <path id="DejaVuSans-64" d="M 2906 2969 
L 2906 4863 
L 3481 4863 
L 3481 0 
L 2906 0 
L 2906 525 
Q 2725 213 2448 61 
Q 2172 -91 1784 -91 
Q 1150 -91 751 415 
Q 353 922 353 1747 
Q 353 2572 751 3078 
Q 1150 3584 1784 3584 
Q 2172 3584 2448 3432 
Q 2725 3281 2906 2969 
z
M 947 1747 
Q 947 1113 1208 752 
Q 1469 391 1925 391 
Q 2381 391 2643 752 
Q 2906 1113 2906 1747 
Q 2906 2381 2643 2742 
Q 2381 3103 1925 3103 
Q 1469 3103 1208 2742 
Q 947 2381 947 1747 
z
" transform="scale(0.015625)"/>
       <path id="DejaVuSans-65" d="M 3597 1894 
L 3597 1613 
L 953 1613 
Q 991 1019 1311 708 
Q 1631 397 2203 397 
Q 2534 397 2845 478 
Q 3156 559 3463 722 
L 3463 178 
Q 3153 47 2828 -22 
Q 2503 -91 2169 -91 
Q 1331 -91 842 396 
Q 353 884 353 1716 
Q 353 2575 817 3079 
Q 1281 3584 2069 3584 
Q 2775 3584 3186 3129 
Q 3597 2675 3597 1894 
z
M 3022 2063 
Q 3016 2534 2758 2815 
Q 2500 3097 2075 3097 
Q 1594 3097 1305 2825 
Q 1016 2553 972 2059 
L 3022 2063 
z
" transform="scale(0.015625)"/>
       <path id="DejaVuSans-78" d="M 3513 3500 
L 2247 1797 
L 3578 0 
L 2900 0 
L 1881 1375 
L 863 0 
L 184 0 
L 1544 1831 
L 300 3500 
L 978 3500 
L 1906 2253 
L 2834 3500 
L 3513 3500 
z
" transform="scale(0.015625)"/>
      </defs>
      <use xlink:href="#DejaVuSans-69"/>
      <use xlink:href="#DejaVuSans-6e" transform="translate(27.783203 0)"/>
      <use xlink:href="#DejaVuSans-64" transform="translate(91.162109 0)"/>
      <use xlink:href="#DejaVuSans-65" transform="translate(154.638672 0)"/>
      <use xlink:href="#DejaVuSans-78" transform="translate(214.412109 0)"/>
     </g>
    </g>
   </g>
   <g id="matplotlib.axis_2">
    <g id="ytick_1">
     <g id="line2d_9">
      <defs>
       <path id="m5ba32e1a25" d="M 0 0 
L -3.5 0 
" style="stroke: #000000; stroke-width: 0.8"/>
      </defs>
      <g>
       <use xlink:href="#m5ba32e1a25" x="51.8" y="111.180686" style="stroke: #000000; stroke-width: 0.8"/>
      </g>
     </g>
     <g id="text_10">
      <!-- $\mathdefault{10^{-3}}$ -->
      <g transform="translate(21.3 114.979905) scale(0.1 -0.1)">
       <defs>
        <path id="DejaVuSans-2212" d="M 678 2272 
L 4684 2272 
L 4684 1741 
L 678 1741 
L 678 2272 
z
" transform="scale(0.015625)"/>
        <path id="DejaVuSans-33" d="M 2597 2516 
Q 3050 2419 3304 2112 
Q 3559 1806 3559 1356 
Q 3559 666 3084 287 
Q 2609 -91 1734 -91 
Q 1441 -91 1130 -33 
Q 819 25 488 141 
L 488 750 
Q 750 597 1062 519 
Q 1375 441 1716 441 
Q 2309 441 2620 675 
Q 2931 909 2931 1356 
Q 2931 1769 2642 2001 
Q 2353 2234 1838 2234 
L 1294 2234 
L 1294 2753 
L 1863 2753 
Q 2328 2753 2575 2939 
Q 2822 3125 2822 3475 
Q 2822 3834 2567 4026 
Q 2313 4219 1838 4219 
Q 1578 4219 1281 4162 
Q 984 4106 628 3988 
L 628 4550 
Q 988 4650 1302 4700 
Q 1616 4750 1894 4750 
Q 2613 4750 3031 4423 
Q 3450 4097 3450 3541 
Q 3450 3153 3228 2886 
Q 3006 2619 2597 2516 
z
" transform="scale(0.015625)"/>
       </defs>
       <use xlink:href="#DejaVuSans-31" transform="translate(0 0.765625)"/>
       <use xlink:href="#DejaVuSans-30" transform="translate(63.623047 0.765625)"/>
       <use xlink:href="#DejaVuSans-2212" transform="translate(128.203125 39.046875) scale(0.7)"/>
       <use xlink:href="#DejaVuSans-33" transform="translate(186.855469 39.046875) scale(0.7)"/>
      </g>
     </g>
    </g>
    <g id="ytick_2">
     <g id="line2d_10">
      <g>
       <use xlink:href="#m5ba32e1a25" x="51.8" y="78.038868" style="stroke: #000000; stroke-width: 0.8"/>
      </g>
     </g>
     <g id="text_11">
      <!-- $\mathdefault{10^{-1}}$ -->
      <g transform="translate(21.3 81.838087) scale(0.1 -0.1)">
       <use xlink:href="#DejaVuSans-31" transform="translate(0 0.684375)"/>
       <use xlink:href="#DejaVuSans-30" transform="translate(63.623047 0.684375)"/>
       <use xlink:href="#DejaVuSans-2212" transform="translate(128.203125 38.965625) scale(0.7)"/>
       <use xlink:href="#DejaVuSans-31" transform="translate(186.855469 38.965625) scale(0.7)"/>
      </g>
     </g>
    </g>
    <g id="ytick_3">
     <g id="line2d_11">
      <g>
       <use xlink:href="#m5ba32e1a25" x="51.8" y="44.89705" style="stroke: #000000; stroke-width: 0.8"/>
      </g>
     </g>
     <g id="text_12">
      <!-- $\mathdefault{10^{1}}$ -->
      <g transform="translate(27.2 48.696269) scale(0.1 -0.1)">
       <use xlink:href="#DejaVuSans-31" transform="translate(0 0.684375)"/>
       <use xlink:href="#DejaVuSans-30" transform="translate(63.623047 0.684375)"/>
       <use xlink:href="#DejaVuSans-31" transform="translate(128.203125 38.965625) scale(0.7)"/>
      </g>
     </g>
    </g>
    <g id="ytick_4">
     <g id="line2d_12">
      <g>
       <use xlink:href="#m5ba32e1a25" x="51.8" y="11.755232" style="stroke: #000000; stroke-width: 0.8"/>
      </g>
     </g>
     <g id="text_13">
      <!-- $\mathdefault{10^{3}}$ -->
      <g transform="translate(27.2 15.554451) scale(0.1 -0.1)">
       <use xlink:href="#DejaVuSans-31" transform="translate(0 0.765625)"/>
       <use xlink:href="#DejaVuSans-30" transform="translate(63.623047 0.765625)"/>
       <use xlink:href="#DejaVuSans-33" transform="translate(128.203125 39.046875) scale(0.7)"/>
      </g>
     </g>
    </g>
    <g id="text_14">
     <!-- $|\lambda_i|$ -->
     <g transform="translate(14.9 77.545733) rotate(-90) scale(0.1 -0.1)">
      <defs>
       <path id="DejaVuSans-7c" d="M 1344 4891 
L 1344 -1509 
L 813 -1509 
L 813 4891 
L 1344 4891 
z
" transform="scale(0.015625)"/>
       <path id="DejaVuSans-Oblique-3bb" d="M 2350 4316 
L 3125 0 
L 2516 0 
L 2038 2588 
L 328 0 
L -281 0 
L 1903 3356 
L 1794 3975 
Q 1725 4369 1391 4369 
L 1091 4369 
L 1184 4863 
L 1550 4856 
Q 2253 4847 2350 4316 
z
" transform="scale(0.015625)"/>
       <path id="DejaVuSans-Oblique-69" d="M 1172 4863 
L 1747 4863 
L 1606 4134 
L 1031 4134 
L 1172 4863 
z
M 909 3500 
L 1484 3500 
L 800 0 
L 225 0 
L 909 3500 
z
" transform="scale(0.015625)"/>
      </defs>
      <use xlink:href="#DejaVuSans-7c" transform="translate(0 0.578125)"/>
      <use xlink:href="#DejaVuSans-Oblique-3bb" transform="translate(33.691406 0.578125)"/>
      <use xlink:href="#DejaVuSans-Oblique-69" transform="translate(92.871094 -15.828125) scale(0.7)"/>
      <use xlink:href="#DejaVuSans-7c" transform="translate(115.053711 0.578125)"/>
     </g>
    </g>
   </g>
   <g id="line2d_13">
    <path d="M 69.554545 12.917794 
L 70.028 37.435765 
L 70.264727 37.435765 
L 70.501455 38.516297 
L 70.738182 38.516297 
L 70.974909 38.807727 
L 71.211636 39.361565 
L 71.448364 39.361565 
L 71.685091 39.669642 
L 71.921818 41.604253 
L 72.158545 41.604253 
L 72.395273 42.126992 
L 72.632 42.126992 
L 72.868727 42.353487 
L 73.105455 43.376713 
L 73.342182 43.376713 
L 73.578909 43.917312 
L 73.815636 43.917312 
L 74.052364 44.417548 
L 74.525818 44.489828 
L 74.762545 45.095751 
L 75.472727 45.140154 
L 75.709455 45.348611 
L 75.946182 45.348611 
L 76.182909 45.749087 
L 77.129818 45.93686 
L 77.366545 46.697664 
L 78.076727 46.799079 
L 78.313455 47.122787 
L 78.786909 47.168762 
L 79.497091 47.433153 
L 79.733818 47.433153 
L 79.970545 48.014845 
L 80.207273 48.014845 
L 80.444 48.428839 
L 80.680727 48.428839 
L 81.154182 48.546057 
L 82.101091 48.692578 
L 82.337818 49.032548 
L 82.574545 49.032548 
L 82.811273 49.569653 
L 83.048 49.569653 
L 83.521455 49.689112 
L 84.231636 49.767604 
L 84.468364 50.060949 
L 84.705091 50.060949 
L 84.941818 50.308016 
L 85.178545 50.308016 
L 85.652 50.427252 
L 85.888727 50.881479 
L 86.125455 50.881479 
L 86.362182 51.14079 
L 86.598909 51.14079 
L 86.835636 51.305329 
L 87.545818 51.415476 
L 87.782545 51.937724 
L 88.492727 51.977666 
L 88.729455 52.119569 
L 89.202909 52.130567 
L 89.676364 52.235354 
L 90.149818 52.276792 
L 90.386545 52.493611 
L 90.86 52.561937 
L 91.096727 52.731177 
L 92.517091 52.983724 
L 92.753818 53.36903 
L 93.227273 53.379878 
L 93.464 53.606978 
L 93.700727 53.606978 
L 93.937455 53.858765 
L 95.121091 53.88865 
L 95.357818 54.189879 
L 96.541455 54.26216 
L 97.014909 54.44243 
L 97.725091 54.547712 
L 98.198545 54.653041 
L 101.039273 55.007182 
L 101.276 55.196812 
L 101.512727 55.196812 
L 101.749455 55.341599 
L 103.406545 55.443256 
L 104.116727 55.686172 
L 105.300364 55.719899 
L 105.537091 55.865932 
L 106.247273 55.928001 
L 106.484 56.065118 
L 107.194182 56.165149 
L 107.430909 56.312217 
L 108.141091 56.382651 
L 108.377818 56.510399 
L 109.088 56.575644 
L 109.798182 56.641012 
L 110.981818 56.70823 
L 111.455273 56.766104 
L 111.692 57.003675 
L 112.402182 57.028362 
L 112.875636 57.134672 
L 113.349091 57.2131 
L 114.059273 57.218176 
L 114.296 57.402991 
L 114.532727 57.402991 
L 114.769455 57.535332 
L 115.006182 57.535332 
L 115.242909 57.682135 
L 115.953091 57.777046 
L 117.373455 57.983148 
L 119.977455 58.084978 
L 120.687636 58.130283 
L 121.397818 58.230829 
L 123.054909 58.509702 
L 124.238545 58.577828 
L 124.948727 58.714425 
L 125.658909 58.772892 
L 126.369091 58.958662 
L 128.262909 59.039793 
L 128.973091 59.13733 
L 130.156727 59.234358 
L 132.287273 59.33158 
L 133.470909 59.479942 
L 133.707636 59.479942 
L 133.944364 59.630884 
L 134.654545 59.707807 
L 135.364727 59.783871 
L 136.548364 59.873572 
L 139.625818 60.358215 
L 142.703273 60.443301 
L 147.201091 60.911271 
L 147.437818 60.911271 
L 147.674545 61.049107 
L 150.278545 61.155456 
L 153.592727 61.394559 
L 154.539636 61.472637 
L 155.013091 61.584882 
L 155.723273 61.647127 
L 157.853818 61.743837 
L 158.090545 61.889432 
L 159.274182 61.980615 
L 160.694545 62.119224 
L 164.245455 62.337403 
L 165.665818 62.414144 
L 166.376 62.581501 
L 167.559636 62.656295 
L 167.796364 62.809052 
L 169.453455 62.878152 
L 170.163636 62.970482 
L 172.530909 63.075941 
L 181.763273 63.995066 
L 182 64.160166 
L 183.183636 64.263333 
L 188.391636 64.665415 
L 189.575273 64.857348 
L 190.758909 64.964007 
L 192.889455 65.114933 
L 193.126182 65.26774 
L 195.02 65.35041 
L 195.730182 65.432643 
L 195.966909 65.432643 
L 196.440364 65.551332 
L 199.281091 65.804897 
L 199.517818 65.946692 
L 201.174909 66.031633 
L 201.648364 66.125575 
L 202.358545 66.267183 
L 204.015636 66.349006 
L 204.252364 66.505312 
L 205.436 66.588498 
L 212.301091 67.462653 
L 213.721455 67.543548 
L 214.431636 67.626557 
L 214.905091 67.730102 
L 217.982545 67.972164 
L 218.456 68.064772 
L 218.692727 68.393105 
L 219.402909 68.417124 
L 219.876364 68.524897 
L 222.717091 68.865976 
L 222.953818 69.06658 
L 225.794545 69.231935 
L 226.031273 69.252232 
L 226.504727 69.502535 
L 227.688364 69.610978 
L 228.398545 69.736096 
L 230.055636 69.805462 
L 230.765818 69.995424 
L 232.186182 70.108255 
L 232.422909 70.3025 
L 233.606545 70.408687 
L 234.08 70.499593 
L 234.553455 70.504179 
L 234.790182 70.684642 
L 235.500364 70.773525 
L 236.210545 70.840391 
L 236.447273 70.840391 
L 236.684 71.003756 
L 237.394182 71.093151 
L 237.630909 71.292489 
L 238.814545 71.341511 
L 239.051273 71.513919 
L 240.234909 71.613854 
L 240.945091 71.674066 
L 241.655273 71.777401 
L 245.442909 72.790182 
L 246.153091 72.813958 
L 246.389818 73.043 
L 247.1 73.089267 
L 247.336727 73.371427 
L 248.757091 73.446962 
L 249.230545 73.48914 
L 249.467273 73.721096 
L 250.177455 73.791577 
L 250.414182 74.034797 
L 251.597818 74.093374 
L 251.834545 74.310397 
L 253.491636 74.405033 
L 257.279273 75.314773 
L 257.516 75.440781 
L 257.752727 75.440781 
L 258.462909 75.760177 
L 258.699636 75.760177 
L 258.936364 75.909535 
L 260.356727 75.945088 
L 260.593455 76.340834 
L 261.303636 76.411485 
L 261.777091 76.49935 
L 262.724 76.567671 
L 262.960727 76.747299 
L 263.197455 76.747299 
L 263.434182 76.971127 
L 263.670909 76.971127 
L 263.907636 77.16391 
L 264.617818 77.190119 
L 265.091273 77.302026 
L 265.564727 77.388598 
L 266.985091 77.50073 
L 267.221818 77.740186 
L 267.458545 77.740186 
L 267.932 77.948141 
L 268.405455 78.048972 
L 269.115636 78.143278 
L 269.352364 78.555759 
L 270.536 78.63314 
L 271.009455 78.742679 
L 271.956364 78.991702 
L 276.217455 79.989445 
L 277.164364 80.059922 
L 277.401091 80.391138 
L 277.637818 80.391138 
L 277.874545 80.669223 
L 278.111273 80.669223 
L 278.348 80.840901 
L 280.005091 80.942625 
L 282.372364 81.239576 
L 282.845818 81.242036 
L 283.082545 81.671733 
L 283.319273 81.671733 
L 283.556 81.926396 
L 284.029455 81.946129 
L 284.266182 82.341603 
L 284.976364 82.347104 
L 285.213091 82.475129 
L 286.16 82.566341 
L 286.633455 82.691307 
L 288.053818 82.847614 
L 289.474182 82.954196 
L 289.947636 83.051241 
L 292.314909 83.236912 
L 294.445455 83.643316 
L 294.682182 83.643316 
L 294.918909 83.771875 
L 295.629091 83.873508 
L 297.049455 84.280025 
L 298.706545 84.331277 
L 299.416727 84.572847 
L 302.020727 84.652407 
L 303.204364 84.747224 
L 304.861455 84.823731 
L 305.098182 84.951658 
L 305.334909 84.951658 
L 305.571636 85.093416 
L 309.122545 85.161278 
L 309.596 85.271247 
L 315.514182 85.814971 
L 315.987636 85.89194 
L 317.881455 86.096396 
L 320.012 86.202028 
L 322.379273 86.331045 
L 323.799636 86.40563 
L 324.273091 86.505471 
L 326.877091 86.619168 
L 327.824 86.649464 
L 328.060727 86.781521 
L 329.244364 86.875871 
L 330.428 87.141173 
L 332.795273 87.18826 
L 333.268727 87.292936 
L 336.346182 87.510724 
L 338.950182 87.60943 
L 339.423636 87.700365 
L 343.684727 87.91393 
L 346.052 88.086925 
L 348.419273 88.184769 
L 348.892727 88.279594 
L 349.602909 88.364786 
L 352.443636 88.463054 
L 353.153818 88.524824 
L 355.284364 88.606062 
L 355.757818 88.668516 
L 359.072 88.880041 
L 359.545455 88.966137 
L 360.492364 89.005639 
L 368.304364 89.578162 
L 368.541091 89.759169 
L 370.908364 89.82251 
L 371.381818 89.910679 
L 372.565455 90.076092 
L 373.275636 90.119816 
L 373.749091 90.238764 
L 377.536727 90.500189 
L 382.508 90.856802 
L 382.981455 90.977016 
L 384.638545 91.235633 
L 385.348727 91.308719 
L 385.822182 91.379955 
L 386.769091 91.384681 
L 387.242545 91.502119 
L 387.952727 91.646713 
L 391.030182 91.743286 
L 391.977091 91.844988 
L 392.213818 92.169297 
L 393.870909 92.23809 
L 394.107636 92.370768 
L 394.817818 92.377275 
L 395.054545 92.587209 
L 395.764727 92.674323 
L 396.001455 92.844675 
L 397.658545 92.920455 
L 398.132 93.020064 
L 399.078909 93.055803 
L 399.315636 93.292176 
L 400.972727 93.370747 
L 401.682909 93.525362 
L 402.393091 93.532166 
L 403.576727 94.014726 
L 404.286909 94.100501 
L 405.470545 94.284257 
L 405.707273 94.57683 
L 406.417455 94.654071 
L 406.890909 94.812944 
L 408.074545 94.918599 
L 408.311273 95.05788 
L 409.021455 95.094211 
L 409.258182 95.222406 
L 409.968364 95.232373 
L 410.205091 95.481254 
L 411.862182 95.638102 
L 412.098909 96.033746 
L 413.045818 96.072393 
L 413.282545 96.282098 
L 413.519273 96.282098 
L 413.756 96.80095 
L 413.992727 96.80095 
L 414.229455 97.052495 
L 414.939636 97.105828 
L 415.176364 97.268126 
L 415.886545 97.315256 
L 416.36 97.615755 
L 416.596727 97.615755 
L 417.070182 97.795174 
L 417.780364 97.887185 
L 418.253818 97.956812 
L 418.490545 98.599457 
L 418.964 98.696624 
L 419.200727 99.013992 
L 419.437455 99.013992 
L 419.674182 99.541355 
L 419.910909 99.541355 
L 420.147636 100.233942 
L 420.384364 100.233942 
L 420.621091 100.850162 
L 420.857818 100.850162 
L 421.094545 101.807456 
L 421.804727 102.078143 
L 422.041455 102.782431 
L 422.278182 102.782431 
L 422.514909 103.87004 
L 422.751636 103.87004 
L 422.988364 104.223732 
L 423.225091 104.223732 
L 423.461818 104.372497 
L 423.698545 104.372497 
L 423.935273 106.16577 
L 424.172 115.301571 
L 424.408727 115.301571 
L 424.645455 127.273671 
L 424.645455 127.273671 
" clip-path="url(#pe48b8b1f30)" style="fill: none; stroke: #1f77b4; stroke-width: 1.5; stroke-linecap: square"/>
   </g>
   <g id="patch_3">
    <path d="M 51.8 132.991465 
L 51.8 7.2 
" style="fill: none; stroke: #000000; stroke-width: 0.8; stroke-linejoin: miter; stroke-linecap: square"/>
   </g>
   <g id="patch_4">
    <path d="M 442.4 132.991465 
L 442.4 7.2 
" style="fill: none; stroke: #000000; stroke-width: 0.8; stroke-linejoin: miter; stroke-linecap: square"/>
   </g>
   <g id="patch_5">
    <path d="M 51.8 132.991465 
L 442.4 132.991465 
" style="fill: none; stroke: #000000; stroke-width: 0.8; stroke-linejoin: miter; stroke-linecap: square"/>
   </g>
   <g id="patch_6">
    <path d="M 51.8 7.2 
L 442.4 7.2 
" style="fill: none; stroke: #000000; stroke-width: 0.8; stroke-linejoin: miter; stroke-linecap: square"/>
   </g>
  </g>
 </g>
 <defs>
  <clipPath id="pe48b8b1f30">
   <rect x="51.8" y="7.2" width="390.6" height="125.791465"/>
  </clipPath>
 </defs>
</svg>
