<?xml version="1.0" encoding="utf-8" standalone="no"?>
<!DOCTYPE svg PUBLIC "-//W3C//DTD SVG 1.1//EN"
  "http://www.w3.org/Graphics/SVG/1.1/DTD/svg11.dtd">
<svg xmlns:xlink="http://www.w3.org/1999/xlink" width="356.720313pt" height="143.287968pt" viewBox="0 0 356.720313 143.287968" xmlns="http://www.w3.org/2000/svg" version="1.1">
 <metadata>
  <rdf:RDF xmlns:dc="http://purl.org/dc/elements/1.1/" xmlns:cc="http://creativecommons.org/ns#" xmlns:rdf="http://www.w3.org/1999/02/22-rdf-syntax-ns#">
   <cc:Work>
    <dc:type rdf:resource="http://purl.org/dc/dcmitype/StillImage"/>
    <dc:date>2025-01-14T09:38:53.162844</dc:date>
    <dc:format>image/svg+xml</dc:format>
    <dc:creator>
     <cc:Agent>
      <dc:title>Matplotlib v3.9.2, https://matplotlib.org/</dc:title>
     </cc:Agent>
    </dc:creator>
   </cc:Work>
  </rdf:RDF>
 </metadata>
 <defs>
  <style type="text/css">*{stroke-linejoin: round; stroke-linecap: butt}</style>
 </defs>
 <g id="figure_1">
  <g id="patch_1">
   <path d="M 0 143.287968 
L 356.720313 143.287968 
L 356.720313 0 
L 0 0 
z
" style="fill: #ffffff"/>
  </g>
  <g id="axes_1">
   <g id="patch_2">
    <path d="M 42.620313 105.731718 
L 349.520313 105.731718 
L 349.520313 9.999003 
L 42.620313 9.999003 
z
" style="fill: #ffffff"/>
   </g>
   <g id="matplotlib.axis_1">
    <g id="xtick_1">
     <g id="line2d_1">
      <defs>
       <path id="mf821b1b198" d="M 0 0 
L 0 3.5 
" style="stroke: #000000; stroke-width: 0.8"/>
      </defs>
      <g>
       <use xlink:href="#mf821b1b198" x="56.570313" y="105.731718" style="stroke: #000000; stroke-width: 0.8"/>
      </g>
     </g>
     <g id="text_1">
      <!-- −15 -->
      <g transform="translate(46.017969 120.330156) scale(0.1 -0.1)">
       <defs>
        <path id="DejaVuSans-2212" d="M 678 2272 
L 4684 2272 
L 4684 1741 
L 678 1741 
L 678 2272 
z
" transform="scale(0.015625)"/>
        <path id="DejaVuSans-31" d="M 794 531 
L 1825 531 
L 1825 4091 
L 703 3866 
L 703 4441 
L 1819 4666 
L 2450 4666 
L 2450 531 
L 3481 531 
L 3481 0 
L 794 0 
L 794 531 
z
" transform="scale(0.015625)"/>
        <path id="DejaVuSans-35" d="M 691 4666 
L 3169 4666 
L 3169 4134 
L 1269 4134 
L 1269 2991 
Q 1406 3038 1543 3061 
Q 1681 3084 1819 3084 
Q 2600 3084 3056 2656 
Q 3513 2228 3513 1497 
Q 3513 744 3044 326 
Q 2575 -91 1722 -91 
Q 1428 -91 1123 -41 
Q 819 9 494 109 
L 494 744 
Q 775 591 1075 516 
Q 1375 441 1709 441 
Q 2250 441 2565 725 
Q 2881 1009 2881 1497 
Q 2881 1984 2565 2268 
Q 2250 2553 1709 2553 
Q 1456 2553 1204 2497 
Q 953 2441 691 2322 
L 691 4666 
z
" transform="scale(0.015625)"/>
       </defs>
       <use xlink:href="#DejaVuSans-2212"/>
       <use xlink:href="#DejaVuSans-31" x="83.789062"/>
       <use xlink:href="#DejaVuSans-35" x="147.412109"/>
      </g>
     </g>
    </g>
    <g id="xtick_2">
     <g id="line2d_2">
      <g>
       <use xlink:href="#mf821b1b198" x="103.436454" y="105.731718" style="stroke: #000000; stroke-width: 0.8"/>
      </g>
     </g>
     <g id="text_2">
      <!-- −10 -->
      <g transform="translate(92.88411 120.330156) scale(0.1 -0.1)">
       <defs>
        <path id="DejaVuSans-30" d="M 2034 4250 
Q 1547 4250 1301 3770 
Q 1056 3291 1056 2328 
Q 1056 1369 1301 889 
Q 1547 409 2034 409 
Q 2525 409 2770 889 
Q 3016 1369 3016 2328 
Q 3016 3291 2770 3770 
Q 2525 4250 2034 4250 
z
M 2034 4750 
Q 2819 4750 3233 4129 
Q 3647 3509 3647 2328 
Q 3647 1150 3233 529 
Q 2819 -91 2034 -91 
Q 1250 -91 836 529 
Q 422 1150 422 2328 
Q 422 3509 836 4129 
Q 1250 4750 2034 4750 
z
" transform="scale(0.015625)"/>
       </defs>
       <use xlink:href="#DejaVuSans-2212"/>
       <use xlink:href="#DejaVuSans-31" x="83.789062"/>
       <use xlink:href="#DejaVuSans-30" x="147.412109"/>
      </g>
     </g>
    </g>
    <g id="xtick_3">
     <g id="line2d_3">
      <g>
       <use xlink:href="#mf821b1b198" x="150.302596" y="105.731718" style="stroke: #000000; stroke-width: 0.8"/>
      </g>
     </g>
     <g id="text_3">
      <!-- −5 -->
      <g transform="translate(142.931502 120.330156) scale(0.1 -0.1)">
       <use xlink:href="#DejaVuSans-2212"/>
       <use xlink:href="#DejaVuSans-35" x="83.789062"/>
      </g>
     </g>
    </g>
    <g id="xtick_4">
     <g id="line2d_4">
      <g>
       <use xlink:href="#mf821b1b198" x="197.168738" y="105.731718" style="stroke: #000000; stroke-width: 0.8"/>
      </g>
     </g>
     <g id="text_4">
      <!-- 0 -->
      <g transform="translate(193.987488 120.330156) scale(0.1 -0.1)">
       <use xlink:href="#DejaVuSans-30"/>
      </g>
     </g>
    </g>
    <g id="xtick_5">
     <g id="line2d_5">
      <g>
       <use xlink:href="#mf821b1b198" x="244.034879" y="105.731718" style="stroke: #000000; stroke-width: 0.8"/>
      </g>
     </g>
     <g id="text_5">
      <!-- 5 -->
      <g transform="translate(240.853629 120.330156) scale(0.1 -0.1)">
       <use xlink:href="#DejaVuSans-35"/>
      </g>
     </g>
    </g>
    <g id="xtick_6">
     <g id="line2d_6">
      <g>
       <use xlink:href="#mf821b1b198" x="290.901021" y="105.731718" style="stroke: #000000; stroke-width: 0.8"/>
      </g>
     </g>
     <g id="text_6">
      <!-- 10 -->
      <g transform="translate(284.538521 120.330156) scale(0.1 -0.1)">
       <use xlink:href="#DejaVuSans-31"/>
       <use xlink:href="#DejaVuSans-30" x="63.623047"/>
      </g>
     </g>
    </g>
    <g id="xtick_7">
     <g id="line2d_7">
      <g>
       <use xlink:href="#mf821b1b198" x="337.767163" y="105.731718" style="stroke: #000000; stroke-width: 0.8"/>
      </g>
     </g>
     <g id="text_7">
      <!-- 15 -->
      <g transform="translate(331.404663 120.330156) scale(0.1 -0.1)">
       <use xlink:href="#DejaVuSans-31"/>
       <use xlink:href="#DejaVuSans-35" x="63.623047"/>
      </g>
     </g>
    </g>
    <g id="text_8">
     <!-- t -->
     <g transform="translate(194.110156 134.008281) scale(0.1 -0.1)">
      <defs>
       <path id="DejaVuSans-74" d="M 1172 4494 
L 1172 3500 
L 2356 3500 
L 2356 3053 
L 1172 3053 
L 1172 1153 
Q 1172 725 1289 603 
Q 1406 481 1766 481 
L 2356 481 
L 2356 0 
L 1766 0 
Q 1100 0 847 248 
Q 594 497 594 1153 
L 594 3053 
L 172 3053 
L 172 3500 
L 594 3500 
L 594 4494 
L 1172 4494 
z
" transform="scale(0.015625)"/>
      </defs>
      <use xlink:href="#DejaVuSans-74"/>
     </g>
    </g>
   </g>
   <g id="matplotlib.axis_2">
    <g id="ytick_1">
     <g id="line2d_8">
      <defs>
       <path id="m2c2a9169bc" d="M 0 0 
L -3.5 0 
" style="stroke: #000000; stroke-width: 0.8"/>
      </defs>
      <g>
       <use xlink:href="#m2c2a9169bc" x="42.620313" y="104.731502" style="stroke: #000000; stroke-width: 0.8"/>
      </g>
     </g>
     <g id="text_9">
      <!-- −1 -->
      <g transform="translate(20.878125 108.530721) scale(0.1 -0.1)">
       <use xlink:href="#DejaVuSans-2212"/>
       <use xlink:href="#DejaVuSans-31" x="83.789062"/>
      </g>
     </g>
    </g>
    <g id="ytick_2">
     <g id="line2d_9">
      <g>
       <use xlink:href="#m2c2a9169bc" x="42.620313" y="57.86536" style="stroke: #000000; stroke-width: 0.8"/>
      </g>
     </g>
     <g id="text_10">
      <!-- 0 -->
      <g transform="translate(29.257813 61.664579) scale(0.1 -0.1)">
       <use xlink:href="#DejaVuSans-30"/>
      </g>
     </g>
    </g>
    <g id="ytick_3">
     <g id="line2d_10">
      <g>
       <use xlink:href="#m2c2a9169bc" x="42.620313" y="10.999219" style="stroke: #000000; stroke-width: 0.8"/>
      </g>
     </g>
     <g id="text_11">
      <!-- 1 -->
      <g transform="translate(29.257813 14.798437) scale(0.1 -0.1)">
       <use xlink:href="#DejaVuSans-31"/>
      </g>
     </g>
    </g>
    <g id="text_12">
     <!-- $\partial_t f$ -->
     <g transform="translate(14.798438 63.81536) rotate(-90) scale(0.1 -0.1)">
      <defs>
       <path id="DejaVuSans-2202" d="M 1366 -91 
Q 925 -91 638 175 
Q 297 491 297 1063 
Q 297 1656 597 2119 
Q 906 2594 1463 2594 
Q 1828 2594 2116 2366 
Q 2284 2231 2400 2006 
Q 2441 2259 2441 2547 
Q 2441 2969 2341 3213 
Q 2119 3753 1531 3753 
Q 1309 3753 966 3616 
L 966 4141 
Q 1328 4238 1653 4238 
Q 2491 4238 2847 3469 
Q 3013 3106 3013 2566 
Q 3013 2213 2934 1803 
Q 2738 778 2228 291 
Q 1828 -91 1366 -91 
z
M 831 969 
Q 831 656 969 488 
Q 1116 309 1341 309 
Q 1541 309 1700 450 
Q 1925 644 2091 959 
Q 2228 1219 2297 1497 
Q 2019 2169 1538 2169 
Q 1125 2169 944 1625 
Q 831 1288 831 969 
z
" transform="scale(0.015625)"/>
       <path id="DejaVuSans-Oblique-74" d="M 2706 3500 
L 2619 3053 
L 1472 3053 
L 1100 1153 
Q 1081 1047 1072 975 
Q 1063 903 1063 863 
Q 1063 663 1183 572 
Q 1303 481 1569 481 
L 2150 481 
L 2053 0 
L 1503 0 
Q 991 0 739 200 
Q 488 400 488 806 
Q 488 878 497 964 
Q 506 1050 525 1153 
L 897 3053 
L 409 3053 
L 500 3500 
L 978 3500 
L 1172 4494 
L 1747 4494 
L 1556 3500 
L 2706 3500 
z
" transform="scale(0.015625)"/>
       <path id="DejaVuSans-Oblique-66" d="M 3059 4863 
L 2969 4384 
L 2419 4384 
Q 2106 4384 1964 4261 
Q 1822 4138 1753 3809 
L 1691 3500 
L 2638 3500 
L 2553 3053 
L 1606 3053 
L 1013 0 
L 434 0 
L 1031 3053 
L 481 3053 
L 563 3500 
L 1113 3500 
L 1159 3744 
Q 1278 4363 1576 4613 
Q 1875 4863 2516 4863 
L 3059 4863 
z
" transform="scale(0.015625)"/>
      </defs>
      <use xlink:href="#DejaVuSans-2202" transform="translate(0 0.015625)"/>
      <use xlink:href="#DejaVuSans-Oblique-74" transform="translate(52.666016 -16.390625) scale(0.7)"/>
      <use xlink:href="#DejaVuSans-Oblique-66" transform="translate(82.84668 0.015625)"/>
     </g>
    </g>
   </g>
   <g id="line2d_11">
    <path d="M 56.570313 57.866872 
L 87.326218 57.890295 
L 93.916769 58.224338 
L 104.901021 58.959727 
L 107.097872 58.960637 
L 109.294722 58.83971 
L 111.491572 58.564094 
L 113.688423 58.107272 
L 115.885273 57.454459 
L 118.082124 56.608258 
L 122.475824 54.463481 
L 126.869525 52.204609 
L 129.066375 51.316163 
L 131.263226 50.778378 
L 133.460076 50.739482 
L 135.656927 51.333923 
L 137.853777 52.664327 
L 140.050627 54.782972 
L 142.247478 57.674939 
L 144.444328 61.245321 
L 148.838029 69.611909 
L 151.034879 73.80439 
L 153.23173 77.501495 
L 155.42858 80.294888 
L 157.625431 81.794926 
L 159.822281 81.672697 
L 162.019131 79.701609 
L 164.215982 75.793722 
L 166.412832 70.026049 
L 168.609683 62.652648 
L 170.806533 54.099542 
L 175.200234 35.859603 
L 177.397084 27.588132 
L 179.593935 20.846348 
L 181.790785 16.270894 
L 183.987635 14.350493 
L 186.184486 15.372033 
L 188.381336 19.384193 
L 190.578187 26.18328 
L 192.775037 35.323661 
L 194.971887 46.152446 
L 199.365588 69.578275 
L 201.562438 80.40706 
L 203.759289 89.547441 
L 205.956139 96.346528 
L 208.15299 100.358688 
L 210.34984 101.380228 
L 212.54669 99.459827 
L 214.743541 94.884373 
L 216.940391 88.142589 
L 219.137242 79.871118 
L 225.727793 53.078073 
L 227.924643 45.704672 
L 230.121494 39.936999 
L 232.318344 36.029112 
L 234.515194 34.058024 
L 236.712045 33.935795 
L 238.908895 35.435833 
L 241.105746 38.229226 
L 243.302596 41.926331 
L 249.893147 54.4854 
L 252.089998 58.055782 
L 254.286848 60.947749 
L 256.483698 63.066394 
L 258.680549 64.396798 
L 260.877399 64.991239 
L 263.07425 64.952342 
L 265.2711 64.414558 
L 267.46795 63.526112 
L 276.255352 59.122463 
L 278.452202 58.276262 
L 280.649053 57.623449 
L 282.845903 57.166627 
L 285.042753 56.891011 
L 287.239604 56.770083 
L 291.633305 56.859205 
L 309.208108 57.897255 
L 317.995509 57.944222 
L 335.570313 57.866236 
L 335.570313 57.866236 
" clip-path="url(#peec1a1e50e)" style="fill: none; stroke: #1f77b4; stroke-width: 1.5; stroke-linecap: square"/>
   </g>
   <g id="line2d_12">
    <path d="M 56.570313 57.865791 
L 87.326218 57.929618 
L 93.916769 58.303515 
L 102.704171 58.921486 
L 107.097872 58.911754 
L 109.294722 58.716033 
L 111.491572 58.351622 
L 113.688423 57.797398 
L 115.885273 57.046804 
L 118.082124 56.113373 
L 122.475824 53.879364 
L 124.672675 52.739829 
L 126.869525 51.737393 
L 129.066375 51.011793 
L 131.263226 50.711411 
L 133.460076 50.979019 
L 135.656927 51.93471 
L 137.853777 53.657443 
L 140.050627 56.167172 
L 142.247478 59.409815 
L 144.444328 63.24749 
L 151.034879 75.711213 
L 153.23173 78.990337 
L 155.42858 81.167646 
L 157.625431 81.880307 
L 159.822281 80.847247 
L 162.019131 77.908519 
L 164.215982 73.057006 
L 166.412832 66.457915 
L 168.609683 58.452473 
L 175.200234 31.625634 
L 177.397084 24.061452 
L 179.593935 18.355012 
L 181.790785 15.07406 
L 183.987635 14.610249 
L 186.184486 17.133527 
L 188.381336 22.566556 
L 190.578187 30.582767 
L 192.775037 40.629059 
L 199.365588 75.101662 
L 201.562438 85.147954 
L 203.759289 93.164165 
L 205.956139 98.597194 
L 208.15299 101.120472 
L 210.34984 100.656661 
L 212.54669 97.375709 
L 214.743541 91.669269 
L 216.940391 84.105087 
L 221.334092 66.187058 
L 223.530942 57.278248 
L 225.727793 49.272806 
L 227.924643 42.673715 
L 230.121494 37.822202 
L 232.318344 34.883474 
L 234.515194 33.850414 
L 236.712045 34.563075 
L 238.908895 36.740384 
L 241.105746 40.019508 
L 243.302596 43.998052 
L 247.696297 52.483231 
L 249.893147 56.320906 
L 252.089998 59.563549 
L 254.286848 62.073278 
L 256.483698 63.796011 
L 258.680549 64.751702 
L 260.877399 65.01931 
L 263.07425 64.718928 
L 265.2711 63.993328 
L 267.46795 62.990892 
L 274.058501 59.617348 
L 276.255352 58.683917 
L 278.452202 57.933323 
L 280.649053 57.379099 
L 282.845903 57.014688 
L 285.042753 56.818967 
L 289.436454 56.809235 
L 296.027005 57.258677 
L 302.617557 57.703676 
L 309.208108 57.916024 
L 317.995509 57.938941 
L 335.570313 57.865791 
L 335.570313 57.865791 
" clip-path="url(#peec1a1e50e)" style="fill: none; stroke-dasharray: 9.6,2.4,1.5,2.4; stroke-dashoffset: 0; stroke: #ff7f0e; stroke-width: 1.5"/>
   </g>
   <g id="line2d_13">
    <path d="M 56.570313 57.86536 
L 87.326218 57.89024 
L 93.916769 58.224382 
L 104.901021 58.959694 
L 107.097872 58.960669 
L 109.294722 58.83968 
L 111.491572 58.564122 
L 113.688423 58.107246 
L 115.885273 57.454484 
L 118.082124 56.608234 
L 122.475824 54.463459 
L 126.869525 52.204589 
L 129.066375 51.316182 
L 131.263226 50.778361 
L 133.460076 50.739499 
L 135.656927 51.333907 
L 137.853777 52.664342 
L 140.050627 54.782957 
L 142.247478 57.674953 
L 144.444328 61.245308 
L 148.838029 69.611898 
L 151.034879 73.804401 
L 153.23173 77.501484 
L 155.42858 80.294898 
L 157.625431 81.794917 
L 159.822281 81.672706 
L 162.019131 79.701601 
L 164.215982 75.793729 
L 166.412832 70.026042 
L 168.609683 62.652655 
L 170.806533 54.099536 
L 175.200234 35.859598 
L 177.397084 27.588137 
L 179.593935 20.846344 
L 181.790785 16.270898 
L 183.987635 14.35049 
L 186.184486 15.372035 
L 188.381336 19.384191 
L 190.578187 26.183282 
L 192.775037 35.32366 
L 194.971887 46.152447 
L 199.365588 69.578274 
L 201.562438 80.407061 
L 203.759289 89.547439 
L 205.956139 96.34653 
L 208.15299 100.358686 
L 210.34984 101.380231 
L 212.54669 99.459823 
L 214.743541 94.884377 
L 216.940391 88.142584 
L 219.137242 79.871123 
L 225.727793 53.078066 
L 227.924643 45.704679 
L 230.121494 39.936992 
L 232.318344 36.02912 
L 234.515194 34.058015 
L 236.712045 33.935804 
L 238.908895 35.435823 
L 241.105746 38.229236 
L 243.302596 41.92632 
L 249.893147 54.485413 
L 252.089998 58.055768 
L 254.286848 60.947764 
L 256.483698 63.066379 
L 258.680549 64.396814 
L 260.877399 64.991222 
L 263.07425 64.95236 
L 265.2711 64.414539 
L 267.46795 63.526132 
L 276.255352 59.122487 
L 278.452202 58.276237 
L 280.649053 57.623475 
L 282.845903 57.166599 
L 285.042753 56.891041 
L 287.239604 56.770052 
L 291.633305 56.85917 
L 309.208108 57.897195 
L 317.995509 57.944135 
L 335.570313 57.86563 
L 335.570313 57.86563 
" clip-path="url(#peec1a1e50e)" style="fill: none; stroke-dasharray: 5.55,2.4; stroke-dashoffset: 0; stroke: #2ca02c; stroke-width: 1.5"/>
   </g>
   <g id="patch_3">
    <path d="M 42.620313 105.731718 
L 42.620313 9.999003 
" style="fill: none; stroke: #000000; stroke-width: 0.8; stroke-linejoin: miter; stroke-linecap: square"/>
   </g>
   <g id="patch_4">
    <path d="M 349.520313 105.731718 
L 349.520313 9.999003 
" style="fill: none; stroke: #000000; stroke-width: 0.8; stroke-linejoin: miter; stroke-linecap: square"/>
   </g>
   <g id="patch_5">
    <path d="M 42.620313 105.731718 
L 349.520313 105.731718 
" style="fill: none; stroke: #000000; stroke-width: 0.8; stroke-linejoin: miter; stroke-linecap: square"/>
   </g>
   <g id="patch_6">
    <path d="M 42.620313 9.999003 
L 349.520313 9.999003 
" style="fill: none; stroke: #000000; stroke-width: 0.8; stroke-linejoin: miter; stroke-linecap: square"/>
   </g>
   <g id="legend_1">
    <g id="patch_7">
     <path d="M 223.439063 62.033378 
L 342.520313 62.033378 
Q 344.520313 62.033378 344.520313 60.033378 
L 344.520313 16.999003 
Q 344.520313 14.999003 342.520313 14.999003 
L 223.439063 14.999003 
Q 221.439063 14.999003 221.439063 16.999003 
L 221.439063 60.033378 
Q 221.439063 62.033378 223.439063 62.033378 
z
" style="fill: #ffffff; opacity: 0.8; stroke: #cccccc; stroke-linejoin: miter"/>
    </g>
    <g id="line2d_14">
     <path d="M 225.439063 23.09744 
L 235.439063 23.09744 
L 245.439063 23.09744 
" style="fill: none; stroke: #1f77b4; stroke-width: 1.5; stroke-linecap: square"/>
    </g>
    <g id="text_13">
     <!-- Exact -->
     <g transform="translate(253.439063 26.59744) scale(0.1 -0.1)">
      <defs>
       <path id="DejaVuSans-45" d="M 628 4666 
L 3578 4666 
L 3578 4134 
L 1259 4134 
L 1259 2753 
L 3481 2753 
L 3481 2222 
L 1259 2222 
L 1259 531 
L 3634 531 
L 3634 0 
L 628 0 
L 628 4666 
z
" transform="scale(0.015625)"/>
       <path id="DejaVuSans-78" d="M 3513 3500 
L 2247 1797 
L 3578 0 
L 2900 0 
L 1881 1375 
L 863 0 
L 184 0 
L 1544 1831 
L 300 3500 
L 978 3500 
L 1906 2253 
L 2834 3500 
L 3513 3500 
z
" transform="scale(0.015625)"/>
       <path id="DejaVuSans-61" d="M 2194 1759 
Q 1497 1759 1228 1600 
Q 959 1441 959 1056 
Q 959 750 1161 570 
Q 1363 391 1709 391 
Q 2188 391 2477 730 
Q 2766 1069 2766 1631 
L 2766 1759 
L 2194 1759 
z
M 3341 1997 
L 3341 0 
L 2766 0 
L 2766 531 
Q 2569 213 2275 61 
Q 1981 -91 1556 -91 
Q 1019 -91 701 211 
Q 384 513 384 1019 
Q 384 1609 779 1909 
Q 1175 2209 1959 2209 
L 2766 2209 
L 2766 2266 
Q 2766 2663 2505 2880 
Q 2244 3097 1772 3097 
Q 1472 3097 1187 3025 
Q 903 2953 641 2809 
L 641 3341 
Q 956 3463 1253 3523 
Q 1550 3584 1831 3584 
Q 2591 3584 2966 3190 
Q 3341 2797 3341 1997 
z
" transform="scale(0.015625)"/>
       <path id="DejaVuSans-63" d="M 3122 3366 
L 3122 2828 
Q 2878 2963 2633 3030 
Q 2388 3097 2138 3097 
Q 1578 3097 1268 2742 
Q 959 2388 959 1747 
Q 959 1106 1268 751 
Q 1578 397 2138 397 
Q 2388 397 2633 464 
Q 2878 531 3122 666 
L 3122 134 
Q 2881 22 2623 -34 
Q 2366 -91 2075 -91 
Q 1284 -91 818 406 
Q 353 903 353 1747 
Q 353 2603 823 3093 
Q 1294 3584 2113 3584 
Q 2378 3584 2631 3529 
Q 2884 3475 3122 3366 
z
" transform="scale(0.015625)"/>
      </defs>
      <use xlink:href="#DejaVuSans-45"/>
      <use xlink:href="#DejaVuSans-78" x="63.183594"/>
      <use xlink:href="#DejaVuSans-61" x="122.363281"/>
      <use xlink:href="#DejaVuSans-63" x="183.642578"/>
      <use xlink:href="#DejaVuSans-74" x="238.623047"/>
     </g>
    </g>
    <g id="line2d_15">
     <path d="M 225.439063 37.775565 
L 235.439063 37.775565 
L 245.439063 37.775565 
" style="fill: none; stroke-dasharray: 9.6,2.4,1.5,2.4; stroke-dashoffset: 0; stroke: #ff7f0e; stroke-width: 1.5"/>
    </g>
    <g id="text_14">
     <!-- Finite Differences -->
     <g transform="translate(253.439063 41.275565) scale(0.1 -0.1)">
      <defs>
       <path id="DejaVuSans-46" d="M 628 4666 
L 3309 4666 
L 3309 4134 
L 1259 4134 
L 1259 2759 
L 3109 2759 
L 3109 2228 
L 1259 2228 
L 1259 0 
L 628 0 
L 628 4666 
z
" transform="scale(0.015625)"/>
       <path id="DejaVuSans-69" d="M 603 3500 
L 1178 3500 
L 1178 0 
L 603 0 
L 603 3500 
z
M 603 4863 
L 1178 4863 
L 1178 4134 
L 603 4134 
L 603 4863 
z
" transform="scale(0.015625)"/>
       <path id="DejaVuSans-6e" d="M 3513 2113 
L 3513 0 
L 2938 0 
L 2938 2094 
Q 2938 2591 2744 2837 
Q 2550 3084 2163 3084 
Q 1697 3084 1428 2787 
Q 1159 2491 1159 1978 
L 1159 0 
L 581 0 
L 581 3500 
L 1159 3500 
L 1159 2956 
Q 1366 3272 1645 3428 
Q 1925 3584 2291 3584 
Q 2894 3584 3203 3211 
Q 3513 2838 3513 2113 
z
" transform="scale(0.015625)"/>
       <path id="DejaVuSans-65" d="M 3597 1894 
L 3597 1613 
L 953 1613 
Q 991 1019 1311 708 
Q 1631 397 2203 397 
Q 2534 397 2845 478 
Q 3156 559 3463 722 
L 3463 178 
Q 3153 47 2828 -22 
Q 2503 -91 2169 -91 
Q 1331 -91 842 396 
Q 353 884 353 1716 
Q 353 2575 817 3079 
Q 1281 3584 2069 3584 
Q 2775 3584 3186 3129 
Q 3597 2675 3597 1894 
z
M 3022 2063 
Q 3016 2534 2758 2815 
Q 2500 3097 2075 3097 
Q 1594 3097 1305 2825 
Q 1016 2553 972 2059 
L 3022 2063 
z
" transform="scale(0.015625)"/>
       <path id="DejaVuSans-20" transform="scale(0.015625)"/>
       <path id="DejaVuSans-44" d="M 1259 4147 
L 1259 519 
L 2022 519 
Q 2988 519 3436 956 
Q 3884 1394 3884 2338 
Q 3884 3275 3436 3711 
Q 2988 4147 2022 4147 
L 1259 4147 
z
M 628 4666 
L 1925 4666 
Q 3281 4666 3915 4102 
Q 4550 3538 4550 2338 
Q 4550 1131 3912 565 
Q 3275 0 1925 0 
L 628 0 
L 628 4666 
z
" transform="scale(0.015625)"/>
       <path id="DejaVuSans-66" d="M 2375 4863 
L 2375 4384 
L 1825 4384 
Q 1516 4384 1395 4259 
Q 1275 4134 1275 3809 
L 1275 3500 
L 2222 3500 
L 2222 3053 
L 1275 3053 
L 1275 0 
L 697 0 
L 697 3053 
L 147 3053 
L 147 3500 
L 697 3500 
L 697 3744 
Q 697 4328 969 4595 
Q 1241 4863 1831 4863 
L 2375 4863 
z
" transform="scale(0.015625)"/>
       <path id="DejaVuSans-72" d="M 2631 2963 
Q 2534 3019 2420 3045 
Q 2306 3072 2169 3072 
Q 1681 3072 1420 2755 
Q 1159 2438 1159 1844 
L 1159 0 
L 581 0 
L 581 3500 
L 1159 3500 
L 1159 2956 
Q 1341 3275 1631 3429 
Q 1922 3584 2338 3584 
Q 2397 3584 2469 3576 
Q 2541 3569 2628 3553 
L 2631 2963 
z
" transform="scale(0.015625)"/>
       <path id="DejaVuSans-73" d="M 2834 3397 
L 2834 2853 
Q 2591 2978 2328 3040 
Q 2066 3103 1784 3103 
Q 1356 3103 1142 2972 
Q 928 2841 928 2578 
Q 928 2378 1081 2264 
Q 1234 2150 1697 2047 
L 1894 2003 
Q 2506 1872 2764 1633 
Q 3022 1394 3022 966 
Q 3022 478 2636 193 
Q 2250 -91 1575 -91 
Q 1294 -91 989 -36 
Q 684 19 347 128 
L 347 722 
Q 666 556 975 473 
Q 1284 391 1588 391 
Q 1994 391 2212 530 
Q 2431 669 2431 922 
Q 2431 1156 2273 1281 
Q 2116 1406 1581 1522 
L 1381 1569 
Q 847 1681 609 1914 
Q 372 2147 372 2553 
Q 372 3047 722 3315 
Q 1072 3584 1716 3584 
Q 2034 3584 2315 3537 
Q 2597 3491 2834 3397 
z
" transform="scale(0.015625)"/>
      </defs>
      <use xlink:href="#DejaVuSans-46"/>
      <use xlink:href="#DejaVuSans-69" x="50.269531"/>
      <use xlink:href="#DejaVuSans-6e" x="78.052734"/>
      <use xlink:href="#DejaVuSans-69" x="141.431641"/>
      <use xlink:href="#DejaVuSans-74" x="169.214844"/>
      <use xlink:href="#DejaVuSans-65" x="208.423828"/>
      <use xlink:href="#DejaVuSans-20" x="269.947266"/>
      <use xlink:href="#DejaVuSans-44" x="301.734375"/>
      <use xlink:href="#DejaVuSans-69" x="378.736328"/>
      <use xlink:href="#DejaVuSans-66" x="406.519531"/>
      <use xlink:href="#DejaVuSans-66" x="441.724609"/>
      <use xlink:href="#DejaVuSans-65" x="476.929688"/>
      <use xlink:href="#DejaVuSans-72" x="538.453125"/>
      <use xlink:href="#DejaVuSans-65" x="577.316406"/>
      <use xlink:href="#DejaVuSans-6e" x="638.839844"/>
      <use xlink:href="#DejaVuSans-63" x="702.21875"/>
      <use xlink:href="#DejaVuSans-65" x="757.199219"/>
      <use xlink:href="#DejaVuSans-73" x="818.722656"/>
     </g>
    </g>
    <g id="line2d_16">
     <path d="M 225.439063 52.45369 
L 235.439063 52.45369 
L 245.439063 52.45369 
" style="fill: none; stroke-dasharray: 5.55,2.4; stroke-dashoffset: 0; stroke: #2ca02c; stroke-width: 1.5"/>
    </g>
    <g id="text_15">
     <!-- Spectral -->
     <g transform="translate(253.439063 55.95369) scale(0.1 -0.1)">
      <defs>
       <path id="DejaVuSans-53" d="M 3425 4513 
L 3425 3897 
Q 3066 4069 2747 4153 
Q 2428 4238 2131 4238 
Q 1616 4238 1336 4038 
Q 1056 3838 1056 3469 
Q 1056 3159 1242 3001 
Q 1428 2844 1947 2747 
L 2328 2669 
Q 3034 2534 3370 2195 
Q 3706 1856 3706 1288 
Q 3706 609 3251 259 
Q 2797 -91 1919 -91 
Q 1588 -91 1214 -16 
Q 841 59 441 206 
L 441 856 
Q 825 641 1194 531 
Q 1563 422 1919 422 
Q 2459 422 2753 634 
Q 3047 847 3047 1241 
Q 3047 1584 2836 1778 
Q 2625 1972 2144 2069 
L 1759 2144 
Q 1053 2284 737 2584 
Q 422 2884 422 3419 
Q 422 4038 858 4394 
Q 1294 4750 2059 4750 
Q 2388 4750 2728 4690 
Q 3069 4631 3425 4513 
z
" transform="scale(0.015625)"/>
       <path id="DejaVuSans-70" d="M 1159 525 
L 1159 -1331 
L 581 -1331 
L 581 3500 
L 1159 3500 
L 1159 2969 
Q 1341 3281 1617 3432 
Q 1894 3584 2278 3584 
Q 2916 3584 3314 3078 
Q 3713 2572 3713 1747 
Q 3713 922 3314 415 
Q 2916 -91 2278 -91 
Q 1894 -91 1617 61 
Q 1341 213 1159 525 
z
M 3116 1747 
Q 3116 2381 2855 2742 
Q 2594 3103 2138 3103 
Q 1681 3103 1420 2742 
Q 1159 2381 1159 1747 
Q 1159 1113 1420 752 
Q 1681 391 2138 391 
Q 2594 391 2855 752 
Q 3116 1113 3116 1747 
z
" transform="scale(0.015625)"/>
       <path id="DejaVuSans-6c" d="M 603 4863 
L 1178 4863 
L 1178 0 
L 603 0 
L 603 4863 
z
" transform="scale(0.015625)"/>
      </defs>
      <use xlink:href="#DejaVuSans-53"/>
      <use xlink:href="#DejaVuSans-70" x="63.476562"/>
      <use xlink:href="#DejaVuSans-65" x="126.953125"/>
      <use xlink:href="#DejaVuSans-63" x="188.476562"/>
      <use xlink:href="#DejaVuSans-74" x="243.457031"/>
      <use xlink:href="#DejaVuSans-72" x="282.666016"/>
      <use xlink:href="#DejaVuSans-61" x="323.779297"/>
      <use xlink:href="#DejaVuSans-6c" x="385.058594"/>
     </g>
    </g>
   </g>
  </g>
 </g>
 <defs>
  <clipPath id="peec1a1e50e">
   <rect x="42.620313" y="9.999003" width="306.9" height="95.732716"/>
  </clipPath>
 </defs>
</svg>
