<?xml version="1.0" encoding="utf-8" standalone="no"?>
<!DOCTYPE svg PUBLIC "-//W3C//DTD SVG 1.1//EN"
  "http://www.w3.org/Graphics/SVG/1.1/DTD/svg11.dtd">
<svg xmlns:xlink="http://www.w3.org/1999/xlink" width="208.44pt" height="220.169738pt" viewBox="0 0 208.44 220.169738" xmlns="http://www.w3.org/2000/svg" version="1.1">
 <metadata>
  <rdf:RDF xmlns:dc="http://purl.org/dc/elements/1.1/" xmlns:cc="http://creativecommons.org/ns#" xmlns:rdf="http://www.w3.org/1999/02/22-rdf-syntax-ns#">
   <cc:Work>
    <dc:type rdf:resource="http://purl.org/dc/dcmitype/StillImage"/>
    <dc:date>2025-01-14T09:05:55.014331</dc:date>
    <dc:format>image/svg+xml</dc:format>
    <dc:creator>
     <cc:Agent>
      <dc:title>Matplotlib v3.9.2, https://matplotlib.org/</dc:title>
     </cc:Agent>
    </dc:creator>
   </cc:Work>
  </rdf:RDF>
 </metadata>
 <defs>
  <style type="text/css">*{stroke-linejoin: round; stroke-linecap: butt}</style>
 </defs>
 <g id="figure_1">
  <g id="patch_1">
   <path d="M 0 220.169738 
L 208.44 220.169738 
L 208.44 0 
L 0 0 
z
" style="fill: #ffffff"/>
  </g>
  <g id="patch_2">
   <path d="M 7.2 201.24 
L 201.24 201.24 
L 201.24 7.2 
L 7.2 7.2 
z
" style="fill: #ffffff"/>
  </g>
  <g id="pane3d_1">
   <g id="patch_3">
    <path d="M 21.851358 153.395954 
L 85.929703 99.684215 
L 85.038953 22.222285 
L 17.894129 71.221519 
" style="fill: #f2f2f2; opacity: 0.5; stroke: #f2f2f2; stroke-linejoin: miter"/>
   </g>
  </g>
  <g id="pane3d_2">
   <g id="patch_4">
    <path d="M 85.929703 99.684215 
L 188.752584 129.570767 
L 192.42197 49.44075 
L 85.038953 22.222285 
" style="fill: #e6e6e6; opacity: 0.5; stroke: #e6e6e6; stroke-linejoin: miter"/>
   </g>
  </g>
  <g id="pane3d_3">
   <g id="patch_5">
    <path d="M 21.851358 153.395954 
L 130.848634 188.994464 
L 188.752584 129.570767 
L 85.929703 99.684215 
" style="fill: #ececec; opacity: 0.5; stroke: #ececec; stroke-linejoin: miter"/>
   </g>
  </g>
  <g id="grid3d_1">
   <g id="Line3DCollection_1">
    <path d="M 28.452805 155.551987 
L 92.183076 101.501824 
L 91.556723 23.87435 
" style="fill: none; stroke: #b0b0b0; stroke-width: 0.8"/>
    <path d="M 51.442079 163.060284 
L 113.934067 107.823978 
L 114.24039 29.623998 
" style="fill: none; stroke: #b0b0b0; stroke-width: 0.8"/>
    <path d="M 74.960825 170.741506 
L 136.14409 114.279555 
L 137.423678 35.500286 
" style="fill: none; stroke: #b0b0b0; stroke-width: 0.8"/>
    <path d="M 99.027549 178.601698 
L 158.82783 120.872822 
L 161.123276 41.507443 
" style="fill: none; stroke: #b0b0b0; stroke-width: 0.8"/>
    <path d="M 123.661627 186.647188 
L 182.000607 127.608234 
L 185.356626 47.649891 
" style="fill: none; stroke: #b0b0b0; stroke-width: 0.8"/>
   </g>
  </g>
  <g id="grid3d_2">
   <g id="Line3DCollection_2">
    <path d="M 22.53736 67.833101 
L 26.266898 149.694762 
L 134.855139 184.882804 
" style="fill: none; stroke: #b0b0b0; stroke-width: 0.8"/>
    <path d="M 36.356691 57.748383 
L 39.422276 138.667663 
L 146.777401 172.647631 
" style="fill: none; stroke: #b0b0b0; stroke-width: 0.8"/>
    <path d="M 49.697011 48.013225 
L 52.141161 128.006441 
L 158.283532 160.83951 
" style="fill: none; stroke: #b0b0b0; stroke-width: 0.8"/>
    <path d="M 62.582801 38.609762 
L 64.444922 117.693185 
L 169.394945 149.436466 
" style="fill: none; stroke: #b0b0b0; stroke-width: 0.8"/>
    <path d="M 75.036902 29.521326 
L 76.353556 107.711132 
L 180.13161 138.418007 
" style="fill: none; stroke: #b0b0b0; stroke-width: 0.8"/>
   </g>
  </g>
  <g id="grid3d_3"/>
  <g id="axis3d_1">
   <g id="line2d_1">
    <path d="M 21.851358 153.395954 
L 130.848634 188.994464 
" style="fill: none; stroke: #000000; stroke-width: 0.8; stroke-linecap: square"/>
   </g>
   <g id="xtick_1">
    <g id="line2d_2">
     <path d="M 29.007765 155.081321 
L 27.340505 156.495338 
" style="fill: none; stroke: #000000; stroke-width: 0.8; stroke-linecap: square"/>
    </g>
    <g id="text_1">
     <!-- −20 -->
     <g transform="translate(10.361002 178.882858) scale(0.1 -0.1)">
      <defs>
       <path id="DejaVuSans-2212" d="M 678 2272 
L 4684 2272 
L 4684 1741 
L 678 1741 
L 678 2272 
z
" transform="scale(0.015625)"/>
       <path id="DejaVuSans-32" d="M 1228 531 
L 3431 531 
L 3431 0 
L 469 0 
L 469 531 
Q 828 903 1448 1529 
Q 2069 2156 2228 2338 
Q 2531 2678 2651 2914 
Q 2772 3150 2772 3378 
Q 2772 3750 2511 3984 
Q 2250 4219 1831 4219 
Q 1534 4219 1204 4116 
Q 875 4013 500 3803 
L 500 4441 
Q 881 4594 1212 4672 
Q 1544 4750 1819 4750 
Q 2544 4750 2975 4387 
Q 3406 4025 3406 3419 
Q 3406 3131 3298 2873 
Q 3191 2616 2906 2266 
Q 2828 2175 2409 1742 
Q 1991 1309 1228 531 
z
" transform="scale(0.015625)"/>
       <path id="DejaVuSans-30" d="M 2034 4250 
Q 1547 4250 1301 3770 
Q 1056 3291 1056 2328 
Q 1056 1369 1301 889 
Q 1547 409 2034 409 
Q 2525 409 2770 889 
Q 3016 1369 3016 2328 
Q 3016 3291 2770 3770 
Q 2525 4250 2034 4250 
z
M 2034 4750 
Q 2819 4750 3233 4129 
Q 3647 3509 3647 2328 
Q 3647 1150 3233 529 
Q 2819 -91 2034 -91 
Q 1250 -91 836 529 
Q 422 1150 422 2328 
Q 422 3509 836 4129 
Q 1250 4750 2034 4750 
z
" transform="scale(0.015625)"/>
      </defs>
      <use xlink:href="#DejaVuSans-2212"/>
      <use xlink:href="#DejaVuSans-32" x="83.789062"/>
      <use xlink:href="#DejaVuSans-30" x="147.412109"/>
     </g>
    </g>
   </g>
   <g id="xtick_2">
    <g id="line2d_3">
     <path d="M 51.986759 162.578844 
L 50.350355 164.025252 
" style="fill: none; stroke: #000000; stroke-width: 0.8; stroke-linecap: square"/>
    </g>
    <g id="text_2">
     <!-- −10 -->
     <g transform="translate(33.382703 186.609954) scale(0.1 -0.1)">
      <defs>
       <path id="DejaVuSans-31" d="M 794 531 
L 1825 531 
L 1825 4091 
L 703 3866 
L 703 4441 
L 1819 4666 
L 2450 4666 
L 2450 531 
L 3481 531 
L 3481 0 
L 794 0 
L 794 531 
z
" transform="scale(0.015625)"/>
      </defs>
      <use xlink:href="#DejaVuSans-2212"/>
      <use xlink:href="#DejaVuSans-31" x="83.789062"/>
      <use xlink:href="#DejaVuSans-30" x="147.412109"/>
     </g>
    </g>
   </g>
   <g id="xtick_3">
    <g id="line2d_4">
     <path d="M 75.494602 170.248919 
L 73.890927 171.728844 
" style="fill: none; stroke: #000000; stroke-width: 0.8; stroke-linecap: square"/>
    </g>
    <g id="text_3">
     <!-- 0 -->
     <g transform="translate(64.308486 194.515946) scale(0.1 -0.1)">
      <use xlink:href="#DejaVuSans-30"/>
     </g>
    </g>
   </g>
   <g id="xtick_4">
    <g id="line2d_5">
     <path d="M 99.549765 178.097571 
L 97.980797 179.612191 
" style="fill: none; stroke: #000000; stroke-width: 0.8; stroke-linecap: square"/>
    </g>
    <g id="text_4">
     <!-- 10 -->
     <g transform="translate(85.23364 202.607117) scale(0.1 -0.1)">
      <use xlink:href="#DejaVuSans-31"/>
      <use xlink:href="#DejaVuSans-30" x="63.623047"/>
     </g>
    </g>
   </g>
   <g id="xtick_5">
    <g id="line2d_6">
     <path d="M 124.171585 186.131111 
L 122.639419 187.681661 
" style="fill: none; stroke: #000000; stroke-width: 0.8; stroke-linecap: square"/>
    </g>
    <g id="text_5">
     <!-- 20 -->
     <g transform="translate(109.911373 210.890051) scale(0.1 -0.1)">
      <use xlink:href="#DejaVuSans-32"/>
      <use xlink:href="#DejaVuSans-30" x="63.623047"/>
     </g>
    </g>
   </g>
   <g id="text_6">
    <!-- $x$ -->
    <g transform="translate(55.571385 208.866511) scale(0.1 -0.1)">
     <defs>
      <path id="DejaVuSans-Oblique-78" d="M 3841 3500 
L 2234 1784 
L 3219 0 
L 2559 0 
L 1819 1388 
L 531 0 
L -166 0 
L 1556 1844 
L 641 3500 
L 1300 3500 
L 1972 2234 
L 3144 3500 
L 3841 3500 
z
" transform="scale(0.015625)"/>
     </defs>
     <use xlink:href="#DejaVuSans-Oblique-78" transform="translate(0 0.3125)"/>
    </g>
   </g>
  </g>
  <g id="axis3d_2">
   <g id="line2d_7">
    <path d="M 188.752584 129.570767 
L 130.848634 188.994464 
" style="fill: none; stroke: #000000; stroke-width: 0.8; stroke-linecap: square"/>
   </g>
   <g id="xtick_6">
    <g id="line2d_8">
     <path d="M 133.940062 184.586274 
L 136.687658 185.476633 
" style="fill: none; stroke: #000000; stroke-width: 0.8; stroke-linecap: square"/>
    </g>
    <g id="text_7">
     <!-- 0 -->
     <g transform="translate(144.557388 205.90752) scale(0.1 -0.1)">
      <use xlink:href="#DejaVuSans-30"/>
     </g>
    </g>
   </g>
   <g id="xtick_7">
    <g id="line2d_9">
     <path d="M 145.87353 172.361538 
L 148.587438 173.220543 
" style="fill: none; stroke: #000000; stroke-width: 0.8; stroke-linecap: square"/>
    </g>
    <g id="text_8">
     <!-- 2 -->
     <g transform="translate(156.260249 193.423809) scale(0.1 -0.1)">
      <use xlink:href="#DejaVuSans-32"/>
     </g>
    </g>
   </g>
   <g id="xtick_8">
    <g id="line2d_10">
     <path d="M 157.390648 160.563314 
L 160.071527 161.392591 
" style="fill: none; stroke: #000000; stroke-width: 0.8; stroke-linecap: square"/>
    </g>
    <g id="text_9">
     <!-- 4 -->
     <g transform="translate(167.554314 181.37617) scale(0.1 -0.1)">
      <defs>
       <path id="DejaVuSans-34" d="M 2419 4116 
L 825 1625 
L 2419 1625 
L 2419 4116 
z
M 2253 4666 
L 3047 4666 
L 3047 1625 
L 3713 1625 
L 3713 1100 
L 3047 1100 
L 3047 0 
L 2419 0 
L 2419 1100 
L 313 1100 
L 313 1709 
L 2253 4666 
z
" transform="scale(0.015625)"/>
      </defs>
      <use xlink:href="#DejaVuSans-34"/>
     </g>
    </g>
   </g>
   <g id="xtick_9">
    <g id="line2d_11">
     <path d="M 168.512834 149.169662 
L 171.161333 149.970729 
" style="fill: none; stroke: #000000; stroke-width: 0.8; stroke-linecap: square"/>
    </g>
    <g id="text_10">
     <!-- 6 -->
     <g transform="translate(178.460635 169.742147) scale(0.1 -0.1)">
      <defs>
       <path id="DejaVuSans-36" d="M 2113 2584 
Q 1688 2584 1439 2293 
Q 1191 2003 1191 1497 
Q 1191 994 1439 701 
Q 1688 409 2113 409 
Q 2538 409 2786 701 
Q 3034 994 3034 1497 
Q 3034 2003 2786 2293 
Q 2538 2584 2113 2584 
z
M 3366 4563 
L 3366 3988 
Q 3128 4100 2886 4159 
Q 2644 4219 2406 4219 
Q 1781 4219 1451 3797 
Q 1122 3375 1075 2522 
Q 1259 2794 1537 2939 
Q 1816 3084 2150 3084 
Q 2853 3084 3261 2657 
Q 3669 2231 3669 1497 
Q 3669 778 3244 343 
Q 2819 -91 2113 -91 
Q 1303 -91 875 529 
Q 447 1150 447 2328 
Q 447 3434 972 4092 
Q 1497 4750 2381 4750 
Q 2619 4750 2861 4703 
Q 3103 4656 3366 4563 
z
" transform="scale(0.015625)"/>
      </defs>
      <use xlink:href="#DejaVuSans-36"/>
     </g>
    </g>
   </g>
   <g id="xtick_10">
    <g id="line2d_12">
     <path d="M 179.260057 138.160123 
L 181.876817 138.934396 
" style="fill: none; stroke: #000000; stroke-width: 0.8; stroke-linecap: square"/>
    </g>
    <g id="text_11">
     <!-- 8 -->
     <g transform="translate(188.998841 158.500799) scale(0.1 -0.1)">
      <defs>
       <path id="DejaVuSans-38" d="M 2034 2216 
Q 1584 2216 1326 1975 
Q 1069 1734 1069 1313 
Q 1069 891 1326 650 
Q 1584 409 2034 409 
Q 2484 409 2743 651 
Q 3003 894 3003 1313 
Q 3003 1734 2745 1975 
Q 2488 2216 2034 2216 
z
M 1403 2484 
Q 997 2584 770 2862 
Q 544 3141 544 3541 
Q 544 4100 942 4425 
Q 1341 4750 2034 4750 
Q 2731 4750 3128 4425 
Q 3525 4100 3525 3541 
Q 3525 3141 3298 2862 
Q 3072 2584 2669 2484 
Q 3125 2378 3379 2068 
Q 3634 1759 3634 1313 
Q 3634 634 3220 271 
Q 2806 -91 2034 -91 
Q 1263 -91 848 271 
Q 434 634 434 1313 
Q 434 1759 690 2068 
Q 947 2378 1403 2484 
z
M 1172 3481 
Q 1172 3119 1398 2916 
Q 1625 2713 2034 2713 
Q 2441 2713 2670 2916 
Q 2900 3119 2900 3481 
Q 2900 3844 2670 4047 
Q 2441 4250 2034 4250 
Q 1625 4250 1398 4047 
Q 1172 3844 1172 3481 
z
" transform="scale(0.015625)"/>
      </defs>
      <use xlink:href="#DejaVuSans-38"/>
     </g>
    </g>
   </g>
   <g id="text_12">
    <!-- $t$ -->
    <g transform="translate(186.079364 188.736275) scale(0.1 -0.1)">
     <defs>
      <path id="DejaVuSans-Oblique-74" d="M 2706 3500 
L 2619 3053 
L 1472 3053 
L 1100 1153 
Q 1081 1047 1072 975 
Q 1063 903 1063 863 
Q 1063 663 1183 572 
Q 1303 481 1569 481 
L 2150 481 
L 2053 0 
L 1503 0 
Q 991 0 739 200 
Q 488 400 488 806 
Q 488 878 497 964 
Q 506 1050 525 1153 
L 897 3053 
L 409 3053 
L 500 3500 
L 978 3500 
L 1172 4494 
L 1747 4494 
L 1556 3500 
L 2706 3500 
z
" transform="scale(0.015625)"/>
     </defs>
     <use xlink:href="#DejaVuSans-Oblique-74" transform="translate(0 0.78125)"/>
    </g>
   </g>
  </g>
  <g id="axis3d_3">
   <g id="line2d_13">
    <path d="M 188.752584 129.570767 
L 192.42197 49.44075 
" style="fill: none; stroke: #000000; stroke-width: 0.8; stroke-linecap: square"/>
   </g>
   <g id="text_13">
    <!-- $u(t, x)$ -->
    <g transform="translate(232.912216 99.698417) rotate(-87.378092) scale(0.1 -0.1)">
     <defs>
      <path id="DejaVuSans-Oblique-75" d="M 428 1388 
L 838 3500 
L 1416 3500 
L 1006 1409 
Q 975 1256 961 1147 
Q 947 1038 947 966 
Q 947 700 1109 554 
Q 1272 409 1569 409 
Q 2031 409 2368 721 
Q 2706 1034 2809 1563 
L 3194 3500 
L 3769 3500 
L 3091 0 
L 2516 0 
L 2631 550 
Q 2388 244 2052 76 
Q 1716 -91 1338 -91 
Q 878 -91 622 161 
Q 366 413 366 863 
Q 366 956 381 1097 
Q 397 1238 428 1388 
z
" transform="scale(0.015625)"/>
      <path id="DejaVuSans-28" d="M 1984 4856 
Q 1566 4138 1362 3434 
Q 1159 2731 1159 2009 
Q 1159 1288 1364 580 
Q 1569 -128 1984 -844 
L 1484 -844 
Q 1016 -109 783 600 
Q 550 1309 550 2009 
Q 550 2706 781 3412 
Q 1013 4119 1484 4856 
L 1984 4856 
z
" transform="scale(0.015625)"/>
      <path id="DejaVuSans-2c" d="M 750 794 
L 1409 794 
L 1409 256 
L 897 -744 
L 494 -744 
L 750 256 
L 750 794 
z
" transform="scale(0.015625)"/>
      <path id="DejaVuSans-29" d="M 513 4856 
L 1013 4856 
Q 1481 4119 1714 3412 
Q 1947 2706 1947 2009 
Q 1947 1309 1714 600 
Q 1481 -109 1013 -844 
L 513 -844 
Q 928 -128 1133 580 
Q 1338 1288 1338 2009 
Q 1338 2731 1133 3434 
Q 928 4138 513 4856 
z
" transform="scale(0.015625)"/>
     </defs>
     <use xlink:href="#DejaVuSans-Oblique-75" transform="translate(0 0.125)"/>
     <use xlink:href="#DejaVuSans-28" transform="translate(63.378906 0.125)"/>
     <use xlink:href="#DejaVuSans-Oblique-74" transform="translate(102.392578 0.125)"/>
     <use xlink:href="#DejaVuSans-2c" transform="translate(141.601562 0.125)"/>
     <use xlink:href="#DejaVuSans-Oblique-78" transform="translate(192.871094 0.125)"/>
     <use xlink:href="#DejaVuSans-29" transform="translate(252.050781 0.125)"/>
    </g>
   </g>
  </g>
  <g id="axes_1">
   <g id="line2d_14">
    <path d="M 32.779712 150.257107 
L 62.217429 159.661204 
L 64.922104 160.288298 
L 66.506523 160.449269 
L 67.715361 160.354005 
L 68.641952 160.063425 
L 69.471914 159.555385 
L 70.205023 158.823176 
L 70.841533 157.884685 
L 71.471853 156.574169 
L 72.09406 154.772858 
L 72.705728 152.326641 
L 73.303864 149.039363 
L 73.884946 144.670481 
L 74.523356 138.002296 
L 75.130241 129.189752 
L 75.847432 115.08269 
L 77.008478 91.254941 
L 77.42828 86.792477 
L 77.703499 85.500962 
L 77.897547 85.290664 
L 78.10006 85.613966 
L 78.418949 87.075434 
L 78.868796 90.67195 
L 79.580615 98.708574 
L 82.885028 139.594966 
L 83.858857 147.803721 
L 84.797692 153.773425 
L 85.711611 158.071205 
L 86.608478 161.167581 
L 87.493943 163.415418 
L 88.371925 165.068526 
L 89.341907 166.423924 
L 90.404894 167.521569 
L 91.658415 168.479985 
L 93.199854 169.361792 
L 95.320112 170.297705 
L 98.796347 171.557118 
L 108.023191 174.581262 
L 127.617154 180.916648 
L 127.617154 180.916648 
" clip-path="url(#p9a771a93e4)" style="fill: none; stroke: #1f77b4; stroke-width: 1.5; stroke-linecap: square"/>
   </g>
   <g id="line2d_15">
    <path d="M 39.385036 144.668954 
L 75.742442 156.167262 
L 78.358907 156.760674 
L 79.947948 156.917366 
L 81.162004 156.819547 
L 82.094286 156.527721 
L 82.931272 156.01938 
L 83.67279 155.28784 
L 84.318956 154.350934 
L 84.961804 153.043254 
L 85.600327 151.246444 
L 86.233288 148.80693 
L 86.859209 145.529256 
L 87.476425 141.173759 
L 88.169057 134.526835 
L 88.846713 125.743393 
L 89.676221 111.684561 
L 91.026633 87.941337 
L 91.482563 83.494687 
L 91.768757 82.20745 
L 91.965098 81.997536 
L 92.165783 82.319194 
L 92.474393 83.774492 
L 92.897818 87.356574 
L 93.549619 95.361823 
L 96.548031 136.094854 
L 97.461607 144.273227 
L 98.357468 150.220522 
L 99.143558 154.092682 
L 100.020318 157.290226 
L 100.89195 159.608366 
L 101.760504 161.309775 
L 102.723585 162.700897 
L 103.781909 163.823133 
L 105.032448 164.797922 
L 106.572446 165.688717 
L 108.692798 166.626591 
L 112.074453 167.846186 
L 120.820394 170.684756 
L 133.68157 174.794903 
L 133.68157 174.794903 
" clip-path="url(#p9a771a93e4)" style="fill: none; stroke: #ff7f0e; stroke-width: 1.5; stroke-linecap: square"/>
   </g>
   <g id="line2d_16">
    <path d="M 45.878472 139.175342 
L 88.938989 152.659981 
L 91.653747 153.270321 
L 93.247224 153.422813 
L 94.466321 153.3225 
L 95.404121 153.029471 
L 96.247936 152.520863 
L 96.997644 151.790019 
L 97.653227 150.854716 
L 98.308301 149.549888 
L 98.962759 147.757584 
L 99.616526 145.32477 
L 100.269606 142.056684 
L 100.922148 137.714535 
L 101.667803 131.088802 
L 102.414671 122.33435 
L 103.354019 108.323535 
L 104.889573 84.664422 
L 105.380807 80.23351 
L 105.677715 78.950536 
L 105.876286 78.741011 
L 106.075172 79.061042 
L 106.373711 80.510216 
L 106.77127 84.077964 
L 107.364336 92.052038 
L 110.06322 132.632608 
L 110.917784 140.780775 
L 111.77154 146.705796 
L 112.530918 150.563082 
L 113.386405 153.747866 
L 114.243424 156.056234 
L 115.102036 157.749947 
L 116.05785 159.134191 
L 117.111267 160.25022 
L 118.358667 161.21884 
L 119.897135 162.103062 
L 122.017548 163.032835 
L 125.401345 164.240411 
L 134.15494 167.048859 
L 139.638537 168.781507 
L 139.638537 168.781507 
" clip-path="url(#p9a771a93e4)" style="fill: none; stroke: #2ca02c; stroke-width: 1.5; stroke-linecap: square"/>
   </g>
   <g id="line2d_17">
    <path d="M 52.262773 133.771768 
L 100.872713 148.880306 
L 104.151777 149.699334 
L 106.030391 149.952624 
L 107.347912 149.909295 
L 108.384944 149.646468 
L 109.235016 149.197173 
L 109.992245 148.541382 
L 110.751524 147.549008 
L 111.418169 146.306128 
L 112.087701 144.596183 
L 112.761137 142.272108 
L 113.439869 139.146077 
L 114.12575 134.98621 
L 114.921422 128.622776 
L 115.733629 120.17679 
L 116.671369 108.023981 
L 118.706082 80.340934 
L 119.228833 76.457405 
L 119.533776 75.559258 
L 119.633704 75.52049 
L 119.830818 75.83891 
L 120.11949 77.282005 
L 120.491727 80.835512 
L 121.027306 88.778607 
L 123.432982 129.207617 
L 124.229745 137.325754 
L 124.951271 142.664116 
L 125.683295 146.650176 
L 126.516878 149.939587 
L 127.358753 152.320796 
L 128.206978 154.06464 
L 129.155112 155.486042 
L 130.203246 156.627741 
L 131.351286 157.547903 
L 132.791342 158.408919 
L 134.717738 159.285979 
L 137.714075 160.381274 
L 144.41813 162.534992 
L 145.490937 162.871325 
L 145.490937 162.871325 
" clip-path="url(#p9a771a93e4)" style="fill: none; stroke: #d62728; stroke-width: 1.5; stroke-linecap: square"/>
   </g>
   <g id="line2d_18">
    <path d="M 58.539545 128.413483 
L 66.114829 130.79857 
L 114.44644 145.629903 
L 117.450165 146.336067 
L 119.239554 146.539747 
L 120.467624 146.471733 
L 121.415311 146.22152 
L 122.271401 145.771828 
L 123.035855 145.116536 
L 123.804819 144.125785 
L 124.482679 142.885582 
L 125.166841 141.179891 
L 125.859398 138.862157 
L 126.563112 135.745219 
L 127.281534 131.598035 
L 128.126154 125.254784 
L 129.002524 116.836524 
L 130.031801 104.724912 
L 132.27443 77.139451 
L 132.827009 73.269536 
L 133.139386 72.374189 
L 133.239888 72.335372 
L 133.435257 72.652196 
L 133.71426 74.089258 
L 134.061704 77.628622 
L 134.541017 85.540935 
L 136.659651 125.819282 
L 137.399795 133.907564 
L 138.084716 139.226047 
L 138.790016 143.196929 
L 139.511195 146.159853 
L 140.336927 148.61673 
L 141.174044 150.412719 
L 142.113927 151.872841 
L 143.061274 152.949499 
L 144.205127 153.91041 
L 145.546441 154.747505 
L 147.374757 155.611909 
L 150.176992 156.65784 
L 151.242669 157.016175 
L 151.242669 157.016175 
" clip-path="url(#p9a771a93e4)" style="fill: none; stroke: #9467bd; stroke-width: 1.5; stroke-linecap: square"/>
   </g>
   <g id="line2d_19">
    <path d="M 64.691984 122.249984 
L 66.028356 123.100752 
L 67.805385 123.93981 
L 70.469912 124.922203 
L 76.170534 126.72904 
L 121.524882 140.566119 
L 128.544161 142.5723 
L 130.991562 143.057653 
L 132.503723 143.156167 
L 133.642676 143.030287 
L 134.596557 142.71003 
L 135.460395 142.169418 
L 136.234225 141.401621 
L 136.917629 140.425002 
L 137.608916 139.067743 
L 138.31066 137.20859 
L 139.026262 134.690568 
L 139.760134 131.31472 
L 140.517796 126.839066 
L 141.421091 120.030973 
L 142.373083 111.083188 
L 143.635092 96.924269 
L 145.572464 75.047827 
L 146.164863 70.663682 
L 146.492419 69.39341 
L 146.697317 69.185076 
L 146.890968 69.500321 
L 147.160496 70.931395 
L 147.483666 74.456711 
L 147.907902 82.338442 
L 149.745511 122.467019 
L 150.430193 130.52562 
L 151.079241 135.824345 
L 151.75834 139.780146 
L 152.46055 142.731441 
L 153.271231 145.178206 
L 154.098038 146.966304 
L 154.936561 148.29387 
L 155.878172 149.396534 
L 156.922541 150.305312 
L 156.922541 150.305312 
" clip-path="url(#p9a771a93e4)" style="fill: none; stroke: #8c564b; stroke-width: 1.5; stroke-linecap: square"/>
   </g>
   <g id="line2d_20">
    <path d="M 70.395547 98.487503 
L 71.309495 104.569305 
L 72.18631 108.947214 
L 73.03704 112.092327 
L 73.869866 114.363869 
L 74.690577 116.022172 
L 75.593112 117.367957 
L 76.578724 118.442281 
L 77.737967 119.362062 
L 79.160739 120.186491 
L 81.115096 121.034239 
L 84.316301 122.139833 
L 92.627136 124.689844 
L 140.161828 138.945377 
L 143.174264 139.625082 
L 144.877215 139.80368 
L 146.113668 139.730824 
L 147.070616 139.478188 
L 147.938232 139.0278 
L 148.716565 138.373582 
L 149.504177 137.386138 
L 150.203662 136.151324 
L 150.916064 134.454154 
L 151.64556 132.149086 
L 152.397571 129.050279 
L 153.178925 124.928353 
L 154.11824 118.625255 
L 155.118754 110.262115 
L 156.32514 98.232343 
L 158.969905 70.840592 
L 159.580118 66.99771 
L 159.906825 66.107942 
L 160.008419 66.069035 
L 160.200377 66.382716 
L 160.460618 67.807847 
L 160.760019 71.319211 
L 161.130339 79.170555 
L 162.692801 119.150254 
L 163.105271 124.7749 
L 163.105271 124.7749 
" clip-path="url(#p9a771a93e4)" style="fill: none; stroke: #e377c2; stroke-width: 1.5; stroke-linecap: square"/>
   </g>
   <g id="line2d_21">
    <path d="M 75.957857 64.734797 
L 76.962078 43.65074 
L 77.348102 39.425227 
L 77.60117 38.198344 
L 77.77962 37.994421 
L 77.965884 38.293937 
L 78.259268 39.664618 
L 78.673339 43.047719 
L 79.329082 50.619193 
L 82.37967 89.224416 
L 83.279448 96.980974 
L 84.146762 102.617689 
L 84.990842 106.669757 
L 85.81894 109.582281 
L 86.636292 111.68953 
L 87.536247 113.376657 
L 88.430772 114.594614 
L 89.411067 115.57546 
L 90.567017 116.4254 
L 92.077165 117.24145 
L 94.209814 118.109522 
L 97.860517 119.31491 
L 109.51825 122.82153 
L 153.245463 135.762927 
L 155.980608 136.343264 
L 157.688262 136.49012 
L 158.930056 136.378168 
L 159.893019 136.079726 
L 160.768221 135.570276 
L 161.55578 134.843285 
L 162.255042 133.916257 
L 162.966985 132.625862 
L 163.695709 130.856157 
L 164.446598 128.456754 
L 165.226597 125.23631 
L 166.044363 120.96034 
L 167.038137 114.439451 
L 168.108955 105.828202 
L 169.562385 92.054235 
L 169.562385 92.054235 
" clip-path="url(#p9a771a93e4)" style="fill: none; stroke: #7f7f7f; stroke-width: 1.5; stroke-linecap: square"/>
   </g>
   <g id="line2d_22">
    <path d="M 82.60561 105.425629 
L 83.28927 104.630414 
L 83.969405 103.457659 
L 84.644724 101.766048 
L 85.313559 99.364075 
L 85.973817 95.997148 
L 86.623016 91.340191 
L 87.258596 85.013637 
L 87.955358 75.471707 
L 88.785844 60.367391 
L 89.865078 40.844721 
L 90.281706 36.633828 
L 90.544067 35.410966 
L 90.72446 35.207476 
L 90.909177 35.505578 
L 91.193858 36.870764 
L 91.58555 40.240881 
L 92.190435 47.783974 
L 94.981185 86.249493 
L 95.829695 93.978338 
L 96.660423 99.594681 
L 97.478891 103.631761 
L 98.289265 106.533122 
L 99.094467 108.631883 
L 99.98545 110.311739 
L 100.874248 111.523967 
L 101.850726 112.499684 
L 103.004303 113.344572 
L 104.513387 114.154972 
L 106.646489 115.015982 
L 110.299868 116.210176 
L 121.968095 119.682039 
L 165.730334 132.492056 
L 168.468915 133.064854 
L 170.180149 133.207719 
L 171.426012 133.093599 
L 172.39355 132.794187 
L 173.27451 132.284659 
L 173.37316 132.209848 
L 173.37316 132.209848 
" clip-path="url(#p9a771a93e4)" style="fill: none; stroke: #bcbd22; stroke-width: 1.5; stroke-linecap: square"/>
   </g>
   <g id="line2d_23">
    <path d="M 88.423862 103.049643 
L 90.759121 103.477002 
L 92.230766 103.530933 
L 93.269669 103.364616 
L 94.135124 103.010866 
L 94.913494 102.440399 
L 95.604676 101.646446 
L 96.294905 100.476193 
L 96.983853 98.788797 
L 97.671159 96.393399 
L 98.356461 93.036285 
L 99.039493 88.393521 
L 99.720279 82.086926 
L 100.484411 72.576041 
L 101.420674 57.522455 
L 102.63652 38.067312 
L 103.083109 33.87096 
L 103.354561 32.652101 
L 103.536846 32.449046 
L 103.720039 32.745749 
L 103.996178 34.105481 
L 104.365926 37.462701 
L 104.920954 44.977597 
L 107.456934 83.304262 
L 108.25515 91.005558 
L 109.049975 96.601654 
L 109.843295 100.623845 
L 110.636255 103.51412 
L 111.429507 105.604458 
L 112.311651 107.277104 
L 113.194792 108.483656 
L 114.16748 109.454298 
L 115.318673 110.29419 
L 116.82664 111.099012 
L 118.960084 111.953057 
L 122.615906 113.136221 
L 134.293842 116.573842 
L 178.088188 129.254463 
L 178.559706 129.368385 
L 178.559706 129.368385 
" clip-path="url(#p9a771a93e4)" style="fill: none; stroke: #17becf; stroke-width: 1.5; stroke-linecap: square"/>
   </g>
  </g>
 </g>
 <defs>
  <clipPath id="p9a771a93e4">
   <rect x="7.2" y="7.2" width="194.04" height="194.04"/>
  </clipPath>
 </defs>
</svg>
