<?xml version="1.0" encoding="utf-8" standalone="no"?>
<!DOCTYPE svg PUBLIC "-//W3C//DTD SVG 1.1//EN"
  "http://www.w3.org/Graphics/SVG/1.1/DTD/svg11.dtd">
<svg xmlns:xlink="http://www.w3.org/1999/xlink" width="356.720313pt" height="109.995469pt" viewBox="0 0 356.720313 109.995469" xmlns="http://www.w3.org/2000/svg" version="1.1">
 <metadata>
  <rdf:RDF xmlns:dc="http://purl.org/dc/elements/1.1/" xmlns:cc="http://creativecommons.org/ns#" xmlns:rdf="http://www.w3.org/1999/02/22-rdf-syntax-ns#">
   <cc:Work>
    <dc:type rdf:resource="http://purl.org/dc/dcmitype/StillImage"/>
    <dc:date>2025-01-14T09:38:52.589653</dc:date>
    <dc:format>image/svg+xml</dc:format>
    <dc:creator>
     <cc:Agent>
      <dc:title>Matplotlib v3.9.2, https://matplotlib.org/</dc:title>
     </cc:Agent>
    </dc:creator>
   </cc:Work>
  </rdf:RDF>
 </metadata>
 <defs>
  <style type="text/css">*{stroke-linejoin: round; stroke-linecap: butt}</style>
 </defs>
 <g id="figure_1">
  <g id="patch_1">
   <path d="M 0 109.995469 
L 356.720313 109.995469 
L 356.720313 0 
L 0 0 
z
" style="fill: #ffffff"/>
  </g>
  <g id="axes_1">
   <g id="patch_2">
    <path d="M 42.620313 72.439219 
L 349.520313 72.439219 
L 349.520313 10.999219 
L 42.620313 10.999219 
z
" style="fill: #ffffff"/>
   </g>
   <g id="matplotlib.axis_1">
    <g id="xtick_1">
     <g id="line2d_1">
      <defs>
       <path id="md9924a2891" d="M 0 0 
L 0 3.5 
" style="stroke: #000000; stroke-width: 0.8"/>
      </defs>
      <g>
       <use xlink:href="#md9924a2891" x="42.620313" y="72.439219" style="stroke: #000000; stroke-width: 0.8"/>
      </g>
     </g>
     <g id="text_1">
      <!-- 0.00 -->
      <g transform="translate(31.4875 87.037656) scale(0.1 -0.1)">
       <defs>
        <path id="DejaVuSans-30" d="M 2034 4250 
Q 1547 4250 1301 3770 
Q 1056 3291 1056 2328 
Q 1056 1369 1301 889 
Q 1547 409 2034 409 
Q 2525 409 2770 889 
Q 3016 1369 3016 2328 
Q 3016 3291 2770 3770 
Q 2525 4250 2034 4250 
z
M 2034 4750 
Q 2819 4750 3233 4129 
Q 3647 3509 3647 2328 
Q 3647 1150 3233 529 
Q 2819 -91 2034 -91 
Q 1250 -91 836 529 
Q 422 1150 422 2328 
Q 422 3509 836 4129 
Q 1250 4750 2034 4750 
z
" transform="scale(0.015625)"/>
        <path id="DejaVuSans-2e" d="M 684 794 
L 1344 794 
L 1344 0 
L 684 0 
L 684 794 
z
" transform="scale(0.015625)"/>
       </defs>
       <use xlink:href="#DejaVuSans-30"/>
       <use xlink:href="#DejaVuSans-2e" x="63.623047"/>
       <use xlink:href="#DejaVuSans-30" x="95.410156"/>
       <use xlink:href="#DejaVuSans-30" x="159.033203"/>
      </g>
     </g>
    </g>
    <g id="xtick_2">
     <g id="line2d_2">
      <g>
       <use xlink:href="#md9924a2891" x="104.060313" y="72.439219" style="stroke: #000000; stroke-width: 0.8"/>
      </g>
     </g>
     <g id="text_2">
      <!-- 0.05 -->
      <g transform="translate(92.9275 87.037656) scale(0.1 -0.1)">
       <defs>
        <path id="DejaVuSans-35" d="M 691 4666 
L 3169 4666 
L 3169 4134 
L 1269 4134 
L 1269 2991 
Q 1406 3038 1543 3061 
Q 1681 3084 1819 3084 
Q 2600 3084 3056 2656 
Q 3513 2228 3513 1497 
Q 3513 744 3044 326 
Q 2575 -91 1722 -91 
Q 1428 -91 1123 -41 
Q 819 9 494 109 
L 494 744 
Q 775 591 1075 516 
Q 1375 441 1709 441 
Q 2250 441 2565 725 
Q 2881 1009 2881 1497 
Q 2881 1984 2565 2268 
Q 2250 2553 1709 2553 
Q 1456 2553 1204 2497 
Q 953 2441 691 2322 
L 691 4666 
z
" transform="scale(0.015625)"/>
       </defs>
       <use xlink:href="#DejaVuSans-30"/>
       <use xlink:href="#DejaVuSans-2e" x="63.623047"/>
       <use xlink:href="#DejaVuSans-30" x="95.410156"/>
       <use xlink:href="#DejaVuSans-35" x="159.033203"/>
      </g>
     </g>
    </g>
    <g id="xtick_3">
     <g id="line2d_3">
      <g>
       <use xlink:href="#md9924a2891" x="165.500313" y="72.439219" style="stroke: #000000; stroke-width: 0.8"/>
      </g>
     </g>
     <g id="text_3">
      <!-- 0.10 -->
      <g transform="translate(154.3675 87.037656) scale(0.1 -0.1)">
       <defs>
        <path id="DejaVuSans-31" d="M 794 531 
L 1825 531 
L 1825 4091 
L 703 3866 
L 703 4441 
L 1819 4666 
L 2450 4666 
L 2450 531 
L 3481 531 
L 3481 0 
L 794 0 
L 794 531 
z
" transform="scale(0.015625)"/>
       </defs>
       <use xlink:href="#DejaVuSans-30"/>
       <use xlink:href="#DejaVuSans-2e" x="63.623047"/>
       <use xlink:href="#DejaVuSans-31" x="95.410156"/>
       <use xlink:href="#DejaVuSans-30" x="159.033203"/>
      </g>
     </g>
    </g>
    <g id="xtick_4">
     <g id="line2d_4">
      <g>
       <use xlink:href="#md9924a2891" x="226.940313" y="72.439219" style="stroke: #000000; stroke-width: 0.8"/>
      </g>
     </g>
     <g id="text_4">
      <!-- 0.15 -->
      <g transform="translate(215.8075 87.037656) scale(0.1 -0.1)">
       <use xlink:href="#DejaVuSans-30"/>
       <use xlink:href="#DejaVuSans-2e" x="63.623047"/>
       <use xlink:href="#DejaVuSans-31" x="95.410156"/>
       <use xlink:href="#DejaVuSans-35" x="159.033203"/>
      </g>
     </g>
    </g>
    <g id="xtick_5">
     <g id="line2d_5">
      <g>
       <use xlink:href="#md9924a2891" x="288.380313" y="72.439219" style="stroke: #000000; stroke-width: 0.8"/>
      </g>
     </g>
     <g id="text_5">
      <!-- 0.20 -->
      <g transform="translate(277.2475 87.037656) scale(0.1 -0.1)">
       <defs>
        <path id="DejaVuSans-32" d="M 1228 531 
L 3431 531 
L 3431 0 
L 469 0 
L 469 531 
Q 828 903 1448 1529 
Q 2069 2156 2228 2338 
Q 2531 2678 2651 2914 
Q 2772 3150 2772 3378 
Q 2772 3750 2511 3984 
Q 2250 4219 1831 4219 
Q 1534 4219 1204 4116 
Q 875 4013 500 3803 
L 500 4441 
Q 881 4594 1212 4672 
Q 1544 4750 1819 4750 
Q 2544 4750 2975 4387 
Q 3406 4025 3406 3419 
Q 3406 3131 3298 2873 
Q 3191 2616 2906 2266 
Q 2828 2175 2409 1742 
Q 1991 1309 1228 531 
z
" transform="scale(0.015625)"/>
       </defs>
       <use xlink:href="#DejaVuSans-30"/>
       <use xlink:href="#DejaVuSans-2e" x="63.623047"/>
       <use xlink:href="#DejaVuSans-32" x="95.410156"/>
       <use xlink:href="#DejaVuSans-30" x="159.033203"/>
      </g>
     </g>
    </g>
    <g id="text_6">
     <!-- Time [s] -->
     <g transform="translate(175.741406 100.715781) scale(0.1 -0.1)">
      <defs>
       <path id="DejaVuSans-54" d="M -19 4666 
L 3928 4666 
L 3928 4134 
L 2272 4134 
L 2272 0 
L 1638 0 
L 1638 4134 
L -19 4134 
L -19 4666 
z
" transform="scale(0.015625)"/>
       <path id="DejaVuSans-69" d="M 603 3500 
L 1178 3500 
L 1178 0 
L 603 0 
L 603 3500 
z
M 603 4863 
L 1178 4863 
L 1178 4134 
L 603 4134 
L 603 4863 
z
" transform="scale(0.015625)"/>
       <path id="DejaVuSans-6d" d="M 3328 2828 
Q 3544 3216 3844 3400 
Q 4144 3584 4550 3584 
Q 5097 3584 5394 3201 
Q 5691 2819 5691 2113 
L 5691 0 
L 5113 0 
L 5113 2094 
Q 5113 2597 4934 2840 
Q 4756 3084 4391 3084 
Q 3944 3084 3684 2787 
Q 3425 2491 3425 1978 
L 3425 0 
L 2847 0 
L 2847 2094 
Q 2847 2600 2669 2842 
Q 2491 3084 2119 3084 
Q 1678 3084 1418 2786 
Q 1159 2488 1159 1978 
L 1159 0 
L 581 0 
L 581 3500 
L 1159 3500 
L 1159 2956 
Q 1356 3278 1631 3431 
Q 1906 3584 2284 3584 
Q 2666 3584 2933 3390 
Q 3200 3197 3328 2828 
z
" transform="scale(0.015625)"/>
       <path id="DejaVuSans-65" d="M 3597 1894 
L 3597 1613 
L 953 1613 
Q 991 1019 1311 708 
Q 1631 397 2203 397 
Q 2534 397 2845 478 
Q 3156 559 3463 722 
L 3463 178 
Q 3153 47 2828 -22 
Q 2503 -91 2169 -91 
Q 1331 -91 842 396 
Q 353 884 353 1716 
Q 353 2575 817 3079 
Q 1281 3584 2069 3584 
Q 2775 3584 3186 3129 
Q 3597 2675 3597 1894 
z
M 3022 2063 
Q 3016 2534 2758 2815 
Q 2500 3097 2075 3097 
Q 1594 3097 1305 2825 
Q 1016 2553 972 2059 
L 3022 2063 
z
" transform="scale(0.015625)"/>
       <path id="DejaVuSans-20" transform="scale(0.015625)"/>
       <path id="DejaVuSans-5b" d="M 550 4863 
L 1875 4863 
L 1875 4416 
L 1125 4416 
L 1125 -397 
L 1875 -397 
L 1875 -844 
L 550 -844 
L 550 4863 
z
" transform="scale(0.015625)"/>
       <path id="DejaVuSans-73" d="M 2834 3397 
L 2834 2853 
Q 2591 2978 2328 3040 
Q 2066 3103 1784 3103 
Q 1356 3103 1142 2972 
Q 928 2841 928 2578 
Q 928 2378 1081 2264 
Q 1234 2150 1697 2047 
L 1894 2003 
Q 2506 1872 2764 1633 
Q 3022 1394 3022 966 
Q 3022 478 2636 193 
Q 2250 -91 1575 -91 
Q 1294 -91 989 -36 
Q 684 19 347 128 
L 347 722 
Q 666 556 975 473 
Q 1284 391 1588 391 
Q 1994 391 2212 530 
Q 2431 669 2431 922 
Q 2431 1156 2273 1281 
Q 2116 1406 1581 1522 
L 1381 1569 
Q 847 1681 609 1914 
Q 372 2147 372 2553 
Q 372 3047 722 3315 
Q 1072 3584 1716 3584 
Q 2034 3584 2315 3537 
Q 2597 3491 2834 3397 
z
" transform="scale(0.015625)"/>
       <path id="DejaVuSans-5d" d="M 1947 4863 
L 1947 -844 
L 622 -844 
L 622 -397 
L 1369 -397 
L 1369 4416 
L 622 4416 
L 622 4863 
L 1947 4863 
z
" transform="scale(0.015625)"/>
      </defs>
      <use xlink:href="#DejaVuSans-54"/>
      <use xlink:href="#DejaVuSans-69" x="57.958984"/>
      <use xlink:href="#DejaVuSans-6d" x="85.742188"/>
      <use xlink:href="#DejaVuSans-65" x="183.154297"/>
      <use xlink:href="#DejaVuSans-20" x="244.677734"/>
      <use xlink:href="#DejaVuSans-5b" x="276.464844"/>
      <use xlink:href="#DejaVuSans-73" x="315.478516"/>
      <use xlink:href="#DejaVuSans-5d" x="367.578125"/>
     </g>
    </g>
   </g>
   <g id="matplotlib.axis_2">
    <g id="ytick_1">
     <g id="line2d_6">
      <defs>
       <path id="mbd0fffb9f2" d="M 0 0 
L -3.5 0 
" style="stroke: #000000; stroke-width: 0.8"/>
      </defs>
      <g>
       <use xlink:href="#mbd0fffb9f2" x="42.620313" y="72.439219" style="stroke: #000000; stroke-width: 0.8"/>
      </g>
     </g>
     <g id="text_7">
      <!-- −5 -->
      <g transform="translate(20.878125 76.238437) scale(0.1 -0.1)">
       <defs>
        <path id="DejaVuSans-2212" d="M 678 2272 
L 4684 2272 
L 4684 1741 
L 678 1741 
L 678 2272 
z
" transform="scale(0.015625)"/>
       </defs>
       <use xlink:href="#DejaVuSans-2212"/>
       <use xlink:href="#DejaVuSans-35" x="83.789062"/>
      </g>
     </g>
    </g>
    <g id="ytick_2">
     <g id="line2d_7">
      <g>
       <use xlink:href="#mbd0fffb9f2" x="42.620313" y="41.719219" style="stroke: #000000; stroke-width: 0.8"/>
      </g>
     </g>
     <g id="text_8">
      <!-- 0 -->
      <g transform="translate(29.257813 45.518437) scale(0.1 -0.1)">
       <use xlink:href="#DejaVuSans-30"/>
      </g>
     </g>
    </g>
    <g id="ytick_3">
     <g id="line2d_8">
      <g>
       <use xlink:href="#mbd0fffb9f2" x="42.620313" y="10.999219" style="stroke: #000000; stroke-width: 0.8"/>
      </g>
     </g>
     <g id="text_9">
      <!-- 5 -->
      <g transform="translate(29.257813 14.798437) scale(0.1 -0.1)">
       <use xlink:href="#DejaVuSans-35"/>
      </g>
     </g>
    </g>
    <g id="text_10">
     <!-- $f$ -->
     <g transform="translate(14.798438 43.519219) rotate(-90) scale(0.1 -0.1)">
      <defs>
       <path id="DejaVuSans-Oblique-66" d="M 3059 4863 
L 2969 4384 
L 2419 4384 
Q 2106 4384 1964 4261 
Q 1822 4138 1753 3809 
L 1691 3500 
L 2638 3500 
L 2553 3053 
L 1606 3053 
L 1013 0 
L 434 0 
L 1031 3053 
L 481 3053 
L 563 3500 
L 1113 3500 
L 1159 3744 
Q 1278 4363 1576 4613 
Q 1875 4863 2516 4863 
L 3059 4863 
z
" transform="scale(0.015625)"/>
      </defs>
      <use xlink:href="#DejaVuSans-Oblique-66" transform="translate(0 0.015625)"/>
     </g>
    </g>
   </g>
   <g id="line2d_9">
    <path d="M 42.620313 45.865628 
L 43.820313 41.93724 
L 44.420313 40.540561 
L 45.020313 39.760445 
L 45.320313 39.626223 
L 45.620313 39.662912 
L 45.920313 39.862743 
L 46.520313 40.690723 
L 47.420313 42.643495 
L 48.620313 45.260466 
L 49.220313 46.001482 
L 49.520313 46.140869 
L 49.820313 46.10474 
L 50.120313 45.884501 
L 50.720313 44.889688 
L 51.320313 43.217491 
L 52.220313 39.807281 
L 53.720313 33.897259 
L 54.320313 32.278069 
L 54.920313 31.423353 
L 55.220313 31.322292 
L 55.520313 31.447049 
L 55.820313 31.795338 
L 56.420313 33.119824 
L 57.020313 35.148801 
L 58.220313 40.347007 
L 59.120313 44.096621 
L 59.720313 46.015354 
L 60.320313 47.247493 
L 60.620313 47.57521 
L 60.920313 47.707211 
L 61.220313 47.649144 
L 61.520313 47.413 
L 62.120313 46.483155 
L 63.020313 44.350102 
L 64.220313 41.496713 
L 64.820312 40.625175 
L 65.120313 40.408827 
L 65.420313 40.355685 
L 65.720313 40.470703 
L 66.020313 40.75238 
L 66.620313 41.77784 
L 67.520313 44.178712 
L 69.020313 48.474984 
L 69.620313 49.518627 
L 69.920313 49.783485 
L 70.220313 49.852873 
L 70.520313 49.716162 
L 70.820312 49.369246 
L 71.420313 48.061959 
L 72.020313 46.030493 
L 72.920313 42.068364 
L 74.420313 35.374306 
L 75.020313 33.49762 
L 75.620313 32.397297 
L 75.920313 32.170755 
L 76.220313 32.164069 
L 76.520313 32.371854 
L 77.120313 33.376945 
L 77.720313 35.021023 
L 80.120313 42.827711 
L 80.720313 43.828409 
L 81.020313 44.074318 
L 81.320312 44.145945 
L 81.620313 44.047906 
L 82.220313 43.392338 
L 82.820312 42.261461 
L 84.620313 38.410278 
L 85.220313 37.814042 
L 85.520313 37.756799 
L 85.820312 37.877501 
L 86.120313 38.181415 
L 86.720313 39.32729 
L 87.320313 41.107261 
L 88.520313 45.778786 
L 89.420313 49.184927 
L 90.020313 50.879696 
L 90.620313 51.849423 
L 90.920313 52.016402 
L 91.220313 51.959352 
L 91.520313 51.677605 
L 92.120313 50.471263 
L 92.720313 48.523568 
L 93.920313 43.323269 
L 95.120313 38.307084 
L 95.720313 36.541508 
L 96.320313 35.507526 
L 96.620313 35.287274 
L 96.920313 35.263597 
L 97.220313 35.427381 
L 97.820313 36.250765 
L 98.420313 37.573401 
L 100.220313 41.99266 
L 100.820313 42.785863 
L 101.120313 42.953052 
L 101.420313 42.954395 
L 101.720313 42.788132 
L 102.320313 41.977912 
L 102.920313 40.633314 
L 105.020313 34.964295 
L 105.620313 34.144618 
L 105.920313 34.004015 
L 106.220313 34.062729 
L 106.520313 34.327825 
L 107.120313 35.472151 
L 107.720313 37.360945 
L 108.620313 41.188928 
L 110.120313 47.943299 
L 110.720313 49.931349 
L 111.320313 51.169402 
L 111.620313 51.467776 
L 111.920313 51.544325 
L 112.220313 51.401492 
L 112.520313 51.048417 
L 113.120313 49.779352 
L 114.020313 46.85876 
L 115.520313 41.530143 
L 116.120313 40.01322 
L 116.720313 39.129124 
L 117.020313 38.948986 
L 117.320313 38.943728 
L 117.620313 39.105498 
L 118.220313 39.868697 
L 119.120313 41.751912 
L 120.320313 44.329146 
L 120.920313 45.075581 
L 121.220313 45.224784 
L 121.520313 45.203549 
L 121.820313 45.003531 
L 122.420313 44.066031 
L 123.020313 42.474695 
L 123.920313 39.230458 
L 125.420313 33.700922 
L 126.020313 32.258308 
L 126.320313 31.816456 
L 126.620313 31.584976 
L 126.920313 31.574165 
L 127.220313 31.787639 
L 127.520313 32.222188 
L 128.120313 33.708272 
L 128.720313 35.87889 
L 131.420313 47.029683 
L 132.020313 48.241904 
L 132.320313 48.549816 
L 132.620313 48.656083 
L 132.920313 48.566865 
L 133.220313 48.294682 
L 133.820313 47.280193 
L 134.720313 44.995998 
L 135.920313 41.91183 
L 136.520313 40.916699 
L 136.820313 40.636953 
L 137.120313 40.519435 
L 137.420313 40.569153 
L 137.720313 40.78466 
L 138.320313 41.675471 
L 138.920313 43.058421 
L 140.720313 47.832265 
L 141.320313 48.755495 
L 141.620313 48.965384 
L 141.920313 48.984171 
L 142.220313 48.801886 
L 142.520313 48.415069 
L 143.120313 47.04741 
L 143.720313 44.984927 
L 144.920313 39.629275 
L 146.120313 34.533494 
L 146.720313 32.783498 
L 147.320313 31.831398 
L 147.620313 31.685033 
L 147.920313 31.761417 
L 148.220313 32.054284 
L 148.820313 33.232089 
L 149.420313 35.046794 
L 151.820313 43.417264 
L 152.420313 44.516076 
L 152.720313 44.80417 
L 153.020313 44.913512 
L 153.320313 44.848834 
L 153.620313 44.621169 
L 154.220313 43.749729 
L 155.120313 41.795086 
L 156.020313 39.829924 
L 156.620313 38.940804 
L 156.920313 38.701708 
L 157.220313 38.624251 
L 157.520313 38.719789 
L 157.820313 38.993396 
L 158.420313 40.062593 
L 159.020313 41.743878 
L 160.220313 46.154137 
L 161.120313 49.318021 
L 161.720313 50.837571 
L 162.320313 51.628305 
L 162.620313 51.706562 
L 162.920313 51.562525 
L 163.220313 51.196436 
L 163.820313 49.832886 
L 164.420313 47.748679 
L 165.620313 42.35771 
L 166.820313 37.277822 
L 167.420313 35.5277 
L 168.020313 34.537344 
L 168.320313 34.34827 
L 168.620313 34.361286 
L 168.920313 34.566704 
L 169.520313 35.485867 
L 170.420313 37.748773 
L 171.620313 41.049861 
L 172.220313 42.238962 
L 172.820313 42.861732 
L 173.120313 42.928902 
L 173.420313 42.828703 
L 173.720313 42.565777 
L 174.320313 41.601398 
L 175.220313 39.386319 
L 176.420313 36.284959 
L 177.020313 35.266706 
L 177.320313 34.990003 
L 177.620313 34.894814 
L 177.920313 34.993935 
L 178.220313 35.293824 
L 178.820313 36.488612 
L 179.420313 38.399069 
L 180.320313 42.199543 
L 181.820313 48.745709 
L 182.420313 50.600788 
L 183.020313 51.684887 
L 183.320313 51.900443 
L 183.620313 51.89145 
L 183.920313 51.661254 
L 184.520313 50.583753 
L 185.120313 48.8208 
L 186.320313 44.214476 
L 187.220313 40.93481 
L 187.820313 39.315724 
L 188.420313 38.349963 
L 188.720313 38.136477 
L 189.020313 38.102676 
L 189.320313 38.240543 
L 189.920313 38.969177 
L 190.820313 40.831497 
L 192.020313 43.435924 
L 192.620313 44.220284 
L 192.920313 44.394963 
L 193.220313 44.403756 
L 193.520313 44.238472 
L 193.820313 43.897335 
L 194.420313 42.712859 
L 195.020313 40.962841 
L 197.420313 32.997862 
L 198.020313 32.096122 
L 198.320313 31.951395 
L 198.620313 32.02541 
L 198.920313 32.320885 
L 199.520313 33.553144 
L 200.120313 35.53711 
L 201.020313 39.459167 
L 202.520313 46.142063 
L 203.120313 48.044818 
L 203.720313 49.203254 
L 204.020313 49.474724 
L 204.320313 49.538957 
L 204.620313 49.402733 
L 204.920313 49.079199 
L 205.520313 47.951438 
L 206.420313 45.479432 
L 207.620313 42.130249 
L 208.220313 41.001626 
L 208.820313 40.471848 
L 209.120313 40.455871 
L 209.420313 40.606135 
L 210.020313 41.368094 
L 210.620313 42.625061 
L 212.420313 47.055957 
L 213.020313 47.886574 
L 213.320313 48.056478 
L 213.620313 48.040245 
L 213.920313 47.828469 
L 214.220313 47.418236 
L 214.820313 46.023951 
L 215.420313 43.964508 
L 216.620313 38.710896 
L 217.520313 34.894175 
L 218.120313 32.946411 
L 218.720313 31.737302 
L 219.020313 31.453753 
L 219.320313 31.394976 
L 219.620313 31.560573 
L 219.920313 31.943357 
L 220.520313 33.29952 
L 221.420313 36.437602 
L 223.220313 43.334756 
L 223.820313 44.841659 
L 224.420313 45.657957 
L 224.720313 45.79093 
L 225.020313 45.744853 
L 225.320313 45.530975 
L 225.920313 44.673531 
L 226.820313 42.708665 
L 227.720313 40.698398 
L 228.320313 39.759944 
L 228.620313 39.490193 
L 228.920313 39.377947 
L 229.220313 39.434444 
L 229.520313 39.664655 
L 230.120313 40.633688 
L 230.720313 42.196886 
L 231.920313 46.321277 
L 232.820313 49.238168 
L 233.420313 50.58615 
L 233.720313 50.997268 
L 234.020313 51.206933 
L 234.320313 51.20295 
L 234.620313 50.979661 
L 234.920313 50.538177 
L 235.520313 49.03869 
L 236.120313 46.843277 
L 237.620313 39.918546 
L 238.520313 36.245022 
L 239.120313 34.544332 
L 239.720313 33.630715 
L 240.020313 33.488786 
L 240.320313 33.553933 
L 240.620313 33.815796 
L 241.220313 34.858123 
L 242.120313 37.322112 
L 243.620313 41.625313 
L 244.220313 42.683363 
L 244.520313 42.982173 
L 244.820313 43.114407 
L 245.120313 43.078192 
L 245.420313 42.878119 
L 246.020313 42.035804 
L 246.920313 39.993057 
L 248.120313 37.092216 
L 248.720313 36.155322 
L 249.020313 35.912962 
L 249.320313 35.847211 
L 249.620313 35.970348 
L 249.920313 36.288328 
L 250.520313 37.499666 
L 251.120313 39.397923 
L 252.020313 43.122109 
L 253.520313 49.39111 
L 254.120313 51.092122 
L 254.720313 52.005775 
L 255.020313 52.132135 
L 255.320313 52.032523 
L 255.620313 51.711219 
L 256.220313 50.453709 
L 256.820313 48.519414 
L 259.520313 38.478947 
L 260.120313 37.458765 
L 260.420313 37.226632 
L 260.720313 37.179583 
L 261.020313 37.30934 
L 261.620313 38.036101 
L 262.220313 39.229434 
L 263.720313 42.624465 
L 264.320313 43.476635 
L 264.620313 43.690742 
L 264.920313 43.742739 
L 265.220313 43.624508 
L 265.520313 43.334331 
L 266.120313 42.263601 
L 266.720313 40.642825 
L 269.120313 33.307801 
L 269.720313 32.570587 
L 270.020313 32.505104 
L 270.320313 32.655221 
L 270.620313 33.022814 
L 271.220313 34.384126 
L 271.820313 36.472034 
L 273.020313 41.931343 
L 274.220313 47.171397 
L 274.820313 49.015408 
L 275.420313 50.087488 
L 275.720313 50.306952 
L 276.020313 50.314202 
L 276.320313 50.116728 
L 276.920313 49.168921 
L 277.520313 47.640314 
L 279.620313 41.439493 
L 280.220313 40.462737 
L 280.520313 40.214955 
L 280.820313 40.136508 
L 281.120313 40.226042 
L 281.420313 40.4758 
L 282.020313 41.394905 
L 282.920313 43.46203 
L 284.120313 46.184444 
L 284.720313 46.953667 
L 285.020313 47.099882 
L 285.320313 47.065253 
L 285.620313 46.840831 
L 286.220313 45.819319 
L 286.820313 44.094275 
L 287.720313 40.553657 
L 289.220313 34.300283 
L 289.820313 32.510378 
L 290.420313 31.474664 
L 290.720313 31.281478 
L 291.020313 31.314277 
L 291.320313 31.571719 
L 291.920313 32.721529 
L 292.520313 34.590883 
L 293.720313 39.537087 
L 294.920313 44.181468 
L 295.520313 45.746574 
L 296.120313 46.596127 
L 296.420313 46.73697 
L 296.720313 46.693319 
L 297.020313 46.476742 
L 297.620313 45.599795 
L 298.520313 43.574691 
L 299.720313 40.906309 
L 300.320313 40.141805 
L 300.620313 39.982351 
L 300.920313 39.988317 
L 301.220313 40.164639 
L 301.820313 41.015779 
L 302.420313 42.447877 
L 303.620313 46.2758 
L 304.520313 48.951842 
L 305.120313 50.138994 
L 305.420313 50.471797 
L 305.720313 50.605611 
L 306.020313 50.529057 
L 306.320313 50.237295 
L 306.920313 49.022499 
L 307.520313 47.055624 
L 308.420313 43.129964 
L 309.920313 36.325881 
L 310.520313 34.350189 
L 311.120313 33.125727 
L 311.420313 32.8295 
L 311.720313 32.749111 
L 312.020313 32.879999 
L 312.320313 33.211048 
L 312.920313 34.399101 
L 313.820313 37.089741 
L 315.320313 41.756613 
L 315.920313 42.947439 
L 316.520313 43.50222 
L 316.820313 43.524372 
L 317.120313 43.380309 
L 317.720313 42.642863 
L 318.320313 41.443509 
L 320.120313 37.472364 
L 320.720313 36.869482 
L 321.020313 36.816389 
L 321.320313 36.946633 
L 321.620313 37.265772 
L 322.220313 38.460158 
L 322.820313 40.313909 
L 324.020313 45.209195 
L 325.220313 49.852405 
L 325.820313 51.384421 
L 326.120313 51.859144 
L 326.420313 52.117838 
L 326.720313 52.152119 
L 327.020313 51.960377 
L 327.320313 51.547835 
L 327.920313 50.114179 
L 328.520313 48.017794 
L 330.920313 38.333769 
L 331.520313 36.924113 
L 332.120313 36.261895 
L 332.420313 36.218078 
L 332.720313 36.35643 
L 333.320313 37.114971 
L 333.920313 38.357176 
L 335.720313 42.470252 
L 336.320313 43.145649 
L 336.620313 43.251463 
L 336.920313 43.189841 
L 337.220313 42.959064 
L 337.820313 42.015403 
L 338.420313 40.532166 
L 340.520313 34.366833 
L 341.120313 33.417292 
L 341.420313 33.216839 
L 341.720313 33.220028 
L 342.020313 33.434627 
L 342.320313 33.861741 
L 342.920313 35.324314 
L 343.520313 37.48552 
L 344.720313 42.993312 
L 345.920313 48.144935 
L 346.520313 49.898106 
L 347.120313 50.854057 
L 347.420313 51.00774 
L 347.720313 50.945091 
L 348.020313 50.674393 
L 348.620313 49.573303 
L 349.220313 47.887275 
L 349.520313 46.901113 
L 349.520313 46.901113 
" clip-path="url(#p50a92f8a6a)" style="fill: none; stroke: #1f77b4; stroke-width: 1.5; stroke-linecap: square"/>
   </g>
   <g id="line2d_10">
    <path d="M 42.620313 41.719219 
L 43.820313 35.737636 
L 44.420313 33.502562 
L 45.020313 32.067038 
L 45.320313 31.685609 
L 45.620313 31.534018 
L 45.920313 31.607577 
L 46.220313 31.89469 
L 46.820313 33.031542 
L 47.720313 35.717383 
L 49.220313 40.460525 
L 49.820313 41.67722 
L 50.420313 42.245049 
L 50.720313 42.268684 
L 51.020313 42.123276 
L 51.620313 41.378121 
L 52.520313 39.469373 
L 53.720313 36.787932 
L 54.320313 36.002216 
L 54.620313 35.848714 
L 54.920313 35.880956 
L 55.220313 36.110993 
L 55.520313 36.544191 
L 56.120313 38.006776 
L 56.720313 40.173957 
L 57.920313 45.770387 
L 59.120313 51.084533 
L 59.720313 52.892963 
L 60.320313 53.844046 
L 60.620313 53.962382 
L 60.920313 53.837463 
L 61.220313 53.474457 
L 61.820313 52.089628 
L 62.420313 49.981059 
L 65.120313 39.019418 
L 65.720313 37.843242 
L 66.020313 37.544056 
L 66.320312 37.436726 
L 66.620313 37.512181 
L 66.920313 37.754949 
L 67.520313 38.652319 
L 69.620313 42.802989 
L 69.920313 43.086209 
L 70.220313 43.213242 
L 70.520313 43.17004 
L 70.820312 42.949011 
L 71.420313 41.97701 
L 72.020313 40.371555 
L 72.920313 37.1765 
L 74.120313 32.86743 
L 74.720313 31.350973 
L 75.320312 30.586747 
L 75.620313 30.536275 
L 75.920313 30.720507 
L 76.220313 31.14087 
L 76.820312 32.659941 
L 77.420313 34.965502 
L 78.620313 40.975278 
L 79.820312 46.798761 
L 80.420313 48.9078 
L 81.020313 50.214426 
L 81.320312 50.538655 
L 81.620313 50.64245 
L 81.920313 50.533793 
L 82.220313 50.227323 
L 82.820312 49.10921 
L 83.720313 46.619464 
L 84.920313 43.261413 
L 85.520313 42.156135 
L 85.820312 41.829873 
L 86.120313 41.67114 
L 86.420313 41.68415 
L 86.720313 41.866315 
L 87.320313 42.694577 
L 87.920313 44.008666 
L 89.720313 48.395801 
L 90.320313 49.098043 
L 90.620313 49.179044 
L 90.920313 49.057761 
L 91.220313 48.725573 
L 91.820313 47.428669 
L 92.420313 45.358284 
L 93.320313 41.206133 
L 94.820313 33.863728 
L 95.420313 31.675762 
L 96.020313 30.288311 
L 96.320313 29.9398 
L 96.620313 29.831907 
L 96.920313 29.963528 
L 97.220313 30.326417 
L 97.820313 31.679357 
L 98.420313 33.698893 
L 100.820313 42.809122 
L 101.420313 44.016681 
L 101.720313 44.347028 
L 102.020313 44.492009 
L 102.320313 44.457868 
L 102.620313 44.2574 
L 103.220313 43.438235 
L 104.420313 40.937749 
L 105.020313 39.798665 
L 105.620313 39.08197 
L 105.920313 38.946096 
L 106.220313 38.982426 
L 106.520313 39.201183 
L 107.120313 40.193221 
L 107.720313 41.868482 
L 108.620313 45.296403 
L 110.120313 51.212279 
L 110.720313 52.789282 
L 111.020313 53.284111 
L 111.320313 53.55593 
L 111.620313 53.592339 
L 111.920313 53.387926 
L 112.220313 52.944475 
L 112.820313 51.383135 
L 113.420313 49.059479 
L 114.620313 43.147482 
L 115.820313 37.611176 
L 116.420313 35.684688 
L 117.020313 34.554414 
L 117.320313 34.307186 
L 117.620313 34.268228 
L 117.920313 34.426246 
L 118.520313 35.257028 
L 119.420313 37.374755 
L 120.620313 40.391619 
L 121.220313 41.385223 
L 121.520313 41.66484 
L 121.820313 41.780088 
L 122.120313 41.72433 
L 122.420313 41.4977 
L 123.020313 40.56602 
L 123.620313 39.11597 
L 125.420313 34.059144 
L 126.020313 33.065987 
L 126.320313 32.836481 
L 126.620313 32.811411 
L 126.920313 33.002808 
L 127.220313 33.415885 
L 127.820313 34.892616 
L 128.420313 37.143562 
L 129.320313 41.515683 
L 130.820313 48.987426 
L 131.420313 51.150837 
L 132.020313 52.49384 
L 132.320313 52.82004 
L 132.620313 52.909817 
L 132.920313 52.76746 
L 133.220313 52.404242 
L 133.820313 51.092514 
L 134.720313 48.088639 
L 136.220313 42.70215 
L 136.820313 41.21245 
L 137.420313 40.379469 
L 137.720313 40.230053 
L 138.020313 40.256228 
L 138.320313 40.447767 
L 138.920313 41.255314 
L 139.820313 43.128972 
L 140.720313 45.002053 
L 141.320313 45.799433 
L 141.620313 45.977519 
L 141.920313 45.98137 
L 142.220313 45.798013 
L 142.520313 45.421055 
L 143.120313 44.095169 
L 143.720313 42.089321 
L 144.920313 36.855383 
L 146.120313 31.915658 
L 146.720313 30.291271 
L 147.020313 29.790835 
L 147.320313 29.521986 
L 147.620313 29.494152 
L 147.920313 29.709621 
L 148.220313 30.163461 
L 148.820313 31.731557 
L 149.420313 34.026044 
L 152.120313 45.785116 
L 152.720313 47.091961 
L 153.020313 47.443692 
L 153.320313 47.593585 
L 153.620313 47.549722 
L 153.920313 47.326707 
L 154.520313 46.430598 
L 155.420313 44.404027 
L 156.320313 42.383224 
L 156.920313 41.47896 
L 157.220313 41.237315 
L 157.520313 41.158488 
L 157.820313 41.251535 
L 158.120313 41.518805 
L 158.720313 42.551449 
L 159.320313 44.142699 
L 161.420313 50.687445 
L 162.020313 51.683202 
L 162.320313 51.886711 
L 162.620313 51.871222 
L 162.920313 51.627861 
L 163.220313 51.154778 
L 163.820313 49.547647 
L 164.420313 47.174187 
L 165.620313 41.078772 
L 166.820313 35.235128 
L 167.420313 33.146641 
L 168.020313 31.886882 
L 168.320313 31.597496 
L 168.620313 31.536922 
L 168.920313 31.697668 
L 169.220313 32.065488 
L 169.820313 33.334987 
L 170.720313 36.122614 
L 171.920313 39.987959 
L 172.520313 41.375699 
L 173.120313 42.147342 
L 173.420313 42.275263 
L 173.720313 42.230297 
L 174.020313 42.020179 
L 174.620313 41.167157 
L 175.520313 39.179822 
L 176.420313 37.124109 
L 177.020313 36.17612 
L 177.320313 35.919562 
L 177.620313 35.838501 
L 177.920313 35.948781 
L 178.220313 36.259825 
L 178.820313 37.487637 
L 179.420313 39.459645 
L 180.320313 43.425753 
L 181.820313 50.402527 
L 182.420313 52.433096 
L 183.020313 53.656834 
L 183.320313 53.920602 
L 183.620313 53.941477 
L 183.920313 53.720302 
L 184.220313 53.265096 
L 184.820313 51.718654 
L 185.720313 48.208405 
L 187.520313 40.475013 
L 188.120313 38.724125 
L 188.720313 37.700244 
L 189.020313 37.478461 
L 189.320313 37.445703 
L 189.620313 37.59028 
L 190.220313 38.334428 
L 191.120313 40.174106 
L 192.020313 42.07679 
L 192.620313 42.933866 
L 192.920313 43.15669 
L 193.220313 43.216963 
L 193.520313 43.103168 
L 193.820313 42.810393 
L 194.420313 41.702372 
L 195.020313 39.988165 
L 197.720313 31.131881 
L 198.020313 30.726432 
L 198.320313 30.538783 
L 198.620313 30.581563 
L 198.920313 30.860478 
L 199.220313 31.374083 
L 199.820313 33.064052 
L 200.420313 35.502739 
L 201.920313 43.163966 
L 202.820313 47.277481 
L 203.420313 49.237343 
L 204.020313 50.370792 
L 204.320313 50.606332 
L 204.620313 50.623806 
L 204.920313 50.433911 
L 205.520313 49.506451 
L 206.120313 48.025782 
L 207.920313 42.997075 
L 208.520313 42.006078 
L 208.820313 41.745888 
L 209.120313 41.655727 
L 209.420313 41.73709 
L 209.720313 41.984683 
L 210.320313 42.924814 
L 211.220313 45.098432 
L 212.420313 48.066399 
L 213.020313 48.958398 
L 213.320313 49.153887 
L 213.620313 49.155439 
L 213.920313 48.950447 
L 214.220313 48.533023 
L 214.820313 47.072311 
L 215.420313 44.865048 
L 216.620313 39.058153 
L 217.820313 33.371732 
L 218.420313 31.32855 
L 219.020313 30.120262 
L 219.320313 29.867668 
L 219.620313 29.856118 
L 219.920313 30.081628 
L 220.220313 30.533169 
L 220.820313 32.037569 
L 221.720313 35.369105 
L 223.220313 41.370071 
L 223.820313 43.106615 
L 224.420313 44.171181 
L 224.720313 44.427066 
L 225.020313 44.499273 
L 225.320313 44.396713 
L 225.920313 43.734246 
L 226.820313 41.982733 
L 228.020313 39.614221 
L 228.620313 39.007877 
L 228.920313 38.939245 
L 229.220313 39.047687 
L 229.520313 39.340787 
L 230.120313 40.477228 
L 230.720313 42.27338 
L 231.920313 47.066022 
L 232.820313 50.611641 
L 233.420313 52.392967 
L 234.020313 53.420446 
L 234.320313 53.599205 
L 234.620313 53.539535 
L 234.920313 53.238888 
L 235.520313 51.940413 
L 236.120313 49.823744 
L 237.020313 45.608461 
L 238.520313 38.323852 
L 239.120313 36.184102 
L 239.720313 34.804886 
L 240.020313 34.430086 
L 240.320313 34.267095 
L 240.620313 34.30865 
L 240.920313 34.540856 
L 241.520313 35.491934 
L 242.420313 37.695514 
L 243.620313 40.631106 
L 244.220313 41.516093 
L 244.520313 41.731185 
L 244.820313 41.778451 
L 245.120313 41.653946 
L 245.420313 41.360528 
L 246.020313 40.311633 
L 246.920313 37.905668 
L 248.120313 34.471646 
L 248.720313 33.29442 
L 249.020313 32.950693 
L 249.320313 32.801098 
L 249.620313 32.861545 
L 249.920313 33.141381 
L 250.220313 33.643012 
L 250.820313 35.28589 
L 251.420313 37.670725 
L 252.620313 43.731916 
L 253.820313 49.477106 
L 254.420313 51.490037 
L 255.020313 52.652668 
L 255.320313 52.884241 
L 255.620313 52.880252 
L 255.920313 52.647818 
L 256.520313 51.559805 
L 257.120313 49.803466 
L 259.520313 41.595604 
L 260.120313 40.555165 
L 260.420313 40.298252 
L 260.720313 40.219879 
L 261.020313 40.313788 
L 261.620313 40.961238 
L 262.220313 42.070055 
L 263.720313 45.201632 
L 264.320313 45.890486 
L 264.620313 46.000837 
L 264.920313 45.931002 
L 265.220313 45.670591 
L 265.820313 44.570294 
L 266.420313 42.753188 
L 267.320313 39.051298 
L 268.820313 32.541919 
L 269.420313 30.696206 
L 270.020313 29.65482 
L 270.320313 29.48164 
L 270.620313 29.551258 
L 270.920313 29.86307 
L 271.520313 31.175161 
L 272.120313 33.275326 
L 273.320313 38.845014 
L 274.520313 44.20549 
L 275.120313 46.108956 
L 275.720313 47.257108 
L 276.020313 47.527568 
L 276.320313 47.598613 
L 276.620313 47.48099 
L 277.220313 46.753644 
L 277.820313 45.544752 
L 279.320313 42.163572 
L 279.920313 41.363614 
L 280.220313 41.185592 
L 280.520313 41.174798 
L 280.820313 41.337634 
L 281.420313 42.17589 
L 282.020313 43.617316 
L 283.220313 47.519037 
L 284.120313 50.25791 
L 284.720313 51.462181 
L 285.020313 51.790034 
L 285.320313 51.907446 
L 285.620313 51.801485 
L 285.920313 51.466058 
L 286.520313 50.117952 
L 287.120313 47.955192 
L 288.020313 43.630065 
L 289.520313 35.998055 
L 290.120313 33.692718 
L 290.720313 32.170816 
L 291.020313 31.743483 
L 291.320313 31.546073 
L 291.620313 31.575313 
L 291.920313 31.820961 
L 292.520313 32.888282 
L 293.120313 34.547181 
L 295.220313 41.018046 
L 295.820313 41.986908 
L 296.120313 42.219473 
L 296.420313 42.277739 
L 296.720313 42.165414 
L 297.320313 41.476712 
L 297.920313 40.307657 
L 299.720313 36.405503 
L 300.320313 35.865053 
L 300.620313 35.858976 
L 300.920313 36.048806 
L 301.220313 36.441273 
L 301.820313 37.826412 
L 302.420313 39.930373 
L 303.620313 45.476392 
L 304.820313 50.863497 
L 305.420313 52.748114 
L 306.020313 53.791241 
L 306.320313 53.958214 
L 306.620313 53.881763 
L 306.920313 53.565618 
L 307.520313 52.264268 
L 308.120313 50.217729 
L 309.320313 44.931649 
L 310.220313 41.122516 
L 310.820313 39.177834 
L 311.420313 37.926426 
L 311.720313 37.588372 
L 312.020313 37.443184 
L 312.320313 37.483122 
L 312.620313 37.693954 
L 313.220313 38.542431 
L 314.420313 41.111576 
L 315.320313 42.729264 
L 315.920313 43.201095 
L 316.220313 43.19276 
L 316.520313 43.007582 
L 317.120313 42.104769 
L 317.720313 40.556361 
L 318.620313 37.404934 
L 319.820313 33.05212 
L 320.420313 31.472006 
L 321.020313 30.624379 
L 321.320313 30.527765 
L 321.620313 30.664712 
L 321.920313 31.03808 
L 322.520313 32.46971 
L 323.120313 34.705282 
L 324.020313 39.075699 
L 325.520313 46.549849 
L 326.120313 48.730797 
L 326.720313 50.122916 
L 327.020313 50.491577 
L 327.320313 50.639041 
L 327.620313 50.57191 
L 327.920313 50.30353 
L 328.520313 49.246797 
L 329.420313 46.800322 
L 330.620313 43.400699 
L 331.220313 42.240648 
L 331.820313 41.689184 
L 332.120313 41.667834 
L 332.420313 41.816701 
L 333.020313 42.586747 
L 333.620313 43.861366 
L 335.420313 48.29129 
L 336.020313 49.058793 
L 336.320313 49.178632 
L 336.620313 49.098712 
L 336.920313 48.809066 
L 337.520313 47.595181 
L 338.120313 45.595915 
L 339.020313 41.507697 
L 340.820313 32.905047 
L 341.420313 31.015056 
L 342.020313 29.990344 
L 342.320313 29.834185 
L 342.620313 29.918337 
L 342.920313 30.235967 
L 343.520313 31.510222 
L 344.120313 33.474076 
L 346.520313 42.650489 
L 347.120313 43.928299 
L 347.420313 44.295868 
L 347.720313 44.477639 
L 348.020313 44.478502 
L 348.320313 44.309977 
L 348.920313 43.541023 
L 349.520313 42.373039 
L 349.520313 42.373039 
" clip-path="url(#p50a92f8a6a)" style="fill: none; stroke: #ff7f0e; stroke-width: 1.5; stroke-linecap: square"/>
   </g>
   <g id="patch_3">
    <path d="M 42.620313 72.439219 
L 42.620313 10.999219 
" style="fill: none; stroke: #000000; stroke-width: 0.8; stroke-linejoin: miter; stroke-linecap: square"/>
   </g>
   <g id="patch_4">
    <path d="M 349.520313 72.439219 
L 349.520313 10.999219 
" style="fill: none; stroke: #000000; stroke-width: 0.8; stroke-linejoin: miter; stroke-linecap: square"/>
   </g>
   <g id="patch_5">
    <path d="M 42.620313 72.439219 
L 349.520313 72.439219 
" style="fill: none; stroke: #000000; stroke-width: 0.8; stroke-linejoin: miter; stroke-linecap: square"/>
   </g>
   <g id="patch_6">
    <path d="M 42.620313 10.999219 
L 349.520313 10.999219 
" style="fill: none; stroke: #000000; stroke-width: 0.8; stroke-linejoin: miter; stroke-linecap: square"/>
   </g>
   <g id="legend_1">
    <g id="patch_7">
     <path d="M 282.140625 48.355469 
L 342.520313 48.355469 
Q 344.520313 48.355469 344.520313 46.355469 
L 344.520313 17.999219 
Q 344.520313 15.999219 342.520313 15.999219 
L 282.140625 15.999219 
Q 280.140625 15.999219 280.140625 17.999219 
L 280.140625 46.355469 
Q 280.140625 48.355469 282.140625 48.355469 
z
" style="fill: #ffffff; opacity: 0.8; stroke: #cccccc; stroke-linejoin: miter"/>
    </g>
    <g id="line2d_11">
     <path d="M 284.140625 24.097656 
L 294.140625 24.097656 
L 304.140625 24.097656 
" style="fill: none; stroke: #1f77b4; stroke-width: 1.5; stroke-linecap: square"/>
    </g>
    <g id="text_11">
     <!-- Noisy -->
     <g transform="translate(312.140625 27.597656) scale(0.1 -0.1)">
      <defs>
       <path id="DejaVuSans-4e" d="M 628 4666 
L 1478 4666 
L 3547 763 
L 3547 4666 
L 4159 4666 
L 4159 0 
L 3309 0 
L 1241 3903 
L 1241 0 
L 628 0 
L 628 4666 
z
" transform="scale(0.015625)"/>
       <path id="DejaVuSans-6f" d="M 1959 3097 
Q 1497 3097 1228 2736 
Q 959 2375 959 1747 
Q 959 1119 1226 758 
Q 1494 397 1959 397 
Q 2419 397 2687 759 
Q 2956 1122 2956 1747 
Q 2956 2369 2687 2733 
Q 2419 3097 1959 3097 
z
M 1959 3584 
Q 2709 3584 3137 3096 
Q 3566 2609 3566 1747 
Q 3566 888 3137 398 
Q 2709 -91 1959 -91 
Q 1206 -91 779 398 
Q 353 888 353 1747 
Q 353 2609 779 3096 
Q 1206 3584 1959 3584 
z
" transform="scale(0.015625)"/>
       <path id="DejaVuSans-79" d="M 2059 -325 
Q 1816 -950 1584 -1140 
Q 1353 -1331 966 -1331 
L 506 -1331 
L 506 -850 
L 844 -850 
Q 1081 -850 1212 -737 
Q 1344 -625 1503 -206 
L 1606 56 
L 191 3500 
L 800 3500 
L 1894 763 
L 2988 3500 
L 3597 3500 
L 2059 -325 
z
" transform="scale(0.015625)"/>
      </defs>
      <use xlink:href="#DejaVuSans-4e"/>
      <use xlink:href="#DejaVuSans-6f" x="74.804688"/>
      <use xlink:href="#DejaVuSans-69" x="135.986328"/>
      <use xlink:href="#DejaVuSans-73" x="163.769531"/>
      <use xlink:href="#DejaVuSans-79" x="215.869141"/>
     </g>
    </g>
    <g id="line2d_12">
     <path d="M 284.140625 38.775781 
L 294.140625 38.775781 
L 304.140625 38.775781 
" style="fill: none; stroke: #ff7f0e; stroke-width: 1.5; stroke-linecap: square"/>
    </g>
    <g id="text_12">
     <!-- Clean -->
     <g transform="translate(312.140625 42.275781) scale(0.1 -0.1)">
      <defs>
       <path id="DejaVuSans-43" d="M 4122 4306 
L 4122 3641 
Q 3803 3938 3442 4084 
Q 3081 4231 2675 4231 
Q 1875 4231 1450 3742 
Q 1025 3253 1025 2328 
Q 1025 1406 1450 917 
Q 1875 428 2675 428 
Q 3081 428 3442 575 
Q 3803 722 4122 1019 
L 4122 359 
Q 3791 134 3420 21 
Q 3050 -91 2638 -91 
Q 1578 -91 968 557 
Q 359 1206 359 2328 
Q 359 3453 968 4101 
Q 1578 4750 2638 4750 
Q 3056 4750 3426 4639 
Q 3797 4528 4122 4306 
z
" transform="scale(0.015625)"/>
       <path id="DejaVuSans-6c" d="M 603 4863 
L 1178 4863 
L 1178 0 
L 603 0 
L 603 4863 
z
" transform="scale(0.015625)"/>
       <path id="DejaVuSans-61" d="M 2194 1759 
Q 1497 1759 1228 1600 
Q 959 1441 959 1056 
Q 959 750 1161 570 
Q 1363 391 1709 391 
Q 2188 391 2477 730 
Q 2766 1069 2766 1631 
L 2766 1759 
L 2194 1759 
z
M 3341 1997 
L 3341 0 
L 2766 0 
L 2766 531 
Q 2569 213 2275 61 
Q 1981 -91 1556 -91 
Q 1019 -91 701 211 
Q 384 513 384 1019 
Q 384 1609 779 1909 
Q 1175 2209 1959 2209 
L 2766 2209 
L 2766 2266 
Q 2766 2663 2505 2880 
Q 2244 3097 1772 3097 
Q 1472 3097 1187 3025 
Q 903 2953 641 2809 
L 641 3341 
Q 956 3463 1253 3523 
Q 1550 3584 1831 3584 
Q 2591 3584 2966 3190 
Q 3341 2797 3341 1997 
z
" transform="scale(0.015625)"/>
       <path id="DejaVuSans-6e" d="M 3513 2113 
L 3513 0 
L 2938 0 
L 2938 2094 
Q 2938 2591 2744 2837 
Q 2550 3084 2163 3084 
Q 1697 3084 1428 2787 
Q 1159 2491 1159 1978 
L 1159 0 
L 581 0 
L 581 3500 
L 1159 3500 
L 1159 2956 
Q 1366 3272 1645 3428 
Q 1925 3584 2291 3584 
Q 2894 3584 3203 3211 
Q 3513 2838 3513 2113 
z
" transform="scale(0.015625)"/>
      </defs>
      <use xlink:href="#DejaVuSans-43"/>
      <use xlink:href="#DejaVuSans-6c" x="69.824219"/>
      <use xlink:href="#DejaVuSans-65" x="97.607422"/>
      <use xlink:href="#DejaVuSans-61" x="159.130859"/>
      <use xlink:href="#DejaVuSans-6e" x="220.410156"/>
     </g>
    </g>
   </g>
  </g>
 </g>
 <defs>
  <clipPath id="p50a92f8a6a">
   <rect x="42.620313" y="10.999219" width="306.9" height="61.44"/>
  </clipPath>
 </defs>
</svg>
