<?xml version="1.0" encoding="utf-8" standalone="no"?>
<!DOCTYPE svg PUBLIC "-//W3C//DTD SVG 1.1//EN"
  "http://www.w3.org/Graphics/SVG/1.1/DTD/svg11.dtd">
<svg xmlns:xlink="http://www.w3.org/1999/xlink" width="358.945312pt" height="117.211686pt" viewBox="0 0 358.945312 117.211686" xmlns="http://www.w3.org/2000/svg" version="1.1">
 <metadata>
  <rdf:RDF xmlns:dc="http://purl.org/dc/elements/1.1/" xmlns:cc="http://creativecommons.org/ns#" xmlns:rdf="http://www.w3.org/1999/02/22-rdf-syntax-ns#">
   <cc:Work>
    <dc:type rdf:resource="http://purl.org/dc/dcmitype/StillImage"/>
    <dc:date>2025-01-14T09:05:52.742385</dc:date>
    <dc:format>image/svg+xml</dc:format>
    <dc:creator>
     <cc:Agent>
      <dc:title>Matplotlib v3.9.2, https://matplotlib.org/</dc:title>
     </cc:Agent>
    </dc:creator>
   </cc:Work>
  </rdf:RDF>
 </metadata>
 <defs>
  <style type="text/css">*{stroke-linejoin: round; stroke-linecap: butt}</style>
 </defs>
 <g id="figure_1">
  <g id="patch_1">
   <path d="M 0 117.211686 
L 358.945312 117.211686 
L 358.945312 -0 
L 0 -0 
z
" style="fill: #ffffff"/>
  </g>
  <g id="axes_1">
   <g id="patch_2">
    <path d="M 44.845313 66.704941 
L 351.745312 66.704941 
L 351.745312 7.2 
L 44.845313 7.2 
z
" style="fill: #ffffff"/>
   </g>
   <g id="matplotlib.axis_1"/>
   <g id="matplotlib.axis_2">
    <g id="ytick_1">
     <g id="line2d_1">
      <defs>
       <path id="m8bde7d4d9b" d="M 0 0 
L -3.5 0 
" style="stroke: #000000; stroke-width: 0.8"/>
      </defs>
      <g>
       <use xlink:href="#m8bde7d4d9b" x="44.845313" y="53.636643" style="stroke: #000000; stroke-width: 0.8"/>
      </g>
     </g>
     <g id="text_1">
      <!-- −0.25 -->
      <g transform="translate(7.2 57.435862) scale(0.1 -0.1)">
       <defs>
        <path id="DejaVuSans-2212" d="M 678 2272 
L 4684 2272 
L 4684 1741 
L 678 1741 
L 678 2272 
z
" transform="scale(0.015625)"/>
        <path id="DejaVuSans-30" d="M 2034 4250 
Q 1547 4250 1301 3770 
Q 1056 3291 1056 2328 
Q 1056 1369 1301 889 
Q 1547 409 2034 409 
Q 2525 409 2770 889 
Q 3016 1369 3016 2328 
Q 3016 3291 2770 3770 
Q 2525 4250 2034 4250 
z
M 2034 4750 
Q 2819 4750 3233 4129 
Q 3647 3509 3647 2328 
Q 3647 1150 3233 529 
Q 2819 -91 2034 -91 
Q 1250 -91 836 529 
Q 422 1150 422 2328 
Q 422 3509 836 4129 
Q 1250 4750 2034 4750 
z
" transform="scale(0.015625)"/>
        <path id="DejaVuSans-2e" d="M 684 794 
L 1344 794 
L 1344 0 
L 684 0 
L 684 794 
z
" transform="scale(0.015625)"/>
        <path id="DejaVuSans-32" d="M 1228 531 
L 3431 531 
L 3431 0 
L 469 0 
L 469 531 
Q 828 903 1448 1529 
Q 2069 2156 2228 2338 
Q 2531 2678 2651 2914 
Q 2772 3150 2772 3378 
Q 2772 3750 2511 3984 
Q 2250 4219 1831 4219 
Q 1534 4219 1204 4116 
Q 875 4013 500 3803 
L 500 4441 
Q 881 4594 1212 4672 
Q 1544 4750 1819 4750 
Q 2544 4750 2975 4387 
Q 3406 4025 3406 3419 
Q 3406 3131 3298 2873 
Q 3191 2616 2906 2266 
Q 2828 2175 2409 1742 
Q 1991 1309 1228 531 
z
" transform="scale(0.015625)"/>
        <path id="DejaVuSans-35" d="M 691 4666 
L 3169 4666 
L 3169 4134 
L 1269 4134 
L 1269 2991 
Q 1406 3038 1543 3061 
Q 1681 3084 1819 3084 
Q 2600 3084 3056 2656 
Q 3513 2228 3513 1497 
Q 3513 744 3044 326 
Q 2575 -91 1722 -91 
Q 1428 -91 1123 -41 
Q 819 9 494 109 
L 494 744 
Q 775 591 1075 516 
Q 1375 441 1709 441 
Q 2250 441 2565 725 
Q 2881 1009 2881 1497 
Q 2881 1984 2565 2268 
Q 2250 2553 1709 2553 
Q 1456 2553 1204 2497 
Q 953 2441 691 2322 
L 691 4666 
z
" transform="scale(0.015625)"/>
       </defs>
       <use xlink:href="#DejaVuSans-2212"/>
       <use xlink:href="#DejaVuSans-30" x="83.789062"/>
       <use xlink:href="#DejaVuSans-2e" x="147.412109"/>
       <use xlink:href="#DejaVuSans-32" x="179.199219"/>
       <use xlink:href="#DejaVuSans-35" x="242.822266"/>
      </g>
     </g>
    </g>
    <g id="ytick_2">
     <g id="line2d_2">
      <g>
       <use xlink:href="#m8bde7d4d9b" x="44.845313" y="36.952471" style="stroke: #000000; stroke-width: 0.8"/>
      </g>
     </g>
     <g id="text_2">
      <!-- 0.00 -->
      <g transform="translate(15.579688 40.751689) scale(0.1 -0.1)">
       <use xlink:href="#DejaVuSans-30"/>
       <use xlink:href="#DejaVuSans-2e" x="63.623047"/>
       <use xlink:href="#DejaVuSans-30" x="95.410156"/>
       <use xlink:href="#DejaVuSans-30" x="159.033203"/>
      </g>
     </g>
    </g>
    <g id="ytick_3">
     <g id="line2d_3">
      <g>
       <use xlink:href="#m8bde7d4d9b" x="44.845313" y="20.268299" style="stroke: #000000; stroke-width: 0.8"/>
      </g>
     </g>
     <g id="text_3">
      <!-- 0.25 -->
      <g transform="translate(15.579688 24.067517) scale(0.1 -0.1)">
       <use xlink:href="#DejaVuSans-30"/>
       <use xlink:href="#DejaVuSans-2e" x="63.623047"/>
       <use xlink:href="#DejaVuSans-32" x="95.410156"/>
       <use xlink:href="#DejaVuSans-35" x="159.033203"/>
      </g>
     </g>
    </g>
   </g>
   <g id="line2d_4">
    <path d="M 58.795312 20.268299 
L 337.795313 20.268299 
L 337.795313 20.268299 
" clip-path="url(#p9a148ab421)" style="fill: none; stroke: #1f77b4; stroke-width: 1.5; stroke-linecap: square"/>
   </g>
   <g id="line2d_5">
    <path d="M 58.795312 64.000171 
L 62.61723 63.900436 
L 66.439148 63.601965 
L 70.807054 63.020397 
L 75.17496 62.187781 
L 79.542866 61.112134 
L 83.910772 59.803817 
L 88.278678 58.275429 
L 93.192573 56.311344 
L 98.106467 54.11135 
L 103.56635 51.422926 
L 109.572221 48.215933 
L 116.670068 44.166438 
L 126.497857 38.279638 
L 142.331516 28.783904 
L 149.429363 24.791518 
L 155.435234 21.650726 
L 160.895117 19.035647 
L 165.809011 16.911446 
L 170.722905 15.031467 
L 175.090812 13.583992 
L 179.458718 12.361567 
L 183.826624 11.375967 
L 188.19453 10.636682 
L 192.562436 10.150833 
L 196.384354 9.93735 
L 200.206271 9.923098 
L 204.028189 10.108181 
L 207.850107 10.491235 
L 212.218013 11.167734 
L 216.585919 12.092554 
L 220.953825 13.256789 
L 225.321731 14.649226 
L 230.235626 16.471713 
L 235.14952 18.543779 
L 240.609403 21.107986 
L 246.615273 24.202273 
L 253.167132 27.840375 
L 261.356956 32.655723 
L 285.926428 47.303178 
L 292.478287 50.857768 
L 298.484158 53.853483 
L 303.94404 56.311344 
L 308.857935 58.275429 
L 313.225841 59.803817 
L 317.593747 61.112134 
L 321.961653 62.187781 
L 326.329559 63.020397 
L 330.697465 63.601965 
L 334.519383 63.900436 
L 337.795313 63.998135 
L 337.795313 63.998135 
" clip-path="url(#p9a148ab421)" style="fill: none; stroke: #ff7f0e; stroke-width: 1.5; stroke-linecap: square"/>
   </g>
   <g id="line2d_6">
    <path d="M 58.795312 23.428111 
L 61.525254 23.529821 
L 64.255195 23.833419 
L 66.985136 24.334341 
L 70.261066 25.185101 
L 73.536995 26.29059 
L 76.812925 27.626876 
L 80.634843 29.438739 
L 85.002749 31.776922 
L 90.462631 34.968035 
L 103.56635 42.734879 
L 107.934256 45.008922 
L 111.756174 46.747449 
L 115.032103 48.009782 
L 118.308033 49.032757 
L 121.583962 49.794231 
L 124.313903 50.216963 
L 127.043845 50.440185 
L 129.773786 50.46054 
L 132.503727 50.27772 
L 135.233669 49.894476 
L 137.96361 49.316572 
L 141.23954 48.378574 
L 144.515469 47.193235 
L 147.791399 45.786215 
L 151.613316 43.905381 
L 155.981222 41.50869 
L 162.533082 37.61608 
L 171.814882 32.085121 
L 176.728776 29.438739 
L 180.550694 27.626876 
L 183.826624 26.29059 
L 187.102553 25.185101 
L 190.378483 24.334341 
L 193.108424 23.833419 
L 195.838365 23.529821 
L 198.568307 23.428111 
L 201.298248 23.529821 
L 204.028189 23.833419 
L 206.758131 24.334341 
L 210.03406 25.185101 
L 213.30999 26.29059 
L 216.585919 27.626876 
L 220.407837 29.438739 
L 224.775743 31.776922 
L 230.235626 34.968035 
L 243.339344 42.734879 
L 247.70725 45.008922 
L 251.529168 46.747449 
L 254.805097 48.009782 
L 258.081027 49.032757 
L 261.356956 49.794231 
L 264.086898 50.216963 
L 266.816839 50.440185 
L 269.54678 50.46054 
L 272.276722 50.27772 
L 275.006663 49.894476 
L 277.736604 49.316572 
L 281.012534 48.378574 
L 284.288463 47.193235 
L 287.564393 45.786215 
L 291.386311 43.905381 
L 295.754217 41.50869 
L 302.306076 37.61608 
L 311.587876 32.085121 
L 316.50177 29.438739 
L 320.323688 27.626876 
L 323.599618 26.29059 
L 326.875547 25.185101 
L 330.151477 24.334341 
L 332.881418 23.833419 
L 335.611359 23.529821 
L 337.795313 23.432184 
L 337.795313 23.432184 
" clip-path="url(#p9a148ab421)" style="fill: none; stroke: #2ca02c; stroke-width: 1.5; stroke-linecap: square"/>
   </g>
   <g id="line2d_7">
    <path d="M 58.795312 39.958073 
L 62.61723 39.858817 
L 66.985136 39.511305 
L 71.353042 38.943429 
L 76.812925 37.999679 
L 94.284549 34.750404 
L 98.652455 34.251413 
L 103.020361 33.985036 
L 106.842279 33.961342 
L 110.664197 34.135203 
L 115.032103 34.560502 
L 119.945997 35.282648 
L 126.497857 36.511457 
L 137.96361 38.713146 
L 142.877504 39.409805 
L 147.24541 39.806374 
L 151.067328 39.952416 
L 154.889246 39.900321 
L 159.257152 39.603175 
L 163.625058 39.077752 
L 169.084941 38.170465 
L 178.912729 36.222169 
L 185.464588 35.045737 
L 190.378483 34.393636 
L 194.746389 34.046124 
L 198.568307 33.946869 
L 202.390224 34.046124 
L 206.758131 34.393636 
L 211.126037 34.961513 
L 216.585919 35.905263 
L 234.057543 39.154538 
L 238.425449 39.653528 
L 242.793356 39.919906 
L 246.615273 39.9436 
L 250.437191 39.769739 
L 254.805097 39.34444 
L 259.718992 38.622294 
L 266.270851 37.393484 
L 277.736604 35.191796 
L 282.650498 34.495136 
L 287.018404 34.098567 
L 290.840322 33.952525 
L 294.66224 34.004621 
L 299.030146 34.301767 
L 303.398052 34.827189 
L 308.857935 35.734477 
L 318.685723 37.682772 
L 325.237583 38.859204 
L 330.151477 39.511305 
L 334.519383 39.858817 
L 337.795313 39.956036 
L 337.795313 39.956036 
" clip-path="url(#p9a148ab421)" style="fill: none; stroke: #d62728; stroke-width: 1.5; stroke-linecap: square"/>
   </g>
   <g id="line2d_8">
    <path d="M 58.795312 36.952471 
L 337.795313 36.952471 
L 337.795313 36.952471 
" clip-path="url(#p9a148ab421)" style="fill: none; stroke: #9467bd; stroke-width: 1.5; stroke-linecap: square"/>
   </g>
   <g id="line2d_9">
    <path d="M 58.795312 38.034705 
L 62.61723 37.936403 
L 66.985136 37.607775 
L 74.082984 36.793674 
L 80.634843 36.115893 
L 85.002749 35.891032 
L 88.824667 35.899522 
L 93.192573 36.14173 
L 98.652455 36.702412 
L 108.480244 37.780561 
L 112.84815 38.011239 
L 116.670068 38.008409 
L 121.037974 37.771948 
L 126.497857 37.215432 
L 136.871633 36.091189 
L 141.23954 35.88398 
L 145.061457 35.90944 
L 149.429363 36.168666 
L 154.889246 36.741337 
L 164.171046 37.763212 
L 168.538952 38.005419 
L 172.36087 38.01391 
L 176.728776 37.789049 
L 182.188659 37.241116 
L 192.562436 36.10753 
L 196.930342 35.888521 
L 200.75226 35.90267 
L 205.120166 36.150588 
L 210.580048 36.715352 
L 220.407837 37.789049 
L 224.775743 38.01391 
L 228.597661 38.005419 
L 232.965567 37.763212 
L 238.425449 37.20253 
L 248.253238 36.124381 
L 252.621144 35.893702 
L 256.443062 35.896533 
L 260.810968 36.132994 
L 266.270851 36.689509 
L 276.644628 37.813752 
L 281.012534 38.020962 
L 284.834451 37.995502 
L 289.202358 37.736275 
L 294.66224 37.163604 
L 303.94404 36.14173 
L 308.311947 35.899522 
L 312.133864 35.891032 
L 316.50177 36.115893 
L 321.961653 36.663825 
L 332.33543 37.797411 
L 336.703336 38.016421 
L 337.795313 38.032668 
L 337.795313 38.032668 
" clip-path="url(#p9a148ab421)" style="fill: none; stroke: #8c564b; stroke-width: 1.5; stroke-linecap: square"/>
   </g>
   <g id="patch_3">
    <path d="M 44.845313 66.704941 
L 44.845313 7.2 
" style="fill: none; stroke: #000000; stroke-width: 0.8; stroke-linejoin: miter; stroke-linecap: square"/>
   </g>
   <g id="patch_4">
    <path d="M 351.745312 66.704941 
L 351.745312 7.2 
" style="fill: none; stroke: #000000; stroke-width: 0.8; stroke-linejoin: miter; stroke-linecap: square"/>
   </g>
   <g id="patch_5">
    <path d="M 44.845313 66.704941 
L 351.745312 66.704941 
" style="fill: none; stroke: #000000; stroke-width: 0.8; stroke-linejoin: miter; stroke-linecap: square"/>
   </g>
   <g id="patch_6">
    <path d="M 44.845313 7.2 
L 351.745312 7.2 
" style="fill: none; stroke: #000000; stroke-width: 0.8; stroke-linejoin: miter; stroke-linecap: square"/>
   </g>
   <g id="legend_1">
    <g id="patch_7">
     <path d="M 54.145312 110.011686 
L 344.745312 110.011686 
Q 346.745312 110.011686 346.745312 108.011686 
L 346.745312 79.655436 
Q 346.745312 77.655436 344.745312 77.655436 
L 54.145312 77.655436 
Q 52.145312 77.655436 52.145312 79.655436 
L 52.145312 108.011686 
Q 52.145312 110.011686 54.145312 110.011686 
z
" style="fill: #ffffff; opacity: 0.8; stroke: #cccccc; stroke-linejoin: miter"/>
    </g>
    <g id="line2d_10">
     <path d="M 56.145312 85.753873 
L 66.145312 85.753873 
L 76.145312 85.753873 
" style="fill: none; stroke: #1f77b4; stroke-width: 1.5; stroke-linecap: square"/>
    </g>
    <g id="text_4">
     <!-- $a_0$ -->
     <g transform="translate(84.145312 89.253873) scale(0.1 -0.1)">
      <defs>
       <path id="DejaVuSans-Oblique-61" d="M 3438 1997 
L 3047 0 
L 2472 0 
L 2578 531 
Q 2325 219 2001 64 
Q 1678 -91 1281 -91 
Q 834 -91 548 182 
Q 263 456 263 884 
Q 263 1497 752 1853 
Q 1241 2209 2100 2209 
L 2900 2209 
L 2931 2363 
Q 2938 2388 2941 2417 
Q 2944 2447 2944 2509 
Q 2944 2788 2717 2942 
Q 2491 3097 2081 3097 
Q 1800 3097 1504 3025 
Q 1209 2953 897 2809 
L 997 3341 
Q 1322 3463 1633 3523 
Q 1944 3584 2234 3584 
Q 2853 3584 3176 3315 
Q 3500 3047 3500 2534 
Q 3500 2431 3484 2292 
Q 3469 2153 3438 1997 
z
M 2816 1759 
L 2241 1759 
Q 1534 1759 1195 1570 
Q 856 1381 856 984 
Q 856 709 1029 553 
Q 1203 397 1509 397 
Q 1978 397 2328 733 
Q 2678 1069 2791 1631 
L 2816 1759 
z
" transform="scale(0.015625)"/>
      </defs>
      <use xlink:href="#DejaVuSans-Oblique-61"/>
      <use xlink:href="#DejaVuSans-30" transform="translate(61.279297 -16.40625) scale(0.7)"/>
     </g>
    </g>
    <g id="line2d_11">
     <path d="M 56.145312 100.431998 
L 66.145312 100.431998 
L 76.145312 100.431998 
" style="fill: none; stroke: #ff7f0e; stroke-width: 1.5; stroke-linecap: square"/>
    </g>
    <g id="text_5">
     <!-- $a_1\cos(1\omega t)$ -->
     <g transform="translate(84.145312 103.931998) scale(0.1 -0.1)">
      <defs>
       <path id="DejaVuSans-31" d="M 794 531 
L 1825 531 
L 1825 4091 
L 703 3866 
L 703 4441 
L 1819 4666 
L 2450 4666 
L 2450 531 
L 3481 531 
L 3481 0 
L 794 0 
L 794 531 
z
" transform="scale(0.015625)"/>
       <path id="DejaVuSans-63" d="M 3122 3366 
L 3122 2828 
Q 2878 2963 2633 3030 
Q 2388 3097 2138 3097 
Q 1578 3097 1268 2742 
Q 959 2388 959 1747 
Q 959 1106 1268 751 
Q 1578 397 2138 397 
Q 2388 397 2633 464 
Q 2878 531 3122 666 
L 3122 134 
Q 2881 22 2623 -34 
Q 2366 -91 2075 -91 
Q 1284 -91 818 406 
Q 353 903 353 1747 
Q 353 2603 823 3093 
Q 1294 3584 2113 3584 
Q 2378 3584 2631 3529 
Q 2884 3475 3122 3366 
z
" transform="scale(0.015625)"/>
       <path id="DejaVuSans-6f" d="M 1959 3097 
Q 1497 3097 1228 2736 
Q 959 2375 959 1747 
Q 959 1119 1226 758 
Q 1494 397 1959 397 
Q 2419 397 2687 759 
Q 2956 1122 2956 1747 
Q 2956 2369 2687 2733 
Q 2419 3097 1959 3097 
z
M 1959 3584 
Q 2709 3584 3137 3096 
Q 3566 2609 3566 1747 
Q 3566 888 3137 398 
Q 2709 -91 1959 -91 
Q 1206 -91 779 398 
Q 353 888 353 1747 
Q 353 2609 779 3096 
Q 1206 3584 1959 3584 
z
" transform="scale(0.015625)"/>
       <path id="DejaVuSans-73" d="M 2834 3397 
L 2834 2853 
Q 2591 2978 2328 3040 
Q 2066 3103 1784 3103 
Q 1356 3103 1142 2972 
Q 928 2841 928 2578 
Q 928 2378 1081 2264 
Q 1234 2150 1697 2047 
L 1894 2003 
Q 2506 1872 2764 1633 
Q 3022 1394 3022 966 
Q 3022 478 2636 193 
Q 2250 -91 1575 -91 
Q 1294 -91 989 -36 
Q 684 19 347 128 
L 347 722 
Q 666 556 975 473 
Q 1284 391 1588 391 
Q 1994 391 2212 530 
Q 2431 669 2431 922 
Q 2431 1156 2273 1281 
Q 2116 1406 1581 1522 
L 1381 1569 
Q 847 1681 609 1914 
Q 372 2147 372 2553 
Q 372 3047 722 3315 
Q 1072 3584 1716 3584 
Q 2034 3584 2315 3537 
Q 2597 3491 2834 3397 
z
" transform="scale(0.015625)"/>
       <path id="DejaVuSans-28" d="M 1984 4856 
Q 1566 4138 1362 3434 
Q 1159 2731 1159 2009 
Q 1159 1288 1364 580 
Q 1569 -128 1984 -844 
L 1484 -844 
Q 1016 -109 783 600 
Q 550 1309 550 2009 
Q 550 2706 781 3412 
Q 1013 4119 1484 4856 
L 1984 4856 
z
" transform="scale(0.015625)"/>
       <path id="DejaVuSans-Oblique-3c9" d="M 1369 -91 
Q 72 -91 434 1766 
Q 575 2500 1256 3500 
L 1875 3500 
Q 1231 2500 1088 1750 
Q 819 397 1519 397 
Q 2166 397 2478 2078 
L 3009 2078 
Q 2669 388 3316 397 
Q 4013 403 4275 1750 
Q 4419 2500 4169 3500 
L 4788 3500 
Q 5075 2500 4934 1766 
Q 4578 -94 3278 -91 
Q 2428 -88 2503 844 
Q 2194 -91 1369 -91 
z
" transform="scale(0.015625)"/>
       <path id="DejaVuSans-Oblique-74" d="M 2706 3500 
L 2619 3053 
L 1472 3053 
L 1100 1153 
Q 1081 1047 1072 975 
Q 1063 903 1063 863 
Q 1063 663 1183 572 
Q 1303 481 1569 481 
L 2150 481 
L 2053 0 
L 1503 0 
Q 991 0 739 200 
Q 488 400 488 806 
Q 488 878 497 964 
Q 506 1050 525 1153 
L 897 3053 
L 409 3053 
L 500 3500 
L 978 3500 
L 1172 4494 
L 1747 4494 
L 1556 3500 
L 2706 3500 
z
" transform="scale(0.015625)"/>
       <path id="DejaVuSans-29" d="M 513 4856 
L 1013 4856 
Q 1481 4119 1714 3412 
Q 1947 2706 1947 2009 
Q 1947 1309 1714 600 
Q 1481 -109 1013 -844 
L 513 -844 
Q 928 -128 1133 580 
Q 1338 1288 1338 2009 
Q 1338 2731 1133 3434 
Q 928 4138 513 4856 
z
" transform="scale(0.015625)"/>
      </defs>
      <use xlink:href="#DejaVuSans-Oblique-61" transform="translate(0 0.125)"/>
      <use xlink:href="#DejaVuSans-31" transform="translate(61.279297 -16.28125) scale(0.7)"/>
      <use xlink:href="#DejaVuSans-63" transform="translate(108.549805 0.125)"/>
      <use xlink:href="#DejaVuSans-6f" transform="translate(163.530273 0.125)"/>
      <use xlink:href="#DejaVuSans-73" transform="translate(224.711914 0.125)"/>
      <use xlink:href="#DejaVuSans-28" transform="translate(276.811523 0.125)"/>
      <use xlink:href="#DejaVuSans-31" transform="translate(315.825195 0.125)"/>
      <use xlink:href="#DejaVuSans-Oblique-3c9" transform="translate(379.448242 0.125)"/>
      <use xlink:href="#DejaVuSans-Oblique-74" transform="translate(463.188477 0.125)"/>
      <use xlink:href="#DejaVuSans-29" transform="translate(502.397461 0.125)"/>
     </g>
    </g>
    <g id="line2d_12">
     <path d="M 158.345312 85.753873 
L 168.345312 85.753873 
L 178.345312 85.753873 
" style="fill: none; stroke: #2ca02c; stroke-width: 1.5; stroke-linecap: square"/>
    </g>
    <g id="text_6">
     <!-- $a_2\cos(2\omega t)$ -->
     <g transform="translate(186.345312 89.253873) scale(0.1 -0.1)">
      <use xlink:href="#DejaVuSans-Oblique-61" transform="translate(0 0.125)"/>
      <use xlink:href="#DejaVuSans-32" transform="translate(61.279297 -16.28125) scale(0.7)"/>
      <use xlink:href="#DejaVuSans-63" transform="translate(108.549805 0.125)"/>
      <use xlink:href="#DejaVuSans-6f" transform="translate(163.530273 0.125)"/>
      <use xlink:href="#DejaVuSans-73" transform="translate(224.711914 0.125)"/>
      <use xlink:href="#DejaVuSans-28" transform="translate(276.811523 0.125)"/>
      <use xlink:href="#DejaVuSans-32" transform="translate(315.825195 0.125)"/>
      <use xlink:href="#DejaVuSans-Oblique-3c9" transform="translate(379.448242 0.125)"/>
      <use xlink:href="#DejaVuSans-Oblique-74" transform="translate(463.188477 0.125)"/>
      <use xlink:href="#DejaVuSans-29" transform="translate(502.397461 0.125)"/>
     </g>
    </g>
    <g id="line2d_13">
     <path d="M 158.345312 100.431998 
L 168.345312 100.431998 
L 178.345312 100.431998 
" style="fill: none; stroke: #d62728; stroke-width: 1.5; stroke-linecap: square"/>
    </g>
    <g id="text_7">
     <!-- $a_3\cos(3\omega t)$ -->
     <g transform="translate(186.345312 103.931998) scale(0.1 -0.1)">
      <defs>
       <path id="DejaVuSans-33" d="M 2597 2516 
Q 3050 2419 3304 2112 
Q 3559 1806 3559 1356 
Q 3559 666 3084 287 
Q 2609 -91 1734 -91 
Q 1441 -91 1130 -33 
Q 819 25 488 141 
L 488 750 
Q 750 597 1062 519 
Q 1375 441 1716 441 
Q 2309 441 2620 675 
Q 2931 909 2931 1356 
Q 2931 1769 2642 2001 
Q 2353 2234 1838 2234 
L 1294 2234 
L 1294 2753 
L 1863 2753 
Q 2328 2753 2575 2939 
Q 2822 3125 2822 3475 
Q 2822 3834 2567 4026 
Q 2313 4219 1838 4219 
Q 1578 4219 1281 4162 
Q 984 4106 628 3988 
L 628 4550 
Q 988 4650 1302 4700 
Q 1616 4750 1894 4750 
Q 2613 4750 3031 4423 
Q 3450 4097 3450 3541 
Q 3450 3153 3228 2886 
Q 3006 2619 2597 2516 
z
" transform="scale(0.015625)"/>
      </defs>
      <use xlink:href="#DejaVuSans-Oblique-61" transform="translate(0 0.125)"/>
      <use xlink:href="#DejaVuSans-33" transform="translate(61.279297 -16.28125) scale(0.7)"/>
      <use xlink:href="#DejaVuSans-63" transform="translate(108.549805 0.125)"/>
      <use xlink:href="#DejaVuSans-6f" transform="translate(163.530273 0.125)"/>
      <use xlink:href="#DejaVuSans-73" transform="translate(224.711914 0.125)"/>
      <use xlink:href="#DejaVuSans-28" transform="translate(276.811523 0.125)"/>
      <use xlink:href="#DejaVuSans-33" transform="translate(315.825195 0.125)"/>
      <use xlink:href="#DejaVuSans-Oblique-3c9" transform="translate(379.448242 0.125)"/>
      <use xlink:href="#DejaVuSans-Oblique-74" transform="translate(463.188477 0.125)"/>
      <use xlink:href="#DejaVuSans-29" transform="translate(502.397461 0.125)"/>
     </g>
    </g>
    <g id="line2d_14">
     <path d="M 260.545312 85.753873 
L 270.545312 85.753873 
L 280.545312 85.753873 
" style="fill: none; stroke: #9467bd; stroke-width: 1.5; stroke-linecap: square"/>
    </g>
    <g id="text_8">
     <!-- $a_4\cos(4\omega t)$ -->
     <g transform="translate(288.545312 89.253873) scale(0.1 -0.1)">
      <defs>
       <path id="DejaVuSans-34" d="M 2419 4116 
L 825 1625 
L 2419 1625 
L 2419 4116 
z
M 2253 4666 
L 3047 4666 
L 3047 1625 
L 3713 1625 
L 3713 1100 
L 3047 1100 
L 3047 0 
L 2419 0 
L 2419 1100 
L 313 1100 
L 313 1709 
L 2253 4666 
z
" transform="scale(0.015625)"/>
      </defs>
      <use xlink:href="#DejaVuSans-Oblique-61" transform="translate(0 0.125)"/>
      <use xlink:href="#DejaVuSans-34" transform="translate(61.279297 -16.28125) scale(0.7)"/>
      <use xlink:href="#DejaVuSans-63" transform="translate(108.549805 0.125)"/>
      <use xlink:href="#DejaVuSans-6f" transform="translate(163.530273 0.125)"/>
      <use xlink:href="#DejaVuSans-73" transform="translate(224.711914 0.125)"/>
      <use xlink:href="#DejaVuSans-28" transform="translate(276.811523 0.125)"/>
      <use xlink:href="#DejaVuSans-34" transform="translate(315.825195 0.125)"/>
      <use xlink:href="#DejaVuSans-Oblique-3c9" transform="translate(379.448242 0.125)"/>
      <use xlink:href="#DejaVuSans-Oblique-74" transform="translate(463.188477 0.125)"/>
      <use xlink:href="#DejaVuSans-29" transform="translate(502.397461 0.125)"/>
     </g>
    </g>
    <g id="line2d_15">
     <path d="M 260.545312 100.431998 
L 270.545312 100.431998 
L 280.545312 100.431998 
" style="fill: none; stroke: #8c564b; stroke-width: 1.5; stroke-linecap: square"/>
    </g>
    <g id="text_9">
     <!-- $a_5\cos(5\omega t)$ -->
     <g transform="translate(288.545312 103.931998) scale(0.1 -0.1)">
      <use xlink:href="#DejaVuSans-Oblique-61" transform="translate(0 0.125)"/>
      <use xlink:href="#DejaVuSans-35" transform="translate(61.279297 -16.28125) scale(0.7)"/>
      <use xlink:href="#DejaVuSans-63" transform="translate(108.549805 0.125)"/>
      <use xlink:href="#DejaVuSans-6f" transform="translate(163.530273 0.125)"/>
      <use xlink:href="#DejaVuSans-73" transform="translate(224.711914 0.125)"/>
      <use xlink:href="#DejaVuSans-28" transform="translate(276.811523 0.125)"/>
      <use xlink:href="#DejaVuSans-35" transform="translate(315.825195 0.125)"/>
      <use xlink:href="#DejaVuSans-Oblique-3c9" transform="translate(379.448242 0.125)"/>
      <use xlink:href="#DejaVuSans-Oblique-74" transform="translate(463.188477 0.125)"/>
      <use xlink:href="#DejaVuSans-29" transform="translate(502.397461 0.125)"/>
     </g>
    </g>
   </g>
  </g>
 </g>
 <defs>
  <clipPath id="p9a148ab421">
   <rect x="44.845313" y="7.2" width="306.9" height="59.504941"/>
  </clipPath>
 </defs>
</svg>
