<?xml version="1.0" encoding="utf-8" standalone="no"?>
<!DOCTYPE svg PUBLIC "-//W3C//DTD SVG 1.1//EN"
  "http://www.w3.org/Graphics/SVG/1.1/DTD/svg11.dtd">
<svg xmlns:xlink="http://www.w3.org/1999/xlink" width="208.44pt" height="216.833119pt" viewBox="0 0 208.44 216.833119" xmlns="http://www.w3.org/2000/svg" version="1.1">
 <metadata>
  <rdf:RDF xmlns:dc="http://purl.org/dc/elements/1.1/" xmlns:cc="http://creativecommons.org/ns#" xmlns:rdf="http://www.w3.org/1999/02/22-rdf-syntax-ns#">
   <cc:Work>
    <dc:type rdf:resource="http://purl.org/dc/dcmitype/StillImage"/>
    <dc:date>2025-01-14T09:38:54.006831</dc:date>
    <dc:format>image/svg+xml</dc:format>
    <dc:creator>
     <cc:Agent>
      <dc:title>Matplotlib v3.9.2, https://matplotlib.org/</dc:title>
     </cc:Agent>
    </dc:creator>
   </cc:Work>
  </rdf:RDF>
 </metadata>
 <defs>
  <style type="text/css">*{stroke-linejoin: round; stroke-linecap: butt}</style>
 </defs>
 <g id="figure_1">
  <g id="patch_1">
   <path d="M 0 216.833119 
L 208.44 216.833119 
L 208.44 0 
L 0 0 
z
" style="fill: #ffffff"/>
  </g>
  <g id="patch_2">
   <path d="M 7.2 201.24 
L 201.24 201.24 
L 201.24 7.2 
L 7.2 7.2 
z
" style="fill: #ffffff"/>
  </g>
  <g id="pane3d_1">
   <g id="patch_3">
    <path d="M 21.851358 153.395954 
L 85.929703 99.684215 
L 85.038953 22.222285 
L 17.894129 71.221519 
" style="fill: #f2f2f2; opacity: 0.5; stroke: #f2f2f2; stroke-linejoin: miter"/>
   </g>
  </g>
  <g id="pane3d_2">
   <g id="patch_4">
    <path d="M 85.929703 99.684215 
L 188.752584 129.570767 
L 192.42197 49.44075 
L 85.038953 22.222285 
" style="fill: #e6e6e6; opacity: 0.5; stroke: #e6e6e6; stroke-linejoin: miter"/>
   </g>
  </g>
  <g id="pane3d_3">
   <g id="patch_5">
    <path d="M 21.851358 153.395954 
L 130.848634 188.994464 
L 188.752584 129.570767 
L 85.929703 99.684215 
" style="fill: #ececec; opacity: 0.5; stroke: #ececec; stroke-linejoin: miter"/>
   </g>
  </g>
  <g id="grid3d_1">
   <g id="Line3DCollection_1">
    <path d="M 37.586127 158.53493 
L 100.829303 104.01494 
L 100.571274 26.159276 
" style="fill: none; stroke: #b0b0b0; stroke-width: 0.8"/>
    <path d="M 56.10289 164.582505 
L 118.338888 109.104285 
L 118.836555 30.788992 
" style="fill: none; stroke: #b0b0b0; stroke-width: 0.8"/>
    <path d="M 74.960825 170.741506 
L 136.14409 114.279555 
L 137.423678 35.500286 
" style="fill: none; stroke: #b0b0b0; stroke-width: 0.8"/>
    <path d="M 94.169449 177.015043 
L 154.252458 119.542943 
L 156.341225 40.295333 
" style="fill: none; stroke: #b0b0b0; stroke-width: 0.8"/>
    <path d="M 113.738635 183.406339 
L 172.671804 124.896719 
L 175.598087 45.176386 
" style="fill: none; stroke: #b0b0b0; stroke-width: 0.8"/>
   </g>
  </g>
  <g id="grid3d_2">
   <g id="Line3DCollection_2">
    <path d="M 22.53736 67.833101 
L 26.266898 149.694762 
L 134.855139 184.882804 
" style="fill: none; stroke: #b0b0b0; stroke-width: 0.8"/>
    <path d="M 36.356691 57.748383 
L 39.422276 138.667663 
L 146.777401 172.647631 
" style="fill: none; stroke: #b0b0b0; stroke-width: 0.8"/>
    <path d="M 49.697011 48.013225 
L 52.141161 128.006441 
L 158.283532 160.83951 
" style="fill: none; stroke: #b0b0b0; stroke-width: 0.8"/>
    <path d="M 62.582801 38.609762 
L 64.444922 117.693185 
L 169.394945 149.436466 
" style="fill: none; stroke: #b0b0b0; stroke-width: 0.8"/>
    <path d="M 75.036902 29.521326 
L 76.353556 107.711132 
L 180.13161 138.418007 
" style="fill: none; stroke: #b0b0b0; stroke-width: 0.8"/>
   </g>
  </g>
  <g id="grid3d_3"/>
  <g id="axis3d_1">
   <g id="line2d_1">
    <path d="M 21.851358 153.395954 
L 130.848634 188.994464 
" style="fill: none; stroke: #000000; stroke-width: 0.8; stroke-linecap: square"/>
   </g>
   <g id="xtick_1">
    <g id="line2d_2">
     <path d="M 38.137048 158.059999 
L 36.481912 159.48684 
" style="fill: none; stroke: #000000; stroke-width: 0.8; stroke-linecap: square"/>
    </g>
    <g id="text_1">
     <!-- −40 -->
     <g transform="translate(19.506887 181.952619) scale(0.1 -0.1)">
      <defs>
       <path id="DejaVuSans-2212" d="M 678 2272 
L 4684 2272 
L 4684 1741 
L 678 1741 
L 678 2272 
z
" transform="scale(0.015625)"/>
       <path id="DejaVuSans-34" d="M 2419 4116 
L 825 1625 
L 2419 1625 
L 2419 4116 
z
M 2253 4666 
L 3047 4666 
L 3047 1625 
L 3713 1625 
L 3713 1100 
L 3047 1100 
L 3047 0 
L 2419 0 
L 2419 1100 
L 313 1100 
L 313 1709 
L 2253 4666 
z
" transform="scale(0.015625)"/>
       <path id="DejaVuSans-30" d="M 2034 4250 
Q 1547 4250 1301 3770 
Q 1056 3291 1056 2328 
Q 1056 1369 1301 889 
Q 1547 409 2034 409 
Q 2525 409 2770 889 
Q 3016 1369 3016 2328 
Q 3016 3291 2770 3770 
Q 2525 4250 2034 4250 
z
M 2034 4750 
Q 2819 4750 3233 4129 
Q 3647 3509 3647 2328 
Q 3647 1150 3233 529 
Q 2819 -91 2034 -91 
Q 1250 -91 836 529 
Q 422 1150 422 2328 
Q 422 3509 836 4129 
Q 1250 4750 2034 4750 
z
" transform="scale(0.015625)"/>
      </defs>
      <use xlink:href="#DejaVuSans-2212"/>
      <use xlink:href="#DejaVuSans-34" x="83.789062"/>
      <use xlink:href="#DejaVuSans-30" x="147.412109"/>
     </g>
    </g>
   </g>
   <g id="xtick_2">
    <g id="line2d_3">
     <path d="M 56.645441 164.098866 
L 55.015429 165.551886 
" style="fill: none; stroke: #000000; stroke-width: 0.8; stroke-linecap: square"/>
    </g>
    <g id="text_2">
     <!-- −20 -->
     <g transform="translate(38.050414 188.176644) scale(0.1 -0.1)">
      <defs>
       <path id="DejaVuSans-32" d="M 1228 531 
L 3431 531 
L 3431 0 
L 469 0 
L 469 531 
Q 828 903 1448 1529 
Q 2069 2156 2228 2338 
Q 2531 2678 2651 2914 
Q 2772 3150 2772 3378 
Q 2772 3750 2511 3984 
Q 2250 4219 1831 4219 
Q 1534 4219 1204 4116 
Q 875 4013 500 3803 
L 500 4441 
Q 881 4594 1212 4672 
Q 1544 4750 1819 4750 
Q 2544 4750 2975 4387 
Q 3406 4025 3406 3419 
Q 3406 3131 3298 2873 
Q 3191 2616 2906 2266 
Q 2828 2175 2409 1742 
Q 1991 1309 1228 531 
z
" transform="scale(0.015625)"/>
      </defs>
      <use xlink:href="#DejaVuSans-2212"/>
      <use xlink:href="#DejaVuSans-32" x="83.789062"/>
      <use xlink:href="#DejaVuSans-30" x="147.412109"/>
     </g>
    </g>
   </g>
   <g id="xtick_3">
    <g id="line2d_4">
     <path d="M 75.494602 170.248919 
L 73.890927 171.728844 
" style="fill: none; stroke: #000000; stroke-width: 0.8; stroke-linecap: square"/>
    </g>
    <g id="text_3">
     <!-- 0 -->
     <g transform="translate(64.308486 194.515946) scale(0.1 -0.1)">
      <use xlink:href="#DejaVuSans-30"/>
     </g>
    </g>
   </g>
   <g id="xtick_4">
    <g id="line2d_5">
     <path d="M 94.694031 176.513256 
L 93.117959 178.02084 
" style="fill: none; stroke: #000000; stroke-width: 0.8; stroke-linecap: square"/>
    </g>
    <g id="text_4">
     <!-- 20 -->
     <g transform="translate(80.367294 200.973757) scale(0.1 -0.1)">
      <use xlink:href="#DejaVuSans-32"/>
      <use xlink:href="#DejaVuSans-30" x="63.623047"/>
     </g>
    </g>
   </g>
   <g id="xtick_5">
    <g id="line2d_6">
     <path d="M 114.253583 182.895092 
L 112.706437 184.431119 
" style="fill: none; stroke: #000000; stroke-width: 0.8; stroke-linecap: square"/>
    </g>
    <g id="text_5">
     <!-- 40 -->
     <g transform="translate(99.970427 207.553431) scale(0.1 -0.1)">
      <use xlink:href="#DejaVuSans-34"/>
      <use xlink:href="#DejaVuSans-30" x="63.623047"/>
     </g>
    </g>
   </g>
   <g id="text_6">
    <!-- $x$ -->
    <g transform="translate(55.571385 208.866511) scale(0.1 -0.1)">
     <defs>
      <path id="DejaVuSans-Oblique-78" d="M 3841 3500 
L 2234 1784 
L 3219 0 
L 2559 0 
L 1819 1388 
L 531 0 
L -166 0 
L 1556 1844 
L 641 3500 
L 1300 3500 
L 1972 2234 
L 3144 3500 
L 3841 3500 
z
" transform="scale(0.015625)"/>
     </defs>
     <use xlink:href="#DejaVuSans-Oblique-78" transform="translate(0 0.3125)"/>
    </g>
   </g>
  </g>
  <g id="axis3d_2">
   <g id="line2d_7">
    <path d="M 188.752584 129.570767 
L 130.848634 188.994464 
" style="fill: none; stroke: #000000; stroke-width: 0.8; stroke-linecap: square"/>
   </g>
   <g id="xtick_6">
    <g id="line2d_8">
     <path d="M 133.940062 184.586274 
L 136.687658 185.476633 
" style="fill: none; stroke: #000000; stroke-width: 0.8; stroke-linecap: square"/>
    </g>
    <g id="text_7">
     <!-- 0 -->
     <g transform="translate(144.557388 205.90752) scale(0.1 -0.1)">
      <use xlink:href="#DejaVuSans-30"/>
     </g>
    </g>
   </g>
   <g id="xtick_7">
    <g id="line2d_9">
     <path d="M 145.87353 172.361538 
L 148.587438 173.220543 
" style="fill: none; stroke: #000000; stroke-width: 0.8; stroke-linecap: square"/>
    </g>
    <g id="text_8">
     <!-- 2 -->
     <g transform="translate(156.260249 193.423809) scale(0.1 -0.1)">
      <use xlink:href="#DejaVuSans-32"/>
     </g>
    </g>
   </g>
   <g id="xtick_8">
    <g id="line2d_10">
     <path d="M 157.390648 160.563314 
L 160.071527 161.392591 
" style="fill: none; stroke: #000000; stroke-width: 0.8; stroke-linecap: square"/>
    </g>
    <g id="text_9">
     <!-- 4 -->
     <g transform="translate(167.554314 181.37617) scale(0.1 -0.1)">
      <use xlink:href="#DejaVuSans-34"/>
     </g>
    </g>
   </g>
   <g id="xtick_9">
    <g id="line2d_11">
     <path d="M 168.512834 149.169662 
L 171.161333 149.970729 
" style="fill: none; stroke: #000000; stroke-width: 0.8; stroke-linecap: square"/>
    </g>
    <g id="text_10">
     <!-- 6 -->
     <g transform="translate(178.460635 169.742147) scale(0.1 -0.1)">
      <defs>
       <path id="DejaVuSans-36" d="M 2113 2584 
Q 1688 2584 1439 2293 
Q 1191 2003 1191 1497 
Q 1191 994 1439 701 
Q 1688 409 2113 409 
Q 2538 409 2786 701 
Q 3034 994 3034 1497 
Q 3034 2003 2786 2293 
Q 2538 2584 2113 2584 
z
M 3366 4563 
L 3366 3988 
Q 3128 4100 2886 4159 
Q 2644 4219 2406 4219 
Q 1781 4219 1451 3797 
Q 1122 3375 1075 2522 
Q 1259 2794 1537 2939 
Q 1816 3084 2150 3084 
Q 2853 3084 3261 2657 
Q 3669 2231 3669 1497 
Q 3669 778 3244 343 
Q 2819 -91 2113 -91 
Q 1303 -91 875 529 
Q 447 1150 447 2328 
Q 447 3434 972 4092 
Q 1497 4750 2381 4750 
Q 2619 4750 2861 4703 
Q 3103 4656 3366 4563 
z
" transform="scale(0.015625)"/>
      </defs>
      <use xlink:href="#DejaVuSans-36"/>
     </g>
    </g>
   </g>
   <g id="xtick_10">
    <g id="line2d_12">
     <path d="M 179.260057 138.160123 
L 181.876817 138.934396 
" style="fill: none; stroke: #000000; stroke-width: 0.8; stroke-linecap: square"/>
    </g>
    <g id="text_11">
     <!-- 8 -->
     <g transform="translate(188.998841 158.500799) scale(0.1 -0.1)">
      <defs>
       <path id="DejaVuSans-38" d="M 2034 2216 
Q 1584 2216 1326 1975 
Q 1069 1734 1069 1313 
Q 1069 891 1326 650 
Q 1584 409 2034 409 
Q 2484 409 2743 651 
Q 3003 894 3003 1313 
Q 3003 1734 2745 1975 
Q 2488 2216 2034 2216 
z
M 1403 2484 
Q 997 2584 770 2862 
Q 544 3141 544 3541 
Q 544 4100 942 4425 
Q 1341 4750 2034 4750 
Q 2731 4750 3128 4425 
Q 3525 4100 3525 3541 
Q 3525 3141 3298 2862 
Q 3072 2584 2669 2484 
Q 3125 2378 3379 2068 
Q 3634 1759 3634 1313 
Q 3634 634 3220 271 
Q 2806 -91 2034 -91 
Q 1263 -91 848 271 
Q 434 634 434 1313 
Q 434 1759 690 2068 
Q 947 2378 1403 2484 
z
M 1172 3481 
Q 1172 3119 1398 2916 
Q 1625 2713 2034 2713 
Q 2441 2713 2670 2916 
Q 2900 3119 2900 3481 
Q 2900 3844 2670 4047 
Q 2441 4250 2034 4250 
Q 1625 4250 1398 4047 
Q 1172 3844 1172 3481 
z
" transform="scale(0.015625)"/>
      </defs>
      <use xlink:href="#DejaVuSans-38"/>
     </g>
    </g>
   </g>
   <g id="text_12">
    <!-- $t$ -->
    <g transform="translate(186.079364 188.736275) scale(0.1 -0.1)">
     <defs>
      <path id="DejaVuSans-Oblique-74" d="M 2706 3500 
L 2619 3053 
L 1472 3053 
L 1100 1153 
Q 1081 1047 1072 975 
Q 1063 903 1063 863 
Q 1063 663 1183 572 
Q 1303 481 1569 481 
L 2150 481 
L 2053 0 
L 1503 0 
Q 991 0 739 200 
Q 488 400 488 806 
Q 488 878 497 964 
Q 506 1050 525 1153 
L 897 3053 
L 409 3053 
L 500 3500 
L 978 3500 
L 1172 4494 
L 1747 4494 
L 1556 3500 
L 2706 3500 
z
" transform="scale(0.015625)"/>
     </defs>
     <use xlink:href="#DejaVuSans-Oblique-74" transform="translate(0 0.78125)"/>
    </g>
   </g>
  </g>
  <g id="axis3d_3">
   <g id="line2d_13">
    <path d="M 188.752584 129.570767 
L 192.42197 49.44075 
" style="fill: none; stroke: #000000; stroke-width: 0.8; stroke-linecap: square"/>
   </g>
   <g id="text_13">
    <!-- $u(t, x)$ -->
    <g transform="translate(232.912216 99.698417) rotate(-87.378092) scale(0.1 -0.1)">
     <defs>
      <path id="DejaVuSans-Oblique-75" d="M 428 1388 
L 838 3500 
L 1416 3500 
L 1006 1409 
Q 975 1256 961 1147 
Q 947 1038 947 966 
Q 947 700 1109 554 
Q 1272 409 1569 409 
Q 2031 409 2368 721 
Q 2706 1034 2809 1563 
L 3194 3500 
L 3769 3500 
L 3091 0 
L 2516 0 
L 2631 550 
Q 2388 244 2052 76 
Q 1716 -91 1338 -91 
Q 878 -91 622 161 
Q 366 413 366 863 
Q 366 956 381 1097 
Q 397 1238 428 1388 
z
" transform="scale(0.015625)"/>
      <path id="DejaVuSans-28" d="M 1984 4856 
Q 1566 4138 1362 3434 
Q 1159 2731 1159 2009 
Q 1159 1288 1364 580 
Q 1569 -128 1984 -844 
L 1484 -844 
Q 1016 -109 783 600 
Q 550 1309 550 2009 
Q 550 2706 781 3412 
Q 1013 4119 1484 4856 
L 1984 4856 
z
" transform="scale(0.015625)"/>
      <path id="DejaVuSans-2c" d="M 750 794 
L 1409 794 
L 1409 256 
L 897 -744 
L 494 -744 
L 750 256 
L 750 794 
z
" transform="scale(0.015625)"/>
      <path id="DejaVuSans-29" d="M 513 4856 
L 1013 4856 
Q 1481 4119 1714 3412 
Q 1947 2706 1947 2009 
Q 1947 1309 1714 600 
Q 1481 -109 1013 -844 
L 513 -844 
Q 928 -128 1133 580 
Q 1338 1288 1338 2009 
Q 1338 2731 1133 3434 
Q 928 4138 513 4856 
z
" transform="scale(0.015625)"/>
     </defs>
     <use xlink:href="#DejaVuSans-Oblique-75" transform="translate(0 0.125)"/>
     <use xlink:href="#DejaVuSans-28" transform="translate(63.378906 0.125)"/>
     <use xlink:href="#DejaVuSans-Oblique-74" transform="translate(102.392578 0.125)"/>
     <use xlink:href="#DejaVuSans-2c" transform="translate(141.601562 0.125)"/>
     <use xlink:href="#DejaVuSans-Oblique-78" transform="translate(192.871094 0.125)"/>
     <use xlink:href="#DejaVuSans-29" transform="translate(252.050781 0.125)"/>
    </g>
   </g>
  </g>
  <g id="axes_1">
   <g id="line2d_14">
    <path d="M 32.779713 150.257136 
L 69.714796 162.197703 
L 68.12761 82.507864 
L 68.225835 82.535841 
L 87.760642 88.09997 
L 88.788354 168.363902 
L 127.617153 180.916679 
L 127.617153 180.916679 
" clip-path="url(#pf55f18c88b)" style="fill: none; stroke: #1f77b4; stroke-width: 1.5; stroke-linecap: square"/>
   </g>
   <g id="line2d_15">
    <path d="M 39.385038 144.668988 
L 72.197133 155.052881 
L 72.659048 154.99949 
L 73.024772 154.746342 
L 73.384086 154.139868 
L 73.732947 152.952647 
L 74.066415 150.898502 
L 74.454103 146.655732 
L 74.803674 140.157382 
L 75.234134 127.36641 
L 76.265722 92.986024 
L 76.722512 85.545066 
L 77.146844 81.801602 
L 77.600563 79.762183 
L 77.977376 78.948957 
L 78.361529 78.57509 
L 78.847333 78.443895 
L 79.630014 78.5462 
L 82.478503 79.328697 
L 90.180747 81.604669 
L 90.778098 82.07063 
L 91.178865 82.668545 
L 91.583246 83.708092 
L 91.993094 85.453211 
L 92.410424 88.217311 
L 92.945022 93.554668 
L 93.605961 103.088501 
L 94.50723 120.019866 
L 95.937361 146.747269 
L 96.559709 154.673639 
L 97.061141 158.835554 
L 97.551523 161.277807 
L 98.035197 162.587174 
L 98.515423 163.256353 
L 99.089867 163.664366 
L 100.142161 164.075416 
L 110.623678 167.428382 
L 133.68157 174.79494 
L 133.68157 174.79494 
" clip-path="url(#pf55f18c88b)" style="fill: none; stroke: #ff7f0e; stroke-width: 1.5; stroke-linecap: square"/>
   </g>
   <g id="line2d_16">
    <path d="M 45.878477 139.175496 
L 76.938977 148.874087 
L 77.583021 148.862881 
L 78.04046 148.674432 
L 78.493953 148.21591 
L 78.941312 147.334905 
L 79.379911 145.840646 
L 79.807033 143.523171 
L 80.301334 139.387165 
L 80.851233 132.460564 
L 81.52382 120.522824 
L 83.190014 89.080752 
L 83.77829 82.396996 
L 84.309151 78.484667 
L 84.860068 76.010522 
L 85.330489 74.788766 
L 85.807967 74.103116 
L 86.290056 73.772102 
L 86.872203 73.653255 
L 87.749185 73.746515 
L 89.899651 74.30148 
L 94.903669 75.793731 
L 95.692194 76.267434 
L 96.285439 76.90276 
L 96.781734 77.779635 
L 97.280461 79.155632 
L 97.782254 81.240685 
L 98.287562 84.253003 
L 98.898603 89.340418 
L 99.616483 97.437063 
L 100.541187 110.649333 
L 102.554557 140.29217 
L 103.335509 148.168049 
L 104.010101 152.690537 
L 104.584229 155.129426 
L 105.156297 156.61874 
L 105.727439 157.493323 
L 106.393483 158.075036 
L 107.345323 158.544711 
L 109.633103 159.306711 
L 139.638534 168.78167 
L 139.638534 168.78167 
" clip-path="url(#pf55f18c88b)" style="fill: none; stroke: #2ca02c; stroke-width: 1.5; stroke-linecap: square"/>
   </g>
   <g id="line2d_17">
    <path d="M 52.26285 133.774274 
L 81.96042 142.929522 
L 82.784293 142.946215 
L 83.331515 142.767345 
L 83.785304 142.416527 
L 84.236105 141.794785 
L 84.682872 140.801447 
L 85.212147 138.960364 
L 85.732422 136.228983 
L 86.326813 131.71438 
L 86.99032 124.704192 
L 87.885031 112.369835 
L 89.709581 86.490259 
L 90.500932 78.857503 
L 91.136948 74.671834 
L 91.69418 72.203378 
L 92.260086 70.584488 
L 92.832324 69.611336 
L 93.408893 69.091825 
L 93.988269 68.868184 
L 94.763382 68.835155 
L 96.026254 69.061569 
L 99.143367 69.925429 
L 100.510632 70.481335 
L 101.293328 71.038628 
L 101.88124 71.715691 
L 102.470032 72.764059 
L 103.059716 74.36152 
L 103.650119 76.711348 
L 104.240803 80.011253 
L 104.929276 85.25242 
L 105.71321 93.120653 
L 106.781521 106.49252 
L 108.87534 133.328323 
L 109.720589 141.095402 
L 110.470714 145.91537 
L 111.127694 148.732211 
L 111.785933 150.549017 
L 112.445581 151.672354 
L 113.106502 152.360532 
L 113.957737 152.89886 
L 115.284209 153.427299 
L 120.227359 154.988379 
L 145.490878 162.874009 
L 145.490878 162.874009 
" clip-path="url(#pf55f18c88b)" style="fill: none; stroke: #d62728; stroke-width: 1.5; stroke-linecap: square"/>
   </g>
   <g id="line2d_18">
    <path d="M 58.540882 128.463018 
L 86.982791 137.135743 
L 87.984603 137.201995 
L 88.620789 137.050797 
L 89.164492 136.708494 
L 89.705979 136.073032 
L 90.244471 135.031417 
L 90.779208 133.457647 
L 91.309594 131.226293 
L 91.922535 127.653197 
L 92.615901 122.187388 
L 93.475509 113.407405 
L 96.815637 76.515267 
L 97.553994 71.653657 
L 98.209556 68.597882 
L 98.872098 66.516884 
L 99.444144 65.359231 
L 100.018944 64.640255 
L 100.595682 64.239525 
L 101.270201 64.042491 
L 102.139131 64.042632 
L 103.493147 64.302703 
L 105.23702 64.854406 
L 106.30414 65.409173 
L 107.080685 66.07693 
L 107.760152 66.997255 
L 108.342164 68.167132 
L 108.923317 69.821449 
L 109.50296 72.093762 
L 110.176229 75.687043 
L 110.940035 81.186937 
L 111.789909 89.136055 
L 112.905562 101.906369 
L 115.0033 126.387285 
L 115.9126 134.29283 
L 116.643993 138.954754 
L 117.380227 142.257497 
L 118.028498 144.233032 
L 118.680149 145.566596 
L 119.334555 146.448531 
L 120.08498 147.102405 
L 121.025615 147.626303 
L 122.62866 148.225403 
L 129.448476 150.344201 
L 151.241332 157.0692 
L 151.241332 157.0692 
" clip-path="url(#pf55f18c88b)" style="fill: none; stroke: #9467bd; stroke-width: 1.5; stroke-linecap: square"/>
   </g>
   <g id="line2d_19">
    <path d="M 64.715207 123.239498 
L 92.18766 131.507282 
L 93.274605 131.58595 
L 93.99855 131.431455 
L 94.631024 131.05578 
L 95.172056 130.470342 
L 95.711784 129.555731 
L 96.249978 128.221977 
L 96.875779 126.016371 
L 97.499436 122.994789 
L 98.210234 118.447964 
L 99.098033 111.15413 
L 100.347278 98.691132 
L 102.350003 78.757144 
L 103.280701 71.618527 
L 104.127862 66.761059 
L 104.886741 63.677551 
L 105.554018 61.814864 
L 106.223409 60.585446 
L 106.894232 59.840404 
L 107.566019 59.443706 
L 108.334583 59.275731 
L 109.296172 59.326661 
L 110.451077 59.618386 
L 111.510348 60.096379 
L 112.376917 60.735371 
L 113.05027 61.494916 
L 113.72234 62.604186 
L 114.392186 64.200074 
L 115.05861 66.43261 
L 115.720232 69.444012 
L 116.468696 73.97277 
L 117.298914 80.502398 
L 118.295329 90.273578 
L 121.738415 126.124868 
L 122.539768 131.529961 
L 123.25981 135.111628 
L 123.98725 137.686525 
L 124.721324 139.457184 
L 125.460811 140.637489 
L 126.204386 141.417552 
L 127.137836 142.052214 
L 128.449223 142.630424 
L 131.174318 143.51588 
L 156.892536 151.36458 
L 156.892536 151.36458 
" clip-path="url(#pf55f18c88b)" style="fill: none; stroke: #8c564b; stroke-width: 1.5; stroke-linecap: square"/>
   </g>
   <g id="line2d_20">
    <path d="M 70.788374 118.101559 
L 97.302235 125.988268 
L 98.473363 126.095709 
L 99.284214 125.95912 
L 99.914743 125.643742 
L 100.545062 125.057859 
L 101.17515 124.103942 
L 101.805095 122.674073 
L 102.435139 120.660548 
L 103.15587 117.52719 
L 103.968699 112.845684 
L 104.876337 106.235732 
L 106.159385 95.064164 
L 108.590605 73.693241 
L 109.635508 66.614492 
L 110.494644 62.190222 
L 111.260044 59.287718 
L 112.026129 57.248346 
L 112.696562 56.051899 
L 113.366891 55.287174 
L 114.037056 54.849685 
L 114.802781 54.639676 
L 115.664053 54.664996 
L 116.525103 54.904704 
L 117.385612 55.362942 
L 118.149448 56.012993 
L 118.816247 56.848131 
L 119.480672 58.025911 
L 120.141585 59.653341 
L 120.797649 61.843237 
L 121.539673 65.165976 
L 122.271537 69.463593 
L 123.170036 76.228031 
L 124.224056 86.075138 
L 127.649772 119.818348 
L 128.519939 125.531001 
L 129.315116 129.384653 
L 130.031524 131.89556 
L 130.756021 133.69904 
L 131.487239 134.958351 
L 132.223686 135.826383 
L 133.149523 136.552529 
L 134.265554 137.127865 
L 136.13228 137.800784 
L 143.261946 139.968892 
L 162.447036 145.757578 
L 162.447036 145.757578 
" clip-path="url(#pf55f18c88b)" style="fill: none; stroke: #e377c2; stroke-width: 1.5; stroke-linecap: square"/>
   </g>
   <g id="line2d_21">
    <path d="M 76.762849 113.047114 
L 102.418279 120.588138 
L 103.672594 120.714975 
L 104.569385 120.583903 
L 105.287456 120.243721 
L 105.916405 119.692955 
L 106.546197 118.824724 
L 107.177183 117.553681 
L 107.809833 115.794268 
L 108.535654 113.089081 
L 109.356955 109.071165 
L 110.277093 103.38123 
L 111.487612 94.334901 
L 115.112486 66.085056 
L 116.173856 60.119072 
L 117.041686 56.423094 
L 117.811619 53.996208 
L 118.579757 52.279929 
L 119.250367 51.265019 
L 119.919681 50.615787 
L 120.587868 50.256312 
L 121.255081 50.126803 
L 122.0165 50.2115 
L 122.776601 50.525953 
L 123.534917 51.09107 
L 124.290572 51.967675 
L 124.948565 53.064615 
L 125.602382 54.552672 
L 126.342792 56.842586 
L 127.073953 59.87504 
L 127.883133 64.278222 
L 128.763581 70.428593 
L 129.794222 79.332257 
L 131.714446 98.508721 
L 133.044637 110.62029 
L 133.973853 117.306747 
L 134.8344 122.020559 
L 135.622707 125.200166 
L 136.423266 127.511896 
L 137.143724 128.980972 
L 137.962208 130.140024 
L 138.787047 130.932501 
L 139.801132 131.589482 
L 141.190437 132.197845 
L 143.887005 133.073587 
L 167.907294 140.245709 
L 167.907294 140.245709 
" clip-path="url(#pf55f18c88b)" style="fill: none; stroke: #7f7f7f; stroke-width: 1.5; stroke-linecap: square"/>
   </g>
   <g id="line2d_22">
    <path d="M 82.641018 108.074144 
L 107.4474 115.285236 
L 108.783863 115.438721 
L 109.67629 115.346744 
L 110.391414 115.078029 
L 111.108009 114.55403 
L 111.736671 113.813785 
L 112.367375 112.738648 
L 113.09144 111.009738 
L 113.819949 108.655728 
L 114.646145 105.172994 
L 115.573952 100.227773 
L 116.702609 92.923312 
L 118.619723 78.687418 
L 120.469134 65.458958 
L 121.640679 58.547156 
L 122.614263 53.999299 
L 123.486576 50.88765 
L 124.25828 48.850417 
L 125.026482 47.414115 
L 125.695973 46.574994 
L 126.363205 46.060765 
L 127.028386 45.820004 
L 127.691624 45.817172 
L 128.352853 46.036074 
L 129.011781 46.481356 
L 129.667863 47.178127 
L 130.320287 48.169676 
L 131.060075 49.737572 
L 131.791855 51.86182 
L 132.513669 54.635026 
L 133.311597 58.615642 
L 134.17869 64.140987 
L 135.191876 72.160235 
L 136.667127 85.972796 
L 138.528858 103.128448 
L 139.600114 110.92964 
L 140.527403 116.056093 
L 141.388709 119.559508 
L 142.178025 121.88362 
L 142.978964 123.56677 
L 143.789342 124.758244 
L 144.698143 125.672272 
L 145.704968 126.355627 
L 147.085413 126.991854 
L 149.396172 127.766881 
L 160.754643 131.130765 
L 173.275687 134.826573 
L 173.275687 134.826573 
" clip-path="url(#pf55f18c88b)" style="fill: none; stroke: #bcbd22; stroke-width: 1.5; stroke-linecap: square"/>
   </g>
   <g id="line2d_23">
    <path d="M 88.425192 103.180695 
L 112.480267 110.09257 
L 113.898002 110.261529 
L 114.874952 110.169363 
L 115.67634 109.8711 
L 116.390898 109.358091 
L 117.108289 108.530558 
L 117.829408 107.302303 
L 118.555293 105.586529 
L 119.378992 102.978044 
L 120.211645 99.578887 
L 121.243231 94.326674 
L 122.483228 86.728956 
L 124.921898 69.908892 
L 126.600212 59.185312 
L 127.782435 52.973029 
L 128.761624 48.891558 
L 129.636693 46.088543 
L 130.505453 44.053504 
L 131.272516 42.815243 
L 131.939963 42.113806 
L 132.604153 41.723752 
L 133.265214 41.612812 
L 133.923107 41.763296 
L 134.577573 42.174155 
L 135.228098 42.861147 
L 135.873914 43.855063 
L 136.604941 45.421232 
L 137.326793 47.515365 
L 138.125693 50.586928 
L 138.90853 54.480649 
L 139.841672 60.367418 
L 140.911802 68.730566 
L 142.586435 84.014392 
L 144.249175 98.518743 
L 145.300862 105.821396 
L 146.213004 110.695887 
L 147.061536 114.09768 
L 147.840212 116.409304 
L 148.631402 118.127181 
L 149.432974 119.375984 
L 150.333083 120.357827 
L 151.331537 121.103884 
L 152.61052 121.756065 
L 154.538612 122.45392 
L 159.797934 124.020946 
L 178.554516 129.497848 
L 178.554516 129.497848 
" clip-path="url(#pf55f18c88b)" style="fill: none; stroke: #17becf; stroke-width: 1.5; stroke-linecap: square"/>
   </g>
  </g>
 </g>
 <defs>
  <clipPath id="pf55f18c88b">
   <rect x="7.2" y="7.2" width="194.04" height="194.04"/>
  </clipPath>
 </defs>
</svg>
