<?xml version="1.0" encoding="utf-8" standalone="no"?>
<!DOCTYPE svg PUBLIC "-//W3C//DTD SVG 1.1//EN"
  "http://www.w3.org/Graphics/SVG/1.1/DTD/svg11.dtd">
<svg xmlns:xlink="http://www.w3.org/1999/xlink" width="356.292188pt" height="124.385654pt" viewBox="0 0 356.292188 124.385654" xmlns="http://www.w3.org/2000/svg" version="1.1">
 <metadata>
  <rdf:RDF xmlns:dc="http://purl.org/dc/elements/1.1/" xmlns:cc="http://creativecommons.org/ns#" xmlns:rdf="http://www.w3.org/1999/02/22-rdf-syntax-ns#">
   <cc:Work>
    <dc:type rdf:resource="http://purl.org/dc/dcmitype/StillImage"/>
    <dc:date>2025-01-14T12:28:26.845077</dc:date>
    <dc:format>image/svg+xml</dc:format>
    <dc:creator>
     <cc:Agent>
      <dc:title>Matplotlib v3.9.2, https://matplotlib.org/</dc:title>
     </cc:Agent>
    </dc:creator>
   </cc:Work>
  </rdf:RDF>
 </metadata>
 <defs>
  <style type="text/css">*{stroke-linejoin: round; stroke-linecap: butt}</style>
 </defs>
 <g id="figure_1">
  <g id="patch_1">
   <path d="M 0 124.385654 
L 356.292188 124.385654 
L 356.292188 -0 
L 0 -0 
z
" style="fill: #ffffff"/>
  </g>
  <g id="axes_1">
   <g id="patch_2">
    <path d="M 34.240625 86.829404 
L 341.140625 86.829404 
L 341.140625 7.388258 
L 34.240625 7.388258 
z
" style="fill: #ffffff"/>
   </g>
   <g id="matplotlib.axis_1">
    <g id="xtick_1">
     <g id="line2d_1">
      <defs>
       <path id="m72ea31ceb5" d="M 0 0 
L 0 3.5 
" style="stroke: #000000; stroke-width: 0.8"/>
      </defs>
      <g>
       <use xlink:href="#m72ea31ceb5" x="34.240625" y="86.829404" style="stroke: #000000; stroke-width: 0.8"/>
      </g>
     </g>
     <g id="text_1">
      <!-- −2.0 -->
      <g transform="translate(22.099219 101.427842) scale(0.1 -0.1)">
       <defs>
        <path id="DejaVuSans-2212" d="M 678 2272 
L 4684 2272 
L 4684 1741 
L 678 1741 
L 678 2272 
z
" transform="scale(0.015625)"/>
        <path id="DejaVuSans-32" d="M 1228 531 
L 3431 531 
L 3431 0 
L 469 0 
L 469 531 
Q 828 903 1448 1529 
Q 2069 2156 2228 2338 
Q 2531 2678 2651 2914 
Q 2772 3150 2772 3378 
Q 2772 3750 2511 3984 
Q 2250 4219 1831 4219 
Q 1534 4219 1204 4116 
Q 875 4013 500 3803 
L 500 4441 
Q 881 4594 1212 4672 
Q 1544 4750 1819 4750 
Q 2544 4750 2975 4387 
Q 3406 4025 3406 3419 
Q 3406 3131 3298 2873 
Q 3191 2616 2906 2266 
Q 2828 2175 2409 1742 
Q 1991 1309 1228 531 
z
" transform="scale(0.015625)"/>
        <path id="DejaVuSans-2e" d="M 684 794 
L 1344 794 
L 1344 0 
L 684 0 
L 684 794 
z
" transform="scale(0.015625)"/>
        <path id="DejaVuSans-30" d="M 2034 4250 
Q 1547 4250 1301 3770 
Q 1056 3291 1056 2328 
Q 1056 1369 1301 889 
Q 1547 409 2034 409 
Q 2525 409 2770 889 
Q 3016 1369 3016 2328 
Q 3016 3291 2770 3770 
Q 2525 4250 2034 4250 
z
M 2034 4750 
Q 2819 4750 3233 4129 
Q 3647 3509 3647 2328 
Q 3647 1150 3233 529 
Q 2819 -91 2034 -91 
Q 1250 -91 836 529 
Q 422 1150 422 2328 
Q 422 3509 836 4129 
Q 1250 4750 2034 4750 
z
" transform="scale(0.015625)"/>
       </defs>
       <use xlink:href="#DejaVuSans-2212"/>
       <use xlink:href="#DejaVuSans-32" x="83.789062"/>
       <use xlink:href="#DejaVuSans-2e" x="147.412109"/>
       <use xlink:href="#DejaVuSans-30" x="179.199219"/>
      </g>
     </g>
    </g>
    <g id="xtick_2">
     <g id="line2d_2">
      <g>
       <use xlink:href="#m72ea31ceb5" x="72.603125" y="86.829404" style="stroke: #000000; stroke-width: 0.8"/>
      </g>
     </g>
     <g id="text_2">
      <!-- −1.5 -->
      <g transform="translate(60.461719 101.427842) scale(0.1 -0.1)">
       <defs>
        <path id="DejaVuSans-31" d="M 794 531 
L 1825 531 
L 1825 4091 
L 703 3866 
L 703 4441 
L 1819 4666 
L 2450 4666 
L 2450 531 
L 3481 531 
L 3481 0 
L 794 0 
L 794 531 
z
" transform="scale(0.015625)"/>
        <path id="DejaVuSans-35" d="M 691 4666 
L 3169 4666 
L 3169 4134 
L 1269 4134 
L 1269 2991 
Q 1406 3038 1543 3061 
Q 1681 3084 1819 3084 
Q 2600 3084 3056 2656 
Q 3513 2228 3513 1497 
Q 3513 744 3044 326 
Q 2575 -91 1722 -91 
Q 1428 -91 1123 -41 
Q 819 9 494 109 
L 494 744 
Q 775 591 1075 516 
Q 1375 441 1709 441 
Q 2250 441 2565 725 
Q 2881 1009 2881 1497 
Q 2881 1984 2565 2268 
Q 2250 2553 1709 2553 
Q 1456 2553 1204 2497 
Q 953 2441 691 2322 
L 691 4666 
z
" transform="scale(0.015625)"/>
       </defs>
       <use xlink:href="#DejaVuSans-2212"/>
       <use xlink:href="#DejaVuSans-31" x="83.789062"/>
       <use xlink:href="#DejaVuSans-2e" x="147.412109"/>
       <use xlink:href="#DejaVuSans-35" x="179.199219"/>
      </g>
     </g>
    </g>
    <g id="xtick_3">
     <g id="line2d_3">
      <g>
       <use xlink:href="#m72ea31ceb5" x="110.965625" y="86.829404" style="stroke: #000000; stroke-width: 0.8"/>
      </g>
     </g>
     <g id="text_3">
      <!-- −1.0 -->
      <g transform="translate(98.824219 101.427842) scale(0.1 -0.1)">
       <use xlink:href="#DejaVuSans-2212"/>
       <use xlink:href="#DejaVuSans-31" x="83.789062"/>
       <use xlink:href="#DejaVuSans-2e" x="147.412109"/>
       <use xlink:href="#DejaVuSans-30" x="179.199219"/>
      </g>
     </g>
    </g>
    <g id="xtick_4">
     <g id="line2d_4">
      <g>
       <use xlink:href="#m72ea31ceb5" x="149.328125" y="86.829404" style="stroke: #000000; stroke-width: 0.8"/>
      </g>
     </g>
     <g id="text_4">
      <!-- −0.5 -->
      <g transform="translate(137.186719 101.427842) scale(0.1 -0.1)">
       <use xlink:href="#DejaVuSans-2212"/>
       <use xlink:href="#DejaVuSans-30" x="83.789062"/>
       <use xlink:href="#DejaVuSans-2e" x="147.412109"/>
       <use xlink:href="#DejaVuSans-35" x="179.199219"/>
      </g>
     </g>
    </g>
    <g id="xtick_5">
     <g id="line2d_5">
      <g>
       <use xlink:href="#m72ea31ceb5" x="187.690625" y="86.829404" style="stroke: #000000; stroke-width: 0.8"/>
      </g>
     </g>
     <g id="text_5">
      <!-- 0.0 -->
      <g transform="translate(179.739063 101.427842) scale(0.1 -0.1)">
       <use xlink:href="#DejaVuSans-30"/>
       <use xlink:href="#DejaVuSans-2e" x="63.623047"/>
       <use xlink:href="#DejaVuSans-30" x="95.410156"/>
      </g>
     </g>
    </g>
    <g id="xtick_6">
     <g id="line2d_6">
      <g>
       <use xlink:href="#m72ea31ceb5" x="226.053125" y="86.829404" style="stroke: #000000; stroke-width: 0.8"/>
      </g>
     </g>
     <g id="text_6">
      <!-- 0.5 -->
      <g transform="translate(218.101563 101.427842) scale(0.1 -0.1)">
       <use xlink:href="#DejaVuSans-30"/>
       <use xlink:href="#DejaVuSans-2e" x="63.623047"/>
       <use xlink:href="#DejaVuSans-35" x="95.410156"/>
      </g>
     </g>
    </g>
    <g id="xtick_7">
     <g id="line2d_7">
      <g>
       <use xlink:href="#m72ea31ceb5" x="264.415625" y="86.829404" style="stroke: #000000; stroke-width: 0.8"/>
      </g>
     </g>
     <g id="text_7">
      <!-- 1.0 -->
      <g transform="translate(256.464063 101.427842) scale(0.1 -0.1)">
       <use xlink:href="#DejaVuSans-31"/>
       <use xlink:href="#DejaVuSans-2e" x="63.623047"/>
       <use xlink:href="#DejaVuSans-30" x="95.410156"/>
      </g>
     </g>
    </g>
    <g id="xtick_8">
     <g id="line2d_8">
      <g>
       <use xlink:href="#m72ea31ceb5" x="302.778125" y="86.829404" style="stroke: #000000; stroke-width: 0.8"/>
      </g>
     </g>
     <g id="text_8">
      <!-- 1.5 -->
      <g transform="translate(294.826563 101.427842) scale(0.1 -0.1)">
       <use xlink:href="#DejaVuSans-31"/>
       <use xlink:href="#DejaVuSans-2e" x="63.623047"/>
       <use xlink:href="#DejaVuSans-35" x="95.410156"/>
      </g>
     </g>
    </g>
    <g id="xtick_9">
     <g id="line2d_9">
      <g>
       <use xlink:href="#m72ea31ceb5" x="341.140625" y="86.829404" style="stroke: #000000; stroke-width: 0.8"/>
      </g>
     </g>
     <g id="text_9">
      <!-- 2.0 -->
      <g transform="translate(333.189062 101.427842) scale(0.1 -0.1)">
       <use xlink:href="#DejaVuSans-32"/>
       <use xlink:href="#DejaVuSans-2e" x="63.623047"/>
       <use xlink:href="#DejaVuSans-30" x="95.410156"/>
      </g>
     </g>
    </g>
    <g id="text_10">
     <!-- t -->
     <g transform="translate(185.730469 115.105967) scale(0.1 -0.1)">
      <defs>
       <path id="DejaVuSans-74" d="M 1172 4494 
L 1172 3500 
L 2356 3500 
L 2356 3053 
L 1172 3053 
L 1172 1153 
Q 1172 725 1289 603 
Q 1406 481 1766 481 
L 2356 481 
L 2356 0 
L 1766 0 
Q 1100 0 847 248 
Q 594 497 594 1153 
L 594 3053 
L 172 3053 
L 172 3500 
L 594 3500 
L 594 4494 
L 1172 4494 
z
" transform="scale(0.015625)"/>
      </defs>
      <use xlink:href="#DejaVuSans-74"/>
     </g>
    </g>
   </g>
   <g id="matplotlib.axis_2">
    <g id="ytick_1">
     <g id="line2d_10">
      <defs>
       <path id="m46d61a8d08" d="M 0 0 
L -3.5 0 
" style="stroke: #000000; stroke-width: 0.8"/>
      </defs>
      <g>
       <use xlink:href="#m46d61a8d08" x="34.240625" y="49.361719" style="stroke: #000000; stroke-width: 0.8"/>
      </g>
     </g>
     <g id="text_11">
      <!-- 0 -->
      <g transform="translate(20.878125 53.160937) scale(0.1 -0.1)">
       <use xlink:href="#DejaVuSans-30"/>
      </g>
     </g>
    </g>
    <g id="ytick_2">
     <g id="line2d_11">
      <g>
       <use xlink:href="#m46d61a8d08" x="34.240625" y="10.999219" style="stroke: #000000; stroke-width: 0.8"/>
      </g>
     </g>
     <g id="text_12">
      <!-- 1 -->
      <g transform="translate(20.878125 14.798437) scale(0.1 -0.1)">
       <use xlink:href="#DejaVuSans-31"/>
      </g>
     </g>
    </g>
    <g id="text_13">
     <!-- $f, \partial_t f$ -->
     <g transform="translate(14.798438 57.358831) rotate(-90) scale(0.1 -0.1)">
      <defs>
       <path id="DejaVuSans-Oblique-66" d="M 3059 4863 
L 2969 4384 
L 2419 4384 
Q 2106 4384 1964 4261 
Q 1822 4138 1753 3809 
L 1691 3500 
L 2638 3500 
L 2553 3053 
L 1606 3053 
L 1013 0 
L 434 0 
L 1031 3053 
L 481 3053 
L 563 3500 
L 1113 3500 
L 1159 3744 
Q 1278 4363 1576 4613 
Q 1875 4863 2516 4863 
L 3059 4863 
z
" transform="scale(0.015625)"/>
       <path id="DejaVuSans-2c" d="M 750 794 
L 1409 794 
L 1409 256 
L 897 -744 
L 494 -744 
L 750 256 
L 750 794 
z
" transform="scale(0.015625)"/>
       <path id="DejaVuSans-2202" d="M 1366 -91 
Q 925 -91 638 175 
Q 297 491 297 1063 
Q 297 1656 597 2119 
Q 906 2594 1463 2594 
Q 1828 2594 2116 2366 
Q 2284 2231 2400 2006 
Q 2441 2259 2441 2547 
Q 2441 2969 2341 3213 
Q 2119 3753 1531 3753 
Q 1309 3753 966 3616 
L 966 4141 
Q 1328 4238 1653 4238 
Q 2491 4238 2847 3469 
Q 3013 3106 3013 2566 
Q 3013 2213 2934 1803 
Q 2738 778 2228 291 
Q 1828 -91 1366 -91 
z
M 831 969 
Q 831 656 969 488 
Q 1116 309 1341 309 
Q 1541 309 1700 450 
Q 1925 644 2091 959 
Q 2228 1219 2297 1497 
Q 2019 2169 1538 2169 
Q 1125 2169 944 1625 
Q 831 1288 831 969 
z
" transform="scale(0.015625)"/>
       <path id="DejaVuSans-Oblique-74" d="M 2706 3500 
L 2619 3053 
L 1472 3053 
L 1100 1153 
Q 1081 1047 1072 975 
Q 1063 903 1063 863 
Q 1063 663 1183 572 
Q 1303 481 1569 481 
L 2150 481 
L 2053 0 
L 1503 0 
Q 991 0 739 200 
Q 488 400 488 806 
Q 488 878 497 964 
Q 506 1050 525 1153 
L 897 3053 
L 409 3053 
L 500 3500 
L 978 3500 
L 1172 4494 
L 1747 4494 
L 1556 3500 
L 2706 3500 
z
" transform="scale(0.015625)"/>
      </defs>
      <use xlink:href="#DejaVuSans-Oblique-66" transform="translate(0 0.015625)"/>
      <use xlink:href="#DejaVuSans-2c" transform="translate(35.205078 0.015625)"/>
      <use xlink:href="#DejaVuSans-2202" transform="translate(86.474609 0.015625)"/>
      <use xlink:href="#DejaVuSans-Oblique-74" transform="translate(139.140625 -16.390625) scale(0.7)"/>
      <use xlink:href="#DejaVuSans-Oblique-66" transform="translate(169.321289 0.015625)"/>
     </g>
    </g>
   </g>
   <g id="line2d_12">
    <path d="M 34.216768 49.361719 
L 67.171277 49.361719 
L 187.690625 10.999219 
L 308.209973 49.361719 
L 341.164482 49.361719 
L 341.164482 49.361719 
" clip-path="url(#pc751e65c06)" style="fill: none; stroke: #1f77b4; stroke-width: 1.5; stroke-linecap: square"/>
   </g>
   <g id="line2d_13">
    <path d="M 34.216768 49.361719 
L 66.700498 49.361719 
L 67.171277 24.939393 
L 187.219846 24.939393 
L 187.690625 73.784045 
L 307.739194 73.784045 
L 308.209973 49.361719 
L 341.164482 49.361719 
L 341.164482 49.361719 
" clip-path="url(#pc751e65c06)" style="fill: none; stroke-dasharray: 9.6,2.4,1.5,2.4; stroke-dashoffset: 0; stroke: #ff7f0e; stroke-width: 1.5"/>
   </g>
   <g id="line2d_14">
    <path d="M 34.216768 49.303982 
L 34.687546 49.420636 
L 35.158325 49.301585 
L 35.629104 49.423108 
L 36.099882 49.299035 
L 36.570661 49.425739 
L 37.04144 49.296318 
L 37.512218 49.428546 
L 37.982997 49.293418 
L 38.453776 49.431545 
L 38.924555 49.290315 
L 39.395333 49.434756 
L 39.866112 49.28699 
L 40.336891 49.438201 
L 40.807669 49.283417 
L 41.278448 49.441908 
L 41.749227 49.27957 
L 42.220006 49.445904 
L 42.690784 49.275415 
L 43.161563 49.450226 
L 43.632342 49.270917 
L 44.10312 49.454912 
L 44.573899 49.266031 
L 45.044678 49.460011 
L 45.515456 49.260706 
L 45.986235 49.465576 
L 46.457014 49.254883 
L 46.927793 49.471675 
L 47.398571 49.24849 
L 47.86935 49.478384 
L 48.340129 49.241441 
L 48.810907 49.485799 
L 49.281686 49.233632 
L 49.752465 49.494034 
L 50.223243 49.224935 
L 50.694022 49.50323 
L 51.164801 49.215196 
L 51.63558 49.513563 
L 52.106358 49.204216 
L 52.577137 49.525252 
L 53.047916 49.191748 
L 53.518694 49.538578 
L 53.989473 49.177473 
L 54.460252 49.553905 
L 54.931031 49.160975 
L 55.401809 49.571713 
L 55.872588 49.141697 
L 56.343367 49.592647 
L 56.814145 49.118885 
L 57.284924 49.6176 
L 57.755703 49.09148 
L 58.226481 49.647834 
L 58.69726 49.057959 
L 59.168039 49.685204 
L 59.638818 49.016041 
L 60.109596 49.732546 
L 60.580375 48.962156 
L 61.051154 49.794421 
L 61.521932 48.890384 
L 61.992711 49.878655 
L 62.46349 48.790153 
L 62.934268 49.999888 
L 63.405047 48.640589 
L 63.875826 50.188956 
L 64.346605 48.394116 
L 64.817383 50.52339 
L 65.288162 47.915055 
L 65.758941 51.264856 
L 66.229719 46.621922 
L 66.700498 54.041512 
L 67.642056 20.184672 
L 68.112834 27.754121 
L 68.583613 22.961316 
L 69.054392 26.461005 
L 69.52517 23.702761 
L 69.995949 25.981972 
L 70.466728 24.03716 
L 70.937506 25.735539 
L 71.408285 24.226183 
L 71.879064 25.586026 
L 72.349843 24.347359 
L 72.820621 25.485857 
L 73.2914 24.431525 
L 73.762179 25.414159 
L 74.232957 24.493321 
L 74.703736 25.360359 
L 75.174515 24.540572 
L 75.645293 25.318538 
L 76.116072 24.57784 
L 76.586851 25.285126 
L 77.05763 24.607959 
L 77.528408 25.257841 
L 77.999187 24.632786 
L 78.469966 25.23516 
L 78.940744 24.653582 
L 79.411523 25.216027 
L 79.882302 24.67124 
L 80.353081 25.199684 
L 80.823859 24.686406 
L 81.294638 25.185577 
L 81.765417 24.699558 
L 82.236195 25.17329 
L 82.706974 24.71106 
L 83.177753 25.162503 
L 83.648531 24.721194 
L 84.11931 25.152968 
L 84.590089 24.730178 
L 85.060868 25.14449 
L 85.531646 24.738189 
L 86.002425 25.136912 
L 86.473204 24.745366 
L 86.943982 25.130106 
L 87.414761 24.751825 
L 87.88554 25.123971 
L 88.356318 24.757659 
L 88.827097 25.118418 
L 89.297876 24.762947 
L 89.768655 25.113378 
L 90.239433 24.767754 
L 90.710212 25.108791 
L 91.180991 24.772135 
L 91.651769 25.104605 
L 92.122548 24.776137 
L 92.593327 25.100777 
L 93.064106 24.779799 
L 93.534884 25.097272 
L 94.005663 24.783156 
L 94.476442 25.094056 
L 94.94722 24.786237 
L 95.417999 25.091103 
L 95.888778 24.789068 
L 96.359556 25.088389 
L 96.830335 24.791671 
L 97.301114 25.085893 
L 97.771893 24.794065 
L 98.242671 25.083596 
L 98.71345 24.796268 
L 99.184229 25.081484 
L 99.655007 24.798294 
L 100.125786 25.07954 
L 100.596565 24.800157 
L 101.067344 25.077754 
L 101.538122 24.801869 
L 102.008901 25.076115 
L 102.47968 24.803439 
L 102.950458 25.074611 
L 103.421237 24.804878 
L 103.892016 25.073235 
L 104.362794 24.806193 
L 104.833573 25.071979 
L 105.304352 24.807392 
L 105.775131 25.070835 
L 106.245909 24.808482 
L 106.716688 25.069798 
L 107.187467 24.809467 
L 107.658245 25.068863 
L 108.129024 24.810354 
L 108.599803 25.068023 
L 109.070581 24.811148 
L 109.54136 25.067275 
L 110.012139 24.811851 
L 110.482918 25.066615 
L 110.953696 24.812469 
L 111.424475 25.066039 
L 111.895254 24.813003 
L 112.366032 25.065545 
L 112.836811 24.813458 
L 113.30759 25.065129 
L 113.778369 24.813836 
L 114.249147 25.064789 
L 114.719926 24.814139 
L 115.190705 25.064523 
L 115.661483 24.814369 
L 116.132262 25.064329 
L 116.603041 24.814527 
L 117.073819 25.064206 
L 117.544598 24.814616 
L 118.015377 25.064152 
L 118.486156 24.814635 
L 118.956934 25.064166 
L 119.427713 24.814587 
L 119.898492 25.064247 
L 120.36927 24.814472 
L 120.840049 25.064396 
L 121.310828 24.81429 
L 121.781606 25.064611 
L 122.252385 24.814042 
L 122.723164 25.064892 
L 123.193943 24.813728 
L 123.664721 25.065239 
L 124.1355 24.813348 
L 124.606279 25.065653 
L 125.077057 24.812901 
L 125.547836 25.066133 
L 126.018615 24.812387 
L 126.489394 25.066681 
L 126.960172 24.811806 
L 127.430951 25.067296 
L 127.90173 24.811155 
L 128.372508 25.067981 
L 128.843287 24.810436 
L 129.314066 25.068736 
L 129.784844 24.809645 
L 130.255623 25.069563 
L 130.726402 24.808782 
L 131.197181 25.070463 
L 131.667959 24.807844 
L 132.138738 25.071438 
L 132.609517 24.806831 
L 133.080295 25.07249 
L 133.551074 24.805739 
L 134.021853 25.073622 
L 134.492631 24.804567 
L 134.96341 25.074836 
L 135.434189 24.803311 
L 135.904968 25.076135 
L 136.375746 24.801968 
L 136.846525 25.077522 
L 137.317304 24.800536 
L 137.788082 25.079 
L 138.258861 24.79901 
L 138.72964 25.080575 
L 139.200419 24.797387 
L 139.671197 25.082248 
L 140.141976 24.795661 
L 140.612755 25.084027 
L 141.083533 24.793829 
L 141.554312 25.085915 
L 142.025091 24.791884 
L 142.495869 25.087918 
L 142.966648 24.789821 
L 143.437427 25.090042 
L 143.908206 24.787634 
L 144.378984 25.092294 
L 144.849763 24.785315 
L 145.320542 25.094682 
L 145.79132 24.782856 
L 146.262099 25.097213 
L 146.732878 24.78025 
L 147.203656 25.099897 
L 147.674435 24.777486 
L 148.145214 25.102743 
L 148.615993 24.774555 
L 149.086771 25.105762 
L 149.55755 24.771445 
L 150.028329 25.108967 
L 150.499107 24.768142 
L 150.969886 25.11237 
L 151.440665 24.764635 
L 151.911444 25.115987 
L 152.382222 24.760905 
L 152.853001 25.119833 
L 153.32378 24.756938 
L 153.794558 25.123927 
L 154.265337 24.752712 
L 154.736116 25.128289 
L 155.206894 24.748208 
L 155.677673 25.132942 
L 156.148452 24.743399 
L 156.619231 25.137912 
L 157.090009 24.73826 
L 157.560788 25.143228 
L 158.031567 24.73276 
L 158.502345 25.148922 
L 158.973124 24.726864 
L 159.443903 25.155031 
L 159.914681 24.720531 
L 160.38546 25.161597 
L 160.856239 24.713719 
L 161.327018 25.168669 
L 161.797796 24.706374 
L 162.268575 25.176302 
L 162.739354 24.698437 
L 163.210132 25.18456 
L 163.680911 24.68984 
L 164.15169 25.193517 
L 164.622469 24.680502 
L 165.093247 25.203259 
L 165.564026 24.670329 
L 166.034805 25.213889 
L 166.505583 24.659212 
L 166.976362 25.225527 
L 167.447141 24.647018 
L 167.917919 25.238316 
L 168.388698 24.633592 
L 168.859477 25.252426 
L 169.330256 24.618744 
L 169.801034 25.268068 
L 170.271813 24.602246 
L 170.742592 25.285493 
L 171.21337 24.583815 
L 171.684149 25.305017 
L 172.154928 24.563101 
L 172.625706 25.327031 
L 173.096485 24.539664 
L 173.567264 25.352031 
L 174.038043 24.512942 
L 174.508821 25.380655 
L 174.9796 24.482208 
L 175.450379 25.413738 
L 175.921157 24.446502 
L 176.391936 25.452388 
L 176.862715 24.404532 
L 177.333494 25.498119 
L 177.804272 24.354516 
L 178.275051 25.553046 
L 178.74583 24.293926 
L 179.216608 25.620215 
L 179.687387 24.219053 
L 180.158166 25.704188 
L 180.628944 24.124225 
L 181.099723 25.812105 
L 181.570502 24.000323 
L 182.041281 25.955808 
L 182.512059 23.83169 
L 182.982838 26.156439 
L 183.453617 23.589049 
L 183.924395 26.455747 
L 184.395174 23.210728 
L 184.865953 26.948884 
L 185.336731 22.541665 
L 185.80751 27.907209 
L 186.278289 21.058524 
L 186.749068 30.493688 
L 187.219846 15.504994 
L 188.161404 83.218443 
L 188.632182 68.229749 
L 189.102961 77.664914 
L 189.57374 70.816229 
L 190.044519 76.181773 
L 190.515297 71.774553 
L 190.986076 75.512709 
L 191.456855 72.26769 
L 191.927633 75.134388 
L 192.398412 72.566998 
L 192.869191 74.891748 
L 193.339969 72.76763 
L 193.810748 74.723115 
L 194.281527 72.911332 
L 194.752306 74.599212 
L 195.223084 73.01925 
L 195.693863 74.504385 
L 196.164642 73.103223 
L 196.63542 74.429512 
L 197.106199 73.170392 
L 197.576978 74.368922 
L 198.047756 73.225318 
L 198.518535 74.318906 
L 198.989314 73.271049 
L 199.460093 74.276936 
L 199.930871 73.3097 
L 200.40165 74.24123 
L 200.872429 73.342782 
L 201.343207 74.210495 
L 201.813986 73.371407 
L 202.284765 74.183773 
L 202.755544 73.396407 
L 203.226322 74.160336 
L 203.697101 73.418421 
L 204.16788 74.139622 
L 204.638658 73.437944 
L 205.109437 74.121191 
L 205.580216 73.45537 
L 206.050994 74.104693 
L 206.521773 73.471011 
L 206.992552 74.089846 
L 207.463331 73.485122 
L 207.934109 74.07642 
L 208.404888 73.49791 
L 208.875667 74.064226 
L 209.346445 73.509548 
L 209.817224 74.053108 
L 210.288003 73.520178 
L 210.758781 74.042936 
L 211.22956 73.529921 
L 211.700339 74.033598 
L 212.171118 73.538878 
L 212.641896 74.025 
L 213.112675 73.547136 
L 213.583454 74.017064 
L 214.054232 73.554768 
L 214.525011 74.009719 
L 214.99579 73.56184 
L 215.466569 74.002906 
L 215.937347 73.568407 
L 216.408126 73.996574 
L 216.878905 73.574516 
L 217.349683 73.990678 
L 217.820462 73.580209 
L 218.291241 73.985177 
L 218.762019 73.585525 
L 219.232798 73.980038 
L 219.703577 73.590495 
L 220.174356 73.97523 
L 220.645134 73.595148 
L 221.115913 73.970725 
L 221.586692 73.599511 
L 222.05747 73.9665 
L 222.528249 73.603605 
L 222.999028 73.962532 
L 223.469806 73.607451 
L 223.940585 73.958803 
L 224.411364 73.611067 
L 224.882143 73.955295 
L 225.352921 73.61447 
L 225.8237 73.951993 
L 226.294479 73.617675 
L 226.765257 73.948882 
L 227.236036 73.620694 
L 227.706815 73.945951 
L 228.177594 73.623541 
L 228.648372 73.943187 
L 229.119151 73.626224 
L 229.58993 73.940581 
L 230.060708 73.628756 
L 230.531487 73.938123 
L 231.002266 73.631143 
L 231.473044 73.935804 
L 231.943823 73.633396 
L 232.414602 73.933616 
L 232.885381 73.63552 
L 233.356159 73.931553 
L 233.826938 73.637523 
L 234.297717 73.929609 
L 234.768495 73.639411 
L 235.239274 73.927776 
L 235.710053 73.641189 
L 236.180831 73.926051 
L 236.65161 73.642863 
L 237.122389 73.924427 
L 237.593168 73.644437 
L 238.063946 73.922901 
L 238.534725 73.645916 
L 239.005504 73.921469 
L 239.476282 73.647303 
L 239.947061 73.920127 
L 240.41784 73.648602 
L 240.888619 73.918871 
L 241.359397 73.649815 
L 241.830176 73.917698 
L 242.300955 73.650947 
L 242.771733 73.916606 
L 243.242512 73.651999 
L 243.713291 73.915593 
L 244.184069 73.652974 
L 244.654848 73.914656 
L 245.125627 73.653874 
L 245.596406 73.913793 
L 246.067184 73.654701 
L 246.537963 73.913002 
L 247.008742 73.655456 
L 247.47952 73.912282 
L 247.950299 73.656141 
L 248.421078 73.911632 
L 248.891856 73.656757 
L 249.362635 73.91105 
L 249.833414 73.657305 
L 250.304193 73.910536 
L 250.774971 73.657785 
L 251.24575 73.91009 
L 251.716529 73.658198 
L 252.187307 73.909709 
L 252.658086 73.658546 
L 253.128865 73.909395 
L 253.599644 73.658827 
L 254.070422 73.909147 
L 254.541201 73.659042 
L 255.01198 73.908965 
L 255.482758 73.65919 
L 255.953537 73.90885 
L 256.424316 73.659272 
L 256.895094 73.908802 
L 257.365873 73.659286 
L 257.836652 73.908822 
L 258.307431 73.659232 
L 258.778209 73.90891 
L 259.248988 73.659109 
L 259.719767 73.909069 
L 260.190545 73.658915 
L 260.661324 73.909299 
L 261.132103 73.658649 
L 261.602881 73.909601 
L 262.07366 73.658309 
L 262.544439 73.909979 
L 263.015218 73.657893 
L 263.485996 73.910434 
L 263.956775 73.657398 
L 264.427554 73.910969 
L 264.898332 73.656822 
L 265.369111 73.911586 
L 265.83989 73.656162 
L 266.310669 73.91229 
L 266.781447 73.655415 
L 267.252226 73.913083 
L 267.723005 73.654575 
L 268.193783 73.91397 
L 268.664562 73.653639 
L 269.135341 73.914956 
L 269.606119 73.652602 
L 270.076898 73.916045 
L 270.547677 73.651459 
L 271.018456 73.917244 
L 271.489234 73.650203 
L 271.960013 73.91856 
L 272.430792 73.648827 
L 272.90157 73.919998 
L 273.372349 73.647323 
L 273.843128 73.921569 
L 274.313906 73.645683 
L 274.784685 73.923281 
L 275.255464 73.643897 
L 275.726243 73.925144 
L 276.197021 73.641954 
L 276.6678 73.92717 
L 277.138579 73.639841 
L 277.609357 73.929373 
L 278.080136 73.637545 
L 278.550915 73.931767 
L 279.021694 73.635049 
L 279.492472 73.93437 
L 279.963251 73.632334 
L 280.43403 73.9372 
L 280.904808 73.629381 
L 281.375587 73.940281 
L 281.846366 73.626166 
L 282.317144 73.943638 
L 282.787923 73.62266 
L 283.258702 73.947301 
L 283.729481 73.618833 
L 284.200259 73.951302 
L 284.671038 73.614647 
L 285.141817 73.955683 
L 285.612595 73.610059 
L 286.083374 73.96049 
L 286.554153 73.605019 
L 287.024932 73.965778 
L 287.49571 73.599467 
L 287.966489 73.971613 
L 288.437268 73.593331 
L 288.908046 73.978071 
L 289.378825 73.586526 
L 289.849604 73.985249 
L 290.320382 73.578948 
L 290.791161 73.993259 
L 291.26194 73.57047 
L 291.732719 74.002244 
L 292.203497 73.560935 
L 292.674276 74.012377 
L 293.145055 73.550148 
L 293.615833 74.02388 
L 294.086612 73.53786 
L 294.557391 74.037032 
L 295.028169 73.523754 
L 295.498948 74.052197 
L 295.969727 73.507411 
L 296.440506 74.069855 
L 296.911284 73.488277 
L 297.382063 74.090652 
L 297.852842 73.465597 
L 298.32362 74.115478 
L 298.794399 73.438312 
L 299.265178 74.145598 
L 299.735957 73.404899 
L 300.206735 74.182866 
L 300.677514 73.363078 
L 301.148293 74.230117 
L 301.619071 73.309279 
L 302.08985 74.291912 
L 302.560629 73.237581 
L 303.031407 74.376078 
L 303.502186 73.137412 
L 303.972965 74.497255 
L 304.443744 72.987899 
L 304.914522 74.686277 
L 305.385301 72.741466 
L 305.85608 75.020677 
L 306.326858 72.262433 
L 306.797637 75.762121 
L 307.268416 70.969316 
L 307.739194 78.538765 
L 308.680752 44.681926 
L 309.151531 52.101516 
L 309.622309 47.458581 
L 310.093088 50.808382 
L 310.563867 48.200048 
L 311.034645 50.329321 
L 311.505424 48.534481 
L 311.976203 50.082848 
L 312.446982 48.723549 
L 312.91776 49.933284 
L 313.388539 48.844782 
L 313.859318 49.833053 
L 314.330096 48.929017 
L 314.800875 49.761281 
L 315.271654 48.990891 
L 315.742432 49.707397 
L 316.213211 49.038233 
L 316.68399 49.665479 
L 317.154769 49.075604 
L 317.625547 49.631958 
L 318.096326 49.105838 
L 318.567105 49.604553 
L 319.037883 49.13079 
L 319.508662 49.58174 
L 319.979441 49.151725 
L 320.450219 49.562463 
L 320.920998 49.169533 
L 321.391777 49.545964 
L 321.862556 49.18486 
L 322.333334 49.53169 
L 322.804113 49.198186 
L 323.274892 49.519222 
L 323.74567 49.209875 
L 324.216449 49.508242 
L 324.687228 49.220207 
L 325.158007 49.498502 
L 325.628785 49.229403 
L 326.099564 49.489806 
L 326.570343 49.237638 
L 327.041121 49.481997 
L 327.5119 49.245053 
L 327.982679 49.474948 
L 328.453457 49.251763 
L 328.924236 49.468554 
L 329.395015 49.257861 
L 329.865794 49.462731 
L 330.336572 49.263427 
L 330.807351 49.457407 
L 331.27813 49.268525 
L 331.748908 49.452521 
L 332.219687 49.273212 
L 332.690466 49.448022 
L 333.161244 49.277533 
L 333.632023 49.443868 
L 334.102802 49.28153 
L 334.573581 49.44002 
L 335.044359 49.285236 
L 335.515138 49.436448 
L 335.985917 49.288682 
L 336.456695 49.433122 
L 336.927474 49.291893 
L 337.398253 49.43002 
L 337.869032 49.294892 
L 338.33981 49.42712 
L 338.810589 49.297698 
L 339.281368 49.424403 
L 339.752146 49.30033 
L 340.222925 49.421853 
L 340.693704 49.302802 
L 341.164482 49.419455 
L 341.164482 49.419455 
" clip-path="url(#pc751e65c06)" style="fill: none; stroke-dasharray: 5.55,2.4; stroke-dashoffset: 0; stroke: #2ca02c; stroke-width: 1.5"/>
   </g>
   <g id="patch_3">
    <path d="M 34.240625 86.829404 
L 34.240625 7.388258 
" style="fill: none; stroke: #000000; stroke-width: 0.8; stroke-linejoin: miter; stroke-linecap: square"/>
   </g>
   <g id="patch_4">
    <path d="M 341.140625 86.829404 
L 341.140625 7.388258 
" style="fill: none; stroke: #000000; stroke-width: 0.8; stroke-linejoin: miter; stroke-linecap: square"/>
   </g>
   <g id="patch_5">
    <path d="M 34.240625 86.829404 
L 341.140625 86.829404 
" style="fill: none; stroke: #000000; stroke-width: 0.8; stroke-linejoin: miter; stroke-linecap: square"/>
   </g>
   <g id="patch_6">
    <path d="M 34.240625 7.388258 
L 341.140625 7.388258 
" style="fill: none; stroke: #000000; stroke-width: 0.8; stroke-linejoin: miter; stroke-linecap: square"/>
   </g>
   <g id="legend_1">
    <g id="patch_7">
     <path d="M 207.46875 59.422633 
L 334.140625 59.422633 
Q 336.140625 59.422633 336.140625 57.422633 
L 336.140625 14.388258 
Q 336.140625 12.388258 334.140625 12.388258 
L 207.46875 12.388258 
Q 205.46875 12.388258 205.46875 14.388258 
L 205.46875 57.422633 
Q 205.46875 59.422633 207.46875 59.422633 
z
" style="fill: #ffffff; opacity: 0.8; stroke: #cccccc; stroke-linejoin: miter"/>
    </g>
    <g id="line2d_15">
     <path d="M 209.46875 20.486695 
L 219.46875 20.486695 
L 229.46875 20.486695 
" style="fill: none; stroke: #1f77b4; stroke-width: 1.5; stroke-linecap: square"/>
    </g>
    <g id="text_14">
     <!-- $f$ -->
     <g transform="translate(237.46875 23.986695) scale(0.1 -0.1)">
      <use xlink:href="#DejaVuSans-Oblique-66" transform="translate(0 0.015625)"/>
     </g>
    </g>
    <g id="line2d_16">
     <path d="M 209.46875 35.16482 
L 219.46875 35.16482 
L 229.46875 35.16482 
" style="fill: none; stroke-dasharray: 9.6,2.4,1.5,2.4; stroke-dashoffset: 0; stroke: #ff7f0e; stroke-width: 1.5"/>
    </g>
    <g id="text_15">
     <!-- Finite derivative -->
     <g transform="translate(237.46875 38.66482) scale(0.1 -0.1)">
      <defs>
       <path id="DejaVuSans-46" d="M 628 4666 
L 3309 4666 
L 3309 4134 
L 1259 4134 
L 1259 2759 
L 3109 2759 
L 3109 2228 
L 1259 2228 
L 1259 0 
L 628 0 
L 628 4666 
z
" transform="scale(0.015625)"/>
       <path id="DejaVuSans-69" d="M 603 3500 
L 1178 3500 
L 1178 0 
L 603 0 
L 603 3500 
z
M 603 4863 
L 1178 4863 
L 1178 4134 
L 603 4134 
L 603 4863 
z
" transform="scale(0.015625)"/>
       <path id="DejaVuSans-6e" d="M 3513 2113 
L 3513 0 
L 2938 0 
L 2938 2094 
Q 2938 2591 2744 2837 
Q 2550 3084 2163 3084 
Q 1697 3084 1428 2787 
Q 1159 2491 1159 1978 
L 1159 0 
L 581 0 
L 581 3500 
L 1159 3500 
L 1159 2956 
Q 1366 3272 1645 3428 
Q 1925 3584 2291 3584 
Q 2894 3584 3203 3211 
Q 3513 2838 3513 2113 
z
" transform="scale(0.015625)"/>
       <path id="DejaVuSans-65" d="M 3597 1894 
L 3597 1613 
L 953 1613 
Q 991 1019 1311 708 
Q 1631 397 2203 397 
Q 2534 397 2845 478 
Q 3156 559 3463 722 
L 3463 178 
Q 3153 47 2828 -22 
Q 2503 -91 2169 -91 
Q 1331 -91 842 396 
Q 353 884 353 1716 
Q 353 2575 817 3079 
Q 1281 3584 2069 3584 
Q 2775 3584 3186 3129 
Q 3597 2675 3597 1894 
z
M 3022 2063 
Q 3016 2534 2758 2815 
Q 2500 3097 2075 3097 
Q 1594 3097 1305 2825 
Q 1016 2553 972 2059 
L 3022 2063 
z
" transform="scale(0.015625)"/>
       <path id="DejaVuSans-20" transform="scale(0.015625)"/>
       <path id="DejaVuSans-64" d="M 2906 2969 
L 2906 4863 
L 3481 4863 
L 3481 0 
L 2906 0 
L 2906 525 
Q 2725 213 2448 61 
Q 2172 -91 1784 -91 
Q 1150 -91 751 415 
Q 353 922 353 1747 
Q 353 2572 751 3078 
Q 1150 3584 1784 3584 
Q 2172 3584 2448 3432 
Q 2725 3281 2906 2969 
z
M 947 1747 
Q 947 1113 1208 752 
Q 1469 391 1925 391 
Q 2381 391 2643 752 
Q 2906 1113 2906 1747 
Q 2906 2381 2643 2742 
Q 2381 3103 1925 3103 
Q 1469 3103 1208 2742 
Q 947 2381 947 1747 
z
" transform="scale(0.015625)"/>
       <path id="DejaVuSans-72" d="M 2631 2963 
Q 2534 3019 2420 3045 
Q 2306 3072 2169 3072 
Q 1681 3072 1420 2755 
Q 1159 2438 1159 1844 
L 1159 0 
L 581 0 
L 581 3500 
L 1159 3500 
L 1159 2956 
Q 1341 3275 1631 3429 
Q 1922 3584 2338 3584 
Q 2397 3584 2469 3576 
Q 2541 3569 2628 3553 
L 2631 2963 
z
" transform="scale(0.015625)"/>
       <path id="DejaVuSans-76" d="M 191 3500 
L 800 3500 
L 1894 563 
L 2988 3500 
L 3597 3500 
L 2284 0 
L 1503 0 
L 191 3500 
z
" transform="scale(0.015625)"/>
       <path id="DejaVuSans-61" d="M 2194 1759 
Q 1497 1759 1228 1600 
Q 959 1441 959 1056 
Q 959 750 1161 570 
Q 1363 391 1709 391 
Q 2188 391 2477 730 
Q 2766 1069 2766 1631 
L 2766 1759 
L 2194 1759 
z
M 3341 1997 
L 3341 0 
L 2766 0 
L 2766 531 
Q 2569 213 2275 61 
Q 1981 -91 1556 -91 
Q 1019 -91 701 211 
Q 384 513 384 1019 
Q 384 1609 779 1909 
Q 1175 2209 1959 2209 
L 2766 2209 
L 2766 2266 
Q 2766 2663 2505 2880 
Q 2244 3097 1772 3097 
Q 1472 3097 1187 3025 
Q 903 2953 641 2809 
L 641 3341 
Q 956 3463 1253 3523 
Q 1550 3584 1831 3584 
Q 2591 3584 2966 3190 
Q 3341 2797 3341 1997 
z
" transform="scale(0.015625)"/>
      </defs>
      <use xlink:href="#DejaVuSans-46"/>
      <use xlink:href="#DejaVuSans-69" x="50.269531"/>
      <use xlink:href="#DejaVuSans-6e" x="78.052734"/>
      <use xlink:href="#DejaVuSans-69" x="141.431641"/>
      <use xlink:href="#DejaVuSans-74" x="169.214844"/>
      <use xlink:href="#DejaVuSans-65" x="208.423828"/>
      <use xlink:href="#DejaVuSans-20" x="269.947266"/>
      <use xlink:href="#DejaVuSans-64" x="301.734375"/>
      <use xlink:href="#DejaVuSans-65" x="365.210938"/>
      <use xlink:href="#DejaVuSans-72" x="426.734375"/>
      <use xlink:href="#DejaVuSans-69" x="467.847656"/>
      <use xlink:href="#DejaVuSans-76" x="495.630859"/>
      <use xlink:href="#DejaVuSans-61" x="554.810547"/>
      <use xlink:href="#DejaVuSans-74" x="616.089844"/>
      <use xlink:href="#DejaVuSans-69" x="655.298828"/>
      <use xlink:href="#DejaVuSans-76" x="683.082031"/>
      <use xlink:href="#DejaVuSans-65" x="742.261719"/>
     </g>
    </g>
    <g id="line2d_17">
     <path d="M 209.46875 49.842945 
L 219.46875 49.842945 
L 229.46875 49.842945 
" style="fill: none; stroke-dasharray: 5.55,2.4; stroke-dashoffset: 0; stroke: #2ca02c; stroke-width: 1.5"/>
    </g>
    <g id="text_16">
     <!-- Spectral derivative -->
     <g transform="translate(237.46875 53.342945) scale(0.1 -0.1)">
      <defs>
       <path id="DejaVuSans-53" d="M 3425 4513 
L 3425 3897 
Q 3066 4069 2747 4153 
Q 2428 4238 2131 4238 
Q 1616 4238 1336 4038 
Q 1056 3838 1056 3469 
Q 1056 3159 1242 3001 
Q 1428 2844 1947 2747 
L 2328 2669 
Q 3034 2534 3370 2195 
Q 3706 1856 3706 1288 
Q 3706 609 3251 259 
Q 2797 -91 1919 -91 
Q 1588 -91 1214 -16 
Q 841 59 441 206 
L 441 856 
Q 825 641 1194 531 
Q 1563 422 1919 422 
Q 2459 422 2753 634 
Q 3047 847 3047 1241 
Q 3047 1584 2836 1778 
Q 2625 1972 2144 2069 
L 1759 2144 
Q 1053 2284 737 2584 
Q 422 2884 422 3419 
Q 422 4038 858 4394 
Q 1294 4750 2059 4750 
Q 2388 4750 2728 4690 
Q 3069 4631 3425 4513 
z
" transform="scale(0.015625)"/>
       <path id="DejaVuSans-70" d="M 1159 525 
L 1159 -1331 
L 581 -1331 
L 581 3500 
L 1159 3500 
L 1159 2969 
Q 1341 3281 1617 3432 
Q 1894 3584 2278 3584 
Q 2916 3584 3314 3078 
Q 3713 2572 3713 1747 
Q 3713 922 3314 415 
Q 2916 -91 2278 -91 
Q 1894 -91 1617 61 
Q 1341 213 1159 525 
z
M 3116 1747 
Q 3116 2381 2855 2742 
Q 2594 3103 2138 3103 
Q 1681 3103 1420 2742 
Q 1159 2381 1159 1747 
Q 1159 1113 1420 752 
Q 1681 391 2138 391 
Q 2594 391 2855 752 
Q 3116 1113 3116 1747 
z
" transform="scale(0.015625)"/>
       <path id="DejaVuSans-63" d="M 3122 3366 
L 3122 2828 
Q 2878 2963 2633 3030 
Q 2388 3097 2138 3097 
Q 1578 3097 1268 2742 
Q 959 2388 959 1747 
Q 959 1106 1268 751 
Q 1578 397 2138 397 
Q 2388 397 2633 464 
Q 2878 531 3122 666 
L 3122 134 
Q 2881 22 2623 -34 
Q 2366 -91 2075 -91 
Q 1284 -91 818 406 
Q 353 903 353 1747 
Q 353 2603 823 3093 
Q 1294 3584 2113 3584 
Q 2378 3584 2631 3529 
Q 2884 3475 3122 3366 
z
" transform="scale(0.015625)"/>
       <path id="DejaVuSans-6c" d="M 603 4863 
L 1178 4863 
L 1178 0 
L 603 0 
L 603 4863 
z
" transform="scale(0.015625)"/>
      </defs>
      <use xlink:href="#DejaVuSans-53"/>
      <use xlink:href="#DejaVuSans-70" x="63.476562"/>
      <use xlink:href="#DejaVuSans-65" x="126.953125"/>
      <use xlink:href="#DejaVuSans-63" x="188.476562"/>
      <use xlink:href="#DejaVuSans-74" x="243.457031"/>
      <use xlink:href="#DejaVuSans-72" x="282.666016"/>
      <use xlink:href="#DejaVuSans-61" x="323.779297"/>
      <use xlink:href="#DejaVuSans-6c" x="385.058594"/>
      <use xlink:href="#DejaVuSans-20" x="412.841797"/>
      <use xlink:href="#DejaVuSans-64" x="444.628906"/>
      <use xlink:href="#DejaVuSans-65" x="508.105469"/>
      <use xlink:href="#DejaVuSans-72" x="569.628906"/>
      <use xlink:href="#DejaVuSans-69" x="610.742188"/>
      <use xlink:href="#DejaVuSans-76" x="638.525391"/>
      <use xlink:href="#DejaVuSans-61" x="697.705078"/>
      <use xlink:href="#DejaVuSans-74" x="758.984375"/>
      <use xlink:href="#DejaVuSans-69" x="798.193359"/>
      <use xlink:href="#DejaVuSans-76" x="825.976562"/>
      <use xlink:href="#DejaVuSans-65" x="885.15625"/>
     </g>
    </g>
   </g>
  </g>
 </g>
 <defs>
  <clipPath id="pc751e65c06">
   <rect x="34.240625" y="7.388258" width="306.9" height="79.441147"/>
  </clipPath>
 </defs>
</svg>
