<?xml version="1.0" encoding="utf-8" standalone="no"?>
<!DOCTYPE svg PUBLIC "-//W3C//DTD SVG 1.1//EN"
  "http://www.w3.org/Graphics/SVG/1.1/DTD/svg11.dtd">
<svg xmlns:xlink="http://www.w3.org/1999/xlink" width="321.3pt" height="92.518125pt" viewBox="0 0 321.3 92.518125" xmlns="http://www.w3.org/2000/svg" version="1.1">
 <metadata>
  <rdf:RDF xmlns:dc="http://purl.org/dc/elements/1.1/" xmlns:cc="http://creativecommons.org/ns#" xmlns:rdf="http://www.w3.org/1999/02/22-rdf-syntax-ns#">
   <cc:Work>
    <dc:type rdf:resource="http://purl.org/dc/dcmitype/StillImage"/>
    <dc:date>2025-01-14T09:38:55.236193</dc:date>
    <dc:format>image/svg+xml</dc:format>
    <dc:creator>
     <cc:Agent>
      <dc:title>Matplotlib v3.9.2, https://matplotlib.org/</dc:title>
     </cc:Agent>
    </dc:creator>
   </cc:Work>
  </rdf:RDF>
 </metadata>
 <defs>
  <style type="text/css">*{stroke-linejoin: round; stroke-linecap: butt}</style>
 </defs>
 <g id="figure_1">
  <g id="patch_1">
   <path d="M 0 92.518125 
L 321.3 92.518125 
L 321.3 0 
L 0 0 
z
" style="fill: #ffffff"/>
  </g>
  <g id="axes_1">
   <g id="patch_2">
    <path d="M 7.2 68.64 
L 314.1 68.64 
L 314.1 7.2 
L 7.2 7.2 
z
" style="fill: #ffffff"/>
   </g>
   <g id="matplotlib.axis_1">
    <g id="xtick_1">
     <g id="line2d_1">
      <defs>
       <path id="mad811cf37e" d="M 0 0 
L 0 3.5 
" style="stroke: #000000; stroke-width: 0.8"/>
      </defs>
      <g>
       <use xlink:href="#mad811cf37e" x="130.08" y="68.64" style="stroke: #000000; stroke-width: 0.8"/>
      </g>
     </g>
     <g id="text_1">
      <!-- $\tau - a$ -->
      <g transform="translate(117.83 83.238437) scale(0.1 -0.1)">
       <defs>
        <path id="DejaVuSans-Oblique-3c4" d="M 2103 638 
Q 2188 488 2525 488 
L 2800 488 
L 2706 0 
L 2363 0 
Q 1800 0 1600 300 
Q 1403 606 1534 1269 
L 1856 2925 
L 541 2925 
L 653 3500 
L 3881 3500 
L 3769 2925 
L 2444 2925 
L 2113 1234 
Q 2025 781 2103 638 
z
" transform="scale(0.015625)"/>
        <path id="DejaVuSans-2212" d="M 678 2272 
L 4684 2272 
L 4684 1741 
L 678 1741 
L 678 2272 
z
" transform="scale(0.015625)"/>
        <path id="DejaVuSans-Oblique-61" d="M 3438 1997 
L 3047 0 
L 2472 0 
L 2578 531 
Q 2325 219 2001 64 
Q 1678 -91 1281 -91 
Q 834 -91 548 182 
Q 263 456 263 884 
Q 263 1497 752 1853 
Q 1241 2209 2100 2209 
L 2900 2209 
L 2931 2363 
Q 2938 2388 2941 2417 
Q 2944 2447 2944 2509 
Q 2944 2788 2717 2942 
Q 2491 3097 2081 3097 
Q 1800 3097 1504 3025 
Q 1209 2953 897 2809 
L 997 3341 
Q 1322 3463 1633 3523 
Q 1944 3584 2234 3584 
Q 2853 3584 3176 3315 
Q 3500 3047 3500 2534 
Q 3500 2431 3484 2292 
Q 3469 2153 3438 1997 
z
M 2816 1759 
L 2241 1759 
Q 1534 1759 1195 1570 
Q 856 1381 856 984 
Q 856 709 1029 553 
Q 1203 397 1509 397 
Q 1978 397 2328 733 
Q 2678 1069 2791 1631 
L 2816 1759 
z
" transform="scale(0.015625)"/>
       </defs>
       <use xlink:href="#DejaVuSans-Oblique-3c4"/>
       <use xlink:href="#DejaVuSans-2212" transform="translate(79.6875 0)"/>
       <use xlink:href="#DejaVuSans-Oblique-61" transform="translate(182.958984 0)"/>
      </g>
     </g>
    </g>
    <g id="xtick_2">
     <g id="line2d_2">
      <g>
       <use xlink:href="#mad811cf37e" x="160.8" y="68.64" style="stroke: #000000; stroke-width: 0.8"/>
      </g>
     </g>
     <g id="text_2">
      <!-- $\tau$ -->
      <g transform="translate(157.75 83.238437) scale(0.1 -0.1)">
       <use xlink:href="#DejaVuSans-Oblique-3c4" transform="translate(0 0.3125)"/>
      </g>
     </g>
    </g>
    <g id="xtick_3">
     <g id="line2d_3">
      <g>
       <use xlink:href="#mad811cf37e" x="191.52" y="68.64" style="stroke: #000000; stroke-width: 0.8"/>
      </g>
     </g>
     <g id="text_3">
      <!-- $\tau + a$ -->
      <g transform="translate(179.27 83.238437) scale(0.1 -0.1)">
       <defs>
        <path id="DejaVuSans-2b" d="M 2944 4013 
L 2944 2272 
L 4684 2272 
L 4684 1741 
L 2944 1741 
L 2944 0 
L 2419 0 
L 2419 1741 
L 678 1741 
L 678 2272 
L 2419 2272 
L 2419 4013 
L 2944 4013 
z
" transform="scale(0.015625)"/>
       </defs>
       <use xlink:href="#DejaVuSans-Oblique-3c4" transform="translate(0 0.296875)"/>
       <use xlink:href="#DejaVuSans-2b" transform="translate(79.6875 0.296875)"/>
       <use xlink:href="#DejaVuSans-Oblique-61" transform="translate(182.958984 0.296875)"/>
      </g>
     </g>
    </g>
   </g>
   <g id="matplotlib.axis_2"/>
   <g id="line2d_4">
    <path d="M 7.2 32.08943 
L 7.8 36.924713 
L 8.1 32.318016 
L 8.4 36.33679 
L 8.7 25.412403 
L 9 24.181448 
L 9.3 19.563789 
L 9.6 26.931288 
L 9.9 23.230841 
L 10.2 32.003327 
L 10.5 29.719585 
L 10.8 43.882896 
L 11.1 29.480607 
L 11.4 30.542558 
L 11.7 29.78933 
L 12 39.344593 
L 12.3 32.469703 
L 12.6 34.130771 
L 12.9 34.950775 
L 13.2 35.315382 
L 13.8 39.537995 
L 14.1 39.138669 
L 14.4 41.65097 
L 14.7 35.304914 
L 15 37.328653 
L 15.3 37.973688 
L 15.6 30.700683 
L 15.9 35.859741 
L 16.2 34.930246 
L 16.5 44.696524 
L 17.1 31.324252 
L 17.4 36.943835 
L 17.7 34.673086 
L 18 35.15251 
L 18.3 39.645898 
L 18.9 25.281049 
L 19.2 33.346145 
L 19.5 35.361474 
L 19.8 30.226959 
L 20.1 27.154966 
L 20.4 30.599858 
L 20.7 27.976022 
L 21 31.886874 
L 21.3 27.182037 
L 21.6 31.892769 
L 21.9 26.766915 
L 22.2 50.483984 
L 22.5 49.967912 
L 22.8 44.564837 
L 23.4 43.32919 
L 23.7 36.251932 
L 24 51.374965 
L 24.3 53.355933 
L 24.6 36.277163 
L 24.9 36.24608 
L 25.2 49.683832 
L 25.5 49.35738 
L 25.8 59.879243 
L 26.1 40.470268 
L 26.4 29.788348 
L 26.7 46.495338 
L 27 46.713861 
L 27.3 50.682352 
L 27.6 41.455556 
L 27.9 50.552269 
L 28.2 51.218402 
L 28.5 45.462454 
L 29.1 28.551881 
L 29.7 37.135346 
L 30 46.8472 
L 30.3 36.880537 
L 30.6 30.784278 
L 30.9 42.561785 
L 31.2 39.373105 
L 31.5 22.338959 
L 31.8 34.661307 
L 32.1 33.275204 
L 32.4 39.871957 
L 32.7 36.499113 
L 33 34.94429 
L 33.3 30.25739 
L 33.6 33.787475 
L 33.9 45.085943 
L 34.2 37.817723 
L 34.5 42.606477 
L 34.8 39.474205 
L 35.1 31.762017 
L 35.4 37.696498 
L 35.7 39.897648 
L 36 43.808763 
L 36.3 33.35442 
L 36.6 33.094503 
L 36.9 41.262298 
L 37.2 29.456291 
L 37.5 33.941911 
L 37.8 19.712807 
L 38.1 27.674677 
L 38.4 44.525385 
L 38.7 23.201994 
L 39 32.290072 
L 39.3 36.367295 
L 39.6 23.676137 
L 39.9 20.82713 
L 40.5 28.622291 
L 40.8 30.659146 
L 41.1 22.068383 
L 41.4 28.450441 
L 41.7 31.578088 
L 42 31.295462 
L 42.3 32.59839 
L 42.9 39.241268 
L 43.2 46.939328 
L 43.5 34.852286 
L 43.8 35.161865 
L 44.1 36.643192 
L 44.4 49.226149 
L 44.7 48.978692 
L 45 37.657044 
L 45.3 40.794774 
L 45.6 48.270163 
L 45.9 40.572192 
L 46.2 39.920532 
L 46.5 54.384669 
L 46.8 41.764667 
L 47.1 53.368959 
L 47.4 33.699725 
L 47.7 39.205617 
L 48 39.467805 
L 48.3 42.882912 
L 48.6 39.181017 
L 48.9 40.320693 
L 49.2 43.265172 
L 49.5 35.566397 
L 49.8 42.438952 
L 50.4 32.894071 
L 50.7 40.801556 
L 51.3 37.336574 
L 51.6 41.898837 
L 51.9 27.866464 
L 52.2 44.712915 
L 52.5 38.390848 
L 53.1 43.621246 
L 53.4 39.791417 
L 54 50.205192 
L 54.3 35.991811 
L 54.6 36.765183 
L 54.9 46.471216 
L 55.5 51.626414 
L 55.8 50.486139 
L 56.1 40.019051 
L 56.7 44.554262 
L 57 41.325072 
L 57.3 34.008442 
L 57.6 45.177442 
L 57.9 29.335434 
L 58.2 29.167519 
L 58.5 39.038998 
L 58.8 40.086183 
L 59.1 28.834912 
L 59.4 32.777831 
L 59.7 41.295057 
L 60 28.444186 
L 60.3 30.221032 
L 60.6 19.722071 
L 60.9 16.604164 
L 61.2 26.539839 
L 61.5 27.689975 
L 61.8 13.302033 
L 62.1 34.311989 
L 62.4 15.080262 
L 62.7 30.256869 
L 63 33.867208 
L 63.6 25.248084 
L 63.9 41.811191 
L 64.2 37.049783 
L 64.5 44.492244 
L 64.8 27.199269 
L 65.1 37.873071 
L 65.4 33.340071 
L 65.7 37.07929 
L 66 36.259384 
L 66.3 29.833275 
L 66.6 46.971749 
L 67.2 31.745917 
L 67.5 41.74549 
L 67.8 33.134712 
L 68.1 32.121424 
L 68.4 39.177604 
L 68.7 38.487385 
L 69 46.69223 
L 69.3 32.296957 
L 69.6 30.915918 
L 69.9 41.548062 
L 70.2 44.650203 
L 70.5 35.145392 
L 71.1 42.888242 
L 71.7 36.160432 
L 72 44.34367 
L 72.3 32.215209 
L 72.6 29.72632 
L 72.9 42.171011 
L 73.2 46.465467 
L 73.5 36.952864 
L 73.8 46.244183 
L 74.1 35.45846 
L 74.4 52.837431 
L 74.7 54.974692 
L 75 55.455767 
L 75.3 57.950601 
L 75.6 47.047744 
L 75.9 49.215897 
L 76.2 42.536736 
L 76.8 56.614031 
L 77.1 42.228397 
L 77.4 48.017437 
L 77.7 44.36146 
L 78 52.999497 
L 78.3 35.742296 
L 78.9 55.312524 
L 79.2 29.374891 
L 79.8 23.680364 
L 80.1 35.004359 
L 80.4 32.203987 
L 80.7 30.615211 
L 81 30.21963 
L 81.3 42.949597 
L 81.6 25.36206 
L 81.9 33.381428 
L 82.5 29.057321 
L 83.1 41.005627 
L 83.4 35.372965 
L 83.7 44.753415 
L 84.3 31.219083 
L 84.6 41.093046 
L 84.9 35.466779 
L 85.2 41.373056 
L 85.5 34.068521 
L 85.8 34.332315 
L 86.1 40.818833 
L 86.4 40.470214 
L 86.7 30.244724 
L 87 25.803257 
L 87.3 28.139757 
L 87.6 36.684488 
L 87.9 41.877179 
L 88.2 41.908797 
L 88.5 40.367158 
L 88.8 32.051642 
L 89.1 30.766796 
L 89.4 32.887397 
L 89.7 39.712305 
L 90.3 25.67059 
L 90.6 25.62726 
L 90.9 37.150046 
L 91.2 34.08413 
L 91.5 16.007359 
L 91.8 21.854553 
L 92.1 31.636064 
L 92.4 24.577707 
L 92.7 46.345902 
L 93 26.47068 
L 93.3 32.946941 
L 93.6 33.731204 
L 93.9 24.111559 
L 94.2 46.961391 
L 94.5 35.887511 
L 94.8 41.173232 
L 95.1 43.961655 
L 95.4 43.37106 
L 95.7 43.70287 
L 96 52.739382 
L 96.3 50.299626 
L 96.6 43.620408 
L 96.9 49.003263 
L 97.2 43.68453 
L 97.5 47.042308 
L 97.8 48.759934 
L 98.1 46.925383 
L 98.4 46.095394 
L 98.7 42.321927 
L 99 42.476211 
L 99.3 38.64622 
L 99.6 40.178769 
L 99.9 40.720286 
L 100.2 46.751216 
L 100.5 43.997915 
L 100.8 44.11546 
L 101.1 24.305751 
L 102 43.88424 
L 102.3 38.727236 
L 102.6 37.498296 
L 102.9 21.739829 
L 103.2 36.857757 
L 103.5 32.780403 
L 103.8 34.185798 
L 104.4 47.616918 
L 104.7 50.56652 
L 105 45.753511 
L 105.3 44.280881 
L 105.6 33.239909 
L 105.9 41.331899 
L 106.2 44.797816 
L 106.5 43.224119 
L 106.8 46.385715 
L 107.1 43.031159 
L 107.4 47.096223 
L 107.7 48.357786 
L 108 28.296333 
L 108.3 30.456513 
L 108.6 36.130129 
L 108.9 25.764936 
L 109.2 27.415331 
L 109.5 37.188999 
L 109.8 34.1088 
L 110.1 35.000093 
L 110.4 33.867976 
L 110.7 15.924614 
L 111 35.418341 
L 111.3 20.61095 
L 111.9 31.957512 
L 112.2 28.444837 
L 112.5 27.669482 
L 112.8 22.03745 
L 113.1 24.241887 
L 113.4 32.844423 
L 113.7 24.860952 
L 114 34.059065 
L 114.3 38.714508 
L 114.6 41.379744 
L 114.9 39.198846 
L 115.2 45.833825 
L 115.5 37.319229 
L 115.8 46.190609 
L 116.1 28.426987 
L 116.4 47.715805 
L 117 48.77862 
L 117.3 32.677532 
L 117.6 42.381454 
L 117.9 31.983502 
L 118.2 47.546993 
L 118.5 42.182207 
L 118.8 47.311799 
L 119.1 40.361989 
L 119.4 45.279238 
L 119.7 40.806701 
L 120 44.959044 
L 120.3 51.194514 
L 120.6 29.561451 
L 120.9 36.957305 
L 121.2 36.537177 
L 121.5 46.998647 
L 122.1 36.785953 
L 122.4 35.225161 
L 122.7 29.403637 
L 123 49.276171 
L 123.3 33.394342 
L 123.6 32.455294 
L 123.9 42.320703 
L 124.2 36.831269 
L 124.5 39.987109 
L 124.8 47.772723 
L 125.1 52.304712 
L 125.4 50.340886 
L 125.7 44.509634 
L 126.3 50.861721 
L 126.6 45.583752 
L 126.9 50.638043 
L 127.5 42.661635 
L 127.8 56.172697 
L 128.4 45.11599 
L 128.7 47.128931 
L 129 43.978958 
L 129.3 35.776259 
L 129.6 40.709764 
L 129.9 34.367462 
L 130.2 33.938595 
L 130.5 40.296696 
L 130.8 36.801992 
L 131.1 34.850825 
L 131.4 29.440476 
L 131.7 38.57772 
L 132 35.227992 
L 132.3 15.565425 
L 132.6 32.390438 
L 132.9 22.456991 
L 133.2 25.068613 
L 133.5 30.838947 
L 133.8 28.846607 
L 134.1 31.445483 
L 134.4 24.719917 
L 134.7 25.479561 
L 135 31.670316 
L 135.3 23.162794 
L 135.6 40.184495 
L 135.9 38.376484 
L 136.2 33.846619 
L 136.5 23.103398 
L 136.8 36.637287 
L 137.1 33.726038 
L 137.4 35.350153 
L 137.7 41.202497 
L 138 42.118416 
L 138.3 33.632143 
L 138.6 34.642027 
L 138.9 39.001115 
L 139.2 24.803991 
L 139.5 42.320838 
L 139.8 48.114002 
L 140.4 31.124765 
L 140.7 26.782415 
L 141 29.484104 
L 141.3 46.118775 
L 141.6 32.247698 
L 141.9 27.989794 
L 142.2 29.439231 
L 142.5 23.350495 
L 142.8 34.539931 
L 143.1 20.506302 
L 143.7 41.286822 
L 144 42.905683 
L 144.3 43.193831 
L 144.6 29.374083 
L 144.9 39.679958 
L 145.2 36.49235 
L 145.5 38.600598 
L 145.8 45.695536 
L 146.1 40.976347 
L 146.4 44.635757 
L 146.7 37.881715 
L 147 51.785526 
L 147.3 49.446854 
L 147.6 59.160923 
L 147.9 51.725584 
L 148.2 52.971293 
L 148.5 54.969502 
L 148.8 39.220493 
L 149.1 53.675517 
L 149.4 50.312883 
L 149.7 43.023663 
L 150 38.66494 
L 150.3 45.260799 
L 150.6 41.922884 
L 150.9 46.092816 
L 151.2 43.360755 
L 151.5 33.796849 
L 151.8 41.623285 
L 152.1 40.722287 
L 152.4 32.530298 
L 152.7 33.004948 
L 153 34.265664 
L 153.3 22.604188 
L 153.6 33.181533 
L 153.9 29.681953 
L 154.2 48.837652 
L 154.8 29.166788 
L 155.1 37.878961 
L 155.4 34.544738 
L 155.7 36.627334 
L 156 40.552956 
L 156.3 36.719928 
L 156.6 44.516348 
L 156.9 31.143719 
L 157.2 42.264625 
L 157.5 40.68915 
L 157.8 36.117248 
L 158.1 28.95775 
L 158.4 39.424735 
L 158.7 36.44198 
L 159 36.544251 
L 159.6 47.259315 
L 159.9 23.86306 
L 160.5 37.784714 
L 161.1 32.534408 
L 161.4 31.371504 
L 161.7 31.209749 
L 162 20.184707 
L 162.6 39.492962 
L 162.9 24.940988 
L 163.2 21.675681 
L 163.5 23.685737 
L 163.8 30.896299 
L 164.1 22.058605 
L 164.4 30.29403 
L 164.7 23.955425 
L 165.6 43.111292 
L 165.9 37.732039 
L 166.2 40.568451 
L 166.5 36.581331 
L 166.8 38.019058 
L 167.4 59.927704 
L 167.7 40.749695 
L 168 43.191046 
L 168.3 47.174506 
L 168.6 53.699445 
L 168.9 34.89773 
L 169.2 60.037729 
L 169.5 44.30234 
L 169.8 40.323436 
L 170.1 46.94329 
L 170.4 49.181375 
L 170.7 49.148245 
L 171 46.126727 
L 171.3 48.955881 
L 171.6 54.487372 
L 171.9 42.49594 
L 172.2 37.457154 
L 172.5 35.743229 
L 172.8 35.119526 
L 173.1 35.600199 
L 173.4 39.23438 
L 173.7 33.047786 
L 174 37.923556 
L 174.3 40.082495 
L 174.6 40.79053 
L 174.9 37.889039 
L 175.5 39.97931 
L 175.8 32.615531 
L 176.1 40.972188 
L 176.7 38.22811 
L 177 37.807318 
L 177.3 48.798428 
L 177.6 40.187699 
L 177.9 46.608572 
L 178.2 56.887653 
L 178.5 48.491545 
L 178.8 48.733971 
L 179.1 50.950876 
L 179.4 61.218913 
L 179.7 37.146394 
L 180.3 48.122712 
L 180.6 28.237837 
L 180.9 39.120383 
L 181.2 35.367225 
L 181.5 27.494873 
L 181.8 32.511789 
L 182.1 31.152967 
L 182.4 26.122744 
L 182.7 24.657807 
L 183 29.294662 
L 183.3 31.66542 
L 183.6 19.549861 
L 183.9 21.79975 
L 184.2 18.625972 
L 184.5 22.22805 
L 184.8 28.049662 
L 185.1 25.764509 
L 185.4 25.282334 
L 185.7 36.581841 
L 186 40.069509 
L 186.3 33.121477 
L 186.6 44.512625 
L 186.9 40.591027 
L 187.2 39.442365 
L 187.5 34.958201 
L 187.8 38.487401 
L 188.1 39.50193 
L 188.4 23.203815 
L 188.7 42.495062 
L 189 39.383087 
L 189.3 31.141336 
L 189.6 38.161161 
L 189.9 50.72284 
L 190.2 50.306488 
L 190.5 52.075392 
L 190.8 42.647913 
L 191.1 41.72084 
L 191.4 35.592797 
L 192.3 40.58211 
L 192.6 33.56271 
L 192.9 40.946434 
L 193.2 35.526804 
L 193.5 39.752985 
L 193.8 33.444666 
L 194.1 37.93902 
L 194.4 46.460916 
L 194.7 38.66395 
L 195 36.730623 
L 195.3 36.075482 
L 195.6 51.304113 
L 196.2 31.623808 
L 196.5 33.914448 
L 196.8 37.928104 
L 197.1 51.275944 
L 197.4 59.043082 
L 197.7 32.645436 
L 198 55.530579 
L 198.6 39.868885 
L 198.9 54.677557 
L 199.2 45.653482 
L 199.5 55.677892 
L 200.4 40.797647 
L 200.7 43.497508 
L 201 52.031798 
L 201.3 32.588516 
L 201.9 38.415625 
L 202.2 31.709124 
L 202.5 44.11529 
L 203.1 23.657461 
L 203.7 36.427529 
L 204 25.79695 
L 204.3 29.615004 
L 204.6 26.275807 
L 204.9 36.193419 
L 205.2 32.087862 
L 205.5 36.60331 
L 205.8 37.146302 
L 206.1 35.304563 
L 206.4 26.337022 
L 206.7 28.495747 
L 207.3 41.135769 
L 207.6 35.826467 
L 208.2 43.007608 
L 208.5 41.500072 
L 208.8 29.738293 
L 209.1 36.008914 
L 209.4 38.621653 
L 209.7 33.745635 
L 210 32.976266 
L 210.3 28.553693 
L 210.6 30.880226 
L 211.5 42.514882 
L 211.8 35.477797 
L 212.1 24.775767 
L 212.4 21.459024 
L 212.7 26.082881 
L 213 26.73924 
L 213.3 23.191377 
L 213.6 29.37928 
L 213.9 21.631763 
L 214.2 33.271683 
L 214.5 28.758272 
L 214.8 33.96653 
L 215.1 34.115378 
L 215.4 33.986104 
L 215.7 37.389344 
L 216 30.105147 
L 216.6 42.247183 
L 216.9 34.700094 
L 217.2 41.099895 
L 217.5 44.813689 
L 217.8 45.683883 
L 218.1 38.985075 
L 218.4 48.689574 
L 218.7 39.330354 
L 219 52.514885 
L 219.3 56.879233 
L 219.6 52.154111 
L 219.9 44.121759 
L 220.2 52.459993 
L 220.5 45.707825 
L 220.8 48.105833 
L 221.1 46.683619 
L 221.4 41.991175 
L 221.7 33.684326 
L 222 49.227487 
L 222.3 49.60656 
L 222.6 42.667893 
L 222.9 48.407701 
L 223.2 42.238843 
L 223.5 44.737185 
L 223.8 42.388095 
L 224.1 36.756674 
L 224.4 44.521427 
L 224.7 35.634084 
L 225 39.15474 
L 225.6 34.967589 
L 225.9 37.717448 
L 226.2 30.025265 
L 226.5 33.43781 
L 226.8 40.736737 
L 227.4 28.669959 
L 227.7 32.661935 
L 228 50.814911 
L 228.3 40.412331 
L 228.6 48.224064 
L 228.9 47.726169 
L 229.2 50.283549 
L 229.5 49.215982 
L 229.8 40.464738 
L 230.1 51.581708 
L 230.4 32.238995 
L 231 49.064633 
L 231.3 48.962875 
L 231.6 27.376332 
L 231.9 36.886857 
L 232.2 21.023405 
L 232.5 25.498833 
L 233.1 41.931033 
L 233.4 28.16614 
L 233.7 33.415343 
L 234 25.706495 
L 234.3 29.629991 
L 234.6 21.221001 
L 234.9 24.656223 
L 235.2 31.557969 
L 235.5 32.028448 
L 235.8 33.448201 
L 236.1 13.97319 
L 236.4 27.407993 
L 236.7 25.423047 
L 237 34.462269 
L 237.3 28.268668 
L 237.6 39.414851 
L 237.9 41.975256 
L 238.2 36.528554 
L 238.5 37.321614 
L 238.8 39.552038 
L 239.1 42.984943 
L 239.4 35.561143 
L 239.7 43.138297 
L 240 45.420205 
L 240.3 37.421216 
L 240.6 55.715762 
L 240.9 43.684535 
L 241.2 50.897879 
L 241.5 54.919941 
L 241.8 40.276169 
L 242.1 41.578504 
L 242.4 38.085289 
L 242.7 29.45276 
L 243 28.314576 
L 243.3 35.423704 
L 243.9 35.774964 
L 244.2 37.739085 
L 244.5 38.170161 
L 244.8 40.701325 
L 245.1 35.891964 
L 245.4 41.495328 
L 245.7 33.801988 
L 246 31.981374 
L 246.3 50.316099 
L 246.6 50.561107 
L 246.9 34.466273 
L 247.2 48.611292 
L 247.5 41.103519 
L 247.8 43.927723 
L 248.1 39.178801 
L 248.4 42.880703 
L 248.7 43.902696 
L 249 47.844682 
L 249.3 46.750839 
L 249.6 56.504584 
L 249.9 52.939243 
L 250.2 51.385734 
L 250.5 50.985502 
L 250.8 51.660799 
L 251.1 44.939932 
L 251.4 52.715777 
L 252 44.668085 
L 252.3 30.086675 
L 252.6 34.461725 
L 252.9 34.201798 
L 253.2 23.922819 
L 253.5 35.096546 
L 254.1 31.03758 
L 254.4 36.570383 
L 254.7 23.352365 
L 255 27.70929 
L 255.6 26.566117 
L 255.9 34.827903 
L 256.8 21.69617 
L 257.1 28.113602 
L 257.4 31.065163 
L 257.7 15.170341 
L 258 23.029333 
L 258.3 24.421136 
L 258.6 19.449499 
L 258.9 32.866292 
L 259.2 35.648365 
L 259.5 40.980783 
L 259.8 32.047207 
L 260.4 42.767147 
L 260.7 36.200184 
L 261 42.687794 
L 261.3 44.192393 
L 261.6 31.969581 
L 261.9 39.356708 
L 262.2 22.690069 
L 262.5 38.860584 
L 262.8 26.551305 
L 263.1 33.563564 
L 263.4 48.268115 
L 263.7 29.305978 
L 264 50.272361 
L 264.3 33.110483 
L 264.9 31.429037 
L 265.2 37.510243 
L 265.8 27.106464 
L 266.1 31.424343 
L 266.4 39.935185 
L 266.7 42.919314 
L 267 31.309803 
L 267.3 41.10511 
L 267.6 37.345048 
L 267.9 44.331922 
L 268.2 44.233892 
L 268.5 57.725323 
L 268.8 52.919897 
L 269.1 42.575458 
L 269.4 44.196208 
L 269.7 57.872672 
L 270 45.336011 
L 270.3 54.810981 
L 270.6 36.904401 
L 270.9 49.660663 
L 271.2 51.403962 
L 271.5 51.401294 
L 271.8 56.860141 
L 272.4 44.109122 
L 272.7 40.482309 
L 273 43.016969 
L 273.3 49.885401 
L 273.6 42.100426 
L 273.9 46.933665 
L 274.5 32.081557 
L 275.1 40.647292 
L 275.4 32.384538 
L 275.7 29.987108 
L 276 28.95965 
L 276.3 19.929481 
L 276.6 35.101077 
L 276.9 36.393649 
L 277.2 24.452671 
L 277.5 28.284881 
L 277.8 34.528236 
L 278.1 36.372934 
L 278.4 30.936594 
L 278.7 31.351918 
L 279 32.229847 
L 279.3 42.140837 
L 279.6 35.803715 
L 279.9 40.325955 
L 280.2 40.179189 
L 280.5 34.285238 
L 280.8 45.679351 
L 281.1 44.329156 
L 281.4 38.083308 
L 281.7 39.367722 
L 282 29.785742 
L 282.3 37.460873 
L 282.6 35.886671 
L 283.2 23.916831 
L 283.5 29.059534 
L 283.8 44.357644 
L 284.1 28.790951 
L 284.4 35.851965 
L 284.7 37.639877 
L 285 26.210407 
L 285.3 30.05286 
L 285.9 24.282625 
L 286.2 21.7394 
L 286.5 26.408248 
L 286.8 34.87048 
L 287.1 32.491522 
L 287.4 40.072228 
L 287.7 35.376509 
L 288.3 34.23997 
L 288.6 32.14876 
L 288.9 28.496901 
L 289.2 42.956355 
L 289.5 39.009156 
L 289.8 40.833801 
L 290.1 38.689412 
L 290.4 40.087383 
L 290.7 45.919423 
L 291 54.459887 
L 291.6 38.42872 
L 291.9 45.371672 
L 292.2 37.521976 
L 292.5 44.452547 
L 292.8 58.425421 
L 293.1 52.516812 
L 293.4 41.211847 
L 293.7 40.575244 
L 294 43.837339 
L 294.3 55.016372 
L 294.6 45.673649 
L 294.9 32.685515 
L 295.2 38.59365 
L 295.5 48.954113 
L 295.8 42.857336 
L 296.1 42.351949 
L 296.4 42.133961 
L 296.7 48.597547 
L 297 40.973366 
L 297.3 43.181422 
L 297.6 35.275507 
L 297.9 40.6213 
L 298.2 41.069115 
L 298.5 48.5679 
L 298.8 35.360772 
L 299.1 37.075993 
L 299.4 49.115885 
L 299.7 48.658591 
L 300 38.55561 
L 300.3 47.630463 
L 300.6 44.995648 
L 300.9 52.10626 
L 301.2 44.834659 
L 301.5 45.747736 
L 301.8 35.236611 
L 302.1 48.049021 
L 302.4 49.517806 
L 302.7 32.58979 
L 303 42.093932 
L 303.3 37.732712 
L 303.6 46.515014 
L 303.9 46.000811 
L 304.5 29.850918 
L 304.8 39.130357 
L 305.1 25.548797 
L 305.4 32.52068 
L 305.7 27.802328 
L 306 31.860103 
L 306.3 29.501324 
L 306.6 28.422297 
L 306.9 29.862488 
L 307.2 21.448534 
L 307.5 39.162143 
L 307.8 28.194175 
L 308.1 24.957141 
L 308.4 27.875439 
L 308.7 28.435756 
L 309 32.946383 
L 309.3 31.944949 
L 309.6 23.69604 
L 309.9 37.129587 
L 310.2 37.196052 
L 310.5 43.019211 
L 310.8 40.729315 
L 311.1 42.422526 
L 311.4 36.762702 
L 311.7 44.832063 
L 312 43.735565 
L 312.3 34.110015 
L 312.6 42.75331 
L 312.9 34.668784 
L 313.2 30.579152 
L 313.5 28.252606 
L 313.8 42.000746 
L 314.1 32.213279 
L 314.1 32.213279 
" clip-path="url(#pf428681a2b)" style="fill: none; stroke: #1f77b4; stroke-width: 1.5; stroke-linecap: square"/>
   </g>
   <g id="line2d_5">
    <path d="M 7.2 37.92 
L 88.2 37.809308 
L 96.3 37.560941 
L 101.7 37.191686 
L 106.2 36.667501 
L 110.1 35.984622 
L 113.4 35.192626 
L 116.7 34.164216 
L 119.7 32.995905 
L 122.7 31.586135 
L 125.7 29.926672 
L 128.7 28.023015 
L 132 25.674168 
L 136.2 22.388949 
L 146.4 14.246285 
L 149.4 12.222818 
L 151.8 10.854463 
L 153.9 9.879706 
L 156 9.140082 
L 158.1 8.655735 
L 159.9 8.454102 
L 161.7 8.454102 
L 163.5 8.655735 
L 165.3 9.054871 
L 167.4 9.759112 
L 169.5 10.701745 
L 171.9 12.038358 
L 174.6 13.81801 
L 177.9 16.286498 
L 183.3 20.672795 
L 189 25.222244 
L 192.6 27.819919 
L 195.9 29.926672 
L 198.9 31.586135 
L 201.9 32.995905 
L 204.9 34.164216 
L 207.9 35.10945 
L 211.2 35.921411 
L 214.8 36.577965 
L 219 37.10548 
L 223.8 37.480278 
L 230.1 37.738193 
L 239.7 37.879739 
L 262.5 37.919487 
L 314.1 37.92 
L 314.1 37.92 
" clip-path="url(#pf428681a2b)" style="fill: none; stroke: #ff7f0e; stroke-width: 1.5; stroke-linecap: square"/>
   </g>
   <g id="patch_3">
    <path d="M 7.2 68.64 
L 7.2 7.2 
" style="fill: none; stroke: #000000; stroke-width: 0.8; stroke-linejoin: miter; stroke-linecap: square"/>
   </g>
   <g id="patch_4">
    <path d="M 314.1 68.64 
L 314.1 7.2 
" style="fill: none; stroke: #000000; stroke-width: 0.8; stroke-linejoin: miter; stroke-linecap: square"/>
   </g>
   <g id="patch_5">
    <path d="M 7.2 68.64 
L 314.1 68.64 
" style="fill: none; stroke: #000000; stroke-width: 0.8; stroke-linejoin: miter; stroke-linecap: square"/>
   </g>
   <g id="patch_6">
    <path d="M 7.2 7.2 
L 314.1 7.2 
" style="fill: none; stroke: #000000; stroke-width: 0.8; stroke-linejoin: miter; stroke-linecap: square"/>
   </g>
   <g id="legend_1">
    <g id="patch_7">
     <path d="M 238.7 44.578125 
L 307.1 44.578125 
Q 309.1 44.578125 309.1 42.578125 
L 309.1 14.2 
Q 309.1 12.2 307.1 12.2 
L 238.7 12.2 
Q 236.7 12.2 236.7 14.2 
L 236.7 42.578125 
Q 236.7 44.578125 238.7 44.578125 
z
" style="fill: #ffffff; opacity: 0.8; stroke: #cccccc; stroke-linejoin: miter"/>
    </g>
    <g id="line2d_6">
     <path d="M 240.7 20.298437 
L 250.7 20.298437 
L 260.7 20.298437 
" style="fill: none; stroke: #1f77b4; stroke-width: 1.5; stroke-linecap: square"/>
    </g>
    <g id="text_4">
     <!-- Signal -->
     <g transform="translate(268.7 23.798437) scale(0.1 -0.1)">
      <defs>
       <path id="DejaVuSans-53" d="M 3425 4513 
L 3425 3897 
Q 3066 4069 2747 4153 
Q 2428 4238 2131 4238 
Q 1616 4238 1336 4038 
Q 1056 3838 1056 3469 
Q 1056 3159 1242 3001 
Q 1428 2844 1947 2747 
L 2328 2669 
Q 3034 2534 3370 2195 
Q 3706 1856 3706 1288 
Q 3706 609 3251 259 
Q 2797 -91 1919 -91 
Q 1588 -91 1214 -16 
Q 841 59 441 206 
L 441 856 
Q 825 641 1194 531 
Q 1563 422 1919 422 
Q 2459 422 2753 634 
Q 3047 847 3047 1241 
Q 3047 1584 2836 1778 
Q 2625 1972 2144 2069 
L 1759 2144 
Q 1053 2284 737 2584 
Q 422 2884 422 3419 
Q 422 4038 858 4394 
Q 1294 4750 2059 4750 
Q 2388 4750 2728 4690 
Q 3069 4631 3425 4513 
z
" transform="scale(0.015625)"/>
       <path id="DejaVuSans-69" d="M 603 3500 
L 1178 3500 
L 1178 0 
L 603 0 
L 603 3500 
z
M 603 4863 
L 1178 4863 
L 1178 4134 
L 603 4134 
L 603 4863 
z
" transform="scale(0.015625)"/>
       <path id="DejaVuSans-67" d="M 2906 1791 
Q 2906 2416 2648 2759 
Q 2391 3103 1925 3103 
Q 1463 3103 1205 2759 
Q 947 2416 947 1791 
Q 947 1169 1205 825 
Q 1463 481 1925 481 
Q 2391 481 2648 825 
Q 2906 1169 2906 1791 
z
M 3481 434 
Q 3481 -459 3084 -895 
Q 2688 -1331 1869 -1331 
Q 1566 -1331 1297 -1286 
Q 1028 -1241 775 -1147 
L 775 -588 
Q 1028 -725 1275 -790 
Q 1522 -856 1778 -856 
Q 2344 -856 2625 -561 
Q 2906 -266 2906 331 
L 2906 616 
Q 2728 306 2450 153 
Q 2172 0 1784 0 
Q 1141 0 747 490 
Q 353 981 353 1791 
Q 353 2603 747 3093 
Q 1141 3584 1784 3584 
Q 2172 3584 2450 3431 
Q 2728 3278 2906 2969 
L 2906 3500 
L 3481 3500 
L 3481 434 
z
" transform="scale(0.015625)"/>
       <path id="DejaVuSans-6e" d="M 3513 2113 
L 3513 0 
L 2938 0 
L 2938 2094 
Q 2938 2591 2744 2837 
Q 2550 3084 2163 3084 
Q 1697 3084 1428 2787 
Q 1159 2491 1159 1978 
L 1159 0 
L 581 0 
L 581 3500 
L 1159 3500 
L 1159 2956 
Q 1366 3272 1645 3428 
Q 1925 3584 2291 3584 
Q 2894 3584 3203 3211 
Q 3513 2838 3513 2113 
z
" transform="scale(0.015625)"/>
       <path id="DejaVuSans-61" d="M 2194 1759 
Q 1497 1759 1228 1600 
Q 959 1441 959 1056 
Q 959 750 1161 570 
Q 1363 391 1709 391 
Q 2188 391 2477 730 
Q 2766 1069 2766 1631 
L 2766 1759 
L 2194 1759 
z
M 3341 1997 
L 3341 0 
L 2766 0 
L 2766 531 
Q 2569 213 2275 61 
Q 1981 -91 1556 -91 
Q 1019 -91 701 211 
Q 384 513 384 1019 
Q 384 1609 779 1909 
Q 1175 2209 1959 2209 
L 2766 2209 
L 2766 2266 
Q 2766 2663 2505 2880 
Q 2244 3097 1772 3097 
Q 1472 3097 1187 3025 
Q 903 2953 641 2809 
L 641 3341 
Q 956 3463 1253 3523 
Q 1550 3584 1831 3584 
Q 2591 3584 2966 3190 
Q 3341 2797 3341 1997 
z
" transform="scale(0.015625)"/>
       <path id="DejaVuSans-6c" d="M 603 4863 
L 1178 4863 
L 1178 0 
L 603 0 
L 603 4863 
z
" transform="scale(0.015625)"/>
      </defs>
      <use xlink:href="#DejaVuSans-53"/>
      <use xlink:href="#DejaVuSans-69" x="63.476562"/>
      <use xlink:href="#DejaVuSans-67" x="91.259766"/>
      <use xlink:href="#DejaVuSans-6e" x="154.736328"/>
      <use xlink:href="#DejaVuSans-61" x="218.115234"/>
      <use xlink:href="#DejaVuSans-6c" x="279.394531"/>
     </g>
    </g>
    <g id="line2d_7">
     <path d="M 240.7 34.978125 
L 250.7 34.978125 
L 260.7 34.978125 
" style="fill: none; stroke: #ff7f0e; stroke-width: 1.5; stroke-linecap: square"/>
    </g>
    <g id="text_5">
     <!-- $g(t-\tau)$ -->
     <g transform="translate(268.7 38.478125) scale(0.1 -0.1)">
      <defs>
       <path id="DejaVuSans-Oblique-67" d="M 3816 3500 
L 3219 434 
Q 3047 -456 2561 -893 
Q 2075 -1331 1253 -1331 
Q 950 -1331 690 -1286 
Q 431 -1241 206 -1147 
L 313 -588 
Q 525 -725 762 -790 
Q 1000 -856 1269 -856 
Q 1816 -856 2167 -557 
Q 2519 -259 2631 300 
L 2681 563 
Q 2441 288 2122 144 
Q 1803 0 1434 0 
Q 903 0 598 351 
Q 294 703 294 1319 
Q 294 1803 478 2267 
Q 663 2731 997 3091 
Q 1219 3328 1514 3456 
Q 1809 3584 2131 3584 
Q 2484 3584 2746 3420 
Q 3009 3256 3138 2956 
L 3238 3500 
L 3816 3500 
z
M 2950 2216 
Q 2950 2641 2750 2872 
Q 2550 3103 2181 3103 
Q 1953 3103 1747 3012 
Q 1541 2922 1394 2759 
Q 1156 2491 1023 2127 
Q 891 1763 891 1375 
Q 891 944 1092 712 
Q 1294 481 1672 481 
Q 2219 481 2584 976 
Q 2950 1472 2950 2216 
z
" transform="scale(0.015625)"/>
       <path id="DejaVuSans-28" d="M 1984 4856 
Q 1566 4138 1362 3434 
Q 1159 2731 1159 2009 
Q 1159 1288 1364 580 
Q 1569 -128 1984 -844 
L 1484 -844 
Q 1016 -109 783 600 
Q 550 1309 550 2009 
Q 550 2706 781 3412 
Q 1013 4119 1484 4856 
L 1984 4856 
z
" transform="scale(0.015625)"/>
       <path id="DejaVuSans-Oblique-74" d="M 2706 3500 
L 2619 3053 
L 1472 3053 
L 1100 1153 
Q 1081 1047 1072 975 
Q 1063 903 1063 863 
Q 1063 663 1183 572 
Q 1303 481 1569 481 
L 2150 481 
L 2053 0 
L 1503 0 
Q 991 0 739 200 
Q 488 400 488 806 
Q 488 878 497 964 
Q 506 1050 525 1153 
L 897 3053 
L 409 3053 
L 500 3500 
L 978 3500 
L 1172 4494 
L 1747 4494 
L 1556 3500 
L 2706 3500 
z
" transform="scale(0.015625)"/>
       <path id="DejaVuSans-29" d="M 513 4856 
L 1013 4856 
Q 1481 4119 1714 3412 
Q 1947 2706 1947 2009 
Q 1947 1309 1714 600 
Q 1481 -109 1013 -844 
L 513 -844 
Q 928 -128 1133 580 
Q 1338 1288 1338 2009 
Q 1338 2731 1133 3434 
Q 928 4138 513 4856 
z
" transform="scale(0.015625)"/>
      </defs>
      <use xlink:href="#DejaVuSans-Oblique-67" transform="translate(0 0.125)"/>
      <use xlink:href="#DejaVuSans-28" transform="translate(63.476562 0.125)"/>
      <use xlink:href="#DejaVuSans-Oblique-74" transform="translate(102.490234 0.125)"/>
      <use xlink:href="#DejaVuSans-2212" transform="translate(161.181641 0.125)"/>
      <use xlink:href="#DejaVuSans-Oblique-3c4" transform="translate(264.453125 0.125)"/>
      <use xlink:href="#DejaVuSans-29" transform="translate(324.658203 0.125)"/>
     </g>
    </g>
   </g>
  </g>
 </g>
 <defs>
  <clipPath id="pf428681a2b">
   <rect x="7.2" y="7.2" width="306.9" height="61.44"/>
  </clipPath>
 </defs>
</svg>
