<?xml version="1.0" encoding="utf-8" standalone="no"?>
<!DOCTYPE svg PUBLIC "-//W3C//DTD SVG 1.1//EN"
  "http://www.w3.org/Graphics/SVG/1.1/DTD/svg11.dtd">
<svg xmlns:xlink="http://www.w3.org/1999/xlink" width="341.025pt" height="105.833564pt" viewBox="0 0 341.025 105.833564" xmlns="http://www.w3.org/2000/svg" version="1.1">
 <metadata>
  <rdf:RDF xmlns:dc="http://purl.org/dc/elements/1.1/" xmlns:cc="http://creativecommons.org/ns#" xmlns:rdf="http://www.w3.org/1999/02/22-rdf-syntax-ns#">
   <cc:Work>
    <dc:type rdf:resource="http://purl.org/dc/dcmitype/StillImage"/>
    <dc:date>2025-01-14T12:28:28.729459</dc:date>
    <dc:format>image/svg+xml</dc:format>
    <dc:creator>
     <cc:Agent>
      <dc:title>Matplotlib v3.9.2, https://matplotlib.org/</dc:title>
     </cc:Agent>
    </dc:creator>
   </cc:Work>
  </rdf:RDF>
 </metadata>
 <defs>
  <style type="text/css">*{stroke-linejoin: round; stroke-linecap: butt}</style>
 </defs>
 <g id="figure_1">
  <g id="patch_1">
   <path d="M 0 105.833564 
L 341.025 105.833564 
L 341.025 -0 
L 0 -0 
z
" style="fill: #ffffff"/>
  </g>
  <g id="axes_1">
   <g id="patch_2">
    <path d="M 26.925 68.277314 
L 333.825 68.277314 
L 333.825 8.152741 
L 26.925 8.152741 
z
" style="fill: #ffffff"/>
   </g>
   <g id="matplotlib.axis_1">
    <g id="xtick_1">
     <g id="line2d_1">
      <defs>
       <path id="mb0de1bb327" d="M 0 0 
L 0 3.5 
" style="stroke: #000000; stroke-width: 0.8"/>
      </defs>
      <g>
       <use xlink:href="#mb0de1bb327" x="40.875" y="68.277314" style="stroke: #000000; stroke-width: 0.8"/>
      </g>
     </g>
     <g id="text_1">
      <!-- 0 -->
      <g transform="translate(37.69375 82.875751) scale(0.1 -0.1)">
       <defs>
        <path id="DejaVuSans-30" d="M 2034 4250 
Q 1547 4250 1301 3770 
Q 1056 3291 1056 2328 
Q 1056 1369 1301 889 
Q 1547 409 2034 409 
Q 2525 409 2770 889 
Q 3016 1369 3016 2328 
Q 3016 3291 2770 3770 
Q 2525 4250 2034 4250 
z
M 2034 4750 
Q 2819 4750 3233 4129 
Q 3647 3509 3647 2328 
Q 3647 1150 3233 529 
Q 2819 -91 2034 -91 
Q 1250 -91 836 529 
Q 422 1150 422 2328 
Q 422 3509 836 4129 
Q 1250 4750 2034 4750 
z
" transform="scale(0.015625)"/>
       </defs>
       <use xlink:href="#DejaVuSans-30"/>
      </g>
     </g>
    </g>
    <g id="xtick_2">
     <g id="line2d_2">
      <g>
       <use xlink:href="#mb0de1bb327" x="95.420455" y="68.277314" style="stroke: #000000; stroke-width: 0.8"/>
      </g>
     </g>
     <g id="text_2">
      <!-- 100 -->
      <g transform="translate(85.876705 82.875751) scale(0.1 -0.1)">
       <defs>
        <path id="DejaVuSans-31" d="M 794 531 
L 1825 531 
L 1825 4091 
L 703 3866 
L 703 4441 
L 1819 4666 
L 2450 4666 
L 2450 531 
L 3481 531 
L 3481 0 
L 794 0 
L 794 531 
z
" transform="scale(0.015625)"/>
       </defs>
       <use xlink:href="#DejaVuSans-31"/>
       <use xlink:href="#DejaVuSans-30" x="63.623047"/>
       <use xlink:href="#DejaVuSans-30" x="127.246094"/>
      </g>
     </g>
    </g>
    <g id="xtick_3">
     <g id="line2d_3">
      <g>
       <use xlink:href="#mb0de1bb327" x="149.965909" y="68.277314" style="stroke: #000000; stroke-width: 0.8"/>
      </g>
     </g>
     <g id="text_3">
      <!-- 200 -->
      <g transform="translate(140.422159 82.875751) scale(0.1 -0.1)">
       <defs>
        <path id="DejaVuSans-32" d="M 1228 531 
L 3431 531 
L 3431 0 
L 469 0 
L 469 531 
Q 828 903 1448 1529 
Q 2069 2156 2228 2338 
Q 2531 2678 2651 2914 
Q 2772 3150 2772 3378 
Q 2772 3750 2511 3984 
Q 2250 4219 1831 4219 
Q 1534 4219 1204 4116 
Q 875 4013 500 3803 
L 500 4441 
Q 881 4594 1212 4672 
Q 1544 4750 1819 4750 
Q 2544 4750 2975 4387 
Q 3406 4025 3406 3419 
Q 3406 3131 3298 2873 
Q 3191 2616 2906 2266 
Q 2828 2175 2409 1742 
Q 1991 1309 1228 531 
z
" transform="scale(0.015625)"/>
       </defs>
       <use xlink:href="#DejaVuSans-32"/>
       <use xlink:href="#DejaVuSans-30" x="63.623047"/>
       <use xlink:href="#DejaVuSans-30" x="127.246094"/>
      </g>
     </g>
    </g>
    <g id="xtick_4">
     <g id="line2d_4">
      <g>
       <use xlink:href="#mb0de1bb327" x="204.511364" y="68.277314" style="stroke: #000000; stroke-width: 0.8"/>
      </g>
     </g>
     <g id="text_4">
      <!-- 300 -->
      <g transform="translate(194.967614 82.875751) scale(0.1 -0.1)">
       <defs>
        <path id="DejaVuSans-33" d="M 2597 2516 
Q 3050 2419 3304 2112 
Q 3559 1806 3559 1356 
Q 3559 666 3084 287 
Q 2609 -91 1734 -91 
Q 1441 -91 1130 -33 
Q 819 25 488 141 
L 488 750 
Q 750 597 1062 519 
Q 1375 441 1716 441 
Q 2309 441 2620 675 
Q 2931 909 2931 1356 
Q 2931 1769 2642 2001 
Q 2353 2234 1838 2234 
L 1294 2234 
L 1294 2753 
L 1863 2753 
Q 2328 2753 2575 2939 
Q 2822 3125 2822 3475 
Q 2822 3834 2567 4026 
Q 2313 4219 1838 4219 
Q 1578 4219 1281 4162 
Q 984 4106 628 3988 
L 628 4550 
Q 988 4650 1302 4700 
Q 1616 4750 1894 4750 
Q 2613 4750 3031 4423 
Q 3450 4097 3450 3541 
Q 3450 3153 3228 2886 
Q 3006 2619 2597 2516 
z
" transform="scale(0.015625)"/>
       </defs>
       <use xlink:href="#DejaVuSans-33"/>
       <use xlink:href="#DejaVuSans-30" x="63.623047"/>
       <use xlink:href="#DejaVuSans-30" x="127.246094"/>
      </g>
     </g>
    </g>
    <g id="xtick_5">
     <g id="line2d_5">
      <g>
       <use xlink:href="#mb0de1bb327" x="259.056818" y="68.277314" style="stroke: #000000; stroke-width: 0.8"/>
      </g>
     </g>
     <g id="text_5">
      <!-- 400 -->
      <g transform="translate(249.513068 82.875751) scale(0.1 -0.1)">
       <defs>
        <path id="DejaVuSans-34" d="M 2419 4116 
L 825 1625 
L 2419 1625 
L 2419 4116 
z
M 2253 4666 
L 3047 4666 
L 3047 1625 
L 3713 1625 
L 3713 1100 
L 3047 1100 
L 3047 0 
L 2419 0 
L 2419 1100 
L 313 1100 
L 313 1709 
L 2253 4666 
z
" transform="scale(0.015625)"/>
       </defs>
       <use xlink:href="#DejaVuSans-34"/>
       <use xlink:href="#DejaVuSans-30" x="63.623047"/>
       <use xlink:href="#DejaVuSans-30" x="127.246094"/>
      </g>
     </g>
    </g>
    <g id="xtick_6">
     <g id="line2d_6">
      <g>
       <use xlink:href="#mb0de1bb327" x="313.602273" y="68.277314" style="stroke: #000000; stroke-width: 0.8"/>
      </g>
     </g>
     <g id="text_6">
      <!-- 500 -->
      <g transform="translate(304.058523 82.875751) scale(0.1 -0.1)">
       <defs>
        <path id="DejaVuSans-35" d="M 691 4666 
L 3169 4666 
L 3169 4134 
L 1269 4134 
L 1269 2991 
Q 1406 3038 1543 3061 
Q 1681 3084 1819 3084 
Q 2600 3084 3056 2656 
Q 3513 2228 3513 1497 
Q 3513 744 3044 326 
Q 2575 -91 1722 -91 
Q 1428 -91 1123 -41 
Q 819 9 494 109 
L 494 744 
Q 775 591 1075 516 
Q 1375 441 1709 441 
Q 2250 441 2565 725 
Q 2881 1009 2881 1497 
Q 2881 1984 2565 2268 
Q 2250 2553 1709 2553 
Q 1456 2553 1204 2497 
Q 953 2441 691 2322 
L 691 4666 
z
" transform="scale(0.015625)"/>
       </defs>
       <use xlink:href="#DejaVuSans-35"/>
       <use xlink:href="#DejaVuSans-30" x="63.623047"/>
       <use xlink:href="#DejaVuSans-30" x="127.246094"/>
      </g>
     </g>
    </g>
    <g id="text_7">
     <!-- Frequency [Hz] -->
     <g transform="translate(142.670313 96.553876) scale(0.1 -0.1)">
      <defs>
       <path id="DejaVuSans-46" d="M 628 4666 
L 3309 4666 
L 3309 4134 
L 1259 4134 
L 1259 2759 
L 3109 2759 
L 3109 2228 
L 1259 2228 
L 1259 0 
L 628 0 
L 628 4666 
z
" transform="scale(0.015625)"/>
       <path id="DejaVuSans-72" d="M 2631 2963 
Q 2534 3019 2420 3045 
Q 2306 3072 2169 3072 
Q 1681 3072 1420 2755 
Q 1159 2438 1159 1844 
L 1159 0 
L 581 0 
L 581 3500 
L 1159 3500 
L 1159 2956 
Q 1341 3275 1631 3429 
Q 1922 3584 2338 3584 
Q 2397 3584 2469 3576 
Q 2541 3569 2628 3553 
L 2631 2963 
z
" transform="scale(0.015625)"/>
       <path id="DejaVuSans-65" d="M 3597 1894 
L 3597 1613 
L 953 1613 
Q 991 1019 1311 708 
Q 1631 397 2203 397 
Q 2534 397 2845 478 
Q 3156 559 3463 722 
L 3463 178 
Q 3153 47 2828 -22 
Q 2503 -91 2169 -91 
Q 1331 -91 842 396 
Q 353 884 353 1716 
Q 353 2575 817 3079 
Q 1281 3584 2069 3584 
Q 2775 3584 3186 3129 
Q 3597 2675 3597 1894 
z
M 3022 2063 
Q 3016 2534 2758 2815 
Q 2500 3097 2075 3097 
Q 1594 3097 1305 2825 
Q 1016 2553 972 2059 
L 3022 2063 
z
" transform="scale(0.015625)"/>
       <path id="DejaVuSans-71" d="M 947 1747 
Q 947 1113 1208 752 
Q 1469 391 1925 391 
Q 2381 391 2643 752 
Q 2906 1113 2906 1747 
Q 2906 2381 2643 2742 
Q 2381 3103 1925 3103 
Q 1469 3103 1208 2742 
Q 947 2381 947 1747 
z
M 2906 525 
Q 2725 213 2448 61 
Q 2172 -91 1784 -91 
Q 1150 -91 751 415 
Q 353 922 353 1747 
Q 353 2572 751 3078 
Q 1150 3584 1784 3584 
Q 2172 3584 2448 3432 
Q 2725 3281 2906 2969 
L 2906 3500 
L 3481 3500 
L 3481 -1331 
L 2906 -1331 
L 2906 525 
z
" transform="scale(0.015625)"/>
       <path id="DejaVuSans-75" d="M 544 1381 
L 544 3500 
L 1119 3500 
L 1119 1403 
Q 1119 906 1312 657 
Q 1506 409 1894 409 
Q 2359 409 2629 706 
Q 2900 1003 2900 1516 
L 2900 3500 
L 3475 3500 
L 3475 0 
L 2900 0 
L 2900 538 
Q 2691 219 2414 64 
Q 2138 -91 1772 -91 
Q 1169 -91 856 284 
Q 544 659 544 1381 
z
M 1991 3584 
L 1991 3584 
z
" transform="scale(0.015625)"/>
       <path id="DejaVuSans-6e" d="M 3513 2113 
L 3513 0 
L 2938 0 
L 2938 2094 
Q 2938 2591 2744 2837 
Q 2550 3084 2163 3084 
Q 1697 3084 1428 2787 
Q 1159 2491 1159 1978 
L 1159 0 
L 581 0 
L 581 3500 
L 1159 3500 
L 1159 2956 
Q 1366 3272 1645 3428 
Q 1925 3584 2291 3584 
Q 2894 3584 3203 3211 
Q 3513 2838 3513 2113 
z
" transform="scale(0.015625)"/>
       <path id="DejaVuSans-63" d="M 3122 3366 
L 3122 2828 
Q 2878 2963 2633 3030 
Q 2388 3097 2138 3097 
Q 1578 3097 1268 2742 
Q 959 2388 959 1747 
Q 959 1106 1268 751 
Q 1578 397 2138 397 
Q 2388 397 2633 464 
Q 2878 531 3122 666 
L 3122 134 
Q 2881 22 2623 -34 
Q 2366 -91 2075 -91 
Q 1284 -91 818 406 
Q 353 903 353 1747 
Q 353 2603 823 3093 
Q 1294 3584 2113 3584 
Q 2378 3584 2631 3529 
Q 2884 3475 3122 3366 
z
" transform="scale(0.015625)"/>
       <path id="DejaVuSans-79" d="M 2059 -325 
Q 1816 -950 1584 -1140 
Q 1353 -1331 966 -1331 
L 506 -1331 
L 506 -850 
L 844 -850 
Q 1081 -850 1212 -737 
Q 1344 -625 1503 -206 
L 1606 56 
L 191 3500 
L 800 3500 
L 1894 763 
L 2988 3500 
L 3597 3500 
L 2059 -325 
z
" transform="scale(0.015625)"/>
       <path id="DejaVuSans-20" transform="scale(0.015625)"/>
       <path id="DejaVuSans-5b" d="M 550 4863 
L 1875 4863 
L 1875 4416 
L 1125 4416 
L 1125 -397 
L 1875 -397 
L 1875 -844 
L 550 -844 
L 550 4863 
z
" transform="scale(0.015625)"/>
       <path id="DejaVuSans-48" d="M 628 4666 
L 1259 4666 
L 1259 2753 
L 3553 2753 
L 3553 4666 
L 4184 4666 
L 4184 0 
L 3553 0 
L 3553 2222 
L 1259 2222 
L 1259 0 
L 628 0 
L 628 4666 
z
" transform="scale(0.015625)"/>
       <path id="DejaVuSans-7a" d="M 353 3500 
L 3084 3500 
L 3084 2975 
L 922 459 
L 3084 459 
L 3084 0 
L 275 0 
L 275 525 
L 2438 3041 
L 353 3041 
L 353 3500 
z
" transform="scale(0.015625)"/>
       <path id="DejaVuSans-5d" d="M 1947 4863 
L 1947 -844 
L 622 -844 
L 622 -397 
L 1369 -397 
L 1369 4416 
L 622 4416 
L 622 4863 
L 1947 4863 
z
" transform="scale(0.015625)"/>
      </defs>
      <use xlink:href="#DejaVuSans-46"/>
      <use xlink:href="#DejaVuSans-72" x="50.269531"/>
      <use xlink:href="#DejaVuSans-65" x="89.132812"/>
      <use xlink:href="#DejaVuSans-71" x="150.65625"/>
      <use xlink:href="#DejaVuSans-75" x="214.132812"/>
      <use xlink:href="#DejaVuSans-65" x="277.511719"/>
      <use xlink:href="#DejaVuSans-6e" x="339.035156"/>
      <use xlink:href="#DejaVuSans-63" x="402.414062"/>
      <use xlink:href="#DejaVuSans-79" x="457.394531"/>
      <use xlink:href="#DejaVuSans-20" x="516.574219"/>
      <use xlink:href="#DejaVuSans-5b" x="548.361328"/>
      <use xlink:href="#DejaVuSans-48" x="587.375"/>
      <use xlink:href="#DejaVuSans-7a" x="662.570312"/>
      <use xlink:href="#DejaVuSans-5d" x="715.060547"/>
     </g>
    </g>
   </g>
   <g id="matplotlib.axis_2">
    <g id="ytick_1">
     <g id="line2d_7">
      <defs>
       <path id="md247b4eb08" d="M 0 0 
L -3.5 0 
" style="stroke: #000000; stroke-width: 0.8"/>
      </defs>
      <g>
       <use xlink:href="#md247b4eb08" x="26.925" y="65.544673" style="stroke: #000000; stroke-width: 0.8"/>
      </g>
     </g>
     <g id="text_8">
      <!-- 0 -->
      <g transform="translate(13.5625 69.343892) scale(0.1 -0.1)">
       <use xlink:href="#DejaVuSans-30"/>
      </g>
     </g>
    </g>
    <g id="ytick_2">
     <g id="line2d_8">
      <g>
       <use xlink:href="#md247b4eb08" x="26.925" y="38.271946" style="stroke: #000000; stroke-width: 0.8"/>
      </g>
     </g>
     <g id="text_9">
      <!-- 5 -->
      <g transform="translate(13.5625 42.071165) scale(0.1 -0.1)">
       <use xlink:href="#DejaVuSans-35"/>
      </g>
     </g>
    </g>
    <g id="ytick_3">
     <g id="line2d_9">
      <g>
       <use xlink:href="#md247b4eb08" x="26.925" y="10.999219" style="stroke: #000000; stroke-width: 0.8"/>
      </g>
     </g>
     <g id="text_10">
      <!-- 10 -->
      <g transform="translate(7.2 14.798438) scale(0.1 -0.1)">
       <use xlink:href="#DejaVuSans-31"/>
       <use xlink:href="#DejaVuSans-30" x="63.623047"/>
      </g>
     </g>
    </g>
   </g>
   <g id="line2d_10">
    <path d="M 40.875 65.540842 
L 61.875 65.436409 
L 64.056818 65.266606 
L 65.147727 64.994022 
L 65.693182 64.675516 
L 66.238636 63.981614 
L 66.511364 63.320182 
L 66.784091 62.258735 
L 67.056818 60.554404 
L 67.329545 57.866764 
L 67.602273 53.782114 
L 68.147727 40.115928 
L 68.965909 13.720577 
L 69.238636 10.885676 
L 69.511364 14.700748 
L 70.329545 47.738139 
L 70.602273 50.3651 
L 71.420455 38.397434 
L 71.965909 50.619062 
L 72.238636 51.625254 
L 72.784091 44.020591 
L 73.056818 47.345785 
L 73.329545 52.479987 
L 73.602273 52.222341 
L 73.875 48.027943 
L 74.147727 47.751491 
L 74.420455 52.246242 
L 74.693182 53.780065 
L 74.965909 50.281855 
L 75.238636 49.337113 
L 75.511364 53.222944 
L 75.784091 54.266432 
L 76.056818 50.960249 
L 76.329545 51.200179 
L 76.602273 54.757121 
L 76.875 53.847563 
L 77.147727 51.299576 
L 77.693182 55.410817 
L 77.965909 52.638626 
L 78.238636 53.101978 
L 78.511364 55.857651 
L 78.784091 53.941078 
L 79.056818 53.121861 
L 79.329545 55.970342 
L 79.875 53.474599 
L 80.147727 56.155117 
L 80.693182 53.943399 
L 80.965909 56.488851 
L 81.511364 54.51288 
L 81.784091 56.872416 
L 82.056818 55.21131 
L 82.329545 55.28285 
L 82.602273 57.080827 
L 82.875 55.022827 
L 83.147727 56.291735 
L 83.420455 56.843806 
L 83.693182 55.166411 
L 83.965909 57.257925 
L 84.238636 56.151881 
L 84.511364 56.034749 
L 84.784091 57.521764 
L 85.056818 55.66074 
L 85.329545 57.340623 
L 85.875 56.326892 
L 86.147727 57.804936 
L 86.420455 56.062232 
L 86.693182 57.743349 
L 86.965909 56.840888 
L 87.238636 56.985645 
L 87.511364 57.814075 
L 87.784091 56.480884 
L 88.056818 58.210298 
L 88.329545 56.669267 
L 88.602273 57.950386 
L 88.875 57.337133 
L 89.147727 57.426595 
L 89.420455 58.036206 
L 89.693182 57.046537 
L 89.965909 58.461624 
L 90.238636 56.989656 
L 90.511364 58.554696 
L 90.784091 57.21896 
L 91.056818 58.41714 
L 91.329545 57.600453 
L 91.602273 58.189918 
L 91.875 58.005619 
L 92.147727 57.978964 
L 92.420455 58.356285 
L 92.693182 57.835754 
L 92.965909 58.625037 
L 93.238636 57.769134 
L 93.511364 58.817056 
L 93.784091 57.765329 
L 94.056818 58.951238 
L 94.329545 57.804057 
L 94.602273 59.047514 
L 94.875 57.867811 
L 95.147727 59.120537 
L 95.420455 57.945772 
L 95.693182 59.177578 
L 95.965909 58.034663 
L 96.238636 59.218513 
L 96.511364 58.138182 
L 96.784091 59.236837 
L 97.056818 58.265554 
L 97.329545 59.221638 
L 97.602273 58.428868 
L 97.875 59.161192 
L 98.147727 58.638311 
L 98.420455 59.049052 
L 98.693182 58.894727 
L 98.965909 58.892673 
L 99.238636 59.180318 
L 99.511364 58.722459 
L 99.784091 59.451245 
L 100.056818 58.595661 
L 100.329545 59.639435 
L 100.602273 58.586567 
L 100.875 59.672339 
L 101.147727 58.755832 
L 101.420455 59.513774 
L 101.693182 59.102656 
L 101.965909 59.212537 
L 102.238636 59.524602 
L 102.511364 58.922648 
L 102.784091 59.829344 
L 103.056818 58.849919 
L 103.329545 59.83338 
L 103.602273 59.114248 
L 103.875 59.519748 
L 104.147727 59.603839 
L 104.420455 59.130781 
L 104.693182 59.977113 
L 104.965909 59.042161 
L 105.238636 59.915214 
L 105.511364 59.419827 
L 105.784091 59.478358 
L 106.056818 59.957846 
L 106.329545 59.163611 
L 106.602273 60.097832 
L 106.875 59.413776 
L 107.420455 60.003826 
L 107.693182 59.286675 
L 107.965909 60.190091 
L 108.238636 59.543523 
L 108.511364 59.726846 
L 108.784091 60.158561 
L 109.056818 59.377973 
L 109.329545 60.203529 
L 109.602273 59.80649 
L 109.875 59.63797 
L 110.147727 60.347827 
L 110.420455 59.54662 
L 110.693182 60.051929 
L 110.965909 60.196527 
L 111.238636 59.549924 
L 111.511364 60.360234 
L 112.056818 59.749291 
L 112.329545 60.485123 
L 112.602273 59.786082 
L 112.875 60.010257 
L 113.147727 60.476715 
L 113.420455 59.722831 
L 113.693182 60.241011 
L 113.965909 60.41519 
L 114.238636 59.742488 
L 114.511364 60.410212 
L 114.784091 60.358443 
L 115.056818 59.801765 
L 115.329545 60.522796 
L 115.602273 60.334411 
L 115.875 59.866704 
L 116.147727 60.593981 
L 116.420455 60.351853 
L 116.693182 59.919279 
L 116.965909 60.634328 
L 117.238636 60.411459 
L 117.511364 59.95611 
L 117.784091 60.644457 
L 118.056818 60.51067 
L 118.329545 59.986987 
L 118.602273 60.615942 
L 118.875 60.641394 
L 119.147727 60.034791 
L 119.420455 60.537818 
L 119.693182 60.782204 
L 119.965909 60.133076 
L 120.238636 60.410358 
L 120.511364 60.890092 
L 120.784091 60.313723 
L 121.056818 60.265109 
L 121.329545 60.903345 
L 121.875 60.179109 
L 122.147727 60.772098 
L 122.420455 60.859471 
L 122.693182 60.255026 
L 122.965909 60.520973 
L 123.238636 61.015211 
L 123.511364 60.540324 
L 123.784091 60.302278 
L 124.056818 60.90834 
L 124.329545 60.915694 
L 124.602273 60.340658 
L 124.875 60.580869 
L 125.147727 61.091329 
L 125.693182 60.35038 
L 125.965909 60.862602 
L 126.238636 61.100798 
L 126.511364 60.558472 
L 126.784091 60.473652 
L 127.056818 61.052876 
L 127.329545 61.05076 
L 127.602273 60.501482 
L 127.875 60.607983 
L 128.147727 61.160895 
L 128.420455 61.019626 
L 128.693182 60.506605 
L 128.965909 60.70065 
L 129.238636 61.221241 
L 129.511364 61.039044 
L 129.784091 60.544897 
L 130.056818 60.735416 
L 130.329545 61.251794 
L 130.602273 61.114801 
L 130.875 60.612192 
L 131.147727 60.714805 
L 131.420455 61.242924 
L 131.693182 61.235775 
L 131.965909 60.730509 
L 132.238636 60.661804 
L 132.511364 61.164356 
L 132.784091 61.362496 
L 133.329545 60.637285 
L 133.875 61.411148 
L 134.147727 61.208164 
L 134.420455 60.742691 
L 134.693182 60.788179 
L 134.965909 61.280064 
L 135.238636 61.448436 
L 135.784091 60.718445 
L 136.056818 60.974659 
L 136.329545 61.43703 
L 136.602273 61.428842 
L 136.875 60.981041 
L 137.147727 60.760371 
L 137.693182 61.512502 
L 137.965909 61.44815 
L 138.238636 61.00499 
L 138.511364 60.799647 
L 139.056818 61.538628 
L 139.329545 61.530484 
L 139.875 60.836072 
L 140.147727 61.045907 
L 140.420455 61.492064 
L 140.693182 61.641479 
L 141.238636 60.938845 
L 141.511364 60.931031 
L 142.056818 61.670093 
L 142.329545 61.605916 
L 142.875 60.920458 
L 143.147727 61.048085 
L 143.693182 61.744291 
L 143.965909 61.619528 
L 144.511364 60.955963 
L 144.784091 61.07446 
L 145.329545 61.779858 
L 145.602273 61.729887 
L 146.147727 61.041943 
L 146.420455 61.019603 
L 147.238636 61.865188 
L 147.511364 61.668791 
L 148.056818 61.034078 
L 148.329545 61.094294 
L 149.147727 61.928218 
L 149.420455 61.751849 
L 149.965909 61.101325 
L 150.238636 61.072997 
L 151.329545 61.960984 
L 152.147727 61.107162 
L 152.420455 61.110398 
L 153.511364 62.06968 
L 153.784091 61.896455 
L 154.329545 61.257814 
L 154.602273 61.1002 
L 154.875 61.170741 
L 155.965909 62.168458 
L 156.238636 62.062392 
L 157.329545 61.105108 
L 157.602273 61.19837 
L 158.693182 62.256796 
L 158.965909 62.266845 
L 159.511364 61.836447 
L 160.056818 61.259138 
L 160.329545 61.108841 
L 160.602273 61.109389 
L 161.147727 61.518374 
L 161.965909 62.343383 
L 162.238636 62.444059 
L 162.511364 62.411296 
L 163.056818 62.008725 
L 163.875 61.195077 
L 164.420455 61.004887 
L 164.965909 61.239241 
L 166.602273 62.687232 
L 167.147727 62.729033 
L 167.693182 62.455542 
L 168.784091 61.421309 
L 169.602273 60.761402 
L 170.147727 60.549903 
L 170.693182 60.549916 
L 171.238636 60.741024 
L 172.056818 61.288449 
L 175.329545 63.91753 
L 176.693182 64.566227 
L 178.056818 64.961056 
L 179.965909 65.252389 
L 182.965909 65.430333 
L 189.238636 65.515811 
L 217.875 65.542645 
L 319.875 65.544379 
L 319.875 65.544379 
" clip-path="url(#p7f6cdcd414)" style="fill: none; stroke: #1f77b4; stroke-width: 1.5; stroke-linecap: square"/>
   </g>
   <g id="patch_3">
    <path d="M 26.925 68.277314 
L 26.925 8.152741 
" style="fill: none; stroke: #000000; stroke-width: 0.8; stroke-linejoin: miter; stroke-linecap: square"/>
   </g>
   <g id="patch_4">
    <path d="M 333.825 68.277314 
L 333.825 8.152741 
" style="fill: none; stroke: #000000; stroke-width: 0.8; stroke-linejoin: miter; stroke-linecap: square"/>
   </g>
   <g id="patch_5">
    <path d="M 26.925 68.277314 
L 333.825 68.277314 
" style="fill: none; stroke: #000000; stroke-width: 0.8; stroke-linejoin: miter; stroke-linecap: square"/>
   </g>
   <g id="patch_6">
    <path d="M 26.925 8.152741 
L 333.825 8.152741 
" style="fill: none; stroke: #000000; stroke-width: 0.8; stroke-linejoin: miter; stroke-linecap: square"/>
   </g>
  </g>
 </g>
 <defs>
  <clipPath id="p7f6cdcd414">
   <rect x="26.925" y="8.152741" width="306.9" height="60.124573"/>
  </clipPath>
 </defs>
</svg>
