<?xml version="1.0" encoding="utf-8" standalone="no"?>
<!DOCTYPE svg PUBLIC "-//W3C//DTD SVG 1.1//EN"
  "http://www.w3.org/Graphics/SVG/1.1/DTD/svg11.dtd">
<svg xmlns:xlink="http://www.w3.org/1999/xlink" width="344.203125pt" height="131.807678pt" viewBox="0 0 344.203125 131.807678" xmlns="http://www.w3.org/2000/svg" version="1.1">
 <metadata>
  <rdf:RDF xmlns:dc="http://purl.org/dc/elements/1.1/" xmlns:cc="http://creativecommons.org/ns#" xmlns:rdf="http://www.w3.org/1999/02/22-rdf-syntax-ns#">
   <cc:Work>
    <dc:type rdf:resource="http://purl.org/dc/dcmitype/StillImage"/>
    <dc:date>2025-01-14T09:05:52.841348</dc:date>
    <dc:format>image/svg+xml</dc:format>
    <dc:creator>
     <cc:Agent>
      <dc:title>Matplotlib v3.9.2, https://matplotlib.org/</dc:title>
     </cc:Agent>
    </dc:creator>
   </cc:Work>
  </rdf:RDF>
 </metadata>
 <defs>
  <style type="text/css">*{stroke-linejoin: round; stroke-linecap: butt}</style>
 </defs>
 <g id="figure_1">
  <g id="patch_1">
   <path d="M 0 131.807678 
L 344.203125 131.807678 
L 344.203125 0 
L 0 0 
z
" style="fill: #ffffff"/>
  </g>
  <g id="axes_1">
   <g id="patch_2">
    <path d="M 30.103125 94.251428 
L 337.003125 94.251428 
L 337.003125 7.2 
L 30.103125 7.2 
z
" style="fill: #ffffff"/>
   </g>
   <g id="matplotlib.axis_1">
    <g id="xtick_1">
     <g id="line2d_1">
      <defs>
       <path id="m7ebc6eba44" d="M 0 0 
L 0 3.5 
" style="stroke: #000000; stroke-width: 0.8"/>
      </defs>
      <g>
       <use xlink:href="#m7ebc6eba44" x="50.352742" y="94.251428" style="stroke: #000000; stroke-width: 0.8"/>
      </g>
     </g>
     <g id="text_1">
      <!-- −3 -->
      <g transform="translate(42.981648 108.849866) scale(0.1 -0.1)">
       <defs>
        <path id="DejaVuSans-2212" d="M 678 2272 
L 4684 2272 
L 4684 1741 
L 678 1741 
L 678 2272 
z
" transform="scale(0.015625)"/>
        <path id="DejaVuSans-33" d="M 2597 2516 
Q 3050 2419 3304 2112 
Q 3559 1806 3559 1356 
Q 3559 666 3084 287 
Q 2609 -91 1734 -91 
Q 1441 -91 1130 -33 
Q 819 25 488 141 
L 488 750 
Q 750 597 1062 519 
Q 1375 441 1716 441 
Q 2309 441 2620 675 
Q 2931 909 2931 1356 
Q 2931 1769 2642 2001 
Q 2353 2234 1838 2234 
L 1294 2234 
L 1294 2753 
L 1863 2753 
Q 2328 2753 2575 2939 
Q 2822 3125 2822 3475 
Q 2822 3834 2567 4026 
Q 2313 4219 1838 4219 
Q 1578 4219 1281 4162 
Q 984 4106 628 3988 
L 628 4550 
Q 988 4650 1302 4700 
Q 1616 4750 1894 4750 
Q 2613 4750 3031 4423 
Q 3450 4097 3450 3541 
Q 3450 3153 3228 2886 
Q 3006 2619 2597 2516 
z
" transform="scale(0.015625)"/>
       </defs>
       <use xlink:href="#DejaVuSans-2212"/>
       <use xlink:href="#DejaVuSans-33" x="83.789062"/>
      </g>
     </g>
    </g>
    <g id="xtick_2">
     <g id="line2d_2">
      <g>
       <use xlink:href="#m7ebc6eba44" x="94.843867" y="94.251428" style="stroke: #000000; stroke-width: 0.8"/>
      </g>
     </g>
     <g id="text_2">
      <!-- −2 -->
      <g transform="translate(87.472774 108.849866) scale(0.1 -0.1)">
       <defs>
        <path id="DejaVuSans-32" d="M 1228 531 
L 3431 531 
L 3431 0 
L 469 0 
L 469 531 
Q 828 903 1448 1529 
Q 2069 2156 2228 2338 
Q 2531 2678 2651 2914 
Q 2772 3150 2772 3378 
Q 2772 3750 2511 3984 
Q 2250 4219 1831 4219 
Q 1534 4219 1204 4116 
Q 875 4013 500 3803 
L 500 4441 
Q 881 4594 1212 4672 
Q 1544 4750 1819 4750 
Q 2544 4750 2975 4387 
Q 3406 4025 3406 3419 
Q 3406 3131 3298 2873 
Q 3191 2616 2906 2266 
Q 2828 2175 2409 1742 
Q 1991 1309 1228 531 
z
" transform="scale(0.015625)"/>
       </defs>
       <use xlink:href="#DejaVuSans-2212"/>
       <use xlink:href="#DejaVuSans-32" x="83.789062"/>
      </g>
     </g>
    </g>
    <g id="xtick_3">
     <g id="line2d_3">
      <g>
       <use xlink:href="#m7ebc6eba44" x="139.334993" y="94.251428" style="stroke: #000000; stroke-width: 0.8"/>
      </g>
     </g>
     <g id="text_3">
      <!-- −1 -->
      <g transform="translate(131.9639 108.849866) scale(0.1 -0.1)">
       <defs>
        <path id="DejaVuSans-31" d="M 794 531 
L 1825 531 
L 1825 4091 
L 703 3866 
L 703 4441 
L 1819 4666 
L 2450 4666 
L 2450 531 
L 3481 531 
L 3481 0 
L 794 0 
L 794 531 
z
" transform="scale(0.015625)"/>
       </defs>
       <use xlink:href="#DejaVuSans-2212"/>
       <use xlink:href="#DejaVuSans-31" x="83.789062"/>
      </g>
     </g>
    </g>
    <g id="xtick_4">
     <g id="line2d_4">
      <g>
       <use xlink:href="#m7ebc6eba44" x="183.826119" y="94.251428" style="stroke: #000000; stroke-width: 0.8"/>
      </g>
     </g>
     <g id="text_4">
      <!-- 0 -->
      <g transform="translate(180.644869 108.849866) scale(0.1 -0.1)">
       <defs>
        <path id="DejaVuSans-30" d="M 2034 4250 
Q 1547 4250 1301 3770 
Q 1056 3291 1056 2328 
Q 1056 1369 1301 889 
Q 1547 409 2034 409 
Q 2525 409 2770 889 
Q 3016 1369 3016 2328 
Q 3016 3291 2770 3770 
Q 2525 4250 2034 4250 
z
M 2034 4750 
Q 2819 4750 3233 4129 
Q 3647 3509 3647 2328 
Q 3647 1150 3233 529 
Q 2819 -91 2034 -91 
Q 1250 -91 836 529 
Q 422 1150 422 2328 
Q 422 3509 836 4129 
Q 1250 4750 2034 4750 
z
" transform="scale(0.015625)"/>
       </defs>
       <use xlink:href="#DejaVuSans-30"/>
      </g>
     </g>
    </g>
    <g id="xtick_5">
     <g id="line2d_5">
      <g>
       <use xlink:href="#m7ebc6eba44" x="228.317245" y="94.251428" style="stroke: #000000; stroke-width: 0.8"/>
      </g>
     </g>
     <g id="text_5">
      <!-- 1 -->
      <g transform="translate(225.135995 108.849866) scale(0.1 -0.1)">
       <use xlink:href="#DejaVuSans-31"/>
      </g>
     </g>
    </g>
    <g id="xtick_6">
     <g id="line2d_6">
      <g>
       <use xlink:href="#m7ebc6eba44" x="272.808371" y="94.251428" style="stroke: #000000; stroke-width: 0.8"/>
      </g>
     </g>
     <g id="text_6">
      <!-- 2 -->
      <g transform="translate(269.627121 108.849866) scale(0.1 -0.1)">
       <use xlink:href="#DejaVuSans-32"/>
      </g>
     </g>
    </g>
    <g id="xtick_7">
     <g id="line2d_7">
      <g>
       <use xlink:href="#m7ebc6eba44" x="317.299497" y="94.251428" style="stroke: #000000; stroke-width: 0.8"/>
      </g>
     </g>
     <g id="text_7">
      <!-- 3 -->
      <g transform="translate(314.118247 108.849866) scale(0.1 -0.1)">
       <use xlink:href="#DejaVuSans-33"/>
      </g>
     </g>
    </g>
    <g id="text_8">
     <!-- $x$ -->
     <g transform="translate(180.553125 122.527991) scale(0.1 -0.1)">
      <defs>
       <path id="DejaVuSans-Oblique-78" d="M 3841 3500 
L 2234 1784 
L 3219 0 
L 2559 0 
L 1819 1388 
L 531 0 
L -166 0 
L 1556 1844 
L 641 3500 
L 1300 3500 
L 1972 2234 
L 3144 3500 
L 3841 3500 
z
" transform="scale(0.015625)"/>
      </defs>
      <use xlink:href="#DejaVuSans-Oblique-78" transform="translate(0 0.3125)"/>
     </g>
    </g>
   </g>
   <g id="matplotlib.axis_2">
    <g id="ytick_1">
     <g id="line2d_8">
      <defs>
       <path id="m89cd1ffe92" d="M 0 0 
L -3.5 0 
" style="stroke: #000000; stroke-width: 0.8"/>
      </defs>
      <g>
       <use xlink:href="#m89cd1ffe92" x="30.103125" y="84.165631" style="stroke: #000000; stroke-width: 0.8"/>
      </g>
     </g>
     <g id="text_9">
      <!-- 0.0 -->
      <g transform="translate(7.2 87.96485) scale(0.1 -0.1)">
       <defs>
        <path id="DejaVuSans-2e" d="M 684 794 
L 1344 794 
L 1344 0 
L 684 0 
L 684 794 
z
" transform="scale(0.015625)"/>
       </defs>
       <use xlink:href="#DejaVuSans-30"/>
       <use xlink:href="#DejaVuSans-2e" x="63.623047"/>
       <use xlink:href="#DejaVuSans-30" x="95.410156"/>
      </g>
     </g>
    </g>
    <g id="ytick_2">
     <g id="line2d_9">
      <g>
       <use xlink:href="#m89cd1ffe92" x="30.103125" y="50.797287" style="stroke: #000000; stroke-width: 0.8"/>
      </g>
     </g>
     <g id="text_10">
      <!-- 0.5 -->
      <g transform="translate(7.2 54.596505) scale(0.1 -0.1)">
       <defs>
        <path id="DejaVuSans-35" d="M 691 4666 
L 3169 4666 
L 3169 4134 
L 1269 4134 
L 1269 2991 
Q 1406 3038 1543 3061 
Q 1681 3084 1819 3084 
Q 2600 3084 3056 2656 
Q 3513 2228 3513 1497 
Q 3513 744 3044 326 
Q 2575 -91 1722 -91 
Q 1428 -91 1123 -41 
Q 819 9 494 109 
L 494 744 
Q 775 591 1075 516 
Q 1375 441 1709 441 
Q 2250 441 2565 725 
Q 2881 1009 2881 1497 
Q 2881 1984 2565 2268 
Q 2250 2553 1709 2553 
Q 1456 2553 1204 2497 
Q 953 2441 691 2322 
L 691 4666 
z
" transform="scale(0.015625)"/>
       </defs>
       <use xlink:href="#DejaVuSans-30"/>
       <use xlink:href="#DejaVuSans-2e" x="63.623047"/>
       <use xlink:href="#DejaVuSans-35" x="95.410156"/>
      </g>
     </g>
    </g>
    <g id="ytick_3">
     <g id="line2d_10">
      <g>
       <use xlink:href="#m89cd1ffe92" x="30.103125" y="17.428942" style="stroke: #000000; stroke-width: 0.8"/>
      </g>
     </g>
     <g id="text_11">
      <!-- 1.0 -->
      <g transform="translate(7.2 21.228161) scale(0.1 -0.1)">
       <use xlink:href="#DejaVuSans-31"/>
       <use xlink:href="#DejaVuSans-2e" x="63.623047"/>
       <use xlink:href="#DejaVuSans-30" x="95.410156"/>
      </g>
     </g>
    </g>
   </g>
   <g id="line2d_11">
    <path d="M 44.053125 84.165631 
L 113.393634 84.165631 
L 113.939622 17.428942 
L 253.712616 17.428942 
L 254.258604 84.165631 
L 323.053125 84.165631 
L 323.053125 84.165631 
" clip-path="url(#pde926980b8)" style="fill: none; stroke: #1f77b4; stroke-width: 1.5; stroke-linecap: square"/>
   </g>
   <g id="line2d_12">
    <path d="M 44.053125 81.681461 
L 45.69109 81.791532 
L 47.329055 82.112604 
L 49.513008 82.82045 
L 52.242949 84.000416 
L 56.064867 85.700944 
L 58.24882 86.423559 
L 59.886784 86.74989 
L 61.524749 86.85261 
L 63.162714 86.715843 
L 64.800679 86.343286 
L 66.438644 85.758554 
L 68.622597 84.724462 
L 74.628467 81.607311 
L 76.266432 81.042747 
L 77.904397 80.730695 
L 79.542362 80.717358 
L 81.180327 81.02752 
L 82.818291 81.661055 
L 84.456256 82.590974 
L 86.094221 83.763177 
L 89.37015 86.493567 
L 91.554103 88.240908 
L 93.192068 89.296188 
L 94.284045 89.803644 
L 95.376021 90.109267 
L 96.467998 90.177 
L 97.559974 89.974111 
L 98.651951 89.472129 
L 99.743927 88.647698 
L 100.835904 87.483305 
L 101.92788 85.967884 
L 103.019857 84.097258 
L 104.111833 81.874417 
L 105.749798 77.904161 
L 107.387763 73.230849 
L 109.571716 66.080802 
L 112.301657 56.120057 
L 117.76154 35.714779 
L 119.945493 28.491704 
L 121.583458 23.751599 
L 123.221422 19.709709 
L 124.859387 16.436041 
L 125.951364 14.698602 
L 127.04334 13.319259 
L 128.135317 12.291708 
L 129.227293 11.602783 
L 130.31927 11.232937 
L 131.411246 11.156883 
L 132.503223 11.34436 
L 133.595199 11.761012 
L 135.233164 12.733105 
L 136.871129 14.00178 
L 142.877 19.061415 
L 144.514965 20.063305 
L 146.152929 20.75992 
L 147.790894 21.119404 
L 148.882871 21.168665 
L 150.520835 20.970337 
L 152.1588 20.480705 
L 153.796765 19.757551 
L 156.526706 18.233975 
L 160.348624 16.066616 
L 162.532577 15.137027 
L 164.170542 14.689448 
L 165.808507 14.490325 
L 167.446471 14.548362 
L 169.084436 14.8515 
L 170.722401 15.368411 
L 172.906354 16.305844 
L 179.458213 19.365717 
L 181.096178 19.848591 
L 182.734143 20.120932 
L 184.372107 20.160555 
L 186.010072 19.964237 
L 187.648037 19.54796 
L 189.83199 18.711755 
L 193.10792 17.115434 
L 196.383849 15.580374 
L 198.567802 14.8515 
L 200.205767 14.548362 
L 201.843732 14.490325 
L 203.481696 14.689448 
L 205.119661 15.137027 
L 206.757626 15.803633 
L 208.941579 16.94686 
L 214.401462 20.020318 
L 216.039426 20.673072 
L 217.677391 21.071138 
L 219.315356 21.162837 
L 220.407332 21.037845 
L 221.499309 20.75992 
L 223.137274 20.063305 
L 224.775239 19.061415 
L 226.959192 17.357392 
L 232.419074 12.733105 
L 234.057039 11.761012 
L 235.149015 11.34436 
L 236.240992 11.156883 
L 237.332968 11.232937 
L 238.424945 11.602783 
L 239.516921 12.291708 
L 240.608898 13.319259 
L 241.700875 14.698602 
L 242.792851 16.436041 
L 243.884828 18.530699 
L 245.522792 22.322542 
L 247.160757 26.839832 
L 248.798722 31.989806 
L 250.982675 39.623645 
L 254.804593 54.050425 
L 258.080522 66.080802 
L 260.264475 73.230849 
L 261.90244 77.904161 
L 263.540405 81.874417 
L 264.632381 84.097258 
L 265.724358 85.967884 
L 266.816334 87.483305 
L 267.908311 88.647698 
L 269.000287 89.472129 
L 270.092264 89.974111 
L 271.18424 90.177 
L 272.276217 90.109267 
L 273.368193 89.803644 
L 274.46017 89.296188 
L 276.098135 88.240908 
L 278.282088 86.493567 
L 282.104006 83.349943 
L 283.74197 82.250861 
L 285.379935 81.415049 
L 287.0179 80.887655 
L 288.655865 80.686598 
L 290.29383 80.803404 
L 291.931794 81.205691 
L 293.569759 81.84112 
L 295.753712 82.933405 
L 300.667606 85.523318 
L 302.851559 86.343286 
L 304.489524 86.715843 
L 306.127489 86.85261 
L 307.765454 86.74989 
L 309.403419 86.423559 
L 311.587372 85.700944 
L 314.317313 84.508511 
L 318.139231 82.82045 
L 320.323184 82.112604 
L 321.961148 81.791532 
L 323.053125 81.693767 
L 323.053125 81.693767 
" clip-path="url(#pde926980b8)" style="fill: none; stroke: #ff7f0e; stroke-width: 1.5; stroke-linecap: square"/>
   </g>
   <g id="line2d_13">
    <path d="M 44.053125 82.981099 
L 45.145102 83.122808 
L 46.237078 83.514322 
L 50.058996 85.255757 
L 51.150972 85.360694 
L 52.242949 85.179414 
L 53.334925 84.753044 
L 56.610855 83.147691 
L 57.702831 82.93475 
L 58.794808 83.01541 
L 59.886784 83.374691 
L 61.524749 84.243206 
L 63.162714 85.094914 
L 64.254691 85.422606 
L 65.346667 85.453383 
L 66.438644 85.173034 
L 67.53062 84.641514 
L 70.260561 83.087514 
L 71.352538 82.770226 
L 72.444514 82.782223 
L 73.536491 83.131581 
L 74.628467 83.745623 
L 77.358409 85.449643 
L 78.450385 85.762494 
L 79.542362 85.698033 
L 80.634338 85.254221 
L 81.726315 84.520342 
L 83.910268 82.876585 
L 85.002244 82.36557 
L 85.548233 82.259794 
L 86.094221 82.268812 
L 86.640209 82.395774 
L 87.732186 82.981061 
L 88.824162 83.903504 
L 91.008115 85.904173 
L 92.100092 86.489661 
L 92.64608 86.589058 
L 93.192068 86.540709 
L 93.738057 86.340598 
L 94.284045 85.993624 
L 95.376021 84.923583 
L 98.105963 81.570352 
L 98.651951 81.114796 
L 99.197939 80.825256 
L 99.743927 80.731519 
L 100.289916 80.853946 
L 100.835904 81.201684 
L 101.381892 81.771346 
L 102.473869 83.496278 
L 105.749798 89.747324 
L 106.295786 90.205821 
L 106.841775 90.294545 
L 107.387763 89.947976 
L 107.933751 89.111659 
L 108.479739 87.744873 
L 109.025728 85.822776 
L 109.571716 83.337953 
L 110.663693 76.741973 
L 111.755669 68.259981 
L 113.393634 53.277944 
L 115.577587 33.16987 
L 116.669563 24.804456 
L 117.76154 18.337084 
L 118.307528 15.911028 
L 118.853516 14.038973 
L 119.399505 12.71035 
L 119.945493 11.897912 
L 120.491481 11.559421 
L 121.037469 11.639903 
L 121.583458 12.074339 
L 122.129446 12.790679 
L 123.221422 14.764863 
L 124.859387 17.986101 
L 125.951364 19.611127 
L 126.497352 20.149342 
L 127.04334 20.480914 
L 127.589329 20.603502 
L 128.135317 20.526273 
L 128.681305 20.268581 
L 129.773282 19.329505 
L 133.049211 15.834189 
L 133.595199 15.511485 
L 134.141188 15.319485 
L 134.687176 15.262536 
L 135.233164 15.33711 
L 136.325141 15.831271 
L 137.417117 16.647282 
L 139.60107 18.393208 
L 140.693047 18.929503 
L 141.785023 19.083082 
L 142.877 18.846849 
L 143.968976 18.301074 
L 147.244906 16.345053 
L 148.336882 16.084502 
L 149.428859 16.146764 
L 150.520835 16.50072 
L 152.1588 17.358465 
L 153.796765 18.193924 
L 154.888741 18.526255 
L 155.980718 18.592326 
L 157.072694 18.387647 
L 158.710659 17.71124 
L 160.894612 16.713542 
L 161.986589 16.432069 
L 163.078565 16.389107 
L 164.170542 16.587723 
L 165.808507 17.212579 
L 167.99246 18.116612 
L 169.084436 18.363925 
L 170.176413 18.389837 
L 171.268389 18.19246 
L 172.906354 17.596785 
L 175.090307 16.750454 
L 176.182284 16.526086 
L 177.27426 16.51388 
L 178.366237 16.714731 
L 180.004201 17.299415 
L 182.188154 18.115907 
L 183.280131 18.325406 
L 184.372107 18.325406 
L 185.464084 18.115907 
L 187.102049 17.52546 
L 189.286002 16.714731 
L 190.377978 16.51388 
L 191.469955 16.526086 
L 192.561931 16.750454 
L 194.199896 17.364115 
L 196.383849 18.19246 
L 197.475826 18.389837 
L 198.567802 18.363925 
L 199.659779 18.116612 
L 201.297743 17.459349 
L 203.481696 16.587723 
L 204.573673 16.389107 
L 205.665649 16.432069 
L 206.757626 16.713542 
L 208.395591 17.440892 
L 210.033556 18.199554 
L 211.125532 18.521586 
L 212.217509 18.594388 
L 213.309485 18.39054 
L 214.401462 17.946846 
L 217.677391 16.291965 
L 218.769368 16.075516 
L 219.861344 16.175397 
L 220.953321 16.585538 
L 222.591285 17.589715 
L 224.22925 18.604769 
L 225.321227 19.010524 
L 226.413203 19.056784 
L 227.50518 18.705055 
L 228.597156 18.009343 
L 231.873086 15.5324 
L 232.419074 15.33711 
L 232.965062 15.262536 
L 233.511051 15.319485 
L 234.057039 15.511485 
L 235.149015 16.275214 
L 236.240992 17.424532 
L 238.424945 19.858244 
L 238.970933 20.268581 
L 239.516921 20.526273 
L 240.06291 20.603502 
L 240.608898 20.480914 
L 241.154886 20.149342 
L 241.700875 19.611127 
L 242.792851 17.986101 
L 246.068781 12.074339 
L 246.614769 11.639903 
L 247.160757 11.559421 
L 247.706745 11.897912 
L 248.252734 12.71035 
L 248.798722 14.038973 
L 249.34471 15.911028 
L 249.890698 18.337084 
L 250.982675 24.804456 
L 252.074651 33.16987 
L 253.712616 48.06004 
L 255.896569 68.259981 
L 256.988546 76.741973 
L 258.080522 83.337953 
L 258.626511 85.822776 
L 259.172499 87.744873 
L 259.718487 89.111659 
L 260.264475 89.947976 
L 260.810464 90.294545 
L 261.356452 90.205821 
L 261.90244 89.747324 
L 262.448428 88.9926 
L 263.540405 86.909021 
L 265.17837 83.496278 
L 266.270346 81.771346 
L 266.816334 81.201684 
L 267.362323 80.853946 
L 267.908311 80.731519 
L 268.454299 80.825256 
L 269.000287 81.114796 
L 270.092264 82.154862 
L 272.822205 85.51374 
L 273.914182 86.340598 
L 274.46017 86.540709 
L 275.006158 86.589058 
L 275.552147 86.489661 
L 276.644123 85.904173 
L 277.7361 84.961241 
L 279.920053 82.981061 
L 281.012029 82.395774 
L 281.558017 82.268812 
L 282.104006 82.259794 
L 283.195982 82.576374 
L 284.287959 83.245798 
L 287.0179 85.254221 
L 288.109876 85.698033 
L 289.201853 85.762494 
L 290.29383 85.449643 
L 291.385806 84.848343 
L 294.115747 83.131581 
L 295.207724 82.782223 
L 296.2997 82.770226 
L 297.391677 83.087514 
L 299.029642 83.980451 
L 300.667606 84.932254 
L 301.759583 85.350027 
L 302.851559 85.477763 
L 303.943536 85.292107 
L 305.035512 84.843573 
L 308.311442 83.163912 
L 309.403419 82.937639 
L 310.495395 83.006377 
L 311.587372 83.349719 
L 313.225336 84.181415 
L 314.863301 84.991788 
L 315.955278 85.304822 
L 317.047254 85.343918 
L 318.139231 85.101756 
L 319.777195 84.355616 
L 321.961148 83.291955 
L 323.053125 83.017068 
L 323.053125 83.017068 
" clip-path="url(#pde926980b8)" style="fill: none; stroke: #2ca02c; stroke-width: 1.5; stroke-linecap: square"/>
   </g>
   <g id="line2d_14">
    <path d="M 44.053125 84.707251 
L 44.599113 84.607494 
L 46.783066 83.624078 
L 47.329055 83.705387 
L 49.513008 84.706985 
L 50.058996 84.644288 
L 51.150972 84.076454 
L 51.696961 83.779881 
L 52.242949 83.624606 
L 52.788937 83.668409 
L 53.880914 84.223955 
L 54.426902 84.531966 
L 54.97289 84.706201 
L 55.518878 84.681704 
L 56.610855 84.138909 
L 57.702831 83.625634 
L 58.24882 83.630277 
L 58.794808 83.8328 
L 60.432773 84.704947 
L 60.978761 84.720866 
L 61.524749 84.53158 
L 63.162714 83.627091 
L 63.708702 83.589723 
L 64.254691 83.765123 
L 65.892655 84.703318 
L 66.438644 84.763238 
L 66.984632 84.60251 
L 68.622597 83.628849 
L 69.168585 83.545017 
L 69.714573 83.690122 
L 71.352538 84.701491 
L 71.898526 84.810912 
L 72.444514 84.682587 
L 74.628467 83.493579 
L 75.174456 83.603707 
L 76.266432 84.340809 
L 76.81242 84.699795 
L 77.358409 84.867137 
L 77.904397 84.776956 
L 78.996374 84.022937 
L 79.542362 83.632082 
L 80.08835 83.431227 
L 80.634338 83.499272 
L 81.180327 83.817067 
L 82.272303 84.698886 
L 82.818291 84.937414 
L 83.36428 84.894288 
L 83.910268 84.578198 
L 85.002244 83.632146 
L 85.548233 83.350546 
L 86.094221 83.365149 
L 86.640209 83.679406 
L 87.732186 84.700185 
L 88.278174 85.032022 
L 88.824162 85.05072 
L 89.37015 84.738424 
L 91.008115 83.236824 
L 91.554103 83.178301 
L 92.100092 83.488507 
L 93.738057 85.172827 
L 94.284045 85.280409 
L 94.830033 84.972425 
L 96.467998 83.056017 
L 97.013986 82.885689 
L 97.559974 83.191318 
L 99.197939 85.416051 
L 99.743927 85.670691 
L 100.289916 85.367553 
L 100.835904 84.580479 
L 101.92788 82.707786 
L 102.473869 82.331895 
L 103.019857 82.632407 
L 103.565845 83.559027 
L 104.657822 85.961256 
L 105.20381 86.529923 
L 105.749798 86.232177 
L 106.295786 85.068379 
L 107.387763 81.724005 
L 107.933751 80.793582 
L 108.479739 81.088421 
L 109.025728 82.750015 
L 110.117704 88.283394 
L 110.663693 90.166849 
L 111.209681 89.875061 
L 111.755669 86.477113 
L 112.301657 79.585379 
L 112.847646 69.504306 
L 115.031599 22.003866 
L 115.577587 15.257326 
L 116.123575 11.952587 
L 116.669563 11.667343 
L 117.215552 13.468212 
L 118.307528 18.713478 
L 118.853516 20.276672 
L 119.399505 20.558416 
L 119.945493 19.705138 
L 121.037469 16.648342 
L 121.583458 15.588062 
L 122.129446 15.309975 
L 122.675434 15.807033 
L 124.313399 18.740541 
L 124.859387 19.014811 
L 125.405375 18.704891 
L 127.04334 16.444377 
L 127.589329 16.174089 
L 128.135317 16.3685 
L 129.227293 17.61431 
L 129.773282 18.190406 
L 130.31927 18.456542 
L 130.865258 18.340586 
L 131.411246 17.909195 
L 132.503223 16.830249 
L 133.049211 16.568439 
L 133.595199 16.627625 
L 134.141188 16.968019 
L 135.233164 17.902968 
L 135.779152 18.160271 
L 136.325141 18.144037 
L 136.871129 17.874231 
L 137.963105 17.053985 
L 138.509094 16.801376 
L 139.055082 16.784029 
L 139.60107 16.997175 
L 141.239035 17.970587 
L 141.785023 18.014844 
L 142.331011 17.848423 
L 143.968976 16.960229 
L 144.514965 16.893996 
L 145.060953 17.021037 
L 146.698918 17.834466 
L 147.244906 17.918902 
L 147.790894 17.825651 
L 149.974847 16.979454 
L 150.520835 17.043273 
L 152.704788 17.841431 
L 153.250777 17.803575 
L 154.342753 17.394264 
L 155.43473 17.050755 
L 155.980718 17.065457 
L 157.072694 17.42842 
L 158.164671 17.77494 
L 158.710659 17.78108 
L 159.802636 17.46134 
L 160.894612 17.11348 
L 161.440601 17.088426 
L 162.532577 17.367464 
L 163.624554 17.71516 
L 164.170542 17.757501 
L 165.262518 17.517129 
L 166.354495 17.170974 
L 166.900483 17.112737 
L 167.99246 17.316083 
L 169.084436 17.659407 
L 170.176413 17.695995 
L 172.360366 17.138849 
L 173.452342 17.271799 
L 175.090307 17.705162 
L 176.182284 17.606107 
L 177.820248 17.167221 
L 178.912225 17.23295 
L 180.55019 17.675471 
L 181.642166 17.642698 
L 183.826119 17.148012 
L 184.918096 17.331448 
L 186.010072 17.642698 
L 187.102049 17.675471 
L 189.83199 17.167221 
L 192.561931 17.705162 
L 193.653908 17.441879 
L 194.745884 17.156793 
L 195.837861 17.225445 
L 197.475826 17.695995 
L 198.567802 17.659407 
L 200.751755 17.112737 
L 201.843732 17.323706 
L 202.935708 17.681804 
L 203.481696 17.757501 
L 204.573673 17.567988 
L 205.665649 17.185426 
L 206.211638 17.088426 
L 206.757626 17.11348 
L 207.849602 17.46134 
L 208.941579 17.78108 
L 209.487567 17.77494 
L 210.579544 17.42842 
L 211.67152 17.065457 
L 212.217509 17.050755 
L 213.309485 17.394264 
L 214.401462 17.803575 
L 214.94745 17.841431 
L 215.493438 17.728897 
L 217.131403 17.043273 
L 217.677391 16.979454 
L 218.223379 17.079131 
L 220.407332 17.918902 
L 220.953321 17.834466 
L 223.137274 16.893996 
L 223.683262 16.960229 
L 224.775239 17.539172 
L 225.321227 17.848423 
L 225.867215 18.014844 
L 226.413203 17.970587 
L 227.50518 17.354603 
L 228.051168 16.997175 
L 228.597156 16.784029 
L 229.143145 16.801376 
L 229.689133 17.053985 
L 231.327098 18.144037 
L 231.873086 18.160271 
L 232.419074 17.902968 
L 234.057039 16.627625 
L 234.603027 16.568439 
L 235.149015 16.830249 
L 236.78698 18.340586 
L 237.332968 18.456542 
L 237.878957 18.190406 
L 239.516921 16.3685 
L 240.06291 16.174089 
L 240.608898 16.444377 
L 241.154886 17.1179 
L 242.246863 18.704891 
L 242.792851 19.014811 
L 243.338839 18.740541 
L 243.884828 17.922486 
L 244.976804 15.807033 
L 245.522792 15.309975 
L 246.068781 15.588062 
L 246.614769 16.648342 
L 247.706745 19.705138 
L 248.252734 20.558416 
L 248.798722 20.276672 
L 249.34471 18.713478 
L 250.436687 13.468212 
L 250.982675 11.667343 
L 251.528663 11.952587 
L 252.074651 15.257326 
L 252.62064 22.003866 
L 253.166628 31.941754 
L 255.350581 79.585379 
L 255.896569 86.477113 
L 256.442557 89.875061 
L 256.988546 90.166849 
L 257.534534 88.283394 
L 258.626511 82.750015 
L 259.172499 81.088421 
L 259.718487 80.793582 
L 260.264475 81.724005 
L 261.356452 85.068379 
L 261.90244 86.232177 
L 262.448428 86.529923 
L 262.994417 85.961256 
L 264.632381 82.632407 
L 265.17837 82.331895 
L 265.724358 82.707786 
L 267.362323 85.367553 
L 267.908311 85.670691 
L 268.454299 85.416051 
L 270.092264 83.191318 
L 270.638252 82.885689 
L 271.18424 83.056017 
L 271.730229 83.615626 
L 272.822205 84.972425 
L 273.368193 85.280409 
L 273.914182 85.172827 
L 274.46017 84.70723 
L 275.552147 83.488507 
L 276.098135 83.178301 
L 276.644123 83.236824 
L 277.190111 83.628661 
L 278.282088 84.738424 
L 278.828076 85.05072 
L 279.374064 85.032022 
L 279.920053 84.700185 
L 281.012029 83.679406 
L 281.558017 83.365149 
L 282.104006 83.350546 
L 282.649994 83.632146 
L 284.287959 84.894288 
L 284.833947 84.937414 
L 285.379935 84.698886 
L 287.0179 83.499272 
L 287.563888 83.431227 
L 288.109876 83.632082 
L 289.747841 84.776956 
L 290.29383 84.867137 
L 290.839818 84.699795 
L 292.477783 83.603707 
L 293.023771 83.493579 
L 293.569759 83.630666 
L 295.207724 84.682587 
L 295.753712 84.810912 
L 296.2997 84.701491 
L 298.483653 83.545017 
L 299.029642 83.628849 
L 300.121618 84.278063 
L 300.667606 84.60251 
L 301.213595 84.763238 
L 301.759583 84.703318 
L 302.851559 84.090531 
L 303.397548 83.765123 
L 303.943536 83.589723 
L 304.489524 83.627091 
L 305.581501 84.205332 
L 306.127489 84.53158 
L 306.673477 84.720866 
L 307.219466 84.704947 
L 308.311442 84.159767 
L 309.403419 83.630277 
L 309.949407 83.625634 
L 310.495395 83.819277 
L 312.13336 84.681704 
L 312.679348 84.706201 
L 313.225336 84.531966 
L 314.863301 83.668409 
L 315.409289 83.624606 
L 315.955278 83.779881 
L 317.593242 84.644288 
L 318.139231 84.706985 
L 318.685219 84.570362 
L 320.323184 83.705387 
L 320.869172 83.624078 
L 321.41516 83.742235 
L 323.053125 84.607494 
L 323.053125 84.607494 
" clip-path="url(#pde926980b8)" style="fill: none; stroke: #d62728; stroke-width: 1.5; stroke-linecap: square"/>
   </g>
   <g id="patch_3">
    <path d="M 30.103125 94.251428 
L 30.103125 7.2 
" style="fill: none; stroke: #000000; stroke-width: 0.8; stroke-linejoin: miter; stroke-linecap: square"/>
   </g>
   <g id="patch_4">
    <path d="M 337.003125 94.251428 
L 337.003125 7.2 
" style="fill: none; stroke: #000000; stroke-width: 0.8; stroke-linejoin: miter; stroke-linecap: square"/>
   </g>
   <g id="patch_5">
    <path d="M 30.103125 94.251428 
L 337.003125 94.251428 
" style="fill: none; stroke: #000000; stroke-width: 0.8; stroke-linejoin: miter; stroke-linecap: square"/>
   </g>
   <g id="patch_6">
    <path d="M 30.103125 7.2 
L 337.003125 7.2 
" style="fill: none; stroke: #000000; stroke-width: 0.8; stroke-linejoin: miter; stroke-linecap: square"/>
   </g>
   <g id="legend_1">
    <g id="patch_7">
     <path d="M 285.203125 84.078125 
L 330.003125 84.078125 
Q 332.003125 84.078125 332.003125 82.078125 
L 332.003125 14.2 
Q 332.003125 12.2 330.003125 12.2 
L 285.203125 12.2 
Q 283.203125 12.2 283.203125 14.2 
L 283.203125 82.078125 
Q 283.203125 84.078125 285.203125 84.078125 
z
" style="fill: #ffffff; opacity: 0.8; stroke: #cccccc; stroke-linejoin: miter"/>
    </g>
    <g id="line2d_15">
     <path d="M 287.203125 20.298437 
L 297.203125 20.298437 
L 307.203125 20.298437 
" style="fill: none; stroke: #1f77b4; stroke-width: 1.5; stroke-linecap: square"/>
    </g>
    <g id="text_12">
     <!-- $f$ -->
     <g transform="translate(315.203125 23.798437) scale(0.1 -0.1)">
      <defs>
       <path id="DejaVuSans-Oblique-66" d="M 3059 4863 
L 2969 4384 
L 2419 4384 
Q 2106 4384 1964 4261 
Q 1822 4138 1753 3809 
L 1691 3500 
L 2638 3500 
L 2553 3053 
L 1606 3053 
L 1013 0 
L 434 0 
L 1031 3053 
L 481 3053 
L 563 3500 
L 1113 3500 
L 1159 3744 
Q 1278 4363 1576 4613 
Q 1875 4863 2516 4863 
L 3059 4863 
z
" transform="scale(0.015625)"/>
      </defs>
      <use xlink:href="#DejaVuSans-Oblique-66" transform="translate(0 0.015625)"/>
     </g>
    </g>
    <g id="line2d_16">
     <path d="M 287.203125 38.298437 
L 297.203125 38.298437 
L 307.203125 38.298437 
" style="fill: none; stroke: #ff7f0e; stroke-width: 1.5; stroke-linecap: square"/>
    </g>
    <g id="text_13">
     <!-- $\hat{f}_7$ -->
     <g transform="translate(315.203125 41.798437) scale(0.1 -0.1)">
      <defs>
       <path id="DejaVuSans-302" d="M -1831 5119 
L -1369 5119 
L -603 3944 
L -1038 3944 
L -1600 4709 
L -2163 3944 
L -2597 3944 
L -1831 5119 
z
M -1600 3584 
L -1600 3584 
z
" transform="scale(0.015625)"/>
       <path id="DejaVuSans-37" d="M 525 4666 
L 3525 4666 
L 3525 4397 
L 1831 0 
L 1172 0 
L 2766 4134 
L 525 4134 
L 525 4666 
z
" transform="scale(0.015625)"/>
      </defs>
      <use xlink:href="#DejaVuSans-302" transform="translate(47.379395 33.015625)"/>
      <use xlink:href="#DejaVuSans-Oblique-66" transform="translate(0 0.53125)"/>
      <use xlink:href="#DejaVuSans-37" transform="translate(36.162109 -15.875) scale(0.7)"/>
     </g>
    </g>
    <g id="line2d_17">
     <path d="M 287.203125 56.398437 
L 297.203125 56.398437 
L 307.203125 56.398437 
" style="fill: none; stroke: #2ca02c; stroke-width: 1.5; stroke-linecap: square"/>
    </g>
    <g id="text_14">
     <!-- $\hat{f}_{20}$ -->
     <g transform="translate(315.203125 59.898437) scale(0.1 -0.1)">
      <use xlink:href="#DejaVuSans-302" transform="translate(47.379395 33.015625)"/>
      <use xlink:href="#DejaVuSans-Oblique-66" transform="translate(0 0.53125)"/>
      <use xlink:href="#DejaVuSans-32" transform="translate(36.162109 -15.875) scale(0.7)"/>
      <use xlink:href="#DejaVuSans-30" transform="translate(80.698242 -15.875) scale(0.7)"/>
     </g>
    </g>
    <g id="line2d_18">
     <path d="M 287.203125 74.498437 
L 297.203125 74.498437 
L 307.203125 74.498437 
" style="fill: none; stroke: #d62728; stroke-width: 1.5; stroke-linecap: square"/>
    </g>
    <g id="text_15">
     <!-- $\hat{f}_{50}$ -->
     <g transform="translate(315.203125 77.998437) scale(0.1 -0.1)">
      <use xlink:href="#DejaVuSans-302" transform="translate(47.379395 33.015625)"/>
      <use xlink:href="#DejaVuSans-Oblique-66" transform="translate(0 0.53125)"/>
      <use xlink:href="#DejaVuSans-35" transform="translate(36.162109 -15.875) scale(0.7)"/>
      <use xlink:href="#DejaVuSans-30" transform="translate(80.698242 -15.875) scale(0.7)"/>
     </g>
    </g>
   </g>
  </g>
 </g>
 <defs>
  <clipPath id="pde926980b8">
   <rect x="30.103125" y="7.2" width="306.9" height="87.051428"/>
  </clipPath>
 </defs>
</svg>
