<?xml version="1.0" encoding="utf-8" standalone="no"?>
<!DOCTYPE svg PUBLIC "-//W3C//DTD SVG 1.1//EN"
  "http://www.w3.org/Graphics/SVG/1.1/DTD/svg11.dtd">
<svg xmlns:xlink="http://www.w3.org/1999/xlink" width="356.720313pt" height="109.995469pt" viewBox="0 0 356.720313 109.995469" xmlns="http://www.w3.org/2000/svg" version="1.1">
 <metadata>
  <rdf:RDF xmlns:dc="http://purl.org/dc/elements/1.1/" xmlns:cc="http://creativecommons.org/ns#" xmlns:rdf="http://www.w3.org/1999/02/22-rdf-syntax-ns#">
   <cc:Work>
    <dc:type rdf:resource="http://purl.org/dc/dcmitype/StillImage"/>
    <dc:date>2025-01-14T09:38:52.477254</dc:date>
    <dc:format>image/svg+xml</dc:format>
    <dc:creator>
     <cc:Agent>
      <dc:title>Matplotlib v3.9.2, https://matplotlib.org/</dc:title>
     </cc:Agent>
    </dc:creator>
   </cc:Work>
  </rdf:RDF>
 </metadata>
 <defs>
  <style type="text/css">*{stroke-linejoin: round; stroke-linecap: butt}</style>
 </defs>
 <g id="figure_1">
  <g id="patch_1">
   <path d="M 0 109.995469 
L 356.720313 109.995469 
L 356.720313 0 
L 0 0 
z
" style="fill: #ffffff"/>
  </g>
  <g id="axes_1">
   <g id="patch_2">
    <path d="M 42.620313 72.439219 
L 349.520313 72.439219 
L 349.520313 10.999219 
L 42.620313 10.999219 
z
" style="fill: #ffffff"/>
   </g>
   <g id="matplotlib.axis_1">
    <g id="xtick_1">
     <g id="line2d_1">
      <defs>
       <path id="m272ddd830d" d="M 0 0 
L 0 3.5 
" style="stroke: #000000; stroke-width: 0.8"/>
      </defs>
      <g>
       <use xlink:href="#m272ddd830d" x="42.620313" y="72.439219" style="stroke: #000000; stroke-width: 0.8"/>
      </g>
     </g>
     <g id="text_1">
      <!-- 0.00 -->
      <g transform="translate(31.4875 87.037656) scale(0.1 -0.1)">
       <defs>
        <path id="DejaVuSans-30" d="M 2034 4250 
Q 1547 4250 1301 3770 
Q 1056 3291 1056 2328 
Q 1056 1369 1301 889 
Q 1547 409 2034 409 
Q 2525 409 2770 889 
Q 3016 1369 3016 2328 
Q 3016 3291 2770 3770 
Q 2525 4250 2034 4250 
z
M 2034 4750 
Q 2819 4750 3233 4129 
Q 3647 3509 3647 2328 
Q 3647 1150 3233 529 
Q 2819 -91 2034 -91 
Q 1250 -91 836 529 
Q 422 1150 422 2328 
Q 422 3509 836 4129 
Q 1250 4750 2034 4750 
z
" transform="scale(0.015625)"/>
        <path id="DejaVuSans-2e" d="M 684 794 
L 1344 794 
L 1344 0 
L 684 0 
L 684 794 
z
" transform="scale(0.015625)"/>
       </defs>
       <use xlink:href="#DejaVuSans-30"/>
       <use xlink:href="#DejaVuSans-2e" x="63.623047"/>
       <use xlink:href="#DejaVuSans-30" x="95.410156"/>
       <use xlink:href="#DejaVuSans-30" x="159.033203"/>
      </g>
     </g>
    </g>
    <g id="xtick_2">
     <g id="line2d_2">
      <g>
       <use xlink:href="#m272ddd830d" x="104.060313" y="72.439219" style="stroke: #000000; stroke-width: 0.8"/>
      </g>
     </g>
     <g id="text_2">
      <!-- 0.05 -->
      <g transform="translate(92.9275 87.037656) scale(0.1 -0.1)">
       <defs>
        <path id="DejaVuSans-35" d="M 691 4666 
L 3169 4666 
L 3169 4134 
L 1269 4134 
L 1269 2991 
Q 1406 3038 1543 3061 
Q 1681 3084 1819 3084 
Q 2600 3084 3056 2656 
Q 3513 2228 3513 1497 
Q 3513 744 3044 326 
Q 2575 -91 1722 -91 
Q 1428 -91 1123 -41 
Q 819 9 494 109 
L 494 744 
Q 775 591 1075 516 
Q 1375 441 1709 441 
Q 2250 441 2565 725 
Q 2881 1009 2881 1497 
Q 2881 1984 2565 2268 
Q 2250 2553 1709 2553 
Q 1456 2553 1204 2497 
Q 953 2441 691 2322 
L 691 4666 
z
" transform="scale(0.015625)"/>
       </defs>
       <use xlink:href="#DejaVuSans-30"/>
       <use xlink:href="#DejaVuSans-2e" x="63.623047"/>
       <use xlink:href="#DejaVuSans-30" x="95.410156"/>
       <use xlink:href="#DejaVuSans-35" x="159.033203"/>
      </g>
     </g>
    </g>
    <g id="xtick_3">
     <g id="line2d_3">
      <g>
       <use xlink:href="#m272ddd830d" x="165.500313" y="72.439219" style="stroke: #000000; stroke-width: 0.8"/>
      </g>
     </g>
     <g id="text_3">
      <!-- 0.10 -->
      <g transform="translate(154.3675 87.037656) scale(0.1 -0.1)">
       <defs>
        <path id="DejaVuSans-31" d="M 794 531 
L 1825 531 
L 1825 4091 
L 703 3866 
L 703 4441 
L 1819 4666 
L 2450 4666 
L 2450 531 
L 3481 531 
L 3481 0 
L 794 0 
L 794 531 
z
" transform="scale(0.015625)"/>
       </defs>
       <use xlink:href="#DejaVuSans-30"/>
       <use xlink:href="#DejaVuSans-2e" x="63.623047"/>
       <use xlink:href="#DejaVuSans-31" x="95.410156"/>
       <use xlink:href="#DejaVuSans-30" x="159.033203"/>
      </g>
     </g>
    </g>
    <g id="xtick_4">
     <g id="line2d_4">
      <g>
       <use xlink:href="#m272ddd830d" x="226.940313" y="72.439219" style="stroke: #000000; stroke-width: 0.8"/>
      </g>
     </g>
     <g id="text_4">
      <!-- 0.15 -->
      <g transform="translate(215.8075 87.037656) scale(0.1 -0.1)">
       <use xlink:href="#DejaVuSans-30"/>
       <use xlink:href="#DejaVuSans-2e" x="63.623047"/>
       <use xlink:href="#DejaVuSans-31" x="95.410156"/>
       <use xlink:href="#DejaVuSans-35" x="159.033203"/>
      </g>
     </g>
    </g>
    <g id="xtick_5">
     <g id="line2d_5">
      <g>
       <use xlink:href="#m272ddd830d" x="288.380313" y="72.439219" style="stroke: #000000; stroke-width: 0.8"/>
      </g>
     </g>
     <g id="text_5">
      <!-- 0.20 -->
      <g transform="translate(277.2475 87.037656) scale(0.1 -0.1)">
       <defs>
        <path id="DejaVuSans-32" d="M 1228 531 
L 3431 531 
L 3431 0 
L 469 0 
L 469 531 
Q 828 903 1448 1529 
Q 2069 2156 2228 2338 
Q 2531 2678 2651 2914 
Q 2772 3150 2772 3378 
Q 2772 3750 2511 3984 
Q 2250 4219 1831 4219 
Q 1534 4219 1204 4116 
Q 875 4013 500 3803 
L 500 4441 
Q 881 4594 1212 4672 
Q 1544 4750 1819 4750 
Q 2544 4750 2975 4387 
Q 3406 4025 3406 3419 
Q 3406 3131 3298 2873 
Q 3191 2616 2906 2266 
Q 2828 2175 2409 1742 
Q 1991 1309 1228 531 
z
" transform="scale(0.015625)"/>
       </defs>
       <use xlink:href="#DejaVuSans-30"/>
       <use xlink:href="#DejaVuSans-2e" x="63.623047"/>
       <use xlink:href="#DejaVuSans-32" x="95.410156"/>
       <use xlink:href="#DejaVuSans-30" x="159.033203"/>
      </g>
     </g>
    </g>
    <g id="text_6">
     <!-- Time [s] -->
     <g transform="translate(175.741406 100.715781) scale(0.1 -0.1)">
      <defs>
       <path id="DejaVuSans-54" d="M -19 4666 
L 3928 4666 
L 3928 4134 
L 2272 4134 
L 2272 0 
L 1638 0 
L 1638 4134 
L -19 4134 
L -19 4666 
z
" transform="scale(0.015625)"/>
       <path id="DejaVuSans-69" d="M 603 3500 
L 1178 3500 
L 1178 0 
L 603 0 
L 603 3500 
z
M 603 4863 
L 1178 4863 
L 1178 4134 
L 603 4134 
L 603 4863 
z
" transform="scale(0.015625)"/>
       <path id="DejaVuSans-6d" d="M 3328 2828 
Q 3544 3216 3844 3400 
Q 4144 3584 4550 3584 
Q 5097 3584 5394 3201 
Q 5691 2819 5691 2113 
L 5691 0 
L 5113 0 
L 5113 2094 
Q 5113 2597 4934 2840 
Q 4756 3084 4391 3084 
Q 3944 3084 3684 2787 
Q 3425 2491 3425 1978 
L 3425 0 
L 2847 0 
L 2847 2094 
Q 2847 2600 2669 2842 
Q 2491 3084 2119 3084 
Q 1678 3084 1418 2786 
Q 1159 2488 1159 1978 
L 1159 0 
L 581 0 
L 581 3500 
L 1159 3500 
L 1159 2956 
Q 1356 3278 1631 3431 
Q 1906 3584 2284 3584 
Q 2666 3584 2933 3390 
Q 3200 3197 3328 2828 
z
" transform="scale(0.015625)"/>
       <path id="DejaVuSans-65" d="M 3597 1894 
L 3597 1613 
L 953 1613 
Q 991 1019 1311 708 
Q 1631 397 2203 397 
Q 2534 397 2845 478 
Q 3156 559 3463 722 
L 3463 178 
Q 3153 47 2828 -22 
Q 2503 -91 2169 -91 
Q 1331 -91 842 396 
Q 353 884 353 1716 
Q 353 2575 817 3079 
Q 1281 3584 2069 3584 
Q 2775 3584 3186 3129 
Q 3597 2675 3597 1894 
z
M 3022 2063 
Q 3016 2534 2758 2815 
Q 2500 3097 2075 3097 
Q 1594 3097 1305 2825 
Q 1016 2553 972 2059 
L 3022 2063 
z
" transform="scale(0.015625)"/>
       <path id="DejaVuSans-20" transform="scale(0.015625)"/>
       <path id="DejaVuSans-5b" d="M 550 4863 
L 1875 4863 
L 1875 4416 
L 1125 4416 
L 1125 -397 
L 1875 -397 
L 1875 -844 
L 550 -844 
L 550 4863 
z
" transform="scale(0.015625)"/>
       <path id="DejaVuSans-73" d="M 2834 3397 
L 2834 2853 
Q 2591 2978 2328 3040 
Q 2066 3103 1784 3103 
Q 1356 3103 1142 2972 
Q 928 2841 928 2578 
Q 928 2378 1081 2264 
Q 1234 2150 1697 2047 
L 1894 2003 
Q 2506 1872 2764 1633 
Q 3022 1394 3022 966 
Q 3022 478 2636 193 
Q 2250 -91 1575 -91 
Q 1294 -91 989 -36 
Q 684 19 347 128 
L 347 722 
Q 666 556 975 473 
Q 1284 391 1588 391 
Q 1994 391 2212 530 
Q 2431 669 2431 922 
Q 2431 1156 2273 1281 
Q 2116 1406 1581 1522 
L 1381 1569 
Q 847 1681 609 1914 
Q 372 2147 372 2553 
Q 372 3047 722 3315 
Q 1072 3584 1716 3584 
Q 2034 3584 2315 3537 
Q 2597 3491 2834 3397 
z
" transform="scale(0.015625)"/>
       <path id="DejaVuSans-5d" d="M 1947 4863 
L 1947 -844 
L 622 -844 
L 622 -397 
L 1369 -397 
L 1369 4416 
L 622 4416 
L 622 4863 
L 1947 4863 
z
" transform="scale(0.015625)"/>
      </defs>
      <use xlink:href="#DejaVuSans-54"/>
      <use xlink:href="#DejaVuSans-69" x="57.958984"/>
      <use xlink:href="#DejaVuSans-6d" x="85.742188"/>
      <use xlink:href="#DejaVuSans-65" x="183.154297"/>
      <use xlink:href="#DejaVuSans-20" x="244.677734"/>
      <use xlink:href="#DejaVuSans-5b" x="276.464844"/>
      <use xlink:href="#DejaVuSans-73" x="315.478516"/>
      <use xlink:href="#DejaVuSans-5d" x="367.578125"/>
     </g>
    </g>
   </g>
   <g id="matplotlib.axis_2">
    <g id="ytick_1">
     <g id="line2d_6">
      <defs>
       <path id="mb4b7f86a5f" d="M 0 0 
L -3.5 0 
" style="stroke: #000000; stroke-width: 0.8"/>
      </defs>
      <g>
       <use xlink:href="#mb4b7f86a5f" x="42.620313" y="72.439219" style="stroke: #000000; stroke-width: 0.8"/>
      </g>
     </g>
     <g id="text_7">
      <!-- −5 -->
      <g transform="translate(20.878125 76.238437) scale(0.1 -0.1)">
       <defs>
        <path id="DejaVuSans-2212" d="M 678 2272 
L 4684 2272 
L 4684 1741 
L 678 1741 
L 678 2272 
z
" transform="scale(0.015625)"/>
       </defs>
       <use xlink:href="#DejaVuSans-2212"/>
       <use xlink:href="#DejaVuSans-35" x="83.789062"/>
      </g>
     </g>
    </g>
    <g id="ytick_2">
     <g id="line2d_7">
      <g>
       <use xlink:href="#mb4b7f86a5f" x="42.620313" y="41.719219" style="stroke: #000000; stroke-width: 0.8"/>
      </g>
     </g>
     <g id="text_8">
      <!-- 0 -->
      <g transform="translate(29.257813 45.518437) scale(0.1 -0.1)">
       <use xlink:href="#DejaVuSans-30"/>
      </g>
     </g>
    </g>
    <g id="ytick_3">
     <g id="line2d_8">
      <g>
       <use xlink:href="#mb4b7f86a5f" x="42.620313" y="10.999219" style="stroke: #000000; stroke-width: 0.8"/>
      </g>
     </g>
     <g id="text_9">
      <!-- 5 -->
      <g transform="translate(29.257813 14.798437) scale(0.1 -0.1)">
       <use xlink:href="#DejaVuSans-35"/>
      </g>
     </g>
    </g>
    <g id="text_10">
     <!-- $f$ -->
     <g transform="translate(14.798438 43.519219) rotate(-90) scale(0.1 -0.1)">
      <defs>
       <path id="DejaVuSans-Oblique-66" d="M 3059 4863 
L 2969 4384 
L 2419 4384 
Q 2106 4384 1964 4261 
Q 1822 4138 1753 3809 
L 1691 3500 
L 2638 3500 
L 2553 3053 
L 1606 3053 
L 1013 0 
L 434 0 
L 1031 3053 
L 481 3053 
L 563 3500 
L 1113 3500 
L 1159 3744 
Q 1278 4363 1576 4613 
Q 1875 4863 2516 4863 
L 3059 4863 
z
" transform="scale(0.015625)"/>
      </defs>
      <use xlink:href="#DejaVuSans-Oblique-66" transform="translate(0 0.015625)"/>
     </g>
    </g>
   </g>
   <g id="line2d_9">
    <path d="M 42.620313 27.142793 
L 43.220313 43.955972 
L 43.520313 34.650791 
L 43.820313 46.733567 
L 44.120313 21.232955 
L 44.420313 19.697822 
L 44.720313 9.393717 
L 45.020313 28.725708 
L 45.320313 20.046735 
L 45.620313 42.205337 
L 45.920313 36.385644 
L 46.220313 71.363251 
L 46.520313 34.633617 
L 46.820313 36.307129 
L 47.120313 33.228464 
L 47.420313 55.755925 
L 47.720313 37.096229 
L 48.020313 39.72034 
L 48.320313 40.241817 
L 48.620313 39.679459 
L 49.220313 47.652247 
L 49.520313 45.629794 
L 49.820313 51.109642 
L 50.120313 34.68936 
L 50.420313 39.452105 
L 50.720313 41.029242 
L 51.020313 23.064841 
L 51.320313 36.416677 
L 51.620313 34.75648 
L 51.920313 60.010068 
L 52.520313 28.604616 
L 52.820313 43.742013 
L 53.120313 39.133647 
L 53.420313 41.327329 
L 53.720313 53.430894 
L 54.320313 18.697346 
L 54.620313 39.090339 
L 54.920313 44.080299 
L 55.520313 22.569177 
L 55.820313 30.22924 
L 56.120313 22.427938 
L 56.420313 30.696764 
L 56.720313 17.192204 
L 57.020313 27.033305 
L 57.320313 12.137798 
L 57.620313 69.258245 
L 57.920313 65.762246 
L 58.220313 50.075001 
L 58.820313 42.943872 
L 59.120313 23.501077 
L 59.420313 59.807209 
L 59.720313 63.548436 
L 60.020313 19.964198 
L 60.320313 19.347178 
L 60.620313 52.764054 
L 60.920313 52.135302 
L 61.220313 78.984468 
L 61.520313 31.345363 
L 61.820313 5.834475 
L 62.120313 49.069202 
L 62.420313 51.311112 
L 62.720313 63.105039 
L 63.020313 42.032039 
L 63.320313 66.830564 
L 63.620313 70.55606 
L 63.920313 58.171599 
L 64.520313 19.526018 
L 65.120313 43.807284 
L 65.420313 69.111181 
L 65.720313 44.934525 
L 66.020313 30.142658 
L 66.320312 59.74742 
L 66.620313 51.662537 
L 66.920313 8.713022 
L 67.220313 38.935682 
L 67.520313 34.707578 
L 67.820312 50.302454 
L 68.120313 40.889063 
L 68.420313 35.988949 
L 68.720313 23.280078 
L 69.020313 31.187133 
L 69.320312 58.63757 
L 69.620313 39.837871 
L 69.920313 51.384927 
L 70.220313 43.363696 
L 70.520313 24.148028 
L 70.820312 39.315776 
L 71.120313 45.418174 
L 71.420313 56.054438 
L 71.720313 31.016965 
L 72.020313 31.676972 
L 72.320312 53.580658 
L 72.620313 25.679898 
L 72.920313 38.588073 
L 73.220313 4.734928 
L 73.520313 26.327962 
L 73.820312 70.054637 
L 74.120313 18.201886 
L 74.420313 42.181284 
L 74.720313 53.389825 
L 75.020313 22.39328 
L 75.320312 15.685751 
L 75.920313 34.973014 
L 76.220313 39.434606 
L 76.520313 16.981586 
L 76.820312 31.634238 
L 77.120313 37.853655 
L 77.420313 35.288449 
L 77.720313 36.474339 
L 78.320312 48.515404 
L 78.620313 65.383451 
L 78.920313 32.807389 
L 79.220313 31.301827 
L 79.520313 32.861987 
L 79.820312 62.365277 
L 80.120313 60.027915 
L 80.420313 30.278958 
L 80.720313 36.981824 
L 81.020313 54.851817 
L 81.320312 35.120545 
L 81.620313 33.335702 
L 81.920313 69.659028 
L 82.220313 38.56873 
L 82.520313 68.304785 
L 82.820312 20.083544 
L 83.120313 34.98094 
L 83.420313 36.899234 
L 83.720313 46.77613 
L 84.020313 38.881672 
L 84.320312 43.05776 
L 84.620313 51.660458 
L 84.920313 33.52192 
L 85.220313 51.636862 
L 85.820312 28.988413 
L 86.120313 48.995228 
L 86.720313 40.040009 
L 87.020313 50.932623 
L 87.320313 15.122342 
L 87.620313 56.325037 
L 87.920313 39.462167 
L 88.520313 50.178557 
L 88.820313 39.406059 
L 89.420313 63.278066 
L 89.720313 26.883873 
L 90.020313 28.166122 
L 90.320313 52.029023 
L 90.920313 64.97744 
L 91.220313 62.625034 
L 91.520313 37.274527 
L 92.120313 51.161375 
L 92.420313 44.773302 
L 92.720313 28.393487 
L 93.020313 58.409322 
L 93.320313 21.027434 
L 93.620313 22.90393 
L 93.920313 49.89237 
L 94.220313 54.772696 
L 94.520313 28.799471 
L 94.820313 40.647032 
L 95.120313 63.712972 
L 95.420313 33.094867 
L 95.720313 38.743613 
L 96.020313 13.370757 
L 96.320313 6.098758 
L 96.620313 31.099783 
L 96.920313 33.777693 
L 97.206045 -1 
M 97.230397 -1 
L 97.520313 48.919782 
L 97.820313 -0.320332 
L 98.120313 36.208666 
L 98.420313 43.617728 
L 99.020313 18.438549 
L 99.320313 57.946388 
L 99.620313 44.164157 
L 99.920313 60.968664 
L 100.220313 16.063519 
L 100.520313 41.250453 
L 100.820313 28.634541 
L 101.120313 36.943933 
L 101.420313 34.121485 
L 101.720313 17.560693 
L 102.020313 60.189406 
L 102.620313 22.47674 
L 102.920313 47.997587 
L 103.220313 27.177474 
L 103.520313 25.493027 
L 103.820313 44.076092 
L 104.120313 43.33553 
L 104.420313 64.821997 
L 104.720313 29.744923 
L 105.020313 27.089843 
L 105.320313 54.307884 
L 105.620313 62.500599 
L 105.920313 38.942384 
L 106.520313 57.916877 
L 107.120313 39.609294 
L 107.420313 58.927743 
L 107.720313 27.233348 
L 108.020313 19.438382 
L 108.320312 48.819929 
L 108.620313 57.717109 
L 108.920313 32.041541 
L 109.220313 53.377606 
L 109.520313 24.581188 
L 109.820313 66.314363 
L 110.120313 70.116359 
L 110.420313 70.001879 
L 110.720313 75.190628 
L 111.020313 47.191241 
L 111.320313 52.203895 
L 111.620313 35.451378 
L 112.220313 71.616413 
L 112.520313 36.662646 
L 112.820313 52.466937 
L 113.120313 44.946691 
L 113.420313 68.407571 
L 113.720313 27.327329 
L 114.320313 80.746494 
L 114.620313 18.21405 
L 115.220313 8.429567 
L 115.520313 38.766143 
L 115.820313 33.591251 
L 116.120313 31.202522 
L 116.420313 31.52009 
L 116.720313 64.350411 
L 117.020313 21.071576 
L 117.320313 41.490839 
L 117.920313 30.50198 
L 118.520313 59.126571 
L 118.820313 44.112865 
L 119.120313 66.487855 
L 119.720313 30.276901 
L 120.020313 53.770948 
L 120.320313 38.582767 
L 120.620313 52.343258 
L 120.920313 33.237743 
L 121.220313 33.251001 
L 121.520313 49.047869 
L 121.820313 48.003451 
L 122.120313 22.523361 
L 122.420313 11.75964 
L 122.720313 18.186774 
L 123.320313 54.350023 
L 123.620313 55.596085 
L 123.920313 53.023652 
L 124.220313 33.581537 
L 124.520313 31.727861 
L 124.820313 38.344558 
L 125.120313 56.623916 
L 125.720313 23.452192 
L 126.020313 23.967217 
L 126.320313 53.11844 
L 126.620313 45.491256 
L 126.920313 0.012233 
L 127.220313 14.010602 
L 127.520313 37.515016 
L 127.820313 18.60339 
L 128.120313 71.46542 
L 128.420313 19.959403 
L 128.720313 34.114381 
L 129.020313 33.870712 
L 129.320313 7.503419 
L 129.620313 62.254752 
L 129.920313 32.202651 
L 130.220313 43.11649 
L 130.520313 47.913344 
L 130.820313 44.444558 
L 131.120313 43.513891 
L 131.420313 64.620246 
L 131.720313 57.345956 
L 132.020313 39.808307 
L 132.320313 52.776144 
L 132.620313 39.344647 
L 132.920313 47.952628 
L 133.220313 52.79152 
L 133.520313 49.0545 
L 133.820313 48.097761 
L 134.120313 40.007897 
L 134.420313 41.913516 
L 134.720313 33.980638 
L 135.020313 39.519753 
L 135.320313 42.589684 
L 135.620313 59.335516 
L 135.920313 54.02023 
L 136.220313 55.733471 
L 136.520313 7.43842 
L 137.420313 58.639443 
L 137.720313 45.971057 
L 138.020313 42.859445 
L 138.320313 3.17597 
L 138.620313 40.460172 
L 138.920313 29.566083 
L 139.220313 32.229263 
L 139.820313 63.846884 
L 140.120313 70.214154 
L 140.420313 57.227866 
L 140.720313 52.69717 
L 141.020313 24.398596 
L 141.320313 44.128646 
L 141.620313 52.526308 
L 141.920313 48.586289 
L 142.220313 56.765315 
L 142.520313 48.944362 
L 142.820313 59.962145 
L 143.120313 64.249758 
L 143.420313 15.487192 
L 143.720313 22.505348 
L 144.020313 38.494453 
L 144.320313 14.527288 
L 144.620313 20.687416 
L 144.920313 47.18747 
L 145.220313 41.52573 
L 145.520313 45.706352 
L 145.820313 44.684403 
L 146.120313 1.436094 
L 146.420313 51.533323 
L 146.720313 15.588517 
L 147.320313 45.108848 
L 147.620313 36.368911 
L 147.920313 34.10732 
L 148.220313 19.34648 
L 148.520313 23.83726 
L 148.820313 44.011768 
L 149.120313 22.446884 
L 149.420313 43.606643 
L 149.720313 53.231903 
L 150.020313 57.760079 
L 150.320313 50.110535 
L 150.620313 64.498491 
L 150.920313 41.069568 
L 151.220313 61.219028 
L 151.520313 14.946148 
L 151.820313 61.514931 
L 152.120313 61.742595 
L 152.420313 61.638829 
L 152.720313 20.553935 
L 153.020313 44.286145 
L 153.320313 18.066424 
L 153.620313 57.040947 
L 153.920313 43.963504 
L 154.220313 57.359909 
L 154.520313 40.757123 
L 154.820313 53.976352 
L 155.120313 43.825828 
L 155.420313 55.289616 
L 155.720313 71.959693 
L 156.020313 18.904118 
L 156.320313 38.316473 
L 156.620313 38.038986 
L 156.920313 64.776223 
L 157.520313 39.725197 
L 157.820313 35.683648 
L 158.120313 20.728931 
L 158.420313 69.754727 
L 158.720313 29.156729 
L 159.020313 25.704041 
L 159.320313 49.085758 
L 159.620313 33.945993 
L 159.920313 40.333473 
L 160.220313 58.262281 
L 160.520313 68.079378 
L 160.820313 61.735462 
L 161.120313 45.856469 
L 161.720313 59.737996 
L 162.020313 45.932625 
L 162.320313 58.263088 
L 162.920313 38.710343 
L 163.220313 73.197621 
L 163.820313 47.966552 
L 164.120313 54.652997 
L 164.420313 48.684162 
L 164.720313 30.289865 
L 165.020313 44.890229 
L 165.320313 31.3981 
L 165.620313 32.726377 
L 165.920313 50.997501 
L 166.220313 44.551443 
L 166.520313 41.821166 
L 166.820313 30.246545 
L 167.120313 54.797435 
L 167.420313 47.848066 
L 167.720313 -0.196644 
L 168.020313 42.64382 
L 168.320313 18.24428 
L 168.620313 24.864198 
L 168.920313 39.048912 
L 169.220313 33.516331 
L 169.520313 39.181884 
L 169.820313 21.295358 
L 170.120313 21.926662 
L 170.420313 35.991572 
L 170.720313 13.221111 
L 171.020313 54.24012 
L 171.320313 48.207013 
L 171.620313 35.444945 
L 171.920313 7.274604 
L 172.220313 39.965862 
L 172.520313 31.749593 
L 172.820313 35.105112 
L 173.120313 49.283276 
L 173.420313 51.381193 
L 173.720313 30.232959 
L 174.020313 33.072845 
L 174.320313 44.512193 
L 174.620313 9.757289 
L 174.920313 54.445617 
L 175.220313 69.938622 
L 175.820313 29.627145 
L 176.120313 19.816779 
L 176.420313 27.522144 
L 176.720313 69.915205 
L 177.020313 35.853113 
L 177.320313 25.593188 
L 177.620313 29.338372 
L 177.920313 13.951112 
L 178.220313 41.458137 
L 178.520313 5.602449 
L 179.120313 55.131996 
L 179.420313 57.572786 
L 179.720313 56.46804 
L 180.020313 19.918756 
L 180.320313 43.559312 
L 180.620313 33.397538 
L 180.920313 36.465609 
L 181.220313 52.050767 
L 181.520313 38.210511 
L 181.820313 45.483649 
L 182.120313 26.942643 
L 182.420313 60.31222 
L 182.720313 53.380373 
L 183.020313 76.915104 
L 183.320313 57.931104 
L 183.620313 61.014063 
L 183.920313 66.341348 
L 184.220313 27.651637 
L 184.520313 64.800679 
L 184.820313 57.702273 
L 185.120313 41.043601 
L 185.420313 31.919681 
L 185.720313 50.337436 
L 186.020313 44.018851 
L 186.320313 56.50889 
L 186.620313 51.723853 
L 186.920313 29.781922 
L 187.220313 51.185165 
L 187.520313 50.591245 
L 187.820313 31.550414 
L 188.120313 33.92423 
L 188.420313 37.988078 
L 188.720313 9.458152 
L 189.020313 36.234189 
L 189.320313 27.534375 
L 189.620313 75.206757 
L 190.220313 24.913375 
L 190.520313 45.871554 
L 190.820313 36.599105 
L 191.120313 40.805223 
L 191.420313 49.608434 
L 191.720313 39.057514 
L 192.020313 57.673732 
L 192.320313 23.508088 
L 192.620313 50.75881 
L 192.920313 46.485887 
L 193.220313 34.965721 
L 193.520313 17.23767 
L 193.820313 43.844295 
L 194.120313 37.092167 
L 194.420313 38.305117 
L 195.020313 67.664087 
L 195.320313 10.715355 
L 195.920313 48.883014 
L 196.520313 39.131041 
L 196.820313 37.772554 
L 197.120313 38.751315 
L 197.420313 12.355742 
L 198.020313 62.140803 
L 198.320313 26.042341 
L 198.620313 17.814905 
L 198.920313 22.421671 
L 199.220313 39.677669 
L 199.520313 16.473892 
L 199.820313 35.637045 
L 200.120313 18.08219 
L 200.420313 31.21054 
L 200.720313 39.209221 
L 201.020313 59.600178 
L 201.320313 43.793175 
L 201.620313 48.507219 
L 201.920313 36.205426 
L 202.220313 37.568108 
L 202.820313 88.401086 
L 203.120313 38.842756 
L 203.420313 43.619646 
L 203.720313 52.564253 
L 204.020313 68.190472 
L 204.320313 20.832874 
L 204.620313 83.656662 
L 204.920313 44.60303 
L 205.220313 35.225932 
L 205.520313 52.596595 
L 205.820313 59.221781 
L 206.120313 60.329987 
L 206.420313 54.076115 
L 206.720313 62.503215 
L 207.020313 77.685315 
L 207.320313 49.005512 
L 207.620313 37.602232 
L 207.920313 34.360506 
L 208.220313 33.654792 
L 208.520313 35.489428 
L 208.820313 44.965164 
L 209.120313 29.633921 
L 209.420313 41.701303 
L 209.720313 46.727261 
L 210.020313 47.894453 
L 210.320313 39.833423 
L 210.920313 42.979978 
L 211.220313 23.389227 
L 211.520313 43.073013 
L 212.120313 33.933571 
L 212.420313 31.916743 
L 212.720313 58.612431 
L 213.020313 36.529698 
L 213.320313 52.288646 
L 213.620313 77.984021 
L 213.920313 57.301238 
L 214.220313 58.533438 
L 214.520313 65.018835 
L 214.820313 91.936864 
L 215.120313 33.28586 
L 215.720313 64.497477 
L 216.020313 16.937069 
L 216.320313 46.402835 
L 216.620313 39.32888 
L 216.920313 21.946088 
L 217.220313 36.714871 
L 217.520313 35.413549 
L 217.820313 24.747307 
L 218.120313 22.757485 
L 218.420313 35.741875 
L 218.720313 42.745585 
L 219.020313 13.192305 
L 219.320313 19.19592 
L 219.620313 11.278801 
L 219.920313 19.945732 
L 220.220313 33.822449 
L 220.520313 27.119733 
L 220.820313 24.647528 
L 221.120313 51.396035 
L 221.420313 58.431267 
L 221.720313 39.248082 
L 222.020313 65.84107 
L 222.320313 54.138754 
L 222.620313 49.412695 
L 222.920313 36.44627 
L 223.220313 43.661443 
L 223.520313 44.781623 
L 223.820313 2.847661 
L 224.120313 50.141518 
L 224.420313 41.698993 
L 224.720313 20.710788 
L 225.020313 38.152039 
L 225.320313 69.710077 
L 225.620313 69.062254 
L 225.920313 74.085157 
L 226.220313 51.285549 
L 226.520313 49.860178 
L 226.820313 35.505939 
L 227.720313 50.793144 
L 228.020313 33.983491 
L 228.320313 53.004836 
L 228.620313 39.80324 
L 228.920313 50.471644 
L 229.220313 34.538183 
L 229.520313 45.334417 
L 229.820313 65.921338 
L 230.120313 45.44208 
L 230.420313 39.372142 
L 230.720313 36.276681 
L 231.020313 72.707092 
L 231.620313 19.858816 
L 231.920313 23.685135 
L 232.220313 31.844083 
L 232.520313 63.421885 
L 232.820313 81.18829 
L 233.120313 13.73681 
L 233.420313 69.735044 
L 234.020313 29.039589 
L 234.320313 65.793131 
L 234.620313 43.32245 
L 234.920313 68.834444 
L 235.820313 35.032949 
L 236.120313 43.506201 
L 236.420313 66.79275 
L 236.720313 20.311022 
L 237.320313 39.429552 
L 237.620313 24.967116 
L 237.920313 58.224948 
L 238.520313 11.155922 
L 239.120313 46.290716 
L 239.420313 20.902718 
L 239.720313 31.328229 
L 240.020313 23.542434 
L 240.320313 48.580953 
L 240.620313 38.254727 
L 240.920313 49.195038 
L 241.220313 49.94821 
L 241.520313 44.521554 
L 241.820313 21.107011 
L 242.120313 25.384403 
L 242.720313 54.587373 
L 243.020313 40.144453 
L 243.620313 56.070409 
L 243.920313 51.532565 
L 244.220313 21.56964 
L 244.520313 36.923553 
L 244.820313 43.384504 
L 245.120313 31.381217 
L 245.420313 29.897919 
L 245.720313 19.520626 
L 246.020313 26.231163 
L 246.920313 58.926751 
L 247.220313 42.691949 
L 247.520313 17.284654 
L 247.820313 10.275257 
L 248.120313 22.997782 
L 248.420313 25.630526 
L 248.720313 17.53486 
L 249.020313 33.520208 
L 249.320313 14.375806 
L 249.620313 43.384935 
L 249.920313 31.681654 
L 250.220313 43.949853 
L 250.520313 43.243871 
L 250.820313 41.534472 
L 251.120313 48.37582 
L 251.420313 28.254826 
L 251.720313 39.178259 
L 252.020313 54.243829 
L 252.320313 33.028681 
L 252.620313 46.64991 
L 252.920313 53.586495 
L 253.220313 53.505068 
L 253.520313 34.650195 
L 253.820313 57.006322 
L 254.120313 31.953452 
L 254.420313 63.550204 
L 254.720313 73.417821 
L 255.020313 60.904323 
L 255.320313 40.476082 
L 255.620313 61.32765 
L 255.920313 44.795881 
L 256.220313 51.461276 
L 256.520313 48.867388 
L 256.820313 38.350315 
L 257.120313 19.003663 
L 257.420313 59.437011 
L 257.720313 62.059917 
L 258.020313 46.431197 
L 258.320313 62.484391 
L 258.620313 48.696654 
L 258.920313 56.456476 
L 259.220313 51.931644 
L 259.520313 38.996325 
L 259.820313 59.316505 
L 260.120313 37.750511 
L 260.420313 46.937519 
L 261.020313 36.446336 
L 261.320313 42.940885 
L 261.620313 23.119352 
L 261.920313 30.884951 
L 262.220313 48.234808 
L 262.820313 16.073828 
L 263.120313 25.061884 
L 263.420313 69.52636 
L 263.720313 42.726427 
L 264.020313 61.633252 
L 264.320313 59.97774 
L 264.620313 66.205664 
L 264.920313 63.6415 
L 265.220313 42.154006 
L 265.520313 70.628411 
L 265.820313 23.240094 
L 266.420313 68.029847 
L 266.720313 69.473257 
L 267.020313 17.37422 
L 267.320313 43.138244 
L 267.620313 5.53341 
L 267.920313 18.784143 
L 268.520313 63.777456 
L 268.820313 31.100517 
L 269.120313 45.740271 
L 269.420313 27.719976 
L 269.720313 38.476727 
L 270.020313 18.068321 
L 270.320313 26.916144 
L 270.620313 44.066082 
L 270.920313 44.774563 
L 271.220313 47.504625 
L 271.512296 -1 
M 271.532743 -1 
L 271.820313 29.808776 
L 272.120313 23.142674 
L 272.420313 43.82759 
L 272.720313 26.274657 
L 273.020313 51.973042 
L 273.320313 56.168666 
L 273.620313 40.368251 
L 273.920313 40.247302 
L 274.220313 43.854551 
L 274.520313 50.652169 
L 274.820313 30.534652 
L 275.120313 48.180356 
L 275.420313 52.873694 
L 275.720313 32.165424 
L 276.020313 77.496101 
L 276.320313 47.311464 
L 276.620313 65.521261 
L 276.920313 76.010262 
L 277.220313 40.058003 
L 277.520313 44.153021 
L 277.820313 36.39414 
L 278.120313 15.870895 
L 278.420313 14.114187 
L 278.720313 32.952901 
L 279.320313 35.690099 
L 279.620313 41.301858 
L 279.920313 42.878028 
L 280.220313 49.472973 
L 280.520313 37.46576 
L 280.820313 51.229917 
L 281.120313 31.492433 
L 281.420313 26.187647 
L 281.720313 71.04272 
L 282.020313 70.47484 
L 282.320313 28.896742 
L 282.620313 62.802637 
L 282.920313 42.511311 
L 283.220313 48.038798 
L 283.520313 34.67831 
L 283.820313 42.545646 
L 284.120313 43.867921 
L 284.420313 52.695007 
L 284.720313 49.181872 
L 285.020313 73.074456 
L 285.320313 63.984986 
L 285.620313 60.260154 
L 285.920313 59.762715 
L 286.220313 62.296789 
L 286.520313 46.670948 
L 286.820313 67.594812 
L 287.420313 51.22999 
L 287.720313 16.957156 
L 288.020313 30.207261 
L 288.320313 31.943133 
L 288.620313 8.643666 
L 288.920313 38.926951 
L 289.520313 33.094915 
L 289.820313 48.786033 
L 290.120313 17.339882 
L 290.420313 29.534962 
L 290.720313 29.34277 
L 291.020313 28.298115 
L 291.320313 49.248696 
L 292.220313 15.339164 
L 292.520313 30.449628 
L 292.820313 36.672015 
L 293.095499 -1 
M 293.176327 -1 
L 293.420313 13.796087 
L 293.720313 15.75375 
L 294.020313 1.791671 
L 294.320313 33.844611 
L 294.620313 39.406787 
L 294.920313 51.488204 
L 295.220313 28.088995 
L 295.820313 53.435554 
L 296.120313 36.669298 
L 296.420313 52.800923 
L 296.720313 56.730908 
L 297.020313 26.582708 
L 297.320313 45.67475 
L 297.620313 4.81433 
L 297.920313 46.188021 
L 298.220313 16.45689 
L 298.520313 35.073521 
L 298.820313 72.911694 
L 299.120313 26.520366 
L 299.420313 79.835404 
L 299.720313 37.666 
L 300.320313 34.273059 
L 300.620313 49.485192 
L 301.220313 22.602296 
L 301.520313 32.504609 
L 301.820313 52.596391 
L 302.120313 58.599426 
L 302.420313 27.876996 
L 302.720313 50.464547 
L 303.020313 39.008402 
L 303.320313 54.317113 
L 303.620313 51.868188 
L 303.920313 83.407133 
L 304.220313 69.278298 
L 304.520313 41.435043 
L 304.820313 43.693322 
L 305.120313 76.329778 
L 305.420313 43.715902 
L 305.720313 66.448993 
L 306.020313 21.072188 
L 306.320313 52.712383 
L 306.620313 57.185308 
L 306.920313 57.652855 
L 307.220313 72.117493 
L 307.820313 42.790403 
L 308.120313 35.377225 
L 308.420313 43.555502 
L 308.720313 62.700938 
L 309.020313 45.28744 
L 309.320313 59.434736 
L 309.920313 26.247058 
L 310.520313 51.007766 
L 310.820313 31.692641 
L 311.120313 26.778436 
L 311.420313 25.007532 
L 311.720313 2.93919 
L 312.020313 41.085964 
L 312.320313 44.257485 
L 312.620313 14.088794 
L 312.920313 23.126989 
L 313.220313 38.00499 
L 313.520313 41.742685 
L 313.820313 27.183267 
L 314.120313 27.210614 
L 314.420313 28.4053 
L 314.720313 52.245884 
L 315.020313 35.57915 
L 315.320313 46.219039 
L 315.620313 45.383766 
L 315.920313 30.409499 
L 316.220313 58.907285 
L 316.520313 55.809565 
L 316.820313 40.741266 
L 317.120313 44.760199 
L 317.420313 21.857638 
L 317.720313 42.315687 
L 318.020313 39.832832 
L 318.320313 23.238955 
L 318.620313 13.182725 
L 318.920313 27.758489 
L 319.220313 67.702963 
L 319.520313 30.408359 
L 319.820313 49.549778 
L 320.120313 55.322032 
L 320.420313 27.816054 
L 320.720313 38.213222 
L 321.620313 17.849478 
L 321.920313 28.961547 
L 322.220313 49.208923 
L 322.520313 42.022286 
L 322.820313 59.431008 
L 323.120313 45.881396 
L 323.720313 38.803102 
L 324.020313 31.256398 
L 324.320313 19.753269 
L 324.620313 53.534839 
L 324.920313 41.366828 
L 325.220313 43.753622 
L 325.520313 36.396802 
L 325.820313 38.122583 
L 326.120313 51.200409 
L 326.420313 71.347538 
L 327.020313 29.83248 
L 327.320313 46.968666 
L 327.620313 27.445121 
L 327.920313 45.174121 
L 328.220313 80.781397 
L 328.520313 66.919881 
L 328.820313 39.75789 
L 329.120313 39.407409 
L 329.420313 48.890911 
L 329.720313 78.198953 
L 330.020313 56.179988 
L 330.320313 24.972212 
L 330.620313 40.881122 
L 330.920313 67.753808 
L 331.220313 53.280415 
L 331.520313 52.554953 
L 331.820313 52.299173 
L 332.120313 68.490163 
L 332.420313 49.206409 
L 332.720313 54.259881 
L 333.020313 33.806693 
L 333.320313 46.2916 
L 333.620313 46.378785 
L 333.920313 63.98551 
L 334.220313 29.769377 
L 334.520313 32.854017 
L 334.820313 61.799523 
L 335.120313 59.604926 
L 335.420313 33.450139 
L 335.720313 55.440796 
L 336.020313 48.398977 
L 336.320313 65.995748 
L 336.620313 47.936626 
L 336.920313 50.653788 
L 337.220313 25.1297 
L 337.520313 58.227829 
L 337.820313 63.26392 
L 338.120313 22.57865 
L 338.420313 48.208782 
L 338.720313 39.366709 
L 339.020313 63.524037 
L 339.320313 64.524887 
L 339.920313 28.738759 
L 340.220313 54.118491 
L 340.520313 22.19218 
L 340.820313 41.442177 
L 341.120313 31.211492 
L 341.420313 42.625722 
L 341.720313 37.671641 
L 342.020313 35.568273 
L 342.320313 39.40299 
L 342.620313 18.241876 
L 342.920313 62.049454 
L 343.220313 33.823498 
L 343.520313 24.625567 
L 343.820313 30.555543 
L 344.120313 30.376323 
L 344.420313 39.91054 
L 344.720313 35.558157 
L 345.020313 13.038635 
L 345.320313 44.734986 
L 345.620313 43.079787 
L 345.920313 55.935289 
L 346.220313 48.674578 
L 346.520313 51.578628 
L 346.820313 36.339454 
L 347.120313 55.685757 
L 347.420313 52.393157 
L 347.720313 28.056627 
L 348.020313 49.663569 
L 348.320313 29.705042 
L 348.620313 19.961299 
L 348.920313 14.818028 
L 349.220313 50.012471 
L 349.520313 26.471685 
L 349.520313 26.471685 
" clip-path="url(#p44733df572)" style="fill: none; stroke-dasharray: 1.5,2.475; stroke-dashoffset: 0; stroke: #1f77b4; stroke-width: 1.5"/>
   </g>
   <g id="line2d_10">
    <path d="M 42.620313 41.719219 
L 43.820313 35.737636 
L 44.420313 33.502562 
L 45.020313 32.067038 
L 45.320313 31.685609 
L 45.620313 31.534018 
L 45.920313 31.607577 
L 46.220313 31.89469 
L 46.820313 33.031542 
L 47.720313 35.717383 
L 49.220313 40.460525 
L 49.820313 41.67722 
L 50.420313 42.245049 
L 50.720313 42.268684 
L 51.020313 42.123276 
L 51.620313 41.378121 
L 52.520313 39.469373 
L 53.720313 36.787932 
L 54.320313 36.002216 
L 54.620313 35.848714 
L 54.920313 35.880956 
L 55.220313 36.110993 
L 55.520313 36.544191 
L 56.120313 38.006776 
L 56.720313 40.173957 
L 57.920313 45.770387 
L 59.120313 51.084533 
L 59.720313 52.892963 
L 60.320313 53.844046 
L 60.620313 53.962382 
L 60.920313 53.837463 
L 61.220313 53.474457 
L 61.820313 52.089628 
L 62.420313 49.981059 
L 65.120313 39.019418 
L 65.720313 37.843242 
L 66.020313 37.544056 
L 66.320312 37.436726 
L 66.620313 37.512181 
L 66.920313 37.754949 
L 67.520313 38.652319 
L 69.620313 42.802989 
L 69.920313 43.086209 
L 70.220313 43.213242 
L 70.520313 43.17004 
L 70.820312 42.949011 
L 71.420313 41.97701 
L 72.020313 40.371555 
L 72.920313 37.1765 
L 74.120313 32.86743 
L 74.720313 31.350973 
L 75.320312 30.586747 
L 75.620313 30.536275 
L 75.920313 30.720507 
L 76.220313 31.14087 
L 76.820312 32.659941 
L 77.420313 34.965502 
L 78.620313 40.975278 
L 79.820312 46.798761 
L 80.420313 48.9078 
L 81.020313 50.214426 
L 81.320312 50.538655 
L 81.620313 50.64245 
L 81.920313 50.533793 
L 82.220313 50.227323 
L 82.820312 49.10921 
L 83.720313 46.619464 
L 84.920313 43.261413 
L 85.520313 42.156135 
L 85.820312 41.829873 
L 86.120313 41.67114 
L 86.420313 41.68415 
L 86.720313 41.866315 
L 87.320313 42.694577 
L 87.920313 44.008666 
L 89.720313 48.395801 
L 90.320313 49.098043 
L 90.620313 49.179044 
L 90.920313 49.057761 
L 91.220313 48.725573 
L 91.820313 47.428669 
L 92.420313 45.358284 
L 93.320313 41.206133 
L 94.820313 33.863728 
L 95.420313 31.675762 
L 96.020313 30.288311 
L 96.320313 29.9398 
L 96.620313 29.831907 
L 96.920313 29.963528 
L 97.220313 30.326417 
L 97.820313 31.679357 
L 98.420313 33.698893 
L 100.820313 42.809122 
L 101.420313 44.016681 
L 101.720313 44.347028 
L 102.020313 44.492009 
L 102.320313 44.457868 
L 102.620313 44.2574 
L 103.220313 43.438235 
L 104.420313 40.937749 
L 105.020313 39.798665 
L 105.620313 39.08197 
L 105.920313 38.946096 
L 106.220313 38.982426 
L 106.520313 39.201183 
L 107.120313 40.193221 
L 107.720313 41.868482 
L 108.620313 45.296403 
L 110.120313 51.212279 
L 110.720313 52.789282 
L 111.020313 53.284111 
L 111.320313 53.55593 
L 111.620313 53.592339 
L 111.920313 53.387926 
L 112.220313 52.944475 
L 112.820313 51.383135 
L 113.420313 49.059479 
L 114.620313 43.147482 
L 115.820313 37.611176 
L 116.420313 35.684688 
L 117.020313 34.554414 
L 117.320313 34.307186 
L 117.620313 34.268228 
L 117.920313 34.426246 
L 118.520313 35.257028 
L 119.420313 37.374755 
L 120.620313 40.391619 
L 121.220313 41.385223 
L 121.520313 41.66484 
L 121.820313 41.780088 
L 122.120313 41.72433 
L 122.420313 41.4977 
L 123.020313 40.56602 
L 123.620313 39.11597 
L 125.420313 34.059144 
L 126.020313 33.065987 
L 126.320313 32.836481 
L 126.620313 32.811411 
L 126.920313 33.002808 
L 127.220313 33.415885 
L 127.820313 34.892616 
L 128.420313 37.143562 
L 129.320313 41.515683 
L 130.820313 48.987426 
L 131.420313 51.150837 
L 132.020313 52.49384 
L 132.320313 52.82004 
L 132.620313 52.909817 
L 132.920313 52.76746 
L 133.220313 52.404242 
L 133.820313 51.092514 
L 134.720313 48.088639 
L 136.220313 42.70215 
L 136.820313 41.21245 
L 137.420313 40.379469 
L 137.720313 40.230053 
L 138.020313 40.256228 
L 138.320313 40.447767 
L 138.920313 41.255314 
L 139.820313 43.128972 
L 140.720313 45.002053 
L 141.320313 45.799433 
L 141.620313 45.977519 
L 141.920313 45.98137 
L 142.220313 45.798013 
L 142.520313 45.421055 
L 143.120313 44.095169 
L 143.720313 42.089321 
L 144.920313 36.855383 
L 146.120313 31.915658 
L 146.720313 30.291271 
L 147.020313 29.790835 
L 147.320313 29.521986 
L 147.620313 29.494152 
L 147.920313 29.709621 
L 148.220313 30.163461 
L 148.820313 31.731557 
L 149.420313 34.026044 
L 152.120313 45.785116 
L 152.720313 47.091961 
L 153.020313 47.443692 
L 153.320313 47.593585 
L 153.620313 47.549722 
L 153.920313 47.326707 
L 154.520313 46.430598 
L 155.420313 44.404027 
L 156.320313 42.383224 
L 156.920313 41.47896 
L 157.220313 41.237315 
L 157.520313 41.158488 
L 157.820313 41.251535 
L 158.120313 41.518805 
L 158.720313 42.551449 
L 159.320313 44.142699 
L 161.420313 50.687445 
L 162.020313 51.683202 
L 162.320313 51.886711 
L 162.620313 51.871222 
L 162.920313 51.627861 
L 163.220313 51.154778 
L 163.820313 49.547647 
L 164.420313 47.174187 
L 165.620313 41.078772 
L 166.820313 35.235128 
L 167.420313 33.146641 
L 168.020313 31.886882 
L 168.320313 31.597496 
L 168.620313 31.536922 
L 168.920313 31.697668 
L 169.220313 32.065488 
L 169.820313 33.334987 
L 170.720313 36.122614 
L 171.920313 39.987959 
L 172.520313 41.375699 
L 173.120313 42.147342 
L 173.420313 42.275263 
L 173.720313 42.230297 
L 174.020313 42.020179 
L 174.620313 41.167157 
L 175.520313 39.179822 
L 176.420313 37.124109 
L 177.020313 36.17612 
L 177.320313 35.919562 
L 177.620313 35.838501 
L 177.920313 35.948781 
L 178.220313 36.259825 
L 178.820313 37.487637 
L 179.420313 39.459645 
L 180.320313 43.425753 
L 181.820313 50.402527 
L 182.420313 52.433096 
L 183.020313 53.656834 
L 183.320313 53.920602 
L 183.620313 53.941477 
L 183.920313 53.720302 
L 184.220313 53.265096 
L 184.820313 51.718654 
L 185.720313 48.208405 
L 187.520313 40.475013 
L 188.120313 38.724125 
L 188.720313 37.700244 
L 189.020313 37.478461 
L 189.320313 37.445703 
L 189.620313 37.59028 
L 190.220313 38.334428 
L 191.120313 40.174106 
L 192.020313 42.07679 
L 192.620313 42.933866 
L 192.920313 43.15669 
L 193.220313 43.216963 
L 193.520313 43.103168 
L 193.820313 42.810393 
L 194.420313 41.702372 
L 195.020313 39.988165 
L 197.720313 31.131881 
L 198.020313 30.726432 
L 198.320313 30.538783 
L 198.620313 30.581563 
L 198.920313 30.860478 
L 199.220313 31.374083 
L 199.820313 33.064052 
L 200.420313 35.502739 
L 201.920313 43.163966 
L 202.820313 47.277481 
L 203.420313 49.237343 
L 204.020313 50.370792 
L 204.320313 50.606332 
L 204.620313 50.623806 
L 204.920313 50.433911 
L 205.520313 49.506451 
L 206.120313 48.025782 
L 207.920313 42.997075 
L 208.520313 42.006078 
L 208.820313 41.745888 
L 209.120313 41.655727 
L 209.420313 41.73709 
L 209.720313 41.984683 
L 210.320313 42.924814 
L 211.220313 45.098432 
L 212.420313 48.066399 
L 213.020313 48.958398 
L 213.320313 49.153887 
L 213.620313 49.155439 
L 213.920313 48.950447 
L 214.220313 48.533023 
L 214.820313 47.072311 
L 215.420313 44.865048 
L 216.620313 39.058153 
L 217.820313 33.371732 
L 218.420313 31.32855 
L 219.020313 30.120262 
L 219.320313 29.867668 
L 219.620313 29.856118 
L 219.920313 30.081628 
L 220.220313 30.533169 
L 220.820313 32.037569 
L 221.720313 35.369105 
L 223.220313 41.370071 
L 223.820313 43.106615 
L 224.420313 44.171181 
L 224.720313 44.427066 
L 225.020313 44.499273 
L 225.320313 44.396713 
L 225.920313 43.734246 
L 226.820313 41.982733 
L 228.020313 39.614221 
L 228.620313 39.007877 
L 228.920313 38.939245 
L 229.220313 39.047687 
L 229.520313 39.340787 
L 230.120313 40.477228 
L 230.720313 42.27338 
L 231.920313 47.066022 
L 232.820313 50.611641 
L 233.420313 52.392967 
L 234.020313 53.420446 
L 234.320313 53.599205 
L 234.620313 53.539535 
L 234.920313 53.238888 
L 235.520313 51.940413 
L 236.120313 49.823744 
L 237.020313 45.608461 
L 238.520313 38.323852 
L 239.120313 36.184102 
L 239.720313 34.804886 
L 240.020313 34.430086 
L 240.320313 34.267095 
L 240.620313 34.30865 
L 240.920313 34.540856 
L 241.520313 35.491934 
L 242.420313 37.695514 
L 243.620313 40.631106 
L 244.220313 41.516093 
L 244.520313 41.731185 
L 244.820313 41.778451 
L 245.120313 41.653946 
L 245.420313 41.360528 
L 246.020313 40.311633 
L 246.920313 37.905668 
L 248.120313 34.471646 
L 248.720313 33.29442 
L 249.020313 32.950693 
L 249.320313 32.801098 
L 249.620313 32.861545 
L 249.920313 33.141381 
L 250.220313 33.643012 
L 250.820313 35.28589 
L 251.420313 37.670725 
L 252.620313 43.731916 
L 253.820313 49.477106 
L 254.420313 51.490037 
L 255.020313 52.652668 
L 255.320313 52.884241 
L 255.620313 52.880252 
L 255.920313 52.647818 
L 256.520313 51.559805 
L 257.120313 49.803466 
L 259.520313 41.595604 
L 260.120313 40.555165 
L 260.420313 40.298252 
L 260.720313 40.219879 
L 261.020313 40.313788 
L 261.620313 40.961238 
L 262.220313 42.070055 
L 263.720313 45.201632 
L 264.320313 45.890486 
L 264.620313 46.000837 
L 264.920313 45.931002 
L 265.220313 45.670591 
L 265.820313 44.570294 
L 266.420313 42.753188 
L 267.320313 39.051298 
L 268.820313 32.541919 
L 269.420313 30.696206 
L 270.020313 29.65482 
L 270.320313 29.48164 
L 270.620313 29.551258 
L 270.920313 29.86307 
L 271.520313 31.175161 
L 272.120313 33.275326 
L 273.320313 38.845014 
L 274.520313 44.20549 
L 275.120313 46.108956 
L 275.720313 47.257108 
L 276.020313 47.527568 
L 276.320313 47.598613 
L 276.620313 47.48099 
L 277.220313 46.753644 
L 277.820313 45.544752 
L 279.320313 42.163572 
L 279.920313 41.363614 
L 280.220313 41.185592 
L 280.520313 41.174798 
L 280.820313 41.337634 
L 281.420313 42.17589 
L 282.020313 43.617316 
L 283.220313 47.519037 
L 284.120313 50.25791 
L 284.720313 51.462181 
L 285.020313 51.790034 
L 285.320313 51.907446 
L 285.620313 51.801485 
L 285.920313 51.466058 
L 286.520313 50.117952 
L 287.120313 47.955192 
L 288.020313 43.630065 
L 289.520313 35.998055 
L 290.120313 33.692718 
L 290.720313 32.170816 
L 291.020313 31.743483 
L 291.320313 31.546073 
L 291.620313 31.575313 
L 291.920313 31.820961 
L 292.520313 32.888282 
L 293.120313 34.547181 
L 295.220313 41.018046 
L 295.820313 41.986908 
L 296.120313 42.219473 
L 296.420313 42.277739 
L 296.720313 42.165414 
L 297.320313 41.476712 
L 297.920313 40.307657 
L 299.720313 36.405503 
L 300.320313 35.865053 
L 300.620313 35.858976 
L 300.920313 36.048806 
L 301.220313 36.441273 
L 301.820313 37.826412 
L 302.420313 39.930373 
L 303.620313 45.476392 
L 304.820313 50.863497 
L 305.420313 52.748114 
L 306.020313 53.791241 
L 306.320313 53.958214 
L 306.620313 53.881763 
L 306.920313 53.565618 
L 307.520313 52.264268 
L 308.120313 50.217729 
L 309.320313 44.931649 
L 310.220313 41.122516 
L 310.820313 39.177834 
L 311.420313 37.926426 
L 311.720313 37.588372 
L 312.020313 37.443184 
L 312.320313 37.483122 
L 312.620313 37.693954 
L 313.220313 38.542431 
L 314.420313 41.111576 
L 315.320313 42.729264 
L 315.920313 43.201095 
L 316.220313 43.19276 
L 316.520313 43.007582 
L 317.120313 42.104769 
L 317.720313 40.556361 
L 318.620313 37.404934 
L 319.820313 33.05212 
L 320.420313 31.472006 
L 321.020313 30.624379 
L 321.320313 30.527765 
L 321.620313 30.664712 
L 321.920313 31.03808 
L 322.520313 32.46971 
L 323.120313 34.705282 
L 324.020313 39.075699 
L 325.520313 46.549849 
L 326.120313 48.730797 
L 326.720313 50.122916 
L 327.020313 50.491577 
L 327.320313 50.639041 
L 327.620313 50.57191 
L 327.920313 50.30353 
L 328.520313 49.246797 
L 329.420313 46.800322 
L 330.620313 43.400699 
L 331.220313 42.240648 
L 331.820313 41.689184 
L 332.120313 41.667834 
L 332.420313 41.816701 
L 333.020313 42.586747 
L 333.620313 43.861366 
L 335.420313 48.29129 
L 336.020313 49.058793 
L 336.320313 49.178632 
L 336.620313 49.098712 
L 336.920313 48.809066 
L 337.520313 47.595181 
L 338.120313 45.595915 
L 339.020313 41.507697 
L 340.820313 32.905047 
L 341.420313 31.015056 
L 342.020313 29.990344 
L 342.320313 29.834185 
L 342.620313 29.918337 
L 342.920313 30.235967 
L 343.520313 31.510222 
L 344.120313 33.474076 
L 346.520313 42.650489 
L 347.120313 43.928299 
L 347.420313 44.295868 
L 347.720313 44.477639 
L 348.020313 44.478502 
L 348.320313 44.309977 
L 348.920313 43.541023 
L 349.520313 42.373039 
L 349.520313 42.373039 
" clip-path="url(#p44733df572)" style="fill: none; stroke: #ff7f0e; stroke-width: 1.5; stroke-linecap: square"/>
   </g>
   <g id="patch_3">
    <path d="M 42.620313 72.439219 
L 42.620313 10.999219 
" style="fill: none; stroke: #000000; stroke-width: 0.8; stroke-linejoin: miter; stroke-linecap: square"/>
   </g>
   <g id="patch_4">
    <path d="M 349.520313 72.439219 
L 349.520313 10.999219 
" style="fill: none; stroke: #000000; stroke-width: 0.8; stroke-linejoin: miter; stroke-linecap: square"/>
   </g>
   <g id="patch_5">
    <path d="M 42.620313 72.439219 
L 349.520313 72.439219 
" style="fill: none; stroke: #000000; stroke-width: 0.8; stroke-linejoin: miter; stroke-linecap: square"/>
   </g>
   <g id="patch_6">
    <path d="M 42.620313 10.999219 
L 349.520313 10.999219 
" style="fill: none; stroke: #000000; stroke-width: 0.8; stroke-linejoin: miter; stroke-linecap: square"/>
   </g>
   <g id="legend_1">
    <g id="patch_7">
     <path d="M 282.140625 48.355469 
L 342.520313 48.355469 
Q 344.520313 48.355469 344.520313 46.355469 
L 344.520313 17.999219 
Q 344.520313 15.999219 342.520313 15.999219 
L 282.140625 15.999219 
Q 280.140625 15.999219 280.140625 17.999219 
L 280.140625 46.355469 
Q 280.140625 48.355469 282.140625 48.355469 
z
" style="fill: #ffffff; opacity: 0.8; stroke: #cccccc; stroke-linejoin: miter"/>
    </g>
    <g id="line2d_11">
     <path d="M 284.140625 24.097656 
L 294.140625 24.097656 
L 304.140625 24.097656 
" style="fill: none; stroke-dasharray: 1.5,2.475; stroke-dashoffset: 0; stroke: #1f77b4; stroke-width: 1.5"/>
    </g>
    <g id="text_11">
     <!-- Noisy -->
     <g transform="translate(312.140625 27.597656) scale(0.1 -0.1)">
      <defs>
       <path id="DejaVuSans-4e" d="M 628 4666 
L 1478 4666 
L 3547 763 
L 3547 4666 
L 4159 4666 
L 4159 0 
L 3309 0 
L 1241 3903 
L 1241 0 
L 628 0 
L 628 4666 
z
" transform="scale(0.015625)"/>
       <path id="DejaVuSans-6f" d="M 1959 3097 
Q 1497 3097 1228 2736 
Q 959 2375 959 1747 
Q 959 1119 1226 758 
Q 1494 397 1959 397 
Q 2419 397 2687 759 
Q 2956 1122 2956 1747 
Q 2956 2369 2687 2733 
Q 2419 3097 1959 3097 
z
M 1959 3584 
Q 2709 3584 3137 3096 
Q 3566 2609 3566 1747 
Q 3566 888 3137 398 
Q 2709 -91 1959 -91 
Q 1206 -91 779 398 
Q 353 888 353 1747 
Q 353 2609 779 3096 
Q 1206 3584 1959 3584 
z
" transform="scale(0.015625)"/>
       <path id="DejaVuSans-79" d="M 2059 -325 
Q 1816 -950 1584 -1140 
Q 1353 -1331 966 -1331 
L 506 -1331 
L 506 -850 
L 844 -850 
Q 1081 -850 1212 -737 
Q 1344 -625 1503 -206 
L 1606 56 
L 191 3500 
L 800 3500 
L 1894 763 
L 2988 3500 
L 3597 3500 
L 2059 -325 
z
" transform="scale(0.015625)"/>
      </defs>
      <use xlink:href="#DejaVuSans-4e"/>
      <use xlink:href="#DejaVuSans-6f" x="74.804688"/>
      <use xlink:href="#DejaVuSans-69" x="135.986328"/>
      <use xlink:href="#DejaVuSans-73" x="163.769531"/>
      <use xlink:href="#DejaVuSans-79" x="215.869141"/>
     </g>
    </g>
    <g id="line2d_12">
     <path d="M 284.140625 38.775781 
L 294.140625 38.775781 
L 304.140625 38.775781 
" style="fill: none; stroke: #ff7f0e; stroke-width: 1.5; stroke-linecap: square"/>
    </g>
    <g id="text_12">
     <!-- Clean -->
     <g transform="translate(312.140625 42.275781) scale(0.1 -0.1)">
      <defs>
       <path id="DejaVuSans-43" d="M 4122 4306 
L 4122 3641 
Q 3803 3938 3442 4084 
Q 3081 4231 2675 4231 
Q 1875 4231 1450 3742 
Q 1025 3253 1025 2328 
Q 1025 1406 1450 917 
Q 1875 428 2675 428 
Q 3081 428 3442 575 
Q 3803 722 4122 1019 
L 4122 359 
Q 3791 134 3420 21 
Q 3050 -91 2638 -91 
Q 1578 -91 968 557 
Q 359 1206 359 2328 
Q 359 3453 968 4101 
Q 1578 4750 2638 4750 
Q 3056 4750 3426 4639 
Q 3797 4528 4122 4306 
z
" transform="scale(0.015625)"/>
       <path id="DejaVuSans-6c" d="M 603 4863 
L 1178 4863 
L 1178 0 
L 603 0 
L 603 4863 
z
" transform="scale(0.015625)"/>
       <path id="DejaVuSans-61" d="M 2194 1759 
Q 1497 1759 1228 1600 
Q 959 1441 959 1056 
Q 959 750 1161 570 
Q 1363 391 1709 391 
Q 2188 391 2477 730 
Q 2766 1069 2766 1631 
L 2766 1759 
L 2194 1759 
z
M 3341 1997 
L 3341 0 
L 2766 0 
L 2766 531 
Q 2569 213 2275 61 
Q 1981 -91 1556 -91 
Q 1019 -91 701 211 
Q 384 513 384 1019 
Q 384 1609 779 1909 
Q 1175 2209 1959 2209 
L 2766 2209 
L 2766 2266 
Q 2766 2663 2505 2880 
Q 2244 3097 1772 3097 
Q 1472 3097 1187 3025 
Q 903 2953 641 2809 
L 641 3341 
Q 956 3463 1253 3523 
Q 1550 3584 1831 3584 
Q 2591 3584 2966 3190 
Q 3341 2797 3341 1997 
z
" transform="scale(0.015625)"/>
       <path id="DejaVuSans-6e" d="M 3513 2113 
L 3513 0 
L 2938 0 
L 2938 2094 
Q 2938 2591 2744 2837 
Q 2550 3084 2163 3084 
Q 1697 3084 1428 2787 
Q 1159 2491 1159 1978 
L 1159 0 
L 581 0 
L 581 3500 
L 1159 3500 
L 1159 2956 
Q 1366 3272 1645 3428 
Q 1925 3584 2291 3584 
Q 2894 3584 3203 3211 
Q 3513 2838 3513 2113 
z
" transform="scale(0.015625)"/>
      </defs>
      <use xlink:href="#DejaVuSans-43"/>
      <use xlink:href="#DejaVuSans-6c" x="69.824219"/>
      <use xlink:href="#DejaVuSans-65" x="97.607422"/>
      <use xlink:href="#DejaVuSans-61" x="159.130859"/>
      <use xlink:href="#DejaVuSans-6e" x="220.410156"/>
     </g>
    </g>
   </g>
  </g>
 </g>
 <defs>
  <clipPath id="p44733df572">
   <rect x="42.620313" y="10.999219" width="306.9" height="61.44"/>
  </clipPath>
 </defs>
</svg>
