<?xml version="1.0" encoding="utf-8" standalone="no"?>
<!DOCTYPE svg PUBLIC "-//W3C//DTD SVG 1.1//EN"
  "http://www.w3.org/Graphics/SVG/1.1/DTD/svg11.dtd">
<svg xmlns:xlink="http://www.w3.org/1999/xlink" width="208.44pt" height="220.169738pt" viewBox="0 0 208.44 220.169738" xmlns="http://www.w3.org/2000/svg" version="1.1">
 <metadata>
  <rdf:RDF xmlns:dc="http://purl.org/dc/elements/1.1/" xmlns:cc="http://creativecommons.org/ns#" xmlns:rdf="http://www.w3.org/1999/02/22-rdf-syntax-ns#">
   <cc:Work>
    <dc:type rdf:resource="http://purl.org/dc/dcmitype/StillImage"/>
    <dc:date>2025-01-14T09:05:55.379286</dc:date>
    <dc:format>image/svg+xml</dc:format>
    <dc:creator>
     <cc:Agent>
      <dc:title>Matplotlib v3.9.2, https://matplotlib.org/</dc:title>
     </cc:Agent>
    </dc:creator>
   </cc:Work>
  </rdf:RDF>
 </metadata>
 <defs>
  <style type="text/css">*{stroke-linejoin: round; stroke-linecap: butt}</style>
 </defs>
 <g id="figure_1">
  <g id="patch_1">
   <path d="M 0 220.169738 
L 208.44 220.169738 
L 208.44 0 
L 0 0 
z
" style="fill: #ffffff"/>
  </g>
  <g id="patch_2">
   <path d="M 7.2 201.24 
L 201.24 201.24 
L 201.24 7.2 
L 7.2 7.2 
z
" style="fill: #ffffff"/>
  </g>
  <g id="pane3d_1">
   <g id="patch_3">
    <path d="M 21.851358 153.395954 
L 85.929703 99.684215 
L 85.038953 22.222285 
L 17.894129 71.221519 
" style="fill: #f2f2f2; opacity: 0.5; stroke: #f2f2f2; stroke-linejoin: miter"/>
   </g>
  </g>
  <g id="pane3d_2">
   <g id="patch_4">
    <path d="M 85.929703 99.684215 
L 188.752584 129.570767 
L 192.42197 49.44075 
L 85.038953 22.222285 
" style="fill: #e6e6e6; opacity: 0.5; stroke: #e6e6e6; stroke-linejoin: miter"/>
   </g>
  </g>
  <g id="pane3d_3">
   <g id="patch_5">
    <path d="M 21.851358 153.395954 
L 130.848634 188.994464 
L 188.752584 129.570767 
L 85.929703 99.684215 
" style="fill: #ececec; opacity: 0.5; stroke: #ececec; stroke-linejoin: miter"/>
   </g>
  </g>
  <g id="grid3d_1">
   <g id="Line3DCollection_1">
    <path d="M 28.452805 155.551987 
L 92.183076 101.501824 
L 91.556723 23.87435 
" style="fill: none; stroke: #b0b0b0; stroke-width: 0.8"/>
    <path d="M 51.442079 163.060284 
L 113.934067 107.823978 
L 114.24039 29.623998 
" style="fill: none; stroke: #b0b0b0; stroke-width: 0.8"/>
    <path d="M 74.960825 170.741506 
L 136.14409 114.279555 
L 137.423678 35.500286 
" style="fill: none; stroke: #b0b0b0; stroke-width: 0.8"/>
    <path d="M 99.027549 178.601698 
L 158.82783 120.872822 
L 161.123276 41.507443 
" style="fill: none; stroke: #b0b0b0; stroke-width: 0.8"/>
    <path d="M 123.661627 186.647188 
L 182.000607 127.608234 
L 185.356626 47.649891 
" style="fill: none; stroke: #b0b0b0; stroke-width: 0.8"/>
   </g>
  </g>
  <g id="grid3d_2">
   <g id="Line3DCollection_2">
    <path d="M 22.53736 67.833101 
L 26.266898 149.694762 
L 134.855139 184.882804 
" style="fill: none; stroke: #b0b0b0; stroke-width: 0.8"/>
    <path d="M 36.356691 57.748383 
L 39.422276 138.667663 
L 146.777401 172.647631 
" style="fill: none; stroke: #b0b0b0; stroke-width: 0.8"/>
    <path d="M 49.697011 48.013225 
L 52.141161 128.006441 
L 158.283532 160.83951 
" style="fill: none; stroke: #b0b0b0; stroke-width: 0.8"/>
    <path d="M 62.582801 38.609762 
L 64.444922 117.693185 
L 169.394945 149.436466 
" style="fill: none; stroke: #b0b0b0; stroke-width: 0.8"/>
    <path d="M 75.036902 29.521326 
L 76.353556 107.711132 
L 180.13161 138.418007 
" style="fill: none; stroke: #b0b0b0; stroke-width: 0.8"/>
   </g>
  </g>
  <g id="grid3d_3"/>
  <g id="axis3d_1">
   <g id="line2d_1">
    <path d="M 21.851358 153.395954 
L 130.848634 188.994464 
" style="fill: none; stroke: #000000; stroke-width: 0.8; stroke-linecap: square"/>
   </g>
   <g id="xtick_1">
    <g id="line2d_2">
     <path d="M 29.007765 155.081321 
L 27.340505 156.495338 
" style="fill: none; stroke: #000000; stroke-width: 0.8; stroke-linecap: square"/>
    </g>
    <g id="text_1">
     <!-- −10 -->
     <g transform="translate(10.361002 178.882858) scale(0.1 -0.1)">
      <defs>
       <path id="DejaVuSans-2212" d="M 678 2272 
L 4684 2272 
L 4684 1741 
L 678 1741 
L 678 2272 
z
" transform="scale(0.015625)"/>
       <path id="DejaVuSans-31" d="M 794 531 
L 1825 531 
L 1825 4091 
L 703 3866 
L 703 4441 
L 1819 4666 
L 2450 4666 
L 2450 531 
L 3481 531 
L 3481 0 
L 794 0 
L 794 531 
z
" transform="scale(0.015625)"/>
       <path id="DejaVuSans-30" d="M 2034 4250 
Q 1547 4250 1301 3770 
Q 1056 3291 1056 2328 
Q 1056 1369 1301 889 
Q 1547 409 2034 409 
Q 2525 409 2770 889 
Q 3016 1369 3016 2328 
Q 3016 3291 2770 3770 
Q 2525 4250 2034 4250 
z
M 2034 4750 
Q 2819 4750 3233 4129 
Q 3647 3509 3647 2328 
Q 3647 1150 3233 529 
Q 2819 -91 2034 -91 
Q 1250 -91 836 529 
Q 422 1150 422 2328 
Q 422 3509 836 4129 
Q 1250 4750 2034 4750 
z
" transform="scale(0.015625)"/>
      </defs>
      <use xlink:href="#DejaVuSans-2212"/>
      <use xlink:href="#DejaVuSans-31" x="83.789062"/>
      <use xlink:href="#DejaVuSans-30" x="147.412109"/>
     </g>
    </g>
   </g>
   <g id="xtick_2">
    <g id="line2d_3">
     <path d="M 51.986759 162.578844 
L 50.350355 164.025252 
" style="fill: none; stroke: #000000; stroke-width: 0.8; stroke-linecap: square"/>
    </g>
    <g id="text_2">
     <!-- −5 -->
     <g transform="translate(36.563953 186.609954) scale(0.1 -0.1)">
      <defs>
       <path id="DejaVuSans-35" d="M 691 4666 
L 3169 4666 
L 3169 4134 
L 1269 4134 
L 1269 2991 
Q 1406 3038 1543 3061 
Q 1681 3084 1819 3084 
Q 2600 3084 3056 2656 
Q 3513 2228 3513 1497 
Q 3513 744 3044 326 
Q 2575 -91 1722 -91 
Q 1428 -91 1123 -41 
Q 819 9 494 109 
L 494 744 
Q 775 591 1075 516 
Q 1375 441 1709 441 
Q 2250 441 2565 725 
Q 2881 1009 2881 1497 
Q 2881 1984 2565 2268 
Q 2250 2553 1709 2553 
Q 1456 2553 1204 2497 
Q 953 2441 691 2322 
L 691 4666 
z
" transform="scale(0.015625)"/>
      </defs>
      <use xlink:href="#DejaVuSans-2212"/>
      <use xlink:href="#DejaVuSans-35" x="83.789062"/>
     </g>
    </g>
   </g>
   <g id="xtick_3">
    <g id="line2d_4">
     <path d="M 75.494602 170.248919 
L 73.890927 171.728844 
" style="fill: none; stroke: #000000; stroke-width: 0.8; stroke-linecap: square"/>
    </g>
    <g id="text_3">
     <!-- 0 -->
     <g transform="translate(64.308486 194.515946) scale(0.1 -0.1)">
      <use xlink:href="#DejaVuSans-30"/>
     </g>
    </g>
   </g>
   <g id="xtick_4">
    <g id="line2d_5">
     <path d="M 99.549765 178.097571 
L 97.980797 179.612191 
" style="fill: none; stroke: #000000; stroke-width: 0.8; stroke-linecap: square"/>
    </g>
    <g id="text_4">
     <!-- 5 -->
     <g transform="translate(88.41489 202.607117) scale(0.1 -0.1)">
      <use xlink:href="#DejaVuSans-35"/>
     </g>
    </g>
   </g>
   <g id="xtick_5">
    <g id="line2d_6">
     <path d="M 124.171585 186.131111 
L 122.639419 187.681661 
" style="fill: none; stroke: #000000; stroke-width: 0.8; stroke-linecap: square"/>
    </g>
    <g id="text_5">
     <!-- 10 -->
     <g transform="translate(109.911373 210.890051) scale(0.1 -0.1)">
      <use xlink:href="#DejaVuSans-31"/>
      <use xlink:href="#DejaVuSans-30" x="63.623047"/>
     </g>
    </g>
   </g>
   <g id="text_6">
    <!-- $x$ -->
    <g transform="translate(55.571385 208.866511) scale(0.1 -0.1)">
     <defs>
      <path id="DejaVuSans-Oblique-78" d="M 3841 3500 
L 2234 1784 
L 3219 0 
L 2559 0 
L 1819 1388 
L 531 0 
L -166 0 
L 1556 1844 
L 641 3500 
L 1300 3500 
L 1972 2234 
L 3144 3500 
L 3841 3500 
z
" transform="scale(0.015625)"/>
     </defs>
     <use xlink:href="#DejaVuSans-Oblique-78" transform="translate(0 0.3125)"/>
    </g>
   </g>
  </g>
  <g id="axis3d_2">
   <g id="line2d_7">
    <path d="M 188.752584 129.570767 
L 130.848634 188.994464 
" style="fill: none; stroke: #000000; stroke-width: 0.8; stroke-linecap: square"/>
   </g>
   <g id="xtick_6">
    <g id="line2d_8">
     <path d="M 133.940062 184.586274 
L 136.687658 185.476633 
" style="fill: none; stroke: #000000; stroke-width: 0.8; stroke-linecap: square"/>
    </g>
    <g id="text_7">
     <!-- 0 -->
     <g transform="translate(144.557388 205.90752) scale(0.1 -0.1)">
      <use xlink:href="#DejaVuSans-30"/>
     </g>
    </g>
   </g>
   <g id="xtick_7">
    <g id="line2d_9">
     <path d="M 145.87353 172.361538 
L 148.587438 173.220543 
" style="fill: none; stroke: #000000; stroke-width: 0.8; stroke-linecap: square"/>
    </g>
    <g id="text_8">
     <!-- 2 -->
     <g transform="translate(156.260249 193.423809) scale(0.1 -0.1)">
      <defs>
       <path id="DejaVuSans-32" d="M 1228 531 
L 3431 531 
L 3431 0 
L 469 0 
L 469 531 
Q 828 903 1448 1529 
Q 2069 2156 2228 2338 
Q 2531 2678 2651 2914 
Q 2772 3150 2772 3378 
Q 2772 3750 2511 3984 
Q 2250 4219 1831 4219 
Q 1534 4219 1204 4116 
Q 875 4013 500 3803 
L 500 4441 
Q 881 4594 1212 4672 
Q 1544 4750 1819 4750 
Q 2544 4750 2975 4387 
Q 3406 4025 3406 3419 
Q 3406 3131 3298 2873 
Q 3191 2616 2906 2266 
Q 2828 2175 2409 1742 
Q 1991 1309 1228 531 
z
" transform="scale(0.015625)"/>
      </defs>
      <use xlink:href="#DejaVuSans-32"/>
     </g>
    </g>
   </g>
   <g id="xtick_8">
    <g id="line2d_10">
     <path d="M 157.390648 160.563314 
L 160.071527 161.392591 
" style="fill: none; stroke: #000000; stroke-width: 0.8; stroke-linecap: square"/>
    </g>
    <g id="text_9">
     <!-- 4 -->
     <g transform="translate(167.554314 181.37617) scale(0.1 -0.1)">
      <defs>
       <path id="DejaVuSans-34" d="M 2419 4116 
L 825 1625 
L 2419 1625 
L 2419 4116 
z
M 2253 4666 
L 3047 4666 
L 3047 1625 
L 3713 1625 
L 3713 1100 
L 3047 1100 
L 3047 0 
L 2419 0 
L 2419 1100 
L 313 1100 
L 313 1709 
L 2253 4666 
z
" transform="scale(0.015625)"/>
      </defs>
      <use xlink:href="#DejaVuSans-34"/>
     </g>
    </g>
   </g>
   <g id="xtick_9">
    <g id="line2d_11">
     <path d="M 168.512834 149.169662 
L 171.161333 149.970729 
" style="fill: none; stroke: #000000; stroke-width: 0.8; stroke-linecap: square"/>
    </g>
    <g id="text_10">
     <!-- 6 -->
     <g transform="translate(178.460635 169.742147) scale(0.1 -0.1)">
      <defs>
       <path id="DejaVuSans-36" d="M 2113 2584 
Q 1688 2584 1439 2293 
Q 1191 2003 1191 1497 
Q 1191 994 1439 701 
Q 1688 409 2113 409 
Q 2538 409 2786 701 
Q 3034 994 3034 1497 
Q 3034 2003 2786 2293 
Q 2538 2584 2113 2584 
z
M 3366 4563 
L 3366 3988 
Q 3128 4100 2886 4159 
Q 2644 4219 2406 4219 
Q 1781 4219 1451 3797 
Q 1122 3375 1075 2522 
Q 1259 2794 1537 2939 
Q 1816 3084 2150 3084 
Q 2853 3084 3261 2657 
Q 3669 2231 3669 1497 
Q 3669 778 3244 343 
Q 2819 -91 2113 -91 
Q 1303 -91 875 529 
Q 447 1150 447 2328 
Q 447 3434 972 4092 
Q 1497 4750 2381 4750 
Q 2619 4750 2861 4703 
Q 3103 4656 3366 4563 
z
" transform="scale(0.015625)"/>
      </defs>
      <use xlink:href="#DejaVuSans-36"/>
     </g>
    </g>
   </g>
   <g id="xtick_10">
    <g id="line2d_12">
     <path d="M 179.260057 138.160123 
L 181.876817 138.934396 
" style="fill: none; stroke: #000000; stroke-width: 0.8; stroke-linecap: square"/>
    </g>
    <g id="text_11">
     <!-- 8 -->
     <g transform="translate(188.998841 158.500799) scale(0.1 -0.1)">
      <defs>
       <path id="DejaVuSans-38" d="M 2034 2216 
Q 1584 2216 1326 1975 
Q 1069 1734 1069 1313 
Q 1069 891 1326 650 
Q 1584 409 2034 409 
Q 2484 409 2743 651 
Q 3003 894 3003 1313 
Q 3003 1734 2745 1975 
Q 2488 2216 2034 2216 
z
M 1403 2484 
Q 997 2584 770 2862 
Q 544 3141 544 3541 
Q 544 4100 942 4425 
Q 1341 4750 2034 4750 
Q 2731 4750 3128 4425 
Q 3525 4100 3525 3541 
Q 3525 3141 3298 2862 
Q 3072 2584 2669 2484 
Q 3125 2378 3379 2068 
Q 3634 1759 3634 1313 
Q 3634 634 3220 271 
Q 2806 -91 2034 -91 
Q 1263 -91 848 271 
Q 434 634 434 1313 
Q 434 1759 690 2068 
Q 947 2378 1403 2484 
z
M 1172 3481 
Q 1172 3119 1398 2916 
Q 1625 2713 2034 2713 
Q 2441 2713 2670 2916 
Q 2900 3119 2900 3481 
Q 2900 3844 2670 4047 
Q 2441 4250 2034 4250 
Q 1625 4250 1398 4047 
Q 1172 3844 1172 3481 
z
" transform="scale(0.015625)"/>
      </defs>
      <use xlink:href="#DejaVuSans-38"/>
     </g>
    </g>
   </g>
   <g id="text_12">
    <!-- $t$ -->
    <g transform="translate(186.079364 188.736275) scale(0.1 -0.1)">
     <defs>
      <path id="DejaVuSans-Oblique-74" d="M 2706 3500 
L 2619 3053 
L 1472 3053 
L 1100 1153 
Q 1081 1047 1072 975 
Q 1063 903 1063 863 
Q 1063 663 1183 572 
Q 1303 481 1569 481 
L 2150 481 
L 2053 0 
L 1503 0 
Q 991 0 739 200 
Q 488 400 488 806 
Q 488 878 497 964 
Q 506 1050 525 1153 
L 897 3053 
L 409 3053 
L 500 3500 
L 978 3500 
L 1172 4494 
L 1747 4494 
L 1556 3500 
L 2706 3500 
z
" transform="scale(0.015625)"/>
     </defs>
     <use xlink:href="#DejaVuSans-Oblique-74" transform="translate(0 0.78125)"/>
    </g>
   </g>
  </g>
  <g id="axis3d_3">
   <g id="line2d_13">
    <path d="M 188.752584 129.570767 
L 192.42197 49.44075 
" style="fill: none; stroke: #000000; stroke-width: 0.8; stroke-linecap: square"/>
   </g>
   <g id="text_13">
    <!-- $u(t, x)$ -->
    <g transform="translate(232.912216 99.698417) rotate(-87.378092) scale(0.1 -0.1)">
     <defs>
      <path id="DejaVuSans-Oblique-75" d="M 428 1388 
L 838 3500 
L 1416 3500 
L 1006 1409 
Q 975 1256 961 1147 
Q 947 1038 947 966 
Q 947 700 1109 554 
Q 1272 409 1569 409 
Q 2031 409 2368 721 
Q 2706 1034 2809 1563 
L 3194 3500 
L 3769 3500 
L 3091 0 
L 2516 0 
L 2631 550 
Q 2388 244 2052 76 
Q 1716 -91 1338 -91 
Q 878 -91 622 161 
Q 366 413 366 863 
Q 366 956 381 1097 
Q 397 1238 428 1388 
z
" transform="scale(0.015625)"/>
      <path id="DejaVuSans-28" d="M 1984 4856 
Q 1566 4138 1362 3434 
Q 1159 2731 1159 2009 
Q 1159 1288 1364 580 
Q 1569 -128 1984 -844 
L 1484 -844 
Q 1016 -109 783 600 
Q 550 1309 550 2009 
Q 550 2706 781 3412 
Q 1013 4119 1484 4856 
L 1984 4856 
z
" transform="scale(0.015625)"/>
      <path id="DejaVuSans-2c" d="M 750 794 
L 1409 794 
L 1409 256 
L 897 -744 
L 494 -744 
L 750 256 
L 750 794 
z
" transform="scale(0.015625)"/>
      <path id="DejaVuSans-29" d="M 513 4856 
L 1013 4856 
Q 1481 4119 1714 3412 
Q 1947 2706 1947 2009 
Q 1947 1309 1714 600 
Q 1481 -109 1013 -844 
L 513 -844 
Q 928 -128 1133 580 
Q 1338 1288 1338 2009 
Q 1338 2731 1133 3434 
Q 928 4138 513 4856 
z
" transform="scale(0.015625)"/>
     </defs>
     <use xlink:href="#DejaVuSans-Oblique-75" transform="translate(0 0.125)"/>
     <use xlink:href="#DejaVuSans-28" transform="translate(63.378906 0.125)"/>
     <use xlink:href="#DejaVuSans-Oblique-74" transform="translate(102.392578 0.125)"/>
     <use xlink:href="#DejaVuSans-2c" transform="translate(141.601562 0.125)"/>
     <use xlink:href="#DejaVuSans-Oblique-78" transform="translate(192.871094 0.125)"/>
     <use xlink:href="#DejaVuSans-29" transform="translate(252.050781 0.125)"/>
    </g>
   </g>
  </g>
  <g id="axes_1">
   <g id="line2d_14">
    <path d="M 32.779713 150.257136 
L 46.653327 154.606897 
L 51.437045 155.892347 
L 54.47894 156.497486 
L 56.691823 156.729744 
L 58.442344 156.708967 
L 59.914201 156.484072 
L 61.199234 156.071828 
L 62.389012 155.449292 
L 63.483241 154.609126 
L 64.481876 153.554918 
L 65.475197 152.161131 
L 66.461955 150.346904 
L 67.352115 148.251105 
L 68.32226 145.349106 
L 69.281372 141.697169 
L 70.227987 137.159458 
L 71.161204 131.612333 
L 72.16451 124.328199 
L 73.403523 113.566166 
L 75.669836 93.351934 
L 76.38047 88.933571 
L 76.933304 86.651236 
L 77.408577 85.565652 
L 77.70032 85.301011 
L 77.996969 85.335614 
L 78.298397 85.670494 
L 78.707348 86.575317 
L 79.228793 88.403798 
L 79.86707 91.507559 
L 80.733176 96.866529 
L 82.156007 107.305356 
L 85.070355 128.944067 
L 86.536087 138.060725 
L 87.870331 144.981788 
L 89.083146 150.181933 
L 90.281852 154.416088 
L 91.469838 157.855849 
L 92.747955 160.863077 
L 94.01956 163.280845 
L 95.286776 165.240427 
L 96.648375 166.956543 
L 98.105266 168.451505 
L 99.755502 169.828913 
L 101.697338 171.144 
L 103.932549 172.382158 
L 106.755763 173.68363 
L 110.660863 175.218784 
L 116.74166 177.343058 
L 127.617155 180.916537 
L 127.617155 180.916537 
" clip-path="url(#p2acd62ec65)" style="fill: none; stroke: #1f77b4; stroke-width: 1.5; stroke-linecap: square"/>
   </g>
   <g id="line2d_15">
    <path d="M 39.385033 144.668873 
L 52.8194 148.837122 
L 57.760137 150.160859 
L 60.878376 150.781386 
L 63.172748 151.021004 
L 65.007656 150.991872 
L 66.474098 150.758658 
L 67.755272 150.343295 
L 68.942497 149.725075 
L 70.035571 148.90021 
L 71.0345 147.876223 
L 72.029821 146.537638 
L 73.020809 144.81761 
L 74.006712 142.639316 
L 74.986803 139.917308 
L 75.960472 136.56125 
L 77.014923 132.074219 
L 78.061497 126.63704 
L 79.274314 119.049092 
L 80.742339 108.242343 
L 83.469101 87.793366 
L 84.294802 83.420084 
L 84.859151 81.423247 
L 85.339191 80.479959 
L 85.631749 80.273129 
L 85.927799 80.3576 
L 86.227351 80.746722 
L 86.632092 81.752639 
L 87.146077 83.79128 
L 87.773025 87.313179 
L 88.621035 93.503028 
L 90.113983 106.483753 
L 92.106525 123.350707 
L 93.435438 132.623197 
L 94.640559 139.457371 
L 95.829829 144.886979 
L 97.007525 149.190788 
L 98.177038 152.614169 
L 99.340929 155.355504 
L 100.597644 157.734529 
L 101.851708 159.645034 
L 103.200682 161.307736 
L 104.645409 162.750599 
L 106.283118 164.077822 
L 108.211413 165.345578 
L 110.52874 166.589424 
L 113.431712 167.884867 
L 117.508912 169.441648 
L 124.143838 171.705051 
L 133.681572 174.794771 
L 133.681572 174.794771 
" clip-path="url(#p2acd62ec65)" style="fill: none; stroke: #ff7f0e; stroke-width: 1.5; stroke-linecap: square"/>
   </g>
   <g id="line2d_16">
    <path d="M 45.878471 139.175327 
L 59.150539 143.245576 
L 64.156235 144.570317 
L 67.258847 145.177218 
L 69.542502 145.41013 
L 71.369677 145.380425 
L 72.922047 145.131128 
L 74.199314 144.713057 
L 75.383863 144.099401 
L 76.475554 143.289572 
L 77.565109 142.190273 
L 78.561595 140.873873 
L 79.555552 139.204672 
L 80.54669 137.121316 
L 81.624492 134.30044 
L 82.698682 130.827617 
L 83.858693 126.246966 
L 85.015892 120.758808 
L 86.350152 113.304422 
L 88.045882 102.409859 
L 90.955479 83.428802 
L 91.891199 78.82118 
L 92.557241 76.551277 
L 93.039412 75.601468 
L 93.331501 75.358831 
L 93.625778 75.395161 
L 93.922296 75.73718 
L 94.321169 76.710308 
L 94.723976 78.314123 
L 95.232563 81.231294 
L 95.951931 86.904278 
L 96.985216 97.213855 
L 99.02231 117.823042 
L 100.116375 126.607427 
L 101.195545 133.501927 
L 102.264114 138.880081 
L 103.325465 143.098131 
L 104.382042 146.438062 
L 105.531239 149.327566 
L 106.678352 151.625219 
L 107.919937 153.615613 
L 109.256742 155.328519 
L 110.689539 156.801066 
L 112.314745 158.144737 
L 114.133499 159.361346 
L 116.33904 160.566463 
L 119.126538 161.828005 
L 122.983896 163.312371 
L 129.088901 165.395688 
L 139.638538 168.781459 
L 139.638538 168.781459 
" clip-path="url(#p2acd62ec65)" style="fill: none; stroke: #2ca02c; stroke-width: 1.5; stroke-linecap: square"/>
   </g>
   <g id="line2d_17">
    <path d="M 52.262844 133.774065 
L 65.464421 137.774696 
L 70.443919 139.074533 
L 73.530974 139.668199 
L 75.803923 139.894626 
L 77.623317 139.864379 
L 79.169921 139.621137 
L 80.5342 139.178622 
L 81.715957 138.569751 
L 82.80605 137.774687 
L 83.895208 136.70635 
L 84.983272 135.309842 
L 86.070159 133.524877 
L 87.155903 131.288125 
L 88.240706 128.53705 
L 89.415346 124.911348 
L 90.590274 120.562763 
L 91.948032 114.619314 
L 93.492778 106.740327 
L 95.508916 95.141602 
L 98.309186 79.046546 
L 99.355892 74.264904 
L 100.028516 72.008053 
L 100.512235 70.949182 
L 100.901213 70.532845 
L 101.194116 70.524108 
L 101.488005 70.817983 
L 101.782852 71.455903 
L 102.177372 72.914922 
L 102.672418 75.841684 
L 103.268168 81.073308 
L 104.061664 90.4611 
L 105.917625 113.357715 
L 106.877651 122.118111 
L 107.830699 128.754222 
L 108.779544 133.826282 
L 109.72598 137.767015 
L 110.76564 141.154974 
L 111.804757 143.818055 
L 112.938457 146.118882 
L 114.16735 148.090517 
L 115.492065 149.774087 
L 116.91322 151.213935 
L 118.526384 152.523807 
L 120.427828 153.764564 
L 122.714782 154.974673 
L 125.581414 156.23011 
L 129.609149 157.735433 
L 136.261544 159.952716 
L 145.490883 162.873764 
L 145.490883 162.873764 
" clip-path="url(#p2acd62ec65)" style="fill: none; stroke: #d62728; stroke-width: 1.5; stroke-linecap: square"/>
   </g>
   <g id="line2d_18">
    <path d="M 58.540875 128.462776 
L 71.672454 132.395533 
L 76.625923 133.671119 
L 79.697494 134.251927 
L 81.95975 134.472081 
L 83.771325 134.44132 
L 85.312063 134.203883 
L 86.672003 133.774981 
L 87.941529 133.133693 
L 89.120521 132.277042 
L 90.208946 131.214683 
L 91.297569 129.842887 
L 92.386566 128.111649 
L 93.476235 125.971005 
L 94.657997 123.136323 
L 95.841873 119.71848 
L 97.120359 115.351038 
L 98.587929 109.483037 
L 100.250267 101.841396 
L 102.491579 90.342659 
L 105.630989 74.21531 
L 106.78956 69.399012 
L 107.565912 67.031158 
L 108.052172 66.089602 
L 108.441394 65.745478 
L 108.733222 65.788119 
L 109.024773 66.144807 
L 109.315816 66.877473 
L 109.702575 68.567039 
L 110.087065 71.251499 
L 110.563003 76.26574 
L 111.218404 86.203817 
L 112.598231 108.077936 
L 113.425882 117.065038 
L 114.256134 123.579687 
L 115.088722 128.443897 
L 116.016167 132.546301 
L 116.945778 135.702189 
L 117.970599 138.408014 
L 119.091043 140.710287 
L 120.213863 142.527287 
L 121.432749 144.101177 
L 122.842175 145.551154 
L 124.443176 146.86132 
L 126.23681 148.03996 
L 128.413675 149.203182 
L 131.261666 150.457616 
L 135.168543 151.917051 
L 141.49079 154.01396 
L 151.241339 157.068925 
L 151.241339 157.068925 
" clip-path="url(#p2acd62ec65)" style="fill: none; stroke: #9467bd; stroke-width: 1.5; stroke-linecap: square"/>
   </g>
   <g id="line2d_19">
    <path d="M 64.7152 123.239227 
L 77.777279 127.105798 
L 82.704888 128.357765 
L 85.851047 128.938709 
L 88.10277 129.143568 
L 89.906597 129.101153 
L 91.441466 128.85611 
L 92.796988 128.424915 
L 94.06324 127.788876 
L 95.24012 126.948174 
L 96.418243 125.817047 
L 97.597925 124.343761 
L 98.779621 122.476029 
L 99.963938 120.164749 
L 101.243167 117.132369 
L 102.527464 113.502188 
L 103.910583 108.935227 
L 105.489031 102.937999 
L 107.363883 94.890497 
L 110.122259 81.923103 
L 112.831379 69.459218 
L 114.100866 64.618435 
L 114.883105 62.380348 
L 115.468615 61.3219 
L 115.85747 61.04581 
L 116.147791 61.141672 
L 116.436467 61.570298 
L 116.72286 62.422167 
L 117.099613 64.434907 
L 117.467751 67.833622 
L 117.823445 73.115802 
L 118.330983 84.582942 
L 119.082281 101.37953 
L 119.686623 110.176591 
L 120.393367 117.134032 
L 121.110636 122.12249 
L 121.925594 126.287939 
L 122.837906 129.75866 
L 123.755397 132.416285 
L 124.76919 134.694976 
L 125.879467 136.640423 
L 127.086428 138.299581 
L 128.390288 139.718316 
L 129.884808 141.012812 
L 131.570992 142.182886 
L 133.637974 143.341696 
L 136.277201 144.550623 
L 139.872543 145.930919 
L 145.387187 147.783424 
L 156.892544 151.364278 
L 156.892544 151.364278 
" clip-path="url(#p2acd62ec65)" style="fill: none; stroke: #8c564b; stroke-width: 1.5; stroke-linecap: square"/>
   </g>
   <g id="line2d_20">
    <path d="M 70.788368 118.101262 
L 83.781447 121.90328 
L 88.68337 123.132237 
L 91.813762 123.700735 
L 94.144595 123.902696 
L 95.940719 123.849005 
L 97.469726 123.596759 
L 98.820791 123.163637 
L 100.083662 122.533025 
L 101.258236 121.707937 
L 102.435012 120.608341 
L 103.614457 119.190009 
L 104.797162 117.410012 
L 105.98383 115.230017 
L 107.267143 112.400566 
L 108.649515 108.78979 
L 110.134021 104.273881 
L 111.818382 98.410477 
L 113.805113 90.649427 
L 116.687181 78.36315 
L 119.913401 64.777411 
L 121.194228 60.227399 
L 122.079742 57.800668 
L 122.666997 56.754281 
L 123.055706 56.44536 
L 123.344916 56.498745 
L 123.631251 56.880301 
L 123.913496 57.706 
L 124.189733 59.158998 
L 124.456765 61.545562 
L 124.709063 65.393589 
L 125.008521 74.100933 
L 125.705736 99.377145 
L 126.187929 107.433413 
L 126.78026 113.607631 
L 127.477278 118.490741 
L 128.275924 122.432572 
L 129.084201 125.372234 
L 129.989943 127.877241 
L 130.992965 130.007427 
L 132.093161 131.818251 
L 133.290497 133.360725 
L 134.677627 134.765274 
L 136.255561 136.024867 
L 138.118487 137.206999 
L 140.361766 138.354167 
L 143.269934 139.578874 
L 147.415287 141.063779 
L 154.428157 143.307297 
L 162.447046 145.757251 
L 162.447046 145.757251 
" clip-path="url(#p2acd62ec65)" style="fill: none; stroke: #e377c2; stroke-width: 1.5; stroke-linecap: square"/>
   </g>
   <g id="line2d_21">
    <path d="M 76.762844 113.046793 
L 89.687427 116.78584 
L 94.652705 118.011404 
L 97.767674 118.560526 
L 100.087706 118.747319 
L 101.876173 118.682723 
L 103.489016 118.401265 
L 104.925642 117.913701 
L 106.185426 117.254728 
L 107.448262 116.331769 
L 108.624164 115.196945 
L 109.803819 113.756212 
L 111.079202 111.823403 
L 112.360687 109.461385 
L 113.741622 106.428425 
L 115.225014 102.610287 
L 116.908369 97.613579 
L 118.79878 91.262086 
L 121.097173 82.721644 
L 128.070685 56.185373 
L 129.06026 53.508733 
L 129.649864 52.393929 
L 130.039514 51.974703 
L 130.328931 51.902832 
L 130.614811 52.118332 
L 130.895501 52.739081 
L 131.168072 53.975142 
L 131.426551 56.257255 
L 131.655552 60.700798 
L 131.807974 70.717187 
L 131.989274 92.208239 
L 132.329269 101.616025 
L 132.801438 108.007661 
L 133.385945 112.869164 
L 134.075668 116.746842 
L 134.867257 119.912078 
L 135.758882 122.528242 
L 136.74945 124.707339 
L 137.838276 126.533405 
L 139.024928 128.073484 
L 140.309133 129.383219 
L 141.783022 130.577085 
L 143.540129 131.713285 
L 145.675195 132.826142 
L 148.470861 134.020942 
L 152.401842 135.439974 
L 158.896766 137.517021 
L 167.907306 140.24536 
L 167.907306 140.24536 
" clip-path="url(#p2acd62ec65)" style="fill: none; stroke: #7f7f7f; stroke-width: 1.5; stroke-linecap: square"/>
   </g>
   <g id="line2d_22">
    <path d="M 82.641014 108.073802 
L 95.497609 111.751408 
L 100.437099 112.954747 
L 103.536489 113.492204 
L 105.845569 113.673707 
L 107.715358 113.600209 
L 109.322032 113.312063 
L 110.753894 112.823808 
L 112.0102 112.171804 
L 113.27032 111.2674 
L 114.534966 110.069061 
L 115.804958 108.537441 
L 117.081193 106.638739 
L 118.364612 104.347911 
L 119.748729 101.443896 
L 121.330031 97.586509 
L 123.020393 92.876743 
L 124.919377 86.958011 
L 127.228308 79.066467 
L 131.147822 64.778486 
L 133.235359 57.307176 
L 135.6281 49.971701 
L 136.713002 47.856432 
L 137.005696 47.51738 
L 137.484387 47.537507 
L 137.579507 47.581123 
L 137.948071 48.475819 
L 138.290057 50.937556 
L 138.433877 53.753685 
L 138.479193 62.317268 
L 138.289252 89.970867 
L 138.513564 98.652181 
L 138.882748 104.206312 
L 139.448305 109.039155 
L 140.038775 112.356314 
L 140.817625 115.432151 
L 141.60975 117.718226 
L 142.589629 119.8372 
L 143.578356 121.46973 
L 144.755047 122.977659 
L 146.029607 124.254893 
L 147.493339 125.41668 
L 149.239125 126.521978 
L 151.453562 127.64831 
L 154.325945 128.843096 
L 158.421717 130.285049 
L 165.351757 132.457181 
L 173.275701 134.826202 
L 173.275701 134.826202 
" clip-path="url(#p2acd62ec65)" style="fill: none; stroke: #bcbd22; stroke-width: 1.5; stroke-linecap: square"/>
   </g>
   <g id="line2d_23">
    <path d="M 88.425188 103.18035 
L 101.389393 106.84407 
L 106.216156 107.997736 
L 109.212085 108.505544 
L 111.421722 108.680547 
L 113.460601 108.598706 
L 114.88304 108.348802 
L 116.041709 107.997027 
L 117.651254 107.227768 
L 119.358269 105.9786 
L 120.170182 105.219271 
L 122.165996 102.791657 
L 124.733164 98.457981 
L 126.309647 95.074901 
L 126.775434 94.037938 
L 127.43106 92.389334 
L 127.711867 91.742626 
L 128.371447 89.957832 
L 128.653638 89.278824 
L 129.127729 87.891599 
L 129.410987 87.193418 
L 129.887619 85.722916 
L 129.981323 85.566733 
L 130.45994 84.032324 
L 130.553665 83.889632 
L 130.842643 82.876069 
L 130.936342 82.745121 
L 131.226276 81.697333 
L 131.319913 81.580605 
L 131.610842 80.496917 
L 131.704375 80.397098 
L 131.996342 79.275677 
L 132.089728 79.195625 
L 132.382778 78.034552 
L 132.475968 77.977199 
L 132.770145 76.774584 
L 132.863091 76.742797 
L 133.15844 75.49696 
L 133.251095 75.493333 
L 133.547654 74.203042 
L 133.639978 74.229627 
L 133.937774 72.894402 
L 134.029738 72.952387 
L 134.328782 71.572837 
L 134.420374 71.662213 
L 134.720656 70.240358 
L 134.811888 70.359623 
L 135.113371 68.899147 
L 135.204279 69.045135 
L 135.506897 67.551476 
L 135.597546 67.719365 
L 135.703954 66.875925 
L 135.794505 67.052504 
L 135.901202 66.199596 
L 135.991681 66.383167 
L 136.098638 65.52275 
L 136.189071 65.711521 
L 136.296257 64.845638 
L 136.386673 65.037757 
L 136.494055 64.168494 
L 136.584484 64.3621 
L 136.692031 63.491542 
L 136.782501 63.684806 
L 136.890179 62.814991 
L 136.980719 63.006161 
L 137.088496 62.139043 
L 137.179134 62.326482 
L 137.28698 61.463895 
L 137.377741 61.646113 
L 137.485627 60.789742 
L 137.576533 60.965425 
L 137.684433 60.116782 
L 137.775504 60.28481 
L 137.883395 59.445224 
L 137.974648 59.604683 
L 138.082508 58.775292 
L 138.173956 58.925478 
L 138.48117 57.441303 
L 138.573036 57.571651 
L 138.880375 56.117091 
L 138.972676 56.227147 
L 139.28007 54.805476 
L 139.372797 54.896096 
L 139.680185 53.509946 
L 139.773312 53.583037 
L 140.080635 52.234791 
L 140.17412 52.293079 
L 140.481314 50.985266 
L 140.5751 51.032125 
L 140.882089 49.767808 
L 140.976107 49.807184 
L 141.282793 48.59037 
L 141.376961 48.626801 
L 141.683219 47.46291 
L 141.777437 47.501662 
L 142.083097 46.398151 
L 142.177242 46.445513 
L 142.482071 45.412774 
L 142.575986 45.476584 
L 142.879658 44.529388 
L 142.973133 44.619988 
L 143.07773 44.135419 
L 143.170878 44.244529 
L 143.275176 43.779951 
L 143.367907 43.911994 
L 143.47186 43.469481 
L 143.564056 43.630018 
L 143.667606 43.212209 
L 143.759118 43.408441 
L 143.862189 43.018722 
L 143.952815 43.260309 
L 144.05531 42.903065 
L 144.144768 43.20356 
L 144.246562 42.884511 
L 144.334432 43.26406 
L 144.435363 42.990631 
L 144.52097 43.481652 
L 144.620837 43.262968 
L 144.702965 43.924124 
L 144.801586 43.768072 
L 145.036561 46.291994 
L 145.139406 45.92723 
L 144.988965 57.917207 
L 144.465601 92.517312 
L 144.634446 97.835276 
L 144.857342 100.495488 
L 145.08141 103.065948 
L 145.324465 104.709038 
L 145.651349 106.739032 
L 145.985552 108.400158 
L 146.408784 110.193577 
L 146.841278 111.539187 
L 147.275339 112.795995 
L 149.402647 116.751606 
L 151.746719 119.292079 
L 154.296058 121.101218 
L 157.229617 122.5943 
L 161.009962 124.083083 
L 165.180579 125.478732 
L 174.514814 128.308704 
L 178.554532 129.49744 
L 178.554532 129.49744 
" clip-path="url(#p2acd62ec65)" style="fill: none; stroke: #17becf; stroke-width: 1.5; stroke-linecap: square"/>
   </g>
  </g>
 </g>
 <defs>
  <clipPath id="p2acd62ec65">
   <rect x="7.2" y="7.2" width="194.04" height="194.04"/>
  </clipPath>
 </defs>
</svg>
