<?xml version="1.0" encoding="utf-8" standalone="no"?>
<!DOCTYPE svg PUBLIC "-//W3C//DTD SVG 1.1//EN"
  "http://www.w3.org/Graphics/SVG/1.1/DTD/svg11.dtd">
<svg xmlns:xlink="http://www.w3.org/1999/xlink" width="350.565625pt" height="136.001202pt" viewBox="0 0 350.565625 136.001202" xmlns="http://www.w3.org/2000/svg" version="1.1">
 <metadata>
  <rdf:RDF xmlns:dc="http://purl.org/dc/elements/1.1/" xmlns:cc="http://creativecommons.org/ns#" xmlns:rdf="http://www.w3.org/1999/02/22-rdf-syntax-ns#">
   <cc:Work>
    <dc:type rdf:resource="http://purl.org/dc/dcmitype/StillImage"/>
    <dc:date>2025-01-14T09:42:08.676903</dc:date>
    <dc:format>image/svg+xml</dc:format>
    <dc:creator>
     <cc:Agent>
      <dc:title>Matplotlib v3.9.2, https://matplotlib.org/</dc:title>
     </cc:Agent>
    </dc:creator>
   </cc:Work>
  </rdf:RDF>
 </metadata>
 <defs>
  <style type="text/css">*{stroke-linejoin: round; stroke-linecap: butt}</style>
 </defs>
 <g id="figure_1">
  <g id="patch_1">
   <path d="M 0 136.001202 
L 350.565625 136.001202 
L 350.565625 0 
L 0 0 
z
" style="fill: #ffffff"/>
  </g>
  <g id="axes_1">
   <g id="patch_2">
    <path d="M 36.465625 112.123077 
L 343.365625 112.123077 
L 343.365625 7.2 
L 36.465625 7.2 
z
" style="fill: #ffffff"/>
   </g>
   <g id="matplotlib.axis_1">
    <g id="xtick_1">
     <g id="line2d_1">
      <defs>
       <path id="m2206671e60" d="M 0 0 
L 0 3.5 
" style="stroke: #000000; stroke-width: 0.8"/>
      </defs>
      <g>
       <use xlink:href="#m2206671e60" x="50.415625" y="112.123077" style="stroke: #000000; stroke-width: 0.8"/>
      </g>
     </g>
     <g id="text_1">
      <!-- 0 -->
      <g transform="translate(47.234375 126.721514) scale(0.1 -0.1)">
       <defs>
        <path id="DejaVuSans-30" d="M 2034 4250 
Q 1547 4250 1301 3770 
Q 1056 3291 1056 2328 
Q 1056 1369 1301 889 
Q 1547 409 2034 409 
Q 2525 409 2770 889 
Q 3016 1369 3016 2328 
Q 3016 3291 2770 3770 
Q 2525 4250 2034 4250 
z
M 2034 4750 
Q 2819 4750 3233 4129 
Q 3647 3509 3647 2328 
Q 3647 1150 3233 529 
Q 2819 -91 2034 -91 
Q 1250 -91 836 529 
Q 422 1150 422 2328 
Q 422 3509 836 4129 
Q 1250 4750 2034 4750 
z
" transform="scale(0.015625)"/>
       </defs>
       <use xlink:href="#DejaVuSans-30"/>
      </g>
     </g>
    </g>
    <g id="xtick_2">
     <g id="line2d_2">
      <g>
       <use xlink:href="#m2206671e60" x="86.184856" y="112.123077" style="stroke: #000000; stroke-width: 0.8"/>
      </g>
     </g>
     <g id="text_2">
      <!-- 5 -->
      <g transform="translate(83.003606 126.721514) scale(0.1 -0.1)">
       <defs>
        <path id="DejaVuSans-35" d="M 691 4666 
L 3169 4666 
L 3169 4134 
L 1269 4134 
L 1269 2991 
Q 1406 3038 1543 3061 
Q 1681 3084 1819 3084 
Q 2600 3084 3056 2656 
Q 3513 2228 3513 1497 
Q 3513 744 3044 326 
Q 2575 -91 1722 -91 
Q 1428 -91 1123 -41 
Q 819 9 494 109 
L 494 744 
Q 775 591 1075 516 
Q 1375 441 1709 441 
Q 2250 441 2565 725 
Q 2881 1009 2881 1497 
Q 2881 1984 2565 2268 
Q 2250 2553 1709 2553 
Q 1456 2553 1204 2497 
Q 953 2441 691 2322 
L 691 4666 
z
" transform="scale(0.015625)"/>
       </defs>
       <use xlink:href="#DejaVuSans-35"/>
      </g>
     </g>
    </g>
    <g id="xtick_3">
     <g id="line2d_3">
      <g>
       <use xlink:href="#m2206671e60" x="121.954087" y="112.123077" style="stroke: #000000; stroke-width: 0.8"/>
      </g>
     </g>
     <g id="text_3">
      <!-- 10 -->
      <g transform="translate(115.591587 126.721514) scale(0.1 -0.1)">
       <defs>
        <path id="DejaVuSans-31" d="M 794 531 
L 1825 531 
L 1825 4091 
L 703 3866 
L 703 4441 
L 1819 4666 
L 2450 4666 
L 2450 531 
L 3481 531 
L 3481 0 
L 794 0 
L 794 531 
z
" transform="scale(0.015625)"/>
       </defs>
       <use xlink:href="#DejaVuSans-31"/>
       <use xlink:href="#DejaVuSans-30" x="63.623047"/>
      </g>
     </g>
    </g>
    <g id="xtick_4">
     <g id="line2d_4">
      <g>
       <use xlink:href="#m2206671e60" x="157.723317" y="112.123077" style="stroke: #000000; stroke-width: 0.8"/>
      </g>
     </g>
     <g id="text_4">
      <!-- 15 -->
      <g transform="translate(151.360817 126.721514) scale(0.1 -0.1)">
       <use xlink:href="#DejaVuSans-31"/>
       <use xlink:href="#DejaVuSans-35" x="63.623047"/>
      </g>
     </g>
    </g>
    <g id="xtick_5">
     <g id="line2d_5">
      <g>
       <use xlink:href="#m2206671e60" x="193.492548" y="112.123077" style="stroke: #000000; stroke-width: 0.8"/>
      </g>
     </g>
     <g id="text_5">
      <!-- 20 -->
      <g transform="translate(187.130048 126.721514) scale(0.1 -0.1)">
       <defs>
        <path id="DejaVuSans-32" d="M 1228 531 
L 3431 531 
L 3431 0 
L 469 0 
L 469 531 
Q 828 903 1448 1529 
Q 2069 2156 2228 2338 
Q 2531 2678 2651 2914 
Q 2772 3150 2772 3378 
Q 2772 3750 2511 3984 
Q 2250 4219 1831 4219 
Q 1534 4219 1204 4116 
Q 875 4013 500 3803 
L 500 4441 
Q 881 4594 1212 4672 
Q 1544 4750 1819 4750 
Q 2544 4750 2975 4387 
Q 3406 4025 3406 3419 
Q 3406 3131 3298 2873 
Q 3191 2616 2906 2266 
Q 2828 2175 2409 1742 
Q 1991 1309 1228 531 
z
" transform="scale(0.015625)"/>
       </defs>
       <use xlink:href="#DejaVuSans-32"/>
       <use xlink:href="#DejaVuSans-30" x="63.623047"/>
      </g>
     </g>
    </g>
    <g id="xtick_6">
     <g id="line2d_6">
      <g>
       <use xlink:href="#m2206671e60" x="229.261779" y="112.123077" style="stroke: #000000; stroke-width: 0.8"/>
      </g>
     </g>
     <g id="text_6">
      <!-- 25 -->
      <g transform="translate(222.899279 126.721514) scale(0.1 -0.1)">
       <use xlink:href="#DejaVuSans-32"/>
       <use xlink:href="#DejaVuSans-35" x="63.623047"/>
      </g>
     </g>
    </g>
    <g id="xtick_7">
     <g id="line2d_7">
      <g>
       <use xlink:href="#m2206671e60" x="265.03101" y="112.123077" style="stroke: #000000; stroke-width: 0.8"/>
      </g>
     </g>
     <g id="text_7">
      <!-- 30 -->
      <g transform="translate(258.66851 126.721514) scale(0.1 -0.1)">
       <defs>
        <path id="DejaVuSans-33" d="M 2597 2516 
Q 3050 2419 3304 2112 
Q 3559 1806 3559 1356 
Q 3559 666 3084 287 
Q 2609 -91 1734 -91 
Q 1441 -91 1130 -33 
Q 819 25 488 141 
L 488 750 
Q 750 597 1062 519 
Q 1375 441 1716 441 
Q 2309 441 2620 675 
Q 2931 909 2931 1356 
Q 2931 1769 2642 2001 
Q 2353 2234 1838 2234 
L 1294 2234 
L 1294 2753 
L 1863 2753 
Q 2328 2753 2575 2939 
Q 2822 3125 2822 3475 
Q 2822 3834 2567 4026 
Q 2313 4219 1838 4219 
Q 1578 4219 1281 4162 
Q 984 4106 628 3988 
L 628 4550 
Q 988 4650 1302 4700 
Q 1616 4750 1894 4750 
Q 2613 4750 3031 4423 
Q 3450 4097 3450 3541 
Q 3450 3153 3228 2886 
Q 3006 2619 2597 2516 
z
" transform="scale(0.015625)"/>
       </defs>
       <use xlink:href="#DejaVuSans-33"/>
       <use xlink:href="#DejaVuSans-30" x="63.623047"/>
      </g>
     </g>
    </g>
    <g id="xtick_8">
     <g id="line2d_8">
      <g>
       <use xlink:href="#m2206671e60" x="300.80024" y="112.123077" style="stroke: #000000; stroke-width: 0.8"/>
      </g>
     </g>
     <g id="text_8">
      <!-- 35 -->
      <g transform="translate(294.43774 126.721514) scale(0.1 -0.1)">
       <use xlink:href="#DejaVuSans-33"/>
       <use xlink:href="#DejaVuSans-35" x="63.623047"/>
      </g>
     </g>
    </g>
    <g id="xtick_9">
     <g id="line2d_9">
      <g>
       <use xlink:href="#m2206671e60" x="336.569471" y="112.123077" style="stroke: #000000; stroke-width: 0.8"/>
      </g>
     </g>
     <g id="text_9">
      <!-- 40 -->
      <g transform="translate(330.206971 126.721514) scale(0.1 -0.1)">
       <defs>
        <path id="DejaVuSans-34" d="M 2419 4116 
L 825 1625 
L 2419 1625 
L 2419 4116 
z
M 2253 4666 
L 3047 4666 
L 3047 1625 
L 3713 1625 
L 3713 1100 
L 3047 1100 
L 3047 0 
L 2419 0 
L 2419 1100 
L 313 1100 
L 313 1709 
L 2253 4666 
z
" transform="scale(0.015625)"/>
       </defs>
       <use xlink:href="#DejaVuSans-34"/>
       <use xlink:href="#DejaVuSans-30" x="63.623047"/>
      </g>
     </g>
    </g>
   </g>
   <g id="matplotlib.axis_2">
    <g id="ytick_1">
     <g id="line2d_10">
      <defs>
       <path id="m30f0dca9f0" d="M 0 0 
L -3.5 0 
" style="stroke: #000000; stroke-width: 0.8"/>
      </defs>
      <g>
       <use xlink:href="#m30f0dca9f0" x="36.465625" y="107.353846" style="stroke: #000000; stroke-width: 0.8"/>
      </g>
     </g>
     <g id="text_10">
      <!-- 0.00 -->
      <g transform="translate(7.2 111.153065) scale(0.1 -0.1)">
       <defs>
        <path id="DejaVuSans-2e" d="M 684 794 
L 1344 794 
L 1344 0 
L 684 0 
L 684 794 
z
" transform="scale(0.015625)"/>
       </defs>
       <use xlink:href="#DejaVuSans-30"/>
       <use xlink:href="#DejaVuSans-2e" x="63.623047"/>
       <use xlink:href="#DejaVuSans-30" x="95.410156"/>
       <use xlink:href="#DejaVuSans-30" x="159.033203"/>
      </g>
     </g>
    </g>
    <g id="ytick_2">
     <g id="line2d_11">
      <g>
       <use xlink:href="#m30f0dca9f0" x="36.465625" y="83.507692" style="stroke: #000000; stroke-width: 0.8"/>
      </g>
     </g>
     <g id="text_11">
      <!-- 0.25 -->
      <g transform="translate(7.2 87.306911) scale(0.1 -0.1)">
       <use xlink:href="#DejaVuSans-30"/>
       <use xlink:href="#DejaVuSans-2e" x="63.623047"/>
       <use xlink:href="#DejaVuSans-32" x="95.410156"/>
       <use xlink:href="#DejaVuSans-35" x="159.033203"/>
      </g>
     </g>
    </g>
    <g id="ytick_3">
     <g id="line2d_12">
      <g>
       <use xlink:href="#m30f0dca9f0" x="36.465625" y="59.661538" style="stroke: #000000; stroke-width: 0.8"/>
      </g>
     </g>
     <g id="text_12">
      <!-- 0.50 -->
      <g transform="translate(7.2 63.460757) scale(0.1 -0.1)">
       <use xlink:href="#DejaVuSans-30"/>
       <use xlink:href="#DejaVuSans-2e" x="63.623047"/>
       <use xlink:href="#DejaVuSans-35" x="95.410156"/>
       <use xlink:href="#DejaVuSans-30" x="159.033203"/>
      </g>
     </g>
    </g>
    <g id="ytick_4">
     <g id="line2d_13">
      <g>
       <use xlink:href="#m30f0dca9f0" x="36.465625" y="35.815385" style="stroke: #000000; stroke-width: 0.8"/>
      </g>
     </g>
     <g id="text_13">
      <!-- 0.75 -->
      <g transform="translate(7.2 39.614603) scale(0.1 -0.1)">
       <defs>
        <path id="DejaVuSans-37" d="M 525 4666 
L 3525 4666 
L 3525 4397 
L 1831 0 
L 1172 0 
L 2766 4134 
L 525 4134 
L 525 4666 
z
" transform="scale(0.015625)"/>
       </defs>
       <use xlink:href="#DejaVuSans-30"/>
       <use xlink:href="#DejaVuSans-2e" x="63.623047"/>
       <use xlink:href="#DejaVuSans-37" x="95.410156"/>
       <use xlink:href="#DejaVuSans-35" x="159.033203"/>
      </g>
     </g>
    </g>
    <g id="ytick_5">
     <g id="line2d_14">
      <g>
       <use xlink:href="#m30f0dca9f0" x="36.465625" y="11.969231" style="stroke: #000000; stroke-width: 0.8"/>
      </g>
     </g>
     <g id="text_14">
      <!-- 1.00 -->
      <g transform="translate(7.2 15.76845) scale(0.1 -0.1)">
       <use xlink:href="#DejaVuSans-31"/>
       <use xlink:href="#DejaVuSans-2e" x="63.623047"/>
       <use xlink:href="#DejaVuSans-30" x="95.410156"/>
       <use xlink:href="#DejaVuSans-30" x="159.033203"/>
      </g>
     </g>
    </g>
   </g>
   <g id="line2d_15">
    <defs>
     <path id="m91e4fcd71e" d="M 0 3 
C 0.795609 3 1.55874 2.683901 2.12132 2.12132 
C 2.683901 1.55874 3 0.795609 3 0 
C 3 -0.795609 2.683901 -1.55874 2.12132 -2.12132 
C 1.55874 -2.683901 0.795609 -3 0 -3 
C -0.795609 -3 -1.55874 -2.683901 -2.12132 -2.12132 
C -2.683901 -1.55874 -3 -0.795609 -3 0 
C -3 0.795609 -2.683901 1.55874 -2.12132 2.12132 
C -1.55874 2.683901 -0.795609 3 0 3 
z
" style="stroke: #1f77b4"/>
    </defs>
    <g clip-path="url(#pb0d103fc8e)">
     <use xlink:href="#m91e4fcd71e" x="50.415625" y="107.353755" style="fill: #1f77b4; stroke: #1f77b4"/>
     <use xlink:href="#m91e4fcd71e" x="57.569471" y="107.351936" style="fill: #1f77b4; stroke: #1f77b4"/>
     <use xlink:href="#m91e4fcd71e" x="64.723317" y="107.334652" style="fill: #1f77b4; stroke: #1f77b4"/>
     <use xlink:href="#m91e4fcd71e" x="71.877163" y="107.230951" style="fill: #1f77b4; stroke: #1f77b4"/>
     <use xlink:href="#m91e4fcd71e" x="79.03101" y="106.790222" style="fill: #1f77b4; stroke: #1f77b4"/>
     <use xlink:href="#m91e4fcd71e" x="86.184856" y="105.379887" style="fill: #1f77b4; stroke: #1f77b4"/>
     <use xlink:href="#m91e4fcd71e" x="93.338702" y="101.85405" style="fill: #1f77b4; stroke: #1f77b4"/>
     <use xlink:href="#m91e4fcd71e" x="100.492548" y="94.802377" style="fill: #1f77b4; stroke: #1f77b4"/>
     <use xlink:href="#m91e4fcd71e" x="107.646394" y="83.343408" style="fill: #1f77b4; stroke: #1f77b4"/>
     <use xlink:href="#m91e4fcd71e" x="114.80024" y="68.064782" style="fill: #1f77b4; stroke: #1f77b4"/>
     <use xlink:href="#m91e4fcd71e" x="121.954087" y="51.258294" style="fill: #1f77b4; stroke: #1f77b4"/>
     <use xlink:href="#m91e4fcd71e" x="129.107933" y="35.979669" style="fill: #1f77b4; stroke: #1f77b4"/>
     <use xlink:href="#m91e4fcd71e" x="136.261779" y="24.5207" style="fill: #1f77b4; stroke: #1f77b4"/>
     <use xlink:href="#m91e4fcd71e" x="143.415625" y="17.469027" style="fill: #1f77b4; stroke: #1f77b4"/>
     <use xlink:href="#m91e4fcd71e" x="150.569471" y="13.94319" style="fill: #1f77b4; stroke: #1f77b4"/>
     <use xlink:href="#m91e4fcd71e" x="157.723317" y="12.532855" style="fill: #1f77b4; stroke: #1f77b4"/>
     <use xlink:href="#m91e4fcd71e" x="164.877163" y="12.092126" style="fill: #1f77b4; stroke: #1f77b4"/>
     <use xlink:href="#m91e4fcd71e" x="172.03101" y="11.988425" style="fill: #1f77b4; stroke: #1f77b4"/>
     <use xlink:href="#m91e4fcd71e" x="179.184856" y="11.971141" style="fill: #1f77b4; stroke: #1f77b4"/>
     <use xlink:href="#m91e4fcd71e" x="186.338702" y="11.969322" style="fill: #1f77b4; stroke: #1f77b4"/>
     <use xlink:href="#m91e4fcd71e" x="193.492548" y="11.969231" style="fill: #1f77b4; stroke: #1f77b4"/>
     <use xlink:href="#m91e4fcd71e" x="200.646394" y="11.969231" style="fill: #1f77b4; stroke: #1f77b4"/>
     <use xlink:href="#m91e4fcd71e" x="207.80024" y="11.969231" style="fill: #1f77b4; stroke: #1f77b4"/>
     <use xlink:href="#m91e4fcd71e" x="214.954087" y="11.969231" style="fill: #1f77b4; stroke: #1f77b4"/>
     <use xlink:href="#m91e4fcd71e" x="222.107933" y="11.969231" style="fill: #1f77b4; stroke: #1f77b4"/>
     <use xlink:href="#m91e4fcd71e" x="229.261779" y="11.969231" style="fill: #1f77b4; stroke: #1f77b4"/>
     <use xlink:href="#m91e4fcd71e" x="236.415625" y="11.969231" style="fill: #1f77b4; stroke: #1f77b4"/>
     <use xlink:href="#m91e4fcd71e" x="243.569471" y="11.969231" style="fill: #1f77b4; stroke: #1f77b4"/>
     <use xlink:href="#m91e4fcd71e" x="250.723317" y="11.969231" style="fill: #1f77b4; stroke: #1f77b4"/>
     <use xlink:href="#m91e4fcd71e" x="257.877163" y="11.969231" style="fill: #1f77b4; stroke: #1f77b4"/>
     <use xlink:href="#m91e4fcd71e" x="265.03101" y="11.969231" style="fill: #1f77b4; stroke: #1f77b4"/>
     <use xlink:href="#m91e4fcd71e" x="272.184856" y="11.969231" style="fill: #1f77b4; stroke: #1f77b4"/>
     <use xlink:href="#m91e4fcd71e" x="279.338702" y="11.969231" style="fill: #1f77b4; stroke: #1f77b4"/>
     <use xlink:href="#m91e4fcd71e" x="286.492548" y="11.969231" style="fill: #1f77b4; stroke: #1f77b4"/>
     <use xlink:href="#m91e4fcd71e" x="293.646394" y="11.969231" style="fill: #1f77b4; stroke: #1f77b4"/>
     <use xlink:href="#m91e4fcd71e" x="300.80024" y="11.969231" style="fill: #1f77b4; stroke: #1f77b4"/>
     <use xlink:href="#m91e4fcd71e" x="307.954087" y="11.969231" style="fill: #1f77b4; stroke: #1f77b4"/>
     <use xlink:href="#m91e4fcd71e" x="315.107933" y="11.969231" style="fill: #1f77b4; stroke: #1f77b4"/>
     <use xlink:href="#m91e4fcd71e" x="322.261779" y="11.969231" style="fill: #1f77b4; stroke: #1f77b4"/>
     <use xlink:href="#m91e4fcd71e" x="329.415625" y="11.969231" style="fill: #1f77b4; stroke: #1f77b4"/>
    </g>
   </g>
   <g id="line2d_16">
    <defs>
     <path id="m8ea9c7a227" d="M -3 3 
L 3 -3 
M -3 -3 
L 3 3 
" style="stroke: #ff7f0e"/>
    </defs>
    <g clip-path="url(#pb0d103fc8e)">
     <use xlink:href="#m8ea9c7a227" x="50.415625" y="107.353846" style="fill: #ff7f0e; stroke: #ff7f0e"/>
     <use xlink:href="#m8ea9c7a227" x="57.569471" y="107.353846" style="fill: #ff7f0e; stroke: #ff7f0e"/>
     <use xlink:href="#m8ea9c7a227" x="64.723317" y="107.353843" style="fill: #ff7f0e; stroke: #ff7f0e"/>
     <use xlink:href="#m8ea9c7a227" x="71.877163" y="107.353794" style="fill: #ff7f0e; stroke: #ff7f0e"/>
     <use xlink:href="#m8ea9c7a227" x="79.03101" y="107.353317" style="fill: #ff7f0e; stroke: #ff7f0e"/>
     <use xlink:href="#m8ea9c7a227" x="86.184856" y="107.34975" style="fill: #ff7f0e; stroke: #ff7f0e"/>
     <use xlink:href="#m8ea9c7a227" x="93.338702" y="107.328946" style="fill: #ff7f0e; stroke: #ff7f0e"/>
     <use xlink:href="#m8ea9c7a227" x="100.492548" y="107.231861" style="fill: #ff7f0e; stroke: #ff7f0e"/>
     <use xlink:href="#m8ea9c7a227" x="107.646394" y="106.863745" style="fill: #ff7f0e; stroke: #ff7f0e"/>
     <use xlink:href="#m8ea9c7a227" x="114.80024" y="105.718494" style="fill: #ff7f0e; stroke: #ff7f0e"/>
     <use xlink:href="#m8ea9c7a227" x="121.954087" y="102.779019" style="fill: #ff7f0e; stroke: #ff7f0e"/>
     <use xlink:href="#m8ea9c7a227" x="129.107933" y="96.543768" style="fill: #ff7f0e; stroke: #ff7f0e"/>
     <use xlink:href="#m8ea9c7a227" x="136.261779" y="85.632079" style="fill: #ff7f0e; stroke: #ff7f0e"/>
     <use xlink:href="#m8ea9c7a227" x="143.415625" y="69.964013" style="fill: #ff7f0e; stroke: #ff7f0e"/>
     <use xlink:href="#m8ea9c7a227" x="150.569471" y="51.684602" style="fill: #ff7f0e; stroke: #ff7f0e"/>
     <use xlink:href="#m8ea9c7a227" x="157.723317" y="34.623819" style="fill: #ff7f0e; stroke: #ff7f0e"/>
     <use xlink:href="#m8ea9c7a227" x="164.877163" y="22.183664" style="fill: #ff7f0e; stroke: #ff7f0e"/>
     <use xlink:href="#m8ea9c7a227" x="172.03101" y="15.353776" style="fill: #ff7f0e; stroke: #ff7f0e"/>
     <use xlink:href="#m8ea9c7a227" x="179.184856" y="12.697708" style="fill: #ff7f0e; stroke: #ff7f0e"/>
     <use xlink:href="#m8ea9c7a227" x="186.338702" y="12.04534" style="fill: #ff7f0e; stroke: #ff7f0e"/>
     <use xlink:href="#m8ea9c7a227" x="193.492548" y="11.969231" style="fill: #ff7f0e; stroke: #ff7f0e"/>
     <use xlink:href="#m8ea9c7a227" x="200.646394" y="11.969231" style="fill: #ff7f0e; stroke: #ff7f0e"/>
     <use xlink:href="#m8ea9c7a227" x="207.80024" y="11.969231" style="fill: #ff7f0e; stroke: #ff7f0e"/>
     <use xlink:href="#m8ea9c7a227" x="214.954087" y="11.969231" style="fill: #ff7f0e; stroke: #ff7f0e"/>
     <use xlink:href="#m8ea9c7a227" x="222.107933" y="11.969231" style="fill: #ff7f0e; stroke: #ff7f0e"/>
     <use xlink:href="#m8ea9c7a227" x="229.261779" y="11.969231" style="fill: #ff7f0e; stroke: #ff7f0e"/>
     <use xlink:href="#m8ea9c7a227" x="236.415625" y="11.969231" style="fill: #ff7f0e; stroke: #ff7f0e"/>
     <use xlink:href="#m8ea9c7a227" x="243.569471" y="11.969231" style="fill: #ff7f0e; stroke: #ff7f0e"/>
     <use xlink:href="#m8ea9c7a227" x="250.723317" y="11.969231" style="fill: #ff7f0e; stroke: #ff7f0e"/>
     <use xlink:href="#m8ea9c7a227" x="257.877163" y="11.969231" style="fill: #ff7f0e; stroke: #ff7f0e"/>
     <use xlink:href="#m8ea9c7a227" x="265.03101" y="11.969231" style="fill: #ff7f0e; stroke: #ff7f0e"/>
     <use xlink:href="#m8ea9c7a227" x="272.184856" y="11.969231" style="fill: #ff7f0e; stroke: #ff7f0e"/>
     <use xlink:href="#m8ea9c7a227" x="279.338702" y="11.969231" style="fill: #ff7f0e; stroke: #ff7f0e"/>
     <use xlink:href="#m8ea9c7a227" x="286.492548" y="11.969231" style="fill: #ff7f0e; stroke: #ff7f0e"/>
     <use xlink:href="#m8ea9c7a227" x="293.646394" y="11.969231" style="fill: #ff7f0e; stroke: #ff7f0e"/>
     <use xlink:href="#m8ea9c7a227" x="300.80024" y="11.969231" style="fill: #ff7f0e; stroke: #ff7f0e"/>
     <use xlink:href="#m8ea9c7a227" x="307.954087" y="11.969231" style="fill: #ff7f0e; stroke: #ff7f0e"/>
     <use xlink:href="#m8ea9c7a227" x="315.107933" y="11.969231" style="fill: #ff7f0e; stroke: #ff7f0e"/>
     <use xlink:href="#m8ea9c7a227" x="322.261779" y="11.969231" style="fill: #ff7f0e; stroke: #ff7f0e"/>
     <use xlink:href="#m8ea9c7a227" x="329.415625" y="11.969231" style="fill: #ff7f0e; stroke: #ff7f0e"/>
    </g>
   </g>
   <g id="line2d_17">
    <defs>
     <path id="m1f79df8b9f" d="M -0 4.242641 
L 2.545584 0 
L 0 -4.242641 
L -2.545584 -0 
z
" style="stroke: #2ca02c; stroke-linejoin: miter"/>
    </defs>
    <g clip-path="url(#pb0d103fc8e)">
     <use xlink:href="#m1f79df8b9f" x="50.415625" y="107.353846" style="fill: #2ca02c; stroke: #2ca02c; stroke-linejoin: miter"/>
     <use xlink:href="#m1f79df8b9f" x="57.569471" y="107.353846" style="fill: #2ca02c; stroke: #2ca02c; stroke-linejoin: miter"/>
     <use xlink:href="#m1f79df8b9f" x="64.723317" y="107.353846" style="fill: #2ca02c; stroke: #2ca02c; stroke-linejoin: miter"/>
     <use xlink:href="#m1f79df8b9f" x="71.877163" y="107.353845" style="fill: #2ca02c; stroke: #2ca02c; stroke-linejoin: miter"/>
     <use xlink:href="#m1f79df8b9f" x="79.03101" y="107.353837" style="fill: #2ca02c; stroke: #2ca02c; stroke-linejoin: miter"/>
     <use xlink:href="#m1f79df8b9f" x="86.184856" y="107.35378" style="fill: #2ca02c; stroke: #2ca02c; stroke-linejoin: miter"/>
     <use xlink:href="#m1f79df8b9f" x="93.338702" y="107.353447" style="fill: #2ca02c; stroke: #2ca02c; stroke-linejoin: miter"/>
     <use xlink:href="#m1f79df8b9f" x="100.492548" y="107.35183" style="fill: #2ca02c; stroke: #2ca02c; stroke-linejoin: miter"/>
     <use xlink:href="#m1f79df8b9f" x="107.646394" y="107.345158" style="fill: #2ca02c; stroke: #2ca02c; stroke-linejoin: miter"/>
     <use xlink:href="#m1f79df8b9f" x="114.80024" y="107.321437" style="fill: #2ca02c; stroke: #2ca02c; stroke-linejoin: miter"/>
     <use xlink:href="#m1f79df8b9f" x="121.954087" y="107.247901" style="fill: #2ca02c; stroke: #2ca02c; stroke-linejoin: miter"/>
     <use xlink:href="#m1f79df8b9f" x="129.107933" y="107.047348" style="fill: #2ca02c; stroke: #2ca02c; stroke-linejoin: miter"/>
     <use xlink:href="#m1f79df8b9f" x="136.261779" y="106.562678" style="fill: #2ca02c; stroke: #2ca02c; stroke-linejoin: miter"/>
     <use xlink:href="#m1f79df8b9f" x="143.415625" y="105.518775" style="fill: #2ca02c; stroke: #2ca02c; stroke-linejoin: miter"/>
     <use xlink:href="#m1f79df8b9f" x="150.569471" y="103.505532" style="fill: #2ca02c; stroke: #2ca02c; stroke-linejoin: miter"/>
     <use xlink:href="#m1f79df8b9f" x="157.723317" y="100.01591" style="fill: #2ca02c; stroke: #2ca02c; stroke-linejoin: miter"/>
     <use xlink:href="#m1f79df8b9f" x="164.877163" y="94.563377" style="fill: #2ca02c; stroke: #2ca02c; stroke-linejoin: miter"/>
     <use xlink:href="#m1f79df8b9f" x="172.03101" y="86.865683" style="fill: #2ca02c; stroke: #2ca02c; stroke-linejoin: miter"/>
     <use xlink:href="#m1f79df8b9f" x="179.184856" y="77.029741" style="fill: #2ca02c; stroke: #2ca02c; stroke-linejoin: miter"/>
     <use xlink:href="#m1f79df8b9f" x="186.338702" y="65.640756" style="fill: #2ca02c; stroke: #2ca02c; stroke-linejoin: miter"/>
     <use xlink:href="#m1f79df8b9f" x="193.492548" y="53.682321" style="fill: #2ca02c; stroke: #2ca02c; stroke-linejoin: miter"/>
     <use xlink:href="#m1f79df8b9f" x="200.646394" y="42.293336" style="fill: #2ca02c; stroke: #2ca02c; stroke-linejoin: miter"/>
     <use xlink:href="#m1f79df8b9f" x="207.80024" y="32.457393" style="fill: #2ca02c; stroke: #2ca02c; stroke-linejoin: miter"/>
     <use xlink:href="#m1f79df8b9f" x="214.954087" y="24.7597" style="fill: #2ca02c; stroke: #2ca02c; stroke-linejoin: miter"/>
     <use xlink:href="#m1f79df8b9f" x="222.107933" y="19.307167" style="fill: #2ca02c; stroke: #2ca02c; stroke-linejoin: miter"/>
     <use xlink:href="#m1f79df8b9f" x="229.261779" y="15.817545" style="fill: #2ca02c; stroke: #2ca02c; stroke-linejoin: miter"/>
     <use xlink:href="#m1f79df8b9f" x="236.415625" y="13.804302" style="fill: #2ca02c; stroke: #2ca02c; stroke-linejoin: miter"/>
     <use xlink:href="#m1f79df8b9f" x="243.569471" y="12.760399" style="fill: #2ca02c; stroke: #2ca02c; stroke-linejoin: miter"/>
     <use xlink:href="#m1f79df8b9f" x="250.723317" y="12.275729" style="fill: #2ca02c; stroke: #2ca02c; stroke-linejoin: miter"/>
     <use xlink:href="#m1f79df8b9f" x="257.877163" y="12.075176" style="fill: #2ca02c; stroke: #2ca02c; stroke-linejoin: miter"/>
     <use xlink:href="#m1f79df8b9f" x="265.03101" y="12.00164" style="fill: #2ca02c; stroke: #2ca02c; stroke-linejoin: miter"/>
     <use xlink:href="#m1f79df8b9f" x="272.184856" y="11.977919" style="fill: #2ca02c; stroke: #2ca02c; stroke-linejoin: miter"/>
     <use xlink:href="#m1f79df8b9f" x="279.338702" y="11.971247" style="fill: #2ca02c; stroke: #2ca02c; stroke-linejoin: miter"/>
     <use xlink:href="#m1f79df8b9f" x="286.492548" y="11.96963" style="fill: #2ca02c; stroke: #2ca02c; stroke-linejoin: miter"/>
     <use xlink:href="#m1f79df8b9f" x="293.646394" y="11.969297" style="fill: #2ca02c; stroke: #2ca02c; stroke-linejoin: miter"/>
     <use xlink:href="#m1f79df8b9f" x="300.80024" y="11.96924" style="fill: #2ca02c; stroke: #2ca02c; stroke-linejoin: miter"/>
     <use xlink:href="#m1f79df8b9f" x="307.954087" y="11.969232" style="fill: #2ca02c; stroke: #2ca02c; stroke-linejoin: miter"/>
     <use xlink:href="#m1f79df8b9f" x="315.107933" y="11.969231" style="fill: #2ca02c; stroke: #2ca02c; stroke-linejoin: miter"/>
     <use xlink:href="#m1f79df8b9f" x="322.261779" y="11.969231" style="fill: #2ca02c; stroke: #2ca02c; stroke-linejoin: miter"/>
     <use xlink:href="#m1f79df8b9f" x="329.415625" y="11.969231" style="fill: #2ca02c; stroke: #2ca02c; stroke-linejoin: miter"/>
    </g>
   </g>
   <g id="patch_3">
    <path d="M 36.465625 112.123077 
L 36.465625 7.2 
" style="fill: none; stroke: #000000; stroke-width: 0.8; stroke-linejoin: miter; stroke-linecap: square"/>
   </g>
   <g id="patch_4">
    <path d="M 343.365625 112.123077 
L 343.365625 7.2 
" style="fill: none; stroke: #000000; stroke-width: 0.8; stroke-linejoin: miter; stroke-linecap: square"/>
   </g>
   <g id="patch_5">
    <path d="M 36.465625 112.123077 
L 343.365625 112.123077 
" style="fill: none; stroke: #000000; stroke-width: 0.8; stroke-linejoin: miter; stroke-linecap: square"/>
   </g>
   <g id="patch_6">
    <path d="M 36.465625 7.2 
L 343.365625 7.2 
" style="fill: none; stroke: #000000; stroke-width: 0.8; stroke-linejoin: miter; stroke-linecap: square"/>
   </g>
   <g id="legend_1">
    <g id="patch_7">
     <path d="M 239.065625 107.123077 
L 336.365625 107.123077 
Q 338.365625 107.123077 338.365625 105.123077 
L 338.365625 50.523077 
Q 338.365625 48.523077 336.365625 48.523077 
L 239.065625 48.523077 
Q 237.065625 48.523077 237.065625 50.523077 
L 237.065625 105.123077 
Q 237.065625 107.123077 239.065625 107.123077 
z
" style="fill: #ffffff; opacity: 0.8; stroke: #cccccc; stroke-linejoin: miter"/>
    </g>
    <g id="line2d_18">
     <g>
      <use xlink:href="#m91e4fcd71e" x="251.065625" y="58.523077" style="fill: #1f77b4; stroke: #1f77b4"/>
     </g>
    </g>
    <g id="text_15">
     <!-- $n=20, p=\frac{1}{2}$ -->
     <g transform="translate(269.065625 62.023077) scale(0.1 -0.1)">
      <defs>
       <path id="DejaVuSans-Oblique-6e" d="M 3566 2113 
L 3156 0 
L 2578 0 
L 2988 2091 
Q 3016 2238 3031 2350 
Q 3047 2463 3047 2528 
Q 3047 2791 2881 2937 
Q 2716 3084 2419 3084 
Q 1956 3084 1622 2776 
Q 1288 2469 1184 1941 
L 800 0 
L 225 0 
L 903 3500 
L 1478 3500 
L 1363 2950 
Q 1603 3253 1940 3418 
Q 2278 3584 2650 3584 
Q 3113 3584 3367 3334 
Q 3622 3084 3622 2631 
Q 3622 2519 3608 2391 
Q 3594 2263 3566 2113 
z
" transform="scale(0.015625)"/>
       <path id="DejaVuSans-3d" d="M 678 2906 
L 4684 2906 
L 4684 2381 
L 678 2381 
L 678 2906 
z
M 678 1631 
L 4684 1631 
L 4684 1100 
L 678 1100 
L 678 1631 
z
" transform="scale(0.015625)"/>
       <path id="DejaVuSans-2c" d="M 750 794 
L 1409 794 
L 1409 256 
L 897 -744 
L 494 -744 
L 750 256 
L 750 794 
z
" transform="scale(0.015625)"/>
       <path id="DejaVuSans-Oblique-70" d="M 3175 2156 
Q 3175 2616 2975 2859 
Q 2775 3103 2400 3103 
Q 2144 3103 1911 2972 
Q 1678 2841 1497 2591 
Q 1319 2344 1212 1994 
Q 1106 1644 1106 1300 
Q 1106 863 1306 627 
Q 1506 391 1875 391 
Q 2147 391 2380 519 
Q 2613 647 2778 891 
Q 2956 1147 3065 1494 
Q 3175 1841 3175 2156 
z
M 1394 2969 
Q 1625 3272 1939 3428 
Q 2253 3584 2638 3584 
Q 3175 3584 3472 3232 
Q 3769 2881 3769 2247 
Q 3769 1728 3584 1258 
Q 3400 788 3053 416 
Q 2822 169 2531 39 
Q 2241 -91 1919 -91 
Q 1547 -91 1294 64 
Q 1041 219 916 525 
L 556 -1331 
L -19 -1331 
L 922 3500 
L 1497 3500 
L 1394 2969 
z
" transform="scale(0.015625)"/>
      </defs>
      <use xlink:href="#DejaVuSans-Oblique-6e" transform="translate(0 0.16875)"/>
      <use xlink:href="#DejaVuSans-3d" transform="translate(82.861328 0.16875)"/>
      <use xlink:href="#DejaVuSans-32" transform="translate(186.132812 0.16875)"/>
      <use xlink:href="#DejaVuSans-30" transform="translate(249.755859 0.16875)"/>
      <use xlink:href="#DejaVuSans-2c" transform="translate(313.378906 0.16875)"/>
      <use xlink:href="#DejaVuSans-Oblique-70" transform="translate(364.648438 0.16875)"/>
      <use xlink:href="#DejaVuSans-3d" transform="translate(447.607422 0.16875)"/>
      <use xlink:href="#DejaVuSans-31" transform="translate(550.878906 43.965625) scale(0.7)"/>
      <use xlink:href="#DejaVuSans-32" transform="translate(550.878906 -39.2375) scale(0.7)"/>
      <path d="M 550.878906 18.965625 
L 550.878906 25.215625 
L 595.415039 25.215625 
L 595.415039 18.965625 
L 550.878906 18.965625 
z
"/>
     </g>
    </g>
    <g id="line2d_19">
     <g>
      <use xlink:href="#m8ea9c7a227" x="251.065625" y="77.023077" style="fill: #ff7f0e; stroke: #ff7f0e"/>
     </g>
    </g>
    <g id="text_16">
     <!-- $n=20, p=\frac{7}{10}$ -->
     <g transform="translate(269.065625 80.523077) scale(0.1 -0.1)">
      <use xlink:href="#DejaVuSans-Oblique-6e" transform="translate(0 0.16875)"/>
      <use xlink:href="#DejaVuSans-3d" transform="translate(82.861328 0.16875)"/>
      <use xlink:href="#DejaVuSans-32" transform="translate(186.132812 0.16875)"/>
      <use xlink:href="#DejaVuSans-30" transform="translate(249.755859 0.16875)"/>
      <use xlink:href="#DejaVuSans-2c" transform="translate(313.378906 0.16875)"/>
      <use xlink:href="#DejaVuSans-Oblique-70" transform="translate(364.648438 0.16875)"/>
      <use xlink:href="#DejaVuSans-3d" transform="translate(447.607422 0.16875)"/>
      <use xlink:href="#DejaVuSans-37" transform="translate(572.878906 43.965625) scale(0.7)"/>
      <use xlink:href="#DejaVuSans-31" transform="translate(550.878906 -39.2375) scale(0.7)"/>
      <use xlink:href="#DejaVuSans-30" transform="translate(595.415039 -39.2375) scale(0.7)"/>
      <path d="M 550.878906 18.965625 
L 550.878906 25.215625 
L 639.951172 25.215625 
L 639.951172 18.965625 
L 550.878906 18.965625 
z
"/>
     </g>
    </g>
    <g id="line2d_20">
     <g>
      <use xlink:href="#m1f79df8b9f" x="251.065625" y="95.623077" style="fill: #2ca02c; stroke: #2ca02c; stroke-linejoin: miter"/>
     </g>
    </g>
    <g id="text_17">
     <!-- $n=40, p=\frac{1}{2}$ -->
     <g transform="translate(269.065625 99.123077) scale(0.1 -0.1)">
      <use xlink:href="#DejaVuSans-Oblique-6e" transform="translate(0 0.16875)"/>
      <use xlink:href="#DejaVuSans-3d" transform="translate(82.861328 0.16875)"/>
      <use xlink:href="#DejaVuSans-34" transform="translate(186.132812 0.16875)"/>
      <use xlink:href="#DejaVuSans-30" transform="translate(249.755859 0.16875)"/>
      <use xlink:href="#DejaVuSans-2c" transform="translate(313.378906 0.16875)"/>
      <use xlink:href="#DejaVuSans-Oblique-70" transform="translate(364.648438 0.16875)"/>
      <use xlink:href="#DejaVuSans-3d" transform="translate(447.607422 0.16875)"/>
      <use xlink:href="#DejaVuSans-31" transform="translate(550.878906 43.965625) scale(0.7)"/>
      <use xlink:href="#DejaVuSans-32" transform="translate(550.878906 -39.2375) scale(0.7)"/>
      <path d="M 550.878906 18.965625 
L 550.878906 25.215625 
L 595.415039 25.215625 
L 595.415039 18.965625 
L 550.878906 18.965625 
z
"/>
     </g>
    </g>
   </g>
  </g>
 </g>
 <defs>
  <clipPath id="pb0d103fc8e">
   <rect x="36.465625" y="7.2" width="306.9" height="104.923077"/>
  </clipPath>
 </defs>
</svg>
