<?xml version="1.0" encoding="utf-8" standalone="no"?>
<!DOCTYPE svg PUBLIC "-//W3C//DTD SVG 1.1//EN"
  "http://www.w3.org/Graphics/SVG/1.1/DTD/svg11.dtd">
<svg xmlns:xlink="http://www.w3.org/1999/xlink" width="370.628125pt" height="147.05625pt" viewBox="0 0 370.628125 147.05625" xmlns="http://www.w3.org/2000/svg" version="1.1">
 <metadata>
  <rdf:RDF xmlns:dc="http://purl.org/dc/elements/1.1/" xmlns:cc="http://creativecommons.org/ns#" xmlns:rdf="http://www.w3.org/1999/02/22-rdf-syntax-ns#">
   <cc:Work>
    <dc:type rdf:resource="http://purl.org/dc/dcmitype/StillImage"/>
    <dc:date>2025-01-14T12:31:46.251379</dc:date>
    <dc:format>image/svg+xml</dc:format>
    <dc:creator>
     <cc:Agent>
      <dc:title>Matplotlib v3.9.2, https://matplotlib.org/</dc:title>
     </cc:Agent>
    </dc:creator>
   </cc:Work>
  </rdf:RDF>
 </metadata>
 <defs>
  <style type="text/css">*{stroke-linejoin: round; stroke-linecap: butt}</style>
 </defs>
 <g id="figure_1">
  <g id="patch_1">
   <path d="M -0 147.05625 
L 370.628125 147.05625 
L 370.628125 0 
L -0 0 
z
" style="fill: #ffffff"/>
  </g>
  <g id="axes_1">
   <g id="patch_2">
    <path d="M 56.528125 109.5 
L 363.428125 109.5 
L 363.428125 7.2 
L 56.528125 7.2 
z
" style="fill: #ffffff"/>
   </g>
   <g id="PolyCollection_1">
    <path d="M 234.659943 104.85 
L 234.659943 64.284959 
L 234.93267 63.546362 
L 235.205398 62.802937 
L 235.478125 62.054905 
L 235.750852 61.302492 
L 236.02358 60.545933 
L 236.296307 59.785469 
L 236.569034 59.021347 
L 236.841761 58.253821 
L 237.114489 57.483152 
L 237.387216 56.709605 
L 237.659943 55.933453 
L 237.93267 55.154976 
L 238.205398 54.374458 
L 238.478125 53.592189 
L 238.750852 52.808465 
L 239.02358 52.023588 
L 239.296307 51.237865 
L 239.569034 50.451607 
L 239.841761 49.665132 
L 240.114489 48.87876 
L 240.387216 48.092819 
L 240.659943 47.307637 
L 240.93267 46.523552 
L 241.205398 45.740899 
L 241.478125 44.960023 
L 241.750852 44.181268 
L 242.02358 43.404984 
L 242.296307 42.631522 
L 242.569034 41.861237 
L 242.841761 41.094486 
L 243.114489 40.331628 
L 243.387216 39.573025 
L 243.659943 38.819038 
L 243.93267 38.070034 
L 244.205398 37.326376 
L 244.478125 36.58843 
L 244.750852 35.856565 
L 245.02358 35.131145 
L 245.296307 34.412538 
L 245.569034 33.701111 
L 245.841761 32.997228 
L 246.114489 32.301255 
L 246.387216 31.613554 
L 246.659943 30.934488 
L 246.93267 30.264416 
L 247.205398 29.603696 
L 247.478125 28.952682 
L 247.750852 28.311727 
L 248.02358 27.681179 
L 248.296307 27.061384 
L 248.569034 26.452682 
L 248.841761 25.855412 
L 249.114489 25.269907 
L 249.387216 24.696493 
L 249.659943 24.135495 
L 249.93267 23.58723 
L 250.205398 23.05201 
L 250.478125 22.530141 
L 250.750852 22.021923 
L 251.02358 21.527649 
L 251.296307 21.047606 
L 251.569034 20.582072 
L 251.841761 20.13132 
L 252.114489 19.695615 
L 252.387216 19.275212 
L 252.659943 18.87036 
L 252.93267 18.4813 
L 253.205398 18.108261 
L 253.478125 17.751467 
L 253.750852 17.411131 
L 254.02358 17.087457 
L 254.296307 16.78064 
L 254.569034 16.490864 
L 254.841761 16.218305 
L 255.114489 15.963128 
L 255.387216 15.725488 
L 255.659943 15.505528 
L 255.93267 15.303383 
L 256.205398 15.119177 
L 256.478125 14.953021 
L 256.750852 14.805017 
L 257.02358 14.675256 
L 257.296307 14.563817 
L 257.569034 14.47077 
L 257.841761 14.39617 
L 258.114489 14.340063 
L 258.387216 14.302485 
L 258.659943 14.283458 
L 258.93267 14.282994 
L 259.205398 14.301093 
L 259.478125 14.337744 
L 259.750852 14.392925 
L 260.02358 14.466601 
L 260.296307 14.558728 
L 260.569034 14.669248 
L 260.841761 14.798095 
L 261.114489 14.945189 
L 261.387216 15.110439 
L 261.659943 15.293746 
L 261.93267 15.494997 
L 262.205398 15.714069 
L 262.478125 15.950828 
L 262.750852 16.205132 
L 263.02358 16.476826 
L 263.296307 16.765745 
L 263.569034 17.071714 
L 263.841761 17.39455 
L 264.114489 17.734057 
L 264.387216 18.090033 
L 264.659943 18.462265 
L 264.93267 18.85053 
L 265.205398 19.254598 
L 265.478125 19.674229 
L 265.750852 20.109176 
L 266.02358 20.559181 
L 266.296307 21.023982 
L 266.569034 21.503306 
L 266.841761 21.996876 
L 267.114489 22.504403 
L 267.387216 23.025597 
L 267.659943 23.560157 
L 267.93267 24.107777 
L 268.205398 24.668146 
L 268.478125 25.240946 
L 268.750852 25.825855 
L 269.02358 26.422545 
L 269.296307 27.030682 
L 269.569034 27.649931 
L 269.841761 28.27995 
L 270.114489 28.920393 
L 270.387216 29.570912 
L 270.659943 30.231155 
L 270.93267 30.900768 
L 271.205398 31.579393 
L 271.478125 32.26667 
L 271.750852 32.962238 
L 272.02358 33.665734 
L 272.296307 34.376793 
L 272.569034 35.09505 
L 272.841761 35.820137 
L 273.114489 36.55169 
L 273.387216 37.28934 
L 273.659943 38.032721 
L 273.93267 38.781467 
L 274.205398 39.535213 
L 274.478125 40.293594 
L 274.750852 41.056248 
L 275.02358 41.822812 
L 275.296307 42.592929 
L 275.569034 43.366241 
L 275.841761 44.142392 
L 276.114489 44.921032 
L 276.387216 45.70181 
L 276.659943 46.484382 
L 276.93267 47.268404 
L 277.205398 48.053539 
L 277.478125 48.83945 
L 277.750852 49.625808 
L 278.02358 50.412286 
L 278.296307 51.198562 
L 278.569034 51.98432 
L 278.841761 52.769246 
L 279.114489 53.553035 
L 279.387216 54.335384 
L 279.659943 55.115996 
L 279.93267 55.894582 
L 280.205398 56.670857 
L 280.478125 57.44454 
L 280.750852 58.21536 
L 281.02358 58.98305 
L 281.296307 59.747348 
L 281.569034 60.508001 
L 281.841761 61.26476 
L 282.114489 62.017386 
L 282.387216 62.765643 
L 282.659943 63.509304 
L 282.93267 64.248147 
L 283.205398 64.981959 
L 283.478125 65.710532 
L 283.750852 66.433666 
L 284.02358 67.151169 
L 284.296307 67.862853 
L 284.569034 68.56854 
L 284.841761 69.268058 
L 285.114489 69.961241 
L 285.387216 70.647932 
L 285.659943 71.327979 
L 285.93267 72.001239 
L 286.205398 72.667575 
L 286.478125 73.326857 
L 286.750852 73.978962 
L 287.02358 74.623773 
L 287.296307 75.261182 
L 287.569034 75.891086 
L 287.841761 76.51339 
L 288.114489 77.128004 
L 288.387216 77.734846 
L 288.659943 78.33384 
L 288.93267 78.924917 
L 289.205398 79.508013 
L 289.478125 80.083072 
L 289.750852 80.650043 
L 290.02358 81.208881 
L 290.296307 81.759548 
L 290.569034 82.302011 
L 290.841761 82.836243 
L 291.114489 83.362222 
L 291.387216 83.879933 
L 291.659943 84.389366 
L 291.93267 84.890514 
L 292.205398 85.383378 
L 292.478125 85.867964 
L 292.750852 86.34428 
L 293.02358 86.812342 
L 293.296307 87.272169 
L 293.569034 87.723785 
L 293.841761 88.167218 
L 294.114489 88.6025 
L 294.387216 89.029669 
L 294.659943 89.448763 
L 294.93267 89.859829 
L 295.205398 90.262914 
L 295.478125 90.658069 
L 295.750852 91.04535 
L 296.02358 91.424815 
L 296.296307 91.796524 
L 296.569034 92.160544 
L 296.841761 92.516941 
L 297.114489 92.865784 
L 297.387216 93.207148 
L 297.659943 93.541106 
L 297.93267 93.867737 
L 298.205398 94.187119 
L 298.478125 94.499336 
L 298.750852 94.80447 
L 299.02358 95.102607 
L 299.296307 95.393834 
L 299.569034 95.678241 
L 299.841761 95.955917 
L 300.114489 96.226954 
L 300.387216 96.491445 
L 300.659943 96.749484 
L 300.93267 97.001166 
L 301.205398 97.246587 
L 301.478125 97.485844 
L 301.750852 97.719034 
L 302.02358 97.946256 
L 302.296307 98.167607 
L 302.569034 98.383187 
L 302.841761 98.593094 
L 303.114489 98.797429 
L 303.387216 98.996291 
L 303.659943 99.18978 
L 303.93267 99.377995 
L 304.205398 99.561036 
L 304.478125 99.739001 
L 304.750852 99.911991 
L 305.02358 100.080104 
L 305.296307 100.243437 
L 305.569034 100.402089 
L 305.841761 100.556158 
L 306.114489 100.70574 
L 306.387216 100.85093 
L 306.659943 100.991825 
L 306.93267 101.128519 
L 307.205398 101.261105 
L 307.478125 101.389677 
L 307.750852 101.514327 
L 308.02358 101.635146 
L 308.296307 101.752224 
L 308.569034 101.86565 
L 308.841761 101.975512 
L 309.114489 102.081897 
L 309.387216 102.184891 
L 309.659943 102.284579 
L 309.93267 102.381045 
L 310.205398 102.47437 
L 310.478125 102.564636 
L 310.750852 102.651922 
L 311.02358 102.736309 
L 311.296307 102.817872 
L 311.569034 102.896688 
L 311.841761 102.972832 
L 312.114489 103.046378 
L 312.387216 103.117398 
L 312.659943 103.185962 
L 312.93267 103.25214 
L 313.205398 103.316001 
L 313.478125 103.377612 
L 313.750852 103.437037 
L 314.02358 103.494343 
L 314.296307 103.54959 
L 314.569034 103.602842 
L 314.841761 103.654159 
L 315.114489 103.703598 
L 315.387216 103.75122 
L 315.659943 103.797078 
L 315.93267 103.84123 
L 316.205398 103.883728 
L 316.478125 103.924626 
L 316.750852 103.963974 
L 317.02358 104.001823 
L 317.296307 104.038222 
L 317.569034 104.073218 
L 317.841761 104.106857 
L 318.114489 104.139186 
L 318.387216 104.170247 
L 318.659943 104.200085 
L 318.93267 104.22874 
L 319.205398 104.256253 
L 319.478125 104.282664 
L 319.750852 104.308012 
L 320.02358 104.332333 
L 320.296307 104.355664 
L 320.569034 104.37804 
L 320.841761 104.399496 
L 321.114489 104.420064 
L 321.387216 104.439778 
L 321.659943 104.458668 
L 321.93267 104.476764 
L 322.205398 104.494097 
L 322.478125 104.510694 
L 322.750852 104.526584 
L 323.02358 104.541793 
L 323.296307 104.556346 
L 323.569034 104.57027 
L 323.841761 104.583588 
L 324.114489 104.596324 
L 324.387216 104.608501 
L 324.659943 104.620141 
L 324.93267 104.631264 
L 325.205398 104.641891 
L 325.478125 104.652043 
L 325.750852 104.661739 
L 326.02358 104.670996 
L 326.296307 104.679832 
L 326.569034 104.688266 
L 326.841761 104.696313 
L 327.114489 104.70399 
L 327.387216 104.711312 
L 327.659943 104.718293 
L 327.93267 104.724949 
L 328.205398 104.731293 
L 328.478125 104.737338 
L 328.750852 104.743097 
L 329.02358 104.748583 
L 329.296307 104.753806 
L 329.569034 104.75878 
L 329.841761 104.763514 
L 330.114489 104.768019 
L 330.387216 104.772305 
L 330.659943 104.776383 
L 330.93267 104.78026 
L 331.205398 104.783947 
L 331.478125 104.787452 
L 331.750852 104.790783 
L 332.02358 104.793948 
L 332.296307 104.796955 
L 332.569034 104.799811 
L 332.841761 104.802523 
L 333.114489 104.805097 
L 333.387216 104.807541 
L 333.659943 104.80986 
L 333.93267 104.81206 
L 334.205398 104.814146 
L 334.478125 104.816125 
L 334.750852 104.818002 
L 335.02358 104.81978 
L 335.296307 104.821466 
L 335.569034 104.823063 
L 335.841761 104.824576 
L 336.114489 104.826008 
L 336.387216 104.827365 
L 336.659943 104.828649 
L 336.93267 104.829865 
L 337.205398 104.831015 
L 337.478125 104.832104 
L 337.750852 104.833133 
L 338.02358 104.834106 
L 338.296307 104.835027 
L 338.569034 104.835896 
L 338.841761 104.836718 
L 339.114489 104.837495 
L 339.387216 104.838229 
L 339.659943 104.838922 
L 339.93267 104.839576 
L 340.205398 104.840194 
L 340.478125 104.840777 
L 340.750852 104.841327 
L 341.02358 104.841846 
L 341.296307 104.842335 
L 341.569034 104.842797 
L 341.841761 104.843232 
L 342.114489 104.843642 
L 342.387216 104.844029 
L 342.659943 104.844393 
L 342.93267 104.844736 
L 343.205398 104.845059 
L 343.478125 104.845363 
L 343.750852 104.845649 
L 344.02358 104.845919 
L 344.296307 104.846173 
L 344.569034 104.846411 
L 344.841761 104.846635 
L 345.114489 104.846847 
L 345.387216 104.847045 
L 345.659943 104.847231 
L 345.93267 104.847407 
L 346.205398 104.847571 
L 346.478125 104.847726 
L 346.750852 104.847871 
L 347.02358 104.848008 
L 347.296307 104.848136 
L 347.569034 104.848256 
L 347.841761 104.848368 
L 348.114489 104.848474 
L 348.387216 104.848573 
L 348.659943 104.848666 
L 348.93267 104.848754 
L 349.205398 104.848835 
L 349.478125 104.848912 
L 349.478125 104.85 
L 349.478125 104.85 
L 349.205398 104.85 
L 348.93267 104.85 
L 348.659943 104.85 
L 348.387216 104.85 
L 348.114489 104.85 
L 347.841761 104.85 
L 347.569034 104.85 
L 347.296307 104.85 
L 347.02358 104.85 
L 346.750852 104.85 
L 346.478125 104.85 
L 346.205398 104.85 
L 345.93267 104.85 
L 345.659943 104.85 
L 345.387216 104.85 
L 345.114489 104.85 
L 344.841761 104.85 
L 344.569034 104.85 
L 344.296307 104.85 
L 344.02358 104.85 
L 343.750852 104.85 
L 343.478125 104.85 
L 343.205398 104.85 
L 342.93267 104.85 
L 342.659943 104.85 
L 342.387216 104.85 
L 342.114489 104.85 
L 341.841761 104.85 
L 341.569034 104.85 
L 341.296307 104.85 
L 341.02358 104.85 
L 340.750852 104.85 
L 340.478125 104.85 
L 340.205398 104.85 
L 339.93267 104.85 
L 339.659943 104.85 
L 339.387216 104.85 
L 339.114489 104.85 
L 338.841761 104.85 
L 338.569034 104.85 
L 338.296307 104.85 
L 338.02358 104.85 
L 337.750852 104.85 
L 337.478125 104.85 
L 337.205398 104.85 
L 336.93267 104.85 
L 336.659943 104.85 
L 336.387216 104.85 
L 336.114489 104.85 
L 335.841761 104.85 
L 335.569034 104.85 
L 335.296307 104.85 
L 335.02358 104.85 
L 334.750852 104.85 
L 334.478125 104.85 
L 334.205398 104.85 
L 333.93267 104.85 
L 333.659943 104.85 
L 333.387216 104.85 
L 333.114489 104.85 
L 332.841761 104.85 
L 332.569034 104.85 
L 332.296307 104.85 
L 332.02358 104.85 
L 331.750852 104.85 
L 331.478125 104.85 
L 331.205398 104.85 
L 330.93267 104.85 
L 330.659943 104.85 
L 330.387216 104.85 
L 330.114489 104.85 
L 329.841761 104.85 
L 329.569034 104.85 
L 329.296307 104.85 
L 329.02358 104.85 
L 328.750852 104.85 
L 328.478125 104.85 
L 328.205398 104.85 
L 327.93267 104.85 
L 327.659943 104.85 
L 327.387216 104.85 
L 327.114489 104.85 
L 326.841761 104.85 
L 326.569034 104.85 
L 326.296307 104.85 
L 326.02358 104.85 
L 325.750852 104.85 
L 325.478125 104.85 
L 325.205398 104.85 
L 324.93267 104.85 
L 324.659943 104.85 
L 324.387216 104.85 
L 324.114489 104.85 
L 323.841761 104.85 
L 323.569034 104.85 
L 323.296307 104.85 
L 323.02358 104.85 
L 322.750852 104.85 
L 322.478125 104.85 
L 322.205398 104.85 
L 321.93267 104.85 
L 321.659943 104.85 
L 321.387216 104.85 
L 321.114489 104.85 
L 320.841761 104.85 
L 320.569034 104.85 
L 320.296307 104.85 
L 320.02358 104.85 
L 319.750852 104.85 
L 319.478125 104.85 
L 319.205398 104.85 
L 318.93267 104.85 
L 318.659943 104.85 
L 318.387216 104.85 
L 318.114489 104.85 
L 317.841761 104.85 
L 317.569034 104.85 
L 317.296307 104.85 
L 317.02358 104.85 
L 316.750852 104.85 
L 316.478125 104.85 
L 316.205398 104.85 
L 315.93267 104.85 
L 315.659943 104.85 
L 315.387216 104.85 
L 315.114489 104.85 
L 314.841761 104.85 
L 314.569034 104.85 
L 314.296307 104.85 
L 314.02358 104.85 
L 313.750852 104.85 
L 313.478125 104.85 
L 313.205398 104.85 
L 312.93267 104.85 
L 312.659943 104.85 
L 312.387216 104.85 
L 312.114489 104.85 
L 311.841761 104.85 
L 311.569034 104.85 
L 311.296307 104.85 
L 311.02358 104.85 
L 310.750852 104.85 
L 310.478125 104.85 
L 310.205398 104.85 
L 309.93267 104.85 
L 309.659943 104.85 
L 309.387216 104.85 
L 309.114489 104.85 
L 308.841761 104.85 
L 308.569034 104.85 
L 308.296307 104.85 
L 308.02358 104.85 
L 307.750852 104.85 
L 307.478125 104.85 
L 307.205398 104.85 
L 306.93267 104.85 
L 306.659943 104.85 
L 306.387216 104.85 
L 306.114489 104.85 
L 305.841761 104.85 
L 305.569034 104.85 
L 305.296307 104.85 
L 305.02358 104.85 
L 304.750852 104.85 
L 304.478125 104.85 
L 304.205398 104.85 
L 303.93267 104.85 
L 303.659943 104.85 
L 303.387216 104.85 
L 303.114489 104.85 
L 302.841761 104.85 
L 302.569034 104.85 
L 302.296307 104.85 
L 302.02358 104.85 
L 301.750852 104.85 
L 301.478125 104.85 
L 301.205398 104.85 
L 300.93267 104.85 
L 300.659943 104.85 
L 300.387216 104.85 
L 300.114489 104.85 
L 299.841761 104.85 
L 299.569034 104.85 
L 299.296307 104.85 
L 299.02358 104.85 
L 298.750852 104.85 
L 298.478125 104.85 
L 298.205398 104.85 
L 297.93267 104.85 
L 297.659943 104.85 
L 297.387216 104.85 
L 297.114489 104.85 
L 296.841761 104.85 
L 296.569034 104.85 
L 296.296307 104.85 
L 296.02358 104.85 
L 295.750852 104.85 
L 295.478125 104.85 
L 295.205398 104.85 
L 294.93267 104.85 
L 294.659943 104.85 
L 294.387216 104.85 
L 294.114489 104.85 
L 293.841761 104.85 
L 293.569034 104.85 
L 293.296307 104.85 
L 293.02358 104.85 
L 292.750852 104.85 
L 292.478125 104.85 
L 292.205398 104.85 
L 291.93267 104.85 
L 291.659943 104.85 
L 291.387216 104.85 
L 291.114489 104.85 
L 290.841761 104.85 
L 290.569034 104.85 
L 290.296307 104.85 
L 290.02358 104.85 
L 289.750852 104.85 
L 289.478125 104.85 
L 289.205398 104.85 
L 288.93267 104.85 
L 288.659943 104.85 
L 288.387216 104.85 
L 288.114489 104.85 
L 287.841761 104.85 
L 287.569034 104.85 
L 287.296307 104.85 
L 287.02358 104.85 
L 286.750852 104.85 
L 286.478125 104.85 
L 286.205398 104.85 
L 285.93267 104.85 
L 285.659943 104.85 
L 285.387216 104.85 
L 285.114489 104.85 
L 284.841761 104.85 
L 284.569034 104.85 
L 284.296307 104.85 
L 284.02358 104.85 
L 283.750852 104.85 
L 283.478125 104.85 
L 283.205398 104.85 
L 282.93267 104.85 
L 282.659943 104.85 
L 282.387216 104.85 
L 282.114489 104.85 
L 281.841761 104.85 
L 281.569034 104.85 
L 281.296307 104.85 
L 281.02358 104.85 
L 280.750852 104.85 
L 280.478125 104.85 
L 280.205398 104.85 
L 279.93267 104.85 
L 279.659943 104.85 
L 279.387216 104.85 
L 279.114489 104.85 
L 278.841761 104.85 
L 278.569034 104.85 
L 278.296307 104.85 
L 278.02358 104.85 
L 277.750852 104.85 
L 277.478125 104.85 
L 277.205398 104.85 
L 276.93267 104.85 
L 276.659943 104.85 
L 276.387216 104.85 
L 276.114489 104.85 
L 275.841761 104.85 
L 275.569034 104.85 
L 275.296307 104.85 
L 275.02358 104.85 
L 274.750852 104.85 
L 274.478125 104.85 
L 274.205398 104.85 
L 273.93267 104.85 
L 273.659943 104.85 
L 273.387216 104.85 
L 273.114489 104.85 
L 272.841761 104.85 
L 272.569034 104.85 
L 272.296307 104.85 
L 272.02358 104.85 
L 271.750852 104.85 
L 271.478125 104.85 
L 271.205398 104.85 
L 270.93267 104.85 
L 270.659943 104.85 
L 270.387216 104.85 
L 270.114489 104.85 
L 269.841761 104.85 
L 269.569034 104.85 
L 269.296307 104.85 
L 269.02358 104.85 
L 268.750852 104.85 
L 268.478125 104.85 
L 268.205398 104.85 
L 267.93267 104.85 
L 267.659943 104.85 
L 267.387216 104.85 
L 267.114489 104.85 
L 266.841761 104.85 
L 266.569034 104.85 
L 266.296307 104.85 
L 266.02358 104.85 
L 265.750852 104.85 
L 265.478125 104.85 
L 265.205398 104.85 
L 264.93267 104.85 
L 264.659943 104.85 
L 264.387216 104.85 
L 264.114489 104.85 
L 263.841761 104.85 
L 263.569034 104.85 
L 263.296307 104.85 
L 263.02358 104.85 
L 262.750852 104.85 
L 262.478125 104.85 
L 262.205398 104.85 
L 261.93267 104.85 
L 261.659943 104.85 
L 261.387216 104.85 
L 261.114489 104.85 
L 260.841761 104.85 
L 260.569034 104.85 
L 260.296307 104.85 
L 260.02358 104.85 
L 259.750852 104.85 
L 259.478125 104.85 
L 259.205398 104.85 
L 258.93267 104.85 
L 258.659943 104.85 
L 258.387216 104.85 
L 258.114489 104.85 
L 257.841761 104.85 
L 257.569034 104.85 
L 257.296307 104.85 
L 257.02358 104.85 
L 256.750852 104.85 
L 256.478125 104.85 
L 256.205398 104.85 
L 255.93267 104.85 
L 255.659943 104.85 
L 255.387216 104.85 
L 255.114489 104.85 
L 254.841761 104.85 
L 254.569034 104.85 
L 254.296307 104.85 
L 254.02358 104.85 
L 253.750852 104.85 
L 253.478125 104.85 
L 253.205398 104.85 
L 252.93267 104.85 
L 252.659943 104.85 
L 252.387216 104.85 
L 252.114489 104.85 
L 251.841761 104.85 
L 251.569034 104.85 
L 251.296307 104.85 
L 251.02358 104.85 
L 250.750852 104.85 
L 250.478125 104.85 
L 250.205398 104.85 
L 249.93267 104.85 
L 249.659943 104.85 
L 249.387216 104.85 
L 249.114489 104.85 
L 248.841761 104.85 
L 248.569034 104.85 
L 248.296307 104.85 
L 248.02358 104.85 
L 247.750852 104.85 
L 247.478125 104.85 
L 247.205398 104.85 
L 246.93267 104.85 
L 246.659943 104.85 
L 246.387216 104.85 
L 246.114489 104.85 
L 245.841761 104.85 
L 245.569034 104.85 
L 245.296307 104.85 
L 245.02358 104.85 
L 244.750852 104.85 
L 244.478125 104.85 
L 244.205398 104.85 
L 243.93267 104.85 
L 243.659943 104.85 
L 243.387216 104.85 
L 243.114489 104.85 
L 242.841761 104.85 
L 242.569034 104.85 
L 242.296307 104.85 
L 242.02358 104.85 
L 241.750852 104.85 
L 241.478125 104.85 
L 241.205398 104.85 
L 240.93267 104.85 
L 240.659943 104.85 
L 240.387216 104.85 
L 240.114489 104.85 
L 239.841761 104.85 
L 239.569034 104.85 
L 239.296307 104.85 
L 239.02358 104.85 
L 238.750852 104.85 
L 238.478125 104.85 
L 238.205398 104.85 
L 237.93267 104.85 
L 237.659943 104.85 
L 237.387216 104.85 
L 237.114489 104.85 
L 236.841761 104.85 
L 236.569034 104.85 
L 236.296307 104.85 
L 236.02358 104.85 
L 235.750852 104.85 
L 235.478125 104.85 
L 235.205398 104.85 
L 234.93267 104.85 
L 234.659943 104.85 
z
" clip-path="url(#p7313579144)" style="fill: #1f77b4"/>
   </g>
   <g id="matplotlib.axis_1">
    <g id="xtick_1">
     <g id="line2d_1">
      <path d="M 70.478125 109.5 
L 70.478125 7.2 
" clip-path="url(#p7313579144)" style="fill: none; stroke: #b0b0b0; stroke-width: 0.8; stroke-linecap: square"/>
     </g>
     <g id="line2d_2">
      <defs>
       <path id="mddbabbb358" d="M 0 0 
L 0 3.5 
" style="stroke: #000000; stroke-width: 0.8"/>
      </defs>
      <g>
       <use xlink:href="#mddbabbb358" x="70.478125" y="109.5" style="stroke: #000000; stroke-width: 0.8"/>
      </g>
     </g>
     <g id="text_1">
      <!-- 0 -->
      <g transform="translate(67.296875 124.098438) scale(0.1 -0.1)">
       <defs>
        <path id="DejaVuSans-30" d="M 2034 4250 
Q 1547 4250 1301 3770 
Q 1056 3291 1056 2328 
Q 1056 1369 1301 889 
Q 1547 409 2034 409 
Q 2525 409 2770 889 
Q 3016 1369 3016 2328 
Q 3016 3291 2770 3770 
Q 2525 4250 2034 4250 
z
M 2034 4750 
Q 2819 4750 3233 4129 
Q 3647 3509 3647 2328 
Q 3647 1150 3233 529 
Q 2819 -91 2034 -91 
Q 1250 -91 836 529 
Q 422 1150 422 2328 
Q 422 3509 836 4129 
Q 1250 4750 2034 4750 
z
" transform="scale(0.015625)"/>
       </defs>
       <use xlink:href="#DejaVuSans-30"/>
      </g>
     </g>
    </g>
    <g id="xtick_2">
     <g id="line2d_3">
      <path d="M 105.353125 109.5 
L 105.353125 7.2 
" clip-path="url(#p7313579144)" style="fill: none; stroke: #b0b0b0; stroke-width: 0.8; stroke-linecap: square"/>
     </g>
     <g id="line2d_4">
      <g>
       <use xlink:href="#mddbabbb358" x="105.353125" y="109.5" style="stroke: #000000; stroke-width: 0.8"/>
      </g>
     </g>
     <g id="text_2">
      <!-- 50 -->
      <g transform="translate(98.990625 124.098438) scale(0.1 -0.1)">
       <defs>
        <path id="DejaVuSans-35" d="M 691 4666 
L 3169 4666 
L 3169 4134 
L 1269 4134 
L 1269 2991 
Q 1406 3038 1543 3061 
Q 1681 3084 1819 3084 
Q 2600 3084 3056 2656 
Q 3513 2228 3513 1497 
Q 3513 744 3044 326 
Q 2575 -91 1722 -91 
Q 1428 -91 1123 -41 
Q 819 9 494 109 
L 494 744 
Q 775 591 1075 516 
Q 1375 441 1709 441 
Q 2250 441 2565 725 
Q 2881 1009 2881 1497 
Q 2881 1984 2565 2268 
Q 2250 2553 1709 2553 
Q 1456 2553 1204 2497 
Q 953 2441 691 2322 
L 691 4666 
z
" transform="scale(0.015625)"/>
       </defs>
       <use xlink:href="#DejaVuSans-35"/>
       <use xlink:href="#DejaVuSans-30" x="63.623047"/>
      </g>
     </g>
    </g>
    <g id="xtick_3">
     <g id="line2d_5">
      <path d="M 140.228125 109.5 
L 140.228125 7.2 
" clip-path="url(#p7313579144)" style="fill: none; stroke: #b0b0b0; stroke-width: 0.8; stroke-linecap: square"/>
     </g>
     <g id="line2d_6">
      <g>
       <use xlink:href="#mddbabbb358" x="140.228125" y="109.5" style="stroke: #000000; stroke-width: 0.8"/>
      </g>
     </g>
     <g id="text_3">
      <!-- 100 -->
      <g transform="translate(130.684375 124.098438) scale(0.1 -0.1)">
       <defs>
        <path id="DejaVuSans-31" d="M 794 531 
L 1825 531 
L 1825 4091 
L 703 3866 
L 703 4441 
L 1819 4666 
L 2450 4666 
L 2450 531 
L 3481 531 
L 3481 0 
L 794 0 
L 794 531 
z
" transform="scale(0.015625)"/>
       </defs>
       <use xlink:href="#DejaVuSans-31"/>
       <use xlink:href="#DejaVuSans-30" x="63.623047"/>
       <use xlink:href="#DejaVuSans-30" x="127.246094"/>
      </g>
     </g>
    </g>
    <g id="xtick_4">
     <g id="line2d_7">
      <path d="M 175.103125 109.5 
L 175.103125 7.2 
" clip-path="url(#p7313579144)" style="fill: none; stroke: #b0b0b0; stroke-width: 0.8; stroke-linecap: square"/>
     </g>
     <g id="line2d_8">
      <g>
       <use xlink:href="#mddbabbb358" x="175.103125" y="109.5" style="stroke: #000000; stroke-width: 0.8"/>
      </g>
     </g>
     <g id="text_4">
      <!-- 150 -->
      <g transform="translate(165.559375 124.098438) scale(0.1 -0.1)">
       <use xlink:href="#DejaVuSans-31"/>
       <use xlink:href="#DejaVuSans-35" x="63.623047"/>
       <use xlink:href="#DejaVuSans-30" x="127.246094"/>
      </g>
     </g>
    </g>
    <g id="xtick_5">
     <g id="line2d_9">
      <path d="M 209.978125 109.5 
L 209.978125 7.2 
" clip-path="url(#p7313579144)" style="fill: none; stroke: #b0b0b0; stroke-width: 0.8; stroke-linecap: square"/>
     </g>
     <g id="line2d_10">
      <g>
       <use xlink:href="#mddbabbb358" x="209.978125" y="109.5" style="stroke: #000000; stroke-width: 0.8"/>
      </g>
     </g>
     <g id="text_5">
      <!-- 200 -->
      <g transform="translate(200.434375 124.098438) scale(0.1 -0.1)">
       <defs>
        <path id="DejaVuSans-32" d="M 1228 531 
L 3431 531 
L 3431 0 
L 469 0 
L 469 531 
Q 828 903 1448 1529 
Q 2069 2156 2228 2338 
Q 2531 2678 2651 2914 
Q 2772 3150 2772 3378 
Q 2772 3750 2511 3984 
Q 2250 4219 1831 4219 
Q 1534 4219 1204 4116 
Q 875 4013 500 3803 
L 500 4441 
Q 881 4594 1212 4672 
Q 1544 4750 1819 4750 
Q 2544 4750 2975 4387 
Q 3406 4025 3406 3419 
Q 3406 3131 3298 2873 
Q 3191 2616 2906 2266 
Q 2828 2175 2409 1742 
Q 1991 1309 1228 531 
z
" transform="scale(0.015625)"/>
       </defs>
       <use xlink:href="#DejaVuSans-32"/>
       <use xlink:href="#DejaVuSans-30" x="63.623047"/>
       <use xlink:href="#DejaVuSans-30" x="127.246094"/>
      </g>
     </g>
    </g>
    <g id="xtick_6">
     <g id="line2d_11">
      <path d="M 244.853125 109.5 
L 244.853125 7.2 
" clip-path="url(#p7313579144)" style="fill: none; stroke: #b0b0b0; stroke-width: 0.8; stroke-linecap: square"/>
     </g>
     <g id="line2d_12">
      <g>
       <use xlink:href="#mddbabbb358" x="244.853125" y="109.5" style="stroke: #000000; stroke-width: 0.8"/>
      </g>
     </g>
     <g id="text_6">
      <!-- 250 -->
      <g transform="translate(235.309375 124.098438) scale(0.1 -0.1)">
       <use xlink:href="#DejaVuSans-32"/>
       <use xlink:href="#DejaVuSans-35" x="63.623047"/>
       <use xlink:href="#DejaVuSans-30" x="127.246094"/>
      </g>
     </g>
    </g>
    <g id="xtick_7">
     <g id="line2d_13">
      <path d="M 279.728125 109.5 
L 279.728125 7.2 
" clip-path="url(#p7313579144)" style="fill: none; stroke: #b0b0b0; stroke-width: 0.8; stroke-linecap: square"/>
     </g>
     <g id="line2d_14">
      <g>
       <use xlink:href="#mddbabbb358" x="279.728125" y="109.5" style="stroke: #000000; stroke-width: 0.8"/>
      </g>
     </g>
     <g id="text_7">
      <!-- 300 -->
      <g transform="translate(270.184375 124.098438) scale(0.1 -0.1)">
       <defs>
        <path id="DejaVuSans-33" d="M 2597 2516 
Q 3050 2419 3304 2112 
Q 3559 1806 3559 1356 
Q 3559 666 3084 287 
Q 2609 -91 1734 -91 
Q 1441 -91 1130 -33 
Q 819 25 488 141 
L 488 750 
Q 750 597 1062 519 
Q 1375 441 1716 441 
Q 2309 441 2620 675 
Q 2931 909 2931 1356 
Q 2931 1769 2642 2001 
Q 2353 2234 1838 2234 
L 1294 2234 
L 1294 2753 
L 1863 2753 
Q 2328 2753 2575 2939 
Q 2822 3125 2822 3475 
Q 2822 3834 2567 4026 
Q 2313 4219 1838 4219 
Q 1578 4219 1281 4162 
Q 984 4106 628 3988 
L 628 4550 
Q 988 4650 1302 4700 
Q 1616 4750 1894 4750 
Q 2613 4750 3031 4423 
Q 3450 4097 3450 3541 
Q 3450 3153 3228 2886 
Q 3006 2619 2597 2516 
z
" transform="scale(0.015625)"/>
       </defs>
       <use xlink:href="#DejaVuSans-33"/>
       <use xlink:href="#DejaVuSans-30" x="63.623047"/>
       <use xlink:href="#DejaVuSans-30" x="127.246094"/>
      </g>
     </g>
    </g>
    <g id="xtick_8">
     <g id="line2d_15">
      <path d="M 314.603125 109.5 
L 314.603125 7.2 
" clip-path="url(#p7313579144)" style="fill: none; stroke: #b0b0b0; stroke-width: 0.8; stroke-linecap: square"/>
     </g>
     <g id="line2d_16">
      <g>
       <use xlink:href="#mddbabbb358" x="314.603125" y="109.5" style="stroke: #000000; stroke-width: 0.8"/>
      </g>
     </g>
     <g id="text_8">
      <!-- 350 -->
      <g transform="translate(305.059375 124.098438) scale(0.1 -0.1)">
       <use xlink:href="#DejaVuSans-33"/>
       <use xlink:href="#DejaVuSans-35" x="63.623047"/>
       <use xlink:href="#DejaVuSans-30" x="127.246094"/>
      </g>
     </g>
    </g>
    <g id="xtick_9">
     <g id="line2d_17">
      <path d="M 349.478125 109.5 
L 349.478125 7.2 
" clip-path="url(#p7313579144)" style="fill: none; stroke: #b0b0b0; stroke-width: 0.8; stroke-linecap: square"/>
     </g>
     <g id="line2d_18">
      <g>
       <use xlink:href="#mddbabbb358" x="349.478125" y="109.5" style="stroke: #000000; stroke-width: 0.8"/>
      </g>
     </g>
     <g id="text_9">
      <!-- 400 -->
      <g transform="translate(339.934375 124.098438) scale(0.1 -0.1)">
       <defs>
        <path id="DejaVuSans-34" d="M 2419 4116 
L 825 1625 
L 2419 1625 
L 2419 4116 
z
M 2253 4666 
L 3047 4666 
L 3047 1625 
L 3713 1625 
L 3713 1100 
L 3047 1100 
L 3047 0 
L 2419 0 
L 2419 1100 
L 313 1100 
L 313 1709 
L 2253 4666 
z
" transform="scale(0.015625)"/>
       </defs>
       <use xlink:href="#DejaVuSans-34"/>
       <use xlink:href="#DejaVuSans-30" x="63.623047"/>
       <use xlink:href="#DejaVuSans-30" x="127.246094"/>
      </g>
     </g>
    </g>
    <g id="text_10">
     <!-- $x$ -->
     <g transform="translate(206.978125 137.776563) scale(0.1 -0.1)">
      <defs>
       <path id="DejaVuSans-Oblique-78" d="M 3841 3500 
L 2234 1784 
L 3219 0 
L 2559 0 
L 1819 1388 
L 531 0 
L -166 0 
L 1556 1844 
L 641 3500 
L 1300 3500 
L 1972 2234 
L 3144 3500 
L 3841 3500 
z
" transform="scale(0.015625)"/>
      </defs>
      <use xlink:href="#DejaVuSans-Oblique-78" transform="translate(0 0.3125)"/>
     </g>
    </g>
   </g>
   <g id="matplotlib.axis_2">
    <g id="ytick_1">
     <g id="line2d_19">
      <path d="M 56.528125 104.85 
L 363.428125 104.85 
" clip-path="url(#p7313579144)" style="fill: none; stroke: #b0b0b0; stroke-width: 0.8; stroke-linecap: square"/>
     </g>
     <g id="line2d_20">
      <defs>
       <path id="m71ba91a73c" d="M 0 0 
L -3.5 0 
" style="stroke: #000000; stroke-width: 0.8"/>
      </defs>
      <g>
       <use xlink:href="#m71ba91a73c" x="56.528125" y="104.85" style="stroke: #000000; stroke-width: 0.8"/>
      </g>
     </g>
     <g id="text_11">
      <!-- 0.000 -->
      <g transform="translate(20.9 108.649219) scale(0.1 -0.1)">
       <defs>
        <path id="DejaVuSans-2e" d="M 684 794 
L 1344 794 
L 1344 0 
L 684 0 
L 684 794 
z
" transform="scale(0.015625)"/>
       </defs>
       <use xlink:href="#DejaVuSans-30"/>
       <use xlink:href="#DejaVuSans-2e" x="63.623047"/>
       <use xlink:href="#DejaVuSans-30" x="95.410156"/>
       <use xlink:href="#DejaVuSans-30" x="159.033203"/>
       <use xlink:href="#DejaVuSans-30" x="222.65625"/>
      </g>
     </g>
    </g>
    <g id="ytick_2">
     <g id="line2d_21">
      <path d="M 56.528125 73.85 
L 363.428125 73.85 
" clip-path="url(#p7313579144)" style="fill: none; stroke: #b0b0b0; stroke-width: 0.8; stroke-linecap: square"/>
     </g>
     <g id="line2d_22">
      <g>
       <use xlink:href="#m71ba91a73c" x="56.528125" y="73.85" style="stroke: #000000; stroke-width: 0.8"/>
      </g>
     </g>
     <g id="text_12">
      <!-- 0.005 -->
      <g transform="translate(20.9 77.649219) scale(0.1 -0.1)">
       <use xlink:href="#DejaVuSans-30"/>
       <use xlink:href="#DejaVuSans-2e" x="63.623047"/>
       <use xlink:href="#DejaVuSans-30" x="95.410156"/>
       <use xlink:href="#DejaVuSans-30" x="159.033203"/>
       <use xlink:href="#DejaVuSans-35" x="222.65625"/>
      </g>
     </g>
    </g>
    <g id="ytick_3">
     <g id="line2d_23">
      <path d="M 56.528125 42.85 
L 363.428125 42.85 
" clip-path="url(#p7313579144)" style="fill: none; stroke: #b0b0b0; stroke-width: 0.8; stroke-linecap: square"/>
     </g>
     <g id="line2d_24">
      <g>
       <use xlink:href="#m71ba91a73c" x="56.528125" y="42.85" style="stroke: #000000; stroke-width: 0.8"/>
      </g>
     </g>
     <g id="text_13">
      <!-- 0.010 -->
      <g transform="translate(20.9 46.649219) scale(0.1 -0.1)">
       <use xlink:href="#DejaVuSans-30"/>
       <use xlink:href="#DejaVuSans-2e" x="63.623047"/>
       <use xlink:href="#DejaVuSans-30" x="95.410156"/>
       <use xlink:href="#DejaVuSans-31" x="159.033203"/>
       <use xlink:href="#DejaVuSans-30" x="222.65625"/>
      </g>
     </g>
    </g>
    <g id="ytick_4">
     <g id="line2d_25">
      <path d="M 56.528125 11.85 
L 363.428125 11.85 
" clip-path="url(#p7313579144)" style="fill: none; stroke: #b0b0b0; stroke-width: 0.8; stroke-linecap: square"/>
     </g>
     <g id="line2d_26">
      <g>
       <use xlink:href="#m71ba91a73c" x="56.528125" y="11.85" style="stroke: #000000; stroke-width: 0.8"/>
      </g>
     </g>
     <g id="text_14">
      <!-- 0.015 -->
      <g transform="translate(20.9 15.649219) scale(0.1 -0.1)">
       <use xlink:href="#DejaVuSans-30"/>
       <use xlink:href="#DejaVuSans-2e" x="63.623047"/>
       <use xlink:href="#DejaVuSans-30" x="95.410156"/>
       <use xlink:href="#DejaVuSans-31" x="159.033203"/>
       <use xlink:href="#DejaVuSans-35" x="222.65625"/>
      </g>
     </g>
    </g>
    <g id="text_15">
     <!-- $p(R_{aH})$ -->
     <g transform="translate(14.8 73.85) rotate(-90) scale(0.1 -0.1)">
      <defs>
       <path id="DejaVuSans-Oblique-70" d="M 3175 2156 
Q 3175 2616 2975 2859 
Q 2775 3103 2400 3103 
Q 2144 3103 1911 2972 
Q 1678 2841 1497 2591 
Q 1319 2344 1212 1994 
Q 1106 1644 1106 1300 
Q 1106 863 1306 627 
Q 1506 391 1875 391 
Q 2147 391 2380 519 
Q 2613 647 2778 891 
Q 2956 1147 3065 1494 
Q 3175 1841 3175 2156 
z
M 1394 2969 
Q 1625 3272 1939 3428 
Q 2253 3584 2638 3584 
Q 3175 3584 3472 3232 
Q 3769 2881 3769 2247 
Q 3769 1728 3584 1258 
Q 3400 788 3053 416 
Q 2822 169 2531 39 
Q 2241 -91 1919 -91 
Q 1547 -91 1294 64 
Q 1041 219 916 525 
L 556 -1331 
L -19 -1331 
L 922 3500 
L 1497 3500 
L 1394 2969 
z
" transform="scale(0.015625)"/>
       <path id="DejaVuSans-28" d="M 1984 4856 
Q 1566 4138 1362 3434 
Q 1159 2731 1159 2009 
Q 1159 1288 1364 580 
Q 1569 -128 1984 -844 
L 1484 -844 
Q 1016 -109 783 600 
Q 550 1309 550 2009 
Q 550 2706 781 3412 
Q 1013 4119 1484 4856 
L 1984 4856 
z
" transform="scale(0.015625)"/>
       <path id="DejaVuSans-Oblique-52" d="M 1613 4147 
L 1294 2491 
L 2106 2491 
Q 2584 2491 2879 2755 
Q 3175 3019 3175 3444 
Q 3175 3784 2976 3965 
Q 2778 4147 2406 4147 
L 1613 4147 
z
M 2772 2241 
Q 2972 2194 3105 2009 
Q 3238 1825 3413 1275 
L 3809 0 
L 3144 0 
L 2778 1197 
Q 2638 1659 2453 1815 
Q 2269 1972 1888 1972 
L 1191 1972 
L 806 0 
L 172 0 
L 1081 4666 
L 2503 4666 
Q 3150 4666 3495 4373 
Q 3841 4081 3841 3531 
Q 3841 3044 3547 2687 
Q 3253 2331 2772 2241 
z
" transform="scale(0.015625)"/>
       <path id="DejaVuSans-Oblique-61" d="M 3438 1997 
L 3047 0 
L 2472 0 
L 2578 531 
Q 2325 219 2001 64 
Q 1678 -91 1281 -91 
Q 834 -91 548 182 
Q 263 456 263 884 
Q 263 1497 752 1853 
Q 1241 2209 2100 2209 
L 2900 2209 
L 2931 2363 
Q 2938 2388 2941 2417 
Q 2944 2447 2944 2509 
Q 2944 2788 2717 2942 
Q 2491 3097 2081 3097 
Q 1800 3097 1504 3025 
Q 1209 2953 897 2809 
L 997 3341 
Q 1322 3463 1633 3523 
Q 1944 3584 2234 3584 
Q 2853 3584 3176 3315 
Q 3500 3047 3500 2534 
Q 3500 2431 3484 2292 
Q 3469 2153 3438 1997 
z
M 2816 1759 
L 2241 1759 
Q 1534 1759 1195 1570 
Q 856 1381 856 984 
Q 856 709 1029 553 
Q 1203 397 1509 397 
Q 1978 397 2328 733 
Q 2678 1069 2791 1631 
L 2816 1759 
z
" transform="scale(0.015625)"/>
       <path id="DejaVuSans-Oblique-48" d="M 1081 4666 
L 1716 4666 
L 1344 2753 
L 3634 2753 
L 4006 4666 
L 4641 4666 
L 3731 0 
L 3097 0 
L 3531 2222 
L 1241 2222 
L 806 0 
L 172 0 
L 1081 4666 
z
" transform="scale(0.015625)"/>
       <path id="DejaVuSans-29" d="M 513 4856 
L 1013 4856 
Q 1481 4119 1714 3412 
Q 1947 2706 1947 2009 
Q 1947 1309 1714 600 
Q 1481 -109 1013 -844 
L 513 -844 
Q 928 -128 1133 580 
Q 1338 1288 1338 2009 
Q 1338 2731 1133 3434 
Q 928 4138 513 4856 
z
" transform="scale(0.015625)"/>
      </defs>
      <use xlink:href="#DejaVuSans-Oblique-70" transform="translate(0 0.125)"/>
      <use xlink:href="#DejaVuSans-28" transform="translate(63.476562 0.125)"/>
      <use xlink:href="#DejaVuSans-Oblique-52" transform="translate(102.490234 0.125)"/>
      <use xlink:href="#DejaVuSans-Oblique-61" transform="translate(171.972656 -16.28125) scale(0.7)"/>
      <use xlink:href="#DejaVuSans-Oblique-48" transform="translate(214.868164 -16.28125) scale(0.7)"/>
      <use xlink:href="#DejaVuSans-29" transform="translate(270.239258 0.125)"/>
     </g>
    </g>
   </g>
   <g id="line2d_27">
    <path d="M 70.478125 104.85 
L 188.841761 104.743378 
L 195.387216 104.494944 
L 199.750852 104.108505 
L 203.02358 103.605454 
L 205.750852 102.976571 
L 208.205398 102.189953 
L 210.387216 101.267628 
L 212.569034 100.088383 
L 214.478125 98.807502 
L 216.387216 97.258696 
L 218.296307 95.408216 
L 220.205398 93.224021 
L 222.114489 90.67762 
L 224.02358 87.746151 
L 225.93267 84.41462 
L 228.114489 80.111613 
L 230.296307 75.292857 
L 232.750852 69.302869 
L 235.478125 62.054905 
L 239.569034 50.451607 
L 244.478125 36.58843 
L 246.93267 30.264416 
L 248.841761 25.855412 
L 250.478125 22.530141 
L 252.114489 19.695615 
L 253.478125 17.751467 
L 254.841761 16.218305 
L 255.93267 15.303383 
L 257.02358 14.675256 
L 258.114489 14.340063 
L 259.205398 14.301093 
L 260.296307 14.558728 
L 261.387216 15.110439 
L 262.478125 15.950828 
L 263.569034 17.071714 
L 264.93267 18.85053 
L 266.296307 21.023982 
L 267.93267 24.107777 
L 269.841761 28.27995 
L 272.02358 33.665734 
L 274.750852 41.056248 
L 285.387216 70.647932 
L 287.841761 76.51339 
L 290.02358 81.208881 
L 292.205398 85.383378 
L 294.114489 88.6025 
L 296.02358 91.424815 
L 297.93267 93.867737 
L 299.841761 95.955917 
L 301.750852 97.719034 
L 303.659943 99.18978 
L 305.569034 100.402089 
L 307.750852 101.514327 
L 309.93267 102.381045 
L 312.387216 103.117398 
L 315.114489 103.703598 
L 318.387216 104.170247 
L 322.478125 104.510694 
L 327.93267 104.724949 
L 337.205398 104.831015 
L 349.478125 104.848912 
L 349.478125 104.848912 
" clip-path="url(#p7313579144)" style="fill: none; stroke: #1f77b4; stroke-width: 1.5; stroke-linecap: square"/>
   </g>
   <g id="line2d_28">
    <path d="M 234.391202 104.85 
L 234.391202 11.85 
" clip-path="url(#p7313579144)" style="fill: none; stroke: #ff7f0e; stroke-width: 1.5; stroke-linecap: square"/>
   </g>
   <g id="patch_3">
    <path d="M 56.528125 109.5 
L 56.528125 7.2 
" style="fill: none; stroke: #000000; stroke-width: 0.8; stroke-linejoin: miter; stroke-linecap: square"/>
   </g>
   <g id="patch_4">
    <path d="M 363.428125 109.5 
L 363.428125 7.2 
" style="fill: none; stroke: #000000; stroke-width: 0.8; stroke-linejoin: miter; stroke-linecap: square"/>
   </g>
   <g id="patch_5">
    <path d="M 56.528125 109.5 
L 363.428125 109.5 
" style="fill: none; stroke: #000000; stroke-width: 0.8; stroke-linejoin: miter; stroke-linecap: square"/>
   </g>
   <g id="patch_6">
    <path d="M 56.528125 7.2 
L 363.428125 7.2 
" style="fill: none; stroke: #000000; stroke-width: 0.8; stroke-linejoin: miter; stroke-linecap: square"/>
   </g>
  </g>
 </g>
 <defs>
  <clipPath id="p7313579144">
   <rect x="56.528125" y="7.2" width="306.9" height="102.3"/>
  </clipPath>
 </defs>
</svg>
