<?xml version="1.0" encoding="utf-8" standalone="no"?>
<!DOCTYPE svg PUBLIC "-//W3C//DTD SVG 1.1//EN"
  "http://www.w3.org/Graphics/SVG/1.1/DTD/svg11.dtd">
<svg xmlns:xlink="http://www.w3.org/1999/xlink" width="344.203125pt" height="134.320268pt" viewBox="0 0 344.203125 134.320268" xmlns="http://www.w3.org/2000/svg" version="1.1">
 <metadata>
  <rdf:RDF xmlns:dc="http://purl.org/dc/elements/1.1/" xmlns:cc="http://creativecommons.org/ns#" xmlns:rdf="http://www.w3.org/1999/02/22-rdf-syntax-ns#">
   <cc:Work>
    <dc:type rdf:resource="http://purl.org/dc/dcmitype/StillImage"/>
    <dc:date>2025-01-14T09:09:51.816751</dc:date>
    <dc:format>image/svg+xml</dc:format>
    <dc:creator>
     <cc:Agent>
      <dc:title>Matplotlib v3.9.2, https://matplotlib.org/</dc:title>
     </cc:Agent>
    </dc:creator>
   </cc:Work>
  </rdf:RDF>
 </metadata>
 <defs>
  <style type="text/css">*{stroke-linejoin: round; stroke-linecap: butt}</style>
 </defs>
 <g id="figure_1">
  <g id="patch_1">
   <path d="M 0 134.320268 
L 344.203125 134.320268 
L 344.203125 -0 
L 0 -0 
z
" style="fill: #ffffff"/>
  </g>
  <g id="axes_1">
   <g id="patch_2">
    <path d="M 30.103125 110.442143 
L 337.003125 110.442143 
L 337.003125 7.2 
L 30.103125 7.2 
z
" style="fill: #ffffff"/>
   </g>
   <g id="matplotlib.axis_1">
    <g id="xtick_1">
     <g id="line2d_1">
      <defs>
       <path id="m14b91a66a9" d="M 0 0 
L 0 3.5 
" style="stroke: #000000; stroke-width: 0.8"/>
      </defs>
      <g>
       <use xlink:href="#m14b91a66a9" x="44.053125" y="110.442143" style="stroke: #000000; stroke-width: 0.8"/>
      </g>
     </g>
     <g id="text_1">
      <!-- −3 -->
      <g transform="translate(36.682031 125.040581) scale(0.1 -0.1)">
       <defs>
        <path id="DejaVuSans-2212" d="M 678 2272 
L 4684 2272 
L 4684 1741 
L 678 1741 
L 678 2272 
z
" transform="scale(0.015625)"/>
        <path id="DejaVuSans-33" d="M 2597 2516 
Q 3050 2419 3304 2112 
Q 3559 1806 3559 1356 
Q 3559 666 3084 287 
Q 2609 -91 1734 -91 
Q 1441 -91 1130 -33 
Q 819 25 488 141 
L 488 750 
Q 750 597 1062 519 
Q 1375 441 1716 441 
Q 2309 441 2620 675 
Q 2931 909 2931 1356 
Q 2931 1769 2642 2001 
Q 2353 2234 1838 2234 
L 1294 2234 
L 1294 2753 
L 1863 2753 
Q 2328 2753 2575 2939 
Q 2822 3125 2822 3475 
Q 2822 3834 2567 4026 
Q 2313 4219 1838 4219 
Q 1578 4219 1281 4162 
Q 984 4106 628 3988 
L 628 4550 
Q 988 4650 1302 4700 
Q 1616 4750 1894 4750 
Q 2613 4750 3031 4423 
Q 3450 4097 3450 3541 
Q 3450 3153 3228 2886 
Q 3006 2619 2597 2516 
z
" transform="scale(0.015625)"/>
       </defs>
       <use xlink:href="#DejaVuSans-2212"/>
       <use xlink:href="#DejaVuSans-33" x="83.789062"/>
      </g>
     </g>
    </g>
    <g id="xtick_2">
     <g id="line2d_2">
      <g>
       <use xlink:href="#m14b91a66a9" x="90.553125" y="110.442143" style="stroke: #000000; stroke-width: 0.8"/>
      </g>
     </g>
     <g id="text_2">
      <!-- −2 -->
      <g transform="translate(83.182031 125.040581) scale(0.1 -0.1)">
       <defs>
        <path id="DejaVuSans-32" d="M 1228 531 
L 3431 531 
L 3431 0 
L 469 0 
L 469 531 
Q 828 903 1448 1529 
Q 2069 2156 2228 2338 
Q 2531 2678 2651 2914 
Q 2772 3150 2772 3378 
Q 2772 3750 2511 3984 
Q 2250 4219 1831 4219 
Q 1534 4219 1204 4116 
Q 875 4013 500 3803 
L 500 4441 
Q 881 4594 1212 4672 
Q 1544 4750 1819 4750 
Q 2544 4750 2975 4387 
Q 3406 4025 3406 3419 
Q 3406 3131 3298 2873 
Q 3191 2616 2906 2266 
Q 2828 2175 2409 1742 
Q 1991 1309 1228 531 
z
" transform="scale(0.015625)"/>
       </defs>
       <use xlink:href="#DejaVuSans-2212"/>
       <use xlink:href="#DejaVuSans-32" x="83.789062"/>
      </g>
     </g>
    </g>
    <g id="xtick_3">
     <g id="line2d_3">
      <g>
       <use xlink:href="#m14b91a66a9" x="137.053125" y="110.442143" style="stroke: #000000; stroke-width: 0.8"/>
      </g>
     </g>
     <g id="text_3">
      <!-- −1 -->
      <g transform="translate(129.682031 125.040581) scale(0.1 -0.1)">
       <defs>
        <path id="DejaVuSans-31" d="M 794 531 
L 1825 531 
L 1825 4091 
L 703 3866 
L 703 4441 
L 1819 4666 
L 2450 4666 
L 2450 531 
L 3481 531 
L 3481 0 
L 794 0 
L 794 531 
z
" transform="scale(0.015625)"/>
       </defs>
       <use xlink:href="#DejaVuSans-2212"/>
       <use xlink:href="#DejaVuSans-31" x="83.789062"/>
      </g>
     </g>
    </g>
    <g id="xtick_4">
     <g id="line2d_4">
      <g>
       <use xlink:href="#m14b91a66a9" x="183.553125" y="110.442143" style="stroke: #000000; stroke-width: 0.8"/>
      </g>
     </g>
     <g id="text_4">
      <!-- 0 -->
      <g transform="translate(180.371875 125.040581) scale(0.1 -0.1)">
       <defs>
        <path id="DejaVuSans-30" d="M 2034 4250 
Q 1547 4250 1301 3770 
Q 1056 3291 1056 2328 
Q 1056 1369 1301 889 
Q 1547 409 2034 409 
Q 2525 409 2770 889 
Q 3016 1369 3016 2328 
Q 3016 3291 2770 3770 
Q 2525 4250 2034 4250 
z
M 2034 4750 
Q 2819 4750 3233 4129 
Q 3647 3509 3647 2328 
Q 3647 1150 3233 529 
Q 2819 -91 2034 -91 
Q 1250 -91 836 529 
Q 422 1150 422 2328 
Q 422 3509 836 4129 
Q 1250 4750 2034 4750 
z
" transform="scale(0.015625)"/>
       </defs>
       <use xlink:href="#DejaVuSans-30"/>
      </g>
     </g>
    </g>
    <g id="xtick_5">
     <g id="line2d_5">
      <g>
       <use xlink:href="#m14b91a66a9" x="230.053125" y="110.442143" style="stroke: #000000; stroke-width: 0.8"/>
      </g>
     </g>
     <g id="text_5">
      <!-- 1 -->
      <g transform="translate(226.871875 125.040581) scale(0.1 -0.1)">
       <use xlink:href="#DejaVuSans-31"/>
      </g>
     </g>
    </g>
    <g id="xtick_6">
     <g id="line2d_6">
      <g>
       <use xlink:href="#m14b91a66a9" x="276.553125" y="110.442143" style="stroke: #000000; stroke-width: 0.8"/>
      </g>
     </g>
     <g id="text_6">
      <!-- 2 -->
      <g transform="translate(273.371875 125.040581) scale(0.1 -0.1)">
       <use xlink:href="#DejaVuSans-32"/>
      </g>
     </g>
    </g>
    <g id="xtick_7">
     <g id="line2d_7">
      <g>
       <use xlink:href="#m14b91a66a9" x="323.053125" y="110.442143" style="stroke: #000000; stroke-width: 0.8"/>
      </g>
     </g>
     <g id="text_7">
      <!-- 3 -->
      <g transform="translate(319.871875 125.040581) scale(0.1 -0.1)">
       <use xlink:href="#DejaVuSans-33"/>
      </g>
     </g>
    </g>
   </g>
   <g id="matplotlib.axis_2">
    <g id="ytick_1">
     <g id="line2d_8">
      <defs>
       <path id="mb691e74272" d="M 0 0 
L -3.5 0 
" style="stroke: #000000; stroke-width: 0.8"/>
      </defs>
      <g>
       <use xlink:href="#mb691e74272" x="30.103125" y="105.749319" style="stroke: #000000; stroke-width: 0.8"/>
      </g>
     </g>
     <g id="text_8">
      <!-- 0.0 -->
      <g transform="translate(7.2 109.548537) scale(0.1 -0.1)">
       <defs>
        <path id="DejaVuSans-2e" d="M 684 794 
L 1344 794 
L 1344 0 
L 684 0 
L 684 794 
z
" transform="scale(0.015625)"/>
       </defs>
       <use xlink:href="#DejaVuSans-30"/>
       <use xlink:href="#DejaVuSans-2e" x="63.623047"/>
       <use xlink:href="#DejaVuSans-30" x="95.410156"/>
      </g>
     </g>
    </g>
    <g id="ytick_2">
     <g id="line2d_9">
      <g>
       <use xlink:href="#mb691e74272" x="30.103125" y="68.549319" style="stroke: #000000; stroke-width: 0.8"/>
      </g>
     </g>
     <g id="text_9">
      <!-- 0.5 -->
      <g transform="translate(7.2 72.348537) scale(0.1 -0.1)">
       <defs>
        <path id="DejaVuSans-35" d="M 691 4666 
L 3169 4666 
L 3169 4134 
L 1269 4134 
L 1269 2991 
Q 1406 3038 1543 3061 
Q 1681 3084 1819 3084 
Q 2600 3084 3056 2656 
Q 3513 2228 3513 1497 
Q 3513 744 3044 326 
Q 2575 -91 1722 -91 
Q 1428 -91 1123 -41 
Q 819 9 494 109 
L 494 744 
Q 775 591 1075 516 
Q 1375 441 1709 441 
Q 2250 441 2565 725 
Q 2881 1009 2881 1497 
Q 2881 1984 2565 2268 
Q 2250 2553 1709 2553 
Q 1456 2553 1204 2497 
Q 953 2441 691 2322 
L 691 4666 
z
" transform="scale(0.015625)"/>
       </defs>
       <use xlink:href="#DejaVuSans-30"/>
       <use xlink:href="#DejaVuSans-2e" x="63.623047"/>
       <use xlink:href="#DejaVuSans-35" x="95.410156"/>
      </g>
     </g>
    </g>
    <g id="ytick_3">
     <g id="line2d_10">
      <g>
       <use xlink:href="#mb691e74272" x="30.103125" y="31.349319" style="stroke: #000000; stroke-width: 0.8"/>
      </g>
     </g>
     <g id="text_10">
      <!-- 1.0 -->
      <g transform="translate(7.2 35.148537) scale(0.1 -0.1)">
       <use xlink:href="#DejaVuSans-31"/>
       <use xlink:href="#DejaVuSans-2e" x="63.623047"/>
       <use xlink:href="#DejaVuSans-30" x="95.410156"/>
      </g>
     </g>
    </g>
   </g>
   <g id="line2d_11">
    <path d="M 44.053125 105.419589 
L 56.325852 105.046406 
L 65.871307 104.542408 
L 74.053125 103.894319 
L 81.416761 103.089513 
L 88.234943 102.118101 
L 94.50767 101.004804 
L 100.780398 99.661968 
L 106.780398 98.153687 
L 113.053125 96.344767 
L 119.59858 94.222218 
L 126.962216 91.595815 
L 137.59858 87.535532 
L 149.325852 83.111597 
L 155.871307 80.887788 
L 161.325852 79.27242 
L 166.234943 78.056757 
L 170.59858 77.197788 
L 174.962216 76.570268 
L 179.053125 76.206674 
L 183.144034 76.069162 
L 187.234943 76.160908 
L 191.325852 76.479792 
L 195.416761 77.018475 
L 199.780398 77.821421 
L 204.416761 78.910203 
L 209.325852 80.294128 
L 215.053125 82.153514 
L 221.871307 84.613044 
L 234.962216 89.640404 
L 244.50767 93.178817 
L 251.59858 95.575365 
L 258.144034 97.55091 
L 264.416761 99.205952 
L 270.416761 100.564475 
L 276.689489 101.755899 
L 283.234943 102.766695 
L 290.053125 103.594452 
L 297.689489 104.28978 
L 306.144034 104.830521 
L 316.234943 105.242879 
L 323.053125 105.419589 
L 323.053125 105.419589 
" clip-path="url(#pb6db1adf28)" style="fill: none; stroke: #1f77b4; stroke-width: 1.5; stroke-linecap: square"/>
   </g>
   <g id="line2d_12">
    <path d="M 44.053125 105.749319 
L 129.416761 105.642355 
L 134.325852 105.403521 
L 137.59858 105.038669 
L 140.053125 104.568557 
L 142.234943 103.93794 
L 144.144034 103.162402 
L 145.780398 102.284994 
L 147.416761 101.167092 
L 149.053125 99.763048 
L 150.689489 98.02504 
L 152.325852 95.9051 
L 153.962216 93.357747 
L 155.59858 90.343197 
L 157.234943 86.831022 
L 158.871307 82.804083 
L 160.780398 77.456646 
L 162.689489 71.446084 
L 164.871307 63.871498 
L 167.871307 52.597921 
L 173.053125 33.011083 
L 174.962216 26.615068 
L 176.59858 21.820519 
L 177.962216 18.433805 
L 179.325852 15.688281 
L 180.416761 13.9997 
L 181.234943 13.047957 
L 182.053125 12.375869 
L 182.871307 11.989633 
L 183.689489 11.892825 
L 184.50767 12.086342 
L 185.325852 12.56839 
L 186.144034 13.334512 
L 186.962216 14.377655 
L 188.053125 16.182607 
L 189.144034 18.433805 
L 190.50767 21.820519 
L 192.144034 26.615068 
L 194.053125 33.011083 
L 196.50767 42.077542 
L 203.325852 67.743094 
L 205.50767 74.958226 
L 207.416761 80.596831 
L 209.325852 85.546292 
L 210.962216 89.228922 
L 212.59858 92.40654 
L 214.234943 95.105588 
L 215.871307 97.363156 
L 217.50767 99.223208 
L 219.144034 100.733204 
L 220.780398 101.941273 
L 222.416761 102.893973 
L 224.325852 103.740331 
L 226.50767 104.432517 
L 228.962216 104.95187 
L 231.962216 105.333362 
L 235.780398 105.578254 
L 241.780398 105.712369 
L 257.053125 105.748966 
L 323.053125 105.749319 
L 323.053125 105.749319 
" clip-path="url(#pb6db1adf28)" style="fill: none; stroke: #ff7f0e; stroke-width: 1.5; stroke-linecap: square"/>
   </g>
   <g id="line2d_13">
    <path d="M 44.053125 105.749118 
L 93.416761 105.639485 
L 105.144034 105.39673 
L 113.325852 105.01151 
L 119.59858 104.503128 
L 125.053125 103.840852 
L 129.689489 103.066305 
L 134.053125 102.118783 
L 138.144034 101.005123 
L 141.962216 99.743906 
L 145.780398 98.249223 
L 149.59858 96.507987 
L 153.416761 94.515019 
L 157.234943 92.275176 
L 161.325852 89.620696 
L 165.962216 86.34139 
L 171.962216 81.80598 
L 182.325852 73.932296 
L 186.416761 71.113719 
L 189.962216 68.933639 
L 192.962216 67.332586 
L 195.689489 66.10417 
L 198.416761 65.116983 
L 200.871307 64.45116 
L 203.325852 64.007689 
L 205.780398 63.793914 
L 208.234943 63.813393 
L 210.689489 64.065802 
L 213.144034 64.546941 
L 215.59858 65.248854 
L 218.325852 66.273596 
L 221.053125 67.536218 
L 224.053125 69.170332 
L 227.325852 71.202962 
L 231.144034 73.834188 
L 236.325852 77.699102 
L 249.689489 87.819289 
L 254.325852 90.97901 
L 258.416761 93.505073 
L 262.234943 95.613949 
L 266.053125 97.471978 
L 269.871307 99.079933 
L 273.689489 100.447504 
L 277.780398 101.664752 
L 281.871307 102.650868 
L 286.234943 103.480848 
L 291.144034 104.185263 
L 296.59858 104.741285 
L 303.144034 105.175511 
L 311.325852 105.480983 
L 322.780398 105.665878 
L 323.053125 105.668286 
L 323.053125 105.668286 
" clip-path="url(#pb6db1adf28)" style="fill: none; stroke: #2ca02c; stroke-width: 1.5; stroke-linecap: square"/>
   </g>
   <g id="patch_3">
    <path d="M 30.103125 110.442143 
L 30.103125 7.2 
" style="fill: none; stroke: #000000; stroke-width: 0.8; stroke-linejoin: miter; stroke-linecap: square"/>
   </g>
   <g id="patch_4">
    <path d="M 337.003125 110.442143 
L 337.003125 7.2 
" style="fill: none; stroke: #000000; stroke-width: 0.8; stroke-linejoin: miter; stroke-linecap: square"/>
   </g>
   <g id="patch_5">
    <path d="M 30.103125 110.442143 
L 337.003125 110.442143 
" style="fill: none; stroke: #000000; stroke-width: 0.8; stroke-linejoin: miter; stroke-linecap: square"/>
   </g>
   <g id="patch_6">
    <path d="M 30.103125 7.2 
L 337.003125 7.2 
" style="fill: none; stroke: #000000; stroke-width: 0.8; stroke-linejoin: miter; stroke-linecap: square"/>
   </g>
   <g id="legend_1">
    <g id="patch_7">
     <path d="M 226.903125 66.1 
L 330.003125 66.1 
Q 332.003125 66.1 332.003125 64.1 
L 332.003125 14.2 
Q 332.003125 12.2 330.003125 12.2 
L 226.903125 12.2 
Q 224.903125 12.2 224.903125 14.2 
L 224.903125 64.1 
Q 224.903125 66.1 226.903125 66.1 
z
" style="fill: #ffffff; opacity: 0.8; stroke: #cccccc; stroke-linejoin: miter"/>
    </g>
    <g id="line2d_14">
     <path d="M 228.903125 21.8 
L 238.903125 21.8 
L 248.903125 21.8 
" style="fill: none; stroke: #1f77b4; stroke-width: 1.5; stroke-linecap: square"/>
    </g>
    <g id="text_11">
     <!-- $\mu=0$, $\sigma^2=1$ -->
     <g transform="translate(256.903125 25.3) scale(0.1 -0.1)">
      <defs>
       <path id="DejaVuSans-Oblique-3bc" d="M -84 -1331 
L 856 3500 
L 1434 3500 
L 1009 1322 
Q 997 1256 987 1175 
Q 978 1094 978 1013 
Q 978 722 1161 565 
Q 1344 409 1684 409 
Q 2147 409 2431 671 
Q 2716 934 2816 1459 
L 3213 3500 
L 3788 3500 
L 3266 809 
Q 3253 750 3248 706 
Q 3244 663 3244 628 
Q 3244 531 3283 486 
Q 3322 441 3406 441 
Q 3438 441 3492 456 
Q 3547 472 3647 513 
L 3559 50 
Q 3422 -19 3297 -55 
Q 3172 -91 3053 -91 
Q 2847 -91 2730 40 
Q 2613 172 2613 403 
Q 2438 153 2195 31 
Q 1953 -91 1625 -91 
Q 1334 -91 1117 43 
Q 900 178 831 397 
L 494 -1331 
L -84 -1331 
z
" transform="scale(0.015625)"/>
       <path id="DejaVuSans-3d" d="M 678 2906 
L 4684 2906 
L 4684 2381 
L 678 2381 
L 678 2906 
z
M 678 1631 
L 4684 1631 
L 4684 1100 
L 678 1100 
L 678 1631 
z
" transform="scale(0.015625)"/>
       <path id="DejaVuSans-2c" d="M 750 794 
L 1409 794 
L 1409 256 
L 897 -744 
L 494 -744 
L 750 256 
L 750 794 
z
" transform="scale(0.015625)"/>
       <path id="DejaVuSans-20" transform="scale(0.015625)"/>
       <path id="DejaVuSans-Oblique-3c3" d="M 2219 3044 
Q 1744 3044 1422 2700 
Q 1081 2341 969 1747 
Q 844 1119 1044 756 
Q 1241 397 1706 397 
Q 2166 397 2503 759 
Q 2844 1122 2966 1747 
Q 3075 2319 2881 2700 
Q 2700 3044 2219 3044 
z
M 2309 3503 
L 4219 3500 
L 4106 2925 
L 3463 2925 
Q 3706 2438 3575 1747 
Q 3406 888 2884 400 
Q 2359 -91 1609 -91 
Q 856 -91 525 400 
Q 194 888 363 1747 
Q 528 2609 1050 3097 
Q 1484 3503 2309 3503 
z
" transform="scale(0.015625)"/>
      </defs>
      <use xlink:href="#DejaVuSans-Oblique-3bc" transform="translate(0 0.765625)"/>
      <use xlink:href="#DejaVuSans-3d" transform="translate(83.105469 0.765625)"/>
      <use xlink:href="#DejaVuSans-30" transform="translate(186.376953 0.765625)"/>
      <use xlink:href="#DejaVuSans-2c" transform="translate(250 0.765625)"/>
      <use xlink:href="#DejaVuSans-20" transform="translate(281.787109 0.765625)"/>
      <use xlink:href="#DejaVuSans-Oblique-3c3" transform="translate(313.574219 0.765625)"/>
      <use xlink:href="#DejaVuSans-32" transform="translate(381.425833 39.046875) scale(0.7)"/>
      <use xlink:href="#DejaVuSans-3d" transform="translate(448.178763 0.765625)"/>
      <use xlink:href="#DejaVuSans-31" transform="translate(551.450247 0.765625)"/>
     </g>
    </g>
    <g id="line2d_15">
     <path d="M 228.903125 38 
L 238.903125 38 
L 248.903125 38 
" style="fill: none; stroke: #ff7f0e; stroke-width: 1.5; stroke-linecap: square"/>
    </g>
    <g id="text_12">
     <!-- $\mu=0$, $\sigma^2=0.1$ -->
     <g transform="translate(256.903125 41.5) scale(0.1 -0.1)">
      <use xlink:href="#DejaVuSans-Oblique-3bc" transform="translate(0 0.765625)"/>
      <use xlink:href="#DejaVuSans-3d" transform="translate(83.105469 0.765625)"/>
      <use xlink:href="#DejaVuSans-30" transform="translate(186.376953 0.765625)"/>
      <use xlink:href="#DejaVuSans-2c" transform="translate(250 0.765625)"/>
      <use xlink:href="#DejaVuSans-20" transform="translate(281.787109 0.765625)"/>
      <use xlink:href="#DejaVuSans-Oblique-3c3" transform="translate(313.574219 0.765625)"/>
      <use xlink:href="#DejaVuSans-32" transform="translate(381.425833 39.046875) scale(0.7)"/>
      <use xlink:href="#DejaVuSans-3d" transform="translate(448.178763 0.765625)"/>
      <use xlink:href="#DejaVuSans-30" transform="translate(551.450247 0.765625)"/>
      <use xlink:href="#DejaVuSans-2e" transform="translate(615.073294 0.765625)"/>
      <use xlink:href="#DejaVuSans-31" transform="translate(646.860404 0.765625)"/>
     </g>
    </g>
    <g id="line2d_16">
     <path d="M 228.903125 54.6 
L 238.903125 54.6 
L 248.903125 54.6 
" style="fill: none; stroke: #2ca02c; stroke-width: 1.5; stroke-linecap: square"/>
    </g>
    <g id="text_13">
     <!-- $\mu=\frac{1}{2}$, $\sigma^2=0.5$ -->
     <g transform="translate(256.903125 58.1) scale(0.1 -0.1)">
      <use xlink:href="#DejaVuSans-Oblique-3bc" transform="translate(0 0.16875)"/>
      <use xlink:href="#DejaVuSans-3d" transform="translate(83.105469 0.16875)"/>
      <use xlink:href="#DejaVuSans-31" transform="translate(186.376953 43.965625) scale(0.7)"/>
      <use xlink:href="#DejaVuSans-32" transform="translate(186.376953 -39.2375) scale(0.7)"/>
      <use xlink:href="#DejaVuSans-2c" transform="translate(243.413086 0.16875)"/>
      <use xlink:href="#DejaVuSans-20" transform="translate(275.200195 0.16875)"/>
      <use xlink:href="#DejaVuSans-Oblique-3c3" transform="translate(306.987305 0.16875)"/>
      <use xlink:href="#DejaVuSans-32" transform="translate(374.838919 38.45) scale(0.7)"/>
      <use xlink:href="#DejaVuSans-3d" transform="translate(441.591849 0.16875)"/>
      <use xlink:href="#DejaVuSans-30" transform="translate(544.863333 0.16875)"/>
      <use xlink:href="#DejaVuSans-2e" transform="translate(608.48638 0.16875)"/>
      <use xlink:href="#DejaVuSans-35" transform="translate(640.27349 0.16875)"/>
      <path d="M 186.376953 18.965625 
L 186.376953 25.215625 
L 230.913086 25.215625 
L 230.913086 18.965625 
L 186.376953 18.965625 
z
"/>
     </g>
    </g>
   </g>
  </g>
 </g>
 <defs>
  <clipPath id="pb6db1adf28">
   <rect x="30.103125" y="7.2" width="306.9" height="103.242143"/>
  </clipPath>
 </defs>
</svg>
