<?xml version="1.0" encoding="utf-8" standalone="no"?>
<!DOCTYPE svg PUBLIC "-//W3C//DTD SVG 1.1//EN"
  "http://www.w3.org/Graphics/SVG/1.1/DTD/svg11.dtd">
<svg xmlns:xlink="http://www.w3.org/1999/xlink" width="357.425pt" height="146.246389pt" viewBox="0 0 357.425 146.246389" xmlns="http://www.w3.org/2000/svg" version="1.1">
 <metadata>
  <rdf:RDF xmlns:dc="http://purl.org/dc/elements/1.1/" xmlns:cc="http://creativecommons.org/ns#" xmlns:rdf="http://www.w3.org/1999/02/22-rdf-syntax-ns#">
   <cc:Work>
    <dc:type rdf:resource="http://purl.org/dc/dcmitype/StillImage"/>
    <dc:date>2025-01-14T09:09:52.558671</dc:date>
    <dc:format>image/svg+xml</dc:format>
    <dc:creator>
     <cc:Agent>
      <dc:title>Matplotlib v3.9.2, https://matplotlib.org/</dc:title>
     </cc:Agent>
    </dc:creator>
   </cc:Work>
  </rdf:RDF>
 </metadata>
 <defs>
  <style type="text/css">*{stroke-linejoin: round; stroke-linecap: butt}</style>
 </defs>
 <g id="figure_1">
  <g id="patch_1">
   <path d="M 0 146.246389 
L 357.425 146.246389 
L 357.425 0 
L 0 0 
z
" style="fill: #ffffff"/>
  </g>
  <g id="axes_1">
   <g id="patch_2">
    <path d="M 43.325 108.690139 
L 350.225 108.690139 
L 350.225 7.2 
L 43.325 7.2 
z
" style="fill: #ffffff"/>
   </g>
   <g id="matplotlib.axis_1">
    <g id="xtick_1">
     <g id="line2d_1">
      <path d="M 57.275 108.690139 
L 57.275 7.2 
" clip-path="url(#p51ac45cf23)" style="fill: none; stroke: #b0b0b0; stroke-width: 0.8; stroke-linecap: square"/>
     </g>
     <g id="line2d_2">
      <defs>
       <path id="m1ecd1966de" d="M 0 0 
L 0 3.5 
" style="stroke: #000000; stroke-width: 0.8"/>
      </defs>
      <g>
       <use xlink:href="#m1ecd1966de" x="57.275" y="108.690139" style="stroke: #000000; stroke-width: 0.8"/>
      </g>
     </g>
     <g id="text_1">
      <!-- 0.0 -->
      <g transform="translate(49.323438 123.288577) scale(0.1 -0.1)">
       <defs>
        <path id="DejaVuSans-30" d="M 2034 4250 
Q 1547 4250 1301 3770 
Q 1056 3291 1056 2328 
Q 1056 1369 1301 889 
Q 1547 409 2034 409 
Q 2525 409 2770 889 
Q 3016 1369 3016 2328 
Q 3016 3291 2770 3770 
Q 2525 4250 2034 4250 
z
M 2034 4750 
Q 2819 4750 3233 4129 
Q 3647 3509 3647 2328 
Q 3647 1150 3233 529 
Q 2819 -91 2034 -91 
Q 1250 -91 836 529 
Q 422 1150 422 2328 
Q 422 3509 836 4129 
Q 1250 4750 2034 4750 
z
" transform="scale(0.015625)"/>
        <path id="DejaVuSans-2e" d="M 684 794 
L 1344 794 
L 1344 0 
L 684 0 
L 684 794 
z
" transform="scale(0.015625)"/>
       </defs>
       <use xlink:href="#DejaVuSans-30"/>
       <use xlink:href="#DejaVuSans-2e" x="63.623047"/>
       <use xlink:href="#DejaVuSans-30" x="95.410156"/>
      </g>
     </g>
    </g>
    <g id="xtick_2">
     <g id="line2d_3">
      <path d="M 113.075 108.690139 
L 113.075 7.2 
" clip-path="url(#p51ac45cf23)" style="fill: none; stroke: #b0b0b0; stroke-width: 0.8; stroke-linecap: square"/>
     </g>
     <g id="line2d_4">
      <g>
       <use xlink:href="#m1ecd1966de" x="113.075" y="108.690139" style="stroke: #000000; stroke-width: 0.8"/>
      </g>
     </g>
     <g id="text_2">
      <!-- 0.2 -->
      <g transform="translate(105.123438 123.288577) scale(0.1 -0.1)">
       <defs>
        <path id="DejaVuSans-32" d="M 1228 531 
L 3431 531 
L 3431 0 
L 469 0 
L 469 531 
Q 828 903 1448 1529 
Q 2069 2156 2228 2338 
Q 2531 2678 2651 2914 
Q 2772 3150 2772 3378 
Q 2772 3750 2511 3984 
Q 2250 4219 1831 4219 
Q 1534 4219 1204 4116 
Q 875 4013 500 3803 
L 500 4441 
Q 881 4594 1212 4672 
Q 1544 4750 1819 4750 
Q 2544 4750 2975 4387 
Q 3406 4025 3406 3419 
Q 3406 3131 3298 2873 
Q 3191 2616 2906 2266 
Q 2828 2175 2409 1742 
Q 1991 1309 1228 531 
z
" transform="scale(0.015625)"/>
       </defs>
       <use xlink:href="#DejaVuSans-30"/>
       <use xlink:href="#DejaVuSans-2e" x="63.623047"/>
       <use xlink:href="#DejaVuSans-32" x="95.410156"/>
      </g>
     </g>
    </g>
    <g id="xtick_3">
     <g id="line2d_5">
      <path d="M 168.875 108.690139 
L 168.875 7.2 
" clip-path="url(#p51ac45cf23)" style="fill: none; stroke: #b0b0b0; stroke-width: 0.8; stroke-linecap: square"/>
     </g>
     <g id="line2d_6">
      <g>
       <use xlink:href="#m1ecd1966de" x="168.875" y="108.690139" style="stroke: #000000; stroke-width: 0.8"/>
      </g>
     </g>
     <g id="text_3">
      <!-- 0.4 -->
      <g transform="translate(160.923438 123.288577) scale(0.1 -0.1)">
       <defs>
        <path id="DejaVuSans-34" d="M 2419 4116 
L 825 1625 
L 2419 1625 
L 2419 4116 
z
M 2253 4666 
L 3047 4666 
L 3047 1625 
L 3713 1625 
L 3713 1100 
L 3047 1100 
L 3047 0 
L 2419 0 
L 2419 1100 
L 313 1100 
L 313 1709 
L 2253 4666 
z
" transform="scale(0.015625)"/>
       </defs>
       <use xlink:href="#DejaVuSans-30"/>
       <use xlink:href="#DejaVuSans-2e" x="63.623047"/>
       <use xlink:href="#DejaVuSans-34" x="95.410156"/>
      </g>
     </g>
    </g>
    <g id="xtick_4">
     <g id="line2d_7">
      <path d="M 224.675 108.690139 
L 224.675 7.2 
" clip-path="url(#p51ac45cf23)" style="fill: none; stroke: #b0b0b0; stroke-width: 0.8; stroke-linecap: square"/>
     </g>
     <g id="line2d_8">
      <g>
       <use xlink:href="#m1ecd1966de" x="224.675" y="108.690139" style="stroke: #000000; stroke-width: 0.8"/>
      </g>
     </g>
     <g id="text_4">
      <!-- 0.6 -->
      <g transform="translate(216.723438 123.288577) scale(0.1 -0.1)">
       <defs>
        <path id="DejaVuSans-36" d="M 2113 2584 
Q 1688 2584 1439 2293 
Q 1191 2003 1191 1497 
Q 1191 994 1439 701 
Q 1688 409 2113 409 
Q 2538 409 2786 701 
Q 3034 994 3034 1497 
Q 3034 2003 2786 2293 
Q 2538 2584 2113 2584 
z
M 3366 4563 
L 3366 3988 
Q 3128 4100 2886 4159 
Q 2644 4219 2406 4219 
Q 1781 4219 1451 3797 
Q 1122 3375 1075 2522 
Q 1259 2794 1537 2939 
Q 1816 3084 2150 3084 
Q 2853 3084 3261 2657 
Q 3669 2231 3669 1497 
Q 3669 778 3244 343 
Q 2819 -91 2113 -91 
Q 1303 -91 875 529 
Q 447 1150 447 2328 
Q 447 3434 972 4092 
Q 1497 4750 2381 4750 
Q 2619 4750 2861 4703 
Q 3103 4656 3366 4563 
z
" transform="scale(0.015625)"/>
       </defs>
       <use xlink:href="#DejaVuSans-30"/>
       <use xlink:href="#DejaVuSans-2e" x="63.623047"/>
       <use xlink:href="#DejaVuSans-36" x="95.410156"/>
      </g>
     </g>
    </g>
    <g id="xtick_5">
     <g id="line2d_9">
      <path d="M 280.475 108.690139 
L 280.475 7.2 
" clip-path="url(#p51ac45cf23)" style="fill: none; stroke: #b0b0b0; stroke-width: 0.8; stroke-linecap: square"/>
     </g>
     <g id="line2d_10">
      <g>
       <use xlink:href="#m1ecd1966de" x="280.475" y="108.690139" style="stroke: #000000; stroke-width: 0.8"/>
      </g>
     </g>
     <g id="text_5">
      <!-- 0.8 -->
      <g transform="translate(272.523438 123.288577) scale(0.1 -0.1)">
       <defs>
        <path id="DejaVuSans-38" d="M 2034 2216 
Q 1584 2216 1326 1975 
Q 1069 1734 1069 1313 
Q 1069 891 1326 650 
Q 1584 409 2034 409 
Q 2484 409 2743 651 
Q 3003 894 3003 1313 
Q 3003 1734 2745 1975 
Q 2488 2216 2034 2216 
z
M 1403 2484 
Q 997 2584 770 2862 
Q 544 3141 544 3541 
Q 544 4100 942 4425 
Q 1341 4750 2034 4750 
Q 2731 4750 3128 4425 
Q 3525 4100 3525 3541 
Q 3525 3141 3298 2862 
Q 3072 2584 2669 2484 
Q 3125 2378 3379 2068 
Q 3634 1759 3634 1313 
Q 3634 634 3220 271 
Q 2806 -91 2034 -91 
Q 1263 -91 848 271 
Q 434 634 434 1313 
Q 434 1759 690 2068 
Q 947 2378 1403 2484 
z
M 1172 3481 
Q 1172 3119 1398 2916 
Q 1625 2713 2034 2713 
Q 2441 2713 2670 2916 
Q 2900 3119 2900 3481 
Q 2900 3844 2670 4047 
Q 2441 4250 2034 4250 
Q 1625 4250 1398 4047 
Q 1172 3844 1172 3481 
z
" transform="scale(0.015625)"/>
       </defs>
       <use xlink:href="#DejaVuSans-30"/>
       <use xlink:href="#DejaVuSans-2e" x="63.623047"/>
       <use xlink:href="#DejaVuSans-38" x="95.410156"/>
      </g>
     </g>
    </g>
    <g id="xtick_6">
     <g id="line2d_11">
      <path d="M 336.275 108.690139 
L 336.275 7.2 
" clip-path="url(#p51ac45cf23)" style="fill: none; stroke: #b0b0b0; stroke-width: 0.8; stroke-linecap: square"/>
     </g>
     <g id="line2d_12">
      <g>
       <use xlink:href="#m1ecd1966de" x="336.275" y="108.690139" style="stroke: #000000; stroke-width: 0.8"/>
      </g>
     </g>
     <g id="text_6">
      <!-- 1.0 -->
      <g transform="translate(328.323438 123.288577) scale(0.1 -0.1)">
       <defs>
        <path id="DejaVuSans-31" d="M 794 531 
L 1825 531 
L 1825 4091 
L 703 3866 
L 703 4441 
L 1819 4666 
L 2450 4666 
L 2450 531 
L 3481 531 
L 3481 0 
L 794 0 
L 794 531 
z
" transform="scale(0.015625)"/>
       </defs>
       <use xlink:href="#DejaVuSans-31"/>
       <use xlink:href="#DejaVuSans-2e" x="63.623047"/>
       <use xlink:href="#DejaVuSans-30" x="95.410156"/>
      </g>
     </g>
    </g>
    <g id="text_7">
     <!-- $x$ -->
     <g transform="translate(193.775 136.966702) scale(0.1 -0.1)">
      <defs>
       <path id="DejaVuSans-Oblique-78" d="M 3841 3500 
L 2234 1784 
L 3219 0 
L 2559 0 
L 1819 1388 
L 531 0 
L -166 0 
L 1556 1844 
L 641 3500 
L 1300 3500 
L 1972 2234 
L 3144 3500 
L 3841 3500 
z
" transform="scale(0.015625)"/>
      </defs>
      <use xlink:href="#DejaVuSans-Oblique-78" transform="translate(0 0.3125)"/>
     </g>
    </g>
   </g>
   <g id="matplotlib.axis_2">
    <g id="ytick_1">
     <g id="line2d_13">
      <path d="M 43.325 104.076951 
L 350.225 104.076951 
" clip-path="url(#p51ac45cf23)" style="fill: none; stroke: #b0b0b0; stroke-width: 0.8; stroke-linecap: square"/>
     </g>
     <g id="line2d_14">
      <defs>
       <path id="md7de45aef5" d="M 0 0 
L -3.5 0 
" style="stroke: #000000; stroke-width: 0.8"/>
      </defs>
      <g>
       <use xlink:href="#md7de45aef5" x="43.325" y="104.076951" style="stroke: #000000; stroke-width: 0.8"/>
      </g>
     </g>
     <g id="text_8">
      <!-- 0 -->
      <g transform="translate(29.9625 107.87617) scale(0.1 -0.1)">
       <use xlink:href="#DejaVuSans-30"/>
      </g>
     </g>
    </g>
    <g id="ytick_2">
     <g id="line2d_15">
      <path d="M 43.325 70.862666 
L 350.225 70.862666 
" clip-path="url(#p51ac45cf23)" style="fill: none; stroke: #b0b0b0; stroke-width: 0.8; stroke-linecap: square"/>
     </g>
     <g id="line2d_16">
      <g>
       <use xlink:href="#md7de45aef5" x="43.325" y="70.862666" style="stroke: #000000; stroke-width: 0.8"/>
      </g>
     </g>
     <g id="text_9">
      <!-- 5 -->
      <g transform="translate(29.9625 74.661884) scale(0.1 -0.1)">
       <defs>
        <path id="DejaVuSans-35" d="M 691 4666 
L 3169 4666 
L 3169 4134 
L 1269 4134 
L 1269 2991 
Q 1406 3038 1543 3061 
Q 1681 3084 1819 3084 
Q 2600 3084 3056 2656 
Q 3513 2228 3513 1497 
Q 3513 744 3044 326 
Q 2575 -91 1722 -91 
Q 1428 -91 1123 -41 
Q 819 9 494 109 
L 494 744 
Q 775 591 1075 516 
Q 1375 441 1709 441 
Q 2250 441 2565 725 
Q 2881 1009 2881 1497 
Q 2881 1984 2565 2268 
Q 2250 2553 1709 2553 
Q 1456 2553 1204 2497 
Q 953 2441 691 2322 
L 691 4666 
z
" transform="scale(0.015625)"/>
       </defs>
       <use xlink:href="#DejaVuSans-35"/>
      </g>
     </g>
    </g>
    <g id="ytick_3">
     <g id="line2d_17">
      <path d="M 43.325 37.64838 
L 350.225 37.64838 
" clip-path="url(#p51ac45cf23)" style="fill: none; stroke: #b0b0b0; stroke-width: 0.8; stroke-linecap: square"/>
     </g>
     <g id="line2d_18">
      <g>
       <use xlink:href="#md7de45aef5" x="43.325" y="37.64838" style="stroke: #000000; stroke-width: 0.8"/>
      </g>
     </g>
     <g id="text_10">
      <!-- 10 -->
      <g transform="translate(23.6 41.447599) scale(0.1 -0.1)">
       <use xlink:href="#DejaVuSans-31"/>
       <use xlink:href="#DejaVuSans-30" x="63.623047"/>
      </g>
     </g>
    </g>
    <g id="text_11">
     <!-- $p(x|\frac{k}{n})$ -->
     <g transform="translate(16.9 72.54507) rotate(-90) scale(0.1 -0.1)">
      <defs>
       <path id="DejaVuSans-Oblique-70" d="M 3175 2156 
Q 3175 2616 2975 2859 
Q 2775 3103 2400 3103 
Q 2144 3103 1911 2972 
Q 1678 2841 1497 2591 
Q 1319 2344 1212 1994 
Q 1106 1644 1106 1300 
Q 1106 863 1306 627 
Q 1506 391 1875 391 
Q 2147 391 2380 519 
Q 2613 647 2778 891 
Q 2956 1147 3065 1494 
Q 3175 1841 3175 2156 
z
M 1394 2969 
Q 1625 3272 1939 3428 
Q 2253 3584 2638 3584 
Q 3175 3584 3472 3232 
Q 3769 2881 3769 2247 
Q 3769 1728 3584 1258 
Q 3400 788 3053 416 
Q 2822 169 2531 39 
Q 2241 -91 1919 -91 
Q 1547 -91 1294 64 
Q 1041 219 916 525 
L 556 -1331 
L -19 -1331 
L 922 3500 
L 1497 3500 
L 1394 2969 
z
" transform="scale(0.015625)"/>
       <path id="DejaVuSans-28" d="M 1984 4856 
Q 1566 4138 1362 3434 
Q 1159 2731 1159 2009 
Q 1159 1288 1364 580 
Q 1569 -128 1984 -844 
L 1484 -844 
Q 1016 -109 783 600 
Q 550 1309 550 2009 
Q 550 2706 781 3412 
Q 1013 4119 1484 4856 
L 1984 4856 
z
" transform="scale(0.015625)"/>
       <path id="DejaVuSans-7c" d="M 1344 4891 
L 1344 -1509 
L 813 -1509 
L 813 4891 
L 1344 4891 
z
" transform="scale(0.015625)"/>
       <path id="DejaVuSans-Oblique-6b" d="M 1172 4863 
L 1747 4863 
L 1197 2028 
L 3169 3500 
L 3916 3500 
L 1716 1825 
L 3322 0 
L 2625 0 
L 1131 1709 
L 800 0 
L 225 0 
L 1172 4863 
z
" transform="scale(0.015625)"/>
       <path id="DejaVuSans-Oblique-6e" d="M 3566 2113 
L 3156 0 
L 2578 0 
L 2988 2091 
Q 3016 2238 3031 2350 
Q 3047 2463 3047 2528 
Q 3047 2791 2881 2937 
Q 2716 3084 2419 3084 
Q 1956 3084 1622 2776 
Q 1288 2469 1184 1941 
L 800 0 
L 225 0 
L 903 3500 
L 1478 3500 
L 1363 2950 
Q 1603 3253 1940 3418 
Q 2278 3584 2650 3584 
Q 3113 3584 3367 3334 
Q 3622 3084 3622 2631 
Q 3622 2519 3608 2391 
Q 3594 2263 3566 2113 
z
" transform="scale(0.015625)"/>
       <path id="DejaVuSans-29" d="M 513 4856 
L 1013 4856 
Q 1481 4119 1714 3412 
Q 1947 2706 1947 2009 
Q 1947 1309 1714 600 
Q 1481 -109 1013 -844 
L 513 -844 
Q 928 -128 1133 580 
Q 1338 1288 1338 2009 
Q 1338 2731 1133 3434 
Q 928 4138 513 4856 
z
" transform="scale(0.015625)"/>
      </defs>
      <use xlink:href="#DejaVuSans-Oblique-70" transform="translate(0 0.014062)"/>
      <use xlink:href="#DejaVuSans-28" transform="translate(63.476562 0.014062)"/>
      <use xlink:href="#DejaVuSans-Oblique-78" transform="translate(102.490234 0.014062)"/>
      <use xlink:href="#DejaVuSans-7c" transform="translate(161.669922 0.014062)"/>
      <use xlink:href="#DejaVuSans-Oblique-6b" transform="translate(197.361328 43.810938) scale(0.7)"/>
      <use xlink:href="#DejaVuSans-Oblique-6e" transform="translate(195.361328 -26.639062) scale(0.7)"/>
      <use xlink:href="#DejaVuSans-29" transform="translate(252.226562 0.014062)"/>
      <path d="M 195.361328 18.810937 
L 195.361328 25.060937 
L 239.726562 25.060937 
L 239.726562 18.810937 
L 195.361328 18.810937 
z
"/>
     </g>
    </g>
   </g>
   <g id="line2d_19">
    <path d="M 57.275 104.076951 
L 79.093182 103.975561 
L 82.638636 103.740033 
L 85.093182 103.37569 
L 87.002273 102.896557 
L 88.638636 102.290435 
L 90.275 101.447276 
L 91.638636 100.520657 
L 93.002273 99.35212 
L 94.365909 97.906414 
L 95.729545 96.151303 
L 97.093182 94.060248 
L 98.729545 91.083044 
L 100.365909 87.588241 
L 102.275 82.887816 
L 104.456818 76.817597 
L 107.729545 66.890216 
L 111.002273 57.162019 
L 112.911364 52.204905 
L 114.275 49.206054 
L 115.638636 46.771774 
L 116.729545 45.285834 
L 117.547727 44.461951 
L 118.365909 43.898017 
L 119.184091 43.600161 
L 120.002273 43.571008 
L 120.820455 43.809648 
L 121.638636 44.31168 
L 122.456818 45.069337 
L 123.547727 46.457839 
L 124.638636 48.2471 
L 126.002273 50.982973 
L 127.638636 54.871297 
L 129.820455 60.781273 
L 137.456818 82.217339 
L 139.365909 86.663337 
L 141.275 90.511986 
L 142.911364 93.318629 
L 144.547727 95.682534 
L 146.184091 97.632575 
L 147.820455 99.209093 
L 149.456818 100.458837 
L 151.093182 101.430686 
L 153.002273 102.276723 
L 154.911364 102.878685 
L 157.093182 103.344193 
L 159.820455 103.696176 
L 163.638636 103.935548 
L 169.638636 104.051903 
L 187.911364 104.076916 
L 336.275 104.076951 
L 336.275 104.076951 
" clip-path="url(#p51ac45cf23)" style="fill: none; stroke: #1f77b4; stroke-width: 1.5; stroke-linecap: square"/>
   </g>
   <g id="line2d_20">
    <path d="M 57.275 104.076951 
L 109.365909 103.97999 
L 111.820455 103.739915 
L 113.456818 103.363517 
L 114.820455 102.805569 
L 115.911364 102.117961 
L 117.002273 101.135576 
L 118.093182 99.770768 
L 119.184091 97.926526 
L 120.275 95.502198 
L 121.365909 92.401804 
L 122.456818 88.544644 
L 123.547727 83.877487 
L 124.911364 76.889133 
L 126.275 68.707936 
L 128.184091 55.733252 
L 132.002273 29.274467 
L 133.365909 21.656518 
L 134.456818 16.920992 
L 135.275 14.320648 
L 135.820455 13.082071 
L 136.365909 12.257183 
L 136.911364 11.85479 
L 137.456818 11.877869 
L 138.002273 12.32356 
L 138.547727 13.183287 
L 139.093182 14.443008 
L 139.911364 17.039418 
L 140.729545 20.408078 
L 141.820455 25.921462 
L 143.184091 34.057069 
L 145.638636 50.41316 
L 148.093182 66.342866 
L 149.729545 75.610174 
L 151.093182 82.198342 
L 152.456818 87.685846 
L 153.547727 91.30208 
L 154.638636 94.279512 
L 155.729545 96.682263 
L 156.820455 98.583827 
L 157.911364 100.060429 
L 159.002273 101.185949 
L 160.093182 102.02839 
L 161.456818 102.773969 
L 162.820455 103.268013 
L 164.456818 103.634683 
L 166.638636 103.889554 
L 170.184091 104.036175 
L 178.638636 104.076386 
L 336.275 104.076951 
L 336.275 104.076951 
" clip-path="url(#p51ac45cf23)" style="fill: none; stroke-dasharray: 1.5,2.475; stroke-dashoffset: 0; stroke: #ff7f0e; stroke-width: 1.5"/>
   </g>
   <g id="line2d_21">
    <path d="M 57.275 103.734621 
L 60.547727 103.36381 
L 63.002273 102.885886 
L 65.184091 102.247942 
L 67.093182 101.469893 
L 69.002273 100.432567 
L 70.638636 99.295304 
L 72.275 97.892404 
L 73.911364 96.191761 
L 75.547727 94.166642 
L 77.184091 91.798888 
L 79.093182 88.59598 
L 81.002273 84.935543 
L 83.184091 80.258618 
L 86.184091 73.222931 
L 91.093182 61.626469 
L 93.002273 57.673834 
L 94.638636 54.771455 
L 96.002273 52.783814 
L 97.093182 51.517413 
L 98.184091 50.564802 
L 99.275 49.944141 
L 100.093182 49.703956 
L 100.911364 49.660048 
L 101.729545 49.812963 
L 102.547727 50.161111 
L 103.638636 50.922324 
L 104.729545 52.009465 
L 105.820455 53.402199 
L 107.184091 55.533283 
L 108.820455 58.582438 
L 110.729545 62.666438 
L 113.456818 69.095758 
L 118.365909 80.762171 
L 120.820455 85.9581 
L 122.729545 89.519538 
L 124.638636 92.611706 
L 126.275 94.880896 
L 127.911364 96.80839 
L 129.547727 98.415631 
L 131.184091 99.731819 
L 132.820455 100.790722 
L 134.729545 101.748381 
L 136.638636 102.459756 
L 138.820455 103.036725 
L 141.275 103.463347 
L 144.547727 103.78874 
L 148.911364 103.981013 
L 156.820455 104.066981 
L 197.729545 104.076951 
L 336.275 104.076951 
L 336.275 104.076951 
" clip-path="url(#p51ac45cf23)" style="fill: none; stroke-dasharray: 9.6,2.4,1.5,2.4; stroke-dashoffset: 0; stroke: #2ca02c; stroke-width: 1.5"/>
   </g>
   <g id="patch_3">
    <path d="M 43.325 108.690139 
L 43.325 7.2 
" style="fill: none; stroke: #000000; stroke-width: 0.8; stroke-linejoin: miter; stroke-linecap: square"/>
   </g>
   <g id="patch_4">
    <path d="M 350.225 108.690139 
L 350.225 7.2 
" style="fill: none; stroke: #000000; stroke-width: 0.8; stroke-linejoin: miter; stroke-linecap: square"/>
   </g>
   <g id="patch_5">
    <path d="M 43.325 108.690139 
L 350.225 108.690139 
" style="fill: none; stroke: #000000; stroke-width: 0.8; stroke-linejoin: miter; stroke-linecap: square"/>
   </g>
   <g id="patch_6">
    <path d="M 43.325 7.2 
L 350.225 7.2 
" style="fill: none; stroke: #000000; stroke-width: 0.8; stroke-linejoin: miter; stroke-linecap: square"/>
   </g>
   <g id="legend_1">
    <g id="patch_7">
     <path d="M 237.525 59.234375 
L 343.225 59.234375 
Q 345.225 59.234375 345.225 57.234375 
L 345.225 14.2 
Q 345.225 12.2 343.225 12.2 
L 237.525 12.2 
Q 235.525 12.2 235.525 14.2 
L 235.525 57.234375 
Q 235.525 59.234375 237.525 59.234375 
z
" style="fill: #ffffff; opacity: 0.8; stroke: #cccccc; stroke-linejoin: miter"/>
    </g>
    <g id="line2d_22">
     <path d="M 239.525 20.298438 
L 249.525 20.298438 
L 259.525 20.298438 
" style="fill: none; stroke: #1f77b4; stroke-width: 1.5; stroke-linecap: square"/>
    </g>
    <g id="text_12">
     <!-- $n=5, k=15$ -->
     <g transform="translate(267.525 23.798438) scale(0.1 -0.1)">
      <defs>
       <path id="DejaVuSans-3d" d="M 678 2906 
L 4684 2906 
L 4684 2381 
L 678 2381 
L 678 2906 
z
M 678 1631 
L 4684 1631 
L 4684 1100 
L 678 1100 
L 678 1631 
z
" transform="scale(0.015625)"/>
       <path id="DejaVuSans-2c" d="M 750 794 
L 1409 794 
L 1409 256 
L 897 -744 
L 494 -744 
L 750 256 
L 750 794 
z
" transform="scale(0.015625)"/>
      </defs>
      <use xlink:href="#DejaVuSans-Oblique-6e" transform="translate(0 0.015625)"/>
      <use xlink:href="#DejaVuSans-3d" transform="translate(82.861328 0.015625)"/>
      <use xlink:href="#DejaVuSans-35" transform="translate(186.132812 0.015625)"/>
      <use xlink:href="#DejaVuSans-2c" transform="translate(249.755859 0.015625)"/>
      <use xlink:href="#DejaVuSans-Oblique-6b" transform="translate(301.025391 0.015625)"/>
      <use xlink:href="#DejaVuSans-3d" transform="translate(378.417969 0.015625)"/>
      <use xlink:href="#DejaVuSans-31" transform="translate(481.689453 0.015625)"/>
      <use xlink:href="#DejaVuSans-35" transform="translate(545.3125 0.015625)"/>
     </g>
    </g>
    <g id="line2d_23">
     <path d="M 239.525 34.976562 
L 249.525 34.976562 
L 259.525 34.976562 
" style="fill: none; stroke-dasharray: 1.5,2.475; stroke-dashoffset: 0; stroke: #ff7f0e; stroke-width: 1.5"/>
    </g>
    <g id="text_13">
     <!-- $n=50, k=150$ -->
     <g transform="translate(267.525 38.476562) scale(0.1 -0.1)">
      <use xlink:href="#DejaVuSans-Oblique-6e" transform="translate(0 0.015625)"/>
      <use xlink:href="#DejaVuSans-3d" transform="translate(82.861328 0.015625)"/>
      <use xlink:href="#DejaVuSans-35" transform="translate(186.132812 0.015625)"/>
      <use xlink:href="#DejaVuSans-30" transform="translate(249.755859 0.015625)"/>
      <use xlink:href="#DejaVuSans-2c" transform="translate(313.378906 0.015625)"/>
      <use xlink:href="#DejaVuSans-Oblique-6b" transform="translate(364.648438 0.015625)"/>
      <use xlink:href="#DejaVuSans-3d" transform="translate(442.041016 0.015625)"/>
      <use xlink:href="#DejaVuSans-31" transform="translate(545.3125 0.015625)"/>
      <use xlink:href="#DejaVuSans-35" transform="translate(608.935547 0.015625)"/>
      <use xlink:href="#DejaVuSans-30" transform="translate(672.558594 0.015625)"/>
     </g>
    </g>
    <g id="line2d_24">
     <path d="M 239.525 49.654688 
L 249.525 49.654688 
L 259.525 49.654688 
" style="fill: none; stroke-dasharray: 9.6,2.4,1.5,2.4; stroke-dashoffset: 0; stroke: #2ca02c; stroke-width: 1.5"/>
    </g>
    <g id="text_14">
     <!-- $n=0, k=15$ -->
     <g transform="translate(267.525 53.154688) scale(0.1 -0.1)">
      <use xlink:href="#DejaVuSans-Oblique-6e" transform="translate(0 0.015625)"/>
      <use xlink:href="#DejaVuSans-3d" transform="translate(82.861328 0.015625)"/>
      <use xlink:href="#DejaVuSans-30" transform="translate(186.132812 0.015625)"/>
      <use xlink:href="#DejaVuSans-2c" transform="translate(249.755859 0.015625)"/>
      <use xlink:href="#DejaVuSans-Oblique-6b" transform="translate(301.025391 0.015625)"/>
      <use xlink:href="#DejaVuSans-3d" transform="translate(378.417969 0.015625)"/>
      <use xlink:href="#DejaVuSans-31" transform="translate(481.689453 0.015625)"/>
      <use xlink:href="#DejaVuSans-35" transform="translate(545.3125 0.015625)"/>
     </g>
    </g>
   </g>
  </g>
 </g>
 <defs>
  <clipPath id="p51ac45cf23">
   <rect x="43.325" y="7.2" width="306.9" height="101.490139"/>
  </clipPath>
 </defs>
</svg>
