<?xml version="1.0" encoding="utf-8" standalone="no"?>
<!DOCTYPE svg PUBLIC "-//W3C//DTD SVG 1.1//EN"
  "http://www.w3.org/Graphics/SVG/1.1/DTD/svg11.dtd">
<svg xmlns:xlink="http://www.w3.org/1999/xlink" width="334.6625pt" height="159.018712pt" viewBox="0 0 334.6625 159.018712" xmlns="http://www.w3.org/2000/svg" version="1.1">
 <metadata>
  <rdf:RDF xmlns:dc="http://purl.org/dc/elements/1.1/" xmlns:cc="http://creativecommons.org/ns#" xmlns:rdf="http://www.w3.org/1999/02/22-rdf-syntax-ns#">
   <cc:Work>
    <dc:type rdf:resource="http://purl.org/dc/dcmitype/StillImage"/>
    <dc:date>2025-01-14T09:42:09.250500</dc:date>
    <dc:format>image/svg+xml</dc:format>
    <dc:creator>
     <cc:Agent>
      <dc:title>Matplotlib v3.9.2, https://matplotlib.org/</dc:title>
     </cc:Agent>
    </dc:creator>
   </cc:Work>
  </rdf:RDF>
 </metadata>
 <defs>
  <style type="text/css">*{stroke-linejoin: round; stroke-linecap: butt}</style>
 </defs>
 <g id="figure_1">
  <g id="patch_1">
   <path d="M -0 159.018712 
L 334.6625 159.018712 
L 334.6625 0 
L -0 0 
z
" style="fill: #ffffff"/>
  </g>
  <g id="axes_1">
   <g id="patch_2">
    <path d="M 20.5625 135.140587 
L 327.4625 135.140587 
L 327.4625 7.2 
L 20.5625 7.2 
z
" style="fill: #ffffff"/>
   </g>
   <g id="matplotlib.axis_1">
    <g id="xtick_1">
     <g id="line2d_1">
      <defs>
       <path id="m607c71df4d" d="M 0 0 
L 0 3.5 
" style="stroke: #000000; stroke-width: 0.8"/>
      </defs>
      <g>
       <use xlink:href="#m607c71df4d" x="34.419469" y="135.140587" style="stroke: #000000; stroke-width: 0.8"/>
      </g>
     </g>
     <g id="text_1">
      <!-- 0.0 -->
      <g transform="translate(26.467906 149.739025) scale(0.1 -0.1)">
       <defs>
        <path id="DejaVuSans-30" d="M 2034 4250 
Q 1547 4250 1301 3770 
Q 1056 3291 1056 2328 
Q 1056 1369 1301 889 
Q 1547 409 2034 409 
Q 2525 409 2770 889 
Q 3016 1369 3016 2328 
Q 3016 3291 2770 3770 
Q 2525 4250 2034 4250 
z
M 2034 4750 
Q 2819 4750 3233 4129 
Q 3647 3509 3647 2328 
Q 3647 1150 3233 529 
Q 2819 -91 2034 -91 
Q 1250 -91 836 529 
Q 422 1150 422 2328 
Q 422 3509 836 4129 
Q 1250 4750 2034 4750 
z
" transform="scale(0.015625)"/>
        <path id="DejaVuSans-2e" d="M 684 794 
L 1344 794 
L 1344 0 
L 684 0 
L 684 794 
z
" transform="scale(0.015625)"/>
       </defs>
       <use xlink:href="#DejaVuSans-30"/>
       <use xlink:href="#DejaVuSans-2e" x="63.623047"/>
       <use xlink:href="#DejaVuSans-30" x="95.410156"/>
      </g>
     </g>
    </g>
    <g id="xtick_2">
     <g id="line2d_2">
      <g>
       <use xlink:href="#m607c71df4d" x="80.934974" y="135.140587" style="stroke: #000000; stroke-width: 0.8"/>
      </g>
     </g>
     <g id="text_2">
      <!-- 0.5 -->
      <g transform="translate(72.983412 149.739025) scale(0.1 -0.1)">
       <defs>
        <path id="DejaVuSans-35" d="M 691 4666 
L 3169 4666 
L 3169 4134 
L 1269 4134 
L 1269 2991 
Q 1406 3038 1543 3061 
Q 1681 3084 1819 3084 
Q 2600 3084 3056 2656 
Q 3513 2228 3513 1497 
Q 3513 744 3044 326 
Q 2575 -91 1722 -91 
Q 1428 -91 1123 -41 
Q 819 9 494 109 
L 494 744 
Q 775 591 1075 516 
Q 1375 441 1709 441 
Q 2250 441 2565 725 
Q 2881 1009 2881 1497 
Q 2881 1984 2565 2268 
Q 2250 2553 1709 2553 
Q 1456 2553 1204 2497 
Q 953 2441 691 2322 
L 691 4666 
z
" transform="scale(0.015625)"/>
       </defs>
       <use xlink:href="#DejaVuSans-30"/>
       <use xlink:href="#DejaVuSans-2e" x="63.623047"/>
       <use xlink:href="#DejaVuSans-35" x="95.410156"/>
      </g>
     </g>
    </g>
    <g id="xtick_3">
     <g id="line2d_3">
      <g>
       <use xlink:href="#m607c71df4d" x="127.450479" y="135.140587" style="stroke: #000000; stroke-width: 0.8"/>
      </g>
     </g>
     <g id="text_3">
      <!-- 1.0 -->
      <g transform="translate(119.498917 149.739025) scale(0.1 -0.1)">
       <defs>
        <path id="DejaVuSans-31" d="M 794 531 
L 1825 531 
L 1825 4091 
L 703 3866 
L 703 4441 
L 1819 4666 
L 2450 4666 
L 2450 531 
L 3481 531 
L 3481 0 
L 794 0 
L 794 531 
z
" transform="scale(0.015625)"/>
       </defs>
       <use xlink:href="#DejaVuSans-31"/>
       <use xlink:href="#DejaVuSans-2e" x="63.623047"/>
       <use xlink:href="#DejaVuSans-30" x="95.410156"/>
      </g>
     </g>
    </g>
    <g id="xtick_4">
     <g id="line2d_4">
      <g>
       <use xlink:href="#m607c71df4d" x="173.965984" y="135.140587" style="stroke: #000000; stroke-width: 0.8"/>
      </g>
     </g>
     <g id="text_4">
      <!-- 1.5 -->
      <g transform="translate(166.014422 149.739025) scale(0.1 -0.1)">
       <use xlink:href="#DejaVuSans-31"/>
       <use xlink:href="#DejaVuSans-2e" x="63.623047"/>
       <use xlink:href="#DejaVuSans-35" x="95.410156"/>
      </g>
     </g>
    </g>
    <g id="xtick_5">
     <g id="line2d_5">
      <g>
       <use xlink:href="#m607c71df4d" x="220.48149" y="135.140587" style="stroke: #000000; stroke-width: 0.8"/>
      </g>
     </g>
     <g id="text_5">
      <!-- 2.0 -->
      <g transform="translate(212.529927 149.739025) scale(0.1 -0.1)">
       <defs>
        <path id="DejaVuSans-32" d="M 1228 531 
L 3431 531 
L 3431 0 
L 469 0 
L 469 531 
Q 828 903 1448 1529 
Q 2069 2156 2228 2338 
Q 2531 2678 2651 2914 
Q 2772 3150 2772 3378 
Q 2772 3750 2511 3984 
Q 2250 4219 1831 4219 
Q 1534 4219 1204 4116 
Q 875 4013 500 3803 
L 500 4441 
Q 881 4594 1212 4672 
Q 1544 4750 1819 4750 
Q 2544 4750 2975 4387 
Q 3406 4025 3406 3419 
Q 3406 3131 3298 2873 
Q 3191 2616 2906 2266 
Q 2828 2175 2409 1742 
Q 1991 1309 1228 531 
z
" transform="scale(0.015625)"/>
       </defs>
       <use xlink:href="#DejaVuSans-32"/>
       <use xlink:href="#DejaVuSans-2e" x="63.623047"/>
       <use xlink:href="#DejaVuSans-30" x="95.410156"/>
      </g>
     </g>
    </g>
    <g id="xtick_6">
     <g id="line2d_6">
      <g>
       <use xlink:href="#m607c71df4d" x="266.996995" y="135.140587" style="stroke: #000000; stroke-width: 0.8"/>
      </g>
     </g>
     <g id="text_6">
      <!-- 2.5 -->
      <g transform="translate(259.045432 149.739025) scale(0.1 -0.1)">
       <use xlink:href="#DejaVuSans-32"/>
       <use xlink:href="#DejaVuSans-2e" x="63.623047"/>
       <use xlink:href="#DejaVuSans-35" x="95.410156"/>
      </g>
     </g>
    </g>
    <g id="xtick_7">
     <g id="line2d_7">
      <g>
       <use xlink:href="#m607c71df4d" x="313.5125" y="135.140587" style="stroke: #000000; stroke-width: 0.8"/>
      </g>
     </g>
     <g id="text_7">
      <!-- 3.0 -->
      <g transform="translate(305.560938 149.739025) scale(0.1 -0.1)">
       <defs>
        <path id="DejaVuSans-33" d="M 2597 2516 
Q 3050 2419 3304 2112 
Q 3559 1806 3559 1356 
Q 3559 666 3084 287 
Q 2609 -91 1734 -91 
Q 1441 -91 1130 -33 
Q 819 25 488 141 
L 488 750 
Q 750 597 1062 519 
Q 1375 441 1716 441 
Q 2309 441 2620 675 
Q 2931 909 2931 1356 
Q 2931 1769 2642 2001 
Q 2353 2234 1838 2234 
L 1294 2234 
L 1294 2753 
L 1863 2753 
Q 2328 2753 2575 2939 
Q 2822 3125 2822 3475 
Q 2822 3834 2567 4026 
Q 2313 4219 1838 4219 
Q 1578 4219 1281 4162 
Q 984 4106 628 3988 
L 628 4550 
Q 988 4650 1302 4700 
Q 1616 4750 1894 4750 
Q 2613 4750 3031 4423 
Q 3450 4097 3450 3541 
Q 3450 3153 3228 2886 
Q 3006 2619 2597 2516 
z
" transform="scale(0.015625)"/>
       </defs>
       <use xlink:href="#DejaVuSans-33"/>
       <use xlink:href="#DejaVuSans-2e" x="63.623047"/>
       <use xlink:href="#DejaVuSans-30" x="95.410156"/>
      </g>
     </g>
    </g>
   </g>
   <g id="matplotlib.axis_2">
    <g id="ytick_1">
     <g id="line2d_8">
      <defs>
       <path id="madf5ef9e5b" d="M 0 0 
L -3.5 0 
" style="stroke: #000000; stroke-width: 0.8"/>
      </defs>
      <g>
       <use xlink:href="#madf5ef9e5b" x="20.5625" y="129.325106" style="stroke: #000000; stroke-width: 0.8"/>
      </g>
     </g>
     <g id="text_8">
      <!-- 0 -->
      <g transform="translate(7.2 133.124325) scale(0.1 -0.1)">
       <use xlink:href="#DejaVuSans-30"/>
      </g>
     </g>
    </g>
    <g id="ytick_2">
     <g id="line2d_9">
      <g>
       <use xlink:href="#madf5ef9e5b" x="20.5625" y="104.516837" style="stroke: #000000; stroke-width: 0.8"/>
      </g>
     </g>
     <g id="text_9">
      <!-- 1 -->
      <g transform="translate(7.2 108.316055) scale(0.1 -0.1)">
       <use xlink:href="#DejaVuSans-31"/>
      </g>
     </g>
    </g>
    <g id="ytick_3">
     <g id="line2d_10">
      <g>
       <use xlink:href="#madf5ef9e5b" x="20.5625" y="79.708567" style="stroke: #000000; stroke-width: 0.8"/>
      </g>
     </g>
     <g id="text_10">
      <!-- 2 -->
      <g transform="translate(7.2 83.507786) scale(0.1 -0.1)">
       <use xlink:href="#DejaVuSans-32"/>
      </g>
     </g>
    </g>
    <g id="ytick_4">
     <g id="line2d_11">
      <g>
       <use xlink:href="#madf5ef9e5b" x="20.5625" y="54.900298" style="stroke: #000000; stroke-width: 0.8"/>
      </g>
     </g>
     <g id="text_11">
      <!-- 3 -->
      <g transform="translate(7.2 58.699516) scale(0.1 -0.1)">
       <use xlink:href="#DejaVuSans-33"/>
      </g>
     </g>
    </g>
    <g id="ytick_5">
     <g id="line2d_12">
      <g>
       <use xlink:href="#madf5ef9e5b" x="20.5625" y="30.092028" style="stroke: #000000; stroke-width: 0.8"/>
      </g>
     </g>
     <g id="text_12">
      <!-- 4 -->
      <g transform="translate(7.2 33.891247) scale(0.1 -0.1)">
       <defs>
        <path id="DejaVuSans-34" d="M 2419 4116 
L 825 1625 
L 2419 1625 
L 2419 4116 
z
M 2253 4666 
L 3047 4666 
L 3047 1625 
L 3713 1625 
L 3713 1100 
L 3047 1100 
L 3047 0 
L 2419 0 
L 2419 1100 
L 313 1100 
L 313 1709 
L 2253 4666 
z
" transform="scale(0.015625)"/>
       </defs>
       <use xlink:href="#DejaVuSans-34"/>
      </g>
     </g>
    </g>
   </g>
   <g id="line2d_13">
    <path d="M 34.5125 129.325106 
L 43.5125 129.231531 
L 45.421591 128.947863 
L 47.057955 128.470727 
L 48.694318 127.767863 
L 50.603409 126.71171 
L 53.603409 124.755283 
L 58.5125 121.542641 
L 61.239773 120.024813 
L 63.967045 118.770909 
L 66.694318 117.782965 
L 69.421591 117.040368 
L 72.421591 116.470386 
L 75.694318 116.093654 
L 79.239773 115.914097 
L 83.330682 115.92864 
L 88.5125 116.183299 
L 95.330682 116.760464 
L 107.057955 118.019337 
L 127.785227 120.231434 
L 142.239773 121.531708 
L 157.239773 122.651623 
L 173.603409 123.644564 
L 192.148864 124.540197 
L 213.694318 125.349119 
L 239.057955 126.070922 
L 269.876136 126.716333 
L 308.057955 127.284087 
L 313.5125 127.350006 
L 313.5125 127.350006 
" clip-path="url(#pf18838365a)" style="fill: none; stroke: #1f77b4; stroke-width: 1.5; stroke-linecap: square"/>
   </g>
   <g id="line2d_14">
    <path d="M 34.5125 129.325106 
L 40.239773 129.232511 
L 41.057955 128.932781 
L 41.603409 128.496068 
L 42.148864 127.782247 
L 42.694318 126.728369 
L 43.239773 125.293496 
L 44.057955 122.403351 
L 44.876136 118.691817 
L 46.239773 111.150144 
L 50.057955 88.797984 
L 51.421591 82.581411 
L 52.5125 78.629488 
L 53.603409 75.591101 
L 54.421591 73.882361 
L 55.239773 72.6257 
L 56.057955 71.781871 
L 56.876136 71.308969 
L 57.694318 71.164618 
L 58.5125 71.307507 
L 59.330682 71.698414 
L 60.421591 72.542786 
L 61.5125 73.685593 
L 62.876136 75.43134 
L 64.785227 78.274494 
L 68.057955 83.654002 
L 72.694318 91.233835 
L 75.694318 95.715611 
L 78.421591 99.403801 
L 81.148864 102.711511 
L 83.876136 105.652635 
L 86.603409 108.253836 
L 89.330682 110.547158 
L 92.057955 112.565759 
L 95.057955 114.506976 
L 98.057955 116.193518 
L 101.330682 117.783827 
L 104.876136 119.257031 
L 108.694318 120.600493 
L 112.785227 121.808802 
L 117.421591 122.943181 
L 122.603409 123.975106 
L 128.330682 124.889186 
L 135.148864 125.741258 
L 143.057955 126.492144 
L 152.330682 127.14136 
L 163.785227 127.708943 
L 178.239773 128.187817 
L 197.057955 128.575621 
L 223.239773 128.878518 
L 263.330682 129.099729 
L 313.5125 129.215378 
L 313.5125 129.215378 
" clip-path="url(#pf18838365a)" style="fill: none; stroke: #ff7f0e; stroke-width: 1.5; stroke-linecap: square"/>
   </g>
   <g id="line2d_15">
    <path d="M 34.5125 129.325106 
L 36.967045 129.292686 
L 37.239773 129.198938 
L 37.5125 128.951703 
L 37.785227 128.424339 
L 38.057955 127.466651 
L 38.330682 125.930899 
L 38.876136 120.693502 
L 39.421591 112.350535 
L 40.239773 95.099561 
L 42.421591 44.66906 
L 43.239773 30.987213 
L 44.057955 21.420687 
L 44.603409 17.208809 
L 45.148864 14.54276 
L 45.694318 13.228468 
L 45.967045 13.015481 
L 46.239773 13.06567 
L 46.5125 13.355226 
L 47.057955 14.562183 
L 47.603409 16.46742 
L 48.421591 20.313785 
L 49.5125 26.660443 
L 51.967045 42.85193 
L 54.421591 58.413234 
L 56.330682 69.019982 
L 57.967045 76.928372 
L 59.603409 83.79092 
L 61.239773 89.704719 
L 62.876136 94.782912 
L 64.5125 99.137789 
L 66.148864 102.872914 
L 67.785227 106.080105 
L 69.421591 108.838911 
L 71.057955 111.21731 
L 72.967045 113.587657 
L 74.876136 115.594425 
L 76.785227 117.299869 
L 78.967045 118.944773 
L 81.148864 120.323496 
L 83.603409 121.616746 
L 86.330682 122.796969 
L 89.330682 123.849266 
L 92.603409 124.769192 
L 96.421591 125.613662 
L 101.057955 126.394635 
L 106.5125 127.069823 
L 113.057955 127.644147 
L 121.239773 128.128858 
L 131.876136 128.526275 
L 146.603409 128.840721 
L 168.967045 129.074299 
L 207.694318 129.226601 
L 297.148864 129.304686 
L 313.5125 129.308903 
L 313.5125 129.308903 
" clip-path="url(#pf18838365a)" style="fill: none; stroke: #2ca02c; stroke-width: 1.5; stroke-linecap: square"/>
   </g>
   <g id="patch_3">
    <path d="M 20.5625 135.140587 
L 20.5625 7.2 
" style="fill: none; stroke: #000000; stroke-width: 0.8; stroke-linejoin: miter; stroke-linecap: square"/>
   </g>
   <g id="patch_4">
    <path d="M 327.4625 135.140587 
L 327.4625 7.2 
" style="fill: none; stroke: #000000; stroke-width: 0.8; stroke-linejoin: miter; stroke-linecap: square"/>
   </g>
   <g id="patch_5">
    <path d="M 20.5625 135.140587 
L 327.4625 135.140587 
" style="fill: none; stroke: #000000; stroke-width: 0.8; stroke-linejoin: miter; stroke-linecap: square"/>
   </g>
   <g id="patch_6">
    <path d="M 20.5625 7.2 
L 327.4625 7.2 
" style="fill: none; stroke: #000000; stroke-width: 0.8; stroke-linejoin: miter; stroke-linecap: square"/>
   </g>
   <g id="legend_1">
    <g id="patch_7">
     <path d="M 222.2625 59.6 
L 320.4625 59.6 
Q 322.4625 59.6 322.4625 57.6 
L 322.4625 14.2 
Q 322.4625 12.2 320.4625 12.2 
L 222.2625 12.2 
Q 220.2625 12.2 220.2625 14.2 
L 220.2625 57.6 
Q 220.2625 59.6 222.2625 59.6 
z
" style="fill: #ffffff; opacity: 0.8; stroke: #cccccc; stroke-linejoin: miter"/>
    </g>
    <g id="line2d_16">
     <path d="M 224.2625 20.4 
L 234.2625 20.4 
L 244.2625 20.4 
" style="fill: none; stroke: #1f77b4; stroke-width: 1.5; stroke-linecap: square"/>
    </g>
    <g id="text_13">
     <!-- $\alpha=1$, $\beta=1$ -->
     <g transform="translate(252.2625 23.9) scale(0.1 -0.1)">
      <defs>
       <path id="DejaVuSans-Oblique-3b1" d="M 2619 1628 
L 2622 2350 
Q 2625 3088 2069 3091 
Q 1653 3094 1394 2747 
Q 1069 2319 959 1747 
Q 825 1059 994 731 
Q 1169 397 1547 397 
Q 1966 397 2319 1063 
L 2619 1628 
z
M 2166 3578 
Q 3141 3594 3128 2584 
Q 3128 2584 3616 3500 
L 4128 3500 
L 3119 1603 
L 3109 919 
Q 3109 766 3194 638 
Q 3291 488 3391 488 
L 3669 488 
L 3575 0 
L 3228 0 
Q 2934 0 2722 263 
Q 2622 394 2619 669 
Q 2416 334 2066 50 
Q 1900 -81 1453 -78 
Q 722 -72 456 397 
Q 184 884 353 1747 
Q 534 2675 1009 3097 
Q 1544 3569 2166 3578 
z
" transform="scale(0.015625)"/>
       <path id="DejaVuSans-3d" d="M 678 2906 
L 4684 2906 
L 4684 2381 
L 678 2381 
L 678 2906 
z
M 678 1631 
L 4684 1631 
L 4684 1100 
L 678 1100 
L 678 1631 
z
" transform="scale(0.015625)"/>
       <path id="DejaVuSans-2c" d="M 750 794 
L 1409 794 
L 1409 256 
L 897 -744 
L 494 -744 
L 750 256 
L 750 794 
z
" transform="scale(0.015625)"/>
       <path id="DejaVuSans-20" transform="scale(0.015625)"/>
       <path id="DejaVuSans-Oblique-3b2" d="M 872 216 
L 572 -1331 
L -6 -1331 
L 928 3478 
Q 1206 4903 2538 4903 
Q 3888 4903 3659 3700 
Q 3503 2844 2894 2531 
Q 3713 2250 3553 1416 
Q 3272 -69 1759 -66 
Q 1097 -63 872 216 
z
M 1019 966 
Q 1259 422 1875 425 
Q 2775 425 2966 1406 
Q 3138 2288 1675 2219 
L 1778 2750 
Q 2909 2731 3106 3750 
Q 3241 4438 2509 4434 
Q 1691 4434 1503 3459 
L 1019 966 
z
" transform="scale(0.015625)"/>
      </defs>
      <use xlink:href="#DejaVuSans-Oblique-3b1" transform="translate(0 0.390625)"/>
      <use xlink:href="#DejaVuSans-3d" transform="translate(85.400391 0.390625)"/>
      <use xlink:href="#DejaVuSans-31" transform="translate(188.671875 0.390625)"/>
      <use xlink:href="#DejaVuSans-2c" transform="translate(252.294922 0.390625)"/>
      <use xlink:href="#DejaVuSans-20" transform="translate(284.082031 0.390625)"/>
      <use xlink:href="#DejaVuSans-Oblique-3b2" transform="translate(315.869141 0.390625)"/>
      <use xlink:href="#DejaVuSans-3d" transform="translate(399.169922 0.390625)"/>
      <use xlink:href="#DejaVuSans-31" transform="translate(502.441406 0.390625)"/>
     </g>
    </g>
    <g id="line2d_17">
     <path d="M 224.2625 35.2 
L 234.2625 35.2 
L 244.2625 35.2 
" style="fill: none; stroke: #ff7f0e; stroke-width: 1.5; stroke-linecap: square"/>
    </g>
    <g id="text_14">
     <!-- $\alpha=3$, $\beta=1$ -->
     <g transform="translate(252.2625 38.7) scale(0.1 -0.1)">
      <use xlink:href="#DejaVuSans-Oblique-3b1" transform="translate(0 0.390625)"/>
      <use xlink:href="#DejaVuSans-3d" transform="translate(85.400391 0.390625)"/>
      <use xlink:href="#DejaVuSans-33" transform="translate(188.671875 0.390625)"/>
      <use xlink:href="#DejaVuSans-2c" transform="translate(252.294922 0.390625)"/>
      <use xlink:href="#DejaVuSans-20" transform="translate(284.082031 0.390625)"/>
      <use xlink:href="#DejaVuSans-Oblique-3b2" transform="translate(315.869141 0.390625)"/>
      <use xlink:href="#DejaVuSans-3d" transform="translate(399.169922 0.390625)"/>
      <use xlink:href="#DejaVuSans-31" transform="translate(502.441406 0.390625)"/>
     </g>
    </g>
    <g id="line2d_18">
     <path d="M 224.2625 50 
L 234.2625 50 
L 244.2625 50 
" style="fill: none; stroke: #2ca02c; stroke-width: 1.5; stroke-linecap: square"/>
    </g>
    <g id="text_15">
     <!-- $\alpha=3$, $\beta=0.5$ -->
     <g transform="translate(252.2625 53.5) scale(0.1 -0.1)">
      <use xlink:href="#DejaVuSans-Oblique-3b1" transform="translate(0 0.390625)"/>
      <use xlink:href="#DejaVuSans-3d" transform="translate(85.400391 0.390625)"/>
      <use xlink:href="#DejaVuSans-33" transform="translate(188.671875 0.390625)"/>
      <use xlink:href="#DejaVuSans-2c" transform="translate(252.294922 0.390625)"/>
      <use xlink:href="#DejaVuSans-20" transform="translate(284.082031 0.390625)"/>
      <use xlink:href="#DejaVuSans-Oblique-3b2" transform="translate(315.869141 0.390625)"/>
      <use xlink:href="#DejaVuSans-3d" transform="translate(399.169922 0.390625)"/>
      <use xlink:href="#DejaVuSans-30" transform="translate(502.441406 0.390625)"/>
      <use xlink:href="#DejaVuSans-2e" transform="translate(566.064453 0.390625)"/>
      <use xlink:href="#DejaVuSans-35" transform="translate(597.851562 0.390625)"/>
     </g>
    </g>
   </g>
  </g>
 </g>
 <defs>
  <clipPath id="pf18838365a">
   <rect x="20.5625" y="7.2" width="306.9" height="127.940587"/>
  </clipPath>
 </defs>
</svg>
