<?xml version="1.0" encoding="utf-8" standalone="no"?>
<!DOCTYPE svg PUBLIC "-//W3C//DTD SVG 1.1//EN"
  "http://www.w3.org/Graphics/SVG/1.1/DTD/svg11.dtd">
<svg xmlns:xlink="http://www.w3.org/1999/xlink" width="350.565625pt" height="124.171218pt" viewBox="0 0 350.565625 124.171218" xmlns="http://www.w3.org/2000/svg" version="1.1">
 <metadata>
  <rdf:RDF xmlns:dc="http://purl.org/dc/elements/1.1/" xmlns:cc="http://creativecommons.org/ns#" xmlns:rdf="http://www.w3.org/1999/02/22-rdf-syntax-ns#">
   <cc:Work>
    <dc:type rdf:resource="http://purl.org/dc/dcmitype/StillImage"/>
    <dc:date>2025-01-14T09:42:08.405743</dc:date>
    <dc:format>image/svg+xml</dc:format>
    <dc:creator>
     <cc:Agent>
      <dc:title>Matplotlib v3.9.2, https://matplotlib.org/</dc:title>
     </cc:Agent>
    </dc:creator>
   </cc:Work>
  </rdf:RDF>
 </metadata>
 <defs>
  <style type="text/css">*{stroke-linejoin: round; stroke-linecap: butt}</style>
 </defs>
 <g id="figure_1">
  <g id="patch_1">
   <path d="M 0 124.171218 
L 350.565625 124.171218 
L 350.565625 0 
L 0 0 
z
" style="fill: #ffffff"/>
  </g>
  <g id="axes_1">
   <g id="patch_2">
    <path d="M 36.465625 100.293093 
L 343.365625 100.293093 
L 343.365625 7.2 
L 36.465625 7.2 
z
" style="fill: #ffffff"/>
   </g>
   <g id="matplotlib.axis_1">
    <g id="xtick_1">
     <g id="line2d_1">
      <defs>
       <path id="ma3a55e2ee8" d="M 0 0 
L 0 3.5 
" style="stroke: #000000; stroke-width: 0.8"/>
      </defs>
      <g>
       <use xlink:href="#ma3a55e2ee8" x="50.415625" y="100.293093" style="stroke: #000000; stroke-width: 0.8"/>
      </g>
     </g>
     <g id="text_1">
      <!-- 0 -->
      <g transform="translate(47.234375 114.891531) scale(0.1 -0.1)">
       <defs>
        <path id="DejaVuSans-30" d="M 2034 4250 
Q 1547 4250 1301 3770 
Q 1056 3291 1056 2328 
Q 1056 1369 1301 889 
Q 1547 409 2034 409 
Q 2525 409 2770 889 
Q 3016 1369 3016 2328 
Q 3016 3291 2770 3770 
Q 2525 4250 2034 4250 
z
M 2034 4750 
Q 2819 4750 3233 4129 
Q 3647 3509 3647 2328 
Q 3647 1150 3233 529 
Q 2819 -91 2034 -91 
Q 1250 -91 836 529 
Q 422 1150 422 2328 
Q 422 3509 836 4129 
Q 1250 4750 2034 4750 
z
" transform="scale(0.015625)"/>
       </defs>
       <use xlink:href="#DejaVuSans-30"/>
      </g>
     </g>
    </g>
    <g id="xtick_2">
     <g id="line2d_2">
      <g>
       <use xlink:href="#ma3a55e2ee8" x="106.271481" y="100.293093" style="stroke: #000000; stroke-width: 0.8"/>
      </g>
     </g>
     <g id="text_2">
      <!-- 200 -->
      <g transform="translate(96.727731 114.891531) scale(0.1 -0.1)">
       <defs>
        <path id="DejaVuSans-32" d="M 1228 531 
L 3431 531 
L 3431 0 
L 469 0 
L 469 531 
Q 828 903 1448 1529 
Q 2069 2156 2228 2338 
Q 2531 2678 2651 2914 
Q 2772 3150 2772 3378 
Q 2772 3750 2511 3984 
Q 2250 4219 1831 4219 
Q 1534 4219 1204 4116 
Q 875 4013 500 3803 
L 500 4441 
Q 881 4594 1212 4672 
Q 1544 4750 1819 4750 
Q 2544 4750 2975 4387 
Q 3406 4025 3406 3419 
Q 3406 3131 3298 2873 
Q 3191 2616 2906 2266 
Q 2828 2175 2409 1742 
Q 1991 1309 1228 531 
z
" transform="scale(0.015625)"/>
       </defs>
       <use xlink:href="#DejaVuSans-32"/>
       <use xlink:href="#DejaVuSans-30" x="63.623047"/>
       <use xlink:href="#DejaVuSans-30" x="127.246094"/>
      </g>
     </g>
    </g>
    <g id="xtick_3">
     <g id="line2d_3">
      <g>
       <use xlink:href="#ma3a55e2ee8" x="162.127337" y="100.293093" style="stroke: #000000; stroke-width: 0.8"/>
      </g>
     </g>
     <g id="text_3">
      <!-- 400 -->
      <g transform="translate(152.583587 114.891531) scale(0.1 -0.1)">
       <defs>
        <path id="DejaVuSans-34" d="M 2419 4116 
L 825 1625 
L 2419 1625 
L 2419 4116 
z
M 2253 4666 
L 3047 4666 
L 3047 1625 
L 3713 1625 
L 3713 1100 
L 3047 1100 
L 3047 0 
L 2419 0 
L 2419 1100 
L 313 1100 
L 313 1709 
L 2253 4666 
z
" transform="scale(0.015625)"/>
       </defs>
       <use xlink:href="#DejaVuSans-34"/>
       <use xlink:href="#DejaVuSans-30" x="63.623047"/>
       <use xlink:href="#DejaVuSans-30" x="127.246094"/>
      </g>
     </g>
    </g>
    <g id="xtick_4">
     <g id="line2d_4">
      <g>
       <use xlink:href="#ma3a55e2ee8" x="217.983193" y="100.293093" style="stroke: #000000; stroke-width: 0.8"/>
      </g>
     </g>
     <g id="text_4">
      <!-- 600 -->
      <g transform="translate(208.439443 114.891531) scale(0.1 -0.1)">
       <defs>
        <path id="DejaVuSans-36" d="M 2113 2584 
Q 1688 2584 1439 2293 
Q 1191 2003 1191 1497 
Q 1191 994 1439 701 
Q 1688 409 2113 409 
Q 2538 409 2786 701 
Q 3034 994 3034 1497 
Q 3034 2003 2786 2293 
Q 2538 2584 2113 2584 
z
M 3366 4563 
L 3366 3988 
Q 3128 4100 2886 4159 
Q 2644 4219 2406 4219 
Q 1781 4219 1451 3797 
Q 1122 3375 1075 2522 
Q 1259 2794 1537 2939 
Q 1816 3084 2150 3084 
Q 2853 3084 3261 2657 
Q 3669 2231 3669 1497 
Q 3669 778 3244 343 
Q 2819 -91 2113 -91 
Q 1303 -91 875 529 
Q 447 1150 447 2328 
Q 447 3434 972 4092 
Q 1497 4750 2381 4750 
Q 2619 4750 2861 4703 
Q 3103 4656 3366 4563 
z
" transform="scale(0.015625)"/>
       </defs>
       <use xlink:href="#DejaVuSans-36"/>
       <use xlink:href="#DejaVuSans-30" x="63.623047"/>
       <use xlink:href="#DejaVuSans-30" x="127.246094"/>
      </g>
     </g>
    </g>
    <g id="xtick_5">
     <g id="line2d_5">
      <g>
       <use xlink:href="#ma3a55e2ee8" x="273.839048" y="100.293093" style="stroke: #000000; stroke-width: 0.8"/>
      </g>
     </g>
     <g id="text_5">
      <!-- 800 -->
      <g transform="translate(264.295298 114.891531) scale(0.1 -0.1)">
       <defs>
        <path id="DejaVuSans-38" d="M 2034 2216 
Q 1584 2216 1326 1975 
Q 1069 1734 1069 1313 
Q 1069 891 1326 650 
Q 1584 409 2034 409 
Q 2484 409 2743 651 
Q 3003 894 3003 1313 
Q 3003 1734 2745 1975 
Q 2488 2216 2034 2216 
z
M 1403 2484 
Q 997 2584 770 2862 
Q 544 3141 544 3541 
Q 544 4100 942 4425 
Q 1341 4750 2034 4750 
Q 2731 4750 3128 4425 
Q 3525 4100 3525 3541 
Q 3525 3141 3298 2862 
Q 3072 2584 2669 2484 
Q 3125 2378 3379 2068 
Q 3634 1759 3634 1313 
Q 3634 634 3220 271 
Q 2806 -91 2034 -91 
Q 1263 -91 848 271 
Q 434 634 434 1313 
Q 434 1759 690 2068 
Q 947 2378 1403 2484 
z
M 1172 3481 
Q 1172 3119 1398 2916 
Q 1625 2713 2034 2713 
Q 2441 2713 2670 2916 
Q 2900 3119 2900 3481 
Q 2900 3844 2670 4047 
Q 2441 4250 2034 4250 
Q 1625 4250 1398 4047 
Q 1172 3844 1172 3481 
z
" transform="scale(0.015625)"/>
       </defs>
       <use xlink:href="#DejaVuSans-38"/>
       <use xlink:href="#DejaVuSans-30" x="63.623047"/>
       <use xlink:href="#DejaVuSans-30" x="127.246094"/>
      </g>
     </g>
    </g>
    <g id="xtick_6">
     <g id="line2d_6">
      <g>
       <use xlink:href="#ma3a55e2ee8" x="329.694904" y="100.293093" style="stroke: #000000; stroke-width: 0.8"/>
      </g>
     </g>
     <g id="text_6">
      <!-- 1000 -->
      <g transform="translate(316.969904 114.891531) scale(0.1 -0.1)">
       <defs>
        <path id="DejaVuSans-31" d="M 794 531 
L 1825 531 
L 1825 4091 
L 703 3866 
L 703 4441 
L 1819 4666 
L 2450 4666 
L 2450 531 
L 3481 531 
L 3481 0 
L 794 0 
L 794 531 
z
" transform="scale(0.015625)"/>
       </defs>
       <use xlink:href="#DejaVuSans-31"/>
       <use xlink:href="#DejaVuSans-30" x="63.623047"/>
       <use xlink:href="#DejaVuSans-30" x="127.246094"/>
       <use xlink:href="#DejaVuSans-30" x="190.869141"/>
      </g>
     </g>
    </g>
   </g>
   <g id="matplotlib.axis_2">
    <g id="ytick_1">
     <g id="line2d_7">
      <defs>
       <path id="m277c27ae0e" d="M 0 0 
L -3.5 0 
" style="stroke: #000000; stroke-width: 0.8"/>
      </defs>
      <g>
       <use xlink:href="#m277c27ae0e" x="36.465625" y="96.061589" style="stroke: #000000; stroke-width: 0.8"/>
      </g>
     </g>
     <g id="text_7">
      <!-- 0.00 -->
      <g transform="translate(7.2 99.860808) scale(0.1 -0.1)">
       <defs>
        <path id="DejaVuSans-2e" d="M 684 794 
L 1344 794 
L 1344 0 
L 684 0 
L 684 794 
z
" transform="scale(0.015625)"/>
       </defs>
       <use xlink:href="#DejaVuSans-30"/>
       <use xlink:href="#DejaVuSans-2e" x="63.623047"/>
       <use xlink:href="#DejaVuSans-30" x="95.410156"/>
       <use xlink:href="#DejaVuSans-30" x="159.033203"/>
      </g>
     </g>
    </g>
    <g id="ytick_2">
     <g id="line2d_8">
      <g>
       <use xlink:href="#m277c27ae0e" x="36.465625" y="72.788316" style="stroke: #000000; stroke-width: 0.8"/>
      </g>
     </g>
     <g id="text_8">
      <!-- 0.25 -->
      <g transform="translate(7.2 76.587534) scale(0.1 -0.1)">
       <defs>
        <path id="DejaVuSans-35" d="M 691 4666 
L 3169 4666 
L 3169 4134 
L 1269 4134 
L 1269 2991 
Q 1406 3038 1543 3061 
Q 1681 3084 1819 3084 
Q 2600 3084 3056 2656 
Q 3513 2228 3513 1497 
Q 3513 744 3044 326 
Q 2575 -91 1722 -91 
Q 1428 -91 1123 -41 
Q 819 9 494 109 
L 494 744 
Q 775 591 1075 516 
Q 1375 441 1709 441 
Q 2250 441 2565 725 
Q 2881 1009 2881 1497 
Q 2881 1984 2565 2268 
Q 2250 2553 1709 2553 
Q 1456 2553 1204 2497 
Q 953 2441 691 2322 
L 691 4666 
z
" transform="scale(0.015625)"/>
       </defs>
       <use xlink:href="#DejaVuSans-30"/>
       <use xlink:href="#DejaVuSans-2e" x="63.623047"/>
       <use xlink:href="#DejaVuSans-32" x="95.410156"/>
       <use xlink:href="#DejaVuSans-35" x="159.033203"/>
      </g>
     </g>
    </g>
    <g id="ytick_3">
     <g id="line2d_9">
      <g>
       <use xlink:href="#m277c27ae0e" x="36.465625" y="49.515042" style="stroke: #000000; stroke-width: 0.8"/>
      </g>
     </g>
     <g id="text_9">
      <!-- 0.50 -->
      <g transform="translate(7.2 53.314261) scale(0.1 -0.1)">
       <use xlink:href="#DejaVuSans-30"/>
       <use xlink:href="#DejaVuSans-2e" x="63.623047"/>
       <use xlink:href="#DejaVuSans-35" x="95.410156"/>
       <use xlink:href="#DejaVuSans-30" x="159.033203"/>
      </g>
     </g>
    </g>
    <g id="ytick_4">
     <g id="line2d_10">
      <g>
       <use xlink:href="#m277c27ae0e" x="36.465625" y="26.241769" style="stroke: #000000; stroke-width: 0.8"/>
      </g>
     </g>
     <g id="text_10">
      <!-- 0.75 -->
      <g transform="translate(7.2 30.040988) scale(0.1 -0.1)">
       <defs>
        <path id="DejaVuSans-37" d="M 525 4666 
L 3525 4666 
L 3525 4397 
L 1831 0 
L 1172 0 
L 2766 4134 
L 525 4134 
L 525 4666 
z
" transform="scale(0.015625)"/>
       </defs>
       <use xlink:href="#DejaVuSans-30"/>
       <use xlink:href="#DejaVuSans-2e" x="63.623047"/>
       <use xlink:href="#DejaVuSans-37" x="95.410156"/>
       <use xlink:href="#DejaVuSans-35" x="159.033203"/>
      </g>
     </g>
    </g>
   </g>
   <g id="line2d_11">
    <path d="M 50.694904 96.061589 
L 51.253463 96.061589 
L 51.812021 58.824352 
L 52.37058 56.164549 
L 53.487697 11.431504 
L 54.046256 53.095546 
L 54.604814 65.030558 
L 55.163373 68.681267 
L 55.721931 66.66377 
L 56.28049 38.432531 
L 56.839048 55.586331 
L 57.397607 47.65318 
L 57.956166 58.134773 
L 59.073283 45.010538 
L 59.631841 56.567549 
L 60.1904 50.844944 
L 60.748958 48.257028 
L 61.307517 65.030558 
L 61.866075 43.838634 
L 62.424634 44.102653 
L 62.983193 48.480675 
L 63.541751 40.601874 
L 64.10031 50.464972 
L 64.658868 50.42772 
L 65.217427 53.906226 
L 65.775985 41.898335 
L 66.334544 48.698436 
L 67.451661 42.647519 
L 68.01022 53.209213 
L 68.568778 50.231143 
L 69.127337 48.820318 
L 69.685895 50.18963 
L 70.244454 40.992435 
L 70.803012 51.427914 
L 71.361571 56.341869 
L 71.92013 50.119543 
L 72.478688 50.104239 
L 73.037247 40.895311 
L 73.595805 36.616602 
L 74.154364 52.253074 
L 74.712922 42.559811 
L 75.271481 47.946058 
L 75.830039 57.18755 
L 76.947157 38.245878 
L 77.505715 54.793517 
L 78.064274 49.044875 
L 78.622832 46.289044 
L 79.181391 40.02497 
L 79.739949 57.05115 
L 80.298508 49.080028 
L 80.857066 56.774595 
L 81.415625 44.902321 
L 81.974184 55.693787 
L 82.532742 52.34831 
L 83.091301 45.138871 
L 84.208418 46.822267 
L 84.766976 46.866052 
L 85.325535 43.184712 
L 85.884093 49.881551 
L 86.442652 48.432564 
L 87.001211 51.291628 
L 87.559769 45.665328 
L 88.118328 51.238988 
L 88.676886 52.572845 
L 89.235445 49.180175 
L 89.794003 51.825864 
L 90.352562 50.491543 
L 90.91112 47.909989 
L 91.469679 44.765395 
L 92.028238 51.077007 
L 92.586796 53.522361 
L 93.145355 40.692494 
L 93.703913 40.806334 
L 94.262472 46.846769 
L 94.82103 49.222297 
L 95.379589 47.491279 
L 95.938148 49.229481 
L 96.496706 42.462535 
L 97.055265 52.023539 
L 97.613823 51.993852 
L 98.172382 44.887608 
L 98.73094 44.402994 
L 99.289499 50.844944 
L 99.848057 48.200168 
L 100.406616 52.375445 
L 101.523733 48.243279 
L 102.64085 46.279186 
L 103.199409 45.820872 
L 103.757967 44.397359 
L 104.316526 51.203259 
L 104.875084 47.36674 
L 105.433643 45.498335 
L 106.55076 56.693863 
L 107.109319 46.992816 
L 107.667877 51.558549 
L 108.226436 51.538805 
L 108.784994 53.301125 
L 109.343553 55.471235 
L 109.902111 49.296514 
L 110.46067 44.968635 
L 111.019229 48.871542 
L 111.577787 48.027253 
L 112.136346 48.040717 
L 112.694904 50.558687 
L 113.253463 55.514375 
L 113.812021 55.461517 
L 114.37058 50.124822 
L 114.929139 48.910542 
L 115.487697 46.518484 
L 116.046256 46.940127 
L 116.604814 51.282633 
L 117.163373 48.930776 
L 117.721931 50.480738 
L 118.28049 45.492501 
L 118.839048 44.005451 
L 119.397607 45.557644 
L 119.956166 53.814523 
L 120.514724 47.846043 
L 121.631841 51.888004 
L 122.1904 50.420617 
L 122.748958 54.007952 
L 123.307517 51.833453 
L 123.866075 55.001517 
L 124.424634 51.095868 
L 125.541751 53.148788 
L 126.10031 48.999767 
L 126.658868 47.29854 
L 127.217427 49.007262 
L 127.775985 47.330547 
L 128.334544 44.676871 
L 128.893102 48.35552 
L 129.451661 48.363714 
L 130.01022 43.7988 
L 130.568778 46.75793 
L 131.127337 51.28671 
L 131.685895 52.234256 
L 132.244454 53.486591 
L 132.803012 44.93928 
L 133.361571 47.791096 
L 133.92013 52.161501 
L 134.478688 42.865536 
L 135.037247 49.361423 
L 135.595805 50.888547 
L 136.154364 49.66666 
L 136.712922 49.364406 
L 137.271481 51.760053 
L 137.830039 45.797267 
L 138.388598 48.185141 
L 138.947157 51.71756 
L 139.505715 51.411924 
L 140.064274 49.370037 
L 140.622832 44.183085 
L 141.181391 50.517583 
L 141.739949 49.372698 
L 142.298508 45.978071 
L 142.857066 48.249426 
L 143.415625 53.848204 
L 143.974184 46.319309 
L 144.532742 48.824441 
L 145.091301 50.47618 
L 145.649859 49.105542 
L 146.208418 48.836521 
L 146.766976 46.681774 
L 147.325535 49.649182 
L 147.884093 50.715383 
L 148.442652 53.360768 
L 149.001211 46.482264 
L 149.559769 54.890841 
L 150.118328 46.77701 
L 151.235445 49.386105 
L 151.794003 46.822267 
L 152.352562 51.682964 
L 152.91112 48.119914 
L 153.469679 47.875191 
L 154.028238 53.906226 
L 154.586796 48.142356 
L 155.145355 51.873401 
L 155.703913 52.848615 
L 156.262472 50.129113 
L 156.82103 51.591922 
L 157.379589 48.664322 
L 157.938148 50.361343 
L 158.496706 46.989261 
L 159.055265 49.395385 
L 159.613823 44.634202 
L 160.172382 52.712897 
L 160.73094 48.925846 
L 161.289499 55.260082 
L 161.848057 55.231285 
L 162.406616 50.559728 
L 162.965175 50.092543 
L 163.523733 50.77927 
L 164.082292 48.943217 
L 164.64085 48.263179 
L 165.199409 50.53431 
L 165.757967 47.148269 
L 166.316526 46.935354 
L 166.875084 51.412623 
L 167.433643 50.514849 
L 167.992202 46.308748 
L 168.55076 47.644377 
L 169.109319 46.77701 
L 169.667877 50.060084 
L 170.226436 47.67054 
L 170.784994 47.6791 
L 171.343553 46.182611 
L 171.902111 49.622046 
L 172.46067 46.639169 
L 173.019229 50.681357 
L 173.577787 51.94264 
L 174.136346 49.830256 
L 174.694904 49.201245 
L 175.253463 49.619173 
L 175.812021 48.167369 
L 176.37058 50.856739 
L 176.929139 47.357255 
L 177.487697 51.867945 
L 178.046256 52.876171 
L 178.604814 50.022085 
L 179.163373 51.231509 
L 179.721931 50.419835 
L 180.28049 44.409937 
L 180.839048 49.216028 
L 181.397607 48.026347 
L 181.956166 48.625618 
L 182.514724 49.023007 
L 183.073283 52.160846 
L 183.631841 51.369098 
L 184.1904 48.057426 
L 184.748958 49.611813 
L 185.307517 47.29854 
L 185.866075 51.146571 
L 186.424634 51.713339 
L 186.983193 50.94285 
L 187.541751 50.747436 
L 188.10031 50.364776 
L 188.658868 46.035806 
L 189.217427 49.983317 
L 189.775985 49.048644 
L 190.334544 49.60795 
L 190.893102 47.941899 
L 191.451661 48.869843 
L 192.01022 48.505157 
L 192.568778 51.43543 
L 193.127337 49.059597 
L 193.685895 49.061372 
L 194.244454 49.424661 
L 194.803012 50.865522 
L 195.361571 49.963468 
L 195.92013 50.319109 
L 196.478688 54.409995 
L 197.037247 50.135663 
L 197.595805 50.486602 
L 198.154364 47.491279 
L 198.712922 48.024852 
L 199.271481 50.650324 
L 199.830039 46.295935 
L 200.388598 49.428363 
L 200.947157 48.219684 
L 201.505715 52.698448 
L 202.064274 47.372015 
L 202.622832 46.525815 
L 203.181391 47.217498 
L 203.739949 51.634648 
L 204.298508 52.133814 
L 204.857066 47.242426 
L 205.415625 48.927969 
L 205.974184 47.760146 
L 206.532742 49.764845 
L 207.091301 48.104541 
L 207.649859 50.920533 
L 208.208418 48.44406 
L 208.766976 49.104579 
L 209.884093 47.640138 
L 210.442652 47.159283 
L 211.001211 53.80542 
L 211.559769 48.627673 
L 212.118328 49.916999 
L 212.676886 48.473553 
L 213.235445 49.115844 
L 213.794003 47.048473 
L 214.352562 51.180251 
L 214.91112 46.27496 
L 215.469679 46.915997 
L 216.028238 51.163402 
L 216.586796 48.967436 
L 217.145355 46.162443 
L 217.703913 52.390205 
L 218.262472 50.986564 
L 218.82103 48.357168 
L 219.379589 48.207123 
L 219.938148 52.812409 
L 221.055265 48.52469 
L 221.613823 49.13538 
L 222.172382 49.136615 
L 222.73094 50.043123 
L 223.289499 51.394951 
L 223.848057 51.838622 
L 224.406616 50.635746 
L 224.965175 50.036364 
L 226.082292 51.365064 
L 226.64085 52.539461 
L 227.199409 49.147376 
L 227.757967 47.975708 
L 228.316526 53.095546 
L 228.875084 50.607684 
L 229.433643 49.151965 
L 229.992202 48.718756 
L 230.55076 51.607833 
L 231.109319 51.889132 
L 231.667877 49.012999 
L 232.226436 47.44154 
L 232.784994 49.158637 
L 233.343553 48.306964 
L 234.46067 49.44441 
L 235.019229 51.838849 
L 235.577787 49.72566 
L 236.136346 50.284985 
L 236.694904 51.120096 
L 237.253463 52.228518 
L 238.37058 47.647647 
L 238.929139 49.308169 
L 239.487697 47.933697 
L 240.046256 49.994904 
L 240.604814 50.813698 
L 241.163373 48.22019 
L 241.721931 50.126603 
L 242.28049 48.363235 
L 242.839048 48.907032 
L 243.397607 49.98657 
L 243.956166 52.134545 
L 244.514724 49.046228 
L 245.073283 50.650324 
L 245.631841 48.383009 
L 246.1904 48.120638 
L 246.748958 51.567593 
L 247.307517 48.392643 
L 247.866075 51.687653 
L 248.983193 49.711441 
L 249.541751 51.930501 
L 250.10031 50.361343 
L 250.658868 49.450124 
L 251.217427 49.191353 
L 251.775985 52.6784 
L 252.334544 50.995776 
L 252.893102 51.120096 
L 254.01022 47.024898 
L 254.568778 46.64966 
L 255.127337 49.070532 
L 255.685895 47.551855 
L 256.244454 49.578199 
L 256.803012 45.924849 
L 257.361571 51.587965 
L 257.92013 53.085908 
L 258.478688 50.07735 
L 259.037247 45.714053 
L 259.595805 48.085709 
L 260.154364 49.081186 
L 260.712922 48.093302 
L 261.271481 47.480557 
L 261.830039 51.667128 
L 262.388598 46.510061 
L 262.947157 54.469405 
L 263.505715 50.674131 
L 264.622832 53.338292 
L 265.181391 48.970284 
L 265.739949 51.145077 
L 266.298508 49.093534 
L 266.857066 48.854382 
L 267.415625 48.137217 
L 267.974184 53.040391 
L 268.532742 47.309892 
L 269.091301 48.980025 
L 269.649859 51.590366 
L 270.208418 47.68157 
L 270.766976 48.630127 
L 271.325535 52.163076 
L 271.884093 47.225868 
L 272.442652 49.573591 
L 273.001211 48.054988 
L 273.559769 50.27237 
L 274.118328 47.946058 
L 274.676886 52.58723 
L 275.235445 48.416428 
L 275.794003 48.995936 
L 276.352562 48.767076 
L 276.91112 49.802012 
L 277.469679 51.747902 
L 278.028238 51.1713 
L 278.586796 48.318619 
L 279.145355 50.367543 
L 279.703913 49.798517 
L 280.262472 49.458485 
L 280.82103 48.894422 
L 281.379589 49.458759 
L 281.938148 48.111347 
L 282.496706 50.019157 
L 283.055265 53.370639 
L 283.613823 50.12823 
L 284.172382 50.460432 
L 284.73094 50.569136 
L 285.289499 49.902469 
L 285.848057 51.668441 
L 286.406616 48.248095 
L 286.965175 50.229452 
L 287.523733 50.227769 
L 288.082292 50.991842 
L 289.199409 50.54941 
L 289.757967 48.157208 
L 290.316526 49.677603 
L 290.875084 45.244221 
L 291.433643 48.813878 
L 291.992202 50.106964 
L 292.55076 46.454889 
L 293.109319 48.068832 
L 293.667877 49.034079 
L 294.226436 49.141817 
L 294.784994 48.610709 
L 295.343553 47.551277 
L 295.902111 47.449837 
L 296.46067 49.779211 
L 297.019229 50.200326 
L 297.577787 51.987006 
L 298.136346 50.407141 
L 298.694904 50.090984 
L 299.253463 50.089691 
L 299.812021 51.964861 
L 300.37058 49.255006 
L 300.929139 49.670716 
L 301.487697 52.155614 
L 302.046256 49.463381 
L 302.604814 51.009893 
L 303.163373 50.183667 
L 303.721931 48.745254 
L 304.28049 48.234884 
L 305.397607 49.667988 
L 305.956166 48.650243 
L 306.514724 51.190109 
L 307.073283 50.882569 
L 307.631841 51.182834 
L 308.1904 50.674924 
L 308.748958 51.779469 
L 309.307517 49.665678 
L 309.866075 51.368888 
L 310.424634 46.865239 
L 310.983193 48.866484 
L 311.541751 50.261778 
L 312.10031 51.253707 
L 312.658868 46.788674 
L 313.217427 50.850597 
L 313.775985 52.427286 
L 314.334544 49.662809 
L 314.893102 52.120076 
L 315.451661 48.975514 
L 316.01022 50.640774 
L 316.568778 46.535673 
L 317.127337 48.394026 
L 317.685895 51.509199 
L 318.244454 47.913336 
L 318.803012 48.88538 
L 319.361571 49.466707 
L 319.92013 50.431503 
L 320.478688 49.274367 
L 321.037247 50.812005 
L 322.154364 48.893146 
L 322.712922 48.607981 
L 323.271481 50.134392 
L 323.830039 49.562587 
L 324.388598 48.328841 
L 324.947157 48.047145 
L 325.505715 51.736045 
L 326.064274 48.61901 
L 326.622832 47.585408 
L 327.181391 51.252905 
L 327.739949 49.561917 
L 328.857066 51.896059 
L 329.415625 49.654822 
L 329.415625 49.654822 
" clip-path="url(#pea81b67ac9)" style="fill: none; stroke: #1f77b4; stroke-width: 1.5; stroke-linecap: square"/>
   </g>
   <g id="line2d_12">
    <path d="M 50.415625 49.515042 
L 329.415625 49.515042 
" clip-path="url(#pea81b67ac9)" style="fill: none; stroke: #ff7f0e; stroke-width: 1.5; stroke-linecap: square"/>
   </g>
   <g id="patch_3">
    <path d="M 36.465625 100.293093 
L 36.465625 7.2 
" style="fill: none; stroke: #000000; stroke-width: 0.8; stroke-linejoin: miter; stroke-linecap: square"/>
   </g>
   <g id="patch_4">
    <path d="M 343.365625 100.293093 
L 343.365625 7.2 
" style="fill: none; stroke: #000000; stroke-width: 0.8; stroke-linejoin: miter; stroke-linecap: square"/>
   </g>
   <g id="patch_5">
    <path d="M 36.465625 100.293093 
L 343.365625 100.293093 
" style="fill: none; stroke: #000000; stroke-width: 0.8; stroke-linejoin: miter; stroke-linecap: square"/>
   </g>
   <g id="patch_6">
    <path d="M 36.465625 7.2 
L 343.365625 7.2 
" style="fill: none; stroke: #000000; stroke-width: 0.8; stroke-linejoin: miter; stroke-linecap: square"/>
   </g>
  </g>
 </g>
 <defs>
  <clipPath id="pea81b67ac9">
   <rect x="36.465625" y="7.2" width="306.9" height="93.093093"/>
  </clipPath>
 </defs>
</svg>
