<?xml version="1.0" encoding="utf-8" standalone="no"?>
<!DOCTYPE svg PUBLIC "-//W3C//DTD SVG 1.1//EN"
  "http://www.w3.org/Graphics/SVG/1.1/DTD/svg11.dtd">
<svg xmlns:xlink="http://www.w3.org/1999/xlink" width="350.565625pt" height="133.378125pt" viewBox="0 0 350.565625 133.378125" xmlns="http://www.w3.org/2000/svg" version="1.1">
 <metadata>
  <rdf:RDF xmlns:dc="http://purl.org/dc/elements/1.1/" xmlns:cc="http://creativecommons.org/ns#" xmlns:rdf="http://www.w3.org/1999/02/22-rdf-syntax-ns#">
   <cc:Work>
    <dc:type rdf:resource="http://purl.org/dc/dcmitype/StillImage"/>
    <dc:date>2025-01-14T12:31:45.585230</dc:date>
    <dc:format>image/svg+xml</dc:format>
    <dc:creator>
     <cc:Agent>
      <dc:title>Matplotlib v3.9.2, https://matplotlib.org/</dc:title>
     </cc:Agent>
    </dc:creator>
   </cc:Work>
  </rdf:RDF>
 </metadata>
 <defs>
  <style type="text/css">*{stroke-linejoin: round; stroke-linecap: butt}</style>
 </defs>
 <g id="figure_1">
  <g id="patch_1">
   <path d="M 0 133.378125 
L 350.565625 133.378125 
L 350.565625 0 
L 0 0 
z
" style="fill: #ffffff"/>
  </g>
  <g id="axes_1">
   <g id="patch_2">
    <path d="M 36.465625 109.5 
L 343.365625 109.5 
L 343.365625 7.2 
L 36.465625 7.2 
z
" style="fill: #ffffff"/>
   </g>
   <g id="matplotlib.axis_1">
    <g id="xtick_1">
     <g id="line2d_1">
      <defs>
       <path id="m04e0964bf9" d="M 0 0 
L 0 3.5 
" style="stroke: #000000; stroke-width: 0.8"/>
      </defs>
      <g>
       <use xlink:href="#m04e0964bf9" x="50.415625" y="109.5" style="stroke: #000000; stroke-width: 0.8"/>
      </g>
     </g>
     <g id="text_1">
      <!-- −3 -->
      <g transform="translate(43.044531 124.098438) scale(0.1 -0.1)">
       <defs>
        <path id="DejaVuSans-2212" d="M 678 2272 
L 4684 2272 
L 4684 1741 
L 678 1741 
L 678 2272 
z
" transform="scale(0.015625)"/>
        <path id="DejaVuSans-33" d="M 2597 2516 
Q 3050 2419 3304 2112 
Q 3559 1806 3559 1356 
Q 3559 666 3084 287 
Q 2609 -91 1734 -91 
Q 1441 -91 1130 -33 
Q 819 25 488 141 
L 488 750 
Q 750 597 1062 519 
Q 1375 441 1716 441 
Q 2309 441 2620 675 
Q 2931 909 2931 1356 
Q 2931 1769 2642 2001 
Q 2353 2234 1838 2234 
L 1294 2234 
L 1294 2753 
L 1863 2753 
Q 2328 2753 2575 2939 
Q 2822 3125 2822 3475 
Q 2822 3834 2567 4026 
Q 2313 4219 1838 4219 
Q 1578 4219 1281 4162 
Q 984 4106 628 3988 
L 628 4550 
Q 988 4650 1302 4700 
Q 1616 4750 1894 4750 
Q 2613 4750 3031 4423 
Q 3450 4097 3450 3541 
Q 3450 3153 3228 2886 
Q 3006 2619 2597 2516 
z
" transform="scale(0.015625)"/>
       </defs>
       <use xlink:href="#DejaVuSans-2212"/>
       <use xlink:href="#DejaVuSans-33" x="83.789062"/>
      </g>
     </g>
    </g>
    <g id="xtick_2">
     <g id="line2d_2">
      <g>
       <use xlink:href="#m04e0964bf9" x="96.915625" y="109.5" style="stroke: #000000; stroke-width: 0.8"/>
      </g>
     </g>
     <g id="text_2">
      <!-- −2 -->
      <g transform="translate(89.544531 124.098438) scale(0.1 -0.1)">
       <defs>
        <path id="DejaVuSans-32" d="M 1228 531 
L 3431 531 
L 3431 0 
L 469 0 
L 469 531 
Q 828 903 1448 1529 
Q 2069 2156 2228 2338 
Q 2531 2678 2651 2914 
Q 2772 3150 2772 3378 
Q 2772 3750 2511 3984 
Q 2250 4219 1831 4219 
Q 1534 4219 1204 4116 
Q 875 4013 500 3803 
L 500 4441 
Q 881 4594 1212 4672 
Q 1544 4750 1819 4750 
Q 2544 4750 2975 4387 
Q 3406 4025 3406 3419 
Q 3406 3131 3298 2873 
Q 3191 2616 2906 2266 
Q 2828 2175 2409 1742 
Q 1991 1309 1228 531 
z
" transform="scale(0.015625)"/>
       </defs>
       <use xlink:href="#DejaVuSans-2212"/>
       <use xlink:href="#DejaVuSans-32" x="83.789062"/>
      </g>
     </g>
    </g>
    <g id="xtick_3">
     <g id="line2d_3">
      <g>
       <use xlink:href="#m04e0964bf9" x="143.415625" y="109.5" style="stroke: #000000; stroke-width: 0.8"/>
      </g>
     </g>
     <g id="text_3">
      <!-- −1 -->
      <g transform="translate(136.044531 124.098438) scale(0.1 -0.1)">
       <defs>
        <path id="DejaVuSans-31" d="M 794 531 
L 1825 531 
L 1825 4091 
L 703 3866 
L 703 4441 
L 1819 4666 
L 2450 4666 
L 2450 531 
L 3481 531 
L 3481 0 
L 794 0 
L 794 531 
z
" transform="scale(0.015625)"/>
       </defs>
       <use xlink:href="#DejaVuSans-2212"/>
       <use xlink:href="#DejaVuSans-31" x="83.789062"/>
      </g>
     </g>
    </g>
    <g id="xtick_4">
     <g id="line2d_4">
      <g>
       <use xlink:href="#m04e0964bf9" x="189.915625" y="109.5" style="stroke: #000000; stroke-width: 0.8"/>
      </g>
     </g>
     <g id="text_4">
      <!-- 0 -->
      <g transform="translate(186.734375 124.098438) scale(0.1 -0.1)">
       <defs>
        <path id="DejaVuSans-30" d="M 2034 4250 
Q 1547 4250 1301 3770 
Q 1056 3291 1056 2328 
Q 1056 1369 1301 889 
Q 1547 409 2034 409 
Q 2525 409 2770 889 
Q 3016 1369 3016 2328 
Q 3016 3291 2770 3770 
Q 2525 4250 2034 4250 
z
M 2034 4750 
Q 2819 4750 3233 4129 
Q 3647 3509 3647 2328 
Q 3647 1150 3233 529 
Q 2819 -91 2034 -91 
Q 1250 -91 836 529 
Q 422 1150 422 2328 
Q 422 3509 836 4129 
Q 1250 4750 2034 4750 
z
" transform="scale(0.015625)"/>
       </defs>
       <use xlink:href="#DejaVuSans-30"/>
      </g>
     </g>
    </g>
    <g id="xtick_5">
     <g id="line2d_5">
      <g>
       <use xlink:href="#m04e0964bf9" x="236.415625" y="109.5" style="stroke: #000000; stroke-width: 0.8"/>
      </g>
     </g>
     <g id="text_5">
      <!-- 1 -->
      <g transform="translate(233.234375 124.098438) scale(0.1 -0.1)">
       <use xlink:href="#DejaVuSans-31"/>
      </g>
     </g>
    </g>
    <g id="xtick_6">
     <g id="line2d_6">
      <g>
       <use xlink:href="#m04e0964bf9" x="282.915625" y="109.5" style="stroke: #000000; stroke-width: 0.8"/>
      </g>
     </g>
     <g id="text_6">
      <!-- 2 -->
      <g transform="translate(279.734375 124.098438) scale(0.1 -0.1)">
       <use xlink:href="#DejaVuSans-32"/>
      </g>
     </g>
    </g>
    <g id="xtick_7">
     <g id="line2d_7">
      <g>
       <use xlink:href="#m04e0964bf9" x="329.415625" y="109.5" style="stroke: #000000; stroke-width: 0.8"/>
      </g>
     </g>
     <g id="text_7">
      <!-- 3 -->
      <g transform="translate(326.234375 124.098438) scale(0.1 -0.1)">
       <use xlink:href="#DejaVuSans-33"/>
      </g>
     </g>
    </g>
   </g>
   <g id="matplotlib.axis_2">
    <g id="ytick_1">
     <g id="line2d_8">
      <defs>
       <path id="m0ed1ac48f9" d="M 0 0 
L -3.5 0 
" style="stroke: #000000; stroke-width: 0.8"/>
      </defs>
      <g>
       <use xlink:href="#m0ed1ac48f9" x="36.465625" y="104.85" style="stroke: #000000; stroke-width: 0.8"/>
      </g>
     </g>
     <g id="text_8">
      <!-- 0.00 -->
      <g transform="translate(7.2 108.649219) scale(0.1 -0.1)">
       <defs>
        <path id="DejaVuSans-2e" d="M 684 794 
L 1344 794 
L 1344 0 
L 684 0 
L 684 794 
z
" transform="scale(0.015625)"/>
       </defs>
       <use xlink:href="#DejaVuSans-30"/>
       <use xlink:href="#DejaVuSans-2e" x="63.623047"/>
       <use xlink:href="#DejaVuSans-30" x="95.410156"/>
       <use xlink:href="#DejaVuSans-30" x="159.033203"/>
      </g>
     </g>
    </g>
    <g id="ytick_2">
     <g id="line2d_9">
      <g>
       <use xlink:href="#m0ed1ac48f9" x="36.465625" y="81.6" style="stroke: #000000; stroke-width: 0.8"/>
      </g>
     </g>
     <g id="text_9">
      <!-- 0.25 -->
      <g transform="translate(7.2 85.399219) scale(0.1 -0.1)">
       <defs>
        <path id="DejaVuSans-35" d="M 691 4666 
L 3169 4666 
L 3169 4134 
L 1269 4134 
L 1269 2991 
Q 1406 3038 1543 3061 
Q 1681 3084 1819 3084 
Q 2600 3084 3056 2656 
Q 3513 2228 3513 1497 
Q 3513 744 3044 326 
Q 2575 -91 1722 -91 
Q 1428 -91 1123 -41 
Q 819 9 494 109 
L 494 744 
Q 775 591 1075 516 
Q 1375 441 1709 441 
Q 2250 441 2565 725 
Q 2881 1009 2881 1497 
Q 2881 1984 2565 2268 
Q 2250 2553 1709 2553 
Q 1456 2553 1204 2497 
Q 953 2441 691 2322 
L 691 4666 
z
" transform="scale(0.015625)"/>
       </defs>
       <use xlink:href="#DejaVuSans-30"/>
       <use xlink:href="#DejaVuSans-2e" x="63.623047"/>
       <use xlink:href="#DejaVuSans-32" x="95.410156"/>
       <use xlink:href="#DejaVuSans-35" x="159.033203"/>
      </g>
     </g>
    </g>
    <g id="ytick_3">
     <g id="line2d_10">
      <g>
       <use xlink:href="#m0ed1ac48f9" x="36.465625" y="58.35" style="stroke: #000000; stroke-width: 0.8"/>
      </g>
     </g>
     <g id="text_10">
      <!-- 0.50 -->
      <g transform="translate(7.2 62.149219) scale(0.1 -0.1)">
       <use xlink:href="#DejaVuSans-30"/>
       <use xlink:href="#DejaVuSans-2e" x="63.623047"/>
       <use xlink:href="#DejaVuSans-35" x="95.410156"/>
       <use xlink:href="#DejaVuSans-30" x="159.033203"/>
      </g>
     </g>
    </g>
    <g id="ytick_4">
     <g id="line2d_11">
      <g>
       <use xlink:href="#m0ed1ac48f9" x="36.465625" y="35.1" style="stroke: #000000; stroke-width: 0.8"/>
      </g>
     </g>
     <g id="text_11">
      <!-- 0.75 -->
      <g transform="translate(7.2 38.899219) scale(0.1 -0.1)">
       <defs>
        <path id="DejaVuSans-37" d="M 525 4666 
L 3525 4666 
L 3525 4397 
L 1831 0 
L 1172 0 
L 2766 4134 
L 525 4134 
L 525 4666 
z
" transform="scale(0.015625)"/>
       </defs>
       <use xlink:href="#DejaVuSans-30"/>
       <use xlink:href="#DejaVuSans-2e" x="63.623047"/>
       <use xlink:href="#DejaVuSans-37" x="95.410156"/>
       <use xlink:href="#DejaVuSans-35" x="159.033203"/>
      </g>
     </g>
    </g>
    <g id="ytick_5">
     <g id="line2d_12">
      <g>
       <use xlink:href="#m0ed1ac48f9" x="36.465625" y="11.85" style="stroke: #000000; stroke-width: 0.8"/>
      </g>
     </g>
     <g id="text_12">
      <!-- 1.00 -->
      <g transform="translate(7.2 15.649219) scale(0.1 -0.1)">
       <use xlink:href="#DejaVuSans-31"/>
       <use xlink:href="#DejaVuSans-2e" x="63.623047"/>
       <use xlink:href="#DejaVuSans-30" x="95.410156"/>
       <use xlink:href="#DejaVuSans-30" x="159.033203"/>
      </g>
     </g>
    </g>
   </g>
   <g id="line2d_13">
    <path d="M 50.415625 104.724459 
L 67.051989 104.467015 
L 78.506534 104.079036 
L 87.506534 103.564699 
L 95.142898 102.918501 
L 101.96108 102.127043 
L 108.233807 101.177136 
L 113.96108 100.089406 
L 119.415625 98.828867 
L 124.597443 97.404752 
L 129.506534 95.833526 
L 134.415625 94.031558 
L 139.324716 91.987846 
L 144.233807 89.695626 
L 149.142898 87.153149 
L 154.051989 84.364321 
L 159.233807 81.164446 
L 164.688352 77.533158 
L 170.688352 73.264975 
L 177.506534 68.134749 
L 186.779261 60.85056 
L 203.96108 47.31145 
L 211.051989 42.048787 
L 217.051989 37.866957 
L 222.506534 34.327079 
L 227.688352 31.222361 
L 232.597443 28.52849 
L 237.506534 26.083195 
L 242.415625 23.888117 
L 247.324716 21.939471 
L 252.233807 20.228749 
L 257.415625 18.667331 
L 262.597443 17.3389 
L 268.051989 16.169332 
L 273.779261 15.165763 
L 280.051989 14.294618 
L 286.87017 13.573537 
L 294.506534 12.989042 
L 303.506534 12.527654 
L 314.688352 12.188999 
L 329.415625 11.975541 
L 329.415625 11.975541 
" clip-path="url(#p6a7ca42ba3)" style="fill: none; stroke: #1f77b4; stroke-width: 1.5; stroke-linecap: square"/>
   </g>
   <g id="line2d_14">
    <path d="M 50.415625 104.85 
L 145.051989 104.743941 
L 150.506534 104.507712 
L 154.324716 104.129079 
L 157.324716 103.610043 
L 159.779261 102.970569 
L 161.96108 102.185919 
L 164.142898 101.146106 
L 166.051989 99.985298 
L 167.96108 98.55266 
L 169.87017 96.814049 
L 171.779261 94.739336 
L 173.688352 92.304869 
L 175.597443 89.495948 
L 177.506534 86.309073 
L 179.688352 82.216951 
L 182.142898 77.08538 
L 184.87017 70.834906 
L 188.688352 61.44298 
L 195.506534 44.576034 
L 198.233807 38.429736 
L 200.688352 33.416536 
L 202.87017 29.44212 
L 205.051989 25.953872 
L 206.96108 23.306561 
L 208.87017 21.028651 
L 210.779261 19.101313 
L 212.688352 17.497812 
L 214.597443 16.186003 
L 216.506534 15.130738 
L 218.688352 14.192703 
L 220.87017 13.490666 
L 223.324716 12.923473 
L 226.324716 12.467754 
L 230.142898 12.139457 
L 235.324716 11.943673 
L 244.597443 11.859312 
L 294.233807 11.85 
L 329.415625 11.85 
L 329.415625 11.85 
" clip-path="url(#p6a7ca42ba3)" style="fill: none; stroke: #ff7f0e; stroke-width: 1.5; stroke-linecap: square"/>
   </g>
   <g id="line2d_15">
    <path d="M 50.415625 104.849965 
L 113.142898 104.740723 
L 125.415625 104.495985 
L 133.87017 104.111512 
L 140.415625 103.597848 
L 145.87017 102.957891 
L 150.779261 102.163262 
L 155.142898 101.2406 
L 159.233807 100.155569 
L 163.051989 98.92219 
L 166.87017 97.450304 
L 170.415625 95.85017 
L 173.96108 94.009468 
L 177.506534 91.916485 
L 181.051989 89.564127 
L 184.597443 86.950785 
L 188.415625 83.849938 
L 192.233807 80.466183 
L 196.324716 76.553776 
L 200.96108 71.811562 
L 206.688352 65.611821 
L 217.597443 53.364329 
L 224.415625 45.899122 
L 229.597443 40.552371 
L 233.96108 36.35963 
L 238.051989 32.734334 
L 241.87017 29.643911 
L 245.688352 26.851105 
L 249.233807 24.528869 
L 252.779261 22.465453 
L 256.324716 20.653185 
L 259.87017 19.079878 
L 263.688352 17.634679 
L 267.506534 16.425408 
L 271.597443 15.363171 
L 275.96108 14.46133 
L 280.87017 13.685985 
L 286.324716 13.062772 
L 292.597443 12.580131 
L 300.233807 12.226484 
L 310.324716 11.99543 
L 326.415625 11.876624 
L 329.415625 11.868923 
L 329.415625 11.868923 
" clip-path="url(#p6a7ca42ba3)" style="fill: none; stroke: #2ca02c; stroke-width: 1.5; stroke-linecap: square"/>
   </g>
   <g id="patch_3">
    <path d="M 36.465625 109.5 
L 36.465625 7.2 
" style="fill: none; stroke: #000000; stroke-width: 0.8; stroke-linejoin: miter; stroke-linecap: square"/>
   </g>
   <g id="patch_4">
    <path d="M 343.365625 109.5 
L 343.365625 7.2 
" style="fill: none; stroke: #000000; stroke-width: 0.8; stroke-linejoin: miter; stroke-linecap: square"/>
   </g>
   <g id="patch_5">
    <path d="M 36.465625 109.5 
L 343.365625 109.5 
" style="fill: none; stroke: #000000; stroke-width: 0.8; stroke-linejoin: miter; stroke-linecap: square"/>
   </g>
   <g id="patch_6">
    <path d="M 36.465625 7.2 
L 343.365625 7.2 
" style="fill: none; stroke: #000000; stroke-width: 0.8; stroke-linejoin: miter; stroke-linecap: square"/>
   </g>
   <g id="legend_1">
    <g id="patch_7">
     <path d="M 43.465625 66.1 
L 146.565625 66.1 
Q 148.565625 66.1 148.565625 64.1 
L 148.565625 14.2 
Q 148.565625 12.2 146.565625 12.2 
L 43.465625 12.2 
Q 41.465625 12.2 41.465625 14.2 
L 41.465625 64.1 
Q 41.465625 66.1 43.465625 66.1 
z
" style="fill: #ffffff; opacity: 0.8; stroke: #cccccc; stroke-linejoin: miter"/>
    </g>
    <g id="line2d_16">
     <path d="M 45.465625 21.8 
L 55.465625 21.8 
L 65.465625 21.8 
" style="fill: none; stroke: #1f77b4; stroke-width: 1.5; stroke-linecap: square"/>
    </g>
    <g id="text_13">
     <!-- $\mu=0$, $\sigma^2=1$ -->
     <g transform="translate(73.465625 25.3) scale(0.1 -0.1)">
      <defs>
       <path id="DejaVuSans-Oblique-3bc" d="M -84 -1331 
L 856 3500 
L 1434 3500 
L 1009 1322 
Q 997 1256 987 1175 
Q 978 1094 978 1013 
Q 978 722 1161 565 
Q 1344 409 1684 409 
Q 2147 409 2431 671 
Q 2716 934 2816 1459 
L 3213 3500 
L 3788 3500 
L 3266 809 
Q 3253 750 3248 706 
Q 3244 663 3244 628 
Q 3244 531 3283 486 
Q 3322 441 3406 441 
Q 3438 441 3492 456 
Q 3547 472 3647 513 
L 3559 50 
Q 3422 -19 3297 -55 
Q 3172 -91 3053 -91 
Q 2847 -91 2730 40 
Q 2613 172 2613 403 
Q 2438 153 2195 31 
Q 1953 -91 1625 -91 
Q 1334 -91 1117 43 
Q 900 178 831 397 
L 494 -1331 
L -84 -1331 
z
" transform="scale(0.015625)"/>
       <path id="DejaVuSans-3d" d="M 678 2906 
L 4684 2906 
L 4684 2381 
L 678 2381 
L 678 2906 
z
M 678 1631 
L 4684 1631 
L 4684 1100 
L 678 1100 
L 678 1631 
z
" transform="scale(0.015625)"/>
       <path id="DejaVuSans-2c" d="M 750 794 
L 1409 794 
L 1409 256 
L 897 -744 
L 494 -744 
L 750 256 
L 750 794 
z
" transform="scale(0.015625)"/>
       <path id="DejaVuSans-20" transform="scale(0.015625)"/>
       <path id="DejaVuSans-Oblique-3c3" d="M 2219 3044 
Q 1744 3044 1422 2700 
Q 1081 2341 969 1747 
Q 844 1119 1044 756 
Q 1241 397 1706 397 
Q 2166 397 2503 759 
Q 2844 1122 2966 1747 
Q 3075 2319 2881 2700 
Q 2700 3044 2219 3044 
z
M 2309 3503 
L 4219 3500 
L 4106 2925 
L 3463 2925 
Q 3706 2438 3575 1747 
Q 3406 888 2884 400 
Q 2359 -91 1609 -91 
Q 856 -91 525 400 
Q 194 888 363 1747 
Q 528 2609 1050 3097 
Q 1484 3503 2309 3503 
z
" transform="scale(0.015625)"/>
      </defs>
      <use xlink:href="#DejaVuSans-Oblique-3bc" transform="translate(0 0.765625)"/>
      <use xlink:href="#DejaVuSans-3d" transform="translate(83.105469 0.765625)"/>
      <use xlink:href="#DejaVuSans-30" transform="translate(186.376953 0.765625)"/>
      <use xlink:href="#DejaVuSans-2c" transform="translate(250 0.765625)"/>
      <use xlink:href="#DejaVuSans-20" transform="translate(281.787109 0.765625)"/>
      <use xlink:href="#DejaVuSans-Oblique-3c3" transform="translate(313.574219 0.765625)"/>
      <use xlink:href="#DejaVuSans-32" transform="translate(381.425833 39.046875) scale(0.7)"/>
      <use xlink:href="#DejaVuSans-3d" transform="translate(448.178763 0.765625)"/>
      <use xlink:href="#DejaVuSans-31" transform="translate(551.450247 0.765625)"/>
     </g>
    </g>
    <g id="line2d_17">
     <path d="M 45.465625 38 
L 55.465625 38 
L 65.465625 38 
" style="fill: none; stroke: #ff7f0e; stroke-width: 1.5; stroke-linecap: square"/>
    </g>
    <g id="text_14">
     <!-- $\mu=0$, $\sigma^2=0.1$ -->
     <g transform="translate(73.465625 41.5) scale(0.1 -0.1)">
      <use xlink:href="#DejaVuSans-Oblique-3bc" transform="translate(0 0.765625)"/>
      <use xlink:href="#DejaVuSans-3d" transform="translate(83.105469 0.765625)"/>
      <use xlink:href="#DejaVuSans-30" transform="translate(186.376953 0.765625)"/>
      <use xlink:href="#DejaVuSans-2c" transform="translate(250 0.765625)"/>
      <use xlink:href="#DejaVuSans-20" transform="translate(281.787109 0.765625)"/>
      <use xlink:href="#DejaVuSans-Oblique-3c3" transform="translate(313.574219 0.765625)"/>
      <use xlink:href="#DejaVuSans-32" transform="translate(381.425833 39.046875) scale(0.7)"/>
      <use xlink:href="#DejaVuSans-3d" transform="translate(448.178763 0.765625)"/>
      <use xlink:href="#DejaVuSans-30" transform="translate(551.450247 0.765625)"/>
      <use xlink:href="#DejaVuSans-2e" transform="translate(615.073294 0.765625)"/>
      <use xlink:href="#DejaVuSans-31" transform="translate(646.860404 0.765625)"/>
     </g>
    </g>
    <g id="line2d_18">
     <path d="M 45.465625 54.6 
L 55.465625 54.6 
L 65.465625 54.6 
" style="fill: none; stroke: #2ca02c; stroke-width: 1.5; stroke-linecap: square"/>
    </g>
    <g id="text_15">
     <!-- $\mu=\frac{1}{2}$, $\sigma^2=0.5$ -->
     <g transform="translate(73.465625 58.1) scale(0.1 -0.1)">
      <use xlink:href="#DejaVuSans-Oblique-3bc" transform="translate(0 0.16875)"/>
      <use xlink:href="#DejaVuSans-3d" transform="translate(83.105469 0.16875)"/>
      <use xlink:href="#DejaVuSans-31" transform="translate(186.376953 43.965625) scale(0.7)"/>
      <use xlink:href="#DejaVuSans-32" transform="translate(186.376953 -39.2375) scale(0.7)"/>
      <use xlink:href="#DejaVuSans-2c" transform="translate(243.413086 0.16875)"/>
      <use xlink:href="#DejaVuSans-20" transform="translate(275.200195 0.16875)"/>
      <use xlink:href="#DejaVuSans-Oblique-3c3" transform="translate(306.987305 0.16875)"/>
      <use xlink:href="#DejaVuSans-32" transform="translate(374.838919 38.45) scale(0.7)"/>
      <use xlink:href="#DejaVuSans-3d" transform="translate(441.591849 0.16875)"/>
      <use xlink:href="#DejaVuSans-30" transform="translate(544.863333 0.16875)"/>
      <use xlink:href="#DejaVuSans-2e" transform="translate(608.48638 0.16875)"/>
      <use xlink:href="#DejaVuSans-35" transform="translate(640.27349 0.16875)"/>
      <path d="M 186.376953 18.965625 
L 186.376953 25.215625 
L 230.913086 25.215625 
L 230.913086 18.965625 
L 186.376953 18.965625 
z
"/>
     </g>
    </g>
   </g>
  </g>
 </g>
 <defs>
  <clipPath id="p6a7ca42ba3">
   <rect x="36.465625" y="7.2" width="306.9" height="102.3"/>
  </clipPath>
 </defs>
</svg>
