<?xml version="1.0" encoding="utf-8" standalone="no"?>
<!DOCTYPE svg PUBLIC "-//W3C//DTD SVG 1.1//EN"
  "http://www.w3.org/Graphics/SVG/1.1/DTD/svg11.dtd">
<svg xmlns:xlink="http://www.w3.org/1999/xlink" width="432.040625pt" height="190.591832pt" viewBox="0 0 432.040625 190.591832" xmlns="http://www.w3.org/2000/svg" version="1.1">
 <metadata>
  <rdf:RDF xmlns:dc="http://purl.org/dc/elements/1.1/" xmlns:cc="http://creativecommons.org/ns#" xmlns:rdf="http://www.w3.org/1999/02/22-rdf-syntax-ns#">
   <cc:Work>
    <dc:type rdf:resource="http://purl.org/dc/dcmitype/StillImage"/>
    <dc:date>2025-10-06T09:04:34.878895</dc:date>
    <dc:format>image/svg+xml</dc:format>
    <dc:creator>
     <cc:Agent>
      <dc:title>Matplotlib v3.10.3, https://matplotlib.org/</dc:title>
     </cc:Agent>
    </dc:creator>
   </cc:Work>
  </rdf:RDF>
 </metadata>
 <defs>
  <style type="text/css">*{stroke-linejoin: round; stroke-linecap: butt}</style>
 </defs>
 <g id="figure_1">
  <g id="patch_1">
   <path d="M 0 190.591832 
L 432.040625 190.591832 
L 432.040625 0 
L 0 0 
z
" style="fill: #ffffff"/>
  </g>
  <g id="axes_1">
   <g id="patch_2">
    <path d="M 34.240625 153.035582 
L 424.840625 153.035582 
L 424.840625 10.999219 
L 34.240625 10.999219 
z
" style="fill: #ffffff"/>
   </g>
   <g id="matplotlib.axis_1">
    <g id="xtick_1">
     <g id="line2d_1">
      <path d="M 34.240625 153.035582 
L 34.240625 10.999219 
" clip-path="url(#pa6606ab62f)" style="fill: none; stroke: #b0b0b0; stroke-width: 0.8; stroke-linecap: square"/>
     </g>
     <g id="line2d_2">
      <defs>
       <path id="me1b57722a9" d="M 0 0 
L 0 3.5 
" style="stroke: #000000; stroke-width: 0.8"/>
      </defs>
      <g>
       <use xlink:href="#me1b57722a9" x="34.240625" y="153.035582" style="stroke: #000000; stroke-width: 0.8"/>
      </g>
     </g>
     <g id="text_1">
      <!-- 0 -->
      <g transform="translate(31.059375 167.63402) scale(0.1 -0.1)">
       <defs>
        <path id="DejaVuSans-30" d="M 2034 4250 
Q 1547 4250 1301 3770 
Q 1056 3291 1056 2328 
Q 1056 1369 1301 889 
Q 1547 409 2034 409 
Q 2525 409 2770 889 
Q 3016 1369 3016 2328 
Q 3016 3291 2770 3770 
Q 2525 4250 2034 4250 
z
M 2034 4750 
Q 2819 4750 3233 4129 
Q 3647 3509 3647 2328 
Q 3647 1150 3233 529 
Q 2819 -91 2034 -91 
Q 1250 -91 836 529 
Q 422 1150 422 2328 
Q 422 3509 836 4129 
Q 1250 4750 2034 4750 
z
" transform="scale(0.015625)"/>
       </defs>
       <use xlink:href="#DejaVuSans-30"/>
      </g>
     </g>
    </g>
    <g id="xtick_2">
     <g id="line2d_3">
      <path d="M 105.258807 153.035582 
L 105.258807 10.999219 
" clip-path="url(#pa6606ab62f)" style="fill: none; stroke: #b0b0b0; stroke-width: 0.8; stroke-linecap: square"/>
     </g>
     <g id="line2d_4">
      <g>
       <use xlink:href="#me1b57722a9" x="105.258807" y="153.035582" style="stroke: #000000; stroke-width: 0.8"/>
      </g>
     </g>
     <g id="text_2">
      <!-- 2 -->
      <g transform="translate(102.077557 167.63402) scale(0.1 -0.1)">
       <defs>
        <path id="DejaVuSans-32" d="M 1228 531 
L 3431 531 
L 3431 0 
L 469 0 
L 469 531 
Q 828 903 1448 1529 
Q 2069 2156 2228 2338 
Q 2531 2678 2651 2914 
Q 2772 3150 2772 3378 
Q 2772 3750 2511 3984 
Q 2250 4219 1831 4219 
Q 1534 4219 1204 4116 
Q 875 4013 500 3803 
L 500 4441 
Q 881 4594 1212 4672 
Q 1544 4750 1819 4750 
Q 2544 4750 2975 4387 
Q 3406 4025 3406 3419 
Q 3406 3131 3298 2873 
Q 3191 2616 2906 2266 
Q 2828 2175 2409 1742 
Q 1991 1309 1228 531 
z
" transform="scale(0.015625)"/>
       </defs>
       <use xlink:href="#DejaVuSans-32"/>
      </g>
     </g>
    </g>
    <g id="xtick_3">
     <g id="line2d_5">
      <path d="M 176.276989 153.035582 
L 176.276989 10.999219 
" clip-path="url(#pa6606ab62f)" style="fill: none; stroke: #b0b0b0; stroke-width: 0.8; stroke-linecap: square"/>
     </g>
     <g id="line2d_6">
      <g>
       <use xlink:href="#me1b57722a9" x="176.276989" y="153.035582" style="stroke: #000000; stroke-width: 0.8"/>
      </g>
     </g>
     <g id="text_3">
      <!-- 4 -->
      <g transform="translate(173.095739 167.63402) scale(0.1 -0.1)">
       <defs>
        <path id="DejaVuSans-34" d="M 2419 4116 
L 825 1625 
L 2419 1625 
L 2419 4116 
z
M 2253 4666 
L 3047 4666 
L 3047 1625 
L 3713 1625 
L 3713 1100 
L 3047 1100 
L 3047 0 
L 2419 0 
L 2419 1100 
L 313 1100 
L 313 1709 
L 2253 4666 
z
" transform="scale(0.015625)"/>
       </defs>
       <use xlink:href="#DejaVuSans-34"/>
      </g>
     </g>
    </g>
    <g id="xtick_4">
     <g id="line2d_7">
      <path d="M 247.29517 153.035582 
L 247.29517 10.999219 
" clip-path="url(#pa6606ab62f)" style="fill: none; stroke: #b0b0b0; stroke-width: 0.8; stroke-linecap: square"/>
     </g>
     <g id="line2d_8">
      <g>
       <use xlink:href="#me1b57722a9" x="247.29517" y="153.035582" style="stroke: #000000; stroke-width: 0.8"/>
      </g>
     </g>
     <g id="text_4">
      <!-- 6 -->
      <g transform="translate(244.11392 167.63402) scale(0.1 -0.1)">
       <defs>
        <path id="DejaVuSans-36" d="M 2113 2584 
Q 1688 2584 1439 2293 
Q 1191 2003 1191 1497 
Q 1191 994 1439 701 
Q 1688 409 2113 409 
Q 2538 409 2786 701 
Q 3034 994 3034 1497 
Q 3034 2003 2786 2293 
Q 2538 2584 2113 2584 
z
M 3366 4563 
L 3366 3988 
Q 3128 4100 2886 4159 
Q 2644 4219 2406 4219 
Q 1781 4219 1451 3797 
Q 1122 3375 1075 2522 
Q 1259 2794 1537 2939 
Q 1816 3084 2150 3084 
Q 2853 3084 3261 2657 
Q 3669 2231 3669 1497 
Q 3669 778 3244 343 
Q 2819 -91 2113 -91 
Q 1303 -91 875 529 
Q 447 1150 447 2328 
Q 447 3434 972 4092 
Q 1497 4750 2381 4750 
Q 2619 4750 2861 4703 
Q 3103 4656 3366 4563 
z
" transform="scale(0.015625)"/>
       </defs>
       <use xlink:href="#DejaVuSans-36"/>
      </g>
     </g>
    </g>
    <g id="xtick_5">
     <g id="line2d_9">
      <path d="M 318.313352 153.035582 
L 318.313352 10.999219 
" clip-path="url(#pa6606ab62f)" style="fill: none; stroke: #b0b0b0; stroke-width: 0.8; stroke-linecap: square"/>
     </g>
     <g id="line2d_10">
      <g>
       <use xlink:href="#me1b57722a9" x="318.313352" y="153.035582" style="stroke: #000000; stroke-width: 0.8"/>
      </g>
     </g>
     <g id="text_5">
      <!-- 8 -->
      <g transform="translate(315.132102 167.63402) scale(0.1 -0.1)">
       <defs>
        <path id="DejaVuSans-38" d="M 2034 2216 
Q 1584 2216 1326 1975 
Q 1069 1734 1069 1313 
Q 1069 891 1326 650 
Q 1584 409 2034 409 
Q 2484 409 2743 651 
Q 3003 894 3003 1313 
Q 3003 1734 2745 1975 
Q 2488 2216 2034 2216 
z
M 1403 2484 
Q 997 2584 770 2862 
Q 544 3141 544 3541 
Q 544 4100 942 4425 
Q 1341 4750 2034 4750 
Q 2731 4750 3128 4425 
Q 3525 4100 3525 3541 
Q 3525 3141 3298 2862 
Q 3072 2584 2669 2484 
Q 3125 2378 3379 2068 
Q 3634 1759 3634 1313 
Q 3634 634 3220 271 
Q 2806 -91 2034 -91 
Q 1263 -91 848 271 
Q 434 634 434 1313 
Q 434 1759 690 2068 
Q 947 2378 1403 2484 
z
M 1172 3481 
Q 1172 3119 1398 2916 
Q 1625 2713 2034 2713 
Q 2441 2713 2670 2916 
Q 2900 3119 2900 3481 
Q 2900 3844 2670 4047 
Q 2441 4250 2034 4250 
Q 1625 4250 1398 4047 
Q 1172 3844 1172 3481 
z
" transform="scale(0.015625)"/>
       </defs>
       <use xlink:href="#DejaVuSans-38"/>
      </g>
     </g>
    </g>
    <g id="xtick_6">
     <g id="line2d_11">
      <path d="M 389.331534 153.035582 
L 389.331534 10.999219 
" clip-path="url(#pa6606ab62f)" style="fill: none; stroke: #b0b0b0; stroke-width: 0.8; stroke-linecap: square"/>
     </g>
     <g id="line2d_12">
      <g>
       <use xlink:href="#me1b57722a9" x="389.331534" y="153.035582" style="stroke: #000000; stroke-width: 0.8"/>
      </g>
     </g>
     <g id="text_6">
      <!-- 10 -->
      <g transform="translate(382.969034 167.63402) scale(0.1 -0.1)">
       <defs>
        <path id="DejaVuSans-31" d="M 794 531 
L 1825 531 
L 1825 4091 
L 703 3866 
L 703 4441 
L 1819 4666 
L 2450 4666 
L 2450 531 
L 3481 531 
L 3481 0 
L 794 0 
L 794 531 
z
" transform="scale(0.015625)"/>
       </defs>
       <use xlink:href="#DejaVuSans-31"/>
       <use xlink:href="#DejaVuSans-30" transform="translate(63.623047 0)"/>
      </g>
     </g>
    </g>
    <g id="text_7">
     <!-- x -->
     <g transform="translate(226.58125 181.312145) scale(0.1 -0.1)">
      <defs>
       <path id="DejaVuSans-78" d="M 3513 3500 
L 2247 1797 
L 3578 0 
L 2900 0 
L 1881 1375 
L 863 0 
L 184 0 
L 1544 1831 
L 300 3500 
L 978 3500 
L 1906 2253 
L 2834 3500 
L 3513 3500 
z
" transform="scale(0.015625)"/>
      </defs>
      <use xlink:href="#DejaVuSans-78"/>
     </g>
    </g>
   </g>
   <g id="matplotlib.axis_2">
    <g id="ytick_1">
     <g id="line2d_13">
      <path d="M 34.240625 153.035582 
L 424.840625 153.035582 
" clip-path="url(#pa6606ab62f)" style="fill: none; stroke: #b0b0b0; stroke-width: 0.8; stroke-linecap: square"/>
     </g>
     <g id="line2d_14">
      <defs>
       <path id="m2d2e34c713" d="M 0 0 
L -3.5 0 
" style="stroke: #000000; stroke-width: 0.8"/>
      </defs>
      <g>
       <use xlink:href="#m2d2e34c713" x="34.240625" y="153.035582" style="stroke: #000000; stroke-width: 0.8"/>
      </g>
     </g>
     <g id="text_8">
      <!-- 0 -->
      <g transform="translate(20.878125 156.834801) scale(0.1 -0.1)">
       <use xlink:href="#DejaVuSans-30"/>
      </g>
     </g>
    </g>
    <g id="ytick_2">
     <g id="line2d_15">
      <path d="M 34.240625 117.526491 
L 424.840625 117.526491 
" clip-path="url(#pa6606ab62f)" style="fill: none; stroke: #b0b0b0; stroke-width: 0.8; stroke-linecap: square"/>
     </g>
     <g id="line2d_16">
      <g>
       <use xlink:href="#m2d2e34c713" x="34.240625" y="117.526491" style="stroke: #000000; stroke-width: 0.8"/>
      </g>
     </g>
     <g id="text_9">
      <!-- 1 -->
      <g transform="translate(20.878125 121.32571) scale(0.1 -0.1)">
       <use xlink:href="#DejaVuSans-31"/>
      </g>
     </g>
    </g>
    <g id="ytick_3">
     <g id="line2d_17">
      <path d="M 34.240625 82.017401 
L 424.840625 82.017401 
" clip-path="url(#pa6606ab62f)" style="fill: none; stroke: #b0b0b0; stroke-width: 0.8; stroke-linecap: square"/>
     </g>
     <g id="line2d_18">
      <g>
       <use xlink:href="#m2d2e34c713" x="34.240625" y="82.017401" style="stroke: #000000; stroke-width: 0.8"/>
      </g>
     </g>
     <g id="text_10">
      <!-- 2 -->
      <g transform="translate(20.878125 85.816619) scale(0.1 -0.1)">
       <use xlink:href="#DejaVuSans-32"/>
      </g>
     </g>
    </g>
    <g id="ytick_4">
     <g id="line2d_19">
      <path d="M 34.240625 46.50831 
L 424.840625 46.50831 
" clip-path="url(#pa6606ab62f)" style="fill: none; stroke: #b0b0b0; stroke-width: 0.8; stroke-linecap: square"/>
     </g>
     <g id="line2d_20">
      <g>
       <use xlink:href="#m2d2e34c713" x="34.240625" y="46.50831" style="stroke: #000000; stroke-width: 0.8"/>
      </g>
     </g>
     <g id="text_11">
      <!-- 3 -->
      <g transform="translate(20.878125 50.307528) scale(0.1 -0.1)">
       <defs>
        <path id="DejaVuSans-33" d="M 2597 2516 
Q 3050 2419 3304 2112 
Q 3559 1806 3559 1356 
Q 3559 666 3084 287 
Q 2609 -91 1734 -91 
Q 1441 -91 1130 -33 
Q 819 25 488 141 
L 488 750 
Q 750 597 1062 519 
Q 1375 441 1716 441 
Q 2309 441 2620 675 
Q 2931 909 2931 1356 
Q 2931 1769 2642 2001 
Q 2353 2234 1838 2234 
L 1294 2234 
L 1294 2753 
L 1863 2753 
Q 2328 2753 2575 2939 
Q 2822 3125 2822 3475 
Q 2822 3834 2567 4026 
Q 2313 4219 1838 4219 
Q 1578 4219 1281 4162 
Q 984 4106 628 3988 
L 628 4550 
Q 988 4650 1302 4700 
Q 1616 4750 1894 4750 
Q 2613 4750 3031 4423 
Q 3450 4097 3450 3541 
Q 3450 3153 3228 2886 
Q 3006 2619 2597 2516 
z
" transform="scale(0.015625)"/>
       </defs>
       <use xlink:href="#DejaVuSans-33"/>
      </g>
     </g>
    </g>
    <g id="ytick_5">
     <g id="line2d_21">
      <path d="M 34.240625 10.999219 
L 424.840625 10.999219 
" clip-path="url(#pa6606ab62f)" style="fill: none; stroke: #b0b0b0; stroke-width: 0.8; stroke-linecap: square"/>
     </g>
     <g id="line2d_22">
      <g>
       <use xlink:href="#m2d2e34c713" x="34.240625" y="10.999219" style="stroke: #000000; stroke-width: 0.8"/>
      </g>
     </g>
     <g id="text_12">
      <!-- 4 -->
      <g transform="translate(20.878125 14.798437) scale(0.1 -0.1)">
       <use xlink:href="#DejaVuSans-34"/>
      </g>
     </g>
    </g>
    <g id="text_13">
     <!-- y -->
     <g transform="translate(14.798437 84.976776) rotate(-90) scale(0.1 -0.1)">
      <defs>
       <path id="DejaVuSans-79" d="M 2059 -325 
Q 1816 -950 1584 -1140 
Q 1353 -1331 966 -1331 
L 506 -1331 
L 506 -850 
L 844 -850 
Q 1081 -850 1212 -737 
Q 1344 -625 1503 -206 
L 1606 56 
L 191 3500 
L 800 3500 
L 1894 763 
L 2988 3500 
L 3597 3500 
L 2059 -325 
z
" transform="scale(0.015625)"/>
      </defs>
      <use xlink:href="#DejaVuSans-79"/>
     </g>
    </g>
   </g>
   <g id="line2d_23">
    <defs>
     <path id="m14ac440be3" d="M 0 3 
C 0.795609 3 1.55874 2.683901 2.12132 2.12132 
C 2.683901 1.55874 3 0.795609 3 0 
C 3 -0.795609 2.683901 -1.55874 2.12132 -2.12132 
C 1.55874 -2.683901 0.795609 -3 0 -3 
C -0.795609 -3 -1.55874 -2.683901 -2.12132 -2.12132 
C -2.683901 -1.55874 -3 -0.795609 -3 0 
C -3 0.795609 -2.683901 1.55874 -2.12132 2.12132 
C -1.55874 2.683901 -0.795609 3 0 3 
z
" style="stroke: #ff0000"/>
    </defs>
    <g clip-path="url(#pa6606ab62f)">
     <use xlink:href="#m14ac440be3" x="69.749716" y="145.933764" style="fill: #ff0000; stroke: #ff0000"/>
     <use xlink:href="#m14ac440be3" x="105.258807" y="135.281037" style="fill: #ff0000; stroke: #ff0000"/>
     <use xlink:href="#m14ac440be3" x="140.767898" y="142.382855" style="fill: #ff0000; stroke: #ff0000"/>
     <use xlink:href="#m14ac440be3" x="176.276989" y="135.281037" style="fill: #ff0000; stroke: #ff0000"/>
     <use xlink:href="#m14ac440be3" x="211.78608" y="117.526491" style="fill: #ff0000; stroke: #ff0000"/>
     <use xlink:href="#m14ac440be3" x="247.29517" y="99.771946" style="fill: #ff0000; stroke: #ff0000"/>
     <use xlink:href="#m14ac440be3" x="282.804261" y="89.119219" style="fill: #ff0000; stroke: #ff0000"/>
     <use xlink:href="#m14ac440be3" x="318.313352" y="82.017401" style="fill: #ff0000; stroke: #ff0000"/>
     <use xlink:href="#m14ac440be3" x="353.822443" y="71.364673" style="fill: #ff0000; stroke: #ff0000"/>
     <use xlink:href="#m14ac440be3" x="389.331534" y="74.915582" style="fill: #ff0000; stroke: #ff0000"/>
    </g>
   </g>
   <g id="line2d_24">
    <path d="M 34.240625 129.039005 
L 37.791534 128.555671 
L 41.342443 128.072337 
L 44.893352 127.589003 
L 48.444261 127.105669 
L 51.99517 126.622335 
L 55.54608 126.139001 
L 59.096989 125.655667 
L 62.647898 125.172334 
L 66.198807 124.689 
L 69.749716 124.205666 
L 73.300625 123.722332 
L 76.851534 123.238998 
L 80.402443 122.755664 
L 83.953352 122.27233 
L 87.504261 121.788996 
L 91.05517 121.305663 
L 94.60608 120.822329 
L 98.156989 120.338995 
L 101.707898 119.855661 
L 105.258807 119.372327 
L 108.809716 118.888993 
L 112.360625 118.405659 
L 115.911534 117.922325 
L 119.462443 117.438992 
L 123.013352 116.955658 
L 126.564261 116.472324 
L 130.11517 115.98899 
L 133.66608 115.505656 
L 137.216989 115.022322 
L 140.767898 114.538988 
L 144.318807 114.055654 
L 147.869716 113.572321 
L 151.420625 113.088987 
L 154.971534 112.605653 
L 158.522443 112.122319 
L 162.073352 111.638985 
L 165.624261 111.155651 
L 169.17517 110.672317 
L 172.72608 110.188983 
L 176.276989 109.705649 
L 179.827898 109.222316 
L 183.378807 108.738982 
L 186.929716 108.255648 
L 190.480625 107.772314 
L 194.031534 107.28898 
L 197.582443 106.805646 
L 201.133352 106.322312 
L 204.684261 105.838978 
L 208.23517 105.355645 
L 211.78608 104.872311 
L 215.336989 104.388977 
L 218.887898 103.905643 
L 222.438807 103.422309 
L 225.989716 102.938975 
L 229.540625 102.455641 
L 233.091534 101.972307 
L 236.642443 101.488974 
L 240.193352 101.00564 
L 243.744261 100.522306 
L 247.29517 100.038972 
L 250.84608 99.555638 
L 254.396989 99.072304 
L 257.947898 98.58897 
L 261.498807 98.105636 
L 265.049716 97.622303 
L 268.600625 97.138969 
L 272.151534 96.655635 
L 275.702443 96.172301 
L 279.253352 95.688967 
L 282.804261 95.205633 
L 286.35517 94.722299 
L 289.90608 94.238965 
L 293.456989 93.755632 
L 297.007898 93.272298 
L 300.558807 92.788964 
L 304.109716 92.30563 
L 307.660625 91.822296 
L 311.211534 91.338962 
L 314.762443 90.855628 
L 318.313352 90.372294 
L 321.864261 89.888961 
L 325.41517 89.405627 
L 328.96608 88.922293 
L 332.516989 88.438959 
L 336.067898 87.955625 
L 339.618807 87.472291 
L 343.169716 86.988957 
L 346.720625 86.505623 
L 350.271534 86.02229 
L 353.822443 85.538956 
L 357.373352 85.055622 
L 360.924261 84.572288 
L 364.47517 84.088954 
L 368.02608 83.60562 
L 371.576989 83.122286 
L 375.127898 82.638952 
L 378.678807 82.155619 
L 382.229716 81.672285 
L 385.780625 81.188951 
L 389.331534 80.705617 
L 392.882443 80.222283 
L 396.433352 79.738949 
L 399.984261 79.255615 
L 403.53517 78.772281 
L 407.08608 78.288947 
L 410.636989 77.805614 
L 414.187898 77.32228 
L 417.738807 76.838946 
L 421.289716 76.355612 
" clip-path="url(#pa6606ab62f)" style="fill: none; stroke: #1f77b4; stroke-width: 1.5; stroke-linecap: square"/>
   </g>
   <g id="line2d_25">
    <path d="M 34.240625 139.070935 
L 37.791534 138.454958 
L 41.342443 137.83898 
L 44.893352 137.223003 
L 48.444261 136.607025 
L 51.99517 135.991047 
L 55.54608 135.37507 
L 59.096989 134.759092 
L 62.647898 134.143115 
L 66.198807 133.527137 
L 69.749716 132.911159 
L 73.300625 132.295182 
L 76.851534 131.679204 
L 80.402443 131.063227 
L 83.953352 130.447249 
L 87.504261 129.831271 
L 91.05517 129.215294 
L 94.60608 128.599316 
L 98.156989 127.983339 
L 101.707898 127.367361 
L 105.258807 126.751384 
L 108.809716 126.135406 
L 112.360625 125.519428 
L 115.911534 124.903451 
L 119.462443 124.287473 
L 123.013352 123.671496 
L 126.564261 123.055518 
L 130.11517 122.43954 
L 133.66608 121.823563 
L 137.216989 121.207585 
L 140.767898 120.591608 
L 144.318807 119.97563 
L 147.869716 119.359652 
L 151.420625 118.743675 
L 154.971534 118.127697 
L 158.522443 117.51172 
L 162.073352 116.895742 
L 165.624261 116.279765 
L 169.17517 115.663787 
L 172.72608 115.047809 
L 176.276989 114.431832 
L 179.827898 113.815854 
L 183.378807 113.199877 
L 186.929716 112.583899 
L 190.480625 111.967921 
L 194.031534 111.351944 
L 197.582443 110.735966 
L 201.133352 110.119989 
L 204.684261 109.504011 
L 208.23517 108.888034 
L 211.78608 108.272056 
L 215.336989 107.656078 
L 218.887898 107.040101 
L 222.438807 106.424123 
L 225.989716 105.808146 
L 229.540625 105.192168 
L 233.091534 104.57619 
L 236.642443 103.960213 
L 240.193352 103.344235 
L 243.744261 102.728258 
L 247.29517 102.11228 
L 250.84608 101.496302 
L 254.396989 100.880325 
L 257.947898 100.264347 
L 261.498807 99.64837 
L 265.049716 99.032392 
L 268.600625 98.416415 
L 272.151534 97.800437 
L 275.702443 97.184459 
L 279.253352 96.568482 
L 282.804261 95.952504 
L 286.35517 95.336527 
L 289.90608 94.720549 
L 293.456989 94.104571 
L 297.007898 93.488594 
L 300.558807 92.872616 
L 304.109716 92.256639 
L 307.660625 91.640661 
L 311.211534 91.024683 
L 314.762443 90.408706 
L 318.313352 89.792728 
L 321.864261 89.176751 
L 325.41517 88.560773 
L 328.96608 87.944796 
L 332.516989 87.328818 
L 336.067898 86.71284 
L 339.618807 86.096863 
L 343.169716 85.480885 
L 346.720625 84.864908 
L 350.271534 84.24893 
L 353.822443 83.632952 
L 357.373352 83.016975 
L 360.924261 82.400997 
L 364.47517 81.78502 
L 368.02608 81.169042 
L 371.576989 80.553064 
L 375.127898 79.937087 
L 378.678807 79.321109 
L 382.229716 78.705132 
L 385.780625 78.089154 
L 389.331534 77.473177 
L 392.882443 76.857199 
L 396.433352 76.241221 
L 399.984261 75.625244 
L 403.53517 75.009266 
L 407.08608 74.393289 
L 410.636989 73.777311 
L 414.187898 73.161333 
L 417.738807 72.545356 
L 421.289716 71.929378 
" clip-path="url(#pa6606ab62f)" style="fill: none; stroke: #ff7f0e; stroke-width: 1.5; stroke-linecap: square"/>
   </g>
   <g id="line2d_26">
    <path d="M 34.240625 154.647476 
L 37.791534 153.800386 
L 41.342443 152.953296 
L 44.893352 152.106206 
L 48.444261 151.259116 
L 51.99517 150.412026 
L 55.54608 149.564936 
L 59.096989 148.717845 
L 62.647898 147.870755 
L 66.198807 147.023665 
L 69.749716 146.176575 
L 73.300625 145.329485 
L 76.851534 144.482395 
L 80.402443 143.635305 
L 83.953352 142.788215 
L 87.504261 141.941125 
L 91.05517 141.094035 
L 94.60608 140.246945 
L 98.156989 139.399854 
L 101.707898 138.552764 
L 105.258807 137.705674 
L 108.809716 136.858584 
L 112.360625 136.011494 
L 115.911534 135.164404 
L 119.462443 134.317314 
L 123.013352 133.470224 
L 126.564261 132.623134 
L 130.11517 131.776044 
L 133.66608 130.928953 
L 137.216989 130.081863 
L 140.767898 129.234773 
L 144.318807 128.387683 
L 147.869716 127.540593 
L 151.420625 126.693503 
L 154.971534 125.846413 
L 158.522443 124.999323 
L 162.073352 124.152233 
L 165.624261 123.305143 
L 169.17517 122.458053 
L 172.72608 121.610962 
L 176.276989 120.763872 
L 179.827898 119.916782 
L 183.378807 119.069692 
L 186.929716 118.222602 
L 190.480625 117.375512 
L 194.031534 116.528422 
L 197.582443 115.681332 
L 201.133352 114.834242 
L 204.684261 113.987152 
L 208.23517 113.140062 
L 211.78608 112.292971 
L 215.336989 111.445881 
L 218.887898 110.598791 
L 222.438807 109.751701 
L 225.989716 108.904611 
L 229.540625 108.057521 
L 233.091534 107.210431 
L 236.642443 106.363341 
L 240.193352 105.516251 
L 243.744261 104.669161 
L 247.29517 103.822071 
L 250.84608 102.97498 
L 254.396989 102.12789 
L 257.947898 101.2808 
L 261.498807 100.43371 
L 265.049716 99.58662 
L 268.600625 98.73953 
L 272.151534 97.89244 
L 275.702443 97.04535 
L 279.253352 96.19826 
L 282.804261 95.35117 
L 286.35517 94.50408 
L 289.90608 93.656989 
L 293.456989 92.809899 
L 297.007898 91.962809 
L 300.558807 91.115719 
L 304.109716 90.268629 
L 307.660625 89.421539 
L 311.211534 88.574449 
L 314.762443 87.727359 
L 318.313352 86.880269 
L 321.864261 86.033179 
L 325.41517 85.186089 
L 328.96608 84.338998 
L 332.516989 83.491908 
L 336.067898 82.644818 
L 339.618807 81.797728 
L 343.169716 80.950638 
L 346.720625 80.103548 
L 350.271534 79.256458 
L 353.822443 78.409368 
L 357.373352 77.562278 
L 360.924261 76.715188 
L 364.47517 75.868098 
L 368.02608 75.021007 
L 371.576989 74.173917 
L 375.127898 73.326827 
L 378.678807 72.479737 
L 382.229716 71.632647 
L 385.780625 70.785557 
L 389.331534 69.938467 
L 392.882443 69.091377 
L 396.433352 68.244287 
L 399.984261 67.397197 
L 403.53517 66.550107 
L 407.08608 65.703016 
L 410.636989 64.855926 
L 414.187898 64.008836 
L 417.738807 63.161746 
L 421.289716 62.314656 
" clip-path="url(#pa6606ab62f)" style="fill: none; stroke: #2ca02c; stroke-width: 1.5; stroke-linecap: square"/>
   </g>
   <g id="line2d_27">
    <path d="M 34.240625 160.847582 
L 37.791534 159.911434 
L 41.342443 158.975285 
L 44.893352 158.039136 
L 48.444261 157.102987 
L 51.99517 156.166839 
L 55.54608 155.23069 
L 59.096989 154.294541 
L 62.647898 153.358392 
L 66.198807 152.422244 
L 69.749716 151.486095 
L 73.300625 150.549946 
L 76.851534 149.613797 
L 80.402443 148.677649 
L 83.953352 147.7415 
L 87.504261 146.805351 
L 91.05517 145.869202 
L 94.60608 144.933053 
L 98.156989 143.996905 
L 101.707898 143.060756 
L 105.258807 142.124607 
L 108.809716 141.188458 
L 112.360625 140.25231 
L 115.911534 139.316161 
L 119.462443 138.380012 
L 123.013352 137.443863 
L 126.564261 136.507715 
L 130.11517 135.571566 
L 133.66608 134.635417 
L 137.216989 133.699268 
L 140.767898 132.76312 
L 144.318807 131.826971 
L 147.869716 130.890822 
L 151.420625 129.954673 
L 154.971534 129.018525 
L 158.522443 128.082376 
L 162.073352 127.146227 
L 165.624261 126.210078 
L 169.17517 125.273929 
L 172.72608 124.337781 
L 176.276989 123.401632 
L 179.827898 122.465483 
L 183.378807 121.529334 
L 186.929716 120.593186 
L 190.480625 119.657037 
L 194.031534 118.720888 
L 197.582443 117.784739 
L 201.133352 116.848591 
L 204.684261 115.912442 
L 208.23517 114.976293 
L 211.78608 114.040144 
L 215.336989 113.103996 
L 218.887898 112.167847 
L 222.438807 111.231698 
L 225.989716 110.295549 
L 229.540625 109.359401 
L 233.091534 108.423252 
L 236.642443 107.487103 
L 240.193352 106.550954 
L 243.744261 105.614806 
L 247.29517 104.678657 
L 250.84608 103.742508 
L 254.396989 102.806359 
L 257.947898 101.87021 
L 261.498807 100.934062 
L 265.049716 99.997913 
L 268.600625 99.061764 
L 272.151534 98.125615 
L 275.702443 97.189467 
L 279.253352 96.253318 
L 282.804261 95.317169 
L 286.35517 94.38102 
L 289.90608 93.444872 
L 293.456989 92.508723 
L 297.007898 91.572574 
L 300.558807 90.636425 
L 304.109716 89.700277 
L 307.660625 88.764128 
L 311.211534 87.827979 
L 314.762443 86.89183 
L 318.313352 85.955682 
L 321.864261 85.019533 
L 325.41517 84.083384 
L 328.96608 83.147235 
L 332.516989 82.211087 
L 336.067898 81.274938 
L 339.618807 80.338789 
L 343.169716 79.40264 
L 346.720625 78.466491 
L 350.271534 77.530343 
L 353.822443 76.594194 
L 357.373352 75.658045 
L 360.924261 74.721896 
L 364.47517 73.785748 
L 368.02608 72.849599 
L 371.576989 71.91345 
L 375.127898 70.977301 
L 378.678807 70.041153 
L 382.229716 69.105004 
L 385.780625 68.168855 
L 389.331534 67.232706 
L 392.882443 66.296558 
L 396.433352 65.360409 
L 399.984261 64.42426 
L 403.53517 63.488111 
L 407.08608 62.551963 
L 410.636989 61.615814 
L 414.187898 60.679665 
L 417.738807 59.743516 
L 421.289716 58.807368 
" clip-path="url(#pa6606ab62f)" style="fill: none; stroke: #d62728; stroke-width: 1.5; stroke-linecap: square"/>
   </g>
   <g id="patch_3">
    <path d="M 34.240625 153.035582 
L 34.240625 10.999219 
" style="fill: none; stroke: #000000; stroke-width: 0.8; stroke-linejoin: miter; stroke-linecap: square"/>
   </g>
   <g id="patch_4">
    <path d="M 424.840625 153.035582 
L 424.840625 10.999219 
" style="fill: none; stroke: #000000; stroke-width: 0.8; stroke-linejoin: miter; stroke-linecap: square"/>
   </g>
   <g id="patch_5">
    <path d="M 34.240625 153.035582 
L 424.840625 153.035582 
" style="fill: none; stroke: #000000; stroke-width: 0.8; stroke-linejoin: miter; stroke-linecap: square"/>
   </g>
   <g id="patch_6">
    <path d="M 34.240625 10.999219 
L 424.840625 10.999219 
" style="fill: none; stroke: #000000; stroke-width: 0.8; stroke-linejoin: miter; stroke-linecap: square"/>
   </g>
   <g id="legend_1">
    <g id="patch_7">
     <path d="M 41.240625 92.389844 
L 158.840625 92.389844 
Q 160.840625 92.389844 160.840625 90.389844 
L 160.840625 17.999219 
Q 160.840625 15.999219 158.840625 15.999219 
L 41.240625 15.999219 
Q 39.240625 15.999219 39.240625 17.999219 
L 39.240625 90.389844 
Q 39.240625 92.389844 41.240625 92.389844 
z
" style="fill: #ffffff; opacity: 0.8; stroke: #cccccc; stroke-linejoin: miter"/>
    </g>
    <g id="line2d_28">
     <g>
      <use xlink:href="#m14ac440be3" x="53.240625" y="24.097656" style="fill: #ff0000; stroke: #ff0000"/>
     </g>
    </g>
    <g id="text_14">
     <!-- observations -->
     <g transform="translate(71.240625 27.597656) scale(0.1 -0.1)">
      <defs>
       <path id="DejaVuSans-6f" d="M 1959 3097 
Q 1497 3097 1228 2736 
Q 959 2375 959 1747 
Q 959 1119 1226 758 
Q 1494 397 1959 397 
Q 2419 397 2687 759 
Q 2956 1122 2956 1747 
Q 2956 2369 2687 2733 
Q 2419 3097 1959 3097 
z
M 1959 3584 
Q 2709 3584 3137 3096 
Q 3566 2609 3566 1747 
Q 3566 888 3137 398 
Q 2709 -91 1959 -91 
Q 1206 -91 779 398 
Q 353 888 353 1747 
Q 353 2609 779 3096 
Q 1206 3584 1959 3584 
z
" transform="scale(0.015625)"/>
       <path id="DejaVuSans-62" d="M 3116 1747 
Q 3116 2381 2855 2742 
Q 2594 3103 2138 3103 
Q 1681 3103 1420 2742 
Q 1159 2381 1159 1747 
Q 1159 1113 1420 752 
Q 1681 391 2138 391 
Q 2594 391 2855 752 
Q 3116 1113 3116 1747 
z
M 1159 2969 
Q 1341 3281 1617 3432 
Q 1894 3584 2278 3584 
Q 2916 3584 3314 3078 
Q 3713 2572 3713 1747 
Q 3713 922 3314 415 
Q 2916 -91 2278 -91 
Q 1894 -91 1617 61 
Q 1341 213 1159 525 
L 1159 0 
L 581 0 
L 581 4863 
L 1159 4863 
L 1159 2969 
z
" transform="scale(0.015625)"/>
       <path id="DejaVuSans-73" d="M 2834 3397 
L 2834 2853 
Q 2591 2978 2328 3040 
Q 2066 3103 1784 3103 
Q 1356 3103 1142 2972 
Q 928 2841 928 2578 
Q 928 2378 1081 2264 
Q 1234 2150 1697 2047 
L 1894 2003 
Q 2506 1872 2764 1633 
Q 3022 1394 3022 966 
Q 3022 478 2636 193 
Q 2250 -91 1575 -91 
Q 1294 -91 989 -36 
Q 684 19 347 128 
L 347 722 
Q 666 556 975 473 
Q 1284 391 1588 391 
Q 1994 391 2212 530 
Q 2431 669 2431 922 
Q 2431 1156 2273 1281 
Q 2116 1406 1581 1522 
L 1381 1569 
Q 847 1681 609 1914 
Q 372 2147 372 2553 
Q 372 3047 722 3315 
Q 1072 3584 1716 3584 
Q 2034 3584 2315 3537 
Q 2597 3491 2834 3397 
z
" transform="scale(0.015625)"/>
       <path id="DejaVuSans-65" d="M 3597 1894 
L 3597 1613 
L 953 1613 
Q 991 1019 1311 708 
Q 1631 397 2203 397 
Q 2534 397 2845 478 
Q 3156 559 3463 722 
L 3463 178 
Q 3153 47 2828 -22 
Q 2503 -91 2169 -91 
Q 1331 -91 842 396 
Q 353 884 353 1716 
Q 353 2575 817 3079 
Q 1281 3584 2069 3584 
Q 2775 3584 3186 3129 
Q 3597 2675 3597 1894 
z
M 3022 2063 
Q 3016 2534 2758 2815 
Q 2500 3097 2075 3097 
Q 1594 3097 1305 2825 
Q 1016 2553 972 2059 
L 3022 2063 
z
" transform="scale(0.015625)"/>
       <path id="DejaVuSans-72" d="M 2631 2963 
Q 2534 3019 2420 3045 
Q 2306 3072 2169 3072 
Q 1681 3072 1420 2755 
Q 1159 2438 1159 1844 
L 1159 0 
L 581 0 
L 581 3500 
L 1159 3500 
L 1159 2956 
Q 1341 3275 1631 3429 
Q 1922 3584 2338 3584 
Q 2397 3584 2469 3576 
Q 2541 3569 2628 3553 
L 2631 2963 
z
" transform="scale(0.015625)"/>
       <path id="DejaVuSans-76" d="M 191 3500 
L 800 3500 
L 1894 563 
L 2988 3500 
L 3597 3500 
L 2284 0 
L 1503 0 
L 191 3500 
z
" transform="scale(0.015625)"/>
       <path id="DejaVuSans-61" d="M 2194 1759 
Q 1497 1759 1228 1600 
Q 959 1441 959 1056 
Q 959 750 1161 570 
Q 1363 391 1709 391 
Q 2188 391 2477 730 
Q 2766 1069 2766 1631 
L 2766 1759 
L 2194 1759 
z
M 3341 1997 
L 3341 0 
L 2766 0 
L 2766 531 
Q 2569 213 2275 61 
Q 1981 -91 1556 -91 
Q 1019 -91 701 211 
Q 384 513 384 1019 
Q 384 1609 779 1909 
Q 1175 2209 1959 2209 
L 2766 2209 
L 2766 2266 
Q 2766 2663 2505 2880 
Q 2244 3097 1772 3097 
Q 1472 3097 1187 3025 
Q 903 2953 641 2809 
L 641 3341 
Q 956 3463 1253 3523 
Q 1550 3584 1831 3584 
Q 2591 3584 2966 3190 
Q 3341 2797 3341 1997 
z
" transform="scale(0.015625)"/>
       <path id="DejaVuSans-74" d="M 1172 4494 
L 1172 3500 
L 2356 3500 
L 2356 3053 
L 1172 3053 
L 1172 1153 
Q 1172 725 1289 603 
Q 1406 481 1766 481 
L 2356 481 
L 2356 0 
L 1766 0 
Q 1100 0 847 248 
Q 594 497 594 1153 
L 594 3053 
L 172 3053 
L 172 3500 
L 594 3500 
L 594 4494 
L 1172 4494 
z
" transform="scale(0.015625)"/>
       <path id="DejaVuSans-69" d="M 603 3500 
L 1178 3500 
L 1178 0 
L 603 0 
L 603 3500 
z
M 603 4863 
L 1178 4863 
L 1178 4134 
L 603 4134 
L 603 4863 
z
" transform="scale(0.015625)"/>
       <path id="DejaVuSans-6e" d="M 3513 2113 
L 3513 0 
L 2938 0 
L 2938 2094 
Q 2938 2591 2744 2837 
Q 2550 3084 2163 3084 
Q 1697 3084 1428 2787 
Q 1159 2491 1159 1978 
L 1159 0 
L 581 0 
L 581 3500 
L 1159 3500 
L 1159 2956 
Q 1366 3272 1645 3428 
Q 1925 3584 2291 3584 
Q 2894 3584 3203 3211 
Q 3513 2838 3513 2113 
z
" transform="scale(0.015625)"/>
      </defs>
      <use xlink:href="#DejaVuSans-6f"/>
      <use xlink:href="#DejaVuSans-62" transform="translate(61.181641 0)"/>
      <use xlink:href="#DejaVuSans-73" transform="translate(124.658203 0)"/>
      <use xlink:href="#DejaVuSans-65" transform="translate(176.757812 0)"/>
      <use xlink:href="#DejaVuSans-72" transform="translate(238.28125 0)"/>
      <use xlink:href="#DejaVuSans-76" transform="translate(279.394531 0)"/>
      <use xlink:href="#DejaVuSans-61" transform="translate(338.574219 0)"/>
      <use xlink:href="#DejaVuSans-74" transform="translate(399.853516 0)"/>
      <use xlink:href="#DejaVuSans-69" transform="translate(439.0625 0)"/>
      <use xlink:href="#DejaVuSans-6f" transform="translate(466.845703 0)"/>
      <use xlink:href="#DejaVuSans-6e" transform="translate(528.027344 0)"/>
      <use xlink:href="#DejaVuSans-73" transform="translate(591.40625 0)"/>
     </g>
    </g>
    <g id="line2d_29">
     <path d="M 43.240625 38.775781 
L 53.240625 38.775781 
L 63.240625 38.775781 
" style="fill: none; stroke: #1f77b4; stroke-width: 1.5; stroke-linecap: square"/>
    </g>
    <g id="text_15">
     <!-- #I=$1$ -->
     <g transform="translate(71.240625 42.275781) scale(0.1 -0.1)">
      <defs>
       <path id="DejaVuSans-23" d="M 3272 2816 
L 2363 2816 
L 2100 1772 
L 3016 1772 
L 3272 2816 
z
M 2803 4594 
L 2478 3297 
L 3391 3297 
L 3719 4594 
L 4219 4594 
L 3897 3297 
L 4872 3297 
L 4872 2816 
L 3775 2816 
L 3519 1772 
L 4513 1772 
L 4513 1294 
L 3397 1294 
L 3072 0 
L 2572 0 
L 2894 1294 
L 1978 1294 
L 1656 0 
L 1153 0 
L 1478 1294 
L 494 1294 
L 494 1772 
L 1594 1772 
L 1856 2816 
L 850 2816 
L 850 3297 
L 1978 3297 
L 2297 4594 
L 2803 4594 
z
" transform="scale(0.015625)"/>
       <path id="DejaVuSans-49" d="M 628 4666 
L 1259 4666 
L 1259 0 
L 628 0 
L 628 4666 
z
" transform="scale(0.015625)"/>
       <path id="DejaVuSans-3d" d="M 678 2906 
L 4684 2906 
L 4684 2381 
L 678 2381 
L 678 2906 
z
M 678 1631 
L 4684 1631 
L 4684 1100 
L 678 1100 
L 678 1631 
z
" transform="scale(0.015625)"/>
      </defs>
      <use xlink:href="#DejaVuSans-23" transform="translate(0 0.09375)"/>
      <use xlink:href="#DejaVuSans-49" transform="translate(83.789062 0.09375)"/>
      <use xlink:href="#DejaVuSans-3d" transform="translate(113.28125 0.09375)"/>
      <use xlink:href="#DejaVuSans-31" transform="translate(197.070312 0.09375)"/>
     </g>
    </g>
    <g id="line2d_30">
     <path d="M 43.240625 53.453906 
L 53.240625 53.453906 
L 63.240625 53.453906 
" style="fill: none; stroke: #ff7f0e; stroke-width: 1.5; stroke-linecap: square"/>
    </g>
    <g id="text_16">
     <!-- #I=$3$ -->
     <g transform="translate(71.240625 56.953906) scale(0.1 -0.1)">
      <use xlink:href="#DejaVuSans-23" transform="translate(0 0.78125)"/>
      <use xlink:href="#DejaVuSans-49" transform="translate(83.789062 0.78125)"/>
      <use xlink:href="#DejaVuSans-3d" transform="translate(113.28125 0.78125)"/>
      <use xlink:href="#DejaVuSans-33" transform="translate(197.070312 0.78125)"/>
     </g>
    </g>
    <g id="line2d_31">
     <path d="M 43.240625 68.132031 
L 53.240625 68.132031 
L 63.240625 68.132031 
" style="fill: none; stroke: #2ca02c; stroke-width: 1.5; stroke-linecap: square"/>
    </g>
    <g id="text_17">
     <!-- #I=$3$ GD $n=100$ -->
     <g transform="translate(71.240625 71.632031) scale(0.1 -0.1)">
      <defs>
       <path id="DejaVuSans-20" transform="scale(0.015625)"/>
       <path id="DejaVuSans-47" d="M 3809 666 
L 3809 1919 
L 2778 1919 
L 2778 2438 
L 4434 2438 
L 4434 434 
Q 4069 175 3628 42 
Q 3188 -91 2688 -91 
Q 1594 -91 976 548 
Q 359 1188 359 2328 
Q 359 3472 976 4111 
Q 1594 4750 2688 4750 
Q 3144 4750 3555 4637 
Q 3966 4525 4313 4306 
L 4313 3634 
Q 3963 3931 3569 4081 
Q 3175 4231 2741 4231 
Q 1884 4231 1454 3753 
Q 1025 3275 1025 2328 
Q 1025 1384 1454 906 
Q 1884 428 2741 428 
Q 3075 428 3337 486 
Q 3600 544 3809 666 
z
" transform="scale(0.015625)"/>
       <path id="DejaVuSans-44" d="M 1259 4147 
L 1259 519 
L 2022 519 
Q 2988 519 3436 956 
Q 3884 1394 3884 2338 
Q 3884 3275 3436 3711 
Q 2988 4147 2022 4147 
L 1259 4147 
z
M 628 4666 
L 1925 4666 
Q 3281 4666 3915 4102 
Q 4550 3538 4550 2338 
Q 4550 1131 3912 565 
Q 3275 0 1925 0 
L 628 0 
L 628 4666 
z
" transform="scale(0.015625)"/>
       <path id="DejaVuSans-Oblique-6e" d="M 3566 2113 
L 3156 0 
L 2578 0 
L 2988 2091 
Q 3016 2238 3031 2350 
Q 3047 2463 3047 2528 
Q 3047 2791 2881 2937 
Q 2716 3084 2419 3084 
Q 1956 3084 1622 2776 
Q 1288 2469 1184 1941 
L 800 0 
L 225 0 
L 903 3500 
L 1478 3500 
L 1363 2950 
Q 1603 3253 1940 3418 
Q 2278 3584 2650 3584 
Q 3113 3584 3367 3334 
Q 3622 3084 3622 2631 
Q 3622 2519 3608 2391 
Q 3594 2263 3566 2113 
z
" transform="scale(0.015625)"/>
      </defs>
      <use xlink:href="#DejaVuSans-23" transform="translate(0 0.78125)"/>
      <use xlink:href="#DejaVuSans-49" transform="translate(83.789062 0.78125)"/>
      <use xlink:href="#DejaVuSans-3d" transform="translate(113.28125 0.78125)"/>
      <use xlink:href="#DejaVuSans-33" transform="translate(197.070312 0.78125)"/>
      <use xlink:href="#DejaVuSans-20" transform="translate(260.693359 0.78125)"/>
      <use xlink:href="#DejaVuSans-47" transform="translate(292.480469 0.78125)"/>
      <use xlink:href="#DejaVuSans-44" transform="translate(369.970703 0.78125)"/>
      <use xlink:href="#DejaVuSans-20" transform="translate(446.972656 0.78125)"/>
      <use xlink:href="#DejaVuSans-Oblique-6e" transform="translate(478.759766 0.78125)"/>
      <use xlink:href="#DejaVuSans-3d" transform="translate(561.621094 0.78125)"/>
      <use xlink:href="#DejaVuSans-31" transform="translate(664.892578 0.78125)"/>
      <use xlink:href="#DejaVuSans-30" transform="translate(728.515625 0.78125)"/>
      <use xlink:href="#DejaVuSans-30" transform="translate(792.138672 0.78125)"/>
     </g>
    </g>
    <g id="line2d_32">
     <path d="M 43.240625 82.810156 
L 53.240625 82.810156 
L 63.240625 82.810156 
" style="fill: none; stroke: #d62728; stroke-width: 1.5; stroke-linecap: square"/>
    </g>
    <g id="text_18">
     <!-- $E_2$ -->
     <g transform="translate(71.240625 86.310156) scale(0.1 -0.1)">
      <defs>
       <path id="DejaVuSans-Oblique-45" d="M 1081 4666 
L 4031 4666 
L 3928 4134 
L 1606 4134 
L 1338 2753 
L 3566 2753 
L 3463 2222 
L 1234 2222 
L 909 531 
L 3284 531 
L 3181 0 
L 172 0 
L 1081 4666 
z
" transform="scale(0.015625)"/>
      </defs>
      <use xlink:href="#DejaVuSans-Oblique-45" transform="translate(0 0.09375)"/>
      <use xlink:href="#DejaVuSans-32" transform="translate(63.183594 -16.3125) scale(0.7)"/>
     </g>
    </g>
   </g>
  </g>
 </g>
 <defs>
  <clipPath id="pa6606ab62f">
   <rect x="34.240625" y="10.999219" width="390.6" height="142.036364"/>
  </clipPath>
 </defs>
</svg>
