<?xml version="1.0" encoding="utf-8" standalone="no"?>
<!DOCTYPE svg PUBLIC "-//W3C//DTD SVG 1.1//EN"
  "http://www.w3.org/Graphics/SVG/1.1/DTD/svg11.dtd">
<svg xmlns:xlink="http://www.w3.org/1999/xlink" width="291.6pt" height="292.323743pt" viewBox="0 0 291.6 292.323743" xmlns="http://www.w3.org/2000/svg" version="1.1">
 <metadata>
  <rdf:RDF xmlns:dc="http://purl.org/dc/elements/1.1/" xmlns:cc="http://creativecommons.org/ns#" xmlns:rdf="http://www.w3.org/1999/02/22-rdf-syntax-ns#">
   <cc:Work>
    <dc:type rdf:resource="http://purl.org/dc/dcmitype/StillImage"/>
    <dc:date>2025-01-16T10:20:07.811580</dc:date>
    <dc:format>image/svg+xml</dc:format>
    <dc:creator>
     <cc:Agent>
      <dc:title>Matplotlib v3.9.2, https://matplotlib.org/</dc:title>
     </cc:Agent>
    </dc:creator>
   </cc:Work>
  </rdf:RDF>
 </metadata>
 <defs>
  <style type="text/css">*{stroke-linejoin: round; stroke-linecap: butt}</style>
 </defs>
 <g id="figure_1">
  <g id="patch_1">
   <path d="M 0 292.323743 
L 291.6 292.323743 
L 291.6 0 
L 0 0 
z
" style="fill: #ffffff"/>
  </g>
  <g id="patch_2">
   <path d="M 7.2 284.4 
L 284.4 284.4 
L 284.4 7.2 
L 7.2 7.2 
z
" style="fill: #ffffff"/>
  </g>
  <g id="pane3d_1">
   <g id="patch_3">
    <path d="M 28.130512 216.051364 
L 119.671005 139.320307 
L 118.398504 28.660407 
L 22.477327 98.659314 
" style="fill: #f2f2f2; opacity: 0.5; stroke: #f2f2f2; stroke-linejoin: miter"/>
   </g>
  </g>
  <g id="pane3d_2">
   <g id="patch_4">
    <path d="M 119.671005 139.320307 
L 266.560834 182.015381 
L 271.802814 67.543928 
L 118.398504 28.660407 
" style="fill: #e6e6e6; opacity: 0.5; stroke: #e6e6e6; stroke-linejoin: miter"/>
   </g>
  </g>
  <g id="pane3d_3">
   <g id="patch_5">
    <path d="M 28.130512 216.051364 
L 183.840905 266.906378 
L 266.560834 182.015381 
L 119.671005 139.320307 
" style="fill: #ececec; opacity: 0.5; stroke: #ececec; stroke-linejoin: miter"/>
   </g>
  </g>
  <g id="grid3d_1">
   <g id="Line3DCollection_1">
    <path d="M 50.608753 223.392757 
L 140.956147 145.507058 
L 140.587534 34.284679 
" style="fill: none; stroke: #b0b0b0; stroke-width: 0.8"/>
    <path d="M 77.061272 232.03215 
L 165.96984 152.777551 
L 166.680792 40.89856 
" style="fill: none; stroke: #b0b0b0; stroke-width: 0.8"/>
    <path d="M 104.001178 240.830723 
L 191.405842 160.170792 
L 193.233825 47.62898 
" style="fill: none; stroke: #b0b0b0; stroke-width: 0.8"/>
    <path d="M 131.442069 249.792918 
L 217.274941 167.689918 
L 220.258893 54.479047 
" style="fill: none; stroke: #b0b0b0; stroke-width: 0.8"/>
    <path d="M 159.39805 258.923341 
L 243.588292 175.33817 
L 247.768695 61.45198 
" style="fill: none; stroke: #b0b0b0; stroke-width: 0.8"/>
   </g>
  </g>
  <g id="grid3d_2">
   <g id="Line3DCollection_2">
    <path d="M 29.110514 93.818716 
L 34.438425 210.763945 
L 189.564484 261.032578 
" style="fill: none; stroke: #b0b0b0; stroke-width: 0.8"/>
    <path d="M 48.852415 79.411975 
L 53.231823 195.010947 
L 206.596287 243.553759 
" style="fill: none; stroke: #b0b0b0; stroke-width: 0.8"/>
    <path d="M 67.910016 65.504606 
L 71.401658 179.780631 
L 223.033617 226.685014 
" style="fill: none; stroke: #b0b0b0; stroke-width: 0.8"/>
    <path d="M 86.318287 52.071088 
L 88.978459 165.047407 
L 238.907065 210.394951 
" style="fill: none; stroke: #b0b0b0; stroke-width: 0.8"/>
    <path d="M 104.109861 39.087608 
L 105.990794 150.787331 
L 254.245157 194.654295 
" style="fill: none; stroke: #b0b0b0; stroke-width: 0.8"/>
   </g>
  </g>
  <g id="grid3d_3"/>
  <g id="axis3d_1">
   <g id="line2d_1">
    <path d="M 28.130512 216.051364 
L 183.840905 266.906378 
" style="fill: none; stroke: #000000; stroke-width: 0.8; stroke-linecap: square"/>
   </g>
   <g id="xtick_1">
    <g id="line2d_2">
     <path d="M 51.395782 222.714284 
L 49.031303 224.752629 
" style="fill: none; stroke: #000000; stroke-width: 0.8; stroke-linecap: square"/>
    </g>
    <g id="text_1">
     <!-- −40 -->
     <g transform="translate(32.541075 246.786147) scale(0.1 -0.1)">
      <defs>
       <path id="DejaVuSans-2212" d="M 678 2272 
L 4684 2272 
L 4684 1741 
L 678 1741 
L 678 2272 
z
" transform="scale(0.015625)"/>
       <path id="DejaVuSans-34" d="M 2419 4116 
L 825 1625 
L 2419 1625 
L 2419 4116 
z
M 2253 4666 
L 3047 4666 
L 3047 1625 
L 3713 1625 
L 3713 1100 
L 3047 1100 
L 3047 0 
L 2419 0 
L 2419 1100 
L 313 1100 
L 313 1709 
L 2253 4666 
z
" transform="scale(0.015625)"/>
       <path id="DejaVuSans-30" d="M 2034 4250 
Q 1547 4250 1301 3770 
Q 1056 3291 1056 2328 
Q 1056 1369 1301 889 
Q 1547 409 2034 409 
Q 2525 409 2770 889 
Q 3016 1369 3016 2328 
Q 3016 3291 2770 3770 
Q 2525 4250 2034 4250 
z
M 2034 4750 
Q 2819 4750 3233 4129 
Q 3647 3509 3647 2328 
Q 3647 1150 3233 529 
Q 2819 -91 2034 -91 
Q 1250 -91 836 529 
Q 422 1150 422 2328 
Q 422 3509 836 4129 
Q 1250 4750 2034 4750 
z
" transform="scale(0.015625)"/>
      </defs>
      <use xlink:href="#DejaVuSans-2212"/>
      <use xlink:href="#DejaVuSans-34" x="83.789062"/>
      <use xlink:href="#DejaVuSans-30" x="147.412109"/>
     </g>
    </g>
   </g>
   <g id="xtick_2">
    <g id="line2d_3">
     <path d="M 77.836344 231.341237 
L 75.507756 233.41698 
" style="fill: none; stroke: #000000; stroke-width: 0.8; stroke-linecap: square"/>
    </g>
    <g id="text_2">
     <!-- −20 -->
     <g transform="translate(59.020422 255.601493) scale(0.1 -0.1)">
      <defs>
       <path id="DejaVuSans-32" d="M 1228 531 
L 3431 531 
L 3431 0 
L 469 0 
L 469 531 
Q 828 903 1448 1529 
Q 2069 2156 2228 2338 
Q 2531 2678 2651 2914 
Q 2772 3150 2772 3378 
Q 2772 3750 2511 3984 
Q 2250 4219 1831 4219 
Q 1534 4219 1204 4116 
Q 875 4013 500 3803 
L 500 4441 
Q 881 4594 1212 4672 
Q 1544 4750 1819 4750 
Q 2544 4750 2975 4387 
Q 3406 4025 3406 3419 
Q 3406 3131 3298 2873 
Q 3191 2616 2906 2266 
Q 2828 2175 2409 1742 
Q 1991 1309 1228 531 
z
" transform="scale(0.015625)"/>
      </defs>
      <use xlink:href="#DejaVuSans-2212"/>
      <use xlink:href="#DejaVuSans-32" x="83.789062"/>
      <use xlink:href="#DejaVuSans-30" x="147.412109"/>
     </g>
    </g>
   </g>
   <g id="xtick_3">
    <g id="line2d_4">
     <path d="M 104.763717 240.127027 
L 102.472753 242.241205 
" style="fill: none; stroke: #000000; stroke-width: 0.8; stroke-linecap: square"/>
    </g>
    <g id="text_3">
     <!-- 0 -->
     <g transform="translate(93.360528 264.579855) scale(0.1 -0.1)">
      <use xlink:href="#DejaVuSans-30"/>
     </g>
    </g>
   </g>
   <g id="xtick_4">
    <g id="line2d_5">
     <path d="M 132.191473 249.07608 
L 129.939941 251.229771 
" style="fill: none; stroke: #000000; stroke-width: 0.8; stroke-linecap: square"/>
    </g>
    <g id="text_4">
     <!-- 20 -->
     <g transform="translate(117.651663 273.725797) scale(0.1 -0.1)">
      <use xlink:href="#DejaVuSans-32"/>
      <use xlink:href="#DejaVuSans-30" x="63.623047"/>
     </g>
    </g>
   </g>
   <g id="xtick_5">
    <g id="line2d_6">
     <path d="M 160.133689 258.192989 
L 157.923481 260.387312 
" style="fill: none; stroke: #000000; stroke-width: 0.8; stroke-linecap: square"/>
    </g>
    <g id="text_5">
     <!-- 40 -->
     <g transform="translate(145.641646 283.044056) scale(0.1 -0.1)">
      <use xlink:href="#DejaVuSans-34"/>
      <use xlink:href="#DejaVuSans-30" x="63.623047"/>
     </g>
    </g>
   </g>
   <g id="text_6">
    <!-- $x$ -->
    <g transform="translate(84.647166 278.828218) scale(0.1 -0.1)">
     <defs>
      <path id="DejaVuSans-Oblique-78" d="M 3841 3500 
L 2234 1784 
L 3219 0 
L 2559 0 
L 1819 1388 
L 531 0 
L -166 0 
L 1556 1844 
L 641 3500 
L 1300 3500 
L 1972 2234 
L 3144 3500 
L 3841 3500 
z
" transform="scale(0.015625)"/>
     </defs>
     <use xlink:href="#DejaVuSans-Oblique-78" transform="translate(0 0.3125)"/>
    </g>
   </g>
  </g>
  <g id="axis3d_2">
   <g id="line2d_7">
    <path d="M 266.560834 182.015381 
L 183.840905 266.906378 
" style="fill: none; stroke: #000000; stroke-width: 0.8; stroke-linecap: square"/>
   </g>
   <g id="xtick_6">
    <g id="line2d_8">
     <path d="M 188.257232 260.608963 
L 192.182369 261.880904 
" style="fill: none; stroke: #000000; stroke-width: 0.8; stroke-linecap: square"/>
    </g>
    <g id="text_7">
     <!-- 0 -->
     <g transform="translate(199.26356 282.053986) scale(0.1 -0.1)">
      <use xlink:href="#DejaVuSans-30"/>
     </g>
    </g>
   </g>
   <g id="xtick_7">
    <g id="line2d_9">
     <path d="M 205.305042 243.145055 
L 209.182055 244.372204 
" style="fill: none; stroke: #000000; stroke-width: 0.8; stroke-linecap: square"/>
    </g>
    <g id="text_8">
     <!-- 2 -->
     <g transform="translate(216.076071 264.326748) scale(0.1 -0.1)">
      <use xlink:href="#DejaVuSans-32"/>
     </g>
    </g>
   </g>
   <g id="xtick_8">
    <g id="line2d_10">
     <path d="M 221.758069 226.290448 
L 225.587896 227.47513 
" style="fill: none; stroke: #000000; stroke-width: 0.8; stroke-linecap: square"/>
    </g>
    <g id="text_9">
     <!-- 4 -->
     <g transform="translate(232.301439 247.218598) scale(0.1 -0.1)">
      <use xlink:href="#DejaVuSans-34"/>
     </g>
    </g>
   </g>
   <g id="xtick_9">
    <g id="line2d_11">
     <path d="M 237.646905 210.013802 
L 241.430475 211.158184 
" style="fill: none; stroke: #000000; stroke-width: 0.8; stroke-linecap: square"/>
    </g>
    <g id="text_10">
     <!-- 6 -->
     <g transform="translate(247.969892 230.697663) scale(0.1 -0.1)">
      <defs>
       <path id="DejaVuSans-36" d="M 2113 2584 
Q 1688 2584 1439 2293 
Q 1191 2003 1191 1497 
Q 1191 994 1439 701 
Q 1688 409 2113 409 
Q 2538 409 2786 701 
Q 3034 994 3034 1497 
Q 3034 2003 2786 2293 
Q 2538 2584 2113 2584 
z
M 3366 4563 
L 3366 3988 
Q 3128 4100 2886 4159 
Q 2644 4219 2406 4219 
Q 1781 4219 1451 3797 
Q 1122 3375 1075 2522 
Q 1259 2794 1537 2939 
Q 1816 3084 2150 3084 
Q 2853 3084 3261 2657 
Q 3669 2231 3669 1497 
Q 3669 778 3244 343 
Q 2819 -91 2113 -91 
Q 1303 -91 875 529 
Q 447 1150 447 2328 
Q 447 3434 972 4092 
Q 1497 4750 2381 4750 
Q 2619 4750 2861 4703 
Q 3103 4656 3366 4563 
z
" transform="scale(0.015625)"/>
      </defs>
      <use xlink:href="#DejaVuSans-36"/>
     </g>
    </g>
   </g>
   <g id="xtick_10">
    <g id="line2d_12">
     <path d="M 253.000082 194.28589 
L 256.738311 195.391994 
" style="fill: none; stroke: #000000; stroke-width: 0.8; stroke-linecap: square"/>
    </g>
    <g id="text_11">
     <!-- 8 -->
     <g transform="translate(263.109621 214.73422) scale(0.1 -0.1)">
      <defs>
       <path id="DejaVuSans-38" d="M 2034 2216 
Q 1584 2216 1326 1975 
Q 1069 1734 1069 1313 
Q 1069 891 1326 650 
Q 1584 409 2034 409 
Q 2484 409 2743 651 
Q 3003 894 3003 1313 
Q 3003 1734 2745 1975 
Q 2488 2216 2034 2216 
z
M 1403 2484 
Q 997 2584 770 2862 
Q 544 3141 544 3541 
Q 544 4100 942 4425 
Q 1341 4750 2034 4750 
Q 2731 4750 3128 4425 
Q 3525 4100 3525 3541 
Q 3525 3141 3298 2862 
Q 3072 2584 2669 2484 
Q 3125 2378 3379 2068 
Q 3634 1759 3634 1313 
Q 3634 634 3220 271 
Q 2806 -91 2034 -91 
Q 1263 -91 848 271 
Q 434 634 434 1313 
Q 434 1759 690 2068 
Q 947 2378 1403 2484 
z
M 1172 3481 
Q 1172 3119 1398 2916 
Q 1625 2713 2034 2713 
Q 2441 2713 2670 2916 
Q 2900 3119 2900 3481 
Q 2900 3844 2670 4047 
Q 2441 4250 2034 4250 
Q 1625 4250 1398 4047 
Q 1172 3844 1172 3481 
z
" transform="scale(0.015625)"/>
      </defs>
      <use xlink:href="#DejaVuSans-38"/>
     </g>
    </g>
   </g>
   <g id="text_12">
    <!-- $t$ -->
    <g transform="translate(252.021579 253.329672) scale(0.1 -0.1)">
     <defs>
      <path id="DejaVuSans-Oblique-74" d="M 2706 3500 
L 2619 3053 
L 1472 3053 
L 1100 1153 
Q 1081 1047 1072 975 
Q 1063 903 1063 863 
Q 1063 663 1183 572 
Q 1303 481 1569 481 
L 2150 481 
L 2053 0 
L 1503 0 
Q 991 0 739 200 
Q 488 400 488 806 
Q 488 878 497 964 
Q 506 1050 525 1153 
L 897 3053 
L 409 3053 
L 500 3500 
L 978 3500 
L 1172 4494 
L 1747 4494 
L 1556 3500 
L 2706 3500 
z
" transform="scale(0.015625)"/>
     </defs>
     <use xlink:href="#DejaVuSans-Oblique-74" transform="translate(0 0.78125)"/>
    </g>
   </g>
  </g>
  <g id="axis3d_3">
   <g id="line2d_13">
    <path d="M 266.560834 182.015381 
L 271.802814 67.543928 
" style="fill: none; stroke: #000000; stroke-width: 0.8; stroke-linecap: square"/>
   </g>
   <g id="text_13">
    <!-- $u(t, x)$ -->
    <g transform="translate(311.599536 135.333754) rotate(-87.378092) scale(0.1 -0.1)">
     <defs>
      <path id="DejaVuSans-Oblique-75" d="M 428 1388 
L 838 3500 
L 1416 3500 
L 1006 1409 
Q 975 1256 961 1147 
Q 947 1038 947 966 
Q 947 700 1109 554 
Q 1272 409 1569 409 
Q 2031 409 2368 721 
Q 2706 1034 2809 1563 
L 3194 3500 
L 3769 3500 
L 3091 0 
L 2516 0 
L 2631 550 
Q 2388 244 2052 76 
Q 1716 -91 1338 -91 
Q 878 -91 622 161 
Q 366 413 366 863 
Q 366 956 381 1097 
Q 397 1238 428 1388 
z
" transform="scale(0.015625)"/>
      <path id="DejaVuSans-28" d="M 1984 4856 
Q 1566 4138 1362 3434 
Q 1159 2731 1159 2009 
Q 1159 1288 1364 580 
Q 1569 -128 1984 -844 
L 1484 -844 
Q 1016 -109 783 600 
Q 550 1309 550 2009 
Q 550 2706 781 3412 
Q 1013 4119 1484 4856 
L 1984 4856 
z
" transform="scale(0.015625)"/>
      <path id="DejaVuSans-2c" d="M 750 794 
L 1409 794 
L 1409 256 
L 897 -744 
L 494 -744 
L 750 256 
L 750 794 
z
" transform="scale(0.015625)"/>
      <path id="DejaVuSans-29" d="M 513 4856 
L 1013 4856 
Q 1481 4119 1714 3412 
Q 1947 2706 1947 2009 
Q 1947 1309 1714 600 
Q 1481 -109 1013 -844 
L 513 -844 
Q 928 -128 1133 580 
Q 1338 1288 1338 2009 
Q 1338 2731 1133 3434 
Q 928 4138 513 4856 
z
" transform="scale(0.015625)"/>
     </defs>
     <use xlink:href="#DejaVuSans-Oblique-75" transform="translate(0 0.125)"/>
     <use xlink:href="#DejaVuSans-28" transform="translate(63.378906 0.125)"/>
     <use xlink:href="#DejaVuSans-Oblique-74" transform="translate(102.392578 0.125)"/>
     <use xlink:href="#DejaVuSans-2c" transform="translate(141.601562 0.125)"/>
     <use xlink:href="#DejaVuSans-Oblique-78" transform="translate(192.871094 0.125)"/>
     <use xlink:href="#DejaVuSans-29" transform="translate(252.050781 0.125)"/>
    </g>
   </g>
  </g>
  <g id="axes_1">
   <g id="line2d_14">
    <path d="M 43.742447 211.567338 
L 96.506852 228.62529 
L 94.239443 114.782662 
L 122.286631 122.771386 
L 123.617981 237.389917 
L 179.224505 255.366684 
L 179.224505 255.366684 
" clip-path="url(#pba4cf34567)" style="fill: none; stroke: #1f77b4; stroke-width: 1.5; stroke-linecap: square"/>
   </g>
   <g id="line2d_15">
    <path d="M 53.178625 203.584269 
L 99.920576 218.405779 
L 100.581395 218.38211 
L 101.105443 218.107755 
L 101.493509 217.628348 
L 101.874947 216.782696 
L 102.247067 215.418067 
L 102.60682 213.357391 
L 103.061966 209.208317 
L 103.483769 203.114112 
L 103.961199 192.492393 
L 104.555391 172.815871 
L 105.66772 134.379531 
L 106.180477 123.82185 
L 106.754298 116.635759 
L 107.250854 113.024435 
L 107.772233 110.860262 
L 108.310537 109.698509 
L 108.721427 109.25572 
L 109.275009 109.009081 
L 109.971966 108.995725 
L 111.231847 109.262774 
L 118.962526 111.428702 
L 125.460279 113.353506 
L 126.170031 113.763849 
L 126.740053 114.329157 
L 127.169807 115.012208 
L 127.602452 116.047892 
L 128.039085 117.590705 
L 128.480928 119.823002 
L 129.080194 124.206194 
L 129.692889 130.563812 
L 130.477865 141.583547 
L 131.440419 158.774863 
L 133.967659 206.553242 
L 134.71099 216.324663 
L 135.431269 222.856271 
L 135.994859 226.155878 
L 136.550836 228.209267 
L 137.102053 229.427565 
L 137.650605 230.137648 
L 138.334554 230.64678 
L 139.427815 231.120239 
L 143.532636 232.45066 
L 187.887957 246.621343 
L 187.887957 246.621343 
" clip-path="url(#pba4cf34567)" style="fill: none; stroke: #ff7f0e; stroke-width: 1.5; stroke-linecap: square"/>
   </g>
   <g id="line2d_16">
    <path d="M 62.454967 195.736422 
L 106.563638 209.55238 
L 107.48475 209.612192 
L 108.139791 209.450213 
L 108.66063 209.101424 
L 109.177135 208.455904 
L 109.687588 207.392721 
L 110.190035 205.769429 
L 110.682462 203.431744 
L 111.281173 199.278547 
L 111.859073 193.546868 
L 112.525125 184.467788 
L 113.376886 169.089748 
L 115.52633 127.501976 
L 116.231219 118.306929 
L 116.972699 111.545403 
L 117.61547 107.652404 
L 118.276356 105.076169 
L 118.814984 103.755379 
L 119.360048 102.923822 
L 119.909707 102.445364 
L 120.601086 102.178336 
L 121.434542 102.143824 
L 122.688625 102.356893 
L 126.041588 103.253099 
L 132.209749 105.071267 
L 133.335502 105.657817 
L 134.040797 106.259863 
L 134.606479 106.981718 
L 135.173906 108.02805 
L 135.743555 109.529682 
L 136.315904 111.639057 
L 136.891345 114.518279 
L 137.615284 119.429414 
L 138.344124 125.994037 
L 139.223547 136.110089 
L 140.398073 152.737267 
L 143.279995 195.624873 
L 144.259179 206.173919 
L 145.088251 212.63014 
L 145.773995 216.388022 
L 146.456686 218.962612 
L 147.137568 220.655343 
L 147.817542 221.740305 
L 148.497192 222.436608 
L 149.448769 223.047743 
L 150.808963 223.608051 
L 154.896888 224.92634 
L 196.397906 238.030957 
L 196.397906 238.030957 
" clip-path="url(#pba4cf34567)" style="fill: none; stroke: #2ca02c; stroke-width: 1.5; stroke-linecap: square"/>
   </g>
   <g id="line2d_17">
    <path d="M 71.5755 188.020391 
L 113.607705 201.031131 
L 114.78565 201.155331 
L 115.568847 201.033042 
L 116.219039 200.705408 
L 116.736765 200.224061 
L 117.251578 199.478264 
L 117.762705 198.393062 
L 118.395216 196.433998 
L 119.019273 193.652971 
L 119.633788 189.90269 
L 120.358028 183.97898 
L 121.186171 175.063132 
L 122.232846 160.88703 
L 125.07083 120.471799 
L 125.946296 111.678043 
L 126.71762 105.888954 
L 127.506183 101.655968 
L 128.174245 99.170424 
L 128.850113 97.461358 
L 129.531892 96.359051 
L 130.217955 95.705874 
L 130.907008 95.368398 
L 131.736492 95.23492 
L 132.845194 95.317504 
L 134.789453 95.747089 
L 138.826479 96.899328 
L 140.361253 97.52746 
L 141.339338 98.157724 
L 142.178822 98.994904 
L 142.879317 100.033135 
L 143.580711 101.522566 
L 144.282964 103.62184 
L 144.985885 106.501926 
L 145.689092 110.325821 
L 146.532463 116.336386 
L 147.373977 123.980563 
L 148.490317 136.508901 
L 150.146156 158.390278 
L 152.046677 182.909615 
L 153.121842 193.992982 
L 154.05984 201.377246 
L 154.863584 206.044066 
L 155.668135 209.388873 
L 156.339601 211.362217 
L 157.012101 212.769686 
L 157.820422 213.919738 
L 158.630013 214.678762 
L 159.575838 215.272666 
L 161.06426 215.905751 
L 164.453776 217.010223 
L 204.758397 229.591441 
L 204.758397 229.591441 
" clip-path="url(#pba4cf34567)" style="fill: none; stroke: #d62728; stroke-width: 1.5; stroke-linecap: square"/>
   </g>
   <g id="line2d_18">
    <path d="M 80.544117 180.432883 
L 120.784836 192.746161 
L 122.216505 192.930534 
L 123.126188 192.831208 
L 123.904101 192.499968 
L 124.550388 191.963504 
L 125.194225 191.101333 
L 125.834958 189.816311 
L 126.471963 188.003357 
L 127.104725 185.557585 
L 127.858018 181.656806 
L 128.604802 176.596751 
L 129.468964 169.190103 
L 130.573286 157.529089 
L 132.669887 132.046997 
L 134.058715 116.555664 
L 135.091802 107.241782 
L 136.011761 100.811103 
L 136.810908 96.59718 
L 137.618227 93.482132 
L 138.29601 91.61132 
L 138.977349 90.284615 
L 139.661415 89.392794 
L 140.347517 88.834827 
L 141.17278 88.484211 
L 142.137434 88.366813 
L 143.379641 88.479359 
L 145.314864 88.922011 
L 147.252885 89.563438 
L 148.500073 90.178408 
L 149.470653 90.898212 
L 150.30273 91.804757 
L 150.995987 92.863067 
L 151.688805 94.295903 
L 152.380776 96.209134 
L 153.071372 98.713771 
L 153.897371 102.64776 
L 154.719233 107.729636 
L 155.671181 115.198444 
L 156.748071 125.659651 
L 158.207946 142.494813 
L 160.945359 174.830709 
L 162.113398 185.718432 
L 163.025337 192.350874 
L 163.942125 197.400997 
L 164.732301 200.609657 
L 165.526426 202.961474 
L 166.324103 204.639824 
L 167.124772 205.818214 
L 167.927832 206.645236 
L 168.867026 207.320607 
L 170.211725 207.983541 
L 172.367831 208.752954 
L 181.162068 211.482305 
L 212.973332 221.298857 
L 212.973332 221.298857 
" clip-path="url(#pba4cf34567)" style="fill: none; stroke: #9467bd; stroke-width: 1.5; stroke-linecap: square"/>
   </g>
   <g id="line2d_19">
    <path d="M 89.364581 172.970712 
L 128.093266 184.679824 
L 129.646237 184.900079 
L 130.680985 184.825155 
L 131.456245 184.559572 
L 132.101463 184.136829 
L 132.745668 183.469184 
L 133.388622 182.489481 
L 134.03012 181.124272 
L 134.797794 178.870681 
L 135.563102 175.829682 
L 136.326256 171.901827 
L 137.21462 166.125663 
L 138.229098 157.978377 
L 139.500444 145.853656 
L 143.393068 107.189926 
L 144.458145 99.226467 
L 145.398473 93.642019 
L 146.345176 89.350782 
L 147.16058 86.617413 
L 147.978702 84.636508 
L 148.798809 83.275347 
L 149.483332 82.51796 
L 150.305716 81.955025 
L 151.128871 81.670672 
L 152.089954 81.581491 
L 153.326554 81.714636 
L 154.701539 82.083409 
L 155.939625 82.614234 
L 157.040171 83.325998 
L 158.002575 84.248203 
L 158.826437 85.371424 
L 159.64857 86.920055 
L 160.468043 89.023585 
L 161.283729 91.818014 
L 162.094375 95.430741 
L 163.032064 100.810378 
L 163.959391 107.510574 
L 165.005081 116.71041 
L 166.418543 131.446064 
L 169.943427 169.619275 
L 171.079658 178.994595 
L 172.099088 185.540654 
L 172.999728 189.930897 
L 173.908479 193.218696 
L 174.693344 195.305174 
L 175.482957 196.854272 
L 176.276515 197.990572 
L 177.206265 198.93936 
L 178.272675 199.694533 
L 179.609596 200.356011 
L 181.754137 201.135124 
L 188.344889 203.17149 
L 221.04648 213.1494 
L 221.04648 213.1494 
" clip-path="url(#pba4cf34567)" style="fill: none; stroke: #8c564b; stroke-width: 1.5; stroke-linecap: square"/>
   </g>
   <g id="line2d_20">
    <path d="M 98.040534 165.630798 
L 135.402853 176.793555 
L 137.075685 177.044037 
L 138.105361 177.006395 
L 139.006261 176.759344 
L 139.77829 176.312459 
L 140.550089 175.56837 
L 141.321642 174.438259 
L 142.09302 172.825135 
L 142.864407 170.63063 
L 143.636126 167.764327 
L 144.537521 163.477713 
L 145.570303 157.270214 
L 146.737624 148.679618 
L 148.307191 135.131163 
L 151.908571 103.228219 
L 153.128362 94.584145 
L 154.217811 88.343997 
L 155.173628 84.046415 
L 156.130755 80.774867 
L 156.951612 78.697636 
L 157.772556 77.191143 
L 158.593406 76.154236 
L 159.414089 75.490256 
L 160.234604 75.114291 
L 161.191699 74.949221 
L 162.148648 75.007138 
L 163.24207 75.297099 
L 164.33495 75.827827 
L 165.290256 76.538242 
L 166.107781 77.393185 
L 166.923386 78.550333 
L 167.736189 80.097488 
L 168.545121 82.133344 
L 169.348966 84.759756 
L 170.146439 88.071309 
L 171.067117 92.898886 
L 172.104554 99.755327 
L 173.251326 109.10819 
L 174.6249 122.411225 
L 178.656156 163.189475 
L 179.76606 171.611975 
L 180.765191 177.613705 
L 181.650166 181.749504 
L 182.545008 184.948134 
L 183.448869 187.350779 
L 184.360485 189.113899 
L 185.278428 190.389439 
L 186.201305 191.311456 
L 187.260501 192.071409 
L 188.589145 192.753554 
L 190.588078 193.509402 
L 195.267173 194.966092 
L 228.98148 205.139397 
L 228.98148 205.139397 
" clip-path="url(#pba4cf34567)" style="fill: none; stroke: #e377c2; stroke-width: 1.5; stroke-linecap: square"/>
   </g>
   <g id="line2d_21">
    <path d="M 106.575498 158.410162 
L 142.714493 169.079074 
L 144.505832 169.351308 
L 145.658418 169.316715 
L 146.55549 169.089303 
L 147.324937 168.69103 
L 148.095015 168.04164 
L 148.865932 167.071549 
L 149.637981 165.704752 
L 150.411547 163.863167 
L 151.187108 161.472618 
L 152.095195 157.906772 
L 153.007725 153.442835 
L 154.057305 147.226368 
L 155.381113 137.921681 
L 157.25873 122.862489 
L 160.122392 99.840182 
L 161.498476 90.455621 
L 162.739092 83.479889 
L 163.841369 78.561374 
L 164.804417 75.224343 
L 165.765602 72.709372 
L 166.587858 71.125392 
L 167.408656 69.98827 
L 168.228116 69.222553 
L 169.046394 68.760573 
L 169.863631 68.547192 
L 170.679914 68.543023 
L 171.631012 68.774678 
L 172.580534 69.260018 
L 173.527917 70.031365 
L 174.337573 70.968699 
L 175.144199 72.22141 
L 175.946811 73.859347 
L 176.744269 75.959306 
L 177.666469 79.095664 
L 178.578 83.073015 
L 179.477123 87.964839 
L 180.487952 94.698806 
L 181.603223 103.630516 
L 183.057636 117.239188 
L 186.858465 153.968624 
L 188.062342 162.924077 
L 189.163624 169.403315 
L 190.158225 173.919508 
L 191.04039 176.998406 
L 191.932716 179.375305 
L 192.833891 181.172818 
L 193.74243 182.513437 
L 194.787883 183.629022 
L 195.839049 184.433719 
L 197.158626 185.163649 
L 199.012688 185.912709 
L 202.467149 187.01941 
L 228.503124 194.794828 
L 236.781848 197.265299 
L 236.781848 197.265299 
" clip-path="url(#pba4cf34567)" style="fill: none; stroke: #7f7f7f; stroke-width: 1.5; stroke-linecap: square"/>
   </g>
   <g id="line2d_22">
    <path d="M 114.972883 151.305919 
L 149.901945 161.501881 
L 151.810356 161.804881 
L 153.0845 161.785705 
L 154.105281 161.541578 
L 154.999912 161.080141 
L 155.76816 160.43732 
L 156.538102 159.505407 
L 157.310183 158.222044 
L 158.08493 156.523636 
L 158.992962 153.937288 
L 159.906432 150.623023 
L 160.958331 145.877248 
L 162.153364 139.303949 
L 163.496999 130.601587 
L 165.405917 116.648735 
L 168.734084 92.265191 
L 170.268527 82.819922 
L 171.521855 76.45644 
L 172.632108 71.919789 
L 173.599764 68.795836 
L 174.563563 66.3999 
L 175.386631 64.862914 
L 176.207045 63.741464 
L 177.025014 62.978539 
L 177.840748 62.523686 
L 178.6544 62.337153 
L 179.466018 62.39284 
L 180.275504 62.680106 
L 181.082582 63.204493 
L 181.886777 63.987384 
L 182.68741 65.064596 
L 183.483605 66.483831 
L 184.405496 68.646646 
L 185.318094 71.444644 
L 186.219526 74.964323 
L 187.233909 79.952468 
L 188.229686 86.005748 
L 189.326952 94.030032 
L 190.637297 105.276254 
L 193.191995 129.780892 
L 194.929254 145.186783 
L 196.105295 153.841715 
L 197.182543 160.273369 
L 198.15692 164.890928 
L 199.147154 168.541302 
L 200.025751 171.033743 
L 200.914403 172.972028 
L 201.811648 174.45733 
L 202.845647 175.723968 
L 203.886757 176.652739 
L 205.19539 177.494707 
L 206.772858 178.22721 
L 209.279734 179.108199 
L 215.903905 181.097335 
L 244.450982 189.523675 
L 244.450982 189.523675 
" clip-path="url(#pba4cf34567)" style="fill: none; stroke: #bcbd22; stroke-width: 1.5; stroke-linecap: square"/>
   </g>
   <g id="line2d_23">
    <path d="M 123.235988 144.315278 
L 156.968301 154.056425 
L 158.9923 154.395756 
L 160.386567 154.401297 
L 161.402625 154.195722 
L 162.293617 153.801989 
L 163.186998 153.14013 
L 163.955185 152.302235 
L 164.726172 151.160053 
L 165.629996 149.372138 
L 166.539484 147.017109 
L 167.455703 144.025777 
L 168.512349 139.766903 
L 169.71471 133.879409 
L 171.068762 126.057331 
L 172.856917 114.302044 
L 177.489598 83.123824 
L 178.898642 75.330065 
L 180.161236 69.490746 
L 181.277149 65.29627 
L 182.386139 62.018304 
L 183.350647 59.847863 
L 184.309841 58.261825 
L 185.128007 57.315319 
L 185.942697 56.707368 
L 186.754065 56.404895 
L 187.427709 56.369306 
L 188.099034 56.522882 
L 188.901368 56.956547 
L 189.699754 57.673207 
L 190.493581 58.69611 
L 191.282048 60.058733 
L 192.193873 62.132328 
L 193.095418 64.793378 
L 193.984972 68.107129 
L 194.984964 72.756073 
L 196.086838 79.117176 
L 197.281755 87.520283 
L 198.678369 99.111525 
L 203.788966 143.557714 
L 204.95715 150.821928 
L 206.030345 156.13167 
L 207.002194 159.910972 
L 207.990055 162.891458 
L 208.992294 165.186242 
L 210.006813 166.920315 
L 211.031363 168.216464 
L 212.063789 169.18533 
L 213.362542 170.075865 
L 214.929314 170.851521 
L 217.158237 171.677145 
L 221.764884 173.082529 
L 251.992165 181.911211 
L 251.992165 181.911211 
" clip-path="url(#pba4cf34567)" style="fill: none; stroke: #17becf; stroke-width: 1.5; stroke-linecap: square"/>
   </g>
  </g>
 </g>
 <defs>
  <clipPath id="pba4cf34567">
   <rect x="7.2" y="7.2" width="277.2" height="277.2"/>
  </clipPath>
 </defs>
</svg>
