<?xml version="1.0" encoding="utf-8" standalone="no"?>
<!DOCTYPE svg PUBLIC "-//W3C//DTD SVG 1.1//EN"
  "http://www.w3.org/Graphics/SVG/1.1/DTD/svg11.dtd">
<svg xmlns:xlink="http://www.w3.org/1999/xlink" width="427.903125pt" height="155.548977pt" viewBox="0 0 427.903125 155.548977" xmlns="http://www.w3.org/2000/svg" version="1.1">
 <metadata>
  <rdf:RDF xmlns:dc="http://purl.org/dc/elements/1.1/" xmlns:cc="http://creativecommons.org/ns#" xmlns:rdf="http://www.w3.org/1999/02/22-rdf-syntax-ns#">
   <cc:Work>
    <dc:type rdf:resource="http://purl.org/dc/dcmitype/StillImage"/>
    <dc:date>2025-07-03T13:33:02.320812</dc:date>
    <dc:format>image/svg+xml</dc:format>
    <dc:creator>
     <cc:Agent>
      <dc:title>Matplotlib v3.10.3, https://matplotlib.org/</dc:title>
     </cc:Agent>
    </dc:creator>
   </cc:Work>
  </rdf:RDF>
 </metadata>
 <defs>
  <style type="text/css">*{stroke-linejoin: round; stroke-linecap: butt}</style>
 </defs>
 <g id="figure_1">
  <g id="patch_1">
   <path d="M 0 155.548977 
L 427.903125 155.548977 
L 427.903125 0 
L 0 0 
z
" style="fill: #ffffff"/>
  </g>
  <g id="axes_1">
   <g id="patch_2">
    <path d="M 30.103125 117.992727 
L 420.703125 117.992727 
L 420.703125 7.2 
L 30.103125 7.2 
z
" style="fill: #ffffff"/>
   </g>
   <g id="matplotlib.axis_1">
    <g id="xtick_1">
     <g id="line2d_1">
      <defs>
       <path id="m217b0d2079" d="M 0 0 
L 0 3.5 
" style="stroke: #000000; stroke-width: 0.8"/>
      </defs>
      <g>
       <use xlink:href="#m217b0d2079" x="55.875364" y="117.992727" style="stroke: #000000; stroke-width: 0.8"/>
      </g>
     </g>
     <g id="text_1">
      <!-- −3 -->
      <g transform="translate(48.504271 132.591164) scale(0.1 -0.1)">
       <defs>
        <path id="DejaVuSans-2212" d="M 678 2272 
L 4684 2272 
L 4684 1741 
L 678 1741 
L 678 2272 
z
" transform="scale(0.015625)"/>
        <path id="DejaVuSans-33" d="M 2597 2516 
Q 3050 2419 3304 2112 
Q 3559 1806 3559 1356 
Q 3559 666 3084 287 
Q 2609 -91 1734 -91 
Q 1441 -91 1130 -33 
Q 819 25 488 141 
L 488 750 
Q 750 597 1062 519 
Q 1375 441 1716 441 
Q 2309 441 2620 675 
Q 2931 909 2931 1356 
Q 2931 1769 2642 2001 
Q 2353 2234 1838 2234 
L 1294 2234 
L 1294 2753 
L 1863 2753 
Q 2328 2753 2575 2939 
Q 2822 3125 2822 3475 
Q 2822 3834 2567 4026 
Q 2313 4219 1838 4219 
Q 1578 4219 1281 4162 
Q 984 4106 628 3988 
L 628 4550 
Q 988 4650 1302 4700 
Q 1616 4750 1894 4750 
Q 2613 4750 3031 4423 
Q 3450 4097 3450 3541 
Q 3450 3153 3228 2886 
Q 3006 2619 2597 2516 
z
" transform="scale(0.015625)"/>
       </defs>
       <use xlink:href="#DejaVuSans-2212"/>
       <use xlink:href="#DejaVuSans-33" transform="translate(83.789062 0)"/>
      </g>
     </g>
    </g>
    <g id="xtick_2">
     <g id="line2d_2">
      <g>
       <use xlink:href="#m217b0d2079" x="112.500434" y="117.992727" style="stroke: #000000; stroke-width: 0.8"/>
      </g>
     </g>
     <g id="text_2">
      <!-- −2 -->
      <g transform="translate(105.12934 132.591164) scale(0.1 -0.1)">
       <defs>
        <path id="DejaVuSans-32" d="M 1228 531 
L 3431 531 
L 3431 0 
L 469 0 
L 469 531 
Q 828 903 1448 1529 
Q 2069 2156 2228 2338 
Q 2531 2678 2651 2914 
Q 2772 3150 2772 3378 
Q 2772 3750 2511 3984 
Q 2250 4219 1831 4219 
Q 1534 4219 1204 4116 
Q 875 4013 500 3803 
L 500 4441 
Q 881 4594 1212 4672 
Q 1544 4750 1819 4750 
Q 2544 4750 2975 4387 
Q 3406 4025 3406 3419 
Q 3406 3131 3298 2873 
Q 3191 2616 2906 2266 
Q 2828 2175 2409 1742 
Q 1991 1309 1228 531 
z
" transform="scale(0.015625)"/>
       </defs>
       <use xlink:href="#DejaVuSans-2212"/>
       <use xlink:href="#DejaVuSans-32" transform="translate(83.789062 0)"/>
      </g>
     </g>
    </g>
    <g id="xtick_3">
     <g id="line2d_3">
      <g>
       <use xlink:href="#m217b0d2079" x="169.125503" y="117.992727" style="stroke: #000000; stroke-width: 0.8"/>
      </g>
     </g>
     <g id="text_3">
      <!-- −1 -->
      <g transform="translate(161.754409 132.591164) scale(0.1 -0.1)">
       <defs>
        <path id="DejaVuSans-31" d="M 794 531 
L 1825 531 
L 1825 4091 
L 703 3866 
L 703 4441 
L 1819 4666 
L 2450 4666 
L 2450 531 
L 3481 531 
L 3481 0 
L 794 0 
L 794 531 
z
" transform="scale(0.015625)"/>
       </defs>
       <use xlink:href="#DejaVuSans-2212"/>
       <use xlink:href="#DejaVuSans-31" transform="translate(83.789062 0)"/>
      </g>
     </g>
    </g>
    <g id="xtick_4">
     <g id="line2d_4">
      <g>
       <use xlink:href="#m217b0d2079" x="225.750572" y="117.992727" style="stroke: #000000; stroke-width: 0.8"/>
      </g>
     </g>
     <g id="text_4">
      <!-- 0 -->
      <g transform="translate(222.569322 132.591164) scale(0.1 -0.1)">
       <defs>
        <path id="DejaVuSans-30" d="M 2034 4250 
Q 1547 4250 1301 3770 
Q 1056 3291 1056 2328 
Q 1056 1369 1301 889 
Q 1547 409 2034 409 
Q 2525 409 2770 889 
Q 3016 1369 3016 2328 
Q 3016 3291 2770 3770 
Q 2525 4250 2034 4250 
z
M 2034 4750 
Q 2819 4750 3233 4129 
Q 3647 3509 3647 2328 
Q 3647 1150 3233 529 
Q 2819 -91 2034 -91 
Q 1250 -91 836 529 
Q 422 1150 422 2328 
Q 422 3509 836 4129 
Q 1250 4750 2034 4750 
z
" transform="scale(0.015625)"/>
       </defs>
       <use xlink:href="#DejaVuSans-30"/>
      </g>
     </g>
    </g>
    <g id="xtick_5">
     <g id="line2d_5">
      <g>
       <use xlink:href="#m217b0d2079" x="282.375641" y="117.992727" style="stroke: #000000; stroke-width: 0.8"/>
      </g>
     </g>
     <g id="text_5">
      <!-- 1 -->
      <g transform="translate(279.194391 132.591164) scale(0.1 -0.1)">
       <use xlink:href="#DejaVuSans-31"/>
      </g>
     </g>
    </g>
    <g id="xtick_6">
     <g id="line2d_6">
      <g>
       <use xlink:href="#m217b0d2079" x="339.000711" y="117.992727" style="stroke: #000000; stroke-width: 0.8"/>
      </g>
     </g>
     <g id="text_6">
      <!-- 2 -->
      <g transform="translate(335.819461 132.591164) scale(0.1 -0.1)">
       <use xlink:href="#DejaVuSans-32"/>
      </g>
     </g>
    </g>
    <g id="xtick_7">
     <g id="line2d_7">
      <g>
       <use xlink:href="#m217b0d2079" x="395.62578" y="117.992727" style="stroke: #000000; stroke-width: 0.8"/>
      </g>
     </g>
     <g id="text_7">
      <!-- 3 -->
      <g transform="translate(392.44453 132.591164) scale(0.1 -0.1)">
       <use xlink:href="#DejaVuSans-33"/>
      </g>
     </g>
    </g>
    <g id="text_8">
     <!-- $x$ -->
     <g transform="translate(222.403125 146.269289) scale(0.1 -0.1)">
      <defs>
       <path id="DejaVuSans-Oblique-78" d="M 3841 3500 
L 2234 1784 
L 3219 0 
L 2559 0 
L 1819 1388 
L 531 0 
L -166 0 
L 1556 1844 
L 641 3500 
L 1300 3500 
L 1972 2234 
L 3144 3500 
L 3841 3500 
z
" transform="scale(0.015625)"/>
      </defs>
      <use xlink:href="#DejaVuSans-Oblique-78" transform="translate(0 0.3125)"/>
     </g>
    </g>
   </g>
   <g id="matplotlib.axis_2">
    <g id="ytick_1">
     <g id="line2d_8">
      <defs>
       <path id="m1c045334ff" d="M 0 0 
L -3.5 0 
" style="stroke: #000000; stroke-width: 0.8"/>
      </defs>
      <g>
       <use xlink:href="#m1c045334ff" x="30.103125" y="105.156258" style="stroke: #000000; stroke-width: 0.8"/>
      </g>
     </g>
     <g id="text_9">
      <!-- 0.0 -->
      <g transform="translate(7.2 108.955477) scale(0.1 -0.1)">
       <defs>
        <path id="DejaVuSans-2e" d="M 684 794 
L 1344 794 
L 1344 0 
L 684 0 
L 684 794 
z
" transform="scale(0.015625)"/>
       </defs>
       <use xlink:href="#DejaVuSans-30"/>
       <use xlink:href="#DejaVuSans-2e" transform="translate(63.623047 0)"/>
       <use xlink:href="#DejaVuSans-30" transform="translate(95.410156 0)"/>
      </g>
     </g>
    </g>
    <g id="ytick_2">
     <g id="line2d_9">
      <g>
       <use xlink:href="#m1c045334ff" x="30.103125" y="62.687456" style="stroke: #000000; stroke-width: 0.8"/>
      </g>
     </g>
     <g id="text_10">
      <!-- 0.5 -->
      <g transform="translate(7.2 66.486675) scale(0.1 -0.1)">
       <defs>
        <path id="DejaVuSans-35" d="M 691 4666 
L 3169 4666 
L 3169 4134 
L 1269 4134 
L 1269 2991 
Q 1406 3038 1543 3061 
Q 1681 3084 1819 3084 
Q 2600 3084 3056 2656 
Q 3513 2228 3513 1497 
Q 3513 744 3044 326 
Q 2575 -91 1722 -91 
Q 1428 -91 1123 -41 
Q 819 9 494 109 
L 494 744 
Q 775 591 1075 516 
Q 1375 441 1709 441 
Q 2250 441 2565 725 
Q 2881 1009 2881 1497 
Q 2881 1984 2565 2268 
Q 2250 2553 1709 2553 
Q 1456 2553 1204 2497 
Q 953 2441 691 2322 
L 691 4666 
z
" transform="scale(0.015625)"/>
       </defs>
       <use xlink:href="#DejaVuSans-30"/>
       <use xlink:href="#DejaVuSans-2e" transform="translate(63.623047 0)"/>
       <use xlink:href="#DejaVuSans-35" transform="translate(95.410156 0)"/>
      </g>
     </g>
    </g>
    <g id="ytick_3">
     <g id="line2d_10">
      <g>
       <use xlink:href="#m1c045334ff" x="30.103125" y="20.218654" style="stroke: #000000; stroke-width: 0.8"/>
      </g>
     </g>
     <g id="text_11">
      <!-- 1.0 -->
      <g transform="translate(7.2 24.017873) scale(0.1 -0.1)">
       <use xlink:href="#DejaVuSans-31"/>
       <use xlink:href="#DejaVuSans-2e" transform="translate(63.623047 0)"/>
       <use xlink:href="#DejaVuSans-30" transform="translate(95.410156 0)"/>
      </g>
     </g>
    </g>
   </g>
   <g id="line2d_11">
    <path d="M 47.85767 105.156258 
L 136.109227 105.156258 
L 136.804121 20.218654 
L 314.697023 20.218654 
L 315.391917 105.156258 
L 402.94858 105.156258 
L 402.94858 105.156258 
" clip-path="url(#p524ba58a82)" style="fill: none; stroke: #1f77b4; stroke-width: 1.5; stroke-linecap: square"/>
   </g>
   <g id="line2d_12">
    <path d="M 47.85767 101.994586 
L 49.942353 102.134677 
L 52.027035 102.543314 
L 54.111718 103.18649 
L 56.891294 104.313686 
L 63.840236 107.372873 
L 65.924918 108.029984 
L 68.009601 108.445315 
L 70.094283 108.576049 
L 72.178966 108.401982 
L 74.263648 107.927819 
L 76.34833 107.183614 
L 79.127907 105.867497 
L 86.771743 101.900214 
L 88.856425 101.181678 
L 90.246213 100.877059 
L 91.636002 100.734452 
L 93.02579 100.767547 
L 94.415578 100.984288 
L 95.805367 101.386321 
L 97.195155 101.968616 
L 99.279837 103.152149 
L 101.36452 104.644044 
L 104.838991 107.52744 
L 108.313461 110.342973 
L 110.398144 111.686058 
L 111.787932 112.33191 
L 113.17772 112.720885 
L 114.567509 112.807091 
L 115.957297 112.548868 
L 117.347085 111.909982 
L 118.736873 110.860706 
L 120.126662 109.378752 
L 121.51645 107.450034 
L 122.906238 105.069238 
L 124.296027 102.240167 
L 125.685815 98.975878 
L 127.770497 93.314398 
L 129.85518 86.83722 
L 132.634756 77.19849 
L 136.804121 61.5262 
L 140.973486 45.953374 
L 143.753063 36.485318 
L 145.837745 30.183563 
L 147.922428 24.731025 
L 149.312216 21.620889 
L 150.702004 18.954961 
L 152.091792 16.743676 
L 153.481581 14.988148 
L 154.871369 13.680356 
L 156.261157 12.803541 
L 157.650946 12.332829 
L 159.040734 12.236033 
L 160.430522 12.474639 
L 161.820311 13.004924 
L 163.210099 13.779186 
L 165.294781 15.287439 
L 168.074358 17.674785 
L 172.243723 21.266446 
L 174.328405 22.760591 
L 176.413088 23.912922 
L 177.802876 24.45808 
L 179.192664 24.811803 
L 180.582453 24.970884 
L 181.972241 24.938918 
L 183.362029 24.725883 
L 185.446712 24.102716 
L 187.531394 23.182338 
L 190.310971 21.653765 
L 195.870124 18.484784 
L 197.954806 17.556081 
L 200.039489 16.88809 
L 202.124171 16.526701 
L 204.208854 16.491889 
L 206.293536 16.776998 
L 208.378218 17.350004 
L 210.462901 18.156632 
L 213.937372 19.819643 
L 218.106736 21.851324 
L 220.191419 22.683639 
L 222.276101 23.298207 
L 224.360784 23.644822 
L 226.445466 23.695252 
L 228.530149 23.445393 
L 230.614831 22.915585 
L 232.699514 22.149059 
L 235.47909 20.869592 
L 241.733137 17.865931 
L 243.81782 17.129951 
L 245.902502 16.647896 
L 247.987185 16.467075 
L 250.071867 16.611314 
L 252.15655 17.078437 
L 254.241232 17.839652 
L 256.325915 18.840934 
L 259.800385 20.829237 
L 263.274856 22.82503 
L 265.359538 23.824709 
L 267.444221 24.556186 
L 268.834009 24.854176 
L 270.223797 24.978301 
L 271.613586 24.915604 
L 273.003374 24.659235 
L 274.393162 24.208957 
L 275.782951 23.57148 
L 277.867633 22.296347 
L 279.952316 20.708478 
L 283.426786 17.674785 
L 286.206363 15.287439 
L 288.291045 13.779186 
L 289.680834 13.004924 
L 291.070622 12.474639 
L 292.46041 12.236033 
L 293.850198 12.332829 
L 295.239987 12.803541 
L 296.629775 13.680356 
L 298.019563 14.988148 
L 299.409352 16.743676 
L 300.79914 18.954961 
L 302.188928 21.620889 
L 303.578717 24.731025 
L 304.968505 28.265672 
L 307.053187 34.298532 
L 309.13787 41.088291 
L 311.917446 51.023158 
L 320.95107 84.522019 
L 323.035753 91.239262 
L 325.120435 97.187114 
L 326.510223 100.661249 
L 327.900012 103.710138 
L 329.2898 106.316125 
L 330.679588 108.470781 
L 332.069377 110.174894 
L 333.459165 111.43822 
L 334.848953 112.27903 
L 336.238741 112.723438 
L 337.62853 112.804552 
L 339.018318 112.56146 
L 340.408106 112.038095 
L 341.797895 111.281988 
L 343.882577 109.82075 
L 346.662154 107.52744 
L 350.136624 104.644044 
L 352.221307 103.152149 
L 354.305989 101.968616 
L 355.695778 101.386321 
L 357.085566 100.984288 
L 358.475354 100.767547 
L 359.865142 100.734452 
L 361.254931 100.877059 
L 363.339613 101.389062 
L 365.424296 102.197789 
L 368.203872 103.58797 
L 374.45792 106.884223 
L 376.542602 107.707559 
L 378.627284 108.276303 
L 380.711967 108.552186 
L 382.796649 108.522008 
L 384.881332 108.197835 
L 386.966014 107.61531 
L 389.745591 106.535468 
L 398.084321 102.948988 
L 400.169003 102.378924 
L 402.253685 102.057091 
L 402.94858 102.010249 
L 402.94858 102.010249 
" clip-path="url(#p524ba58a82)" style="fill: none; stroke: #ff7f0e; stroke-width: 1.5; stroke-linecap: square"/>
   </g>
   <g id="line2d_13">
    <path d="M 47.85767 103.648671 
L 49.247459 103.829029 
L 50.637247 104.327318 
L 55.501506 106.54369 
L 56.891294 106.677247 
L 58.281083 106.446527 
L 59.670871 105.903874 
L 63.840236 103.860698 
L 65.230024 103.589682 
L 66.619812 103.69234 
L 68.009601 104.149607 
L 70.094283 105.25499 
L 72.178966 106.338982 
L 73.568754 106.756044 
L 74.958542 106.795215 
L 76.34833 106.438407 
L 77.738119 105.761928 
L 81.21259 103.784109 
L 82.602378 103.380288 
L 83.992166 103.395556 
L 85.381954 103.840194 
L 86.771743 104.621702 
L 89.551319 106.443006 
L 90.941108 107.044839 
L 91.636002 107.188629 
L 92.330896 107.210587 
L 93.02579 107.106587 
L 94.415578 106.541736 
L 95.805367 105.607708 
L 98.584943 103.515653 
L 99.974731 102.86527 
L 100.669626 102.730647 
L 101.36452 102.742125 
L 102.059414 102.903712 
L 102.754308 103.210491 
L 104.144096 104.195874 
L 108.313461 107.81525 
L 109.008355 108.114113 
L 109.70325 108.240619 
L 110.398144 108.179085 
L 111.093038 107.924398 
L 111.787932 107.482794 
L 113.17772 106.120924 
L 116.652191 101.853175 
L 117.347085 101.273377 
L 118.041979 100.904871 
L 118.736873 100.785569 
L 119.431768 100.941386 
L 120.126662 101.383962 
L 120.821556 102.108986 
L 121.51645 103.095231 
L 122.906238 105.681537 
L 124.990921 110.061744 
L 125.685815 111.299673 
L 126.380709 112.26023 
L 127.075603 112.843773 
L 127.770497 112.956694 
L 128.465392 112.515605 
L 129.160286 111.451203 
L 129.85518 109.711657 
L 130.550074 107.265351 
L 131.244968 104.102849 
L 131.939862 100.237977 
L 133.329651 90.572648 
L 134.719439 78.82705 
L 139.583698 34.66239 
L 140.973486 25.15815 
L 141.66838 21.374471 
L 142.363274 18.286763 
L 143.058169 15.904147 
L 143.753063 14.213173 
L 144.447957 13.179161 
L 145.142851 12.748354 
L 145.837745 12.850786 
L 146.532639 13.403705 
L 147.227533 14.31541 
L 148.617322 16.828008 
L 150.702004 20.927765 
L 152.091792 22.99598 
L 152.786687 23.68098 
L 153.481581 24.102981 
L 154.176475 24.259002 
L 154.871369 24.160711 
L 155.566263 23.83274 
L 156.261157 23.310492 
L 157.650946 21.862847 
L 159.735628 19.436508 
L 161.125416 18.188968 
L 161.820311 17.778253 
L 162.515205 17.53389 
L 163.210099 17.461409 
L 163.904993 17.556321 
L 164.599887 17.804873 
L 165.989675 18.66919 
L 169.464146 21.445901 
L 170.853934 22.128458 
L 171.548829 22.290453 
L 172.243723 22.323923 
L 172.938617 22.231576 
L 174.328405 21.71516 
L 175.718193 20.888871 
L 178.49777 19.14523 
L 179.887558 18.623233 
L 181.277347 18.496112 
L 182.667135 18.771591 
L 184.056923 19.366272 
L 187.531394 21.192268 
L 188.921182 21.615233 
L 190.310971 21.699325 
L 191.700759 21.438823 
L 193.090547 20.906425 
L 196.565018 19.308144 
L 197.954806 18.949906 
L 199.344594 18.895227 
L 200.734383 19.148011 
L 202.124171 19.641927 
L 205.598642 21.09387 
L 206.98843 21.408632 
L 208.378218 21.44161 
L 209.768007 21.190404 
L 211.852689 20.432271 
L 214.632266 19.355124 
L 216.022054 19.069564 
L 217.411842 19.05403 
L 218.801631 19.309658 
L 220.886313 20.053801 
L 223.66589 21.092973 
L 225.055678 21.359607 
L 226.445466 21.359607 
L 227.835255 21.092973 
L 229.919937 20.341495 
L 232.699514 19.309658 
L 234.089302 19.05403 
L 235.47909 19.069564 
L 236.868878 19.355124 
L 238.953561 20.136146 
L 241.038243 20.975627 
L 242.428032 21.349021 
L 243.81782 21.462106 
L 245.207608 21.283653 
L 246.597396 20.849873 
L 250.766761 19.148011 
L 252.15655 18.895227 
L 253.546338 18.949906 
L 254.936126 19.308144 
L 257.020809 20.233862 
L 259.105491 21.199433 
L 260.495279 21.609292 
L 261.885068 21.701949 
L 263.274856 21.442506 
L 264.664644 20.877804 
L 268.834009 18.771591 
L 270.223797 18.496112 
L 271.613586 18.623233 
L 273.003374 19.14523 
L 274.393162 19.959873 
L 277.172739 21.71516 
L 278.562527 22.231576 
L 279.257421 22.323923 
L 279.952316 22.290453 
L 280.64721 22.128458 
L 282.036998 21.445901 
L 283.426786 20.402987 
L 286.206363 18.185254 
L 286.901257 17.804873 
L 287.596151 17.556321 
L 288.291045 17.461409 
L 288.985939 17.53389 
L 289.680834 17.778253 
L 290.375728 18.188968 
L 291.765516 19.436508 
L 295.239987 23.310492 
L 295.934881 23.83274 
L 296.629775 24.160711 
L 297.324669 24.259002 
L 298.019563 24.102981 
L 298.714458 23.68098 
L 299.409352 22.99598 
L 300.104246 22.066662 
L 301.494034 19.629678 
L 303.578717 15.489308 
L 304.273611 14.31541 
L 304.968505 13.403705 
L 305.663399 12.850786 
L 306.358293 12.748354 
L 307.053187 13.179161 
L 307.748081 14.213173 
L 308.442976 15.904147 
L 309.13787 18.286763 
L 309.832764 21.374471 
L 310.527658 25.15815 
L 311.917446 34.66239 
L 313.307235 46.281648 
L 318.171494 90.572648 
L 319.561282 100.237977 
L 320.256176 104.102849 
L 320.95107 107.265351 
L 321.645964 109.711657 
L 322.340858 111.451203 
L 323.035753 112.515605 
L 323.730647 112.956694 
L 324.425541 112.843773 
L 325.120435 112.26023 
L 325.815329 111.299673 
L 327.205118 108.647845 
L 329.2898 104.304354 
L 330.679588 102.108986 
L 331.374482 101.383962 
L 332.069377 100.941386 
L 332.764271 100.785569 
L 333.459165 100.904871 
L 334.154059 101.273377 
L 334.848953 101.853175 
L 336.238741 103.451778 
L 338.323424 106.120924 
L 339.713212 107.482794 
L 340.408106 107.924398 
L 341.103 108.179085 
L 341.797895 108.240619 
L 342.492789 108.114113 
L 343.187683 107.81525 
L 344.577471 106.807581 
L 348.051942 103.648623 
L 348.746836 103.210491 
L 349.44173 102.903712 
L 350.136624 102.742125 
L 350.831519 102.730647 
L 351.526413 102.86527 
L 352.916201 103.515653 
L 354.305989 104.512907 
L 356.390672 106.109636 
L 357.78046 106.880013 
L 358.475354 107.106587 
L 359.170248 107.210587 
L 359.865142 107.188629 
L 361.254931 106.790455 
L 362.644719 106.025164 
L 366.11919 103.840194 
L 367.508978 103.395556 
L 368.898766 103.380288 
L 370.288555 103.784109 
L 371.678343 104.499601 
L 374.45792 106.13196 
L 375.847708 106.663671 
L 377.237496 106.826244 
L 378.627284 106.589954 
L 380.017073 106.019094 
L 384.186438 103.881342 
L 385.576226 103.593359 
L 386.966014 103.680843 
L 388.355802 104.117825 
L 390.440485 105.176346 
L 392.525167 106.20773 
L 393.914956 106.606136 
L 395.304744 106.655896 
L 396.694532 106.347689 
L 398.084321 105.756877 
L 401.558791 104.044307 
L 402.94858 103.69445 
L 402.94858 103.69445 
" clip-path="url(#p524ba58a82)" style="fill: none; stroke: #2ca02c; stroke-width: 1.5; stroke-linecap: square"/>
   </g>
   <g id="line2d_14">
    <path d="M 47.85767 105.845593 
L 48.552565 105.718629 
L 51.332141 104.467008 
L 52.027035 104.570492 
L 53.416824 105.30834 
L 54.111718 105.671369 
L 54.806612 105.845254 
L 55.501506 105.765457 
L 56.891294 105.04276 
L 57.586189 104.665303 
L 58.281083 104.467681 
L 58.975977 104.523429 
L 59.670871 104.812977 
L 61.060659 105.622502 
L 61.755553 105.844256 
L 62.450448 105.813078 
L 63.145342 105.539151 
L 64.53513 104.715444 
L 65.230024 104.468989 
L 65.924918 104.474897 
L 66.619812 104.732654 
L 68.009601 105.570742 
L 68.704495 105.84266 
L 69.399389 105.86292 
L 70.094283 105.622012 
L 72.178966 104.470844 
L 72.87386 104.423284 
L 73.568754 104.64652 
L 75.653436 105.840586 
L 76.34833 105.916849 
L 77.043225 105.712285 
L 79.127907 104.47308 
L 79.822801 104.366385 
L 80.517695 104.551065 
L 82.602378 105.838261 
L 83.297272 105.977524 
L 83.992166 105.814201 
L 86.771743 104.300918 
L 87.466637 104.441082 
L 88.856425 105.379211 
L 89.551319 105.836103 
L 90.246213 106.049083 
L 90.941108 105.934307 
L 91.636002 105.527831 
L 93.02579 104.477195 
L 93.720684 104.221562 
L 94.415578 104.308164 
L 95.110472 104.71263 
L 96.500261 105.834946 
L 97.195155 106.138526 
L 97.890049 106.083639 
L 98.584943 105.681343 
L 99.974731 104.477277 
L 100.669626 104.118877 
L 101.36452 104.137462 
L 102.059414 104.537426 
L 103.449202 105.836599 
L 104.144096 106.258937 
L 104.838991 106.282735 
L 105.533885 105.885266 
L 107.618567 103.97414 
L 108.313461 103.899656 
L 109.008355 104.294464 
L 111.093038 106.438144 
L 111.787932 106.575065 
L 112.482826 106.183086 
L 114.567509 103.744022 
L 115.262403 103.527241 
L 115.957297 103.916223 
L 116.652191 104.800222 
L 118.041979 106.747701 
L 118.736873 107.071789 
L 119.431768 106.685976 
L 120.126662 105.684247 
L 121.51645 103.300819 
L 122.211344 102.822412 
L 122.906238 103.204881 
L 123.601132 104.384217 
L 124.990921 107.441598 
L 125.685815 108.165357 
L 126.380709 107.786407 
L 127.075603 106.30521 
L 128.465392 102.048734 
L 129.160286 100.864559 
L 129.85518 101.239809 
L 130.550074 103.354565 
L 131.939862 110.397047 
L 132.634756 112.794171 
L 133.329651 112.422804 
L 134.024545 108.098144 
L 134.719439 99.326846 
L 135.414333 86.49639 
L 138.19391 26.041284 
L 138.888804 17.454778 
L 139.583698 13.248747 
L 140.278592 12.88571 
L 140.973486 15.177724 
L 142.363274 21.853518 
L 143.058169 23.843037 
L 143.753063 24.20162 
L 144.447957 23.11563 
L 145.837745 19.225162 
L 146.532639 17.875715 
L 147.227533 17.521786 
L 147.922428 18.154406 
L 150.00711 21.887961 
L 150.702004 22.237032 
L 151.396898 21.842589 
L 153.481581 18.965571 
L 154.176475 18.621568 
L 154.871369 18.869001 
L 155.566263 19.574204 
L 156.956052 21.187789 
L 157.650946 21.526508 
L 158.34584 21.378928 
L 159.040734 20.829884 
L 160.430522 19.45668 
L 161.125416 19.123467 
L 161.820311 19.198796 
L 162.515205 19.632024 
L 163.904993 20.82196 
L 164.599887 21.149436 
L 165.294781 21.128774 
L 165.989675 20.785385 
L 167.379464 19.741436 
L 168.074358 19.419933 
L 168.769252 19.397855 
L 169.464146 19.669132 
L 171.548829 20.90802 
L 172.243723 20.964347 
L 172.938617 20.752539 
L 175.023299 19.622109 
L 175.718193 19.537813 
L 176.413088 19.699502 
L 178.49777 20.734774 
L 179.192664 20.842239 
L 179.887558 20.723555 
L 182.667135 19.646578 
L 183.362029 19.727802 
L 186.141606 20.74364 
L 186.8365 20.69546 
L 188.226288 20.174517 
L 188.921182 19.894418 
L 189.616076 19.737324 
L 190.310971 19.756036 
L 191.700759 20.217989 
L 193.090547 20.659015 
L 193.785441 20.666829 
L 195.17523 20.259887 
L 196.565018 19.817156 
L 197.259912 19.785269 
L 198.6497 20.140408 
L 200.039489 20.582932 
L 200.734383 20.636819 
L 201.429277 20.540478 
L 204.208854 19.81621 
L 204.903748 19.886905 
L 207.683324 20.604803 
L 208.378218 20.558539 
L 211.157795 19.849444 
L 211.852689 19.872281 
L 213.242477 20.235119 
L 214.632266 20.570206 
L 215.32716 20.56997 
L 216.716948 20.238554 
L 218.106736 19.885555 
L 218.801631 19.863859 
L 220.191419 20.163351 
L 221.581207 20.532418 
L 222.276101 20.575516 
L 223.66589 20.308618 
L 225.055678 19.925203 
L 225.750572 19.861106 
L 227.14036 20.09457 
L 228.530149 20.490706 
L 229.225043 20.575516 
L 229.919937 20.532418 
L 232.699514 19.863859 
L 233.394408 19.885555 
L 234.784196 20.238554 
L 236.173984 20.56997 
L 236.868878 20.570206 
L 238.258667 20.235119 
L 239.648455 19.872281 
L 240.343349 19.849444 
L 241.733137 20.164619 
L 243.122926 20.558539 
L 243.81782 20.604803 
L 245.207608 20.31174 
L 246.597396 19.886905 
L 247.292291 19.81621 
L 247.987185 19.890331 
L 250.766761 20.636819 
L 251.461656 20.582932 
L 254.241232 19.785269 
L 254.936126 19.817156 
L 256.325915 20.259887 
L 257.715703 20.666829 
L 258.410597 20.659015 
L 259.800385 20.217989 
L 261.190174 19.756036 
L 261.885068 19.737324 
L 262.579962 19.894418 
L 264.664644 20.69546 
L 265.359538 20.74364 
L 266.054433 20.600415 
L 268.139115 19.727802 
L 268.834009 19.646578 
L 269.528903 19.773439 
L 272.30848 20.842239 
L 273.003374 20.734774 
L 274.393162 20.04045 
L 275.088057 19.699502 
L 275.782951 19.537813 
L 276.477845 19.622109 
L 277.867633 20.358946 
L 278.562527 20.752539 
L 279.257421 20.964347 
L 279.952316 20.90802 
L 280.64721 20.592738 
L 282.036998 19.669132 
L 282.731892 19.397855 
L 283.426786 19.419933 
L 284.12168 19.741436 
L 285.511469 20.785385 
L 286.206363 21.128774 
L 286.901257 21.149436 
L 287.596151 20.82196 
L 289.680834 19.198796 
L 290.375728 19.123467 
L 291.070622 19.45668 
L 293.155304 21.378928 
L 293.850198 21.526508 
L 294.545093 21.187789 
L 296.629775 18.869001 
L 297.324669 18.621568 
L 298.019563 18.965571 
L 298.714458 19.822782 
L 300.104246 21.842589 
L 300.79914 22.237032 
L 301.494034 21.887961 
L 302.188928 20.846801 
L 303.578717 18.154406 
L 304.273611 17.521786 
L 304.968505 17.875715 
L 305.663399 19.225162 
L 307.053187 23.11563 
L 307.748081 24.20162 
L 308.442976 23.843037 
L 309.13787 21.853518 
L 310.527658 15.177724 
L 311.222552 12.88571 
L 311.917446 13.248747 
L 312.61234 17.454778 
L 313.307235 26.041284 
L 314.002129 38.689505 
L 316.781705 99.326846 
L 317.476599 108.098144 
L 318.171494 112.422804 
L 318.866388 112.794171 
L 319.561282 110.397047 
L 320.95107 103.354565 
L 321.645964 101.239809 
L 322.340858 100.864559 
L 323.035753 102.048734 
L 324.425541 106.30521 
L 325.120435 107.786407 
L 325.815329 108.165357 
L 326.510223 107.441598 
L 328.594906 103.204881 
L 329.2898 102.822412 
L 329.984694 103.300819 
L 332.069377 106.685976 
L 332.764271 107.071789 
L 333.459165 106.747701 
L 334.154059 105.875676 
L 335.543847 103.916223 
L 336.238741 103.527241 
L 336.933636 103.744022 
L 337.62853 104.456251 
L 339.018318 106.183086 
L 339.713212 106.575065 
L 340.408106 106.438144 
L 341.103 105.845565 
L 342.492789 104.294464 
L 343.187683 103.899656 
L 343.882577 103.97414 
L 344.577471 104.472842 
L 345.967259 105.885266 
L 346.662154 106.282735 
L 347.357048 106.258937 
L 348.051942 105.836599 
L 349.44173 104.537426 
L 350.136624 104.137462 
L 350.831519 104.118877 
L 351.526413 104.477277 
L 352.916201 105.681343 
L 353.611095 106.083639 
L 354.305989 106.138526 
L 355.000883 105.834946 
L 357.085566 104.308164 
L 357.78046 104.221562 
L 358.475354 104.477195 
L 360.560037 105.934307 
L 361.254931 106.049083 
L 361.949825 105.836103 
L 364.034507 104.441082 
L 364.729401 104.300918 
L 365.424296 104.475393 
L 367.508978 105.814201 
L 368.203872 105.977524 
L 368.898766 105.838261 
L 370.288555 104.962618 
L 370.983449 104.551065 
L 371.678343 104.366385 
L 372.373237 104.47308 
L 373.763025 105.299353 
L 374.45792 105.712285 
L 375.152814 105.916849 
L 375.847708 105.840586 
L 376.542602 105.51452 
L 377.93239 104.64652 
L 378.627284 104.423284 
L 379.322179 104.470844 
L 380.017073 104.769211 
L 381.406861 105.622012 
L 382.101755 105.86292 
L 382.796649 105.84266 
L 383.491543 105.570742 
L 384.881332 104.732654 
L 385.576226 104.474897 
L 386.27112 104.468989 
L 386.966014 104.715444 
L 389.050697 105.813078 
L 389.745591 105.844256 
L 390.440485 105.622502 
L 392.525167 104.523429 
L 393.220061 104.467681 
L 393.914956 104.665303 
L 395.999638 105.765457 
L 396.694532 105.845254 
L 397.389426 105.671369 
L 399.474109 104.570492 
L 400.169003 104.467008 
L 400.863897 104.61739 
L 402.94858 105.718629 
L 402.94858 105.718629 
" clip-path="url(#p524ba58a82)" style="fill: none; stroke: #d62728; stroke-width: 1.5; stroke-linecap: square"/>
   </g>
   <g id="patch_3">
    <path d="M 30.103125 117.992727 
L 30.103125 7.2 
" style="fill: none; stroke: #000000; stroke-width: 0.8; stroke-linejoin: miter; stroke-linecap: square"/>
   </g>
   <g id="patch_4">
    <path d="M 420.703125 117.992727 
L 420.703125 7.2 
" style="fill: none; stroke: #000000; stroke-width: 0.8; stroke-linejoin: miter; stroke-linecap: square"/>
   </g>
   <g id="patch_5">
    <path d="M 30.103125 117.992727 
L 420.703125 117.992727 
" style="fill: none; stroke: #000000; stroke-width: 0.8; stroke-linejoin: miter; stroke-linecap: square"/>
   </g>
   <g id="patch_6">
    <path d="M 30.103125 7.2 
L 420.703125 7.2 
" style="fill: none; stroke: #000000; stroke-width: 0.8; stroke-linejoin: miter; stroke-linecap: square"/>
   </g>
   <g id="legend_1">
    <g id="patch_7">
     <path d="M 368.903125 84.078125 
L 413.703125 84.078125 
Q 415.703125 84.078125 415.703125 82.078125 
L 415.703125 14.2 
Q 415.703125 12.2 413.703125 12.2 
L 368.903125 12.2 
Q 366.903125 12.2 366.903125 14.2 
L 366.903125 82.078125 
Q 366.903125 84.078125 368.903125 84.078125 
z
" style="fill: #ffffff; opacity: 0.8; stroke: #cccccc; stroke-linejoin: miter"/>
    </g>
    <g id="line2d_15">
     <path d="M 370.903125 20.298437 
L 380.903125 20.298437 
L 390.903125 20.298437 
" style="fill: none; stroke: #1f77b4; stroke-width: 1.5; stroke-linecap: square"/>
    </g>
    <g id="text_12">
     <!-- $f$ -->
     <g transform="translate(398.903125 23.798437) scale(0.1 -0.1)">
      <defs>
       <path id="DejaVuSans-Oblique-66" d="M 3059 4863 
L 2969 4384 
L 2419 4384 
Q 2106 4384 1964 4261 
Q 1822 4138 1753 3809 
L 1691 3500 
L 2638 3500 
L 2553 3053 
L 1606 3053 
L 1013 0 
L 434 0 
L 1031 3053 
L 481 3053 
L 563 3500 
L 1113 3500 
L 1159 3744 
Q 1278 4363 1576 4613 
Q 1875 4863 2516 4863 
L 3059 4863 
z
" transform="scale(0.015625)"/>
      </defs>
      <use xlink:href="#DejaVuSans-Oblique-66" transform="translate(0 0.015625)"/>
     </g>
    </g>
    <g id="line2d_16">
     <path d="M 370.903125 38.298437 
L 380.903125 38.298437 
L 390.903125 38.298437 
" style="fill: none; stroke: #ff7f0e; stroke-width: 1.5; stroke-linecap: square"/>
    </g>
    <g id="text_13">
     <!-- $\hat{f}_7$ -->
     <g transform="translate(398.903125 41.798437) scale(0.1 -0.1)">
      <defs>
       <path id="DejaVuSans-302" d="M -1831 5119 
L -1369 5119 
L -603 3944 
L -1038 3944 
L -1600 4709 
L -2163 3944 
L -2597 3944 
L -1831 5119 
z
M -1600 3584 
L -1600 3584 
z
" transform="scale(0.015625)"/>
       <path id="DejaVuSans-37" d="M 525 4666 
L 3525 4666 
L 3525 4397 
L 1831 0 
L 1172 0 
L 2766 4134 
L 525 4134 
L 525 4666 
z
" transform="scale(0.015625)"/>
      </defs>
      <use xlink:href="#DejaVuSans-302" transform="translate(47.379395 33.015625)"/>
      <use xlink:href="#DejaVuSans-Oblique-66" transform="translate(0 0.53125)"/>
      <use xlink:href="#DejaVuSans-37" transform="translate(36.162109 -15.875) scale(0.7)"/>
     </g>
    </g>
    <g id="line2d_17">
     <path d="M 370.903125 56.398437 
L 380.903125 56.398437 
L 390.903125 56.398437 
" style="fill: none; stroke: #2ca02c; stroke-width: 1.5; stroke-linecap: square"/>
    </g>
    <g id="text_14">
     <!-- $\hat{f}_{20}$ -->
     <g transform="translate(398.903125 59.898437) scale(0.1 -0.1)">
      <use xlink:href="#DejaVuSans-302" transform="translate(47.379395 33.015625)"/>
      <use xlink:href="#DejaVuSans-Oblique-66" transform="translate(0 0.53125)"/>
      <use xlink:href="#DejaVuSans-32" transform="translate(36.162109 -15.875) scale(0.7)"/>
      <use xlink:href="#DejaVuSans-30" transform="translate(80.698242 -15.875) scale(0.7)"/>
     </g>
    </g>
    <g id="line2d_18">
     <path d="M 370.903125 74.498437 
L 380.903125 74.498437 
L 390.903125 74.498437 
" style="fill: none; stroke: #d62728; stroke-width: 1.5; stroke-linecap: square"/>
    </g>
    <g id="text_15">
     <!-- $\hat{f}_{50}$ -->
     <g transform="translate(398.903125 77.998437) scale(0.1 -0.1)">
      <use xlink:href="#DejaVuSans-302" transform="translate(47.379395 33.015625)"/>
      <use xlink:href="#DejaVuSans-Oblique-66" transform="translate(0 0.53125)"/>
      <use xlink:href="#DejaVuSans-35" transform="translate(36.162109 -15.875) scale(0.7)"/>
      <use xlink:href="#DejaVuSans-30" transform="translate(80.698242 -15.875) scale(0.7)"/>
     </g>
    </g>
   </g>
  </g>
 </g>
 <defs>
  <clipPath id="p524ba58a82">
   <rect x="30.103125" y="7.2" width="390.6" height="110.792727"/>
  </clipPath>
 </defs>
</svg>
