<?xml version="1.0" encoding="utf-8" standalone="no"?>
<!DOCTYPE svg PUBLIC "-//W3C//DTD SVG 1.1//EN"
  "http://www.w3.org/Graphics/SVG/1.1/DTD/svg11.dtd">
<svg xmlns:xlink="http://www.w3.org/1999/xlink" width="449.960938pt" height="169.124105pt" viewBox="0 0 449.960938 169.124105" xmlns="http://www.w3.org/2000/svg" version="1.1">
 <metadata>
  <rdf:RDF xmlns:dc="http://purl.org/dc/elements/1.1/" xmlns:cc="http://creativecommons.org/ns#" xmlns:rdf="http://www.w3.org/1999/02/22-rdf-syntax-ns#">
   <cc:Work>
    <dc:type rdf:resource="http://purl.org/dc/dcmitype/StillImage"/>
    <dc:date>2025-11-17T20:51:04.736800</dc:date>
    <dc:format>image/svg+xml</dc:format>
    <dc:creator>
     <cc:Agent>
      <dc:title>Matplotlib v3.10.3, https://matplotlib.org/</dc:title>
     </cc:Agent>
    </dc:creator>
   </cc:Work>
  </rdf:RDF>
 </metadata>
 <defs>
  <style type="text/css">*{stroke-linejoin: round; stroke-linecap: butt}</style>
 </defs>
 <g id="figure_1">
  <g id="patch_1">
   <path d="M 0 169.124105 
L 449.960938 169.124105 
L 449.960938 0 
L 0 0 
z
" style="fill: #ffffff"/>
  </g>
  <g id="axes_1">
   <g id="patch_2">
    <path d="M 52.160938 131.567855 
L 442.760938 131.567855 
L 442.760938 9.726216 
L 52.160938 9.726216 
z
" style="fill: #ffffff"/>
   </g>
   <g id="matplotlib.axis_1">
    <g id="xtick_1">
     <g id="line2d_1">
      <defs>
       <path id="m1a84061e97" d="M 0 0 
L 0 3.5 
" style="stroke: #000000; stroke-width: 0.8"/>
      </defs>
      <g>
       <use xlink:href="#m1a84061e97" x="69.915483" y="131.567855" style="stroke: #000000; stroke-width: 0.8"/>
      </g>
     </g>
     <g id="text_1">
      <!-- −15 -->
      <g transform="translate(59.363139 146.166292) scale(0.1 -0.1)">
       <defs>
        <path id="DejaVuSans-2212" d="M 678 2272 
L 4684 2272 
L 4684 1741 
L 678 1741 
L 678 2272 
z
" transform="scale(0.015625)"/>
        <path id="DejaVuSans-31" d="M 794 531 
L 1825 531 
L 1825 4091 
L 703 3866 
L 703 4441 
L 1819 4666 
L 2450 4666 
L 2450 531 
L 3481 531 
L 3481 0 
L 794 0 
L 794 531 
z
" transform="scale(0.015625)"/>
        <path id="DejaVuSans-35" d="M 691 4666 
L 3169 4666 
L 3169 4134 
L 1269 4134 
L 1269 2991 
Q 1406 3038 1543 3061 
Q 1681 3084 1819 3084 
Q 2600 3084 3056 2656 
Q 3513 2228 3513 1497 
Q 3513 744 3044 326 
Q 2575 -91 1722 -91 
Q 1428 -91 1123 -41 
Q 819 9 494 109 
L 494 744 
Q 775 591 1075 516 
Q 1375 441 1709 441 
Q 2250 441 2565 725 
Q 2881 1009 2881 1497 
Q 2881 1984 2565 2268 
Q 2250 2553 1709 2553 
Q 1456 2553 1204 2497 
Q 953 2441 691 2322 
L 691 4666 
z
" transform="scale(0.015625)"/>
       </defs>
       <use xlink:href="#DejaVuSans-2212"/>
       <use xlink:href="#DejaVuSans-31" transform="translate(83.789062 0)"/>
       <use xlink:href="#DejaVuSans-35" transform="translate(147.412109 0)"/>
      </g>
     </g>
    </g>
    <g id="xtick_2">
     <g id="line2d_2">
      <g>
       <use xlink:href="#m1a84061e97" x="129.5633" y="131.567855" style="stroke: #000000; stroke-width: 0.8"/>
      </g>
     </g>
     <g id="text_2">
      <!-- −10 -->
      <g transform="translate(119.010956 146.166292) scale(0.1 -0.1)">
       <defs>
        <path id="DejaVuSans-30" d="M 2034 4250 
Q 1547 4250 1301 3770 
Q 1056 3291 1056 2328 
Q 1056 1369 1301 889 
Q 1547 409 2034 409 
Q 2525 409 2770 889 
Q 3016 1369 3016 2328 
Q 3016 3291 2770 3770 
Q 2525 4250 2034 4250 
z
M 2034 4750 
Q 2819 4750 3233 4129 
Q 3647 3509 3647 2328 
Q 3647 1150 3233 529 
Q 2819 -91 2034 -91 
Q 1250 -91 836 529 
Q 422 1150 422 2328 
Q 422 3509 836 4129 
Q 1250 4750 2034 4750 
z
" transform="scale(0.015625)"/>
       </defs>
       <use xlink:href="#DejaVuSans-2212"/>
       <use xlink:href="#DejaVuSans-31" transform="translate(83.789062 0)"/>
       <use xlink:href="#DejaVuSans-30" transform="translate(147.412109 0)"/>
      </g>
     </g>
    </g>
    <g id="xtick_3">
     <g id="line2d_3">
      <g>
       <use xlink:href="#m1a84061e97" x="189.211116" y="131.567855" style="stroke: #000000; stroke-width: 0.8"/>
      </g>
     </g>
     <g id="text_3">
      <!-- −5 -->
      <g transform="translate(181.840023 146.166292) scale(0.1 -0.1)">
       <use xlink:href="#DejaVuSans-2212"/>
       <use xlink:href="#DejaVuSans-35" transform="translate(83.789062 0)"/>
      </g>
     </g>
    </g>
    <g id="xtick_4">
     <g id="line2d_4">
      <g>
       <use xlink:href="#m1a84061e97" x="248.858933" y="131.567855" style="stroke: #000000; stroke-width: 0.8"/>
      </g>
     </g>
     <g id="text_4">
      <!-- 0 -->
      <g transform="translate(245.677683 146.166292) scale(0.1 -0.1)">
       <use xlink:href="#DejaVuSans-30"/>
      </g>
     </g>
    </g>
    <g id="xtick_5">
     <g id="line2d_5">
      <g>
       <use xlink:href="#m1a84061e97" x="308.50675" y="131.567855" style="stroke: #000000; stroke-width: 0.8"/>
      </g>
     </g>
     <g id="text_5">
      <!-- 5 -->
      <g transform="translate(305.3255 146.166292) scale(0.1 -0.1)">
       <use xlink:href="#DejaVuSans-35"/>
      </g>
     </g>
    </g>
    <g id="xtick_6">
     <g id="line2d_6">
      <g>
       <use xlink:href="#m1a84061e97" x="368.154567" y="131.567855" style="stroke: #000000; stroke-width: 0.8"/>
      </g>
     </g>
     <g id="text_6">
      <!-- 10 -->
      <g transform="translate(361.792067 146.166292) scale(0.1 -0.1)">
       <use xlink:href="#DejaVuSans-31"/>
       <use xlink:href="#DejaVuSans-30" transform="translate(63.623047 0)"/>
      </g>
     </g>
    </g>
    <g id="xtick_7">
     <g id="line2d_7">
      <g>
       <use xlink:href="#m1a84061e97" x="427.802383" y="131.567855" style="stroke: #000000; stroke-width: 0.8"/>
      </g>
     </g>
     <g id="text_7">
      <!-- 15 -->
      <g transform="translate(421.439883 146.166292) scale(0.1 -0.1)">
       <use xlink:href="#DejaVuSans-31"/>
       <use xlink:href="#DejaVuSans-35" transform="translate(63.623047 0)"/>
      </g>
     </g>
    </g>
    <g id="text_8">
     <!-- t -->
     <g transform="translate(245.500781 159.844417) scale(0.1 -0.1)">
      <defs>
       <path id="DejaVuSans-74" d="M 1172 4494 
L 1172 3500 
L 2356 3500 
L 2356 3053 
L 1172 3053 
L 1172 1153 
Q 1172 725 1289 603 
Q 1406 481 1766 481 
L 2356 481 
L 2356 0 
L 1766 0 
Q 1100 0 847 248 
Q 594 497 594 1153 
L 594 3053 
L 172 3053 
L 172 3500 
L 594 3500 
L 594 4494 
L 1172 4494 
z
" transform="scale(0.015625)"/>
      </defs>
      <use xlink:href="#DejaVuSans-74"/>
     </g>
    </g>
   </g>
   <g id="matplotlib.axis_2">
    <g id="ytick_1">
     <g id="line2d_8">
      <defs>
       <path id="m83551351f6" d="M 0 0 
L -3.5 0 
" style="stroke: #000000; stroke-width: 0.8"/>
      </defs>
      <g>
       <use xlink:href="#m83551351f6" x="52.160938" y="130.294852" style="stroke: #000000; stroke-width: 0.8"/>
      </g>
     </g>
     <g id="text_9">
      <!-- −1.0 -->
      <g transform="translate(20.878125 134.094071) scale(0.1 -0.1)">
       <defs>
        <path id="DejaVuSans-2e" d="M 684 794 
L 1344 794 
L 1344 0 
L 684 0 
L 684 794 
z
" transform="scale(0.015625)"/>
       </defs>
       <use xlink:href="#DejaVuSans-2212"/>
       <use xlink:href="#DejaVuSans-31" transform="translate(83.789062 0)"/>
       <use xlink:href="#DejaVuSans-2e" transform="translate(147.412109 0)"/>
       <use xlink:href="#DejaVuSans-30" transform="translate(179.199219 0)"/>
      </g>
     </g>
    </g>
    <g id="ytick_2">
     <g id="line2d_9">
      <g>
       <use xlink:href="#m83551351f6" x="52.160938" y="100.470944" style="stroke: #000000; stroke-width: 0.8"/>
      </g>
     </g>
     <g id="text_10">
      <!-- −0.5 -->
      <g transform="translate(20.878125 104.270163) scale(0.1 -0.1)">
       <use xlink:href="#DejaVuSans-2212"/>
       <use xlink:href="#DejaVuSans-30" transform="translate(83.789062 0)"/>
       <use xlink:href="#DejaVuSans-2e" transform="translate(147.412109 0)"/>
       <use xlink:href="#DejaVuSans-35" transform="translate(179.199219 0)"/>
      </g>
     </g>
    </g>
    <g id="ytick_3">
     <g id="line2d_10">
      <g>
       <use xlink:href="#m83551351f6" x="52.160938" y="70.647036" style="stroke: #000000; stroke-width: 0.8"/>
      </g>
     </g>
     <g id="text_11">
      <!-- 0.0 -->
      <g transform="translate(29.257812 74.446254) scale(0.1 -0.1)">
       <use xlink:href="#DejaVuSans-30"/>
       <use xlink:href="#DejaVuSans-2e" transform="translate(63.623047 0)"/>
       <use xlink:href="#DejaVuSans-30" transform="translate(95.410156 0)"/>
      </g>
     </g>
    </g>
    <g id="ytick_4">
     <g id="line2d_11">
      <g>
       <use xlink:href="#m83551351f6" x="52.160938" y="40.823127" style="stroke: #000000; stroke-width: 0.8"/>
      </g>
     </g>
     <g id="text_12">
      <!-- 0.5 -->
      <g transform="translate(29.257812 44.622346) scale(0.1 -0.1)">
       <use xlink:href="#DejaVuSans-30"/>
       <use xlink:href="#DejaVuSans-2e" transform="translate(63.623047 0)"/>
       <use xlink:href="#DejaVuSans-35" transform="translate(95.410156 0)"/>
      </g>
     </g>
    </g>
    <g id="ytick_5">
     <g id="line2d_12">
      <g>
       <use xlink:href="#m83551351f6" x="52.160938" y="10.999219" style="stroke: #000000; stroke-width: 0.8"/>
      </g>
     </g>
     <g id="text_13">
      <!-- 1.0 -->
      <g transform="translate(29.257812 14.798437) scale(0.1 -0.1)">
       <use xlink:href="#DejaVuSans-31"/>
       <use xlink:href="#DejaVuSans-2e" transform="translate(63.623047 0)"/>
       <use xlink:href="#DejaVuSans-30" transform="translate(95.410156 0)"/>
      </g>
     </g>
    </g>
    <g id="text_14">
     <!-- $\partial_t f$ -->
     <g transform="translate(14.798438 76.597036) rotate(-90) scale(0.1 -0.1)">
      <defs>
       <path id="DejaVuSans-2202" d="M 1366 -91 
Q 925 -91 638 175 
Q 297 491 297 1063 
Q 297 1656 597 2119 
Q 906 2594 1463 2594 
Q 1828 2594 2116 2366 
Q 2284 2231 2400 2006 
Q 2441 2259 2441 2547 
Q 2441 2969 2341 3213 
Q 2119 3753 1531 3753 
Q 1309 3753 966 3616 
L 966 4141 
Q 1328 4238 1653 4238 
Q 2491 4238 2847 3469 
Q 3013 3106 3013 2566 
Q 3013 2213 2934 1803 
Q 2738 778 2228 291 
Q 1828 -91 1366 -91 
z
M 831 969 
Q 831 656 969 488 
Q 1116 309 1341 309 
Q 1541 309 1700 450 
Q 1925 644 2091 959 
Q 2228 1219 2297 1497 
Q 2019 2169 1538 2169 
Q 1125 2169 944 1625 
Q 831 1288 831 969 
z
" transform="scale(0.015625)"/>
       <path id="DejaVuSans-Oblique-74" d="M 2706 3500 
L 2619 3053 
L 1472 3053 
L 1100 1153 
Q 1081 1047 1072 975 
Q 1063 903 1063 863 
Q 1063 663 1183 572 
Q 1303 481 1569 481 
L 2150 481 
L 2053 0 
L 1503 0 
Q 991 0 739 200 
Q 488 400 488 806 
Q 488 878 497 964 
Q 506 1050 525 1153 
L 897 3053 
L 409 3053 
L 500 3500 
L 978 3500 
L 1172 4494 
L 1747 4494 
L 1556 3500 
L 2706 3500 
z
" transform="scale(0.015625)"/>
       <path id="DejaVuSans-Oblique-66" d="M 3059 4863 
L 2969 4384 
L 2419 4384 
Q 2106 4384 1964 4261 
Q 1822 4138 1753 3809 
L 1691 3500 
L 2638 3500 
L 2553 3053 
L 1606 3053 
L 1013 0 
L 434 0 
L 1031 3053 
L 481 3053 
L 563 3500 
L 1113 3500 
L 1159 3744 
Q 1278 4363 1576 4613 
Q 1875 4863 2516 4863 
L 3059 4863 
z
" transform="scale(0.015625)"/>
      </defs>
      <use xlink:href="#DejaVuSans-2202" transform="translate(0 0.015625)"/>
      <use xlink:href="#DejaVuSans-Oblique-74" transform="translate(52.666016 -16.390625) scale(0.7)"/>
      <use xlink:href="#DejaVuSans-Oblique-66" transform="translate(82.84668 0.015625)"/>
     </g>
    </g>
   </g>
   <g id="line2d_13">
    <path d="M 69.915483 70.648959 
L 109.059363 70.678771 
L 117.447337 71.103916 
L 131.427294 72.039866 
L 134.223285 72.041024 
L 137.019277 71.887116 
L 139.815268 71.536332 
L 142.61126 70.954923 
L 145.407251 70.12407 
L 148.203242 69.047087 
L 150.999234 67.756133 
L 159.387208 63.442443 
L 162.183199 62.311693 
L 164.979191 61.62724 
L 167.775182 61.577736 
L 170.571174 62.334297 
L 173.367165 64.027538 
L 176.163157 66.723995 
L 178.959148 70.404681 
L 181.755139 74.948803 
L 184.551131 80.12565 
L 190.143114 90.933073 
L 192.939105 95.638479 
L 195.735096 99.193707 
L 198.531088 101.102846 
L 201.327079 100.947282 
L 204.123071 98.438624 
L 206.919062 93.46495 
L 209.715053 86.124276 
L 212.511045 76.739947 
L 215.307036 65.854175 
L 220.899019 42.639707 
L 223.695011 32.112381 
L 226.491002 23.531928 
L 229.286993 17.708624 
L 232.082985 15.264476 
L 234.878976 16.564618 
L 237.674968 21.671004 
L 240.470959 30.324388 
L 243.26695 41.9576 
L 246.062942 55.73969 
L 251.654925 85.554381 
L 254.450916 99.336471 
L 257.246907 110.969683 
L 260.042899 119.623067 
L 262.83889 124.729453 
L 265.634882 126.029595 
L 268.430873 123.585447 
L 271.226864 117.762143 
L 274.022856 109.18169 
L 276.818847 98.654364 
L 282.41083 75.439896 
L 285.206822 64.554124 
L 288.002813 55.169795 
L 290.798804 47.829121 
L 293.594796 42.855447 
L 296.390787 40.346789 
L 299.186779 40.191225 
L 301.98277 42.100364 
L 304.778761 45.655592 
L 307.574753 50.360998 
L 315.962727 66.345268 
L 318.758718 70.88939 
L 321.55471 74.570076 
L 324.350701 77.266533 
L 327.146693 78.959774 
L 329.942684 79.716335 
L 332.738676 79.666831 
L 335.534667 78.982378 
L 338.330658 77.851628 
L 343.922641 74.9767 
L 346.718633 73.537938 
L 349.514624 72.246984 
L 352.310615 71.170001 
L 355.106607 70.339148 
L 357.902598 69.757739 
L 360.69859 69.406955 
L 363.494581 69.253047 
L 369.086564 69.366474 
L 388.658504 70.6153 
L 397.046478 70.751519 
L 416.618418 70.670702 
L 425.006392 70.648149 
L 425.006392 70.648149 
" clip-path="url(#pd773a28fb5)" style="fill: none; stroke: #1f77b4; stroke-width: 1.5; stroke-linecap: square"/>
   </g>
   <g id="line2d_14">
    <path d="M 69.915483 70.647583 
L 106.263371 70.639974 
L 114.651346 71.012687 
L 128.631303 71.991195 
L 131.427294 72.051529 
L 134.223285 71.978809 
L 137.019277 71.72971 
L 139.815268 71.265914 
L 142.61126 70.560538 
L 145.407251 69.605236 
L 148.203242 68.417233 
L 153.795225 65.573949 
L 156.591217 64.123632 
L 159.387208 62.847804 
L 162.183199 61.924313 
L 164.979191 61.542008 
L 167.775182 61.882601 
L 170.571174 63.098935 
L 173.367165 65.291504 
L 176.163157 68.485704 
L 178.959148 72.612705 
L 181.755139 77.497018 
L 190.143114 93.359939 
L 192.939105 97.533369 
L 195.735096 100.30449 
L 198.531088 101.211513 
L 201.327079 99.896709 
L 204.123071 96.15651 
L 206.919062 89.981856 
L 209.715053 81.583014 
L 212.511045 71.39427 
L 220.899019 37.25102 
L 223.695011 27.62388 
L 226.491002 20.361138 
L 229.286993 16.18538 
L 232.082985 15.595076 
L 234.878976 18.80652 
L 237.674968 25.721284 
L 240.470959 35.923735 
L 243.26695 48.709925 
L 251.654925 92.584146 
L 254.450916 105.370336 
L 257.246907 115.572787 
L 260.042899 122.487551 
L 262.83889 125.698995 
L 265.634882 125.108691 
L 268.430873 120.932933 
L 271.226864 113.670191 
L 274.022856 104.043051 
L 276.818847 92.92178 
L 282.41083 69.899801 
L 285.206822 59.711057 
L 288.002813 51.312215 
L 290.798804 45.137561 
L 293.594796 41.397362 
L 296.390787 40.082558 
L 299.186779 40.989581 
L 301.98277 43.760702 
L 304.778761 47.934132 
L 307.574753 52.997734 
L 313.166736 63.797053 
L 315.962727 68.681366 
L 318.758718 72.808367 
L 321.55471 76.002567 
L 324.350701 78.195136 
L 327.146693 79.41147 
L 329.942684 79.752063 
L 332.738676 79.369758 
L 335.534667 78.446267 
L 338.330658 77.170439 
L 346.718633 72.876838 
L 349.514624 71.688835 
L 352.310615 70.733533 
L 355.106607 70.028157 
L 357.902598 69.564361 
L 360.69859 69.315262 
L 363.494581 69.242542 
L 369.086564 69.453212 
L 385.862512 70.565253 
L 394.250487 70.742949 
L 408.230444 70.707647 
L 425.006392 70.647583 
L 425.006392 70.647583 
" clip-path="url(#pd773a28fb5)" style="fill: none; stroke-dasharray: 9.6,2.4,1.5,2.4; stroke-dashoffset: 0; stroke: #ff7f0e; stroke-width: 1.5"/>
   </g>
   <g id="line2d_15">
    <path d="M 69.915483 70.647036 
L 109.059363 70.678701 
L 117.447337 71.103973 
L 131.427294 72.039824 
L 134.223285 72.041064 
L 137.019277 71.887079 
L 139.815268 71.536368 
L 142.61126 70.95489 
L 145.407251 70.124102 
L 148.203242 69.047057 
L 150.999234 67.756162 
L 159.387208 63.442417 
L 162.183199 62.311717 
L 164.979191 61.627217 
L 167.775182 61.577758 
L 170.571174 62.334277 
L 173.367165 64.027558 
L 176.163157 66.723976 
L 178.959148 70.404698 
L 181.755139 74.948786 
L 184.551131 80.125665 
L 190.143114 90.933088 
L 192.939105 95.638466 
L 195.735096 99.19372 
L 198.531088 101.102834 
L 201.327079 100.947293 
L 204.123071 98.438614 
L 206.919062 93.46496 
L 209.715053 86.124267 
L 212.511045 76.739955 
L 215.307036 65.854168 
L 220.899019 42.639701 
L 223.695011 32.112387 
L 226.491002 23.531923 
L 229.286993 17.708628 
L 232.082985 15.264473 
L 234.878976 16.564621 
L 237.674968 21.671001 
L 240.470959 30.32439 
L 243.26695 41.957598 
L 246.062942 55.73969 
L 251.654925 85.554381 
L 254.450916 99.336473 
L 257.246907 110.969681 
L 260.042899 119.62307 
L 262.83889 124.72945 
L 265.634882 126.029598 
L 268.430873 123.585443 
L 271.226864 117.762148 
L 274.022856 109.181684 
L 276.818847 98.65437 
L 282.41083 75.439903 
L 285.206822 64.554116 
L 288.002813 55.169804 
L 290.798804 47.829111 
L 293.594796 42.855457 
L 296.390787 40.346778 
L 299.186779 40.191237 
L 301.98277 42.100351 
L 304.778761 45.655605 
L 307.574753 50.360983 
L 315.962727 66.345285 
L 318.758718 70.889373 
L 321.55471 74.570095 
L 324.350701 77.266513 
L 327.146693 78.959794 
L 329.942684 79.716313 
L 332.738676 79.666854 
L 335.534667 78.982354 
L 338.330658 77.851654 
L 343.922641 74.976728 
L 346.718633 73.537909 
L 349.514624 72.247014 
L 352.310615 71.169969 
L 355.106607 70.339181 
L 357.902598 69.757703 
L 360.69859 69.406992 
L 363.494581 69.253007 
L 369.086564 69.36643 
L 388.658504 70.61537 
L 397.046478 70.751428 
L 416.618418 70.670949 
L 425.006392 70.647379 
L 425.006392 70.647379 
" clip-path="url(#pd773a28fb5)" style="fill: none; stroke-dasharray: 5.55,2.4; stroke-dashoffset: 0; stroke: #2ca02c; stroke-width: 1.5"/>
   </g>
   <g id="patch_3">
    <path d="M 52.160938 131.567855 
L 52.160938 9.726216 
" style="fill: none; stroke: #000000; stroke-width: 0.8; stroke-linejoin: miter; stroke-linecap: square"/>
   </g>
   <g id="patch_4">
    <path d="M 442.760938 131.567855 
L 442.760938 9.726216 
" style="fill: none; stroke: #000000; stroke-width: 0.8; stroke-linejoin: miter; stroke-linecap: square"/>
   </g>
   <g id="patch_5">
    <path d="M 52.160937 131.567855 
L 442.760938 131.567855 
" style="fill: none; stroke: #000000; stroke-width: 0.8; stroke-linejoin: miter; stroke-linecap: square"/>
   </g>
   <g id="patch_6">
    <path d="M 52.160937 9.726216 
L 442.760938 9.726216 
" style="fill: none; stroke: #000000; stroke-width: 0.8; stroke-linejoin: miter; stroke-linecap: square"/>
   </g>
   <g id="legend_1">
    <g id="patch_7">
     <path d="M 316.679688 61.760591 
L 435.760938 61.760591 
Q 437.760938 61.760591 437.760938 59.760591 
L 437.760938 16.726216 
Q 437.760938 14.726216 435.760938 14.726216 
L 316.679688 14.726216 
Q 314.679688 14.726216 314.679688 16.726216 
L 314.679688 59.760591 
Q 314.679688 61.760591 316.679688 61.760591 
z
" style="fill: #ffffff; opacity: 0.8; stroke: #cccccc; stroke-linejoin: miter"/>
    </g>
    <g id="line2d_16">
     <path d="M 318.679688 22.824654 
L 328.679688 22.824654 
L 338.679688 22.824654 
" style="fill: none; stroke: #1f77b4; stroke-width: 1.5; stroke-linecap: square"/>
    </g>
    <g id="text_15">
     <!-- Exact -->
     <g transform="translate(346.679688 26.324654) scale(0.1 -0.1)">
      <defs>
       <path id="DejaVuSans-45" d="M 628 4666 
L 3578 4666 
L 3578 4134 
L 1259 4134 
L 1259 2753 
L 3481 2753 
L 3481 2222 
L 1259 2222 
L 1259 531 
L 3634 531 
L 3634 0 
L 628 0 
L 628 4666 
z
" transform="scale(0.015625)"/>
       <path id="DejaVuSans-78" d="M 3513 3500 
L 2247 1797 
L 3578 0 
L 2900 0 
L 1881 1375 
L 863 0 
L 184 0 
L 1544 1831 
L 300 3500 
L 978 3500 
L 1906 2253 
L 2834 3500 
L 3513 3500 
z
" transform="scale(0.015625)"/>
       <path id="DejaVuSans-61" d="M 2194 1759 
Q 1497 1759 1228 1600 
Q 959 1441 959 1056 
Q 959 750 1161 570 
Q 1363 391 1709 391 
Q 2188 391 2477 730 
Q 2766 1069 2766 1631 
L 2766 1759 
L 2194 1759 
z
M 3341 1997 
L 3341 0 
L 2766 0 
L 2766 531 
Q 2569 213 2275 61 
Q 1981 -91 1556 -91 
Q 1019 -91 701 211 
Q 384 513 384 1019 
Q 384 1609 779 1909 
Q 1175 2209 1959 2209 
L 2766 2209 
L 2766 2266 
Q 2766 2663 2505 2880 
Q 2244 3097 1772 3097 
Q 1472 3097 1187 3025 
Q 903 2953 641 2809 
L 641 3341 
Q 956 3463 1253 3523 
Q 1550 3584 1831 3584 
Q 2591 3584 2966 3190 
Q 3341 2797 3341 1997 
z
" transform="scale(0.015625)"/>
       <path id="DejaVuSans-63" d="M 3122 3366 
L 3122 2828 
Q 2878 2963 2633 3030 
Q 2388 3097 2138 3097 
Q 1578 3097 1268 2742 
Q 959 2388 959 1747 
Q 959 1106 1268 751 
Q 1578 397 2138 397 
Q 2388 397 2633 464 
Q 2878 531 3122 666 
L 3122 134 
Q 2881 22 2623 -34 
Q 2366 -91 2075 -91 
Q 1284 -91 818 406 
Q 353 903 353 1747 
Q 353 2603 823 3093 
Q 1294 3584 2113 3584 
Q 2378 3584 2631 3529 
Q 2884 3475 3122 3366 
z
" transform="scale(0.015625)"/>
      </defs>
      <use xlink:href="#DejaVuSans-45"/>
      <use xlink:href="#DejaVuSans-78" transform="translate(63.183594 0)"/>
      <use xlink:href="#DejaVuSans-61" transform="translate(122.363281 0)"/>
      <use xlink:href="#DejaVuSans-63" transform="translate(183.642578 0)"/>
      <use xlink:href="#DejaVuSans-74" transform="translate(238.623047 0)"/>
     </g>
    </g>
    <g id="line2d_17">
     <path d="M 318.679688 37.502779 
L 328.679688 37.502779 
L 338.679688 37.502779 
" style="fill: none; stroke-dasharray: 9.6,2.4,1.5,2.4; stroke-dashoffset: 0; stroke: #ff7f0e; stroke-width: 1.5"/>
    </g>
    <g id="text_16">
     <!-- Finite Differences -->
     <g transform="translate(346.679688 41.002779) scale(0.1 -0.1)">
      <defs>
       <path id="DejaVuSans-46" d="M 628 4666 
L 3309 4666 
L 3309 4134 
L 1259 4134 
L 1259 2759 
L 3109 2759 
L 3109 2228 
L 1259 2228 
L 1259 0 
L 628 0 
L 628 4666 
z
" transform="scale(0.015625)"/>
       <path id="DejaVuSans-69" d="M 603 3500 
L 1178 3500 
L 1178 0 
L 603 0 
L 603 3500 
z
M 603 4863 
L 1178 4863 
L 1178 4134 
L 603 4134 
L 603 4863 
z
" transform="scale(0.015625)"/>
       <path id="DejaVuSans-6e" d="M 3513 2113 
L 3513 0 
L 2938 0 
L 2938 2094 
Q 2938 2591 2744 2837 
Q 2550 3084 2163 3084 
Q 1697 3084 1428 2787 
Q 1159 2491 1159 1978 
L 1159 0 
L 581 0 
L 581 3500 
L 1159 3500 
L 1159 2956 
Q 1366 3272 1645 3428 
Q 1925 3584 2291 3584 
Q 2894 3584 3203 3211 
Q 3513 2838 3513 2113 
z
" transform="scale(0.015625)"/>
       <path id="DejaVuSans-65" d="M 3597 1894 
L 3597 1613 
L 953 1613 
Q 991 1019 1311 708 
Q 1631 397 2203 397 
Q 2534 397 2845 478 
Q 3156 559 3463 722 
L 3463 178 
Q 3153 47 2828 -22 
Q 2503 -91 2169 -91 
Q 1331 -91 842 396 
Q 353 884 353 1716 
Q 353 2575 817 3079 
Q 1281 3584 2069 3584 
Q 2775 3584 3186 3129 
Q 3597 2675 3597 1894 
z
M 3022 2063 
Q 3016 2534 2758 2815 
Q 2500 3097 2075 3097 
Q 1594 3097 1305 2825 
Q 1016 2553 972 2059 
L 3022 2063 
z
" transform="scale(0.015625)"/>
       <path id="DejaVuSans-20" transform="scale(0.015625)"/>
       <path id="DejaVuSans-44" d="M 1259 4147 
L 1259 519 
L 2022 519 
Q 2988 519 3436 956 
Q 3884 1394 3884 2338 
Q 3884 3275 3436 3711 
Q 2988 4147 2022 4147 
L 1259 4147 
z
M 628 4666 
L 1925 4666 
Q 3281 4666 3915 4102 
Q 4550 3538 4550 2338 
Q 4550 1131 3912 565 
Q 3275 0 1925 0 
L 628 0 
L 628 4666 
z
" transform="scale(0.015625)"/>
       <path id="DejaVuSans-66" d="M 2375 4863 
L 2375 4384 
L 1825 4384 
Q 1516 4384 1395 4259 
Q 1275 4134 1275 3809 
L 1275 3500 
L 2222 3500 
L 2222 3053 
L 1275 3053 
L 1275 0 
L 697 0 
L 697 3053 
L 147 3053 
L 147 3500 
L 697 3500 
L 697 3744 
Q 697 4328 969 4595 
Q 1241 4863 1831 4863 
L 2375 4863 
z
" transform="scale(0.015625)"/>
       <path id="DejaVuSans-72" d="M 2631 2963 
Q 2534 3019 2420 3045 
Q 2306 3072 2169 3072 
Q 1681 3072 1420 2755 
Q 1159 2438 1159 1844 
L 1159 0 
L 581 0 
L 581 3500 
L 1159 3500 
L 1159 2956 
Q 1341 3275 1631 3429 
Q 1922 3584 2338 3584 
Q 2397 3584 2469 3576 
Q 2541 3569 2628 3553 
L 2631 2963 
z
" transform="scale(0.015625)"/>
       <path id="DejaVuSans-73" d="M 2834 3397 
L 2834 2853 
Q 2591 2978 2328 3040 
Q 2066 3103 1784 3103 
Q 1356 3103 1142 2972 
Q 928 2841 928 2578 
Q 928 2378 1081 2264 
Q 1234 2150 1697 2047 
L 1894 2003 
Q 2506 1872 2764 1633 
Q 3022 1394 3022 966 
Q 3022 478 2636 193 
Q 2250 -91 1575 -91 
Q 1294 -91 989 -36 
Q 684 19 347 128 
L 347 722 
Q 666 556 975 473 
Q 1284 391 1588 391 
Q 1994 391 2212 530 
Q 2431 669 2431 922 
Q 2431 1156 2273 1281 
Q 2116 1406 1581 1522 
L 1381 1569 
Q 847 1681 609 1914 
Q 372 2147 372 2553 
Q 372 3047 722 3315 
Q 1072 3584 1716 3584 
Q 2034 3584 2315 3537 
Q 2597 3491 2834 3397 
z
" transform="scale(0.015625)"/>
      </defs>
      <use xlink:href="#DejaVuSans-46"/>
      <use xlink:href="#DejaVuSans-69" transform="translate(50.269531 0)"/>
      <use xlink:href="#DejaVuSans-6e" transform="translate(78.052734 0)"/>
      <use xlink:href="#DejaVuSans-69" transform="translate(141.431641 0)"/>
      <use xlink:href="#DejaVuSans-74" transform="translate(169.214844 0)"/>
      <use xlink:href="#DejaVuSans-65" transform="translate(208.423828 0)"/>
      <use xlink:href="#DejaVuSans-20" transform="translate(269.947266 0)"/>
      <use xlink:href="#DejaVuSans-44" transform="translate(301.734375 0)"/>
      <use xlink:href="#DejaVuSans-69" transform="translate(378.736328 0)"/>
      <use xlink:href="#DejaVuSans-66" transform="translate(406.519531 0)"/>
      <use xlink:href="#DejaVuSans-66" transform="translate(441.724609 0)"/>
      <use xlink:href="#DejaVuSans-65" transform="translate(476.929688 0)"/>
      <use xlink:href="#DejaVuSans-72" transform="translate(538.453125 0)"/>
      <use xlink:href="#DejaVuSans-65" transform="translate(577.316406 0)"/>
      <use xlink:href="#DejaVuSans-6e" transform="translate(638.839844 0)"/>
      <use xlink:href="#DejaVuSans-63" transform="translate(702.21875 0)"/>
      <use xlink:href="#DejaVuSans-65" transform="translate(757.199219 0)"/>
      <use xlink:href="#DejaVuSans-73" transform="translate(818.722656 0)"/>
     </g>
    </g>
    <g id="line2d_18">
     <path d="M 318.679688 52.180904 
L 328.679688 52.180904 
L 338.679688 52.180904 
" style="fill: none; stroke-dasharray: 5.55,2.4; stroke-dashoffset: 0; stroke: #2ca02c; stroke-width: 1.5"/>
    </g>
    <g id="text_17">
     <!-- Spectral -->
     <g transform="translate(346.679688 55.680904) scale(0.1 -0.1)">
      <defs>
       <path id="DejaVuSans-53" d="M 3425 4513 
L 3425 3897 
Q 3066 4069 2747 4153 
Q 2428 4238 2131 4238 
Q 1616 4238 1336 4038 
Q 1056 3838 1056 3469 
Q 1056 3159 1242 3001 
Q 1428 2844 1947 2747 
L 2328 2669 
Q 3034 2534 3370 2195 
Q 3706 1856 3706 1288 
Q 3706 609 3251 259 
Q 2797 -91 1919 -91 
Q 1588 -91 1214 -16 
Q 841 59 441 206 
L 441 856 
Q 825 641 1194 531 
Q 1563 422 1919 422 
Q 2459 422 2753 634 
Q 3047 847 3047 1241 
Q 3047 1584 2836 1778 
Q 2625 1972 2144 2069 
L 1759 2144 
Q 1053 2284 737 2584 
Q 422 2884 422 3419 
Q 422 4038 858 4394 
Q 1294 4750 2059 4750 
Q 2388 4750 2728 4690 
Q 3069 4631 3425 4513 
z
" transform="scale(0.015625)"/>
       <path id="DejaVuSans-70" d="M 1159 525 
L 1159 -1331 
L 581 -1331 
L 581 3500 
L 1159 3500 
L 1159 2969 
Q 1341 3281 1617 3432 
Q 1894 3584 2278 3584 
Q 2916 3584 3314 3078 
Q 3713 2572 3713 1747 
Q 3713 922 3314 415 
Q 2916 -91 2278 -91 
Q 1894 -91 1617 61 
Q 1341 213 1159 525 
z
M 3116 1747 
Q 3116 2381 2855 2742 
Q 2594 3103 2138 3103 
Q 1681 3103 1420 2742 
Q 1159 2381 1159 1747 
Q 1159 1113 1420 752 
Q 1681 391 2138 391 
Q 2594 391 2855 752 
Q 3116 1113 3116 1747 
z
" transform="scale(0.015625)"/>
       <path id="DejaVuSans-6c" d="M 603 4863 
L 1178 4863 
L 1178 0 
L 603 0 
L 603 4863 
z
" transform="scale(0.015625)"/>
      </defs>
      <use xlink:href="#DejaVuSans-53"/>
      <use xlink:href="#DejaVuSans-70" transform="translate(63.476562 0)"/>
      <use xlink:href="#DejaVuSans-65" transform="translate(126.953125 0)"/>
      <use xlink:href="#DejaVuSans-63" transform="translate(188.476562 0)"/>
      <use xlink:href="#DejaVuSans-74" transform="translate(243.457031 0)"/>
      <use xlink:href="#DejaVuSans-72" transform="translate(282.666016 0)"/>
      <use xlink:href="#DejaVuSans-61" transform="translate(323.779297 0)"/>
      <use xlink:href="#DejaVuSans-6c" transform="translate(385.058594 0)"/>
     </g>
    </g>
   </g>
  </g>
 </g>
 <defs>
  <clipPath id="pd773a28fb5">
   <rect x="52.160938" y="9.726216" width="390.6" height="121.841638"/>
  </clipPath>
 </defs>
</svg>
