<?xml version="1.0" encoding="utf-8" standalone="no"?>
<!DOCTYPE svg PUBLIC "-//W3C//DTD SVG 1.1//EN"
  "http://www.w3.org/Graphics/SVG/1.1/DTD/svg11.dtd">
<svg xmlns:xlink="http://www.w3.org/1999/xlink" width="450.596875pt" height="246.970078pt" viewBox="0 0 450.596875 246.970078" xmlns="http://www.w3.org/2000/svg" version="1.1">
 <metadata>
  <rdf:RDF xmlns:dc="http://purl.org/dc/elements/1.1/" xmlns:cc="http://creativecommons.org/ns#" xmlns:rdf="http://www.w3.org/1999/02/22-rdf-syntax-ns#">
   <cc:Work>
    <dc:type rdf:resource="http://purl.org/dc/dcmitype/StillImage"/>
    <dc:date>2024-11-18T12:55:00.571294</dc:date>
    <dc:format>image/svg+xml</dc:format>
    <dc:creator>
     <cc:Agent>
      <dc:title>Matplotlib v3.9.2, https://matplotlib.org/</dc:title>
     </cc:Agent>
    </dc:creator>
   </cc:Work>
  </rdf:RDF>
 </metadata>
 <defs>
  <style type="text/css">*{stroke-linejoin: round; stroke-linecap: butt}</style>
 </defs>
 <g id="figure_1">
  <g id="patch_1">
   <path d="M 0 246.970078 
L 450.596875 246.970078 
L 450.596875 0 
L 0 0 
z
" style="fill: #ffffff"/>
  </g>
  <g id="axes_1">
   <g id="patch_2">
    <path d="M 44.845313 209.413828 
L 435.445312 209.413828 
L 435.445312 7.2 
L 44.845313 7.2 
z
" style="fill: #ffffff"/>
   </g>
   <g id="matplotlib.axis_1">
    <g id="xtick_1">
     <g id="line2d_1">
      <defs>
       <path id="m2925022dca" d="M 0 0 
L 0 3.5 
" style="stroke: #000000; stroke-width: 0.8"/>
      </defs>
      <g>
       <use xlink:href="#m2925022dca" x="44.845313" y="209.413828" style="stroke: #000000; stroke-width: 0.8"/>
      </g>
     </g>
     <g id="text_1">
      <!-- −2.0 -->
      <g transform="translate(32.703906 224.012266) scale(0.1 -0.1)">
       <defs>
        <path id="DejaVuSans-2212" d="M 678 2272 
L 4684 2272 
L 4684 1741 
L 678 1741 
L 678 2272 
z
" transform="scale(0.015625)"/>
        <path id="DejaVuSans-32" d="M 1228 531 
L 3431 531 
L 3431 0 
L 469 0 
L 469 531 
Q 828 903 1448 1529 
Q 2069 2156 2228 2338 
Q 2531 2678 2651 2914 
Q 2772 3150 2772 3378 
Q 2772 3750 2511 3984 
Q 2250 4219 1831 4219 
Q 1534 4219 1204 4116 
Q 875 4013 500 3803 
L 500 4441 
Q 881 4594 1212 4672 
Q 1544 4750 1819 4750 
Q 2544 4750 2975 4387 
Q 3406 4025 3406 3419 
Q 3406 3131 3298 2873 
Q 3191 2616 2906 2266 
Q 2828 2175 2409 1742 
Q 1991 1309 1228 531 
z
" transform="scale(0.015625)"/>
        <path id="DejaVuSans-2e" d="M 684 794 
L 1344 794 
L 1344 0 
L 684 0 
L 684 794 
z
" transform="scale(0.015625)"/>
        <path id="DejaVuSans-30" d="M 2034 4250 
Q 1547 4250 1301 3770 
Q 1056 3291 1056 2328 
Q 1056 1369 1301 889 
Q 1547 409 2034 409 
Q 2525 409 2770 889 
Q 3016 1369 3016 2328 
Q 3016 3291 2770 3770 
Q 2525 4250 2034 4250 
z
M 2034 4750 
Q 2819 4750 3233 4129 
Q 3647 3509 3647 2328 
Q 3647 1150 3233 529 
Q 2819 -91 2034 -91 
Q 1250 -91 836 529 
Q 422 1150 422 2328 
Q 422 3509 836 4129 
Q 1250 4750 2034 4750 
z
" transform="scale(0.015625)"/>
       </defs>
       <use xlink:href="#DejaVuSans-2212"/>
       <use xlink:href="#DejaVuSans-32" x="83.789062"/>
       <use xlink:href="#DejaVuSans-2e" x="147.412109"/>
       <use xlink:href="#DejaVuSans-30" x="179.199219"/>
      </g>
     </g>
    </g>
    <g id="xtick_2">
     <g id="line2d_2">
      <g>
       <use xlink:href="#m2925022dca" x="93.670312" y="209.413828" style="stroke: #000000; stroke-width: 0.8"/>
      </g>
     </g>
     <g id="text_2">
      <!-- −1.5 -->
      <g transform="translate(81.528906 224.012266) scale(0.1 -0.1)">
       <defs>
        <path id="DejaVuSans-31" d="M 794 531 
L 1825 531 
L 1825 4091 
L 703 3866 
L 703 4441 
L 1819 4666 
L 2450 4666 
L 2450 531 
L 3481 531 
L 3481 0 
L 794 0 
L 794 531 
z
" transform="scale(0.015625)"/>
        <path id="DejaVuSans-35" d="M 691 4666 
L 3169 4666 
L 3169 4134 
L 1269 4134 
L 1269 2991 
Q 1406 3038 1543 3061 
Q 1681 3084 1819 3084 
Q 2600 3084 3056 2656 
Q 3513 2228 3513 1497 
Q 3513 744 3044 326 
Q 2575 -91 1722 -91 
Q 1428 -91 1123 -41 
Q 819 9 494 109 
L 494 744 
Q 775 591 1075 516 
Q 1375 441 1709 441 
Q 2250 441 2565 725 
Q 2881 1009 2881 1497 
Q 2881 1984 2565 2268 
Q 2250 2553 1709 2553 
Q 1456 2553 1204 2497 
Q 953 2441 691 2322 
L 691 4666 
z
" transform="scale(0.015625)"/>
       </defs>
       <use xlink:href="#DejaVuSans-2212"/>
       <use xlink:href="#DejaVuSans-31" x="83.789062"/>
       <use xlink:href="#DejaVuSans-2e" x="147.412109"/>
       <use xlink:href="#DejaVuSans-35" x="179.199219"/>
      </g>
     </g>
    </g>
    <g id="xtick_3">
     <g id="line2d_3">
      <g>
       <use xlink:href="#m2925022dca" x="142.495313" y="209.413828" style="stroke: #000000; stroke-width: 0.8"/>
      </g>
     </g>
     <g id="text_3">
      <!-- −1.0 -->
      <g transform="translate(130.353906 224.012266) scale(0.1 -0.1)">
       <use xlink:href="#DejaVuSans-2212"/>
       <use xlink:href="#DejaVuSans-31" x="83.789062"/>
       <use xlink:href="#DejaVuSans-2e" x="147.412109"/>
       <use xlink:href="#DejaVuSans-30" x="179.199219"/>
      </g>
     </g>
    </g>
    <g id="xtick_4">
     <g id="line2d_4">
      <g>
       <use xlink:href="#m2925022dca" x="191.320312" y="209.413828" style="stroke: #000000; stroke-width: 0.8"/>
      </g>
     </g>
     <g id="text_4">
      <!-- −0.5 -->
      <g transform="translate(179.178906 224.012266) scale(0.1 -0.1)">
       <use xlink:href="#DejaVuSans-2212"/>
       <use xlink:href="#DejaVuSans-30" x="83.789062"/>
       <use xlink:href="#DejaVuSans-2e" x="147.412109"/>
       <use xlink:href="#DejaVuSans-35" x="179.199219"/>
      </g>
     </g>
    </g>
    <g id="xtick_5">
     <g id="line2d_5">
      <g>
       <use xlink:href="#m2925022dca" x="240.145313" y="209.413828" style="stroke: #000000; stroke-width: 0.8"/>
      </g>
     </g>
     <g id="text_5">
      <!-- 0.0 -->
      <g transform="translate(232.19375 224.012266) scale(0.1 -0.1)">
       <use xlink:href="#DejaVuSans-30"/>
       <use xlink:href="#DejaVuSans-2e" x="63.623047"/>
       <use xlink:href="#DejaVuSans-30" x="95.410156"/>
      </g>
     </g>
    </g>
    <g id="xtick_6">
     <g id="line2d_6">
      <g>
       <use xlink:href="#m2925022dca" x="288.970313" y="209.413828" style="stroke: #000000; stroke-width: 0.8"/>
      </g>
     </g>
     <g id="text_6">
      <!-- 0.5 -->
      <g transform="translate(281.01875 224.012266) scale(0.1 -0.1)">
       <use xlink:href="#DejaVuSans-30"/>
       <use xlink:href="#DejaVuSans-2e" x="63.623047"/>
       <use xlink:href="#DejaVuSans-35" x="95.410156"/>
      </g>
     </g>
    </g>
    <g id="xtick_7">
     <g id="line2d_7">
      <g>
       <use xlink:href="#m2925022dca" x="337.795313" y="209.413828" style="stroke: #000000; stroke-width: 0.8"/>
      </g>
     </g>
     <g id="text_7">
      <!-- 1.0 -->
      <g transform="translate(329.84375 224.012266) scale(0.1 -0.1)">
       <use xlink:href="#DejaVuSans-31"/>
       <use xlink:href="#DejaVuSans-2e" x="63.623047"/>
       <use xlink:href="#DejaVuSans-30" x="95.410156"/>
      </g>
     </g>
    </g>
    <g id="xtick_8">
     <g id="line2d_8">
      <g>
       <use xlink:href="#m2925022dca" x="386.620313" y="209.413828" style="stroke: #000000; stroke-width: 0.8"/>
      </g>
     </g>
     <g id="text_8">
      <!-- 1.5 -->
      <g transform="translate(378.66875 224.012266) scale(0.1 -0.1)">
       <use xlink:href="#DejaVuSans-31"/>
       <use xlink:href="#DejaVuSans-2e" x="63.623047"/>
       <use xlink:href="#DejaVuSans-35" x="95.410156"/>
      </g>
     </g>
    </g>
    <g id="xtick_9">
     <g id="line2d_9">
      <g>
       <use xlink:href="#m2925022dca" x="435.445312" y="209.413828" style="stroke: #000000; stroke-width: 0.8"/>
      </g>
     </g>
     <g id="text_9">
      <!-- 2.0 -->
      <g transform="translate(427.49375 224.012266) scale(0.1 -0.1)">
       <use xlink:href="#DejaVuSans-32"/>
       <use xlink:href="#DejaVuSans-2e" x="63.623047"/>
       <use xlink:href="#DejaVuSans-30" x="95.410156"/>
      </g>
     </g>
    </g>
    <g id="text_10">
     <!-- x -->
     <g transform="translate(237.185938 237.690391) scale(0.1 -0.1)">
      <defs>
       <path id="DejaVuSans-78" d="M 3513 3500 
L 2247 1797 
L 3578 0 
L 2900 0 
L 1881 1375 
L 863 0 
L 184 0 
L 1544 1831 
L 300 3500 
L 978 3500 
L 1906 2253 
L 2834 3500 
L 3513 3500 
z
" transform="scale(0.015625)"/>
      </defs>
      <use xlink:href="#DejaVuSans-78"/>
     </g>
    </g>
   </g>
   <g id="matplotlib.axis_2">
    <g id="ytick_1">
     <g id="line2d_10">
      <defs>
       <path id="mc1022bf011" d="M 0 0 
L -3.5 0 
" style="stroke: #000000; stroke-width: 0.8"/>
      </defs>
      <g>
       <use xlink:href="#mc1022bf011" x="44.845313" y="187.279038" style="stroke: #000000; stroke-width: 0.8"/>
      </g>
     </g>
     <g id="text_11">
      <!-- −0.75 -->
      <g transform="translate(7.2 191.078256) scale(0.1 -0.1)">
       <defs>
        <path id="DejaVuSans-37" d="M 525 4666 
L 3525 4666 
L 3525 4397 
L 1831 0 
L 1172 0 
L 2766 4134 
L 525 4134 
L 525 4666 
z
" transform="scale(0.015625)"/>
       </defs>
       <use xlink:href="#DejaVuSans-2212"/>
       <use xlink:href="#DejaVuSans-30" x="83.789062"/>
       <use xlink:href="#DejaVuSans-2e" x="147.412109"/>
       <use xlink:href="#DejaVuSans-37" x="179.199219"/>
       <use xlink:href="#DejaVuSans-35" x="242.822266"/>
      </g>
     </g>
    </g>
    <g id="ytick_2">
     <g id="line2d_11">
      <g>
       <use xlink:href="#mc1022bf011" x="44.845313" y="162.866538" style="stroke: #000000; stroke-width: 0.8"/>
      </g>
     </g>
     <g id="text_12">
      <!-- −0.50 -->
      <g transform="translate(7.2 166.665756) scale(0.1 -0.1)">
       <use xlink:href="#DejaVuSans-2212"/>
       <use xlink:href="#DejaVuSans-30" x="83.789062"/>
       <use xlink:href="#DejaVuSans-2e" x="147.412109"/>
       <use xlink:href="#DejaVuSans-35" x="179.199219"/>
       <use xlink:href="#DejaVuSans-30" x="242.822266"/>
      </g>
     </g>
    </g>
    <g id="ytick_3">
     <g id="line2d_12">
      <g>
       <use xlink:href="#mc1022bf011" x="44.845313" y="138.454038" style="stroke: #000000; stroke-width: 0.8"/>
      </g>
     </g>
     <g id="text_13">
      <!-- −0.25 -->
      <g transform="translate(7.2 142.253256) scale(0.1 -0.1)">
       <use xlink:href="#DejaVuSans-2212"/>
       <use xlink:href="#DejaVuSans-30" x="83.789062"/>
       <use xlink:href="#DejaVuSans-2e" x="147.412109"/>
       <use xlink:href="#DejaVuSans-32" x="179.199219"/>
       <use xlink:href="#DejaVuSans-35" x="242.822266"/>
      </g>
     </g>
    </g>
    <g id="ytick_4">
     <g id="line2d_13">
      <g>
       <use xlink:href="#mc1022bf011" x="44.845313" y="114.041538" style="stroke: #000000; stroke-width: 0.8"/>
      </g>
     </g>
     <g id="text_14">
      <!-- 0.00 -->
      <g transform="translate(15.579688 117.840756) scale(0.1 -0.1)">
       <use xlink:href="#DejaVuSans-30"/>
       <use xlink:href="#DejaVuSans-2e" x="63.623047"/>
       <use xlink:href="#DejaVuSans-30" x="95.410156"/>
       <use xlink:href="#DejaVuSans-30" x="159.033203"/>
      </g>
     </g>
    </g>
    <g id="ytick_5">
     <g id="line2d_14">
      <g>
       <use xlink:href="#mc1022bf011" x="44.845313" y="89.629038" style="stroke: #000000; stroke-width: 0.8"/>
      </g>
     </g>
     <g id="text_15">
      <!-- 0.25 -->
      <g transform="translate(15.579688 93.428256) scale(0.1 -0.1)">
       <use xlink:href="#DejaVuSans-30"/>
       <use xlink:href="#DejaVuSans-2e" x="63.623047"/>
       <use xlink:href="#DejaVuSans-32" x="95.410156"/>
       <use xlink:href="#DejaVuSans-35" x="159.033203"/>
      </g>
     </g>
    </g>
    <g id="ytick_6">
     <g id="line2d_15">
      <g>
       <use xlink:href="#mc1022bf011" x="44.845313" y="65.216538" style="stroke: #000000; stroke-width: 0.8"/>
      </g>
     </g>
     <g id="text_16">
      <!-- 0.50 -->
      <g transform="translate(15.579688 69.015756) scale(0.1 -0.1)">
       <use xlink:href="#DejaVuSans-30"/>
       <use xlink:href="#DejaVuSans-2e" x="63.623047"/>
       <use xlink:href="#DejaVuSans-35" x="95.410156"/>
       <use xlink:href="#DejaVuSans-30" x="159.033203"/>
      </g>
     </g>
    </g>
    <g id="ytick_7">
     <g id="line2d_16">
      <g>
       <use xlink:href="#mc1022bf011" x="44.845313" y="40.804038" style="stroke: #000000; stroke-width: 0.8"/>
      </g>
     </g>
     <g id="text_17">
      <!-- 0.75 -->
      <g transform="translate(15.579688 44.603256) scale(0.1 -0.1)">
       <use xlink:href="#DejaVuSans-30"/>
       <use xlink:href="#DejaVuSans-2e" x="63.623047"/>
       <use xlink:href="#DejaVuSans-37" x="95.410156"/>
       <use xlink:href="#DejaVuSans-35" x="159.033203"/>
      </g>
     </g>
    </g>
    <g id="ytick_8">
     <g id="line2d_17">
      <g>
       <use xlink:href="#mc1022bf011" x="44.845313" y="16.391538" style="stroke: #000000; stroke-width: 0.8"/>
      </g>
     </g>
     <g id="text_18">
      <!-- 1.00 -->
      <g transform="translate(15.579688 20.190756) scale(0.1 -0.1)">
       <use xlink:href="#DejaVuSans-31"/>
       <use xlink:href="#DejaVuSans-2e" x="63.623047"/>
       <use xlink:href="#DejaVuSans-30" x="95.410156"/>
       <use xlink:href="#DejaVuSans-30" x="159.033203"/>
      </g>
     </g>
    </g>
   </g>
   <g id="line2d_18">
    <path d="M 44.814948 114.041538 
L 86.157878 114.041538 
L 86.757051 51.875617 
L 239.54614 51.875617 
L 240.145313 176.207458 
L 392.934401 176.207458 
L 393.533574 114.041538 
L 435.475677 114.041538 
L 435.475677 114.041538 
" clip-path="url(#p60eb6daa57)" style="fill: none; stroke-dasharray: 9.6,2.4,1.5,2.4; stroke-dashoffset: 0; stroke: #1f77b4; stroke-width: 1.5"/>
   </g>
   <g id="line2d_19">
    <path d="M 44.814948 113.894573 
L 45.414121 114.191508 
L 46.013294 113.88847 
L 46.612467 114.197801 
L 47.21164 113.881979 
L 47.810813 114.204499 
L 48.409986 113.875063 
L 49.009159 114.211643 
L 49.608332 113.86768 
L 50.207505 114.219276 
L 50.806677 113.859783 
L 51.40585 114.227449 
L 52.005023 113.851319 
L 52.604196 114.23622 
L 53.203369 113.842225 
L 53.802542 114.245654 
L 54.401715 113.832432 
L 55.000888 114.255828 
L 55.600061 113.821857 
L 56.199234 114.266828 
L 56.798406 113.810405 
L 57.397579 114.278758 
L 57.996752 113.797968 
L 58.595925 114.291736 
L 59.195098 113.784415 
L 59.794271 114.305903 
L 60.393444 113.769592 
L 60.992617 114.321426 
L 61.59179 113.753319 
L 62.190962 114.338504 
L 62.790135 113.735375 
L 63.389308 114.357378 
L 63.988481 113.715498 
L 64.587654 114.37834 
L 65.186827 113.693362 
L 65.786 114.401749 
L 66.385173 113.66857 
L 66.984346 114.42805 
L 67.583519 113.640621 
L 68.182691 114.457803 
L 68.781864 113.608885 
L 69.381037 114.491724 
L 69.98021 113.572549 
L 70.579383 114.530739 
L 71.178556 113.530552 
L 71.777729 114.576068 
L 72.376902 113.481483 
L 72.976075 114.629356 
L 73.575247 113.423414 
L 74.17442 114.692871 
L 74.773593 113.353656 
L 75.372766 114.76983 
L 75.971939 113.26833 
L 76.571112 114.864955 
L 77.170285 113.16163 
L 77.769458 114.985463 
L 78.368631 113.024469 
L 78.967804 115.142961 
L 79.566976 112.841777 
L 80.166149 115.357376 
L 80.765322 112.586644 
L 81.364495 115.665969 
L 81.963668 112.205935 
L 82.562841 116.147233 
L 83.162014 111.57855 
L 83.761187 116.998518 
L 84.36036 110.359121 
L 84.959533 118.885888 
L 85.558705 107.067509 
L 86.157878 125.953738 
L 87.356224 39.772692 
L 87.955397 59.04038 
L 88.55457 46.840513 
L 89.153743 55.748811 
L 89.752916 48.727826 
L 90.352089 54.529455 
L 90.951261 49.579025 
L 91.550434 53.90217 
L 92.149607 50.060173 
L 92.74878 53.521591 
L 93.347953 50.368622 
L 93.947126 53.266616 
L 94.546299 50.582864 
L 95.145472 53.084112 
L 95.744645 50.74016 
L 96.343818 52.947168 
L 96.94299 50.860436 
L 97.542163 52.840715 
L 98.141336 50.9553 
L 98.740509 52.755664 
L 99.339682 51.031969 
L 99.938855 52.686212 
L 100.538028 51.095163 
L 101.137201 52.62848 
L 101.736374 51.1481 
L 102.335546 52.579776 
L 102.934719 51.193048 
L 103.533892 52.538176 
L 104.133065 51.23165 
L 104.732238 52.502268 
L 105.331411 51.265128 
L 105.930584 52.470991 
L 106.529757 51.294406 
L 107.12893 52.443533 
L 107.728103 51.320201 
L 108.327275 52.419263 
L 108.926448 51.343071 
L 109.525621 52.397682 
L 110.124794 51.363461 
L 110.723967 52.378392 
L 111.32314 51.381731 
L 111.922313 52.36107 
L 112.521486 51.398172 
L 113.120659 52.345451 
L 113.719831 51.413023 
L 114.319004 52.331318 
L 114.918177 51.426483 
L 115.51735 52.318489 
L 116.116523 51.438719 
L 116.715696 52.306811 
L 117.314869 51.449871 
L 117.914042 52.296156 
L 118.513215 51.460057 
L 119.112388 52.286414 
L 119.71156 51.469379 
L 120.310733 52.277491 
L 120.909906 51.477923 
L 121.509079 52.269306 
L 122.108252 51.485766 
L 122.707425 52.261789 
L 123.306598 51.492972 
L 123.905771 52.25488 
L 124.504944 51.499597 
L 125.104117 52.248526 
L 125.703289 51.505691 
L 126.302462 52.24268 
L 126.901635 51.511298 
L 127.500808 52.237303 
L 128.099981 51.516456 
L 128.699154 52.232356 
L 129.298327 51.521199 
L 129.8975 52.22781 
L 130.496673 51.525556 
L 131.095845 52.223636 
L 131.695018 51.529553 
L 132.294191 52.219809 
L 132.893364 51.533216 
L 133.492537 52.216306 
L 134.09171 51.536564 
L 134.690883 52.213108 
L 135.290056 51.539616 
L 135.889229 52.210198 
L 136.488402 51.542389 
L 137.087574 52.207558 
L 137.686747 51.544898 
L 138.28592 52.205176 
L 138.885093 51.547156 
L 139.484266 52.203039 
L 140.083439 51.549175 
L 140.682612 52.201136 
L 141.281785 51.550965 
L 141.880958 52.199456 
L 142.48013 51.552537 
L 143.079303 52.19799 
L 143.678476 51.553899 
L 144.277649 52.196731 
L 144.876822 51.555057 
L 145.475995 52.195672 
L 146.075168 51.556018 
L 146.674341 52.194807 
L 147.273514 51.556789 
L 147.872687 52.194129 
L 148.471859 51.557374 
L 149.071032 52.193636 
L 149.670205 51.557777 
L 150.269378 52.193322 
L 150.868551 51.558002 
L 151.467724 52.193185 
L 152.066897 51.558052 
L 152.66607 52.193221 
L 153.265243 51.55793 
L 153.864416 52.193429 
L 154.463588 51.557637 
L 155.062761 52.193807 
L 155.661934 51.557174 
L 156.261107 52.194354 
L 156.86028 51.556543 
L 157.459453 52.195069 
L 158.058626 51.555744 
L 158.657799 52.195953 
L 159.256972 51.554776 
L 159.856144 52.197006 
L 160.455317 51.553638 
L 161.05449 52.198228 
L 161.653663 51.55233 
L 162.252836 52.199622 
L 162.852009 51.550849 
L 163.451182 52.20119 
L 164.050355 51.549194 
L 164.649528 52.202933 
L 165.248701 51.547362 
L 165.847873 52.204855 
L 166.447046 51.54535 
L 167.046219 52.206959 
L 167.645392 51.543152 
L 168.244565 52.20925 
L 168.843738 51.540767 
L 169.442911 52.211732 
L 170.042084 51.538187 
L 170.641257 52.214411 
L 171.240429 51.535408 
L 171.839602 52.217292 
L 172.438775 51.532424 
L 173.037948 52.220381 
L 173.637121 51.529227 
L 174.236294 52.223688 
L 174.835467 51.52581 
L 175.43464 52.227218 
L 176.033813 51.522164 
L 176.632986 52.230982 
L 177.232158 51.51828 
L 177.831331 52.234989 
L 178.430504 51.514147 
L 179.029677 52.23925 
L 179.62885 51.509755 
L 180.228023 52.243776 
L 180.827196 51.505091 
L 181.426369 52.248582 
L 182.025542 51.50014 
L 182.624715 52.25368 
L 183.223887 51.49489 
L 183.82306 52.259087 
L 184.422233 51.489322 
L 185.021406 52.26482 
L 185.620579 51.483419 
L 186.219752 52.270898 
L 186.818925 51.477161 
L 187.418098 52.277342 
L 188.017271 51.470526 
L 188.616443 52.284173 
L 189.215616 51.463492 
L 189.814789 52.291418 
L 190.413962 51.45603 
L 191.013135 52.299104 
L 191.612308 51.448113 
L 192.211481 52.307261 
L 192.810654 51.439707 
L 193.409827 52.315923 
L 194.009 51.430778 
L 194.608172 52.325129 
L 195.207345 51.421286 
L 195.806518 52.334919 
L 196.405691 51.411186 
L 197.004864 52.34534 
L 197.604037 51.400431 
L 198.20321 52.356444 
L 198.802383 51.388964 
L 199.401556 52.368289 
L 200.000728 51.376725 
L 200.599901 52.38094 
L 201.199074 51.363643 
L 201.798247 52.39447 
L 202.39742 51.349643 
L 202.996593 52.408964 
L 203.595766 51.334633 
L 204.194939 52.424514 
L 204.794112 51.318516 
L 205.393285 52.441228 
L 205.992457 51.301174 
L 206.59163 52.459229 
L 207.190803 51.282478 
L 207.789976 52.478659 
L 208.389149 51.262275 
L 208.988322 52.499678 
L 209.587495 51.240391 
L 210.186668 52.522478 
L 210.785841 51.216621 
L 211.385014 52.547277 
L 211.984186 51.190728 
L 212.583359 52.574336 
L 213.182532 51.162428 
L 213.781705 52.603959 
L 214.380878 51.13139 
L 214.980051 52.636511 
L 215.579224 51.097215 
L 216.178397 52.67243 
L 216.77757 51.059421 
L 217.376742 52.712244 
L 217.975915 51.017425 
L 218.575088 52.7566 
L 219.174261 50.97051 
L 219.773434 52.806296 
L 220.372607 50.917784 
L 220.97178 52.862332 
L 221.570953 50.858126 
L 222.170126 52.925968 
L 222.769299 50.790106 
L 223.368471 52.998831 
L 223.967644 50.711874 
L 224.566817 53.083041 
L 225.16599 50.620985 
L 225.765163 53.181424 
L 226.364336 50.514152 
L 226.963509 53.29783 
L 227.562682 50.386839 
L 228.161855 53.437642 
L 228.761027 50.23261 
L 229.3602 53.608619 
L 229.959373 50.042024 
L 230.558546 53.822368 
L 231.157719 49.800646 
L 231.756892 54.097068 
L 232.356065 49.485257 
L 232.955238 54.462855 
L 233.554411 49.05601 
L 234.153584 54.973553 
L 234.752756 48.438379 
L 235.351929 55.735429 
L 235.951102 47.47538 
L 236.550275 56.990686 
L 237.149448 45.772309 
L 237.748621 59.430057 
L 238.347794 41.997041 
L 238.946967 66.013824 
L 239.54614 27.860785 
L 240.744485 200.222291 
L 241.343658 162.069252 
L 241.942831 186.086035 
L 242.542004 168.653018 
L 243.141177 182.310766 
L 243.74035 171.092389 
L 244.339523 180.607695 
L 244.938696 172.347647 
L 245.537869 179.644696 
L 246.137041 173.109522 
L 246.736214 179.027065 
L 247.335387 173.62022 
L 247.93456 178.597818 
L 248.533733 173.986008 
L 249.132906 178.28243 
L 249.732079 174.260707 
L 250.331252 178.041051 
L 250.930425 174.474456 
L 251.529598 177.850465 
L 252.12877 174.645433 
L 252.727943 177.696236 
L 253.327116 174.785245 
L 253.926289 177.568923 
L 254.525462 174.901652 
L 255.124635 177.46209 
L 255.723808 175.000035 
L 256.322981 177.371202 
L 256.922154 175.084244 
L 257.521326 177.292969 
L 258.120499 175.157107 
L 258.719672 177.22495 
L 259.318845 175.220744 
L 259.918018 177.165291 
L 260.517191 175.276779 
L 261.116364 177.112565 
L 261.715537 175.326475 
L 262.31471 177.06565 
L 262.913883 175.370831 
L 263.513055 177.023654 
L 264.112228 175.410645 
L 264.711401 176.985861 
L 265.310574 175.446564 
L 265.909747 176.951685 
L 266.50892 175.479116 
L 267.108093 176.920647 
L 267.707266 175.50874 
L 268.306439 176.892348 
L 268.905611 175.535798 
L 269.504784 176.866454 
L 270.103957 175.560597 
L 270.70313 176.842684 
L 271.302303 175.583397 
L 271.901476 176.8208 
L 272.500649 175.604417 
L 273.099822 176.800597 
L 273.698995 175.623846 
L 274.298168 176.781901 
L 274.89734 175.641847 
L 275.496513 176.76456 
L 276.095686 175.658561 
L 276.694859 176.748442 
L 277.294032 175.674112 
L 277.893205 176.733433 
L 278.492378 175.688605 
L 279.091551 176.719432 
L 279.690724 175.702135 
L 280.289897 176.706351 
L 280.889069 175.714786 
L 281.488242 176.694111 
L 282.087415 175.726631 
L 282.686588 176.682645 
L 283.285761 175.737735 
L 283.884934 176.671889 
L 284.484107 175.748156 
L 285.08328 176.66179 
L 285.682453 175.757946 
L 286.281625 176.652297 
L 286.880798 175.767152 
L 287.479971 176.643368 
L 288.079144 175.775815 
L 288.678317 176.634963 
L 289.27749 175.783972 
L 289.876663 176.627045 
L 290.475836 175.791658 
L 291.075009 176.619584 
L 291.674182 175.798902 
L 292.273354 176.612549 
L 292.872527 175.805734 
L 293.4717 176.605914 
L 294.070873 175.812177 
L 294.670046 176.599657 
L 295.269219 175.818255 
L 295.868392 176.593754 
L 296.467565 175.823988 
L 297.066738 176.588186 
L 297.66591 175.829395 
L 298.265083 176.582935 
L 298.864256 175.834494 
L 299.463429 176.577985 
L 300.062602 175.839299 
L 300.661775 176.57332 
L 301.260948 175.843826 
L 301.860121 176.568928 
L 302.459294 175.848087 
L 303.058467 176.564796 
L 303.657639 175.852094 
L 304.256812 176.560912 
L 304.855985 175.855857 
L 305.455158 176.557266 
L 306.054331 175.859388 
L 306.653504 176.553848 
L 307.252677 175.862694 
L 307.85185 176.550652 
L 308.451023 175.865784 
L 309.050196 176.547667 
L 309.649368 175.868664 
L 310.248541 176.544888 
L 310.847714 175.871343 
L 311.446887 176.542309 
L 312.04606 175.873825 
L 312.645233 176.539923 
L 313.244406 175.876116 
L 313.843579 176.537726 
L 314.442752 175.87822 
L 315.041924 176.535713 
L 315.641097 175.880142 
L 316.24027 176.533881 
L 316.839443 175.881885 
L 317.438616 176.532226 
L 318.037789 175.883453 
L 318.636962 176.530745 
L 319.236135 175.884847 
L 319.835308 176.529437 
L 320.434481 175.88607 
L 321.033653 176.5283 
L 321.632826 175.887122 
L 322.231999 176.527332 
L 322.831172 175.888006 
L 323.430345 176.526532 
L 324.029518 175.888721 
L 324.628691 176.525901 
L 325.227864 175.889268 
L 325.827037 176.525438 
L 326.426209 175.889646 
L 327.025382 176.525145 
L 327.624555 175.889854 
L 328.223728 176.525023 
L 328.822901 175.889891 
L 329.422074 176.525073 
L 330.021247 175.889753 
L 330.62042 176.525298 
L 331.219593 175.889439 
L 331.818766 176.525702 
L 332.417938 175.888946 
L 333.017111 176.526286 
L 333.616284 175.888269 
L 334.215457 176.527057 
L 334.81463 175.887403 
L 335.413803 176.528019 
L 336.012976 175.886344 
L 336.612149 176.529177 
L 337.211322 175.885085 
L 337.810495 176.530538 
L 338.409667 175.88362 
L 339.00884 176.53211 
L 339.608013 175.88194 
L 340.207186 176.533901 
L 340.806359 175.880036 
L 341.405532 176.53592 
L 342.004705 175.877899 
L 342.603878 176.538178 
L 343.203051 175.875517 
L 343.802223 176.540687 
L 344.401396 175.872878 
L 345.000569 176.54346 
L 345.599742 175.869967 
L 346.198915 176.546512 
L 346.798088 175.866769 
L 347.397261 176.54986 
L 347.996434 175.863267 
L 348.595607 176.553522 
L 349.19478 175.859439 
L 349.793952 176.55752 
L 350.393125 175.855265 
L 350.992298 176.561877 
L 351.591471 175.850719 
L 352.190644 176.566619 
L 352.789817 175.845773 
L 353.38899 176.571777 
L 353.988163 175.840395 
L 354.587336 176.577384 
L 355.186508 175.834549 
L 355.785681 176.583478 
L 356.384854 175.828195 
L 356.984027 176.590104 
L 357.5832 175.821286 
L 358.182373 176.597309 
L 358.781546 175.81377 
L 359.380719 176.605152 
L 359.979892 175.805585 
L 360.579065 176.613697 
L 361.178237 175.796662 
L 361.77741 176.623019 
L 362.376583 175.786919 
L 362.975756 176.633205 
L 363.574929 175.776264 
L 364.174102 176.644356 
L 364.773275 175.764586 
L 365.372448 176.656592 
L 365.971621 175.751757 
L 366.570794 176.670053 
L 367.169966 175.737624 
L 367.769139 176.684904 
L 368.368312 175.722005 
L 368.967485 176.701344 
L 369.566658 175.704683 
L 370.165831 176.719614 
L 370.765004 175.685393 
L 371.364177 176.740005 
L 371.96335 175.663813 
L 372.562522 176.762875 
L 373.161695 175.639543 
L 373.760868 176.788669 
L 374.360041 175.612085 
L 374.959214 176.817948 
L 375.558387 175.580807 
L 376.15756 176.851426 
L 376.756733 175.544899 
L 377.355906 176.890028 
L 377.955079 175.503299 
L 378.554251 176.934975 
L 379.153424 175.454596 
L 379.752597 176.987912 
L 380.35177 175.396863 
L 380.950943 177.051107 
L 381.550116 175.327411 
L 382.149289 177.127775 
L 382.748462 175.242361 
L 383.347635 177.222639 
L 383.946807 175.135907 
L 384.54598 177.342915 
L 385.145153 174.998963 
L 385.744326 177.500211 
L 386.343499 174.816459 
L 386.942672 177.714453 
L 387.541845 174.561484 
L 388.141018 178.022902 
L 388.740191 174.180905 
L 389.339364 178.50405 
L 389.938536 173.55362 
L 390.537709 179.355249 
L 391.136882 172.334264 
L 391.736055 181.242562 
L 392.335228 169.042695 
L 392.934401 188.310383 
L 394.132747 102.129337 
L 394.73192 121.015566 
L 395.331092 109.197187 
L 395.930265 117.723954 
L 396.529438 111.084557 
L 397.128611 116.504525 
L 397.727784 111.935843 
L 398.326957 115.87714 
L 398.92613 112.417106 
L 399.525303 115.496432 
L 400.124476 112.725699 
L 400.723649 115.241298 
L 401.322821 112.940114 
L 401.921994 115.058606 
L 402.521167 113.097613 
L 403.12034 114.921445 
L 403.719513 113.21812 
L 404.318686 114.814745 
L 404.917859 113.313245 
L 405.517032 114.729419 
L 406.116205 113.390205 
L 406.715378 114.659661 
L 407.31455 113.45372 
L 407.913723 114.601593 
L 408.512896 113.507008 
L 409.112069 114.552523 
L 409.711242 113.552337 
L 410.310415 114.510527 
L 410.909588 113.591351 
L 411.508761 114.474191 
L 412.107934 113.625272 
L 412.707106 114.442454 
L 413.306279 113.655026 
L 413.905452 114.414506 
L 414.504625 113.681326 
L 415.103798 114.389713 
L 415.702971 113.704735 
L 416.302144 114.367578 
L 416.901317 113.725697 
L 417.50049 114.3477 
L 418.099663 113.744571 
L 418.698835 114.329757 
L 419.298008 113.761649 
L 419.897181 114.313483 
L 420.496354 113.777173 
L 421.095527 114.298661 
L 421.6947 113.79134 
L 422.293873 114.285107 
L 422.893046 113.804318 
L 423.492219 114.27267 
L 424.091391 113.816247 
L 424.690564 114.261219 
L 425.289737 113.827247 
L 425.88891 114.250644 
L 426.488083 113.837421 
L 427.087256 114.24085 
L 427.686429 113.846855 
L 428.285602 114.231756 
L 428.884775 113.855626 
L 429.483948 114.223292 
L 430.08312 113.863799 
L 430.682293 114.215395 
L 431.281466 113.871432 
L 431.880639 114.208013 
L 432.479812 113.878576 
L 433.078985 114.201097 
L 433.678158 113.885275 
L 434.277331 114.194606 
L 434.876504 113.891567 
L 435.475677 114.188503 
L 435.475677 114.188503 
" clip-path="url(#p60eb6daa57)" style="fill: none; stroke-dasharray: 5.55,2.4; stroke-dashoffset: 0; stroke: #ff7f0e; stroke-width: 1.5"/>
   </g>
   <g id="line2d_20">
    <path d="M 44.814948 114.041538 
L 86.757051 114.041538 
L 240.145313 16.391538 
L 393.533574 114.041538 
L 435.475677 114.041538 
L 435.475677 114.041538 
" clip-path="url(#p60eb6daa57)" style="fill: none; stroke: #2ca02c; stroke-width: 1.5; stroke-linecap: square"/>
   </g>
   <g id="patch_3">
    <path d="M 44.845313 209.413828 
L 44.845313 7.2 
" style="fill: none; stroke: #000000; stroke-width: 0.8; stroke-linejoin: miter; stroke-linecap: square"/>
   </g>
   <g id="patch_4">
    <path d="M 435.445312 209.413828 
L 435.445312 7.2 
" style="fill: none; stroke: #000000; stroke-width: 0.8; stroke-linejoin: miter; stroke-linecap: square"/>
   </g>
   <g id="patch_5">
    <path d="M 44.845313 209.413828 
L 435.445312 209.413828 
" style="fill: none; stroke: #000000; stroke-width: 0.8; stroke-linejoin: miter; stroke-linecap: square"/>
   </g>
   <g id="patch_6">
    <path d="M 44.845313 7.2 
L 435.445312 7.2 
" style="fill: none; stroke: #000000; stroke-width: 0.8; stroke-linejoin: miter; stroke-linecap: square"/>
   </g>
   <g id="legend_1">
    <g id="patch_7">
     <path d="M 301.773438 59.234375 
L 428.445312 59.234375 
Q 430.445312 59.234375 430.445312 57.234375 
L 430.445312 14.2 
Q 430.445312 12.2 428.445312 12.2 
L 301.773438 12.2 
Q 299.773438 12.2 299.773438 14.2 
L 299.773438 57.234375 
Q 299.773438 59.234375 301.773438 59.234375 
z
" style="fill: #ffffff; opacity: 0.8; stroke: #cccccc; stroke-linejoin: miter"/>
    </g>
    <g id="line2d_21">
     <path d="M 303.773438 20.298438 
L 313.773438 20.298438 
L 323.773438 20.298438 
" style="fill: none; stroke-dasharray: 9.6,2.4,1.5,2.4; stroke-dashoffset: 0; stroke: #1f77b4; stroke-width: 1.5"/>
    </g>
    <g id="text_19">
     <!-- Finite derivative -->
     <g transform="translate(331.773438 23.798438) scale(0.1 -0.1)">
      <defs>
       <path id="DejaVuSans-46" d="M 628 4666 
L 3309 4666 
L 3309 4134 
L 1259 4134 
L 1259 2759 
L 3109 2759 
L 3109 2228 
L 1259 2228 
L 1259 0 
L 628 0 
L 628 4666 
z
" transform="scale(0.015625)"/>
       <path id="DejaVuSans-69" d="M 603 3500 
L 1178 3500 
L 1178 0 
L 603 0 
L 603 3500 
z
M 603 4863 
L 1178 4863 
L 1178 4134 
L 603 4134 
L 603 4863 
z
" transform="scale(0.015625)"/>
       <path id="DejaVuSans-6e" d="M 3513 2113 
L 3513 0 
L 2938 0 
L 2938 2094 
Q 2938 2591 2744 2837 
Q 2550 3084 2163 3084 
Q 1697 3084 1428 2787 
Q 1159 2491 1159 1978 
L 1159 0 
L 581 0 
L 581 3500 
L 1159 3500 
L 1159 2956 
Q 1366 3272 1645 3428 
Q 1925 3584 2291 3584 
Q 2894 3584 3203 3211 
Q 3513 2838 3513 2113 
z
" transform="scale(0.015625)"/>
       <path id="DejaVuSans-74" d="M 1172 4494 
L 1172 3500 
L 2356 3500 
L 2356 3053 
L 1172 3053 
L 1172 1153 
Q 1172 725 1289 603 
Q 1406 481 1766 481 
L 2356 481 
L 2356 0 
L 1766 0 
Q 1100 0 847 248 
Q 594 497 594 1153 
L 594 3053 
L 172 3053 
L 172 3500 
L 594 3500 
L 594 4494 
L 1172 4494 
z
" transform="scale(0.015625)"/>
       <path id="DejaVuSans-65" d="M 3597 1894 
L 3597 1613 
L 953 1613 
Q 991 1019 1311 708 
Q 1631 397 2203 397 
Q 2534 397 2845 478 
Q 3156 559 3463 722 
L 3463 178 
Q 3153 47 2828 -22 
Q 2503 -91 2169 -91 
Q 1331 -91 842 396 
Q 353 884 353 1716 
Q 353 2575 817 3079 
Q 1281 3584 2069 3584 
Q 2775 3584 3186 3129 
Q 3597 2675 3597 1894 
z
M 3022 2063 
Q 3016 2534 2758 2815 
Q 2500 3097 2075 3097 
Q 1594 3097 1305 2825 
Q 1016 2553 972 2059 
L 3022 2063 
z
" transform="scale(0.015625)"/>
       <path id="DejaVuSans-20" transform="scale(0.015625)"/>
       <path id="DejaVuSans-64" d="M 2906 2969 
L 2906 4863 
L 3481 4863 
L 3481 0 
L 2906 0 
L 2906 525 
Q 2725 213 2448 61 
Q 2172 -91 1784 -91 
Q 1150 -91 751 415 
Q 353 922 353 1747 
Q 353 2572 751 3078 
Q 1150 3584 1784 3584 
Q 2172 3584 2448 3432 
Q 2725 3281 2906 2969 
z
M 947 1747 
Q 947 1113 1208 752 
Q 1469 391 1925 391 
Q 2381 391 2643 752 
Q 2906 1113 2906 1747 
Q 2906 2381 2643 2742 
Q 2381 3103 1925 3103 
Q 1469 3103 1208 2742 
Q 947 2381 947 1747 
z
" transform="scale(0.015625)"/>
       <path id="DejaVuSans-72" d="M 2631 2963 
Q 2534 3019 2420 3045 
Q 2306 3072 2169 3072 
Q 1681 3072 1420 2755 
Q 1159 2438 1159 1844 
L 1159 0 
L 581 0 
L 581 3500 
L 1159 3500 
L 1159 2956 
Q 1341 3275 1631 3429 
Q 1922 3584 2338 3584 
Q 2397 3584 2469 3576 
Q 2541 3569 2628 3553 
L 2631 2963 
z
" transform="scale(0.015625)"/>
       <path id="DejaVuSans-76" d="M 191 3500 
L 800 3500 
L 1894 563 
L 2988 3500 
L 3597 3500 
L 2284 0 
L 1503 0 
L 191 3500 
z
" transform="scale(0.015625)"/>
       <path id="DejaVuSans-61" d="M 2194 1759 
Q 1497 1759 1228 1600 
Q 959 1441 959 1056 
Q 959 750 1161 570 
Q 1363 391 1709 391 
Q 2188 391 2477 730 
Q 2766 1069 2766 1631 
L 2766 1759 
L 2194 1759 
z
M 3341 1997 
L 3341 0 
L 2766 0 
L 2766 531 
Q 2569 213 2275 61 
Q 1981 -91 1556 -91 
Q 1019 -91 701 211 
Q 384 513 384 1019 
Q 384 1609 779 1909 
Q 1175 2209 1959 2209 
L 2766 2209 
L 2766 2266 
Q 2766 2663 2505 2880 
Q 2244 3097 1772 3097 
Q 1472 3097 1187 3025 
Q 903 2953 641 2809 
L 641 3341 
Q 956 3463 1253 3523 
Q 1550 3584 1831 3584 
Q 2591 3584 2966 3190 
Q 3341 2797 3341 1997 
z
" transform="scale(0.015625)"/>
      </defs>
      <use xlink:href="#DejaVuSans-46"/>
      <use xlink:href="#DejaVuSans-69" x="50.269531"/>
      <use xlink:href="#DejaVuSans-6e" x="78.052734"/>
      <use xlink:href="#DejaVuSans-69" x="141.431641"/>
      <use xlink:href="#DejaVuSans-74" x="169.214844"/>
      <use xlink:href="#DejaVuSans-65" x="208.423828"/>
      <use xlink:href="#DejaVuSans-20" x="269.947266"/>
      <use xlink:href="#DejaVuSans-64" x="301.734375"/>
      <use xlink:href="#DejaVuSans-65" x="365.210938"/>
      <use xlink:href="#DejaVuSans-72" x="426.734375"/>
      <use xlink:href="#DejaVuSans-69" x="467.847656"/>
      <use xlink:href="#DejaVuSans-76" x="495.630859"/>
      <use xlink:href="#DejaVuSans-61" x="554.810547"/>
      <use xlink:href="#DejaVuSans-74" x="616.089844"/>
      <use xlink:href="#DejaVuSans-69" x="655.298828"/>
      <use xlink:href="#DejaVuSans-76" x="683.082031"/>
      <use xlink:href="#DejaVuSans-65" x="742.261719"/>
     </g>
    </g>
    <g id="line2d_22">
     <path d="M 303.773438 34.976563 
L 313.773438 34.976563 
L 323.773438 34.976563 
" style="fill: none; stroke-dasharray: 5.55,2.4; stroke-dashoffset: 0; stroke: #ff7f0e; stroke-width: 1.5"/>
    </g>
    <g id="text_20">
     <!-- Spectral derivative -->
     <g transform="translate(331.773438 38.476563) scale(0.1 -0.1)">
      <defs>
       <path id="DejaVuSans-53" d="M 3425 4513 
L 3425 3897 
Q 3066 4069 2747 4153 
Q 2428 4238 2131 4238 
Q 1616 4238 1336 4038 
Q 1056 3838 1056 3469 
Q 1056 3159 1242 3001 
Q 1428 2844 1947 2747 
L 2328 2669 
Q 3034 2534 3370 2195 
Q 3706 1856 3706 1288 
Q 3706 609 3251 259 
Q 2797 -91 1919 -91 
Q 1588 -91 1214 -16 
Q 841 59 441 206 
L 441 856 
Q 825 641 1194 531 
Q 1563 422 1919 422 
Q 2459 422 2753 634 
Q 3047 847 3047 1241 
Q 3047 1584 2836 1778 
Q 2625 1972 2144 2069 
L 1759 2144 
Q 1053 2284 737 2584 
Q 422 2884 422 3419 
Q 422 4038 858 4394 
Q 1294 4750 2059 4750 
Q 2388 4750 2728 4690 
Q 3069 4631 3425 4513 
z
" transform="scale(0.015625)"/>
       <path id="DejaVuSans-70" d="M 1159 525 
L 1159 -1331 
L 581 -1331 
L 581 3500 
L 1159 3500 
L 1159 2969 
Q 1341 3281 1617 3432 
Q 1894 3584 2278 3584 
Q 2916 3584 3314 3078 
Q 3713 2572 3713 1747 
Q 3713 922 3314 415 
Q 2916 -91 2278 -91 
Q 1894 -91 1617 61 
Q 1341 213 1159 525 
z
M 3116 1747 
Q 3116 2381 2855 2742 
Q 2594 3103 2138 3103 
Q 1681 3103 1420 2742 
Q 1159 2381 1159 1747 
Q 1159 1113 1420 752 
Q 1681 391 2138 391 
Q 2594 391 2855 752 
Q 3116 1113 3116 1747 
z
" transform="scale(0.015625)"/>
       <path id="DejaVuSans-63" d="M 3122 3366 
L 3122 2828 
Q 2878 2963 2633 3030 
Q 2388 3097 2138 3097 
Q 1578 3097 1268 2742 
Q 959 2388 959 1747 
Q 959 1106 1268 751 
Q 1578 397 2138 397 
Q 2388 397 2633 464 
Q 2878 531 3122 666 
L 3122 134 
Q 2881 22 2623 -34 
Q 2366 -91 2075 -91 
Q 1284 -91 818 406 
Q 353 903 353 1747 
Q 353 2603 823 3093 
Q 1294 3584 2113 3584 
Q 2378 3584 2631 3529 
Q 2884 3475 3122 3366 
z
" transform="scale(0.015625)"/>
       <path id="DejaVuSans-6c" d="M 603 4863 
L 1178 4863 
L 1178 0 
L 603 0 
L 603 4863 
z
" transform="scale(0.015625)"/>
      </defs>
      <use xlink:href="#DejaVuSans-53"/>
      <use xlink:href="#DejaVuSans-70" x="63.476562"/>
      <use xlink:href="#DejaVuSans-65" x="126.953125"/>
      <use xlink:href="#DejaVuSans-63" x="188.476562"/>
      <use xlink:href="#DejaVuSans-74" x="243.457031"/>
      <use xlink:href="#DejaVuSans-72" x="282.666016"/>
      <use xlink:href="#DejaVuSans-61" x="323.779297"/>
      <use xlink:href="#DejaVuSans-6c" x="385.058594"/>
      <use xlink:href="#DejaVuSans-20" x="412.841797"/>
      <use xlink:href="#DejaVuSans-64" x="444.628906"/>
      <use xlink:href="#DejaVuSans-65" x="508.105469"/>
      <use xlink:href="#DejaVuSans-72" x="569.628906"/>
      <use xlink:href="#DejaVuSans-69" x="610.742188"/>
      <use xlink:href="#DejaVuSans-76" x="638.525391"/>
      <use xlink:href="#DejaVuSans-61" x="697.705078"/>
      <use xlink:href="#DejaVuSans-74" x="758.984375"/>
      <use xlink:href="#DejaVuSans-69" x="798.193359"/>
      <use xlink:href="#DejaVuSans-76" x="825.976562"/>
      <use xlink:href="#DejaVuSans-65" x="885.15625"/>
     </g>
    </g>
    <g id="line2d_23">
     <path d="M 303.773438 49.654688 
L 313.773438 49.654688 
L 323.773438 49.654688 
" style="fill: none; stroke: #2ca02c; stroke-width: 1.5; stroke-linecap: square"/>
    </g>
    <g id="text_21">
     <!-- $f$ -->
     <g transform="translate(331.773438 53.154688) scale(0.1 -0.1)">
      <defs>
       <path id="DejaVuSans-Oblique-66" d="M 3059 4863 
L 2969 4384 
L 2419 4384 
Q 2106 4384 1964 4261 
Q 1822 4138 1753 3809 
L 1691 3500 
L 2638 3500 
L 2553 3053 
L 1606 3053 
L 1013 0 
L 434 0 
L 1031 3053 
L 481 3053 
L 563 3500 
L 1113 3500 
L 1159 3744 
Q 1278 4363 1576 4613 
Q 1875 4863 2516 4863 
L 3059 4863 
z
" transform="scale(0.015625)"/>
      </defs>
      <use xlink:href="#DejaVuSans-Oblique-66" transform="translate(0 0.015625)"/>
     </g>
    </g>
   </g>
  </g>
 </g>
 <defs>
  <clipPath id="p60eb6daa57">
   <rect x="44.845313" y="7.2" width="390.6" height="202.213828"/>
  </clipPath>
 </defs>
</svg>
