<?xml version="1.0" encoding="utf-8" standalone="no"?>
<!DOCTYPE svg PUBLIC "-//W3C//DTD SVG 1.1//EN"
  "http://www.w3.org/Graphics/SVG/1.1/DTD/svg11.dtd">
<svg xmlns:xlink="http://www.w3.org/1999/xlink" width="405pt" height="109.274489pt" viewBox="0 0 405 109.274489" xmlns="http://www.w3.org/2000/svg" version="1.1">
 <metadata>
  <rdf:RDF xmlns:dc="http://purl.org/dc/elements/1.1/" xmlns:cc="http://creativecommons.org/ns#" xmlns:rdf="http://www.w3.org/1999/02/22-rdf-syntax-ns#">
   <cc:Work>
    <dc:type rdf:resource="http://purl.org/dc/dcmitype/StillImage"/>
    <dc:date>2024-11-18T12:55:01.981321</dc:date>
    <dc:format>image/svg+xml</dc:format>
    <dc:creator>
     <cc:Agent>
      <dc:title>Matplotlib v3.9.2, https://matplotlib.org/</dc:title>
     </cc:Agent>
    </dc:creator>
   </cc:Work>
  </rdf:RDF>
 </metadata>
 <defs>
  <style type="text/css">*{stroke-linejoin: round; stroke-linecap: butt}</style>
 </defs>
 <g id="figure_1">
  <g id="patch_1">
   <path d="M 0 109.274489 
L 405 109.274489 
L 405 0 
L 0 0 
z
" style="fill: #ffffff"/>
  </g>
  <g id="axes_1">
   <g id="patch_2">
    <path d="M 7.2 85.396364 
L 397.8 85.396364 
L 397.8 7.2 
L 7.2 7.2 
z
" style="fill: #ffffff"/>
   </g>
   <g id="matplotlib.axis_1">
    <g id="xtick_1">
     <g id="line2d_1">
      <defs>
       <path id="me98dd37886" d="M 0 0 
L 0 3.5 
" style="stroke: #000000; stroke-width: 0.8"/>
      </defs>
      <g>
       <use xlink:href="#me98dd37886" x="163.592727" y="85.396364" style="stroke: #000000; stroke-width: 0.8"/>
      </g>
     </g>
     <g id="text_1">
      <!-- $\tau - a$ -->
      <g transform="translate(151.342727 99.994801) scale(0.1 -0.1)">
       <defs>
        <path id="DejaVuSans-Oblique-3c4" d="M 2103 638 
Q 2188 488 2525 488 
L 2800 488 
L 2706 0 
L 2363 0 
Q 1800 0 1600 300 
Q 1403 606 1534 1269 
L 1856 2925 
L 541 2925 
L 653 3500 
L 3881 3500 
L 3769 2925 
L 2444 2925 
L 2113 1234 
Q 2025 781 2103 638 
z
" transform="scale(0.015625)"/>
        <path id="DejaVuSans-2212" d="M 678 2272 
L 4684 2272 
L 4684 1741 
L 678 1741 
L 678 2272 
z
" transform="scale(0.015625)"/>
        <path id="DejaVuSans-Oblique-61" d="M 3438 1997 
L 3047 0 
L 2472 0 
L 2578 531 
Q 2325 219 2001 64 
Q 1678 -91 1281 -91 
Q 834 -91 548 182 
Q 263 456 263 884 
Q 263 1497 752 1853 
Q 1241 2209 2100 2209 
L 2900 2209 
L 2931 2363 
Q 2938 2388 2941 2417 
Q 2944 2447 2944 2509 
Q 2944 2788 2717 2942 
Q 2491 3097 2081 3097 
Q 1800 3097 1504 3025 
Q 1209 2953 897 2809 
L 997 3341 
Q 1322 3463 1633 3523 
Q 1944 3584 2234 3584 
Q 2853 3584 3176 3315 
Q 3500 3047 3500 2534 
Q 3500 2431 3484 2292 
Q 3469 2153 3438 1997 
z
M 2816 1759 
L 2241 1759 
Q 1534 1759 1195 1570 
Q 856 1381 856 984 
Q 856 709 1029 553 
Q 1203 397 1509 397 
Q 1978 397 2328 733 
Q 2678 1069 2791 1631 
L 2816 1759 
z
" transform="scale(0.015625)"/>
       </defs>
       <use xlink:href="#DejaVuSans-Oblique-3c4"/>
       <use xlink:href="#DejaVuSans-2212" transform="translate(79.6875 0)"/>
       <use xlink:href="#DejaVuSans-Oblique-61" transform="translate(182.958984 0)"/>
      </g>
     </g>
    </g>
    <g id="xtick_2">
     <g id="line2d_2">
      <g>
       <use xlink:href="#me98dd37886" x="202.690909" y="85.396364" style="stroke: #000000; stroke-width: 0.8"/>
      </g>
     </g>
     <g id="text_2">
      <!-- $\tau$ -->
      <g transform="translate(199.640909 99.994801) scale(0.1 -0.1)">
       <use xlink:href="#DejaVuSans-Oblique-3c4" transform="translate(0 0.3125)"/>
      </g>
     </g>
    </g>
    <g id="xtick_3">
     <g id="line2d_3">
      <g>
       <use xlink:href="#me98dd37886" x="241.789091" y="85.396364" style="stroke: #000000; stroke-width: 0.8"/>
      </g>
     </g>
     <g id="text_3">
      <!-- $\tau + a$ -->
      <g transform="translate(229.539091 99.994801) scale(0.1 -0.1)">
       <defs>
        <path id="DejaVuSans-2b" d="M 2944 4013 
L 2944 2272 
L 4684 2272 
L 4684 1741 
L 2944 1741 
L 2944 0 
L 2419 0 
L 2419 1741 
L 678 1741 
L 678 2272 
L 2419 2272 
L 2419 4013 
L 2944 4013 
z
" transform="scale(0.015625)"/>
       </defs>
       <use xlink:href="#DejaVuSans-Oblique-3c4" transform="translate(0 0.296875)"/>
       <use xlink:href="#DejaVuSans-2b" transform="translate(79.6875 0.296875)"/>
       <use xlink:href="#DejaVuSans-Oblique-61" transform="translate(182.958984 0.296875)"/>
      </g>
     </g>
    </g>
   </g>
   <g id="matplotlib.axis_2"/>
   <g id="line2d_4">
    <path d="M 7.2 38.877456 
L 7.963636 45.031452 
L 8.345455 39.168385 
L 8.727273 44.283187 
L 9.109091 30.379422 
L 9.490909 28.812751 
L 9.872727 22.935732 
L 10.254545 32.312548 
L 10.636364 27.602888 
L 11.018182 38.76787 
L 11.4 35.86129 
L 11.781818 53.887322 
L 12.163636 35.557136 
L 12.545455 36.90871 
L 12.927273 35.950057 
L 13.309091 48.111301 
L 13.690909 39.36144 
L 14.072727 41.475526 
L 14.454545 42.519169 
L 14.836364 42.983214 
L 15.6 48.357448 
L 15.981818 47.849215 
L 16.363636 51.046689 
L 16.745455 42.96989 
L 17.127273 45.545558 
L 17.509091 46.366512 
L 17.890909 37.109961 
L 18.272727 43.676035 
L 18.654545 42.49304 
L 19.036364 54.922849 
L 19.8 37.903593 
L 20.181818 45.05579 
L 20.563636 42.165745 
L 20.945455 42.775921 
L 21.327273 48.49478 
L 21.709091 37.703898 
L 22.090909 30.212244 
L 22.472727 40.476912 
L 22.854545 43.041876 
L 23.236364 36.507038 
L 23.618182 32.59723 
L 24 36.981637 
L 24.381818 33.64221 
L 24.763636 38.619657 
L 25.145455 32.631684 
L 25.527273 38.62716 
L 25.909091 32.103347 
L 26.290909 62.288707 
L 26.672727 61.631888 
L 27.054545 54.755247 
L 27.818182 53.182605 
L 28.2 44.175186 
L 28.581818 63.422682 
L 28.963636 65.943915 
L 29.345455 44.207298 
L 29.727273 44.167738 
L 30.109091 61.270332 
L 30.490909 60.854848 
L 30.872727 74.246309 
L 31.254545 49.543977 
L 31.636364 35.948806 
L 32.018182 57.212248 
L 32.4 57.490369 
L 32.781818 62.541175 
L 33.163636 50.79798 
L 33.545455 62.375615 
L 33.927273 63.223421 
L 34.309091 55.897669 
L 35.072727 34.375121 
L 35.836364 45.299531 
L 36.218182 57.660072 
L 36.6 44.975228 
L 36.981818 37.216354 
L 37.363636 52.205908 
L 37.745455 48.147588 
L 38.127273 26.467766 
L 38.509091 42.150754 
L 38.890909 40.386623 
L 39.272727 48.782491 
L 39.654545 44.48978 
L 40.036364 42.510914 
L 40.418182 36.545768 
L 40.8 41.038605 
L 41.181818 55.418472 
L 41.563636 46.168011 
L 41.945455 52.262789 
L 42.327273 48.276261 
L 42.709091 38.460748 
L 43.090909 46.013725 
L 43.472727 48.815189 
L 43.854545 53.79297 
L 44.236364 40.487444 
L 44.618182 40.15664 
L 45 50.552016 
L 45.381818 35.526188 
L 45.763636 41.235159 
L 46.145455 23.12539 
L 46.527273 33.25868 
L 46.909091 54.705036 
L 47.290909 27.566174 
L 47.672727 39.132819 
L 48.054545 44.322012 
L 48.436364 28.169629 
L 48.818182 24.54362 
L 49.581818 34.464734 
L 49.963636 37.057095 
L 50.345455 26.123396 
L 50.727273 34.246016 
L 51.109091 38.226658 
L 51.490909 37.866952 
L 51.872727 39.525223 
L 52.636364 47.979795 
L 53.018182 57.777327 
L 53.4 42.393818 
L 53.781818 42.787828 
L 54.163636 44.673153 
L 54.545455 60.687825 
L 54.927273 60.372881 
L 55.309091 45.963511 
L 55.690909 49.956986 
L 56.072727 59.471117 
L 56.454545 49.673699 
L 56.836364 48.844313 
L 57.218182 67.253215 
L 57.6 51.191395 
L 57.981818 65.960493 
L 58.363636 40.926923 
L 58.745455 47.934421 
L 59.127273 48.268115 
L 59.509091 52.614615 
L 59.890909 47.903113 
L 60.272727 49.353609 
L 60.654545 53.101128 
L 61.036364 43.302687 
L 61.418182 52.049575 
L 62.181818 39.901544 
L 62.563636 49.965617 
L 63.327273 45.555639 
L 63.709091 51.362157 
L 64.090909 33.502773 
L 64.472727 54.94371 
L 64.854545 46.897443 
L 65.618182 53.554314 
L 66 48.679985 
L 66.763636 61.93388 
L 67.145455 43.844123 
L 67.527273 44.828414 
L 67.909091 57.181548 
L 68.290909 61.179052 
L 68.672727 63.742709 
L 69.054545 62.291449 
L 69.436364 48.969702 
L 70.2 54.741788 
L 70.581818 50.63191 
L 70.963636 41.319835 
L 71.345455 55.534926 
L 71.727273 35.372371 
L 72.109091 35.158661 
L 72.490909 47.722361 
L 72.872727 49.055143 
L 73.254545 34.735342 
L 73.636364 39.753603 
L 74.018182 50.593709 
L 74.4 34.238054 
L 74.781818 36.499495 
L 75.163636 23.137181 
L 75.545455 19.168936 
L 75.927273 31.81434 
L 76.309091 33.27815 
L 76.690909 14.966224 
L 77.072727 41.706168 
L 77.454545 17.229425 
L 77.836364 36.545106 
L 78.218182 41.140083 
L 78.981818 30.170289 
L 79.363636 51.250606 
L 79.745455 45.190632 
L 80.127273 54.662856 
L 80.509091 32.653615 
L 80.890909 46.238454 
L 81.272727 40.469181 
L 81.654545 45.228187 
L 82.036364 44.184671 
L 82.418182 36.005986 
L 82.8 57.81859 
L 83.563636 38.440258 
L 83.945455 51.166987 
L 84.327273 40.207816 
L 84.709091 38.918176 
L 85.090909 47.898768 
L 85.472727 47.020308 
L 85.854545 57.462838 
L 86.236364 39.141582 
L 86.618182 37.383895 
L 87 50.915715 
L 87.381818 54.863894 
L 87.763636 42.766863 
L 88.527273 52.621398 
L 89.290909 44.058731 
L 89.672727 54.473761 
L 90.054545 39.037539 
L 90.436364 35.869861 
L 90.818182 51.70856 
L 91.2 57.17423 
L 91.581818 45.067281 
L 91.963636 56.892597 
L 92.345455 43.165312 
L 92.727273 65.284003 
L 93.109091 68.004153 
L 93.490909 68.61643 
L 93.872727 71.791675 
L 94.254545 57.915311 
L 94.636364 60.674778 
L 95.018182 52.174027 
L 95.781818 70.090585 
L 96.163636 51.781597 
L 96.545455 59.149465 
L 96.927273 54.496403 
L 97.309091 65.490269 
L 97.690909 43.526558 
L 98.072727 54.291339 
L 98.454545 68.434121 
L 98.836364 35.422588 
L 99.6 28.175009 
L 99.981818 42.587365 
L 100.363636 39.023256 
L 100.745455 37.001178 
L 101.127273 36.49771 
L 101.509091 52.699487 
L 101.890909 30.315349 
L 102.272727 40.521818 
L 103.036364 35.018408 
L 103.8 50.225343 
L 104.181818 43.0565 
L 104.563636 54.995255 
L 105.327273 37.769741 
L 105.709091 50.336604 
L 106.090909 43.1759 
L 106.472727 50.69298 
L 106.854545 41.3963 
L 107.236364 41.732038 
L 107.618182 49.987605 
L 108 49.543909 
L 108.381818 36.529648 
L 108.763636 30.876873 
L 109.145455 33.8506 
L 109.527273 44.725712 
L 109.909091 51.334592 
L 110.290909 51.374833 
L 110.672727 49.412747 
L 111.054545 38.829363 
L 111.436364 37.194104 
L 111.818182 39.89305 
L 112.2 48.579297 
L 112.963636 30.708024 
L 113.345455 30.652876 
L 113.727273 45.31824 
L 114.109091 41.416166 
L 114.490909 18.409366 
L 114.872727 25.85125 
L 115.254545 38.300446 
L 115.636364 29.317082 
L 116.018182 57.022057 
L 116.4 31.72632 
L 116.781818 39.968834 
L 117.163636 40.966986 
L 117.545455 28.723802 
L 117.927273 57.805407 
L 118.309091 43.711378 
L 118.690909 50.438658 
L 119.072727 53.987561 
L 119.454545 53.235895 
L 119.836364 53.658198 
L 120.218182 65.159213 
L 120.6 62.054069 
L 120.981818 53.553247 
L 121.363636 60.404153 
L 121.745455 53.634857 
L 122.127273 57.908392 
L 122.509091 60.094462 
L 122.890909 57.759579 
L 123.272727 56.703229 
L 123.654545 51.900635 
L 124.036364 52.096995 
L 124.418182 47.222462 
L 124.8 49.172979 
L 125.181818 49.862183 
L 125.563636 57.537911 
L 125.945455 54.03371 
L 126.327273 54.183312 
L 126.709091 28.970955 
L 127.472727 46.294297 
L 127.854545 53.889032 
L 128.236364 47.325573 
L 128.618182 45.761467 
L 129 25.705237 
L 129.381818 44.946236 
L 129.763636 39.756876 
L 130.145455 41.545561 
L 130.909091 58.639714 
L 131.290909 62.393752 
L 131.672727 56.268105 
L 132.054545 54.393849 
L 132.436364 40.341703 
L 132.818182 50.640599 
L 133.2 55.051766 
L 133.581818 53.048879 
L 133.963636 57.072728 
L 134.345455 52.803294 
L 134.727273 57.977011 
L 135.109091 59.582637 
L 135.490909 34.049878 
L 135.872727 36.799199 
L 136.254545 44.020165 
L 136.636364 30.8281 
L 137.018182 32.928604 
L 137.4 45.367817 
L 137.781818 41.447563 
L 138.163636 42.581937 
L 138.545455 41.141061 
L 138.927273 18.304054 
L 139.309091 43.114252 
L 139.690909 24.268482 
L 140.454545 38.709561 
L 140.836364 34.238883 
L 141.218182 33.252068 
L 141.6 26.084027 
L 141.981818 28.889674 
L 142.363636 39.838356 
L 142.745455 29.677575 
L 143.127273 41.384264 
L 143.509091 47.309374 
L 143.890909 50.701493 
L 144.272727 47.925804 
L 144.654545 56.370322 
L 145.036364 45.533564 
L 145.418182 56.824411 
L 145.8 34.216165 
L 146.181818 58.76557 
L 146.563636 59.596768 
L 146.945455 60.118243 
L 147.327273 39.625949 
L 147.709091 51.976396 
L 148.090909 38.742639 
L 148.472727 58.550719 
L 148.854545 51.722809 
L 149.236364 58.25138 
L 149.618182 49.406168 
L 150 55.664484 
L 150.381818 49.972165 
L 150.763636 55.256965 
L 151.145455 63.193018 
L 151.527273 35.660029 
L 151.909091 45.072934 
L 152.290909 44.538225 
L 152.672727 57.852823 
L 153.436364 44.854849 
L 153.818182 42.868387 
L 154.2 35.459174 
L 154.581818 60.75149 
L 154.963636 40.538254 
L 155.345455 39.343101 
L 155.727273 51.899077 
L 156.109091 44.912524 
L 156.490909 48.929048 
L 156.872727 58.838011 
L 157.254545 64.605997 
L 157.636364 62.106583 
L 158.018182 54.684988 
L 158.781818 62.769463 
L 159.163636 56.052048 
L 159.545455 62.484782 
L 160.309091 52.33299 
L 160.690909 69.528886 
L 161.072727 63.458879 
L 161.454545 55.456715 
L 161.836364 58.01864 
L 162.218182 54.009583 
L 162.6 43.569784 
L 162.981818 49.848791 
L 163.363636 41.776769 
L 163.745455 41.23094 
L 164.127273 49.323067 
L 164.509091 44.875263 
L 164.890909 42.391959 
L 165.272727 35.50606 
L 165.654545 47.13528 
L 166.036364 42.87199 
L 166.418182 17.846904 
L 166.8 39.260558 
L 167.181818 26.617989 
L 167.563636 29.941872 
L 167.945455 37.285932 
L 168.327273 34.750227 
L 168.709091 38.057887 
L 169.090909 29.498076 
L 169.472727 30.464896 
L 169.854545 38.344039 
L 170.236364 27.516283 
L 170.618182 49.180266 
L 171 46.879161 
L 171.381818 41.113879 
L 171.763636 27.440688 
L 172.145455 44.665637 
L 172.527273 40.960412 
L 172.909091 43.027468 
L 173.290909 50.475905 
L 173.672727 51.641621 
L 174.054545 40.84091 
L 174.436364 42.126216 
L 174.818182 47.674147 
L 175.2 29.605079 
L 175.581818 51.899249 
L 175.963636 59.272367 
L 176.727273 37.649701 
L 177.109091 32.123074 
L 177.490909 35.561587 
L 177.872727 56.732987 
L 178.254545 39.078889 
L 178.636364 33.659738 
L 179.018182 35.504476 
L 179.4 27.755175 
L 179.781818 41.996276 
L 180.163636 24.135294 
L 180.545455 40.077699 
L 180.927273 50.583228 
L 181.309091 52.643596 
L 181.690909 53.01033 
L 182.072727 35.42156 
L 182.454545 48.538128 
L 182.836364 44.481173 
L 183.218182 47.164398 
L 183.6 56.194319 
L 183.981818 50.188078 
L 184.363636 54.845509 
L 184.745455 46.249456 
L 185.127273 63.945216 
L 185.509091 60.968723 
L 185.890909 73.332084 
L 186.272727 63.868926 
L 186.654545 65.454372 
L 187.036364 67.997548 
L 187.418182 47.953355 
L 187.8 66.350658 
L 188.181818 62.070942 
L 188.563636 52.793753 
L 188.945455 47.246288 
L 189.327273 55.641017 
L 189.709091 51.392761 
L 190.090909 56.699947 
L 190.472727 53.222779 
L 190.854545 41.050534 
L 191.236364 51.011454 
L 191.618182 49.864729 
L 192 39.438561 
L 192.381818 40.042661 
L 192.763636 41.647209 
L 193.145455 26.80533 
L 193.527273 40.267406 
L 193.909091 35.813395 
L 194.290909 60.193375 
L 195.054545 35.15773 
L 195.436364 46.245951 
L 195.818182 42.002394 
L 196.2 44.652971 
L 196.581818 49.649217 
L 196.963636 44.770817 
L 197.345455 54.693533 
L 197.727273 37.673824 
L 198.109091 51.827705 
L 198.490909 49.822555 
L 198.872727 44.00377 
L 199.254545 34.891681 
L 199.636364 48.213299 
L 200.018182 44.417066 
L 200.4 44.547229 
L 200.781818 52.530464 
L 201.163636 58.184582 
L 201.545455 28.40753 
L 202.309091 46.126 
L 203.072727 39.443793 
L 203.454545 37.963733 
L 203.836364 37.757862 
L 204.218182 23.725991 
L 204.981818 48.300133 
L 205.363636 29.779439 
L 205.745455 25.623594 
L 206.127273 28.181847 
L 206.509091 37.358926 
L 206.890909 26.110952 
L 207.272727 36.592402 
L 207.654545 28.525086 
L 208.036364 36.201179 
L 208.418182 41.363771 
L 208.8 52.905281 
L 209.181818 46.058959 
L 209.563636 49.668938 
L 209.945455 44.594422 
L 210.327273 46.424256 
L 211.090909 74.307987 
L 211.472727 49.899611 
L 211.854545 53.006785 
L 212.236364 58.076644 
L 212.618182 66.381112 
L 213 42.451656 
L 213.381818 74.448019 
L 213.763636 54.42116 
L 214.145455 49.357101 
L 214.527273 57.782369 
L 214.909091 60.630841 
L 215.290909 60.588676 
L 215.672727 56.743107 
L 216.054545 60.343849 
L 216.436364 67.383929 
L 216.818182 52.122105 
L 217.2 45.709105 
L 217.581818 43.527746 
L 217.963636 42.733943 
L 218.345455 43.345708 
L 218.727273 47.971029 
L 219.109091 40.097182 
L 219.490909 46.302708 
L 219.872727 49.050449 
L 220.254545 49.951584 
L 220.636364 46.258777 
L 221.4 48.919121 
L 221.781818 39.54704 
L 222.163636 50.182784 
L 222.927273 46.690321 
L 223.309091 46.154768 
L 223.690909 60.143454 
L 224.072727 49.184344 
L 224.454545 57.356365 
L 224.836364 70.438831 
L 225.218182 59.752875 
L 225.6 60.061417 
L 225.981818 62.882933 
L 226.363636 75.951344 
L 226.745455 45.313593 
L 227.509091 59.283451 
L 227.890909 33.975429 
L 228.272727 47.825942 
L 228.654545 43.049196 
L 229.036364 33.029838 
L 229.418182 39.415005 
L 229.8 37.685594 
L 230.181818 31.283492 
L 230.563636 29.419027 
L 230.945455 35.320478 
L 231.327273 38.337807 
L 231.709091 22.918004 
L 232.090909 25.7815 
L 232.472727 21.742146 
L 232.854545 26.32661 
L 233.236364 33.735934 
L 233.618182 30.827557 
L 234 30.21388 
L 234.381818 44.59507 
L 234.763636 49.033921 
L 235.145455 40.19097 
L 235.527273 54.688795 
L 235.909091 49.697671 
L 236.290909 48.235738 
L 236.672727 42.528619 
L 237.054545 47.020328 
L 237.436364 48.311548 
L 237.818182 27.568492 
L 238.2 52.120988 
L 238.581818 48.160292 
L 238.963636 37.670791 
L 239.345455 46.605114 
L 239.727273 62.592705 
L 240.109091 62.062803 
L 240.490909 64.314135 
L 240.872727 52.315525 
L 241.254545 51.135615 
L 241.636364 43.336287 
L 242.4 48.407877 
L 242.781818 49.686322 
L 243.163636 40.75254 
L 243.545455 50.150007 
L 243.927273 43.252295 
L 244.309091 48.631072 
L 244.690909 40.602303 
L 245.072727 46.322389 
L 245.454545 57.168438 
L 245.836364 47.245027 
L 246.218182 44.784429 
L 246.6 43.950613 
L 246.981818 63.332507 
L 247.745455 38.284847 
L 248.127273 41.200207 
L 248.509091 46.308496 
L 248.890909 63.296656 
L 249.272727 73.182104 
L 249.654545 39.585101 
L 250.036364 68.711646 
L 250.418182 60.195584 
L 250.8 48.778581 
L 251.181818 67.625981 
L 251.563636 56.140795 
L 251.945455 68.899135 
L 252.327273 62.725026 
L 252.709091 54.325348 
L 253.090909 49.960642 
L 253.472727 53.396828 
L 253.854545 64.258652 
L 254.236364 39.512657 
L 255 46.928977 
L 255.381818 38.39343 
L 255.763636 54.183096 
L 256.527273 28.145859 
L 257.290909 44.398673 
L 257.672727 30.868845 
L 258.054545 35.728188 
L 258.436364 31.478299 
L 258.818182 44.100715 
L 259.2 38.875461 
L 259.581818 44.622395 
L 259.963636 45.313475 
L 260.345455 42.969444 
L 260.727273 31.556209 
L 261.109091 34.303678 
L 261.490909 41.308525 
L 261.872727 50.390979 
L 262.254545 43.633685 
L 262.636364 49.021801 
L 263.018182 52.773319 
L 263.4 50.854637 
L 263.781818 35.885101 
L 264.163636 43.86589 
L 264.545455 47.191195 
L 264.927273 40.985354 
L 265.309091 40.006156 
L 265.690909 34.377428 
L 266.072727 37.33847 
L 266.836364 47.094579 
L 267.218182 52.146213 
L 267.6 43.189923 
L 267.981818 29.569158 
L 268.363636 25.347848 
L 268.745455 31.232758 
L 269.127273 32.068123 
L 269.509091 27.552662 
L 269.890909 35.428175 
L 270.272727 25.567698 
L 270.654545 40.382141 
L 271.036364 34.6378 
L 271.418182 41.266492 
L 271.8 41.455936 
L 272.181818 41.291405 
L 272.563636 45.622802 
L 272.945455 36.352005 
L 273.327273 42.986892 
L 273.709091 51.805506 
L 274.090909 42.20012 
L 274.472727 50.34532 
L 274.854545 55.071967 
L 275.236364 56.179487 
L 275.618182 47.653732 
L 276 60.004912 
L 276.381818 48.093178 
L 276.763636 64.87349 
L 277.145455 70.428115 
L 277.527273 64.414323 
L 277.909091 54.191329 
L 278.290909 64.803627 
L 278.672727 56.209959 
L 279.054545 59.26197 
L 279.436364 57.451879 
L 279.818182 51.479677 
L 280.2 40.907324 
L 280.581818 60.689529 
L 280.963636 61.171985 
L 281.345455 52.340955 
L 281.727273 59.646165 
L 282.109091 51.794891 
L 282.490909 54.9746 
L 282.872727 51.984848 
L 283.254545 44.817585 
L 283.636364 54.699998 
L 284.018182 43.388835 
L 284.4 47.869669 
L 284.781818 44.700014 
L 285.163636 42.540567 
L 285.545455 46.040389 
L 285.927273 36.250337 
L 286.309091 40.593576 
L 286.690909 49.88312 
L 287.454545 34.525403 
L 287.836364 39.6061 
L 288.218182 62.709887 
L 288.6 49.47024 
L 288.981818 59.412445 
L 289.363636 58.77876 
L 289.745455 62.033608 
L 290.127273 60.674886 
L 290.509091 49.536939 
L 290.890909 63.68581 
L 291.272727 39.067812 
L 292.036364 60.48226 
L 292.418182 60.35275 
L 292.8 32.878968 
L 293.181818 44.983273 
L 293.563636 24.793425 
L 293.945455 30.489424 
L 294.709091 51.403132 
L 295.090909 33.884178 
L 295.472727 40.564983 
L 295.854545 30.753721 
L 296.236364 35.747261 
L 296.618182 25.044911 
L 297 29.417011 
L 297.381818 38.201051 
L 297.763636 38.799843 
L 298.145455 40.606801 
L 298.527273 15.820424 
L 298.909091 32.919264 
L 299.290909 30.392968 
L 299.672727 41.897433 
L 300.054545 34.014669 
L 300.436364 48.200719 
L 300.818182 51.459417 
L 301.2 44.52725 
L 301.581818 45.5366 
L 301.963636 48.375321 
L 302.345455 52.744473 
L 302.727273 43.296 
L 303.109091 52.939651 
L 303.490909 55.843898 
L 303.872727 45.663365 
L 304.254545 68.947334 
L 304.636364 53.634863 
L 305.018182 62.815483 
L 305.4 67.934471 
L 305.781818 49.296942 
L 306.163636 50.954459 
L 306.545455 46.508549 
L 306.927273 35.521694 
L 307.309091 34.073097 
L 307.690909 43.121077 
L 308.454545 43.568136 
L 308.836364 46.067926 
L 309.218182 46.616568 
L 309.6 49.83805 
L 309.981818 43.717045 
L 310.363636 50.8486 
L 310.745455 41.057076 
L 311.127273 38.739931 
L 311.509091 62.075035 
L 311.890909 62.386863 
L 312.272727 41.90253 
L 312.654545 59.905281 
L 313.036364 50.349933 
L 313.418182 53.944375 
L 313.8 47.900292 
L 314.181818 52.611804 
L 314.563636 53.912522 
L 314.945455 58.929596 
L 315.327273 57.537431 
L 315.709091 69.951289 
L 316.090909 65.413582 
L 316.472727 63.436389 
L 316.854545 62.927003 
L 317.236364 63.786471 
L 317.618182 55.23264 
L 318 65.129171 
L 318.763636 54.886653 
L 319.145455 36.328495 
L 319.527273 41.896741 
L 319.909091 41.565925 
L 320.290909 28.483588 
L 320.672727 42.704695 
L 321.436364 37.538738 
L 321.818182 44.580487 
L 322.2 27.757556 
L 322.581818 33.302733 
L 322.963636 32.705937 
L 323.345455 31.847785 
L 323.727273 42.362786 
L 324.109091 36.012842 
L 324.490909 31.759868 
L 324.872727 25.649671 
L 325.254545 33.817311 
L 325.636364 37.573843 
L 326.018182 17.34407 
L 326.4 27.346424 
L 326.781818 29.11781 
L 327.163636 22.790271 
L 327.545455 39.86619 
L 327.927273 43.40701 
L 328.309091 50.193724 
L 328.690909 38.823718 
L 329.072727 46.951181 
L 329.454545 52.467279 
L 329.836364 44.109325 
L 330.218182 52.366283 
L 330.6 54.281227 
L 330.981818 38.724921 
L 331.363636 48.12672 
L 331.745455 26.914633 
L 332.127273 47.495288 
L 332.509091 31.828934 
L 332.890909 40.753627 
L 333.272727 59.46851 
L 333.654545 35.334881 
L 334.036364 62.019368 
L 334.418182 40.176979 
L 335.181818 38.036956 
L 335.563636 45.776673 
L 336.327273 32.535499 
L 336.709091 38.030982 
L 337.090909 48.862962 
L 337.472727 52.660945 
L 337.854545 37.885204 
L 338.236364 50.351958 
L 338.618182 45.566424 
L 339 54.45881 
L 339.381818 54.334044 
L 339.763636 71.504957 
L 340.145455 65.38896 
L 340.527273 52.22331 
L 340.909091 54.286083 
L 341.290909 71.692491 
L 341.672727 55.736741 
L 342.054545 67.795794 
L 342.436364 45.005601 
L 342.818182 61.240844 
L 343.2 63.459588 
L 343.581818 63.456193 
L 343.963636 70.403816 
L 344.727273 54.175246 
L 345.109091 49.559302 
L 345.490909 52.785233 
L 345.872727 61.526874 
L 346.254545 51.618725 
L 346.636364 57.770119 
L 347.4 38.867436 
L 347.781818 45.317483 
L 348.163636 49.769281 
L 348.545455 39.253048 
L 348.927273 36.201774 
L 349.309091 34.894099 
L 349.690909 23.401157 
L 350.072727 42.710462 
L 350.454545 44.355553 
L 350.836364 29.157945 
L 351.218182 34.035303 
L 351.6 41.981391 
L 351.981818 44.329189 
L 352.363636 37.410211 
L 352.745455 37.938805 
L 353.127273 39.056169 
L 353.509091 51.670157 
L 353.890909 43.604728 
L 354.272727 49.360307 
L 354.654545 49.173513 
L 355.036364 41.672121 
L 355.418182 56.173719 
L 355.8 54.45529 
L 356.181818 46.506028 
L 356.563636 48.140737 
L 356.945455 35.945489 
L 357.327273 45.713838 
L 357.709091 43.710308 
L 358.090909 34.451994 
L 358.472727 28.475967 
L 358.854545 35.021225 
L 359.236364 54.491547 
L 359.618182 34.679393 
L 360 43.666137 
L 360.381818 45.941662 
L 360.763636 31.395063 
L 361.145455 36.285458 
L 361.909091 28.941523 
L 362.290909 25.704691 
L 362.672727 31.646861 
L 363.054545 42.416974 
L 363.436364 39.389209 
L 363.818182 49.037382 
L 364.2 43.061011 
L 364.963636 41.614507 
L 365.345455 38.952967 
L 365.727273 34.305146 
L 366.109091 52.708089 
L 366.490909 47.68438 
L 366.872727 50.006656 
L 367.254545 47.277433 
L 367.636364 49.056669 
L 368.018182 56.479266 
L 368.4 67.348947 
L 369.163636 46.945643 
L 369.545455 55.782128 
L 369.927273 45.791606 
L 370.309091 54.612333 
L 370.690909 72.39599 
L 371.072727 64.875942 
L 371.454545 50.487805 
L 371.836364 49.677583 
L 372.218182 53.82934 
L 372.6 68.057201 
L 372.981818 56.166462 
L 373.363636 39.63611 
L 373.745455 47.155554 
L 374.127273 60.341599 
L 374.509091 52.582064 
L 374.890909 51.938844 
L 375.272727 51.661405 
L 375.654545 59.887787 
L 376.036364 50.184284 
L 376.418182 52.994537 
L 376.8 42.932463 
L 377.181818 49.7362 
L 377.563636 50.306146 
L 377.945455 59.850055 
L 378.327273 43.040983 
L 378.709091 45.223991 
L 379.090909 60.54749 
L 379.472727 59.96548 
L 379.854545 47.107141 
L 380.236364 58.656952 
L 380.618182 55.303552 
L 381 64.353421 
L 381.381818 55.098657 
L 381.763636 56.260755 
L 382.145455 42.882959 
L 382.527273 59.189663 
L 382.909091 61.059026 
L 383.290909 39.514279 
L 383.672727 51.610459 
L 384.054545 46.059816 
L 384.436364 57.237291 
L 384.818182 56.58285 
L 385.581818 36.028441 
L 385.963636 47.838637 
L 386.345455 30.553015 
L 386.727273 39.42632 
L 387.109091 33.421145 
L 387.490909 38.585586 
L 387.872727 35.583503 
L 388.254545 34.210196 
L 388.636364 36.043167 
L 389.018182 25.334498 
L 389.4 47.879091 
L 389.781818 33.919859 
L 390.163636 29.799998 
L 390.545455 33.514195 
L 390.927273 34.227326 
L 391.309091 39.968124 
L 391.690909 38.693572 
L 392.072727 28.194959 
L 392.454545 45.292201 
L 392.836364 45.376793 
L 393.218182 52.788087 
L 393.6 49.873673 
L 393.981818 52.028669 
L 394.363636 44.825257 
L 394.745455 55.095353 
L 395.127273 53.69981 
L 395.509091 41.449111 
L 395.890909 52.449668 
L 396.272727 42.16027 
L 396.654545 36.955285 
L 397.036364 33.994226 
L 397.418182 51.491859 
L 397.8 39.035082 
L 397.8 39.035082 
" clip-path="url(#p85ec18f68b)" style="fill: none; stroke: #1f77b4; stroke-width: 1.5; stroke-linecap: square"/>
   </g>
   <g id="line2d_5">
    <path d="M 7.2 46.298182 
L 108 46.191747 
L 118.309091 45.942097 
L 125.181818 45.560869 
L 130.527273 45.053806 
L 135.109091 44.406459 
L 139.309091 43.587205 
L 143.127273 42.612734 
L 146.563636 41.518093 
L 150 40.193374 
L 153.436364 38.621061 
L 156.872727 36.791804 
L 160.309091 34.707148 
L 164.127273 32.109979 
L 168.327273 28.962312 
L 174.054545 24.347193 
L 182.072727 17.876209 
L 185.890909 15.0918 
L 188.945455 13.127786 
L 191.618182 11.656766 
L 194.290909 10.457051 
L 196.581818 9.669195 
L 198.872727 9.12018 
L 201.163636 8.821156 
L 203.454545 8.778243 
L 205.745455 8.99232 
L 208.036364 9.459002 
L 210.327273 10.16878 
L 212.618182 11.10735 
L 215.290909 12.466461 
L 217.963636 14.075646 
L 221.018182 16.167999 
L 224.836364 19.064951 
L 230.945455 24.033049 
L 237.818182 29.553779 
L 242.018182 32.651439 
L 245.836364 35.19194 
L 249.272727 37.220625 
L 252.709091 38.992492 
L 256.145455 40.508645 
L 259.581818 41.780488 
L 263.018182 42.826978 
L 266.836364 43.754523 
L 271.036364 44.530647 
L 275.618182 45.140807 
L 280.963636 45.61607 
L 287.454545 45.956828 
L 296.236364 46.175624 
L 310.745455 46.280096 
L 362.290909 46.29818 
L 397.8 46.298182 
L 397.8 46.298182 
" clip-path="url(#p85ec18f68b)" style="fill: none; stroke: #ff7f0e; stroke-width: 1.5; stroke-linecap: square"/>
   </g>
   <g id="patch_3">
    <path d="M 7.2 85.396364 
L 7.2 7.2 
" style="fill: none; stroke: #000000; stroke-width: 0.8; stroke-linejoin: miter; stroke-linecap: square"/>
   </g>
   <g id="patch_4">
    <path d="M 397.8 85.396364 
L 397.8 7.2 
" style="fill: none; stroke: #000000; stroke-width: 0.8; stroke-linejoin: miter; stroke-linecap: square"/>
   </g>
   <g id="patch_5">
    <path d="M 7.2 85.396364 
L 397.8 85.396364 
" style="fill: none; stroke: #000000; stroke-width: 0.8; stroke-linejoin: miter; stroke-linecap: square"/>
   </g>
   <g id="patch_6">
    <path d="M 7.2 7.2 
L 397.8 7.2 
" style="fill: none; stroke: #000000; stroke-width: 0.8; stroke-linejoin: miter; stroke-linecap: square"/>
   </g>
   <g id="legend_1">
    <g id="patch_7">
     <path d="M 322.4 44.578125 
L 390.8 44.578125 
Q 392.8 44.578125 392.8 42.578125 
L 392.8 14.2 
Q 392.8 12.2 390.8 12.2 
L 322.4 12.2 
Q 320.4 12.2 320.4 14.2 
L 320.4 42.578125 
Q 320.4 44.578125 322.4 44.578125 
z
" style="fill: #ffffff; opacity: 0.8; stroke: #cccccc; stroke-linejoin: miter"/>
    </g>
    <g id="line2d_6">
     <path d="M 324.4 20.298438 
L 334.4 20.298438 
L 344.4 20.298438 
" style="fill: none; stroke: #1f77b4; stroke-width: 1.5; stroke-linecap: square"/>
    </g>
    <g id="text_4">
     <!-- Signal -->
     <g transform="translate(352.4 23.798438) scale(0.1 -0.1)">
      <defs>
       <path id="DejaVuSans-53" d="M 3425 4513 
L 3425 3897 
Q 3066 4069 2747 4153 
Q 2428 4238 2131 4238 
Q 1616 4238 1336 4038 
Q 1056 3838 1056 3469 
Q 1056 3159 1242 3001 
Q 1428 2844 1947 2747 
L 2328 2669 
Q 3034 2534 3370 2195 
Q 3706 1856 3706 1288 
Q 3706 609 3251 259 
Q 2797 -91 1919 -91 
Q 1588 -91 1214 -16 
Q 841 59 441 206 
L 441 856 
Q 825 641 1194 531 
Q 1563 422 1919 422 
Q 2459 422 2753 634 
Q 3047 847 3047 1241 
Q 3047 1584 2836 1778 
Q 2625 1972 2144 2069 
L 1759 2144 
Q 1053 2284 737 2584 
Q 422 2884 422 3419 
Q 422 4038 858 4394 
Q 1294 4750 2059 4750 
Q 2388 4750 2728 4690 
Q 3069 4631 3425 4513 
z
" transform="scale(0.015625)"/>
       <path id="DejaVuSans-69" d="M 603 3500 
L 1178 3500 
L 1178 0 
L 603 0 
L 603 3500 
z
M 603 4863 
L 1178 4863 
L 1178 4134 
L 603 4134 
L 603 4863 
z
" transform="scale(0.015625)"/>
       <path id="DejaVuSans-67" d="M 2906 1791 
Q 2906 2416 2648 2759 
Q 2391 3103 1925 3103 
Q 1463 3103 1205 2759 
Q 947 2416 947 1791 
Q 947 1169 1205 825 
Q 1463 481 1925 481 
Q 2391 481 2648 825 
Q 2906 1169 2906 1791 
z
M 3481 434 
Q 3481 -459 3084 -895 
Q 2688 -1331 1869 -1331 
Q 1566 -1331 1297 -1286 
Q 1028 -1241 775 -1147 
L 775 -588 
Q 1028 -725 1275 -790 
Q 1522 -856 1778 -856 
Q 2344 -856 2625 -561 
Q 2906 -266 2906 331 
L 2906 616 
Q 2728 306 2450 153 
Q 2172 0 1784 0 
Q 1141 0 747 490 
Q 353 981 353 1791 
Q 353 2603 747 3093 
Q 1141 3584 1784 3584 
Q 2172 3584 2450 3431 
Q 2728 3278 2906 2969 
L 2906 3500 
L 3481 3500 
L 3481 434 
z
" transform="scale(0.015625)"/>
       <path id="DejaVuSans-6e" d="M 3513 2113 
L 3513 0 
L 2938 0 
L 2938 2094 
Q 2938 2591 2744 2837 
Q 2550 3084 2163 3084 
Q 1697 3084 1428 2787 
Q 1159 2491 1159 1978 
L 1159 0 
L 581 0 
L 581 3500 
L 1159 3500 
L 1159 2956 
Q 1366 3272 1645 3428 
Q 1925 3584 2291 3584 
Q 2894 3584 3203 3211 
Q 3513 2838 3513 2113 
z
" transform="scale(0.015625)"/>
       <path id="DejaVuSans-61" d="M 2194 1759 
Q 1497 1759 1228 1600 
Q 959 1441 959 1056 
Q 959 750 1161 570 
Q 1363 391 1709 391 
Q 2188 391 2477 730 
Q 2766 1069 2766 1631 
L 2766 1759 
L 2194 1759 
z
M 3341 1997 
L 3341 0 
L 2766 0 
L 2766 531 
Q 2569 213 2275 61 
Q 1981 -91 1556 -91 
Q 1019 -91 701 211 
Q 384 513 384 1019 
Q 384 1609 779 1909 
Q 1175 2209 1959 2209 
L 2766 2209 
L 2766 2266 
Q 2766 2663 2505 2880 
Q 2244 3097 1772 3097 
Q 1472 3097 1187 3025 
Q 903 2953 641 2809 
L 641 3341 
Q 956 3463 1253 3523 
Q 1550 3584 1831 3584 
Q 2591 3584 2966 3190 
Q 3341 2797 3341 1997 
z
" transform="scale(0.015625)"/>
       <path id="DejaVuSans-6c" d="M 603 4863 
L 1178 4863 
L 1178 0 
L 603 0 
L 603 4863 
z
" transform="scale(0.015625)"/>
      </defs>
      <use xlink:href="#DejaVuSans-53"/>
      <use xlink:href="#DejaVuSans-69" x="63.476562"/>
      <use xlink:href="#DejaVuSans-67" x="91.259766"/>
      <use xlink:href="#DejaVuSans-6e" x="154.736328"/>
      <use xlink:href="#DejaVuSans-61" x="218.115234"/>
      <use xlink:href="#DejaVuSans-6c" x="279.394531"/>
     </g>
    </g>
    <g id="line2d_7">
     <path d="M 324.4 34.978125 
L 334.4 34.978125 
L 344.4 34.978125 
" style="fill: none; stroke: #ff7f0e; stroke-width: 1.5; stroke-linecap: square"/>
    </g>
    <g id="text_5">
     <!-- $g(t-\tau)$ -->
     <g transform="translate(352.4 38.478125) scale(0.1 -0.1)">
      <defs>
       <path id="DejaVuSans-Oblique-67" d="M 3816 3500 
L 3219 434 
Q 3047 -456 2561 -893 
Q 2075 -1331 1253 -1331 
Q 950 -1331 690 -1286 
Q 431 -1241 206 -1147 
L 313 -588 
Q 525 -725 762 -790 
Q 1000 -856 1269 -856 
Q 1816 -856 2167 -557 
Q 2519 -259 2631 300 
L 2681 563 
Q 2441 288 2122 144 
Q 1803 0 1434 0 
Q 903 0 598 351 
Q 294 703 294 1319 
Q 294 1803 478 2267 
Q 663 2731 997 3091 
Q 1219 3328 1514 3456 
Q 1809 3584 2131 3584 
Q 2484 3584 2746 3420 
Q 3009 3256 3138 2956 
L 3238 3500 
L 3816 3500 
z
M 2950 2216 
Q 2950 2641 2750 2872 
Q 2550 3103 2181 3103 
Q 1953 3103 1747 3012 
Q 1541 2922 1394 2759 
Q 1156 2491 1023 2127 
Q 891 1763 891 1375 
Q 891 944 1092 712 
Q 1294 481 1672 481 
Q 2219 481 2584 976 
Q 2950 1472 2950 2216 
z
" transform="scale(0.015625)"/>
       <path id="DejaVuSans-28" d="M 1984 4856 
Q 1566 4138 1362 3434 
Q 1159 2731 1159 2009 
Q 1159 1288 1364 580 
Q 1569 -128 1984 -844 
L 1484 -844 
Q 1016 -109 783 600 
Q 550 1309 550 2009 
Q 550 2706 781 3412 
Q 1013 4119 1484 4856 
L 1984 4856 
z
" transform="scale(0.015625)"/>
       <path id="DejaVuSans-Oblique-74" d="M 2706 3500 
L 2619 3053 
L 1472 3053 
L 1100 1153 
Q 1081 1047 1072 975 
Q 1063 903 1063 863 
Q 1063 663 1183 572 
Q 1303 481 1569 481 
L 2150 481 
L 2053 0 
L 1503 0 
Q 991 0 739 200 
Q 488 400 488 806 
Q 488 878 497 964 
Q 506 1050 525 1153 
L 897 3053 
L 409 3053 
L 500 3500 
L 978 3500 
L 1172 4494 
L 1747 4494 
L 1556 3500 
L 2706 3500 
z
" transform="scale(0.015625)"/>
       <path id="DejaVuSans-29" d="M 513 4856 
L 1013 4856 
Q 1481 4119 1714 3412 
Q 1947 2706 1947 2009 
Q 1947 1309 1714 600 
Q 1481 -109 1013 -844 
L 513 -844 
Q 928 -128 1133 580 
Q 1338 1288 1338 2009 
Q 1338 2731 1133 3434 
Q 928 4138 513 4856 
z
" transform="scale(0.015625)"/>
      </defs>
      <use xlink:href="#DejaVuSans-Oblique-67" transform="translate(0 0.125)"/>
      <use xlink:href="#DejaVuSans-28" transform="translate(63.476562 0.125)"/>
      <use xlink:href="#DejaVuSans-Oblique-74" transform="translate(102.490234 0.125)"/>
      <use xlink:href="#DejaVuSans-2212" transform="translate(161.181641 0.125)"/>
      <use xlink:href="#DejaVuSans-Oblique-3c4" transform="translate(264.453125 0.125)"/>
      <use xlink:href="#DejaVuSans-29" transform="translate(324.658203 0.125)"/>
     </g>
    </g>
   </g>
  </g>
 </g>
 <defs>
  <clipPath id="p85ec18f68b">
   <rect x="7.2" y="7.2" width="390.6" height="78.196364"/>
  </clipPath>
 </defs>
</svg>
