<?xml version="1.0" encoding="utf-8" standalone="no"?>
<!DOCTYPE svg PUBLIC "-//W3C//DTD SVG 1.1//EN"
  "http://www.w3.org/Graphics/SVG/1.1/DTD/svg11.dtd">
<svg xmlns:xlink="http://www.w3.org/1999/xlink" width="442.645312pt" height="134.926774pt" viewBox="0 0 442.645312 134.926774" xmlns="http://www.w3.org/2000/svg" version="1.1">
 <metadata>
  <rdf:RDF xmlns:dc="http://purl.org/dc/elements/1.1/" xmlns:cc="http://creativecommons.org/ns#" xmlns:rdf="http://www.w3.org/1999/02/22-rdf-syntax-ns#">
   <cc:Work>
    <dc:type rdf:resource="http://purl.org/dc/dcmitype/StillImage"/>
    <dc:date>2024-11-14T17:07:41.044994</dc:date>
    <dc:format>image/svg+xml</dc:format>
    <dc:creator>
     <cc:Agent>
      <dc:title>Matplotlib v3.9.2, https://matplotlib.org/</dc:title>
     </cc:Agent>
    </dc:creator>
   </cc:Work>
  </rdf:RDF>
 </metadata>
 <defs>
  <style type="text/css">*{stroke-linejoin: round; stroke-linecap: butt}</style>
 </defs>
 <g id="figure_1">
  <g id="patch_1">
   <path d="M 0 134.926774 
L 442.645312 134.926774 
L 442.645312 0 
L 0 0 
z
" style="fill: #ffffff"/>
  </g>
  <g id="axes_1">
   <g id="patch_2">
    <path d="M 44.845313 82.809567 
L 435.445312 82.809567 
L 435.445312 7.2 
L 44.845313 7.2 
z
" style="fill: #ffffff"/>
   </g>
   <g id="matplotlib.axis_1"/>
   <g id="matplotlib.axis_2">
    <g id="ytick_1">
     <g id="line2d_1">
      <defs>
       <path id="m96745c3c78" d="M 0 0 
L -3.5 0 
" style="stroke: #000000; stroke-width: 0.8"/>
      </defs>
      <g>
       <use xlink:href="#m96745c3c78" x="44.845313" y="66.197711" style="stroke: #000000; stroke-width: 0.8"/>
      </g>
     </g>
     <g id="text_1">
      <!-- −0.25 -->
      <g transform="translate(7.2 69.99693) scale(0.1 -0.1)">
       <defs>
        <path id="DejaVuSans-2212" d="M 678 2272 
L 4684 2272 
L 4684 1741 
L 678 1741 
L 678 2272 
z
" transform="scale(0.015625)"/>
        <path id="DejaVuSans-30" d="M 2034 4250 
Q 1547 4250 1301 3770 
Q 1056 3291 1056 2328 
Q 1056 1369 1301 889 
Q 1547 409 2034 409 
Q 2525 409 2770 889 
Q 3016 1369 3016 2328 
Q 3016 3291 2770 3770 
Q 2525 4250 2034 4250 
z
M 2034 4750 
Q 2819 4750 3233 4129 
Q 3647 3509 3647 2328 
Q 3647 1150 3233 529 
Q 2819 -91 2034 -91 
Q 1250 -91 836 529 
Q 422 1150 422 2328 
Q 422 3509 836 4129 
Q 1250 4750 2034 4750 
z
" transform="scale(0.015625)"/>
        <path id="DejaVuSans-2e" d="M 684 794 
L 1344 794 
L 1344 0 
L 684 0 
L 684 794 
z
" transform="scale(0.015625)"/>
        <path id="DejaVuSans-32" d="M 1228 531 
L 3431 531 
L 3431 0 
L 469 0 
L 469 531 
Q 828 903 1448 1529 
Q 2069 2156 2228 2338 
Q 2531 2678 2651 2914 
Q 2772 3150 2772 3378 
Q 2772 3750 2511 3984 
Q 2250 4219 1831 4219 
Q 1534 4219 1204 4116 
Q 875 4013 500 3803 
L 500 4441 
Q 881 4594 1212 4672 
Q 1544 4750 1819 4750 
Q 2544 4750 2975 4387 
Q 3406 4025 3406 3419 
Q 3406 3131 3298 2873 
Q 3191 2616 2906 2266 
Q 2828 2175 2409 1742 
Q 1991 1309 1228 531 
z
" transform="scale(0.015625)"/>
        <path id="DejaVuSans-35" d="M 691 4666 
L 3169 4666 
L 3169 4134 
L 1269 4134 
L 1269 2991 
Q 1406 3038 1543 3061 
Q 1681 3084 1819 3084 
Q 2600 3084 3056 2656 
Q 3513 2228 3513 1497 
Q 3513 744 3044 326 
Q 2575 -91 1722 -91 
Q 1428 -91 1123 -41 
Q 819 9 494 109 
L 494 744 
Q 775 591 1075 516 
Q 1375 441 1709 441 
Q 2250 441 2565 725 
Q 2881 1009 2881 1497 
Q 2881 1984 2565 2268 
Q 2250 2553 1709 2553 
Q 1456 2553 1204 2497 
Q 953 2441 691 2322 
L 691 4666 
z
" transform="scale(0.015625)"/>
       </defs>
       <use xlink:href="#DejaVuSans-2212"/>
       <use xlink:href="#DejaVuSans-30" x="83.789062"/>
       <use xlink:href="#DejaVuSans-2e" x="147.412109"/>
       <use xlink:href="#DejaVuSans-32" x="179.199219"/>
       <use xlink:href="#DejaVuSans-35" x="242.822266"/>
      </g>
     </g>
    </g>
    <g id="ytick_2">
     <g id="line2d_2">
      <g>
       <use xlink:href="#m96745c3c78" x="44.845313" y="45.004784" style="stroke: #000000; stroke-width: 0.8"/>
      </g>
     </g>
     <g id="text_2">
      <!-- 0.00 -->
      <g transform="translate(15.579688 48.804002) scale(0.1 -0.1)">
       <use xlink:href="#DejaVuSans-30"/>
       <use xlink:href="#DejaVuSans-2e" x="63.623047"/>
       <use xlink:href="#DejaVuSans-30" x="95.410156"/>
       <use xlink:href="#DejaVuSans-30" x="159.033203"/>
      </g>
     </g>
    </g>
    <g id="ytick_3">
     <g id="line2d_3">
      <g>
       <use xlink:href="#m96745c3c78" x="44.845313" y="23.811856" style="stroke: #000000; stroke-width: 0.8"/>
      </g>
     </g>
     <g id="text_3">
      <!-- 0.25 -->
      <g transform="translate(15.579688 27.611075) scale(0.1 -0.1)">
       <use xlink:href="#DejaVuSans-30"/>
       <use xlink:href="#DejaVuSans-2e" x="63.623047"/>
       <use xlink:href="#DejaVuSans-32" x="95.410156"/>
       <use xlink:href="#DejaVuSans-35" x="159.033203"/>
      </g>
     </g>
    </g>
   </g>
   <g id="line2d_4">
    <path d="M 62.599858 23.811856 
L 66.150767 23.811856 
L 69.701676 23.811856 
L 73.252585 23.811856 
L 76.803494 23.811856 
L 80.354403 23.811856 
L 83.905313 23.811856 
L 87.456222 23.811856 
L 91.007131 23.811856 
L 94.55804 23.811856 
L 98.108949 23.811856 
L 101.659858 23.811856 
L 105.210767 23.811856 
L 108.761676 23.811856 
L 112.312585 23.811856 
L 115.863494 23.811856 
L 119.414403 23.811856 
L 122.965313 23.811856 
L 126.516222 23.811856 
L 130.067131 23.811856 
L 133.61804 23.811856 
L 137.168949 23.811856 
L 140.719858 23.811856 
L 144.270767 23.811856 
L 147.821676 23.811856 
L 151.372585 23.811856 
L 154.923494 23.811856 
L 158.474403 23.811856 
L 162.025313 23.811856 
L 165.576222 23.811856 
L 169.127131 23.811856 
L 172.67804 23.811856 
L 176.228949 23.811856 
L 179.779858 23.811856 
L 183.330767 23.811856 
L 186.881676 23.811856 
L 190.432585 23.811856 
L 193.983494 23.811856 
L 197.534403 23.811856 
L 201.085313 23.811856 
L 204.636222 23.811856 
L 208.187131 23.811856 
L 211.73804 23.811856 
L 215.288949 23.811856 
L 218.839858 23.811856 
L 222.390767 23.811856 
L 225.941676 23.811856 
L 229.492585 23.811856 
L 233.043494 23.811856 
L 236.594403 23.811856 
L 240.145313 23.811856 
L 243.696222 23.811856 
L 247.247131 23.811856 
L 250.79804 23.811856 
L 254.348949 23.811856 
L 257.899858 23.811856 
L 261.450767 23.811856 
L 265.001676 23.811856 
L 268.552585 23.811856 
L 272.103494 23.811856 
L 275.654403 23.811856 
L 279.205313 23.811856 
L 282.756222 23.811856 
L 286.307131 23.811856 
L 289.85804 23.811856 
L 293.408949 23.811856 
L 296.959858 23.811856 
L 300.510767 23.811856 
L 304.061676 23.811856 
L 307.612585 23.811856 
L 311.163494 23.811856 
L 314.714403 23.811856 
L 318.265313 23.811856 
L 321.816222 23.811856 
L 325.367131 23.811856 
L 328.91804 23.811856 
L 332.468949 23.811856 
L 336.019858 23.811856 
L 339.570767 23.811856 
L 343.121676 23.811856 
L 346.672585 23.811856 
L 350.223494 23.811856 
L 353.774403 23.811856 
L 357.325313 23.811856 
L 360.876222 23.811856 
L 364.427131 23.811856 
L 367.97804 23.811856 
L 371.528949 23.811856 
L 375.079858 23.811856 
L 378.630767 23.811856 
L 382.181676 23.811856 
L 385.732585 23.811856 
L 389.283494 23.811856 
L 392.834403 23.811856 
L 396.385313 23.811856 
L 399.936222 23.811856 
L 403.487131 23.811856 
L 407.03804 23.811856 
L 410.588949 23.811856 
L 414.139858 23.811856 
L 417.690767 23.811856 
" clip-path="url(#p4ea8e7880e)" style="fill: none; stroke: #1f77b4; stroke-width: 1.5; stroke-linecap: square"/>
   </g>
   <g id="line2d_5">
    <path d="M 62.599858 79.372769 
L 66.150767 79.304951 
L 69.701676 79.101767 
L 73.252585 78.764017 
L 76.803494 78.293035 
L 80.354403 77.69068 
L 83.905313 76.959328 
L 87.456222 76.101866 
L 91.007131 75.121679 
L 94.55804 74.022633 
L 98.108949 72.809068 
L 101.659858 71.485771 
L 105.210767 70.057967 
L 108.761676 68.531288 
L 112.312585 66.911762 
L 115.863494 65.205779 
L 119.414403 63.420071 
L 122.965313 61.561687 
L 126.516222 59.63796 
L 130.067131 57.656483 
L 133.61804 55.625075 
L 137.168949 53.551754 
L 140.719858 51.444702 
L 144.270767 49.312234 
L 147.821676 47.162767 
L 151.372585 45.004784 
L 154.923494 42.8468 
L 158.474403 40.697333 
L 162.025313 38.564865 
L 165.576222 36.457813 
L 169.127131 34.384492 
L 172.67804 32.353085 
L 176.228949 30.371607 
L 179.779858 28.447881 
L 183.330767 26.589496 
L 186.881676 24.803789 
L 190.432585 23.097805 
L 193.983494 21.478279 
L 197.534403 19.951601 
L 201.085313 18.523796 
L 204.636222 17.2005 
L 208.187131 15.986934 
L 211.73804 14.887889 
L 215.288949 13.907701 
L 218.839858 13.050239 
L 222.390767 12.318887 
L 225.941676 11.716532 
L 229.492585 11.24555 
L 233.043494 10.9078 
L 236.594403 10.704616 
L 240.145313 10.636799 
L 243.696222 10.704616 
L 247.247131 10.9078 
L 250.79804 11.24555 
L 254.348949 11.716532 
L 257.899858 12.318887 
L 261.450767 13.050239 
L 265.001676 13.907701 
L 268.552585 14.887889 
L 272.103494 15.986934 
L 275.654403 17.2005 
L 279.205313 18.523796 
L 282.756222 19.951601 
L 286.307131 21.478279 
L 289.85804 23.097805 
L 293.408949 24.803789 
L 296.959858 26.589496 
L 300.510767 28.447881 
L 304.061676 30.371607 
L 307.612585 32.353085 
L 311.163494 34.384492 
L 314.714403 36.457813 
L 318.265313 38.564865 
L 321.816222 40.697333 
L 325.367131 42.8468 
L 328.91804 45.004784 
L 332.468949 47.162767 
L 336.019858 49.312234 
L 339.570767 51.444702 
L 343.121676 53.551754 
L 346.672585 55.625075 
L 350.223494 57.656483 
L 353.774403 59.63796 
L 357.325313 61.561687 
L 360.876222 63.420071 
L 364.427131 65.205779 
L 367.97804 66.911762 
L 371.528949 68.531288 
L 375.079858 70.057967 
L 378.630767 71.485771 
L 382.181676 72.809068 
L 385.732585 74.022633 
L 389.283494 75.121679 
L 392.834403 76.101866 
L 396.385313 76.959328 
L 399.936222 77.69068 
L 403.487131 78.293035 
L 407.03804 78.764017 
L 410.588949 79.101767 
L 414.139858 79.304951 
L 417.690767 79.372769 
" clip-path="url(#p4ea8e7880e)" style="fill: none; stroke: #ff7f0e; stroke-width: 1.5; stroke-linecap: square"/>
   </g>
   <g id="line2d_6">
    <path d="M 62.599858 27.80382 
L 66.150767 27.939455 
L 69.701676 28.34422 
L 73.252585 29.011732 
L 76.803494 29.931464 
L 80.354403 31.088912 
L 83.905313 32.465821 
L 87.456222 34.040477 
L 91.007131 35.788046 
L 94.55804 37.68097 
L 98.108949 39.689394 
L 101.659858 41.781645 
L 105.210767 43.924726 
L 108.761676 46.084841 
L 112.312585 48.227923 
L 115.863494 50.320174 
L 119.414403 52.328598 
L 122.965313 54.221521 
L 126.516222 55.969091 
L 130.067131 57.543747 
L 133.61804 58.920656 
L 137.168949 60.078103 
L 140.719858 60.997835 
L 144.270767 61.665347 
L 147.821676 62.070113 
L 151.372585 62.205747 
L 154.923494 62.070113 
L 158.474403 61.665347 
L 162.025313 60.997835 
L 165.576222 60.078103 
L 169.127131 58.920656 
L 172.67804 57.543747 
L 176.228949 55.969091 
L 179.779858 54.221521 
L 183.330767 52.328598 
L 186.881676 50.320174 
L 190.432585 48.227923 
L 193.983494 46.084841 
L 197.534403 43.924726 
L 201.085313 41.781645 
L 204.636222 39.689394 
L 208.187131 37.68097 
L 211.73804 35.788046 
L 215.288949 34.040477 
L 218.839858 32.465821 
L 222.390767 31.088912 
L 225.941676 29.931464 
L 229.492585 29.011732 
L 233.043494 28.34422 
L 236.594403 27.939455 
L 240.145313 27.80382 
L 243.696222 27.939455 
L 247.247131 28.34422 
L 250.79804 29.011732 
L 254.348949 29.931464 
L 257.899858 31.088912 
L 261.450767 32.465821 
L 265.001676 34.040477 
L 268.552585 35.788046 
L 272.103494 37.68097 
L 275.654403 39.689394 
L 279.205313 41.781645 
L 282.756222 43.924726 
L 286.307131 46.084841 
L 289.85804 48.227923 
L 293.408949 50.320174 
L 296.959858 52.328598 
L 300.510767 54.221521 
L 304.061676 55.969091 
L 307.612585 57.543747 
L 311.163494 58.920656 
L 314.714403 60.078103 
L 318.265313 60.997835 
L 321.816222 61.665347 
L 325.367131 62.070113 
L 328.91804 62.205747 
L 332.468949 62.070113 
L 336.019858 61.665347 
L 339.570767 60.997835 
L 343.121676 60.078103 
L 346.672585 58.920656 
L 350.223494 57.543747 
L 353.774403 55.969091 
L 357.325313 54.221521 
L 360.876222 52.328598 
L 364.427131 50.320174 
L 367.97804 48.227923 
L 371.528949 46.084841 
L 375.079858 43.924726 
L 378.630767 41.781645 
L 382.181676 39.689394 
L 385.732585 37.68097 
L 389.283494 35.788046 
L 392.834403 34.040477 
L 396.385313 32.465821 
L 399.936222 31.088912 
L 403.487131 29.931464 
L 407.03804 29.011732 
L 410.588949 28.34422 
L 414.139858 27.939455 
L 417.690767 27.80382 
" clip-path="url(#p4ea8e7880e)" style="fill: none; stroke: #2ca02c; stroke-width: 1.5; stroke-linecap: square"/>
   </g>
   <g id="line2d_7">
    <path d="M 62.599858 48.833516 
L 66.150767 48.765698 
L 69.701676 48.564649 
L 73.252585 48.237489 
L 76.803494 47.795809 
L 80.354403 47.255256 
L 83.905313 46.634978 
L 87.456222 45.956951 
L 91.007131 45.245192 
L 94.55804 44.524916 
L 98.108949 43.82164 
L 101.659858 43.160278 
L 105.210767 42.564258 
L 108.761676 42.054695 
L 112.312585 41.64964 
L 115.863494 41.363443 
L 119.414403 41.206242 
L 122.965313 41.183607 
L 126.516222 41.296338 
L 130.067131 41.540443 
L 133.61804 41.907275 
L 137.168949 42.383836 
L 140.719858 42.953247 
L 144.270767 43.595333 
L 147.821676 44.287351 
L 151.372585 45.004784 
L 154.923494 45.722217 
L 158.474403 46.414234 
L 162.025313 47.056321 
L 165.576222 47.625731 
L 169.127131 48.102293 
L 172.67804 48.469124 
L 176.228949 48.713229 
L 179.779858 48.82596 
L 183.330767 48.803325 
L 186.881676 48.646124 
L 190.432585 48.359927 
L 193.983494 47.954872 
L 197.534403 47.445309 
L 201.085313 46.849289 
L 204.636222 46.187927 
L 208.187131 45.484651 
L 211.73804 44.764376 
L 215.288949 44.052617 
L 218.839858 43.374589 
L 222.390767 42.754312 
L 225.941676 42.213758 
L 229.492585 41.772078 
L 233.043494 41.444919 
L 236.594403 41.243869 
L 240.145313 41.176052 
L 243.696222 41.243869 
L 247.247131 41.444919 
L 250.79804 41.772078 
L 254.348949 42.213758 
L 257.899858 42.754312 
L 261.450767 43.374589 
L 265.001676 44.052617 
L 268.552585 44.764376 
L 272.103494 45.484651 
L 275.654403 46.187927 
L 279.205313 46.849289 
L 282.756222 47.445309 
L 286.307131 47.954872 
L 289.85804 48.359927 
L 293.408949 48.646124 
L 296.959858 48.803325 
L 300.510767 48.82596 
L 304.061676 48.713229 
L 307.612585 48.469124 
L 311.163494 48.102293 
L 314.714403 47.625731 
L 318.265313 47.056321 
L 321.816222 46.414234 
L 325.367131 45.722217 
L 328.91804 45.004784 
L 332.468949 44.287351 
L 336.019858 43.595333 
L 339.570767 42.953247 
L 343.121676 42.383836 
L 346.672585 41.907275 
L 350.223494 41.540443 
L 353.774403 41.296338 
L 357.325313 41.183607 
L 360.876222 41.206242 
L 364.427131 41.363443 
L 367.97804 41.64964 
L 371.528949 42.054695 
L 375.079858 42.564258 
L 378.630767 43.160278 
L 382.181676 43.82164 
L 385.732585 44.524916 
L 389.283494 45.245192 
L 392.834403 45.956951 
L 396.385313 46.634978 
L 399.936222 47.255256 
L 403.487131 47.795809 
L 407.03804 48.237489 
L 410.588949 48.564649 
L 414.139858 48.765698 
L 417.690767 48.833516 
" clip-path="url(#p4ea8e7880e)" style="fill: none; stroke: #d62728; stroke-width: 1.5; stroke-linecap: square"/>
   </g>
   <g id="line2d_8">
    <path d="M 62.599858 45.004784 
L 66.150767 45.004784 
L 69.701676 45.004784 
L 73.252585 45.004784 
L 76.803494 45.004784 
L 80.354403 45.004784 
L 83.905313 45.004784 
L 87.456222 45.004784 
L 91.007131 45.004784 
L 94.55804 45.004784 
L 98.108949 45.004784 
L 101.659858 45.004784 
L 105.210767 45.004784 
L 108.761676 45.004784 
L 112.312585 45.004784 
L 115.863494 45.004784 
L 119.414403 45.004784 
L 122.965313 45.004784 
L 126.516222 45.004784 
L 130.067131 45.004784 
L 133.61804 45.004784 
L 137.168949 45.004784 
L 140.719858 45.004784 
L 144.270767 45.004784 
L 147.821676 45.004784 
L 151.372585 45.004784 
L 154.923494 45.004784 
L 158.474403 45.004784 
L 162.025313 45.004784 
L 165.576222 45.004784 
L 169.127131 45.004784 
L 172.67804 45.004784 
L 176.228949 45.004784 
L 179.779858 45.004784 
L 183.330767 45.004784 
L 186.881676 45.004784 
L 190.432585 45.004784 
L 193.983494 45.004784 
L 197.534403 45.004784 
L 201.085313 45.004784 
L 204.636222 45.004784 
L 208.187131 45.004784 
L 211.73804 45.004784 
L 215.288949 45.004784 
L 218.839858 45.004784 
L 222.390767 45.004784 
L 225.941676 45.004784 
L 229.492585 45.004784 
L 233.043494 45.004784 
L 236.594403 45.004784 
L 240.145313 45.004784 
L 243.696222 45.004784 
L 247.247131 45.004784 
L 250.79804 45.004784 
L 254.348949 45.004784 
L 257.899858 45.004784 
L 261.450767 45.004784 
L 265.001676 45.004784 
L 268.552585 45.004784 
L 272.103494 45.004784 
L 275.654403 45.004784 
L 279.205313 45.004784 
L 282.756222 45.004784 
L 286.307131 45.004784 
L 289.85804 45.004784 
L 293.408949 45.004784 
L 296.959858 45.004784 
L 300.510767 45.004784 
L 304.061676 45.004784 
L 307.612585 45.004784 
L 311.163494 45.004784 
L 314.714403 45.004784 
L 318.265313 45.004784 
L 321.816222 45.004784 
L 325.367131 45.004784 
L 328.91804 45.004784 
L 332.468949 45.004784 
L 336.019858 45.004784 
L 339.570767 45.004784 
L 343.121676 45.004784 
L 346.672585 45.004784 
L 350.223494 45.004784 
L 353.774403 45.004784 
L 357.325313 45.004784 
L 360.876222 45.004784 
L 364.427131 45.004784 
L 367.97804 45.004784 
L 371.528949 45.004784 
L 375.079858 45.004784 
L 378.630767 45.004784 
L 382.181676 45.004784 
L 385.732585 45.004784 
L 389.283494 45.004784 
L 392.834403 45.004784 
L 396.385313 45.004784 
L 399.936222 45.004784 
L 403.487131 45.004784 
L 407.03804 45.004784 
L 410.588949 45.004784 
L 414.139858 45.004784 
L 417.690767 45.004784 
" clip-path="url(#p4ea8e7880e)" style="fill: none; stroke: #9467bd; stroke-width: 1.5; stroke-linecap: square"/>
   </g>
   <g id="line2d_9">
    <path d="M 62.599858 46.39041 
L 66.150767 46.322592 
L 69.701676 46.125779 
L 73.252585 45.819234 
L 76.803494 45.432966 
L 80.354403 45.004784 
L 83.905313 44.576602 
L 87.456222 44.190333 
L 91.007131 43.883789 
L 94.55804 43.686975 
L 98.108949 43.619158 
L 101.659858 43.686975 
L 105.210767 43.883789 
L 108.761676 44.190333 
L 112.312585 44.576602 
L 115.863494 45.004784 
L 119.414403 45.432966 
L 122.965313 45.819234 
L 126.516222 46.125779 
L 130.067131 46.322592 
L 133.61804 46.39041 
L 137.168949 46.322592 
L 140.719858 46.125779 
L 144.270767 45.819234 
L 147.821676 45.432966 
L 151.372585 45.004784 
L 154.923494 44.576602 
L 158.474403 44.190333 
L 162.025313 43.883789 
L 165.576222 43.686975 
L 169.127131 43.619158 
L 172.67804 43.686975 
L 176.228949 43.883789 
L 179.779858 44.190333 
L 183.330767 44.576602 
L 186.881676 45.004784 
L 190.432585 45.432966 
L 193.983494 45.819234 
L 197.534403 46.125779 
L 201.085313 46.322592 
L 204.636222 46.39041 
L 208.187131 46.322592 
L 211.73804 46.125779 
L 215.288949 45.819234 
L 218.839858 45.432966 
L 222.390767 45.004784 
L 225.941676 44.576602 
L 229.492585 44.190333 
L 233.043494 43.883789 
L 236.594403 43.686975 
L 240.145313 43.619158 
L 243.696222 43.686975 
L 247.247131 43.883789 
L 250.79804 44.190333 
L 254.348949 44.576602 
L 257.899858 45.004784 
L 261.450767 45.432966 
L 265.001676 45.819234 
L 268.552585 46.125779 
L 272.103494 46.322592 
L 275.654403 46.39041 
L 279.205313 46.322592 
L 282.756222 46.125779 
L 286.307131 45.819234 
L 289.85804 45.432966 
L 293.408949 45.004784 
L 296.959858 44.576602 
L 300.510767 44.190333 
L 304.061676 43.883789 
L 307.612585 43.686975 
L 311.163494 43.619158 
L 314.714403 43.686975 
L 318.265313 43.883789 
L 321.816222 44.190333 
L 325.367131 44.576602 
L 328.91804 45.004784 
L 332.468949 45.432966 
L 336.019858 45.819234 
L 339.570767 46.125779 
L 343.121676 46.322592 
L 346.672585 46.39041 
L 350.223494 46.322592 
L 353.774403 46.125779 
L 357.325313 45.819234 
L 360.876222 45.432966 
L 364.427131 45.004784 
L 367.97804 44.576602 
L 371.528949 44.190333 
L 375.079858 43.883789 
L 378.630767 43.686975 
L 382.181676 43.619158 
L 385.732585 43.686975 
L 389.283494 43.883789 
L 392.834403 44.190333 
L 396.385313 44.576602 
L 399.936222 45.004784 
L 403.487131 45.432966 
L 407.03804 45.819234 
L 410.588949 46.125779 
L 414.139858 46.322592 
L 417.690767 46.39041 
" clip-path="url(#p4ea8e7880e)" style="fill: none; stroke: #8c564b; stroke-width: 1.5; stroke-linecap: square"/>
   </g>
   <g id="line2d_10">
    <path d="M 62.599858 43.073312 
L 66.150767 43.208947 
L 69.701676 43.596801 
L 73.252585 44.182403 
L 76.803494 44.883506 
L 80.354403 45.601641 
L 83.905313 46.23595 
L 87.456222 46.697345 
L 91.007131 46.921025 
L 94.55804 46.875575 
L 98.108949 46.567377 
L 101.659858 46.039718 
L 105.210767 45.366705 
L 108.761676 44.642862 
L 112.312585 43.969849 
L 115.863494 43.44219 
L 119.414403 43.133993 
L 122.965313 43.088542 
L 126.516222 43.312222 
L 130.067131 43.773617 
L 133.61804 44.407926 
L 137.168949 45.126062 
L 140.719858 45.827164 
L 144.270767 46.412766 
L 147.821676 46.800621 
L 151.372585 46.936255 
L 154.923494 46.800621 
L 158.474403 46.412766 
L 162.025313 45.827164 
L 165.576222 45.126062 
L 169.127131 44.407926 
L 172.67804 43.773617 
L 176.228949 43.312222 
L 179.779858 43.088542 
L 183.330767 43.133993 
L 186.881676 43.44219 
L 190.432585 43.969849 
L 193.983494 44.642862 
L 197.534403 45.366705 
L 201.085313 46.039718 
L 204.636222 46.567377 
L 208.187131 46.875575 
L 211.73804 46.921025 
L 215.288949 46.697345 
L 218.839858 46.23595 
L 222.390767 45.601641 
L 225.941676 44.883506 
L 229.492585 44.182403 
L 233.043494 43.596801 
L 236.594403 43.208947 
L 240.145313 43.073312 
L 243.696222 43.208947 
L 247.247131 43.596801 
L 250.79804 44.182403 
L 254.348949 44.883506 
L 257.899858 45.601641 
L 261.450767 46.23595 
L 265.001676 46.697345 
L 268.552585 46.921025 
L 272.103494 46.875575 
L 275.654403 46.567377 
L 279.205313 46.039718 
L 282.756222 45.366705 
L 286.307131 44.642862 
L 289.85804 43.969849 
L 293.408949 43.44219 
L 296.959858 43.133993 
L 300.510767 43.088542 
L 304.061676 43.312222 
L 307.612585 43.773617 
L 311.163494 44.407926 
L 314.714403 45.126062 
L 318.265313 45.827164 
L 321.816222 46.412766 
L 325.367131 46.800621 
L 328.91804 46.936255 
L 332.468949 46.800621 
L 336.019858 46.412766 
L 339.570767 45.827164 
L 343.121676 45.126062 
L 346.672585 44.407926 
L 350.223494 43.773617 
L 353.774403 43.312222 
L 357.325313 43.088542 
L 360.876222 43.133993 
L 364.427131 43.44219 
L 367.97804 43.969849 
L 371.528949 44.642862 
L 375.079858 45.366705 
L 378.630767 46.039718 
L 382.181676 46.567377 
L 385.732585 46.875575 
L 389.283494 46.921025 
L 392.834403 46.697345 
L 396.385313 46.23595 
L 399.936222 45.601641 
L 403.487131 44.883506 
L 407.03804 44.182403 
L 410.588949 43.596801 
L 414.139858 43.208947 
L 417.690767 43.073312 
" clip-path="url(#p4ea8e7880e)" style="fill: none; stroke: #e377c2; stroke-width: 1.5; stroke-linecap: square"/>
   </g>
   <g id="line2d_11">
    <path d="M 62.599858 45.717353 
L 66.150767 45.649536 
L 69.701676 45.458993 
L 73.252585 45.181993 
L 76.803494 44.871261 
L 80.354403 44.585946 
L 83.905313 44.380354 
L 87.456222 44.29362 
L 91.007131 44.342253 
L 94.55804 44.516996 
L 98.108949 44.784588 
L 101.659858 45.094092 
L 105.210767 45.386598 
L 108.761676 45.606426 
L 112.312585 45.711735 
L 115.863494 45.682478 
L 119.414403 45.524225 
L 122.965313 45.267098 
L 126.516222 44.960041 
L 130.067131 44.661501 
L 133.61804 44.428303 
L 137.168949 44.304835 
L 140.719858 44.314601 
L 144.270767 44.455739 
L 147.821676 44.701386 
L 151.372585 45.004784 
L 154.923494 45.308181 
L 158.474403 45.553828 
L 162.025313 45.694967 
L 165.576222 45.704732 
L 169.127131 45.581265 
L 172.67804 45.348067 
L 176.228949 45.049526 
L 179.779858 44.742469 
L 183.330767 44.485343 
L 186.881676 44.32709 
L 190.432585 44.297833 
L 193.983494 44.403141 
L 197.534403 44.62297 
L 201.085313 44.915475 
L 204.636222 45.22498 
L 208.187131 45.492571 
L 211.73804 45.667314 
L 215.288949 45.715947 
L 218.839858 45.629213 
L 222.390767 45.423622 
L 225.941676 45.138306 
L 229.492585 44.827575 
L 233.043494 44.550575 
L 236.594403 44.360031 
L 240.145313 44.292214 
L 243.696222 44.360031 
L 247.247131 44.550575 
L 250.79804 44.827575 
L 254.348949 45.138306 
L 257.899858 45.423622 
L 261.450767 45.629213 
L 265.001676 45.715947 
L 268.552585 45.667314 
L 272.103494 45.492571 
L 275.654403 45.22498 
L 279.205313 44.915475 
L 282.756222 44.62297 
L 286.307131 44.403141 
L 289.85804 44.297833 
L 293.408949 44.32709 
L 296.959858 44.485343 
L 300.510767 44.742469 
L 304.061676 45.049526 
L 307.612585 45.348067 
L 311.163494 45.581265 
L 314.714403 45.704732 
L 318.265313 45.694967 
L 321.816222 45.553828 
L 325.367131 45.308181 
L 328.91804 45.004784 
L 332.468949 44.701386 
L 336.019858 44.455739 
L 339.570767 44.314601 
L 343.121676 44.304835 
L 346.672585 44.428303 
L 350.223494 44.661501 
L 353.774403 44.960041 
L 357.325313 45.267098 
L 360.876222 45.524225 
L 364.427131 45.682478 
L 367.97804 45.711735 
L 371.528949 45.606426 
L 375.079858 45.386598 
L 378.630767 45.094092 
L 382.181676 44.784588 
L 385.732585 44.516996 
L 389.283494 44.342253 
L 392.834403 44.29362 
L 396.385313 44.380354 
L 399.936222 44.585946 
L 403.487131 44.871261 
L 407.03804 45.181993 
L 410.588949 45.458993 
L 414.139858 45.649536 
L 417.690767 45.717353 
" clip-path="url(#p4ea8e7880e)" style="fill: none; stroke: #7f7f7f; stroke-width: 1.5; stroke-linecap: square"/>
   </g>
   <g id="patch_3">
    <path d="M 44.845313 82.809567 
L 44.845313 7.2 
" style="fill: none; stroke: #000000; stroke-width: 0.8; stroke-linejoin: miter; stroke-linecap: square"/>
   </g>
   <g id="patch_4">
    <path d="M 435.445312 82.809567 
L 435.445312 7.2 
" style="fill: none; stroke: #000000; stroke-width: 0.8; stroke-linejoin: miter; stroke-linecap: square"/>
   </g>
   <g id="patch_5">
    <path d="M 44.845312 82.809567 
L 435.445313 82.809567 
" style="fill: none; stroke: #000000; stroke-width: 0.8; stroke-linejoin: miter; stroke-linecap: square"/>
   </g>
   <g id="patch_6">
    <path d="M 44.845312 7.2 
L 435.445313 7.2 
" style="fill: none; stroke: #000000; stroke-width: 0.8; stroke-linejoin: miter; stroke-linecap: square"/>
   </g>
   <g id="legend_1">
    <g id="patch_7">
     <path d="M 43.245312 127.726774 
L 428.445312 127.726774 
Q 430.445312 127.726774 430.445312 125.726774 
L 430.445312 97.370524 
Q 430.445312 95.370524 428.445312 95.370524 
L 43.245312 95.370524 
Q 41.245312 95.370524 41.245312 97.370524 
L 41.245312 125.726774 
Q 41.245312 127.726774 43.245312 127.726774 
z
" style="fill: #ffffff; opacity: 0.8; stroke: #cccccc; stroke-linejoin: miter"/>
    </g>
    <g id="line2d_12">
     <path d="M 45.245312 103.468962 
L 55.245312 103.468962 
L 65.245312 103.468962 
" style="fill: none; stroke: #1f77b4; stroke-width: 1.5; stroke-linecap: square"/>
    </g>
    <g id="text_4">
     <!-- $a_0$ -->
     <g transform="translate(73.245312 106.968962) scale(0.1 -0.1)">
      <defs>
       <path id="DejaVuSans-Oblique-61" d="M 3438 1997 
L 3047 0 
L 2472 0 
L 2578 531 
Q 2325 219 2001 64 
Q 1678 -91 1281 -91 
Q 834 -91 548 182 
Q 263 456 263 884 
Q 263 1497 752 1853 
Q 1241 2209 2100 2209 
L 2900 2209 
L 2931 2363 
Q 2938 2388 2941 2417 
Q 2944 2447 2944 2509 
Q 2944 2788 2717 2942 
Q 2491 3097 2081 3097 
Q 1800 3097 1504 3025 
Q 1209 2953 897 2809 
L 997 3341 
Q 1322 3463 1633 3523 
Q 1944 3584 2234 3584 
Q 2853 3584 3176 3315 
Q 3500 3047 3500 2534 
Q 3500 2431 3484 2292 
Q 3469 2153 3438 1997 
z
M 2816 1759 
L 2241 1759 
Q 1534 1759 1195 1570 
Q 856 1381 856 984 
Q 856 709 1029 553 
Q 1203 397 1509 397 
Q 1978 397 2328 733 
Q 2678 1069 2791 1631 
L 2816 1759 
z
" transform="scale(0.015625)"/>
      </defs>
      <use xlink:href="#DejaVuSans-Oblique-61"/>
      <use xlink:href="#DejaVuSans-30" transform="translate(61.279297 -16.40625) scale(0.7)"/>
     </g>
    </g>
    <g id="line2d_13">
     <path d="M 45.245312 118.147087 
L 55.245312 118.147087 
L 65.245312 118.147087 
" style="fill: none; stroke: #ff7f0e; stroke-width: 1.5; stroke-linecap: square"/>
    </g>
    <g id="text_5">
     <!-- $a_1\cos(1\omega x$ -->
     <g transform="translate(73.245312 121.647087) scale(0.1 -0.1)">
      <defs>
       <path id="DejaVuSans-31" d="M 794 531 
L 1825 531 
L 1825 4091 
L 703 3866 
L 703 4441 
L 1819 4666 
L 2450 4666 
L 2450 531 
L 3481 531 
L 3481 0 
L 794 0 
L 794 531 
z
" transform="scale(0.015625)"/>
       <path id="DejaVuSans-63" d="M 3122 3366 
L 3122 2828 
Q 2878 2963 2633 3030 
Q 2388 3097 2138 3097 
Q 1578 3097 1268 2742 
Q 959 2388 959 1747 
Q 959 1106 1268 751 
Q 1578 397 2138 397 
Q 2388 397 2633 464 
Q 2878 531 3122 666 
L 3122 134 
Q 2881 22 2623 -34 
Q 2366 -91 2075 -91 
Q 1284 -91 818 406 
Q 353 903 353 1747 
Q 353 2603 823 3093 
Q 1294 3584 2113 3584 
Q 2378 3584 2631 3529 
Q 2884 3475 3122 3366 
z
" transform="scale(0.015625)"/>
       <path id="DejaVuSans-6f" d="M 1959 3097 
Q 1497 3097 1228 2736 
Q 959 2375 959 1747 
Q 959 1119 1226 758 
Q 1494 397 1959 397 
Q 2419 397 2687 759 
Q 2956 1122 2956 1747 
Q 2956 2369 2687 2733 
Q 2419 3097 1959 3097 
z
M 1959 3584 
Q 2709 3584 3137 3096 
Q 3566 2609 3566 1747 
Q 3566 888 3137 398 
Q 2709 -91 1959 -91 
Q 1206 -91 779 398 
Q 353 888 353 1747 
Q 353 2609 779 3096 
Q 1206 3584 1959 3584 
z
" transform="scale(0.015625)"/>
       <path id="DejaVuSans-73" d="M 2834 3397 
L 2834 2853 
Q 2591 2978 2328 3040 
Q 2066 3103 1784 3103 
Q 1356 3103 1142 2972 
Q 928 2841 928 2578 
Q 928 2378 1081 2264 
Q 1234 2150 1697 2047 
L 1894 2003 
Q 2506 1872 2764 1633 
Q 3022 1394 3022 966 
Q 3022 478 2636 193 
Q 2250 -91 1575 -91 
Q 1294 -91 989 -36 
Q 684 19 347 128 
L 347 722 
Q 666 556 975 473 
Q 1284 391 1588 391 
Q 1994 391 2212 530 
Q 2431 669 2431 922 
Q 2431 1156 2273 1281 
Q 2116 1406 1581 1522 
L 1381 1569 
Q 847 1681 609 1914 
Q 372 2147 372 2553 
Q 372 3047 722 3315 
Q 1072 3584 1716 3584 
Q 2034 3584 2315 3537 
Q 2597 3491 2834 3397 
z
" transform="scale(0.015625)"/>
       <path id="DejaVuSans-28" d="M 1984 4856 
Q 1566 4138 1362 3434 
Q 1159 2731 1159 2009 
Q 1159 1288 1364 580 
Q 1569 -128 1984 -844 
L 1484 -844 
Q 1016 -109 783 600 
Q 550 1309 550 2009 
Q 550 2706 781 3412 
Q 1013 4119 1484 4856 
L 1984 4856 
z
" transform="scale(0.015625)"/>
       <path id="DejaVuSans-Oblique-3c9" d="M 1369 -91 
Q 72 -91 434 1766 
Q 575 2500 1256 3500 
L 1875 3500 
Q 1231 2500 1088 1750 
Q 819 397 1519 397 
Q 2166 397 2478 2078 
L 3009 2078 
Q 2669 388 3316 397 
Q 4013 403 4275 1750 
Q 4419 2500 4169 3500 
L 4788 3500 
Q 5075 2500 4934 1766 
Q 4578 -94 3278 -91 
Q 2428 -88 2503 844 
Q 2194 -91 1369 -91 
z
" transform="scale(0.015625)"/>
       <path id="DejaVuSans-Oblique-78" d="M 3841 3500 
L 2234 1784 
L 3219 0 
L 2559 0 
L 1819 1388 
L 531 0 
L -166 0 
L 1556 1844 
L 641 3500 
L 1300 3500 
L 1972 2234 
L 3144 3500 
L 3841 3500 
z
" transform="scale(0.015625)"/>
      </defs>
      <use xlink:href="#DejaVuSans-Oblique-61" transform="translate(0 0.125)"/>
      <use xlink:href="#DejaVuSans-31" transform="translate(61.279297 -16.28125) scale(0.7)"/>
      <use xlink:href="#DejaVuSans-63" transform="translate(108.549805 0.125)"/>
      <use xlink:href="#DejaVuSans-6f" transform="translate(163.530273 0.125)"/>
      <use xlink:href="#DejaVuSans-73" transform="translate(224.711914 0.125)"/>
      <use xlink:href="#DejaVuSans-28" transform="translate(276.811523 0.125)"/>
      <use xlink:href="#DejaVuSans-31" transform="translate(315.825195 0.125)"/>
      <use xlink:href="#DejaVuSans-Oblique-3c9" transform="translate(379.448242 0.125)"/>
      <use xlink:href="#DejaVuSans-Oblique-78" transform="translate(463.188477 0.125)"/>
     </g>
    </g>
    <g id="line2d_14">
     <path d="M 145.545312 103.468962 
L 155.545312 103.468962 
L 165.545312 103.468962 
" style="fill: none; stroke: #2ca02c; stroke-width: 1.5; stroke-linecap: square"/>
    </g>
    <g id="text_6">
     <!-- $a_2\cos(2\omega x$ -->
     <g transform="translate(173.545312 106.968962) scale(0.1 -0.1)">
      <use xlink:href="#DejaVuSans-Oblique-61" transform="translate(0 0.125)"/>
      <use xlink:href="#DejaVuSans-32" transform="translate(61.279297 -16.28125) scale(0.7)"/>
      <use xlink:href="#DejaVuSans-63" transform="translate(108.549805 0.125)"/>
      <use xlink:href="#DejaVuSans-6f" transform="translate(163.530273 0.125)"/>
      <use xlink:href="#DejaVuSans-73" transform="translate(224.711914 0.125)"/>
      <use xlink:href="#DejaVuSans-28" transform="translate(276.811523 0.125)"/>
      <use xlink:href="#DejaVuSans-32" transform="translate(315.825195 0.125)"/>
      <use xlink:href="#DejaVuSans-Oblique-3c9" transform="translate(379.448242 0.125)"/>
      <use xlink:href="#DejaVuSans-Oblique-78" transform="translate(463.188477 0.125)"/>
     </g>
    </g>
    <g id="line2d_15">
     <path d="M 145.545312 118.147087 
L 155.545312 118.147087 
L 165.545312 118.147087 
" style="fill: none; stroke: #d62728; stroke-width: 1.5; stroke-linecap: square"/>
    </g>
    <g id="text_7">
     <!-- $a_3\cos(3\omega x$ -->
     <g transform="translate(173.545312 121.647087) scale(0.1 -0.1)">
      <defs>
       <path id="DejaVuSans-33" d="M 2597 2516 
Q 3050 2419 3304 2112 
Q 3559 1806 3559 1356 
Q 3559 666 3084 287 
Q 2609 -91 1734 -91 
Q 1441 -91 1130 -33 
Q 819 25 488 141 
L 488 750 
Q 750 597 1062 519 
Q 1375 441 1716 441 
Q 2309 441 2620 675 
Q 2931 909 2931 1356 
Q 2931 1769 2642 2001 
Q 2353 2234 1838 2234 
L 1294 2234 
L 1294 2753 
L 1863 2753 
Q 2328 2753 2575 2939 
Q 2822 3125 2822 3475 
Q 2822 3834 2567 4026 
Q 2313 4219 1838 4219 
Q 1578 4219 1281 4162 
Q 984 4106 628 3988 
L 628 4550 
Q 988 4650 1302 4700 
Q 1616 4750 1894 4750 
Q 2613 4750 3031 4423 
Q 3450 4097 3450 3541 
Q 3450 3153 3228 2886 
Q 3006 2619 2597 2516 
z
" transform="scale(0.015625)"/>
      </defs>
      <use xlink:href="#DejaVuSans-Oblique-61" transform="translate(0 0.125)"/>
      <use xlink:href="#DejaVuSans-33" transform="translate(61.279297 -16.28125) scale(0.7)"/>
      <use xlink:href="#DejaVuSans-63" transform="translate(108.549805 0.125)"/>
      <use xlink:href="#DejaVuSans-6f" transform="translate(163.530273 0.125)"/>
      <use xlink:href="#DejaVuSans-73" transform="translate(224.711914 0.125)"/>
      <use xlink:href="#DejaVuSans-28" transform="translate(276.811523 0.125)"/>
      <use xlink:href="#DejaVuSans-33" transform="translate(315.825195 0.125)"/>
      <use xlink:href="#DejaVuSans-Oblique-3c9" transform="translate(379.448242 0.125)"/>
      <use xlink:href="#DejaVuSans-Oblique-78" transform="translate(463.188477 0.125)"/>
     </g>
    </g>
    <g id="line2d_16">
     <path d="M 245.845312 103.468962 
L 255.845312 103.468962 
L 265.845312 103.468962 
" style="fill: none; stroke: #9467bd; stroke-width: 1.5; stroke-linecap: square"/>
    </g>
    <g id="text_8">
     <!-- $a_4\cos(4\omega x$ -->
     <g transform="translate(273.845312 106.968962) scale(0.1 -0.1)">
      <defs>
       <path id="DejaVuSans-34" d="M 2419 4116 
L 825 1625 
L 2419 1625 
L 2419 4116 
z
M 2253 4666 
L 3047 4666 
L 3047 1625 
L 3713 1625 
L 3713 1100 
L 3047 1100 
L 3047 0 
L 2419 0 
L 2419 1100 
L 313 1100 
L 313 1709 
L 2253 4666 
z
" transform="scale(0.015625)"/>
      </defs>
      <use xlink:href="#DejaVuSans-Oblique-61" transform="translate(0 0.125)"/>
      <use xlink:href="#DejaVuSans-34" transform="translate(61.279297 -16.28125) scale(0.7)"/>
      <use xlink:href="#DejaVuSans-63" transform="translate(108.549805 0.125)"/>
      <use xlink:href="#DejaVuSans-6f" transform="translate(163.530273 0.125)"/>
      <use xlink:href="#DejaVuSans-73" transform="translate(224.711914 0.125)"/>
      <use xlink:href="#DejaVuSans-28" transform="translate(276.811523 0.125)"/>
      <use xlink:href="#DejaVuSans-34" transform="translate(315.825195 0.125)"/>
      <use xlink:href="#DejaVuSans-Oblique-3c9" transform="translate(379.448242 0.125)"/>
      <use xlink:href="#DejaVuSans-Oblique-78" transform="translate(463.188477 0.125)"/>
     </g>
    </g>
    <g id="line2d_17">
     <path d="M 245.845312 118.147087 
L 255.845312 118.147087 
L 265.845312 118.147087 
" style="fill: none; stroke: #8c564b; stroke-width: 1.5; stroke-linecap: square"/>
    </g>
    <g id="text_9">
     <!-- $a_5\cos(5\omega x$ -->
     <g transform="translate(273.845312 121.647087) scale(0.1 -0.1)">
      <use xlink:href="#DejaVuSans-Oblique-61" transform="translate(0 0.125)"/>
      <use xlink:href="#DejaVuSans-35" transform="translate(61.279297 -16.28125) scale(0.7)"/>
      <use xlink:href="#DejaVuSans-63" transform="translate(108.549805 0.125)"/>
      <use xlink:href="#DejaVuSans-6f" transform="translate(163.530273 0.125)"/>
      <use xlink:href="#DejaVuSans-73" transform="translate(224.711914 0.125)"/>
      <use xlink:href="#DejaVuSans-28" transform="translate(276.811523 0.125)"/>
      <use xlink:href="#DejaVuSans-35" transform="translate(315.825195 0.125)"/>
      <use xlink:href="#DejaVuSans-Oblique-3c9" transform="translate(379.448242 0.125)"/>
      <use xlink:href="#DejaVuSans-Oblique-78" transform="translate(463.188477 0.125)"/>
     </g>
    </g>
    <g id="line2d_18">
     <path d="M 346.145312 103.468962 
L 356.145312 103.468962 
L 366.145312 103.468962 
" style="fill: none; stroke: #e377c2; stroke-width: 1.5; stroke-linecap: square"/>
    </g>
    <g id="text_10">
     <!-- $a_6\cos(6\omega x$ -->
     <g transform="translate(374.145312 106.968962) scale(0.1 -0.1)">
      <defs>
       <path id="DejaVuSans-36" d="M 2113 2584 
Q 1688 2584 1439 2293 
Q 1191 2003 1191 1497 
Q 1191 994 1439 701 
Q 1688 409 2113 409 
Q 2538 409 2786 701 
Q 3034 994 3034 1497 
Q 3034 2003 2786 2293 
Q 2538 2584 2113 2584 
z
M 3366 4563 
L 3366 3988 
Q 3128 4100 2886 4159 
Q 2644 4219 2406 4219 
Q 1781 4219 1451 3797 
Q 1122 3375 1075 2522 
Q 1259 2794 1537 2939 
Q 1816 3084 2150 3084 
Q 2853 3084 3261 2657 
Q 3669 2231 3669 1497 
Q 3669 778 3244 343 
Q 2819 -91 2113 -91 
Q 1303 -91 875 529 
Q 447 1150 447 2328 
Q 447 3434 972 4092 
Q 1497 4750 2381 4750 
Q 2619 4750 2861 4703 
Q 3103 4656 3366 4563 
z
" transform="scale(0.015625)"/>
      </defs>
      <use xlink:href="#DejaVuSans-Oblique-61" transform="translate(0 0.125)"/>
      <use xlink:href="#DejaVuSans-36" transform="translate(61.279297 -16.28125) scale(0.7)"/>
      <use xlink:href="#DejaVuSans-63" transform="translate(108.549805 0.125)"/>
      <use xlink:href="#DejaVuSans-6f" transform="translate(163.530273 0.125)"/>
      <use xlink:href="#DejaVuSans-73" transform="translate(224.711914 0.125)"/>
      <use xlink:href="#DejaVuSans-28" transform="translate(276.811523 0.125)"/>
      <use xlink:href="#DejaVuSans-36" transform="translate(315.825195 0.125)"/>
      <use xlink:href="#DejaVuSans-Oblique-3c9" transform="translate(379.448242 0.125)"/>
      <use xlink:href="#DejaVuSans-Oblique-78" transform="translate(463.188477 0.125)"/>
     </g>
    </g>
    <g id="line2d_19">
     <path d="M 346.145312 118.147087 
L 356.145312 118.147087 
L 366.145312 118.147087 
" style="fill: none; stroke: #7f7f7f; stroke-width: 1.5; stroke-linecap: square"/>
    </g>
    <g id="text_11">
     <!-- $a_7\cos(7\omega x$ -->
     <g transform="translate(374.145312 121.647087) scale(0.1 -0.1)">
      <defs>
       <path id="DejaVuSans-37" d="M 525 4666 
L 3525 4666 
L 3525 4397 
L 1831 0 
L 1172 0 
L 2766 4134 
L 525 4134 
L 525 4666 
z
" transform="scale(0.015625)"/>
      </defs>
      <use xlink:href="#DejaVuSans-Oblique-61" transform="translate(0 0.125)"/>
      <use xlink:href="#DejaVuSans-37" transform="translate(61.279297 -16.28125) scale(0.7)"/>
      <use xlink:href="#DejaVuSans-63" transform="translate(108.549805 0.125)"/>
      <use xlink:href="#DejaVuSans-6f" transform="translate(163.530273 0.125)"/>
      <use xlink:href="#DejaVuSans-73" transform="translate(224.711914 0.125)"/>
      <use xlink:href="#DejaVuSans-28" transform="translate(276.811523 0.125)"/>
      <use xlink:href="#DejaVuSans-37" transform="translate(315.825195 0.125)"/>
      <use xlink:href="#DejaVuSans-Oblique-3c9" transform="translate(379.448242 0.125)"/>
      <use xlink:href="#DejaVuSans-Oblique-78" transform="translate(463.188477 0.125)"/>
     </g>
    </g>
   </g>
  </g>
 </g>
 <defs>
  <clipPath id="p4ea8e7880e">
   <rect x="44.845313" y="7.2" width="390.6" height="75.609567"/>
  </clipPath>
 </defs>
</svg>
