<?xml version="1.0" encoding="utf-8" standalone="no"?>
<!DOCTYPE svg PUBLIC "-//W3C//DTD SVG 1.1//EN"
  "http://www.w3.org/Graphics/SVG/1.1/DTD/svg11.dtd">
<svg xmlns:xlink="http://www.w3.org/1999/xlink" width="427.903125pt" height="158.375398pt" viewBox="0 0 427.903125 158.375398" xmlns="http://www.w3.org/2000/svg" version="1.1">
 <metadata>
  <rdf:RDF xmlns:dc="http://purl.org/dc/elements/1.1/" xmlns:cc="http://creativecommons.org/ns#" xmlns:rdf="http://www.w3.org/1999/02/22-rdf-syntax-ns#">
   <cc:Work>
    <dc:type rdf:resource="http://purl.org/dc/dcmitype/StillImage"/>
    <dc:date>2024-12-04T16:18:42.185447</dc:date>
    <dc:format>image/svg+xml</dc:format>
    <dc:creator>
     <cc:Agent>
      <dc:title>Matplotlib v3.9.2, https://matplotlib.org/</dc:title>
     </cc:Agent>
    </dc:creator>
   </cc:Work>
  </rdf:RDF>
 </metadata>
 <defs>
  <style type="text/css">*{stroke-linejoin: round; stroke-linecap: butt}</style>
 </defs>
 <g id="figure_1">
  <g id="patch_1">
   <path d="M 0 158.375398 
L 427.903125 158.375398 
L 427.903125 0 
L 0 0 
z
" style="fill: #ffffff"/>
  </g>
  <g id="axes_1">
   <g id="patch_2">
    <path d="M 30.103125 120.819148 
L 420.703125 120.819148 
L 420.703125 7.2 
L 30.103125 7.2 
z
" style="fill: #ffffff"/>
   </g>
   <g id="matplotlib.axis_1">
    <g id="xtick_1">
     <g id="line2d_1">
      <defs>
       <path id="m09241d5171" d="M 0 0 
L 0 3.5 
" style="stroke: #000000; stroke-width: 0.8"/>
      </defs>
      <g>
       <use xlink:href="#m09241d5171" x="55.940533" y="120.819148" style="stroke: #000000; stroke-width: 0.8"/>
      </g>
     </g>
     <g id="text_1">
      <!-- −3 -->
      <g transform="translate(48.56944 135.417586) scale(0.1 -0.1)">
       <defs>
        <path id="DejaVuSans-2212" d="M 678 2272 
L 4684 2272 
L 4684 1741 
L 678 1741 
L 678 2272 
z
" transform="scale(0.015625)"/>
        <path id="DejaVuSans-33" d="M 2597 2516 
Q 3050 2419 3304 2112 
Q 3559 1806 3559 1356 
Q 3559 666 3084 287 
Q 2609 -91 1734 -91 
Q 1441 -91 1130 -33 
Q 819 25 488 141 
L 488 750 
Q 750 597 1062 519 
Q 1375 441 1716 441 
Q 2309 441 2620 675 
Q 2931 909 2931 1356 
Q 2931 1769 2642 2001 
Q 2353 2234 1838 2234 
L 1294 2234 
L 1294 2753 
L 1863 2753 
Q 2328 2753 2575 2939 
Q 2822 3125 2822 3475 
Q 2822 3834 2567 4026 
Q 2313 4219 1838 4219 
Q 1578 4219 1281 4162 
Q 984 4106 628 3988 
L 628 4550 
Q 988 4650 1302 4700 
Q 1616 4750 1894 4750 
Q 2613 4750 3031 4423 
Q 3450 4097 3450 3541 
Q 3450 3153 3228 2886 
Q 3006 2619 2597 2516 
z
" transform="scale(0.015625)"/>
       </defs>
       <use xlink:href="#DejaVuSans-2212"/>
       <use xlink:href="#DejaVuSans-33" x="83.789062"/>
      </g>
     </g>
    </g>
    <g id="xtick_2">
     <g id="line2d_2">
      <g>
       <use xlink:href="#m09241d5171" x="113.02586" y="120.819148" style="stroke: #000000; stroke-width: 0.8"/>
      </g>
     </g>
     <g id="text_2">
      <!-- −2 -->
      <g transform="translate(105.654766 135.417586) scale(0.1 -0.1)">
       <defs>
        <path id="DejaVuSans-32" d="M 1228 531 
L 3431 531 
L 3431 0 
L 469 0 
L 469 531 
Q 828 903 1448 1529 
Q 2069 2156 2228 2338 
Q 2531 2678 2651 2914 
Q 2772 3150 2772 3378 
Q 2772 3750 2511 3984 
Q 2250 4219 1831 4219 
Q 1534 4219 1204 4116 
Q 875 4013 500 3803 
L 500 4441 
Q 881 4594 1212 4672 
Q 1544 4750 1819 4750 
Q 2544 4750 2975 4387 
Q 3406 4025 3406 3419 
Q 3406 3131 3298 2873 
Q 3191 2616 2906 2266 
Q 2828 2175 2409 1742 
Q 1991 1309 1228 531 
z
" transform="scale(0.015625)"/>
       </defs>
       <use xlink:href="#DejaVuSans-2212"/>
       <use xlink:href="#DejaVuSans-32" x="83.789062"/>
      </g>
     </g>
    </g>
    <g id="xtick_3">
     <g id="line2d_3">
      <g>
       <use xlink:href="#m09241d5171" x="170.111187" y="120.819148" style="stroke: #000000; stroke-width: 0.8"/>
      </g>
     </g>
     <g id="text_3">
      <!-- −1 -->
      <g transform="translate(162.740093 135.417586) scale(0.1 -0.1)">
       <defs>
        <path id="DejaVuSans-31" d="M 794 531 
L 1825 531 
L 1825 4091 
L 703 3866 
L 703 4441 
L 1819 4666 
L 2450 4666 
L 2450 531 
L 3481 531 
L 3481 0 
L 794 0 
L 794 531 
z
" transform="scale(0.015625)"/>
       </defs>
       <use xlink:href="#DejaVuSans-2212"/>
       <use xlink:href="#DejaVuSans-31" x="83.789062"/>
      </g>
     </g>
    </g>
    <g id="xtick_4">
     <g id="line2d_4">
      <g>
       <use xlink:href="#m09241d5171" x="227.196513" y="120.819148" style="stroke: #000000; stroke-width: 0.8"/>
      </g>
     </g>
     <g id="text_4">
      <!-- 0 -->
      <g transform="translate(224.015263 135.417586) scale(0.1 -0.1)">
       <defs>
        <path id="DejaVuSans-30" d="M 2034 4250 
Q 1547 4250 1301 3770 
Q 1056 3291 1056 2328 
Q 1056 1369 1301 889 
Q 1547 409 2034 409 
Q 2525 409 2770 889 
Q 3016 1369 3016 2328 
Q 3016 3291 2770 3770 
Q 2525 4250 2034 4250 
z
M 2034 4750 
Q 2819 4750 3233 4129 
Q 3647 3509 3647 2328 
Q 3647 1150 3233 529 
Q 2819 -91 2034 -91 
Q 1250 -91 836 529 
Q 422 1150 422 2328 
Q 422 3509 836 4129 
Q 1250 4750 2034 4750 
z
" transform="scale(0.015625)"/>
       </defs>
       <use xlink:href="#DejaVuSans-30"/>
      </g>
     </g>
    </g>
    <g id="xtick_5">
     <g id="line2d_5">
      <g>
       <use xlink:href="#m09241d5171" x="284.28184" y="120.819148" style="stroke: #000000; stroke-width: 0.8"/>
      </g>
     </g>
     <g id="text_5">
      <!-- 1 -->
      <g transform="translate(281.10059 135.417586) scale(0.1 -0.1)">
       <use xlink:href="#DejaVuSans-31"/>
      </g>
     </g>
    </g>
    <g id="xtick_6">
     <g id="line2d_6">
      <g>
       <use xlink:href="#m09241d5171" x="341.367167" y="120.819148" style="stroke: #000000; stroke-width: 0.8"/>
      </g>
     </g>
     <g id="text_6">
      <!-- 2 -->
      <g transform="translate(338.185917 135.417586) scale(0.1 -0.1)">
       <use xlink:href="#DejaVuSans-32"/>
      </g>
     </g>
    </g>
    <g id="xtick_7">
     <g id="line2d_7">
      <g>
       <use xlink:href="#m09241d5171" x="398.452494" y="120.819148" style="stroke: #000000; stroke-width: 0.8"/>
      </g>
     </g>
     <g id="text_7">
      <!-- 3 -->
      <g transform="translate(395.271244 135.417586) scale(0.1 -0.1)">
       <use xlink:href="#DejaVuSans-33"/>
      </g>
     </g>
    </g>
    <g id="text_8">
     <!-- $x$ -->
     <g transform="translate(222.403125 149.095711) scale(0.1 -0.1)">
      <defs>
       <path id="DejaVuSans-Oblique-78" d="M 3841 3500 
L 2234 1784 
L 3219 0 
L 2559 0 
L 1819 1388 
L 531 0 
L -166 0 
L 1556 1844 
L 641 3500 
L 1300 3500 
L 1972 2234 
L 3144 3500 
L 3841 3500 
z
" transform="scale(0.015625)"/>
      </defs>
      <use xlink:href="#DejaVuSans-Oblique-78" transform="translate(0 0.3125)"/>
     </g>
    </g>
   </g>
   <g id="matplotlib.axis_2">
    <g id="ytick_1">
     <g id="line2d_8">
      <defs>
       <path id="m699e2fa99c" d="M 0 0 
L -3.5 0 
" style="stroke: #000000; stroke-width: 0.8"/>
      </defs>
      <g>
       <use xlink:href="#m699e2fa99c" x="30.103125" y="106.727057" style="stroke: #000000; stroke-width: 0.8"/>
      </g>
     </g>
     <g id="text_9">
      <!-- 0.0 -->
      <g transform="translate(7.2 110.526276) scale(0.1 -0.1)">
       <defs>
        <path id="DejaVuSans-2e" d="M 684 794 
L 1344 794 
L 1344 0 
L 684 0 
L 684 794 
z
" transform="scale(0.015625)"/>
       </defs>
       <use xlink:href="#DejaVuSans-30"/>
       <use xlink:href="#DejaVuSans-2e" x="63.623047"/>
       <use xlink:href="#DejaVuSans-30" x="95.410156"/>
      </g>
     </g>
    </g>
    <g id="ytick_2">
     <g id="line2d_9">
      <g>
       <use xlink:href="#m699e2fa99c" x="30.103125" y="63.913062" style="stroke: #000000; stroke-width: 0.8"/>
      </g>
     </g>
     <g id="text_10">
      <!-- 0.5 -->
      <g transform="translate(7.2 67.712281) scale(0.1 -0.1)">
       <defs>
        <path id="DejaVuSans-35" d="M 691 4666 
L 3169 4666 
L 3169 4134 
L 1269 4134 
L 1269 2991 
Q 1406 3038 1543 3061 
Q 1681 3084 1819 3084 
Q 2600 3084 3056 2656 
Q 3513 2228 3513 1497 
Q 3513 744 3044 326 
Q 2575 -91 1722 -91 
Q 1428 -91 1123 -41 
Q 819 9 494 109 
L 494 744 
Q 775 591 1075 516 
Q 1375 441 1709 441 
Q 2250 441 2565 725 
Q 2881 1009 2881 1497 
Q 2881 1984 2565 2268 
Q 2250 2553 1709 2553 
Q 1456 2553 1204 2497 
Q 953 2441 691 2322 
L 691 4666 
z
" transform="scale(0.015625)"/>
       </defs>
       <use xlink:href="#DejaVuSans-30"/>
       <use xlink:href="#DejaVuSans-2e" x="63.623047"/>
       <use xlink:href="#DejaVuSans-35" x="95.410156"/>
      </g>
     </g>
    </g>
    <g id="ytick_3">
     <g id="line2d_10">
      <g>
       <use xlink:href="#m699e2fa99c" x="30.103125" y="21.099067" style="stroke: #000000; stroke-width: 0.8"/>
      </g>
     </g>
     <g id="text_11">
      <!-- 1.0 -->
      <g transform="translate(7.2 24.898286) scale(0.1 -0.1)">
       <use xlink:href="#DejaVuSans-31"/>
       <use xlink:href="#DejaVuSans-2e" x="63.623047"/>
       <use xlink:href="#DejaVuSans-30" x="95.410156"/>
      </g>
     </g>
    </g>
   </g>
   <g id="line2d_11">
    <path d="M 47.85767 106.727057 
L 51.444447 106.727057 
L 55.031224 106.727057 
L 58.618001 106.727057 
L 62.204778 106.727057 
L 65.791555 106.727057 
L 69.378332 106.727057 
L 72.965108 106.727057 
L 76.551885 106.727057 
L 80.138662 106.727057 
L 83.725439 106.727057 
L 87.312216 106.727057 
L 90.898993 106.727057 
L 94.48577 106.727057 
L 98.072546 106.727057 
L 101.659323 106.727057 
L 105.2461 106.727057 
L 108.832877 106.727057 
L 112.419654 106.727057 
L 116.006431 106.727057 
L 119.593208 106.727057 
L 123.179985 106.727057 
L 126.766761 106.727057 
L 130.353538 106.727057 
L 133.940315 106.727057 
L 137.527092 21.099067 
L 141.113869 21.099067 
L 144.700646 21.099067 
L 148.287423 21.099067 
L 151.874199 21.099067 
L 155.460976 21.099067 
L 159.047753 21.099067 
L 162.63453 21.099067 
L 166.221307 21.099067 
L 169.808084 21.099067 
L 173.394861 21.099067 
L 176.981637 21.099067 
L 180.568414 21.099067 
L 184.155191 21.099067 
L 187.741968 21.099067 
L 191.328745 21.099067 
L 194.915522 21.099067 
L 198.502299 21.099067 
L 202.089075 21.099067 
L 205.675852 21.099067 
L 209.262629 21.099067 
L 212.849406 21.099067 
L 216.436183 21.099067 
L 220.02296 21.099067 
L 223.609737 21.099067 
L 227.196513 21.099067 
L 230.78329 21.099067 
L 234.370067 21.099067 
L 237.956844 21.099067 
L 241.543621 21.099067 
L 245.130398 21.099067 
L 248.717175 21.099067 
L 252.303951 21.099067 
L 255.890728 21.099067 
L 259.477505 21.099067 
L 263.064282 21.099067 
L 266.651059 21.099067 
L 270.237836 21.099067 
L 273.824613 21.099067 
L 277.411389 21.099067 
L 280.998166 21.099067 
L 284.584943 21.099067 
L 288.17172 21.099067 
L 291.758497 21.099067 
L 295.345274 21.099067 
L 298.932051 21.099067 
L 302.518827 21.099067 
L 306.105604 21.099067 
L 309.692381 21.099067 
L 313.279158 21.099067 
L 316.865935 21.099067 
L 320.452712 106.727057 
L 324.039489 106.727057 
L 327.626265 106.727057 
L 331.213042 106.727057 
L 334.799819 106.727057 
L 338.386596 106.727057 
L 341.973373 106.727057 
L 345.56015 106.727057 
L 349.146927 106.727057 
L 352.733704 106.727057 
L 356.32048 106.727057 
L 359.907257 106.727057 
L 363.494034 106.727057 
L 367.080811 106.727057 
L 370.667588 106.727057 
L 374.254365 106.727057 
L 377.841142 106.727057 
L 381.427918 106.727057 
L 385.014695 106.727057 
L 388.601472 106.727057 
L 392.188249 106.727057 
L 395.775026 106.727057 
L 399.361803 106.727057 
L 402.94858 106.727057 
" clip-path="url(#p8f511013dc)" style="fill: none; stroke: #1f77b4; stroke-width: 1.5; stroke-linecap: square"/>
   </g>
   <g id="line2d_12">
    <path d="M 47.85767 104.298013 
L 51.444447 104.631382 
L 55.031224 105.547275 
L 58.618001 106.81264 
L 62.204778 108.100113 
L 65.791555 109.065684 
L 69.378332 109.432493 
L 72.965108 109.062104 
L 76.551885 107.996777 
L 80.138662 106.461971 
L 83.725439 104.826329 
L 87.312216 103.525321 
L 90.898993 102.962576 
L 94.48577 103.408271 
L 98.072546 104.915539 
L 101.659323 107.27335 
L 105.2461 110.008028 
L 108.832877 112.436686 
L 112.419654 113.765954 
L 116.006431 113.220442 
L 119.593208 110.178986 
L 123.179985 104.294372 
L 126.766761 95.574226 
L 130.353538 84.407041 
L 133.940315 71.526629 
L 137.527092 57.919103 
L 141.113869 44.686715 
L 144.700646 32.890751 
L 148.287423 23.399593 
L 151.874199 16.767402 
L 155.460976 13.163599 
L 159.047753 12.364507 
L 162.63453 13.807616 
L 166.221307 16.698065 
L 169.808084 20.147958 
L 173.394861 23.323755 
L 176.981637 25.576089 
L 180.568414 26.530144 
L 184.155191 26.122362 
L 187.741968 24.579372 
L 191.328745 22.345656 
L 194.915522 19.975679 
L 198.502299 18.012292 
L 202.089075 16.875063 
L 205.675852 16.779558 
L 209.262629 17.702021 
L 212.849406 19.394702 
L 216.436183 21.447061 
L 220.02296 23.379152 
L 223.609737 24.747377 
L 227.196513 25.240671 
L 230.78329 24.747377 
L 234.370067 23.379152 
L 237.956844 21.447061 
L 241.543621 19.394702 
L 245.130398 17.702021 
L 248.717175 16.779558 
L 252.303951 16.875063 
L 255.890728 18.012292 
L 259.477505 19.975679 
L 263.064282 22.345656 
L 266.651059 24.579372 
L 270.237836 26.122362 
L 273.824613 26.530144 
L 277.411389 25.576089 
L 280.998166 23.323755 
L 284.584943 20.147958 
L 288.17172 16.698065 
L 291.758497 13.807616 
L 295.345274 12.364507 
L 298.932051 13.163599 
L 302.518827 16.767402 
L 306.105604 23.399593 
L 309.692381 32.890751 
L 313.279158 44.686715 
L 316.865935 57.919103 
L 320.452712 71.526629 
L 324.039489 84.407041 
L 327.626265 95.574226 
L 331.213042 104.294372 
L 334.799819 110.178986 
L 338.386596 113.220442 
L 341.973373 113.765954 
L 345.56015 112.436686 
L 349.146927 110.008028 
L 352.733704 107.27335 
L 356.32048 104.915539 
L 359.907257 103.408271 
L 363.494034 102.962576 
L 367.080811 103.525321 
L 370.667588 104.826329 
L 374.254365 106.461971 
L 377.841142 107.996777 
L 381.427918 109.062104 
L 385.014695 109.432493 
L 388.601472 109.065684 
L 392.188249 108.100113 
L 395.775026 106.81264 
L 399.361803 105.547275 
L 402.94858 104.631382 
" clip-path="url(#p8f511013dc)" style="fill: none; stroke: #ff7f0e; stroke-width: 1.5; stroke-linecap: square"/>
   </g>
   <g id="line2d_13">
    <path d="M 47.85767 104.695535 
L 51.444447 106.154426 
L 55.031224 108.447413 
L 58.618001 108.282744 
L 62.204778 105.85914 
L 65.791555 104.635775 
L 69.378332 106.425759 
L 72.965108 108.729643 
L 76.551885 108.198004 
L 80.138662 105.461663 
L 83.725439 104.422284 
L 87.312216 106.744585 
L 90.898993 109.248226 
L 94.48577 108.194815 
L 98.072546 104.776189 
L 101.659323 103.891323 
L 105.2461 107.28608 
L 108.832877 110.440284 
L 112.419654 108.317838 
L 116.006431 102.978905 
L 119.593208 102.231881 
L 123.179985 109.269963 
L 126.766761 115.654642 
L 130.353538 107.702356 
L 133.940315 80.799648 
L 137.527092 45.931185 
L 141.113869 20.609167 
L 144.700646 13.541062 
L 148.287423 18.833847 
L 151.874199 24.37048 
L 155.460976 23.881684 
L 159.047753 20.204279 
L 162.63453 18.754606 
L 166.221307 20.602361 
L 169.808084 22.577321 
L 173.394861 22.222242 
L 176.981637 20.551916 
L 180.568414 19.944862 
L 184.155191 20.908665 
L 187.741968 21.899742 
L 191.328745 21.691281 
L 194.915522 20.801621 
L 198.502299 20.460219 
L 202.089075 20.95565 
L 205.675852 21.51602 
L 209.262629 21.47779 
L 212.849406 21.019585 
L 216.436183 20.736849 
L 220.02296 20.891367 
L 223.609737 21.24496 
L 227.196513 21.41803 
L 230.78329 21.24496 
L 234.370067 20.891367 
L 237.956844 20.736849 
L 241.543621 21.019585 
L 245.130398 21.47779 
L 248.717175 21.51602 
L 252.303951 20.95565 
L 255.890728 20.460219 
L 259.477505 20.801621 
L 263.064282 21.691281 
L 266.651059 21.899742 
L 270.237836 20.908665 
L 273.824613 19.944862 
L 277.411389 20.551916 
L 280.998166 22.222242 
L 284.584943 22.577321 
L 288.17172 20.602361 
L 291.758497 18.754606 
L 295.345274 20.204279 
L 298.932051 23.881684 
L 302.518827 24.37048 
L 306.105604 18.833847 
L 309.692381 13.541062 
L 313.279158 20.609167 
L 316.865935 45.931185 
L 320.452712 80.799648 
L 324.039489 107.702356 
L 327.626265 115.654642 
L 331.213042 109.269963 
L 334.799819 102.231881 
L 338.386596 102.978905 
L 341.973373 108.317838 
L 345.56015 110.440284 
L 349.146927 107.28608 
L 352.733704 103.891323 
L 356.32048 104.776189 
L 359.907257 108.194815 
L 363.494034 109.248226 
L 367.080811 106.744585 
L 370.667588 104.422284 
L 374.254365 105.461663 
L 377.841142 108.198004 
L 381.427918 108.729643 
L 385.014695 106.425759 
L 388.601472 104.635775 
L 392.188249 105.85914 
L 395.775026 108.282744 
L 399.361803 108.447413 
L 402.94858 106.154426 
" clip-path="url(#p8f511013dc)" style="fill: none; stroke: #2ca02c; stroke-width: 1.5; stroke-linecap: square"/>
   </g>
   <g id="line2d_14">
    <path d="M 47.85767 107.583337 
L 51.444447 105.870778 
L 55.031224 107.583337 
L 58.618001 105.870778 
L 62.204778 107.583337 
L 65.791555 105.870778 
L 69.378332 107.583337 
L 72.965108 105.870778 
L 76.551885 107.583337 
L 80.138662 105.870778 
L 83.725439 107.583337 
L 87.312216 105.870778 
L 90.898993 107.583337 
L 94.48577 105.870778 
L 98.072546 107.583337 
L 101.659323 105.870778 
L 105.2461 107.583337 
L 108.832877 105.870778 
L 112.419654 107.583337 
L 116.006431 105.870778 
L 119.593208 107.583337 
L 123.179985 105.870778 
L 126.766761 107.583337 
L 130.353538 105.870778 
L 133.940315 107.583337 
L 137.527092 20.242788 
L 141.113869 21.955347 
L 144.700646 20.242788 
L 148.287423 21.955347 
L 151.874199 20.242788 
L 155.460976 21.955347 
L 159.047753 20.242788 
L 162.63453 21.955347 
L 166.221307 20.242788 
L 169.808084 21.955347 
L 173.394861 20.242788 
L 176.981637 21.955347 
L 180.568414 20.242788 
L 184.155191 21.955347 
L 187.741968 20.242788 
L 191.328745 21.955347 
L 194.915522 20.242788 
L 198.502299 21.955347 
L 202.089075 20.242788 
L 205.675852 21.955347 
L 209.262629 20.242788 
L 212.849406 21.955347 
L 216.436183 20.242788 
L 220.02296 21.955347 
L 223.609737 20.242788 
L 227.196513 21.955347 
L 230.78329 20.242788 
L 234.370067 21.955347 
L 237.956844 20.242788 
L 241.543621 21.955347 
L 245.130398 20.242788 
L 248.717175 21.955347 
L 252.303951 20.242788 
L 255.890728 21.955347 
L 259.477505 20.242788 
L 263.064282 21.955347 
L 266.651059 20.242788 
L 270.237836 21.955347 
L 273.824613 20.242788 
L 277.411389 21.955347 
L 280.998166 20.242788 
L 284.584943 21.955347 
L 288.17172 20.242788 
L 291.758497 21.955347 
L 295.345274 20.242788 
L 298.932051 21.955347 
L 302.518827 20.242788 
L 306.105604 21.955347 
L 309.692381 20.242788 
L 313.279158 21.955347 
L 316.865935 20.242788 
L 320.452712 107.583337 
L 324.039489 105.870778 
L 327.626265 107.583337 
L 331.213042 105.870778 
L 334.799819 107.583337 
L 338.386596 105.870778 
L 341.973373 107.583337 
L 345.56015 105.870778 
L 349.146927 107.583337 
L 352.733704 105.870778 
L 356.32048 107.583337 
L 359.907257 105.870778 
L 363.494034 107.583337 
L 367.080811 105.870778 
L 370.667588 107.583337 
L 374.254365 105.870778 
L 377.841142 107.583337 
L 381.427918 105.870778 
L 385.014695 107.583337 
L 388.601472 105.870778 
L 392.188249 107.583337 
L 395.775026 105.870778 
L 399.361803 107.583337 
L 402.94858 105.870778 
" clip-path="url(#p8f511013dc)" style="fill: none; stroke: #d62728; stroke-width: 1.5; stroke-linecap: square"/>
   </g>
   <g id="patch_3">
    <path d="M 30.103125 120.819148 
L 30.103125 7.2 
" style="fill: none; stroke: #000000; stroke-width: 0.8; stroke-linejoin: miter; stroke-linecap: square"/>
   </g>
   <g id="patch_4">
    <path d="M 420.703125 120.819148 
L 420.703125 7.2 
" style="fill: none; stroke: #000000; stroke-width: 0.8; stroke-linejoin: miter; stroke-linecap: square"/>
   </g>
   <g id="patch_5">
    <path d="M 30.103125 120.819148 
L 420.703125 120.819148 
" style="fill: none; stroke: #000000; stroke-width: 0.8; stroke-linejoin: miter; stroke-linecap: square"/>
   </g>
   <g id="patch_6">
    <path d="M 30.103125 7.2 
L 420.703125 7.2 
" style="fill: none; stroke: #000000; stroke-width: 0.8; stroke-linejoin: miter; stroke-linecap: square"/>
   </g>
   <g id="legend_1">
    <g id="patch_7">
     <path d="M 368.903125 84.078125 
L 413.703125 84.078125 
Q 415.703125 84.078125 415.703125 82.078125 
L 415.703125 14.2 
Q 415.703125 12.2 413.703125 12.2 
L 368.903125 12.2 
Q 366.903125 12.2 366.903125 14.2 
L 366.903125 82.078125 
Q 366.903125 84.078125 368.903125 84.078125 
z
" style="fill: #ffffff; opacity: 0.8; stroke: #cccccc; stroke-linejoin: miter"/>
    </g>
    <g id="line2d_15">
     <path d="M 370.903125 20.298438 
L 380.903125 20.298438 
L 390.903125 20.298438 
" style="fill: none; stroke: #1f77b4; stroke-width: 1.5; stroke-linecap: square"/>
    </g>
    <g id="text_12">
     <!-- $f$ -->
     <g transform="translate(398.903125 23.798438) scale(0.1 -0.1)">
      <defs>
       <path id="DejaVuSans-Oblique-66" d="M 3059 4863 
L 2969 4384 
L 2419 4384 
Q 2106 4384 1964 4261 
Q 1822 4138 1753 3809 
L 1691 3500 
L 2638 3500 
L 2553 3053 
L 1606 3053 
L 1013 0 
L 434 0 
L 1031 3053 
L 481 3053 
L 563 3500 
L 1113 3500 
L 1159 3744 
Q 1278 4363 1576 4613 
Q 1875 4863 2516 4863 
L 3059 4863 
z
" transform="scale(0.015625)"/>
      </defs>
      <use xlink:href="#DejaVuSans-Oblique-66" transform="translate(0 0.015625)"/>
     </g>
    </g>
    <g id="line2d_16">
     <path d="M 370.903125 38.298438 
L 380.903125 38.298438 
L 390.903125 38.298438 
" style="fill: none; stroke: #ff7f0e; stroke-width: 1.5; stroke-linecap: square"/>
    </g>
    <g id="text_13">
     <!-- $\hat{f}_7$ -->
     <g transform="translate(398.903125 41.798438) scale(0.1 -0.1)">
      <defs>
       <path id="DejaVuSans-302" d="M -1831 5119 
L -1369 5119 
L -603 3944 
L -1038 3944 
L -1600 4709 
L -2163 3944 
L -2597 3944 
L -1831 5119 
z
M -1600 3584 
L -1600 3584 
z
" transform="scale(0.015625)"/>
       <path id="DejaVuSans-37" d="M 525 4666 
L 3525 4666 
L 3525 4397 
L 1831 0 
L 1172 0 
L 2766 4134 
L 525 4134 
L 525 4666 
z
" transform="scale(0.015625)"/>
      </defs>
      <use xlink:href="#DejaVuSans-302" transform="translate(47.379395 33.015625)"/>
      <use xlink:href="#DejaVuSans-Oblique-66" transform="translate(0 0.53125)"/>
      <use xlink:href="#DejaVuSans-37" transform="translate(36.162109 -15.875) scale(0.7)"/>
     </g>
    </g>
    <g id="line2d_17">
     <path d="M 370.903125 56.398438 
L 380.903125 56.398438 
L 390.903125 56.398438 
" style="fill: none; stroke: #2ca02c; stroke-width: 1.5; stroke-linecap: square"/>
    </g>
    <g id="text_14">
     <!-- $\hat{f}_{20}$ -->
     <g transform="translate(398.903125 59.898438) scale(0.1 -0.1)">
      <use xlink:href="#DejaVuSans-302" transform="translate(47.379395 33.015625)"/>
      <use xlink:href="#DejaVuSans-Oblique-66" transform="translate(0 0.53125)"/>
      <use xlink:href="#DejaVuSans-32" transform="translate(36.162109 -15.875) scale(0.7)"/>
      <use xlink:href="#DejaVuSans-30" transform="translate(80.698242 -15.875) scale(0.7)"/>
     </g>
    </g>
    <g id="line2d_18">
     <path d="M 370.903125 74.498438 
L 380.903125 74.498438 
L 390.903125 74.498438 
" style="fill: none; stroke: #d62728; stroke-width: 1.5; stroke-linecap: square"/>
    </g>
    <g id="text_15">
     <!-- $\hat{f}_{50}$ -->
     <g transform="translate(398.903125 77.998438) scale(0.1 -0.1)">
      <use xlink:href="#DejaVuSans-302" transform="translate(47.379395 33.015625)"/>
      <use xlink:href="#DejaVuSans-Oblique-66" transform="translate(0 0.53125)"/>
      <use xlink:href="#DejaVuSans-35" transform="translate(36.162109 -15.875) scale(0.7)"/>
      <use xlink:href="#DejaVuSans-30" transform="translate(80.698242 -15.875) scale(0.7)"/>
     </g>
    </g>
   </g>
  </g>
 </g>
 <defs>
  <clipPath id="p8f511013dc">
   <rect x="30.103125" y="7.2" width="390.6" height="113.619148"/>
  </clipPath>
 </defs>
</svg>
