<?xml version="1.0" encoding="utf-8" standalone="no"?>
<!DOCTYPE svg PUBLIC "-//W3C//DTD SVG 1.1//EN"
  "http://www.w3.org/Graphics/SVG/1.1/DTD/svg11.dtd">
<svg xmlns:xlink="http://www.w3.org/1999/xlink" width="440.420313pt" height="126.751832pt" viewBox="0 0 440.420313 126.751832" xmlns="http://www.w3.org/2000/svg" version="1.1">
 <metadata>
  <rdf:RDF xmlns:dc="http://purl.org/dc/elements/1.1/" xmlns:cc="http://creativecommons.org/ns#" xmlns:rdf="http://www.w3.org/1999/02/22-rdf-syntax-ns#">
   <cc:Work>
    <dc:type rdf:resource="http://purl.org/dc/dcmitype/StillImage"/>
    <dc:date>2025-12-15T14:14:40.525119</dc:date>
    <dc:format>image/svg+xml</dc:format>
    <dc:creator>
     <cc:Agent>
      <dc:title>Matplotlib v3.10.3, https://matplotlib.org/</dc:title>
     </cc:Agent>
    </dc:creator>
   </cc:Work>
  </rdf:RDF>
 </metadata>
 <defs>
  <style type="text/css">*{stroke-linejoin: round; stroke-linecap: butt}</style>
 </defs>
 <g id="figure_1">
  <g id="patch_1">
   <path d="M 0 126.751832 
L 440.420313 126.751832 
L 440.420313 0 
L 0 0 
z
" style="fill: #ffffff"/>
  </g>
  <g id="axes_1">
   <g id="patch_2">
    <path d="M 42.620312 89.195582 
L 433.220313 89.195582 
L 433.220313 10.999219 
L 42.620312 10.999219 
z
" style="fill: #ffffff"/>
   </g>
   <g id="matplotlib.axis_1">
    <g id="xtick_1">
     <g id="line2d_1">
      <defs>
       <path id="m3592801657" d="M 0 0 
L 0 3.5 
" style="stroke: #000000; stroke-width: 0.8"/>
      </defs>
      <g>
       <use xlink:href="#m3592801657" x="42.620312" y="89.195582" style="stroke: #000000; stroke-width: 0.8"/>
      </g>
     </g>
     <g id="text_1">
      <!-- 0.00 -->
      <g transform="translate(31.4875 103.79402) scale(0.1 -0.1)">
       <defs>
        <path id="DejaVuSans-30" d="M 2034 4250 
Q 1547 4250 1301 3770 
Q 1056 3291 1056 2328 
Q 1056 1369 1301 889 
Q 1547 409 2034 409 
Q 2525 409 2770 889 
Q 3016 1369 3016 2328 
Q 3016 3291 2770 3770 
Q 2525 4250 2034 4250 
z
M 2034 4750 
Q 2819 4750 3233 4129 
Q 3647 3509 3647 2328 
Q 3647 1150 3233 529 
Q 2819 -91 2034 -91 
Q 1250 -91 836 529 
Q 422 1150 422 2328 
Q 422 3509 836 4129 
Q 1250 4750 2034 4750 
z
" transform="scale(0.015625)"/>
        <path id="DejaVuSans-2e" d="M 684 794 
L 1344 794 
L 1344 0 
L 684 0 
L 684 794 
z
" transform="scale(0.015625)"/>
       </defs>
       <use xlink:href="#DejaVuSans-30"/>
       <use xlink:href="#DejaVuSans-2e" transform="translate(63.623047 0)"/>
       <use xlink:href="#DejaVuSans-30" transform="translate(95.410156 0)"/>
       <use xlink:href="#DejaVuSans-30" transform="translate(159.033203 0)"/>
      </g>
     </g>
    </g>
    <g id="xtick_2">
     <g id="line2d_2">
      <g>
       <use xlink:href="#m3592801657" x="120.816676" y="89.195582" style="stroke: #000000; stroke-width: 0.8"/>
      </g>
     </g>
     <g id="text_2">
      <!-- 0.05 -->
      <g transform="translate(109.683864 103.79402) scale(0.1 -0.1)">
       <defs>
        <path id="DejaVuSans-35" d="M 691 4666 
L 3169 4666 
L 3169 4134 
L 1269 4134 
L 1269 2991 
Q 1406 3038 1543 3061 
Q 1681 3084 1819 3084 
Q 2600 3084 3056 2656 
Q 3513 2228 3513 1497 
Q 3513 744 3044 326 
Q 2575 -91 1722 -91 
Q 1428 -91 1123 -41 
Q 819 9 494 109 
L 494 744 
Q 775 591 1075 516 
Q 1375 441 1709 441 
Q 2250 441 2565 725 
Q 2881 1009 2881 1497 
Q 2881 1984 2565 2268 
Q 2250 2553 1709 2553 
Q 1456 2553 1204 2497 
Q 953 2441 691 2322 
L 691 4666 
z
" transform="scale(0.015625)"/>
       </defs>
       <use xlink:href="#DejaVuSans-30"/>
       <use xlink:href="#DejaVuSans-2e" transform="translate(63.623047 0)"/>
       <use xlink:href="#DejaVuSans-30" transform="translate(95.410156 0)"/>
       <use xlink:href="#DejaVuSans-35" transform="translate(159.033203 0)"/>
      </g>
     </g>
    </g>
    <g id="xtick_3">
     <g id="line2d_3">
      <g>
       <use xlink:href="#m3592801657" x="199.01304" y="89.195582" style="stroke: #000000; stroke-width: 0.8"/>
      </g>
     </g>
     <g id="text_3">
      <!-- 0.10 -->
      <g transform="translate(187.880227 103.79402) scale(0.1 -0.1)">
       <defs>
        <path id="DejaVuSans-31" d="M 794 531 
L 1825 531 
L 1825 4091 
L 703 3866 
L 703 4441 
L 1819 4666 
L 2450 4666 
L 2450 531 
L 3481 531 
L 3481 0 
L 794 0 
L 794 531 
z
" transform="scale(0.015625)"/>
       </defs>
       <use xlink:href="#DejaVuSans-30"/>
       <use xlink:href="#DejaVuSans-2e" transform="translate(63.623047 0)"/>
       <use xlink:href="#DejaVuSans-31" transform="translate(95.410156 0)"/>
       <use xlink:href="#DejaVuSans-30" transform="translate(159.033203 0)"/>
      </g>
     </g>
    </g>
    <g id="xtick_4">
     <g id="line2d_4">
      <g>
       <use xlink:href="#m3592801657" x="277.209403" y="89.195582" style="stroke: #000000; stroke-width: 0.8"/>
      </g>
     </g>
     <g id="text_4">
      <!-- 0.15 -->
      <g transform="translate(266.076591 103.79402) scale(0.1 -0.1)">
       <use xlink:href="#DejaVuSans-30"/>
       <use xlink:href="#DejaVuSans-2e" transform="translate(63.623047 0)"/>
       <use xlink:href="#DejaVuSans-31" transform="translate(95.410156 0)"/>
       <use xlink:href="#DejaVuSans-35" transform="translate(159.033203 0)"/>
      </g>
     </g>
    </g>
    <g id="xtick_5">
     <g id="line2d_5">
      <g>
       <use xlink:href="#m3592801657" x="355.405767" y="89.195582" style="stroke: #000000; stroke-width: 0.8"/>
      </g>
     </g>
     <g id="text_5">
      <!-- 0.20 -->
      <g transform="translate(344.272955 103.79402) scale(0.1 -0.1)">
       <defs>
        <path id="DejaVuSans-32" d="M 1228 531 
L 3431 531 
L 3431 0 
L 469 0 
L 469 531 
Q 828 903 1448 1529 
Q 2069 2156 2228 2338 
Q 2531 2678 2651 2914 
Q 2772 3150 2772 3378 
Q 2772 3750 2511 3984 
Q 2250 4219 1831 4219 
Q 1534 4219 1204 4116 
Q 875 4013 500 3803 
L 500 4441 
Q 881 4594 1212 4672 
Q 1544 4750 1819 4750 
Q 2544 4750 2975 4387 
Q 3406 4025 3406 3419 
Q 3406 3131 3298 2873 
Q 3191 2616 2906 2266 
Q 2828 2175 2409 1742 
Q 1991 1309 1228 531 
z
" transform="scale(0.015625)"/>
       </defs>
       <use xlink:href="#DejaVuSans-30"/>
       <use xlink:href="#DejaVuSans-2e" transform="translate(63.623047 0)"/>
       <use xlink:href="#DejaVuSans-32" transform="translate(95.410156 0)"/>
       <use xlink:href="#DejaVuSans-30" transform="translate(159.033203 0)"/>
      </g>
     </g>
    </g>
    <g id="text_6">
     <!-- Time [s] -->
     <g transform="translate(217.591406 117.472145) scale(0.1 -0.1)">
      <defs>
       <path id="DejaVuSans-54" d="M -19 4666 
L 3928 4666 
L 3928 4134 
L 2272 4134 
L 2272 0 
L 1638 0 
L 1638 4134 
L -19 4134 
L -19 4666 
z
" transform="scale(0.015625)"/>
       <path id="DejaVuSans-69" d="M 603 3500 
L 1178 3500 
L 1178 0 
L 603 0 
L 603 3500 
z
M 603 4863 
L 1178 4863 
L 1178 4134 
L 603 4134 
L 603 4863 
z
" transform="scale(0.015625)"/>
       <path id="DejaVuSans-6d" d="M 3328 2828 
Q 3544 3216 3844 3400 
Q 4144 3584 4550 3584 
Q 5097 3584 5394 3201 
Q 5691 2819 5691 2113 
L 5691 0 
L 5113 0 
L 5113 2094 
Q 5113 2597 4934 2840 
Q 4756 3084 4391 3084 
Q 3944 3084 3684 2787 
Q 3425 2491 3425 1978 
L 3425 0 
L 2847 0 
L 2847 2094 
Q 2847 2600 2669 2842 
Q 2491 3084 2119 3084 
Q 1678 3084 1418 2786 
Q 1159 2488 1159 1978 
L 1159 0 
L 581 0 
L 581 3500 
L 1159 3500 
L 1159 2956 
Q 1356 3278 1631 3431 
Q 1906 3584 2284 3584 
Q 2666 3584 2933 3390 
Q 3200 3197 3328 2828 
z
" transform="scale(0.015625)"/>
       <path id="DejaVuSans-65" d="M 3597 1894 
L 3597 1613 
L 953 1613 
Q 991 1019 1311 708 
Q 1631 397 2203 397 
Q 2534 397 2845 478 
Q 3156 559 3463 722 
L 3463 178 
Q 3153 47 2828 -22 
Q 2503 -91 2169 -91 
Q 1331 -91 842 396 
Q 353 884 353 1716 
Q 353 2575 817 3079 
Q 1281 3584 2069 3584 
Q 2775 3584 3186 3129 
Q 3597 2675 3597 1894 
z
M 3022 2063 
Q 3016 2534 2758 2815 
Q 2500 3097 2075 3097 
Q 1594 3097 1305 2825 
Q 1016 2553 972 2059 
L 3022 2063 
z
" transform="scale(0.015625)"/>
       <path id="DejaVuSans-20" transform="scale(0.015625)"/>
       <path id="DejaVuSans-5b" d="M 550 4863 
L 1875 4863 
L 1875 4416 
L 1125 4416 
L 1125 -397 
L 1875 -397 
L 1875 -844 
L 550 -844 
L 550 4863 
z
" transform="scale(0.015625)"/>
       <path id="DejaVuSans-73" d="M 2834 3397 
L 2834 2853 
Q 2591 2978 2328 3040 
Q 2066 3103 1784 3103 
Q 1356 3103 1142 2972 
Q 928 2841 928 2578 
Q 928 2378 1081 2264 
Q 1234 2150 1697 2047 
L 1894 2003 
Q 2506 1872 2764 1633 
Q 3022 1394 3022 966 
Q 3022 478 2636 193 
Q 2250 -91 1575 -91 
Q 1294 -91 989 -36 
Q 684 19 347 128 
L 347 722 
Q 666 556 975 473 
Q 1284 391 1588 391 
Q 1994 391 2212 530 
Q 2431 669 2431 922 
Q 2431 1156 2273 1281 
Q 2116 1406 1581 1522 
L 1381 1569 
Q 847 1681 609 1914 
Q 372 2147 372 2553 
Q 372 3047 722 3315 
Q 1072 3584 1716 3584 
Q 2034 3584 2315 3537 
Q 2597 3491 2834 3397 
z
" transform="scale(0.015625)"/>
       <path id="DejaVuSans-5d" d="M 1947 4863 
L 1947 -844 
L 622 -844 
L 622 -397 
L 1369 -397 
L 1369 4416 
L 622 4416 
L 622 4863 
L 1947 4863 
z
" transform="scale(0.015625)"/>
      </defs>
      <use xlink:href="#DejaVuSans-54"/>
      <use xlink:href="#DejaVuSans-69" transform="translate(57.958984 0)"/>
      <use xlink:href="#DejaVuSans-6d" transform="translate(85.742188 0)"/>
      <use xlink:href="#DejaVuSans-65" transform="translate(183.154297 0)"/>
      <use xlink:href="#DejaVuSans-20" transform="translate(244.677734 0)"/>
      <use xlink:href="#DejaVuSans-5b" transform="translate(276.464844 0)"/>
      <use xlink:href="#DejaVuSans-73" transform="translate(315.478516 0)"/>
      <use xlink:href="#DejaVuSans-5d" transform="translate(367.578125 0)"/>
     </g>
    </g>
   </g>
   <g id="matplotlib.axis_2">
    <g id="ytick_1">
     <g id="line2d_6">
      <defs>
       <path id="mdbb2c43ef6" d="M 0 0 
L -3.5 0 
" style="stroke: #000000; stroke-width: 0.8"/>
      </defs>
      <g>
       <use xlink:href="#mdbb2c43ef6" x="42.620312" y="89.195582" style="stroke: #000000; stroke-width: 0.8"/>
      </g>
     </g>
     <g id="text_7">
      <!-- −5 -->
      <g transform="translate(20.878125 92.994801) scale(0.1 -0.1)">
       <defs>
        <path id="DejaVuSans-2212" d="M 678 2272 
L 4684 2272 
L 4684 1741 
L 678 1741 
L 678 2272 
z
" transform="scale(0.015625)"/>
       </defs>
       <use xlink:href="#DejaVuSans-2212"/>
       <use xlink:href="#DejaVuSans-35" transform="translate(83.789062 0)"/>
      </g>
     </g>
    </g>
    <g id="ytick_2">
     <g id="line2d_7">
      <g>
       <use xlink:href="#mdbb2c43ef6" x="42.620312" y="50.097401" style="stroke: #000000; stroke-width: 0.8"/>
      </g>
     </g>
     <g id="text_8">
      <!-- 0 -->
      <g transform="translate(29.257812 53.896619) scale(0.1 -0.1)">
       <use xlink:href="#DejaVuSans-30"/>
      </g>
     </g>
    </g>
    <g id="ytick_3">
     <g id="line2d_8">
      <g>
       <use xlink:href="#mdbb2c43ef6" x="42.620312" y="10.999219" style="stroke: #000000; stroke-width: 0.8"/>
      </g>
     </g>
     <g id="text_9">
      <!-- 5 -->
      <g transform="translate(29.257812 14.798437) scale(0.1 -0.1)">
       <use xlink:href="#DejaVuSans-35"/>
      </g>
     </g>
    </g>
    <g id="text_10">
     <!-- $f$ -->
     <g transform="translate(14.798437 51.897401) rotate(-90) scale(0.1 -0.1)">
      <defs>
       <path id="DejaVuSans-Oblique-66" d="M 3059 4863 
L 2969 4384 
L 2419 4384 
Q 2106 4384 1964 4261 
Q 1822 4138 1753 3809 
L 1691 3500 
L 2638 3500 
L 2553 3053 
L 1606 3053 
L 1013 0 
L 434 0 
L 1031 3053 
L 481 3053 
L 563 3500 
L 1113 3500 
L 1159 3744 
Q 1278 4363 1576 4613 
Q 1875 4863 2516 4863 
L 3059 4863 
z
" transform="scale(0.015625)"/>
      </defs>
      <use xlink:href="#DejaVuSans-Oblique-66" transform="translate(0 0.015625)"/>
     </g>
    </g>
   </g>
   <g id="line2d_9">
    <path d="M 42.620312 55.374648 
L 44.147585 50.374882 
L 44.911222 48.597291 
L 45.29304 47.994497 
L 45.674858 47.604416 
L 46.056676 47.433588 
L 46.438494 47.480283 
L 46.820312 47.734613 
L 47.583949 48.788406 
L 48.347585 50.373842 
L 50.256676 54.604442 
L 51.020312 55.547554 
L 51.402131 55.724955 
L 51.783949 55.678973 
L 52.165767 55.398668 
L 52.547585 54.881309 
L 53.311222 53.166279 
L 54.074858 50.675557 
L 55.602131 44.467622 
L 56.747585 40.142179 
L 57.511222 38.081391 
L 57.89304 37.403812 
L 58.274858 36.993571 
L 58.656676 36.864948 
L 59.038494 37.02373 
L 59.420312 37.467007 
L 59.802131 38.183258 
L 60.565767 40.34801 
L 61.711222 44.921301 
L 63.620312 53.123185 
L 64.383949 55.565209 
L 65.147585 57.133386 
L 65.529403 57.55048 
L 65.911222 57.718482 
L 66.29304 57.644578 
L 66.674858 57.344031 
L 67.438494 56.160592 
L 68.583949 53.445797 
L 69.729403 50.597886 
L 70.49304 49.17376 
L 70.874858 48.704981 
L 71.256676 48.42963 
L 71.638494 48.361994 
L 72.020313 48.508381 
L 72.402131 48.866879 
L 73.165767 50.172009 
L 73.929403 52.10638 
L 76.220313 58.695647 
L 76.983949 60.02392 
L 77.365767 60.361012 
L 77.747585 60.449325 
L 78.129403 60.275328 
L 78.511222 59.833798 
L 78.89304 59.128067 
L 79.656676 56.979572 
L 80.420312 54.01906 
L 83.474858 40.716546 
L 84.238494 38.79951 
L 84.620312 38.233137 
L 85.002131 37.944811 
L 85.383949 37.936301 
L 85.765767 38.200755 
L 86.147585 38.722972 
L 86.911222 40.44175 
L 88.056676 44.174627 
L 89.583949 49.480844 
L 90.347585 51.508209 
L 91.111222 52.781825 
L 91.49304 53.0948 
L 91.874858 53.185961 
L 92.256676 53.061185 
L 92.638494 52.734354 
L 93.402131 51.566644 
L 94.547585 49.028287 
L 95.69304 46.52111 
L 96.456676 45.411792 
L 96.838494 45.127176 
L 97.220313 45.054321 
L 97.602131 45.207941 
L 97.983949 45.594741 
L 98.365767 46.213116 
L 99.129403 48.096778 
L 99.89304 50.686187 
L 102.565767 60.777756 
L 103.329403 62.502223 
L 103.711222 62.990388 
L 104.09304 63.202907 
L 104.474858 63.130298 
L 104.856676 62.77171 
L 105.238494 62.134975 
L 106.002131 60.100085 
L 106.765767 57.24604 
L 109.820312 44.524525 
L 110.583949 42.725431 
L 110.965767 42.19161 
L 111.347585 41.911289 
L 111.729403 41.881154 
L 112.111222 42.089608 
L 112.49304 42.517237 
L 113.256676 43.91795 
L 114.402131 46.827861 
L 115.547585 49.692085 
L 116.311222 51.041461 
L 116.69304 51.454948 
L 117.074858 51.667734 
L 117.456676 51.669444 
L 117.838494 51.457836 
L 118.220313 51.038897 
L 118.983949 49.64266 
L 120.129403 46.57239 
L 121.656676 42.308975 
L 122.420312 40.872556 
L 122.802131 40.457 
L 123.183949 40.278051 
L 123.565767 40.352777 
L 123.947585 40.690172 
L 124.329403 41.290777 
L 125.09304 43.241243 
L 125.856676 46.042996 
L 127.383949 53.027864 
L 128.529403 58.018958 
L 129.29304 60.549203 
L 130.056676 62.124906 
L 130.438494 62.504655 
L 130.820312 62.602082 
L 131.202131 62.420294 
L 131.583949 61.970925 
L 132.347585 60.355753 
L 133.111222 57.99733 
L 135.783949 48.800964 
L 136.547585 47.254572 
L 136.929403 46.800917 
L 137.311222 46.57165 
L 137.69304 46.564957 
L 138.074858 46.770847 
L 138.456676 47.17155 
L 139.220313 48.451702 
L 141.89304 53.980692 
L 142.274858 54.369134 
L 142.656676 54.559028 
L 143.038494 54.532003 
L 143.420313 54.277435 
L 143.802131 53.792886 
L 144.565767 52.165634 
L 145.329403 49.793094 
L 148.383949 38.865199 
L 149.147585 37.493884 
L 149.529403 37.199273 
L 149.911222 37.185514 
L 150.29304 37.457208 
L 150.674858 38.010271 
L 151.438494 39.90165 
L 152.202131 42.664255 
L 153.729403 49.539004 
L 154.874858 54.40272 
L 155.638494 56.856173 
L 156.402131 58.399 
L 156.783949 58.790889 
L 157.165767 58.926136 
L 157.547585 58.812586 
L 157.929403 58.466172 
L 158.69304 57.175004 
L 159.838494 54.267846 
L 161.365767 50.342542 
L 162.129403 49.076012 
L 162.511222 48.719971 
L 162.89304 48.570403 
L 163.274858 48.63368 
L 163.656676 48.907962 
L 164.038494 49.383247 
L 164.802131 50.858371 
L 165.947585 53.918816 
L 167.09304 57.030757 
L 167.856676 58.56278 
L 168.238494 59.052661 
L 168.620313 59.319793 
L 169.002131 59.343704 
L 169.383949 59.111704 
L 169.765767 58.619391 
L 170.529403 56.878735 
L 171.29304 54.253757 
L 172.438494 49.229764 
L 173.965767 42.378501 
L 174.729403 39.723142 
L 175.49304 37.982021 
L 175.874858 37.512902 
L 176.256676 37.326619 
L 176.638494 37.423835 
L 177.020312 37.796574 
L 177.402131 38.428522 
L 178.165767 40.366794 
L 179.311222 44.414529 
L 180.838494 50.082827 
L 181.602131 52.25855 
L 182.365767 53.657037 
L 182.747585 54.023702 
L 183.129403 54.162865 
L 183.511222 54.080547 
L 183.89304 53.790791 
L 184.656676 52.681687 
L 185.802131 50.193958 
L 186.947585 47.692844 
L 187.711222 46.561236 
L 188.09304 46.256932 
L 188.474858 46.158351 
L 188.856676 46.279944 
L 189.238494 46.628171 
L 189.620313 47.201212 
L 190.383949 48.973338 
L 191.147585 51.423143 
L 193.820312 60.836776 
L 194.583949 62.334758 
L 194.965767 62.708965 
L 195.347585 62.808565 
L 195.729403 62.625244 
L 196.111222 62.159314 
L 196.49304 61.419741 
L 197.256676 59.196967 
L 198.020312 56.185063 
L 200.69304 44.444714 
L 201.456676 42.217286 
L 201.838494 41.458699 
L 202.220312 40.956833 
L 202.602131 40.716193 
L 202.983949 40.732758 
L 203.365767 40.994199 
L 203.747585 41.480366 
L 204.511222 43.011937 
L 205.656676 46.142871 
L 206.802131 49.24549 
L 207.565767 50.758891 
L 207.947585 51.255319 
L 208.329403 51.551509 
L 208.711222 51.636998 
L 209.09304 51.509472 
L 209.474858 51.174838 
L 210.238494 49.947446 
L 211.002131 48.151746 
L 212.911222 43.18107 
L 213.674858 41.885112 
L 214.056676 41.532944 
L 214.438494 41.411795 
L 214.820312 41.537948 
L 215.202131 41.919625 
L 215.583949 42.556628 
L 216.347585 44.553561 
L 217.111222 47.363047 
L 220.165767 60.329971 
L 220.929403 62.225275 
L 221.311222 62.780978 
L 221.69304 63.055323 
L 222.074858 63.043877 
L 222.456676 62.750899 
L 222.838494 62.189169 
L 223.602131 60.350204 
L 224.365767 57.776081 
L 227.038494 47.974976 
L 227.802131 46.311657 
L 228.183949 45.809257 
L 228.565767 45.537548 
L 228.947585 45.494528 
L 229.329403 45.669995 
L 229.711222 46.045963 
L 230.474858 47.292894 
L 233.147585 52.865299 
L 233.529403 53.280575 
L 233.911222 53.502893 
L 234.29304 53.514084 
L 234.674858 53.303724 
L 235.056676 52.869548 
L 235.820312 51.362033 
L 236.583949 49.134738 
L 239.638494 38.997492 
L 240.020312 38.300456 
L 240.402131 37.849823 
L 240.783949 37.665625 
L 241.165767 37.759826 
L 241.547585 38.135885 
L 241.929403 38.788596 
L 242.69304 40.860875 
L 243.456676 43.773548 
L 246.511222 57.044421 
L 247.274858 59.013113 
L 247.656676 59.622536 
L 248.038494 59.968043 
L 248.420313 60.049795 
L 248.802131 59.876419 
L 249.183949 59.464648 
L 249.947585 58.029316 
L 251.09304 54.883126 
L 252.620313 50.62053 
L 253.383949 49.1841 
L 253.765767 48.743522 
L 254.147585 48.509838 
L 254.529403 48.489503 
L 254.911222 48.680749 
L 255.29304 49.073656 
L 256.056676 50.386448 
L 257.202131 53.212322 
L 258.347585 56.108318 
L 259.111222 57.513371 
L 259.49304 57.946762 
L 259.874858 58.163003 
L 260.256676 58.142343 
L 260.638494 57.87281 
L 261.020312 57.350695 
L 261.783949 55.576151 
L 262.547585 52.955042 
L 263.69304 48.013057 
L 265.220313 41.410982 
L 265.983949 38.932009 
L 266.747585 37.393143 
L 267.129403 37.032263 
L 267.511222 36.957455 
L 267.89304 37.168215 
L 268.274858 37.655394 
L 269.038494 39.38142 
L 269.802131 41.908451 
L 272.856676 53.214142 
L 273.620313 54.706938 
L 274.002131 55.11034 
L 274.383949 55.279579 
L 274.765767 55.220935 
L 275.147585 54.948727 
L 275.911222 53.857434 
L 277.056676 51.356696 
L 278.202131 48.798174 
L 278.965767 47.603778 
L 279.347585 47.260459 
L 279.729403 47.1176 
L 280.111222 47.189506 
L 280.49304 47.482501 
L 280.874858 47.99466 
L 281.638494 49.627867 
L 282.402131 51.916228 
L 284.69304 59.666972 
L 285.456676 61.382586 
L 285.838494 61.905826 
L 286.220313 62.172673 
L 286.602131 62.167604 
L 286.983949 61.883418 
L 287.365767 61.321529 
L 288.129403 59.413091 
L 288.89304 56.618929 
L 290.420313 49.59133 
L 291.565767 44.532661 
L 292.329403 41.931943 
L 293.09304 40.251986 
L 293.474858 39.802942 
L 293.856676 39.622304 
L 294.238494 39.705218 
L 294.620313 40.038499 
L 295.002131 40.601142 
L 295.765767 42.296271 
L 296.911222 45.687912 
L 298.056676 49.055539 
L 298.820312 50.742731 
L 299.583949 51.704797 
L 299.965767 51.873094 
L 300.347585 51.827002 
L 300.729403 51.572364 
L 301.111222 51.123024 
L 301.874858 49.732356 
L 303.402131 45.944404 
L 304.165767 44.208488 
L 304.929403 43.016077 
L 305.311222 42.707619 
L 305.69304 42.623936 
L 306.074858 42.780655 
L 306.456676 43.185357 
L 306.838494 43.83724 
L 307.602131 45.837372 
L 308.365767 48.611945 
L 311.420313 61.056472 
L 312.183949 62.744213 
L 312.565767 63.189382 
L 312.947585 63.350202 
L 313.329403 63.223424 
L 313.711222 62.814492 
L 314.09304 62.137362 
L 314.856676 60.073766 
L 316.002131 55.73187 
L 317.911222 48.133813 
L 318.674858 45.973419 
L 319.438494 44.675005 
L 319.820312 44.379562 
L 320.202131 44.319682 
L 320.583949 44.484828 
L 320.965767 44.856673 
L 321.729403 46.112625 
L 322.874858 48.736597 
L 324.020313 51.249532 
L 324.783949 52.334112 
L 325.165767 52.606612 
L 325.547585 52.67279 
L 325.929403 52.522315 
L 326.311222 52.152998 
L 327.074858 50.790251 
L 327.838494 48.727444 
L 330.511222 40.201578 
L 331.274858 38.800545 
L 331.656676 38.453687 
L 332.038494 38.370345 
L 332.420313 38.561404 
L 332.802131 39.029249 
L 333.183949 39.767634 
L 333.947585 41.989048 
L 334.711222 45.015644 
L 337.765767 58.321841 
L 338.529403 60.197478 
L 338.911222 60.747925 
L 339.29304 61.027243 
L 339.674858 61.03647 
L 340.056676 60.78514 
L 340.438494 60.290897 
L 341.202131 58.680624 
L 342.347585 55.259206 
L 343.874858 50.632461 
L 344.638494 49.022599 
L 345.020313 48.498243 
L 345.402131 48.182884 
L 345.783949 48.083041 
L 346.165767 48.196993 
L 346.547585 48.514867 
L 347.311222 49.684637 
L 348.456676 52.315523 
L 349.602131 55.045966 
L 350.365767 56.362325 
L 350.747585 56.759425 
L 351.129403 56.945518 
L 351.511222 56.901444 
L 351.89304 56.615816 
L 352.274858 56.085481 
L 353.038494 54.320102 
L 353.802131 51.744839 
L 355.329403 45.264689 
L 356.474858 40.655119 
L 357.238494 38.377057 
L 357.620313 37.585378 
L 358.002131 37.058876 
L 358.383949 36.813003 
L 358.765767 36.854747 
L 359.147585 37.182401 
L 359.529403 37.785626 
L 360.29304 39.73661 
L 361.056676 42.472081 
L 363.729403 53.231173 
L 364.49304 55.223126 
L 364.874858 55.883642 
L 365.256676 56.304374 
L 365.638494 56.483629 
L 366.020313 56.428074 
L 366.402131 56.152431 
L 367.165767 55.036316 
L 368.311222 52.458911 
L 369.456676 49.782773 
L 370.220313 48.489002 
L 370.602131 48.089783 
L 370.983949 47.886841 
L 371.365767 47.894435 
L 371.747585 48.118845 
L 372.129403 48.558122 
L 372.89304 50.032782 
L 373.656676 52.146313 
L 375.947585 59.302558 
L 376.711222 60.813478 
L 377.09304 61.237046 
L 377.474858 61.407355 
L 377.856676 61.309923 
L 378.238494 60.938588 
L 378.620313 60.295777 
L 379.383949 58.247972 
L 380.147585 55.349937 
L 383.583949 40.718635 
L 384.347585 39.160229 
L 384.729403 38.783213 
L 385.111222 38.6809 
L 385.49304 38.847485 
L 385.874858 39.26882 
L 386.638494 40.780887 
L 387.402131 42.963534 
L 389.69304 50.144994 
L 390.456676 51.66059 
L 390.838494 52.12111 
L 391.220313 52.366675 
L 391.602131 52.394868 
L 391.983949 52.211515 
L 392.365767 51.830439 
L 393.129403 50.56706 
L 394.274858 47.917404 
L 395.420313 45.340376 
L 396.183949 44.210814 
L 396.565767 43.925008 
L 396.947585 43.857436 
L 397.329403 44.0232 
L 397.711222 44.429377 
L 398.09304 45.074697 
L 398.856676 47.036013 
L 399.620313 49.735721 
L 402.29304 60.448728 
L 403.056676 62.398567 
L 403.438494 63.00276 
L 403.820312 63.332007 
L 404.202131 63.375637 
L 404.583949 63.131602 
L 404.965767 62.606549 
L 405.729403 60.781895 
L 406.49304 58.113769 
L 409.547585 45.788647 
L 410.311222 43.994538 
L 410.69304 43.450331 
L 411.074858 43.151715 
L 411.456676 43.095949 
L 411.838494 43.272033 
L 412.220313 43.661163 
L 412.983949 44.968871 
L 414.129403 47.707283 
L 415.274858 50.371588 
L 416.038494 51.575409 
L 416.420313 51.912857 
L 416.802131 52.04753 
L 417.183949 51.969102 
L 417.565767 51.675386 
L 417.947585 51.172434 
L 418.711222 49.602887 
L 419.856676 46.262452 
L 421.383949 41.635942 
L 422.147585 40.027648 
L 422.529403 39.531312 
L 422.911222 39.27619 
L 423.29304 39.280249 
L 423.674858 39.553375 
L 424.056676 40.096975 
L 424.820312 41.958431 
L 425.583949 44.709057 
L 426.729403 49.889275 
L 428.256676 56.84152 
L 429.020313 59.507518 
L 429.783949 61.250602 
L 430.165767 61.723558 
L 430.547585 61.919155 
L 430.929403 61.83942 
L 431.311222 61.494895 
L 431.69304 60.90423 
L 432.456676 59.095325 
L 433.220313 56.692539 
L 433.220313 56.692539 
" clip-path="url(#pb9d4c0cf89)" style="fill: none; stroke: #1f77b4; stroke-width: 1.5; stroke-linecap: square"/>
   </g>
   <g id="line2d_10">
    <path d="M 42.620312 50.097401 
L 44.147585 42.484477 
L 44.911222 39.639838 
L 45.674858 37.812807 
L 46.056676 37.327352 
L 46.438494 37.134418 
L 46.820312 37.228038 
L 47.202131 37.593455 
L 47.583949 38.207684 
L 48.347585 40.054803 
L 49.49304 43.75566 
L 50.638494 47.463833 
L 51.402131 49.364391 
L 52.165767 50.514976 
L 52.547585 50.76664 
L 52.929403 50.79672 
L 53.311222 50.611656 
L 53.69304 50.226282 
L 54.456676 48.952338 
L 55.983949 45.403825 
L 56.747585 43.821218 
L 57.511222 42.821215 
L 57.89304 42.625849 
L 58.274858 42.666884 
L 58.656676 42.959659 
L 59.038494 43.511001 
L 59.802131 45.372473 
L 60.565767 48.130704 
L 61.711222 53.381829 
L 63.238494 60.532339 
L 64.002131 63.290849 
L 64.765767 65.071399 
L 65.147585 65.528999 
L 65.529403 65.679609 
L 65.911222 65.520621 
L 66.29304 65.058613 
L 66.674858 64.309118 
L 67.438494 62.051162 
L 68.583949 57.331642 
L 70.49304 49.056227 
L 71.256676 46.661291 
L 72.020313 45.16434 
L 72.402131 44.783557 
L 72.783949 44.646956 
L 73.165767 44.74299 
L 73.547585 45.051966 
L 74.311222 46.194074 
L 75.456676 48.647335 
L 76.602131 50.94292 
L 77.365767 51.837206 
L 77.747585 51.998884 
L 78.129403 51.9439 
L 78.511222 51.662591 
L 78.89304 51.153905 
L 79.656676 49.493537 
L 80.420312 47.122872 
L 83.09304 37.763074 
L 83.856676 36.280912 
L 84.238494 35.928801 
L 84.620312 35.864564 
L 85.002131 36.09904 
L 85.383949 36.634048 
L 85.765767 37.462265 
L 86.529403 39.924732 
L 87.29304 43.259337 
L 90.347585 58.020581 
L 91.111222 60.215014 
L 91.49304 60.909482 
L 91.874858 61.322137 
L 92.256676 61.45424 
L 92.638494 61.31595 
L 93.020313 60.925897 
L 93.783949 59.502845 
L 94.929403 56.334077 
L 96.456676 52.060193 
L 97.220313 50.653476 
L 97.602131 50.238234 
L 97.983949 50.036209 
L 98.365767 50.052767 
L 98.747585 50.284614 
L 99.129403 50.719925 
L 99.89304 52.113798 
L 101.038494 55.013333 
L 102.183949 57.864543 
L 102.947585 59.147386 
L 103.329403 59.488631 
L 103.711222 59.591723 
L 104.09304 59.437363 
L 104.474858 59.014578 
L 104.856676 58.321187 
L 105.620312 56.158552 
L 106.383949 53.106838 
L 107.911222 45.536238 
L 109.056676 40.099503 
L 109.820312 37.31482 
L 110.583949 35.548973 
L 110.965767 35.105413 
L 111.347585 34.968095 
L 111.729403 35.135612 
L 112.111222 35.597472 
L 112.49304 36.334476 
L 113.256676 38.517895 
L 114.402131 42.970875 
L 115.929403 49.124928 
L 116.69304 51.484551 
L 117.456676 53.021444 
L 117.838494 53.441885 
L 118.220313 53.626406 
L 118.602131 53.582954 
L 118.983949 53.327813 
L 119.747585 52.28524 
L 120.89304 49.929528 
L 122.038494 47.65306 
L 122.802131 46.740902 
L 123.183949 46.567971 
L 123.565767 46.614209 
L 123.947585 46.892628 
L 124.329403 47.407718 
L 125.09304 49.122195 
L 125.856676 51.621819 
L 127.383949 57.862795 
L 128.529403 62.179477 
L 129.29304 64.186572 
L 129.674858 64.816354 
L 130.056676 65.162305 
L 130.438494 65.208644 
L 130.820312 64.948483 
L 131.202131 64.38409 
L 131.965767 62.39693 
L 132.729403 59.439549 
L 133.874858 53.876582 
L 135.402131 46.418346 
L 136.165767 43.525651 
L 136.929403 41.564018 
L 137.311222 40.978558 
L 137.69304 40.663904 
L 138.074858 40.614322 
L 138.456676 40.815435 
L 138.838494 41.244808 
L 139.602131 42.663626 
L 141.129403 46.602394 
L 141.89304 48.407728 
L 142.656676 49.672315 
L 143.038494 50.028191 
L 143.420313 50.17487 
L 143.802131 50.103905 
L 144.183949 49.815467 
L 144.565767 49.318353 
L 145.329403 47.774371 
L 146.474858 44.554068 
L 147.620313 41.25285 
L 148.383949 39.613099 
L 148.765767 39.084196 
L 149.147585 38.792098 
L 149.529403 38.76019 
L 149.911222 39.003787 
L 150.29304 39.529522 
L 150.674858 40.335043 
L 151.438494 42.731325 
L 152.202131 46.001077 
L 155.256676 60.841343 
L 156.020312 63.098163 
L 156.402131 63.810555 
L 156.783949 64.225719 
L 157.165767 64.33998 
L 157.547585 64.158798 
L 157.929403 63.696521 
L 158.69304 62.027049 
L 159.456676 59.597232 
L 161.747585 51.348404 
L 162.511222 49.452422 
L 162.89304 48.810433 
L 163.274858 48.392265 
L 163.656676 48.202099 
L 164.038494 48.235412 
L 164.420313 48.479189 
L 165.183949 49.506976 
L 166.329403 51.891632 
L 167.474858 54.275553 
L 168.238494 55.290401 
L 168.620313 55.517056 
L 169.002131 55.521957 
L 169.383949 55.288593 
L 169.765767 54.808828 
L 170.529403 53.121338 
L 171.29304 50.56844 
L 172.438494 45.659937 
L 173.965767 38.986284 
L 174.729403 36.463732 
L 175.49304 34.915821 
L 175.874858 34.57365 
L 176.256676 34.538224 
L 176.638494 34.812458 
L 177.020312 35.390073 
L 177.783949 37.385832 
L 178.547585 40.306087 
L 180.074858 47.556434 
L 181.220312 52.677251 
L 181.983949 55.272179 
L 182.747585 56.935436 
L 183.129403 57.383093 
L 183.511222 57.573866 
L 183.89304 57.518042 
L 184.274858 57.234204 
L 185.038494 56.093702 
L 186.183949 53.514429 
L 187.329403 50.942499 
L 188.09304 49.791617 
L 188.474858 49.484069 
L 188.856676 49.383743 
L 189.238494 49.502166 
L 189.620313 49.842329 
L 190.002131 50.398543 
L 190.765767 52.094235 
L 191.911222 55.657962 
L 193.438494 60.565017 
L 194.202131 62.260877 
L 194.583949 62.778834 
L 194.965767 63.037845 
L 195.347585 63.018132 
L 195.729403 62.7084 
L 196.111222 62.106295 
L 196.874858 60.060854 
L 197.638494 57.040088 
L 198.783949 51.319026 
L 200.311222 43.500529 
L 201.074858 40.395896 
L 201.838494 38.243579 
L 202.220312 37.583517 
L 202.602131 37.215208 
L 202.983949 37.138114 
L 203.365767 37.3427 
L 203.747585 37.810835 
L 204.511222 39.42656 
L 205.656676 42.974449 
L 207.183949 47.893979 
L 207.947585 49.660193 
L 208.329403 50.25818 
L 208.711222 50.642284 
L 209.09304 50.805094 
L 209.474858 50.747864 
L 209.856676 50.480441 
L 210.620313 49.394777 
L 211.383949 47.777306 
L 212.911222 44.249079 
L 213.674858 43.042547 
L 214.056676 42.716019 
L 214.438494 42.612851 
L 214.820312 42.753208 
L 215.202131 43.149081 
L 215.583949 43.803786 
L 216.347585 45.858607 
L 217.111222 48.770163 
L 218.638494 55.998702 
L 219.783949 61.148884 
L 220.547585 63.733244 
L 221.311222 65.290729 
L 221.69304 65.626434 
L 222.074858 65.653002 
L 222.456676 65.371507 
L 222.838494 64.792153 
L 223.602131 62.823954 
L 224.365767 59.992337 
L 227.420313 47.292776 
L 228.183949 45.511596 
L 228.565767 44.982341 
L 228.947585 44.700072 
L 229.329403 44.65838 
L 229.711222 44.842388 
L 230.09304 45.229342 
L 230.856676 46.487156 
L 233.147585 51.175339 
L 233.529403 51.643315 
L 233.911222 51.92691 
L 234.29304 52.003621 
L 234.674858 51.85879 
L 235.056676 51.486167 
L 235.438494 50.88819 
L 236.202131 49.068918 
L 236.965767 46.585957 
L 239.256676 38.381756 
L 240.020312 36.622608 
L 240.402131 36.106581 
L 240.783949 35.867755 
L 241.165767 35.922202 
L 241.547585 36.277185 
L 241.929403 36.930864 
L 242.69304 39.081734 
L 243.456676 42.185517 
L 244.983949 49.955812 
L 246.129403 55.589043 
L 246.89304 58.540418 
L 247.656676 60.526323 
L 248.038494 61.108493 
L 248.420313 61.408272 
L 248.802131 61.430511 
L 249.183949 61.188827 
L 249.565767 60.705054 
L 250.329403 59.134507 
L 251.474858 55.87194 
L 252.620313 52.608806 
L 253.383949 50.999546 
L 253.765767 50.462494 
L 254.147585 50.131344 
L 254.529403 50.016593 
L 254.911222 50.120146 
L 255.29304 50.435264 
L 256.056676 51.631795 
L 256.820312 53.395898 
L 258.729403 58.17563 
L 259.49304 59.310901 
L 259.874858 59.559706 
L 260.256676 59.561681 
L 260.638494 59.300782 
L 261.020312 58.769515 
L 261.402131 57.969281 
L 262.165767 55.611996 
L 262.929403 52.412509 
L 265.983949 38.054219 
L 266.747585 35.959253 
L 267.129403 35.335092 
L 267.511222 35.013609 
L 267.89304 34.998908 
L 268.274858 35.285921 
L 268.656676 35.86061 
L 269.420313 37.775301 
L 270.183949 40.477046 
L 272.856676 50.854607 
L 273.620313 52.655885 
L 274.002131 53.218079 
L 274.383949 53.543751 
L 274.765767 53.635651 
L 275.147585 53.50512 
L 275.529403 53.171618 
L 276.29304 52.009421 
L 278.965767 46.941434 
L 279.347585 46.646602 
L 279.729403 46.559252 
L 280.111222 46.697269 
L 280.49304 47.070305 
L 280.874858 47.679363 
L 281.638494 49.565938 
L 282.402131 52.195202 
L 285.074858 62.651582 
L 285.838494 64.471179 
L 286.220313 64.989872 
L 286.602131 65.217383 
L 286.983949 65.141439 
L 287.365767 64.758798 
L 287.747585 64.075398 
L 288.511222 61.874699 
L 289.274858 58.757007 
L 292.711222 43.052706 
L 293.474858 41.297341 
L 293.856676 40.820323 
L 294.238494 40.612879 
L 294.620313 40.665767 
L 295.002131 40.961303 
L 295.765767 42.171766 
L 296.529403 43.966405 
L 298.438494 48.712529 
L 299.202131 49.838877 
L 299.583949 50.11263 
L 299.965767 50.172787 
L 300.347585 50.014326 
L 300.729403 49.640885 
L 301.49304 48.305928 
L 302.256676 46.358587 
L 304.165767 40.873217 
L 304.929403 39.37493 
L 305.311222 38.937459 
L 305.69304 38.747066 
L 306.074858 38.823998 
L 306.456676 39.180153 
L 306.838494 39.818592 
L 307.602131 41.909528 
L 308.365767 44.944772 
L 309.511222 50.641086 
L 311.038494 58.35461 
L 311.802131 61.375166 
L 312.565767 63.418172 
L 312.947585 64.012699 
L 313.329403 64.307429 
L 313.711222 64.302352 
L 314.09304 64.006527 
L 314.474858 63.437726 
L 315.238494 61.59169 
L 316.383949 57.628298 
L 317.911222 52.053757 
L 318.674858 49.940072 
L 319.438494 48.615877 
L 319.820312 48.288897 
L 320.202131 48.18915 
L 320.583949 48.308671 
L 320.965767 48.63118 
L 321.729403 49.782437 
L 322.874858 52.235827 
L 324.020313 54.529563 
L 324.783949 55.406286 
L 325.165767 55.546732 
L 325.547585 55.457851 
L 325.929403 55.126419 
L 326.311222 54.547769 
L 327.074858 52.674136 
L 327.838494 49.9728 
L 329.365767 43.209535 
L 330.511222 38.417201 
L 331.274858 36.068111 
L 331.656676 35.263738 
L 332.038494 34.742711 
L 332.420313 34.522301 
L 332.802131 34.610905 
L 333.183949 35.007756 
L 333.565767 35.702937 
L 334.329403 37.905035 
L 335.09304 40.973898 
L 338.147585 54.5837 
L 338.911222 56.542523 
L 339.29304 57.145623 
L 339.674858 57.489845 
L 340.056676 57.580267 
L 340.438494 57.430564 
L 340.820312 57.062451 
L 341.583949 55.792818 
L 344.256676 50.067765 
L 344.638494 49.644813 
L 345.020313 49.418239 
L 345.402131 49.404501 
L 345.783949 49.611747 
L 346.165767 50.039496 
L 346.929403 51.51161 
L 347.69304 53.650991 
L 349.983949 60.964826 
L 350.747585 62.497534 
L 351.129403 62.914802 
L 351.511222 63.064235 
L 351.89304 62.929376 
L 352.274858 62.502469 
L 352.656676 61.784793 
L 353.420313 59.527334 
L 354.183949 56.341774 
L 355.711222 48.470516 
L 356.856676 42.815919 
L 357.620313 39.881854 
L 358.383949 37.944888 
L 358.765767 37.401009 
L 359.147585 37.14976 
L 359.529403 37.186975 
L 359.911222 37.499618 
L 360.29304 38.066293 
L 361.056676 39.839312 
L 362.202131 43.494754 
L 363.347585 47.240844 
L 364.111222 49.204999 
L 364.874858 50.438096 
L 365.256676 50.734088 
L 365.638494 50.808245 
L 366.020313 50.665285 
L 366.402131 50.3184 
L 367.165767 49.104725 
L 368.311222 46.495249 
L 369.456676 43.958372 
L 370.220313 42.886742 
L 370.602131 42.646645 
L 370.983949 42.638909 
L 371.365767 42.880511 
L 371.747585 43.380016 
L 372.129403 44.137191 
L 372.89304 46.379406 
L 373.656676 49.433416 
L 376.711222 63.054714 
L 377.474858 64.943915 
L 377.856676 65.461793 
L 378.238494 65.674304 
L 378.620313 65.577002 
L 379.002131 65.174636 
L 379.383949 64.480982 
L 380.147585 62.316957 
L 380.911222 59.351094 
L 383.583949 48.001374 
L 384.347585 45.947082 
L 384.729403 45.270209 
L 385.111222 44.839959 
L 385.49304 44.655175 
L 385.874858 44.706005 
L 386.256676 44.974336 
L 387.020313 46.054217 
L 388.165767 48.475437 
L 389.311222 50.818065 
L 390.074858 51.780306 
L 390.456676 51.983424 
L 390.838494 51.972816 
L 391.220313 51.737135 
L 391.602131 51.273589 
L 392.365767 49.695163 
L 393.129403 47.384848 
L 395.802131 37.96142 
L 396.565767 36.384312 
L 396.947585 35.976695 
L 397.329403 35.853733 
L 397.711222 36.028029 
L 398.09304 36.503224 
L 398.474858 37.27382 
L 399.238494 39.634549 
L 400.002131 42.895452 
L 403.056676 57.74657 
L 403.820312 60.042829 
L 404.202131 60.793015 
L 404.583949 61.262221 
L 404.965767 61.449901 
L 405.347585 61.364462 
L 405.729403 61.022887 
L 406.49304 59.677954 
L 407.256676 57.691272 
L 409.165767 52.237467 
L 409.929403 50.761037 
L 410.311222 50.304548 
L 410.69304 50.059174 
L 411.074858 50.032002 
L 411.456676 50.221469 
L 411.838494 50.617431 
L 412.602131 51.947834 
L 413.747585 54.807996 
L 414.89304 57.700479 
L 415.656676 59.052801 
L 416.038494 59.438677 
L 416.420313 59.591199 
L 416.802131 59.489483 
L 417.183949 59.120843 
L 417.565767 58.481317 
L 418.329403 56.418456 
L 419.09304 53.4449 
L 420.238494 47.888251 
L 421.765767 40.423852 
L 422.529403 37.55132 
L 423.29304 35.673911 
L 423.674858 35.169742 
L 424.056676 34.970994 
L 424.438494 35.078097 
L 424.820312 35.482353 
L 425.202131 36.166262 
L 425.965767 38.262966 
L 427.111222 42.650618 
L 428.638494 48.851789 
L 429.402131 51.282653 
L 430.165767 52.908957 
L 430.547585 53.376773 
L 430.929403 53.608118 
L 431.311222 53.609216 
L 431.69304 53.394729 
L 432.074858 52.987171 
L 432.838494 51.71683 
L 433.220313 50.929535 
L 433.220313 50.929535 
" clip-path="url(#pb9d4c0cf89)" style="fill: none; stroke: #ff7f0e; stroke-width: 1.5; stroke-linecap: square"/>
   </g>
   <g id="patch_3">
    <path d="M 42.620312 89.195582 
L 42.620312 10.999219 
" style="fill: none; stroke: #000000; stroke-width: 0.8; stroke-linejoin: miter; stroke-linecap: square"/>
   </g>
   <g id="patch_4">
    <path d="M 433.220313 89.195582 
L 433.220313 10.999219 
" style="fill: none; stroke: #000000; stroke-width: 0.8; stroke-linejoin: miter; stroke-linecap: square"/>
   </g>
   <g id="patch_5">
    <path d="M 42.620312 89.195582 
L 433.220313 89.195582 
" style="fill: none; stroke: #000000; stroke-width: 0.8; stroke-linejoin: miter; stroke-linecap: square"/>
   </g>
   <g id="patch_6">
    <path d="M 42.620312 10.999219 
L 433.220313 10.999219 
" style="fill: none; stroke: #000000; stroke-width: 0.8; stroke-linejoin: miter; stroke-linecap: square"/>
   </g>
   <g id="legend_1">
    <g id="patch_7">
     <path d="M 365.840625 48.355469 
L 426.220313 48.355469 
Q 428.220313 48.355469 428.220313 46.355469 
L 428.220313 17.999219 
Q 428.220313 15.999219 426.220313 15.999219 
L 365.840625 15.999219 
Q 363.840625 15.999219 363.840625 17.999219 
L 363.840625 46.355469 
Q 363.840625 48.355469 365.840625 48.355469 
z
" style="fill: #ffffff; opacity: 0.8; stroke: #cccccc; stroke-linejoin: miter"/>
    </g>
    <g id="line2d_11">
     <path d="M 367.840625 24.097656 
L 377.840625 24.097656 
L 387.840625 24.097656 
" style="fill: none; stroke: #1f77b4; stroke-width: 1.5; stroke-linecap: square"/>
    </g>
    <g id="text_11">
     <!-- Noisy -->
     <g transform="translate(395.840625 27.597656) scale(0.1 -0.1)">
      <defs>
       <path id="DejaVuSans-4e" d="M 628 4666 
L 1478 4666 
L 3547 763 
L 3547 4666 
L 4159 4666 
L 4159 0 
L 3309 0 
L 1241 3903 
L 1241 0 
L 628 0 
L 628 4666 
z
" transform="scale(0.015625)"/>
       <path id="DejaVuSans-6f" d="M 1959 3097 
Q 1497 3097 1228 2736 
Q 959 2375 959 1747 
Q 959 1119 1226 758 
Q 1494 397 1959 397 
Q 2419 397 2687 759 
Q 2956 1122 2956 1747 
Q 2956 2369 2687 2733 
Q 2419 3097 1959 3097 
z
M 1959 3584 
Q 2709 3584 3137 3096 
Q 3566 2609 3566 1747 
Q 3566 888 3137 398 
Q 2709 -91 1959 -91 
Q 1206 -91 779 398 
Q 353 888 353 1747 
Q 353 2609 779 3096 
Q 1206 3584 1959 3584 
z
" transform="scale(0.015625)"/>
       <path id="DejaVuSans-79" d="M 2059 -325 
Q 1816 -950 1584 -1140 
Q 1353 -1331 966 -1331 
L 506 -1331 
L 506 -850 
L 844 -850 
Q 1081 -850 1212 -737 
Q 1344 -625 1503 -206 
L 1606 56 
L 191 3500 
L 800 3500 
L 1894 763 
L 2988 3500 
L 3597 3500 
L 2059 -325 
z
" transform="scale(0.015625)"/>
      </defs>
      <use xlink:href="#DejaVuSans-4e"/>
      <use xlink:href="#DejaVuSans-6f" transform="translate(74.804688 0)"/>
      <use xlink:href="#DejaVuSans-69" transform="translate(135.986328 0)"/>
      <use xlink:href="#DejaVuSans-73" transform="translate(163.769531 0)"/>
      <use xlink:href="#DejaVuSans-79" transform="translate(215.869141 0)"/>
     </g>
    </g>
    <g id="line2d_12">
     <path d="M 367.840625 38.775781 
L 377.840625 38.775781 
L 387.840625 38.775781 
" style="fill: none; stroke: #ff7f0e; stroke-width: 1.5; stroke-linecap: square"/>
    </g>
    <g id="text_12">
     <!-- Clean -->
     <g transform="translate(395.840625 42.275781) scale(0.1 -0.1)">
      <defs>
       <path id="DejaVuSans-43" d="M 4122 4306 
L 4122 3641 
Q 3803 3938 3442 4084 
Q 3081 4231 2675 4231 
Q 1875 4231 1450 3742 
Q 1025 3253 1025 2328 
Q 1025 1406 1450 917 
Q 1875 428 2675 428 
Q 3081 428 3442 575 
Q 3803 722 4122 1019 
L 4122 359 
Q 3791 134 3420 21 
Q 3050 -91 2638 -91 
Q 1578 -91 968 557 
Q 359 1206 359 2328 
Q 359 3453 968 4101 
Q 1578 4750 2638 4750 
Q 3056 4750 3426 4639 
Q 3797 4528 4122 4306 
z
" transform="scale(0.015625)"/>
       <path id="DejaVuSans-6c" d="M 603 4863 
L 1178 4863 
L 1178 0 
L 603 0 
L 603 4863 
z
" transform="scale(0.015625)"/>
       <path id="DejaVuSans-61" d="M 2194 1759 
Q 1497 1759 1228 1600 
Q 959 1441 959 1056 
Q 959 750 1161 570 
Q 1363 391 1709 391 
Q 2188 391 2477 730 
Q 2766 1069 2766 1631 
L 2766 1759 
L 2194 1759 
z
M 3341 1997 
L 3341 0 
L 2766 0 
L 2766 531 
Q 2569 213 2275 61 
Q 1981 -91 1556 -91 
Q 1019 -91 701 211 
Q 384 513 384 1019 
Q 384 1609 779 1909 
Q 1175 2209 1959 2209 
L 2766 2209 
L 2766 2266 
Q 2766 2663 2505 2880 
Q 2244 3097 1772 3097 
Q 1472 3097 1187 3025 
Q 903 2953 641 2809 
L 641 3341 
Q 956 3463 1253 3523 
Q 1550 3584 1831 3584 
Q 2591 3584 2966 3190 
Q 3341 2797 3341 1997 
z
" transform="scale(0.015625)"/>
       <path id="DejaVuSans-6e" d="M 3513 2113 
L 3513 0 
L 2938 0 
L 2938 2094 
Q 2938 2591 2744 2837 
Q 2550 3084 2163 3084 
Q 1697 3084 1428 2787 
Q 1159 2491 1159 1978 
L 1159 0 
L 581 0 
L 581 3500 
L 1159 3500 
L 1159 2956 
Q 1366 3272 1645 3428 
Q 1925 3584 2291 3584 
Q 2894 3584 3203 3211 
Q 3513 2838 3513 2113 
z
" transform="scale(0.015625)"/>
      </defs>
      <use xlink:href="#DejaVuSans-43"/>
      <use xlink:href="#DejaVuSans-6c" transform="translate(69.824219 0)"/>
      <use xlink:href="#DejaVuSans-65" transform="translate(97.607422 0)"/>
      <use xlink:href="#DejaVuSans-61" transform="translate(159.130859 0)"/>
      <use xlink:href="#DejaVuSans-6e" transform="translate(220.410156 0)"/>
     </g>
    </g>
   </g>
  </g>
 </g>
 <defs>
  <clipPath id="pb9d4c0cf89">
   <rect x="42.620312" y="10.999219" width="390.6" height="78.196364"/>
  </clipPath>
 </defs>
</svg>
