<?xml version="1.0" encoding="utf-8" standalone="no"?>
<!DOCTYPE svg PUBLIC "-//W3C//DTD SVG 1.1//EN"
  "http://www.w3.org/Graphics/SVG/1.1/DTD/svg11.dtd">
<svg xmlns:xlink="http://www.w3.org/1999/xlink" width="305.878463pt" height="297.04902pt" viewBox="0 0 305.878463 297.04902" xmlns="http://www.w3.org/2000/svg" version="1.1">
 <metadata>
  <rdf:RDF xmlns:dc="http://purl.org/dc/elements/1.1/" xmlns:cc="http://creativecommons.org/ns#" xmlns:rdf="http://www.w3.org/1999/02/22-rdf-syntax-ns#">
   <cc:Work>
    <dc:type rdf:resource="http://purl.org/dc/dcmitype/StillImage"/>
    <dc:date>2024-11-17T16:46:05.496705</dc:date>
    <dc:format>image/svg+xml</dc:format>
    <dc:creator>
     <cc:Agent>
      <dc:title>Matplotlib v3.9.2, https://matplotlib.org/</dc:title>
     </cc:Agent>
    </dc:creator>
   </cc:Work>
  </rdf:RDF>
 </metadata>
 <defs>
  <style type="text/css">*{stroke-linejoin: round; stroke-linecap: butt}</style>
 </defs>
 <g id="figure_1">
  <g id="patch_1">
   <path d="M 0 297.04902 
L 305.878463 297.04902 
L 305.878463 0 
L 0 0 
z
" style="fill: #ffffff"/>
  </g>
  <g id="patch_2">
   <path d="M 7.2 284.4 
L 284.4 284.4 
L 284.4 7.2 
L 7.2 7.2 
z
" style="fill: #ffffff"/>
  </g>
  <g id="pane3d_1">
   <g id="patch_3">
    <path d="M 28.130512 216.051364 
L 119.671005 139.320307 
L 118.398504 28.660407 
L 22.477327 98.659314 
" style="fill: #f2f2f2; opacity: 0.5; stroke: #f2f2f2; stroke-linejoin: miter"/>
   </g>
  </g>
  <g id="pane3d_2">
   <g id="patch_4">
    <path d="M 119.671005 139.320307 
L 266.560834 182.015381 
L 271.802814 67.543928 
L 118.398504 28.660407 
" style="fill: #e6e6e6; opacity: 0.5; stroke: #e6e6e6; stroke-linejoin: miter"/>
   </g>
  </g>
  <g id="pane3d_3">
   <g id="patch_5">
    <path d="M 28.130512 216.051364 
L 183.840905 266.906378 
L 266.560834 182.015381 
L 119.671005 139.320307 
" style="fill: #ececec; opacity: 0.5; stroke: #ececec; stroke-linejoin: miter"/>
   </g>
  </g>
  <g id="grid3d_1">
   <g id="Line3DCollection_1">
    <path d="M 37.56115 219.13141 
L 128.604394 141.916891 
L 127.709604 31.0205 
" style="fill: none; stroke: #b0b0b0; stroke-width: 0.8"/>
    <path d="M 53.889117 224.464124 
L 144.060124 146.409261 
L 143.824456 35.105145 
" style="fill: none; stroke: #b0b0b0; stroke-width: 0.8"/>
    <path d="M 70.40297 229.857548 
L 159.677238 150.94854 
L 160.114843 39.234283 
" style="fill: none; stroke: #b0b0b0; stroke-width: 0.8"/>
    <path d="M 87.105901 235.312726 
L 175.45828 155.535466 
L 176.583651 43.408646 
" style="fill: none; stroke: #b0b0b0; stroke-width: 0.8"/>
    <path d="M 104.001178 240.830723 
L 191.405842 160.170792 
L 193.233825 47.62898 
" style="fill: none; stroke: #b0b0b0; stroke-width: 0.8"/>
    <path d="M 121.092142 246.412632 
L 207.522575 164.85529 
L 210.06838 51.896049 
" style="fill: none; stroke: #b0b0b0; stroke-width: 0.8"/>
    <path d="M 138.382212 252.059569 
L 223.811186 169.589746 
L 227.090394 56.210633 
" style="fill: none; stroke: #b0b0b0; stroke-width: 0.8"/>
    <path d="M 155.874889 257.772677 
L 240.274437 174.374964 
L 244.303016 60.573531 
" style="fill: none; stroke: #b0b0b0; stroke-width: 0.8"/>
    <path d="M 173.573753 263.553126 
L 256.915154 179.211763 
L 261.709466 64.985558 
" style="fill: none; stroke: #b0b0b0; stroke-width: 0.8"/>
   </g>
  </g>
  <g id="grid3d_2">
   <g id="Line3DCollection_2">
    <path d="M 29.110514 93.818716 
L 34.438425 210.763945 
L 189.564484 261.032578 
" style="fill: none; stroke: #b0b0b0; stroke-width: 0.8"/>
    <path d="M 48.852415 79.411975 
L 53.231823 195.010947 
L 206.596287 243.553759 
" style="fill: none; stroke: #b0b0b0; stroke-width: 0.8"/>
    <path d="M 67.910016 65.504606 
L 71.401658 179.780631 
L 223.033617 226.685014 
" style="fill: none; stroke: #b0b0b0; stroke-width: 0.8"/>
    <path d="M 86.318287 52.071088 
L 88.978459 165.047407 
L 238.907065 210.394951 
" style="fill: none; stroke: #b0b0b0; stroke-width: 0.8"/>
    <path d="M 104.109861 39.087608 
L 105.990794 150.787331 
L 254.245157 194.654295 
" style="fill: none; stroke: #b0b0b0; stroke-width: 0.8"/>
   </g>
  </g>
  <g id="grid3d_3">
   <g id="Line3DCollection_3">
    <path d="M 266.661265 179.822224 
L 119.646574 137.195781 
L 28.022381 213.805967 
" style="fill: none; stroke: #b0b0b0; stroke-width: 0.8"/>
    <path d="M 267.634242 158.574887 
L 119.409995 116.622246 
L 26.974452 192.04503 
" style="fill: none; stroke: #b0b0b0; stroke-width: 0.8"/>
    <path d="M 268.623522 136.971554 
L 119.169642 95.720538 
L 25.908292 169.905529 
" style="fill: none; stroke: #b0b0b0; stroke-width: 0.8"/>
    <path d="M 269.629516 115.0032 
L 118.925424 74.482741 
L 24.823422 147.377497 
" style="fill: none; stroke: #b0b0b0; stroke-width: 0.8"/>
    <path d="M 270.652654 92.660497 
L 118.677248 52.900683 
L 23.719344 124.450617 
" style="fill: none; stroke: #b0b0b0; stroke-width: 0.8"/>
    <path d="M 271.693375 69.933792 
L 118.425016 30.965926 
L 22.595545 101.114202 
" style="fill: none; stroke: #b0b0b0; stroke-width: 0.8"/>
   </g>
  </g>
  <g id="axis3d_1">
   <g id="line2d_1">
    <path d="M 28.130512 216.051364 
L 183.840905 266.906378 
" style="fill: none; stroke: #000000; stroke-width: 0.8; stroke-linecap: square"/>
   </g>
   <g id="xtick_1">
    <g id="line2d_2">
     <path d="M 38.35395 218.45903 
L 35.972149 220.479055 
" style="fill: none; stroke: #000000; stroke-width: 0.8; stroke-linecap: square"/>
    </g>
    <g id="text_1">
     <!-- −20 -->
     <g transform="translate(19.480876 242.438223) scale(0.1 -0.1)">
      <defs>
       <path id="DejaVuSans-2212" d="M 678 2272 
L 4684 2272 
L 4684 1741 
L 678 1741 
L 678 2272 
z
" transform="scale(0.015625)"/>
       <path id="DejaVuSans-32" d="M 1228 531 
L 3431 531 
L 3431 0 
L 469 0 
L 469 531 
Q 828 903 1448 1529 
Q 2069 2156 2228 2338 
Q 2531 2678 2651 2914 
Q 2772 3150 2772 3378 
Q 2772 3750 2511 3984 
Q 2250 4219 1831 4219 
Q 1534 4219 1204 4116 
Q 875 4013 500 3803 
L 500 4441 
Q 881 4594 1212 4672 
Q 1544 4750 1819 4750 
Q 2544 4750 2975 4387 
Q 3406 4025 3406 3419 
Q 3406 3131 3298 2873 
Q 3191 2616 2906 2266 
Q 2828 2175 2409 1742 
Q 1991 1309 1228 531 
z
" transform="scale(0.015625)"/>
       <path id="DejaVuSans-30" d="M 2034 4250 
Q 1547 4250 1301 3770 
Q 1056 3291 1056 2328 
Q 1056 1369 1301 889 
Q 1547 409 2034 409 
Q 2525 409 2770 889 
Q 3016 1369 3016 2328 
Q 3016 3291 2770 3770 
Q 2525 4250 2034 4250 
z
M 2034 4750 
Q 2819 4750 3233 4129 
Q 3647 3509 3647 2328 
Q 3647 1150 3233 529 
Q 2819 -91 2034 -91 
Q 1250 -91 836 529 
Q 422 1150 422 2328 
Q 422 3509 836 4129 
Q 1250 4750 2034 4750 
z
" transform="scale(0.015625)"/>
      </defs>
      <use xlink:href="#DejaVuSans-2212"/>
      <use xlink:href="#DejaVuSans-32" x="83.789062"/>
      <use xlink:href="#DejaVuSans-30" x="147.412109"/>
     </g>
    </g>
   </g>
   <g id="xtick_2">
    <g id="line2d_3">
     <path d="M 54.674682 223.784114 
L 52.314596 225.827078 
" style="fill: none; stroke: #000000; stroke-width: 0.8; stroke-linecap: square"/>
    </g>
    <g id="text_2">
     <!-- −15 -->
     <g transform="translate(35.824671 247.879302) scale(0.1 -0.1)">
      <defs>
       <path id="DejaVuSans-31" d="M 794 531 
L 1825 531 
L 1825 4091 
L 703 3866 
L 703 4441 
L 1819 4666 
L 2450 4666 
L 2450 531 
L 3481 531 
L 3481 0 
L 794 0 
L 794 531 
z
" transform="scale(0.015625)"/>
       <path id="DejaVuSans-35" d="M 691 4666 
L 3169 4666 
L 3169 4134 
L 1269 4134 
L 1269 2991 
Q 1406 3038 1543 3061 
Q 1681 3084 1819 3084 
Q 2600 3084 3056 2656 
Q 3513 2228 3513 1497 
Q 3513 744 3044 326 
Q 2575 -91 1722 -91 
Q 1428 -91 1123 -41 
Q 819 9 494 109 
L 494 744 
Q 775 591 1075 516 
Q 1375 441 1709 441 
Q 2250 441 2565 725 
Q 2881 1009 2881 1497 
Q 2881 1984 2565 2268 
Q 2250 2553 1709 2553 
Q 1456 2553 1204 2497 
Q 953 2441 691 2322 
L 691 4666 
z
" transform="scale(0.015625)"/>
      </defs>
      <use xlink:href="#DejaVuSans-2212"/>
      <use xlink:href="#DejaVuSans-31" x="83.789062"/>
      <use xlink:href="#DejaVuSans-35" x="147.412109"/>
     </g>
    </g>
   </g>
   <g id="xtick_3">
    <g id="line2d_4">
     <path d="M 71.181084 229.169778 
L 68.843364 231.236075 
" style="fill: none; stroke: #000000; stroke-width: 0.8; stroke-linecap: square"/>
    </g>
    <g id="text_3">
     <!-- −10 -->
     <g transform="translate(52.355204 253.382548) scale(0.1 -0.1)">
      <use xlink:href="#DejaVuSans-2212"/>
      <use xlink:href="#DejaVuSans-31" x="83.789062"/>
      <use xlink:href="#DejaVuSans-30" x="147.412109"/>
     </g>
    </g>
   </g>
   <g id="xtick_4">
    <g id="line2d_5">
     <path d="M 87.876342 234.617061 
L 85.561657 236.707093 
" style="fill: none; stroke: #000000; stroke-width: 0.8; stroke-linecap: square"/>
    </g>
    <g id="text_4">
     <!-- −5 -->
     <g transform="translate(72.256944 258.949034) scale(0.1 -0.1)">
      <use xlink:href="#DejaVuSans-2212"/>
      <use xlink:href="#DejaVuSans-35" x="83.789062"/>
     </g>
    </g>
   </g>
   <g id="xtick_5">
    <g id="line2d_6">
     <path d="M 104.763717 240.127027 
L 102.472753 242.241205 
" style="fill: none; stroke: #000000; stroke-width: 0.8; stroke-linecap: square"/>
    </g>
    <g id="text_5">
     <!-- 0 -->
     <g transform="translate(93.360528 264.579855) scale(0.1 -0.1)">
      <use xlink:href="#DejaVuSans-30"/>
     </g>
    </g>
   </g>
   <g id="xtick_6">
    <g id="line2d_7">
     <path d="M 121.846544 245.700765 
L 119.580008 247.83951 
" style="fill: none; stroke: #000000; stroke-width: 0.8; stroke-linecap: square"/>
    </g>
    <g id="text_6">
     <!-- 5 -->
     <g transform="translate(110.470888 270.276134) scale(0.1 -0.1)">
      <use xlink:href="#DejaVuSans-35"/>
     </g>
    </g>
   </g>
   <g id="xtick_7">
    <g id="line2d_8">
     <path d="M 139.128235 251.339387 
L 136.886853 253.50313 
" style="fill: none; stroke: #000000; stroke-width: 0.8; stroke-linecap: square"/>
    </g>
    <g id="text_7">
     <!-- 10 -->
     <g transform="translate(124.600066 276.039018) scale(0.1 -0.1)">
      <use xlink:href="#DejaVuSans-31"/>
      <use xlink:href="#DejaVuSans-30" x="63.623047"/>
     </g>
    </g>
   </g>
   <g id="xtick_8">
    <g id="line2d_9">
     <path d="M 156.612284 257.044035 
L 154.396804 259.233216 
" style="fill: none; stroke: #000000; stroke-width: 0.8; stroke-linecap: square"/>
    </g>
    <g id="text_8">
     <!-- 15 -->
     <g transform="translate(142.114093 281.869683) scale(0.1 -0.1)">
      <use xlink:href="#DejaVuSans-31"/>
      <use xlink:href="#DejaVuSans-35" x="63.623047"/>
     </g>
    </g>
   </g>
   <g id="xtick_9">
    <g id="line2d_10">
     <path d="M 174.302265 262.815873 
L 172.113455 265.030945 
" style="fill: none; stroke: #000000; stroke-width: 0.8; stroke-linecap: square"/>
    </g>
    <g id="text_9">
     <!-- 20 -->
     <g transform="translate(159.835331 287.769332) scale(0.1 -0.1)">
      <use xlink:href="#DejaVuSans-32"/>
      <use xlink:href="#DejaVuSans-30" x="63.623047"/>
     </g>
    </g>
   </g>
   <g id="text_10">
    <!-- $x$ -->
    <g transform="translate(84.647166 278.828218) scale(0.1 -0.1)">
     <defs>
      <path id="DejaVuSans-Oblique-78" d="M 3841 3500 
L 2234 1784 
L 3219 0 
L 2559 0 
L 1819 1388 
L 531 0 
L -166 0 
L 1556 1844 
L 641 3500 
L 1300 3500 
L 1972 2234 
L 3144 3500 
L 3841 3500 
z
" transform="scale(0.015625)"/>
     </defs>
     <use xlink:href="#DejaVuSans-Oblique-78" transform="translate(0 0.3125)"/>
    </g>
   </g>
  </g>
  <g id="axis3d_2">
   <g id="line2d_11">
    <path d="M 266.560834 182.015381 
L 183.840905 266.906378 
" style="fill: none; stroke: #000000; stroke-width: 0.8; stroke-linecap: square"/>
   </g>
   <g id="xtick_10">
    <g id="line2d_12">
     <path d="M 188.257232 260.608963 
L 192.182369 261.880904 
" style="fill: none; stroke: #000000; stroke-width: 0.8; stroke-linecap: square"/>
    </g>
    <g id="text_11">
     <!-- 0 -->
     <g transform="translate(199.26356 282.053986) scale(0.1 -0.1)">
      <use xlink:href="#DejaVuSans-30"/>
     </g>
    </g>
   </g>
   <g id="xtick_11">
    <g id="line2d_13">
     <path d="M 205.305042 243.145055 
L 209.182055 244.372204 
" style="fill: none; stroke: #000000; stroke-width: 0.8; stroke-linecap: square"/>
    </g>
    <g id="text_12">
     <!-- 2 -->
     <g transform="translate(216.076071 264.326748) scale(0.1 -0.1)">
      <use xlink:href="#DejaVuSans-32"/>
     </g>
    </g>
   </g>
   <g id="xtick_12">
    <g id="line2d_14">
     <path d="M 221.758069 226.290448 
L 225.587896 227.47513 
" style="fill: none; stroke: #000000; stroke-width: 0.8; stroke-linecap: square"/>
    </g>
    <g id="text_13">
     <!-- 4 -->
     <g transform="translate(232.301439 247.218598) scale(0.1 -0.1)">
      <defs>
       <path id="DejaVuSans-34" d="M 2419 4116 
L 825 1625 
L 2419 1625 
L 2419 4116 
z
M 2253 4666 
L 3047 4666 
L 3047 1625 
L 3713 1625 
L 3713 1100 
L 3047 1100 
L 3047 0 
L 2419 0 
L 2419 1100 
L 313 1100 
L 313 1709 
L 2253 4666 
z
" transform="scale(0.015625)"/>
      </defs>
      <use xlink:href="#DejaVuSans-34"/>
     </g>
    </g>
   </g>
   <g id="xtick_13">
    <g id="line2d_15">
     <path d="M 237.646905 210.013802 
L 241.430475 211.158184 
" style="fill: none; stroke: #000000; stroke-width: 0.8; stroke-linecap: square"/>
    </g>
    <g id="text_14">
     <!-- 6 -->
     <g transform="translate(247.969892 230.697663) scale(0.1 -0.1)">
      <defs>
       <path id="DejaVuSans-36" d="M 2113 2584 
Q 1688 2584 1439 2293 
Q 1191 2003 1191 1497 
Q 1191 994 1439 701 
Q 1688 409 2113 409 
Q 2538 409 2786 701 
Q 3034 994 3034 1497 
Q 3034 2003 2786 2293 
Q 2538 2584 2113 2584 
z
M 3366 4563 
L 3366 3988 
Q 3128 4100 2886 4159 
Q 2644 4219 2406 4219 
Q 1781 4219 1451 3797 
Q 1122 3375 1075 2522 
Q 1259 2794 1537 2939 
Q 1816 3084 2150 3084 
Q 2853 3084 3261 2657 
Q 3669 2231 3669 1497 
Q 3669 778 3244 343 
Q 2819 -91 2113 -91 
Q 1303 -91 875 529 
Q 447 1150 447 2328 
Q 447 3434 972 4092 
Q 1497 4750 2381 4750 
Q 2619 4750 2861 4703 
Q 3103 4656 3366 4563 
z
" transform="scale(0.015625)"/>
      </defs>
      <use xlink:href="#DejaVuSans-36"/>
     </g>
    </g>
   </g>
   <g id="xtick_14">
    <g id="line2d_16">
     <path d="M 253.000082 194.28589 
L 256.738311 195.391994 
" style="fill: none; stroke: #000000; stroke-width: 0.8; stroke-linecap: square"/>
    </g>
    <g id="text_15">
     <!-- 8 -->
     <g transform="translate(263.109621 214.73422) scale(0.1 -0.1)">
      <defs>
       <path id="DejaVuSans-38" d="M 2034 2216 
Q 1584 2216 1326 1975 
Q 1069 1734 1069 1313 
Q 1069 891 1326 650 
Q 1584 409 2034 409 
Q 2484 409 2743 651 
Q 3003 894 3003 1313 
Q 3003 1734 2745 1975 
Q 2488 2216 2034 2216 
z
M 1403 2484 
Q 997 2584 770 2862 
Q 544 3141 544 3541 
Q 544 4100 942 4425 
Q 1341 4750 2034 4750 
Q 2731 4750 3128 4425 
Q 3525 4100 3525 3541 
Q 3525 3141 3298 2862 
Q 3072 2584 2669 2484 
Q 3125 2378 3379 2068 
Q 3634 1759 3634 1313 
Q 3634 634 3220 271 
Q 2806 -91 2034 -91 
Q 1263 -91 848 271 
Q 434 634 434 1313 
Q 434 1759 690 2068 
Q 947 2378 1403 2484 
z
M 1172 3481 
Q 1172 3119 1398 2916 
Q 1625 2713 2034 2713 
Q 2441 2713 2670 2916 
Q 2900 3119 2900 3481 
Q 2900 3844 2670 4047 
Q 2441 4250 2034 4250 
Q 1625 4250 1398 4047 
Q 1172 3844 1172 3481 
z
" transform="scale(0.015625)"/>
      </defs>
      <use xlink:href="#DejaVuSans-38"/>
     </g>
    </g>
   </g>
   <g id="text_16">
    <!-- $t$ -->
    <g transform="translate(252.021579 253.329672) scale(0.1 -0.1)">
     <defs>
      <path id="DejaVuSans-Oblique-74" d="M 2706 3500 
L 2619 3053 
L 1472 3053 
L 1100 1153 
Q 1081 1047 1072 975 
Q 1063 903 1063 863 
Q 1063 663 1183 572 
Q 1303 481 1569 481 
L 2150 481 
L 2053 0 
L 1503 0 
Q 991 0 739 200 
Q 488 400 488 806 
Q 488 878 497 964 
Q 506 1050 525 1153 
L 897 3053 
L 409 3053 
L 500 3500 
L 978 3500 
L 1172 4494 
L 1747 4494 
L 1556 3500 
L 2706 3500 
z
" transform="scale(0.015625)"/>
     </defs>
     <use xlink:href="#DejaVuSans-Oblique-74" transform="translate(0 0.78125)"/>
    </g>
   </g>
  </g>
  <g id="axis3d_3">
   <g id="line2d_17">
    <path d="M 266.560834 182.015381 
L 271.802814 67.543928 
" style="fill: none; stroke: #000000; stroke-width: 0.8; stroke-linecap: square"/>
   </g>
   <g id="xtick_15">
    <g id="line2d_18">
     <path d="M 265.427357 179.464456 
L 269.132018 180.538611 
" style="fill: none; stroke: #000000; stroke-width: 0.8; stroke-linecap: square"/>
    </g>
    <g id="text_17">
     <!-- 0.0 -->
     <g transform="translate(276.97586 184.819441) scale(0.1 -0.1)">
      <defs>
       <path id="DejaVuSans-2e" d="M 684 794 
L 1344 794 
L 1344 0 
L 684 0 
L 684 794 
z
" transform="scale(0.015625)"/>
      </defs>
      <use xlink:href="#DejaVuSans-30"/>
      <use xlink:href="#DejaVuSans-2e" x="63.623047"/>
      <use xlink:href="#DejaVuSans-30" x="95.410156"/>
     </g>
    </g>
   </g>
   <g id="xtick_16">
    <g id="line2d_19">
     <path d="M 266.389699 158.222638 
L 270.126316 159.280231 
" style="fill: none; stroke: #000000; stroke-width: 0.8; stroke-linecap: square"/>
    </g>
    <g id="text_18">
     <!-- 0.2 -->
     <g transform="translate(278.097323 163.612279) scale(0.1 -0.1)">
      <use xlink:href="#DejaVuSans-30"/>
      <use xlink:href="#DejaVuSans-2e" x="63.623047"/>
      <use xlink:href="#DejaVuSans-32" x="95.410156"/>
     </g>
    </g>
   </g>
   <g id="xtick_17">
    <g id="line2d_20">
     <path d="M 267.368158 136.625059 
L 271.137288 137.665383 
" style="fill: none; stroke: #000000; stroke-width: 0.8; stroke-linecap: square"/>
    </g>
    <g id="text_19">
     <!-- 0.4 -->
     <g transform="translate(279.23752 142.050834) scale(0.1 -0.1)">
      <use xlink:href="#DejaVuSans-30"/>
      <use xlink:href="#DejaVuSans-2e" x="63.623047"/>
      <use xlink:href="#DejaVuSans-34" x="95.410156"/>
     </g>
    </g>
   </g>
   <g id="xtick_18">
    <g id="line2d_21">
     <path d="M 268.363142 114.662705 
L 272.165355 115.685022 
" style="fill: none; stroke: #000000; stroke-width: 0.8; stroke-linecap: square"/>
    </g>
    <g id="text_20">
     <!-- 0.6 -->
     <g transform="translate(280.396926 120.126154) scale(0.1 -0.1)">
      <use xlink:href="#DejaVuSans-30"/>
      <use xlink:href="#DejaVuSans-2e" x="63.623047"/>
      <use xlink:href="#DejaVuSans-36" x="95.410156"/>
     </g>
    </g>
   </g>
   <g id="xtick_19">
    <g id="line2d_22">
     <path d="M 269.375075 92.326256 
L 273.210956 93.3298 
" style="fill: none; stroke: #000000; stroke-width: 0.8; stroke-linecap: square"/>
    </g>
    <g id="text_21">
     <!-- 0.8 -->
     <g transform="translate(281.57603 97.82898) scale(0.1 -0.1)">
      <use xlink:href="#DejaVuSans-30"/>
      <use xlink:href="#DejaVuSans-2e" x="63.623047"/>
      <use xlink:href="#DejaVuSans-38" x="95.410156"/>
     </g>
    </g>
   </g>
   <g id="xtick_20">
    <g id="line2d_23">
     <path d="M 270.404392 69.606074 
L 274.274542 70.590043 
" style="fill: none; stroke: #000000; stroke-width: 0.8; stroke-linecap: square"/>
    </g>
    <g id="text_22">
     <!-- 1.0 -->
     <g transform="translate(282.775338 75.14974) scale(0.1 -0.1)">
      <use xlink:href="#DejaVuSans-31"/>
      <use xlink:href="#DejaVuSans-2e" x="63.623047"/>
      <use xlink:href="#DejaVuSans-30" x="95.410156"/>
     </g>
    </g>
   </g>
  </g>
  <g id="axes_1">
   <g id="line2d_24">
    <path d="M 43.742446 211.567326 
L 84.597921 224.663038 
L 88.460949 225.665551 
L 90.725741 226.047845 
L 92.455488 226.122925 
L 93.783112 225.964408 
L 94.842103 225.633947 
L 95.765404 225.137995 
L 96.684452 224.38326 
L 97.467743 223.467536 
L 98.245711 222.232428 
L 99.016933 220.591698 
L 99.779652 218.43667 
L 100.531721 215.631403 
L 101.270561 212.008069 
L 101.993153 207.364159 
L 102.696154 201.465201 
L 103.487137 192.663105 
L 104.243202 181.47109 
L 105.06679 165.684724 
L 106.926397 127.278486 
L 107.400894 121.87032 
L 107.78524 119.49154 
L 108.056366 118.813224 
L 108.196496 118.758087 
L 108.339655 118.893923 
L 108.634862 119.733784 
L 109.098539 122.355781 
L 109.74986 128.091187 
L 110.600879 137.926537 
L 112.855464 168.029337 
L 114.35872 186.362638 
L 115.635747 199.26045 
L 116.712654 208.062481 
L 117.759342 214.928886 
L 118.782774 220.249404 
L 119.788773 224.367293 
L 120.781916 227.562654 
L 121.765696 230.055657 
L 122.881875 232.260624 
L 123.992071 233.958781 
L 125.23638 235.434624 
L 126.61544 236.697222 
L 128.130189 237.778104 
L 130.056935 238.859734 
L 132.534909 239.974614 
L 136.256964 241.374583 
L 143.310609 243.743036 
L 178.089145 254.999626 
L 179.224505 255.366672 
L 179.224505 255.366672 
" clip-path="url(#p24d3a7f29f)" style="fill: none; stroke: #1f77b4; stroke-width: 1.5; stroke-linecap: square"/>
   </g>
   <g id="line2d_25">
    <path d="M 53.178625 203.584257 
L 95.536332 217.002619 
L 99.383396 217.981253 
L 101.639626 218.346399 
L 103.363699 218.405067 
L 104.68784 218.230652 
L 105.74488 217.884397 
L 106.667326 217.371509 
L 107.58659 216.595944 
L 108.37118 215.658336 
L 109.151773 214.396579 
L 109.927308 212.723203 
L 110.696484 210.528032 
L 111.457729 207.673376 
L 112.209173 203.989506 
L 112.948667 199.27217 
L 113.673885 193.286031 
L 114.499006 184.367158 
L 115.299632 173.054184 
L 116.187759 157.167957 
L 118.093155 120.866915 
L 118.585816 115.206726 
L 118.975962 112.582349 
L 119.24687 111.721411 
L 119.385641 111.571419 
L 119.526614 111.61108 
L 119.815027 112.25784 
L 120.111655 113.642949 
L 120.570392 117.006427 
L 121.202616 123.520889 
L 122.176789 136.19575 
L 125.22654 177.866611 
L 126.44605 190.891646 
L 127.483156 199.796292 
L 128.498144 206.74768 
L 129.496305 212.134907 
L 130.482022 216.303524 
L 131.458706 219.53661 
L 132.428933 222.05713 
L 133.532289 224.28402 
L 134.631758 225.996539 
L 135.865794 227.48202 
L 137.234996 228.749654 
L 138.740167 229.831432 
L 140.655923 230.90976 
L 143.120877 232.016208 
L 146.687134 233.351273 
L 153.568161 235.642271 
L 185.350154 245.81055 
L 187.887957 246.621331 
L 187.887957 246.621331 
" clip-path="url(#p24d3a7f29f)" style="fill: none; stroke: #ff7f0e; stroke-width: 1.5; stroke-linecap: square"/>
   </g>
   <g id="line2d_26">
    <path d="M 62.454967 195.73641 
L 106.299396 209.464954 
L 109.998352 210.392939 
L 112.246034 210.755328 
L 113.964546 210.817361 
L 115.285386 210.650985 
L 116.340707 210.316296 
L 117.262584 209.818742 
L 118.182449 209.065039 
L 118.968767 208.152945 
L 119.752528 206.924737 
L 120.533056 205.295083 
L 121.309533 203.156448 
L 122.08099 200.374343 
L 122.846294 196.782753 
L 123.604176 192.181402 
L 124.35331 186.33847 
L 125.214691 177.622705 
L 126.061758 166.543763 
L 127.01511 150.921499 
L 129.190545 112.929805 
L 129.707924 107.580299 
L 130.109877 105.226347 
L 130.384878 104.55411 
L 130.524487 104.498724 
L 130.665472 104.632098 
L 130.95142 105.460456 
L 131.38944 108.049473 
L 131.987239 113.715296 
L 132.748424 123.4339 
L 134.731003 153.188763 
L 136.068079 171.314561 
L 137.226907 184.067252 
L 138.221892 192.769918 
L 139.203381 199.557959 
L 140.174948 204.816604 
L 141.139439 208.885285 
L 142.099008 212.041058 
L 143.055242 214.501743 
L 144.145462 216.676402 
L 145.234031 218.34944 
L 146.457715 219.801453 
L 147.817062 221.041404 
L 149.312727 222.10049 
L 151.217645 223.15734 
L 153.669821 224.243113 
L 157.355319 225.602087 
L 164.47898 227.939462 
L 196.397907 238.030943 
L 196.397907 238.030943 
" clip-path="url(#p24d3a7f29f)" style="fill: none; stroke: #2ca02c; stroke-width: 1.5; stroke-linecap: square"/>
   </g>
   <g id="line2d_27">
    <path d="M 71.5755 188.020378 
L 116.75987 202.010717 
L 120.574924 202.952933 
L 122.814067 203.298784 
L 124.526901 203.344901 
L 125.844232 203.16304 
L 126.89756 202.812916 
L 127.818525 202.298769 
L 128.738521 201.524615 
L 129.526037 200.590999 
L 130.312288 199.336551 
L 131.09695 197.674714 
L 131.879649 195.496471 
L 132.659971 192.665598 
L 133.437473 189.014202 
L 134.211719 184.340277 
L 134.982354 178.411151 
L 135.876711 169.579904 
L 136.766646 158.381328 
L 137.78156 142.660275 
L 140.109842 105.150842 
L 140.648802 100.118706 
L 141.060039 98.037099 
L 141.337458 97.55298 
L 141.477089 97.591319 
L 141.758045 98.228886 
L 142.04101 99.596292 
L 142.46846 102.918475 
L 143.041958 109.354901 
L 143.903801 121.880934 
L 146.586203 163.076736 
L 147.689362 175.955672 
L 148.645653 184.76017 
L 149.596244 191.632583 
L 150.543136 196.957502 
L 151.487796 201.076629 
L 152.431251 204.269969 
L 153.374202 206.75811 
L 154.451836 208.954713 
L 155.529862 210.642203 
L 156.743434 212.104018 
L 158.093062 213.349239 
L 159.579271 214.409522 
L 161.473324 215.463496 
L 163.912612 216.541424 
L 167.44381 217.837872 
L 174.259145 220.057117 
L 204.758397 229.591427 
L 204.758397 229.591427 
" clip-path="url(#p24d3a7f29f)" style="fill: none; stroke: #d62728; stroke-width: 1.5; stroke-linecap: square"/>
   </g>
   <g id="line2d_28">
    <path d="M 80.544116 180.432868 
L 127.18522 194.710575 
L 130.853304 195.604266 
L 133.215091 195.95979 
L 134.922287 195.990082 
L 136.236148 195.792756 
L 137.287521 195.427166 
L 138.207613 194.896349 
L 139.127788 194.101611 
L 139.916551 193.146297 
L 140.705352 191.865361 
L 141.494219 190.171009 
L 142.283227 187.952726 
L 143.072517 185.072544 
L 143.862337 181.360695 
L 144.65308 176.613494 
L 145.445348 170.597542 
L 146.372787 161.650578 
L 147.305515 150.333629 
L 148.381329 134.519343 
L 150.715766 99.057343 
L 151.272939 93.765618 
L 151.691124 91.436172 
L 151.969594 90.769988 
L 152.108638 90.7144 
L 152.247514 90.8454 
L 152.52465 91.662549 
L 152.938451 94.219309 
L 153.485896 99.816968 
L 154.16269 109.421098 
L 156.021351 141.002006 
L 157.201624 158.506535 
L 158.249249 170.726373 
L 159.167272 179.037134 
L 160.087544 185.509438 
L 161.010407 190.520033 
L 161.935888 194.396123 
L 162.863854 197.402974 
L 163.794104 199.74843 
L 164.85976 201.822508 
L 165.927788 203.419517 
L 167.131793 204.807074 
L 168.472234 205.993708 
L 169.949498 207.009078 
L 171.833255 208.024543 
L 174.260294 209.07047 
L 177.910027 210.382872 
L 185.102422 212.6867 
L 212.973332 221.298843 
L 212.973332 221.298843 
" clip-path="url(#p24d3a7f29f)" style="fill: none; stroke: #9467bd; stroke-width: 1.5; stroke-linecap: square"/>
   </g>
   <g id="line2d_29">
    <path d="M 89.364581 172.970696 
L 137.31708 187.489495 
L 141.100222 188.397081 
L 143.322229 188.72466 
L 145.023671 188.758981 
L 146.333961 188.570226 
L 147.383285 188.216647 
L 148.302402 187.701576 
L 149.222625 186.929131 
L 150.012492 185.999724 
L 150.803657 184.752757 
L 151.596484 183.102571 
L 152.391472 180.941294 
L 153.189288 178.134144 
L 153.990826 174.515032 
L 154.797255 169.884167 
L 155.610063 164.011492 
L 156.568836 155.266875 
L 157.54197 144.181247 
L 158.675078 128.623078 
L 161.285068 91.516153 
L 161.860061 86.53811 
L 162.284808 84.477879 
L 162.564031 83.997677 
L 162.70233 84.034761 
L 162.97616 84.663383 
L 163.246197 86.013491 
L 163.644158 89.295253 
L 164.162425 95.655208 
L 164.918731 108.035275 
L 167.255881 148.764622 
L 168.249496 161.500034 
L 169.129585 170.206173 
L 170.01935 177.001064 
L 170.917716 182.264874 
L 171.823417 186.335522 
L 172.735248 189.489988 
L 173.652155 191.946517 
L 174.705132 194.113616 
L 175.762513 195.77679 
L 176.956288 197.215681 
L 178.286885 198.439263 
L 179.754567 199.478862 
L 181.627316 200.509473 
L 184.04131 201.560123 
L 187.672535 202.864948 
L 194.558818 205.054277 
L 221.04648 213.149383 
L 221.04648 213.149383 
" clip-path="url(#p24d3a7f29f)" style="fill: none; stroke: #8c564b; stroke-width: 1.5; stroke-linecap: square"/>
   </g>
   <g id="line2d_30">
    <path d="M 98.040534 165.63078 
L 147.42041 180.415823 
L 151.057736 181.276891 
L 153.40137 181.613592 
L 155.097186 181.632544 
L 156.403994 181.428705 
L 157.451335 181.059992 
L 158.369536 180.52857 
L 159.28987 179.735895 
L 160.080901 178.785131 
L 160.8745 177.51206 
L 161.67138 175.829798 
L 162.47247 173.628988 
L 163.278984 170.773122 
L 164.092481 167.094254 
L 164.914928 162.390927 
L 165.748729 156.432367 
L 166.739536 147.573263 
L 167.753926 136.370495 
L 169.096409 118.589154 
L 171.387438 87.269278 
L 172.132357 80.402941 
L 172.565504 78.09767 
L 172.84707 77.437506 
L 172.985511 77.381759 
L 173.122339 77.510467 
L 173.391083 78.316691 
L 173.782003 80.841905 
L 174.282043 86.372795 
L 174.879501 95.86469 
L 176.48038 127.086061 
L 177.516959 144.395273 
L 178.462823 156.479405 
L 179.310275 164.697509 
L 180.174213 171.096852 
L 181.052042 176.049907 
L 181.941249 179.880285 
L 182.839642 182.850408 
L 183.745411 185.165926 
L 184.787747 187.211979 
L 185.836111 188.78581 
L 187.021118 190.151436 
L 188.343153 191.317283 
L 189.802362 192.312702 
L 191.665212 193.305546 
L 194.200913 194.376251 
L 197.949481 195.688329 
L 205.47906 198.038667 
L 228.981481 205.139376 
L 228.981481 205.139376 
" clip-path="url(#p24d3a7f29f)" style="fill: none; stroke: #e377c2; stroke-width: 1.5; stroke-linecap: square"/>
   </g>
   <g id="line2d_31">
    <path d="M 106.575498 158.410138 
L 157.368036 173.451119 
L 160.990221 174.291762 
L 163.195071 174.602026 
L 164.884999 174.625254 
L 166.188048 174.430117 
L 167.233107 174.073465 
L 168.150047 173.557774 
L 169.07004 172.787306 
L 169.994017 171.679621 
L 170.790119 170.380187 
L 171.591131 168.665503 
L 172.398422 166.424712 
L 173.213749 163.519573 
L 174.039339 159.78029 
L 174.877956 155.00379 
L 175.732899 148.95872 
L 176.755865 139.984932 
L 177.811445 128.666396 
L 179.219192 110.795577 
L 181.461628 81.5657 
L 182.233164 74.409426 
L 182.676283 71.866778 
L 182.961452 71.03025 
L 183.100716 70.882935 
L 183.237696 70.918822 
L 183.504711 71.538742 
L 183.762503 72.871944 
L 184.132649 76.114138 
L 184.598936 82.39916 
L 185.256021 94.636078 
L 187.268475 134.907487 
L 188.158885 147.501928 
L 188.967074 156.111479 
L 189.799347 162.830282 
L 190.651746 168.034162 
L 191.520451 172.05732 
L 192.402164 175.17376 
L 193.294183 177.599421 
L 194.323508 179.737772 
L 195.360998 181.377314 
L 196.535612 182.793988 
L 197.847699 183.996666 
L 199.297275 185.016346 
L 201.149115 186.02453 
L 203.538189 187.04907 
L 207.13388 188.317377 
L 213.954535 190.440234 
L 236.781849 197.265271 
L 236.781849 197.265271 
" clip-path="url(#p24d3a7f29f)" style="fill: none; stroke: #7f7f7f; stroke-width: 1.5; stroke-linecap: square"/>
   </g>
   <g id="line2d_32">
    <path d="M 114.972883 151.305884 
L 167.034905 166.55955 
L 170.770648 167.413429 
L 172.967091 167.70842 
L 174.651414 167.71671 
L 175.950978 167.506848 
L 176.994035 167.135377 
L 177.910023 166.603638 
L 178.830069 165.813278 
L 179.755432 164.680627 
L 180.554107 163.354561 
L 181.359336 161.6071 
L 182.172929 159.325871 
L 182.99719 156.370891 
L 183.835014 152.570525 
L 184.689956 147.720139 
L 185.566197 141.587949 
L 186.621445 132.499344 
L 187.718135 121.066563 
L 189.190246 103.113645 
L 191.530083 74.263223 
L 192.32025 67.470448 
L 192.767187 65.189016 
L 193.051505 64.534834 
L 193.18931 64.478966 
L 193.324149 64.605461 
L 193.584893 65.401036 
L 193.95418 67.895391 
L 194.409557 73.360875 
L 194.932384 82.742734 
L 197.611185 137.084649 
L 198.372729 146.407388 
L 199.166982 153.716641 
L 199.988766 159.388161 
L 200.832855 163.772959 
L 201.694669 167.165355 
L 202.570438 169.799926 
L 203.584577 172.114625 
L 204.609569 173.881034 
L 205.642812 175.249044 
L 206.812678 176.44652 
L 208.119477 177.4806 
L 209.694695 178.448161 
L 211.671437 179.399826 
L 214.448829 180.474271 
L 218.962377 181.950458 
L 230.044286 185.269465 
L 244.450983 189.52364 
L 244.450983 189.52364 
" clip-path="url(#p24d3a7f29f)" style="fill: none; stroke: #bcbd22; stroke-width: 1.5; stroke-linecap: square"/>
   </g>
   <g id="line2d_33">
    <path d="M 123.235988 144.315227 
L 176.554217 159.773129 
L 180.273967 160.616376 
L 182.461665 160.910222 
L 184.139985 160.923013 
L 185.435621 160.721969 
L 186.476183 160.362594 
L 187.521654 159.753916 
L 188.44181 158.94351 
L 189.368629 157.785662 
L 190.169949 156.432687 
L 190.979483 154.652082 
L 191.799484 152.329947 
L 192.632805 149.324547 
L 193.48301 145.462422 
L 194.354437 140.537437 
L 195.404684 133.138172 
L 196.499136 123.611254 
L 197.812109 109.839129 
L 199.713686 86.866502 
L 201.276668 68.758425 
L 202.094162 61.678729 
L 202.552301 59.162549 
L 202.841344 58.334006 
L 202.980609 58.187623 
L 203.116283 58.222372 
L 203.376776 58.833818 
L 203.622961 60.150498 
L 203.966853 63.353955 
L 204.384186 69.56555 
L 204.947927 81.66209 
L 206.654829 121.483973 
L 207.447945 133.939971 
L 208.188246 142.454684 
L 208.966138 149.098812 
L 209.774966 154.243922 
L 210.608512 158.220558 
L 211.461519 161.299796 
L 212.329739 163.69531 
L 213.33636 165.805642 
L 214.354673 167.422207 
L 215.51073 168.81734 
L 216.804807 169.99981 
L 218.236688 171.000297 
L 220.068007 171.986936 
L 222.432536 172.986466 
L 225.993138 174.219872 
L 232.881694 176.318577 
L 251.992167 181.911161 
L 251.992167 181.911161 
" clip-path="url(#p24d3a7f29f)" style="fill: none; stroke: #17becf; stroke-width: 1.5; stroke-linecap: square"/>
   </g>
  </g>
 </g>
 <defs>
  <clipPath id="p24d3a7f29f">
   <rect x="7.2" y="7.2" width="277.2" height="277.2"/>
  </clipPath>
 </defs>
</svg>
