<?xml version="1.0" encoding="utf-8" standalone="no"?>
<!DOCTYPE svg PUBLIC "-//W3C//DTD SVG 1.1//EN"
  "http://www.w3.org/Graphics/SVG/1.1/DTD/svg11.dtd">
<svg xmlns:xlink="http://www.w3.org/1999/xlink" width="442.645312pt" height="135.063168pt" viewBox="0 0 442.645312 135.063168" xmlns="http://www.w3.org/2000/svg" version="1.1">
 <metadata>
  <rdf:RDF xmlns:dc="http://purl.org/dc/elements/1.1/" xmlns:cc="http://creativecommons.org/ns#" xmlns:rdf="http://www.w3.org/1999/02/22-rdf-syntax-ns#">
   <cc:Work>
    <dc:type rdf:resource="http://purl.org/dc/dcmitype/StillImage"/>
    <dc:date>2025-01-31T15:50:21.250102</dc:date>
    <dc:format>image/svg+xml</dc:format>
    <dc:creator>
     <cc:Agent>
      <dc:title>Matplotlib v3.9.2, https://matplotlib.org/</dc:title>
     </cc:Agent>
    </dc:creator>
   </cc:Work>
  </rdf:RDF>
 </metadata>
 <defs>
  <style type="text/css">*{stroke-linejoin: round; stroke-linecap: butt}</style>
 </defs>
 <g id="figure_1">
  <g id="patch_1">
   <path d="M 0 135.063168 
L 442.645312 135.063168 
L 442.645312 -0 
L 0 -0 
z
" style="fill: #ffffff"/>
  </g>
  <g id="axes_1">
   <g id="patch_2">
    <path d="M 44.845313 82.933562 
L 435.445312 82.933562 
L 435.445312 7.2 
L 44.845313 7.2 
z
" style="fill: #ffffff"/>
   </g>
   <g id="matplotlib.axis_1"/>
   <g id="matplotlib.axis_2">
    <g id="ytick_1">
     <g id="line2d_1">
      <defs>
       <path id="md0543d727d" d="M 0 0 
L -3.5 0 
" style="stroke: #000000; stroke-width: 0.8"/>
      </defs>
      <g>
       <use xlink:href="#md0543d727d" x="44.845313" y="66.301182" style="stroke: #000000; stroke-width: 0.8"/>
      </g>
     </g>
     <g id="text_1">
      <!-- −0.25 -->
      <g transform="translate(7.2 70.100401) scale(0.1 -0.1)">
       <defs>
        <path id="DejaVuSans-2212" d="M 678 2272 
L 4684 2272 
L 4684 1741 
L 678 1741 
L 678 2272 
z
" transform="scale(0.015625)"/>
        <path id="DejaVuSans-30" d="M 2034 4250 
Q 1547 4250 1301 3770 
Q 1056 3291 1056 2328 
Q 1056 1369 1301 889 
Q 1547 409 2034 409 
Q 2525 409 2770 889 
Q 3016 1369 3016 2328 
Q 3016 3291 2770 3770 
Q 2525 4250 2034 4250 
z
M 2034 4750 
Q 2819 4750 3233 4129 
Q 3647 3509 3647 2328 
Q 3647 1150 3233 529 
Q 2819 -91 2034 -91 
Q 1250 -91 836 529 
Q 422 1150 422 2328 
Q 422 3509 836 4129 
Q 1250 4750 2034 4750 
z
" transform="scale(0.015625)"/>
        <path id="DejaVuSans-2e" d="M 684 794 
L 1344 794 
L 1344 0 
L 684 0 
L 684 794 
z
" transform="scale(0.015625)"/>
        <path id="DejaVuSans-32" d="M 1228 531 
L 3431 531 
L 3431 0 
L 469 0 
L 469 531 
Q 828 903 1448 1529 
Q 2069 2156 2228 2338 
Q 2531 2678 2651 2914 
Q 2772 3150 2772 3378 
Q 2772 3750 2511 3984 
Q 2250 4219 1831 4219 
Q 1534 4219 1204 4116 
Q 875 4013 500 3803 
L 500 4441 
Q 881 4594 1212 4672 
Q 1544 4750 1819 4750 
Q 2544 4750 2975 4387 
Q 3406 4025 3406 3419 
Q 3406 3131 3298 2873 
Q 3191 2616 2906 2266 
Q 2828 2175 2409 1742 
Q 1991 1309 1228 531 
z
" transform="scale(0.015625)"/>
        <path id="DejaVuSans-35" d="M 691 4666 
L 3169 4666 
L 3169 4134 
L 1269 4134 
L 1269 2991 
Q 1406 3038 1543 3061 
Q 1681 3084 1819 3084 
Q 2600 3084 3056 2656 
Q 3513 2228 3513 1497 
Q 3513 744 3044 326 
Q 2575 -91 1722 -91 
Q 1428 -91 1123 -41 
Q 819 9 494 109 
L 494 744 
Q 775 591 1075 516 
Q 1375 441 1709 441 
Q 2250 441 2565 725 
Q 2881 1009 2881 1497 
Q 2881 1984 2565 2268 
Q 2250 2553 1709 2553 
Q 1456 2553 1204 2497 
Q 953 2441 691 2322 
L 691 4666 
z
" transform="scale(0.015625)"/>
       </defs>
       <use xlink:href="#DejaVuSans-2212"/>
       <use xlink:href="#DejaVuSans-30" x="83.789062"/>
       <use xlink:href="#DejaVuSans-2e" x="147.412109"/>
       <use xlink:href="#DejaVuSans-32" x="179.199219"/>
       <use xlink:href="#DejaVuSans-35" x="242.822266"/>
      </g>
     </g>
    </g>
    <g id="ytick_2">
     <g id="line2d_2">
      <g>
       <use xlink:href="#md0543d727d" x="44.845313" y="45.066781" style="stroke: #000000; stroke-width: 0.8"/>
      </g>
     </g>
     <g id="text_2">
      <!-- 0.00 -->
      <g transform="translate(15.579688 48.866) scale(0.1 -0.1)">
       <use xlink:href="#DejaVuSans-30"/>
       <use xlink:href="#DejaVuSans-2e" x="63.623047"/>
       <use xlink:href="#DejaVuSans-30" x="95.410156"/>
       <use xlink:href="#DejaVuSans-30" x="159.033203"/>
      </g>
     </g>
    </g>
    <g id="ytick_3">
     <g id="line2d_3">
      <g>
       <use xlink:href="#md0543d727d" x="44.845313" y="23.83238" style="stroke: #000000; stroke-width: 0.8"/>
      </g>
     </g>
     <g id="text_3">
      <!-- 0.25 -->
      <g transform="translate(15.579688 27.631599) scale(0.1 -0.1)">
       <use xlink:href="#DejaVuSans-30"/>
       <use xlink:href="#DejaVuSans-2e" x="63.623047"/>
       <use xlink:href="#DejaVuSans-32" x="95.410156"/>
       <use xlink:href="#DejaVuSans-35" x="159.033203"/>
      </g>
     </g>
    </g>
   </g>
   <g id="line2d_4">
    <path d="M 62.599858 23.83238 
L 417.690767 23.83238 
L 417.690767 23.83238 
" clip-path="url(#p98dc897aae)" style="fill: none; stroke: #1f77b4; stroke-width: 1.5; stroke-linecap: square"/>
   </g>
   <g id="line2d_5">
    <path d="M 62.599858 79.491127 
L 67.464117 79.364191 
L 72.328376 78.98432 
L 77.192635 78.354314 
L 82.056894 77.47882 
L 86.921153 76.364294 
L 91.785412 75.018957 
L 96.649671 73.452729 
L 102.208824 71.407164 
L 107.767978 69.107927 
L 113.327131 66.57716 
L 119.581178 63.483724 
L 126.530119 59.785085 
L 134.173955 55.463138 
L 143.902473 49.699634 
L 171.003345 33.469568 
L 178.64718 29.213037 
L 185.596122 25.591833 
L 191.850169 22.581733 
L 197.409322 20.135049 
L 202.968476 17.92847 
L 208.527629 15.983249 
L 213.391888 14.510367 
L 218.256147 13.262832 
L 223.120406 12.249844 
L 227.984665 11.478873 
L 232.848924 10.955605 
L 237.713183 10.6839 
L 242.577442 10.665761 
L 247.441701 10.901322 
L 252.30596 11.388845 
L 257.170219 12.124735 
L 262.034478 13.103566 
L 266.898737 14.318118 
L 271.762996 15.759435 
L 276.627255 17.416887 
L 282.186408 19.560023 
L 287.745562 21.948803 
L 293.999609 24.901073 
L 300.253656 28.099083 
L 307.202598 31.893154 
L 315.541327 36.702347 
L 327.354528 43.799716 
L 345.421776 54.654639 
L 353.760506 59.402096 
L 360.709447 63.125438 
L 366.963494 66.245726 
L 373.217542 69.107927 
L 378.776695 71.407164 
L 384.335848 73.452729 
L 389.200107 75.018957 
L 394.064366 76.364294 
L 398.928625 77.47882 
L 403.792884 78.354314 
L 408.657143 78.98432 
L 413.521402 79.364191 
L 417.690767 79.488535 
L 417.690767 79.488535 
" clip-path="url(#p98dc897aae)" style="fill: none; stroke: #ff7f0e; stroke-width: 1.5; stroke-linecap: square"/>
   </g>
   <g id="line2d_6">
    <path d="M 62.599858 27.85396 
L 66.074329 27.983408 
L 69.548799 28.369806 
L 73.02327 29.007343 
L 76.497741 29.886428 
L 79.972212 30.99384 
L 83.446682 32.312922 
L 87.616047 34.147083 
L 91.785412 36.217622 
L 96.649671 38.871972 
L 102.903718 42.541135 
L 118.886284 52.042127 
L 123.750543 54.629712 
L 127.919908 56.626205 
L 132.089273 58.372472 
L 135.563743 59.609094 
L 139.038214 60.626987 
L 142.512685 61.41084 
L 145.987156 61.948863 
L 149.461626 62.232963 
L 152.936097 62.258868 
L 156.410568 62.026189 
L 159.885039 61.538424 
L 163.359509 60.80291 
L 166.83398 59.83071 
L 170.308451 58.636447 
L 174.477816 56.935719 
L 178.64718 54.978064 
L 183.51144 52.42621 
L 189.070593 49.249155 
L 199.494005 42.959748 
L 207.137841 38.479719 
L 212.0021 35.857963 
L 216.171464 33.823834 
L 220.340829 32.03308 
L 223.8153 30.754843 
L 227.289771 29.691871 
L 230.764242 28.860151 
L 234.238712 28.272195 
L 237.713183 27.936844 
L 241.187654 27.859144 
L 244.662124 28.040263 
L 248.136595 28.477476 
L 251.611066 29.164208 
L 255.085537 30.090129 
L 258.560007 31.241313 
L 262.034478 32.600445 
L 266.203843 34.47691 
L 271.068102 36.952713 
L 276.627255 40.070163 
L 284.965985 45.066781 
L 294.694503 50.865606 
L 300.253656 53.91594 
L 305.117915 56.309728 
L 309.28728 58.100481 
L 312.761751 59.378719 
L 316.236222 60.441691 
L 319.710692 61.273411 
L 323.185163 61.861367 
L 326.659634 62.196718 
L 330.134105 62.274418 
L 333.608575 62.093299 
L 337.083046 61.656086 
L 340.557517 60.969354 
L 344.031987 60.043433 
L 347.506458 58.892249 
L 350.980929 57.533116 
L 355.150294 55.656652 
L 360.014553 53.180849 
L 365.573706 50.063399 
L 373.912436 45.066781 
L 383.640954 39.267956 
L 389.200107 36.217622 
L 394.064366 33.823834 
L 398.233731 32.03308 
L 401.708202 30.754843 
L 405.182672 29.691871 
L 408.657143 28.860151 
L 412.131614 28.272195 
L 415.606085 27.936844 
L 417.690767 27.859144 
L 417.690767 27.859144 
" clip-path="url(#p98dc897aae)" style="fill: none; stroke: #2ca02c; stroke-width: 1.5; stroke-linecap: square"/>
   </g>
   <g id="line2d_7">
    <path d="M 62.599858 48.892092 
L 67.464117 48.765767 
L 72.328376 48.395135 
L 77.192635 47.804674 
L 82.751788 46.911284 
L 90.395624 45.441727 
L 102.903718 43.020248 
L 108.462872 42.170221 
L 113.327131 41.629071 
L 118.19139 41.314972 
L 123.055649 41.248668 
L 127.919908 41.43454 
L 132.784167 41.86031 
L 137.648426 42.497859 
L 143.902473 43.559639 
L 154.325885 45.628071 
L 162.664615 47.19201 
L 168.223768 48.023787 
L 173.088027 48.544632 
L 177.952286 48.835775 
L 182.816545 48.877987 
L 187.680804 48.66848 
L 192.545063 48.221092 
L 198.104217 47.457063 
L 204.358264 46.355489 
L 225.899982 42.328888 
L 230.764242 41.738427 
L 235.628501 41.367795 
L 240.49276 41.241469 
L 245.357019 41.367795 
L 250.221278 41.738427 
L 255.085537 42.328888 
L 260.64469 43.222278 
L 268.288525 44.691835 
L 280.79662 47.113313 
L 286.355773 47.963341 
L 291.220032 48.504491 
L 296.084291 48.81859 
L 300.94855 48.884893 
L 305.812809 48.699022 
L 310.677068 48.273251 
L 315.541327 47.635703 
L 321.795375 46.573923 
L 332.218787 44.505491 
L 340.557517 42.941552 
L 346.11667 42.109775 
L 350.980929 41.58893 
L 355.845188 41.297787 
L 360.709447 41.255575 
L 365.573706 41.465082 
L 370.437965 41.91247 
L 375.997118 42.676499 
L 382.251166 43.778072 
L 403.792884 47.804674 
L 408.657143 48.395135 
L 413.521402 48.765767 
L 417.690767 48.8895 
L 417.690767 48.8895 
" clip-path="url(#p98dc897aae)" style="fill: none; stroke: #d62728; stroke-width: 1.5; stroke-linecap: square"/>
   </g>
   <g id="line2d_8">
    <path d="M 62.599858 45.066781 
L 417.690767 45.066781 
L 417.690767 45.066781 
" clip-path="url(#p98dc897aae)" style="fill: none; stroke: #9467bd; stroke-width: 1.5; stroke-linecap: square"/>
   </g>
   <g id="line2d_9">
    <path d="M 62.599858 46.44417 
L 67.464117 46.319059 
L 72.328376 45.966454 
L 79.277317 45.201789 
L 89.005836 44.117016 
L 93.870095 43.787867 
L 98.734354 43.691051 
L 103.598613 43.844156 
L 108.462872 44.219368 
L 115.411813 44.999196 
L 124.445437 46.004233 
L 129.309696 46.339322 
L 134.173955 46.443236 
L 139.038214 46.297098 
L 143.902473 45.927455 
L 150.851415 45.151243 
L 159.885039 44.141783 
L 164.749298 43.800804 
L 169.613557 43.689807 
L 174.477816 43.828957 
L 179.342075 44.192975 
L 186.291016 44.965454 
L 196.019534 46.040742 
L 200.883793 46.357861 
L 205.748052 46.440437 
L 210.612311 46.27347 
L 215.47657 45.88729 
L 223.120406 45.016083 
L 231.459136 44.104845 
L 236.323395 43.781687 
L 241.187654 43.691984 
L 246.051913 43.852033 
L 250.916172 44.232757 
L 258.560007 45.100584 
L 266.898737 46.016546 
L 271.762996 46.345695 
L 276.627255 46.44251 
L 281.491514 46.289406 
L 286.355773 45.914194 
L 293.304715 45.134366 
L 302.338339 44.129329 
L 307.202598 43.79424 
L 312.066857 43.690326 
L 316.931116 43.836464 
L 321.795375 44.206107 
L 328.744316 44.982318 
L 337.77794 45.991779 
L 342.642199 46.332758 
L 347.506458 46.443755 
L 352.370717 46.304605 
L 357.234976 45.940587 
L 364.183918 45.168108 
L 373.912436 44.09282 
L 378.776695 43.775701 
L 383.640954 43.693124 
L 388.505213 43.860092 
L 393.369472 44.246271 
L 401.013308 45.117479 
L 409.352037 46.028716 
L 414.216296 46.351875 
L 417.690767 46.441577 
L 417.690767 46.441577 
" clip-path="url(#p98dc897aae)" style="fill: none; stroke: #8c564b; stroke-width: 1.5; stroke-linecap: square"/>
   </g>
   <g id="patch_3">
    <path d="M 44.845313 82.933562 
L 44.845313 7.2 
" style="fill: none; stroke: #000000; stroke-width: 0.8; stroke-linejoin: miter; stroke-linecap: square"/>
   </g>
   <g id="patch_4">
    <path d="M 435.445312 82.933562 
L 435.445312 7.2 
" style="fill: none; stroke: #000000; stroke-width: 0.8; stroke-linejoin: miter; stroke-linecap: square"/>
   </g>
   <g id="patch_5">
    <path d="M 44.845313 82.933562 
L 435.445312 82.933562 
" style="fill: none; stroke: #000000; stroke-width: 0.8; stroke-linejoin: miter; stroke-linecap: square"/>
   </g>
   <g id="patch_6">
    <path d="M 44.845313 7.2 
L 435.445312 7.2 
" style="fill: none; stroke: #000000; stroke-width: 0.8; stroke-linejoin: miter; stroke-linecap: square"/>
   </g>
   <g id="legend_1">
    <g id="patch_7">
     <path d="M 137.845312 127.863168 
L 428.445312 127.863168 
Q 430.445312 127.863168 430.445312 125.863168 
L 430.445312 97.506918 
Q 430.445312 95.506918 428.445312 95.506918 
L 137.845312 95.506918 
Q 135.845312 95.506918 135.845312 97.506918 
L 135.845312 125.863168 
Q 135.845312 127.863168 137.845312 127.863168 
z
" style="fill: #ffffff; opacity: 0.8; stroke: #cccccc; stroke-linejoin: miter"/>
    </g>
    <g id="line2d_10">
     <path d="M 139.845312 103.605355 
L 149.845312 103.605355 
L 159.845312 103.605355 
" style="fill: none; stroke: #1f77b4; stroke-width: 1.5; stroke-linecap: square"/>
    </g>
    <g id="text_4">
     <!-- $a_0$ -->
     <g transform="translate(167.845312 107.105355) scale(0.1 -0.1)">
      <defs>
       <path id="DejaVuSans-Oblique-61" d="M 3438 1997 
L 3047 0 
L 2472 0 
L 2578 531 
Q 2325 219 2001 64 
Q 1678 -91 1281 -91 
Q 834 -91 548 182 
Q 263 456 263 884 
Q 263 1497 752 1853 
Q 1241 2209 2100 2209 
L 2900 2209 
L 2931 2363 
Q 2938 2388 2941 2417 
Q 2944 2447 2944 2509 
Q 2944 2788 2717 2942 
Q 2491 3097 2081 3097 
Q 1800 3097 1504 3025 
Q 1209 2953 897 2809 
L 997 3341 
Q 1322 3463 1633 3523 
Q 1944 3584 2234 3584 
Q 2853 3584 3176 3315 
Q 3500 3047 3500 2534 
Q 3500 2431 3484 2292 
Q 3469 2153 3438 1997 
z
M 2816 1759 
L 2241 1759 
Q 1534 1759 1195 1570 
Q 856 1381 856 984 
Q 856 709 1029 553 
Q 1203 397 1509 397 
Q 1978 397 2328 733 
Q 2678 1069 2791 1631 
L 2816 1759 
z
" transform="scale(0.015625)"/>
      </defs>
      <use xlink:href="#DejaVuSans-Oblique-61"/>
      <use xlink:href="#DejaVuSans-30" transform="translate(61.279297 -16.40625) scale(0.7)"/>
     </g>
    </g>
    <g id="line2d_11">
     <path d="M 139.845312 118.28348 
L 149.845312 118.28348 
L 159.845312 118.28348 
" style="fill: none; stroke: #ff7f0e; stroke-width: 1.5; stroke-linecap: square"/>
    </g>
    <g id="text_5">
     <!-- $a_1\cos(1\omega t)$ -->
     <g transform="translate(167.845312 121.78348) scale(0.1 -0.1)">
      <defs>
       <path id="DejaVuSans-31" d="M 794 531 
L 1825 531 
L 1825 4091 
L 703 3866 
L 703 4441 
L 1819 4666 
L 2450 4666 
L 2450 531 
L 3481 531 
L 3481 0 
L 794 0 
L 794 531 
z
" transform="scale(0.015625)"/>
       <path id="DejaVuSans-63" d="M 3122 3366 
L 3122 2828 
Q 2878 2963 2633 3030 
Q 2388 3097 2138 3097 
Q 1578 3097 1268 2742 
Q 959 2388 959 1747 
Q 959 1106 1268 751 
Q 1578 397 2138 397 
Q 2388 397 2633 464 
Q 2878 531 3122 666 
L 3122 134 
Q 2881 22 2623 -34 
Q 2366 -91 2075 -91 
Q 1284 -91 818 406 
Q 353 903 353 1747 
Q 353 2603 823 3093 
Q 1294 3584 2113 3584 
Q 2378 3584 2631 3529 
Q 2884 3475 3122 3366 
z
" transform="scale(0.015625)"/>
       <path id="DejaVuSans-6f" d="M 1959 3097 
Q 1497 3097 1228 2736 
Q 959 2375 959 1747 
Q 959 1119 1226 758 
Q 1494 397 1959 397 
Q 2419 397 2687 759 
Q 2956 1122 2956 1747 
Q 2956 2369 2687 2733 
Q 2419 3097 1959 3097 
z
M 1959 3584 
Q 2709 3584 3137 3096 
Q 3566 2609 3566 1747 
Q 3566 888 3137 398 
Q 2709 -91 1959 -91 
Q 1206 -91 779 398 
Q 353 888 353 1747 
Q 353 2609 779 3096 
Q 1206 3584 1959 3584 
z
" transform="scale(0.015625)"/>
       <path id="DejaVuSans-73" d="M 2834 3397 
L 2834 2853 
Q 2591 2978 2328 3040 
Q 2066 3103 1784 3103 
Q 1356 3103 1142 2972 
Q 928 2841 928 2578 
Q 928 2378 1081 2264 
Q 1234 2150 1697 2047 
L 1894 2003 
Q 2506 1872 2764 1633 
Q 3022 1394 3022 966 
Q 3022 478 2636 193 
Q 2250 -91 1575 -91 
Q 1294 -91 989 -36 
Q 684 19 347 128 
L 347 722 
Q 666 556 975 473 
Q 1284 391 1588 391 
Q 1994 391 2212 530 
Q 2431 669 2431 922 
Q 2431 1156 2273 1281 
Q 2116 1406 1581 1522 
L 1381 1569 
Q 847 1681 609 1914 
Q 372 2147 372 2553 
Q 372 3047 722 3315 
Q 1072 3584 1716 3584 
Q 2034 3584 2315 3537 
Q 2597 3491 2834 3397 
z
" transform="scale(0.015625)"/>
       <path id="DejaVuSans-28" d="M 1984 4856 
Q 1566 4138 1362 3434 
Q 1159 2731 1159 2009 
Q 1159 1288 1364 580 
Q 1569 -128 1984 -844 
L 1484 -844 
Q 1016 -109 783 600 
Q 550 1309 550 2009 
Q 550 2706 781 3412 
Q 1013 4119 1484 4856 
L 1984 4856 
z
" transform="scale(0.015625)"/>
       <path id="DejaVuSans-Oblique-3c9" d="M 1369 -91 
Q 72 -91 434 1766 
Q 575 2500 1256 3500 
L 1875 3500 
Q 1231 2500 1088 1750 
Q 819 397 1519 397 
Q 2166 397 2478 2078 
L 3009 2078 
Q 2669 388 3316 397 
Q 4013 403 4275 1750 
Q 4419 2500 4169 3500 
L 4788 3500 
Q 5075 2500 4934 1766 
Q 4578 -94 3278 -91 
Q 2428 -88 2503 844 
Q 2194 -91 1369 -91 
z
" transform="scale(0.015625)"/>
       <path id="DejaVuSans-Oblique-74" d="M 2706 3500 
L 2619 3053 
L 1472 3053 
L 1100 1153 
Q 1081 1047 1072 975 
Q 1063 903 1063 863 
Q 1063 663 1183 572 
Q 1303 481 1569 481 
L 2150 481 
L 2053 0 
L 1503 0 
Q 991 0 739 200 
Q 488 400 488 806 
Q 488 878 497 964 
Q 506 1050 525 1153 
L 897 3053 
L 409 3053 
L 500 3500 
L 978 3500 
L 1172 4494 
L 1747 4494 
L 1556 3500 
L 2706 3500 
z
" transform="scale(0.015625)"/>
       <path id="DejaVuSans-29" d="M 513 4856 
L 1013 4856 
Q 1481 4119 1714 3412 
Q 1947 2706 1947 2009 
Q 1947 1309 1714 600 
Q 1481 -109 1013 -844 
L 513 -844 
Q 928 -128 1133 580 
Q 1338 1288 1338 2009 
Q 1338 2731 1133 3434 
Q 928 4138 513 4856 
z
" transform="scale(0.015625)"/>
      </defs>
      <use xlink:href="#DejaVuSans-Oblique-61" transform="translate(0 0.125)"/>
      <use xlink:href="#DejaVuSans-31" transform="translate(61.279297 -16.28125) scale(0.7)"/>
      <use xlink:href="#DejaVuSans-63" transform="translate(108.549805 0.125)"/>
      <use xlink:href="#DejaVuSans-6f" transform="translate(163.530273 0.125)"/>
      <use xlink:href="#DejaVuSans-73" transform="translate(224.711914 0.125)"/>
      <use xlink:href="#DejaVuSans-28" transform="translate(276.811523 0.125)"/>
      <use xlink:href="#DejaVuSans-31" transform="translate(315.825195 0.125)"/>
      <use xlink:href="#DejaVuSans-Oblique-3c9" transform="translate(379.448242 0.125)"/>
      <use xlink:href="#DejaVuSans-Oblique-74" transform="translate(463.188477 0.125)"/>
      <use xlink:href="#DejaVuSans-29" transform="translate(502.397461 0.125)"/>
     </g>
    </g>
    <g id="line2d_12">
     <path d="M 242.045312 103.605355 
L 252.045312 103.605355 
L 262.045312 103.605355 
" style="fill: none; stroke: #2ca02c; stroke-width: 1.5; stroke-linecap: square"/>
    </g>
    <g id="text_6">
     <!-- $a_2\cos(2\omega t)$ -->
     <g transform="translate(270.045312 107.105355) scale(0.1 -0.1)">
      <use xlink:href="#DejaVuSans-Oblique-61" transform="translate(0 0.125)"/>
      <use xlink:href="#DejaVuSans-32" transform="translate(61.279297 -16.28125) scale(0.7)"/>
      <use xlink:href="#DejaVuSans-63" transform="translate(108.549805 0.125)"/>
      <use xlink:href="#DejaVuSans-6f" transform="translate(163.530273 0.125)"/>
      <use xlink:href="#DejaVuSans-73" transform="translate(224.711914 0.125)"/>
      <use xlink:href="#DejaVuSans-28" transform="translate(276.811523 0.125)"/>
      <use xlink:href="#DejaVuSans-32" transform="translate(315.825195 0.125)"/>
      <use xlink:href="#DejaVuSans-Oblique-3c9" transform="translate(379.448242 0.125)"/>
      <use xlink:href="#DejaVuSans-Oblique-74" transform="translate(463.188477 0.125)"/>
      <use xlink:href="#DejaVuSans-29" transform="translate(502.397461 0.125)"/>
     </g>
    </g>
    <g id="line2d_13">
     <path d="M 242.045312 118.28348 
L 252.045312 118.28348 
L 262.045312 118.28348 
" style="fill: none; stroke: #d62728; stroke-width: 1.5; stroke-linecap: square"/>
    </g>
    <g id="text_7">
     <!-- $a_3\cos(3\omega t)$ -->
     <g transform="translate(270.045312 121.78348) scale(0.1 -0.1)">
      <defs>
       <path id="DejaVuSans-33" d="M 2597 2516 
Q 3050 2419 3304 2112 
Q 3559 1806 3559 1356 
Q 3559 666 3084 287 
Q 2609 -91 1734 -91 
Q 1441 -91 1130 -33 
Q 819 25 488 141 
L 488 750 
Q 750 597 1062 519 
Q 1375 441 1716 441 
Q 2309 441 2620 675 
Q 2931 909 2931 1356 
Q 2931 1769 2642 2001 
Q 2353 2234 1838 2234 
L 1294 2234 
L 1294 2753 
L 1863 2753 
Q 2328 2753 2575 2939 
Q 2822 3125 2822 3475 
Q 2822 3834 2567 4026 
Q 2313 4219 1838 4219 
Q 1578 4219 1281 4162 
Q 984 4106 628 3988 
L 628 4550 
Q 988 4650 1302 4700 
Q 1616 4750 1894 4750 
Q 2613 4750 3031 4423 
Q 3450 4097 3450 3541 
Q 3450 3153 3228 2886 
Q 3006 2619 2597 2516 
z
" transform="scale(0.015625)"/>
      </defs>
      <use xlink:href="#DejaVuSans-Oblique-61" transform="translate(0 0.125)"/>
      <use xlink:href="#DejaVuSans-33" transform="translate(61.279297 -16.28125) scale(0.7)"/>
      <use xlink:href="#DejaVuSans-63" transform="translate(108.549805 0.125)"/>
      <use xlink:href="#DejaVuSans-6f" transform="translate(163.530273 0.125)"/>
      <use xlink:href="#DejaVuSans-73" transform="translate(224.711914 0.125)"/>
      <use xlink:href="#DejaVuSans-28" transform="translate(276.811523 0.125)"/>
      <use xlink:href="#DejaVuSans-33" transform="translate(315.825195 0.125)"/>
      <use xlink:href="#DejaVuSans-Oblique-3c9" transform="translate(379.448242 0.125)"/>
      <use xlink:href="#DejaVuSans-Oblique-74" transform="translate(463.188477 0.125)"/>
      <use xlink:href="#DejaVuSans-29" transform="translate(502.397461 0.125)"/>
     </g>
    </g>
    <g id="line2d_14">
     <path d="M 344.245312 103.605355 
L 354.245312 103.605355 
L 364.245312 103.605355 
" style="fill: none; stroke: #9467bd; stroke-width: 1.5; stroke-linecap: square"/>
    </g>
    <g id="text_8">
     <!-- $a_4\cos(4\omega t)$ -->
     <g transform="translate(372.245312 107.105355) scale(0.1 -0.1)">
      <defs>
       <path id="DejaVuSans-34" d="M 2419 4116 
L 825 1625 
L 2419 1625 
L 2419 4116 
z
M 2253 4666 
L 3047 4666 
L 3047 1625 
L 3713 1625 
L 3713 1100 
L 3047 1100 
L 3047 0 
L 2419 0 
L 2419 1100 
L 313 1100 
L 313 1709 
L 2253 4666 
z
" transform="scale(0.015625)"/>
      </defs>
      <use xlink:href="#DejaVuSans-Oblique-61" transform="translate(0 0.125)"/>
      <use xlink:href="#DejaVuSans-34" transform="translate(61.279297 -16.28125) scale(0.7)"/>
      <use xlink:href="#DejaVuSans-63" transform="translate(108.549805 0.125)"/>
      <use xlink:href="#DejaVuSans-6f" transform="translate(163.530273 0.125)"/>
      <use xlink:href="#DejaVuSans-73" transform="translate(224.711914 0.125)"/>
      <use xlink:href="#DejaVuSans-28" transform="translate(276.811523 0.125)"/>
      <use xlink:href="#DejaVuSans-34" transform="translate(315.825195 0.125)"/>
      <use xlink:href="#DejaVuSans-Oblique-3c9" transform="translate(379.448242 0.125)"/>
      <use xlink:href="#DejaVuSans-Oblique-74" transform="translate(463.188477 0.125)"/>
      <use xlink:href="#DejaVuSans-29" transform="translate(502.397461 0.125)"/>
     </g>
    </g>
    <g id="line2d_15">
     <path d="M 344.245312 118.28348 
L 354.245312 118.28348 
L 364.245312 118.28348 
" style="fill: none; stroke: #8c564b; stroke-width: 1.5; stroke-linecap: square"/>
    </g>
    <g id="text_9">
     <!-- $a_5\cos(5\omega t)$ -->
     <g transform="translate(372.245312 121.78348) scale(0.1 -0.1)">
      <use xlink:href="#DejaVuSans-Oblique-61" transform="translate(0 0.125)"/>
      <use xlink:href="#DejaVuSans-35" transform="translate(61.279297 -16.28125) scale(0.7)"/>
      <use xlink:href="#DejaVuSans-63" transform="translate(108.549805 0.125)"/>
      <use xlink:href="#DejaVuSans-6f" transform="translate(163.530273 0.125)"/>
      <use xlink:href="#DejaVuSans-73" transform="translate(224.711914 0.125)"/>
      <use xlink:href="#DejaVuSans-28" transform="translate(276.811523 0.125)"/>
      <use xlink:href="#DejaVuSans-35" transform="translate(315.825195 0.125)"/>
      <use xlink:href="#DejaVuSans-Oblique-3c9" transform="translate(379.448242 0.125)"/>
      <use xlink:href="#DejaVuSans-Oblique-74" transform="translate(463.188477 0.125)"/>
      <use xlink:href="#DejaVuSans-29" transform="translate(502.397461 0.125)"/>
     </g>
    </g>
   </g>
  </g>
 </g>
 <defs>
  <clipPath id="p98dc897aae">
   <rect x="44.845313" y="7.2" width="390.6" height="75.733562"/>
  </clipPath>
 </defs>
</svg>
