<?xml version="1.0" encoding="utf-8" standalone="no"?>
<!DOCTYPE svg PUBLIC "-//W3C//DTD SVG 1.1//EN"
  "http://www.w3.org/Graphics/SVG/1.1/DTD/svg11.dtd">
<svg xmlns:xlink="http://www.w3.org/1999/xlink" width="291.6pt" height="297.04902pt" viewBox="0 0 291.6 297.04902" xmlns="http://www.w3.org/2000/svg" version="1.1">
 <metadata>
  <rdf:RDF xmlns:dc="http://purl.org/dc/elements/1.1/" xmlns:cc="http://creativecommons.org/ns#" xmlns:rdf="http://www.w3.org/1999/02/22-rdf-syntax-ns#">
   <cc:Work>
    <dc:type rdf:resource="http://purl.org/dc/dcmitype/StillImage"/>
    <dc:date>2024-12-07T14:56:28.410211</dc:date>
    <dc:format>image/svg+xml</dc:format>
    <dc:creator>
     <cc:Agent>
      <dc:title>Matplotlib v3.9.2, https://matplotlib.org/</dc:title>
     </cc:Agent>
    </dc:creator>
   </cc:Work>
  </rdf:RDF>
 </metadata>
 <defs>
  <style type="text/css">*{stroke-linejoin: round; stroke-linecap: butt}</style>
 </defs>
 <g id="figure_1">
  <g id="patch_1">
   <path d="M 0 297.04902 
L 291.6 297.04902 
L 291.6 0 
L 0 0 
z
" style="fill: #ffffff"/>
  </g>
  <g id="patch_2">
   <path d="M 7.2 284.4 
L 284.4 284.4 
L 284.4 7.2 
L 7.2 7.2 
z
" style="fill: #ffffff"/>
  </g>
  <g id="pane3d_1">
   <g id="patch_3">
    <path d="M 28.130512 216.051364 
L 119.671005 139.320307 
L 118.398504 28.660407 
L 22.477327 98.659314 
" style="fill: #f2f2f2; opacity: 0.5; stroke: #f2f2f2; stroke-linejoin: miter"/>
   </g>
  </g>
  <g id="pane3d_2">
   <g id="patch_4">
    <path d="M 119.671005 139.320307 
L 266.560834 182.015381 
L 271.802814 67.543928 
L 118.398504 28.660407 
" style="fill: #e6e6e6; opacity: 0.5; stroke: #e6e6e6; stroke-linejoin: miter"/>
   </g>
  </g>
  <g id="pane3d_3">
   <g id="patch_5">
    <path d="M 28.130512 216.051364 
L 183.840905 266.906378 
L 266.560834 182.015381 
L 119.671005 139.320307 
" style="fill: #ececec; opacity: 0.5; stroke: #ececec; stroke-linejoin: miter"/>
   </g>
  </g>
  <g id="grid3d_1">
   <g id="Line3DCollection_1">
    <path d="M 37.56115 219.13141 
L 128.604394 141.916891 
L 127.709604 31.0205 
" style="fill: none; stroke: #b0b0b0; stroke-width: 0.8"/>
    <path d="M 53.889117 224.464124 
L 144.060124 146.409261 
L 143.824456 35.105145 
" style="fill: none; stroke: #b0b0b0; stroke-width: 0.8"/>
    <path d="M 70.40297 229.857548 
L 159.677238 150.94854 
L 160.114843 39.234283 
" style="fill: none; stroke: #b0b0b0; stroke-width: 0.8"/>
    <path d="M 87.105901 235.312726 
L 175.45828 155.535466 
L 176.583651 43.408646 
" style="fill: none; stroke: #b0b0b0; stroke-width: 0.8"/>
    <path d="M 104.001178 240.830723 
L 191.405842 160.170792 
L 193.233825 47.62898 
" style="fill: none; stroke: #b0b0b0; stroke-width: 0.8"/>
    <path d="M 121.092142 246.412632 
L 207.522575 164.85529 
L 210.06838 51.896049 
" style="fill: none; stroke: #b0b0b0; stroke-width: 0.8"/>
    <path d="M 138.382212 252.059569 
L 223.811186 169.589746 
L 227.090394 56.210633 
" style="fill: none; stroke: #b0b0b0; stroke-width: 0.8"/>
    <path d="M 155.874889 257.772677 
L 240.274437 174.374964 
L 244.303016 60.573531 
" style="fill: none; stroke: #b0b0b0; stroke-width: 0.8"/>
    <path d="M 173.573753 263.553126 
L 256.915154 179.211763 
L 261.709466 64.985558 
" style="fill: none; stroke: #b0b0b0; stroke-width: 0.8"/>
   </g>
  </g>
  <g id="grid3d_2">
   <g id="Line3DCollection_2">
    <path d="M 29.110514 93.818716 
L 34.438425 210.763945 
L 189.564484 261.032578 
" style="fill: none; stroke: #b0b0b0; stroke-width: 0.8"/>
    <path d="M 48.852415 79.411975 
L 53.231823 195.010947 
L 206.596287 243.553759 
" style="fill: none; stroke: #b0b0b0; stroke-width: 0.8"/>
    <path d="M 67.910016 65.504606 
L 71.401658 179.780631 
L 223.033617 226.685014 
" style="fill: none; stroke: #b0b0b0; stroke-width: 0.8"/>
    <path d="M 86.318287 52.071088 
L 88.978459 165.047407 
L 238.907065 210.394951 
" style="fill: none; stroke: #b0b0b0; stroke-width: 0.8"/>
    <path d="M 104.109861 39.087608 
L 105.990794 150.787331 
L 254.245157 194.654295 
" style="fill: none; stroke: #b0b0b0; stroke-width: 0.8"/>
   </g>
  </g>
  <g id="grid3d_3"/>
  <g id="axis3d_1">
   <g id="line2d_1">
    <path d="M 28.130512 216.051364 
L 183.840905 266.906378 
" style="fill: none; stroke: #000000; stroke-width: 0.8; stroke-linecap: square"/>
   </g>
   <g id="xtick_1">
    <g id="line2d_2">
     <path d="M 38.35395 218.45903 
L 35.972149 220.479055 
" style="fill: none; stroke: #000000; stroke-width: 0.8; stroke-linecap: square"/>
    </g>
    <g id="text_1">
     <!-- −20 -->
     <g transform="translate(19.480876 242.438223) scale(0.1 -0.1)">
      <defs>
       <path id="DejaVuSans-2212" d="M 678 2272 
L 4684 2272 
L 4684 1741 
L 678 1741 
L 678 2272 
z
" transform="scale(0.015625)"/>
       <path id="DejaVuSans-32" d="M 1228 531 
L 3431 531 
L 3431 0 
L 469 0 
L 469 531 
Q 828 903 1448 1529 
Q 2069 2156 2228 2338 
Q 2531 2678 2651 2914 
Q 2772 3150 2772 3378 
Q 2772 3750 2511 3984 
Q 2250 4219 1831 4219 
Q 1534 4219 1204 4116 
Q 875 4013 500 3803 
L 500 4441 
Q 881 4594 1212 4672 
Q 1544 4750 1819 4750 
Q 2544 4750 2975 4387 
Q 3406 4025 3406 3419 
Q 3406 3131 3298 2873 
Q 3191 2616 2906 2266 
Q 2828 2175 2409 1742 
Q 1991 1309 1228 531 
z
" transform="scale(0.015625)"/>
       <path id="DejaVuSans-30" d="M 2034 4250 
Q 1547 4250 1301 3770 
Q 1056 3291 1056 2328 
Q 1056 1369 1301 889 
Q 1547 409 2034 409 
Q 2525 409 2770 889 
Q 3016 1369 3016 2328 
Q 3016 3291 2770 3770 
Q 2525 4250 2034 4250 
z
M 2034 4750 
Q 2819 4750 3233 4129 
Q 3647 3509 3647 2328 
Q 3647 1150 3233 529 
Q 2819 -91 2034 -91 
Q 1250 -91 836 529 
Q 422 1150 422 2328 
Q 422 3509 836 4129 
Q 1250 4750 2034 4750 
z
" transform="scale(0.015625)"/>
      </defs>
      <use xlink:href="#DejaVuSans-2212"/>
      <use xlink:href="#DejaVuSans-32" x="83.789062"/>
      <use xlink:href="#DejaVuSans-30" x="147.412109"/>
     </g>
    </g>
   </g>
   <g id="xtick_2">
    <g id="line2d_3">
     <path d="M 54.674682 223.784114 
L 52.314596 225.827078 
" style="fill: none; stroke: #000000; stroke-width: 0.8; stroke-linecap: square"/>
    </g>
    <g id="text_2">
     <!-- −15 -->
     <g transform="translate(35.824671 247.879302) scale(0.1 -0.1)">
      <defs>
       <path id="DejaVuSans-31" d="M 794 531 
L 1825 531 
L 1825 4091 
L 703 3866 
L 703 4441 
L 1819 4666 
L 2450 4666 
L 2450 531 
L 3481 531 
L 3481 0 
L 794 0 
L 794 531 
z
" transform="scale(0.015625)"/>
       <path id="DejaVuSans-35" d="M 691 4666 
L 3169 4666 
L 3169 4134 
L 1269 4134 
L 1269 2991 
Q 1406 3038 1543 3061 
Q 1681 3084 1819 3084 
Q 2600 3084 3056 2656 
Q 3513 2228 3513 1497 
Q 3513 744 3044 326 
Q 2575 -91 1722 -91 
Q 1428 -91 1123 -41 
Q 819 9 494 109 
L 494 744 
Q 775 591 1075 516 
Q 1375 441 1709 441 
Q 2250 441 2565 725 
Q 2881 1009 2881 1497 
Q 2881 1984 2565 2268 
Q 2250 2553 1709 2553 
Q 1456 2553 1204 2497 
Q 953 2441 691 2322 
L 691 4666 
z
" transform="scale(0.015625)"/>
      </defs>
      <use xlink:href="#DejaVuSans-2212"/>
      <use xlink:href="#DejaVuSans-31" x="83.789062"/>
      <use xlink:href="#DejaVuSans-35" x="147.412109"/>
     </g>
    </g>
   </g>
   <g id="xtick_3">
    <g id="line2d_4">
     <path d="M 71.181084 229.169778 
L 68.843364 231.236075 
" style="fill: none; stroke: #000000; stroke-width: 0.8; stroke-linecap: square"/>
    </g>
    <g id="text_3">
     <!-- −10 -->
     <g transform="translate(52.355204 253.382548) scale(0.1 -0.1)">
      <use xlink:href="#DejaVuSans-2212"/>
      <use xlink:href="#DejaVuSans-31" x="83.789062"/>
      <use xlink:href="#DejaVuSans-30" x="147.412109"/>
     </g>
    </g>
   </g>
   <g id="xtick_4">
    <g id="line2d_5">
     <path d="M 87.876342 234.617061 
L 85.561657 236.707093 
" style="fill: none; stroke: #000000; stroke-width: 0.8; stroke-linecap: square"/>
    </g>
    <g id="text_4">
     <!-- −5 -->
     <g transform="translate(72.256944 258.949034) scale(0.1 -0.1)">
      <use xlink:href="#DejaVuSans-2212"/>
      <use xlink:href="#DejaVuSans-35" x="83.789062"/>
     </g>
    </g>
   </g>
   <g id="xtick_5">
    <g id="line2d_6">
     <path d="M 104.763717 240.127027 
L 102.472753 242.241205 
" style="fill: none; stroke: #000000; stroke-width: 0.8; stroke-linecap: square"/>
    </g>
    <g id="text_5">
     <!-- 0 -->
     <g transform="translate(93.360528 264.579855) scale(0.1 -0.1)">
      <use xlink:href="#DejaVuSans-30"/>
     </g>
    </g>
   </g>
   <g id="xtick_6">
    <g id="line2d_7">
     <path d="M 121.846544 245.700765 
L 119.580008 247.83951 
" style="fill: none; stroke: #000000; stroke-width: 0.8; stroke-linecap: square"/>
    </g>
    <g id="text_6">
     <!-- 5 -->
     <g transform="translate(110.470888 270.276134) scale(0.1 -0.1)">
      <use xlink:href="#DejaVuSans-35"/>
     </g>
    </g>
   </g>
   <g id="xtick_7">
    <g id="line2d_8">
     <path d="M 139.128235 251.339387 
L 136.886853 253.50313 
" style="fill: none; stroke: #000000; stroke-width: 0.8; stroke-linecap: square"/>
    </g>
    <g id="text_7">
     <!-- 10 -->
     <g transform="translate(124.600066 276.039018) scale(0.1 -0.1)">
      <use xlink:href="#DejaVuSans-31"/>
      <use xlink:href="#DejaVuSans-30" x="63.623047"/>
     </g>
    </g>
   </g>
   <g id="xtick_8">
    <g id="line2d_9">
     <path d="M 156.612284 257.044035 
L 154.396804 259.233216 
" style="fill: none; stroke: #000000; stroke-width: 0.8; stroke-linecap: square"/>
    </g>
    <g id="text_8">
     <!-- 15 -->
     <g transform="translate(142.114093 281.869683) scale(0.1 -0.1)">
      <use xlink:href="#DejaVuSans-31"/>
      <use xlink:href="#DejaVuSans-35" x="63.623047"/>
     </g>
    </g>
   </g>
   <g id="xtick_9">
    <g id="line2d_10">
     <path d="M 174.302265 262.815873 
L 172.113455 265.030945 
" style="fill: none; stroke: #000000; stroke-width: 0.8; stroke-linecap: square"/>
    </g>
    <g id="text_9">
     <!-- 20 -->
     <g transform="translate(159.835331 287.769332) scale(0.1 -0.1)">
      <use xlink:href="#DejaVuSans-32"/>
      <use xlink:href="#DejaVuSans-30" x="63.623047"/>
     </g>
    </g>
   </g>
   <g id="text_10">
    <!-- $x$ -->
    <g transform="translate(84.647166 278.828218) scale(0.1 -0.1)">
     <defs>
      <path id="DejaVuSans-Oblique-78" d="M 3841 3500 
L 2234 1784 
L 3219 0 
L 2559 0 
L 1819 1388 
L 531 0 
L -166 0 
L 1556 1844 
L 641 3500 
L 1300 3500 
L 1972 2234 
L 3144 3500 
L 3841 3500 
z
" transform="scale(0.015625)"/>
     </defs>
     <use xlink:href="#DejaVuSans-Oblique-78" transform="translate(0 0.3125)"/>
    </g>
   </g>
  </g>
  <g id="axis3d_2">
   <g id="line2d_11">
    <path d="M 266.560834 182.015381 
L 183.840905 266.906378 
" style="fill: none; stroke: #000000; stroke-width: 0.8; stroke-linecap: square"/>
   </g>
   <g id="xtick_10">
    <g id="line2d_12">
     <path d="M 188.257232 260.608963 
L 192.182369 261.880904 
" style="fill: none; stroke: #000000; stroke-width: 0.8; stroke-linecap: square"/>
    </g>
    <g id="text_11">
     <!-- 0 -->
     <g transform="translate(199.26356 282.053986) scale(0.1 -0.1)">
      <use xlink:href="#DejaVuSans-30"/>
     </g>
    </g>
   </g>
   <g id="xtick_11">
    <g id="line2d_13">
     <path d="M 205.305042 243.145055 
L 209.182055 244.372204 
" style="fill: none; stroke: #000000; stroke-width: 0.8; stroke-linecap: square"/>
    </g>
    <g id="text_12">
     <!-- 2 -->
     <g transform="translate(216.076071 264.326748) scale(0.1 -0.1)">
      <use xlink:href="#DejaVuSans-32"/>
     </g>
    </g>
   </g>
   <g id="xtick_12">
    <g id="line2d_14">
     <path d="M 221.758069 226.290448 
L 225.587896 227.47513 
" style="fill: none; stroke: #000000; stroke-width: 0.8; stroke-linecap: square"/>
    </g>
    <g id="text_13">
     <!-- 4 -->
     <g transform="translate(232.301439 247.218598) scale(0.1 -0.1)">
      <defs>
       <path id="DejaVuSans-34" d="M 2419 4116 
L 825 1625 
L 2419 1625 
L 2419 4116 
z
M 2253 4666 
L 3047 4666 
L 3047 1625 
L 3713 1625 
L 3713 1100 
L 3047 1100 
L 3047 0 
L 2419 0 
L 2419 1100 
L 313 1100 
L 313 1709 
L 2253 4666 
z
" transform="scale(0.015625)"/>
      </defs>
      <use xlink:href="#DejaVuSans-34"/>
     </g>
    </g>
   </g>
   <g id="xtick_13">
    <g id="line2d_15">
     <path d="M 237.646905 210.013802 
L 241.430475 211.158184 
" style="fill: none; stroke: #000000; stroke-width: 0.8; stroke-linecap: square"/>
    </g>
    <g id="text_14">
     <!-- 6 -->
     <g transform="translate(247.969892 230.697663) scale(0.1 -0.1)">
      <defs>
       <path id="DejaVuSans-36" d="M 2113 2584 
Q 1688 2584 1439 2293 
Q 1191 2003 1191 1497 
Q 1191 994 1439 701 
Q 1688 409 2113 409 
Q 2538 409 2786 701 
Q 3034 994 3034 1497 
Q 3034 2003 2786 2293 
Q 2538 2584 2113 2584 
z
M 3366 4563 
L 3366 3988 
Q 3128 4100 2886 4159 
Q 2644 4219 2406 4219 
Q 1781 4219 1451 3797 
Q 1122 3375 1075 2522 
Q 1259 2794 1537 2939 
Q 1816 3084 2150 3084 
Q 2853 3084 3261 2657 
Q 3669 2231 3669 1497 
Q 3669 778 3244 343 
Q 2819 -91 2113 -91 
Q 1303 -91 875 529 
Q 447 1150 447 2328 
Q 447 3434 972 4092 
Q 1497 4750 2381 4750 
Q 2619 4750 2861 4703 
Q 3103 4656 3366 4563 
z
" transform="scale(0.015625)"/>
      </defs>
      <use xlink:href="#DejaVuSans-36"/>
     </g>
    </g>
   </g>
   <g id="xtick_14">
    <g id="line2d_16">
     <path d="M 253.000082 194.28589 
L 256.738311 195.391994 
" style="fill: none; stroke: #000000; stroke-width: 0.8; stroke-linecap: square"/>
    </g>
    <g id="text_15">
     <!-- 8 -->
     <g transform="translate(263.109621 214.73422) scale(0.1 -0.1)">
      <defs>
       <path id="DejaVuSans-38" d="M 2034 2216 
Q 1584 2216 1326 1975 
Q 1069 1734 1069 1313 
Q 1069 891 1326 650 
Q 1584 409 2034 409 
Q 2484 409 2743 651 
Q 3003 894 3003 1313 
Q 3003 1734 2745 1975 
Q 2488 2216 2034 2216 
z
M 1403 2484 
Q 997 2584 770 2862 
Q 544 3141 544 3541 
Q 544 4100 942 4425 
Q 1341 4750 2034 4750 
Q 2731 4750 3128 4425 
Q 3525 4100 3525 3541 
Q 3525 3141 3298 2862 
Q 3072 2584 2669 2484 
Q 3125 2378 3379 2068 
Q 3634 1759 3634 1313 
Q 3634 634 3220 271 
Q 2806 -91 2034 -91 
Q 1263 -91 848 271 
Q 434 634 434 1313 
Q 434 1759 690 2068 
Q 947 2378 1403 2484 
z
M 1172 3481 
Q 1172 3119 1398 2916 
Q 1625 2713 2034 2713 
Q 2441 2713 2670 2916 
Q 2900 3119 2900 3481 
Q 2900 3844 2670 4047 
Q 2441 4250 2034 4250 
Q 1625 4250 1398 4047 
Q 1172 3844 1172 3481 
z
" transform="scale(0.015625)"/>
      </defs>
      <use xlink:href="#DejaVuSans-38"/>
     </g>
    </g>
   </g>
   <g id="text_16">
    <!-- $t$ -->
    <g transform="translate(252.021579 253.329672) scale(0.1 -0.1)">
     <defs>
      <path id="DejaVuSans-Oblique-74" d="M 2706 3500 
L 2619 3053 
L 1472 3053 
L 1100 1153 
Q 1081 1047 1072 975 
Q 1063 903 1063 863 
Q 1063 663 1183 572 
Q 1303 481 1569 481 
L 2150 481 
L 2053 0 
L 1503 0 
Q 991 0 739 200 
Q 488 400 488 806 
Q 488 878 497 964 
Q 506 1050 525 1153 
L 897 3053 
L 409 3053 
L 500 3500 
L 978 3500 
L 1172 4494 
L 1747 4494 
L 1556 3500 
L 2706 3500 
z
" transform="scale(0.015625)"/>
     </defs>
     <use xlink:href="#DejaVuSans-Oblique-74" transform="translate(0 0.78125)"/>
    </g>
   </g>
  </g>
  <g id="axis3d_3">
   <g id="line2d_17">
    <path d="M 266.560834 182.015381 
L 271.802814 67.543928 
" style="fill: none; stroke: #000000; stroke-width: 0.8; stroke-linecap: square"/>
   </g>
   <g id="text_17">
    <!-- $u(t, x)$ -->
    <g transform="translate(311.599536 135.333754) rotate(-87.378092) scale(0.1 -0.1)">
     <defs>
      <path id="DejaVuSans-Oblique-75" d="M 428 1388 
L 838 3500 
L 1416 3500 
L 1006 1409 
Q 975 1256 961 1147 
Q 947 1038 947 966 
Q 947 700 1109 554 
Q 1272 409 1569 409 
Q 2031 409 2368 721 
Q 2706 1034 2809 1563 
L 3194 3500 
L 3769 3500 
L 3091 0 
L 2516 0 
L 2631 550 
Q 2388 244 2052 76 
Q 1716 -91 1338 -91 
Q 878 -91 622 161 
Q 366 413 366 863 
Q 366 956 381 1097 
Q 397 1238 428 1388 
z
" transform="scale(0.015625)"/>
      <path id="DejaVuSans-28" d="M 1984 4856 
Q 1566 4138 1362 3434 
Q 1159 2731 1159 2009 
Q 1159 1288 1364 580 
Q 1569 -128 1984 -844 
L 1484 -844 
Q 1016 -109 783 600 
Q 550 1309 550 2009 
Q 550 2706 781 3412 
Q 1013 4119 1484 4856 
L 1984 4856 
z
" transform="scale(0.015625)"/>
      <path id="DejaVuSans-2c" d="M 750 794 
L 1409 794 
L 1409 256 
L 897 -744 
L 494 -744 
L 750 256 
L 750 794 
z
" transform="scale(0.015625)"/>
      <path id="DejaVuSans-29" d="M 513 4856 
L 1013 4856 
Q 1481 4119 1714 3412 
Q 1947 2706 1947 2009 
Q 1947 1309 1714 600 
Q 1481 -109 1013 -844 
L 513 -844 
Q 928 -128 1133 580 
Q 1338 1288 1338 2009 
Q 1338 2731 1133 3434 
Q 928 4138 513 4856 
z
" transform="scale(0.015625)"/>
     </defs>
     <use xlink:href="#DejaVuSans-Oblique-75" transform="translate(0 0.125)"/>
     <use xlink:href="#DejaVuSans-28" transform="translate(63.378906 0.125)"/>
     <use xlink:href="#DejaVuSans-Oblique-74" transform="translate(102.392578 0.125)"/>
     <use xlink:href="#DejaVuSans-2c" transform="translate(141.601562 0.125)"/>
     <use xlink:href="#DejaVuSans-Oblique-78" transform="translate(192.871094 0.125)"/>
     <use xlink:href="#DejaVuSans-29" transform="translate(252.050781 0.125)"/>
    </g>
   </g>
  </g>
  <g id="axes_1">
   <g id="line2d_18">
    <path d="M 43.742445 211.567295 
L 84.59792 224.663007 
L 88.460948 225.66552 
L 90.72574 226.047814 
L 92.455488 226.122895 
L 93.783112 225.964378 
L 94.842102 225.633917 
L 95.765403 225.137965 
L 96.684452 224.38323 
L 97.467743 223.467507 
L 98.245711 222.232399 
L 99.016932 220.59167 
L 99.779651 218.436642 
L 100.531721 215.631376 
L 101.27056 212.008043 
L 101.993153 207.364135 
L 102.696154 201.465179 
L 103.487136 192.663085 
L 104.243201 181.471074 
L 105.06679 165.684713 
L 106.926397 127.278488 
L 107.400895 121.870323 
L 107.78524 119.491544 
L 108.056366 118.813229 
L 108.196496 118.758091 
L 108.339655 118.893927 
L 108.634862 119.733788 
L 109.098539 122.355784 
L 109.74986 128.091188 
L 110.600879 137.926535 
L 112.855464 168.029326 
L 114.35872 186.362622 
L 115.635746 199.26043 
L 116.712653 208.062458 
L 117.759342 214.928861 
L 118.782774 220.249377 
L 119.788772 224.367266 
L 120.781916 227.562625 
L 121.765695 230.055628 
L 122.881874 232.260594 
L 123.992071 233.958751 
L 125.236379 235.434593 
L 126.61544 236.697191 
L 128.130189 237.778073 
L 130.056935 238.859703 
L 132.534908 239.974583 
L 136.256964 241.374552 
L 143.310609 243.743005 
L 178.089145 254.999595 
L 179.224505 255.36664 
L 179.224505 255.36664 
" clip-path="url(#p518a6e9026)" style="fill: none; stroke: #1f77b4; stroke-width: 1.5; stroke-linecap: square"/>
   </g>
   <g id="line2d_19">
    <path d="M 53.178623 203.584219 
L 103.917462 219.677564 
L 107.653734 220.629656 
L 109.923956 221.005337 
L 111.659529 221.076072 
L 112.993303 220.914926 
L 114.058785 220.583036 
L 114.989361 220.086522 
L 115.917682 219.332086 
L 116.710996 218.41752 
L 117.501452 217.184639 
L 118.288291 215.547506 
L 119.070598 213.397817 
L 119.847274 210.600107 
L 120.617034 206.987143 
L 121.378424 202.357148 
L 122.129907 196.47652 
L 122.992271 187.702686 
L 123.838161 176.547705 
L 124.787521 160.81511 
L 126.952333 122.544768 
L 127.4705 117.155827 
L 127.874645 114.785178 
L 128.151964 114.108847 
L 128.292996 114.053623 
L 128.435584 114.188646 
L 128.725264 115.024722 
L 129.170133 117.635883 
L 129.779096 123.348439 
L 130.556599 133.145462 
L 132.585147 163.134066 
L 133.951317 181.399278 
L 135.132733 194.249472 
L 136.145153 203.018896 
L 137.142292 209.859581 
L 138.128103 215.159784 
L 139.105758 219.261511 
L 140.077674 222.443861 
L 141.045643 224.926238 
L 142.148719 227.121229 
L 143.24972 228.811112 
L 144.487034 230.279096 
L 145.861228 231.534218 
L 147.372996 232.607897 
L 149.29821 233.681329 
L 151.776333 234.78657 
L 155.500697 236.172952 
L 162.560779 238.516554 
L 187.887958 246.62129 
L 187.887958 246.62129 
" clip-path="url(#p518a6e9026)" style="fill: none; stroke: #ff7f0e; stroke-width: 1.5; stroke-linecap: square"/>
   </g>
   <g id="line2d_20">
    <path d="M 62.45496 195.736203 
L 122.768029 214.669073 
L 126.64384 215.646971 
L 128.919249 216.016158 
L 130.66043 216.082635 
L 132.000149 215.918925 
L 133.071925 215.585655 
L 134.009571 215.088617 
L 134.946917 214.334517 
L 135.749997 213.421133 
L 136.552632 212.190504 
L 137.354716 210.556983 
L 138.156151 208.41264 
L 138.956868 205.622485 
L 139.756848 202.019876 
L 140.556166 197.403763 
L 141.355055 191.541411 
L 142.287223 182.795738 
L 143.220958 171.677643 
L 144.293316 155.998581 
L 146.756533 117.863461 
L 147.317375 112.493652 
L 147.740858 110.1311 
L 148.024215 109.45675 
L 148.166122 109.401445 
L 148.308143 109.535665 
L 148.592398 110.367989 
L 149.018849 112.968393 
L 149.586351 118.658254 
L 150.291908 128.417197 
L 152.099235 158.292299 
L 153.331207 176.489818 
L 154.419005 189.29267 
L 155.368263 198.029679 
L 156.316856 204.8448 
L 157.265793 210.12482 
L 158.215653 214.210494 
L 159.166738 217.379929 
L 160.119177 219.851763 
L 161.209367 222.036867 
L 162.301306 223.718554 
L 163.531702 225.178764 
L 164.901055 226.426497 
L 166.409819 227.493065 
L 168.333424 228.558412 
L 170.81155 229.654156 
L 174.537959 231.027162 
L 181.603933 233.346309 
L 196.397911 238.030725 
L 196.397911 238.030725 
" clip-path="url(#p518a6e9026)" style="fill: none; stroke: #2ca02c; stroke-width: 1.5; stroke-linecap: square"/>
   </g>
   <g id="line2d_21">
    <path d="M 71.575391 188.016811 
L 138.748165 208.938999 
L 144.094794 210.416515 
L 146.909547 210.979044 
L 148.789324 211.147881 
L 150.268446 211.070421 
L 151.480358 210.791853 
L 152.559245 210.308622 
L 153.504874 209.635569 
L 154.452428 208.649465 
L 155.266589 207.479198 
L 156.083099 205.923039 
L 156.902632 203.877454 
L 157.726079 201.21275 
L 158.554612 197.768401 
L 159.389738 193.349818 
L 160.233355 187.72978 
L 161.087745 180.661109 
L 162.101515 170.279756 
L 163.286705 155.410657 
L 166.645469 110.272765 
L 167.241189 106.13915 
L 167.532807 105.09946 
L 167.819577 104.8007 
L 167.961034 104.934127 
L 168.239967 105.76273 
L 168.648378 108.352453 
L 169.175294 114.019766 
L 169.810437 123.740866 
L 171.401244 153.503149 
L 172.501838 171.633368 
L 173.497959 184.389151 
L 174.38535 193.093934 
L 175.286376 199.883646 
L 176.199169 205.143608 
L 177.12177 209.213338 
L 178.052412 212.369953 
L 178.989596 214.831326 
L 180.067111 217.006628 
L 181.150117 218.680199 
L 182.373673 220.132716 
L 183.73821 221.373146 
L 185.243947 222.432694 
L 187.165868 223.490066 
L 189.643858 224.576452 
L 193.372055 225.936288 
L 200.443393 228.231368 
L 204.758481 229.587607 
L 204.758481 229.587607 
" clip-path="url(#p518a6e9026)" style="fill: none; stroke: #d62728; stroke-width: 1.5; stroke-linecap: square"/>
   </g>
   <g id="line2d_22">
    <path d="M 80.542207 180.362118 
L 88.938457 183.018208 
L 154.131422 203.122497 
L 161.614539 205.27637 
L 164.834593 205.989434 
L 166.98704 206.245566 
L 168.605544 206.212671 
L 169.822651 205.982651 
L 170.90766 205.561468 
L 171.860234 204.962765 
L 172.816713 204.076076 
L 173.640571 203.016997 
L 174.469199 201.602747 
L 175.30391 199.737772 
L 176.146398 197.302054 
L 176.998829 194.146345 
L 177.863929 190.088226 
L 178.745048 184.911478 
L 179.646121 178.373958 
L 180.72824 168.707345 
L 181.848983 156.604081 
L 183.346797 137.797229 
L 185.383141 112.087837 
L 186.199575 104.437412 
L 186.667156 101.585052 
L 186.9672 100.548724 
L 187.256982 100.250531 
L 187.39788 100.383174 
L 187.671591 101.208088 
L 188.062331 103.787205 
L 188.549515 109.432121 
L 189.115739 119.115622 
L 190.494611 148.765766 
L 191.466579 166.829076 
L 192.372922 179.538061 
L 193.199707 188.210806 
L 194.054124 194.975261 
L 194.931485 200.215294 
L 195.82735 204.269187 
L 196.737928 207.413073 
L 197.660127 209.86407 
L 198.725173 212.029655 
L 199.799374 213.695186 
L 201.016165 215.14009 
L 202.375911 216.373302 
L 203.878601 217.425917 
L 205.798765 218.475424 
L 208.276482 219.552588 
L 212.006221 220.899454 
L 212.975242 221.223107 
L 212.975242 221.223107 
" clip-path="url(#p518a6e9026)" style="fill: none; stroke: #9467bd; stroke-width: 1.5; stroke-linecap: square"/>
   </g>
   <g id="line2d_23">
    <path d="M 89.331406 171.557119 
L 90.859223 172.558007 
L 92.764127 173.530939 
L 95.428229 174.614719 
L 99.617867 176.044015 
L 109.5614 179.130664 
L 176.662723 199.543233 
L 181.488783 200.809881 
L 184.179868 201.299897 
L 186.070036 201.424837 
L 187.560681 201.296804 
L 188.785473 200.960398 
L 189.879599 200.407754 
L 190.842595 199.654868 
L 191.6735 198.745186 
L 192.510898 197.521432 
L 193.356556 195.898834 
L 194.212735 193.770574 
L 195.082316 191.003063 
L 195.968921 187.431417 
L 196.877018 182.856751 
L 197.811921 177.048894 
L 198.779546 169.761887 
L 199.957359 159.102601 
L 201.373624 143.952491 
L 205.049862 102.589799 
L 205.721233 97.862403 
L 206.18917 96.047728 
L 206.481882 95.750109 
L 206.622224 95.881976 
L 206.89081 96.703231 
L 207.264239 99.271821 
L 207.712525 104.89449 
L 208.211288 114.540631 
L 209.382702 144.079315 
L 210.22873 162.076105 
L 211.047146 174.738563 
L 211.814561 183.379457 
L 212.623302 190.11881 
L 213.465927 195.339038 
L 214.335569 199.377202 
L 215.226453 202.508452 
L 216.13393 204.949153 
L 217.186709 207.105104 
L 218.25223 208.762671 
L 219.46233 210.200042 
L 220.817309 211.426118 
L 221.089344 211.636161 
L 221.089344 211.636161 
" clip-path="url(#p518a6e9026)" style="fill: none; stroke: #8c564b; stroke-width: 1.5; stroke-linecap: square"/>
   </g>
   <g id="line2d_24">
    <path d="M 97.479352 137.610718 
L 98.500072 144.605277 
L 99.486319 150.02731 
L 100.446179 154.217931 
L 101.386194 157.460464 
L 102.442665 160.291241 
L 103.485497 162.431312 
L 104.518791 164.068885 
L 105.67347 165.480138 
L 106.950164 166.673978 
L 108.349951 167.681621 
L 110.127988 168.672263 
L 112.412259 169.672132 
L 115.840646 170.901276 
L 122.461339 172.986655 
L 156.268627 183.19981 
L 196.474763 195.228143 
L 200.50565 196.204894 
L 202.934216 196.575871 
L 204.695743 196.626155 
L 206.057309 196.452798 
L 207.152399 196.114469 
L 208.116371 195.615711 
L 209.087462 194.863295 
L 209.927171 193.954894 
L 210.77559 192.733469 
L 211.635082 191.114539 
L 212.508663 188.991649 
L 213.400156 186.231676 
L 214.314346 182.670315 
L 215.2571 178.109392 
L 216.235354 172.319586 
L 217.256755 165.055876 
L 218.512505 154.431593 
L 220.03873 139.332632 
L 224.014151 98.115132 
L 224.720332 93.404335 
L 225.20218 91.595662 
L 225.497742 91.298621 
L 225.637531 91.429722 
L 225.901087 92.247349 
L 226.257559 94.805487 
L 226.667759 100.406059 
L 227.100485 110.015079 
L 228.06881 139.44298 
L 228.79152 157.373638 
L 229.523818 169.989837 
L 229.921815 175.164142 
L 229.921815 175.164142 
" clip-path="url(#p518a6e9026)" style="fill: none; stroke: #e377c2; stroke-width: 1.5; stroke-linecap: square"/>
   </g>
   <g id="line2d_25">
    <path d="M 105.425511 89.392566 
L 106.75642 60.868032 
L 107.296437 54.152277 
L 107.649841 51.89585 
L 107.899159 51.247987 
L 108.028029 51.19203 
L 108.159695 51.316251 
L 108.431244 52.100777 
L 108.85789 54.563017 
L 109.457504 59.960334 
L 110.401182 71.307078 
L 114.158324 119.881882 
L 115.320216 130.954514 
L 116.302387 138.439858 
L 117.259349 144.252936 
L 118.197084 148.747078 
L 119.120461 152.221816 
L 120.162981 155.250143 
L 121.195869 157.533364 
L 122.222146 159.274187 
L 123.371454 160.767239 
L 124.644381 162.022086 
L 126.041835 163.072415 
L 127.691749 164.029466 
L 129.849096 165.00952 
L 132.897421 166.132398 
L 138.372167 167.874864 
L 157.626033 173.644162 
L 215.030264 190.653567 
L 218.798529 191.528234 
L 221.097123 191.852621 
L 222.864005 191.879628 
L 224.231442 191.680407 
L 225.332885 191.313894 
L 226.3041 190.782878 
L 227.284546 189.988695 
L 228.134471 189.03465 
L 228.995718 187.755927 
L 229.871358 186.06499 
L 230.765299 183.851653 
L 231.682466 180.978366 
L 232.628996 177.275877 
L 233.61235 172.541138 
L 234.641236 166.541498 
L 235.911632 157.619517 
L 237.269584 146.33505 
L 238.931448 130.567383 
L 239.146265 128.420336 
L 239.146265 128.420336 
" clip-path="url(#p518a6e9026)" style="fill: none; stroke: #7f7f7f; stroke-width: 1.5; stroke-linecap: square"/>
   </g>
   <g id="line2d_26">
    <path d="M 114.9223 147.522326 
L 115.777118 146.554317 
L 116.506917 145.413848 
L 117.233278 143.904515 
L 117.955316 141.927447 
L 118.671966 139.358857 
L 119.381966 136.045616 
L 120.083863 131.802256 
L 120.8904 125.386241 
L 121.681401 117.037858 
L 122.455544 106.438436 
L 123.32199 91.509887 
L 125.409302 53.789369 
L 125.888151 49.248325 
L 126.262953 47.501379 
L 126.520657 47.210679 
L 126.65184 47.334219 
L 126.918709 48.115419 
L 127.329429 50.56797 
L 127.893165 55.944701 
L 128.760519 67.249053 
L 132.19046 115.648023 
L 133.278776 126.681158 
L 134.211831 134.139659 
L 135.131258 139.93164 
L 136.040591 144.409158 
L 136.942624 147.870696 
L 137.967277 150.887077 
L 138.987454 153.160818 
L 140.004773 154.893949 
L 141.147222 156.379873 
L 142.415323 157.628121 
L 143.809749 158.672267 
L 145.458048 159.622934 
L 147.615155 160.595516 
L 150.664934 161.708679 
L 156.144118 163.434562 
L 175.415277 169.146471 
L 232.865025 185.983238 
L 236.637526 186.847269 
L 238.940092 187.165862 
L 240.711514 187.189158 
L 242.083941 186.987804 
L 243.190785 186.620267 
L 244.16816 186.089049 
L 244.590228 185.785498 
L 244.590228 185.785498 
" clip-path="url(#p518a6e9026)" style="fill: none; stroke: #bcbd22; stroke-width: 1.5; stroke-linecap: square"/>
   </g>
   <g id="line2d_27">
    <path d="M 123.234089 144.128062 
L 126.075656 144.675625 
L 127.930434 144.831161 
L 129.414626 144.736968 
L 130.527644 144.461827 
L 131.51663 144.001465 
L 132.381492 143.369502 
L 133.245655 142.450896 
L 134.108858 141.153025 
L 134.847757 139.647205 
L 135.58552 137.675199 
L 136.321926 135.113637 
L 137.056754 131.809917 
L 137.789817 127.579221 
L 138.642697 121.182986 
L 139.493204 112.86109 
L 140.342186 102.296145 
L 141.313328 87.417347 
L 143.66463 49.826769 
L 144.175869 45.301372 
L 144.563659 43.560145 
L 144.824066 43.270066 
L 144.954769 43.392933 
L 145.217039 44.170832 
L 145.612136 46.613763 
L 146.140693 51.970046 
L 146.933225 63.232279 
L 150.042356 111.456484 
L 151.058502 122.450356 
L 151.943368 129.882176 
L 152.825956 135.653192 
L 153.707402 140.114195 
L 154.588467 143.562622 
L 155.469643 146.236891 
L 156.47722 148.581455 
L 157.485597 150.365299 
L 158.621131 151.890936 
L 159.757901 153.055947 
L 161.148961 154.146491 
L 162.795227 155.129335 
L 164.824596 156.070039 
L 167.74754 157.157229 
L 172.718078 158.731036 
L 187.60171 163.109282 
L 250.383859 181.325863 
L 251.99958 181.726264 
L 251.99958 181.726264 
" clip-path="url(#p518a6e9026)" style="fill: none; stroke: #17becf; stroke-width: 1.5; stroke-linecap: square"/>
   </g>
  </g>
 </g>
 <defs>
  <clipPath id="p518a6e9026">
   <rect x="7.2" y="7.2" width="277.2" height="277.2"/>
  </clipPath>
 </defs>
</svg>
