<?xml version="1.0" encoding="utf-8" standalone="no"?>
<!DOCTYPE svg PUBLIC "-//W3C//DTD SVG 1.1//EN"
  "http://www.w3.org/Graphics/SVG/1.1/DTD/svg11.dtd">
<svg xmlns:xlink="http://www.w3.org/1999/xlink" width="427.903125pt" height="109.865997pt" viewBox="0 0 427.903125 109.865997" xmlns="http://www.w3.org/2000/svg" version="1.1">
 <metadata>
  <rdf:RDF xmlns:dc="http://purl.org/dc/elements/1.1/" xmlns:cc="http://creativecommons.org/ns#" xmlns:rdf="http://www.w3.org/1999/02/22-rdf-syntax-ns#">
   <cc:Work>
    <dc:type rdf:resource="http://purl.org/dc/dcmitype/StillImage"/>
    <dc:date>2025-01-20T08:13:38.395470</dc:date>
    <dc:format>image/svg+xml</dc:format>
    <dc:creator>
     <cc:Agent>
      <dc:title>Matplotlib v3.9.2, https://matplotlib.org/</dc:title>
     </cc:Agent>
    </dc:creator>
   </cc:Work>
  </rdf:RDF>
 </metadata>
 <defs>
  <style type="text/css">*{stroke-linejoin: round; stroke-linecap: butt}</style>
 </defs>
 <g id="figure_1">
  <g id="patch_1">
   <path d="M 0 109.865997 
L 427.903125 109.865997 
L 427.903125 0 
L 0 0 
z
" style="fill: #ffffff"/>
  </g>
  <g id="axes_1">
   <g id="patch_2">
    <path d="M 30.103125 102.665997 
L 420.703125 102.665997 
L 420.703125 7.2 
L 30.103125 7.2 
z
" style="fill: #ffffff"/>
   </g>
   <g id="matplotlib.axis_1"/>
   <g id="matplotlib.axis_2">
    <g id="ytick_1">
     <g id="line2d_1">
      <defs>
       <path id="m200486fc13" d="M 0 0 
L -3.5 0 
" style="stroke: #000000; stroke-width: 0.8"/>
      </defs>
      <g>
       <use xlink:href="#m200486fc13" x="30.103125" y="96.476967" style="stroke: #000000; stroke-width: 0.8"/>
      </g>
     </g>
     <g id="text_1">
      <!-- 0.0 -->
      <g transform="translate(7.2 100.276186) scale(0.1 -0.1)">
       <defs>
        <path id="DejaVuSans-30" d="M 2034 4250 
Q 1547 4250 1301 3770 
Q 1056 3291 1056 2328 
Q 1056 1369 1301 889 
Q 1547 409 2034 409 
Q 2525 409 2770 889 
Q 3016 1369 3016 2328 
Q 3016 3291 2770 3770 
Q 2525 4250 2034 4250 
z
M 2034 4750 
Q 2819 4750 3233 4129 
Q 3647 3509 3647 2328 
Q 3647 1150 3233 529 
Q 2819 -91 2034 -91 
Q 1250 -91 836 529 
Q 422 1150 422 2328 
Q 422 3509 836 4129 
Q 1250 4750 2034 4750 
z
" transform="scale(0.015625)"/>
        <path id="DejaVuSans-2e" d="M 684 794 
L 1344 794 
L 1344 0 
L 684 0 
L 684 794 
z
" transform="scale(0.015625)"/>
       </defs>
       <use xlink:href="#DejaVuSans-30"/>
       <use xlink:href="#DejaVuSans-2e" x="63.623047"/>
       <use xlink:href="#DejaVuSans-30" x="95.410156"/>
      </g>
     </g>
    </g>
    <g id="ytick_2">
     <g id="line2d_2">
      <g>
       <use xlink:href="#m200486fc13" x="30.103125" y="54.008165" style="stroke: #000000; stroke-width: 0.8"/>
      </g>
     </g>
     <g id="text_2">
      <!-- 0.5 -->
      <g transform="translate(7.2 57.807384) scale(0.1 -0.1)">
       <defs>
        <path id="DejaVuSans-35" d="M 691 4666 
L 3169 4666 
L 3169 4134 
L 1269 4134 
L 1269 2991 
Q 1406 3038 1543 3061 
Q 1681 3084 1819 3084 
Q 2600 3084 3056 2656 
Q 3513 2228 3513 1497 
Q 3513 744 3044 326 
Q 2575 -91 1722 -91 
Q 1428 -91 1123 -41 
Q 819 9 494 109 
L 494 744 
Q 775 591 1075 516 
Q 1375 441 1709 441 
Q 2250 441 2565 725 
Q 2881 1009 2881 1497 
Q 2881 1984 2565 2268 
Q 2250 2553 1709 2553 
Q 1456 2553 1204 2497 
Q 953 2441 691 2322 
L 691 4666 
z
" transform="scale(0.015625)"/>
       </defs>
       <use xlink:href="#DejaVuSans-30"/>
       <use xlink:href="#DejaVuSans-2e" x="63.623047"/>
       <use xlink:href="#DejaVuSans-35" x="95.410156"/>
      </g>
     </g>
    </g>
    <g id="ytick_3">
     <g id="line2d_3">
      <g>
       <use xlink:href="#m200486fc13" x="30.103125" y="11.539363" style="stroke: #000000; stroke-width: 0.8"/>
      </g>
     </g>
     <g id="text_3">
      <!-- 1.0 -->
      <g transform="translate(7.2 15.338582) scale(0.1 -0.1)">
       <defs>
        <path id="DejaVuSans-31" d="M 794 531 
L 1825 531 
L 1825 4091 
L 703 3866 
L 703 4441 
L 1819 4666 
L 2450 4666 
L 2450 531 
L 3481 531 
L 3481 0 
L 794 0 
L 794 531 
z
" transform="scale(0.015625)"/>
       </defs>
       <use xlink:href="#DejaVuSans-31"/>
       <use xlink:href="#DejaVuSans-2e" x="63.623047"/>
       <use xlink:href="#DejaVuSans-30" x="95.410156"/>
      </g>
     </g>
    </g>
   </g>
   <g id="line2d_4">
    <path d="M 47.85767 96.476967 
L 136.804121 96.476967 
L 225.750572 11.539363 
L 314.697023 96.476967 
L 402.94858 96.476967 
L 402.94858 96.476967 
" clip-path="url(#p005d99d3ef)" style="fill: none; stroke: #1f77b4; stroke-width: 1.5; stroke-linecap: square"/>
   </g>
   <g id="line2d_5">
    <path d="M 47.85767 97.656792 
L 52.721929 97.531833 
L 57.586189 97.181502 
L 64.53513 96.434434 
L 73.568754 95.494435 
L 78.433013 95.222402 
L 82.602378 95.194648 
L 86.771743 95.373573 
L 91.636002 95.823346 
L 97.890049 96.665737 
L 106.923673 97.899846 
L 111.093038 98.243079 
L 114.567509 98.32591 
L 118.041979 98.176666 
L 121.51645 97.761358 
L 124.296027 97.222054 
L 127.075603 96.491929 
L 129.85518 95.569849 
L 133.329651 94.15266 
L 136.804121 92.455388 
L 140.278592 90.499218 
L 143.753063 88.309232 
L 147.922428 85.409255 
L 152.091792 82.251633 
L 156.956052 78.285899 
L 161.820311 74.048303 
L 167.379464 68.890777 
L 172.938617 63.40191 
L 178.49777 57.592378 
L 184.751817 50.733728 
L 199.344594 34.536021 
L 203.513959 30.330535 
L 206.98843 27.153125 
L 209.768007 24.885304 
L 212.547583 22.905151 
L 215.32716 21.249642 
L 217.411842 20.240551 
L 219.496525 19.443493 
L 221.581207 18.867518 
L 223.66589 18.519242 
L 225.750572 18.402699 
L 227.835255 18.519242 
L 229.919937 18.867518 
L 232.004619 19.443493 
L 234.089302 20.240551 
L 236.173984 21.249642 
L 238.258667 22.459492 
L 241.038243 24.361781 
L 243.81782 26.561369 
L 246.597396 29.018504 
L 250.071867 32.387806 
L 254.241232 36.757351 
L 260.495279 43.692835 
L 272.30848 56.845371 
L 277.867633 62.692767 
L 283.426786 68.222747 
L 288.985939 73.421796 
L 294.545093 78.285899 
L 299.409352 82.251633 
L 304.273611 85.911518 
L 308.442976 88.764675 
L 311.917446 90.909992 
L 315.391917 92.816307 
L 318.866388 94.459082 
L 322.340858 95.818257 
L 325.120435 96.692491 
L 327.900012 97.374622 
L 330.679588 97.866956 
L 334.154059 98.226872 
L 337.62853 98.326633 
L 341.103 98.202384 
L 345.272365 97.822491 
L 351.526413 96.974123 
L 360.560037 95.745257 
L 365.424296 95.329624 
L 369.59366 95.184978 
L 373.763025 95.246467 
L 378.627284 95.551074 
L 384.881332 96.192676 
L 395.304744 97.301296 
L 400.169003 97.592515 
L 402.94858 97.654199 
L 402.94858 97.654199 
" clip-path="url(#p005d99d3ef)" style="fill: none; stroke: #ff7f0e; stroke-width: 1.5; stroke-linecap: square"/>
   </g>
   <g id="patch_3">
    <path d="M 30.103125 102.665997 
L 30.103125 7.2 
" style="fill: none; stroke: #000000; stroke-width: 0.8; stroke-linejoin: miter; stroke-linecap: square"/>
   </g>
   <g id="patch_4">
    <path d="M 420.703125 102.665997 
L 420.703125 7.2 
" style="fill: none; stroke: #000000; stroke-width: 0.8; stroke-linejoin: miter; stroke-linecap: square"/>
   </g>
   <g id="patch_5">
    <path d="M 30.103125 102.665997 
L 420.703125 102.665997 
" style="fill: none; stroke: #000000; stroke-width: 0.8; stroke-linejoin: miter; stroke-linecap: square"/>
   </g>
   <g id="patch_6">
    <path d="M 30.103125 7.2 
L 420.703125 7.2 
" style="fill: none; stroke: #000000; stroke-width: 0.8; stroke-linejoin: miter; stroke-linecap: square"/>
   </g>
   <g id="legend_1">
    <g id="patch_7">
     <path d="M 373.403125 47.878125 
L 413.703125 47.878125 
Q 415.703125 47.878125 415.703125 45.878125 
L 415.703125 14.2 
Q 415.703125 12.2 413.703125 12.2 
L 373.403125 12.2 
Q 371.403125 12.2 371.403125 14.2 
L 371.403125 45.878125 
Q 371.403125 47.878125 373.403125 47.878125 
z
" style="fill: #ffffff; opacity: 0.8; stroke: #cccccc; stroke-linejoin: miter"/>
    </g>
    <g id="line2d_6">
     <path d="M 375.403125 20.298438 
L 385.403125 20.298438 
L 395.403125 20.298438 
" style="fill: none; stroke: #1f77b4; stroke-width: 1.5; stroke-linecap: square"/>
    </g>
    <g id="text_4">
     <!-- $f$ -->
     <g transform="translate(403.403125 23.798438) scale(0.1 -0.1)">
      <defs>
       <path id="DejaVuSans-Oblique-66" d="M 3059 4863 
L 2969 4384 
L 2419 4384 
Q 2106 4384 1964 4261 
Q 1822 4138 1753 3809 
L 1691 3500 
L 2638 3500 
L 2553 3053 
L 1606 3053 
L 1013 0 
L 434 0 
L 1031 3053 
L 481 3053 
L 563 3500 
L 1113 3500 
L 1159 3744 
Q 1278 4363 1576 4613 
Q 1875 4863 2516 4863 
L 3059 4863 
z
" transform="scale(0.015625)"/>
      </defs>
      <use xlink:href="#DejaVuSans-Oblique-66" transform="translate(0 0.015625)"/>
     </g>
    </g>
    <g id="line2d_7">
     <path d="M 375.403125 38.298438 
L 385.403125 38.298438 
L 395.403125 38.298438 
" style="fill: none; stroke: #ff7f0e; stroke-width: 1.5; stroke-linecap: square"/>
    </g>
    <g id="text_5">
     <!-- $\hat{f_7}$ -->
     <g transform="translate(403.403125 41.798438) scale(0.1 -0.1)">
      <defs>
       <path id="DejaVuSans-302" d="M -1831 5119 
L -1369 5119 
L -603 3944 
L -1038 3944 
L -1600 4709 
L -2163 3944 
L -2597 3944 
L -1831 5119 
z
M -1600 3584 
L -1600 3584 
z
" transform="scale(0.015625)"/>
       <path id="DejaVuSans-37" d="M 525 4666 
L 3525 4666 
L 3525 4397 
L 1831 0 
L 1172 0 
L 2766 4134 
L 525 4134 
L 525 4666 
z
" transform="scale(0.015625)"/>
      </defs>
      <use xlink:href="#DejaVuSans-302" transform="translate(76.197021 33.015625)"/>
      <use xlink:href="#DejaVuSans-Oblique-66" transform="translate(0 0.53125)"/>
      <use xlink:href="#DejaVuSans-37" transform="translate(35.205078 -15.875) scale(0.7)"/>
     </g>
    </g>
   </g>
  </g>
 </g>
 <defs>
  <clipPath id="p005d99d3ef">
   <rect x="30.103125" y="7.2" width="390.6" height="95.465997"/>
  </clipPath>
 </defs>
</svg>
