<?xml version="1.0" encoding="utf-8" standalone="no"?>
<!DOCTYPE svg PUBLIC "-//W3C//DTD SVG 1.1//EN"
  "http://www.w3.org/Graphics/SVG/1.1/DTD/svg11.dtd">
<svg xmlns:xlink="http://www.w3.org/1999/xlink" width="442.645312pt" height="135.76688pt" viewBox="0 0 442.645312 135.76688" xmlns="http://www.w3.org/2000/svg" version="1.1">
 <metadata>
  <rdf:RDF xmlns:dc="http://purl.org/dc/elements/1.1/" xmlns:cc="http://creativecommons.org/ns#" xmlns:rdf="http://www.w3.org/1999/02/22-rdf-syntax-ns#">
   <cc:Work>
    <dc:type rdf:resource="http://purl.org/dc/dcmitype/StillImage"/>
    <dc:date>2024-12-04T08:14:58.140349</dc:date>
    <dc:format>image/svg+xml</dc:format>
    <dc:creator>
     <cc:Agent>
      <dc:title>Matplotlib v3.9.2, https://matplotlib.org/</dc:title>
     </cc:Agent>
    </dc:creator>
   </cc:Work>
  </rdf:RDF>
 </metadata>
 <defs>
  <style type="text/css">*{stroke-linejoin: round; stroke-linecap: butt}</style>
 </defs>
 <g id="figure_1">
  <g id="patch_1">
   <path d="M 0 135.76688 
L 442.645312 135.76688 
L 442.645312 -0 
L 0 -0 
z
" style="fill: #ffffff"/>
  </g>
  <g id="axes_1">
   <g id="patch_2">
    <path d="M 44.845313 83.5733 
L 435.445312 83.5733 
L 435.445312 7.2 
L 44.845313 7.2 
z
" style="fill: #ffffff"/>
   </g>
   <g id="matplotlib.axis_1"/>
   <g id="matplotlib.axis_2">
    <g id="ytick_1">
     <g id="line2d_1">
      <defs>
       <path id="m8d04cb0b08" d="M 0 0 
L -3.5 0 
" style="stroke: #000000; stroke-width: 0.8"/>
      </defs>
      <g>
       <use xlink:href="#m8d04cb0b08" x="44.845313" y="66.793648" style="stroke: #000000; stroke-width: 0.8"/>
      </g>
     </g>
     <g id="text_1">
      <!-- −0.25 -->
      <g transform="translate(7.2 70.592866) scale(0.1 -0.1)">
       <defs>
        <path id="DejaVuSans-2212" d="M 678 2272 
L 4684 2272 
L 4684 1741 
L 678 1741 
L 678 2272 
z
" transform="scale(0.015625)"/>
        <path id="DejaVuSans-30" d="M 2034 4250 
Q 1547 4250 1301 3770 
Q 1056 3291 1056 2328 
Q 1056 1369 1301 889 
Q 1547 409 2034 409 
Q 2525 409 2770 889 
Q 3016 1369 3016 2328 
Q 3016 3291 2770 3770 
Q 2525 4250 2034 4250 
z
M 2034 4750 
Q 2819 4750 3233 4129 
Q 3647 3509 3647 2328 
Q 3647 1150 3233 529 
Q 2819 -91 2034 -91 
Q 1250 -91 836 529 
Q 422 1150 422 2328 
Q 422 3509 836 4129 
Q 1250 4750 2034 4750 
z
" transform="scale(0.015625)"/>
        <path id="DejaVuSans-2e" d="M 684 794 
L 1344 794 
L 1344 0 
L 684 0 
L 684 794 
z
" transform="scale(0.015625)"/>
        <path id="DejaVuSans-32" d="M 1228 531 
L 3431 531 
L 3431 0 
L 469 0 
L 469 531 
Q 828 903 1448 1529 
Q 2069 2156 2228 2338 
Q 2531 2678 2651 2914 
Q 2772 3150 2772 3378 
Q 2772 3750 2511 3984 
Q 2250 4219 1831 4219 
Q 1534 4219 1204 4116 
Q 875 4013 500 3803 
L 500 4441 
Q 881 4594 1212 4672 
Q 1544 4750 1819 4750 
Q 2544 4750 2975 4387 
Q 3406 4025 3406 3419 
Q 3406 3131 3298 2873 
Q 3191 2616 2906 2266 
Q 2828 2175 2409 1742 
Q 1991 1309 1228 531 
z
" transform="scale(0.015625)"/>
        <path id="DejaVuSans-35" d="M 691 4666 
L 3169 4666 
L 3169 4134 
L 1269 4134 
L 1269 2991 
Q 1406 3038 1543 3061 
Q 1681 3084 1819 3084 
Q 2600 3084 3056 2656 
Q 3513 2228 3513 1497 
Q 3513 744 3044 326 
Q 2575 -91 1722 -91 
Q 1428 -91 1123 -41 
Q 819 9 494 109 
L 494 744 
Q 775 591 1075 516 
Q 1375 441 1709 441 
Q 2250 441 2565 725 
Q 2881 1009 2881 1497 
Q 2881 1984 2565 2268 
Q 2250 2553 1709 2553 
Q 1456 2553 1204 2497 
Q 953 2441 691 2322 
L 691 4666 
z
" transform="scale(0.015625)"/>
       </defs>
       <use xlink:href="#DejaVuSans-2212"/>
       <use xlink:href="#DejaVuSans-30" x="83.789062"/>
       <use xlink:href="#DejaVuSans-2e" x="147.412109"/>
       <use xlink:href="#DejaVuSans-32" x="179.199219"/>
       <use xlink:href="#DejaVuSans-35" x="242.822266"/>
      </g>
     </g>
    </g>
    <g id="ytick_2">
     <g id="line2d_2">
      <g>
       <use xlink:href="#m8d04cb0b08" x="44.845313" y="45.38665" style="stroke: #000000; stroke-width: 0.8"/>
      </g>
     </g>
     <g id="text_2">
      <!-- 0.00 -->
      <g transform="translate(15.579688 49.185869) scale(0.1 -0.1)">
       <use xlink:href="#DejaVuSans-30"/>
       <use xlink:href="#DejaVuSans-2e" x="63.623047"/>
       <use xlink:href="#DejaVuSans-30" x="95.410156"/>
       <use xlink:href="#DejaVuSans-30" x="159.033203"/>
      </g>
     </g>
    </g>
    <g id="ytick_3">
     <g id="line2d_3">
      <g>
       <use xlink:href="#m8d04cb0b08" x="44.845313" y="23.979653" style="stroke: #000000; stroke-width: 0.8"/>
      </g>
     </g>
     <g id="text_3">
      <!-- 0.25 -->
      <g transform="translate(15.579688 27.778871) scale(0.1 -0.1)">
       <use xlink:href="#DejaVuSans-30"/>
       <use xlink:href="#DejaVuSans-2e" x="63.623047"/>
       <use xlink:href="#DejaVuSans-32" x="95.410156"/>
       <use xlink:href="#DejaVuSans-35" x="159.033203"/>
      </g>
     </g>
    </g>
   </g>
   <g id="line2d_4">
    <path d="M 62.599858 23.979653 
L 66.186635 23.979653 
L 69.773412 23.979653 
L 73.360189 23.979653 
L 76.946965 23.979653 
L 80.533742 23.979653 
L 84.120519 23.979653 
L 87.707296 23.979653 
L 91.294073 23.979653 
L 94.88085 23.979653 
L 98.467627 23.979653 
L 102.054403 23.979653 
L 105.64118 23.979653 
L 109.227957 23.979653 
L 112.814734 23.979653 
L 116.401511 23.979653 
L 119.988288 23.979653 
L 123.575065 23.979653 
L 127.161841 23.979653 
L 130.748618 23.979653 
L 134.335395 23.979653 
L 137.922172 23.979653 
L 141.508949 23.979653 
L 145.095726 23.979653 
L 148.682503 23.979653 
L 152.269279 23.979653 
L 155.856056 23.979653 
L 159.442833 23.979653 
L 163.02961 23.979653 
L 166.616387 23.979653 
L 170.203164 23.979653 
L 173.789941 23.979653 
L 177.376717 23.979653 
L 180.963494 23.979653 
L 184.550271 23.979653 
L 188.137048 23.979653 
L 191.723825 23.979653 
L 195.310602 23.979653 
L 198.897379 23.979653 
L 202.484155 23.979653 
L 206.070932 23.979653 
L 209.657709 23.979653 
L 213.244486 23.979653 
L 216.831263 23.979653 
L 220.41804 23.979653 
L 224.004817 23.979653 
L 227.591593 23.979653 
L 231.17837 23.979653 
L 234.765147 23.979653 
L 238.351924 23.979653 
L 241.938701 23.979653 
L 245.525478 23.979653 
L 249.112255 23.979653 
L 252.699032 23.979653 
L 256.285808 23.979653 
L 259.872585 23.979653 
L 263.459362 23.979653 
L 267.046139 23.979653 
L 270.632916 23.979653 
L 274.219693 23.979653 
L 277.80647 23.979653 
L 281.393246 23.979653 
L 284.980023 23.979653 
L 288.5668 23.979653 
L 292.153577 23.979653 
L 295.740354 23.979653 
L 299.327131 23.979653 
L 302.913908 23.979653 
L 306.500684 23.979653 
L 310.087461 23.979653 
L 313.674238 23.979653 
L 317.261015 23.979653 
L 320.847792 23.979653 
L 324.434569 23.979653 
L 328.021346 23.979653 
L 331.608122 23.979653 
L 335.194899 23.979653 
L 338.781676 23.979653 
L 342.368453 23.979653 
L 345.95523 23.979653 
L 349.542007 23.979653 
L 353.128784 23.979653 
L 356.71556 23.979653 
L 360.302337 23.979653 
L 363.889114 23.979653 
L 367.475891 23.979653 
L 371.062668 23.979653 
L 374.649445 23.979653 
L 378.236222 23.979653 
L 381.822998 23.979653 
L 385.409775 23.979653 
L 388.996552 23.979653 
L 392.583329 23.979653 
L 396.170106 23.979653 
L 399.756883 23.979653 
L 403.34366 23.979653 
L 406.930436 23.979653 
L 410.517213 23.979653 
L 414.10399 23.979653 
L 417.690767 23.979653 
" clip-path="url(#p8be25c2419)" style="fill: none; stroke: #1f77b4; stroke-width: 1.5; stroke-linecap: square"/>
   </g>
   <g id="line2d_5">
    <path d="M 62.599858 80.101787 
L 66.186635 80.033284 
L 69.773412 79.828048 
L 73.360189 79.486886 
L 76.946965 79.011147 
L 80.533742 78.402707 
L 84.120519 77.663968 
L 87.707296 76.797845 
L 91.294073 75.807756 
L 94.88085 74.697609 
L 98.467627 73.471786 
L 102.054403 72.135123 
L 105.64118 70.692896 
L 109.227957 69.150796 
L 112.814734 67.514911 
L 116.401511 65.791695 
L 119.988288 63.987951 
L 123.575065 62.110795 
L 127.161841 60.167636 
L 130.748618 58.166144 
L 134.335395 56.114217 
L 137.922172 54.019954 
L 141.508949 51.891618 
L 145.095726 49.737611 
L 148.682503 47.566432 
L 152.269279 45.38665 
L 155.856056 43.206869 
L 159.442833 41.03569 
L 163.02961 38.881682 
L 166.616387 36.753347 
L 170.203164 34.659083 
L 173.789941 32.607156 
L 177.376717 30.605664 
L 180.963494 28.662506 
L 184.550271 26.78535 
L 188.137048 24.981605 
L 191.723825 23.258389 
L 195.310602 21.622504 
L 198.897379 20.080405 
L 202.484155 18.638178 
L 206.070932 17.301515 
L 209.657709 16.075691 
L 213.244486 14.965544 
L 216.831263 13.975456 
L 220.41804 13.109333 
L 224.004817 12.370593 
L 227.591593 11.762154 
L 231.17837 11.286414 
L 234.765147 10.945253 
L 238.351924 10.740016 
L 241.938701 10.671514 
L 245.525478 10.740016 
L 249.112255 10.945253 
L 252.699032 11.286414 
L 256.285808 11.762154 
L 259.872585 12.370593 
L 263.459362 13.109333 
L 267.046139 13.975456 
L 270.632916 14.965544 
L 274.219693 16.075691 
L 277.80647 17.301515 
L 281.393246 18.638178 
L 284.980023 20.080405 
L 288.5668 21.622504 
L 292.153577 23.258389 
L 295.740354 24.981605 
L 299.327131 26.78535 
L 302.913908 28.662506 
L 306.500684 30.605664 
L 310.087461 32.607156 
L 313.674238 34.659083 
L 317.261015 36.753347 
L 320.847792 38.881682 
L 324.434569 41.03569 
L 328.021346 43.206869 
L 331.608122 45.38665 
L 335.194899 47.566432 
L 338.781676 49.737611 
L 342.368453 51.891618 
L 345.95523 54.019954 
L 349.542007 56.114217 
L 353.128784 58.166144 
L 356.71556 60.167636 
L 360.302337 62.110795 
L 363.889114 63.987951 
L 367.475891 65.791695 
L 371.062668 67.514911 
L 374.649445 69.150796 
L 378.236222 70.692896 
L 381.822998 72.135123 
L 385.409775 73.471786 
L 388.996552 74.697609 
L 392.583329 75.807756 
L 396.170106 76.797845 
L 399.756883 77.663968 
L 403.34366 78.402707 
L 406.930436 79.011147 
L 410.517213 79.486886 
L 414.10399 79.828048 
L 417.690767 80.033284 
" clip-path="url(#p8be25c2419)" style="fill: none; stroke: #ff7f0e; stroke-width: 1.5; stroke-linecap: square"/>
   </g>
   <g id="line2d_6">
    <path d="M 62.599858 28.011939 
L 66.186635 28.148944 
L 69.773412 28.557798 
L 73.360189 29.232053 
L 76.946965 30.161075 
L 80.533742 31.330214 
L 84.120519 32.721031 
L 87.707296 34.311593 
L 91.294073 36.076815 
L 94.88085 37.988858 
L 98.467627 40.017569 
L 102.054403 42.130954 
L 105.64118 44.295683 
L 109.227957 46.477617 
L 112.814734 48.642346 
L 116.401511 50.755731 
L 119.988288 52.784442 
L 123.575065 54.696486 
L 127.161841 56.461708 
L 130.748618 58.052269 
L 134.335395 59.443086 
L 137.922172 60.612225 
L 141.508949 61.541248 
L 145.095726 62.215502 
L 148.682503 62.624356 
L 152.269279 62.761361 
L 155.856056 62.624356 
L 159.442833 62.215502 
L 163.02961 61.541248 
L 166.616387 60.612225 
L 170.203164 59.443086 
L 173.789941 58.052269 
L 177.376717 56.461708 
L 180.963494 54.696486 
L 184.550271 52.784442 
L 188.137048 50.755731 
L 191.723825 48.642346 
L 195.310602 46.477617 
L 198.897379 44.295683 
L 202.484155 42.130954 
L 206.070932 40.017569 
L 209.657709 37.988858 
L 213.244486 36.076815 
L 216.831263 34.311593 
L 220.41804 32.721031 
L 224.004817 31.330214 
L 227.591593 30.161075 
L 231.17837 29.232053 
L 234.765147 28.557798 
L 238.351924 28.148944 
L 241.938701 28.011939 
L 245.525478 28.148944 
L 249.112255 28.557798 
L 252.699032 29.232053 
L 256.285808 30.161075 
L 259.872585 31.330214 
L 263.459362 32.721031 
L 267.046139 34.311593 
L 270.632916 36.076815 
L 274.219693 37.988858 
L 277.80647 40.017569 
L 281.393246 42.130954 
L 284.980023 44.295683 
L 288.5668 46.477617 
L 292.153577 48.642346 
L 295.740354 50.755731 
L 299.327131 52.784442 
L 302.913908 54.696486 
L 306.500684 56.461708 
L 310.087461 58.052269 
L 313.674238 59.443086 
L 317.261015 60.612225 
L 320.847792 61.541248 
L 324.434569 62.215502 
L 328.021346 62.624356 
L 331.608122 62.761361 
L 335.194899 62.624356 
L 338.781676 62.215502 
L 342.368453 61.541248 
L 345.95523 60.612225 
L 349.542007 59.443086 
L 353.128784 58.052269 
L 356.71556 56.461708 
L 360.302337 54.696486 
L 363.889114 52.784442 
L 367.475891 50.755731 
L 371.062668 48.642346 
L 374.649445 46.477617 
L 378.236222 44.295683 
L 381.822998 42.130954 
L 385.409775 40.017569 
L 388.996552 37.988858 
L 392.583329 36.076815 
L 396.170106 34.311593 
L 399.756883 32.721031 
L 403.34366 31.330214 
L 406.930436 30.161075 
L 410.517213 29.232053 
L 414.10399 28.557798 
L 417.690767 28.148944 
" clip-path="url(#p8be25c2419)" style="fill: none; stroke: #2ca02c; stroke-width: 1.5; stroke-linecap: square"/>
   </g>
   <g id="line2d_7">
    <path d="M 62.599858 49.254056 
L 66.186635 49.185554 
L 69.773412 48.982473 
L 73.360189 48.652009 
L 76.946965 48.205868 
L 80.533742 47.659854 
L 84.120519 47.033312 
L 87.707296 46.348435 
L 91.294073 45.629487 
L 94.88085 44.901936 
L 98.467627 44.191556 
L 102.054403 43.523513 
L 105.64118 42.921473 
L 109.227957 42.406763 
L 112.814734 41.997617 
L 116.401511 41.708529 
L 119.988288 41.54974 
L 123.575065 41.526876 
L 127.161841 41.640746 
L 130.748618 41.887317 
L 134.335395 42.257853 
L 137.922172 42.739229 
L 141.508949 43.31439 
L 145.095726 43.962963 
L 148.682503 44.661971 
L 152.269279 45.38665 
L 155.856056 46.11133 
L 159.442833 46.810337 
L 163.02961 47.45891 
L 166.616387 48.034072 
L 170.203164 48.515447 
L 173.789941 48.885984 
L 177.376717 49.132554 
L 180.963494 49.246425 
L 184.550271 49.22356 
L 188.137048 49.064772 
L 191.723825 48.775684 
L 195.310602 48.366538 
L 198.897379 47.851828 
L 202.484155 47.249787 
L 206.070932 46.581744 
L 209.657709 45.871365 
L 213.244486 45.143814 
L 216.831263 44.424865 
L 220.41804 43.739989 
L 224.004817 43.113446 
L 227.591593 42.567433 
L 231.17837 42.121291 
L 234.765147 41.790827 
L 238.351924 41.587747 
L 241.938701 41.519244 
L 245.525478 41.587747 
L 249.112255 41.790827 
L 252.699032 42.121291 
L 256.285808 42.567433 
L 259.872585 43.113446 
L 263.459362 43.739989 
L 267.046139 44.424865 
L 270.632916 45.143814 
L 274.219693 45.871365 
L 277.80647 46.581744 
L 281.393246 47.249787 
L 284.980023 47.851828 
L 288.5668 48.366538 
L 292.153577 48.775684 
L 295.740354 49.064772 
L 299.327131 49.22356 
L 302.913908 49.246425 
L 306.500684 49.132554 
L 310.087461 48.885984 
L 313.674238 48.515447 
L 317.261015 48.034072 
L 320.847792 47.45891 
L 324.434569 46.810337 
L 328.021346 46.11133 
L 331.608122 45.38665 
L 335.194899 44.661971 
L 338.781676 43.962963 
L 342.368453 43.31439 
L 345.95523 42.739229 
L 349.542007 42.257853 
L 353.128784 41.887317 
L 356.71556 41.640746 
L 360.302337 41.526876 
L 363.889114 41.54974 
L 367.475891 41.708529 
L 371.062668 41.997617 
L 374.649445 42.406763 
L 378.236222 42.921473 
L 381.822998 43.523513 
L 385.409775 44.191556 
L 388.996552 44.901936 
L 392.583329 45.629487 
L 396.170106 46.348435 
L 399.756883 47.033312 
L 403.34366 47.659854 
L 406.930436 48.205868 
L 410.517213 48.652009 
L 414.10399 48.982473 
L 417.690767 49.185554 
" clip-path="url(#p8be25c2419)" style="fill: none; stroke: #d62728; stroke-width: 1.5; stroke-linecap: square"/>
   </g>
   <g id="line2d_8">
    <path d="M 62.599858 45.38665 
L 66.186635 45.38665 
L 69.773412 45.38665 
L 73.360189 45.38665 
L 76.946965 45.38665 
L 80.533742 45.38665 
L 84.120519 45.38665 
L 87.707296 45.38665 
L 91.294073 45.38665 
L 94.88085 45.38665 
L 98.467627 45.38665 
L 102.054403 45.38665 
L 105.64118 45.38665 
L 109.227957 45.38665 
L 112.814734 45.38665 
L 116.401511 45.38665 
L 119.988288 45.38665 
L 123.575065 45.38665 
L 127.161841 45.38665 
L 130.748618 45.38665 
L 134.335395 45.38665 
L 137.922172 45.38665 
L 141.508949 45.38665 
L 145.095726 45.38665 
L 148.682503 45.38665 
L 152.269279 45.38665 
L 155.856056 45.38665 
L 159.442833 45.38665 
L 163.02961 45.38665 
L 166.616387 45.38665 
L 170.203164 45.38665 
L 173.789941 45.38665 
L 177.376717 45.38665 
L 180.963494 45.38665 
L 184.550271 45.38665 
L 188.137048 45.38665 
L 191.723825 45.38665 
L 195.310602 45.38665 
L 198.897379 45.38665 
L 202.484155 45.38665 
L 206.070932 45.38665 
L 209.657709 45.38665 
L 213.244486 45.38665 
L 216.831263 45.38665 
L 220.41804 45.38665 
L 224.004817 45.38665 
L 227.591593 45.38665 
L 231.17837 45.38665 
L 234.765147 45.38665 
L 238.351924 45.38665 
L 241.938701 45.38665 
L 245.525478 45.38665 
L 249.112255 45.38665 
L 252.699032 45.38665 
L 256.285808 45.38665 
L 259.872585 45.38665 
L 263.459362 45.38665 
L 267.046139 45.38665 
L 270.632916 45.38665 
L 274.219693 45.38665 
L 277.80647 45.38665 
L 281.393246 45.38665 
L 284.980023 45.38665 
L 288.5668 45.38665 
L 292.153577 45.38665 
L 295.740354 45.38665 
L 299.327131 45.38665 
L 302.913908 45.38665 
L 306.500684 45.38665 
L 310.087461 45.38665 
L 313.674238 45.38665 
L 317.261015 45.38665 
L 320.847792 45.38665 
L 324.434569 45.38665 
L 328.021346 45.38665 
L 331.608122 45.38665 
L 335.194899 45.38665 
L 338.781676 45.38665 
L 342.368453 45.38665 
L 345.95523 45.38665 
L 349.542007 45.38665 
L 353.128784 45.38665 
L 356.71556 45.38665 
L 360.302337 45.38665 
L 363.889114 45.38665 
L 367.475891 45.38665 
L 371.062668 45.38665 
L 374.649445 45.38665 
L 378.236222 45.38665 
L 381.822998 45.38665 
L 385.409775 45.38665 
L 388.996552 45.38665 
L 392.583329 45.38665 
L 396.170106 45.38665 
L 399.756883 45.38665 
L 403.34366 45.38665 
L 406.930436 45.38665 
L 410.517213 45.38665 
L 414.10399 45.38665 
L 417.690767 45.38665 
" clip-path="url(#p8be25c2419)" style="fill: none; stroke: #9467bd; stroke-width: 1.5; stroke-linecap: square"/>
   </g>
   <g id="line2d_9">
    <path d="M 62.599858 46.786273 
L 66.186635 46.71777 
L 69.773412 46.518968 
L 73.360189 46.209328 
L 76.946965 45.819157 
L 80.533742 45.38665 
L 84.120519 44.954143 
L 87.707296 44.563973 
L 91.294073 44.254332 
L 94.88085 44.05553 
L 98.467627 43.987028 
L 102.054403 44.05553 
L 105.64118 44.254332 
L 109.227957 44.563973 
L 112.814734 44.954143 
L 116.401511 45.38665 
L 119.988288 45.819157 
L 123.575065 46.209328 
L 127.161841 46.518968 
L 130.748618 46.71777 
L 134.335395 46.786273 
L 137.922172 46.71777 
L 141.508949 46.518968 
L 145.095726 46.209328 
L 148.682503 45.819157 
L 152.269279 45.38665 
L 155.856056 44.954143 
L 159.442833 44.563973 
L 163.02961 44.254332 
L 166.616387 44.05553 
L 170.203164 43.987028 
L 173.789941 44.05553 
L 177.376717 44.254332 
L 180.963494 44.563973 
L 184.550271 44.954143 
L 188.137048 45.38665 
L 191.723825 45.819157 
L 195.310602 46.209328 
L 198.897379 46.518968 
L 202.484155 46.71777 
L 206.070932 46.786273 
L 209.657709 46.71777 
L 213.244486 46.518968 
L 216.831263 46.209328 
L 220.41804 45.819157 
L 224.004817 45.38665 
L 227.591593 44.954143 
L 231.17837 44.563973 
L 234.765147 44.254332 
L 238.351924 44.05553 
L 241.938701 43.987028 
L 245.525478 44.05553 
L 249.112255 44.254332 
L 252.699032 44.563973 
L 256.285808 44.954143 
L 259.872585 45.38665 
L 263.459362 45.819157 
L 267.046139 46.209328 
L 270.632916 46.518968 
L 274.219693 46.71777 
L 277.80647 46.786273 
L 281.393246 46.71777 
L 284.980023 46.518968 
L 288.5668 46.209328 
L 292.153577 45.819157 
L 295.740354 45.38665 
L 299.327131 44.954143 
L 302.913908 44.563973 
L 306.500684 44.254332 
L 310.087461 44.05553 
L 313.674238 43.987028 
L 317.261015 44.05553 
L 320.847792 44.254332 
L 324.434569 44.563973 
L 328.021346 44.954143 
L 331.608122 45.38665 
L 335.194899 45.819157 
L 338.781676 46.209328 
L 342.368453 46.518968 
L 345.95523 46.71777 
L 349.542007 46.786273 
L 353.128784 46.71777 
L 356.71556 46.518968 
L 360.302337 46.209328 
L 363.889114 45.819157 
L 367.475891 45.38665 
L 371.062668 44.954143 
L 374.649445 44.563973 
L 378.236222 44.254332 
L 381.822998 44.05553 
L 385.409775 43.987028 
L 388.996552 44.05553 
L 392.583329 44.254332 
L 396.170106 44.563973 
L 399.756883 44.954143 
L 403.34366 45.38665 
L 406.930436 45.819157 
L 410.517213 46.209328 
L 414.10399 46.518968 
L 417.690767 46.71777 
" clip-path="url(#p8be25c2419)" style="fill: none; stroke: #8c564b; stroke-width: 1.5; stroke-linecap: square"/>
   </g>
   <g id="line2d_10">
    <path d="M 62.599858 43.435669 
L 66.186635 43.572673 
L 69.773412 43.964446 
L 73.360189 44.555963 
L 76.946965 45.264147 
L 80.533742 45.989537 
L 84.120519 46.630253 
L 87.707296 47.096308 
L 91.294073 47.322248 
L 94.88085 47.276338 
L 98.467627 46.965027 
L 102.054403 46.432038 
L 105.64118 45.752228 
L 109.227957 45.021073 
L 112.814734 44.341262 
L 116.401511 43.808273 
L 119.988288 43.496962 
L 123.575065 43.451053 
L 127.161841 43.676992 
L 130.748618 44.143048 
L 134.335395 44.783764 
L 137.922172 45.509153 
L 141.508949 46.217338 
L 145.095726 46.808855 
L 148.682503 47.200627 
L 152.269279 47.337632 
L 155.856056 47.200627 
L 159.442833 46.808855 
L 163.02961 46.217338 
L 166.616387 45.509153 
L 170.203164 44.783764 
L 173.789941 44.143048 
L 177.376717 43.676992 
L 180.963494 43.451053 
L 184.550271 43.496962 
L 188.137048 43.808273 
L 191.723825 44.341262 
L 195.310602 45.021073 
L 198.897379 45.752228 
L 202.484155 46.432038 
L 206.070932 46.965027 
L 209.657709 47.276338 
L 213.244486 47.322248 
L 216.831263 47.096308 
L 220.41804 46.630253 
L 224.004817 45.989537 
L 227.591593 45.264147 
L 231.17837 44.555963 
L 234.765147 43.964446 
L 238.351924 43.572673 
L 241.938701 43.435669 
L 245.525478 43.572673 
L 249.112255 43.964446 
L 252.699032 44.555963 
L 256.285808 45.264147 
L 259.872585 45.989537 
L 263.459362 46.630253 
L 267.046139 47.096308 
L 270.632916 47.322248 
L 274.219693 47.276338 
L 277.80647 46.965027 
L 281.393246 46.432038 
L 284.980023 45.752228 
L 288.5668 45.021073 
L 292.153577 44.341262 
L 295.740354 43.808273 
L 299.327131 43.496962 
L 302.913908 43.451053 
L 306.500684 43.676992 
L 310.087461 44.143048 
L 313.674238 44.783764 
L 317.261015 45.509153 
L 320.847792 46.217338 
L 324.434569 46.808855 
L 328.021346 47.200627 
L 331.608122 47.337632 
L 335.194899 47.200627 
L 338.781676 46.808855 
L 342.368453 46.217338 
L 345.95523 45.509153 
L 349.542007 44.783764 
L 353.128784 44.143048 
L 356.71556 43.676992 
L 360.302337 43.451053 
L 363.889114 43.496962 
L 367.475891 43.808273 
L 371.062668 44.341262 
L 374.649445 45.021073 
L 378.236222 45.752228 
L 381.822998 46.432038 
L 385.409775 46.965027 
L 388.996552 47.276338 
L 392.583329 47.322248 
L 396.170106 47.096308 
L 399.756883 46.630253 
L 403.34366 45.989537 
L 406.930436 45.264147 
L 410.517213 44.555963 
L 414.10399 43.964446 
L 417.690767 43.572673 
" clip-path="url(#p8be25c2419)" style="fill: none; stroke: #e377c2; stroke-width: 1.5; stroke-linecap: square"/>
   </g>
   <g id="line2d_11">
    <path d="M 62.599858 46.106418 
L 66.186635 46.037915 
L 69.773412 45.845447 
L 73.360189 45.565649 
L 76.946965 45.251779 
L 80.533742 44.963581 
L 84.120519 44.755913 
L 87.707296 44.668303 
L 91.294073 44.717427 
L 94.88085 44.893935 
L 98.467627 45.16423 
L 102.054403 45.476861 
L 105.64118 45.772321 
L 109.227957 45.99437 
L 112.814734 46.100742 
L 116.401511 46.07119 
L 119.988288 45.911338 
L 123.575065 45.651614 
L 127.161841 45.341456 
L 130.748618 45.0399 
L 134.335395 44.804346 
L 137.922172 44.679632 
L 141.508949 44.689496 
L 145.095726 44.83206 
L 148.682503 45.080188 
L 152.269279 45.38665 
L 155.856056 45.693112 
L 159.442833 45.941241 
L 163.02961 46.083805 
L 166.616387 46.093669 
L 170.203164 45.968954 
L 173.789941 45.733401 
L 177.376717 45.431845 
L 180.963494 45.121686 
L 184.550271 44.861962 
L 188.137048 44.702111 
L 191.723825 44.672558 
L 195.310602 44.77893 
L 198.897379 45.000979 
L 202.484155 45.296439 
L 206.070932 45.609071 
L 209.657709 45.879365 
L 213.244486 46.055873 
L 216.831263 46.104997 
L 220.41804 46.017387 
L 224.004817 45.809719 
L 227.591593 45.521521 
L 231.17837 45.207651 
L 234.765147 44.927853 
L 238.351924 44.735385 
L 241.938701 44.666883 
L 245.525478 44.735385 
L 249.112255 44.927853 
L 252.699032 45.207651 
L 256.285808 45.521521 
L 259.872585 45.809719 
L 263.459362 46.017387 
L 267.046139 46.104997 
L 270.632916 46.055873 
L 274.219693 45.879365 
L 277.80647 45.609071 
L 281.393246 45.296439 
L 284.980023 45.000979 
L 288.5668 44.77893 
L 292.153577 44.672558 
L 295.740354 44.702111 
L 299.327131 44.861962 
L 302.913908 45.121686 
L 306.500684 45.431845 
L 310.087461 45.733401 
L 313.674238 45.968954 
L 317.261015 46.093669 
L 320.847792 46.083805 
L 324.434569 45.941241 
L 328.021346 45.693112 
L 331.608122 45.38665 
L 335.194899 45.080188 
L 338.781676 44.83206 
L 342.368453 44.689496 
L 345.95523 44.679632 
L 349.542007 44.804346 
L 353.128784 45.0399 
L 356.71556 45.341456 
L 360.302337 45.651614 
L 363.889114 45.911338 
L 367.475891 46.07119 
L 371.062668 46.100742 
L 374.649445 45.99437 
L 378.236222 45.772321 
L 381.822998 45.476861 
L 385.409775 45.16423 
L 388.996552 44.893935 
L 392.583329 44.717427 
L 396.170106 44.668303 
L 399.756883 44.755913 
L 403.34366 44.963581 
L 406.930436 45.251779 
L 410.517213 45.565649 
L 414.10399 45.845447 
L 417.690767 46.037915 
" clip-path="url(#p8be25c2419)" style="fill: none; stroke: #7f7f7f; stroke-width: 1.5; stroke-linecap: square"/>
   </g>
   <g id="patch_3">
    <path d="M 44.845313 83.5733 
L 44.845313 7.2 
" style="fill: none; stroke: #000000; stroke-width: 0.8; stroke-linejoin: miter; stroke-linecap: square"/>
   </g>
   <g id="patch_4">
    <path d="M 435.445312 83.5733 
L 435.445312 7.2 
" style="fill: none; stroke: #000000; stroke-width: 0.8; stroke-linejoin: miter; stroke-linecap: square"/>
   </g>
   <g id="patch_5">
    <path d="M 44.845313 83.5733 
L 435.445313 83.5733 
" style="fill: none; stroke: #000000; stroke-width: 0.8; stroke-linejoin: miter; stroke-linecap: square"/>
   </g>
   <g id="patch_6">
    <path d="M 44.845313 7.2 
L 435.445313 7.2 
" style="fill: none; stroke: #000000; stroke-width: 0.8; stroke-linejoin: miter; stroke-linecap: square"/>
   </g>
   <g id="legend_1">
    <g id="patch_7">
     <path d="M 35.645312 128.56688 
L 428.445312 128.56688 
Q 430.445312 128.56688 430.445312 126.56688 
L 430.445312 98.21063 
Q 430.445312 96.21063 428.445312 96.21063 
L 35.645312 96.21063 
Q 33.645312 96.21063 33.645312 98.21063 
L 33.645312 126.56688 
Q 33.645312 128.56688 35.645312 128.56688 
z
" style="fill: #ffffff; opacity: 0.8; stroke: #cccccc; stroke-linejoin: miter"/>
    </g>
    <g id="line2d_12">
     <path d="M 37.645312 104.309068 
L 47.645312 104.309068 
L 57.645312 104.309068 
" style="fill: none; stroke: #1f77b4; stroke-width: 1.5; stroke-linecap: square"/>
    </g>
    <g id="text_4">
     <!-- $a_0$ -->
     <g transform="translate(65.645312 107.809068) scale(0.1 -0.1)">
      <defs>
       <path id="DejaVuSans-Oblique-61" d="M 3438 1997 
L 3047 0 
L 2472 0 
L 2578 531 
Q 2325 219 2001 64 
Q 1678 -91 1281 -91 
Q 834 -91 548 182 
Q 263 456 263 884 
Q 263 1497 752 1853 
Q 1241 2209 2100 2209 
L 2900 2209 
L 2931 2363 
Q 2938 2388 2941 2417 
Q 2944 2447 2944 2509 
Q 2944 2788 2717 2942 
Q 2491 3097 2081 3097 
Q 1800 3097 1504 3025 
Q 1209 2953 897 2809 
L 997 3341 
Q 1322 3463 1633 3523 
Q 1944 3584 2234 3584 
Q 2853 3584 3176 3315 
Q 3500 3047 3500 2534 
Q 3500 2431 3484 2292 
Q 3469 2153 3438 1997 
z
M 2816 1759 
L 2241 1759 
Q 1534 1759 1195 1570 
Q 856 1381 856 984 
Q 856 709 1029 553 
Q 1203 397 1509 397 
Q 1978 397 2328 733 
Q 2678 1069 2791 1631 
L 2816 1759 
z
" transform="scale(0.015625)"/>
      </defs>
      <use xlink:href="#DejaVuSans-Oblique-61"/>
      <use xlink:href="#DejaVuSans-30" transform="translate(61.279297 -16.40625) scale(0.7)"/>
     </g>
    </g>
    <g id="line2d_13">
     <path d="M 37.645312 118.987193 
L 47.645312 118.987193 
L 57.645312 118.987193 
" style="fill: none; stroke: #ff7f0e; stroke-width: 1.5; stroke-linecap: square"/>
    </g>
    <g id="text_5">
     <!-- $a_1\cos(1\omega t)$ -->
     <g transform="translate(65.645312 122.487193) scale(0.1 -0.1)">
      <defs>
       <path id="DejaVuSans-31" d="M 794 531 
L 1825 531 
L 1825 4091 
L 703 3866 
L 703 4441 
L 1819 4666 
L 2450 4666 
L 2450 531 
L 3481 531 
L 3481 0 
L 794 0 
L 794 531 
z
" transform="scale(0.015625)"/>
       <path id="DejaVuSans-63" d="M 3122 3366 
L 3122 2828 
Q 2878 2963 2633 3030 
Q 2388 3097 2138 3097 
Q 1578 3097 1268 2742 
Q 959 2388 959 1747 
Q 959 1106 1268 751 
Q 1578 397 2138 397 
Q 2388 397 2633 464 
Q 2878 531 3122 666 
L 3122 134 
Q 2881 22 2623 -34 
Q 2366 -91 2075 -91 
Q 1284 -91 818 406 
Q 353 903 353 1747 
Q 353 2603 823 3093 
Q 1294 3584 2113 3584 
Q 2378 3584 2631 3529 
Q 2884 3475 3122 3366 
z
" transform="scale(0.015625)"/>
       <path id="DejaVuSans-6f" d="M 1959 3097 
Q 1497 3097 1228 2736 
Q 959 2375 959 1747 
Q 959 1119 1226 758 
Q 1494 397 1959 397 
Q 2419 397 2687 759 
Q 2956 1122 2956 1747 
Q 2956 2369 2687 2733 
Q 2419 3097 1959 3097 
z
M 1959 3584 
Q 2709 3584 3137 3096 
Q 3566 2609 3566 1747 
Q 3566 888 3137 398 
Q 2709 -91 1959 -91 
Q 1206 -91 779 398 
Q 353 888 353 1747 
Q 353 2609 779 3096 
Q 1206 3584 1959 3584 
z
" transform="scale(0.015625)"/>
       <path id="DejaVuSans-73" d="M 2834 3397 
L 2834 2853 
Q 2591 2978 2328 3040 
Q 2066 3103 1784 3103 
Q 1356 3103 1142 2972 
Q 928 2841 928 2578 
Q 928 2378 1081 2264 
Q 1234 2150 1697 2047 
L 1894 2003 
Q 2506 1872 2764 1633 
Q 3022 1394 3022 966 
Q 3022 478 2636 193 
Q 2250 -91 1575 -91 
Q 1294 -91 989 -36 
Q 684 19 347 128 
L 347 722 
Q 666 556 975 473 
Q 1284 391 1588 391 
Q 1994 391 2212 530 
Q 2431 669 2431 922 
Q 2431 1156 2273 1281 
Q 2116 1406 1581 1522 
L 1381 1569 
Q 847 1681 609 1914 
Q 372 2147 372 2553 
Q 372 3047 722 3315 
Q 1072 3584 1716 3584 
Q 2034 3584 2315 3537 
Q 2597 3491 2834 3397 
z
" transform="scale(0.015625)"/>
       <path id="DejaVuSans-28" d="M 1984 4856 
Q 1566 4138 1362 3434 
Q 1159 2731 1159 2009 
Q 1159 1288 1364 580 
Q 1569 -128 1984 -844 
L 1484 -844 
Q 1016 -109 783 600 
Q 550 1309 550 2009 
Q 550 2706 781 3412 
Q 1013 4119 1484 4856 
L 1984 4856 
z
" transform="scale(0.015625)"/>
       <path id="DejaVuSans-Oblique-3c9" d="M 1369 -91 
Q 72 -91 434 1766 
Q 575 2500 1256 3500 
L 1875 3500 
Q 1231 2500 1088 1750 
Q 819 397 1519 397 
Q 2166 397 2478 2078 
L 3009 2078 
Q 2669 388 3316 397 
Q 4013 403 4275 1750 
Q 4419 2500 4169 3500 
L 4788 3500 
Q 5075 2500 4934 1766 
Q 4578 -94 3278 -91 
Q 2428 -88 2503 844 
Q 2194 -91 1369 -91 
z
" transform="scale(0.015625)"/>
       <path id="DejaVuSans-Oblique-74" d="M 2706 3500 
L 2619 3053 
L 1472 3053 
L 1100 1153 
Q 1081 1047 1072 975 
Q 1063 903 1063 863 
Q 1063 663 1183 572 
Q 1303 481 1569 481 
L 2150 481 
L 2053 0 
L 1503 0 
Q 991 0 739 200 
Q 488 400 488 806 
Q 488 878 497 964 
Q 506 1050 525 1153 
L 897 3053 
L 409 3053 
L 500 3500 
L 978 3500 
L 1172 4494 
L 1747 4494 
L 1556 3500 
L 2706 3500 
z
" transform="scale(0.015625)"/>
       <path id="DejaVuSans-29" d="M 513 4856 
L 1013 4856 
Q 1481 4119 1714 3412 
Q 1947 2706 1947 2009 
Q 1947 1309 1714 600 
Q 1481 -109 1013 -844 
L 513 -844 
Q 928 -128 1133 580 
Q 1338 1288 1338 2009 
Q 1338 2731 1133 3434 
Q 928 4138 513 4856 
z
" transform="scale(0.015625)"/>
      </defs>
      <use xlink:href="#DejaVuSans-Oblique-61" transform="translate(0 0.125)"/>
      <use xlink:href="#DejaVuSans-31" transform="translate(61.279297 -16.28125) scale(0.7)"/>
      <use xlink:href="#DejaVuSans-63" transform="translate(108.549805 0.125)"/>
      <use xlink:href="#DejaVuSans-6f" transform="translate(163.530273 0.125)"/>
      <use xlink:href="#DejaVuSans-73" transform="translate(224.711914 0.125)"/>
      <use xlink:href="#DejaVuSans-28" transform="translate(276.811523 0.125)"/>
      <use xlink:href="#DejaVuSans-31" transform="translate(315.825195 0.125)"/>
      <use xlink:href="#DejaVuSans-Oblique-3c9" transform="translate(379.448242 0.125)"/>
      <use xlink:href="#DejaVuSans-Oblique-74" transform="translate(463.188477 0.125)"/>
      <use xlink:href="#DejaVuSans-29" transform="translate(502.397461 0.125)"/>
     </g>
    </g>
    <g id="line2d_14">
     <path d="M 139.845312 104.309068 
L 149.845312 104.309068 
L 159.845312 104.309068 
" style="fill: none; stroke: #2ca02c; stroke-width: 1.5; stroke-linecap: square"/>
    </g>
    <g id="text_6">
     <!-- $a_2\cos(2\omega t)$ -->
     <g transform="translate(167.845312 107.809068) scale(0.1 -0.1)">
      <use xlink:href="#DejaVuSans-Oblique-61" transform="translate(0 0.125)"/>
      <use xlink:href="#DejaVuSans-32" transform="translate(61.279297 -16.28125) scale(0.7)"/>
      <use xlink:href="#DejaVuSans-63" transform="translate(108.549805 0.125)"/>
      <use xlink:href="#DejaVuSans-6f" transform="translate(163.530273 0.125)"/>
      <use xlink:href="#DejaVuSans-73" transform="translate(224.711914 0.125)"/>
      <use xlink:href="#DejaVuSans-28" transform="translate(276.811523 0.125)"/>
      <use xlink:href="#DejaVuSans-32" transform="translate(315.825195 0.125)"/>
      <use xlink:href="#DejaVuSans-Oblique-3c9" transform="translate(379.448242 0.125)"/>
      <use xlink:href="#DejaVuSans-Oblique-74" transform="translate(463.188477 0.125)"/>
      <use xlink:href="#DejaVuSans-29" transform="translate(502.397461 0.125)"/>
     </g>
    </g>
    <g id="line2d_15">
     <path d="M 139.845312 118.987193 
L 149.845312 118.987193 
L 159.845312 118.987193 
" style="fill: none; stroke: #d62728; stroke-width: 1.5; stroke-linecap: square"/>
    </g>
    <g id="text_7">
     <!-- $a_3\cos(3\omega t)$ -->
     <g transform="translate(167.845312 122.487193) scale(0.1 -0.1)">
      <defs>
       <path id="DejaVuSans-33" d="M 2597 2516 
Q 3050 2419 3304 2112 
Q 3559 1806 3559 1356 
Q 3559 666 3084 287 
Q 2609 -91 1734 -91 
Q 1441 -91 1130 -33 
Q 819 25 488 141 
L 488 750 
Q 750 597 1062 519 
Q 1375 441 1716 441 
Q 2309 441 2620 675 
Q 2931 909 2931 1356 
Q 2931 1769 2642 2001 
Q 2353 2234 1838 2234 
L 1294 2234 
L 1294 2753 
L 1863 2753 
Q 2328 2753 2575 2939 
Q 2822 3125 2822 3475 
Q 2822 3834 2567 4026 
Q 2313 4219 1838 4219 
Q 1578 4219 1281 4162 
Q 984 4106 628 3988 
L 628 4550 
Q 988 4650 1302 4700 
Q 1616 4750 1894 4750 
Q 2613 4750 3031 4423 
Q 3450 4097 3450 3541 
Q 3450 3153 3228 2886 
Q 3006 2619 2597 2516 
z
" transform="scale(0.015625)"/>
      </defs>
      <use xlink:href="#DejaVuSans-Oblique-61" transform="translate(0 0.125)"/>
      <use xlink:href="#DejaVuSans-33" transform="translate(61.279297 -16.28125) scale(0.7)"/>
      <use xlink:href="#DejaVuSans-63" transform="translate(108.549805 0.125)"/>
      <use xlink:href="#DejaVuSans-6f" transform="translate(163.530273 0.125)"/>
      <use xlink:href="#DejaVuSans-73" transform="translate(224.711914 0.125)"/>
      <use xlink:href="#DejaVuSans-28" transform="translate(276.811523 0.125)"/>
      <use xlink:href="#DejaVuSans-33" transform="translate(315.825195 0.125)"/>
      <use xlink:href="#DejaVuSans-Oblique-3c9" transform="translate(379.448242 0.125)"/>
      <use xlink:href="#DejaVuSans-Oblique-74" transform="translate(463.188477 0.125)"/>
      <use xlink:href="#DejaVuSans-29" transform="translate(502.397461 0.125)"/>
     </g>
    </g>
    <g id="line2d_16">
     <path d="M 242.045312 104.309068 
L 252.045312 104.309068 
L 262.045313 104.309068 
" style="fill: none; stroke: #9467bd; stroke-width: 1.5; stroke-linecap: square"/>
    </g>
    <g id="text_8">
     <!-- $a_4\cos(4\omega t)$ -->
     <g transform="translate(270.045313 107.809068) scale(0.1 -0.1)">
      <defs>
       <path id="DejaVuSans-34" d="M 2419 4116 
L 825 1625 
L 2419 1625 
L 2419 4116 
z
M 2253 4666 
L 3047 4666 
L 3047 1625 
L 3713 1625 
L 3713 1100 
L 3047 1100 
L 3047 0 
L 2419 0 
L 2419 1100 
L 313 1100 
L 313 1709 
L 2253 4666 
z
" transform="scale(0.015625)"/>
      </defs>
      <use xlink:href="#DejaVuSans-Oblique-61" transform="translate(0 0.125)"/>
      <use xlink:href="#DejaVuSans-34" transform="translate(61.279297 -16.28125) scale(0.7)"/>
      <use xlink:href="#DejaVuSans-63" transform="translate(108.549805 0.125)"/>
      <use xlink:href="#DejaVuSans-6f" transform="translate(163.530273 0.125)"/>
      <use xlink:href="#DejaVuSans-73" transform="translate(224.711914 0.125)"/>
      <use xlink:href="#DejaVuSans-28" transform="translate(276.811523 0.125)"/>
      <use xlink:href="#DejaVuSans-34" transform="translate(315.825195 0.125)"/>
      <use xlink:href="#DejaVuSans-Oblique-3c9" transform="translate(379.448242 0.125)"/>
      <use xlink:href="#DejaVuSans-Oblique-74" transform="translate(463.188477 0.125)"/>
      <use xlink:href="#DejaVuSans-29" transform="translate(502.397461 0.125)"/>
     </g>
    </g>
    <g id="line2d_17">
     <path d="M 242.045312 118.987193 
L 252.045312 118.987193 
L 262.045313 118.987193 
" style="fill: none; stroke: #8c564b; stroke-width: 1.5; stroke-linecap: square"/>
    </g>
    <g id="text_9">
     <!-- $a_5\cos(5\omega t)$ -->
     <g transform="translate(270.045313 122.487193) scale(0.1 -0.1)">
      <use xlink:href="#DejaVuSans-Oblique-61" transform="translate(0 0.125)"/>
      <use xlink:href="#DejaVuSans-35" transform="translate(61.279297 -16.28125) scale(0.7)"/>
      <use xlink:href="#DejaVuSans-63" transform="translate(108.549805 0.125)"/>
      <use xlink:href="#DejaVuSans-6f" transform="translate(163.530273 0.125)"/>
      <use xlink:href="#DejaVuSans-73" transform="translate(224.711914 0.125)"/>
      <use xlink:href="#DejaVuSans-28" transform="translate(276.811523 0.125)"/>
      <use xlink:href="#DejaVuSans-35" transform="translate(315.825195 0.125)"/>
      <use xlink:href="#DejaVuSans-Oblique-3c9" transform="translate(379.448242 0.125)"/>
      <use xlink:href="#DejaVuSans-Oblique-74" transform="translate(463.188477 0.125)"/>
      <use xlink:href="#DejaVuSans-29" transform="translate(502.397461 0.125)"/>
     </g>
    </g>
    <g id="line2d_18">
     <path d="M 344.245313 104.309068 
L 354.245313 104.309068 
L 364.245313 104.309068 
" style="fill: none; stroke: #e377c2; stroke-width: 1.5; stroke-linecap: square"/>
    </g>
    <g id="text_10">
     <!-- $a_6\cos(6\omega t)$ -->
     <g transform="translate(372.245313 107.809068) scale(0.1 -0.1)">
      <defs>
       <path id="DejaVuSans-36" d="M 2113 2584 
Q 1688 2584 1439 2293 
Q 1191 2003 1191 1497 
Q 1191 994 1439 701 
Q 1688 409 2113 409 
Q 2538 409 2786 701 
Q 3034 994 3034 1497 
Q 3034 2003 2786 2293 
Q 2538 2584 2113 2584 
z
M 3366 4563 
L 3366 3988 
Q 3128 4100 2886 4159 
Q 2644 4219 2406 4219 
Q 1781 4219 1451 3797 
Q 1122 3375 1075 2522 
Q 1259 2794 1537 2939 
Q 1816 3084 2150 3084 
Q 2853 3084 3261 2657 
Q 3669 2231 3669 1497 
Q 3669 778 3244 343 
Q 2819 -91 2113 -91 
Q 1303 -91 875 529 
Q 447 1150 447 2328 
Q 447 3434 972 4092 
Q 1497 4750 2381 4750 
Q 2619 4750 2861 4703 
Q 3103 4656 3366 4563 
z
" transform="scale(0.015625)"/>
      </defs>
      <use xlink:href="#DejaVuSans-Oblique-61" transform="translate(0 0.125)"/>
      <use xlink:href="#DejaVuSans-36" transform="translate(61.279297 -16.28125) scale(0.7)"/>
      <use xlink:href="#DejaVuSans-63" transform="translate(108.549805 0.125)"/>
      <use xlink:href="#DejaVuSans-6f" transform="translate(163.530273 0.125)"/>
      <use xlink:href="#DejaVuSans-73" transform="translate(224.711914 0.125)"/>
      <use xlink:href="#DejaVuSans-28" transform="translate(276.811523 0.125)"/>
      <use xlink:href="#DejaVuSans-36" transform="translate(315.825195 0.125)"/>
      <use xlink:href="#DejaVuSans-Oblique-3c9" transform="translate(379.448242 0.125)"/>
      <use xlink:href="#DejaVuSans-Oblique-74" transform="translate(463.188477 0.125)"/>
      <use xlink:href="#DejaVuSans-29" transform="translate(502.397461 0.125)"/>
     </g>
    </g>
    <g id="line2d_19">
     <path d="M 344.245313 118.987193 
L 354.245313 118.987193 
L 364.245313 118.987193 
" style="fill: none; stroke: #7f7f7f; stroke-width: 1.5; stroke-linecap: square"/>
    </g>
    <g id="text_11">
     <!-- $a_7\cos(7\omega t)$ -->
     <g transform="translate(372.245313 122.487193) scale(0.1 -0.1)">
      <defs>
       <path id="DejaVuSans-37" d="M 525 4666 
L 3525 4666 
L 3525 4397 
L 1831 0 
L 1172 0 
L 2766 4134 
L 525 4134 
L 525 4666 
z
" transform="scale(0.015625)"/>
      </defs>
      <use xlink:href="#DejaVuSans-Oblique-61" transform="translate(0 0.125)"/>
      <use xlink:href="#DejaVuSans-37" transform="translate(61.279297 -16.28125) scale(0.7)"/>
      <use xlink:href="#DejaVuSans-63" transform="translate(108.549805 0.125)"/>
      <use xlink:href="#DejaVuSans-6f" transform="translate(163.530273 0.125)"/>
      <use xlink:href="#DejaVuSans-73" transform="translate(224.711914 0.125)"/>
      <use xlink:href="#DejaVuSans-28" transform="translate(276.811523 0.125)"/>
      <use xlink:href="#DejaVuSans-37" transform="translate(315.825195 0.125)"/>
      <use xlink:href="#DejaVuSans-Oblique-3c9" transform="translate(379.448242 0.125)"/>
      <use xlink:href="#DejaVuSans-Oblique-74" transform="translate(463.188477 0.125)"/>
      <use xlink:href="#DejaVuSans-29" transform="translate(502.397461 0.125)"/>
     </g>
    </g>
   </g>
  </g>
 </g>
 <defs>
  <clipPath id="p8be25c2419">
   <rect x="44.845313" y="7.2" width="390.6" height="76.3733"/>
  </clipPath>
 </defs>
</svg>
