<?xml version="1.0" encoding="utf-8" standalone="no"?>
<!DOCTYPE svg PUBLIC "-//W3C//DTD SVG 1.1//EN"
  "http://www.w3.org/Graphics/SVG/1.1/DTD/svg11.dtd">
<svg xmlns:xlink="http://www.w3.org/1999/xlink" width="305.878464pt" height="292.323743pt" viewBox="0 0 305.878464 292.323743" xmlns="http://www.w3.org/2000/svg" version="1.1">
 <metadata>
  <rdf:RDF xmlns:dc="http://purl.org/dc/elements/1.1/" xmlns:cc="http://creativecommons.org/ns#" xmlns:rdf="http://www.w3.org/1999/02/22-rdf-syntax-ns#">
   <cc:Work>
    <dc:type rdf:resource="http://purl.org/dc/dcmitype/StillImage"/>
    <dc:date>2024-11-16T16:56:29.317253</dc:date>
    <dc:format>image/svg+xml</dc:format>
    <dc:creator>
     <cc:Agent>
      <dc:title>Matplotlib v3.9.2, https://matplotlib.org/</dc:title>
     </cc:Agent>
    </dc:creator>
   </cc:Work>
  </rdf:RDF>
 </metadata>
 <defs>
  <style type="text/css">*{stroke-linejoin: round; stroke-linecap: butt}</style>
 </defs>
 <g id="figure_1">
  <g id="patch_1">
   <path d="M 0 292.323743 
L 305.878464 292.323743 
L 305.878464 0 
L 0 0 
z
" style="fill: #ffffff"/>
  </g>
  <g id="patch_2">
   <path d="M 7.2 284.4 
L 284.4 284.4 
L 284.4 7.2 
L 7.2 7.2 
z
" style="fill: #ffffff"/>
  </g>
  <g id="pane3d_1">
   <g id="patch_3">
    <path d="M 28.130512 216.051364 
L 119.671005 139.320307 
L 118.398504 28.660407 
L 22.477327 98.659314 
" style="fill: #f2f2f2; opacity: 0.5; stroke: #f2f2f2; stroke-linejoin: miter"/>
   </g>
  </g>
  <g id="pane3d_2">
   <g id="patch_4">
    <path d="M 119.671005 139.320307 
L 266.560834 182.015381 
L 271.802814 67.543928 
L 118.398504 28.660407 
" style="fill: #e6e6e6; opacity: 0.5; stroke: #e6e6e6; stroke-linejoin: miter"/>
   </g>
  </g>
  <g id="pane3d_3">
   <g id="patch_5">
    <path d="M 28.130512 216.051364 
L 183.840905 266.906378 
L 266.560834 182.015381 
L 119.671005 139.320307 
" style="fill: #ececec; opacity: 0.5; stroke: #ececec; stroke-linejoin: miter"/>
   </g>
  </g>
  <g id="grid3d_1">
   <g id="Line3DCollection_1">
    <path d="M 50.608753 223.392757 
L 140.956147 145.507058 
L 140.587534 34.284679 
" style="fill: none; stroke: #b0b0b0; stroke-width: 0.8"/>
    <path d="M 77.061272 232.03215 
L 165.96984 152.777551 
L 166.680792 40.89856 
" style="fill: none; stroke: #b0b0b0; stroke-width: 0.8"/>
    <path d="M 104.001178 240.830723 
L 191.405842 160.170792 
L 193.233825 47.62898 
" style="fill: none; stroke: #b0b0b0; stroke-width: 0.8"/>
    <path d="M 131.442069 249.792918 
L 217.274941 167.689918 
L 220.258893 54.479047 
" style="fill: none; stroke: #b0b0b0; stroke-width: 0.8"/>
    <path d="M 159.39805 258.923341 
L 243.588292 175.33817 
L 247.768695 61.45198 
" style="fill: none; stroke: #b0b0b0; stroke-width: 0.8"/>
   </g>
  </g>
  <g id="grid3d_2">
   <g id="Line3DCollection_2">
    <path d="M 29.110514 93.818716 
L 34.438425 210.763945 
L 189.564484 261.032578 
" style="fill: none; stroke: #b0b0b0; stroke-width: 0.8"/>
    <path d="M 48.852415 79.411975 
L 53.231823 195.010947 
L 206.596287 243.553759 
" style="fill: none; stroke: #b0b0b0; stroke-width: 0.8"/>
    <path d="M 67.910016 65.504606 
L 71.401658 179.780631 
L 223.033617 226.685014 
" style="fill: none; stroke: #b0b0b0; stroke-width: 0.8"/>
    <path d="M 86.318287 52.071088 
L 88.978459 165.047407 
L 238.907065 210.394951 
" style="fill: none; stroke: #b0b0b0; stroke-width: 0.8"/>
    <path d="M 104.109861 39.087608 
L 105.990794 150.787331 
L 254.245157 194.654295 
" style="fill: none; stroke: #b0b0b0; stroke-width: 0.8"/>
   </g>
  </g>
  <g id="grid3d_3">
   <g id="Line3DCollection_3">
    <path d="M 266.661264 179.822235 
L 119.646574 137.195791 
L 28.022382 213.805978 
" style="fill: none; stroke: #b0b0b0; stroke-width: 0.8"/>
    <path d="M 267.634242 158.574894 
L 119.409995 116.622252 
L 26.974452 192.045037 
" style="fill: none; stroke: #b0b0b0; stroke-width: 0.8"/>
    <path d="M 268.623522 136.971555 
L 119.169642 95.720539 
L 25.908292 169.90553 
" style="fill: none; stroke: #b0b0b0; stroke-width: 0.8"/>
    <path d="M 269.629516 115.003196 
L 118.925424 74.482737 
L 24.823421 147.377493 
" style="fill: none; stroke: #b0b0b0; stroke-width: 0.8"/>
    <path d="M 270.652654 92.660487 
L 118.677248 52.900674 
L 23.719344 124.450607 
" style="fill: none; stroke: #b0b0b0; stroke-width: 0.8"/>
    <path d="M 271.693376 69.933777 
L 118.425016 30.965911 
L 22.595545 101.114186 
" style="fill: none; stroke: #b0b0b0; stroke-width: 0.8"/>
   </g>
  </g>
  <g id="axis3d_1">
   <g id="line2d_1">
    <path d="M 28.130512 216.051364 
L 183.840905 266.906378 
" style="fill: none; stroke: #000000; stroke-width: 0.8; stroke-linecap: square"/>
   </g>
   <g id="xtick_1">
    <g id="line2d_2">
     <path d="M 51.395782 222.714284 
L 49.031303 224.752629 
" style="fill: none; stroke: #000000; stroke-width: 0.8; stroke-linecap: square"/>
    </g>
    <g id="text_1">
     <!-- −40 -->
     <g transform="translate(32.541075 246.786147) scale(0.1 -0.1)">
      <defs>
       <path id="DejaVuSans-2212" d="M 678 2272 
L 4684 2272 
L 4684 1741 
L 678 1741 
L 678 2272 
z
" transform="scale(0.015625)"/>
       <path id="DejaVuSans-34" d="M 2419 4116 
L 825 1625 
L 2419 1625 
L 2419 4116 
z
M 2253 4666 
L 3047 4666 
L 3047 1625 
L 3713 1625 
L 3713 1100 
L 3047 1100 
L 3047 0 
L 2419 0 
L 2419 1100 
L 313 1100 
L 313 1709 
L 2253 4666 
z
" transform="scale(0.015625)"/>
       <path id="DejaVuSans-30" d="M 2034 4250 
Q 1547 4250 1301 3770 
Q 1056 3291 1056 2328 
Q 1056 1369 1301 889 
Q 1547 409 2034 409 
Q 2525 409 2770 889 
Q 3016 1369 3016 2328 
Q 3016 3291 2770 3770 
Q 2525 4250 2034 4250 
z
M 2034 4750 
Q 2819 4750 3233 4129 
Q 3647 3509 3647 2328 
Q 3647 1150 3233 529 
Q 2819 -91 2034 -91 
Q 1250 -91 836 529 
Q 422 1150 422 2328 
Q 422 3509 836 4129 
Q 1250 4750 2034 4750 
z
" transform="scale(0.015625)"/>
      </defs>
      <use xlink:href="#DejaVuSans-2212"/>
      <use xlink:href="#DejaVuSans-34" x="83.789062"/>
      <use xlink:href="#DejaVuSans-30" x="147.412109"/>
     </g>
    </g>
   </g>
   <g id="xtick_2">
    <g id="line2d_3">
     <path d="M 77.836344 231.341237 
L 75.507756 233.41698 
" style="fill: none; stroke: #000000; stroke-width: 0.8; stroke-linecap: square"/>
    </g>
    <g id="text_2">
     <!-- −20 -->
     <g transform="translate(59.020422 255.601493) scale(0.1 -0.1)">
      <defs>
       <path id="DejaVuSans-32" d="M 1228 531 
L 3431 531 
L 3431 0 
L 469 0 
L 469 531 
Q 828 903 1448 1529 
Q 2069 2156 2228 2338 
Q 2531 2678 2651 2914 
Q 2772 3150 2772 3378 
Q 2772 3750 2511 3984 
Q 2250 4219 1831 4219 
Q 1534 4219 1204 4116 
Q 875 4013 500 3803 
L 500 4441 
Q 881 4594 1212 4672 
Q 1544 4750 1819 4750 
Q 2544 4750 2975 4387 
Q 3406 4025 3406 3419 
Q 3406 3131 3298 2873 
Q 3191 2616 2906 2266 
Q 2828 2175 2409 1742 
Q 1991 1309 1228 531 
z
" transform="scale(0.015625)"/>
      </defs>
      <use xlink:href="#DejaVuSans-2212"/>
      <use xlink:href="#DejaVuSans-32" x="83.789062"/>
      <use xlink:href="#DejaVuSans-30" x="147.412109"/>
     </g>
    </g>
   </g>
   <g id="xtick_3">
    <g id="line2d_4">
     <path d="M 104.763717 240.127027 
L 102.472753 242.241205 
" style="fill: none; stroke: #000000; stroke-width: 0.8; stroke-linecap: square"/>
    </g>
    <g id="text_3">
     <!-- 0 -->
     <g transform="translate(93.360528 264.579855) scale(0.1 -0.1)">
      <use xlink:href="#DejaVuSans-30"/>
     </g>
    </g>
   </g>
   <g id="xtick_4">
    <g id="line2d_5">
     <path d="M 132.191473 249.07608 
L 129.939941 251.229771 
" style="fill: none; stroke: #000000; stroke-width: 0.8; stroke-linecap: square"/>
    </g>
    <g id="text_4">
     <!-- 20 -->
     <g transform="translate(117.651663 273.725797) scale(0.1 -0.1)">
      <use xlink:href="#DejaVuSans-32"/>
      <use xlink:href="#DejaVuSans-30" x="63.623047"/>
     </g>
    </g>
   </g>
   <g id="xtick_5">
    <g id="line2d_6">
     <path d="M 160.133689 258.192989 
L 157.923481 260.387312 
" style="fill: none; stroke: #000000; stroke-width: 0.8; stroke-linecap: square"/>
    </g>
    <g id="text_5">
     <!-- 40 -->
     <g transform="translate(145.641646 283.044056) scale(0.1 -0.1)">
      <use xlink:href="#DejaVuSans-34"/>
      <use xlink:href="#DejaVuSans-30" x="63.623047"/>
     </g>
    </g>
   </g>
  </g>
  <g id="axis3d_2">
   <g id="line2d_7">
    <path d="M 266.560834 182.015381 
L 183.840905 266.906378 
" style="fill: none; stroke: #000000; stroke-width: 0.8; stroke-linecap: square"/>
   </g>
   <g id="xtick_6">
    <g id="line2d_8">
     <path d="M 188.257232 260.608963 
L 192.182369 261.880904 
" style="fill: none; stroke: #000000; stroke-width: 0.8; stroke-linecap: square"/>
    </g>
    <g id="text_6">
     <!-- 0 -->
     <g transform="translate(199.26356 282.053986) scale(0.1 -0.1)">
      <use xlink:href="#DejaVuSans-30"/>
     </g>
    </g>
   </g>
   <g id="xtick_7">
    <g id="line2d_9">
     <path d="M 205.305042 243.145055 
L 209.182055 244.372204 
" style="fill: none; stroke: #000000; stroke-width: 0.8; stroke-linecap: square"/>
    </g>
    <g id="text_7">
     <!-- 2 -->
     <g transform="translate(216.076071 264.326748) scale(0.1 -0.1)">
      <use xlink:href="#DejaVuSans-32"/>
     </g>
    </g>
   </g>
   <g id="xtick_8">
    <g id="line2d_10">
     <path d="M 221.758069 226.290448 
L 225.587896 227.47513 
" style="fill: none; stroke: #000000; stroke-width: 0.8; stroke-linecap: square"/>
    </g>
    <g id="text_8">
     <!-- 4 -->
     <g transform="translate(232.301439 247.218598) scale(0.1 -0.1)">
      <use xlink:href="#DejaVuSans-34"/>
     </g>
    </g>
   </g>
   <g id="xtick_9">
    <g id="line2d_11">
     <path d="M 237.646905 210.013802 
L 241.430475 211.158184 
" style="fill: none; stroke: #000000; stroke-width: 0.8; stroke-linecap: square"/>
    </g>
    <g id="text_9">
     <!-- 6 -->
     <g transform="translate(247.969892 230.697663) scale(0.1 -0.1)">
      <defs>
       <path id="DejaVuSans-36" d="M 2113 2584 
Q 1688 2584 1439 2293 
Q 1191 2003 1191 1497 
Q 1191 994 1439 701 
Q 1688 409 2113 409 
Q 2538 409 2786 701 
Q 3034 994 3034 1497 
Q 3034 2003 2786 2293 
Q 2538 2584 2113 2584 
z
M 3366 4563 
L 3366 3988 
Q 3128 4100 2886 4159 
Q 2644 4219 2406 4219 
Q 1781 4219 1451 3797 
Q 1122 3375 1075 2522 
Q 1259 2794 1537 2939 
Q 1816 3084 2150 3084 
Q 2853 3084 3261 2657 
Q 3669 2231 3669 1497 
Q 3669 778 3244 343 
Q 2819 -91 2113 -91 
Q 1303 -91 875 529 
Q 447 1150 447 2328 
Q 447 3434 972 4092 
Q 1497 4750 2381 4750 
Q 2619 4750 2861 4703 
Q 3103 4656 3366 4563 
z
" transform="scale(0.015625)"/>
      </defs>
      <use xlink:href="#DejaVuSans-36"/>
     </g>
    </g>
   </g>
   <g id="xtick_10">
    <g id="line2d_12">
     <path d="M 253.000082 194.28589 
L 256.738311 195.391994 
" style="fill: none; stroke: #000000; stroke-width: 0.8; stroke-linecap: square"/>
    </g>
    <g id="text_10">
     <!-- 8 -->
     <g transform="translate(263.109621 214.73422) scale(0.1 -0.1)">
      <defs>
       <path id="DejaVuSans-38" d="M 2034 2216 
Q 1584 2216 1326 1975 
Q 1069 1734 1069 1313 
Q 1069 891 1326 650 
Q 1584 409 2034 409 
Q 2484 409 2743 651 
Q 3003 894 3003 1313 
Q 3003 1734 2745 1975 
Q 2488 2216 2034 2216 
z
M 1403 2484 
Q 997 2584 770 2862 
Q 544 3141 544 3541 
Q 544 4100 942 4425 
Q 1341 4750 2034 4750 
Q 2731 4750 3128 4425 
Q 3525 4100 3525 3541 
Q 3525 3141 3298 2862 
Q 3072 2584 2669 2484 
Q 3125 2378 3379 2068 
Q 3634 1759 3634 1313 
Q 3634 634 3220 271 
Q 2806 -91 2034 -91 
Q 1263 -91 848 271 
Q 434 634 434 1313 
Q 434 1759 690 2068 
Q 947 2378 1403 2484 
z
M 1172 3481 
Q 1172 3119 1398 2916 
Q 1625 2713 2034 2713 
Q 2441 2713 2670 2916 
Q 2900 3119 2900 3481 
Q 2900 3844 2670 4047 
Q 2441 4250 2034 4250 
Q 1625 4250 1398 4047 
Q 1172 3844 1172 3481 
z
" transform="scale(0.015625)"/>
      </defs>
      <use xlink:href="#DejaVuSans-38"/>
     </g>
    </g>
   </g>
  </g>
  <g id="axis3d_3">
   <g id="line2d_13">
    <path d="M 266.560834 182.015381 
L 271.802814 67.543928 
" style="fill: none; stroke: #000000; stroke-width: 0.8; stroke-linecap: square"/>
   </g>
   <g id="xtick_11">
    <g id="line2d_14">
     <path d="M 265.427357 179.464467 
L 269.132017 180.538622 
" style="fill: none; stroke: #000000; stroke-width: 0.8; stroke-linecap: square"/>
    </g>
    <g id="text_11">
     <!-- 0.0 -->
     <g transform="translate(276.97586 184.819452) scale(0.1 -0.1)">
      <defs>
       <path id="DejaVuSans-2e" d="M 684 794 
L 1344 794 
L 1344 0 
L 684 0 
L 684 794 
z
" transform="scale(0.015625)"/>
      </defs>
      <use xlink:href="#DejaVuSans-30"/>
      <use xlink:href="#DejaVuSans-2e" x="63.623047"/>
      <use xlink:href="#DejaVuSans-30" x="95.410156"/>
     </g>
    </g>
   </g>
   <g id="xtick_12">
    <g id="line2d_15">
     <path d="M 266.389698 158.222644 
L 270.126316 159.280238 
" style="fill: none; stroke: #000000; stroke-width: 0.8; stroke-linecap: square"/>
    </g>
    <g id="text_12">
     <!-- 0.2 -->
     <g transform="translate(278.097323 163.612285) scale(0.1 -0.1)">
      <use xlink:href="#DejaVuSans-30"/>
      <use xlink:href="#DejaVuSans-2e" x="63.623047"/>
      <use xlink:href="#DejaVuSans-32" x="95.410156"/>
     </g>
    </g>
   </g>
   <g id="xtick_13">
    <g id="line2d_16">
     <path d="M 267.368158 136.62506 
L 271.137288 137.665384 
" style="fill: none; stroke: #000000; stroke-width: 0.8; stroke-linecap: square"/>
    </g>
    <g id="text_13">
     <!-- 0.4 -->
     <g transform="translate(279.23752 142.050835) scale(0.1 -0.1)">
      <use xlink:href="#DejaVuSans-30"/>
      <use xlink:href="#DejaVuSans-2e" x="63.623047"/>
      <use xlink:href="#DejaVuSans-34" x="95.410156"/>
     </g>
    </g>
   </g>
   <g id="xtick_14">
    <g id="line2d_17">
     <path d="M 268.363142 114.6627 
L 272.165355 115.685018 
" style="fill: none; stroke: #000000; stroke-width: 0.8; stroke-linecap: square"/>
    </g>
    <g id="text_14">
     <!-- 0.6 -->
     <g transform="translate(280.396926 120.126149) scale(0.1 -0.1)">
      <use xlink:href="#DejaVuSans-30"/>
      <use xlink:href="#DejaVuSans-2e" x="63.623047"/>
      <use xlink:href="#DejaVuSans-36" x="95.410156"/>
     </g>
    </g>
   </g>
   <g id="xtick_15">
    <g id="line2d_18">
     <path d="M 269.375075 92.326247 
L 273.210956 93.32979 
" style="fill: none; stroke: #000000; stroke-width: 0.8; stroke-linecap: square"/>
    </g>
    <g id="text_15">
     <!-- 0.8 -->
     <g transform="translate(281.576031 97.82897) scale(0.1 -0.1)">
      <use xlink:href="#DejaVuSans-30"/>
      <use xlink:href="#DejaVuSans-2e" x="63.623047"/>
      <use xlink:href="#DejaVuSans-38" x="95.410156"/>
     </g>
    </g>
   </g>
   <g id="xtick_16">
    <g id="line2d_19">
     <path d="M 270.404393 69.606058 
L 274.274542 70.590028 
" style="fill: none; stroke: #000000; stroke-width: 0.8; stroke-linecap: square"/>
    </g>
    <g id="text_16">
     <!-- 1.0 -->
     <g transform="translate(282.775339 75.149724) scale(0.1 -0.1)">
      <defs>
       <path id="DejaVuSans-31" d="M 794 531 
L 1825 531 
L 1825 4091 
L 703 3866 
L 703 4441 
L 1819 4666 
L 2450 4666 
L 2450 531 
L 3481 531 
L 3481 0 
L 794 0 
L 794 531 
z
" transform="scale(0.015625)"/>
      </defs>
      <use xlink:href="#DejaVuSans-31"/>
      <use xlink:href="#DejaVuSans-2e" x="63.623047"/>
      <use xlink:href="#DejaVuSans-30" x="95.410156"/>
     </g>
    </g>
   </g>
  </g>
  <g id="axes_1">
   <g id="line2d_20">
    <path d="M 43.742447 211.567338 
L 96.506852 228.62529 
L 94.239443 114.782662 
L 122.286631 122.771386 
L 123.617981 237.389917 
L 179.224505 255.366684 
L 179.224505 255.366684 
" clip-path="url(#pf237da616f)" style="fill: none; stroke: #1f77b4; stroke-width: 1.5; stroke-linecap: square"/>
   </g>
   <g id="line2d_21">
    <path d="M 53.178625 203.584269 
L 99.920558 218.404832 
L 100.581364 218.380514 
L 101.105405 218.105767 
L 101.493471 217.626368 
L 101.874918 216.781174 
L 102.247057 215.417583 
L 102.606842 213.358533 
L 103.062038 209.212223 
L 103.483887 203.120583 
L 103.961334 192.499941 
L 104.555442 172.81877 
L 105.667586 134.371545 
L 106.180372 123.815538 
L 106.754255 116.633083 
L 107.250854 113.024439 
L 107.772259 110.86192 
L 108.310571 109.70072 
L 108.721459 109.257819 
L 109.275034 109.010685 
L 109.97198 108.996634 
L 111.23185 109.262971 
L 118.821605 111.389057 
L 125.460287 113.354418 
L 126.170045 113.76546 
L 126.740071 114.331265 
L 127.169826 115.014428 
L 127.602468 116.049791 
L 128.039094 117.591686 
L 128.480923 119.822412 
L 129.080167 124.202741 
L 129.692841 130.557466 
L 130.477806 141.575515 
L 131.440383 158.769827 
L 133.967705 206.560812 
L 134.711022 216.329987 
L 135.431279 222.858076 
L 135.994856 226.155391 
L 136.550827 228.20752 
L 137.102043 229.425525 
L 137.650596 230.135916 
L 138.334549 230.645701 
L 139.427814 231.119917 
L 143.39563 232.406888 
L 187.887957 246.621343 
L 187.887957 246.621343 
" clip-path="url(#pf237da616f)" style="fill: none; stroke: #ff7f0e; stroke-width: 1.5; stroke-linecap: square"/>
   </g>
   <g id="line2d_22">
    <path d="M 62.454967 195.736422 
L 106.56363 209.551909 
L 107.484737 209.611402 
L 108.139775 209.449241 
L 108.660613 209.100424 
L 109.177122 208.455057 
L 109.687581 207.392272 
L 110.190039 205.769645 
L 110.682479 203.432851 
L 111.281208 199.280899 
L 111.859123 193.550253 
L 112.525179 184.471542 
L 113.376916 169.0919 
L 115.526278 127.498012 
L 116.231176 118.303508 
L 116.972675 111.543407 
L 117.615462 107.651713 
L 118.27636 105.076503 
L 118.814994 103.756221 
L 119.36006 102.924894 
L 119.90972 102.446448 
L 120.601096 102.179248 
L 121.434549 102.144436 
L 122.688627 102.357142 
L 126.041588 103.253105 
L 132.209752 105.071739 
L 133.335508 105.658685 
L 134.040803 106.260929 
L 134.606486 106.982815 
L 135.173911 108.028977 
L 135.743558 109.530173 
L 136.315903 111.638822 
L 136.891339 114.517078 
L 137.615272 119.426881 
L 138.344108 125.990426 
L 139.223532 136.106144 
L 140.398065 152.735061 
L 143.280004 195.628679 
L 144.259186 206.176966 
L 145.088254 212.631756 
L 145.773995 216.388446 
L 146.456685 218.962159 
L 147.137567 220.654429 
L 147.817541 221.739292 
L 148.497192 222.435726 
L 149.448769 223.047179 
L 150.808963 223.607848 
L 154.896888 224.926339 
L 196.397906 238.030957 
L 196.397906 238.030957 
" clip-path="url(#pf237da616f)" style="fill: none; stroke: #2ca02c; stroke-width: 1.5; stroke-linecap: square"/>
   </g>
   <g id="line2d_23">
    <path d="M 71.5755 188.020391 
L 113.6077 201.030823 
L 114.785643 201.154801 
L 115.568839 201.032396 
L 116.219031 200.704746 
L 116.736758 200.223477 
L 117.251573 199.477863 
L 117.762704 198.392961 
L 118.395221 196.434431 
L 119.019286 193.654059 
L 119.633809 189.904442 
L 120.358055 183.981329 
L 121.186199 175.065585 
L 122.23286 160.888413 
L 125.070805 120.469175 
L 125.946275 111.675717 
L 126.717606 105.887352 
L 127.506176 101.655228 
L 128.174244 99.170323 
L 128.850115 97.461725 
L 129.531897 96.359688 
L 130.21796 95.706603 
L 130.907013 95.369089 
L 131.736495 95.235473 
L 132.845196 95.317842 
L 134.789453 95.747189 
L 138.82648 96.899555 
L 140.361254 97.527959 
L 141.339341 98.158398 
L 142.178824 98.995634 
L 142.879319 100.033774 
L 143.580712 101.522935 
L 144.282963 103.621739 
L 144.985883 106.501183 
L 145.68909 110.324354 
L 146.53246 116.334148 
L 147.373975 123.977932 
L 148.490316 136.50668 
L 150.146156 158.390393 
L 152.046675 182.912032 
L 153.121839 193.995348 
L 154.059837 201.378883 
L 154.863582 206.04489 
L 155.668135 209.388967 
L 156.339602 211.361876 
L 157.012102 212.769097 
L 157.820425 213.919064 
L 158.630015 214.67816 
L 159.57584 215.272232 
L 161.064261 215.905561 
L 164.453776 217.010213 
L 204.758397 229.591441 
L 204.758397 229.591441 
" clip-path="url(#pf237da616f)" style="fill: none; stroke: #d62728; stroke-width: 1.5; stroke-linecap: square"/>
   </g>
   <g id="line2d_24">
    <path d="M 80.544117 180.432883 
L 120.784833 192.745936 
L 122.216501 192.930135 
L 123.126183 192.830724 
L 123.904096 192.499478 
L 124.550384 191.96309 
L 125.194222 191.10109 
L 125.834958 189.816342 
L 126.471967 188.003757 
L 127.104732 185.558412 
L 127.858029 181.658144 
L 128.604817 176.598479 
L 129.468978 169.191964 
L 130.573296 157.530447 
L 132.669881 132.046075 
L 134.058704 116.553771 
L 135.091792 107.239909 
L 136.011754 100.809673 
L 136.810904 96.59629 
L 137.618225 93.481787 
L 138.29601 91.611355 
L 138.97735 90.284926 
L 139.661416 89.39327 
L 140.347519 88.835369 
L 141.172781 88.484735 
L 142.137435 88.367242 
L 143.379641 88.479649 
L 145.314864 88.922209 
L 147.252886 89.563756 
L 148.500073 90.17887 
L 149.470653 90.898752 
L 150.302729 91.805284 
L 150.995987 92.863491 
L 151.688805 94.296117 
L 152.380776 96.209028 
L 153.071373 98.713249 
L 153.897372 102.646678 
L 154.719236 107.728043 
L 155.671185 115.196499 
L 156.748076 125.657844 
L 158.207948 142.494157 
L 160.945351 174.832501 
L 162.113389 185.720216 
L 163.02533 192.352223 
L 163.942121 197.401742 
L 164.7323 200.609901 
L 165.526427 202.961327 
L 166.324106 204.639432 
L 167.124775 205.81772 
L 167.927835 206.644747 
L 168.867029 207.320203 
L 170.211727 207.983299 
L 172.367832 208.752885 
L 181.162068 211.482305 
L 212.973332 221.298857 
L 212.973332 221.298857 
" clip-path="url(#pf237da616f)" style="fill: none; stroke: #9467bd; stroke-width: 1.5; stroke-linecap: square"/>
   </g>
   <g id="line2d_25">
    <path d="M 89.364581 172.970712 
L 128.093265 184.679642 
L 129.646235 184.899761 
L 130.680982 184.824769 
L 131.456242 184.55918 
L 132.10146 184.136482 
L 132.745666 183.468941 
L 133.388622 182.489407 
L 134.030121 181.124431 
L 134.797797 178.871186 
L 135.563107 175.830561 
L 136.326262 171.903041 
L 137.214627 166.12712 
L 138.229104 157.979794 
L 139.500447 145.854485 
L 143.393064 107.188381 
L 144.458142 99.225007 
L 145.398471 93.640892 
L 146.345176 89.350105 
L 147.160579 86.617125 
L 147.978702 84.636546 
L 148.798809 83.275618 
L 149.483332 82.518348 
L 150.305716 81.955476 
L 151.128871 81.671124 
L 152.089954 81.581904 
L 153.326554 81.715 
L 154.701538 82.083773 
L 155.939624 82.614648 
L 157.04017 83.326453 
L 158.002573 84.248643 
L 158.826435 85.371774 
L 159.64857 86.920223 
L 160.468043 89.023469 
L 161.283731 91.817535 
L 162.09438 95.429862 
L 163.032071 100.809081 
L 163.9594 107.509032 
L 165.00509 116.708929 
L 166.418548 131.445305 
L 169.943416 169.620749 
L 171.079646 178.995984 
L 172.099079 185.54166 
L 172.999723 189.931468 
L 173.908478 193.218857 
L 174.693346 195.305061 
L 175.48296 196.853977 
L 176.276519 197.990188 
L 177.20627 198.938966 
L 178.272679 199.694201 
L 179.609599 200.355794 
L 181.754138 201.135048 
L 188.344889 203.171489 
L 221.04648 213.1494 
L 221.04648 213.1494 
" clip-path="url(#pf237da616f)" style="fill: none; stroke: #8c564b; stroke-width: 1.5; stroke-linecap: square"/>
   </g>
   <g id="line2d_26">
    <path d="M 98.040534 165.630798 
L 135.402852 176.793401 
L 137.075683 177.043772 
L 138.10536 177.006077 
L 139.00626 176.759019 
L 139.778289 176.312176 
L 140.550088 175.568187 
L 141.321642 174.438242 
L 142.093021 172.825346 
L 142.864409 170.631112 
L 143.636128 167.765091 
L 144.537523 163.478761 
L 145.570305 157.271438 
L 146.737625 148.680747 
L 148.307191 135.13166 
L 151.908572 103.226992 
L 153.128363 94.582881 
L 154.217813 88.34296 
L 155.173629 84.045699 
L 156.130756 80.774505 
L 156.951613 78.697552 
L 157.772556 77.191283 
L 158.593405 76.154534 
L 159.414088 75.490652 
L 160.234602 75.114737 
L 161.191697 74.949686 
L 162.148646 75.007604 
L 163.242068 75.297565 
L 164.334948 75.828291 
L 165.290253 76.538683 
L 166.107779 77.393569 
L 166.923385 78.55061 
L 167.736189 80.097595 
L 168.545122 82.133216 
L 169.348969 84.759343 
L 170.146444 88.070591 
L 171.067125 92.897845 
L 172.104564 99.754057 
L 173.251337 109.106958 
L 174.624907 122.410509 
L 178.656142 163.190708 
L 179.766047 171.613122 
L 180.765181 177.614565 
L 181.650159 181.750037 
L 182.545006 184.948347 
L 183.44887 187.350729 
L 184.360488 189.113673 
L 185.278432 190.389125 
L 186.201309 191.311125 
L 187.260505 192.071117 
L 188.589148 192.753347 
L 190.58808 193.50931 
L 195.267173 194.966088 
L 228.98148 205.139397 
L 228.98148 205.139397 
" clip-path="url(#pf237da616f)" style="fill: none; stroke: #e377c2; stroke-width: 1.5; stroke-linecap: square"/>
   </g>
   <g id="line2d_27">
    <path d="M 106.575498 158.410162 
L 142.714493 169.07894 
L 144.505832 169.351079 
L 145.658418 169.316442 
L 146.555489 169.089026 
L 147.324937 168.690787 
L 148.095014 168.041472 
L 148.865932 167.071505 
L 149.637981 165.704878 
L 150.411547 163.8635 
L 151.187108 161.473174 
L 152.095194 157.907573 
L 153.007724 153.443817 
L 154.057303 147.227417 
L 155.381111 137.922543 
L 157.25873 122.862645 
L 160.122396 99.839228 
L 161.498481 90.454523 
L 162.739096 83.478923 
L 163.841373 78.560673 
L 164.80442 75.223924 
L 165.765603 72.709232 
L 166.587858 71.125461 
L 167.408654 69.988505 
L 168.228113 69.22291 
L 169.04639 68.761011 
L 169.863628 68.547678 
L 170.67991 68.543533 
L 171.631008 68.77519 
L 172.58053 69.260505 
L 173.527913 70.031792 
L 174.33757 70.969039 
L 175.144197 72.22162 
L 175.946811 73.859383 
L 176.744271 75.959128 
L 177.666474 79.095203 
L 178.578008 83.072273 
L 179.477134 87.963868 
L 180.487964 94.697706 
L 181.603235 103.629502 
L 183.057643 117.238673 
L 186.85845 153.969657 
L 188.062327 162.925084 
L 189.163612 169.40409 
L 190.158217 173.919993 
L 191.040386 176.998634 
L 191.932716 179.375313 
L 192.833894 181.172666 
L 193.742434 182.513191 
L 194.787888 183.62874 
L 195.839054 184.433454 
L 197.15863 185.163445 
L 199.01269 185.912598 
L 202.46715 187.01939 
L 228.503124 194.794828 
L 236.781848 197.265299 
L 236.781848 197.265299 
" clip-path="url(#pf237da616f)" style="fill: none; stroke: #7f7f7f; stroke-width: 1.5; stroke-linecap: square"/>
   </g>
   <g id="line2d_28">
    <path d="M 114.972883 151.305919 
L 149.901945 161.501765 
L 151.810356 161.804682 
L 153.0845 161.785467 
L 154.105281 161.54134 
L 154.999913 161.079941 
L 155.768161 160.437188 
L 156.538102 159.505381 
L 157.310182 158.222158 
L 158.084929 156.523919 
L 158.99296 153.937782 
L 159.906429 150.623716 
L 160.958327 145.878108 
L 162.153359 139.304858 
L 163.496995 130.602333 
L 165.405916 116.648911 
L 168.73409 92.264346 
L 170.268535 82.818974 
L 171.521862 76.455618 
L 172.632113 71.91919 
L 173.599768 68.795475 
L 174.563564 66.39978 
L 175.38663 64.862981 
L 176.207043 63.741689 
L 177.025011 62.978886 
L 177.840744 62.52412 
L 178.654395 62.337641 
L 179.466012 62.393348 
L 180.275498 62.680605 
L 181.082576 63.204949 
L 181.886773 63.987765 
L 182.687407 65.064866 
L 183.483604 66.483955 
L 184.405497 68.646559 
L 185.318098 71.444318 
L 186.219534 74.963755 
L 187.23392 79.951666 
L 188.2297 86.004809 
L 189.326966 94.02911 
L 190.637306 105.275621 
L 193.191988 129.781308 
L 194.929239 145.187662 
L 196.105279 153.842617 
L 197.182529 160.274118 
L 198.15691 164.891456 
L 199.147149 168.541587 
L 200.025749 171.033833 
L 200.914404 172.971963 
L 201.811652 174.457158 
L 202.845652 175.723733 
L 203.886762 176.652494 
L 205.195395 177.494496 
L 206.772861 178.227065 
L 209.279735 179.108141 
L 215.903905 181.097334 
L 244.450982 189.523675 
L 244.450982 189.523675 
" clip-path="url(#pf237da616f)" style="fill: none; stroke: #bcbd22; stroke-width: 1.5; stroke-linecap: square"/>
   </g>
   <g id="line2d_29">
    <path d="M 123.235988 144.315278 
L 156.968301 154.056325 
L 158.9923 154.395582 
L 160.386568 154.401086 
L 161.402626 154.19551 
L 162.293617 153.801805 
L 163.186998 153.14001 
L 163.955185 152.3022 
L 164.726171 151.160131 
L 165.629995 149.372376 
L 166.539481 147.017524 
L 167.455699 144.026361 
L 168.512344 139.767639 
L 169.714704 133.880217 
L 171.068756 126.058052 
L 172.856914 114.30239 
L 177.489606 83.123036 
L 178.898651 75.329241 
L 180.161244 69.490045 
L 181.277155 65.295767 
L 182.386142 62.018039 
L 183.350647 59.847808 
L 184.309839 58.261959 
L 185.128003 57.315586 
L 185.942692 56.707737 
L 186.754059 56.405331 
L 187.427702 56.36977 
L 188.099027 56.523349 
L 188.901361 56.956984 
L 189.699748 57.673576 
L 190.493576 58.696378 
L 191.282046 60.058867 
L 192.193874 62.132273 
L 193.095422 64.793113 
L 193.98498 68.106653 
L 194.984976 72.755392 
L 196.086852 79.116356 
L 197.281769 87.519479 
L 198.678379 99.110995 
L 203.788949 143.558527 
L 204.957134 150.822654 
L 206.030334 156.132212 
L 207.002186 159.911313 
L 207.990052 162.891604 
L 208.992294 165.186224 
L 210.006816 166.920182 
L 211.031367 168.216266 
L 212.063795 169.185113 
L 213.362547 170.075666 
L 214.929318 170.851373 
L 217.158238 171.677071 
L 221.764884 173.082521 
L 251.992165 181.911211 
L 251.992165 181.911211 
" clip-path="url(#pf237da616f)" style="fill: none; stroke: #17becf; stroke-width: 1.5; stroke-linecap: square"/>
   </g>
  </g>
 </g>
 <defs>
  <clipPath id="pf237da616f">
   <rect x="7.2" y="7.2" width="277.2" height="277.2"/>
  </clipPath>
 </defs>
</svg>
