<?xml version="1.0" encoding="utf-8" standalone="no"?>
<!DOCTYPE svg PUBLIC "-//W3C//DTD SVG 1.1//EN"
  "http://www.w3.org/Graphics/SVG/1.1/DTD/svg11.dtd">
<svg xmlns:xlink="http://www.w3.org/1999/xlink" width="424.725pt" height="121.454863pt" viewBox="0 0 424.725 121.454863" xmlns="http://www.w3.org/2000/svg" version="1.1">
 <metadata>
  <rdf:RDF xmlns:dc="http://purl.org/dc/elements/1.1/" xmlns:cc="http://creativecommons.org/ns#" xmlns:rdf="http://www.w3.org/1999/02/22-rdf-syntax-ns#">
   <cc:Work>
    <dc:type rdf:resource="http://purl.org/dc/dcmitype/StillImage"/>
    <dc:date>2025-12-16T09:20:28.557856</dc:date>
    <dc:format>image/svg+xml</dc:format>
    <dc:creator>
     <cc:Agent>
      <dc:title>Matplotlib v3.10.3, https://matplotlib.org/</dc:title>
     </cc:Agent>
    </dc:creator>
   </cc:Work>
  </rdf:RDF>
 </metadata>
 <defs>
  <style type="text/css">*{stroke-linejoin: round; stroke-linecap: butt}</style>
 </defs>
 <g id="figure_1">
  <g id="patch_1">
   <path d="M 0 121.454863 
L 424.725 121.454863 
L 424.725 -0 
L 0 -0 
z
" style="fill: #ffffff"/>
  </g>
  <g id="axes_1">
   <g id="patch_2">
    <path d="M 26.925 83.898613 
L 417.525 83.898613 
L 417.525 7.376429 
L 26.925 7.376429 
z
" style="fill: #ffffff"/>
   </g>
   <g id="matplotlib.axis_1">
    <g id="xtick_1">
     <g id="line2d_1">
      <defs>
       <path id="m0e68b4265f" d="M 0 0 
L 0 3.5 
" style="stroke: #000000; stroke-width: 0.8"/>
      </defs>
      <g>
       <use xlink:href="#m0e68b4265f" x="44.679545" y="83.898613" style="stroke: #000000; stroke-width: 0.8"/>
      </g>
     </g>
     <g id="text_1">
      <!-- 0 -->
      <g transform="translate(41.498295 98.49705) scale(0.1 -0.1)">
       <defs>
        <path id="DejaVuSans-30" d="M 2034 4250 
Q 1547 4250 1301 3770 
Q 1056 3291 1056 2328 
Q 1056 1369 1301 889 
Q 1547 409 2034 409 
Q 2525 409 2770 889 
Q 3016 1369 3016 2328 
Q 3016 3291 2770 3770 
Q 2525 4250 2034 4250 
z
M 2034 4750 
Q 2819 4750 3233 4129 
Q 3647 3509 3647 2328 
Q 3647 1150 3233 529 
Q 2819 -91 2034 -91 
Q 1250 -91 836 529 
Q 422 1150 422 2328 
Q 422 3509 836 4129 
Q 1250 4750 2034 4750 
z
" transform="scale(0.015625)"/>
       </defs>
       <use xlink:href="#DejaVuSans-30"/>
      </g>
     </g>
    </g>
    <g id="xtick_2">
     <g id="line2d_2">
      <g>
       <use xlink:href="#m0e68b4265f" x="114.101033" y="83.898613" style="stroke: #000000; stroke-width: 0.8"/>
      </g>
     </g>
     <g id="text_2">
      <!-- 100 -->
      <g transform="translate(104.557283 98.49705) scale(0.1 -0.1)">
       <defs>
        <path id="DejaVuSans-31" d="M 794 531 
L 1825 531 
L 1825 4091 
L 703 3866 
L 703 4441 
L 1819 4666 
L 2450 4666 
L 2450 531 
L 3481 531 
L 3481 0 
L 794 0 
L 794 531 
z
" transform="scale(0.015625)"/>
       </defs>
       <use xlink:href="#DejaVuSans-31"/>
       <use xlink:href="#DejaVuSans-30" transform="translate(63.623047 0)"/>
       <use xlink:href="#DejaVuSans-30" transform="translate(127.246094 0)"/>
      </g>
     </g>
    </g>
    <g id="xtick_3">
     <g id="line2d_3">
      <g>
       <use xlink:href="#m0e68b4265f" x="183.522521" y="83.898613" style="stroke: #000000; stroke-width: 0.8"/>
      </g>
     </g>
     <g id="text_3">
      <!-- 200 -->
      <g transform="translate(173.978771 98.49705) scale(0.1 -0.1)">
       <defs>
        <path id="DejaVuSans-32" d="M 1228 531 
L 3431 531 
L 3431 0 
L 469 0 
L 469 531 
Q 828 903 1448 1529 
Q 2069 2156 2228 2338 
Q 2531 2678 2651 2914 
Q 2772 3150 2772 3378 
Q 2772 3750 2511 3984 
Q 2250 4219 1831 4219 
Q 1534 4219 1204 4116 
Q 875 4013 500 3803 
L 500 4441 
Q 881 4594 1212 4672 
Q 1544 4750 1819 4750 
Q 2544 4750 2975 4387 
Q 3406 4025 3406 3419 
Q 3406 3131 3298 2873 
Q 3191 2616 2906 2266 
Q 2828 2175 2409 1742 
Q 1991 1309 1228 531 
z
" transform="scale(0.015625)"/>
       </defs>
       <use xlink:href="#DejaVuSans-32"/>
       <use xlink:href="#DejaVuSans-30" transform="translate(63.623047 0)"/>
       <use xlink:href="#DejaVuSans-30" transform="translate(127.246094 0)"/>
      </g>
     </g>
    </g>
    <g id="xtick_4">
     <g id="line2d_4">
      <g>
       <use xlink:href="#m0e68b4265f" x="252.944008" y="83.898613" style="stroke: #000000; stroke-width: 0.8"/>
      </g>
     </g>
     <g id="text_4">
      <!-- 300 -->
      <g transform="translate(243.400258 98.49705) scale(0.1 -0.1)">
       <defs>
        <path id="DejaVuSans-33" d="M 2597 2516 
Q 3050 2419 3304 2112 
Q 3559 1806 3559 1356 
Q 3559 666 3084 287 
Q 2609 -91 1734 -91 
Q 1441 -91 1130 -33 
Q 819 25 488 141 
L 488 750 
Q 750 597 1062 519 
Q 1375 441 1716 441 
Q 2309 441 2620 675 
Q 2931 909 2931 1356 
Q 2931 1769 2642 2001 
Q 2353 2234 1838 2234 
L 1294 2234 
L 1294 2753 
L 1863 2753 
Q 2328 2753 2575 2939 
Q 2822 3125 2822 3475 
Q 2822 3834 2567 4026 
Q 2313 4219 1838 4219 
Q 1578 4219 1281 4162 
Q 984 4106 628 3988 
L 628 4550 
Q 988 4650 1302 4700 
Q 1616 4750 1894 4750 
Q 2613 4750 3031 4423 
Q 3450 4097 3450 3541 
Q 3450 3153 3228 2886 
Q 3006 2619 2597 2516 
z
" transform="scale(0.015625)"/>
       </defs>
       <use xlink:href="#DejaVuSans-33"/>
       <use xlink:href="#DejaVuSans-30" transform="translate(63.623047 0)"/>
       <use xlink:href="#DejaVuSans-30" transform="translate(127.246094 0)"/>
      </g>
     </g>
    </g>
    <g id="xtick_5">
     <g id="line2d_5">
      <g>
       <use xlink:href="#m0e68b4265f" x="322.365496" y="83.898613" style="stroke: #000000; stroke-width: 0.8"/>
      </g>
     </g>
     <g id="text_5">
      <!-- 400 -->
      <g transform="translate(312.821746 98.49705) scale(0.1 -0.1)">
       <defs>
        <path id="DejaVuSans-34" d="M 2419 4116 
L 825 1625 
L 2419 1625 
L 2419 4116 
z
M 2253 4666 
L 3047 4666 
L 3047 1625 
L 3713 1625 
L 3713 1100 
L 3047 1100 
L 3047 0 
L 2419 0 
L 2419 1100 
L 313 1100 
L 313 1709 
L 2253 4666 
z
" transform="scale(0.015625)"/>
       </defs>
       <use xlink:href="#DejaVuSans-34"/>
       <use xlink:href="#DejaVuSans-30" transform="translate(63.623047 0)"/>
       <use xlink:href="#DejaVuSans-30" transform="translate(127.246094 0)"/>
      </g>
     </g>
    </g>
    <g id="xtick_6">
     <g id="line2d_6">
      <g>
       <use xlink:href="#m0e68b4265f" x="391.786983" y="83.898613" style="stroke: #000000; stroke-width: 0.8"/>
      </g>
     </g>
     <g id="text_6">
      <!-- 500 -->
      <g transform="translate(382.243233 98.49705) scale(0.1 -0.1)">
       <defs>
        <path id="DejaVuSans-35" d="M 691 4666 
L 3169 4666 
L 3169 4134 
L 1269 4134 
L 1269 2991 
Q 1406 3038 1543 3061 
Q 1681 3084 1819 3084 
Q 2600 3084 3056 2656 
Q 3513 2228 3513 1497 
Q 3513 744 3044 326 
Q 2575 -91 1722 -91 
Q 1428 -91 1123 -41 
Q 819 9 494 109 
L 494 744 
Q 775 591 1075 516 
Q 1375 441 1709 441 
Q 2250 441 2565 725 
Q 2881 1009 2881 1497 
Q 2881 1984 2565 2268 
Q 2250 2553 1709 2553 
Q 1456 2553 1204 2497 
Q 953 2441 691 2322 
L 691 4666 
z
" transform="scale(0.015625)"/>
       </defs>
       <use xlink:href="#DejaVuSans-35"/>
       <use xlink:href="#DejaVuSans-30" transform="translate(63.623047 0)"/>
       <use xlink:href="#DejaVuSans-30" transform="translate(127.246094 0)"/>
      </g>
     </g>
    </g>
    <g id="text_7">
     <!-- Frequency [Hz] -->
     <g transform="translate(184.520313 112.175175) scale(0.1 -0.1)">
      <defs>
       <path id="DejaVuSans-46" d="M 628 4666 
L 3309 4666 
L 3309 4134 
L 1259 4134 
L 1259 2759 
L 3109 2759 
L 3109 2228 
L 1259 2228 
L 1259 0 
L 628 0 
L 628 4666 
z
" transform="scale(0.015625)"/>
       <path id="DejaVuSans-72" d="M 2631 2963 
Q 2534 3019 2420 3045 
Q 2306 3072 2169 3072 
Q 1681 3072 1420 2755 
Q 1159 2438 1159 1844 
L 1159 0 
L 581 0 
L 581 3500 
L 1159 3500 
L 1159 2956 
Q 1341 3275 1631 3429 
Q 1922 3584 2338 3584 
Q 2397 3584 2469 3576 
Q 2541 3569 2628 3553 
L 2631 2963 
z
" transform="scale(0.015625)"/>
       <path id="DejaVuSans-65" d="M 3597 1894 
L 3597 1613 
L 953 1613 
Q 991 1019 1311 708 
Q 1631 397 2203 397 
Q 2534 397 2845 478 
Q 3156 559 3463 722 
L 3463 178 
Q 3153 47 2828 -22 
Q 2503 -91 2169 -91 
Q 1331 -91 842 396 
Q 353 884 353 1716 
Q 353 2575 817 3079 
Q 1281 3584 2069 3584 
Q 2775 3584 3186 3129 
Q 3597 2675 3597 1894 
z
M 3022 2063 
Q 3016 2534 2758 2815 
Q 2500 3097 2075 3097 
Q 1594 3097 1305 2825 
Q 1016 2553 972 2059 
L 3022 2063 
z
" transform="scale(0.015625)"/>
       <path id="DejaVuSans-71" d="M 947 1747 
Q 947 1113 1208 752 
Q 1469 391 1925 391 
Q 2381 391 2643 752 
Q 2906 1113 2906 1747 
Q 2906 2381 2643 2742 
Q 2381 3103 1925 3103 
Q 1469 3103 1208 2742 
Q 947 2381 947 1747 
z
M 2906 525 
Q 2725 213 2448 61 
Q 2172 -91 1784 -91 
Q 1150 -91 751 415 
Q 353 922 353 1747 
Q 353 2572 751 3078 
Q 1150 3584 1784 3584 
Q 2172 3584 2448 3432 
Q 2725 3281 2906 2969 
L 2906 3500 
L 3481 3500 
L 3481 -1331 
L 2906 -1331 
L 2906 525 
z
" transform="scale(0.015625)"/>
       <path id="DejaVuSans-75" d="M 544 1381 
L 544 3500 
L 1119 3500 
L 1119 1403 
Q 1119 906 1312 657 
Q 1506 409 1894 409 
Q 2359 409 2629 706 
Q 2900 1003 2900 1516 
L 2900 3500 
L 3475 3500 
L 3475 0 
L 2900 0 
L 2900 538 
Q 2691 219 2414 64 
Q 2138 -91 1772 -91 
Q 1169 -91 856 284 
Q 544 659 544 1381 
z
M 1991 3584 
L 1991 3584 
z
" transform="scale(0.015625)"/>
       <path id="DejaVuSans-6e" d="M 3513 2113 
L 3513 0 
L 2938 0 
L 2938 2094 
Q 2938 2591 2744 2837 
Q 2550 3084 2163 3084 
Q 1697 3084 1428 2787 
Q 1159 2491 1159 1978 
L 1159 0 
L 581 0 
L 581 3500 
L 1159 3500 
L 1159 2956 
Q 1366 3272 1645 3428 
Q 1925 3584 2291 3584 
Q 2894 3584 3203 3211 
Q 3513 2838 3513 2113 
z
" transform="scale(0.015625)"/>
       <path id="DejaVuSans-63" d="M 3122 3366 
L 3122 2828 
Q 2878 2963 2633 3030 
Q 2388 3097 2138 3097 
Q 1578 3097 1268 2742 
Q 959 2388 959 1747 
Q 959 1106 1268 751 
Q 1578 397 2138 397 
Q 2388 397 2633 464 
Q 2878 531 3122 666 
L 3122 134 
Q 2881 22 2623 -34 
Q 2366 -91 2075 -91 
Q 1284 -91 818 406 
Q 353 903 353 1747 
Q 353 2603 823 3093 
Q 1294 3584 2113 3584 
Q 2378 3584 2631 3529 
Q 2884 3475 3122 3366 
z
" transform="scale(0.015625)"/>
       <path id="DejaVuSans-79" d="M 2059 -325 
Q 1816 -950 1584 -1140 
Q 1353 -1331 966 -1331 
L 506 -1331 
L 506 -850 
L 844 -850 
Q 1081 -850 1212 -737 
Q 1344 -625 1503 -206 
L 1606 56 
L 191 3500 
L 800 3500 
L 1894 763 
L 2988 3500 
L 3597 3500 
L 2059 -325 
z
" transform="scale(0.015625)"/>
       <path id="DejaVuSans-20" transform="scale(0.015625)"/>
       <path id="DejaVuSans-5b" d="M 550 4863 
L 1875 4863 
L 1875 4416 
L 1125 4416 
L 1125 -397 
L 1875 -397 
L 1875 -844 
L 550 -844 
L 550 4863 
z
" transform="scale(0.015625)"/>
       <path id="DejaVuSans-48" d="M 628 4666 
L 1259 4666 
L 1259 2753 
L 3553 2753 
L 3553 4666 
L 4184 4666 
L 4184 0 
L 3553 0 
L 3553 2222 
L 1259 2222 
L 1259 0 
L 628 0 
L 628 4666 
z
" transform="scale(0.015625)"/>
       <path id="DejaVuSans-7a" d="M 353 3500 
L 3084 3500 
L 3084 2975 
L 922 459 
L 3084 459 
L 3084 0 
L 275 0 
L 275 525 
L 2438 3041 
L 353 3041 
L 353 3500 
z
" transform="scale(0.015625)"/>
       <path id="DejaVuSans-5d" d="M 1947 4863 
L 1947 -844 
L 622 -844 
L 622 -397 
L 1369 -397 
L 1369 4416 
L 622 4416 
L 622 4863 
L 1947 4863 
z
" transform="scale(0.015625)"/>
      </defs>
      <use xlink:href="#DejaVuSans-46"/>
      <use xlink:href="#DejaVuSans-72" transform="translate(50.269531 0)"/>
      <use xlink:href="#DejaVuSans-65" transform="translate(89.132812 0)"/>
      <use xlink:href="#DejaVuSans-71" transform="translate(150.65625 0)"/>
      <use xlink:href="#DejaVuSans-75" transform="translate(214.132812 0)"/>
      <use xlink:href="#DejaVuSans-65" transform="translate(277.511719 0)"/>
      <use xlink:href="#DejaVuSans-6e" transform="translate(339.035156 0)"/>
      <use xlink:href="#DejaVuSans-63" transform="translate(402.414062 0)"/>
      <use xlink:href="#DejaVuSans-79" transform="translate(457.394531 0)"/>
      <use xlink:href="#DejaVuSans-20" transform="translate(516.574219 0)"/>
      <use xlink:href="#DejaVuSans-5b" transform="translate(548.361328 0)"/>
      <use xlink:href="#DejaVuSans-48" transform="translate(587.375 0)"/>
      <use xlink:href="#DejaVuSans-7a" transform="translate(662.570312 0)"/>
      <use xlink:href="#DejaVuSans-5d" transform="translate(715.060547 0)"/>
     </g>
    </g>
   </g>
   <g id="matplotlib.axis_2">
    <g id="ytick_1">
     <g id="line2d_7">
      <defs>
       <path id="mba04a5fe13" d="M 0 0 
L -3.5 0 
" style="stroke: #000000; stroke-width: 0.8"/>
      </defs>
      <g>
       <use xlink:href="#mba04a5fe13" x="26.925" y="80.420706" style="stroke: #000000; stroke-width: 0.8"/>
      </g>
     </g>
     <g id="text_8">
      <!-- 0 -->
      <g transform="translate(13.5625 84.219925) scale(0.1 -0.1)">
       <use xlink:href="#DejaVuSans-30"/>
      </g>
     </g>
    </g>
    <g id="ytick_2">
     <g id="line2d_8">
      <g>
       <use xlink:href="#mba04a5fe13" x="26.925" y="45.709963" style="stroke: #000000; stroke-width: 0.8"/>
      </g>
     </g>
     <g id="text_9">
      <!-- 5 -->
      <g transform="translate(13.5625 49.509181) scale(0.1 -0.1)">
       <use xlink:href="#DejaVuSans-35"/>
      </g>
     </g>
    </g>
    <g id="ytick_3">
     <g id="line2d_9">
      <g>
       <use xlink:href="#mba04a5fe13" x="26.925" y="10.999219" style="stroke: #000000; stroke-width: 0.8"/>
      </g>
     </g>
     <g id="text_10">
      <!-- 10 -->
      <g transform="translate(7.2 14.798437) scale(0.1 -0.1)">
       <use xlink:href="#DejaVuSans-31"/>
       <use xlink:href="#DejaVuSans-30" transform="translate(63.623047 0)"/>
      </g>
     </g>
    </g>
   </g>
   <g id="line2d_10">
    <path d="M 44.679545 80.41583 
L 70.712603 80.306509 
L 73.83657 80.113403 
L 75.225 79.843156 
L 75.919215 79.551919 
L 76.61343 78.96526 
L 76.960537 78.431358 
L 77.307645 77.589536 
L 77.654752 76.238602 
L 78.00186 74.069454 
L 78.348967 70.648822 
L 78.696074 65.450176 
L 79.043182 57.981615 
L 79.737397 36.200979 
L 80.431612 14.462765 
L 80.778719 10.85471 
L 81.125826 15.710256 
L 82.167149 57.757844 
L 82.514256 61.101249 
L 82.861364 55.263841 
L 83.208471 47.327596 
L 83.555579 45.869675 
L 84.249793 61.424474 
L 84.596901 62.705082 
L 84.944008 56.863054 
L 85.291116 53.02642 
L 85.638223 57.258485 
L 85.985331 63.792924 
L 86.332438 63.465011 
L 86.679545 58.126685 
L 87.026653 57.774838 
L 87.37376 63.49543 
L 87.720868 65.447568 
L 88.067975 60.995302 
L 88.415083 59.792903 
L 88.76219 64.738505 
L 89.109298 66.066581 
L 89.456405 61.858712 
L 89.803512 62.164077 
L 90.15062 66.691094 
L 90.497727 65.533475 
L 90.844835 62.290583 
L 91.53905 67.523071 
L 91.886157 63.994828 
L 92.233264 64.584549 
L 92.580372 68.091769 
L 92.927479 65.652494 
L 93.274587 64.609854 
L 93.621694 68.235194 
L 94.315909 65.058794 
L 94.663017 68.470362 
L 95.010124 67.295316 
L 95.357231 65.655449 
L 95.704339 68.895115 
L 96.398554 66.380242 
L 96.745661 69.383288 
L 97.092769 67.269154 
L 97.439876 67.360204 
L 97.786983 69.648539 
L 98.134091 67.029266 
L 98.481198 68.644239 
L 98.828306 69.346876 
L 99.175413 67.212009 
L 99.522521 69.873936 
L 99.869628 68.466243 
L 100.216736 68.317166 
L 100.563843 70.209731 
L 100.91095 67.841154 
L 101.258058 69.979188 
L 101.952273 68.688985 
L 102.29938 70.570132 
L 102.646488 68.352145 
L 102.993595 70.491749 
L 103.340702 69.343162 
L 103.68781 69.527398 
L 104.034917 70.581763 
L 104.382025 68.884975 
L 104.729132 71.086047 
L 105.07624 69.124735 
L 105.423347 70.75525 
L 105.770455 69.974747 
L 106.117562 70.088607 
L 106.464669 70.864476 
L 106.811777 69.604896 
L 107.158884 71.405917 
L 107.505992 69.532503 
L 107.853099 71.524372 
L 108.200207 69.824344 
L 108.547314 71.3493 
L 108.894421 70.30988 
L 109.241529 71.060108 
L 109.588636 70.825546 
L 109.935744 70.791622 
L 110.282851 71.271849 
L 110.629959 70.609355 
L 110.977066 71.613897 
L 111.324174 70.524565 
L 111.671281 71.858284 
L 112.018388 70.519723 
L 112.365496 72.029062 
L 112.712603 70.569013 
L 113.059711 72.151594 
L 113.406818 70.650154 
L 113.753926 72.244533 
L 114.101033 70.749377 
L 114.44814 72.317131 
L 114.795248 70.862512 
L 115.142355 72.369229 
L 115.489463 70.994262 
L 115.83657 72.392552 
L 116.183678 71.156373 
L 116.530785 72.373207 
L 116.877893 71.364226 
L 117.225 72.296275 
L 117.572107 71.63079 
L 117.919215 72.153552 
L 118.266322 71.957138 
L 118.61343 71.954524 
L 118.960537 72.320618 
L 119.307645 71.737889 
L 119.654752 72.665434 
L 120.00186 71.576509 
L 120.348967 72.904949 
L 120.696074 71.564935 
L 121.043182 72.946826 
L 121.390289 71.780362 
L 121.737397 72.745016 
L 122.084504 72.221775 
L 122.431612 72.361624 
L 122.778719 72.758798 
L 123.125826 71.992674 
L 123.472934 73.146651 
L 123.820041 71.90011 
L 124.167149 73.151787 
L 124.514256 72.236529 
L 124.861364 72.752619 
L 125.208471 72.859644 
L 125.555579 72.25757 
L 125.902686 73.33472 
L 126.249793 72.144782 
L 126.596901 73.25594 
L 126.944008 72.625447 
L 127.291116 72.699942 
L 127.638223 73.310199 
L 127.985331 72.299355 
L 128.332438 73.488363 
L 128.679545 72.617746 
L 129.37376 73.368719 
L 129.720868 72.455981 
L 130.067975 73.605784 
L 130.415083 72.782879 
L 130.76219 73.016199 
L 131.109298 73.565655 
L 131.456405 72.572179 
L 131.803512 73.622886 
L 132.15062 73.117564 
L 132.497727 72.903084 
L 132.844835 73.806539 
L 133.191942 72.78682 
L 133.53905 73.429941 
L 133.886157 73.613974 
L 134.233264 72.791026 
L 134.580372 73.822329 
L 134.927479 73.310582 
L 135.274587 73.044765 
L 135.621694 73.981279 
L 135.968802 73.091591 
L 136.315909 73.376904 
L 136.663017 73.970578 
L 137.010124 73.011089 
L 137.357231 73.670591 
L 137.704339 73.892273 
L 138.051446 73.036107 
L 138.398554 73.885937 
L 138.745661 73.820049 
L 139.092769 73.111551 
L 139.439876 74.029227 
L 139.786983 73.789464 
L 140.134091 73.1942 
L 140.481198 74.119825 
L 140.828306 73.811663 
L 141.175413 73.261114 
L 141.522521 74.171176 
L 141.869628 73.887524 
L 142.216736 73.307989 
L 142.563843 74.184067 
L 142.91095 74.013794 
L 143.258058 73.347288 
L 143.605165 74.147775 
L 143.952273 74.180169 
L 144.29938 73.408129 
L 144.646488 74.048346 
L 144.993595 74.359382 
L 145.340702 73.533219 
L 145.68781 73.886123 
L 146.034917 74.496694 
L 146.382025 73.763134 
L 146.729132 73.701261 
L 147.07624 74.513562 
L 147.770455 73.591807 
L 148.117562 74.346519 
L 148.464669 74.457722 
L 148.811777 73.688428 
L 149.158884 74.026907 
L 149.505992 74.655936 
L 149.853099 74.051534 
L 150.200207 73.748566 
L 150.547314 74.519918 
L 150.894421 74.529278 
L 151.241529 73.797414 
L 151.588636 74.103137 
L 151.935744 74.752814 
L 152.629959 73.809787 
L 152.977066 74.461707 
L 153.324174 74.764866 
L 153.671281 74.074632 
L 154.018388 73.966679 
L 154.365496 74.703874 
L 154.712603 74.70118 
L 155.059711 74.002099 
L 155.406818 74.137646 
L 155.753926 74.841352 
L 156.101033 74.661555 
L 156.44814 74.00862 
L 156.795248 74.255586 
L 157.142355 74.918157 
L 157.489463 74.686269 
L 157.83657 74.057354 
L 158.183678 74.299833 
L 158.530785 74.957042 
L 158.877893 74.782687 
L 159.225 74.143003 
L 159.572107 74.273601 
L 159.919215 74.945752 
L 160.266322 74.936654 
L 160.61343 74.293588 
L 160.960537 74.206146 
L 161.307645 74.845757 
L 161.654752 75.097936 
L 162.348967 74.174939 
L 163.043182 75.159857 
L 163.390289 74.901513 
L 163.737397 74.309093 
L 164.084504 74.366986 
L 164.431612 74.993021 
L 164.778719 75.207313 
L 165.472934 74.278235 
L 165.820041 74.604325 
L 166.167149 75.192796 
L 166.514256 75.182376 
L 166.861364 74.612447 
L 167.208471 74.331594 
L 167.902686 75.288853 
L 168.249793 75.20695 
L 168.596901 74.642927 
L 168.944008 74.381581 
L 169.638223 75.322103 
L 169.985331 75.311739 
L 170.679545 74.427942 
L 171.026653 74.695004 
L 171.37376 75.262841 
L 171.720868 75.453005 
L 172.415083 74.558743 
L 172.76219 74.548798 
L 173.456405 75.489422 
L 173.803512 75.407743 
L 174.497727 74.535341 
L 174.844835 74.697776 
L 175.53905 75.583856 
L 175.886157 75.425067 
L 176.580372 74.580529 
L 176.927479 74.731344 
L 177.621694 75.629124 
L 177.968802 75.565524 
L 178.663017 74.689959 
L 179.010124 74.661526 
L 180.051446 75.737725 
L 180.398554 75.487765 
L 181.092769 74.679949 
L 181.439876 74.756588 
L 182.134091 75.642983 
L 182.481198 75.817945 
L 182.828306 75.593475 
L 183.522521 74.765536 
L 183.869628 74.729482 
L 184.216736 75.051512 
L 184.91095 75.861082 
L 185.258058 75.859647 
L 186.29938 74.772965 
L 186.646488 74.777083 
L 187.340702 75.548789 
L 187.68781 75.910168 
L 188.034917 75.997988 
L 188.382025 75.77752 
L 189.07624 74.964704 
L 189.423347 74.764104 
L 189.770455 74.853883 
L 191.158884 76.123705 
L 191.505992 75.988712 
L 192.547314 74.89781 
L 192.894421 74.770351 
L 193.241529 74.889048 
L 193.935744 75.628294 
L 194.629959 76.236135 
L 194.977066 76.248925 
L 195.324174 76.049622 
L 196.712603 74.775102 
L 197.059711 74.775799 
L 197.406818 74.965238 
L 199.142355 76.47447 
L 199.489463 76.432772 
L 200.183678 75.920409 
L 201.225 74.884856 
L 201.572107 74.695992 
L 201.919215 74.642796 
L 202.266322 74.729526 
L 202.960537 75.247106 
L 204.348967 76.597939 
L 205.043182 76.86489 
L 205.737397 76.707117 
L 206.431612 76.203086 
L 208.514256 74.332907 
L 209.208471 74.063726 
L 209.902686 74.063743 
L 210.596901 74.306971 
L 211.638223 75.003694 
L 215.803512 78.349797 
L 217.191942 79.039856 
L 218.580372 79.508125 
L 220.315909 79.87221 
L 222.745661 80.138412 
L 226.563843 80.304013 
L 235.241529 80.391337 
L 274.464669 80.418555 
L 399.770455 80.420332 
L 399.770455 80.420332 
" clip-path="url(#p113437a5c7)" style="fill: none; stroke: #1f77b4; stroke-width: 1.5; stroke-linecap: square"/>
   </g>
   <g id="patch_3">
    <path d="M 26.925 83.898613 
L 26.925 7.376429 
" style="fill: none; stroke: #000000; stroke-width: 0.8; stroke-linejoin: miter; stroke-linecap: square"/>
   </g>
   <g id="patch_4">
    <path d="M 417.525 83.898613 
L 417.525 7.376429 
" style="fill: none; stroke: #000000; stroke-width: 0.8; stroke-linejoin: miter; stroke-linecap: square"/>
   </g>
   <g id="patch_5">
    <path d="M 26.925 83.898613 
L 417.525 83.898613 
" style="fill: none; stroke: #000000; stroke-width: 0.8; stroke-linejoin: miter; stroke-linecap: square"/>
   </g>
   <g id="patch_6">
    <path d="M 26.925 7.376429 
L 417.525 7.376429 
" style="fill: none; stroke: #000000; stroke-width: 0.8; stroke-linejoin: miter; stroke-linecap: square"/>
   </g>
  </g>
 </g>
 <defs>
  <clipPath id="p113437a5c7">
   <rect x="26.925" y="7.376429" width="390.6" height="76.522184"/>
  </clipPath>
 </defs>
</svg>
