<?xml version="1.0" encoding="utf-8" standalone="no"?>
<!DOCTYPE svg PUBLIC "-//W3C//DTD SVG 1.1//EN"
  "http://www.w3.org/Graphics/SVG/1.1/DTD/svg11.dtd">
<svg xmlns:xlink="http://www.w3.org/1999/xlink" width="427.903125pt" height="110.215849pt" viewBox="0 0 427.903125 110.215849" xmlns="http://www.w3.org/2000/svg" version="1.1">
 <metadata>
  <rdf:RDF xmlns:dc="http://purl.org/dc/elements/1.1/" xmlns:cc="http://creativecommons.org/ns#" xmlns:rdf="http://www.w3.org/1999/02/22-rdf-syntax-ns#">
   <cc:Work>
    <dc:type rdf:resource="http://purl.org/dc/dcmitype/StillImage"/>
    <dc:date>2024-12-11T14:23:41.428286</dc:date>
    <dc:format>image/svg+xml</dc:format>
    <dc:creator>
     <cc:Agent>
      <dc:title>Matplotlib v3.9.2, https://matplotlib.org/</dc:title>
     </cc:Agent>
    </dc:creator>
   </cc:Work>
  </rdf:RDF>
 </metadata>
 <defs>
  <style type="text/css">*{stroke-linejoin: round; stroke-linecap: butt}</style>
 </defs>
 <g id="figure_1">
  <g id="patch_1">
   <path d="M 0 110.215849 
L 427.903125 110.215849 
L 427.903125 0 
L 0 0 
z
" style="fill: #ffffff"/>
  </g>
  <g id="axes_1">
   <g id="patch_2">
    <path d="M 30.103125 101.99696 
L 420.703125 101.99696 
L 420.703125 7.2 
L 30.103125 7.2 
z
" style="fill: #ffffff"/>
   </g>
   <g id="matplotlib.axis_1"/>
   <g id="matplotlib.axis_2">
    <g id="ytick_1">
     <g id="line2d_1">
      <defs>
       <path id="mbff660e642" d="M 0 0 
L -3.5 0 
" style="stroke: #000000; stroke-width: 0.8"/>
      </defs>
      <g>
       <use xlink:href="#mbff660e642" x="30.103125" y="97.136943" style="stroke: #000000; stroke-width: 0.8"/>
      </g>
     </g>
     <g id="text_1">
      <!-- 0.0 -->
      <g transform="translate(7.2 100.936162) scale(0.1 -0.1)">
       <defs>
        <path id="DejaVuSans-30" d="M 2034 4250 
Q 1547 4250 1301 3770 
Q 1056 3291 1056 2328 
Q 1056 1369 1301 889 
Q 1547 409 2034 409 
Q 2525 409 2770 889 
Q 3016 1369 3016 2328 
Q 3016 3291 2770 3770 
Q 2525 4250 2034 4250 
z
M 2034 4750 
Q 2819 4750 3233 4129 
Q 3647 3509 3647 2328 
Q 3647 1150 3233 529 
Q 2819 -91 2034 -91 
Q 1250 -91 836 529 
Q 422 1150 422 2328 
Q 422 3509 836 4129 
Q 1250 4750 2034 4750 
z
" transform="scale(0.015625)"/>
        <path id="DejaVuSans-2e" d="M 684 794 
L 1344 794 
L 1344 0 
L 684 0 
L 684 794 
z
" transform="scale(0.015625)"/>
       </defs>
       <use xlink:href="#DejaVuSans-30"/>
       <use xlink:href="#DejaVuSans-2e" x="63.623047"/>
       <use xlink:href="#DejaVuSans-30" x="95.410156"/>
      </g>
     </g>
    </g>
    <g id="ytick_2">
     <g id="line2d_2">
      <g>
       <use xlink:href="#mbff660e642" x="30.103125" y="54.322948" style="stroke: #000000; stroke-width: 0.8"/>
      </g>
     </g>
     <g id="text_2">
      <!-- 0.5 -->
      <g transform="translate(7.2 58.122166) scale(0.1 -0.1)">
       <defs>
        <path id="DejaVuSans-35" d="M 691 4666 
L 3169 4666 
L 3169 4134 
L 1269 4134 
L 1269 2991 
Q 1406 3038 1543 3061 
Q 1681 3084 1819 3084 
Q 2600 3084 3056 2656 
Q 3513 2228 3513 1497 
Q 3513 744 3044 326 
Q 2575 -91 1722 -91 
Q 1428 -91 1123 -41 
Q 819 9 494 109 
L 494 744 
Q 775 591 1075 516 
Q 1375 441 1709 441 
Q 2250 441 2565 725 
Q 2881 1009 2881 1497 
Q 2881 1984 2565 2268 
Q 2250 2553 1709 2553 
Q 1456 2553 1204 2497 
Q 953 2441 691 2322 
L 691 4666 
z
" transform="scale(0.015625)"/>
       </defs>
       <use xlink:href="#DejaVuSans-30"/>
       <use xlink:href="#DejaVuSans-2e" x="63.623047"/>
       <use xlink:href="#DejaVuSans-35" x="95.410156"/>
      </g>
     </g>
    </g>
    <g id="ytick_3">
     <g id="line2d_3">
      <g>
       <use xlink:href="#mbff660e642" x="30.103125" y="11.508953" style="stroke: #000000; stroke-width: 0.8"/>
      </g>
     </g>
     <g id="text_3">
      <!-- 1.0 -->
      <g transform="translate(7.2 15.308171) scale(0.1 -0.1)">
       <defs>
        <path id="DejaVuSans-31" d="M 794 531 
L 1825 531 
L 1825 4091 
L 703 3866 
L 703 4441 
L 1819 4666 
L 2450 4666 
L 2450 531 
L 3481 531 
L 3481 0 
L 794 0 
L 794 531 
z
" transform="scale(0.015625)"/>
       </defs>
       <use xlink:href="#DejaVuSans-31"/>
       <use xlink:href="#DejaVuSans-2e" x="63.623047"/>
       <use xlink:href="#DejaVuSans-30" x="95.410156"/>
      </g>
     </g>
    </g>
   </g>
   <g id="line2d_4">
    <path d="M 47.85767 97.136943 
L 51.444447 97.136943 
L 55.031224 97.136943 
L 58.618001 97.136943 
L 62.204778 97.136943 
L 65.791555 97.136943 
L 69.378332 97.136943 
L 72.965108 97.136943 
L 76.551885 97.136943 
L 80.138662 97.136943 
L 83.725439 97.136943 
L 87.312216 97.136943 
L 90.898993 97.136943 
L 94.48577 97.136943 
L 98.072546 97.136943 
L 101.659323 97.136943 
L 105.2461 97.136943 
L 108.832877 97.136943 
L 112.419654 97.136943 
L 116.006431 97.136943 
L 119.593208 97.136943 
L 123.179985 97.136943 
L 126.766761 97.136943 
L 130.353538 97.136943 
L 133.940315 97.136943 
L 137.527092 97.136943 
L 141.113869 93.711823 
L 144.700646 90.286704 
L 148.287423 86.861584 
L 151.874199 83.436464 
L 155.460976 80.011345 
L 159.047753 76.586225 
L 162.63453 73.161106 
L 166.221307 69.735986 
L 169.808084 66.310866 
L 173.394861 62.885747 
L 176.981637 59.460627 
L 180.568414 56.035508 
L 184.155191 52.610388 
L 187.741968 49.185268 
L 191.328745 45.760149 
L 194.915522 42.335029 
L 198.502299 38.90991 
L 202.089075 35.48479 
L 205.675852 32.05967 
L 209.262629 28.634551 
L 212.849406 25.209431 
L 216.436183 21.784312 
L 220.02296 18.359192 
L 223.609737 14.934072 
L 227.196513 11.508953 
L 230.78329 14.934072 
L 234.370067 18.359192 
L 237.956844 21.784312 
L 241.543621 25.209431 
L 245.130398 28.634551 
L 248.717175 32.05967 
L 252.303951 35.48479 
L 255.890728 38.90991 
L 259.477505 42.335029 
L 263.064282 45.760149 
L 266.651059 49.185268 
L 270.237836 52.610388 
L 273.824613 56.035508 
L 277.411389 59.460627 
L 280.998166 62.885747 
L 284.584943 66.310866 
L 288.17172 69.735986 
L 291.758497 73.161106 
L 295.345274 76.586225 
L 298.932051 80.011345 
L 302.518827 83.436464 
L 306.105604 86.861584 
L 309.692381 90.286704 
L 313.279158 93.711823 
L 316.865935 97.136943 
L 320.452712 97.136943 
L 324.039489 97.136943 
L 327.626265 97.136943 
L 331.213042 97.136943 
L 334.799819 97.136943 
L 338.386596 97.136943 
L 341.973373 97.136943 
L 345.56015 97.136943 
L 349.146927 97.136943 
L 352.733704 97.136943 
L 356.32048 97.136943 
L 359.907257 97.136943 
L 363.494034 97.136943 
L 367.080811 97.136943 
L 370.667588 97.136943 
L 374.254365 97.136943 
L 377.841142 97.136943 
L 381.427918 97.136943 
L 385.014695 97.136943 
L 388.601472 97.136943 
L 392.188249 97.136943 
L 395.775026 97.136943 
L 399.361803 97.136943 
L 402.94858 97.136943 
" clip-path="url(#pb48f34c557)" style="fill: none; stroke: #1f77b4; stroke-width: 1.5; stroke-linecap: square"/>
   </g>
   <g id="line2d_5">
    <path d="M 47.85767 97.106185 
L 51.444447 97.106185 
L 55.031224 97.107224 
L 58.618001 97.111931 
L 62.204778 97.123217 
L 65.791555 97.142588 
L 69.378332 97.168664 
L 72.965108 97.196501 
L 76.551885 97.218109 
L 80.138662 97.224251 
L 83.725439 97.20724 
L 87.312216 97.164064 
L 90.898993 97.098976 
L 94.48577 97.024636 
L 98.072546 96.961065 
L 101.659323 96.932112 
L 105.2461 96.959634 
L 108.832877 97.056195 
L 112.419654 97.21755 
L 116.006431 97.416492 
L 119.593208 97.599583 
L 123.179985 97.688007 
L 126.766761 97.583102 
L 130.353538 97.176362 
L 133.940315 96.362775 
L 137.527092 95.055638 
L 141.113869 93.200481 
L 144.700646 90.785642 
L 148.287423 87.847359 
L 151.874199 84.46804 
L 155.460976 80.767407 
L 159.047753 76.887432 
L 162.63453 72.973139 
L 166.221307 69.152172 
L 169.808084 65.516464 
L 173.394861 62.109186 
L 176.981637 58.919441 
L 180.568414 55.886034 
L 184.155191 52.910135 
L 187.741968 49.875211 
L 191.328745 46.671243 
L 194.915522 43.219431 
L 198.502299 39.493306 
L 202.089075 35.532591 
L 205.675852 31.447194 
L 209.262629 27.410203 
L 212.849406 23.640517 
L 216.436183 20.377389 
L 220.02296 17.850553 
L 223.609737 16.25034 
L 227.196513 15.702321 
L 230.78329 16.25034 
L 234.370067 17.850553 
L 237.956844 20.377389 
L 241.543621 23.640517 
L 245.130398 27.410203 
L 248.717175 31.447194 
L 252.303951 35.532591 
L 255.890728 39.493306 
L 259.477505 43.219431 
L 263.064282 46.671243 
L 266.651059 49.875211 
L 270.237836 52.910135 
L 273.824613 55.886034 
L 277.411389 58.919441 
L 280.998166 62.109186 
L 284.584943 65.516464 
L 288.17172 69.152172 
L 291.758497 72.973139 
L 295.345274 76.887432 
L 298.932051 80.767407 
L 302.518827 84.46804 
L 306.105604 87.847359 
L 309.692381 90.785642 
L 313.279158 93.200481 
L 316.865935 95.055638 
L 320.452712 96.362775 
L 324.039489 97.176362 
L 327.626265 97.583102 
L 331.213042 97.688007 
L 334.799819 97.599583 
L 338.386596 97.416492 
L 341.973373 97.21755 
L 345.56015 97.056195 
L 349.146927 96.959634 
L 352.733704 96.932112 
L 356.32048 96.961065 
L 359.907257 97.024636 
L 363.494034 97.098976 
L 367.080811 97.164064 
L 370.667588 97.20724 
L 374.254365 97.224251 
L 377.841142 97.218109 
L 381.427918 97.196501 
L 385.014695 97.168664 
L 388.601472 97.142588 
L 392.188249 97.123217 
L 395.775026 97.111931 
L 399.361803 97.107224 
L 402.94858 97.106185 
" clip-path="url(#pb48f34c557)" style="fill: none; stroke: #ff7f0e; stroke-width: 1.5; stroke-linecap: square"/>
   </g>
   <g id="patch_3">
    <path d="M 30.103125 101.99696 
L 30.103125 7.2 
" style="fill: none; stroke: #000000; stroke-width: 0.8; stroke-linejoin: miter; stroke-linecap: square"/>
   </g>
   <g id="patch_4">
    <path d="M 420.703125 101.99696 
L 420.703125 7.2 
" style="fill: none; stroke: #000000; stroke-width: 0.8; stroke-linejoin: miter; stroke-linecap: square"/>
   </g>
   <g id="patch_5">
    <path d="M 30.103125 101.99696 
L 420.703125 101.99696 
" style="fill: none; stroke: #000000; stroke-width: 0.8; stroke-linejoin: miter; stroke-linecap: square"/>
   </g>
   <g id="patch_6">
    <path d="M 30.103125 7.2 
L 420.703125 7.2 
" style="fill: none; stroke: #000000; stroke-width: 0.8; stroke-linejoin: miter; stroke-linecap: square"/>
   </g>
   <g id="legend_1">
    <g id="patch_7">
     <path d="M 373.403125 47.878125 
L 413.703125 47.878125 
Q 415.703125 47.878125 415.703125 45.878125 
L 415.703125 14.2 
Q 415.703125 12.2 413.703125 12.2 
L 373.403125 12.2 
Q 371.403125 12.2 371.403125 14.2 
L 371.403125 45.878125 
Q 371.403125 47.878125 373.403125 47.878125 
z
" style="fill: #ffffff; opacity: 0.8; stroke: #cccccc; stroke-linejoin: miter"/>
    </g>
    <g id="line2d_6">
     <path d="M 375.403125 20.298437 
L 385.403125 20.298437 
L 395.403125 20.298437 
" style="fill: none; stroke: #1f77b4; stroke-width: 1.5; stroke-linecap: square"/>
    </g>
    <g id="text_4">
     <!-- $f$ -->
     <g transform="translate(403.403125 23.798437) scale(0.1 -0.1)">
      <defs>
       <path id="DejaVuSans-Oblique-66" d="M 3059 4863 
L 2969 4384 
L 2419 4384 
Q 2106 4384 1964 4261 
Q 1822 4138 1753 3809 
L 1691 3500 
L 2638 3500 
L 2553 3053 
L 1606 3053 
L 1013 0 
L 434 0 
L 1031 3053 
L 481 3053 
L 563 3500 
L 1113 3500 
L 1159 3744 
Q 1278 4363 1576 4613 
Q 1875 4863 2516 4863 
L 3059 4863 
z
" transform="scale(0.015625)"/>
      </defs>
      <use xlink:href="#DejaVuSans-Oblique-66" transform="translate(0 0.015625)"/>
     </g>
    </g>
    <g id="line2d_7">
     <path d="M 375.403125 38.298437 
L 385.403125 38.298437 
L 395.403125 38.298437 
" style="fill: none; stroke: #ff7f0e; stroke-width: 1.5; stroke-linecap: square"/>
    </g>
    <g id="text_5">
     <!-- $\hat{f_7}$ -->
     <g transform="translate(403.403125 41.798437) scale(0.1 -0.1)">
      <defs>
       <path id="DejaVuSans-302" d="M -1831 5119 
L -1369 5119 
L -603 3944 
L -1038 3944 
L -1600 4709 
L -2163 3944 
L -2597 3944 
L -1831 5119 
z
M -1600 3584 
L -1600 3584 
z
" transform="scale(0.015625)"/>
       <path id="DejaVuSans-37" d="M 525 4666 
L 3525 4666 
L 3525 4397 
L 1831 0 
L 1172 0 
L 2766 4134 
L 525 4134 
L 525 4666 
z
" transform="scale(0.015625)"/>
      </defs>
      <use xlink:href="#DejaVuSans-302" transform="translate(76.197021 33.015625)"/>
      <use xlink:href="#DejaVuSans-Oblique-66" transform="translate(0 0.53125)"/>
      <use xlink:href="#DejaVuSans-37" transform="translate(35.205078 -15.875) scale(0.7)"/>
     </g>
    </g>
   </g>
  </g>
 </g>
 <defs>
  <clipPath id="pb48f34c557">
   <rect x="30.103125" y="7.2" width="390.6" height="94.79696"/>
  </clipPath>
 </defs>
</svg>
