<?xml version="1.0" encoding="utf-8" standalone="no"?>
<!DOCTYPE svg PUBLIC "-//W3C//DTD SVG 1.1//EN"
  "http://www.w3.org/Graphics/SVG/1.1/DTD/svg11.dtd">
<svg xmlns:xlink="http://www.w3.org/1999/xlink" width="440.420313pt" height="126.751832pt" viewBox="0 0 440.420313 126.751832" xmlns="http://www.w3.org/2000/svg" version="1.1">
 <metadata>
  <rdf:RDF xmlns:dc="http://purl.org/dc/elements/1.1/" xmlns:cc="http://creativecommons.org/ns#" xmlns:rdf="http://www.w3.org/1999/02/22-rdf-syntax-ns#">
   <cc:Work>
    <dc:type rdf:resource="http://purl.org/dc/dcmitype/StillImage"/>
    <dc:date>2026-01-05T12:17:33.771000</dc:date>
    <dc:format>image/svg+xml</dc:format>
    <dc:creator>
     <cc:Agent>
      <dc:title>Matplotlib v3.10.3, https://matplotlib.org/</dc:title>
     </cc:Agent>
    </dc:creator>
   </cc:Work>
  </rdf:RDF>
 </metadata>
 <defs>
  <style type="text/css">*{stroke-linejoin: round; stroke-linecap: butt}</style>
 </defs>
 <g id="figure_1">
  <g id="patch_1">
   <path d="M 0 126.751832 
L 440.420313 126.751832 
L 440.420313 0 
L 0 0 
z
" style="fill: #ffffff"/>
  </g>
  <g id="axes_1">
   <g id="patch_2">
    <path d="M 42.620312 89.195582 
L 433.220313 89.195582 
L 433.220313 10.999219 
L 42.620312 10.999219 
z
" style="fill: #ffffff"/>
   </g>
   <g id="matplotlib.axis_1">
    <g id="xtick_1">
     <g id="line2d_1">
      <defs>
       <path id="m17042f1d15" d="M 0 0 
L 0 3.5 
" style="stroke: #000000; stroke-width: 0.8"/>
      </defs>
      <g>
       <use xlink:href="#m17042f1d15" x="42.620312" y="89.195582" style="stroke: #000000; stroke-width: 0.8"/>
      </g>
     </g>
     <g id="text_1">
      <!-- 0.00 -->
      <g transform="translate(31.4875 103.79402) scale(0.1 -0.1)">
       <defs>
        <path id="DejaVuSans-30" d="M 2034 4250 
Q 1547 4250 1301 3770 
Q 1056 3291 1056 2328 
Q 1056 1369 1301 889 
Q 1547 409 2034 409 
Q 2525 409 2770 889 
Q 3016 1369 3016 2328 
Q 3016 3291 2770 3770 
Q 2525 4250 2034 4250 
z
M 2034 4750 
Q 2819 4750 3233 4129 
Q 3647 3509 3647 2328 
Q 3647 1150 3233 529 
Q 2819 -91 2034 -91 
Q 1250 -91 836 529 
Q 422 1150 422 2328 
Q 422 3509 836 4129 
Q 1250 4750 2034 4750 
z
" transform="scale(0.015625)"/>
        <path id="DejaVuSans-2e" d="M 684 794 
L 1344 794 
L 1344 0 
L 684 0 
L 684 794 
z
" transform="scale(0.015625)"/>
       </defs>
       <use xlink:href="#DejaVuSans-30"/>
       <use xlink:href="#DejaVuSans-2e" transform="translate(63.623047 0)"/>
       <use xlink:href="#DejaVuSans-30" transform="translate(95.410156 0)"/>
       <use xlink:href="#DejaVuSans-30" transform="translate(159.033203 0)"/>
      </g>
     </g>
    </g>
    <g id="xtick_2">
     <g id="line2d_2">
      <g>
       <use xlink:href="#m17042f1d15" x="120.816676" y="89.195582" style="stroke: #000000; stroke-width: 0.8"/>
      </g>
     </g>
     <g id="text_2">
      <!-- 0.05 -->
      <g transform="translate(109.683864 103.79402) scale(0.1 -0.1)">
       <defs>
        <path id="DejaVuSans-35" d="M 691 4666 
L 3169 4666 
L 3169 4134 
L 1269 4134 
L 1269 2991 
Q 1406 3038 1543 3061 
Q 1681 3084 1819 3084 
Q 2600 3084 3056 2656 
Q 3513 2228 3513 1497 
Q 3513 744 3044 326 
Q 2575 -91 1722 -91 
Q 1428 -91 1123 -41 
Q 819 9 494 109 
L 494 744 
Q 775 591 1075 516 
Q 1375 441 1709 441 
Q 2250 441 2565 725 
Q 2881 1009 2881 1497 
Q 2881 1984 2565 2268 
Q 2250 2553 1709 2553 
Q 1456 2553 1204 2497 
Q 953 2441 691 2322 
L 691 4666 
z
" transform="scale(0.015625)"/>
       </defs>
       <use xlink:href="#DejaVuSans-30"/>
       <use xlink:href="#DejaVuSans-2e" transform="translate(63.623047 0)"/>
       <use xlink:href="#DejaVuSans-30" transform="translate(95.410156 0)"/>
       <use xlink:href="#DejaVuSans-35" transform="translate(159.033203 0)"/>
      </g>
     </g>
    </g>
    <g id="xtick_3">
     <g id="line2d_3">
      <g>
       <use xlink:href="#m17042f1d15" x="199.01304" y="89.195582" style="stroke: #000000; stroke-width: 0.8"/>
      </g>
     </g>
     <g id="text_3">
      <!-- 0.10 -->
      <g transform="translate(187.880227 103.79402) scale(0.1 -0.1)">
       <defs>
        <path id="DejaVuSans-31" d="M 794 531 
L 1825 531 
L 1825 4091 
L 703 3866 
L 703 4441 
L 1819 4666 
L 2450 4666 
L 2450 531 
L 3481 531 
L 3481 0 
L 794 0 
L 794 531 
z
" transform="scale(0.015625)"/>
       </defs>
       <use xlink:href="#DejaVuSans-30"/>
       <use xlink:href="#DejaVuSans-2e" transform="translate(63.623047 0)"/>
       <use xlink:href="#DejaVuSans-31" transform="translate(95.410156 0)"/>
       <use xlink:href="#DejaVuSans-30" transform="translate(159.033203 0)"/>
      </g>
     </g>
    </g>
    <g id="xtick_4">
     <g id="line2d_4">
      <g>
       <use xlink:href="#m17042f1d15" x="277.209403" y="89.195582" style="stroke: #000000; stroke-width: 0.8"/>
      </g>
     </g>
     <g id="text_4">
      <!-- 0.15 -->
      <g transform="translate(266.076591 103.79402) scale(0.1 -0.1)">
       <use xlink:href="#DejaVuSans-30"/>
       <use xlink:href="#DejaVuSans-2e" transform="translate(63.623047 0)"/>
       <use xlink:href="#DejaVuSans-31" transform="translate(95.410156 0)"/>
       <use xlink:href="#DejaVuSans-35" transform="translate(159.033203 0)"/>
      </g>
     </g>
    </g>
    <g id="xtick_5">
     <g id="line2d_5">
      <g>
       <use xlink:href="#m17042f1d15" x="355.405767" y="89.195582" style="stroke: #000000; stroke-width: 0.8"/>
      </g>
     </g>
     <g id="text_5">
      <!-- 0.20 -->
      <g transform="translate(344.272955 103.79402) scale(0.1 -0.1)">
       <defs>
        <path id="DejaVuSans-32" d="M 1228 531 
L 3431 531 
L 3431 0 
L 469 0 
L 469 531 
Q 828 903 1448 1529 
Q 2069 2156 2228 2338 
Q 2531 2678 2651 2914 
Q 2772 3150 2772 3378 
Q 2772 3750 2511 3984 
Q 2250 4219 1831 4219 
Q 1534 4219 1204 4116 
Q 875 4013 500 3803 
L 500 4441 
Q 881 4594 1212 4672 
Q 1544 4750 1819 4750 
Q 2544 4750 2975 4387 
Q 3406 4025 3406 3419 
Q 3406 3131 3298 2873 
Q 3191 2616 2906 2266 
Q 2828 2175 2409 1742 
Q 1991 1309 1228 531 
z
" transform="scale(0.015625)"/>
       </defs>
       <use xlink:href="#DejaVuSans-30"/>
       <use xlink:href="#DejaVuSans-2e" transform="translate(63.623047 0)"/>
       <use xlink:href="#DejaVuSans-32" transform="translate(95.410156 0)"/>
       <use xlink:href="#DejaVuSans-30" transform="translate(159.033203 0)"/>
      </g>
     </g>
    </g>
    <g id="text_6">
     <!-- Time [s] -->
     <g transform="translate(217.591406 117.472145) scale(0.1 -0.1)">
      <defs>
       <path id="DejaVuSans-54" d="M -19 4666 
L 3928 4666 
L 3928 4134 
L 2272 4134 
L 2272 0 
L 1638 0 
L 1638 4134 
L -19 4134 
L -19 4666 
z
" transform="scale(0.015625)"/>
       <path id="DejaVuSans-69" d="M 603 3500 
L 1178 3500 
L 1178 0 
L 603 0 
L 603 3500 
z
M 603 4863 
L 1178 4863 
L 1178 4134 
L 603 4134 
L 603 4863 
z
" transform="scale(0.015625)"/>
       <path id="DejaVuSans-6d" d="M 3328 2828 
Q 3544 3216 3844 3400 
Q 4144 3584 4550 3584 
Q 5097 3584 5394 3201 
Q 5691 2819 5691 2113 
L 5691 0 
L 5113 0 
L 5113 2094 
Q 5113 2597 4934 2840 
Q 4756 3084 4391 3084 
Q 3944 3084 3684 2787 
Q 3425 2491 3425 1978 
L 3425 0 
L 2847 0 
L 2847 2094 
Q 2847 2600 2669 2842 
Q 2491 3084 2119 3084 
Q 1678 3084 1418 2786 
Q 1159 2488 1159 1978 
L 1159 0 
L 581 0 
L 581 3500 
L 1159 3500 
L 1159 2956 
Q 1356 3278 1631 3431 
Q 1906 3584 2284 3584 
Q 2666 3584 2933 3390 
Q 3200 3197 3328 2828 
z
" transform="scale(0.015625)"/>
       <path id="DejaVuSans-65" d="M 3597 1894 
L 3597 1613 
L 953 1613 
Q 991 1019 1311 708 
Q 1631 397 2203 397 
Q 2534 397 2845 478 
Q 3156 559 3463 722 
L 3463 178 
Q 3153 47 2828 -22 
Q 2503 -91 2169 -91 
Q 1331 -91 842 396 
Q 353 884 353 1716 
Q 353 2575 817 3079 
Q 1281 3584 2069 3584 
Q 2775 3584 3186 3129 
Q 3597 2675 3597 1894 
z
M 3022 2063 
Q 3016 2534 2758 2815 
Q 2500 3097 2075 3097 
Q 1594 3097 1305 2825 
Q 1016 2553 972 2059 
L 3022 2063 
z
" transform="scale(0.015625)"/>
       <path id="DejaVuSans-20" transform="scale(0.015625)"/>
       <path id="DejaVuSans-5b" d="M 550 4863 
L 1875 4863 
L 1875 4416 
L 1125 4416 
L 1125 -397 
L 1875 -397 
L 1875 -844 
L 550 -844 
L 550 4863 
z
" transform="scale(0.015625)"/>
       <path id="DejaVuSans-73" d="M 2834 3397 
L 2834 2853 
Q 2591 2978 2328 3040 
Q 2066 3103 1784 3103 
Q 1356 3103 1142 2972 
Q 928 2841 928 2578 
Q 928 2378 1081 2264 
Q 1234 2150 1697 2047 
L 1894 2003 
Q 2506 1872 2764 1633 
Q 3022 1394 3022 966 
Q 3022 478 2636 193 
Q 2250 -91 1575 -91 
Q 1294 -91 989 -36 
Q 684 19 347 128 
L 347 722 
Q 666 556 975 473 
Q 1284 391 1588 391 
Q 1994 391 2212 530 
Q 2431 669 2431 922 
Q 2431 1156 2273 1281 
Q 2116 1406 1581 1522 
L 1381 1569 
Q 847 1681 609 1914 
Q 372 2147 372 2553 
Q 372 3047 722 3315 
Q 1072 3584 1716 3584 
Q 2034 3584 2315 3537 
Q 2597 3491 2834 3397 
z
" transform="scale(0.015625)"/>
       <path id="DejaVuSans-5d" d="M 1947 4863 
L 1947 -844 
L 622 -844 
L 622 -397 
L 1369 -397 
L 1369 4416 
L 622 4416 
L 622 4863 
L 1947 4863 
z
" transform="scale(0.015625)"/>
      </defs>
      <use xlink:href="#DejaVuSans-54"/>
      <use xlink:href="#DejaVuSans-69" transform="translate(57.958984 0)"/>
      <use xlink:href="#DejaVuSans-6d" transform="translate(85.742188 0)"/>
      <use xlink:href="#DejaVuSans-65" transform="translate(183.154297 0)"/>
      <use xlink:href="#DejaVuSans-20" transform="translate(244.677734 0)"/>
      <use xlink:href="#DejaVuSans-5b" transform="translate(276.464844 0)"/>
      <use xlink:href="#DejaVuSans-73" transform="translate(315.478516 0)"/>
      <use xlink:href="#DejaVuSans-5d" transform="translate(367.578125 0)"/>
     </g>
    </g>
   </g>
   <g id="matplotlib.axis_2">
    <g id="ytick_1">
     <g id="line2d_6">
      <defs>
       <path id="mb8dc8a1fe1" d="M 0 0 
L -3.5 0 
" style="stroke: #000000; stroke-width: 0.8"/>
      </defs>
      <g>
       <use xlink:href="#mb8dc8a1fe1" x="42.620312" y="89.195582" style="stroke: #000000; stroke-width: 0.8"/>
      </g>
     </g>
     <g id="text_7">
      <!-- −5 -->
      <g transform="translate(20.878125 92.994801) scale(0.1 -0.1)">
       <defs>
        <path id="DejaVuSans-2212" d="M 678 2272 
L 4684 2272 
L 4684 1741 
L 678 1741 
L 678 2272 
z
" transform="scale(0.015625)"/>
       </defs>
       <use xlink:href="#DejaVuSans-2212"/>
       <use xlink:href="#DejaVuSans-35" transform="translate(83.789062 0)"/>
      </g>
     </g>
    </g>
    <g id="ytick_2">
     <g id="line2d_7">
      <g>
       <use xlink:href="#mb8dc8a1fe1" x="42.620312" y="50.097401" style="stroke: #000000; stroke-width: 0.8"/>
      </g>
     </g>
     <g id="text_8">
      <!-- 0 -->
      <g transform="translate(29.257812 53.896619) scale(0.1 -0.1)">
       <use xlink:href="#DejaVuSans-30"/>
      </g>
     </g>
    </g>
    <g id="ytick_3">
     <g id="line2d_8">
      <g>
       <use xlink:href="#mb8dc8a1fe1" x="42.620312" y="10.999219" style="stroke: #000000; stroke-width: 0.8"/>
      </g>
     </g>
     <g id="text_9">
      <!-- 5 -->
      <g transform="translate(29.257812 14.798437) scale(0.1 -0.1)">
       <use xlink:href="#DejaVuSans-35"/>
      </g>
     </g>
    </g>
    <g id="text_10">
     <!-- $f$ -->
     <g transform="translate(14.798437 51.897401) rotate(-90) scale(0.1 -0.1)">
      <defs>
       <path id="DejaVuSans-Oblique-66" d="M 3059 4863 
L 2969 4384 
L 2419 4384 
Q 2106 4384 1964 4261 
Q 1822 4138 1753 3809 
L 1691 3500 
L 2638 3500 
L 2553 3053 
L 1606 3053 
L 1013 0 
L 434 0 
L 1031 3053 
L 481 3053 
L 563 3500 
L 1113 3500 
L 1159 3744 
Q 1278 4363 1576 4613 
Q 1875 4863 2516 4863 
L 3059 4863 
z
" transform="scale(0.015625)"/>
      </defs>
      <use xlink:href="#DejaVuSans-Oblique-66" transform="translate(0 0.015625)"/>
     </g>
    </g>
   </g>
   <g id="line2d_9">
    <path d="M 42.620312 31.545585 
L 43.383949 52.944177 
L 43.765767 41.101219 
L 44.147585 56.479299 
L 44.529403 24.023974 
L 44.911222 22.070169 
L 45.29304 8.955853 
L 45.674858 33.560205 
L 46.056676 22.514239 
L 46.438494 50.716096 
L 46.820312 43.309214 
L 47.202131 87.826169 
L 47.583949 41.079362 
L 47.965767 43.209286 
L 48.347585 39.290985 
L 48.729403 67.962299 
L 49.111222 44.213596 
L 49.49304 47.553373 
L 49.874858 48.217072 
L 50.256676 47.501343 
L 51.020312 57.648527 
L 51.402131 55.074496 
L 51.783949 62.048848 
L 52.165767 41.150308 
L 52.547585 47.211984 
L 52.929403 49.219248 
L 53.311222 26.355465 
L 53.69304 43.348711 
L 54.074858 41.235733 
L 54.456676 73.376663 
L 55.220312 33.406088 
L 55.602131 52.671866 
L 55.983949 46.806673 
L 56.365767 49.598632 
L 56.747585 65.003169 
L 57.129403 38.913164 
L 57.511222 20.796835 
L 57.89304 46.751554 
L 58.274858 53.102411 
L 58.656676 36.326154 
L 59.038494 25.72462 
L 59.420312 35.473791 
L 59.802131 25.544861 
L 60.183949 36.068822 
L 60.565767 18.8812 
L 60.947585 31.406238 
L 61.329403 12.44832 
L 61.711222 85.14707 
L 62.09304 80.697618 
L 62.474858 60.732033 
L 63.238494 51.65605 
L 63.620312 26.910675 
L 64.002131 73.118479 
L 64.383949 77.88004 
L 64.765767 22.409193 
L 65.147585 21.623894 
L 65.529403 64.154463 
L 65.911222 63.354234 
L 66.29304 97.525899 
L 66.674858 36.894312 
L 67.056676 4.425908 
L 67.438494 59.451924 
L 67.820312 62.305265 
L 68.202131 77.315718 
L 68.583949 50.495535 
L 68.965767 82.057294 
L 69.347585 86.798835 
L 69.729403 71.036794 
L 70.49304 21.851508 
L 71.256676 52.754938 
L 71.638494 84.959898 
L 72.020313 54.189608 
L 72.402131 35.363596 
L 72.783949 73.042384 
L 73.165767 62.752533 
L 73.547585 8.089513 
L 73.929403 46.554717 
L 74.311222 41.173494 
L 74.69304 61.021519 
L 75.074858 49.040839 
L 75.456676 42.80433 
L 75.838494 26.629403 
L 76.220313 36.692928 
L 76.602131 71.629848 
L 76.983949 47.702958 
L 77.365767 62.399211 
L 77.747585 52.190372 
L 78.129403 27.734067 
L 78.511222 47.038474 
L 78.89304 54.805162 
L 79.274858 68.342225 
L 79.656676 36.47635 
L 80.038494 37.316359 
L 80.420312 65.193777 
L 80.802131 29.683719 
L 81.183949 46.112306 
L 81.565767 3.026485 
L 81.947585 30.508529 
L 82.329403 86.16066 
L 82.711222 20.16625 
L 83.09304 50.685483 
L 83.474858 64.9509 
L 83.856676 25.500751 
L 84.238494 16.963897 
L 85.002131 41.511322 
L 85.383949 47.189712 
L 85.765767 18.613141 
L 86.147585 37.26197 
L 86.529403 45.177592 
L 86.911222 41.912785 
L 87.29304 43.422099 
L 88.056676 58.747091 
L 88.438494 80.215514 
L 88.820312 38.755072 
L 89.202131 36.838902 
L 89.583949 38.82456 
L 89.965767 76.374202 
L 90.347585 73.399378 
L 90.729403 35.537069 
L 91.111222 44.06799 
L 91.49304 66.811616 
L 91.874858 41.699088 
L 92.256676 39.42747 
L 92.638494 85.657158 
L 93.020313 46.087687 
L 93.402131 83.933576 
L 93.783949 22.561087 
L 94.165767 41.521409 
L 94.547585 43.962875 
L 94.929403 56.533469 
L 95.311222 46.485977 
L 95.69304 51.800998 
L 96.074858 62.749886 
L 96.456676 39.664475 
L 96.838494 62.719856 
L 97.602131 33.894557 
L 97.983949 59.357776 
L 98.747585 47.960224 
L 99.129403 61.823551 
L 99.511222 16.24683 
L 99.89304 68.686624 
L 100.274858 47.224789 
L 101.038494 60.863831 
L 101.420312 47.153379 
L 102.183949 77.535933 
L 102.565767 31.216051 
L 102.947585 32.848005 
L 103.329403 63.21897 
L 103.711222 73.058093 
L 104.09304 79.698774 
L 104.474858 76.704802 
L 104.856676 44.44052 
L 105.620312 62.11469 
L 106.002131 53.984415 
L 106.383949 33.137378 
L 106.765767 71.339351 
L 107.147585 23.762402 
L 107.529403 26.15067 
L 107.911222 60.499593 
L 108.29304 66.710917 
L 108.674858 33.654086 
L 109.056676 48.732799 
L 109.438494 78.08945 
L 109.820312 39.120954 
L 110.202131 46.310266 
L 110.583949 14.01754 
L 110.965767 4.762268 
L 111.347585 36.581755 
L 111.729403 39.990004 
L 112.066177 -1 
M 112.143062 -1 
L 112.49304 59.261753 
L 112.86019 -1 
M 112.89463 -1 
L 113.256676 43.08397 
L 113.638494 52.513685 
L 114.402131 20.467457 
L 114.783949 70.750162 
L 115.165767 53.209141 
L 115.547585 74.596694 
L 115.929403 17.444692 
L 116.311222 49.50079 
L 116.69304 33.444174 
L 117.074858 44.019765 
L 117.456676 40.427558 
L 117.838494 19.350185 
L 118.220313 73.604911 
L 118.983949 25.606973 
L 119.365767 58.088051 
L 119.747585 31.589726 
L 120.129403 29.445883 
L 120.511222 53.097057 
L 120.89304 52.154524 
L 121.274858 79.500936 
L 121.656676 34.857388 
L 122.038494 31.478195 
L 122.420312 66.119338 
L 122.802131 76.54643 
L 123.183949 46.563247 
L 123.947585 70.712601 
L 124.711222 47.412041 
L 125.09304 71.999158 
L 125.474858 31.660837 
L 125.856676 21.739972 
L 126.238494 59.134669 
L 126.620312 70.458352 
L 127.002131 37.780356 
L 127.383949 64.935348 
L 127.765767 28.285361 
L 128.147585 81.400312 
L 128.529403 86.239215 
L 128.911222 86.093513 
L 129.29304 92.697376 
L 129.674858 57.061792 
L 130.056676 63.441533 
L 130.438494 42.120149 
L 131.202131 88.148375 
L 131.583949 43.661762 
L 131.965767 63.776314 
L 132.347585 54.205093 
L 132.729403 84.064394 
L 133.111222 31.780449 
L 133.874858 99.768478 
L 134.256676 20.181731 
L 135.020312 7.728752 
L 135.402131 46.338941 
L 135.783949 39.752714 
L 136.165767 36.712514 
L 136.547585 37.116691 
L 136.929403 78.900737 
L 137.311222 23.818583 
L 137.69304 49.806735 
L 138.456676 35.820914 
L 139.220313 72.252213 
L 139.602131 53.143859 
L 139.983949 81.621119 
L 140.747585 35.534451 
L 141.129403 65.435965 
L 141.511222 46.105553 
L 141.89304 63.618905 
L 142.274858 39.302795 
L 142.656676 39.319669 
L 143.038494 59.424774 
L 143.420313 58.095514 
L 143.802131 25.666309 
L 144.183949 11.967028 
L 144.565767 20.147017 
L 144.947585 48.367787 
L 145.329403 66.172969 
L 145.711222 67.758867 
L 146.09304 64.484862 
L 146.474858 39.740351 
L 146.856676 37.381128 
L 147.238494 45.802378 
L 147.620313 69.067015 
L 148.383949 26.848458 
L 148.765767 27.503943 
L 149.147585 64.605501 
L 149.529403 54.898175 
L 149.898133 -1 
M 149.953745 -1 
L 150.29304 14.831888 
L 150.674858 44.746597 
L 151.056676 20.677255 
L 151.438494 87.956202 
L 151.820312 22.40309 
L 152.202131 40.418516 
L 152.583949 40.108392 
L 152.965767 6.550018 
L 153.347585 76.233533 
L 153.729403 37.985405 
L 154.111222 51.875746 
L 154.49304 57.980833 
L 154.874858 53.566015 
L 155.256676 52.381529 
L 155.638494 79.244163 
L 156.020312 69.985976 
L 156.402131 47.665331 
L 156.783949 64.16985 
L 157.165767 47.075219 
L 157.547585 58.03083 
L 157.929403 64.18942 
L 158.311222 59.433213 
L 158.69304 58.215545 
L 159.074858 47.919354 
L 159.456676 50.344688 
L 159.838494 40.248298 
L 160.220313 47.29808 
L 160.602131 51.205265 
L 160.983949 72.518142 
L 161.365767 65.753233 
L 161.747585 67.933721 
L 162.129403 6.467293 
L 162.89304 52.018141 
L 163.274858 71.632231 
L 163.656676 55.508832 
L 164.038494 51.548598 
L 164.420313 1.042356 
L 164.802131 48.494977 
L 165.183949 34.629773 
L 165.565767 38.019275 
L 166.329403 78.259883 
L 166.711222 86.363682 
L 167.09304 69.835679 
L 167.474858 64.069339 
L 167.856676 28.052971 
L 168.238494 53.163944 
L 168.620313 63.851878 
L 169.002131 58.837309 
L 169.383949 69.246977 
L 169.765767 59.293038 
L 170.147585 73.315671 
L 170.529403 78.772632 
L 170.911222 16.711185 
L 171.29304 25.643384 
L 171.674858 45.993153 
L 172.056676 15.489489 
L 172.438494 23.329651 
L 172.820312 57.056993 
L 173.202131 49.851142 
L 173.583949 55.171934 
L 173.965767 53.871272 
L 174.346392 -1 
M 174.348615 -1 
L 174.729403 62.588079 
L 175.111222 16.840143 
L 175.874858 54.411474 
L 176.256676 43.287918 
L 176.638494 40.409529 
L 177.020312 21.623006 
L 177.402131 27.338544 
L 177.783949 53.015191 
L 178.165767 25.568975 
L 178.547585 52.499577 
L 178.929403 64.749908 
L 179.311222 70.51304 
L 179.69304 60.777257 
L 180.074858 79.089201 
L 180.456676 49.270572 
L 180.838494 74.91534 
L 181.220312 16.022583 
L 181.602131 75.291944 
L 181.983949 75.581698 
L 182.365767 75.449632 
L 182.747585 23.159766 
L 183.129403 53.364398 
L 183.511222 19.993844 
L 183.89304 69.597781 
L 184.274858 52.953764 
L 184.656676 70.003733 
L 185.038494 48.872915 
L 185.420313 65.697388 
L 185.802131 52.778539 
L 186.183949 67.368816 
L 186.565767 88.585277 
L 186.947585 21.06 
L 187.329403 45.766633 
L 187.711222 45.413468 
L 188.09304 79.442679 
L 188.856676 47.559555 
L 189.238494 42.415766 
L 189.620313 23.382489 
L 190.002131 85.778957 
L 190.383949 34.108777 
L 190.765767 29.714448 
L 191.147585 59.472995 
L 191.529403 40.204204 
L 191.911222 48.333725 
L 192.29304 71.152206 
L 192.674858 83.646694 
L 193.056676 75.572619 
L 193.438494 55.362992 
L 194.202131 73.03039 
L 194.583949 55.459917 
L 194.965767 71.153234 
L 195.729403 46.267923 
L 196.111222 90.160821 
L 196.49304 76.317415 
L 196.874858 58.048552 
L 197.256676 66.558573 
L 197.638494 58.961874 
L 198.020312 35.550951 
L 198.402131 54.133232 
L 198.783949 36.961431 
L 199.165767 38.651966 
L 199.547585 61.906123 
L 199.929403 53.70205 
L 200.311222 50.227152 
L 200.69304 35.495816 
L 201.074858 66.742402 
L 201.456676 57.897751 
L 201.824445 -1 
M 201.854251 -1 
L 202.220312 51.274165 
L 202.602131 20.220206 
L 202.983949 28.645555 
L 203.365767 46.698828 
L 203.747585 39.657362 
L 204.129403 46.868066 
L 204.511222 24.103397 
L 204.89304 24.906874 
L 205.274858 42.807668 
L 205.656676 13.827082 
L 206.038494 66.033093 
L 206.420313 58.354593 
L 206.802131 42.111961 
L 207.183949 6.2588 
L 207.565767 47.865855 
L 207.947585 37.408786 
L 208.329403 41.679447 
L 208.711222 59.724383 
L 209.09304 62.394459 
L 209.474858 35.478525 
L 209.856676 39.092925 
L 210.238494 53.652096 
L 210.620313 9.418581 
L 211.002131 66.294635 
L 211.383949 86.013004 
L 212.147585 34.707489 
L 212.529403 22.221569 
L 212.911222 32.028397 
L 213.29304 85.983201 
L 213.674858 42.631447 
L 214.056676 29.573361 
L 214.438494 34.33996 
L 214.820312 14.756174 
L 215.202131 49.765115 
L 215.583949 4.130603 
L 215.965767 42.624668 
L 216.347585 67.168208 
L 216.729403 70.274668 
L 217.111222 68.868627 
L 217.49304 22.351357 
L 217.874858 52.439337 
L 218.256676 39.506171 
L 218.638494 43.410988 
L 219.020312 63.246643 
L 219.402131 45.631772 
L 219.783949 54.888494 
L 220.165767 31.290849 
L 220.547585 73.76122 
L 220.929403 64.93887 
L 221.311222 94.892163 
L 221.69304 70.73071 
L 222.074858 74.654475 
L 222.456676 81.434656 
L 222.838494 32.193205 
L 223.220312 79.473804 
L 223.602131 70.43947 
L 223.983949 49.237524 
L 224.365767 37.625262 
L 224.747585 61.06604 
L 225.129403 53.024205 
L 225.511222 68.920619 
L 225.89304 62.830571 
L 226.274858 34.904477 
L 226.656676 62.144969 
L 227.038494 61.389071 
L 227.420313 37.155286 
L 227.802131 40.176505 
L 228.183949 45.348675 
L 228.565767 9.037861 
L 228.947585 43.116453 
L 229.329403 32.043963 
L 229.711222 92.717904 
L 230.474858 28.708144 
L 230.856676 55.382191 
L 231.238494 43.580892 
L 231.620313 48.934133 
L 232.002131 60.138219 
L 232.383949 46.709776 
L 232.765767 70.403144 
L 233.147585 26.919597 
L 233.529403 61.602335 
L 233.911222 56.164069 
L 234.29304 41.50204 
L 234.674858 18.939065 
L 235.056676 52.802042 
L 235.438494 44.208426 
L 235.820312 45.75218 
L 236.583949 83.118142 
L 236.965767 10.637937 
L 237.729403 59.214958 
L 238.49304 46.803356 
L 238.874858 45.074373 
L 239.256676 46.320069 
L 239.638494 12.725703 
L 240.402131 76.088508 
L 240.783949 30.145011 
L 241.165767 19.673729 
L 241.547585 25.536886 
L 241.929403 47.499065 
L 242.311222 17.966984 
L 242.69304 42.356452 
L 243.074858 20.01391 
L 243.456676 36.722719 
L 243.838494 46.902858 
L 244.220313 72.854985 
L 244.602131 52.736981 
L 244.983949 58.736674 
L 245.365767 43.079846 
L 245.747585 44.814169 
L 246.511222 109.510686 
L 246.89304 46.436448 
L 247.274858 52.516126 
L 247.656676 63.900172 
L 248.038494 83.788086 
L 248.420313 23.51478 
L 248.802131 103.472328 
L 249.183949 53.767706 
L 249.565767 41.833218 
L 249.947585 63.941334 
L 250.329403 72.373389 
L 250.711222 73.783833 
L 251.09304 65.82436 
L 251.474858 76.54976 
L 251.856676 95.872432 
L 252.238494 59.370864 
L 252.620313 44.8576 
L 253.002131 40.731766 
L 253.383949 39.833585 
L 253.765767 42.168576 
L 254.147585 54.228604 
L 254.529403 34.716112 
L 254.911222 50.074599 
L 255.29304 56.471273 
L 255.674858 57.956789 
L 256.056676 47.697297 
L 256.820312 51.702003 
L 257.202131 26.768321 
L 257.583949 51.820411 
L 258.347585 40.188395 
L 258.729403 37.621523 
L 259.111222 71.597852 
L 259.49304 43.492556 
L 259.874858 63.549399 
L 260.256676 96.252603 
L 260.638494 69.929062 
L 261.020312 71.497316 
L 261.402131 79.751458 
L 261.783949 114.010767 
L 262.165767 39.364034 
L 262.929403 79.087912 
L 263.311222 18.556483 
L 263.69304 56.058366 
L 264.074858 47.055152 
L 264.456676 24.931598 
L 264.838494 43.72823 
L 265.220313 42.072003 
L 265.602131 28.496786 
L 265.983949 25.964285 
L 266.365767 42.489872 
L 266.747585 51.403685 
L 267.129403 13.790419 
L 267.511222 21.431383 
L 267.89304 11.35505 
L 268.274858 22.38569 
L 268.656676 40.046966 
L 269.038494 31.516237 
L 269.420313 28.369795 
L 269.802131 62.413349 
L 270.183949 71.36728 
L 270.565767 46.952317 
L 270.947585 80.797938 
L 271.329403 65.904081 
L 271.711222 59.889098 
L 272.09304 43.386375 
L 272.474858 52.569322 
L 272.856676 53.995006 
L 273.238494 0.624509 
L 273.620313 60.81669 
L 274.002131 50.071658 
L 274.383949 23.359398 
L 274.765767 45.557354 
L 275.147585 85.72213 
L 275.529403 84.897627 
L 275.911222 91.290413 
L 276.29304 62.27273 
L 276.674858 60.458622 
L 277.056676 42.189591 
L 277.820312 57.34071 
L 278.202131 61.646033 
L 278.583949 40.251928 
L 278.965767 64.460913 
L 279.347585 47.658882 
L 279.729403 61.23685 
L 280.111222 40.9579 
L 280.49304 54.698562 
L 280.874858 80.900098 
L 281.256676 54.835587 
L 281.638494 47.110212 
L 282.020312 43.170535 
L 282.402131 89.536512 
L 283.165767 22.27507 
L 283.547585 27.14493 
L 283.929403 37.529046 
L 284.311222 77.718976 
L 284.69304 100.330764 
L 285.074858 14.483426 
L 285.456676 85.753905 
L 285.838494 63.280238 
L 286.220313 33.95969 
L 286.602131 80.736925 
L 286.983949 52.137877 
L 287.365767 84.607688 
L 287.747585 70.197516 
L 288.129403 50.652127 
L 288.511222 41.587603 
L 288.89304 52.371741 
L 289.274858 82.009167 
L 289.656676 22.850605 
L 290.420313 47.183279 
L 290.802131 28.776542 
L 291.183949 71.104693 
L 291.947585 11.198659 
L 292.711222 55.91567 
L 293.09304 23.603672 
L 293.474858 36.872505 
L 293.856676 26.963311 
L 294.238494 58.830517 
L 294.620313 45.688048 
L 295.002131 59.612079 
L 295.383949 60.570662 
L 295.765767 53.664009 
L 296.147585 23.863681 
L 296.529403 29.307635 
L 296.911222 45.304877 
L 297.29304 66.475051 
L 297.674858 48.093154 
L 298.056676 60.187361 
L 298.438494 68.362551 
L 298.820312 62.587115 
L 299.202131 24.452483 
L 299.583949 43.993826 
L 299.965767 52.216854 
L 300.347585 36.939943 
L 300.729403 35.05211 
L 301.111222 21.844646 
L 301.49304 30.38533 
L 302.638494 71.997896 
L 303.020313 51.335421 
L 303.402131 18.998863 
L 303.783949 10.077813 
L 304.165767 26.270117 
L 304.547585 29.620882 
L 304.929403 19.317307 
L 305.311222 39.662296 
L 305.69304 15.296693 
L 306.074858 52.217403 
L 306.456676 37.322318 
L 306.838494 52.93639 
L 307.220313 52.037867 
L 307.602131 49.862268 
L 307.983949 58.569439 
L 308.365767 32.960901 
L 308.747585 46.863452 
L 309.129403 66.037814 
L 309.511222 39.036717 
L 309.89304 56.372826 
L 310.274858 65.201206 
L 310.656676 65.097572 
L 311.038494 41.100461 
L 311.420313 69.553714 
L 311.802131 37.668243 
L 312.183949 77.882291 
L 312.565767 90.441076 
L 312.947585 74.514806 
L 313.329403 48.515227 
L 313.711222 75.053586 
L 314.09304 54.013153 
L 314.474858 62.496383 
L 314.856676 59.19507 
L 315.238494 45.809704 
L 315.620313 21.186693 
L 316.002131 72.647318 
L 316.383949 75.985562 
L 316.765767 56.094463 
L 317.147585 76.525802 
L 317.529403 58.977772 
L 317.911222 68.85391 
L 318.29304 63.095033 
L 318.674858 46.6319 
L 319.056676 72.493947 
L 319.438494 45.046318 
L 319.820312 56.738874 
L 320.583949 43.386459 
L 320.965767 51.652248 
L 321.347585 26.424842 
L 321.729403 36.308332 
L 322.111222 58.389968 
L 322.874858 17.457813 
L 323.256676 28.897156 
L 323.638494 85.488308 
L 324.020313 51.379302 
L 324.402131 75.442534 
L 324.783949 73.335519 
L 325.165767 81.261968 
L 325.547585 77.998486 
L 325.929403 50.650766 
L 326.311222 86.890918 
L 326.69304 26.578515 
L 327.456676 83.583654 
L 327.838494 85.420722 
L 328.220313 19.112857 
L 328.602131 51.903432 
L 328.983949 4.042735 
L 329.365767 20.907304 
L 330.129403 78.171521 
L 330.511222 36.582689 
L 330.89304 55.215103 
L 331.274858 32.280182 
L 331.656676 45.970593 
L 332.038494 19.996258 
L 332.420313 31.257124 
L 332.802131 53.084317 
L 333.183949 53.98602 
L 333.565767 57.460645 
L 333.917683 -1 
M 333.993951 -1 
L 334.329403 34.938655 
L 334.711222 26.454525 
L 335.09304 52.780782 
L 335.474858 30.440685 
L 335.856676 63.147721 
L 336.238494 68.487606 
L 336.620313 48.377988 
L 337.002131 48.224052 
L 337.383949 52.815097 
L 337.765767 61.46661 
L 338.147585 35.862497 
L 338.529403 58.320667 
L 338.911222 64.294006 
L 339.29304 37.938026 
L 339.674858 95.631614 
L 340.056676 57.214804 
L 340.438494 80.390909 
L 340.820312 93.740547 
L 341.202131 47.983126 
L 341.583949 53.194967 
L 341.965767 43.320028 
L 342.347585 17.199533 
L 342.729403 14.963724 
L 343.111222 38.940269 
L 343.874858 42.423976 
L 344.256676 49.566214 
L 344.638494 51.572249 
L 345.020313 59.965815 
L 345.402131 44.683908 
L 345.783949 62.201926 
L 346.165767 37.081491 
L 346.547585 30.329945 
L 346.929403 87.41822 
L 347.311222 86.695465 
L 347.69304 33.777885 
L 348.074858 76.930842 
L 348.456676 51.105518 
L 348.838494 58.140502 
L 349.220313 41.136244 
L 349.602131 51.149217 
L 349.983949 52.832113 
L 350.365767 64.066585 
L 350.747585 59.595323 
L 351.129403 90.004067 
L 351.511222 78.435649 
L 351.89304 73.694955 
L 352.274858 73.061851 
L 352.656676 76.287035 
L 353.038494 56.399602 
L 353.420313 83.029973 
L 353.802131 70.439674 
L 354.183949 62.202019 
L 354.565767 18.582048 
L 354.947585 35.445819 
L 355.329403 37.65511 
L 355.711222 8.001243 
L 356.09304 46.543606 
L 356.856676 39.121014 
L 357.238494 59.091528 
L 357.620313 19.069154 
L 358.002131 34.590165 
L 358.383949 34.345557 
L 358.765767 33.015995 
L 359.147585 59.680371 
L 359.529403 43.749689 
L 359.911222 32.648291 
L 360.29304 16.522785 
L 360.674858 35.754285 
L 361.056676 43.673687 
L 361.383008 -1 
M 361.563748 -1 
L 361.820312 14.558869 
L 362.202131 17.050441 
L 362.583949 -0.719478 
L 362.965767 40.075172 
L 363.347585 47.154305 
L 363.729403 62.530654 
L 364.111222 32.749843 
L 364.49304 51.989664 
L 364.874858 65.0091 
L 365.256676 43.670229 
L 365.638494 64.201387 
L 366.020313 69.203186 
L 366.402131 30.83275 
L 366.783949 55.131713 
L 367.165767 3.127542 
L 367.547585 55.784968 
L 367.929403 17.945346 
L 368.311222 41.63924 
L 368.69304 89.796915 
L 369.074858 30.753406 
L 369.456676 98.608908 
L 369.838494 44.938759 
L 370.602131 40.62047 
L 370.983949 59.981366 
L 371.747585 25.766771 
L 372.129403 38.369715 
L 372.511222 63.941074 
L 372.89304 71.5813 
L 373.274858 32.480026 
L 373.656676 61.227818 
L 374.038494 46.64727 
L 374.420313 66.131084 
L 374.802131 63.014271 
L 375.183949 103.154746 
L 375.565767 85.172592 
L 375.947585 49.735722 
L 376.329403 52.609896 
L 376.711222 94.147204 
L 377.09304 52.638634 
L 377.474858 81.571659 
L 377.856676 23.819361 
L 378.238494 64.088701 
L 378.620313 69.781514 
L 379.002131 70.376574 
L 379.383949 88.786113 
L 380.147585 51.460726 
L 380.529403 42.025772 
L 380.911222 52.434488 
L 381.29304 76.801406 
L 381.674858 54.638773 
L 382.056676 72.644422 
L 382.820312 30.40556 
L 383.583949 61.919189 
L 383.965767 37.336301 
L 384.347585 31.081859 
L 384.729403 28.827981 
L 385.111222 0.741001 
L 385.49304 49.29144 
L 385.874858 53.327921 
L 386.256676 14.931405 
L 386.638494 26.434563 
L 387.020313 45.3702 
L 387.402131 50.127266 
L 387.783949 31.597098 
L 388.165767 31.631904 
L 388.547585 33.152413 
L 388.929403 63.494974 
L 389.311222 42.282768 
L 389.69304 55.824445 
L 390.074858 54.761369 
L 390.456676 35.703212 
L 390.838494 71.973121 
L 391.220313 68.030568 
L 391.602131 48.852734 
L 391.983949 53.967739 
L 392.365767 24.819025 
L 392.747585 50.856542 
L 393.129403 47.696545 
L 393.511222 26.577065 
L 393.89304 13.778227 
L 394.274858 32.329199 
L 394.656676 83.167621 
L 395.038494 35.701761 
L 395.420313 60.063567 
L 395.802131 67.410072 
L 396.183949 32.402463 
L 396.565767 45.635223 
L 397.711222 19.717731 
L 398.09304 33.860363 
L 398.474858 59.629752 
L 398.856676 50.483122 
L 399.238494 72.639678 
L 399.620313 55.394717 
L 400.383949 46.385979 
L 400.765767 36.781083 
L 401.147585 22.140738 
L 401.529403 65.135462 
L 401.911222 49.648904 
L 402.29304 52.686641 
L 402.674858 43.323416 
L 403.056676 45.519865 
L 403.438494 62.16437 
L 403.820312 87.806171 
L 404.583949 34.968824 
L 404.965767 56.778515 
L 405.347585 31.930368 
L 405.729403 54.494549 
L 406.111222 99.812901 
L 406.49304 82.170971 
L 406.874858 47.601165 
L 407.256676 47.155097 
L 407.638494 59.225009 
L 408.020313 96.526154 
L 408.402131 68.502016 
L 408.783949 28.783029 
L 409.165767 49.030732 
L 409.547585 83.232332 
L 409.929403 64.81165 
L 410.311222 63.888336 
L 410.69304 63.562797 
L 411.074858 84.169511 
L 411.456676 59.626552 
L 411.838494 66.058243 
L 412.220313 40.026913 
L 412.602131 55.916795 
L 412.983949 56.027757 
L 413.365767 78.436317 
L 413.747585 34.888511 
L 414.129403 38.814417 
L 414.511222 75.654151 
L 414.89304 72.861028 
L 415.274858 39.573117 
L 415.656676 67.561227 
L 416.038494 58.598911 
L 416.420313 80.994801 
L 416.802131 58.010464 
L 417.183949 61.46867 
L 417.565767 28.983468 
L 417.947585 71.108359 
L 418.329403 77.517929 
L 418.711222 25.736677 
L 419.09304 58.356845 
L 419.474858 47.103298 
L 419.856676 77.848987 
L 420.238494 79.122796 
L 421.002131 33.576815 
L 421.383949 65.878293 
L 421.765767 25.244806 
L 422.147585 49.744802 
L 422.529403 36.72393 
L 422.911222 51.251131 
L 423.29304 44.945938 
L 423.674858 42.268924 
L 424.056676 47.149473 
L 424.438494 20.217146 
L 424.820312 75.972246 
L 425.202131 40.048301 
L 425.583949 28.341844 
L 425.965767 35.889086 
L 426.347585 35.660987 
L 426.729403 47.795445 
L 427.111222 42.25605 
L 427.49304 13.59484 
L 427.874858 53.93565 
L 428.256676 51.829033 
L 428.638494 68.19058 
L 429.020313 58.949676 
L 429.402131 62.64574 
L 429.783949 43.250427 
L 430.165767 67.872995 
L 430.547585 63.682413 
L 430.929403 32.708647 
L 431.311222 60.208392 
L 431.69304 34.80663 
L 432.074858 22.405503 
L 432.456676 15.859521 
L 432.838494 60.652449 
L 433.220313 30.691448 
L 433.220313 30.691448 
" clip-path="url(#p2e437da170)" style="fill: none; stroke-dasharray: 1.5,2.475; stroke-dashoffset: 0; stroke: #1f77b4; stroke-width: 1.5"/>
   </g>
   <g id="line2d_10">
    <path d="M 42.620312 50.097401 
L 44.147585 42.484477 
L 44.911222 39.639838 
L 45.674858 37.812807 
L 46.056676 37.327352 
L 46.438494 37.134418 
L 46.820312 37.228038 
L 47.202131 37.593455 
L 47.583949 38.207684 
L 48.347585 40.054803 
L 49.49304 43.75566 
L 50.638494 47.463833 
L 51.402131 49.364391 
L 52.165767 50.514976 
L 52.547585 50.76664 
L 52.929403 50.79672 
L 53.311222 50.611656 
L 53.69304 50.226282 
L 54.456676 48.952338 
L 55.983949 45.403825 
L 56.747585 43.821218 
L 57.511222 42.821215 
L 57.89304 42.625849 
L 58.274858 42.666884 
L 58.656676 42.959659 
L 59.038494 43.511001 
L 59.802131 45.372473 
L 60.565767 48.130704 
L 61.711222 53.381829 
L 63.238494 60.532339 
L 64.002131 63.290849 
L 64.765767 65.071399 
L 65.147585 65.528999 
L 65.529403 65.679609 
L 65.911222 65.520621 
L 66.29304 65.058613 
L 66.674858 64.309118 
L 67.438494 62.051162 
L 68.583949 57.331642 
L 70.49304 49.056227 
L 71.256676 46.661291 
L 72.020313 45.16434 
L 72.402131 44.783557 
L 72.783949 44.646956 
L 73.165767 44.74299 
L 73.547585 45.051966 
L 74.311222 46.194074 
L 75.456676 48.647335 
L 76.602131 50.94292 
L 77.365767 51.837206 
L 77.747585 51.998884 
L 78.129403 51.9439 
L 78.511222 51.662591 
L 78.89304 51.153905 
L 79.656676 49.493537 
L 80.420312 47.122872 
L 83.09304 37.763074 
L 83.856676 36.280912 
L 84.238494 35.928801 
L 84.620312 35.864564 
L 85.002131 36.09904 
L 85.383949 36.634048 
L 85.765767 37.462265 
L 86.529403 39.924732 
L 87.29304 43.259337 
L 90.347585 58.020581 
L 91.111222 60.215014 
L 91.49304 60.909482 
L 91.874858 61.322137 
L 92.256676 61.45424 
L 92.638494 61.31595 
L 93.020313 60.925897 
L 93.783949 59.502845 
L 94.929403 56.334077 
L 96.456676 52.060193 
L 97.220313 50.653476 
L 97.602131 50.238234 
L 97.983949 50.036209 
L 98.365767 50.052767 
L 98.747585 50.284614 
L 99.129403 50.719925 
L 99.89304 52.113798 
L 101.038494 55.013333 
L 102.183949 57.864543 
L 102.947585 59.147386 
L 103.329403 59.488631 
L 103.711222 59.591723 
L 104.09304 59.437363 
L 104.474858 59.014578 
L 104.856676 58.321187 
L 105.620312 56.158552 
L 106.383949 53.106838 
L 107.911222 45.536238 
L 109.056676 40.099503 
L 109.820312 37.31482 
L 110.583949 35.548973 
L 110.965767 35.105413 
L 111.347585 34.968095 
L 111.729403 35.135612 
L 112.111222 35.597472 
L 112.49304 36.334476 
L 113.256676 38.517895 
L 114.402131 42.970875 
L 115.929403 49.124928 
L 116.69304 51.484551 
L 117.456676 53.021444 
L 117.838494 53.441885 
L 118.220313 53.626406 
L 118.602131 53.582954 
L 118.983949 53.327813 
L 119.747585 52.28524 
L 120.89304 49.929528 
L 122.038494 47.65306 
L 122.802131 46.740902 
L 123.183949 46.567971 
L 123.565767 46.614209 
L 123.947585 46.892628 
L 124.329403 47.407718 
L 125.09304 49.122195 
L 125.856676 51.621819 
L 127.383949 57.862795 
L 128.529403 62.179477 
L 129.29304 64.186572 
L 129.674858 64.816354 
L 130.056676 65.162305 
L 130.438494 65.208644 
L 130.820312 64.948483 
L 131.202131 64.38409 
L 131.965767 62.39693 
L 132.729403 59.439549 
L 133.874858 53.876582 
L 135.402131 46.418346 
L 136.165767 43.525651 
L 136.929403 41.564018 
L 137.311222 40.978558 
L 137.69304 40.663904 
L 138.074858 40.614322 
L 138.456676 40.815435 
L 138.838494 41.244808 
L 139.602131 42.663626 
L 141.129403 46.602394 
L 141.89304 48.407728 
L 142.656676 49.672315 
L 143.038494 50.028191 
L 143.420313 50.17487 
L 143.802131 50.103905 
L 144.183949 49.815467 
L 144.565767 49.318353 
L 145.329403 47.774371 
L 146.474858 44.554068 
L 147.620313 41.25285 
L 148.383949 39.613099 
L 148.765767 39.084196 
L 149.147585 38.792098 
L 149.529403 38.76019 
L 149.911222 39.003787 
L 150.29304 39.529522 
L 150.674858 40.335043 
L 151.438494 42.731325 
L 152.202131 46.001077 
L 155.256676 60.841343 
L 156.020312 63.098163 
L 156.402131 63.810555 
L 156.783949 64.225719 
L 157.165767 64.33998 
L 157.547585 64.158798 
L 157.929403 63.696521 
L 158.69304 62.027049 
L 159.456676 59.597232 
L 161.747585 51.348404 
L 162.511222 49.452422 
L 162.89304 48.810433 
L 163.274858 48.392265 
L 163.656676 48.202099 
L 164.038494 48.235412 
L 164.420313 48.479189 
L 165.183949 49.506976 
L 166.329403 51.891632 
L 167.474858 54.275553 
L 168.238494 55.290401 
L 168.620313 55.517056 
L 169.002131 55.521957 
L 169.383949 55.288593 
L 169.765767 54.808828 
L 170.529403 53.121338 
L 171.29304 50.56844 
L 172.438494 45.659937 
L 173.965767 38.986284 
L 174.729403 36.463732 
L 175.49304 34.915821 
L 175.874858 34.57365 
L 176.256676 34.538224 
L 176.638494 34.812458 
L 177.020312 35.390073 
L 177.783949 37.385832 
L 178.547585 40.306087 
L 180.074858 47.556434 
L 181.220312 52.677251 
L 181.983949 55.272179 
L 182.747585 56.935436 
L 183.129403 57.383093 
L 183.511222 57.573866 
L 183.89304 57.518042 
L 184.274858 57.234204 
L 185.038494 56.093702 
L 186.183949 53.514429 
L 187.329403 50.942499 
L 188.09304 49.791617 
L 188.474858 49.484069 
L 188.856676 49.383743 
L 189.238494 49.502166 
L 189.620313 49.842329 
L 190.002131 50.398543 
L 190.765767 52.094235 
L 191.911222 55.657962 
L 193.438494 60.565017 
L 194.202131 62.260877 
L 194.583949 62.778834 
L 194.965767 63.037845 
L 195.347585 63.018132 
L 195.729403 62.7084 
L 196.111222 62.106295 
L 196.874858 60.060854 
L 197.638494 57.040088 
L 198.783949 51.319026 
L 200.311222 43.500529 
L 201.074858 40.395896 
L 201.838494 38.243579 
L 202.220312 37.583517 
L 202.602131 37.215208 
L 202.983949 37.138114 
L 203.365767 37.3427 
L 203.747585 37.810835 
L 204.511222 39.42656 
L 205.656676 42.974449 
L 207.183949 47.893979 
L 207.947585 49.660193 
L 208.329403 50.25818 
L 208.711222 50.642284 
L 209.09304 50.805094 
L 209.474858 50.747864 
L 209.856676 50.480441 
L 210.620313 49.394777 
L 211.383949 47.777306 
L 212.911222 44.249079 
L 213.674858 43.042547 
L 214.056676 42.716019 
L 214.438494 42.612851 
L 214.820312 42.753208 
L 215.202131 43.149081 
L 215.583949 43.803786 
L 216.347585 45.858607 
L 217.111222 48.770163 
L 218.638494 55.998702 
L 219.783949 61.148884 
L 220.547585 63.733244 
L 221.311222 65.290729 
L 221.69304 65.626434 
L 222.074858 65.653002 
L 222.456676 65.371507 
L 222.838494 64.792153 
L 223.602131 62.823954 
L 224.365767 59.992337 
L 227.420313 47.292776 
L 228.183949 45.511596 
L 228.565767 44.982341 
L 228.947585 44.700072 
L 229.329403 44.65838 
L 229.711222 44.842388 
L 230.09304 45.229342 
L 230.856676 46.487156 
L 233.147585 51.175339 
L 233.529403 51.643315 
L 233.911222 51.92691 
L 234.29304 52.003621 
L 234.674858 51.85879 
L 235.056676 51.486167 
L 235.438494 50.88819 
L 236.202131 49.068918 
L 236.965767 46.585957 
L 239.256676 38.381756 
L 240.020312 36.622608 
L 240.402131 36.106581 
L 240.783949 35.867755 
L 241.165767 35.922202 
L 241.547585 36.277185 
L 241.929403 36.930864 
L 242.69304 39.081734 
L 243.456676 42.185517 
L 244.983949 49.955812 
L 246.129403 55.589043 
L 246.89304 58.540418 
L 247.656676 60.526323 
L 248.038494 61.108493 
L 248.420313 61.408272 
L 248.802131 61.430511 
L 249.183949 61.188827 
L 249.565767 60.705054 
L 250.329403 59.134507 
L 251.474858 55.87194 
L 252.620313 52.608806 
L 253.383949 50.999546 
L 253.765767 50.462494 
L 254.147585 50.131344 
L 254.529403 50.016593 
L 254.911222 50.120146 
L 255.29304 50.435264 
L 256.056676 51.631795 
L 256.820312 53.395898 
L 258.729403 58.17563 
L 259.49304 59.310901 
L 259.874858 59.559706 
L 260.256676 59.561681 
L 260.638494 59.300782 
L 261.020312 58.769515 
L 261.402131 57.969281 
L 262.165767 55.611996 
L 262.929403 52.412509 
L 265.983949 38.054219 
L 266.747585 35.959253 
L 267.129403 35.335092 
L 267.511222 35.013609 
L 267.89304 34.998908 
L 268.274858 35.285921 
L 268.656676 35.86061 
L 269.420313 37.775301 
L 270.183949 40.477046 
L 272.856676 50.854607 
L 273.620313 52.655885 
L 274.002131 53.218079 
L 274.383949 53.543751 
L 274.765767 53.635651 
L 275.147585 53.50512 
L 275.529403 53.171618 
L 276.29304 52.009421 
L 278.965767 46.941434 
L 279.347585 46.646602 
L 279.729403 46.559252 
L 280.111222 46.697269 
L 280.49304 47.070305 
L 280.874858 47.679363 
L 281.638494 49.565938 
L 282.402131 52.195202 
L 285.074858 62.651582 
L 285.838494 64.471179 
L 286.220313 64.989872 
L 286.602131 65.217383 
L 286.983949 65.141439 
L 287.365767 64.758798 
L 287.747585 64.075398 
L 288.511222 61.874699 
L 289.274858 58.757007 
L 292.711222 43.052706 
L 293.474858 41.297341 
L 293.856676 40.820323 
L 294.238494 40.612879 
L 294.620313 40.665767 
L 295.002131 40.961303 
L 295.765767 42.171766 
L 296.529403 43.966405 
L 298.438494 48.712529 
L 299.202131 49.838877 
L 299.583949 50.11263 
L 299.965767 50.172787 
L 300.347585 50.014326 
L 300.729403 49.640885 
L 301.49304 48.305928 
L 302.256676 46.358587 
L 304.165767 40.873217 
L 304.929403 39.37493 
L 305.311222 38.937459 
L 305.69304 38.747066 
L 306.074858 38.823998 
L 306.456676 39.180153 
L 306.838494 39.818592 
L 307.602131 41.909528 
L 308.365767 44.944772 
L 309.511222 50.641086 
L 311.038494 58.35461 
L 311.802131 61.375166 
L 312.565767 63.418172 
L 312.947585 64.012699 
L 313.329403 64.307429 
L 313.711222 64.302352 
L 314.09304 64.006527 
L 314.474858 63.437726 
L 315.238494 61.59169 
L 316.383949 57.628298 
L 317.911222 52.053757 
L 318.674858 49.940072 
L 319.438494 48.615877 
L 319.820312 48.288897 
L 320.202131 48.18915 
L 320.583949 48.308671 
L 320.965767 48.63118 
L 321.729403 49.782437 
L 322.874858 52.235827 
L 324.020313 54.529563 
L 324.783949 55.406286 
L 325.165767 55.546732 
L 325.547585 55.457851 
L 325.929403 55.126419 
L 326.311222 54.547769 
L 327.074858 52.674136 
L 327.838494 49.9728 
L 329.365767 43.209535 
L 330.511222 38.417201 
L 331.274858 36.068111 
L 331.656676 35.263738 
L 332.038494 34.742711 
L 332.420313 34.522301 
L 332.802131 34.610905 
L 333.183949 35.007756 
L 333.565767 35.702937 
L 334.329403 37.905035 
L 335.09304 40.973898 
L 338.147585 54.5837 
L 338.911222 56.542523 
L 339.29304 57.145623 
L 339.674858 57.489845 
L 340.056676 57.580267 
L 340.438494 57.430564 
L 340.820312 57.062451 
L 341.583949 55.792818 
L 344.256676 50.067765 
L 344.638494 49.644813 
L 345.020313 49.418239 
L 345.402131 49.404501 
L 345.783949 49.611747 
L 346.165767 50.039496 
L 346.929403 51.51161 
L 347.69304 53.650991 
L 349.983949 60.964826 
L 350.747585 62.497534 
L 351.129403 62.914802 
L 351.511222 63.064235 
L 351.89304 62.929376 
L 352.274858 62.502469 
L 352.656676 61.784793 
L 353.420313 59.527334 
L 354.183949 56.341774 
L 355.711222 48.470516 
L 356.856676 42.815919 
L 357.620313 39.881854 
L 358.383949 37.944888 
L 358.765767 37.401009 
L 359.147585 37.14976 
L 359.529403 37.186975 
L 359.911222 37.499618 
L 360.29304 38.066293 
L 361.056676 39.839312 
L 362.202131 43.494754 
L 363.347585 47.240844 
L 364.111222 49.204999 
L 364.874858 50.438096 
L 365.256676 50.734088 
L 365.638494 50.808245 
L 366.020313 50.665285 
L 366.402131 50.3184 
L 367.165767 49.104725 
L 368.311222 46.495249 
L 369.456676 43.958372 
L 370.220313 42.886742 
L 370.602131 42.646645 
L 370.983949 42.638909 
L 371.365767 42.880511 
L 371.747585 43.380016 
L 372.129403 44.137191 
L 372.89304 46.379406 
L 373.656676 49.433416 
L 376.711222 63.054714 
L 377.474858 64.943915 
L 377.856676 65.461793 
L 378.238494 65.674304 
L 378.620313 65.577002 
L 379.002131 65.174636 
L 379.383949 64.480982 
L 380.147585 62.316957 
L 380.911222 59.351094 
L 383.583949 48.001374 
L 384.347585 45.947082 
L 384.729403 45.270209 
L 385.111222 44.839959 
L 385.49304 44.655175 
L 385.874858 44.706005 
L 386.256676 44.974336 
L 387.020313 46.054217 
L 388.165767 48.475437 
L 389.311222 50.818065 
L 390.074858 51.780306 
L 390.456676 51.983424 
L 390.838494 51.972816 
L 391.220313 51.737135 
L 391.602131 51.273589 
L 392.365767 49.695163 
L 393.129403 47.384848 
L 395.802131 37.96142 
L 396.565767 36.384312 
L 396.947585 35.976695 
L 397.329403 35.853733 
L 397.711222 36.028029 
L 398.09304 36.503224 
L 398.474858 37.27382 
L 399.238494 39.634549 
L 400.002131 42.895452 
L 403.056676 57.74657 
L 403.820312 60.042829 
L 404.202131 60.793015 
L 404.583949 61.262221 
L 404.965767 61.449901 
L 405.347585 61.364462 
L 405.729403 61.022887 
L 406.49304 59.677954 
L 407.256676 57.691272 
L 409.165767 52.237467 
L 409.929403 50.761037 
L 410.311222 50.304548 
L 410.69304 50.059174 
L 411.074858 50.032002 
L 411.456676 50.221469 
L 411.838494 50.617431 
L 412.602131 51.947834 
L 413.747585 54.807996 
L 414.89304 57.700479 
L 415.656676 59.052801 
L 416.038494 59.438677 
L 416.420313 59.591199 
L 416.802131 59.489483 
L 417.183949 59.120843 
L 417.565767 58.481317 
L 418.329403 56.418456 
L 419.09304 53.4449 
L 420.238494 47.888251 
L 421.765767 40.423852 
L 422.529403 37.55132 
L 423.29304 35.673911 
L 423.674858 35.169742 
L 424.056676 34.970994 
L 424.438494 35.078097 
L 424.820312 35.482353 
L 425.202131 36.166262 
L 425.965767 38.262966 
L 427.111222 42.650618 
L 428.638494 48.851789 
L 429.402131 51.282653 
L 430.165767 52.908957 
L 430.547585 53.376773 
L 430.929403 53.608118 
L 431.311222 53.609216 
L 431.69304 53.394729 
L 432.074858 52.987171 
L 432.838494 51.71683 
L 433.220313 50.929535 
L 433.220313 50.929535 
" clip-path="url(#p2e437da170)" style="fill: none; stroke: #ff7f0e; stroke-width: 1.5; stroke-linecap: square"/>
   </g>
   <g id="patch_3">
    <path d="M 42.620312 89.195582 
L 42.620312 10.999219 
" style="fill: none; stroke: #000000; stroke-width: 0.8; stroke-linejoin: miter; stroke-linecap: square"/>
   </g>
   <g id="patch_4">
    <path d="M 433.220313 89.195582 
L 433.220313 10.999219 
" style="fill: none; stroke: #000000; stroke-width: 0.8; stroke-linejoin: miter; stroke-linecap: square"/>
   </g>
   <g id="patch_5">
    <path d="M 42.620312 89.195582 
L 433.220313 89.195582 
" style="fill: none; stroke: #000000; stroke-width: 0.8; stroke-linejoin: miter; stroke-linecap: square"/>
   </g>
   <g id="patch_6">
    <path d="M 42.620312 10.999219 
L 433.220313 10.999219 
" style="fill: none; stroke: #000000; stroke-width: 0.8; stroke-linejoin: miter; stroke-linecap: square"/>
   </g>
   <g id="legend_1">
    <g id="patch_7">
     <path d="M 365.840625 48.355469 
L 426.220313 48.355469 
Q 428.220313 48.355469 428.220313 46.355469 
L 428.220313 17.999219 
Q 428.220313 15.999219 426.220313 15.999219 
L 365.840625 15.999219 
Q 363.840625 15.999219 363.840625 17.999219 
L 363.840625 46.355469 
Q 363.840625 48.355469 365.840625 48.355469 
z
" style="fill: #ffffff; opacity: 0.8; stroke: #cccccc; stroke-linejoin: miter"/>
    </g>
    <g id="line2d_11">
     <path d="M 367.840625 24.097656 
L 377.840625 24.097656 
L 387.840625 24.097656 
" style="fill: none; stroke-dasharray: 1.5,2.475; stroke-dashoffset: 0; stroke: #1f77b4; stroke-width: 1.5"/>
    </g>
    <g id="text_11">
     <!-- Noisy -->
     <g transform="translate(395.840625 27.597656) scale(0.1 -0.1)">
      <defs>
       <path id="DejaVuSans-4e" d="M 628 4666 
L 1478 4666 
L 3547 763 
L 3547 4666 
L 4159 4666 
L 4159 0 
L 3309 0 
L 1241 3903 
L 1241 0 
L 628 0 
L 628 4666 
z
" transform="scale(0.015625)"/>
       <path id="DejaVuSans-6f" d="M 1959 3097 
Q 1497 3097 1228 2736 
Q 959 2375 959 1747 
Q 959 1119 1226 758 
Q 1494 397 1959 397 
Q 2419 397 2687 759 
Q 2956 1122 2956 1747 
Q 2956 2369 2687 2733 
Q 2419 3097 1959 3097 
z
M 1959 3584 
Q 2709 3584 3137 3096 
Q 3566 2609 3566 1747 
Q 3566 888 3137 398 
Q 2709 -91 1959 -91 
Q 1206 -91 779 398 
Q 353 888 353 1747 
Q 353 2609 779 3096 
Q 1206 3584 1959 3584 
z
" transform="scale(0.015625)"/>
       <path id="DejaVuSans-79" d="M 2059 -325 
Q 1816 -950 1584 -1140 
Q 1353 -1331 966 -1331 
L 506 -1331 
L 506 -850 
L 844 -850 
Q 1081 -850 1212 -737 
Q 1344 -625 1503 -206 
L 1606 56 
L 191 3500 
L 800 3500 
L 1894 763 
L 2988 3500 
L 3597 3500 
L 2059 -325 
z
" transform="scale(0.015625)"/>
      </defs>
      <use xlink:href="#DejaVuSans-4e"/>
      <use xlink:href="#DejaVuSans-6f" transform="translate(74.804688 0)"/>
      <use xlink:href="#DejaVuSans-69" transform="translate(135.986328 0)"/>
      <use xlink:href="#DejaVuSans-73" transform="translate(163.769531 0)"/>
      <use xlink:href="#DejaVuSans-79" transform="translate(215.869141 0)"/>
     </g>
    </g>
    <g id="line2d_12">
     <path d="M 367.840625 38.775781 
L 377.840625 38.775781 
L 387.840625 38.775781 
" style="fill: none; stroke: #ff7f0e; stroke-width: 1.5; stroke-linecap: square"/>
    </g>
    <g id="text_12">
     <!-- Clean -->
     <g transform="translate(395.840625 42.275781) scale(0.1 -0.1)">
      <defs>
       <path id="DejaVuSans-43" d="M 4122 4306 
L 4122 3641 
Q 3803 3938 3442 4084 
Q 3081 4231 2675 4231 
Q 1875 4231 1450 3742 
Q 1025 3253 1025 2328 
Q 1025 1406 1450 917 
Q 1875 428 2675 428 
Q 3081 428 3442 575 
Q 3803 722 4122 1019 
L 4122 359 
Q 3791 134 3420 21 
Q 3050 -91 2638 -91 
Q 1578 -91 968 557 
Q 359 1206 359 2328 
Q 359 3453 968 4101 
Q 1578 4750 2638 4750 
Q 3056 4750 3426 4639 
Q 3797 4528 4122 4306 
z
" transform="scale(0.015625)"/>
       <path id="DejaVuSans-6c" d="M 603 4863 
L 1178 4863 
L 1178 0 
L 603 0 
L 603 4863 
z
" transform="scale(0.015625)"/>
       <path id="DejaVuSans-61" d="M 2194 1759 
Q 1497 1759 1228 1600 
Q 959 1441 959 1056 
Q 959 750 1161 570 
Q 1363 391 1709 391 
Q 2188 391 2477 730 
Q 2766 1069 2766 1631 
L 2766 1759 
L 2194 1759 
z
M 3341 1997 
L 3341 0 
L 2766 0 
L 2766 531 
Q 2569 213 2275 61 
Q 1981 -91 1556 -91 
Q 1019 -91 701 211 
Q 384 513 384 1019 
Q 384 1609 779 1909 
Q 1175 2209 1959 2209 
L 2766 2209 
L 2766 2266 
Q 2766 2663 2505 2880 
Q 2244 3097 1772 3097 
Q 1472 3097 1187 3025 
Q 903 2953 641 2809 
L 641 3341 
Q 956 3463 1253 3523 
Q 1550 3584 1831 3584 
Q 2591 3584 2966 3190 
Q 3341 2797 3341 1997 
z
" transform="scale(0.015625)"/>
       <path id="DejaVuSans-6e" d="M 3513 2113 
L 3513 0 
L 2938 0 
L 2938 2094 
Q 2938 2591 2744 2837 
Q 2550 3084 2163 3084 
Q 1697 3084 1428 2787 
Q 1159 2491 1159 1978 
L 1159 0 
L 581 0 
L 581 3500 
L 1159 3500 
L 1159 2956 
Q 1366 3272 1645 3428 
Q 1925 3584 2291 3584 
Q 2894 3584 3203 3211 
Q 3513 2838 3513 2113 
z
" transform="scale(0.015625)"/>
      </defs>
      <use xlink:href="#DejaVuSans-43"/>
      <use xlink:href="#DejaVuSans-6c" transform="translate(69.824219 0)"/>
      <use xlink:href="#DejaVuSans-65" transform="translate(97.607422 0)"/>
      <use xlink:href="#DejaVuSans-61" transform="translate(159.130859 0)"/>
      <use xlink:href="#DejaVuSans-6e" transform="translate(220.410156 0)"/>
     </g>
    </g>
   </g>
  </g>
 </g>
 <defs>
  <clipPath id="p2e437da170">
   <rect x="42.620312" y="10.999219" width="390.6" height="78.196364"/>
  </clipPath>
 </defs>
</svg>
