<?xml version="1.0" encoding="utf-8" standalone="no"?>
<!DOCTYPE svg PUBLIC "-//W3C//DTD SVG 1.1//EN"
  "http://www.w3.org/Graphics/SVG/1.1/DTD/svg11.dtd">
<svg xmlns:xlink="http://www.w3.org/1999/xlink" width="427.903125pt" height="157.239207pt" viewBox="0 0 427.903125 157.239207" xmlns="http://www.w3.org/2000/svg" version="1.1">
 <metadata>
  <rdf:RDF xmlns:dc="http://purl.org/dc/elements/1.1/" xmlns:cc="http://creativecommons.org/ns#" xmlns:rdf="http://www.w3.org/1999/02/22-rdf-syntax-ns#">
   <cc:Work>
    <dc:type rdf:resource="http://purl.org/dc/dcmitype/StillImage"/>
    <dc:date>2024-11-14T17:07:41.143995</dc:date>
    <dc:format>image/svg+xml</dc:format>
    <dc:creator>
     <cc:Agent>
      <dc:title>Matplotlib v3.9.2, https://matplotlib.org/</dc:title>
     </cc:Agent>
    </dc:creator>
   </cc:Work>
  </rdf:RDF>
 </metadata>
 <defs>
  <style type="text/css">*{stroke-linejoin: round; stroke-linecap: butt}</style>
 </defs>
 <g id="figure_1">
  <g id="patch_1">
   <path d="M 0 157.239207 
L 427.903125 157.239207 
L 427.903125 0 
L 0 0 
z
" style="fill: #ffffff"/>
  </g>
  <g id="axes_1">
   <g id="patch_2">
    <path d="M 30.103125 119.682957 
L 420.703125 119.682957 
L 420.703125 7.2 
L 30.103125 7.2 
z
" style="fill: #ffffff"/>
   </g>
   <g id="matplotlib.axis_1">
    <g id="xtick_1">
     <g id="line2d_1">
      <defs>
       <path id="m7c7b5bea08" d="M 0 0 
L 0 3.5 
" style="stroke: #000000; stroke-width: 0.8"/>
      </defs>
      <g>
       <use xlink:href="#m7c7b5bea08" x="55.859705" y="119.682957" style="stroke: #000000; stroke-width: 0.8"/>
      </g>
     </g>
     <g id="text_1">
      <!-- −3 -->
      <g transform="translate(48.488611 134.281394) scale(0.1 -0.1)">
       <defs>
        <path id="DejaVuSans-2212" d="M 678 2272 
L 4684 2272 
L 4684 1741 
L 678 1741 
L 678 2272 
z
" transform="scale(0.015625)"/>
        <path id="DejaVuSans-33" d="M 2597 2516 
Q 3050 2419 3304 2112 
Q 3559 1806 3559 1356 
Q 3559 666 3084 287 
Q 2609 -91 1734 -91 
Q 1441 -91 1130 -33 
Q 819 25 488 141 
L 488 750 
Q 750 597 1062 519 
Q 1375 441 1716 441 
Q 2309 441 2620 675 
Q 2931 909 2931 1356 
Q 2931 1769 2642 2001 
Q 2353 2234 1838 2234 
L 1294 2234 
L 1294 2753 
L 1863 2753 
Q 2328 2753 2575 2939 
Q 2822 3125 2822 3475 
Q 2822 3834 2567 4026 
Q 2313 4219 1838 4219 
Q 1578 4219 1281 4162 
Q 984 4106 628 3988 
L 628 4550 
Q 988 4650 1302 4700 
Q 1616 4750 1894 4750 
Q 2613 4750 3031 4423 
Q 3450 4097 3450 3541 
Q 3450 3153 3228 2886 
Q 3006 2619 2597 2516 
z
" transform="scale(0.015625)"/>
       </defs>
       <use xlink:href="#DejaVuSans-2212"/>
       <use xlink:href="#DejaVuSans-33" x="83.789062"/>
      </g>
     </g>
    </g>
    <g id="xtick_2">
     <g id="line2d_2">
      <g>
       <use xlink:href="#m7c7b5bea08" x="112.374178" y="119.682957" style="stroke: #000000; stroke-width: 0.8"/>
      </g>
     </g>
     <g id="text_2">
      <!-- −2 -->
      <g transform="translate(105.003084 134.281394) scale(0.1 -0.1)">
       <defs>
        <path id="DejaVuSans-32" d="M 1228 531 
L 3431 531 
L 3431 0 
L 469 0 
L 469 531 
Q 828 903 1448 1529 
Q 2069 2156 2228 2338 
Q 2531 2678 2651 2914 
Q 2772 3150 2772 3378 
Q 2772 3750 2511 3984 
Q 2250 4219 1831 4219 
Q 1534 4219 1204 4116 
Q 875 4013 500 3803 
L 500 4441 
Q 881 4594 1212 4672 
Q 1544 4750 1819 4750 
Q 2544 4750 2975 4387 
Q 3406 4025 3406 3419 
Q 3406 3131 3298 2873 
Q 3191 2616 2906 2266 
Q 2828 2175 2409 1742 
Q 1991 1309 1228 531 
z
" transform="scale(0.015625)"/>
       </defs>
       <use xlink:href="#DejaVuSans-2212"/>
       <use xlink:href="#DejaVuSans-32" x="83.789062"/>
      </g>
     </g>
    </g>
    <g id="xtick_3">
     <g id="line2d_3">
      <g>
       <use xlink:href="#m7c7b5bea08" x="168.888652" y="119.682957" style="stroke: #000000; stroke-width: 0.8"/>
      </g>
     </g>
     <g id="text_3">
      <!-- −1 -->
      <g transform="translate(161.517558 134.281394) scale(0.1 -0.1)">
       <defs>
        <path id="DejaVuSans-31" d="M 794 531 
L 1825 531 
L 1825 4091 
L 703 3866 
L 703 4441 
L 1819 4666 
L 2450 4666 
L 2450 531 
L 3481 531 
L 3481 0 
L 794 0 
L 794 531 
z
" transform="scale(0.015625)"/>
       </defs>
       <use xlink:href="#DejaVuSans-2212"/>
       <use xlink:href="#DejaVuSans-31" x="83.789062"/>
      </g>
     </g>
    </g>
    <g id="xtick_4">
     <g id="line2d_4">
      <g>
       <use xlink:href="#m7c7b5bea08" x="225.403125" y="119.682957" style="stroke: #000000; stroke-width: 0.8"/>
      </g>
     </g>
     <g id="text_4">
      <!-- 0 -->
      <g transform="translate(222.221875 134.281394) scale(0.1 -0.1)">
       <defs>
        <path id="DejaVuSans-30" d="M 2034 4250 
Q 1547 4250 1301 3770 
Q 1056 3291 1056 2328 
Q 1056 1369 1301 889 
Q 1547 409 2034 409 
Q 2525 409 2770 889 
Q 3016 1369 3016 2328 
Q 3016 3291 2770 3770 
Q 2525 4250 2034 4250 
z
M 2034 4750 
Q 2819 4750 3233 4129 
Q 3647 3509 3647 2328 
Q 3647 1150 3233 529 
Q 2819 -91 2034 -91 
Q 1250 -91 836 529 
Q 422 1150 422 2328 
Q 422 3509 836 4129 
Q 1250 4750 2034 4750 
z
" transform="scale(0.015625)"/>
       </defs>
       <use xlink:href="#DejaVuSans-30"/>
      </g>
     </g>
    </g>
    <g id="xtick_5">
     <g id="line2d_5">
      <g>
       <use xlink:href="#m7c7b5bea08" x="281.917598" y="119.682957" style="stroke: #000000; stroke-width: 0.8"/>
      </g>
     </g>
     <g id="text_5">
      <!-- 1 -->
      <g transform="translate(278.736348 134.281394) scale(0.1 -0.1)">
       <use xlink:href="#DejaVuSans-31"/>
      </g>
     </g>
    </g>
    <g id="xtick_6">
     <g id="line2d_6">
      <g>
       <use xlink:href="#m7c7b5bea08" x="338.432072" y="119.682957" style="stroke: #000000; stroke-width: 0.8"/>
      </g>
     </g>
     <g id="text_6">
      <!-- 2 -->
      <g transform="translate(335.250822 134.281394) scale(0.1 -0.1)">
       <use xlink:href="#DejaVuSans-32"/>
      </g>
     </g>
    </g>
    <g id="xtick_7">
     <g id="line2d_7">
      <g>
       <use xlink:href="#m7c7b5bea08" x="394.946545" y="119.682957" style="stroke: #000000; stroke-width: 0.8"/>
      </g>
     </g>
     <g id="text_7">
      <!-- 3 -->
      <g transform="translate(391.765295 134.281394) scale(0.1 -0.1)">
       <use xlink:href="#DejaVuSans-33"/>
      </g>
     </g>
    </g>
    <g id="text_8">
     <!-- $x$ -->
     <g transform="translate(222.403125 147.959519) scale(0.1 -0.1)">
      <defs>
       <path id="DejaVuSans-Oblique-78" d="M 3841 3500 
L 2234 1784 
L 3219 0 
L 2559 0 
L 1819 1388 
L 531 0 
L -166 0 
L 1556 1844 
L 641 3500 
L 1300 3500 
L 1972 2234 
L 3144 3500 
L 3841 3500 
z
" transform="scale(0.015625)"/>
      </defs>
      <use xlink:href="#DejaVuSans-Oblique-78" transform="translate(0 0.3125)"/>
     </g>
    </g>
   </g>
   <g id="matplotlib.axis_2">
    <g id="ytick_1">
     <g id="line2d_8">
      <defs>
       <path id="m6adf220a00" d="M 0 0 
L -3.5 0 
" style="stroke: #000000; stroke-width: 0.8"/>
      </defs>
      <g>
       <use xlink:href="#m6adf220a00" x="30.103125" y="105.731787" style="stroke: #000000; stroke-width: 0.8"/>
      </g>
     </g>
     <g id="text_9">
      <!-- 0.0 -->
      <g transform="translate(7.2 109.531006) scale(0.1 -0.1)">
       <defs>
        <path id="DejaVuSans-2e" d="M 684 794 
L 1344 794 
L 1344 0 
L 684 0 
L 684 794 
z
" transform="scale(0.015625)"/>
       </defs>
       <use xlink:href="#DejaVuSans-30"/>
       <use xlink:href="#DejaVuSans-2e" x="63.623047"/>
       <use xlink:href="#DejaVuSans-30" x="95.410156"/>
      </g>
     </g>
    </g>
    <g id="ytick_2">
     <g id="line2d_9">
      <g>
       <use xlink:href="#m6adf220a00" x="30.103125" y="63.345932" style="stroke: #000000; stroke-width: 0.8"/>
      </g>
     </g>
     <g id="text_10">
      <!-- 0.5 -->
      <g transform="translate(7.2 67.145151) scale(0.1 -0.1)">
       <defs>
        <path id="DejaVuSans-35" d="M 691 4666 
L 3169 4666 
L 3169 4134 
L 1269 4134 
L 1269 2991 
Q 1406 3038 1543 3061 
Q 1681 3084 1819 3084 
Q 2600 3084 3056 2656 
Q 3513 2228 3513 1497 
Q 3513 744 3044 326 
Q 2575 -91 1722 -91 
Q 1428 -91 1123 -41 
Q 819 9 494 109 
L 494 744 
Q 775 591 1075 516 
Q 1375 441 1709 441 
Q 2250 441 2565 725 
Q 2881 1009 2881 1497 
Q 2881 1984 2565 2268 
Q 2250 2553 1709 2553 
Q 1456 2553 1204 2497 
Q 953 2441 691 2322 
L 691 4666 
z
" transform="scale(0.015625)"/>
       </defs>
       <use xlink:href="#DejaVuSans-30"/>
       <use xlink:href="#DejaVuSans-2e" x="63.623047"/>
       <use xlink:href="#DejaVuSans-35" x="95.410156"/>
      </g>
     </g>
    </g>
    <g id="ytick_3">
     <g id="line2d_10">
      <g>
       <use xlink:href="#m6adf220a00" x="30.103125" y="20.960077" style="stroke: #000000; stroke-width: 0.8"/>
      </g>
     </g>
     <g id="text_11">
      <!-- 1.0 -->
      <g transform="translate(7.2 24.759296) scale(0.1 -0.1)">
       <use xlink:href="#DejaVuSans-31"/>
       <use xlink:href="#DejaVuSans-2e" x="63.623047"/>
       <use xlink:href="#DejaVuSans-30" x="95.410156"/>
      </g>
     </g>
    </g>
   </g>
   <g id="line2d_11">
    <path d="M 47.85767 105.731787 
L 51.40858 105.731787 
L 54.959489 105.731787 
L 58.510398 105.731787 
L 62.061307 105.731787 
L 65.612216 105.731787 
L 69.163125 105.731787 
L 72.714034 105.731787 
L 76.264943 105.731787 
L 79.815852 105.731787 
L 83.366761 105.731787 
L 86.91767 105.731787 
L 90.46858 105.731787 
L 94.019489 105.731787 
L 97.570398 105.731787 
L 101.121307 105.731787 
L 104.672216 105.731787 
L 108.223125 105.731787 
L 111.774034 105.731787 
L 115.324943 105.731787 
L 118.875852 105.731787 
L 122.426761 105.731787 
L 125.97767 105.731787 
L 129.52858 105.731787 
L 133.079489 105.731787 
L 136.630398 20.960077 
L 140.181307 20.960077 
L 143.732216 20.960077 
L 147.283125 20.960077 
L 150.834034 20.960077 
L 154.384943 20.960077 
L 157.935852 20.960077 
L 161.486761 20.960077 
L 165.03767 20.960077 
L 168.58858 20.960077 
L 172.139489 20.960077 
L 175.690398 20.960077 
L 179.241307 20.960077 
L 182.792216 20.960077 
L 186.343125 20.960077 
L 189.894034 20.960077 
L 193.444943 20.960077 
L 196.995852 20.960077 
L 200.546761 20.960077 
L 204.09767 20.960077 
L 207.64858 20.960077 
L 211.199489 20.960077 
L 214.750398 20.960077 
L 218.301307 20.960077 
L 221.852216 20.960077 
L 225.403125 20.960077 
L 228.954034 20.960077 
L 232.504943 20.960077 
L 236.055852 20.960077 
L 239.606761 20.960077 
L 243.15767 20.960077 
L 246.70858 20.960077 
L 250.259489 20.960077 
L 253.810398 20.960077 
L 257.361307 20.960077 
L 260.912216 20.960077 
L 264.463125 20.960077 
L 268.014034 20.960077 
L 271.564943 20.960077 
L 275.115852 20.960077 
L 278.666761 20.960077 
L 282.21767 20.960077 
L 285.76858 20.960077 
L 289.319489 20.960077 
L 292.870398 20.960077 
L 296.421307 20.960077 
L 299.972216 20.960077 
L 303.523125 20.960077 
L 307.074034 20.960077 
L 310.624943 20.960077 
L 314.175852 20.960077 
L 317.726761 105.731787 
L 321.27767 105.731787 
L 324.82858 105.731787 
L 328.379489 105.731787 
L 331.930398 105.731787 
L 335.481307 105.731787 
L 339.032216 105.731787 
L 342.583125 105.731787 
L 346.134034 105.731787 
L 349.684943 105.731787 
L 353.235852 105.731787 
L 356.786761 105.731787 
L 360.33767 105.731787 
L 363.88858 105.731787 
L 367.439489 105.731787 
L 370.990398 105.731787 
L 374.541307 105.731787 
L 378.092216 105.731787 
L 381.643125 105.731787 
L 385.194034 105.731787 
L 388.744943 105.731787 
L 392.295852 105.731787 
L 395.846761 105.731787 
L 399.39767 105.731787 
L 402.94858 105.731787 
" clip-path="url(#p1a25a9e579)" style="fill: none; stroke: #1f77b4; stroke-width: 1.5; stroke-linecap: square"/>
   </g>
   <g id="line2d_12">
    <path d="M 47.85767 103.327033 
L 51.40858 103.657068 
L 54.959489 104.563803 
L 58.510398 105.816513 
L 62.061307 107.091112 
L 65.612216 108.047027 
L 69.163125 108.410168 
L 72.714034 108.043483 
L 76.264943 106.98881 
L 79.815852 105.469352 
L 83.366761 103.850066 
L 86.91767 102.562068 
L 90.46858 102.004951 
L 94.019489 102.446188 
L 97.570398 103.938384 
L 101.121307 106.272616 
L 104.672216 108.979948 
L 108.223125 111.384319 
L 111.774034 112.700295 
L 115.324943 112.160238 
L 118.875852 109.149197 
L 122.426761 103.323429 
L 125.97767 94.690484 
L 129.52858 83.634971 
L 133.079489 70.883363 
L 136.630398 57.411912 
L 140.181307 44.311848 
L 143.732216 32.633844 
L 147.283125 23.237597 
L 150.834034 16.671728 
L 154.384943 13.103963 
L 157.935852 12.312862 
L 161.486761 13.74154 
L 165.03767 16.603084 
L 168.58858 20.018479 
L 172.139489 23.162517 
L 175.690398 25.392328 
L 179.241307 26.336842 
L 182.792216 25.933138 
L 186.343125 24.405578 
L 189.894034 22.194199 
L 193.444943 19.847922 
L 196.995852 17.904169 
L 200.546761 16.778313 
L 204.09767 16.683762 
L 207.64858 17.597001 
L 211.199489 19.272755 
L 214.750398 21.304591 
L 218.301307 23.217361 
L 221.852216 24.571903 
L 225.403125 25.060265 
L 228.954034 24.571903 
L 232.504943 23.217361 
L 236.055852 21.304591 
L 239.606761 19.272755 
L 243.15767 17.597001 
L 246.70858 16.683762 
L 250.259489 16.778313 
L 253.810398 17.904169 
L 257.361307 19.847922 
L 260.912216 22.194199 
L 264.463125 24.405578 
L 268.014034 25.933138 
L 271.564943 26.336842 
L 275.115852 25.392328 
L 278.666761 23.162517 
L 282.21767 20.018479 
L 285.76858 16.603084 
L 289.319489 13.74154 
L 292.870398 12.312862 
L 296.421307 13.103963 
L 299.972216 16.671728 
L 303.523125 23.237597 
L 307.074034 32.633844 
L 310.624943 44.311848 
L 314.175852 57.411912 
L 317.726761 70.883363 
L 321.27767 83.634971 
L 324.82858 94.690484 
L 328.379489 103.323429 
L 331.930398 109.149197 
L 335.481307 112.160238 
L 339.032216 112.700295 
L 342.583125 111.384319 
L 346.134034 108.979948 
L 349.684943 106.272616 
L 353.235852 103.938384 
L 356.786761 102.446188 
L 360.33767 102.004951 
L 363.88858 102.562068 
L 367.439489 103.850066 
L 370.990398 105.469352 
L 374.541307 106.98881 
L 378.092216 108.043483 
L 381.643125 108.410168 
L 385.194034 108.047027 
L 388.744943 107.091112 
L 392.295852 105.816513 
L 395.846761 104.563803 
L 399.39767 103.657068 
L 402.94858 103.327033 
" clip-path="url(#p1a25a9e579)" style="fill: none; stroke: #ff7f0e; stroke-width: 1.5; stroke-linecap: square"/>
   </g>
   <g id="line2d_13">
    <path d="M 47.85767 103.72058 
L 51.40858 105.164882 
L 54.959489 107.434939 
L 58.510398 107.271916 
L 62.061307 104.872549 
L 65.612216 103.661417 
L 69.163125 105.433502 
L 72.714034 107.714346 
L 76.264943 107.188024 
L 79.815852 104.479046 
L 83.366761 103.450061 
L 86.91767 105.749139 
L 90.46858 108.227744 
L 94.019489 107.184866 
L 97.570398 103.800427 
L 101.121307 102.92441 
L 104.672216 106.285219 
L 108.223125 109.407881 
L 111.774034 107.30666 
L 115.324943 102.021116 
L 118.875852 101.281562 
L 122.426761 108.249263 
L 125.97767 114.570095 
L 129.52858 106.697332 
L 133.079489 80.063652 
L 136.630398 45.543873 
L 140.181307 20.475076 
L 143.732216 13.477652 
L 147.283125 18.717508 
L 150.834034 24.198775 
L 154.384943 23.714867 
L 157.935852 20.074236 
L 161.486761 18.63906 
L 165.03767 20.468337 
L 168.58858 22.423547 
L 172.139489 22.07202 
L 175.690398 20.418397 
L 179.241307 19.817413 
L 182.792216 20.771579 
L 186.343125 21.752745 
L 189.894034 21.546368 
L 193.444943 20.665605 
L 196.995852 20.327617 
L 200.546761 20.818094 
L 204.09767 21.372859 
L 207.64858 21.335013 
L 211.199489 20.881389 
L 214.750398 20.60148 
L 218.301307 20.754454 
L 221.852216 21.104511 
L 225.403125 21.27585 
L 228.954034 21.104511 
L 232.504943 20.754454 
L 236.055852 20.60148 
L 239.606761 20.881389 
L 243.15767 21.335013 
L 246.70858 21.372859 
L 250.259489 20.818094 
L 253.810398 20.327617 
L 257.361307 20.665605 
L 260.912216 21.546368 
L 264.463125 21.752745 
L 268.014034 20.771579 
L 271.564943 19.817413 
L 275.115852 20.418397 
L 278.666761 22.07202 
L 282.21767 22.423547 
L 285.76858 20.468337 
L 289.319489 18.63906 
L 292.870398 20.074236 
L 296.421307 23.714867 
L 299.972216 24.198775 
L 303.523125 18.717508 
L 307.074034 13.477652 
L 310.624943 20.475076 
L 314.175852 45.543873 
L 317.726761 80.063652 
L 321.27767 106.697332 
L 324.82858 114.570095 
L 328.379489 108.249263 
L 331.930398 101.281562 
L 335.481307 102.021116 
L 339.032216 107.30666 
L 342.583125 109.407881 
L 346.134034 106.285219 
L 349.684943 102.92441 
L 353.235852 103.800427 
L 356.786761 107.184866 
L 360.33767 108.227744 
L 363.88858 105.749139 
L 367.439489 103.450061 
L 370.990398 104.479046 
L 374.541307 107.188024 
L 378.092216 107.714346 
L 381.643125 105.433502 
L 385.194034 103.661417 
L 388.744943 104.872549 
L 392.295852 107.271916 
L 395.846761 107.434939 
L 399.39767 105.164882 
L 402.94858 103.72058 
" clip-path="url(#p1a25a9e579)" style="fill: none; stroke: #2ca02c; stroke-width: 1.5; stroke-linecap: square"/>
   </g>
   <g id="line2d_14">
    <path d="M 47.85767 106.579504 
L 51.40858 104.88407 
L 54.959489 106.579504 
L 58.510398 104.88407 
L 62.061307 106.579504 
L 65.612216 104.88407 
L 69.163125 106.579504 
L 72.714034 104.88407 
L 76.264943 106.579504 
L 79.815852 104.88407 
L 83.366761 106.579504 
L 86.91767 104.88407 
L 90.46858 106.579504 
L 94.019489 104.88407 
L 97.570398 106.579504 
L 101.121307 104.88407 
L 104.672216 106.579504 
L 108.223125 104.88407 
L 111.774034 106.579504 
L 115.324943 104.88407 
L 118.875852 106.579504 
L 122.426761 104.88407 
L 125.97767 106.579504 
L 129.52858 104.88407 
L 133.079489 106.579504 
L 136.630398 20.11236 
L 140.181307 21.807794 
L 143.732216 20.11236 
L 147.283125 21.807794 
L 150.834034 20.11236 
L 154.384943 21.807794 
L 157.935852 20.11236 
L 161.486761 21.807794 
L 165.03767 20.11236 
L 168.58858 21.807794 
L 172.139489 20.11236 
L 175.690398 21.807794 
L 179.241307 20.11236 
L 182.792216 21.807794 
L 186.343125 20.11236 
L 189.894034 21.807794 
L 193.444943 20.11236 
L 196.995852 21.807794 
L 200.546761 20.11236 
L 204.09767 21.807794 
L 207.64858 20.11236 
L 211.199489 21.807794 
L 214.750398 20.11236 
L 218.301307 21.807794 
L 221.852216 20.11236 
L 225.403125 21.807794 
L 228.954034 20.11236 
L 232.504943 21.807794 
L 236.055852 20.11236 
L 239.606761 21.807794 
L 243.15767 20.11236 
L 246.70858 21.807794 
L 250.259489 20.11236 
L 253.810398 21.807794 
L 257.361307 20.11236 
L 260.912216 21.807794 
L 264.463125 20.11236 
L 268.014034 21.807794 
L 271.564943 20.11236 
L 275.115852 21.807794 
L 278.666761 20.11236 
L 282.21767 21.807794 
L 285.76858 20.11236 
L 289.319489 21.807794 
L 292.870398 20.11236 
L 296.421307 21.807794 
L 299.972216 20.11236 
L 303.523125 21.807794 
L 307.074034 20.11236 
L 310.624943 21.807794 
L 314.175852 20.11236 
L 317.726761 106.579504 
L 321.27767 104.88407 
L 324.82858 106.579504 
L 328.379489 104.88407 
L 331.930398 106.579504 
L 335.481307 104.88407 
L 339.032216 106.579504 
L 342.583125 104.88407 
L 346.134034 106.579504 
L 349.684943 104.88407 
L 353.235852 106.579504 
L 356.786761 104.88407 
L 360.33767 106.579504 
L 363.88858 104.88407 
L 367.439489 106.579504 
L 370.990398 104.88407 
L 374.541307 106.579504 
L 378.092216 104.88407 
L 381.643125 106.579504 
L 385.194034 104.88407 
L 388.744943 106.579504 
L 392.295852 104.88407 
L 395.846761 106.579504 
L 399.39767 104.88407 
L 402.94858 106.579504 
" clip-path="url(#p1a25a9e579)" style="fill: none; stroke: #d62728; stroke-width: 1.5; stroke-linecap: square"/>
   </g>
   <g id="patch_3">
    <path d="M 30.103125 119.682957 
L 30.103125 7.2 
" style="fill: none; stroke: #000000; stroke-width: 0.8; stroke-linejoin: miter; stroke-linecap: square"/>
   </g>
   <g id="patch_4">
    <path d="M 420.703125 119.682957 
L 420.703125 7.2 
" style="fill: none; stroke: #000000; stroke-width: 0.8; stroke-linejoin: miter; stroke-linecap: square"/>
   </g>
   <g id="patch_5">
    <path d="M 30.103125 119.682957 
L 420.703125 119.682957 
" style="fill: none; stroke: #000000; stroke-width: 0.8; stroke-linejoin: miter; stroke-linecap: square"/>
   </g>
   <g id="patch_6">
    <path d="M 30.103125 7.2 
L 420.703125 7.2 
" style="fill: none; stroke: #000000; stroke-width: 0.8; stroke-linejoin: miter; stroke-linecap: square"/>
   </g>
   <g id="legend_1">
    <g id="patch_7">
     <path d="M 368.903125 84.078125 
L 413.703125 84.078125 
Q 415.703125 84.078125 415.703125 82.078125 
L 415.703125 14.2 
Q 415.703125 12.2 413.703125 12.2 
L 368.903125 12.2 
Q 366.903125 12.2 366.903125 14.2 
L 366.903125 82.078125 
Q 366.903125 84.078125 368.903125 84.078125 
z
" style="fill: #ffffff; opacity: 0.8; stroke: #cccccc; stroke-linejoin: miter"/>
    </g>
    <g id="line2d_15">
     <path d="M 370.903125 20.298438 
L 380.903125 20.298438 
L 390.903125 20.298438 
" style="fill: none; stroke: #1f77b4; stroke-width: 1.5; stroke-linecap: square"/>
    </g>
    <g id="text_12">
     <!-- $f$ -->
     <g transform="translate(398.903125 23.798438) scale(0.1 -0.1)">
      <defs>
       <path id="DejaVuSans-Oblique-66" d="M 3059 4863 
L 2969 4384 
L 2419 4384 
Q 2106 4384 1964 4261 
Q 1822 4138 1753 3809 
L 1691 3500 
L 2638 3500 
L 2553 3053 
L 1606 3053 
L 1013 0 
L 434 0 
L 1031 3053 
L 481 3053 
L 563 3500 
L 1113 3500 
L 1159 3744 
Q 1278 4363 1576 4613 
Q 1875 4863 2516 4863 
L 3059 4863 
z
" transform="scale(0.015625)"/>
      </defs>
      <use xlink:href="#DejaVuSans-Oblique-66" transform="translate(0 0.015625)"/>
     </g>
    </g>
    <g id="line2d_16">
     <path d="M 370.903125 38.298438 
L 380.903125 38.298438 
L 390.903125 38.298438 
" style="fill: none; stroke: #ff7f0e; stroke-width: 1.5; stroke-linecap: square"/>
    </g>
    <g id="text_13">
     <!-- $\hat{f}_7$ -->
     <g transform="translate(398.903125 41.798438) scale(0.1 -0.1)">
      <defs>
       <path id="DejaVuSans-302" d="M -1831 5119 
L -1369 5119 
L -603 3944 
L -1038 3944 
L -1600 4709 
L -2163 3944 
L -2597 3944 
L -1831 5119 
z
M -1600 3584 
L -1600 3584 
z
" transform="scale(0.015625)"/>
       <path id="DejaVuSans-37" d="M 525 4666 
L 3525 4666 
L 3525 4397 
L 1831 0 
L 1172 0 
L 2766 4134 
L 525 4134 
L 525 4666 
z
" transform="scale(0.015625)"/>
      </defs>
      <use xlink:href="#DejaVuSans-302" transform="translate(47.379395 33.015625)"/>
      <use xlink:href="#DejaVuSans-Oblique-66" transform="translate(0 0.53125)"/>
      <use xlink:href="#DejaVuSans-37" transform="translate(36.162109 -15.875) scale(0.7)"/>
     </g>
    </g>
    <g id="line2d_17">
     <path d="M 370.903125 56.398438 
L 380.903125 56.398438 
L 390.903125 56.398438 
" style="fill: none; stroke: #2ca02c; stroke-width: 1.5; stroke-linecap: square"/>
    </g>
    <g id="text_14">
     <!-- $\hat{f}_{20}$ -->
     <g transform="translate(398.903125 59.898438) scale(0.1 -0.1)">
      <use xlink:href="#DejaVuSans-302" transform="translate(47.379395 33.015625)"/>
      <use xlink:href="#DejaVuSans-Oblique-66" transform="translate(0 0.53125)"/>
      <use xlink:href="#DejaVuSans-32" transform="translate(36.162109 -15.875) scale(0.7)"/>
      <use xlink:href="#DejaVuSans-30" transform="translate(80.698242 -15.875) scale(0.7)"/>
     </g>
    </g>
    <g id="line2d_18">
     <path d="M 370.903125 74.498438 
L 380.903125 74.498438 
L 390.903125 74.498438 
" style="fill: none; stroke: #d62728; stroke-width: 1.5; stroke-linecap: square"/>
    </g>
    <g id="text_15">
     <!-- $\hat{f}_{50}$ -->
     <g transform="translate(398.903125 77.998438) scale(0.1 -0.1)">
      <use xlink:href="#DejaVuSans-302" transform="translate(47.379395 33.015625)"/>
      <use xlink:href="#DejaVuSans-Oblique-66" transform="translate(0 0.53125)"/>
      <use xlink:href="#DejaVuSans-35" transform="translate(36.162109 -15.875) scale(0.7)"/>
      <use xlink:href="#DejaVuSans-30" transform="translate(80.698242 -15.875) scale(0.7)"/>
     </g>
    </g>
   </g>
  </g>
 </g>
 <defs>
  <clipPath id="p1a25a9e579">
   <rect x="30.103125" y="7.2" width="390.6" height="112.482957"/>
  </clipPath>
 </defs>
</svg>
