<?xml version="1.0" encoding="utf-8" standalone="no"?>
<!DOCTYPE svg PUBLIC "-//W3C//DTD SVG 1.1//EN"
  "http://www.w3.org/Graphics/SVG/1.1/DTD/svg11.dtd">
<svg xmlns:xlink="http://www.w3.org/1999/xlink" width="427.903125pt" height="109.31648pt" viewBox="0 0 427.903125 109.31648" xmlns="http://www.w3.org/2000/svg" version="1.1">
 <metadata>
  <rdf:RDF xmlns:dc="http://purl.org/dc/elements/1.1/" xmlns:cc="http://creativecommons.org/ns#" xmlns:rdf="http://www.w3.org/1999/02/22-rdf-syntax-ns#">
   <cc:Work>
    <dc:type rdf:resource="http://purl.org/dc/dcmitype/StillImage"/>
    <dc:date>2024-11-14T17:07:40.969140</dc:date>
    <dc:format>image/svg+xml</dc:format>
    <dc:creator>
     <cc:Agent>
      <dc:title>Matplotlib v3.9.2, https://matplotlib.org/</dc:title>
     </cc:Agent>
    </dc:creator>
   </cc:Work>
  </rdf:RDF>
 </metadata>
 <defs>
  <style type="text/css">*{stroke-linejoin: round; stroke-linecap: butt}</style>
 </defs>
 <g id="figure_1">
  <g id="patch_1">
   <path d="M 0 109.31648 
L 427.903125 109.31648 
L 427.903125 0 
L 0 0 
z
" style="fill: #ffffff"/>
  </g>
  <g id="axes_1">
   <g id="patch_2">
    <path d="M 30.103125 101.04899 
L 420.703125 101.04899 
L 420.703125 7.2 
L 30.103125 7.2 
z
" style="fill: #ffffff"/>
   </g>
   <g id="matplotlib.axis_1"/>
   <g id="matplotlib.axis_2">
    <g id="ytick_1">
     <g id="line2d_1">
      <defs>
       <path id="m4bcbeb0106" d="M 0 0 
L -3.5 0 
" style="stroke: #000000; stroke-width: 0.8"/>
      </defs>
      <g>
       <use xlink:href="#m4bcbeb0106" x="30.103125" y="96.237573" style="stroke: #000000; stroke-width: 0.8"/>
      </g>
     </g>
     <g id="text_1">
      <!-- 0.0 -->
      <g transform="translate(7.2 100.036792) scale(0.1 -0.1)">
       <defs>
        <path id="DejaVuSans-30" d="M 2034 4250 
Q 1547 4250 1301 3770 
Q 1056 3291 1056 2328 
Q 1056 1369 1301 889 
Q 1547 409 2034 409 
Q 2525 409 2770 889 
Q 3016 1369 3016 2328 
Q 3016 3291 2770 3770 
Q 2525 4250 2034 4250 
z
M 2034 4750 
Q 2819 4750 3233 4129 
Q 3647 3509 3647 2328 
Q 3647 1150 3233 529 
Q 2819 -91 2034 -91 
Q 1250 -91 836 529 
Q 422 1150 422 2328 
Q 422 3509 836 4129 
Q 1250 4750 2034 4750 
z
" transform="scale(0.015625)"/>
        <path id="DejaVuSans-2e" d="M 684 794 
L 1344 794 
L 1344 0 
L 684 0 
L 684 794 
z
" transform="scale(0.015625)"/>
       </defs>
       <use xlink:href="#DejaVuSans-30"/>
       <use xlink:href="#DejaVuSans-2e" x="63.623047"/>
       <use xlink:href="#DejaVuSans-30" x="95.410156"/>
      </g>
     </g>
    </g>
    <g id="ytick_2">
     <g id="line2d_2">
      <g>
       <use xlink:href="#m4bcbeb0106" x="30.103125" y="53.851718" style="stroke: #000000; stroke-width: 0.8"/>
      </g>
     </g>
     <g id="text_2">
      <!-- 0.5 -->
      <g transform="translate(7.2 57.650937) scale(0.1 -0.1)">
       <defs>
        <path id="DejaVuSans-35" d="M 691 4666 
L 3169 4666 
L 3169 4134 
L 1269 4134 
L 1269 2991 
Q 1406 3038 1543 3061 
Q 1681 3084 1819 3084 
Q 2600 3084 3056 2656 
Q 3513 2228 3513 1497 
Q 3513 744 3044 326 
Q 2575 -91 1722 -91 
Q 1428 -91 1123 -41 
Q 819 9 494 109 
L 494 744 
Q 775 591 1075 516 
Q 1375 441 1709 441 
Q 2250 441 2565 725 
Q 2881 1009 2881 1497 
Q 2881 1984 2565 2268 
Q 2250 2553 1709 2553 
Q 1456 2553 1204 2497 
Q 953 2441 691 2322 
L 691 4666 
z
" transform="scale(0.015625)"/>
       </defs>
       <use xlink:href="#DejaVuSans-30"/>
       <use xlink:href="#DejaVuSans-2e" x="63.623047"/>
       <use xlink:href="#DejaVuSans-35" x="95.410156"/>
      </g>
     </g>
    </g>
    <g id="ytick_3">
     <g id="line2d_3">
      <g>
       <use xlink:href="#m4bcbeb0106" x="30.103125" y="11.465863" style="stroke: #000000; stroke-width: 0.8"/>
      </g>
     </g>
     <g id="text_3">
      <!-- 1.0 -->
      <g transform="translate(7.2 15.265082) scale(0.1 -0.1)">
       <defs>
        <path id="DejaVuSans-31" d="M 794 531 
L 1825 531 
L 1825 4091 
L 703 3866 
L 703 4441 
L 1819 4666 
L 2450 4666 
L 2450 531 
L 3481 531 
L 3481 0 
L 794 0 
L 794 531 
z
" transform="scale(0.015625)"/>
       </defs>
       <use xlink:href="#DejaVuSans-31"/>
       <use xlink:href="#DejaVuSans-2e" x="63.623047"/>
       <use xlink:href="#DejaVuSans-30" x="95.410156"/>
      </g>
     </g>
    </g>
   </g>
   <g id="line2d_4">
    <path d="M 47.85767 96.237573 
L 51.40858 96.237573 
L 54.959489 96.237573 
L 58.510398 96.237573 
L 62.061307 96.237573 
L 65.612216 96.237573 
L 69.163125 96.237573 
L 72.714034 96.237573 
L 76.264943 96.237573 
L 79.815852 96.237573 
L 83.366761 96.237573 
L 86.91767 96.237573 
L 90.46858 96.237573 
L 94.019489 96.237573 
L 97.570398 96.237573 
L 101.121307 96.237573 
L 104.672216 96.237573 
L 108.223125 96.237573 
L 111.774034 96.237573 
L 115.324943 96.237573 
L 118.875852 96.237573 
L 122.426761 96.237573 
L 125.97767 96.237573 
L 129.52858 96.237573 
L 133.079489 96.237573 
L 136.630398 96.237573 
L 140.181307 92.846705 
L 143.732216 89.455837 
L 147.283125 86.064968 
L 150.834034 82.6741 
L 154.384943 79.283231 
L 157.935852 75.892363 
L 161.486761 72.501494 
L 165.03767 69.110626 
L 168.58858 65.719758 
L 172.139489 62.328889 
L 175.690398 58.938021 
L 179.241307 55.547152 
L 182.792216 52.156284 
L 186.343125 48.765416 
L 189.894034 45.374547 
L 193.444943 41.983679 
L 196.995852 38.59281 
L 200.546761 35.201942 
L 204.09767 31.811074 
L 207.64858 28.420205 
L 211.199489 25.029337 
L 214.750398 21.638468 
L 218.301307 18.2476 
L 221.852216 14.856732 
L 225.403125 11.465863 
L 228.954034 14.856732 
L 232.504943 18.2476 
L 236.055852 21.638468 
L 239.606761 25.029337 
L 243.15767 28.420205 
L 246.70858 31.811074 
L 250.259489 35.201942 
L 253.810398 38.59281 
L 257.361307 41.983679 
L 260.912216 45.374547 
L 264.463125 48.765416 
L 268.014034 52.156284 
L 271.564943 55.547152 
L 275.115852 58.938021 
L 278.666761 62.328889 
L 282.21767 65.719758 
L 285.76858 69.110626 
L 289.319489 72.501494 
L 292.870398 75.892363 
L 296.421307 79.283231 
L 299.972216 82.6741 
L 303.523125 86.064968 
L 307.074034 89.455837 
L 310.624943 92.846705 
L 314.175852 96.237573 
L 317.726761 96.237573 
L 321.27767 96.237573 
L 324.82858 96.237573 
L 328.379489 96.237573 
L 331.930398 96.237573 
L 335.481307 96.237573 
L 339.032216 96.237573 
L 342.583125 96.237573 
L 346.134034 96.237573 
L 349.684943 96.237573 
L 353.235852 96.237573 
L 356.786761 96.237573 
L 360.33767 96.237573 
L 363.88858 96.237573 
L 367.439489 96.237573 
L 370.990398 96.237573 
L 374.541307 96.237573 
L 378.092216 96.237573 
L 381.643125 96.237573 
L 385.194034 96.237573 
L 388.744943 96.237573 
L 392.295852 96.237573 
L 395.846761 96.237573 
L 399.39767 96.237573 
L 402.94858 96.237573 
" clip-path="url(#pa228853a8c)" style="fill: none; stroke: #1f77b4; stroke-width: 1.5; stroke-linecap: square"/>
   </g>
   <g id="line2d_5">
    <path d="M 47.85767 96.207123 
L 51.40858 96.207123 
L 54.959489 96.208152 
L 58.510398 96.212812 
L 62.061307 96.223985 
L 65.612216 96.243162 
L 69.163125 96.268977 
L 72.714034 96.296536 
L 76.264943 96.317927 
L 79.815852 96.324009 
L 83.366761 96.307168 
L 86.91767 96.264423 
L 90.46858 96.199986 
L 94.019489 96.12639 
L 97.570398 96.063454 
L 101.121307 96.034791 
L 104.672216 96.062038 
L 108.223125 96.157633 
L 111.774034 96.317375 
L 115.324943 96.514327 
L 118.875852 96.695587 
L 122.426761 96.783127 
L 125.97767 96.679271 
L 129.52858 96.276599 
L 133.079489 95.471147 
L 136.630398 94.177081 
L 140.181307 92.340476 
L 143.732216 89.949785 
L 147.283125 87.040885 
L 150.834034 83.69536 
L 154.384943 80.031733 
L 157.935852 76.190558 
L 161.486761 72.315407 
L 165.03767 68.53265 
L 168.58858 64.9333 
L 172.139489 61.560094 
L 175.690398 58.402247 
L 179.241307 55.399173 
L 182.792216 52.453034 
L 186.343125 49.448459 
L 189.894034 46.276531 
L 193.444943 42.859237 
L 196.995852 39.170373 
L 200.546761 35.249265 
L 204.09767 31.204722 
L 207.64858 27.208101 
L 211.199489 23.476111 
L 214.750398 20.245615 
L 218.301307 17.744047 
L 221.852216 16.159836 
L 225.403125 15.617297 
L 228.954034 16.159836 
L 232.504943 17.744047 
L 236.055852 20.245615 
L 239.606761 23.476111 
L 243.15767 27.208101 
L 246.70858 31.204722 
L 250.259489 35.249265 
L 253.810398 39.170373 
L 257.361307 42.859237 
L 260.912216 46.276531 
L 264.463125 49.448459 
L 268.014034 52.453034 
L 271.564943 55.399173 
L 275.115852 58.402247 
L 278.666761 61.560094 
L 282.21767 64.9333 
L 285.76858 68.53265 
L 289.319489 72.315407 
L 292.870398 76.190558 
L 296.421307 80.031733 
L 299.972216 83.69536 
L 303.523125 87.040885 
L 307.074034 89.949785 
L 310.624943 92.340476 
L 314.175852 94.177081 
L 317.726761 95.471147 
L 321.27767 96.276599 
L 324.82858 96.679271 
L 328.379489 96.783127 
L 331.930398 96.695587 
L 335.481307 96.514327 
L 339.032216 96.317375 
L 342.583125 96.157633 
L 346.134034 96.062038 
L 349.684943 96.034791 
L 353.235852 96.063454 
L 356.786761 96.12639 
L 360.33767 96.199986 
L 363.88858 96.264423 
L 367.439489 96.307168 
L 370.990398 96.324009 
L 374.541307 96.317927 
L 378.092216 96.296536 
L 381.643125 96.268977 
L 385.194034 96.243162 
L 388.744943 96.223985 
L 392.295852 96.212812 
L 395.846761 96.208152 
L 399.39767 96.207123 
L 402.94858 96.207123 
" clip-path="url(#pa228853a8c)" style="fill: none; stroke: #ff7f0e; stroke-width: 1.5; stroke-linecap: square"/>
   </g>
   <g id="patch_3">
    <path d="M 30.103125 101.04899 
L 30.103125 7.2 
" style="fill: none; stroke: #000000; stroke-width: 0.8; stroke-linejoin: miter; stroke-linecap: square"/>
   </g>
   <g id="patch_4">
    <path d="M 420.703125 101.04899 
L 420.703125 7.2 
" style="fill: none; stroke: #000000; stroke-width: 0.8; stroke-linejoin: miter; stroke-linecap: square"/>
   </g>
   <g id="patch_5">
    <path d="M 30.103125 101.04899 
L 420.703125 101.04899 
" style="fill: none; stroke: #000000; stroke-width: 0.8; stroke-linejoin: miter; stroke-linecap: square"/>
   </g>
   <g id="patch_6">
    <path d="M 30.103125 7.2 
L 420.703125 7.2 
" style="fill: none; stroke: #000000; stroke-width: 0.8; stroke-linejoin: miter; stroke-linecap: square"/>
   </g>
   <g id="legend_1">
    <g id="patch_7">
     <path d="M 373.403125 47.878125 
L 413.703125 47.878125 
Q 415.703125 47.878125 415.703125 45.878125 
L 415.703125 14.2 
Q 415.703125 12.2 413.703125 12.2 
L 373.403125 12.2 
Q 371.403125 12.2 371.403125 14.2 
L 371.403125 45.878125 
Q 371.403125 47.878125 373.403125 47.878125 
z
" style="fill: #ffffff; opacity: 0.8; stroke: #cccccc; stroke-linejoin: miter"/>
    </g>
    <g id="line2d_6">
     <path d="M 375.403125 20.298438 
L 385.403125 20.298438 
L 395.403125 20.298438 
" style="fill: none; stroke: #1f77b4; stroke-width: 1.5; stroke-linecap: square"/>
    </g>
    <g id="text_4">
     <!-- $f$ -->
     <g transform="translate(403.403125 23.798438) scale(0.1 -0.1)">
      <defs>
       <path id="DejaVuSans-Oblique-66" d="M 3059 4863 
L 2969 4384 
L 2419 4384 
Q 2106 4384 1964 4261 
Q 1822 4138 1753 3809 
L 1691 3500 
L 2638 3500 
L 2553 3053 
L 1606 3053 
L 1013 0 
L 434 0 
L 1031 3053 
L 481 3053 
L 563 3500 
L 1113 3500 
L 1159 3744 
Q 1278 4363 1576 4613 
Q 1875 4863 2516 4863 
L 3059 4863 
z
" transform="scale(0.015625)"/>
      </defs>
      <use xlink:href="#DejaVuSans-Oblique-66" transform="translate(0 0.015625)"/>
     </g>
    </g>
    <g id="line2d_7">
     <path d="M 375.403125 38.298438 
L 385.403125 38.298438 
L 395.403125 38.298438 
" style="fill: none; stroke: #ff7f0e; stroke-width: 1.5; stroke-linecap: square"/>
    </g>
    <g id="text_5">
     <!-- $\hat{f_7}$ -->
     <g transform="translate(403.403125 41.798438) scale(0.1 -0.1)">
      <defs>
       <path id="DejaVuSans-302" d="M -1831 5119 
L -1369 5119 
L -603 3944 
L -1038 3944 
L -1600 4709 
L -2163 3944 
L -2597 3944 
L -1831 5119 
z
M -1600 3584 
L -1600 3584 
z
" transform="scale(0.015625)"/>
       <path id="DejaVuSans-37" d="M 525 4666 
L 3525 4666 
L 3525 4397 
L 1831 0 
L 1172 0 
L 2766 4134 
L 525 4134 
L 525 4666 
z
" transform="scale(0.015625)"/>
      </defs>
      <use xlink:href="#DejaVuSans-302" transform="translate(76.197021 33.015625)"/>
      <use xlink:href="#DejaVuSans-Oblique-66" transform="translate(0 0.53125)"/>
      <use xlink:href="#DejaVuSans-37" transform="translate(35.205078 -15.875) scale(0.7)"/>
     </g>
    </g>
   </g>
  </g>
 </g>
 <defs>
  <clipPath id="pa228853a8c">
   <rect x="30.103125" y="7.2" width="390.6" height="93.84899"/>
  </clipPath>
 </defs>
</svg>
