<?xml version="1.0" encoding="utf-8" standalone="no"?>
<!DOCTYPE svg PUBLIC "-//W3C//DTD SVG 1.1//EN"
  "http://www.w3.org/Graphics/SVG/1.1/DTD/svg11.dtd">
<svg xmlns:xlink="http://www.w3.org/1999/xlink" width="457.9125pt" height="145.863164pt" viewBox="0 0 457.9125 145.863164" xmlns="http://www.w3.org/2000/svg" version="1.1">
 <metadata>
  <rdf:RDF xmlns:dc="http://purl.org/dc/elements/1.1/" xmlns:cc="http://creativecommons.org/ns#" xmlns:rdf="http://www.w3.org/1999/02/22-rdf-syntax-ns#">
   <cc:Work>
    <dc:type rdf:resource="http://purl.org/dc/dcmitype/StillImage"/>
    <dc:date>2025-01-10T12:46:43.144725</dc:date>
    <dc:format>image/svg+xml</dc:format>
    <dc:creator>
     <cc:Agent>
      <dc:title>Matplotlib v3.9.2, https://matplotlib.org/</dc:title>
     </cc:Agent>
    </dc:creator>
   </cc:Work>
  </rdf:RDF>
 </metadata>
 <defs>
  <style type="text/css">*{stroke-linejoin: round; stroke-linecap: butt}</style>
 </defs>
 <g id="figure_1">
  <g id="patch_1">
   <path d="M 0 145.863164 
L 457.9125 145.863164 
L 457.9125 -0 
L 0 -0 
z
" style="fill: #ffffff"/>
  </g>
  <g id="axes_1">
   <g id="patch_2">
    <path d="M 52.160938 108.306914 
L 442.760938 108.306914 
L 442.760938 7.2 
L 52.160938 7.2 
z
" style="fill: #ffffff"/>
   </g>
   <g id="matplotlib.axis_1">
    <g id="xtick_1">
     <g id="line2d_1">
      <defs>
       <path id="m0b499b184b" d="M 0 0 
L 0 3.5 
" style="stroke: #000000; stroke-width: 0.8"/>
      </defs>
      <g>
       <use xlink:href="#m0b499b184b" x="52.160937" y="108.306914" style="stroke: #000000; stroke-width: 0.8"/>
      </g>
     </g>
     <g id="text_1">
      <!-- −2.0 -->
      <g transform="translate(40.019531 122.905352) scale(0.1 -0.1)">
       <defs>
        <path id="DejaVuSans-2212" d="M 678 2272 
L 4684 2272 
L 4684 1741 
L 678 1741 
L 678 2272 
z
" transform="scale(0.015625)"/>
        <path id="DejaVuSans-32" d="M 1228 531 
L 3431 531 
L 3431 0 
L 469 0 
L 469 531 
Q 828 903 1448 1529 
Q 2069 2156 2228 2338 
Q 2531 2678 2651 2914 
Q 2772 3150 2772 3378 
Q 2772 3750 2511 3984 
Q 2250 4219 1831 4219 
Q 1534 4219 1204 4116 
Q 875 4013 500 3803 
L 500 4441 
Q 881 4594 1212 4672 
Q 1544 4750 1819 4750 
Q 2544 4750 2975 4387 
Q 3406 4025 3406 3419 
Q 3406 3131 3298 2873 
Q 3191 2616 2906 2266 
Q 2828 2175 2409 1742 
Q 1991 1309 1228 531 
z
" transform="scale(0.015625)"/>
        <path id="DejaVuSans-2e" d="M 684 794 
L 1344 794 
L 1344 0 
L 684 0 
L 684 794 
z
" transform="scale(0.015625)"/>
        <path id="DejaVuSans-30" d="M 2034 4250 
Q 1547 4250 1301 3770 
Q 1056 3291 1056 2328 
Q 1056 1369 1301 889 
Q 1547 409 2034 409 
Q 2525 409 2770 889 
Q 3016 1369 3016 2328 
Q 3016 3291 2770 3770 
Q 2525 4250 2034 4250 
z
M 2034 4750 
Q 2819 4750 3233 4129 
Q 3647 3509 3647 2328 
Q 3647 1150 3233 529 
Q 2819 -91 2034 -91 
Q 1250 -91 836 529 
Q 422 1150 422 2328 
Q 422 3509 836 4129 
Q 1250 4750 2034 4750 
z
" transform="scale(0.015625)"/>
       </defs>
       <use xlink:href="#DejaVuSans-2212"/>
       <use xlink:href="#DejaVuSans-32" x="83.789062"/>
       <use xlink:href="#DejaVuSans-2e" x="147.412109"/>
       <use xlink:href="#DejaVuSans-30" x="179.199219"/>
      </g>
     </g>
    </g>
    <g id="xtick_2">
     <g id="line2d_2">
      <g>
       <use xlink:href="#m0b499b184b" x="100.985937" y="108.306914" style="stroke: #000000; stroke-width: 0.8"/>
      </g>
     </g>
     <g id="text_2">
      <!-- −1.5 -->
      <g transform="translate(88.844531 122.905352) scale(0.1 -0.1)">
       <defs>
        <path id="DejaVuSans-31" d="M 794 531 
L 1825 531 
L 1825 4091 
L 703 3866 
L 703 4441 
L 1819 4666 
L 2450 4666 
L 2450 531 
L 3481 531 
L 3481 0 
L 794 0 
L 794 531 
z
" transform="scale(0.015625)"/>
        <path id="DejaVuSans-35" d="M 691 4666 
L 3169 4666 
L 3169 4134 
L 1269 4134 
L 1269 2991 
Q 1406 3038 1543 3061 
Q 1681 3084 1819 3084 
Q 2600 3084 3056 2656 
Q 3513 2228 3513 1497 
Q 3513 744 3044 326 
Q 2575 -91 1722 -91 
Q 1428 -91 1123 -41 
Q 819 9 494 109 
L 494 744 
Q 775 591 1075 516 
Q 1375 441 1709 441 
Q 2250 441 2565 725 
Q 2881 1009 2881 1497 
Q 2881 1984 2565 2268 
Q 2250 2553 1709 2553 
Q 1456 2553 1204 2497 
Q 953 2441 691 2322 
L 691 4666 
z
" transform="scale(0.015625)"/>
       </defs>
       <use xlink:href="#DejaVuSans-2212"/>
       <use xlink:href="#DejaVuSans-31" x="83.789062"/>
       <use xlink:href="#DejaVuSans-2e" x="147.412109"/>
       <use xlink:href="#DejaVuSans-35" x="179.199219"/>
      </g>
     </g>
    </g>
    <g id="xtick_3">
     <g id="line2d_3">
      <g>
       <use xlink:href="#m0b499b184b" x="149.810937" y="108.306914" style="stroke: #000000; stroke-width: 0.8"/>
      </g>
     </g>
     <g id="text_3">
      <!-- −1.0 -->
      <g transform="translate(137.669531 122.905352) scale(0.1 -0.1)">
       <use xlink:href="#DejaVuSans-2212"/>
       <use xlink:href="#DejaVuSans-31" x="83.789062"/>
       <use xlink:href="#DejaVuSans-2e" x="147.412109"/>
       <use xlink:href="#DejaVuSans-30" x="179.199219"/>
      </g>
     </g>
    </g>
    <g id="xtick_4">
     <g id="line2d_4">
      <g>
       <use xlink:href="#m0b499b184b" x="198.635938" y="108.306914" style="stroke: #000000; stroke-width: 0.8"/>
      </g>
     </g>
     <g id="text_4">
      <!-- −0.5 -->
      <g transform="translate(186.494531 122.905352) scale(0.1 -0.1)">
       <use xlink:href="#DejaVuSans-2212"/>
       <use xlink:href="#DejaVuSans-30" x="83.789062"/>
       <use xlink:href="#DejaVuSans-2e" x="147.412109"/>
       <use xlink:href="#DejaVuSans-35" x="179.199219"/>
      </g>
     </g>
    </g>
    <g id="xtick_5">
     <g id="line2d_5">
      <g>
       <use xlink:href="#m0b499b184b" x="247.460938" y="108.306914" style="stroke: #000000; stroke-width: 0.8"/>
      </g>
     </g>
     <g id="text_5">
      <!-- 0.0 -->
      <g transform="translate(239.509375 122.905352) scale(0.1 -0.1)">
       <use xlink:href="#DejaVuSans-30"/>
       <use xlink:href="#DejaVuSans-2e" x="63.623047"/>
       <use xlink:href="#DejaVuSans-30" x="95.410156"/>
      </g>
     </g>
    </g>
    <g id="xtick_6">
     <g id="line2d_6">
      <g>
       <use xlink:href="#m0b499b184b" x="296.285937" y="108.306914" style="stroke: #000000; stroke-width: 0.8"/>
      </g>
     </g>
     <g id="text_6">
      <!-- 0.5 -->
      <g transform="translate(288.334375 122.905352) scale(0.1 -0.1)">
       <use xlink:href="#DejaVuSans-30"/>
       <use xlink:href="#DejaVuSans-2e" x="63.623047"/>
       <use xlink:href="#DejaVuSans-35" x="95.410156"/>
      </g>
     </g>
    </g>
    <g id="xtick_7">
     <g id="line2d_7">
      <g>
       <use xlink:href="#m0b499b184b" x="345.110937" y="108.306914" style="stroke: #000000; stroke-width: 0.8"/>
      </g>
     </g>
     <g id="text_7">
      <!-- 1.0 -->
      <g transform="translate(337.159375 122.905352) scale(0.1 -0.1)">
       <use xlink:href="#DejaVuSans-31"/>
       <use xlink:href="#DejaVuSans-2e" x="63.623047"/>
       <use xlink:href="#DejaVuSans-30" x="95.410156"/>
      </g>
     </g>
    </g>
    <g id="xtick_8">
     <g id="line2d_8">
      <g>
       <use xlink:href="#m0b499b184b" x="393.935938" y="108.306914" style="stroke: #000000; stroke-width: 0.8"/>
      </g>
     </g>
     <g id="text_8">
      <!-- 1.5 -->
      <g transform="translate(385.984375 122.905352) scale(0.1 -0.1)">
       <use xlink:href="#DejaVuSans-31"/>
       <use xlink:href="#DejaVuSans-2e" x="63.623047"/>
       <use xlink:href="#DejaVuSans-35" x="95.410156"/>
      </g>
     </g>
    </g>
    <g id="xtick_9">
     <g id="line2d_9">
      <g>
       <use xlink:href="#m0b499b184b" x="442.760938" y="108.306914" style="stroke: #000000; stroke-width: 0.8"/>
      </g>
     </g>
     <g id="text_9">
      <!-- 2.0 -->
      <g transform="translate(434.809375 122.905352) scale(0.1 -0.1)">
       <use xlink:href="#DejaVuSans-32"/>
       <use xlink:href="#DejaVuSans-2e" x="63.623047"/>
       <use xlink:href="#DejaVuSans-30" x="95.410156"/>
      </g>
     </g>
    </g>
    <g id="text_10">
     <!-- t -->
     <g transform="translate(245.500781 136.583477) scale(0.1 -0.1)">
      <defs>
       <path id="DejaVuSans-74" d="M 1172 4494 
L 1172 3500 
L 2356 3500 
L 2356 3053 
L 1172 3053 
L 1172 1153 
Q 1172 725 1289 603 
Q 1406 481 1766 481 
L 2356 481 
L 2356 0 
L 1766 0 
Q 1100 0 847 248 
Q 594 497 594 1153 
L 594 3053 
L 172 3053 
L 172 3500 
L 594 3500 
L 594 4494 
L 1172 4494 
z
" transform="scale(0.015625)"/>
      </defs>
      <use xlink:href="#DejaVuSans-74"/>
     </g>
    </g>
   </g>
   <g id="matplotlib.axis_2">
    <g id="ytick_1">
     <g id="line2d_10">
      <defs>
       <path id="m4d3868693d" d="M 0 0 
L -3.5 0 
" style="stroke: #000000; stroke-width: 0.8"/>
      </defs>
      <g>
       <use xlink:href="#m4d3868693d" x="52.160938" y="85.033269" style="stroke: #000000; stroke-width: 0.8"/>
      </g>
     </g>
     <g id="text_11">
      <!-- −0.5 -->
      <g transform="translate(20.878125 88.832488) scale(0.1 -0.1)">
       <use xlink:href="#DejaVuSans-2212"/>
       <use xlink:href="#DejaVuSans-30" x="83.789062"/>
       <use xlink:href="#DejaVuSans-2e" x="147.412109"/>
       <use xlink:href="#DejaVuSans-35" x="179.199219"/>
      </g>
     </g>
    </g>
    <g id="ytick_2">
     <g id="line2d_11">
      <g>
       <use xlink:href="#m4d3868693d" x="52.160938" y="60.620769" style="stroke: #000000; stroke-width: 0.8"/>
      </g>
     </g>
     <g id="text_12">
      <!-- 0.0 -->
      <g transform="translate(29.257812 64.419988) scale(0.1 -0.1)">
       <use xlink:href="#DejaVuSans-30"/>
       <use xlink:href="#DejaVuSans-2e" x="63.623047"/>
       <use xlink:href="#DejaVuSans-30" x="95.410156"/>
      </g>
     </g>
    </g>
    <g id="ytick_3">
     <g id="line2d_12">
      <g>
       <use xlink:href="#m4d3868693d" x="52.160938" y="36.208269" style="stroke: #000000; stroke-width: 0.8"/>
      </g>
     </g>
     <g id="text_13">
      <!-- 0.5 -->
      <g transform="translate(29.257812 40.007488) scale(0.1 -0.1)">
       <use xlink:href="#DejaVuSans-30"/>
       <use xlink:href="#DejaVuSans-2e" x="63.623047"/>
       <use xlink:href="#DejaVuSans-35" x="95.410156"/>
      </g>
     </g>
    </g>
    <g id="ytick_4">
     <g id="line2d_13">
      <g>
       <use xlink:href="#m4d3868693d" x="52.160938" y="11.795769" style="stroke: #000000; stroke-width: 0.8"/>
      </g>
     </g>
     <g id="text_14">
      <!-- 1.0 -->
      <g transform="translate(29.257812 15.594988) scale(0.1 -0.1)">
       <use xlink:href="#DejaVuSans-31"/>
       <use xlink:href="#DejaVuSans-2e" x="63.623047"/>
       <use xlink:href="#DejaVuSans-30" x="95.410156"/>
      </g>
     </g>
    </g>
    <g id="text_15">
     <!-- $f, \partial_t f$ -->
     <g transform="translate(14.798438 68.003457) rotate(-90) scale(0.1 -0.1)">
      <defs>
       <path id="DejaVuSans-Oblique-66" d="M 3059 4863 
L 2969 4384 
L 2419 4384 
Q 2106 4384 1964 4261 
Q 1822 4138 1753 3809 
L 1691 3500 
L 2638 3500 
L 2553 3053 
L 1606 3053 
L 1013 0 
L 434 0 
L 1031 3053 
L 481 3053 
L 563 3500 
L 1113 3500 
L 1159 3744 
Q 1278 4363 1576 4613 
Q 1875 4863 2516 4863 
L 3059 4863 
z
" transform="scale(0.015625)"/>
       <path id="DejaVuSans-2c" d="M 750 794 
L 1409 794 
L 1409 256 
L 897 -744 
L 494 -744 
L 750 256 
L 750 794 
z
" transform="scale(0.015625)"/>
       <path id="DejaVuSans-2202" d="M 1366 -91 
Q 925 -91 638 175 
Q 297 491 297 1063 
Q 297 1656 597 2119 
Q 906 2594 1463 2594 
Q 1828 2594 2116 2366 
Q 2284 2231 2400 2006 
Q 2441 2259 2441 2547 
Q 2441 2969 2341 3213 
Q 2119 3753 1531 3753 
Q 1309 3753 966 3616 
L 966 4141 
Q 1328 4238 1653 4238 
Q 2491 4238 2847 3469 
Q 3013 3106 3013 2566 
Q 3013 2213 2934 1803 
Q 2738 778 2228 291 
Q 1828 -91 1366 -91 
z
M 831 969 
Q 831 656 969 488 
Q 1116 309 1341 309 
Q 1541 309 1700 450 
Q 1925 644 2091 959 
Q 2228 1219 2297 1497 
Q 2019 2169 1538 2169 
Q 1125 2169 944 1625 
Q 831 1288 831 969 
z
" transform="scale(0.015625)"/>
       <path id="DejaVuSans-Oblique-74" d="M 2706 3500 
L 2619 3053 
L 1472 3053 
L 1100 1153 
Q 1081 1047 1072 975 
Q 1063 903 1063 863 
Q 1063 663 1183 572 
Q 1303 481 1569 481 
L 2150 481 
L 2053 0 
L 1503 0 
Q 991 0 739 200 
Q 488 400 488 806 
Q 488 878 497 964 
Q 506 1050 525 1153 
L 897 3053 
L 409 3053 
L 500 3500 
L 978 3500 
L 1172 4494 
L 1747 4494 
L 1556 3500 
L 2706 3500 
z
" transform="scale(0.015625)"/>
      </defs>
      <use xlink:href="#DejaVuSans-Oblique-66" transform="translate(0 0.015625)"/>
      <use xlink:href="#DejaVuSans-2c" transform="translate(35.205078 0.015625)"/>
      <use xlink:href="#DejaVuSans-2202" transform="translate(86.474609 0.015625)"/>
      <use xlink:href="#DejaVuSans-Oblique-74" transform="translate(139.140625 -16.390625) scale(0.7)"/>
      <use xlink:href="#DejaVuSans-Oblique-66" transform="translate(169.321289 0.015625)"/>
     </g>
    </g>
   </g>
   <g id="line2d_14">
    <path d="M 52.130573 60.620769 
L 94.072676 60.620769 
L 247.460938 11.795769 
L 400.849199 60.620769 
L 442.791302 60.620769 
L 442.791302 60.620769 
" clip-path="url(#pcdd459dfc1)" style="fill: none; stroke: #1f77b4; stroke-width: 1.5; stroke-linecap: square"/>
   </g>
   <g id="line2d_15">
    <path d="M 52.130573 60.620769 
L 93.473503 60.620769 
L 94.072676 29.537808 
L 246.861765 29.537808 
L 247.460938 91.703729 
L 400.250026 91.703729 
L 400.849199 60.620769 
L 442.791302 60.620769 
L 442.791302 60.620769 
" clip-path="url(#pcdd459dfc1)" style="fill: none; stroke-dasharray: 9.6,2.4,1.5,2.4; stroke-dashoffset: 0; stroke: #ff7f0e; stroke-width: 1.5"/>
   </g>
   <g id="line2d_16">
    <path d="M 52.130573 60.547286 
L 52.729746 60.695754 
L 53.328919 60.544235 
L 53.928092 60.6989 
L 54.527265 60.540989 
L 55.126438 60.70225 
L 55.725611 60.537531 
L 56.324784 60.705821 
L 56.923957 60.53384 
L 57.52313 60.709638 
L 58.122302 60.529892 
L 58.721475 60.713725 
L 59.320648 60.52566 
L 59.919821 60.71811 
L 60.518994 60.521113 
L 61.118167 60.722827 
L 61.71734 60.516216 
L 62.316513 60.727914 
L 62.915686 60.510928 
L 63.514859 60.733414 
L 64.114031 60.505203 
L 64.713204 60.739379 
L 65.312377 60.498984 
L 65.91155 60.745868 
L 66.510723 60.492207 
L 67.109896 60.752951 
L 67.709069 60.484796 
L 68.308242 60.760713 
L 68.907415 60.476659 
L 69.506587 60.769252 
L 70.10576 60.467688 
L 70.704933 60.778689 
L 71.304106 60.457749 
L 71.903279 60.78917 
L 72.502452 60.446681 
L 73.101625 60.800874 
L 73.700798 60.434285 
L 74.299971 60.814025 
L 74.899144 60.42031 
L 75.498316 60.828902 
L 76.097489 60.404442 
L 76.696662 60.845862 
L 77.295835 60.386274 
L 77.895008 60.865369 
L 78.494181 60.365276 
L 79.093354 60.888034 
L 79.692527 60.340741 
L 80.2917 60.914678 
L 80.890872 60.311707 
L 81.490045 60.946435 
L 82.089218 60.276828 
L 82.688391 60.984915 
L 83.287564 60.234165 
L 83.886737 61.032478 
L 84.48591 60.180815 
L 85.085083 61.092731 
L 85.684256 60.112234 
L 86.283429 61.171481 
L 86.882601 60.020889 
L 87.481774 61.278688 
L 88.080947 59.893322 
L 88.68012 61.432985 
L 89.279293 59.702968 
L 89.878466 61.673616 
L 90.477639 59.389275 
L 91.076812 62.099259 
L 91.675985 58.779561 
L 92.275158 63.042944 
L 92.87433 57.133755 
L 93.473503 66.576869 
L 94.671849 23.486346 
L 95.271022 33.12019 
L 95.870195 27.020257 
L 96.469368 31.474406 
L 97.068541 27.963913 
L 97.667714 30.864727 
L 98.266886 28.389512 
L 98.866059 30.551085 
L 99.465232 28.630087 
L 100.064405 30.360796 
L 100.663578 28.784311 
L 101.262751 30.233308 
L 101.861924 28.891432 
L 102.461097 30.142056 
L 103.06027 28.97008 
L 103.659443 30.073584 
L 104.258615 29.030218 
L 104.857788 30.020357 
L 105.456961 29.07765 
L 106.056134 29.977832 
L 106.655307 29.115984 
L 107.25448 29.943106 
L 107.853653 29.147581 
L 108.452826 29.91424 
L 109.051999 29.17405 
L 109.651171 29.889888 
L 110.250344 29.196524 
L 110.849517 29.869088 
L 111.44869 29.215825 
L 112.047863 29.851134 
L 112.647036 29.232564 
L 113.246209 29.835495 
L 113.845382 29.247203 
L 114.444555 29.821766 
L 115.043728 29.2601 
L 115.6429 29.809631 
L 116.242073 29.271535 
L 116.841246 29.798841 
L 117.440419 29.281731 
L 118.039592 29.789196 
L 118.638765 29.290865 
L 119.237938 29.780535 
L 119.837111 29.299086 
L 120.436284 29.772726 
L 121.035456 29.306511 
L 121.634629 29.765659 
L 122.233802 29.313241 
L 122.832975 29.759245 
L 123.432148 29.319359 
L 124.031321 29.753406 
L 124.630494 29.324935 
L 125.229667 29.748078 
L 125.82884 29.330028 
L 126.428013 29.743207 
L 127.027185 29.334689 
L 127.626358 29.738745 
L 128.225531 29.338962 
L 128.824704 29.734653 
L 129.423877 29.342883 
L 130.02305 29.730894 
L 130.622223 29.346486 
L 131.221396 29.72744 
L 131.820569 29.349798 
L 132.419742 29.724263 
L 133.018914 29.352846 
L 133.618087 29.72134 
L 134.21726 29.355649 
L 134.816433 29.718651 
L 135.415606 29.358228 
L 136.014779 29.716178 
L 136.613952 29.360599 
L 137.213125 29.713905 
L 137.812298 29.362778 
L 138.41147 29.711818 
L 139.010643 29.364777 
L 139.609816 29.709904 
L 140.208989 29.366608 
L 140.808162 29.708153 
L 141.407335 29.368282 
L 142.006508 29.706554 
L 142.605681 29.369808 
L 143.204854 29.705099 
L 143.804027 29.371194 
L 144.403199 29.703779 
L 145.002372 29.372449 
L 145.601545 29.702588 
L 146.200718 29.373578 
L 146.799891 29.70152 
L 147.399064 29.374587 
L 147.998237 29.700568 
L 148.59741 29.375483 
L 149.196583 29.699728 
L 149.795755 29.376269 
L 150.394928 29.698995 
L 150.994101 29.376949 
L 151.593274 29.698366 
L 152.192447 29.377528 
L 152.79162 29.697836 
L 153.390793 29.378009 
L 153.989966 29.697403 
L 154.589139 29.378394 
L 155.188312 29.697065 
L 155.787484 29.378687 
L 156.386657 29.696818 
L 156.98583 29.378888 
L 157.585003 29.696661 
L 158.184176 29.379001 
L 158.783349 29.696592 
L 159.382522 29.379026 
L 159.981695 29.696611 
L 160.580868 29.378965 
L 161.180041 29.696714 
L 161.779213 29.378819 
L 162.378386 29.696903 
L 162.977559 29.378587 
L 163.576732 29.697177 
L 164.175905 29.378272 
L 164.775078 29.697535 
L 165.374251 29.377872 
L 165.973424 29.697977 
L 166.572597 29.377388 
L 167.171769 29.698503 
L 167.770942 29.376819 
L 168.370115 29.699114 
L 168.969288 29.376165 
L 169.568461 29.699811 
L 170.167634 29.375425 
L 170.766807 29.700595 
L 171.36598 29.374597 
L 171.965153 29.701467 
L 172.564326 29.373681 
L 173.163498 29.702428 
L 173.762671 29.372675 
L 174.361844 29.70348 
L 174.961017 29.371576 
L 175.56019 29.704625 
L 176.159363 29.370383 
L 176.758536 29.705866 
L 177.357709 29.369094 
L 177.956882 29.707205 
L 178.556054 29.367704 
L 179.155227 29.708646 
L 179.7544 29.366212 
L 180.353573 29.710191 
L 180.952746 29.364613 
L 181.551919 29.711844 
L 182.151092 29.362905 
L 182.750265 29.713609 
L 183.349438 29.361082 
L 183.948611 29.715491 
L 184.547783 29.35914 
L 185.146956 29.717494 
L 185.746129 29.357074 
L 186.345302 29.719625 
L 186.944475 29.354877 
L 187.543648 29.721888 
L 188.142821 29.352545 
L 188.741994 29.724291 
L 189.341167 29.35007 
L 189.94034 29.72684 
L 190.539512 29.347445 
L 191.138685 29.729544 
L 191.737858 29.344661 
L 192.337031 29.73241 
L 192.936204 29.341709 
L 193.535377 29.735449 
L 194.13455 29.33858 
L 194.733723 29.738671 
L 195.332896 29.335263 
L 195.932068 29.742087 
L 196.531241 29.331746 
L 197.130414 29.745709 
L 197.729587 29.328015 
L 198.32876 29.749552 
L 198.927933 29.324056 
L 199.527106 29.75363 
L 200.126279 29.319854 
L 200.725452 29.757962 
L 201.324625 29.315389 
L 201.923797 29.762564 
L 202.52297 29.310643 
L 203.122143 29.767459 
L 203.721316 29.305593 
L 204.320489 29.77267 
L 204.919662 29.300215 
L 205.518835 29.778222 
L 206.118008 29.294482 
L 206.717181 29.784144 
L 207.316353 29.288362 
L 207.915526 29.79047 
L 208.514699 29.281822 
L 209.113872 29.797235 
L 209.713045 29.274821 
L 210.312218 29.804482 
L 210.911391 29.267317 
L 211.510564 29.812257 
L 212.109737 29.259258 
L 212.70891 29.820614 
L 213.308082 29.250587 
L 213.907255 29.829615 
L 214.506428 29.241239 
L 215.105601 29.839329 
L 215.704774 29.231138 
L 216.303947 29.849839 
L 216.90312 29.220196 
L 217.502293 29.861239 
L 218.101466 29.208311 
L 218.700639 29.873639 
L 219.299811 29.195364 
L 219.898984 29.887168 
L 220.498157 29.181214 
L 221.09733 29.901979 
L 221.696503 29.165695 
L 222.295676 29.918256 
L 222.894849 29.148607 
L 223.494022 29.936215 
L 224.093195 29.129711 
L 224.692367 29.956122 
L 225.29154 29.108713 
L 225.890713 29.9783 
L 226.489886 29.085255 
L 227.089059 30.003148 
L 227.688232 29.058892 
L 228.287405 30.031166 
L 228.886578 29.029063 
L 229.485751 30.062984 
L 230.084924 28.995053 
L 230.684096 30.099415 
L 231.283269 28.955937 
L 231.882442 30.14152 
L 232.481615 28.910493 
L 233.080788 30.190712 
L 233.679961 28.857076 
L 234.279134 30.248915 
L 234.878307 28.79342 
L 235.47748 30.318821 
L 236.076652 28.716305 
L 236.675825 30.404309 
L 237.274998 28.621012 
L 237.874171 30.511184 
L 238.473344 28.500323 
L 239.072517 30.648534 
L 239.67169 28.342629 
L 240.270863 30.831427 
L 240.870036 28.128005 
L 241.469209 31.086777 
L 242.068381 27.819189 
L 242.667554 31.467714 
L 243.266727 27.33769 
L 243.8659 32.095343 
L 244.465073 26.486155 
L 245.064246 33.315029 
L 245.663419 24.59852 
L 246.262592 36.606912 
L 246.861765 17.530392 
L 248.06011 103.711145 
L 248.659283 84.634626 
L 249.258456 96.643017 
L 249.857629 87.926509 
L 250.456802 94.755383 
L 251.055975 89.146195 
L 251.655148 93.903848 
L 252.254321 89.773823 
L 252.853494 93.422348 
L 253.452666 90.154761 
L 254.051839 93.113533 
L 254.651012 90.41011 
L 255.250185 92.898909 
L 255.849358 90.593004 
L 256.448531 92.741215 
L 257.047704 90.730354 
L 257.646877 92.620526 
L 258.24605 90.837228 
L 258.845223 92.525232 
L 259.444395 90.922716 
L 260.043568 92.448118 
L 260.642741 90.992622 
L 261.241914 92.384461 
L 261.841087 91.050826 
L 262.44026 92.331045 
L 263.039433 91.100017 
L 263.638606 92.285601 
L 264.237779 91.142122 
L 264.836951 92.246485 
L 265.436124 91.178553 
L 266.035297 92.212475 
L 266.63447 91.210372 
L 267.233643 92.182646 
L 267.832816 91.238389 
L 268.431989 92.156283 
L 269.031162 91.263238 
L 269.630335 92.132825 
L 270.229508 91.285416 
L 270.82868 92.111827 
L 271.427853 91.305323 
L 272.027026 92.09293 
L 272.626199 91.323282 
L 273.225372 92.075843 
L 273.824545 91.339558 
L 274.423718 92.060323 
L 275.022891 91.35437 
L 275.622064 92.046174 
L 276.221236 91.367899 
L 276.820409 92.033227 
L 277.419582 91.380299 
L 278.018755 92.021342 
L 278.617928 91.391698 
L 279.217101 92.0104 
L 279.816274 91.402208 
L 280.415447 92.000299 
L 281.01462 91.411923 
L 281.613793 91.990951 
L 282.212965 91.420924 
L 282.812138 91.98228 
L 283.411311 91.429281 
L 284.010484 91.974221 
L 284.609657 91.437056 
L 285.20883 91.966716 
L 285.808003 91.444302 
L 286.407176 91.959716 
L 287.006349 91.451068 
L 287.605522 91.953175 
L 288.204694 91.457393 
L 288.803867 91.947056 
L 289.40304 91.463316 
L 290.002213 91.941322 
L 290.601386 91.468868 
L 291.200559 91.935945 
L 291.799732 91.474078 
L 292.398905 91.930895 
L 292.998078 91.478973 
L 293.59725 91.926149 
L 294.196423 91.483576 
L 294.795596 91.921684 
L 295.394769 91.487907 
L 295.993942 91.917481 
L 296.593115 91.491986 
L 297.192288 91.913523 
L 297.791461 91.495829 
L 298.390634 91.909792 
L 298.989807 91.499451 
L 299.588979 91.906274 
L 300.188152 91.502867 
L 300.787325 91.902957 
L 301.386498 91.506088 
L 301.985671 91.899828 
L 302.584844 91.509127 
L 303.184017 91.896877 
L 303.78319 91.511994 
L 304.382363 91.894093 
L 304.981535 91.514698 
L 305.580708 91.891467 
L 306.179881 91.517247 
L 306.779054 91.888992 
L 307.378227 91.51965 
L 307.9774 91.88666 
L 308.576573 91.521913 
L 309.175746 91.884464 
L 309.774919 91.524043 
L 310.374092 91.882398 
L 310.973264 91.526047 
L 311.572437 91.880456 
L 312.17161 91.527929 
L 312.770783 91.878633 
L 313.369956 91.529694 
L 313.969129 91.876924 
L 314.568302 91.531347 
L 315.167475 91.875326 
L 315.766648 91.532892 
L 316.365821 91.873834 
L 316.964993 91.534332 
L 317.564166 91.872444 
L 318.163339 91.535671 
L 318.762512 91.871154 
L 319.361685 91.536912 
L 319.960858 91.869961 
L 320.560031 91.538058 
L 321.159204 91.868863 
L 321.758377 91.53911 
L 322.357549 91.867857 
L 322.956722 91.540071 
L 323.555895 91.86694 
L 324.155068 91.540943 
L 324.754241 91.866113 
L 325.353414 91.541726 
L 325.952587 91.865373 
L 326.55176 91.542423 
L 327.150933 91.864719 
L 327.750106 91.543035 
L 328.349278 91.86415 
L 328.948451 91.543561 
L 329.547624 91.863666 
L 330.146797 91.544003 
L 330.74597 91.863266 
L 331.345143 91.544361 
L 331.944316 91.86295 
L 332.543489 91.544634 
L 333.142662 91.862719 
L 333.741834 91.544823 
L 334.341007 91.862573 
L 334.94018 91.544927 
L 335.539353 91.862511 
L 336.138526 91.544945 
L 336.737699 91.862537 
L 337.336872 91.544877 
L 337.936045 91.862649 
L 338.535218 91.54472 
L 339.134391 91.862851 
L 339.733563 91.544473 
L 340.332736 91.863143 
L 340.931909 91.544134 
L 341.531082 91.863529 
L 342.130255 91.543702 
L 342.729428 91.864009 
L 343.328601 91.543172 
L 343.927774 91.864588 
L 344.526947 91.542543 
L 345.12612 91.865269 
L 345.725292 91.54181 
L 346.324465 91.866055 
L 346.923638 91.54097 
L 347.522811 91.86695 
L 348.121984 91.540018 
L 348.721157 91.86796 
L 349.32033 91.538949 
L 349.919503 91.869089 
L 350.518676 91.537758 
L 351.117848 91.870343 
L 351.717021 91.536439 
L 352.316194 91.87173 
L 352.915367 91.534984 
L 353.51454 91.873256 
L 354.113713 91.533385 
L 354.712886 91.87493 
L 355.312059 91.531633 
L 355.911232 91.876761 
L 356.510405 91.52972 
L 357.109577 91.87876 
L 357.70875 91.527633 
L 358.307923 91.880938 
L 358.907096 91.525359 
L 359.506269 91.88331 
L 360.105442 91.522886 
L 360.704615 91.885888 
L 361.303788 91.520197 
L 361.902961 91.888692 
L 362.502133 91.517275 
L 363.101306 91.891739 
L 363.700479 91.514098 
L 364.299652 91.895052 
L 364.898825 91.510643 
L 365.497998 91.898655 
L 366.097171 91.506885 
L 366.696344 91.902576 
L 367.295517 91.502792 
L 367.89469 91.906848 
L 368.493862 91.498331 
L 369.093035 91.911509 
L 369.692208 91.49346 
L 370.291381 91.916602 
L 370.890554 91.488132 
L 371.489727 91.922178 
L 372.0889 91.482293 
L 372.688073 91.928296 
L 373.287246 91.475879 
L 373.886419 91.935026 
L 374.485591 91.468812 
L 375.084764 91.942452 
L 375.683937 91.461003 
L 376.28311 91.950672 
L 376.882283 91.452342 
L 377.481456 91.959807 
L 378.080629 91.442697 
L 378.679802 91.970002 
L 379.278975 91.431906 
L 379.878147 91.981437 
L 380.47732 91.419771 
L 381.076493 91.994334 
L 381.675666 91.406042 
L 382.274839 92.008974 
L 382.874012 91.390404 
L 383.473185 92.025713 
L 384.072358 91.372449 
L 384.671531 92.045014 
L 385.270704 91.35165 
L 385.869876 92.067488 
L 386.469049 91.327298 
L 387.068222 92.093956 
L 387.667395 91.298432 
L 388.266568 92.125553 
L 388.865741 91.263706 
L 389.464914 92.163888 
L 390.064087 91.22118 
L 390.66326 92.211319 
L 391.262432 91.167954 
L 391.861605 92.271457 
L 392.460778 91.099482 
L 393.059951 92.350106 
L 393.659124 91.00823 
L 394.258297 92.457227 
L 394.85747 90.880742 
L 395.456643 92.611451 
L 396.055816 90.690453 
L 396.654989 92.852025 
L 397.254161 90.37681 
L 397.853334 93.277625 
L 398.452507 89.767132 
L 399.05168 94.221281 
L 399.650853 88.121347 
L 400.250026 97.755192 
L 401.448372 54.664669 
L 402.047545 64.107783 
L 402.646717 58.198594 
L 403.24589 62.461977 
L 403.845063 59.142279 
L 404.444236 61.852263 
L 405.043409 59.567921 
L 405.642582 61.53857 
L 406.241755 59.808553 
L 406.840928 61.348216 
L 407.440101 59.962849 
L 408.039274 61.220649 
L 408.638446 60.070057 
L 409.237619 61.129303 
L 409.836792 60.148806 
L 410.435965 61.060723 
L 411.035138 60.20906 
L 411.634311 61.007373 
L 412.233484 60.256623 
L 412.832657 60.964709 
L 413.43183 60.295102 
L 414.031003 60.929831 
L 414.630175 60.32686 
L 415.229348 60.900796 
L 415.828521 60.353504 
L 416.427694 60.876261 
L 417.026867 60.376168 
L 417.62604 60.855263 
L 418.225213 60.395676 
L 418.824386 60.837095 
L 419.423559 60.412636 
L 420.022731 60.821227 
L 420.621904 60.427513 
L 421.221077 60.807253 
L 421.82025 60.440663 
L 422.419423 60.794857 
L 423.018596 60.452367 
L 423.617769 60.783789 
L 424.216942 60.462848 
L 424.816115 60.77385 
L 425.415288 60.472285 
L 426.01446 60.764878 
L 426.613633 60.480825 
L 427.212806 60.756742 
L 427.811979 60.488586 
L 428.411152 60.74933 
L 429.010325 60.49567 
L 429.609498 60.742554 
L 430.208671 60.502159 
L 430.807844 60.736335 
L 431.407016 60.508124 
L 432.006189 60.730609 
L 432.605362 60.513624 
L 433.204535 60.725322 
L 433.803708 60.51871 
L 434.402881 60.720425 
L 435.002054 60.523428 
L 435.601227 60.715878 
L 436.2004 60.527813 
L 436.799573 60.711646 
L 437.398745 60.5319 
L 437.997918 60.707698 
L 438.597091 60.535716 
L 439.196264 60.704006 
L 439.795437 60.539288 
L 440.39461 60.700548 
L 440.993783 60.542637 
L 441.592956 60.697303 
L 442.192129 60.545784 
L 442.791302 60.694251 
L 442.791302 60.694251 
" clip-path="url(#pcdd459dfc1)" style="fill: none; stroke-dasharray: 5.55,2.4; stroke-dashoffset: 0; stroke: #2ca02c; stroke-width: 1.5"/>
   </g>
   <g id="patch_3">
    <path d="M 52.160938 108.306914 
L 52.160938 7.2 
" style="fill: none; stroke: #000000; stroke-width: 0.8; stroke-linejoin: miter; stroke-linecap: square"/>
   </g>
   <g id="patch_4">
    <path d="M 442.760938 108.306914 
L 442.760938 7.2 
" style="fill: none; stroke: #000000; stroke-width: 0.8; stroke-linejoin: miter; stroke-linecap: square"/>
   </g>
   <g id="patch_5">
    <path d="M 52.160937 108.306914 
L 442.760938 108.306914 
" style="fill: none; stroke: #000000; stroke-width: 0.8; stroke-linejoin: miter; stroke-linecap: square"/>
   </g>
   <g id="patch_6">
    <path d="M 52.160937 7.2 
L 442.760938 7.2 
" style="fill: none; stroke: #000000; stroke-width: 0.8; stroke-linejoin: miter; stroke-linecap: square"/>
   </g>
   <g id="legend_1">
    <g id="patch_7">
     <path d="M 309.089063 59.234375 
L 435.760938 59.234375 
Q 437.760938 59.234375 437.760938 57.234375 
L 437.760938 14.2 
Q 437.760938 12.2 435.760938 12.2 
L 309.089063 12.2 
Q 307.089063 12.2 307.089063 14.2 
L 307.089063 57.234375 
Q 307.089063 59.234375 309.089063 59.234375 
z
" style="fill: #ffffff; opacity: 0.8; stroke: #cccccc; stroke-linejoin: miter"/>
    </g>
    <g id="line2d_17">
     <path d="M 311.089063 20.298438 
L 321.089063 20.298438 
L 331.089063 20.298438 
" style="fill: none; stroke: #1f77b4; stroke-width: 1.5; stroke-linecap: square"/>
    </g>
    <g id="text_16">
     <!-- $f$ -->
     <g transform="translate(339.089063 23.798438) scale(0.1 -0.1)">
      <use xlink:href="#DejaVuSans-Oblique-66" transform="translate(0 0.015625)"/>
     </g>
    </g>
    <g id="line2d_18">
     <path d="M 311.089063 34.976562 
L 321.089063 34.976562 
L 331.089063 34.976562 
" style="fill: none; stroke-dasharray: 9.6,2.4,1.5,2.4; stroke-dashoffset: 0; stroke: #ff7f0e; stroke-width: 1.5"/>
    </g>
    <g id="text_17">
     <!-- Finite derivative -->
     <g transform="translate(339.089063 38.476562) scale(0.1 -0.1)">
      <defs>
       <path id="DejaVuSans-46" d="M 628 4666 
L 3309 4666 
L 3309 4134 
L 1259 4134 
L 1259 2759 
L 3109 2759 
L 3109 2228 
L 1259 2228 
L 1259 0 
L 628 0 
L 628 4666 
z
" transform="scale(0.015625)"/>
       <path id="DejaVuSans-69" d="M 603 3500 
L 1178 3500 
L 1178 0 
L 603 0 
L 603 3500 
z
M 603 4863 
L 1178 4863 
L 1178 4134 
L 603 4134 
L 603 4863 
z
" transform="scale(0.015625)"/>
       <path id="DejaVuSans-6e" d="M 3513 2113 
L 3513 0 
L 2938 0 
L 2938 2094 
Q 2938 2591 2744 2837 
Q 2550 3084 2163 3084 
Q 1697 3084 1428 2787 
Q 1159 2491 1159 1978 
L 1159 0 
L 581 0 
L 581 3500 
L 1159 3500 
L 1159 2956 
Q 1366 3272 1645 3428 
Q 1925 3584 2291 3584 
Q 2894 3584 3203 3211 
Q 3513 2838 3513 2113 
z
" transform="scale(0.015625)"/>
       <path id="DejaVuSans-65" d="M 3597 1894 
L 3597 1613 
L 953 1613 
Q 991 1019 1311 708 
Q 1631 397 2203 397 
Q 2534 397 2845 478 
Q 3156 559 3463 722 
L 3463 178 
Q 3153 47 2828 -22 
Q 2503 -91 2169 -91 
Q 1331 -91 842 396 
Q 353 884 353 1716 
Q 353 2575 817 3079 
Q 1281 3584 2069 3584 
Q 2775 3584 3186 3129 
Q 3597 2675 3597 1894 
z
M 3022 2063 
Q 3016 2534 2758 2815 
Q 2500 3097 2075 3097 
Q 1594 3097 1305 2825 
Q 1016 2553 972 2059 
L 3022 2063 
z
" transform="scale(0.015625)"/>
       <path id="DejaVuSans-20" transform="scale(0.015625)"/>
       <path id="DejaVuSans-64" d="M 2906 2969 
L 2906 4863 
L 3481 4863 
L 3481 0 
L 2906 0 
L 2906 525 
Q 2725 213 2448 61 
Q 2172 -91 1784 -91 
Q 1150 -91 751 415 
Q 353 922 353 1747 
Q 353 2572 751 3078 
Q 1150 3584 1784 3584 
Q 2172 3584 2448 3432 
Q 2725 3281 2906 2969 
z
M 947 1747 
Q 947 1113 1208 752 
Q 1469 391 1925 391 
Q 2381 391 2643 752 
Q 2906 1113 2906 1747 
Q 2906 2381 2643 2742 
Q 2381 3103 1925 3103 
Q 1469 3103 1208 2742 
Q 947 2381 947 1747 
z
" transform="scale(0.015625)"/>
       <path id="DejaVuSans-72" d="M 2631 2963 
Q 2534 3019 2420 3045 
Q 2306 3072 2169 3072 
Q 1681 3072 1420 2755 
Q 1159 2438 1159 1844 
L 1159 0 
L 581 0 
L 581 3500 
L 1159 3500 
L 1159 2956 
Q 1341 3275 1631 3429 
Q 1922 3584 2338 3584 
Q 2397 3584 2469 3576 
Q 2541 3569 2628 3553 
L 2631 2963 
z
" transform="scale(0.015625)"/>
       <path id="DejaVuSans-76" d="M 191 3500 
L 800 3500 
L 1894 563 
L 2988 3500 
L 3597 3500 
L 2284 0 
L 1503 0 
L 191 3500 
z
" transform="scale(0.015625)"/>
       <path id="DejaVuSans-61" d="M 2194 1759 
Q 1497 1759 1228 1600 
Q 959 1441 959 1056 
Q 959 750 1161 570 
Q 1363 391 1709 391 
Q 2188 391 2477 730 
Q 2766 1069 2766 1631 
L 2766 1759 
L 2194 1759 
z
M 3341 1997 
L 3341 0 
L 2766 0 
L 2766 531 
Q 2569 213 2275 61 
Q 1981 -91 1556 -91 
Q 1019 -91 701 211 
Q 384 513 384 1019 
Q 384 1609 779 1909 
Q 1175 2209 1959 2209 
L 2766 2209 
L 2766 2266 
Q 2766 2663 2505 2880 
Q 2244 3097 1772 3097 
Q 1472 3097 1187 3025 
Q 903 2953 641 2809 
L 641 3341 
Q 956 3463 1253 3523 
Q 1550 3584 1831 3584 
Q 2591 3584 2966 3190 
Q 3341 2797 3341 1997 
z
" transform="scale(0.015625)"/>
      </defs>
      <use xlink:href="#DejaVuSans-46"/>
      <use xlink:href="#DejaVuSans-69" x="50.269531"/>
      <use xlink:href="#DejaVuSans-6e" x="78.052734"/>
      <use xlink:href="#DejaVuSans-69" x="141.431641"/>
      <use xlink:href="#DejaVuSans-74" x="169.214844"/>
      <use xlink:href="#DejaVuSans-65" x="208.423828"/>
      <use xlink:href="#DejaVuSans-20" x="269.947266"/>
      <use xlink:href="#DejaVuSans-64" x="301.734375"/>
      <use xlink:href="#DejaVuSans-65" x="365.210938"/>
      <use xlink:href="#DejaVuSans-72" x="426.734375"/>
      <use xlink:href="#DejaVuSans-69" x="467.847656"/>
      <use xlink:href="#DejaVuSans-76" x="495.630859"/>
      <use xlink:href="#DejaVuSans-61" x="554.810547"/>
      <use xlink:href="#DejaVuSans-74" x="616.089844"/>
      <use xlink:href="#DejaVuSans-69" x="655.298828"/>
      <use xlink:href="#DejaVuSans-76" x="683.082031"/>
      <use xlink:href="#DejaVuSans-65" x="742.261719"/>
     </g>
    </g>
    <g id="line2d_19">
     <path d="M 311.089063 49.654688 
L 321.089063 49.654688 
L 331.089063 49.654688 
" style="fill: none; stroke-dasharray: 5.55,2.4; stroke-dashoffset: 0; stroke: #2ca02c; stroke-width: 1.5"/>
    </g>
    <g id="text_18">
     <!-- Spectral derivative -->
     <g transform="translate(339.089063 53.154688) scale(0.1 -0.1)">
      <defs>
       <path id="DejaVuSans-53" d="M 3425 4513 
L 3425 3897 
Q 3066 4069 2747 4153 
Q 2428 4238 2131 4238 
Q 1616 4238 1336 4038 
Q 1056 3838 1056 3469 
Q 1056 3159 1242 3001 
Q 1428 2844 1947 2747 
L 2328 2669 
Q 3034 2534 3370 2195 
Q 3706 1856 3706 1288 
Q 3706 609 3251 259 
Q 2797 -91 1919 -91 
Q 1588 -91 1214 -16 
Q 841 59 441 206 
L 441 856 
Q 825 641 1194 531 
Q 1563 422 1919 422 
Q 2459 422 2753 634 
Q 3047 847 3047 1241 
Q 3047 1584 2836 1778 
Q 2625 1972 2144 2069 
L 1759 2144 
Q 1053 2284 737 2584 
Q 422 2884 422 3419 
Q 422 4038 858 4394 
Q 1294 4750 2059 4750 
Q 2388 4750 2728 4690 
Q 3069 4631 3425 4513 
z
" transform="scale(0.015625)"/>
       <path id="DejaVuSans-70" d="M 1159 525 
L 1159 -1331 
L 581 -1331 
L 581 3500 
L 1159 3500 
L 1159 2969 
Q 1341 3281 1617 3432 
Q 1894 3584 2278 3584 
Q 2916 3584 3314 3078 
Q 3713 2572 3713 1747 
Q 3713 922 3314 415 
Q 2916 -91 2278 -91 
Q 1894 -91 1617 61 
Q 1341 213 1159 525 
z
M 3116 1747 
Q 3116 2381 2855 2742 
Q 2594 3103 2138 3103 
Q 1681 3103 1420 2742 
Q 1159 2381 1159 1747 
Q 1159 1113 1420 752 
Q 1681 391 2138 391 
Q 2594 391 2855 752 
Q 3116 1113 3116 1747 
z
" transform="scale(0.015625)"/>
       <path id="DejaVuSans-63" d="M 3122 3366 
L 3122 2828 
Q 2878 2963 2633 3030 
Q 2388 3097 2138 3097 
Q 1578 3097 1268 2742 
Q 959 2388 959 1747 
Q 959 1106 1268 751 
Q 1578 397 2138 397 
Q 2388 397 2633 464 
Q 2878 531 3122 666 
L 3122 134 
Q 2881 22 2623 -34 
Q 2366 -91 2075 -91 
Q 1284 -91 818 406 
Q 353 903 353 1747 
Q 353 2603 823 3093 
Q 1294 3584 2113 3584 
Q 2378 3584 2631 3529 
Q 2884 3475 3122 3366 
z
" transform="scale(0.015625)"/>
       <path id="DejaVuSans-6c" d="M 603 4863 
L 1178 4863 
L 1178 0 
L 603 0 
L 603 4863 
z
" transform="scale(0.015625)"/>
      </defs>
      <use xlink:href="#DejaVuSans-53"/>
      <use xlink:href="#DejaVuSans-70" x="63.476562"/>
      <use xlink:href="#DejaVuSans-65" x="126.953125"/>
      <use xlink:href="#DejaVuSans-63" x="188.476562"/>
      <use xlink:href="#DejaVuSans-74" x="243.457031"/>
      <use xlink:href="#DejaVuSans-72" x="282.666016"/>
      <use xlink:href="#DejaVuSans-61" x="323.779297"/>
      <use xlink:href="#DejaVuSans-6c" x="385.058594"/>
      <use xlink:href="#DejaVuSans-20" x="412.841797"/>
      <use xlink:href="#DejaVuSans-64" x="444.628906"/>
      <use xlink:href="#DejaVuSans-65" x="508.105469"/>
      <use xlink:href="#DejaVuSans-72" x="569.628906"/>
      <use xlink:href="#DejaVuSans-69" x="610.742188"/>
      <use xlink:href="#DejaVuSans-76" x="638.525391"/>
      <use xlink:href="#DejaVuSans-61" x="697.705078"/>
      <use xlink:href="#DejaVuSans-74" x="758.984375"/>
      <use xlink:href="#DejaVuSans-69" x="798.193359"/>
      <use xlink:href="#DejaVuSans-76" x="825.976562"/>
      <use xlink:href="#DejaVuSans-65" x="885.15625"/>
     </g>
    </g>
   </g>
  </g>
 </g>
 <defs>
  <clipPath id="pcdd459dfc1">
   <rect x="52.160938" y="7.2" width="390.6" height="101.106914"/>
  </clipPath>
 </defs>
</svg>
