<?xml version="1.0" encoding="utf-8" standalone="no"?>
<!DOCTYPE svg PUBLIC "-//W3C//DTD SVG 1.1//EN"
  "http://www.w3.org/Graphics/SVG/1.1/DTD/svg11.dtd">
<svg xmlns:xlink="http://www.w3.org/1999/xlink" width="291.6pt" height="297.04902pt" viewBox="0 0 291.6 297.04902" xmlns="http://www.w3.org/2000/svg" version="1.1">
 <metadata>
  <rdf:RDF xmlns:dc="http://purl.org/dc/elements/1.1/" xmlns:cc="http://creativecommons.org/ns#" xmlns:rdf="http://www.w3.org/1999/02/22-rdf-syntax-ns#">
   <cc:Work>
    <dc:type rdf:resource="http://purl.org/dc/dcmitype/StillImage"/>
    <dc:date>2026-01-05T12:17:36.548201</dc:date>
    <dc:format>image/svg+xml</dc:format>
    <dc:creator>
     <cc:Agent>
      <dc:title>Matplotlib v3.10.3, https://matplotlib.org/</dc:title>
     </cc:Agent>
    </dc:creator>
   </cc:Work>
  </rdf:RDF>
 </metadata>
 <defs>
  <style type="text/css">*{stroke-linejoin: round; stroke-linecap: butt}</style>
 </defs>
 <g id="figure_1">
  <g id="patch_1">
   <path d="M 0 297.04902 
L 291.6 297.04902 
L 291.6 0 
L 0 0 
z
" style="fill: #ffffff"/>
  </g>
  <g id="patch_2">
   <path d="M 7.2 284.4 
L 284.4 284.4 
L 284.4 7.2 
L 7.2 7.2 
z
" style="fill: #ffffff"/>
  </g>
  <g id="pane3d_1">
   <g id="patch_3">
    <path d="M 28.130512 216.051364 
L 119.671005 139.320307 
L 118.398504 28.660407 
L 22.477327 98.659314 
" style="fill: #f2f2f2; opacity: 0.5; stroke: #f2f2f2; stroke-linejoin: miter"/>
   </g>
  </g>
  <g id="pane3d_2">
   <g id="patch_4">
    <path d="M 119.671005 139.320307 
L 266.560834 182.015381 
L 271.802814 67.543928 
L 118.398504 28.660407 
" style="fill: #e6e6e6; opacity: 0.5; stroke: #e6e6e6; stroke-linejoin: miter"/>
   </g>
  </g>
  <g id="pane3d_3">
   <g id="patch_5">
    <path d="M 28.130512 216.051364 
L 183.840905 266.906378 
L 266.560834 182.015381 
L 119.671005 139.320307 
" style="fill: #ececec; opacity: 0.5; stroke: #ececec; stroke-linejoin: miter"/>
   </g>
  </g>
  <g id="grid3d_1">
   <g id="Line3DCollection_1">
    <path d="M 37.56115 219.13141 
L 128.604394 141.916891 
L 127.709604 31.0205 
" style="fill: none; stroke: #b0b0b0; stroke-width: 0.8"/>
    <path d="M 53.889117 224.464124 
L 144.060124 146.409261 
L 143.824456 35.105145 
" style="fill: none; stroke: #b0b0b0; stroke-width: 0.8"/>
    <path d="M 70.40297 229.857548 
L 159.677238 150.94854 
L 160.114843 39.234283 
" style="fill: none; stroke: #b0b0b0; stroke-width: 0.8"/>
    <path d="M 87.105901 235.312726 
L 175.45828 155.535466 
L 176.583651 43.408646 
" style="fill: none; stroke: #b0b0b0; stroke-width: 0.8"/>
    <path d="M 104.001178 240.830723 
L 191.405842 160.170792 
L 193.233825 47.62898 
" style="fill: none; stroke: #b0b0b0; stroke-width: 0.8"/>
    <path d="M 121.092142 246.412632 
L 207.522575 164.85529 
L 210.06838 51.896049 
" style="fill: none; stroke: #b0b0b0; stroke-width: 0.8"/>
    <path d="M 138.382212 252.059569 
L 223.811186 169.589746 
L 227.090394 56.210633 
" style="fill: none; stroke: #b0b0b0; stroke-width: 0.8"/>
    <path d="M 155.874889 257.772677 
L 240.274437 174.374964 
L 244.303016 60.573531 
" style="fill: none; stroke: #b0b0b0; stroke-width: 0.8"/>
    <path d="M 173.573753 263.553126 
L 256.915154 179.211763 
L 261.709466 64.985558 
" style="fill: none; stroke: #b0b0b0; stroke-width: 0.8"/>
   </g>
  </g>
  <g id="grid3d_2">
   <g id="Line3DCollection_2">
    <path d="M 29.110514 93.818716 
L 34.438425 210.763945 
L 189.564484 261.032578 
" style="fill: none; stroke: #b0b0b0; stroke-width: 0.8"/>
    <path d="M 48.852415 79.411975 
L 53.231823 195.010947 
L 206.596287 243.553759 
" style="fill: none; stroke: #b0b0b0; stroke-width: 0.8"/>
    <path d="M 67.910016 65.504606 
L 71.401658 179.780631 
L 223.033617 226.685014 
" style="fill: none; stroke: #b0b0b0; stroke-width: 0.8"/>
    <path d="M 86.318287 52.071088 
L 88.978459 165.047407 
L 238.907065 210.394951 
" style="fill: none; stroke: #b0b0b0; stroke-width: 0.8"/>
    <path d="M 104.109861 39.087608 
L 105.990794 150.787331 
L 254.245157 194.654295 
" style="fill: none; stroke: #b0b0b0; stroke-width: 0.8"/>
   </g>
  </g>
  <g id="grid3d_3"/>
  <g id="axis3d_1">
   <g id="line2d_1">
    <path d="M 28.130512 216.051364 
L 183.840905 266.906378 
" style="fill: none; stroke: #000000; stroke-width: 0.8; stroke-linecap: square"/>
   </g>
   <g id="xtick_1">
    <g id="line2d_2">
     <path d="M 38.35395 218.45903 
L 35.972149 220.479055 
" style="fill: none; stroke: #000000; stroke-width: 0.8; stroke-linecap: square"/>
    </g>
    <g id="text_1">
     <!-- −10.0 -->
     <g transform="translate(14.710564 242.438223) scale(0.1 -0.1)">
      <defs>
       <path id="DejaVuSans-2212" d="M 678 2272 
L 4684 2272 
L 4684 1741 
L 678 1741 
L 678 2272 
z
" transform="scale(0.015625)"/>
       <path id="DejaVuSans-31" d="M 794 531 
L 1825 531 
L 1825 4091 
L 703 3866 
L 703 4441 
L 1819 4666 
L 2450 4666 
L 2450 531 
L 3481 531 
L 3481 0 
L 794 0 
L 794 531 
z
" transform="scale(0.015625)"/>
       <path id="DejaVuSans-30" d="M 2034 4250 
Q 1547 4250 1301 3770 
Q 1056 3291 1056 2328 
Q 1056 1369 1301 889 
Q 1547 409 2034 409 
Q 2525 409 2770 889 
Q 3016 1369 3016 2328 
Q 3016 3291 2770 3770 
Q 2525 4250 2034 4250 
z
M 2034 4750 
Q 2819 4750 3233 4129 
Q 3647 3509 3647 2328 
Q 3647 1150 3233 529 
Q 2819 -91 2034 -91 
Q 1250 -91 836 529 
Q 422 1150 422 2328 
Q 422 3509 836 4129 
Q 1250 4750 2034 4750 
z
" transform="scale(0.015625)"/>
       <path id="DejaVuSans-2e" d="M 684 794 
L 1344 794 
L 1344 0 
L 684 0 
L 684 794 
z
" transform="scale(0.015625)"/>
      </defs>
      <use xlink:href="#DejaVuSans-2212"/>
      <use xlink:href="#DejaVuSans-31" transform="translate(83.789062 0)"/>
      <use xlink:href="#DejaVuSans-30" transform="translate(147.412109 0)"/>
      <use xlink:href="#DejaVuSans-2e" transform="translate(211.035156 0)"/>
      <use xlink:href="#DejaVuSans-30" transform="translate(242.822266 0)"/>
     </g>
    </g>
   </g>
   <g id="xtick_2">
    <g id="line2d_3">
     <path d="M 54.674682 223.784114 
L 52.314596 225.827078 
" style="fill: none; stroke: #000000; stroke-width: 0.8; stroke-linecap: square"/>
    </g>
    <g id="text_2">
     <!-- −7.5 -->
     <g transform="translate(34.235609 247.879302) scale(0.1 -0.1)">
      <defs>
       <path id="DejaVuSans-37" d="M 525 4666 
L 3525 4666 
L 3525 4397 
L 1831 0 
L 1172 0 
L 2766 4134 
L 525 4134 
L 525 4666 
z
" transform="scale(0.015625)"/>
       <path id="DejaVuSans-35" d="M 691 4666 
L 3169 4666 
L 3169 4134 
L 1269 4134 
L 1269 2991 
Q 1406 3038 1543 3061 
Q 1681 3084 1819 3084 
Q 2600 3084 3056 2656 
Q 3513 2228 3513 1497 
Q 3513 744 3044 326 
Q 2575 -91 1722 -91 
Q 1428 -91 1123 -41 
Q 819 9 494 109 
L 494 744 
Q 775 591 1075 516 
Q 1375 441 1709 441 
Q 2250 441 2565 725 
Q 2881 1009 2881 1497 
Q 2881 1984 2565 2268 
Q 2250 2553 1709 2553 
Q 1456 2553 1204 2497 
Q 953 2441 691 2322 
L 691 4666 
z
" transform="scale(0.015625)"/>
      </defs>
      <use xlink:href="#DejaVuSans-2212"/>
      <use xlink:href="#DejaVuSans-37" transform="translate(83.789062 0)"/>
      <use xlink:href="#DejaVuSans-2e" transform="translate(147.412109 0)"/>
      <use xlink:href="#DejaVuSans-35" transform="translate(179.199219 0)"/>
     </g>
    </g>
   </g>
   <g id="xtick_3">
    <g id="line2d_4">
     <path d="M 71.181084 229.169778 
L 68.843364 231.236075 
" style="fill: none; stroke: #000000; stroke-width: 0.8; stroke-linecap: square"/>
    </g>
    <g id="text_3">
     <!-- −5.0 -->
     <g transform="translate(50.766142 253.382548) scale(0.1 -0.1)">
      <use xlink:href="#DejaVuSans-2212"/>
      <use xlink:href="#DejaVuSans-35" transform="translate(83.789062 0)"/>
      <use xlink:href="#DejaVuSans-2e" transform="translate(147.412109 0)"/>
      <use xlink:href="#DejaVuSans-30" transform="translate(179.199219 0)"/>
     </g>
    </g>
   </g>
   <g id="xtick_4">
    <g id="line2d_5">
     <path d="M 87.876342 234.617061 
L 85.561657 236.707093 
" style="fill: none; stroke: #000000; stroke-width: 0.8; stroke-linecap: square"/>
    </g>
    <g id="text_4">
     <!-- −2.5 -->
     <g transform="translate(67.486631 258.949034) scale(0.1 -0.1)">
      <defs>
       <path id="DejaVuSans-32" d="M 1228 531 
L 3431 531 
L 3431 0 
L 469 0 
L 469 531 
Q 828 903 1448 1529 
Q 2069 2156 2228 2338 
Q 2531 2678 2651 2914 
Q 2772 3150 2772 3378 
Q 2772 3750 2511 3984 
Q 2250 4219 1831 4219 
Q 1534 4219 1204 4116 
Q 875 4013 500 3803 
L 500 4441 
Q 881 4594 1212 4672 
Q 1544 4750 1819 4750 
Q 2544 4750 2975 4387 
Q 3406 4025 3406 3419 
Q 3406 3131 3298 2873 
Q 3191 2616 2906 2266 
Q 2828 2175 2409 1742 
Q 1991 1309 1228 531 
z
" transform="scale(0.015625)"/>
      </defs>
      <use xlink:href="#DejaVuSans-2212"/>
      <use xlink:href="#DejaVuSans-32" transform="translate(83.789062 0)"/>
      <use xlink:href="#DejaVuSans-2e" transform="translate(147.412109 0)"/>
      <use xlink:href="#DejaVuSans-35" transform="translate(179.199219 0)"/>
     </g>
    </g>
   </g>
   <g id="xtick_5">
    <g id="line2d_6">
     <path d="M 104.763717 240.127027 
L 102.472753 242.241205 
" style="fill: none; stroke: #000000; stroke-width: 0.8; stroke-linecap: square"/>
    </g>
    <g id="text_5">
     <!-- 0.0 -->
     <g transform="translate(88.590215 264.579855) scale(0.1 -0.1)">
      <use xlink:href="#DejaVuSans-30"/>
      <use xlink:href="#DejaVuSans-2e" transform="translate(63.623047 0)"/>
      <use xlink:href="#DejaVuSans-30" transform="translate(95.410156 0)"/>
     </g>
    </g>
   </g>
   <g id="xtick_6">
    <g id="line2d_7">
     <path d="M 121.846544 245.700765 
L 119.580008 247.83951 
" style="fill: none; stroke: #000000; stroke-width: 0.8; stroke-linecap: square"/>
    </g>
    <g id="text_6">
     <!-- 2.5 -->
     <g transform="translate(105.700575 270.276134) scale(0.1 -0.1)">
      <use xlink:href="#DejaVuSans-32"/>
      <use xlink:href="#DejaVuSans-2e" transform="translate(63.623047 0)"/>
      <use xlink:href="#DejaVuSans-35" transform="translate(95.410156 0)"/>
     </g>
    </g>
   </g>
   <g id="xtick_7">
    <g id="line2d_8">
     <path d="M 139.128235 251.339387 
L 136.886853 253.50313 
" style="fill: none; stroke: #000000; stroke-width: 0.8; stroke-linecap: square"/>
    </g>
    <g id="text_7">
     <!-- 5.0 -->
     <g transform="translate(123.011004 276.039018) scale(0.1 -0.1)">
      <use xlink:href="#DejaVuSans-35"/>
      <use xlink:href="#DejaVuSans-2e" transform="translate(63.623047 0)"/>
      <use xlink:href="#DejaVuSans-30" transform="translate(95.410156 0)"/>
     </g>
    </g>
   </g>
   <g id="xtick_8">
    <g id="line2d_9">
     <path d="M 156.612284 257.044035 
L 154.396804 259.233216 
" style="fill: none; stroke: #000000; stroke-width: 0.8; stroke-linecap: square"/>
    </g>
    <g id="text_8">
     <!-- 7.5 -->
     <g transform="translate(140.52503 281.869683) scale(0.1 -0.1)">
      <use xlink:href="#DejaVuSans-37"/>
      <use xlink:href="#DejaVuSans-2e" transform="translate(63.623047 0)"/>
      <use xlink:href="#DejaVuSans-35" transform="translate(95.410156 0)"/>
     </g>
    </g>
   </g>
   <g id="xtick_9">
    <g id="line2d_10">
     <path d="M 174.302265 262.815873 
L 172.113455 265.030945 
" style="fill: none; stroke: #000000; stroke-width: 0.8; stroke-linecap: square"/>
    </g>
    <g id="text_9">
     <!-- 10.0 -->
     <g transform="translate(155.065018 287.769332) scale(0.1 -0.1)">
      <use xlink:href="#DejaVuSans-31"/>
      <use xlink:href="#DejaVuSans-30" transform="translate(63.623047 0)"/>
      <use xlink:href="#DejaVuSans-2e" transform="translate(127.246094 0)"/>
      <use xlink:href="#DejaVuSans-30" transform="translate(159.033203 0)"/>
     </g>
    </g>
   </g>
   <g id="text_10">
    <!-- $x$ -->
    <g transform="translate(84.647166 278.828218) scale(0.1 -0.1)">
     <defs>
      <path id="DejaVuSans-Oblique-78" d="M 3841 3500 
L 2234 1784 
L 3219 0 
L 2559 0 
L 1819 1388 
L 531 0 
L -166 0 
L 1556 1844 
L 641 3500 
L 1300 3500 
L 1972 2234 
L 3144 3500 
L 3841 3500 
z
" transform="scale(0.015625)"/>
     </defs>
     <use xlink:href="#DejaVuSans-Oblique-78" transform="translate(0 0.3125)"/>
    </g>
   </g>
  </g>
  <g id="axis3d_2">
   <g id="line2d_11">
    <path d="M 266.560834 182.015381 
L 183.840905 266.906378 
" style="fill: none; stroke: #000000; stroke-width: 0.8; stroke-linecap: square"/>
   </g>
   <g id="xtick_10">
    <g id="line2d_12">
     <path d="M 188.257232 260.608963 
L 192.182369 261.880904 
" style="fill: none; stroke: #000000; stroke-width: 0.8; stroke-linecap: square"/>
    </g>
    <g id="text_11">
     <!-- 0 -->
     <g transform="translate(199.26356 282.053986) scale(0.1 -0.1)">
      <use xlink:href="#DejaVuSans-30"/>
     </g>
    </g>
   </g>
   <g id="xtick_11">
    <g id="line2d_13">
     <path d="M 205.305042 243.145055 
L 209.182055 244.372204 
" style="fill: none; stroke: #000000; stroke-width: 0.8; stroke-linecap: square"/>
    </g>
    <g id="text_12">
     <!-- 2 -->
     <g transform="translate(216.076071 264.326748) scale(0.1 -0.1)">
      <use xlink:href="#DejaVuSans-32"/>
     </g>
    </g>
   </g>
   <g id="xtick_12">
    <g id="line2d_14">
     <path d="M 221.758069 226.290448 
L 225.587896 227.47513 
" style="fill: none; stroke: #000000; stroke-width: 0.8; stroke-linecap: square"/>
    </g>
    <g id="text_13">
     <!-- 4 -->
     <g transform="translate(232.301439 247.218598) scale(0.1 -0.1)">
      <defs>
       <path id="DejaVuSans-34" d="M 2419 4116 
L 825 1625 
L 2419 1625 
L 2419 4116 
z
M 2253 4666 
L 3047 4666 
L 3047 1625 
L 3713 1625 
L 3713 1100 
L 3047 1100 
L 3047 0 
L 2419 0 
L 2419 1100 
L 313 1100 
L 313 1709 
L 2253 4666 
z
" transform="scale(0.015625)"/>
      </defs>
      <use xlink:href="#DejaVuSans-34"/>
     </g>
    </g>
   </g>
   <g id="xtick_13">
    <g id="line2d_15">
     <path d="M 237.646905 210.013802 
L 241.430475 211.158184 
" style="fill: none; stroke: #000000; stroke-width: 0.8; stroke-linecap: square"/>
    </g>
    <g id="text_14">
     <!-- 6 -->
     <g transform="translate(247.969892 230.697663) scale(0.1 -0.1)">
      <defs>
       <path id="DejaVuSans-36" d="M 2113 2584 
Q 1688 2584 1439 2293 
Q 1191 2003 1191 1497 
Q 1191 994 1439 701 
Q 1688 409 2113 409 
Q 2538 409 2786 701 
Q 3034 994 3034 1497 
Q 3034 2003 2786 2293 
Q 2538 2584 2113 2584 
z
M 3366 4563 
L 3366 3988 
Q 3128 4100 2886 4159 
Q 2644 4219 2406 4219 
Q 1781 4219 1451 3797 
Q 1122 3375 1075 2522 
Q 1259 2794 1537 2939 
Q 1816 3084 2150 3084 
Q 2853 3084 3261 2657 
Q 3669 2231 3669 1497 
Q 3669 778 3244 343 
Q 2819 -91 2113 -91 
Q 1303 -91 875 529 
Q 447 1150 447 2328 
Q 447 3434 972 4092 
Q 1497 4750 2381 4750 
Q 2619 4750 2861 4703 
Q 3103 4656 3366 4563 
z
" transform="scale(0.015625)"/>
      </defs>
      <use xlink:href="#DejaVuSans-36"/>
     </g>
    </g>
   </g>
   <g id="xtick_14">
    <g id="line2d_16">
     <path d="M 253.000082 194.28589 
L 256.738311 195.391994 
" style="fill: none; stroke: #000000; stroke-width: 0.8; stroke-linecap: square"/>
    </g>
    <g id="text_15">
     <!-- 8 -->
     <g transform="translate(263.109621 214.73422) scale(0.1 -0.1)">
      <defs>
       <path id="DejaVuSans-38" d="M 2034 2216 
Q 1584 2216 1326 1975 
Q 1069 1734 1069 1313 
Q 1069 891 1326 650 
Q 1584 409 2034 409 
Q 2484 409 2743 651 
Q 3003 894 3003 1313 
Q 3003 1734 2745 1975 
Q 2488 2216 2034 2216 
z
M 1403 2484 
Q 997 2584 770 2862 
Q 544 3141 544 3541 
Q 544 4100 942 4425 
Q 1341 4750 2034 4750 
Q 2731 4750 3128 4425 
Q 3525 4100 3525 3541 
Q 3525 3141 3298 2862 
Q 3072 2584 2669 2484 
Q 3125 2378 3379 2068 
Q 3634 1759 3634 1313 
Q 3634 634 3220 271 
Q 2806 -91 2034 -91 
Q 1263 -91 848 271 
Q 434 634 434 1313 
Q 434 1759 690 2068 
Q 947 2378 1403 2484 
z
M 1172 3481 
Q 1172 3119 1398 2916 
Q 1625 2713 2034 2713 
Q 2441 2713 2670 2916 
Q 2900 3119 2900 3481 
Q 2900 3844 2670 4047 
Q 2441 4250 2034 4250 
Q 1625 4250 1398 4047 
Q 1172 3844 1172 3481 
z
" transform="scale(0.015625)"/>
      </defs>
      <use xlink:href="#DejaVuSans-38"/>
     </g>
    </g>
   </g>
   <g id="text_16">
    <!-- $t$ -->
    <g transform="translate(252.021579 253.329672) scale(0.1 -0.1)">
     <defs>
      <path id="DejaVuSans-Oblique-74" d="M 2706 3500 
L 2619 3053 
L 1472 3053 
L 1100 1153 
Q 1081 1047 1072 975 
Q 1063 903 1063 863 
Q 1063 663 1183 572 
Q 1303 481 1569 481 
L 2150 481 
L 2053 0 
L 1503 0 
Q 991 0 739 200 
Q 488 400 488 806 
Q 488 878 497 964 
Q 506 1050 525 1153 
L 897 3053 
L 409 3053 
L 500 3500 
L 978 3500 
L 1172 4494 
L 1747 4494 
L 1556 3500 
L 2706 3500 
z
" transform="scale(0.015625)"/>
     </defs>
     <use xlink:href="#DejaVuSans-Oblique-74" transform="translate(0 0.78125)"/>
    </g>
   </g>
  </g>
  <g id="axis3d_3">
   <g id="line2d_17">
    <path d="M 266.560834 182.015381 
L 271.802814 67.543928 
" style="fill: none; stroke: #000000; stroke-width: 0.8; stroke-linecap: square"/>
   </g>
   <g id="text_17">
    <!-- $u(t, x)$ -->
    <g transform="translate(311.599536 135.333754) rotate(-87.378092) scale(0.1 -0.1)">
     <defs>
      <path id="DejaVuSans-Oblique-75" d="M 428 1388 
L 838 3500 
L 1416 3500 
L 1006 1409 
Q 975 1256 961 1147 
Q 947 1038 947 966 
Q 947 700 1109 554 
Q 1272 409 1569 409 
Q 2031 409 2368 721 
Q 2706 1034 2809 1563 
L 3194 3500 
L 3769 3500 
L 3091 0 
L 2516 0 
L 2631 550 
Q 2388 244 2052 76 
Q 1716 -91 1338 -91 
Q 878 -91 622 161 
Q 366 413 366 863 
Q 366 956 381 1097 
Q 397 1238 428 1388 
z
" transform="scale(0.015625)"/>
      <path id="DejaVuSans-28" d="M 1984 4856 
Q 1566 4138 1362 3434 
Q 1159 2731 1159 2009 
Q 1159 1288 1364 580 
Q 1569 -128 1984 -844 
L 1484 -844 
Q 1016 -109 783 600 
Q 550 1309 550 2009 
Q 550 2706 781 3412 
Q 1013 4119 1484 4856 
L 1984 4856 
z
" transform="scale(0.015625)"/>
      <path id="DejaVuSans-2c" d="M 750 794 
L 1409 794 
L 1409 256 
L 897 -744 
L 494 -744 
L 750 256 
L 750 794 
z
" transform="scale(0.015625)"/>
      <path id="DejaVuSans-29" d="M 513 4856 
L 1013 4856 
Q 1481 4119 1714 3412 
Q 1947 2706 1947 2009 
Q 1947 1309 1714 600 
Q 1481 -109 1013 -844 
L 513 -844 
Q 928 -128 1133 580 
Q 1338 1288 1338 2009 
Q 1338 2731 1133 3434 
Q 928 4138 513 4856 
z
" transform="scale(0.015625)"/>
     </defs>
     <use xlink:href="#DejaVuSans-Oblique-75" transform="translate(0 0.125)"/>
     <use xlink:href="#DejaVuSans-28" transform="translate(63.378906 0.125)"/>
     <use xlink:href="#DejaVuSans-Oblique-74" transform="translate(102.392578 0.125)"/>
     <use xlink:href="#DejaVuSans-2c" transform="translate(141.601562 0.125)"/>
     <use xlink:href="#DejaVuSans-Oblique-78" transform="translate(192.871094 0.125)"/>
     <use xlink:href="#DejaVuSans-29" transform="translate(252.050781 0.125)"/>
    </g>
   </g>
  </g>
  <g id="axes_1">
   <g id="line2d_18">
    <path d="M 43.742447 211.567338 
L 61.726052 217.237476 
L 68.422322 219.129261 
L 72.63391 220.107231 
L 75.795191 220.62854 
L 78.297636 220.829582 
L 80.403348 220.784239 
L 82.2434 220.521461 
L 83.817746 220.076989 
L 85.257675 219.442096 
L 86.5632 218.629747 
L 87.864508 217.542211 
L 89.031251 216.278455 
L 90.192917 214.690341 
L 91.348542 212.715779 
L 92.497046 210.282222 
L 93.637243 207.306014 
L 94.767873 203.692648 
L 95.887675 199.338814 
L 96.99551 194.137635 
L 98.211471 187.244133 
L 99.411703 179.085614 
L 100.716312 168.654453 
L 102.483389 152.503127 
L 104.519987 134.070388 
L 105.5167 126.873511 
L 106.289587 122.71794 
L 106.953245 120.302479 
L 107.497967 119.150931 
L 107.914742 118.772873 
L 108.196496 118.758071 
L 108.481319 118.934271 
L 108.914143 119.554586 
L 109.353354 120.593311 
L 109.948097 122.599009 
L 110.704277 126.018234 
L 111.626363 131.256327 
L 112.871578 139.660527 
L 115.216737 157.440508 
L 117.988579 178.007829 
L 119.794694 189.7811 
L 121.421178 198.96171 
L 122.87866 206.031492 
L 124.319323 212.013193 
L 125.746303 217.051225 
L 127.162405 221.288003 
L 128.570023 224.853538 
L 130.110965 228.135582 
L 131.646169 230.870777 
L 133.177316 233.164739 
L 134.84456 235.264762 
L 136.648551 237.166177 
L 138.590133 238.878417 
L 140.670277 240.421082 
L 143.028809 241.900711 
L 145.806183 243.382728 
L 149.283294 244.974467 
L 153.744322 246.757758 
L 160.179336 249.067322 
L 171.1538 252.735483 
L 179.224507 255.366481 
L 179.224507 255.366481 
" clip-path="url(#pab5cdefe03)" style="fill: none; stroke: #1f77b4; stroke-width: 1.5; stroke-linecap: square"/>
   </g>
   <g id="line2d_19">
    <path d="M 53.178619 203.584105 
L 70.284407 208.923449 
L 77.334914 210.911793 
L 81.786388 211.944168 
L 85.063304 212.47882 
L 87.554367 212.673575 
L 89.651353 212.627834 
L 91.484702 212.371251 
L 93.054251 211.940145 
L 94.490805 211.327764 
L 95.794357 210.548661 
L 97.09502 209.512223 
L 98.392143 208.166033 
L 99.555934 206.638992 
L 100.715712 204.759785 
L 101.870889 202.470358 
L 103.020878 199.706613 
L 104.165131 196.399684 
L 105.429245 192.001786 
L 106.685349 186.751484 
L 107.933521 180.569783 
L 109.29829 172.640618 
L 110.780154 162.671893 
L 112.755103 147.659854 
L 115.641203 125.666145 
L 116.676111 119.310911 
L 117.468609 115.527007 
L 118.141644 113.23321 
L 118.689196 112.07245 
L 119.105491 111.643563 
L 119.385775 111.583094 
L 119.668285 111.710857 
L 120.096216 112.266746 
L 120.529069 113.269477 
L 121.113523 115.304754 
L 121.854739 118.934346 
L 122.756836 124.716248 
L 123.972853 134.260546 
L 126.706731 158.416338 
L 128.642471 174.252133 
L 130.103869 184.526494 
L 131.544066 193.127605 
L 132.966983 200.242745 
L 134.37642 206.105164 
L 135.775619 210.93793 
L 137.167198 214.934528 
L 138.553215 218.255596 
L 139.935268 221.031791 
L 141.45241 223.581306 
L 142.967488 225.709953 
L 144.619038 227.654458 
L 146.407728 229.415141 
L 148.334347 231.004214 
L 150.537512 232.530027 
L 153.018586 233.979619 
L 156.055508 235.488325 
L 159.79031 237.087472 
L 164.923115 239.02364 
L 172.585578 241.652185 
L 187.887961 246.621101 
L 187.887961 246.621101 
" clip-path="url(#pab5cdefe03)" style="fill: none; stroke: #ff7f0e; stroke-width: 1.5; stroke-linecap: square"/>
   </g>
   <g id="line2d_20">
    <path d="M 62.454959 195.736182 
L 79.340135 200.945581 
L 86.352914 202.902376 
L 90.781328 203.921173 
L 94.042119 204.453027 
L 96.652276 204.657402 
L 98.740472 204.61129 
L 100.566988 204.360649 
L 102.261867 203.897379 
L 103.694627 203.285966 
L 105.12567 202.425808 
L 106.424725 201.382952 
L 107.721584 200.043247 
L 109.015864 198.3532 
L 110.307193 196.253016 
L 111.595247 193.677477 
L 112.879788 190.557756 
L 114.160716 186.824495 
L 115.438133 182.41247 
L 116.839699 176.710638 
L 118.238485 170.076635 
L 119.7632 161.777966 
L 121.54455 150.823187 
L 124.495487 130.967302 
L 126.586093 117.610152 
L 127.783819 111.288991 
L 128.59347 107.958275 
L 129.276037 105.930666 
L 129.827731 104.916383 
L 130.245002 104.569758 
L 130.524913 104.557677 
L 130.806238 104.734185 
L 131.230911 105.376343 
L 131.658813 106.50044 
L 132.234251 108.791604 
L 132.814906 112.010851 
L 133.546872 117.293947 
L 134.57884 126.647355 
L 136.638951 148.284299 
L 138.374729 165.232917 
L 139.655281 175.714928 
L 140.920795 184.329764 
L 142.174779 191.359352 
L 143.420244 197.103196 
L 144.659549 201.820578 
L 145.894482 205.721011 
L 147.263122 209.296393 
L 148.629377 212.241914 
L 149.99424 214.691826 
L 151.494845 216.936856 
L 153.131768 218.967262 
L 154.9057 220.789078 
L 156.817403 222.419782 
L 159.004448 223.973478 
L 161.468236 225.438683 
L 164.347601 226.888991 
L 167.920299 228.435932 
L 172.743596 230.2674 
L 179.939195 232.736124 
L 193.455619 237.096347 
L 196.397912 238.030656 
L 196.397912 238.030656 
" clip-path="url(#pab5cdefe03)" style="fill: none; stroke: #2ca02c; stroke-width: 1.5; stroke-linecap: square"/>
   </g>
   <g id="line2d_21">
    <path d="M 71.575491 188.020093 
L 88.370974 193.140774 
L 95.346771 195.061896 
L 99.752477 196.060053 
L 102.997278 196.579398 
L 105.595419 196.777496 
L 107.804739 196.720541 
L 109.624298 196.4598 
L 111.31358 195.99128 
L 112.872316 195.314554 
L 114.300377 194.44061 
L 115.597763 193.393229 
L 116.894177 192.06187 
L 118.189493 190.400278 
L 119.48364 188.358539 
L 120.776628 185.884422 
L 122.068571 182.925415 
L 123.359721 179.43156 
L 124.779573 174.918596 
L 126.199797 169.66241 
L 127.750882 163.057939 
L 129.435408 154.900122 
L 131.388195 144.326113 
L 134.412722 126.513602 
L 137.085928 111.237827 
L 138.441735 104.693736 
L 139.399433 101.027305 
L 140.088102 99.086571 
L 140.641875 98.06526 
L 141.058876 97.675493 
L 141.337672 97.621955 
L 141.6171 97.752063 
L 141.89715 98.082832 
L 142.31836 98.994147 
L 142.740859 100.457722 
L 143.305975 103.365951 
L 143.872681 107.45503 
L 144.582151 114.226349 
L 145.573806 126.144429 
L 147.949223 155.918869 
L 149.049534 166.77411 
L 150.14218 175.477271 
L 151.229621 182.453986 
L 152.313634 188.094689 
L 153.530583 193.2205 
L 154.745977 197.36095 
L 155.960646 200.748073 
L 157.31012 203.832615 
L 158.659949 206.365713 
L 160.145606 208.663151 
L 161.632464 210.56617 
L 163.256111 212.297954 
L 165.017159 213.865732 
L 167.052004 215.378068 
L 169.361979 216.81401 
L 172.084827 218.240991 
L 175.496271 219.764497 
L 179.875451 221.46412 
L 186.194513 223.659241 
L 197.249729 227.227768 
L 204.758405 229.591091 
L 204.758405 229.591091 
" clip-path="url(#pab5cdefe03)" style="fill: none; stroke: #d62728; stroke-width: 1.5; stroke-linecap: square"/>
   </g>
   <g id="line2d_22">
    <path d="M 80.544107 180.432537 
L 97.122302 185.429746 
L 104.189587 187.353086 
L 108.572712 188.331168 
L 111.801584 188.838375 
L 114.387712 189.03041 
L 116.587607 188.973314 
L 118.400173 188.718549 
L 120.083789 188.263633 
L 121.638204 187.61008 
L 123.063261 186.770632 
L 124.488451 185.656301 
L 125.784209 184.363833 
L 127.080161 182.764449 
L 128.376443 180.816837 
L 129.673274 178.479333 
L 131.100806 175.40998 
L 132.529968 171.772571 
L 133.961508 167.529131 
L 135.52698 162.181334 
L 137.228948 155.536908 
L 139.071062 147.433811 
L 141.324375 136.441118 
L 144.950026 117.372299 
L 147.541027 104.21978 
L 149.055958 97.613204 
L 150.024877 94.205527 
L 150.857644 92.050195 
L 151.413533 91.150662 
L 151.830563 90.836397 
L 152.108525 90.831079 
L 152.386353 91.013275 
L 152.802653 91.691242 
L 153.218098 92.939396 
L 153.63225 94.867198 
L 154.181522 98.702142 
L 154.726154 104.211557 
L 155.398691 113.505011 
L 158.162618 156.073256 
L 159.082865 165.333023 
L 160.005374 172.556459 
L 161.06217 179.021192 
L 162.121306 184.112879 
L 163.182522 188.205632 
L 164.378643 191.926796 
L 165.576963 194.946713 
L 166.910828 197.684554 
L 168.247063 199.929158 
L 169.719499 201.966504 
L 171.328702 203.798714 
L 173.075238 205.439645 
L 174.959675 206.910877 
L 177.117572 208.319556 
L 179.68563 209.727069 
L 182.80192 211.174544 
L 186.878378 212.805121 
L 192.469751 214.783049 
L 201.516973 217.72034 
L 212.973342 221.298464 
L 212.973342 221.298464 
" clip-path="url(#pab5cdefe03)" style="fill: none; stroke: #9467bd; stroke-width: 1.5; stroke-linecap: square"/>
   </g>
   <g id="line2d_23">
    <path d="M 89.364572 172.970325 
L 105.855014 177.883819 
L 112.885135 179.772659 
L 117.245812 180.731207 
L 120.458816 181.226637 
L 123.03294 181.412814 
L 125.223366 181.355594 
L 127.157858 181.080394 
L 128.835739 180.620803 
L 130.385678 179.969192 
L 131.807484 179.140192 
L 133.230404 178.049038 
L 134.654633 176.652924 
L 136.080454 174.906859 
L 137.508249 172.765408 
L 138.938513 170.184976 
L 140.371855 167.126525 
L 141.939864 163.208026 
L 143.513467 158.656451 
L 145.225878 153.001879 
L 147.080671 146.091597 
L 149.216325 137.235251 
L 151.913276 124.991327 
L 158.519851 94.414525 
L 159.915522 89.226335 
L 160.893389 86.365343 
L 161.59095 84.914174 
L 162.147496 84.246907 
L 162.563421 84.121905 
L 162.839702 84.259532 
L 163.114943 84.607761 
L 163.525282 85.606253 
L 163.931574 87.320415 
L 164.33228 89.965042 
L 164.725359 93.81946 
L 165.233492 101.365432 
L 165.840001 114.755532 
L 166.910602 139.528775 
L 167.646157 151.177137 
L 168.397628 159.727181 
L 169.28766 167.179056 
L 170.187309 172.854069 
L 171.223633 177.888207 
L 172.266309 181.847747 
L 173.445073 185.394524 
L 174.628649 188.243577 
L 175.948316 190.809479 
L 177.272022 192.904934 
L 178.732075 194.803788 
L 180.328983 196.511879 
L 182.063226 198.044765 
L 184.069144 199.514023 
L 186.348138 200.903006 
L 189.036154 202.279873 
L 192.405558 203.748431 
L 196.867648 205.435367 
L 203.384898 207.637751 
L 214.998917 211.289748 
L 221.046492 213.148969 
L 221.046492 213.148969 
" clip-path="url(#pab5cdefe03)" style="fill: none; stroke: #8c564b; stroke-width: 1.5; stroke-linecap: square"/>
   </g>
   <g id="line2d_24">
    <path d="M 98.040526 165.630375 
L 114.44385 170.462216 
L 121.437064 172.317432 
L 125.775427 173.256973 
L 128.972631 173.740971 
L 131.534763 173.921487 
L 133.715683 173.864159 
L 135.642513 173.595139 
L 137.314474 173.148579 
L 138.859689 172.518581 
L 140.40694 171.636808 
L 141.827321 170.568198 
L 143.250016 169.211916 
L 144.67544 167.529594 
L 146.104093 165.483792 
L 147.536564 163.040039 
L 149.104401 159.886003 
L 150.678532 156.195545 
L 152.392118 151.575101 
L 154.248602 145.876973 
L 156.252171 138.974442 
L 158.543053 130.248869 
L 161.405079 118.40128 
L 168.781865 87.323652 
L 170.189646 82.514792 
L 171.173636 79.810217 
L 171.873839 78.394937 
L 172.431026 77.703929 
L 172.846246 77.531516 
L 173.121308 77.626778 
L 173.394557 77.929315 
L 173.799955 78.874212 
L 174.197834 80.613543 
L 174.584366 83.513751 
L 174.952964 88.204909 
L 175.292798 95.712314 
L 175.688434 111.153089 
L 176.277593 133.606693 
L 176.832372 145.280831 
L 177.421131 153.278626 
L 178.152093 160.225226 
L 179.024683 166.186773 
L 179.910669 170.714072 
L 180.934184 174.74047 
L 181.966035 177.923515 
L 183.134245 180.793355 
L 184.308486 183.116189 
L 185.618802 185.226073 
L 187.065675 187.122973 
L 188.649514 188.819072 
L 190.370689 190.334489 
L 192.362505 191.782433 
L 194.626374 193.148408 
L 197.297349 194.500904 
L 200.646134 195.942882 
L 205.0816 197.599534 
L 211.56053 199.763342 
L 223.242825 203.394464 
L 228.981494 205.138931 
L 228.981494 205.138931 
" clip-path="url(#pab5cdefe03)" style="fill: none; stroke: #e377c2; stroke-width: 1.5; stroke-linecap: square"/>
   </g>
   <g id="line2d_25">
    <path d="M 106.575491 158.409705 
L 122.892334 163.161889 
L 129.848903 164.98433 
L 134.292219 165.928365 
L 137.473962 166.392009 
L 140.024352 166.555839 
L 142.195949 166.485185 
L 144.115244 166.206799 
L 145.781352 165.756084 
L 147.321856 165.128089 
L 148.865187 164.257331 
L 150.28278 163.21065 
L 151.70356 161.892354 
L 153.128027 160.269753 
L 154.556753 158.312025 
L 156.120964 155.762277 
L 157.691875 152.753429 
L 159.402317 148.954893 
L 161.122851 144.58823 
L 162.988275 139.260375 
L 165.137627 132.418746 
L 167.579584 123.861465 
L 170.600298 112.406484 
L 178.880162 80.395717 
L 180.438764 75.516053 
L 181.426908 73.044023 
L 182.128377 71.762756 
L 182.68502 71.163862 
L 183.098473 71.061189 
L 183.371423 71.212133 
L 183.641515 71.589098 
L 183.907859 72.255829 
L 184.297245 74.021632 
L 184.666501 77.281793 
L 184.891917 80.978834 
L 185.083872 87.119119 
L 185.211391 97.938838 
L 185.470392 128.640342 
L 185.850585 140.028594 
L 186.399839 148.624644 
L 186.984197 154.519393 
L 187.709591 159.723879 
L 188.575641 164.270924 
L 189.455296 167.779025 
L 190.471929 170.942239 
L 191.625922 173.756223 
L 192.787958 176.013236 
L 194.086299 178.051181 
L 195.521325 179.876405 
L 197.093334 181.505174 
L 198.802577 182.959851 
L 200.781403 184.351143 
L 203.163763 185.737357 
L 205.952145 187.093566 
L 209.549185 188.579779 
L 214.363206 190.309146 
L 221.617963 192.65633 
L 235.965622 197.020232 
L 236.781865 197.2648 
L 236.781865 197.2648 
" clip-path="url(#pab5cdefe03)" style="fill: none; stroke: #7f7f7f; stroke-width: 1.5; stroke-linecap: square"/>
   </g>
   <g id="line2d_26">
    <path d="M 114.972877 151.305431 
L 131.329418 156.014395 
L 138.250184 157.799999 
L 142.544706 158.69592 
L 145.837619 159.161848 
L 148.376356 159.309405 
L 150.538684 159.225822 
L 152.450462 158.938604 
L 154.238545 158.440104 
L 155.902692 157.732317 
L 157.442594 156.829975 
L 158.857845 155.760341 
L 160.40638 154.293629 
L 161.960458 152.479825 
L 163.52088 150.287533 
L 165.088487 147.691635 
L 166.79583 144.403176 
L 168.513631 140.614407 
L 170.510013 135.620364 
L 172.522874 129.994799 
L 175.097802 122.02779 
L 177.702043 113.264336 
L 181.733698 98.772673 
L 186.680985 80.757409 
L 190.100424 69.797467 
L 191.799097 65.868344 
L 192.773934 64.771879 
L 192.912598 64.659968 
L 193.456439 64.887318 
L 193.982959 66.165456 
L 194.353551 68.560766 
L 194.577965 71.478782 
L 194.745127 77.734109 
L 194.741704 85.938954 
L 194.47036 125.444095 
L 194.695069 135.672028 
L 195.099389 143.079479 
L 195.658365 149.111021 
L 196.364514 154.199265 
L 197.092112 157.983827 
L 197.957545 161.397723 
L 198.961197 164.431196 
L 200.103025 167.105292 
L 201.254455 169.241264 
L 202.542268 171.163962 
L 203.966727 172.884356 
L 205.52801 174.421275 
L 207.226276 175.797091 
L 209.32435 177.197441 
L 211.824965 178.57283 
L 214.730542 179.911101 
L 218.574344 181.422492 
L 223.897691 183.254894 
L 232.459976 185.935143 
L 244.451001 189.523146 
L 244.451001 189.523146 
" clip-path="url(#pab5cdefe03)" style="fill: none; stroke: #bcbd22; stroke-width: 1.5; stroke-linecap: square"/>
   </g>
   <g id="line2d_27">
    <path d="M 123.235984 144.314786 
L 139.756458 149.014989 
L 146.516803 150.730748 
L 150.91572 151.623244 
L 153.940715 152.03508 
L 156.341101 152.177374 
L 158.747212 152.082186 
L 160.397309 151.841818 
L 162.560702 151.237917 
L 163.836686 150.703775 
L 164.987506 150.096811 
L 167.040106 148.650707 
L 169.361241 146.396293 
L 171.95821 143.00051 
L 175.368363 137.04702 
L 176.294495 135.085202 
L 176.691668 134.280853 
L 177.622897 132.121916 
L 178.022049 131.254198 
L 178.690902 129.564003 
L 179.091655 128.650661 
L 179.763769 126.844308 
L 180.166114 125.891348 
L 180.57169 124.701641 
L 180.705198 124.455463 
L 181.111889 123.225654 
L 181.245532 122.98342 
L 181.653372 121.712622 
L 181.787125 121.476312 
L 182.196149 120.163445 
L 182.329984 119.935306 
L 182.740232 118.579064 
L 182.874115 118.36164 
L 183.285629 116.960463 
L 183.419521 116.756617 
L 183.832347 115.308669 
L 183.966203 115.121601 
L 184.380394 113.624762 
L 184.514161 113.458007 
L 184.929774 111.909881 
L 185.063394 111.767283 
L 185.480489 110.165253 
L 185.613897 110.050893 
L 185.756348 109.282197 
L 185.889625 109.183527 
L 186.03254 108.392217 
L 186.165668 108.310284 
L 186.309065 107.495504 
L 186.442027 107.431337 
L 186.585922 106.592263 
L 186.718702 106.546853 
L 186.863111 105.682712 
L 186.99569 105.656992 
L 187.140629 104.767085 
L 187.272993 104.761905 
L 187.418476 103.845635 
L 187.55061 103.861734 
L 187.696649 102.918631 
L 187.82854 102.95661 
L 187.975145 101.986365 
L 188.106783 102.046656 
L 188.253962 101.049146 
L 188.38534 101.131982 
L 188.533097 100.107306 
L 188.664209 100.21269 
L 188.812545 99.161195 
L 188.943392 99.288875 
L 189.092303 98.211183 
L 189.222888 98.360626 
L 189.372366 97.257654 
L 189.502697 97.428033 
L 189.652729 96.301004 
L 189.78282 96.491188 
L 189.933387 95.341639 
L 190.063256 95.550193 
L 190.214335 94.379967 
L 190.344005 94.605163 
L 190.495567 93.416394 
L 190.625065 93.656236 
L 190.777077 92.451321 
L 190.906436 92.703577 
L 191.05886 91.485137 
L 191.188116 91.747382 
L 191.340911 90.518215 
L 191.470102 90.787887 
L 191.623224 89.550912 
L 191.75239 89.825367 
L 191.905793 88.583564 
L 192.034978 88.860143 
L 192.188615 87.616488 
L 192.317859 87.89258 
L 192.471684 86.649987 
L 192.601027 86.923088 
L 192.754995 85.684348 
L 192.884477 85.952117 
L 193.038543 84.71985 
L 193.168201 84.980162 
L 193.322324 83.756774 
L 193.45219 84.007749 
L 193.606333 82.795403 
L 193.736434 83.035442 
L 193.890564 81.836034 
L 194.020925 82.063833 
L 194.175011 80.878988 
L 194.305652 81.093539 
L 194.459669 79.924612 
L 194.590603 80.125206 
L 194.744528 78.97329 
L 194.875766 79.159501 
L 195.029582 78.025447 
L 195.16113 78.197119 
L 195.314822 77.081559 
L 195.44668 77.238781 
L 195.600236 76.142155 
L 195.732402 76.285239 
L 195.885814 75.207823 
L 196.018282 75.33728 
L 196.171543 74.279218 
L 196.304302 74.395734 
L 196.457407 73.357065 
L 196.590446 73.461482 
L 196.743392 72.442168 
L 196.876695 72.535462 
L 197.029479 71.535416 
L 197.163029 71.618685 
L 197.315648 70.637791 
L 197.449424 70.712241 
L 197.601877 69.75038 
L 197.735857 69.817321 
L 197.888141 68.874388 
L 198.022301 68.93523 
L 198.174412 68.011154 
L 198.308724 68.067406 
L 198.460659 67.162169 
L 198.595094 67.215448 
L 198.746848 66.329099 
L 198.881374 66.381144 
L 199.032938 65.513819 
L 199.167519 65.566503 
L 199.318885 64.718443 
L 199.453482 64.773803 
L 199.604638 63.945373 
L 199.739208 64.005645 
L 199.890139 63.197358 
L 200.024632 63.265018 
L 200.175319 62.477566 
L 200.30968 62.555393 
L 200.460101 61.789677 
L 200.594266 61.880834 
L 200.744392 61.138013 
L 200.878287 61.246156 
L 201.028083 60.527697 
L 201.161618 60.657126 
L 201.311042 59.964885 
L 201.444111 60.120755 
L 201.593109 59.457073 
L 201.725581 59.645706 
L 201.874086 59.013545 
L 202.005795 59.242883 
L 202.153723 58.646013 
L 202.284454 58.926344 
L 202.431698 58.369602 
L 202.561164 58.714727 
L 202.707586 58.204378 
L 202.835383 58.633658 
L 202.980804 58.177873 
L 203.106331 58.720086 
L 203.250519 58.329473 
L 203.372814 59.030931 
L 203.515482 58.718526 
L 203.632808 59.663034 
L 203.773694 59.440103 
L 203.882249 60.811652 
L 204.021849 60.65174 
L 204.109373 63.045706 
L 204.256294 62.524615 
L 204.041378 79.653153 
L 203.281034 123.231392 
L 203.35125 132.732974 
L 203.455659 134.103339 
L 203.64677 137.676998 
L 203.952035 142.090583 
L 204.069618 142.795764 
L 204.400232 145.940914 
L 204.752588 148.027536 
L 205.102326 150.212728 
L 205.465075 151.771654 
L 205.825446 153.424112 
L 206.194639 154.657489 
L 206.561884 155.968168 
L 206.935535 156.978859 
L 207.434131 158.296853 
L 207.93571 159.470073 
L 208.565133 160.815104 
L 209.4542 162.337406 
L 210.090972 163.342436 
L 213.177625 166.872848 
L 216.293851 169.268584 
L 219.822599 171.2506 
L 222.053525 172.278839 
L 226.796433 174.129386 
L 233.284756 176.295686 
L 242.207905 179.021396 
L 251.992188 181.910629 
L 251.992188 181.910629 
" clip-path="url(#pab5cdefe03)" style="fill: none; stroke: #17becf; stroke-width: 1.5; stroke-linecap: square"/>
   </g>
  </g>
 </g>
 <defs>
  <clipPath id="pab5cdefe03">
   <rect x="7.2" y="7.2" width="277.2" height="277.2"/>
  </clipPath>
 </defs>
</svg>
