<?xml version="1.0" encoding="utf-8" standalone="no"?>
<!DOCTYPE svg PUBLIC "-//W3C//DTD SVG 1.1//EN"
  "http://www.w3.org/Graphics/SVG/1.1/DTD/svg11.dtd">
<svg xmlns:xlink="http://www.w3.org/1999/xlink" width="441.58125pt" height="174.231837pt" viewBox="0 0 441.58125 174.231837" xmlns="http://www.w3.org/2000/svg" version="1.1">
 <metadata>
  <rdf:RDF xmlns:dc="http://purl.org/dc/elements/1.1/" xmlns:cc="http://creativecommons.org/ns#" xmlns:rdf="http://www.w3.org/1999/02/22-rdf-syntax-ns#">
   <cc:Work>
    <dc:type rdf:resource="http://purl.org/dc/dcmitype/StillImage"/>
    <dc:date>2026-01-05T13:36:24.212211</dc:date>
    <dc:format>image/svg+xml</dc:format>
    <dc:creator>
     <cc:Agent>
      <dc:title>Matplotlib v3.10.3, https://matplotlib.org/</dc:title>
     </cc:Agent>
    </dc:creator>
   </cc:Work>
  </rdf:RDF>
 </metadata>
 <defs>
  <style type="text/css">*{stroke-linejoin: round; stroke-linecap: butt}</style>
 </defs>
 <g id="figure_1">
  <g id="patch_1">
   <path d="M 0 174.231837 
L 441.58125 174.231837 
L 441.58125 -0 
L 0 -0 
z
" style="fill: #ffffff"/>
  </g>
  <g id="axes_1">
   <g id="patch_2">
    <path d="M 43.78125 136.675587 
L 434.38125 136.675587 
L 434.38125 7.2 
L 43.78125 7.2 
z
" style="fill: #ffffff"/>
   </g>
   <g id="FillBetweenPolyCollection_1">
    <defs>
     <path id="m9a14c708f8" d="M 61.535795 -115.431551 
L 61.535795 -58.045302 
L 68.364467 -58.045302 
L 75.193138 -64.518005 
L 82.021809 -79.422476 
L 88.850481 -107.139645 
L 95.679152 -118.500738 
L 102.507823 -118.500738 
L 109.336495 -118.500738 
L 116.165166 -107.139645 
L 122.993837 -107.139645 
L 129.822509 -107.139645 
L 136.65118 -97.046856 
L 143.479851 -79.422476 
L 150.308523 -71.649394 
L 157.137194 -71.649394 
L 163.965865 -71.649394 
L 170.794537 -71.649394 
L 177.623208 -71.649394 
L 184.451879 -71.649394 
L 191.280551 -71.649394 
L 198.109222 -64.518005 
L 204.937893 -58.045302 
L 211.766565 -52.295734 
L 218.595236 -58.045302 
L 225.423907 -52.295734 
L 232.252579 -52.295734 
L 239.08125 -47.405076 
L 245.909921 -47.405076 
L 252.738593 -47.405076 
L 259.567264 -47.405076 
L 266.395935 -47.405076 
L 273.224607 -47.405076 
L 280.053278 -47.405076 
L 286.881949 -47.405076 
L 293.710621 -47.405076 
L 300.539292 -47.405076 
L 307.367963 -47.405076 
L 314.196635 -47.405076 
L 321.025306 -47.405076 
L 327.853977 -47.405076 
L 334.682649 -47.405076 
L 341.51132 -47.405076 
L 348.339991 -47.405076 
L 355.168663 -47.405076 
L 361.997334 -47.405076 
L 368.826005 -47.405076 
L 375.654677 -47.405076 
L 382.483348 -47.405076 
L 389.312019 -47.405076 
L 396.140691 -52.295734 
L 402.969362 -52.295734 
L 409.798033 -52.295734 
L 416.626705 -47.690253 
L 416.626705 -127.75567 
L 416.626705 -127.75567 
L 409.798033 -106.247224 
L 402.969362 -106.247224 
L 396.140691 -106.247224 
L 389.312019 -96.154435 
L 382.483348 -96.154435 
L 375.654677 -96.154435 
L 368.826005 -96.154435 
L 361.997334 -96.154435 
L 355.168663 -96.154435 
L 348.339991 -96.154435 
L 341.51132 -96.154435 
L 334.682649 -96.154435 
L 327.853977 -96.154435 
L 321.025306 -96.154435 
L 314.196635 -96.154435 
L 307.367963 -96.154435 
L 300.539292 -96.154435 
L 293.710621 -96.154435 
L 286.881949 -96.154435 
L 280.053278 -96.154435 
L 273.224607 -96.154435 
L 266.395935 -96.154435 
L 259.567264 -96.154435 
L 252.738593 -96.154435 
L 245.909921 -96.154435 
L 239.08125 -96.154435 
L 232.252579 -106.247224 
L 225.423907 -106.247224 
L 218.595236 -115.431551 
L 211.766565 -106.247224 
L 204.937893 -115.431551 
L 198.109222 -123.871604 
L 191.280551 -131.644686 
L 184.451879 -131.644686 
L 177.623208 -131.644686 
L 170.794537 -131.644686 
L 163.965865 -131.644686 
L 157.137194 -131.644686 
L 150.308523 -131.644686 
L 143.479851 -138.776075 
L 136.65118 -150.998346 
L 129.822509 -155.889004 
L 122.993837 -155.889004 
L 116.165166 -155.889004 
L 109.336495 -159.64988 
L 102.507823 -159.64988 
L 95.679152 -159.64988 
L 88.850481 -155.889004 
L 82.021809 -138.776075 
L 75.193138 -123.871604 
L 68.364467 -115.431551 
L 61.535795 -115.431551 
z
" style="stroke: #440154; stroke-opacity: 0.15"/>
    </defs>
    <g clip-path="url(#pf5b8bc87ba)">
     <use xlink:href="#m9a14c708f8" x="0" y="174.231837" style="fill: #440154; fill-opacity: 0.15; stroke: #440154; stroke-opacity: 0.15"/>
    </g>
   </g>
   <g id="FillBetweenPolyCollection_2">
    <defs>
     <path id="m1537fc5496" d="M 61.535795 -99.723072 
L 61.535795 -57.263983 
L 68.364467 -65.102382 
L 75.193138 -73.68226 
L 82.021809 -92.881826 
L 88.850481 -121.445351 
L 95.679152 -121.445351 
L 102.507823 -135.488136 
L 109.336495 -121.445351 
L 116.165166 -121.445351 
L 122.993837 -115.181398 
L 129.822509 -115.181398 
L 136.65118 -109.243644 
L 143.479851 -92.881826 
L 150.308523 -82.94142 
L 157.137194 -87.823999 
L 163.965865 -82.94142 
L 170.794537 -78.228189 
L 177.623208 -78.228189 
L 184.451879 -65.102382 
L 191.280551 -61.083528 
L 198.109222 -57.263983 
L 204.937893 -53.666895 
L 211.766565 -50.327255 
L 218.595236 -50.327255 
L 225.423907 -47.299705 
L 232.252579 -47.299705 
L 239.08125 -44.675048 
L 245.909921 -44.675048 
L 252.738593 -44.675048 
L 259.567264 -44.675048 
L 266.395935 -44.675048 
L 273.224607 -44.675048 
L 280.053278 -44.675048 
L 286.881949 -44.675048 
L 293.710621 -44.675048 
L 300.539292 -44.675048 
L 307.367963 -44.675048 
L 314.196635 -44.675048 
L 321.025306 -44.675048 
L 327.853977 -44.675048 
L 334.682649 -44.675048 
L 341.51132 -44.675048 
L 348.339991 -44.675048 
L 355.168663 -44.675048 
L 361.997334 -47.299705 
L 368.826005 -47.299705 
L 375.654677 -44.675048 
L 382.483348 -44.675048 
L 389.312019 -44.675048 
L 396.140691 -47.299705 
L 402.969362 -50.327255 
L 409.798033 -56.54608 
L 416.626705 -46.547422 
L 416.626705 -118.68556 
L 416.626705 -118.68556 
L 409.798033 -97.679533 
L 402.969362 -88.112682 
L 396.140691 -81.848728 
L 389.312019 -75.152034 
L 382.483348 -75.152034 
L 375.654677 -75.152034 
L 368.826005 -81.848728 
L 361.997334 -81.848728 
L 355.168663 -75.152034 
L 348.339991 -75.152034 
L 341.51132 -75.152034 
L 334.682649 -75.152034 
L 327.853977 -75.152034 
L 321.025306 -75.152034 
L 314.196635 -75.152034 
L 307.367963 -75.152034 
L 300.539292 -75.152034 
L 293.710621 -75.152034 
L 286.881949 -75.152034 
L 280.053278 -75.152034 
L 273.224607 -75.152034 
L 266.395935 -75.152034 
L 259.567264 -75.152034 
L 252.738593 -75.152034 
L 245.909921 -75.152034 
L 239.08125 -75.152034 
L 232.252579 -81.848728 
L 225.423907 -81.848728 
L 218.595236 -88.112682 
L 211.766565 -88.112682 
L 204.937893 -94.050436 
L 198.109222 -99.723072 
L 191.280551 -105.168718 
L 184.451879 -110.412254 
L 177.623208 -125.065891 
L 170.794537 -125.065891 
L 163.965865 -129.61182 
L 157.137194 -133.988873 
L 150.308523 -129.61182 
L 143.479851 -138.191698 
L 136.65118 -149.627185 
L 129.822509 -152.966825 
L 122.993837 -152.966825 
L 116.165166 -155.994375 
L 109.336495 -155.994375 
L 102.507823 -160.674921 
L 95.679152 -155.994375 
L 88.850481 -155.994375 
L 82.021809 -138.191698 
L 75.193138 -120.35266 
L 68.364467 -110.412254 
L 61.535795 -99.723072 
z
" style="stroke: #31688e; stroke-opacity: 0.15"/>
    </defs>
    <g clip-path="url(#pf5b8bc87ba)">
     <use xlink:href="#m1537fc5496" x="0" y="174.231837" style="fill: #31688e; fill-opacity: 0.15; stroke: #31688e; stroke-opacity: 0.15"/>
    </g>
   </g>
   <g id="FillBetweenPolyCollection_3">
    <defs>
     <path id="m1fdf5adaf7" d="M 61.535795 -92.308226 
L 61.535795 -57.371776 
L 68.364467 -68.961629 
L 75.193138 -81.795085 
L 82.021809 -95.765286 
L 88.850481 -127.944572 
L 95.679152 -127.944572 
L 102.507823 -142.954855 
L 109.336495 -132.61332 
L 116.165166 -132.61332 
L 122.993837 -123.484083 
L 129.822509 -127.944572 
L 136.65118 -119.188008 
L 143.479851 -107.04707 
L 150.308523 -95.765286 
L 157.137194 -99.443255 
L 163.965865 -92.16399 
L 170.794537 -88.636395 
L 177.623208 -85.180487 
L 184.451879 -68.961629 
L 191.280551 -62.994648 
L 198.109222 -60.136867 
L 204.937893 -57.371776 
L 211.766565 -52.161081 
L 218.595236 -54.708881 
L 225.423907 -49.74631 
L 232.252579 -49.74631 
L 239.08125 -45.432832 
L 245.909921 -45.432832 
L 252.738593 -43.63796 
L 259.567264 -43.63796 
L 266.395935 -43.63796 
L 273.224607 -43.63796 
L 280.053278 -43.63796 
L 286.881949 -43.63796 
L 293.710621 -43.63796 
L 300.539292 -43.63796 
L 307.367963 -43.63796 
L 314.196635 -43.63796 
L 321.025306 -43.63796 
L 327.853977 -43.63796 
L 334.682649 -43.63796 
L 341.51132 -43.63796 
L 348.339991 -45.432832 
L 355.168663 -45.432832 
L 361.997334 -47.490443 
L 368.826005 -47.490443 
L 375.654677 -45.432832 
L 382.483348 -45.432832 
L 389.312019 -45.432832 
L 396.140691 -49.74631 
L 402.969362 -52.161081 
L 409.798033 -54.291288 
L 416.626705 -60.269109 
L 416.626705 -132.426706 
L 416.626705 -132.426706 
L 409.798033 -87.046933 
L 402.969362 -84.106072 
L 396.140691 -79.809997 
L 389.312019 -70.68076 
L 382.483348 -70.68076 
L 375.654677 -70.68076 
L 368.826005 -75.349508 
L 361.997334 -75.349508 
L 355.168663 -70.68076 
L 348.339991 -70.68076 
L 341.51132 -65.728248 
L 334.682649 -65.728248 
L 327.853977 -65.728248 
L 321.025306 -65.728248 
L 314.196635 -65.728248 
L 307.367963 -65.728248 
L 300.539292 -65.728248 
L 293.710621 -65.728248 
L 286.881949 -65.728248 
L 280.053278 -65.728248 
L 273.224607 -65.728248 
L 266.395935 -65.728248 
L 259.567264 -65.728248 
L 252.738593 -65.728248 
L 245.909921 -70.68076 
L 239.08125 -70.68076 
L 232.252579 -79.809997 
L 225.423907 -79.809997 
L 218.595236 -88.265778 
L 211.766565 -84.106072 
L 204.937893 -92.308226 
L 198.109222 -96.24701 
L 191.280551 -100.092076 
L 184.451879 -107.528794 
L 177.623208 -124.814303 
L 170.794537 -128.059184 
L 163.965865 -131.232539 
L 157.137194 -137.356068 
L 150.308523 -134.332451 
L 143.479851 -143.157213 
L 136.65118 -151.132999 
L 129.822509 -155.803637 
L 122.993837 -153.54777 
L 116.165166 -157.861248 
L 109.336495 -157.861248 
L 102.507823 -161.071118 
L 95.679152 -155.803637 
L 88.850481 -155.803637 
L 82.021809 -134.332451 
L 75.193138 -121.498995 
L 68.364467 -107.528794 
L 61.535795 -92.308226 
z
" style="stroke: #35b779; stroke-opacity: 0.15"/>
    </defs>
    <g clip-path="url(#pf5b8bc87ba)">
     <use xlink:href="#m1fdf5adaf7" x="0" y="174.231837" style="fill: #35b779; fill-opacity: 0.15; stroke: #35b779; stroke-opacity: 0.15"/>
    </g>
   </g>
   <g id="FillBetweenPolyCollection_4">
    <defs>
     <path id="m0059372304" d="M 61.535795 -91.02973 
L 61.535795 -57.963658 
L 68.364467 -65.708403 
L 75.193138 -82.826838 
L 82.021809 -98.584145 
L 88.850481 -126.381234 
L 95.679152 -130.526905 
L 102.507823 -144.439293 
L 109.336495 -134.860429 
L 116.165166 -134.860429 
L 122.993837 -126.381234 
L 129.822509 -130.526905 
L 136.65118 -122.38311 
L 143.479851 -107.454505 
L 150.308523 -97.087939 
L 157.137194 -97.087939 
L 163.965865 -90.495724 
L 170.794537 -87.288097 
L 177.623208 -87.288097 
L 184.451879 -69.246117 
L 191.280551 -61.048589 
L 198.109222 -58.458265 
L 204.937893 -55.949058 
L 211.766565 -51.212779 
L 218.595236 -53.529896 
L 225.423907 -49.014298 
L 232.252579 -49.014298 
L 239.08125 -45.080957 
L 245.909921 -45.080957 
L 252.738593 -43.441504 
L 259.567264 -43.441504 
L 266.395935 -43.441504 
L 273.224607 -43.441504 
L 280.053278 -43.441504 
L 286.881949 -43.441504 
L 293.710621 -43.441504 
L 300.539292 -43.441504 
L 307.367963 -43.441504 
L 314.196635 -43.441504 
L 321.025306 -43.441504 
L 327.853977 -43.441504 
L 334.682649 -43.441504 
L 341.51132 -43.441504 
L 348.339991 -45.080957 
L 355.168663 -45.080957 
L 361.997334 -46.958296 
L 368.826005 -46.958296 
L 375.654677 -45.080957 
L 382.483348 -45.080957 
L 389.312019 -45.080957 
L 396.140691 -49.014298 
L 402.969362 -51.212779 
L 409.798033 -53.181862 
L 416.626705 -57.854247 
L 416.626705 -125.860056 
L 416.626705 -125.860056 
L 409.798033 -83.73834 
L 402.969362 -80.91097 
L 396.140691 -76.912846 
L 389.312019 -68.433651 
L 382.483348 -68.433651 
L 375.654677 -68.433651 
L 368.826005 -72.767175 
L 361.997334 -72.767175 
L 355.168663 -68.433651 
L 348.339991 -68.433651 
L 341.51132 -63.842936 
L 334.682649 -63.842936 
L 327.853977 -63.842936 
L 321.025306 -63.842936 
L 314.196635 -63.842936 
L 307.367963 -63.842936 
L 300.539292 -63.842936 
L 293.710621 -63.842936 
L 286.881949 -63.842936 
L 280.053278 -63.842936 
L 273.224607 -63.842936 
L 266.395935 -63.842936 
L 259.567264 -63.842936 
L 252.738593 -63.842936 
L 245.909921 -68.433651 
L 239.08125 -68.433651 
L 232.252579 -76.912846 
L 225.423907 -76.912846 
L 218.595236 -84.78738 
L 211.766565 -80.91097 
L 204.937893 -88.559744 
L 198.109222 -92.2407 
L 191.280551 -95.839575 
L 184.451879 -106.206141 
L 177.623208 -125.28635 
L 170.794537 -125.28635 
L 163.965865 -128.265719 
L 157.137194 -134.047963 
L 150.308523 -134.047963 
L 143.479851 -142.245491 
L 136.65118 -152.081301 
L 129.822509 -156.335784 
L 122.993837 -154.279782 
L 116.165166 -158.213123 
L 109.336495 -158.213123 
L 102.507823 -161.146583 
L 95.679152 -156.335784 
L 88.850481 -154.279782 
L 82.021809 -134.874136 
L 75.193138 -120.467242 
L 68.364467 -101.38806 
L 61.535795 -91.02973 
z
" style="stroke: #fde725; stroke-opacity: 0.15"/>
    </defs>
    <g clip-path="url(#pf5b8bc87ba)">
     <use xlink:href="#m0059372304" x="0" y="174.231837" style="fill: #fde725; fill-opacity: 0.15; stroke: #fde725; stroke-opacity: 0.15"/>
    </g>
   </g>
   <g id="matplotlib.axis_1">
    <g id="xtick_1">
     <g id="line2d_1">
      <defs>
       <path id="md5da3c5844" d="M 0 0 
L 0 3.5 
" style="stroke: #000000; stroke-width: 0.8"/>
      </defs>
      <g>
       <use xlink:href="#md5da3c5844" x="54.707124" y="136.675587" style="stroke: #000000; stroke-width: 0.8"/>
      </g>
     </g>
     <g id="text_1">
      <!-- 0 -->
      <g transform="translate(51.525874 151.274024) scale(0.1 -0.1)">
       <defs>
        <path id="DejaVuSans-30" d="M 2034 4250 
Q 1547 4250 1301 3770 
Q 1056 3291 1056 2328 
Q 1056 1369 1301 889 
Q 1547 409 2034 409 
Q 2525 409 2770 889 
Q 3016 1369 3016 2328 
Q 3016 3291 2770 3770 
Q 2525 4250 2034 4250 
z
M 2034 4750 
Q 2819 4750 3233 4129 
Q 3647 3509 3647 2328 
Q 3647 1150 3233 529 
Q 2819 -91 2034 -91 
Q 1250 -91 836 529 
Q 422 1150 422 2328 
Q 422 3509 836 4129 
Q 1250 4750 2034 4750 
z
" transform="scale(0.015625)"/>
       </defs>
       <use xlink:href="#DejaVuSans-30"/>
      </g>
     </g>
    </g>
    <g id="xtick_2">
     <g id="line2d_2">
      <g>
       <use xlink:href="#md5da3c5844" x="122.993837" y="136.675587" style="stroke: #000000; stroke-width: 0.8"/>
      </g>
     </g>
     <g id="text_2">
      <!-- 10 -->
      <g transform="translate(116.631337 151.274024) scale(0.1 -0.1)">
       <defs>
        <path id="DejaVuSans-31" d="M 794 531 
L 1825 531 
L 1825 4091 
L 703 3866 
L 703 4441 
L 1819 4666 
L 2450 4666 
L 2450 531 
L 3481 531 
L 3481 0 
L 794 0 
L 794 531 
z
" transform="scale(0.015625)"/>
       </defs>
       <use xlink:href="#DejaVuSans-31"/>
       <use xlink:href="#DejaVuSans-30" transform="translate(63.623047 0)"/>
      </g>
     </g>
    </g>
    <g id="xtick_3">
     <g id="line2d_3">
      <g>
       <use xlink:href="#md5da3c5844" x="191.280551" y="136.675587" style="stroke: #000000; stroke-width: 0.8"/>
      </g>
     </g>
     <g id="text_3">
      <!-- 20 -->
      <g transform="translate(184.918051 151.274024) scale(0.1 -0.1)">
       <defs>
        <path id="DejaVuSans-32" d="M 1228 531 
L 3431 531 
L 3431 0 
L 469 0 
L 469 531 
Q 828 903 1448 1529 
Q 2069 2156 2228 2338 
Q 2531 2678 2651 2914 
Q 2772 3150 2772 3378 
Q 2772 3750 2511 3984 
Q 2250 4219 1831 4219 
Q 1534 4219 1204 4116 
Q 875 4013 500 3803 
L 500 4441 
Q 881 4594 1212 4672 
Q 1544 4750 1819 4750 
Q 2544 4750 2975 4387 
Q 3406 4025 3406 3419 
Q 3406 3131 3298 2873 
Q 3191 2616 2906 2266 
Q 2828 2175 2409 1742 
Q 1991 1309 1228 531 
z
" transform="scale(0.015625)"/>
       </defs>
       <use xlink:href="#DejaVuSans-32"/>
       <use xlink:href="#DejaVuSans-30" transform="translate(63.623047 0)"/>
      </g>
     </g>
    </g>
    <g id="xtick_4">
     <g id="line2d_4">
      <g>
       <use xlink:href="#md5da3c5844" x="259.567264" y="136.675587" style="stroke: #000000; stroke-width: 0.8"/>
      </g>
     </g>
     <g id="text_4">
      <!-- 30 -->
      <g transform="translate(253.204764 151.274024) scale(0.1 -0.1)">
       <defs>
        <path id="DejaVuSans-33" d="M 2597 2516 
Q 3050 2419 3304 2112 
Q 3559 1806 3559 1356 
Q 3559 666 3084 287 
Q 2609 -91 1734 -91 
Q 1441 -91 1130 -33 
Q 819 25 488 141 
L 488 750 
Q 750 597 1062 519 
Q 1375 441 1716 441 
Q 2309 441 2620 675 
Q 2931 909 2931 1356 
Q 2931 1769 2642 2001 
Q 2353 2234 1838 2234 
L 1294 2234 
L 1294 2753 
L 1863 2753 
Q 2328 2753 2575 2939 
Q 2822 3125 2822 3475 
Q 2822 3834 2567 4026 
Q 2313 4219 1838 4219 
Q 1578 4219 1281 4162 
Q 984 4106 628 3988 
L 628 4550 
Q 988 4650 1302 4700 
Q 1616 4750 1894 4750 
Q 2613 4750 3031 4423 
Q 3450 4097 3450 3541 
Q 3450 3153 3228 2886 
Q 3006 2619 2597 2516 
z
" transform="scale(0.015625)"/>
       </defs>
       <use xlink:href="#DejaVuSans-33"/>
       <use xlink:href="#DejaVuSans-30" transform="translate(63.623047 0)"/>
      </g>
     </g>
    </g>
    <g id="xtick_5">
     <g id="line2d_5">
      <g>
       <use xlink:href="#md5da3c5844" x="327.853977" y="136.675587" style="stroke: #000000; stroke-width: 0.8"/>
      </g>
     </g>
     <g id="text_5">
      <!-- 40 -->
      <g transform="translate(321.491477 151.274024) scale(0.1 -0.1)">
       <defs>
        <path id="DejaVuSans-34" d="M 2419 4116 
L 825 1625 
L 2419 1625 
L 2419 4116 
z
M 2253 4666 
L 3047 4666 
L 3047 1625 
L 3713 1625 
L 3713 1100 
L 3047 1100 
L 3047 0 
L 2419 0 
L 2419 1100 
L 313 1100 
L 313 1709 
L 2253 4666 
z
" transform="scale(0.015625)"/>
       </defs>
       <use xlink:href="#DejaVuSans-34"/>
       <use xlink:href="#DejaVuSans-30" transform="translate(63.623047 0)"/>
      </g>
     </g>
    </g>
    <g id="xtick_6">
     <g id="line2d_6">
      <g>
       <use xlink:href="#md5da3c5844" x="396.140691" y="136.675587" style="stroke: #000000; stroke-width: 0.8"/>
      </g>
     </g>
     <g id="text_6">
      <!-- 50 -->
      <g transform="translate(389.778191 151.274024) scale(0.1 -0.1)">
       <defs>
        <path id="DejaVuSans-35" d="M 691 4666 
L 3169 4666 
L 3169 4134 
L 1269 4134 
L 1269 2991 
Q 1406 3038 1543 3061 
Q 1681 3084 1819 3084 
Q 2600 3084 3056 2656 
Q 3513 2228 3513 1497 
Q 3513 744 3044 326 
Q 2575 -91 1722 -91 
Q 1428 -91 1123 -41 
Q 819 9 494 109 
L 494 744 
Q 775 591 1075 516 
Q 1375 441 1709 441 
Q 2250 441 2565 725 
Q 2881 1009 2881 1497 
Q 2881 1984 2565 2268 
Q 2250 2553 1709 2553 
Q 1456 2553 1204 2497 
Q 953 2441 691 2322 
L 691 4666 
z
" transform="scale(0.015625)"/>
       </defs>
       <use xlink:href="#DejaVuSans-35"/>
       <use xlink:href="#DejaVuSans-30" transform="translate(63.623047 0)"/>
      </g>
     </g>
    </g>
    <g id="text_7">
     <!-- ISO week of year -->
     <g transform="translate(196.616406 164.952149) scale(0.1 -0.1)">
      <defs>
       <path id="DejaVuSans-49" d="M 628 4666 
L 1259 4666 
L 1259 0 
L 628 0 
L 628 4666 
z
" transform="scale(0.015625)"/>
       <path id="DejaVuSans-53" d="M 3425 4513 
L 3425 3897 
Q 3066 4069 2747 4153 
Q 2428 4238 2131 4238 
Q 1616 4238 1336 4038 
Q 1056 3838 1056 3469 
Q 1056 3159 1242 3001 
Q 1428 2844 1947 2747 
L 2328 2669 
Q 3034 2534 3370 2195 
Q 3706 1856 3706 1288 
Q 3706 609 3251 259 
Q 2797 -91 1919 -91 
Q 1588 -91 1214 -16 
Q 841 59 441 206 
L 441 856 
Q 825 641 1194 531 
Q 1563 422 1919 422 
Q 2459 422 2753 634 
Q 3047 847 3047 1241 
Q 3047 1584 2836 1778 
Q 2625 1972 2144 2069 
L 1759 2144 
Q 1053 2284 737 2584 
Q 422 2884 422 3419 
Q 422 4038 858 4394 
Q 1294 4750 2059 4750 
Q 2388 4750 2728 4690 
Q 3069 4631 3425 4513 
z
" transform="scale(0.015625)"/>
       <path id="DejaVuSans-4f" d="M 2522 4238 
Q 1834 4238 1429 3725 
Q 1025 3213 1025 2328 
Q 1025 1447 1429 934 
Q 1834 422 2522 422 
Q 3209 422 3611 934 
Q 4013 1447 4013 2328 
Q 4013 3213 3611 3725 
Q 3209 4238 2522 4238 
z
M 2522 4750 
Q 3503 4750 4090 4092 
Q 4678 3434 4678 2328 
Q 4678 1225 4090 567 
Q 3503 -91 2522 -91 
Q 1538 -91 948 565 
Q 359 1222 359 2328 
Q 359 3434 948 4092 
Q 1538 4750 2522 4750 
z
" transform="scale(0.015625)"/>
       <path id="DejaVuSans-20" transform="scale(0.015625)"/>
       <path id="DejaVuSans-77" d="M 269 3500 
L 844 3500 
L 1563 769 
L 2278 3500 
L 2956 3500 
L 3675 769 
L 4391 3500 
L 4966 3500 
L 4050 0 
L 3372 0 
L 2619 2869 
L 1863 0 
L 1184 0 
L 269 3500 
z
" transform="scale(0.015625)"/>
       <path id="DejaVuSans-65" d="M 3597 1894 
L 3597 1613 
L 953 1613 
Q 991 1019 1311 708 
Q 1631 397 2203 397 
Q 2534 397 2845 478 
Q 3156 559 3463 722 
L 3463 178 
Q 3153 47 2828 -22 
Q 2503 -91 2169 -91 
Q 1331 -91 842 396 
Q 353 884 353 1716 
Q 353 2575 817 3079 
Q 1281 3584 2069 3584 
Q 2775 3584 3186 3129 
Q 3597 2675 3597 1894 
z
M 3022 2063 
Q 3016 2534 2758 2815 
Q 2500 3097 2075 3097 
Q 1594 3097 1305 2825 
Q 1016 2553 972 2059 
L 3022 2063 
z
" transform="scale(0.015625)"/>
       <path id="DejaVuSans-6b" d="M 581 4863 
L 1159 4863 
L 1159 1991 
L 2875 3500 
L 3609 3500 
L 1753 1863 
L 3688 0 
L 2938 0 
L 1159 1709 
L 1159 0 
L 581 0 
L 581 4863 
z
" transform="scale(0.015625)"/>
       <path id="DejaVuSans-6f" d="M 1959 3097 
Q 1497 3097 1228 2736 
Q 959 2375 959 1747 
Q 959 1119 1226 758 
Q 1494 397 1959 397 
Q 2419 397 2687 759 
Q 2956 1122 2956 1747 
Q 2956 2369 2687 2733 
Q 2419 3097 1959 3097 
z
M 1959 3584 
Q 2709 3584 3137 3096 
Q 3566 2609 3566 1747 
Q 3566 888 3137 398 
Q 2709 -91 1959 -91 
Q 1206 -91 779 398 
Q 353 888 353 1747 
Q 353 2609 779 3096 
Q 1206 3584 1959 3584 
z
" transform="scale(0.015625)"/>
       <path id="DejaVuSans-66" d="M 2375 4863 
L 2375 4384 
L 1825 4384 
Q 1516 4384 1395 4259 
Q 1275 4134 1275 3809 
L 1275 3500 
L 2222 3500 
L 2222 3053 
L 1275 3053 
L 1275 0 
L 697 0 
L 697 3053 
L 147 3053 
L 147 3500 
L 697 3500 
L 697 3744 
Q 697 4328 969 4595 
Q 1241 4863 1831 4863 
L 2375 4863 
z
" transform="scale(0.015625)"/>
       <path id="DejaVuSans-79" d="M 2059 -325 
Q 1816 -950 1584 -1140 
Q 1353 -1331 966 -1331 
L 506 -1331 
L 506 -850 
L 844 -850 
Q 1081 -850 1212 -737 
Q 1344 -625 1503 -206 
L 1606 56 
L 191 3500 
L 800 3500 
L 1894 763 
L 2988 3500 
L 3597 3500 
L 2059 -325 
z
" transform="scale(0.015625)"/>
       <path id="DejaVuSans-61" d="M 2194 1759 
Q 1497 1759 1228 1600 
Q 959 1441 959 1056 
Q 959 750 1161 570 
Q 1363 391 1709 391 
Q 2188 391 2477 730 
Q 2766 1069 2766 1631 
L 2766 1759 
L 2194 1759 
z
M 3341 1997 
L 3341 0 
L 2766 0 
L 2766 531 
Q 2569 213 2275 61 
Q 1981 -91 1556 -91 
Q 1019 -91 701 211 
Q 384 513 384 1019 
Q 384 1609 779 1909 
Q 1175 2209 1959 2209 
L 2766 2209 
L 2766 2266 
Q 2766 2663 2505 2880 
Q 2244 3097 1772 3097 
Q 1472 3097 1187 3025 
Q 903 2953 641 2809 
L 641 3341 
Q 956 3463 1253 3523 
Q 1550 3584 1831 3584 
Q 2591 3584 2966 3190 
Q 3341 2797 3341 1997 
z
" transform="scale(0.015625)"/>
       <path id="DejaVuSans-72" d="M 2631 2963 
Q 2534 3019 2420 3045 
Q 2306 3072 2169 3072 
Q 1681 3072 1420 2755 
Q 1159 2438 1159 1844 
L 1159 0 
L 581 0 
L 581 3500 
L 1159 3500 
L 1159 2956 
Q 1341 3275 1631 3429 
Q 1922 3584 2338 3584 
Q 2397 3584 2469 3576 
Q 2541 3569 2628 3553 
L 2631 2963 
z
" transform="scale(0.015625)"/>
      </defs>
      <use xlink:href="#DejaVuSans-49"/>
      <use xlink:href="#DejaVuSans-53" transform="translate(29.492188 0)"/>
      <use xlink:href="#DejaVuSans-4f" transform="translate(92.96875 0)"/>
      <use xlink:href="#DejaVuSans-20" transform="translate(171.679688 0)"/>
      <use xlink:href="#DejaVuSans-77" transform="translate(203.466797 0)"/>
      <use xlink:href="#DejaVuSans-65" transform="translate(285.253906 0)"/>
      <use xlink:href="#DejaVuSans-65" transform="translate(346.777344 0)"/>
      <use xlink:href="#DejaVuSans-6b" transform="translate(408.300781 0)"/>
      <use xlink:href="#DejaVuSans-20" transform="translate(466.210938 0)"/>
      <use xlink:href="#DejaVuSans-6f" transform="translate(497.998047 0)"/>
      <use xlink:href="#DejaVuSans-66" transform="translate(559.179688 0)"/>
      <use xlink:href="#DejaVuSans-20" transform="translate(594.384766 0)"/>
      <use xlink:href="#DejaVuSans-79" transform="translate(626.171875 0)"/>
      <use xlink:href="#DejaVuSans-65" transform="translate(685.351562 0)"/>
      <use xlink:href="#DejaVuSans-61" transform="translate(746.875 0)"/>
      <use xlink:href="#DejaVuSans-72" transform="translate(808.154297 0)"/>
     </g>
    </g>
   </g>
   <g id="matplotlib.axis_2">
    <g id="ytick_1">
     <g id="line2d_7">
      <defs>
       <path id="m7ecf3b05b0" d="M 0 0 
L -3.5 0 
" style="stroke: #000000; stroke-width: 0.8"/>
      </defs>
      <g>
       <use xlink:href="#m7ecf3b05b0" x="43.78125" y="132.904727" style="stroke: #000000; stroke-width: 0.8"/>
      </g>
     </g>
     <g id="text_8">
      <!-- 0.0 -->
      <g transform="translate(20.878125 136.703946) scale(0.1 -0.1)">
       <defs>
        <path id="DejaVuSans-2e" d="M 684 794 
L 1344 794 
L 1344 0 
L 684 0 
L 684 794 
z
" transform="scale(0.015625)"/>
       </defs>
       <use xlink:href="#DejaVuSans-30"/>
       <use xlink:href="#DejaVuSans-2e" transform="translate(63.623047 0)"/>
       <use xlink:href="#DejaVuSans-30" transform="translate(95.410156 0)"/>
      </g>
     </g>
    </g>
    <g id="ytick_2">
     <g id="line2d_8">
      <g>
       <use xlink:href="#m7ecf3b05b0" x="43.78125" y="108.776755" style="stroke: #000000; stroke-width: 0.8"/>
      </g>
     </g>
     <g id="text_9">
      <!-- 0.2 -->
      <g transform="translate(20.878125 112.575973) scale(0.1 -0.1)">
       <use xlink:href="#DejaVuSans-30"/>
       <use xlink:href="#DejaVuSans-2e" transform="translate(63.623047 0)"/>
       <use xlink:href="#DejaVuSans-32" transform="translate(95.410156 0)"/>
      </g>
     </g>
    </g>
    <g id="ytick_3">
     <g id="line2d_9">
      <g>
       <use xlink:href="#m7ecf3b05b0" x="43.78125" y="84.648783" style="stroke: #000000; stroke-width: 0.8"/>
      </g>
     </g>
     <g id="text_10">
      <!-- 0.4 -->
      <g transform="translate(20.878125 88.448001) scale(0.1 -0.1)">
       <use xlink:href="#DejaVuSans-30"/>
       <use xlink:href="#DejaVuSans-2e" transform="translate(63.623047 0)"/>
       <use xlink:href="#DejaVuSans-34" transform="translate(95.410156 0)"/>
      </g>
     </g>
    </g>
    <g id="ytick_4">
     <g id="line2d_10">
      <g>
       <use xlink:href="#m7ecf3b05b0" x="43.78125" y="60.520811" style="stroke: #000000; stroke-width: 0.8"/>
      </g>
     </g>
     <g id="text_11">
      <!-- 0.6 -->
      <g transform="translate(20.878125 64.320029) scale(0.1 -0.1)">
       <defs>
        <path id="DejaVuSans-36" d="M 2113 2584 
Q 1688 2584 1439 2293 
Q 1191 2003 1191 1497 
Q 1191 994 1439 701 
Q 1688 409 2113 409 
Q 2538 409 2786 701 
Q 3034 994 3034 1497 
Q 3034 2003 2786 2293 
Q 2538 2584 2113 2584 
z
M 3366 4563 
L 3366 3988 
Q 3128 4100 2886 4159 
Q 2644 4219 2406 4219 
Q 1781 4219 1451 3797 
Q 1122 3375 1075 2522 
Q 1259 2794 1537 2939 
Q 1816 3084 2150 3084 
Q 2853 3084 3261 2657 
Q 3669 2231 3669 1497 
Q 3669 778 3244 343 
Q 2819 -91 2113 -91 
Q 1303 -91 875 529 
Q 447 1150 447 2328 
Q 447 3434 972 4092 
Q 1497 4750 2381 4750 
Q 2619 4750 2861 4703 
Q 3103 4656 3366 4563 
z
" transform="scale(0.015625)"/>
       </defs>
       <use xlink:href="#DejaVuSans-30"/>
       <use xlink:href="#DejaVuSans-2e" transform="translate(63.623047 0)"/>
       <use xlink:href="#DejaVuSans-36" transform="translate(95.410156 0)"/>
      </g>
     </g>
    </g>
    <g id="ytick_5">
     <g id="line2d_11">
      <g>
       <use xlink:href="#m7ecf3b05b0" x="43.78125" y="36.392839" style="stroke: #000000; stroke-width: 0.8"/>
      </g>
     </g>
     <g id="text_12">
      <!-- 0.8 -->
      <g transform="translate(20.878125 40.192057) scale(0.1 -0.1)">
       <defs>
        <path id="DejaVuSans-38" d="M 2034 2216 
Q 1584 2216 1326 1975 
Q 1069 1734 1069 1313 
Q 1069 891 1326 650 
Q 1584 409 2034 409 
Q 2484 409 2743 651 
Q 3003 894 3003 1313 
Q 3003 1734 2745 1975 
Q 2488 2216 2034 2216 
z
M 1403 2484 
Q 997 2584 770 2862 
Q 544 3141 544 3541 
Q 544 4100 942 4425 
Q 1341 4750 2034 4750 
Q 2731 4750 3128 4425 
Q 3525 4100 3525 3541 
Q 3525 3141 3298 2862 
Q 3072 2584 2669 2484 
Q 3125 2378 3379 2068 
Q 3634 1759 3634 1313 
Q 3634 634 3220 271 
Q 2806 -91 2034 -91 
Q 1263 -91 848 271 
Q 434 634 434 1313 
Q 434 1759 690 2068 
Q 947 2378 1403 2484 
z
M 1172 3481 
Q 1172 3119 1398 2916 
Q 1625 2713 2034 2713 
Q 2441 2713 2670 2916 
Q 2900 3119 2900 3481 
Q 2900 3844 2670 4047 
Q 2441 4250 2034 4250 
Q 1625 4250 1398 4047 
Q 1172 3844 1172 3481 
z
" transform="scale(0.015625)"/>
       </defs>
       <use xlink:href="#DejaVuSans-30"/>
       <use xlink:href="#DejaVuSans-2e" transform="translate(63.623047 0)"/>
       <use xlink:href="#DejaVuSans-38" transform="translate(95.410156 0)"/>
      </g>
     </g>
    </g>
    <g id="ytick_6">
     <g id="line2d_12">
      <g>
       <use xlink:href="#m7ecf3b05b0" x="43.78125" y="12.264867" style="stroke: #000000; stroke-width: 0.8"/>
      </g>
     </g>
     <g id="text_13">
      <!-- 1.0 -->
      <g transform="translate(20.878125 16.064085) scale(0.1 -0.1)">
       <use xlink:href="#DejaVuSans-31"/>
       <use xlink:href="#DejaVuSans-2e" transform="translate(63.623047 0)"/>
       <use xlink:href="#DejaVuSans-30" transform="translate(95.410156 0)"/>
      </g>
     </g>
    </g>
    <g id="text_14">
     <!-- P(SST ≥ 25.0°C) -->
     <g transform="translate(14.798438 112.748731) rotate(-90) scale(0.1 -0.1)">
      <defs>
       <path id="DejaVuSans-50" d="M 1259 4147 
L 1259 2394 
L 2053 2394 
Q 2494 2394 2734 2622 
Q 2975 2850 2975 3272 
Q 2975 3691 2734 3919 
Q 2494 4147 2053 4147 
L 1259 4147 
z
M 628 4666 
L 2053 4666 
Q 2838 4666 3239 4311 
Q 3641 3956 3641 3272 
Q 3641 2581 3239 2228 
Q 2838 1875 2053 1875 
L 1259 1875 
L 1259 0 
L 628 0 
L 628 4666 
z
" transform="scale(0.015625)"/>
       <path id="DejaVuSans-28" d="M 1984 4856 
Q 1566 4138 1362 3434 
Q 1159 2731 1159 2009 
Q 1159 1288 1364 580 
Q 1569 -128 1984 -844 
L 1484 -844 
Q 1016 -109 783 600 
Q 550 1309 550 2009 
Q 550 2706 781 3412 
Q 1013 4119 1484 4856 
L 1984 4856 
z
" transform="scale(0.015625)"/>
       <path id="DejaVuSans-54" d="M -19 4666 
L 3928 4666 
L 3928 4134 
L 2272 4134 
L 2272 0 
L 1638 0 
L 1638 4134 
L -19 4134 
L -19 4666 
z
" transform="scale(0.015625)"/>
       <path id="DejaVuSans-2265" d="M 678 3175 
L 678 3725 
L 4684 2578 
L 4684 2047 
L 678 897 
L 678 1453 
L 3681 2309 
L 678 3175 
z
M 4684 531 
L 4684 0 
L 678 0 
L 678 531 
L 4684 531 
z
" transform="scale(0.015625)"/>
       <path id="DejaVuSans-b0" d="M 1600 4347 
Q 1350 4347 1178 4173 
Q 1006 4000 1006 3750 
Q 1006 3503 1178 3333 
Q 1350 3163 1600 3163 
Q 1850 3163 2022 3333 
Q 2194 3503 2194 3750 
Q 2194 3997 2020 4172 
Q 1847 4347 1600 4347 
z
M 1600 4750 
Q 1800 4750 1984 4673 
Q 2169 4597 2303 4453 
Q 2447 4313 2519 4134 
Q 2591 3956 2591 3750 
Q 2591 3338 2302 3052 
Q 2013 2766 1594 2766 
Q 1172 2766 890 3047 
Q 609 3328 609 3750 
Q 609 4169 896 4459 
Q 1184 4750 1600 4750 
z
" transform="scale(0.015625)"/>
       <path id="DejaVuSans-43" d="M 4122 4306 
L 4122 3641 
Q 3803 3938 3442 4084 
Q 3081 4231 2675 4231 
Q 1875 4231 1450 3742 
Q 1025 3253 1025 2328 
Q 1025 1406 1450 917 
Q 1875 428 2675 428 
Q 3081 428 3442 575 
Q 3803 722 4122 1019 
L 4122 359 
Q 3791 134 3420 21 
Q 3050 -91 2638 -91 
Q 1578 -91 968 557 
Q 359 1206 359 2328 
Q 359 3453 968 4101 
Q 1578 4750 2638 4750 
Q 3056 4750 3426 4639 
Q 3797 4528 4122 4306 
z
" transform="scale(0.015625)"/>
       <path id="DejaVuSans-29" d="M 513 4856 
L 1013 4856 
Q 1481 4119 1714 3412 
Q 1947 2706 1947 2009 
Q 1947 1309 1714 600 
Q 1481 -109 1013 -844 
L 513 -844 
Q 928 -128 1133 580 
Q 1338 1288 1338 2009 
Q 1338 2731 1133 3434 
Q 928 4138 513 4856 
z
" transform="scale(0.015625)"/>
      </defs>
      <use xlink:href="#DejaVuSans-50"/>
      <use xlink:href="#DejaVuSans-28" transform="translate(60.302734 0)"/>
      <use xlink:href="#DejaVuSans-53" transform="translate(99.316406 0)"/>
      <use xlink:href="#DejaVuSans-53" transform="translate(162.792969 0)"/>
      <use xlink:href="#DejaVuSans-54" transform="translate(226.269531 0)"/>
      <use xlink:href="#DejaVuSans-20" transform="translate(287.353516 0)"/>
      <use xlink:href="#DejaVuSans-2265" transform="translate(319.140625 0)"/>
      <use xlink:href="#DejaVuSans-20" transform="translate(402.929688 0)"/>
      <use xlink:href="#DejaVuSans-32" transform="translate(434.716797 0)"/>
      <use xlink:href="#DejaVuSans-35" transform="translate(498.339844 0)"/>
      <use xlink:href="#DejaVuSans-2e" transform="translate(561.962891 0)"/>
      <use xlink:href="#DejaVuSans-30" transform="translate(593.75 0)"/>
      <use xlink:href="#DejaVuSans-b0" transform="translate(657.373047 0)"/>
      <use xlink:href="#DejaVuSans-43" transform="translate(707.373047 0)"/>
      <use xlink:href="#DejaVuSans-29" transform="translate(777.197266 0)"/>
     </g>
    </g>
   </g>
   <g id="line2d_13">
    <path d="M 61.535795 89.819062 
L 68.364467 89.819062 
L 75.193138 81.20193 
L 82.021809 63.967664 
L 88.850481 38.116265 
L 95.679152 29.499132 
L 102.507823 29.499132 
L 109.336495 29.499132 
L 116.165166 38.116265 
L 122.993837 38.116265 
L 129.822509 38.116265 
L 136.65118 46.733398 
L 143.479851 63.967664 
L 150.308523 72.584797 
L 157.137194 72.584797 
L 163.965865 72.584797 
L 170.794537 72.584797 
L 177.623208 72.584797 
L 184.451879 72.584797 
L 191.280551 72.584797 
L 198.109222 81.20193 
L 204.937893 89.819062 
L 211.766565 98.436195 
L 218.595236 89.819062 
L 225.423907 98.436195 
L 232.252579 98.436195 
L 239.08125 107.053328 
L 245.909921 107.053328 
L 252.738593 107.053328 
L 259.567264 107.053328 
L 266.395935 107.053328 
L 273.224607 107.053328 
L 280.053278 107.053328 
L 286.881949 107.053328 
L 293.710621 107.053328 
L 300.539292 107.053328 
L 307.367963 107.053328 
L 314.196635 107.053328 
L 321.025306 107.053328 
L 327.853977 107.053328 
L 334.682649 107.053328 
L 341.51132 107.053328 
L 348.339991 107.053328 
L 355.168663 107.053328 
L 361.997334 107.053328 
L 368.826005 107.053328 
L 375.654677 107.053328 
L 382.483348 107.053328 
L 389.312019 107.053328 
L 396.140691 98.436195 
L 402.969362 98.436195 
L 409.798033 98.436195 
L 416.626705 92.69144 
" clip-path="url(#pf5b8bc87ba)" style="fill: none; stroke: #440154; stroke-width: 2; stroke-linecap: square"/>
   </g>
   <g id="line2d_14">
    <path d="M 61.535795 97.718101 
L 68.364467 87.664779 
L 75.193138 77.611458 
L 82.021809 57.504814 
L 88.850481 32.37151 
L 95.679152 32.37151 
L 102.507823 22.318188 
L 109.336495 32.37151 
L 116.165166 32.37151 
L 122.993837 37.398171 
L 129.822509 37.398171 
L 136.65118 42.424832 
L 143.479851 57.504814 
L 150.308523 67.558136 
L 157.137194 62.531475 
L 163.965865 67.558136 
L 170.794537 72.584797 
L 177.623208 72.584797 
L 184.451879 87.664779 
L 191.280551 92.69144 
L 198.109222 97.718101 
L 204.937893 102.744762 
L 211.766565 107.771423 
L 218.595236 107.771423 
L 225.423907 112.798083 
L 232.252579 112.798083 
L 239.08125 117.824744 
L 245.909921 117.824744 
L 252.738593 117.824744 
L 259.567264 117.824744 
L 266.395935 117.824744 
L 273.224607 117.824744 
L 280.053278 117.824744 
L 286.881949 117.824744 
L 293.710621 117.824744 
L 300.539292 117.824744 
L 307.367963 117.824744 
L 314.196635 117.824744 
L 321.025306 117.824744 
L 327.853977 117.824744 
L 334.682649 117.824744 
L 341.51132 117.824744 
L 348.339991 117.824744 
L 355.168663 117.824744 
L 361.997334 112.798083 
L 368.826005 112.798083 
L 375.654677 117.824744 
L 382.483348 117.824744 
L 389.312019 117.824744 
L 396.140691 112.798083 
L 402.969362 107.771423 
L 409.798033 99.125566 
L 416.626705 98.436195 
" clip-path="url(#pf5b8bc87ba)" style="fill: none; stroke: #31688e; stroke-width: 2; stroke-linecap: square"/>
   </g>
   <g id="line2d_15">
    <path d="M 61.535795 100.970646 
L 68.364467 86.777721 
L 75.193138 72.584797 
L 82.021809 58.391872 
L 88.850481 30.006023 
L 95.679152 30.006023 
L 102.507823 19.361329 
L 109.336495 26.457791 
L 116.165166 26.457791 
L 122.993837 33.554254 
L 129.822509 30.006023 
L 136.65118 37.102485 
L 143.479851 47.747178 
L 150.308523 58.391872 
L 157.137194 54.843641 
L 163.965865 61.940103 
L 170.794537 65.488334 
L 177.623208 69.036566 
L 184.451879 86.777721 
L 191.280551 93.874184 
L 198.109222 97.422415 
L 204.937893 100.970646 
L 211.766565 108.067108 
L 218.595236 104.518877 
L 225.423907 111.61534 
L 232.252579 111.61534 
L 239.08125 118.711802 
L 245.909921 118.711802 
L 252.738593 122.260033 
L 259.567264 122.260033 
L 266.395935 122.260033 
L 273.224607 122.260033 
L 280.053278 122.260033 
L 286.881949 122.260033 
L 293.710621 122.260033 
L 300.539292 122.260033 
L 307.367963 122.260033 
L 314.196635 122.260033 
L 321.025306 122.260033 
L 327.853977 122.260033 
L 334.682649 122.260033 
L 341.51132 122.260033 
L 348.339991 118.711802 
L 355.168663 118.711802 
L 361.997334 115.163571 
L 368.826005 115.163571 
L 375.654677 118.711802 
L 382.483348 118.711802 
L 389.312019 118.711802 
L 396.140691 111.61534 
L 402.969362 108.067108 
L 409.798033 105.329902 
L 416.626705 79.287011 
" clip-path="url(#pf5b8bc87ba)" style="fill: none; stroke: #35b779; stroke-width: 2; stroke-linecap: square"/>
   </g>
   <g id="line2d_16">
    <path d="M 61.535795 101.157395 
L 68.364467 91.633196 
L 75.193138 72.584797 
L 82.021809 56.711131 
L 88.850481 31.828087 
L 95.679152 28.56755 
L 102.507823 18.78594 
L 109.336495 25.307014 
L 116.165166 25.307014 
L 122.993837 31.828087 
L 129.822509 28.56755 
L 136.65118 35.088624 
L 143.479851 48.130771 
L 150.308523 57.912381 
L 157.137194 57.912381 
L 163.965865 64.433455 
L 170.794537 67.693992 
L 177.623208 67.693992 
L 184.451879 87.257212 
L 191.280551 97.038822 
L 198.109222 100.299359 
L 204.937893 103.559896 
L 211.766565 110.080969 
L 218.595236 106.820433 
L 225.423907 113.341506 
L 232.252579 113.341506 
L 239.08125 119.86258 
L 245.909921 119.86258 
L 252.738593 123.123116 
L 259.567264 123.123116 
L 266.395935 123.123116 
L 273.224607 123.123116 
L 280.053278 123.123116 
L 286.881949 123.123116 
L 293.710621 123.123116 
L 300.539292 123.123116 
L 307.367963 123.123116 
L 314.196635 123.123116 
L 321.025306 123.123116 
L 327.853977 123.123116 
L 334.682649 123.123116 
L 341.51132 123.123116 
L 348.339991 119.86258 
L 355.168663 119.86258 
L 361.997334 116.602043 
L 368.826005 116.602043 
L 375.654677 119.86258 
L 382.483348 119.86258 
L 389.312019 119.86258 
L 396.140691 113.341506 
L 402.969362 110.080969 
L 409.798033 107.506861 
L 416.626705 84.648783 
" clip-path="url(#pf5b8bc87ba)" style="fill: none; stroke: #fde725; stroke-width: 2; stroke-linecap: square"/>
   </g>
   <g id="patch_3">
    <path d="M 43.78125 136.675587 
L 43.78125 7.2 
" style="fill: none; stroke: #000000; stroke-width: 0.8; stroke-linejoin: miter; stroke-linecap: square"/>
   </g>
   <g id="patch_4">
    <path d="M 434.38125 136.675587 
L 434.38125 7.2 
" style="fill: none; stroke: #000000; stroke-width: 0.8; stroke-linejoin: miter; stroke-linecap: square"/>
   </g>
   <g id="patch_5">
    <path d="M 43.78125 136.675587 
L 434.38125 136.675587 
" style="fill: none; stroke: #000000; stroke-width: 0.8; stroke-linejoin: miter; stroke-linecap: square"/>
   </g>
   <g id="patch_6">
    <path d="M 43.78125 7.2 
L 434.38125 7.2 
" style="fill: none; stroke: #000000; stroke-width: 0.8; stroke-linejoin: miter; stroke-linecap: square"/>
   </g>
   <g id="legend_1">
    <g id="patch_7">
     <path d="M 273.365625 59.234375 
L 427.38125 59.234375 
Q 429.38125 59.234375 429.38125 57.234375 
L 429.38125 14.2 
Q 429.38125 12.2 427.38125 12.2 
L 273.365625 12.2 
Q 271.365625 12.2 271.365625 14.2 
L 271.365625 57.234375 
Q 271.365625 59.234375 273.365625 59.234375 
z
" style="fill: #ffffff; opacity: 0.8; stroke: #cccccc; stroke-linejoin: miter"/>
    </g>
    <g id="text_15">
     <!-- Data up to year -->
     <g transform="translate(311.15 23.798437) scale(0.1 -0.1)">
      <defs>
       <path id="DejaVuSans-44" d="M 1259 4147 
L 1259 519 
L 2022 519 
Q 2988 519 3436 956 
Q 3884 1394 3884 2338 
Q 3884 3275 3436 3711 
Q 2988 4147 2022 4147 
L 1259 4147 
z
M 628 4666 
L 1925 4666 
Q 3281 4666 3915 4102 
Q 4550 3538 4550 2338 
Q 4550 1131 3912 565 
Q 3275 0 1925 0 
L 628 0 
L 628 4666 
z
" transform="scale(0.015625)"/>
       <path id="DejaVuSans-74" d="M 1172 4494 
L 1172 3500 
L 2356 3500 
L 2356 3053 
L 1172 3053 
L 1172 1153 
Q 1172 725 1289 603 
Q 1406 481 1766 481 
L 2356 481 
L 2356 0 
L 1766 0 
Q 1100 0 847 248 
Q 594 497 594 1153 
L 594 3053 
L 172 3053 
L 172 3500 
L 594 3500 
L 594 4494 
L 1172 4494 
z
" transform="scale(0.015625)"/>
       <path id="DejaVuSans-75" d="M 544 1381 
L 544 3500 
L 1119 3500 
L 1119 1403 
Q 1119 906 1312 657 
Q 1506 409 1894 409 
Q 2359 409 2629 706 
Q 2900 1003 2900 1516 
L 2900 3500 
L 3475 3500 
L 3475 0 
L 2900 0 
L 2900 538 
Q 2691 219 2414 64 
Q 2138 -91 1772 -91 
Q 1169 -91 856 284 
Q 544 659 544 1381 
z
M 1991 3584 
L 1991 3584 
z
" transform="scale(0.015625)"/>
       <path id="DejaVuSans-70" d="M 1159 525 
L 1159 -1331 
L 581 -1331 
L 581 3500 
L 1159 3500 
L 1159 2969 
Q 1341 3281 1617 3432 
Q 1894 3584 2278 3584 
Q 2916 3584 3314 3078 
Q 3713 2572 3713 1747 
Q 3713 922 3314 415 
Q 2916 -91 2278 -91 
Q 1894 -91 1617 61 
Q 1341 213 1159 525 
z
M 3116 1747 
Q 3116 2381 2855 2742 
Q 2594 3103 2138 3103 
Q 1681 3103 1420 2742 
Q 1159 2381 1159 1747 
Q 1159 1113 1420 752 
Q 1681 391 2138 391 
Q 2594 391 2855 752 
Q 3116 1113 3116 1747 
z
" transform="scale(0.015625)"/>
      </defs>
      <use xlink:href="#DejaVuSans-44"/>
      <use xlink:href="#DejaVuSans-61" transform="translate(77.001953 0)"/>
      <use xlink:href="#DejaVuSans-74" transform="translate(138.28125 0)"/>
      <use xlink:href="#DejaVuSans-61" transform="translate(177.490234 0)"/>
      <use xlink:href="#DejaVuSans-20" transform="translate(238.769531 0)"/>
      <use xlink:href="#DejaVuSans-75" transform="translate(270.556641 0)"/>
      <use xlink:href="#DejaVuSans-70" transform="translate(333.935547 0)"/>
      <use xlink:href="#DejaVuSans-20" transform="translate(397.412109 0)"/>
      <use xlink:href="#DejaVuSans-74" transform="translate(429.199219 0)"/>
      <use xlink:href="#DejaVuSans-6f" transform="translate(468.408203 0)"/>
      <use xlink:href="#DejaVuSans-20" transform="translate(529.589844 0)"/>
      <use xlink:href="#DejaVuSans-79" transform="translate(561.376953 0)"/>
      <use xlink:href="#DejaVuSans-65" transform="translate(620.556641 0)"/>
      <use xlink:href="#DejaVuSans-61" transform="translate(682.080078 0)"/>
      <use xlink:href="#DejaVuSans-72" transform="translate(743.359375 0)"/>
     </g>
    </g>
    <g id="line2d_17">
     <path d="M 275.365625 34.976562 
L 285.365625 34.976562 
L 295.365625 34.976562 
" style="fill: none; stroke: #440154; stroke-width: 2; stroke-linecap: square"/>
    </g>
    <g id="text_16">
     <!-- ≤ 1999 -->
     <g transform="translate(303.365625 38.476562) scale(0.1 -0.1)">
      <defs>
       <path id="DejaVuSans-2264" d="M 4684 3175 
L 1684 2309 
L 4684 1453 
L 4684 897 
L 678 2047 
L 678 2578 
L 4684 3725 
L 4684 3175 
z
M 678 531 
L 4684 531 
L 4684 0 
L 678 0 
L 678 531 
z
" transform="scale(0.015625)"/>
       <path id="DejaVuSans-39" d="M 703 97 
L 703 672 
Q 941 559 1184 500 
Q 1428 441 1663 441 
Q 2288 441 2617 861 
Q 2947 1281 2994 2138 
Q 2813 1869 2534 1725 
Q 2256 1581 1919 1581 
Q 1219 1581 811 2004 
Q 403 2428 403 3163 
Q 403 3881 828 4315 
Q 1253 4750 1959 4750 
Q 2769 4750 3195 4129 
Q 3622 3509 3622 2328 
Q 3622 1225 3098 567 
Q 2575 -91 1691 -91 
Q 1453 -91 1209 -44 
Q 966 3 703 97 
z
M 1959 2075 
Q 2384 2075 2632 2365 
Q 2881 2656 2881 3163 
Q 2881 3666 2632 3958 
Q 2384 4250 1959 4250 
Q 1534 4250 1286 3958 
Q 1038 3666 1038 3163 
Q 1038 2656 1286 2365 
Q 1534 2075 1959 2075 
z
" transform="scale(0.015625)"/>
      </defs>
      <use xlink:href="#DejaVuSans-2264"/>
      <use xlink:href="#DejaVuSans-20" transform="translate(83.789062 0)"/>
      <use xlink:href="#DejaVuSans-31" transform="translate(115.576172 0)"/>
      <use xlink:href="#DejaVuSans-39" transform="translate(179.199219 0)"/>
      <use xlink:href="#DejaVuSans-39" transform="translate(242.822266 0)"/>
      <use xlink:href="#DejaVuSans-39" transform="translate(306.445312 0)"/>
     </g>
    </g>
    <g id="line2d_18">
     <path d="M 275.365625 49.654687 
L 285.365625 49.654687 
L 295.365625 49.654687 
" style="fill: none; stroke: #31688e; stroke-width: 2; stroke-linecap: square"/>
    </g>
    <g id="text_17">
     <!-- ≤ 2009 -->
     <g transform="translate(303.365625 53.154687) scale(0.1 -0.1)">
      <use xlink:href="#DejaVuSans-2264"/>
      <use xlink:href="#DejaVuSans-20" transform="translate(83.789062 0)"/>
      <use xlink:href="#DejaVuSans-32" transform="translate(115.576172 0)"/>
      <use xlink:href="#DejaVuSans-30" transform="translate(179.199219 0)"/>
      <use xlink:href="#DejaVuSans-30" transform="translate(242.822266 0)"/>
      <use xlink:href="#DejaVuSans-39" transform="translate(306.445312 0)"/>
     </g>
    </g>
    <g id="line2d_19">
     <path d="M 360.373438 34.976562 
L 370.373438 34.976562 
L 380.373438 34.976562 
" style="fill: none; stroke: #35b779; stroke-width: 2; stroke-linecap: square"/>
    </g>
    <g id="text_18">
     <!-- ≤ 2019 -->
     <g transform="translate(388.373438 38.476562) scale(0.1 -0.1)">
      <use xlink:href="#DejaVuSans-2264"/>
      <use xlink:href="#DejaVuSans-20" transform="translate(83.789062 0)"/>
      <use xlink:href="#DejaVuSans-32" transform="translate(115.576172 0)"/>
      <use xlink:href="#DejaVuSans-30" transform="translate(179.199219 0)"/>
      <use xlink:href="#DejaVuSans-31" transform="translate(242.822266 0)"/>
      <use xlink:href="#DejaVuSans-39" transform="translate(306.445312 0)"/>
     </g>
    </g>
    <g id="line2d_20">
     <path d="M 360.373438 49.654687 
L 370.373438 49.654687 
L 380.373438 49.654687 
" style="fill: none; stroke: #fde725; stroke-width: 2; stroke-linecap: square"/>
    </g>
    <g id="text_19">
     <!-- ≤ 2024 -->
     <g transform="translate(388.373438 53.154687) scale(0.1 -0.1)">
      <use xlink:href="#DejaVuSans-2264"/>
      <use xlink:href="#DejaVuSans-20" transform="translate(83.789062 0)"/>
      <use xlink:href="#DejaVuSans-32" transform="translate(115.576172 0)"/>
      <use xlink:href="#DejaVuSans-30" transform="translate(179.199219 0)"/>
      <use xlink:href="#DejaVuSans-32" transform="translate(242.822266 0)"/>
      <use xlink:href="#DejaVuSans-34" transform="translate(306.445312 0)"/>
     </g>
    </g>
   </g>
  </g>
 </g>
 <defs>
  <clipPath id="pf5b8bc87ba">
   <rect x="43.78125" y="7.2" width="390.6" height="129.475587"/>
  </clipPath>
 </defs>
</svg>
