<?xml version="1.0" encoding="utf-8" standalone="no"?>
<!DOCTYPE svg PUBLIC "-//W3C//DTD SVG 1.1//EN"
  "http://www.w3.org/Graphics/SVG/1.1/DTD/svg11.dtd">
<svg xmlns:xlink="http://www.w3.org/1999/xlink" width="434.265625pt" height="154.463004pt" viewBox="0 0 434.265625 154.463004" xmlns="http://www.w3.org/2000/svg" version="1.1">
 <metadata>
  <rdf:RDF xmlns:dc="http://purl.org/dc/elements/1.1/" xmlns:cc="http://creativecommons.org/ns#" xmlns:rdf="http://www.w3.org/1999/02/22-rdf-syntax-ns#">
   <cc:Work>
    <dc:type rdf:resource="http://purl.org/dc/dcmitype/StillImage"/>
    <dc:date>2026-01-05T12:20:16.964426</dc:date>
    <dc:format>image/svg+xml</dc:format>
    <dc:creator>
     <cc:Agent>
      <dc:title>Matplotlib v3.10.3, https://matplotlib.org/</dc:title>
     </cc:Agent>
    </dc:creator>
   </cc:Work>
  </rdf:RDF>
 </metadata>
 <defs>
  <style type="text/css">*{stroke-linejoin: round; stroke-linecap: butt}</style>
 </defs>
 <g id="figure_1">
  <g id="patch_1">
   <path d="M 0 154.463004 
L 434.265625 154.463004 
L 434.265625 0 
L 0 0 
z
" style="fill: #ffffff"/>
  </g>
  <g id="axes_1">
   <g id="patch_2">
    <path d="M 36.465625 130.584879 
L 427.065625 130.584879 
L 427.065625 7.2 
L 36.465625 7.2 
z
" style="fill: #ffffff"/>
   </g>
   <g id="matplotlib.axis_1">
    <g id="xtick_1">
     <g id="line2d_1">
      <defs>
       <path id="m73a2d9272e" d="M 0 0 
L 0 3.5 
" style="stroke: #000000; stroke-width: 0.8"/>
      </defs>
      <g>
       <use xlink:href="#m73a2d9272e" x="54.22017" y="130.584879" style="stroke: #000000; stroke-width: 0.8"/>
      </g>
     </g>
     <g id="text_1">
      <!-- 0 -->
      <g transform="translate(51.03892 145.183317) scale(0.1 -0.1)">
       <defs>
        <path id="DejaVuSans-30" d="M 2034 4250 
Q 1547 4250 1301 3770 
Q 1056 3291 1056 2328 
Q 1056 1369 1301 889 
Q 1547 409 2034 409 
Q 2525 409 2770 889 
Q 3016 1369 3016 2328 
Q 3016 3291 2770 3770 
Q 2525 4250 2034 4250 
z
M 2034 4750 
Q 2819 4750 3233 4129 
Q 3647 3509 3647 2328 
Q 3647 1150 3233 529 
Q 2819 -91 2034 -91 
Q 1250 -91 836 529 
Q 422 1150 422 2328 
Q 422 3509 836 4129 
Q 1250 4750 2034 4750 
z
" transform="scale(0.015625)"/>
       </defs>
       <use xlink:href="#DejaVuSans-30"/>
      </g>
     </g>
    </g>
    <g id="xtick_2">
     <g id="line2d_2">
      <g>
       <use xlink:href="#m73a2d9272e" x="105.652805" y="130.584879" style="stroke: #000000; stroke-width: 0.8"/>
      </g>
     </g>
     <g id="text_2">
      <!-- 250 -->
      <g transform="translate(96.109055 145.183317) scale(0.1 -0.1)">
       <defs>
        <path id="DejaVuSans-32" d="M 1228 531 
L 3431 531 
L 3431 0 
L 469 0 
L 469 531 
Q 828 903 1448 1529 
Q 2069 2156 2228 2338 
Q 2531 2678 2651 2914 
Q 2772 3150 2772 3378 
Q 2772 3750 2511 3984 
Q 2250 4219 1831 4219 
Q 1534 4219 1204 4116 
Q 875 4013 500 3803 
L 500 4441 
Q 881 4594 1212 4672 
Q 1544 4750 1819 4750 
Q 2544 4750 2975 4387 
Q 3406 4025 3406 3419 
Q 3406 3131 3298 2873 
Q 3191 2616 2906 2266 
Q 2828 2175 2409 1742 
Q 1991 1309 1228 531 
z
" transform="scale(0.015625)"/>
        <path id="DejaVuSans-35" d="M 691 4666 
L 3169 4666 
L 3169 4134 
L 1269 4134 
L 1269 2991 
Q 1406 3038 1543 3061 
Q 1681 3084 1819 3084 
Q 2600 3084 3056 2656 
Q 3513 2228 3513 1497 
Q 3513 744 3044 326 
Q 2575 -91 1722 -91 
Q 1428 -91 1123 -41 
Q 819 9 494 109 
L 494 744 
Q 775 591 1075 516 
Q 1375 441 1709 441 
Q 2250 441 2565 725 
Q 2881 1009 2881 1497 
Q 2881 1984 2565 2268 
Q 2250 2553 1709 2553 
Q 1456 2553 1204 2497 
Q 953 2441 691 2322 
L 691 4666 
z
" transform="scale(0.015625)"/>
       </defs>
       <use xlink:href="#DejaVuSans-32"/>
       <use xlink:href="#DejaVuSans-35" transform="translate(63.623047 0)"/>
       <use xlink:href="#DejaVuSans-30" transform="translate(127.246094 0)"/>
      </g>
     </g>
    </g>
    <g id="xtick_3">
     <g id="line2d_3">
      <g>
       <use xlink:href="#m73a2d9272e" x="157.08544" y="130.584879" style="stroke: #000000; stroke-width: 0.8"/>
      </g>
     </g>
     <g id="text_3">
      <!-- 500 -->
      <g transform="translate(147.54169 145.183317) scale(0.1 -0.1)">
       <use xlink:href="#DejaVuSans-35"/>
       <use xlink:href="#DejaVuSans-30" transform="translate(63.623047 0)"/>
       <use xlink:href="#DejaVuSans-30" transform="translate(127.246094 0)"/>
      </g>
     </g>
    </g>
    <g id="xtick_4">
     <g id="line2d_4">
      <g>
       <use xlink:href="#m73a2d9272e" x="208.518074" y="130.584879" style="stroke: #000000; stroke-width: 0.8"/>
      </g>
     </g>
     <g id="text_4">
      <!-- 750 -->
      <g transform="translate(198.974324 145.183317) scale(0.1 -0.1)">
       <defs>
        <path id="DejaVuSans-37" d="M 525 4666 
L 3525 4666 
L 3525 4397 
L 1831 0 
L 1172 0 
L 2766 4134 
L 525 4134 
L 525 4666 
z
" transform="scale(0.015625)"/>
       </defs>
       <use xlink:href="#DejaVuSans-37"/>
       <use xlink:href="#DejaVuSans-35" transform="translate(63.623047 0)"/>
       <use xlink:href="#DejaVuSans-30" transform="translate(127.246094 0)"/>
      </g>
     </g>
    </g>
    <g id="xtick_5">
     <g id="line2d_5">
      <g>
       <use xlink:href="#m73a2d9272e" x="259.950709" y="130.584879" style="stroke: #000000; stroke-width: 0.8"/>
      </g>
     </g>
     <g id="text_5">
      <!-- 1000 -->
      <g transform="translate(247.225709 145.183317) scale(0.1 -0.1)">
       <defs>
        <path id="DejaVuSans-31" d="M 794 531 
L 1825 531 
L 1825 4091 
L 703 3866 
L 703 4441 
L 1819 4666 
L 2450 4666 
L 2450 531 
L 3481 531 
L 3481 0 
L 794 0 
L 794 531 
z
" transform="scale(0.015625)"/>
       </defs>
       <use xlink:href="#DejaVuSans-31"/>
       <use xlink:href="#DejaVuSans-30" transform="translate(63.623047 0)"/>
       <use xlink:href="#DejaVuSans-30" transform="translate(127.246094 0)"/>
       <use xlink:href="#DejaVuSans-30" transform="translate(190.869141 0)"/>
      </g>
     </g>
    </g>
    <g id="xtick_6">
     <g id="line2d_6">
      <g>
       <use xlink:href="#m73a2d9272e" x="311.383343" y="130.584879" style="stroke: #000000; stroke-width: 0.8"/>
      </g>
     </g>
     <g id="text_6">
      <!-- 1250 -->
      <g transform="translate(298.658343 145.183317) scale(0.1 -0.1)">
       <use xlink:href="#DejaVuSans-31"/>
       <use xlink:href="#DejaVuSans-32" transform="translate(63.623047 0)"/>
       <use xlink:href="#DejaVuSans-35" transform="translate(127.246094 0)"/>
       <use xlink:href="#DejaVuSans-30" transform="translate(190.869141 0)"/>
      </g>
     </g>
    </g>
    <g id="xtick_7">
     <g id="line2d_7">
      <g>
       <use xlink:href="#m73a2d9272e" x="362.815978" y="130.584879" style="stroke: #000000; stroke-width: 0.8"/>
      </g>
     </g>
     <g id="text_7">
      <!-- 1500 -->
      <g transform="translate(350.090978 145.183317) scale(0.1 -0.1)">
       <use xlink:href="#DejaVuSans-31"/>
       <use xlink:href="#DejaVuSans-35" transform="translate(63.623047 0)"/>
       <use xlink:href="#DejaVuSans-30" transform="translate(127.246094 0)"/>
       <use xlink:href="#DejaVuSans-30" transform="translate(190.869141 0)"/>
      </g>
     </g>
    </g>
    <g id="xtick_8">
     <g id="line2d_8">
      <g>
       <use xlink:href="#m73a2d9272e" x="414.248612" y="130.584879" style="stroke: #000000; stroke-width: 0.8"/>
      </g>
     </g>
     <g id="text_8">
      <!-- 1750 -->
      <g transform="translate(401.523612 145.183317) scale(0.1 -0.1)">
       <use xlink:href="#DejaVuSans-31"/>
       <use xlink:href="#DejaVuSans-37" transform="translate(63.623047 0)"/>
       <use xlink:href="#DejaVuSans-35" transform="translate(127.246094 0)"/>
       <use xlink:href="#DejaVuSans-30" transform="translate(190.869141 0)"/>
      </g>
     </g>
    </g>
   </g>
   <g id="matplotlib.axis_2">
    <g id="ytick_1">
     <g id="line2d_9">
      <defs>
       <path id="md3f0683734" d="M 0 0 
L -3.5 0 
" style="stroke: #000000; stroke-width: 0.8"/>
      </defs>
      <g>
       <use xlink:href="#md3f0683734" x="36.465625" y="113.429334" style="stroke: #000000; stroke-width: 0.8"/>
      </g>
     </g>
     <g id="text_9">
      <!-- 20.0 -->
      <g transform="translate(7.2 117.228553) scale(0.1 -0.1)">
       <defs>
        <path id="DejaVuSans-2e" d="M 684 794 
L 1344 794 
L 1344 0 
L 684 0 
L 684 794 
z
" transform="scale(0.015625)"/>
       </defs>
       <use xlink:href="#DejaVuSans-32"/>
       <use xlink:href="#DejaVuSans-30" transform="translate(63.623047 0)"/>
       <use xlink:href="#DejaVuSans-2e" transform="translate(127.246094 0)"/>
       <use xlink:href="#DejaVuSans-30" transform="translate(159.033203 0)"/>
      </g>
     </g>
    </g>
    <g id="ytick_2">
     <g id="line2d_10">
      <g>
       <use xlink:href="#md3f0683734" x="36.465625" y="88.755956" style="stroke: #000000; stroke-width: 0.8"/>
      </g>
     </g>
     <g id="text_10">
      <!-- 22.5 -->
      <g transform="translate(7.2 92.555175) scale(0.1 -0.1)">
       <use xlink:href="#DejaVuSans-32"/>
       <use xlink:href="#DejaVuSans-32" transform="translate(63.623047 0)"/>
       <use xlink:href="#DejaVuSans-2e" transform="translate(127.246094 0)"/>
       <use xlink:href="#DejaVuSans-35" transform="translate(159.033203 0)"/>
      </g>
     </g>
    </g>
    <g id="ytick_3">
     <g id="line2d_11">
      <g>
       <use xlink:href="#md3f0683734" x="36.465625" y="64.082578" style="stroke: #000000; stroke-width: 0.8"/>
      </g>
     </g>
     <g id="text_11">
      <!-- 25.0 -->
      <g transform="translate(7.2 67.881797) scale(0.1 -0.1)">
       <use xlink:href="#DejaVuSans-32"/>
       <use xlink:href="#DejaVuSans-35" transform="translate(63.623047 0)"/>
       <use xlink:href="#DejaVuSans-2e" transform="translate(127.246094 0)"/>
       <use xlink:href="#DejaVuSans-30" transform="translate(159.033203 0)"/>
      </g>
     </g>
    </g>
    <g id="ytick_4">
     <g id="line2d_12">
      <g>
       <use xlink:href="#md3f0683734" x="36.465625" y="39.409201" style="stroke: #000000; stroke-width: 0.8"/>
      </g>
     </g>
     <g id="text_12">
      <!-- 27.5 -->
      <g transform="translate(7.2 43.208419) scale(0.1 -0.1)">
       <use xlink:href="#DejaVuSans-32"/>
       <use xlink:href="#DejaVuSans-37" transform="translate(63.623047 0)"/>
       <use xlink:href="#DejaVuSans-2e" transform="translate(127.246094 0)"/>
       <use xlink:href="#DejaVuSans-35" transform="translate(159.033203 0)"/>
      </g>
     </g>
    </g>
    <g id="ytick_5">
     <g id="line2d_13">
      <g>
       <use xlink:href="#md3f0683734" x="36.465625" y="14.735823" style="stroke: #000000; stroke-width: 0.8"/>
      </g>
     </g>
     <g id="text_13">
      <!-- 30.0 -->
      <g transform="translate(7.2 18.535042) scale(0.1 -0.1)">
       <defs>
        <path id="DejaVuSans-33" d="M 2597 2516 
Q 3050 2419 3304 2112 
Q 3559 1806 3559 1356 
Q 3559 666 3084 287 
Q 2609 -91 1734 -91 
Q 1441 -91 1130 -33 
Q 819 25 488 141 
L 488 750 
Q 750 597 1062 519 
Q 1375 441 1716 441 
Q 2309 441 2620 675 
Q 2931 909 2931 1356 
Q 2931 1769 2642 2001 
Q 2353 2234 1838 2234 
L 1294 2234 
L 1294 2753 
L 1863 2753 
Q 2328 2753 2575 2939 
Q 2822 3125 2822 3475 
Q 2822 3834 2567 4026 
Q 2313 4219 1838 4219 
Q 1578 4219 1281 4162 
Q 984 4106 628 3988 
L 628 4550 
Q 988 4650 1302 4700 
Q 1616 4750 1894 4750 
Q 2613 4750 3031 4423 
Q 3450 4097 3450 3541 
Q 3450 3153 3228 2886 
Q 3006 2619 2597 2516 
z
" transform="scale(0.015625)"/>
       </defs>
       <use xlink:href="#DejaVuSans-33"/>
       <use xlink:href="#DejaVuSans-30" transform="translate(63.623047 0)"/>
       <use xlink:href="#DejaVuSans-2e" transform="translate(127.246094 0)"/>
       <use xlink:href="#DejaVuSans-30" transform="translate(159.033203 0)"/>
      </g>
     </g>
    </g>
   </g>
   <g id="line2d_14">
    <path d="M 54.22017 77.504902 
L 54.425901 79.873544 
L 54.631632 70.695044 
L 55.043093 65.661673 
L 55.248823 51.351125 
L 55.660284 45.725598 
L 55.866015 46.317754 
L 56.071745 53.028916 
L 56.277476 53.522376 
L 56.894667 62.700875 
L 57.100398 58.753139 
L 57.306129 51.943281 
L 57.511859 50.857647 
L 57.71759 57.963591 
L 57.92332 60.825693 
L 58.334781 77.208815 
L 58.540512 75.62972 
L 58.746242 78.393145 
L 58.951973 78.590537 
L 59.157703 81.15657 
L 59.363434 87.769017 
L 59.569164 90.729834 
L 59.774895 91.223294 
L 59.980626 84.413455 
L 60.186356 111.652848 
L 60.392087 100.895254 
L 60.597817 101.68482 
L 60.803548 99.908334 
L 61.009278 101.388732 
L 61.215009 95.960578 
L 61.420739 100.303098 
L 61.62647 101.388732 
L 61.8322 91.420686 
L 62.037931 99.316159 
L 62.243661 97.737064 
L 62.449392 98.625307 
L 62.655123 96.355361 
L 62.860853 96.750144 
L 63.066584 95.66451 
L 63.478045 85.30168 
L 63.683775 84.413455 
L 63.889506 80.959179 
L 64.095236 73.063686 
L 64.300967 80.564396 
L 64.506697 93.789328 
L 64.712428 74.642781 
L 64.918158 82.340882 
L 65.123889 81.255247 
L 65.741081 62.799571 
L 66.152542 48.390309 
L 66.769733 36.547099 
L 66.975464 35.264073 
L 67.181194 36.547099 
L 67.386925 40.593531 
L 68.209847 90.335051 
L 68.621308 69.412037 
L 68.827039 60.233538 
L 69.032769 60.726998 
L 69.2385 66.747308 
L 69.44423 67.438159 
L 69.649961 75.13626 
L 69.855691 74.840173 
L 70.061422 78.689232 
L 70.267152 75.13626 
L 70.472883 79.873544 
L 70.678614 79.182692 
L 70.884344 79.47878 
L 71.295805 88.755956 
L 71.501536 87.769017 
L 71.707266 87.472949 
L 71.912997 92.703693 
L 72.118727 89.249435 
L 72.324458 91.716773 
L 72.530188 92.50632 
L 72.735919 81.946118 
L 72.941649 91.223294 
L 73.14738 88.361192 
L 73.353111 91.914146 
L 73.764572 80.169631 
L 73.970302 83.229125 
L 74.176033 83.229125 
L 74.381763 73.063686 
L 74.587494 80.169631 
L 75.204685 66.451221 
L 75.410416 66.648612 
L 75.616146 64.872126 
L 76.439069 41.481774 
L 76.644799 40.100052 
L 76.85053 36.843167 
L 77.05626 35.362768 
L 77.261991 35.362768 
L 77.467721 37.534038 
L 77.673452 38.126193 
L 77.879182 33.684978 
L 78.084913 36.349707 
L 78.496374 25.986896 
L 78.702105 28.750302 
L 78.907835 26.480356 
L 79.113566 30.132024 
L 79.319296 28.848998 
L 79.730757 56.483192 
L 79.936488 52.436741 
L 80.553679 85.104307 
L 80.75941 88.262496 
L 80.96514 96.059274 
L 81.170871 87.472949 
L 81.376602 92.901084 
L 81.582332 88.361192 
L 81.993793 97.539692 
L 82.199524 98.033152 
L 82.610985 107.50772 
L 82.816715 103.85607 
L 83.022446 111.356779 
L 83.228176 104.546922 
L 83.639637 102.67174 
L 84.46256 87.571645 
L 84.66829 88.953348 
L 84.874021 92.50632 
L 85.079751 91.420686 
L 85.285482 82.439578 
L 85.491212 78.689232 
L 85.696943 83.821281 
L 85.902673 86.091246 
L 86.108404 86.387314 
L 86.314134 77.30751 
L 86.519865 78.195754 
L 86.931326 64.77343 
L 87.137057 59.740078 
L 87.342787 50.364186 
L 87.754248 45.034728 
L 87.959979 50.956342 
L 88.165709 45.725598 
L 88.37144 46.219058 
L 88.988631 30.72418 
L 89.194362 33.586282 
L 89.400093 45.232119 
L 89.605823 39.705288 
L 90.017284 49.673335 
L 90.223015 48.982483 
L 90.428745 53.127612 
L 90.634476 62.207415 
L 90.840206 63.687814 
L 91.045937 69.11595 
L 91.251667 66.648612 
L 91.457398 61.615241 
L 91.663128 65.95776 
L 91.868859 77.504902 
L 92.28032 86.288618 
L 92.486051 96.651448 
L 92.691781 94.381483 
L 92.897512 97.539692 
L 93.103242 87.472949 
L 93.514703 85.499071 
L 93.720434 85.104307 
L 93.926164 91.716773 
L 94.131895 84.31476 
L 94.337625 93.888023 
L 94.543356 94.480179 
L 94.749086 89.644199 
L 94.954817 78.689232 
L 95.160548 80.663091 
L 95.366278 78.787909 
L 95.572009 85.104307 
L 95.777739 80.169631 
L 95.98347 87.374253 
L 96.1892 83.821281 
L 96.394931 87.078166 
L 96.806392 74.840173 
L 97.012122 72.668922 
L 97.217853 68.918558 
L 97.423583 72.767618 
L 97.629314 66.155152 
L 97.835045 67.043395 
L 98.040775 60.233538 
L 98.246506 44.639964 
L 98.452236 61.911328 
L 98.657967 54.904079 
L 98.863697 54.015855 
L 99.069428 69.510733 
L 99.480889 81.847422 
L 99.686619 84.117368 
L 99.89235 79.676152 
L 100.303811 93.789328 
L 100.715272 95.763205 
L 100.921003 88.65726 
L 101.126733 89.052044 
L 101.332464 85.597767 
L 101.538194 84.018672 
L 101.949655 83.426516 
L 102.361116 94.184111 
L 102.566847 92.605016 
L 102.772577 94.282806 
L 102.978308 93.690632 
L 103.184039 93.888023 
L 103.389769 97.3423 
L 103.5955 103.461287 
L 103.80123 94.085415 
L 104.006961 96.454057 
L 104.212691 106.027321 
L 104.418422 98.033152 
L 104.624152 97.144908 
L 104.829883 90.927226 
L 105.035613 91.618077 
L 105.447074 80.268327 
L 105.652805 86.48601 
L 105.858536 85.499071 
L 106.064266 89.940287 
L 106.269997 76.616659 
L 106.475727 78.689232 
L 106.681458 75.037564 
L 106.887188 75.432328 
L 107.092919 73.162382 
L 107.298649 72.866314 
L 107.71011 54.904079 
L 107.915841 52.041977 
L 108.121571 53.226307 
L 108.327302 52.436741 
L 108.533033 50.364186 
L 108.738763 46.120363 
L 108.944494 38.817045 
L 109.355955 59.345294 
L 109.561685 61.615241 
L 109.767416 51.351125 
L 110.178877 47.699457 
L 110.590338 79.577457 
L 110.796068 83.130429 
L 111.001799 92.703693 
L 111.20753 95.467118 
L 111.41326 83.821281 
L 111.618991 83.722585 
L 112.030452 86.091246 
L 112.236182 101.783497 
L 112.647643 89.348131 
L 112.853374 91.519381 
L 113.059104 96.552753 
L 113.264835 98.131847 
L 113.470565 95.960578 
L 113.676296 96.552753 
L 113.882027 95.565814 
L 114.087757 106.718172 
L 114.293488 106.5208 
L 114.499218 103.658679 
L 114.704949 102.869131 
L 115.11641 97.737064 
L 115.32214 103.461287 
L 115.733601 92.50632 
L 115.939332 92.802389 
L 116.145062 92.111537 
L 116.350793 87.374253 
L 116.556524 91.420686 
L 116.762254 83.525212 
L 116.967985 101.191341 
L 117.173715 84.906915 
L 117.379446 86.288618 
L 117.585176 86.189923 
L 117.790907 88.262496 
L 117.996637 93.394563 
L 118.613829 75.827112 
L 118.819559 77.110119 
L 119.02529 73.95193 
L 119.231021 77.800989 
L 119.436751 77.011442 
L 119.642482 59.838755 
L 119.848212 54.60801 
L 120.053943 54.015855 
L 120.259673 54.015855 
L 120.465404 41.481774 
L 120.671134 46.90991 
L 120.876865 55.891018 
L 121.082595 57.371417 
L 121.699787 86.880793 
L 121.905518 93.888023 
L 122.111248 93.986719 
L 122.316979 93.295868 
L 122.522709 89.348131 
L 122.93417 91.420686 
L 123.139901 94.677571 
L 123.345631 95.269726 
L 123.757092 101.586124 
L 123.962823 92.901084 
L 124.168553 96.947517 
L 124.374284 106.915564 
L 124.580015 102.375671 
L 124.785745 113.824117 
L 124.991476 109.678989 
L 125.197206 108.001198 
L 125.402937 99.51355 
L 125.608667 116.587523 
L 126.020128 102.869131 
L 126.225859 115.501908 
L 126.431589 110.468536 
L 126.63732 111.159388 
L 126.84305 109.975057 
L 127.254512 82.735665 
L 127.460242 90.236355 
L 127.665973 91.914146 
L 128.077434 106.816868 
L 128.283164 100.105706 
L 128.488895 103.263914 
L 128.900356 97.440996 
L 129.106086 92.308929 
L 129.311817 91.32199 
L 129.517547 89.052044 
L 129.929009 73.754557 
L 130.134739 71.879375 
L 130.751931 46.515146 
L 130.957661 46.90991 
L 131.369122 40.001375 
L 131.574853 43.455633 
L 131.780583 30.72418 
L 132.192044 44.343876 
L 132.397775 37.040559 
L 132.603506 38.126193 
L 132.809236 34.869308 
L 133.220697 44.837355 
L 133.632158 41.58047 
L 133.837889 43.850416 
L 134.043619 40.790923 
L 134.24935 44.738659 
L 134.45508 38.126193 
L 134.660811 49.475943 
L 135.278003 50.462882 
L 135.483733 48.291632 
L 135.895194 48.192936 
L 136.100925 57.27274 
L 136.306655 56.483192 
L 136.512386 53.522376 
L 136.718116 52.535437 
L 136.923847 59.740078 
L 137.129577 52.831524 
L 137.541038 55.989714 
L 137.746769 59.147903 
L 137.9525 58.851834 
L 138.15823 55.594949 
L 138.363961 54.410619 
L 138.569691 47.205997 
L 138.775422 44.245181 
L 138.981152 44.738659 
L 139.186883 42.468713 
L 139.598344 33.092822 
L 139.804074 33.092822 
L 140.009805 27.467295 
L 140.215535 26.282965 
L 140.626997 23.322167 
L 140.832727 26.875139 
L 141.038458 21.743072 
L 141.244188 24.802566 
L 141.655649 17.499248 
L 141.86138 17.203161 
L 142.06711 13.255424 
L 142.272841 14.933215 
L 142.478571 18.486187 
L 142.684302 15.821458 
L 142.890032 15.722762 
L 143.301494 14.341059 
L 143.712955 23.124775 
L 143.918685 20.854829 
L 144.124416 32.895431 
L 144.330146 36.843167 
L 144.535877 38.224889 
L 144.741607 32.599362 
L 144.947338 55.200166 
L 145.153068 48.686396 
L 145.358799 60.430929 
L 145.564529 78.689232 
L 145.77026 77.110119 
L 145.975991 86.97947 
L 146.181721 79.97224 
L 147.004643 102.869131 
L 147.210374 92.111537 
L 147.416104 98.427916 
L 147.621835 99.316159 
L 147.827565 101.290037 
L 148.033296 101.783497 
L 148.444757 95.565814 
L 148.650488 94.085415 
L 149.061949 71.879375 
L 149.267679 93.197172 
L 149.67914 83.821281 
L 149.884871 89.052044 
L 150.090601 87.374253 
L 150.502062 76.419267 
L 150.707793 81.748726 
L 151.119254 66.648612 
L 151.324985 80.761787 
L 151.530715 73.754557 
L 151.736446 75.333652 
L 151.942176 70.102889 
L 152.353637 49.278552 
L 152.559368 36.448403 
L 152.765098 43.653025 
L 152.970829 44.245181 
L 153.176559 52.041977 
L 153.38229 48.686396 
L 153.793751 76.123199 
L 153.999482 82.340882 
L 154.410943 75.62972 
L 154.616673 72.767618 
L 155.028134 82.14349 
L 155.439595 92.012841 
L 155.851056 96.256665 
L 156.056787 89.742895 
L 156.262517 99.414855 
L 156.468248 103.362591 
L 156.673979 104.448226 
L 156.879709 108.395963 
L 157.08544 100.993949 
L 157.29117 98.921395 
L 157.496901 100.204402 
L 157.702631 99.612246 
L 157.908362 108.297267 
L 158.114092 111.356779 
L 158.319823 112.541091 
L 158.731284 96.848821 
L 158.937014 107.01426 
L 159.142745 101.191341 
L 159.348476 99.02009 
L 159.554206 89.545504 
L 159.759937 98.625307 
L 159.965667 99.118786 
L 160.171398 90.729834 
L 160.377128 99.908334 
L 160.582859 101.586124 
L 160.788589 94.480179 
L 160.99432 94.282806 
L 161.405781 78.294449 
L 161.611511 83.229125 
L 161.817242 72.570226 
L 162.022973 74.840173 
L 162.434434 55.10147 
L 162.640164 49.278552 
L 163.051625 62.010024 
L 163.257356 67.339464 
L 163.668817 56.088409 
L 164.080278 58.95053 
L 164.286008 50.857647 
L 164.491739 49.772031 
L 164.69747 45.429511 
L 165.108931 58.25966 
L 165.314661 61.121781 
L 165.520392 72.076766 
L 165.726122 72.668922 
L 165.931853 68.227707 
L 166.343314 81.65003 
L 166.960505 91.716773 
L 167.371967 104.053462 
L 167.577697 102.474367 
L 167.783428 101.980888 
L 167.989158 102.573044 
L 168.194889 89.150739 
L 168.400619 93.098476 
L 168.60635 105.731252 
L 168.81208 94.578875 
L 169.017811 98.625307 
L 169.223541 94.973658 
L 169.429272 101.882192 
L 169.635002 89.545504 
L 169.840733 93.591936 
L 170.046464 93.49324 
L 170.252194 95.368422 
L 170.457925 88.262496 
L 170.663655 89.446808 
L 170.869386 95.565814 
L 171.075116 97.440996 
L 171.280847 82.439578 
L 171.486577 87.867713 
L 172.103769 94.381483 
L 172.309499 82.735665 
L 172.51523 78.590537 
L 172.720961 76.81405 
L 173.338152 47.403389 
L 173.543883 54.509315 
L 173.749613 57.174044 
L 173.955344 64.674753 
L 174.161074 52.338064 
L 174.366805 49.278552 
L 174.572535 35.757551 
L 174.778266 36.843167 
L 175.189727 44.837355 
L 175.395458 42.962173 
L 175.806919 68.819881 
L 176.012649 61.615241 
L 176.629841 72.668922 
L 176.835571 87.966409 
L 177.041302 93.690632 
L 177.247032 89.249435 
L 177.452763 98.131847 
L 177.658493 96.355361 
L 177.864224 86.48601 
L 178.069955 88.854652 
L 178.275685 88.854652 
L 178.481416 96.947517 
L 178.687146 100.007029 
L 178.892877 100.401794 
L 179.098607 102.079584 
L 179.510068 98.033152 
L 179.715799 107.606415 
L 179.921529 96.651448 
L 180.12726 98.230543 
L 180.33299 104.744313 
L 180.538721 105.237773 
L 180.950182 95.368422 
L 181.155913 94.874962 
L 181.361643 86.387314 
L 181.567374 92.111537 
L 181.773104 89.052044 
L 182.184565 87.176862 
L 182.390296 89.052044 
L 182.801757 72.570226 
L 183.007487 75.333652 
L 183.213218 70.596349 
L 183.418949 75.333652 
L 183.624679 76.419267 
L 183.83041 72.767618 
L 184.03614 63.589118 
L 184.241871 65.069517 
L 184.447601 55.792322 
L 184.653332 40.494835 
L 184.859062 42.271322 
L 185.064793 41.58047 
L 185.270523 39.705288 
L 185.476254 34.375829 
L 185.681984 38.520958 
L 186.093445 37.139255 
L 186.504907 53.621072 
L 186.916368 71.583288 
L 187.73929 89.446808 
L 187.94502 94.381483 
L 188.150751 94.184111 
L 188.356481 95.763205 
L 188.562212 104.34953 
L 188.767942 102.17828 
L 188.973673 101.783497 
L 189.179404 102.276976 
L 189.385134 102.375671 
L 189.590865 94.085415 
L 189.796595 97.934456 
L 190.002326 96.059274 
L 190.208056 100.303098 
L 190.413787 87.275557 
L 190.619517 93.591936 
L 190.825248 88.854652 
L 191.030978 102.869131 
L 191.236709 103.066523 
L 191.64817 84.413455 
L 191.853901 74.050625 
L 192.059631 84.216064 
L 192.265362 82.044794 
L 192.471092 74.544104 
L 192.676823 72.570226 
L 193.088284 67.536855 
L 193.294014 68.425098 
L 193.499745 66.155152 
L 193.705475 54.509315 
L 193.911206 56.187105 
L 194.116936 56.483192 
L 194.322667 57.27274 
L 194.528398 62.996963 
L 194.734128 61.121781 
L 195.145589 53.324984 
L 195.35132 51.943281 
L 195.55705 40.297444 
L 195.762781 43.850416 
L 195.968511 41.383078 
L 196.585703 74.445408 
L 196.791433 77.011442 
L 197.202895 92.50632 
L 197.408625 93.295868 
L 197.820086 102.770436 
L 198.025817 98.131847 
L 198.231547 97.3423 
L 198.437278 101.487428 
L 198.643008 96.355361 
L 198.848739 87.966409 
L 199.2602 95.368422 
L 199.46593 96.750144 
L 199.671661 100.796577 
L 199.877392 96.256665 
L 200.083122 104.843009 
L 200.494583 84.117368 
L 200.700314 99.908334 
L 200.906044 97.3423 
L 201.111775 106.718172 
L 201.317505 105.632556 
L 201.523236 88.953348 
L 201.728966 83.821281 
L 201.934697 67.142091 
L 202.140427 74.149321 
L 202.346158 68.425098 
L 202.551889 78.886605 
L 202.757619 80.4657 
L 202.96335 85.499071 
L 203.16908 70.004193 
L 203.374811 67.931638 
L 203.580541 68.227707 
L 203.786272 65.266909 
L 203.992002 71.484592 
L 204.197733 68.425098 
L 204.403463 63.687814 
L 204.609194 64.378666 
L 204.814924 55.693645 
L 205.020655 63.687814 
L 205.226386 65.859065 
L 205.637847 56.877957 
L 205.843577 49.969403 
L 206.255038 69.412037 
L 206.460769 68.918558 
L 206.666499 57.963591 
L 207.07796 54.311923 
L 207.283691 49.081179 
L 207.489421 54.015855 
L 208.106613 97.539692 
L 208.312344 97.737064 
L 208.723805 90.631138 
L 208.929535 95.66451 
L 209.135266 96.947517 
L 209.546727 92.901084 
L 209.752457 95.072354 
L 209.958188 93.986719 
L 210.163918 91.124598 
L 210.369649 91.618077 
L 210.78111 108.889442 
L 210.986841 99.809638 
L 211.192571 102.276976 
L 211.398302 110.567232 
L 211.604032 84.80822 
L 211.809763 87.867713 
L 212.221224 97.3423 
L 212.426954 95.565814 
L 212.632685 91.914146 
L 212.838415 93.295868 
L 213.044146 77.30751 
L 213.249877 83.327821 
L 213.661338 75.432328 
L 213.867068 80.663091 
L 214.072799 79.281388 
L 214.278529 66.747308 
L 214.48426 72.964991 
L 214.68999 67.931638 
L 214.895721 66.846004 
L 215.307182 73.655861 
L 215.718643 62.996963 
L 215.924374 69.412037 
L 216.130104 71.978071 
L 216.335835 72.767618 
L 216.747296 58.358356 
L 216.953026 56.779261 
L 217.158757 40.494835 
L 217.364487 40.988295 
L 217.775948 73.95193 
L 217.981679 83.229125 
L 218.39314 63.78651 
L 218.598871 57.864896 
L 218.804601 56.976652 
L 219.010332 64.872126 
L 219.421793 73.063686 
L 219.627523 81.551334 
L 219.833254 70.79374 
L 220.038984 73.261078 
L 220.244715 72.866314 
L 220.450445 75.531024 
L 220.656176 80.169631 
L 220.861906 81.847422 
L 221.067637 89.446808 
L 221.273368 87.67034 
L 221.479098 89.150739 
L 221.684829 96.947517 
L 221.890559 94.874962 
L 222.09629 84.80822 
L 222.919212 112.935874 
L 223.124942 99.710942 
L 223.330673 113.330638 
L 223.536403 91.914146 
L 223.742134 91.519381 
L 223.947865 90.729834 
L 224.153595 95.269726 
L 224.359326 96.15797 
L 224.770787 81.748726 
L 225.182248 91.519381 
L 225.387978 87.769017 
L 225.593709 79.380084 
L 225.799439 83.031733 
L 226.2109 72.274139 
L 226.416631 72.274139 
L 226.622362 60.233538 
L 226.828092 63.983883 
L 227.239553 37.830106 
L 227.445284 45.034728 
L 227.651014 46.90991 
L 227.856745 52.338064 
L 228.062475 50.364186 
L 228.268206 56.187105 
L 228.473936 38.817045 
L 228.885397 75.62972 
L 229.091128 85.99255 
L 229.296859 82.735665 
L 229.502589 70.79374 
L 229.70832 66.549916 
L 229.91405 71.681983 
L 230.119781 69.806801 
L 230.325511 70.30028 
L 230.531242 77.800989 
L 230.736972 78.886605 
L 230.942703 83.525212 
L 231.148433 79.97224 
L 231.354164 78.985301 
L 231.559894 78.886605 
L 231.765625 71.089828 
L 232.177086 84.610828 
L 232.588547 86.880793 
L 232.794278 78.491841 
L 233.000008 82.14349 
L 233.205739 75.531024 
L 233.411469 72.570226 
L 233.6172 83.919976 
L 234.028661 74.741477 
L 234.440122 70.596349 
L 234.645853 66.253848 
L 234.851583 75.62972 
L 235.263044 62.503484 
L 235.468775 62.503484 
L 235.880236 70.79374 
L 236.085966 70.497653 
L 236.497427 61.911328 
L 236.703158 61.615241 
L 236.908888 53.818463 
L 237.114619 54.904079 
L 237.32035 52.831524 
L 237.52608 43.159565 
L 237.731811 41.086991 
L 238.143272 45.429511 
L 238.349002 49.870726 
L 238.554733 51.25243 
L 238.760463 51.351125 
L 239.377655 89.545504 
L 239.583385 85.104307 
L 239.789116 88.65726 
L 239.994847 86.683402 
L 240.200577 101.290037 
L 240.406308 103.954766 
L 240.817769 99.118786 
L 241.023499 104.941705 
L 241.22923 106.5208 
L 241.43496 98.921395 
L 241.640691 100.007029 
L 241.846421 107.310347 
L 242.052152 94.381483 
L 242.257882 105.139078 
L 242.463613 108.001198 
L 242.669344 94.480179 
L 243.080805 116.488846 
L 243.286535 109.777685 
L 243.492266 111.356779 
L 243.697996 122.311746 
L 243.903727 97.83576 
L 244.109457 104.152158 
L 244.315188 113.922813 
L 244.520918 116.982306 
L 244.726649 124.976476 
L 245.13811 107.50772 
L 245.549571 95.960578 
L 245.755302 97.046213 
L 245.961032 96.059274 
L 246.372493 102.375671 
L 246.578224 98.033152 
L 246.783954 101.388732 
L 246.989685 91.420686 
L 247.606876 78.689232 
L 247.812607 70.892436 
L 248.018338 73.261078 
L 248.224068 63.194335 
L 248.429799 46.515146 
L 248.635529 51.74589 
L 248.84126 48.489005 
L 249.252721 35.856247 
L 249.458451 37.534038 
L 249.664182 30.72418 
L 249.869912 41.876539 
L 250.075643 43.25826 
L 250.281373 34.968004 
L 250.487104 36.74449 
L 250.898565 57.864896 
L 251.104296 63.885206 
L 251.310026 57.174044 
L 251.515757 61.417868 
L 251.721487 56.384497 
L 252.338679 66.056456 
L 252.544409 66.155152 
L 252.75014 66.944699 
L 252.95587 70.991132 
L 253.367332 67.240768 
L 253.778793 77.208815 
L 253.984523 69.609429 
L 254.190254 86.97947 
L 254.395984 87.67034 
L 254.601715 78.393145 
L 254.807445 83.722585 
L 255.218906 79.676152 
L 255.424637 88.953348 
L 255.630367 85.104307 
L 255.836098 91.124598 
L 256.041829 82.242186 
L 256.247559 87.176862 
L 256.45329 79.083997 
L 256.65902 77.208815 
L 256.864751 87.176862 
L 257.070481 91.716773 
L 257.276212 88.361192 
L 257.481942 77.899666 
L 257.687673 78.787909 
L 258.099134 83.722585 
L 258.304864 81.65003 
L 258.510595 72.668922 
L 258.716326 53.226307 
L 258.922056 61.615241 
L 259.127787 60.825693 
L 259.539248 43.455633 
L 259.744978 44.442572 
L 260.156439 67.635551 
L 260.36217 65.4643 
L 260.773631 53.522376 
L 260.979361 56.285801 
L 261.185092 55.298862 
L 261.390823 59.542686 
L 261.596553 59.838755 
L 261.802284 58.062287 
L 262.213745 64.576057 
L 262.419475 64.77343 
L 262.625206 66.056456 
L 262.830936 69.214646 
L 263.036667 66.747308 
L 263.448128 75.728416 
L 263.859589 69.806801 
L 264.06532 73.95193 
L 264.27105 69.017254 
L 264.476781 76.517963 
L 264.682511 77.208815 
L 264.888242 75.432328 
L 265.093972 76.320572 
L 265.505433 89.052044 
L 265.711164 88.262496 
L 265.916894 90.927226 
L 266.122625 89.348131 
L 266.534086 81.353943 
L 266.739817 78.886605 
L 266.945547 73.261078 
L 267.151278 78.886605 
L 267.357008 80.761787 
L 267.562739 84.413455 
L 268.17993 76.221895 
L 268.385661 78.097058 
L 268.797122 68.227707 
L 269.002852 64.082578 
L 269.208583 63.78651 
L 269.414314 60.628302 
L 269.825775 50.956342 
L 270.031505 53.324984 
L 270.237236 41.975234 
L 270.648697 39.507897 
L 270.854427 43.356956 
L 271.060158 37.534038 
L 271.677349 54.904079 
L 271.88308 50.166795 
L 272.088811 48.291632 
L 272.500272 59.838755 
L 272.911733 73.261078 
L 273.117463 77.011442 
L 273.323194 71.978071 
L 273.528924 84.413455 
L 273.734655 88.459888 
L 273.940385 86.880793 
L 274.146116 93.888023 
L 274.351846 96.454057 
L 274.557577 109.18551 
L 274.969038 118.956184 
L 275.174769 99.710942 
L 275.380499 99.217482 
L 275.58623 110.271145 
L 275.79196 106.816868 
L 275.997691 117.87055 
L 276.203421 119.943104 
L 276.614882 95.171031 
L 277.232074 120.436583 
L 277.437805 115.896672 
L 277.643535 104.152158 
L 277.849266 106.027321 
L 278.054996 103.066523 
L 278.260727 96.355361 
L 278.466457 103.954766 
L 278.672188 91.223294 
L 278.877918 90.137678 
L 279.083649 93.888023 
L 279.289379 92.99978 
L 279.49511 89.052044 
L 279.70084 75.62972 
L 279.906571 76.912746 
L 280.318032 55.693645 
L 280.523763 56.088409 
L 280.729493 51.548517 
L 280.935224 35.757551 
L 281.140954 38.718349 
L 281.346685 45.034728 
L 281.758146 42.07393 
L 281.963876 57.470113 
L 282.375337 56.483192 
L 282.581068 51.548517 
L 282.786798 59.049207 
L 282.992529 40.198748 
L 283.19826 57.27274 
L 283.40399 56.779261 
L 283.815451 66.352544 
L 284.021182 65.168213 
L 284.226912 66.549916 
L 284.432643 70.79374 
L 284.638373 63.983883 
L 285.049834 82.340882 
L 285.255565 82.14349 
L 285.461295 76.81405 
L 285.667026 86.584706 
L 285.872757 86.782097 
L 286.078487 97.737064 
L 286.284218 91.124598 
L 286.489948 104.744313 
L 286.695679 95.861901 
L 286.901409 94.282806 
L 287.10714 101.092645 
L 287.31287 96.552753 
L 287.518601 98.921395 
L 287.724331 99.809638 
L 287.930062 105.632556 
L 288.135792 97.144908 
L 288.341523 78.195754 
L 288.547254 99.217482 
L 288.958715 97.539692 
L 289.164445 86.091246 
L 289.370176 92.308929 
L 289.575906 93.197172 
L 289.781637 96.15797 
L 289.987367 84.80822 
L 290.193098 83.229125 
L 290.604559 66.253848 
L 290.810289 68.326402 
L 291.01602 67.142091 
L 291.221751 70.201584 
L 291.427481 59.641382 
L 291.633212 38.224889 
L 291.838942 37.23795 
L 292.044673 32.40197 
L 292.250403 36.547099 
L 292.456134 51.647194 
L 292.661864 50.265491 
L 292.867595 39.705288 
L 293.073325 47.107301 
L 293.279056 33.586282 
L 293.484786 39.705288 
L 293.690517 41.185687 
L 293.896248 45.824294 
L 294.101978 58.457051 
L 294.307709 57.667504 
L 294.513439 59.740078 
L 294.9249 60.924389 
L 295.130631 65.95776 
L 295.336361 64.77343 
L 295.542092 66.944699 
L 295.747822 76.616659 
L 295.953553 80.761787 
L 296.159283 81.748726 
L 296.776475 93.098476 
L 296.982206 90.137678 
L 297.187936 99.612246 
L 297.393667 98.131847 
L 297.599397 89.940287 
L 298.010858 94.776266 
L 298.216589 91.618077 
L 298.62805 99.710942 
L 298.83378 89.348131 
L 299.039511 84.610828 
L 299.245242 86.584706 
L 299.450972 95.171031 
L 299.656703 96.059274 
L 299.862433 91.815469 
L 300.068164 97.440996 
L 300.273894 91.223294 
L 300.479625 92.605016 
L 300.685355 86.091246 
L 300.891086 87.769017 
L 301.714008 77.603598 
L 302.3312 41.777843 
L 302.742661 47.205997 
L 302.948391 34.869308 
L 303.154122 37.534038 
L 303.771313 63.391727 
L 303.977044 58.851834 
L 304.388505 65.562977 
L 304.594236 82.636969 
L 304.799966 83.426516 
L 305.005697 82.538273 
L 305.211427 86.683402 
L 305.417158 93.49324 
L 305.622888 87.769017 
L 305.828619 91.618077 
L 306.24008 109.086833 
L 306.44581 99.809638 
L 306.651541 96.15797 
L 307.063002 106.718172 
L 307.268733 111.356779 
L 307.680194 103.559983 
L 307.885924 98.625307 
L 308.297385 108.297267 
L 308.503116 97.3423 
L 308.914577 98.921395 
L 309.120307 100.993949 
L 309.531768 90.631138 
L 309.737499 86.288618 
L 309.94323 92.308929 
L 310.14896 93.098476 
L 310.354691 96.059274 
L 310.766152 87.769017 
L 310.971882 82.933038 
L 311.177613 71.879375 
L 311.383343 71.978071 
L 311.589074 69.708106 
L 311.794804 73.853234 
L 312.000535 70.497653 
L 312.411996 62.60218 
L 312.617727 62.010024 
L 312.823457 62.799571 
L 313.029188 55.397558 
L 313.234918 55.792322 
L 313.440649 53.42368 
L 313.646379 44.837355 
L 313.85211 43.455633 
L 314.263571 58.25966 
L 314.469301 63.687814 
L 314.675032 62.306092 
L 314.880762 59.93745 
L 315.086493 60.134842 
L 315.292224 53.621072 
L 316.115146 46.021667 
L 316.320876 55.693645 
L 316.526607 59.740078 
L 316.732337 59.740078 
L 316.938068 59.93745 
L 317.143798 61.713936 
L 317.349529 73.45847 
L 317.555259 71.681983 
L 317.76099 68.62249 
L 317.966721 85.696463 
L 318.172451 78.393145 
L 318.583912 89.841591 
L 318.789643 90.729834 
L 318.995373 84.31476 
L 319.201104 85.795158 
L 319.406834 85.400375 
L 319.612565 90.335051 
L 319.818295 86.288618 
L 320.024026 94.184111 
L 320.435487 83.623908 
L 320.641218 85.893854 
L 320.846948 81.255247 
L 321.052679 71.978071 
L 321.46414 75.234956 
L 321.875601 71.287219 
L 322.081331 74.346713 
L 322.287062 75.037564 
L 322.492792 67.240768 
L 322.904253 70.102889 
L 323.109984 70.497653 
L 323.932906 48.686396 
L 324.138637 52.338064 
L 324.344367 47.896849 
L 324.550098 58.25966 
L 324.961559 40.001375 
L 325.167289 34.079761 
L 325.37302 37.73141 
L 325.57875 44.442572 
L 325.784481 45.330815 
L 326.195942 39.803984 
L 326.401673 44.541268 
L 326.607403 40.100052 
L 326.813134 42.172626 
L 327.018864 46.219058 
L 327.224595 45.725598 
L 327.430325 43.850416 
L 327.841786 51.844585 
L 328.047517 50.857647 
L 328.253247 53.522376 
L 328.458978 66.253848 
L 328.664709 67.339464 
L 328.870439 67.240768 
L 329.07617 79.97224 
L 329.2819 83.229125 
L 329.487631 83.031733 
L 329.693361 73.853234 
L 329.899092 77.702294 
L 330.104822 71.978071 
L 330.310553 77.011442 
L 330.516283 72.570226 
L 330.722014 72.274139 
L 330.927744 74.248017 
L 331.133475 69.510733 
L 331.339206 55.496254 
L 331.544936 58.160983 
L 331.750667 57.7662 
L 331.956397 56.976652 
L 332.367858 45.034728 
L 332.573589 46.712518 
L 332.779319 44.343876 
L 332.98505 40.198748 
L 333.19078 40.297444 
L 333.396511 39.90268 
L 333.602241 44.738659 
L 333.807972 43.653025 
L 334.013703 47.403389 
L 334.219433 43.25826 
L 334.425164 48.09424 
L 334.836625 50.660274 
L 335.042355 46.219058 
L 335.248086 48.390309 
L 335.659547 38.817045 
L 335.865277 41.481774 
L 336.071008 41.383078 
L 336.482469 86.782097 
L 336.6882 84.216064 
L 337.099661 69.609429 
L 337.511122 84.413455 
L 337.716852 91.124598 
L 337.922583 80.860483 
L 338.128313 76.715355 
L 338.334044 91.124598 
L 338.539774 93.986719 
L 338.951235 105.040382 
L 339.156966 93.197172 
L 339.362697 93.986719 
L 339.568427 91.025921 
L 339.774158 102.770436 
L 339.979888 98.921395 
L 340.185619 100.105706 
L 340.391349 93.690632 
L 340.59708 93.986719 
L 340.80281 99.710942 
L 341.008541 91.519381 
L 341.214271 93.591936 
L 341.420002 111.356779 
L 341.625732 82.538273 
L 341.831463 94.776266 
L 342.448655 81.353943 
L 342.654385 91.914146 
L 342.860116 94.677571 
L 343.271577 81.255247 
L 343.477307 84.413455 
L 343.683038 78.590537 
L 343.888768 79.380084 
L 344.094499 78.787909 
L 344.711691 44.146504 
L 345.123152 34.573221 
L 345.534613 46.515146 
L 345.946074 40.593531 
L 346.151804 27.368599 
L 346.563265 41.58047 
L 346.768996 37.040559 
L 346.974726 47.205997 
L 347.180457 49.377248 
L 347.386188 48.390309 
L 347.591918 56.877957 
L 347.797649 55.200166 
L 348.41484 79.97224 
L 348.826301 84.610828 
L 349.237762 81.946118 
L 349.443493 94.776266 
L 349.649223 84.709524 
L 350.060685 91.914146 
L 350.266415 86.091246 
L 350.472146 89.052044 
L 350.677876 106.027321 
L 350.883607 106.915564 
L 351.089337 99.316159 
L 351.295068 101.980888 
L 351.500798 108.69205 
L 351.706529 122.805225 
L 351.912259 116.390151 
L 352.11799 91.815469 
L 352.529451 106.718172 
L 352.735182 107.50772 
L 352.940912 92.99978 
L 353.146643 106.915564 
L 353.352373 92.703693 
L 353.558104 94.480179 
L 353.763834 97.638368 
L 353.969565 97.539692 
L 354.175295 92.99978 
L 354.381026 92.111537 
L 354.586756 89.150739 
L 354.792487 88.854652 
L 354.998217 84.512132 
L 355.409679 71.484592 
L 355.615409 72.274139 
L 355.82114 74.248017 
L 356.02687 72.767618 
L 356.232601 43.455633 
L 356.438331 48.5877 
L 356.644062 57.7662 
L 356.849792 54.213227 
L 357.055523 46.317754 
L 357.261253 66.155152 
L 357.466984 68.129011 
L 357.672714 77.30751 
L 357.878445 78.294449 
L 358.289906 65.562977 
L 358.701367 74.149321 
L 358.907098 80.268327 
L 359.112828 75.728416 
L 359.318559 84.512132 
L 359.73002 88.459888 
L 360.141481 73.853234 
L 360.347211 82.242186 
L 360.552942 77.603598 
L 360.758673 90.729834 
L 360.964403 89.742895 
L 361.170134 91.32199 
L 361.375864 87.275557 
L 361.993056 83.229125 
L 362.198786 83.031733 
L 362.404517 95.960578 
L 362.610247 99.612246 
L 362.815978 76.221895 
L 363.021708 78.195754 
L 363.43317 87.078166 
L 363.6389 85.893854 
L 363.844631 81.65003 
L 364.050361 82.439578 
L 364.256092 82.242186 
L 364.667553 69.11595 
L 364.873283 67.931638 
L 365.284744 57.27274 
L 365.490475 65.365605 
L 365.696205 65.4643 
L 365.901936 51.74589 
L 366.107667 60.233538 
L 366.313397 45.232119 
L 366.519128 50.660274 
L 366.724858 50.462882 
L 366.930589 55.10147 
L 367.136319 38.224889 
L 367.34205 47.502066 
L 367.54778 72.668922 
L 367.753511 54.410619 
L 367.959241 54.60801 
L 368.164972 52.436741 
L 368.370702 46.317754 
L 368.576433 52.338064 
L 368.987894 57.075348 
L 369.399355 68.819881 
L 369.605086 67.832942 
L 369.810816 76.81405 
L 370.016547 80.761787 
L 370.222277 79.47878 
L 370.428008 91.519381 
L 370.633738 89.742895 
L 370.839469 94.085415 
L 371.045199 91.519381 
L 371.25093 85.30168 
L 371.662391 101.290037 
L 371.868122 102.770436 
L 372.073852 108.395963 
L 372.279583 101.092645 
L 372.485313 84.117368 
L 373.102505 110.36984 
L 373.308235 96.059274 
L 373.513966 89.545504 
L 373.719696 110.468536 
L 373.925427 95.960578 
L 374.131157 102.770436 
L 374.336888 87.472949 
L 374.542619 88.755956 
L 374.748349 84.512132 
L 374.95408 84.018672 
L 375.15981 82.044794 
L 375.365541 82.538273 
L 375.571271 80.564396 
L 375.777002 77.110119 
L 375.982732 70.991132 
L 376.188463 69.510733 
L 376.394193 58.851834 
L 376.599924 67.734247 
L 377.217116 48.489005 
L 377.422846 48.785092 
L 377.628577 53.127612 
L 377.834307 42.370017 
L 378.040038 44.639964 
L 378.245768 45.528207 
L 378.451499 53.818463 
L 379.06869 43.554329 
L 379.274421 50.857647 
L 379.480151 43.554329 
L 379.891613 63.983883 
L 380.303074 79.281388 
L 380.508804 79.182692 
L 380.714535 79.380084 
L 381.331726 96.947517 
L 381.537457 90.433747 
L 381.948918 107.50772 
L 382.360379 110.8633 
L 382.56611 110.567232 
L 382.77184 112.639787 
L 382.977571 106.323408 
L 383.389032 110.271145 
L 383.594762 100.895254 
L 383.800493 100.007029 
L 384.006223 92.802389 
L 384.211954 91.914146 
L 384.417684 104.053462 
L 384.623415 89.841591 
L 384.829145 90.82853 
L 385.034876 100.303098 
L 385.652068 79.97224 
L 385.857798 83.426516 
L 386.063529 78.985301 
L 386.269259 69.905497 
L 386.47499 90.433747 
L 386.68072 83.623908 
L 386.886451 84.31476 
L 387.503642 67.536855 
L 387.709373 56.285801 
L 387.915104 54.509315 
L 388.120834 59.641382 
L 388.326565 51.844585 
L 388.532295 53.127612 
L 388.738026 40.790923 
L 388.943756 39.507897 
L 389.149487 41.284383 
L 389.355217 45.626902 
L 389.766678 66.253848 
L 389.972409 68.819881 
L 390.178139 68.030315 
L 390.38387 67.832942 
L 390.589601 67.142091 
L 390.795331 63.391727 
L 391.001062 63.78651 
L 391.206792 67.536855 
L 391.412523 76.419267 
L 391.618253 74.938868 
L 391.823984 70.398976 
L 392.029714 75.234956 
L 392.235445 75.432328 
L 392.441175 73.063686 
L 392.646906 77.406206 
L 392.852636 75.531024 
L 393.264098 79.774848 
L 393.469828 93.394563 
L 393.675559 85.400375 
L 394.08702 101.487428 
L 394.29275 84.117368 
L 394.498481 95.763205 
L 394.704211 90.433747 
L 394.909942 93.098476 
L 395.115672 87.374253 
L 395.321403 88.065105 
L 395.527133 87.571645 
L 395.732864 92.210233 
L 395.938595 83.919976 
L 396.350056 103.559983 
L 396.555786 94.776266 
L 396.761517 103.263914 
L 396.967247 102.079584 
L 397.172978 103.658679 
L 397.584439 91.618077 
L 397.790169 89.348131 
L 397.9959 78.097058 
L 398.20163 86.189923 
L 398.613092 70.102889 
L 398.818822 72.372835 
L 399.024553 60.628302 
L 399.230283 61.911328 
L 399.436014 55.496254 
L 399.847475 28.55293 
L 400.053205 33.388909 
L 400.464666 48.291632 
L 400.670397 54.904079 
L 400.876127 87.769017 
L 401.081858 85.30168 
L 401.287589 84.512132 
L 401.493319 87.867713 
L 401.90478 82.439578 
L 402.110511 86.288618 
L 402.316241 83.031733 
L 402.521972 87.472949 
L 402.727702 94.973658 
L 402.933433 89.545504 
L 403.139163 79.577457 
L 403.344894 80.4657 
L 403.962086 86.189923 
L 404.167816 85.203003 
L 404.579277 94.677571 
L 404.785008 88.361192 
L 405.196469 110.172449 
L 405.402199 100.204402 
L 405.60793 111.060692 
L 405.81366 111.356779 
L 406.225121 105.829929 
L 406.430852 105.040382 
L 406.636583 102.474367 
L 406.842313 97.440996 
L 407.048044 86.584706 
L 407.253774 103.559983 
L 407.459505 83.327821 
L 407.870966 79.873544 
L 408.076696 84.018672 
L 408.282427 83.919976 
L 408.693888 77.998362 
L 409.105349 68.326402 
L 409.31108 46.41645 
L 409.31108 46.41645 
" clip-path="url(#p801e26d035)" style="fill: none; stroke: #1f77b4; stroke-width: 1.5; stroke-linecap: square"/>
   </g>
   <g id="line2d_15">
    <path d="M 54.22017 68.328021 
L 55.043093 53.182315 
L 55.454554 49.306054 
L 55.660284 48.721165 
L 55.866015 49.0533 
L 56.071745 50.237555 
L 56.483206 54.656652 
L 58.129051 77.06479 
L 59.157703 85.987147 
L 60.186356 93.628587 
L 60.597817 95.181779 
L 60.803548 95.439785 
L 61.009278 95.356375 
L 61.420739 94.36729 
L 62.243661 91.54679 
L 62.655123 90.909531 
L 63.272314 90.694237 
L 63.478045 90.407506 
L 63.683775 89.783706 
L 64.095236 87.032686 
L 64.506697 81.830405 
L 65.123889 70.119529 
L 65.946811 54.075885 
L 66.358272 49.267728 
L 66.564003 48.060526 
L 66.769733 47.657554 
L 66.975464 47.996392 
L 67.386925 50.452134 
L 68.209847 58.670462 
L 71.090075 87.510052 
L 71.501536 89.304891 
L 71.707266 89.504787 
L 71.912997 89.265586 
L 72.324458 87.758758 
L 73.353111 82.716972 
L 74.381763 79.314764 
L 74.793224 76.214685 
L 75.204685 70.894318 
L 75.821877 58.996894 
L 76.85053 38.628595 
L 77.261991 34.461555 
L 77.467721 33.622669 
L 77.673452 33.594452 
L 77.879182 34.306292 
L 78.290643 37.527468 
L 78.907835 45.145358 
L 79.936488 61.306748 
L 80.96514 82.144921 
L 81.788063 98.0564 
L 82.199524 102.96986 
L 82.405254 104.328918 
L 82.610985 104.933215 
L 82.816715 104.823846 
L 83.022446 104.083279 
L 83.433907 101.180366 
L 84.874021 86.950255 
L 85.491212 79.491223 
L 86.108404 68.919292 
L 87.548518 41.249181 
L 87.959979 37.773577 
L 88.165709 37.227465 
L 88.37144 37.432857 
L 88.57717 38.303481 
L 88.988631 41.561815 
L 90.017284 53.253584 
L 91.045937 67.011262 
L 92.897512 97.303353 
L 93.308973 99.66326 
L 93.514703 99.801694 
L 93.720434 99.310041 
L 94.131895 96.85012 
L 96.600661 75.51781 
L 97.835045 62.123798 
L 98.246506 60.242724 
L 98.452236 60.297126 
L 98.657967 61.056555 
L 99.069428 64.506332 
L 99.89235 75.594312 
L 100.509542 82.847255 
L 100.921003 85.938788 
L 101.538194 88.746751 
L 102.155386 91.546488 
L 103.5955 99.655824 
L 103.80123 99.821685 
L 104.006961 99.503517 
L 104.212691 98.695522 
L 104.624152 95.777041 
L 105.858536 83.015488 
L 107.298649 68.757611 
L 108.533033 53.93747 
L 108.944494 51.975584 
L 109.150224 52.135816 
L 109.355955 53.117917 
L 109.767416 57.392914 
L 110.384607 67.68984 
L 111.20753 81.260631 
L 111.824721 87.293986 
L 112.441913 90.487509 
L 113.059104 93.463347 
L 114.499218 101.895031 
L 114.704949 102.342992 
L 114.910679 102.44598 
L 115.11641 102.218451 
L 115.527871 100.967727 
L 117.173715 93.447064 
L 117.585176 90.567136 
L 117.996637 86.208785 
L 118.613829 76.832649 
L 119.436751 63.859548 
L 119.848212 60.348328 
L 120.053943 59.821549 
L 120.259673 60.170194 
L 120.465404 61.35972 
L 120.876865 65.844551 
L 122.522709 88.216734 
L 123.139901 92.43443 
L 123.962823 97.689853 
L 125.197206 106.437502 
L 125.608667 107.774253 
L 125.814398 107.995476 
L 126.020128 107.96067 
L 126.431589 107.369963 
L 127.665973 104.80361 
L 128.077434 103.029401 
L 128.488895 99.478631 
L 128.900356 93.452937 
L 129.517547 79.926365 
L 130.5462 55.059586 
L 130.957661 48.571587 
L 131.369122 45.135683 
L 131.574853 44.445151 
L 131.780583 44.283017 
L 131.986314 44.497087 
L 132.809236 46.174464 
L 133.014967 46.291174 
L 133.220697 46.221185 
L 133.632158 45.696797 
L 134.043619 45.156973 
L 134.24935 45.07328 
L 134.45508 45.183252 
L 134.866541 46.014024 
L 135.895194 49.152109 
L 136.100925 49.3524 
L 136.306655 49.295023 
L 136.512386 48.987735 
L 136.923847 47.805269 
L 137.746769 45.244261 
L 138.15823 44.708992 
L 138.569691 44.440068 
L 138.775422 44.166006 
L 138.981152 43.637758 
L 139.392613 41.37841 
L 139.804074 37.100382 
L 140.421266 27.515937 
L 141.244188 15.339706 
L 141.655649 12.808404 
L 141.86138 12.818362 
L 142.06711 13.682321 
L 142.478571 17.661777 
L 143.095763 27.2341 
L 146.593182 86.298106 
L 147.004643 90.658509 
L 147.416104 92.89875 
L 147.621835 93.305411 
L 147.827565 93.338448 
L 148.033296 93.093111 
L 148.444757 92.126917 
L 149.267679 89.470583 
L 149.67914 87.297092 
L 150.090601 83.695647 
L 150.502062 78.214578 
L 152.147907 51.091952 
L 152.353637 49.861446 
L 152.559368 49.52419 
L 152.765098 50.071657 
L 153.176559 53.508634 
L 153.793751 62.380166 
L 154.822404 77.668353 
L 157.29117 107.984614 
L 157.702631 110.531466 
L 157.908362 111.041265 
L 158.114092 111.05032 
L 158.319823 110.608495 
L 158.731284 108.692972 
L 159.759937 101.683126 
L 160.377128 96.660616 
L 160.788589 91.941798 
L 161.405781 81.62761 
L 162.845895 54.216484 
L 163.257356 51.42486 
L 163.463086 51.377329 
L 163.668817 52.172109 
L 164.080278 55.808417 
L 165.726122 75.240302 
L 168.400619 95.445112 
L 168.60635 95.954535 
L 168.81208 96.112151 
L 169.017811 95.95623 
L 169.429272 94.970081 
L 171.075116 89.320723 
L 171.486577 86.187174 
L 171.898038 80.9566 
L 172.51523 69.176489 
L 173.543883 48.527952 
L 173.955344 44.493304 
L 174.161074 43.892056 
L 174.366805 44.238856 
L 174.572535 45.462265 
L 174.983996 50.024916 
L 178.069955 93.735302 
L 178.687146 100.443753 
L 179.098607 103.113282 
L 179.304338 103.748885 
L 179.510068 103.919207 
L 179.715799 103.667526 
L 180.12726 102.20661 
L 181.773104 93.645529 
L 182.184565 90.155185 
L 182.596026 84.676807 
L 183.213218 72.333756 
L 184.241871 49.149813 
L 184.653332 43.668084 
L 184.859062 42.356633 
L 185.064793 42.048818 
L 185.270523 42.705711 
L 185.681984 46.502006 
L 186.299176 56.092833 
L 187.73929 79.473208 
L 188.767942 92.652152 
L 189.179404 96.205934 
L 189.590865 97.780661 
L 189.796595 97.658812 
L 190.002326 96.903957 
L 190.413787 93.662358 
L 191.236709 83.381037 
L 191.853901 76.635728 
L 192.471092 72.647143 
L 193.294014 68.542562 
L 193.911206 63.353947 
L 194.734128 55.245796 
L 195.145589 53.238185 
L 195.35132 53.240482 
L 195.55705 54.009737 
L 195.968511 57.820696 
L 196.585703 67.844425 
L 197.820086 89.358767 
L 198.437278 96.631532 
L 199.2602 103.505694 
L 199.671661 105.608235 
L 199.877392 106.099681 
L 200.083122 106.098345 
L 200.288853 105.52554 
L 200.700314 102.483572 
L 201.111775 97.004366 
L 202.757619 70.027234 
L 203.16908 66.811536 
L 203.580541 65.055889 
L 204.403463 62.508096 
L 205.637847 57.514914 
L 205.843577 57.488372 
L 206.049308 57.958791 
L 206.460769 60.509596 
L 207.07796 67.640408 
L 208.106613 80.396972 
L 208.723805 84.733224 
L 209.958188 90.761779 
L 210.986841 96.990267 
L 211.192571 97.565067 
L 211.398302 97.698418 
L 211.604032 97.34774 
L 212.015493 95.231588 
L 212.632685 89.638383 
L 213.455607 82.304702 
L 214.072799 78.922051 
L 214.68999 75.944462 
L 215.101451 73.082078 
L 215.924374 65.058938 
L 216.541565 60.089231 
L 216.747296 59.294262 
L 216.953026 59.059542 
L 217.158757 59.396666 
L 217.570218 61.591955 
L 219.010332 72.775411 
L 219.421793 74.052338 
L 220.038984 75.317538 
L 220.450445 76.980608 
L 220.861906 79.906317 
L 222.507751 94.289282 
L 222.713481 94.793773 
L 222.919212 94.888309 
L 223.124942 94.626952 
L 223.536403 93.346825 
L 224.565056 88.76358 
L 225.182248 85.066828 
L 225.593709 81.260725 
L 226.2109 73.119162 
L 227.033823 61.530588 
L 227.445284 58.189746 
L 227.651014 57.575359 
L 227.856745 57.71865 
L 228.062475 58.587824 
L 228.473936 62.107552 
L 229.70832 75.165362 
L 230.119781 76.920314 
L 230.325511 77.216966 
L 230.531242 77.23771 
L 231.354164 76.6826 
L 231.559894 76.787904 
L 231.971356 77.421661 
L 232.588547 78.538318 
L 232.794278 78.627658 
L 233.000008 78.459727 
L 233.205739 78.001882 
L 233.6172 76.249698 
L 235.263044 67.286793 
L 235.880236 65.182143 
L 236.291697 63.061643 
L 236.908888 58.072678 
L 237.52608 52.661371 
L 237.937541 50.903182 
L 238.143272 51.077307 
L 238.349002 52.10517 
L 238.760463 56.850191 
L 239.377655 69.591583 
L 240.612038 98.008718 
L 241.22923 106.409548 
L 241.846421 111.258215 
L 242.669344 115.490274 
L 243.080805 116.805942 
L 243.286535 117.090132 
L 243.492266 117.043184 
L 243.697996 116.621953 
L 244.109457 114.614606 
L 244.726649 109.301788 
L 245.961032 97.691698 
L 246.578224 92.037106 
L 247.195415 83.602448 
L 247.812607 71.152061 
L 248.84126 49.187706 
L 249.252721 44.155313 
L 249.458451 42.935574 
L 249.664182 42.58836 
L 249.869912 43.046393 
L 250.281373 45.878 
L 251.927218 61.593819 
L 252.95587 68.691726 
L 254.601715 81.73922 
L 255.013176 82.82156 
L 255.218906 82.970592 
L 255.630367 82.842041 
L 256.041829 82.686759 
L 256.45329 82.918016 
L 257.070481 83.578824 
L 257.276212 83.52077 
L 257.481942 83.121055 
L 257.687673 82.266771 
L 258.099134 78.896864 
L 258.510595 73.281578 
L 259.950709 50.71558 
L 260.156439 49.384081 
L 260.36217 48.817432 
L 260.5679 48.983763 
L 260.773631 49.8007 
L 261.185092 52.875347 
L 262.625206 65.588578 
L 263.653858 73.193273 
L 265.093972 86.203777 
L 265.505433 87.678077 
L 265.711164 87.783606 
L 265.916894 87.510466 
L 266.328355 86.125675 
L 268.385661 76.396979 
L 268.797122 72.087779 
L 269.414314 62.505592 
L 270.237236 48.862347 
L 270.648697 44.895296 
L 270.854427 44.116347 
L 271.060158 44.201602 
L 271.265888 45.124011 
L 271.677349 49.115571 
L 272.500272 61.565338 
L 273.528924 76.053737 
L 274.763308 92.862325 
L 275.79196 106.920082 
L 276.203421 110.071457 
L 276.409152 110.864581 
L 276.614882 111.146926 
L 276.820613 110.967587 
L 277.232074 109.528131 
L 277.849266 105.847586 
L 278.466457 101.131706 
L 278.877918 96.862393 
L 279.289379 90.927037 
L 279.906571 78.229807 
L 281.140954 49.194614 
L 281.552415 43.858002 
L 281.758146 42.626404 
L 281.963876 42.366347 
L 282.169607 43.013074 
L 282.581068 46.527645 
L 283.40399 57.830522 
L 284.432643 70.840876 
L 285.667026 86.297485 
L 286.489948 96.274868 
L 286.901409 99.285475 
L 287.10714 100.092548 
L 287.31287 100.437767 
L 287.518601 100.364371 
L 287.724331 99.939845 
L 288.135792 98.3622 
L 288.958715 93.939169 
L 289.370176 91.022909 
L 289.781637 86.842768 
L 290.193098 80.699836 
L 290.810289 67.512704 
L 291.838942 43.301801 
L 292.250403 37.555817 
L 292.456134 36.156758 
L 292.661864 35.793525 
L 292.867595 36.426379 
L 293.279056 40.244416 
L 293.896248 49.86154 
L 294.9249 66.258667 
L 296.159283 81.448817 
L 296.982206 89.698639 
L 297.393667 92.028277 
L 297.599397 92.545418 
L 297.805128 92.622052 
L 298.010858 92.294961 
L 298.422319 90.734785 
L 299.245242 86.876388 
L 299.656703 85.786876 
L 300.273894 84.802779 
L 300.685355 83.35745 
L 301.096816 80.275574 
L 301.508277 75.274769 
L 302.742661 57.49112 
L 302.948391 56.026816 
L 303.154122 55.392814 
L 303.359852 55.637003 
L 303.565583 56.747034 
L 303.977044 61.241315 
L 304.799966 75.223247 
L 305.622888 88.495993 
L 306.44581 98.405703 
L 307.268733 105.994435 
L 307.680194 108.271741 
L 307.885924 108.76731 
L 308.091655 108.7476 
L 308.297385 108.179672 
L 308.708846 105.451486 
L 309.326038 98.539506 
L 310.14896 89.192115 
L 310.766152 84.720461 
L 311.383343 80.931733 
L 311.794804 77.159683 
L 312.411996 68.219499 
L 313.646379 46.869927 
L 314.05784 43.253649 
L 314.263571 42.543634 
L 314.469301 42.543144 
L 314.675032 43.178728 
L 315.086493 45.914651 
L 316.115146 56.019776 
L 317.143798 67.025343 
L 318.789643 87.463386 
L 319.201104 89.426233 
L 319.406834 89.533833 
L 319.612565 89.094549 
L 320.024026 86.919289 
L 321.258409 78.397437 
L 322.287062 73.465096 
L 322.698523 69.938647 
L 323.315715 61.759943 
L 324.344367 46.659358 
L 324.755828 43.339958 
L 324.961559 42.585781 
L 325.167289 42.410621 
L 325.37302 42.741967 
L 325.784481 44.491911 
L 327.224595 52.085518 
L 327.841786 55.518767 
L 328.458978 60.964315 
L 329.487631 71.367279 
L 329.899092 73.291536 
L 330.104822 73.408397 
L 330.310553 72.949517 
L 330.722014 70.532233 
L 332.573589 55.413446 
L 333.396511 50.671474 
L 334.630894 42.47837 
L 334.836625 42.07777 
L 335.042355 42.290071 
L 335.248086 43.194145 
L 335.659547 47.154663 
L 336.276738 57.44741 
L 337.305391 76.441085 
L 337.922583 84.068142 
L 339.774158 100.447499 
L 340.185619 103.479942 
L 340.59708 104.878474 
L 340.80281 104.766375 
L 341.008541 104.075731 
L 341.420002 101.082386 
L 342.037194 93.814816 
L 344.50596 59.39836 
L 345.328882 46.68831 
L 345.740343 43.148722 
L 345.946074 42.572962 
L 346.151804 42.884824 
L 346.357535 44.083329 
L 346.768996 48.850506 
L 347.591918 63.52969 
L 348.41484 76.275412 
L 349.032032 82.315601 
L 350.060685 91.358565 
L 351.295068 103.634132 
L 351.706529 105.709548 
L 351.912259 106.135673 
L 352.11799 106.180362 
L 352.32372 105.896793 
L 352.735182 104.625438 
L 353.558104 100.812521 
L 354.175295 96.664927 
L 354.586756 92.298914 
L 355.203948 82.39406 
L 356.438331 59.213844 
L 356.849792 55.568332 
L 357.055523 55.107287 
L 357.261253 55.562666 
L 357.466984 56.863255 
L 357.878445 61.460919 
L 359.318559 80.557205 
L 359.93575 84.770345 
L 361.581595 92.78379 
L 361.787325 93.304131 
L 361.993056 93.498003 
L 362.198786 93.315595 
L 362.404517 92.736485 
L 362.815978 90.471508 
L 363.6389 83.481163 
L 364.667553 75.433119 
L 365.284744 69.992183 
L 365.901936 61.776828 
L 367.136319 43.056822 
L 367.34205 41.599012 
L 367.54778 41.06267 
L 367.753511 41.52507 
L 367.959241 43.000481 
L 368.370702 48.732516 
L 368.987894 62.023634 
L 370.016547 84.49327 
L 370.633738 93.776696 
L 371.25093 100.402358 
L 371.868122 105.118145 
L 372.279583 106.794335 
L 372.485313 106.991369 
L 372.691044 106.678867 
L 372.896774 105.82223 
L 373.308235 102.502076 
L 373.925427 94.512312 
L 374.95408 80.605489 
L 377.011385 58.114845 
L 377.834307 47.87778 
L 378.040038 46.539843 
L 378.245768 45.990644 
L 378.451499 46.313519 
L 378.657229 47.535686 
L 379.06869 52.49135 
L 379.685882 64.235244 
L 380.714535 84.048019 
L 381.331726 92.050791 
L 382.154648 99.696485 
L 382.77184 104.201703 
L 383.183301 106.016007 
L 383.389032 106.338543 
L 383.594762 106.191261 
L 383.800493 105.547659 
L 384.211954 102.841253 
L 384.829145 96.347248 
L 385.857798 85.706176 
L 386.886451 77.086306 
L 387.503642 69.16815 
L 388.738026 50.218806 
L 389.149487 47.281125 
L 389.355217 46.999193 
L 389.560948 47.526048 
L 389.972409 50.727909 
L 390.589601 58.852117 
L 391.412523 69.674128 
L 392.235445 77.318466 
L 393.058367 85.02052 
L 394.29275 97.368052 
L 394.704211 99.362354 
L 394.909942 99.740967 
L 395.115672 99.741889 
L 395.321403 99.427316 
L 395.732864 98.18032 
L 397.172978 92.496645 
L 397.584439 89.457989 
L 397.9959 84.643883 
L 398.613092 74.137387 
L 399.436014 59.308738 
L 399.847475 54.873188 
L 400.053205 53.8944 
L 400.258936 53.79738 
L 400.464666 54.548563 
L 400.876127 58.190688 
L 402.727702 80.993778 
L 404.990738 98.909987 
L 405.402199 100.112747 
L 405.60793 100.136333 
L 405.81366 99.807492 
L 406.225121 98.356271 
L 408.076696 89.646214 
L 408.488157 85.883049 
L 408.899618 80.129743 
L 409.31108 72.537943 
L 409.31108 72.537943 
" clip-path="url(#p801e26d035)" style="fill: none; stroke-dasharray: 5.55,2.4; stroke-dashoffset: 0; stroke: #ff7f0e; stroke-width: 1.5"/>
   </g>
   <g id="line2d_16">
    <path d="M 54.22017 77.216006 
L 54.425901 76.357863 
L 54.631632 73.610513 
L 54.837362 69.208622 
L 55.454554 47.470686 
L 55.660284 47.232257 
L 55.866015 48.086296 
L 56.277476 54.370598 
L 56.483206 55.08675 
L 56.894667 61.206076 
L 57.100398 59.846491 
L 57.306129 53.463719 
L 57.511859 53.023325 
L 58.540512 75.864327 
L 59.157703 82.295798 
L 59.363434 87.952931 
L 59.569164 90.443253 
L 59.774895 90.17015 
L 59.980626 88.714016 
L 60.186356 104.032887 
L 60.392087 102.570315 
L 60.597817 102.117007 
L 61.009278 99.327491 
L 61.215009 98.735618 
L 61.420739 99.853047 
L 61.62647 99.163588 
L 61.8322 97.073301 
L 62.037931 96.551811 
L 62.243661 97.197052 
L 62.655123 97.311635 
L 62.860853 96.382958 
L 63.272314 91.251625 
L 63.889506 79.087366 
L 64.095236 77.889275 
L 64.300967 80.164605 
L 64.506697 88.022844 
L 64.712428 79.332666 
L 64.918158 79.511007 
L 65.123889 79.171492 
L 65.32962 76.122069 
L 65.741081 64.179957 
L 66.152542 48.582919 
L 66.769733 36.53155 
L 66.975464 35.475055 
L 67.181194 36.843995 
L 67.386925 43.200282 
L 68.209847 87.14439 
L 68.621308 68.737318 
L 68.827039 63.145336 
L 69.032769 61.34899 
L 69.44423 70.335068 
L 69.855691 75.281791 
L 70.061422 75.662286 
L 70.678614 80.598919 
L 70.884344 80.621584 
L 71.090075 82.282282 
L 71.501536 87.791682 
L 71.912997 91.013027 
L 72.324458 91.060294 
L 72.530188 90.840728 
L 72.735919 87.280452 
L 72.941649 89.178524 
L 73.14738 88.286554 
L 73.353111 87.892053 
L 73.558841 86.422629 
L 73.970302 82.006713 
L 74.176033 81.239152 
L 74.381763 77.35395 
L 74.587494 78.467125 
L 74.998955 71.188486 
L 76.027608 54.752506 
L 76.85053 37.181101 
L 77.05626 35.857151 
L 77.261991 35.830288 
L 77.467721 37.615453 
L 77.673452 37.482986 
L 78.496374 28.555998 
L 79.113566 27.42142 
L 79.319296 32.552697 
L 79.730757 52.439094 
L 79.936488 56.007634 
L 80.75941 88.916019 
L 80.96514 91.789623 
L 81.376602 91.397551 
L 81.582332 91.29556 
L 81.788063 92.331631 
L 82.199524 98.935268 
L 82.610985 106.117301 
L 82.816715 106.419468 
L 83.022446 106.513872 
L 83.228176 105.596188 
L 83.639637 102.235204 
L 84.46256 89.928107 
L 84.66829 89.754472 
L 84.874021 91.844119 
L 85.079751 89.554106 
L 85.285482 82.669686 
L 85.491212 81.503991 
L 85.696943 85.166371 
L 85.902673 84.732094 
L 86.725596 71.318486 
L 87.137057 59.944227 
L 87.548518 47.422194 
L 87.959979 45.987783 
L 88.165709 46.112136 
L 88.37144 44.72761 
L 88.988631 33.261676 
L 89.194362 34.046668 
L 89.400093 40.669864 
L 89.811554 44.764035 
L 90.223015 50.274997 
L 91.045937 66.578397 
L 91.251667 66.843707 
L 91.457398 64.34194 
L 91.663128 67.185914 
L 92.28032 89.628161 
L 92.486051 94.128541 
L 92.691781 94.7847 
L 92.897512 93.075906 
L 93.103242 87.741459 
L 93.308973 85.514244 
L 93.926164 88.776531 
L 94.131895 89.180086 
L 94.337625 93.677812 
L 94.543356 92.144028 
L 94.954817 82.70485 
L 95.160548 81.240771 
L 95.366278 80.751528 
L 95.572009 82.725669 
L 95.777739 83.540309 
L 95.98347 83.384727 
L 96.394931 84.630217 
L 96.600661 82.08954 
L 97.012122 72.603207 
L 97.629314 67.898169 
L 97.835045 64.852869 
L 98.040775 59.673985 
L 98.246506 50.036418 
L 98.452236 56.940227 
L 98.657967 56.720435 
L 98.863697 58.251114 
L 99.480889 80.915431 
L 99.686619 80.474717 
L 99.89235 84.091409 
L 100.303811 92.878646 
L 100.509542 93.66921 
L 100.715272 93.367475 
L 101.538194 83.716335 
L 101.743925 84.174161 
L 101.949655 85.835122 
L 102.361116 91.648252 
L 102.566847 92.223052 
L 103.184039 96.026745 
L 103.389769 99.266218 
L 103.5955 99.475469 
L 103.80123 96.702142 
L 104.006961 97.228978 
L 104.212691 100.513459 
L 104.418422 99.327246 
L 104.829883 91.834876 
L 105.035613 90.668975 
L 105.447074 83.796659 
L 105.652805 83.893924 
L 105.858536 88.053791 
L 106.064266 86.439928 
L 106.269997 79.501237 
L 106.475727 76.800648 
L 106.681458 76.819735 
L 107.092919 73.133073 
L 107.298649 69.189214 
L 107.71011 57.496297 
L 108.121571 51.584754 
L 108.327302 52.86202 
L 108.533033 50.04615 
L 108.738763 43.249055 
L 108.944494 43.749386 
L 109.355955 55.387393 
L 109.561685 59.377729 
L 109.767416 56.137616 
L 109.973146 48.062145 
L 110.178877 51.24138 
L 110.590338 76.63426 
L 111.001799 89.451759 
L 111.20753 90.491217 
L 111.618991 83.986445 
L 111.824721 84.674981 
L 112.236182 97.754006 
L 112.441913 92.323913 
L 112.647643 93.172832 
L 113.264835 96.815785 
L 113.470565 97.044895 
L 113.676296 95.945707 
L 113.882027 98.078029 
L 114.087757 103.391035 
L 114.293488 105.002263 
L 115.11641 99.608952 
L 115.32214 100.724009 
L 115.527871 99.301118 
L 115.939332 93.070032 
L 116.350793 89.291225 
L 116.556524 89.59904 
L 116.762254 88.059344 
L 116.967985 94.219783 
L 117.173715 87.046823 
L 117.585176 85.701828 
L 117.790907 90.392559 
L 117.996637 90.096792 
L 118.613829 78.650097 
L 118.819559 76.187032 
L 119.02529 75.903802 
L 119.436751 71.866311 
L 119.848212 57.596612 
L 120.053943 52.36856 
L 120.259673 50.996137 
L 120.465404 46.045367 
L 120.876865 53.014515 
L 121.905518 91.682588 
L 122.111248 94.115289 
L 122.522709 91.677581 
L 122.72844 91.226588 
L 122.93417 91.050449 
L 123.139901 92.220247 
L 123.345631 94.848721 
L 123.551362 99.509315 
L 123.757092 100.009947 
L 123.962823 96.121243 
L 124.168553 97.586771 
L 124.374284 103.566628 
L 124.580015 105.385036 
L 124.785745 110.470117 
L 124.991476 110.524689 
L 125.197206 106.456948 
L 125.402937 104.699417 
L 125.608667 110.795608 
L 125.814398 110.283889 
L 126.020128 106.684985 
L 126.225859 112.424531 
L 126.431589 110.492274 
L 126.63732 109.751425 
L 126.84305 105.063084 
L 127.254512 86.799171 
L 127.460242 88.766611 
L 127.871703 100.435338 
L 128.077434 102.182195 
L 128.283164 102.603408 
L 128.488895 101.676368 
L 128.900356 96.546541 
L 129.517547 86.404463 
L 131.163392 42.495067 
L 131.574853 39.076933 
L 131.780583 36.310101 
L 131.986314 36.929213 
L 132.192044 40.691116 
L 132.397775 40.096137 
L 132.603506 37.549191 
L 132.809236 37.660462 
L 133.220697 41.328977 
L 133.632158 42.772424 
L 133.837889 43.024933 
L 134.043619 43.019926 
L 134.24935 42.666651 
L 134.45508 43.489517 
L 134.866541 48.98205 
L 135.072272 49.678135 
L 135.278003 49.832099 
L 135.483733 48.7254 
L 135.689464 49.517997 
L 135.895194 52.313536 
L 136.100925 53.397759 
L 136.306655 53.301492 
L 136.718116 54.816979 
L 136.923847 55.93661 
L 137.129577 55.120897 
L 137.335308 55.90988 
L 137.541038 57.405903 
L 137.746769 57.694423 
L 137.9525 56.959428 
L 138.15823 55.323635 
L 140.215535 26.507689 
L 140.626997 24.345418 
L 140.832727 24.477282 
L 141.038458 23.678416 
L 141.86138 16.351587 
L 142.272841 15.404707 
L 142.478571 15.716851 
L 142.684302 15.804083 
L 142.890032 15.613261 
L 143.095763 15.869234 
L 143.301494 16.390497 
L 143.507224 18.318048 
L 143.918685 26.119156 
L 144.330146 35.303679 
L 144.535877 37.479108 
L 144.741607 38.049955 
L 144.947338 49.935237 
L 145.153068 52.269487 
L 145.975991 84.247124 
L 146.181721 82.689112 
L 146.387452 86.115322 
L 146.798913 97.137906 
L 147.004643 98.426956 
L 147.210374 95.48662 
L 147.416104 98.985661 
L 147.621835 98.900763 
L 147.827565 99.809111 
L 148.033296 99.691892 
L 148.239026 98.628658 
L 148.444757 96.10097 
L 148.856218 85.325662 
L 149.061949 76.470432 
L 149.267679 89.087207 
L 149.47341 85.296766 
L 149.67914 86.312299 
L 149.884871 88.259202 
L 150.090601 86.252551 
L 150.502062 78.797453 
L 150.707793 76.976504 
L 151.119254 69.89185 
L 151.324985 77.419929 
L 151.530715 74.890132 
L 151.736446 74.726926 
L 151.942176 69.389881 
L 152.147907 61.105742 
L 152.559368 42.033251 
L 152.765098 42.812915 
L 152.970829 44.373976 
L 153.38229 53.630879 
L 153.793751 72.386351 
L 153.999482 79.116713 
L 154.205212 80.658423 
L 154.410943 75.382689 
L 154.616673 75.020848 
L 155.645326 93.525919 
L 155.851056 94.837935 
L 156.056787 94.305132 
L 156.262517 97.155921 
L 156.468248 103.597857 
L 156.673979 105.59312 
L 157.29117 100.039765 
L 157.496901 99.957634 
L 157.908362 106.52479 
L 158.114092 111.709283 
L 158.319823 110.918832 
L 158.525553 103.297779 
L 158.731284 101.285199 
L 158.937014 103.896674 
L 159.142745 101.544221 
L 159.348476 96.132256 
L 159.554206 94.925317 
L 159.759937 97.572935 
L 159.965667 97.599779 
L 160.171398 96.266473 
L 160.377128 96.732769 
L 160.582859 98.208952 
L 160.788589 96.52205 
L 161.611511 79.026601 
L 162.022973 70.908738 
L 162.434434 58.080321 
L 162.640164 53.807846 
L 162.845895 55.096162 
L 163.051625 63.256907 
L 163.257356 64.814825 
L 163.463086 60.321466 
L 164.69747 49.516849 
L 164.9032 51.080413 
L 165.314661 62.26963 
L 165.520392 69.697508 
L 165.726122 73.049041 
L 165.931853 71.384089 
L 166.137583 74.310438 
L 166.549044 84.939387 
L 166.754775 88.310442 
L 167.371967 102.99821 
L 167.783428 101.582472 
L 167.989158 99.547284 
L 168.194889 94.769151 
L 168.400619 94.439575 
L 168.60635 100.954042 
L 168.81208 97.089866 
L 169.017811 98.228359 
L 169.223541 97.133369 
L 169.429272 97.063418 
L 169.635002 93.814232 
L 169.840733 93.359362 
L 170.046464 94.497761 
L 170.252194 92.934648 
L 170.457925 89.026555 
L 170.663655 89.956381 
L 170.869386 95.405901 
L 171.075116 94.556493 
L 171.280847 88.145993 
L 171.486577 87.125057 
L 171.692308 89.989832 
L 171.898038 90.160286 
L 172.103769 89.209603 
L 172.309499 86.324705 
L 172.926691 66.999967 
L 173.338152 51.685991 
L 173.543883 52.001731 
L 173.749613 60.244795 
L 173.955344 60.303658 
L 174.572535 39.396494 
L 174.778266 37.005169 
L 175.601188 55.254493 
L 175.806919 64.85477 
L 176.012649 64.113921 
L 176.21838 63.885808 
L 176.42411 66.836723 
L 177.041302 91.814659 
L 177.452763 96.12049 
L 177.658493 94.15706 
L 177.864224 89.371285 
L 178.069955 88.391744 
L 178.892877 101.538517 
L 179.098607 101.303967 
L 179.304338 101.251277 
L 179.510068 100.431894 
L 179.715799 102.625921 
L 179.921529 98.327865 
L 180.12726 99.629339 
L 180.33299 103.371213 
L 180.538721 103.178226 
L 181.361643 90.269712 
L 181.773104 89.146711 
L 181.978835 89.242112 
L 182.184565 87.855891 
L 182.596026 80.895082 
L 183.007487 73.266161 
L 183.213218 73.033135 
L 183.418949 73.153667 
L 183.624679 74.499905 
L 183.83041 72.57578 
L 184.447601 53.028746 
L 184.653332 45.181764 
L 184.859062 43.753339 
L 185.270523 38.739131 
L 185.681984 36.581397 
L 185.887715 37.289774 
L 186.093445 39.527304 
L 186.299176 44.73049 
L 187.122098 77.431581 
L 187.327829 79.329051 
L 188.150751 94.442681 
L 188.767942 102.639136 
L 188.973673 102.458272 
L 189.179404 101.798594 
L 189.796595 97.31973 
L 190.002326 96.644578 
L 190.208056 97.015924 
L 190.413787 91.081491 
L 190.619517 90.637294 
L 190.825248 92.301192 
L 191.030978 100.407761 
L 191.236709 100.807852 
L 191.853901 78.527268 
L 192.059631 80.027903 
L 192.471092 78.036726 
L 192.882553 70.341242 
L 193.088284 68.580982 
L 193.911206 56.73397 
L 194.116936 56.825606 
L 194.322667 60.075564 
L 194.528398 60.24054 
L 195.35132 49.397088 
L 195.55705 44.409291 
L 195.762781 43.232302 
L 195.968511 46.183537 
L 196.174242 53.308475 
L 196.585703 74.88552 
L 196.997164 85.652395 
L 197.408625 96.205934 
L 197.614356 98.80058 
L 197.820086 99.761033 
L 198.231547 97.955068 
L 198.437278 97.68541 
L 198.643008 95.276786 
L 198.848739 91.155715 
L 199.054469 91.642229 
L 199.2602 96.909454 
L 199.46593 98.48661 
L 199.671661 97.394387 
L 199.877392 98.072551 
L 200.083122 99.190187 
L 200.288853 95.552561 
L 200.494583 87.159242 
L 200.700314 97.421287 
L 201.111775 105.097946 
L 201.317505 102.143191 
L 201.934697 71.92284 
L 202.140427 72.212264 
L 202.346158 73.124169 
L 202.757619 80.30927 
L 202.96335 79.377562 
L 203.374811 69.816101 
L 203.580541 66.749322 
L 203.786272 67.761485 
L 203.992002 67.68873 
L 204.197733 67.791924 
L 204.403463 65.972745 
L 204.609194 61.467206 
L 204.814924 60.975855 
L 205.020655 64.221577 
L 205.226386 63.735666 
L 205.843577 54.591991 
L 206.049308 59.204338 
L 206.255038 67.583106 
L 206.460769 67.911477 
L 206.666499 58.959867 
L 206.87223 55.122648 
L 207.07796 53.676359 
L 207.283691 53.604713 
L 207.489421 57.234282 
L 207.695152 67.774154 
L 208.106613 95.126643 
L 208.312344 93.586948 
L 208.518074 94.267954 
L 208.723805 93.308197 
L 208.929535 93.664297 
L 209.135266 96.916796 
L 209.340996 96.626977 
L 209.546727 93.685926 
L 209.752457 92.62337 
L 209.958188 92.678883 
L 210.163918 92.90948 
L 210.369649 94.097067 
L 210.57538 98.151029 
L 210.78111 105.4141 
L 211.192571 102.953182 
L 211.398302 106.355221 
L 211.604032 89.914102 
L 211.809763 88.770112 
L 212.015493 94.222173 
L 212.221224 95.074669 
L 212.632685 92.851106 
L 212.838415 89.884153 
L 213.044146 82.223795 
L 213.249877 81.914229 
L 213.455607 78.685392 
L 213.867068 76.589684 
L 214.072799 76.365825 
L 214.278529 71.075521 
L 214.48426 72.388986 
L 214.895721 68.996698 
L 215.101451 68.786581 
L 215.307182 69.811658 
L 215.512912 68.892298 
L 215.718643 66.067788 
L 215.924374 67.010754 
L 216.130104 71.43915 
L 216.335835 70.459684 
L 217.158757 46.668997 
L 217.364487 44.445772 
L 217.981679 80.681614 
L 218.39314 64.248853 
L 218.598871 58.594864 
L 218.804601 57.695157 
L 219.421793 75.391386 
L 219.627523 76.845807 
L 219.833254 72.54327 
L 220.038984 72.331949 
L 221.684829 93.402488 
L 221.890559 93.107399 
L 222.09629 90.442801 
L 222.507751 96.982944 
L 222.713481 105.651362 
L 222.919212 107.53782 
L 223.124942 102.778191 
L 223.330673 108.561805 
L 223.536403 93.985025 
L 223.742134 92.318228 
L 223.947865 94.192525 
L 224.153595 93.82532 
L 224.359326 93.196607 
L 224.565056 90.855543 
L 224.770787 85.727673 
L 224.976517 85.136063 
L 225.182248 88.905459 
L 225.387978 87.446218 
L 225.799439 78.75139 
L 226.00517 77.227357 
L 226.416631 68.77427 
L 227.033823 51.750313 
L 227.239553 42.869012 
L 227.445284 42.920289 
L 227.856745 50.620875 
L 228.062475 53.095347 
L 228.268206 52.988688 
L 228.473936 44.90932 
L 228.679667 55.997545 
L 228.885397 77.27534 
L 229.091128 84.666303 
L 229.502589 74.353282 
L 229.70832 68.370602 
L 229.91405 67.055198 
L 230.325511 73.407173 
L 230.736972 81.108813 
L 231.148433 80.332556 
L 231.559894 77.037965 
L 231.765625 74.780876 
L 231.971356 76.948381 
L 232.177086 84.251811 
L 232.382817 85.92962 
L 232.794278 81.099721 
L 233.411469 76.352083 
L 233.6172 79.402259 
L 234.645853 71.182142 
L 234.851583 71.266418 
L 235.057314 67.627287 
L 235.468775 64.379927 
L 235.674505 65.233891 
L 235.880236 69.089502 
L 236.085966 68.831948 
L 236.497427 61.995266 
L 237.114619 54.157959 
L 237.731811 43.364185 
L 237.937541 44.096299 
L 238.143272 45.392145 
L 238.760463 55.002586 
L 238.966194 65.036424 
L 239.171924 81.816399 
L 239.377655 88.437092 
L 239.583385 85.041697 
L 239.789116 87.534711 
L 240.406308 100.88266 
L 240.612038 103.234003 
L 240.817769 103.106261 
L 241.023499 103.130469 
L 241.22923 102.838768 
L 241.640691 100.221363 
L 241.846421 102.609601 
L 242.052152 99.084394 
L 242.257882 101.278234 
L 242.463613 106.022295 
L 242.669344 100.347975 
L 243.080805 112.08479 
L 243.286535 108.783781 
L 243.492266 111.932878 
L 243.697996 117.148826 
L 243.903727 102.731846 
L 244.315188 110.967305 
L 244.520918 119.286569 
L 244.726649 120.940189 
L 245.549571 96.14532 
L 245.755302 96.792085 
L 245.961032 97.885061 
L 246.166763 101.173495 
L 246.372493 101.994366 
L 246.783954 96.572481 
L 247.401146 83.517814 
L 248.018338 68.122309 
L 248.429799 52.325979 
L 248.635529 52.338158 
L 249.252721 37.430259 
L 249.458451 34.527101 
L 249.664182 35.455967 
L 249.869912 41.070332 
L 250.075643 41.080497 
L 250.281373 35.660211 
L 250.487104 38.791312 
L 250.898565 55.400457 
L 251.104296 59.519513 
L 251.310026 60.789795 
L 251.515757 59.813417 
L 251.721487 59.569134 
L 252.132948 61.637943 
L 252.75014 67.57264 
L 252.95587 68.568728 
L 253.161601 68.352832 
L 253.367332 70.121242 
L 253.573062 73.788779 
L 253.778793 75.174191 
L 253.984523 74.681691 
L 254.190254 82.24117 
L 254.395984 84.73744 
L 254.601715 82.110774 
L 254.807445 83.322889 
L 255.013176 82.437017 
L 255.424637 84.679179 
L 255.836098 87.474925 
L 256.041829 87.025477 
L 256.247559 84.60887 
L 256.45329 79.547168 
L 256.65902 80.433247 
L 256.864751 87.57236 
L 257.070481 88.300333 
L 257.481942 81.553706 
L 257.687673 79.510047 
L 257.893403 79.971317 
L 258.099134 84.215348 
L 258.304864 80.98638 
L 258.716326 59.46368 
L 258.922056 62.972359 
L 259.539248 46.665363 
L 259.744978 49.209354 
L 260.156439 64.591249 
L 260.36217 66.35725 
L 260.5679 58.748226 
L 260.773631 55.890001 
L 260.979361 55.326647 
L 261.185092 55.161068 
L 261.596553 59.282233 
L 262.008014 62.169315 
L 262.625206 66.641214 
L 263.448128 71.378442 
L 263.653858 72.049791 
L 263.859589 72.308719 
L 264.27105 73.360621 
L 264.682511 75.456122 
L 265.093972 78.565726 
L 265.916894 89.409912 
L 266.122625 89.127811 
L 266.534086 82.93844 
L 266.739817 78.339251 
L 266.945547 76.508438 
L 267.357008 79.905206 
L 267.562739 83.112358 
L 267.768469 83.120885 
L 268.17993 76.786511 
L 268.591391 71.435329 
L 269.002852 64.825762 
L 269.414314 59.46545 
L 270.237236 45.344538 
L 270.648697 41.367774 
L 270.854427 41.025248 
L 271.060158 41.57983 
L 271.265888 43.234636 
L 271.88308 52.58807 
L 272.088811 49.791231 
L 272.294541 52.878434 
L 272.706002 66.98856 
L 273.117463 75.946815 
L 273.323194 77.808764 
L 274.146116 92.543122 
L 274.351846 98.467428 
L 274.763308 112.663844 
L 274.969038 113.914248 
L 275.174769 104.223182 
L 275.380499 102.188934 
L 275.58623 107.760003 
L 275.79196 110.262598 
L 275.997691 114.642447 
L 276.203421 116.162094 
L 276.409152 111.805419 
L 276.614882 99.457473 
L 276.820613 103.761629 
L 277.026343 113.770449 
L 277.232074 116.828775 
L 277.643535 107.911538 
L 277.849266 105.934442 
L 278.260727 99.7558 
L 278.466457 99.390929 
L 278.672188 93.108698 
L 278.877918 92.063366 
L 279.083649 93.208899 
L 279.289379 90.890801 
L 279.906571 73.288129 
L 280.935224 40.444142 
L 281.140954 41.218102 
L 281.346685 40.553247 
L 281.552415 42.741082 
L 282.169607 56.109813 
L 282.375337 53.666419 
L 282.581068 54.146552 
L 282.786798 56.18287 
L 282.992529 45.985016 
L 283.19826 56.53831 
L 283.40399 57.981361 
L 283.815451 64.69689 
L 284.021182 65.144664 
L 284.432643 66.666947 
L 284.638373 68.637342 
L 285.049834 78.442615 
L 285.461295 82.092382 
L 286.078487 93.889473 
L 286.284218 93.250746 
L 286.489948 98.240972 
L 286.695679 98.482073 
L 286.901409 97.361425 
L 287.10714 97.724188 
L 287.31287 96.91384 
L 287.518601 98.645186 
L 287.724331 102.740072 
L 287.930062 102.02057 
L 288.135792 96.566871 
L 288.341523 84.320633 
L 288.547254 98.551704 
L 288.752984 97.087908 
L 289.164445 90.757506 
L 289.370176 93.075906 
L 289.781637 90.867929 
L 290.193098 81.644684 
L 290.604559 68.408043 
L 290.810289 66.380121 
L 291.01602 70.183231 
L 291.221751 66.69603 
L 291.838942 36.789744 
L 292.044673 34.044352 
L 292.456134 47.232539 
L 292.661864 47.468408 
L 292.867595 41.742735 
L 293.073325 41.674309 
L 293.279056 37.70579 
L 293.484786 39.322007 
L 293.690517 42.394094 
L 294.101978 54.430629 
L 294.513439 58.658735 
L 294.71917 59.163358 
L 294.9249 61.3184 
L 295.336361 68.294665 
L 295.747822 74.593951 
L 296.365014 85.868705 
L 297.187936 96.136058 
L 297.393667 96.189048 
L 297.599397 93.315953 
L 297.805128 92.482169 
L 298.010858 93.242802 
L 298.216589 94.586273 
L 298.422319 97.547089 
L 298.62805 95.613985 
L 298.83378 88.402304 
L 299.039511 86.882996 
L 299.450972 92.022781 
L 299.656703 94.313189 
L 299.862433 95.34653 
L 300.273894 92.92277 
L 300.891086 87.403487 
L 301.302547 82.76537 
L 301.714008 74.39095 
L 302.3312 45.415167 
L 302.53693 46.094159 
L 302.742661 42.732253 
L 302.948391 37.494111 
L 303.154122 40.188225 
L 303.565583 56.321247 
L 303.977044 63.082387 
L 304.182774 61.319116 
L 304.388505 66.532749 
L 304.594236 78.693506 
L 304.799966 84.012479 
L 305.005697 84.080002 
L 305.622888 91.718147 
L 306.24008 105.091038 
L 306.44581 103.647252 
L 306.651541 99.660719 
L 306.857271 100.707199 
L 307.063002 107.812974 
L 307.268733 108.902713 
L 307.474463 105.632801 
L 307.885924 103.024488 
L 308.091655 102.720043 
L 308.297385 104.257555 
L 308.503116 100.409813 
L 308.914577 97.866218 
L 309.120307 99.274294 
L 309.326038 96.923572 
L 309.531768 91.206729 
L 309.737499 89.471599 
L 310.354691 93.739613 
L 310.560421 92.748871 
L 310.971882 82.860319 
L 311.383343 71.473278 
L 311.589074 72.030929 
L 312.000535 68.662209 
L 312.411996 64.379249 
L 313.234918 55.139684 
L 313.646379 46.619037 
L 313.85211 46.565463 
L 314.469301 61.145537 
L 314.675032 63.322962 
L 315.086493 58.419873 
L 315.497954 50.336515 
L 315.703685 50.398258 
L 315.909415 49.920893 
L 316.115146 50.112487 
L 316.320876 53.151236 
L 316.526607 59.004292 
L 316.732337 61.522286 
L 316.938068 60.720541 
L 317.143798 63.697546 
L 317.349529 69.464858 
L 317.555259 71.61879 
L 317.76099 70.92999 
L 317.966721 81.284575 
L 318.172451 79.359434 
L 318.583912 88.004246 
L 318.789643 88.952218 
L 318.995373 86.696089 
L 319.201104 86.447232 
L 319.818295 89.864914 
L 320.024026 89.637423 
L 320.846948 80.648615 
L 321.258409 73.671033 
L 321.46414 73.914657 
L 322.081331 72.79736 
L 323.109984 68.322336 
L 323.315715 64.553958 
L 323.727176 53.419765 
L 324.138637 50.859058 
L 324.550098 52.739718 
L 324.961559 42.31377 
L 325.167289 37.178917 
L 325.37302 37.304212 
L 325.57875 43.710081 
L 325.784481 44.393121 
L 325.990212 40.330819 
L 326.195942 40.186399 
L 326.401673 42.086241 
L 326.607403 42.590036 
L 326.813134 42.752113 
L 327.224595 45.109969 
L 328.047517 52.492781 
L 328.253247 56.576373 
L 328.664709 68.093113 
L 329.07617 76.288119 
L 329.2819 81.308482 
L 329.487631 81.635987 
L 329.693361 77.039208 
L 329.899092 75.266581 
L 330.104822 75.528125 
L 330.516283 72.346199 
L 330.722014 72.114076 
L 330.927744 73.288656 
L 331.133475 69.100062 
L 331.339206 59.368674 
L 331.544936 55.829538 
L 331.750667 57.681829 
L 331.956397 55.008309 
L 332.367858 46.846039 
L 333.19078 41.873922 
L 333.396511 42.117057 
L 333.602241 42.913079 
L 334.013703 45.554994 
L 334.630894 48.069467 
L 334.836625 48.200748 
L 335.042355 47.653262 
L 335.248086 46.444272 
L 335.659547 41.524637 
L 335.865277 37.708181 
L 336.071008 46.303222 
L 336.276738 70.661217 
L 336.482469 81.165512 
L 336.6882 80.421858 
L 336.89393 79.114737 
L 337.099661 71.669748 
L 337.305391 74.924242 
L 337.511122 86.727752 
L 337.716852 88.136166 
L 337.922583 80.443468 
L 338.128313 81.597567 
L 338.745505 100.543766 
L 338.951235 101.153335 
L 339.156966 94.549358 
L 339.362697 93.442113 
L 339.774158 99.646601 
L 339.979888 98.892782 
L 340.185619 98.826539 
L 340.391349 96.480599 
L 340.59708 95.574096 
L 340.80281 95.894749 
L 341.008541 95.018215 
L 341.214271 93.481456 
L 341.420002 106.384022 
L 341.625732 87.898604 
L 341.831463 91.427199 
L 342.242924 88.976238 
L 342.448655 85.956163 
L 342.654385 87.282748 
L 342.860116 91.037649 
L 343.065846 90.026954 
L 343.271577 84.062759 
L 343.477307 81.683726 
L 343.683038 81.553763 
L 344.094499 74.679903 
L 344.50596 58.53841 
L 344.917421 39.286636 
L 345.123152 36.174566 
L 345.328882 41.077391 
L 345.534613 42.591429 
L 345.740343 42.239716 
L 345.946074 39.425201 
L 346.151804 31.817966 
L 346.357535 32.065486 
L 346.563265 40.043222 
L 346.768996 41.432078 
L 347.797649 58.579823 
L 348.620571 81.650426 
L 348.826301 83.866666 
L 349.032032 84.092671 
L 349.237762 85.902231 
L 349.443493 89.499516 
L 349.649223 88.246627 
L 349.854954 90.662198 
L 350.060685 89.486678 
L 350.266415 86.977192 
L 350.472146 91.474862 
L 350.677876 103.479453 
L 350.883607 105.678977 
L 351.089337 99.022011 
L 351.295068 101.721395 
L 351.706529 116.690285 
L 351.912259 114.138916 
L 352.11799 98.019109 
L 352.32372 103.858103 
L 352.529451 103.372022 
L 352.735182 105.867502 
L 352.940912 95.830502 
L 353.146643 101.339432 
L 353.352373 97.334902 
L 353.558104 96.967772 
L 354.381026 92.005839 
L 354.792487 88.122594 
L 354.998217 83.588104 
L 355.409679 72.712519 
L 355.615409 72.488793 
L 356.02687 69.232642 
L 356.232601 48.772461 
L 356.644062 53.603076 
L 356.849792 53.945 
L 357.055523 51.871994 
L 357.261253 64.066804 
L 357.672714 75.705695 
L 357.878445 75.837616 
L 358.084176 68.336361 
L 358.289906 67.367211 
L 358.701367 74.606657 
L 359.318559 83.089675 
L 359.73002 85.769727 
L 359.93575 83.342673 
L 360.141481 77.044177 
L 361.170134 90.154225 
L 361.581595 86.190111 
L 361.787325 85.214184 
L 361.993056 85.402465 
L 362.404517 90.683602 
L 362.610247 94.88285 
L 362.815978 79.76713 
L 363.021708 82.606869 
L 363.227439 81.400928 
L 363.43317 85.586378 
L 363.6389 86.00936 
L 364.050361 81.042344 
L 364.256092 79.614729 
L 364.667553 70.327594 
L 365.079014 62.09703 
L 365.284744 61.274634 
L 365.490475 64.254633 
L 365.696205 62.152298 
L 365.901936 55.145557 
L 366.107667 56.664828 
L 366.313397 49.235294 
L 366.519128 49.820447 
L 366.724858 53.978488 
L 366.930589 51.363098 
L 367.136319 42.334364 
L 367.34205 47.677452 
L 367.54778 66.628282 
L 367.753511 55.94687 
L 367.959241 54.130325 
L 368.164972 49.562422 
L 368.576433 51.798616 
L 369.605086 70.549363 
L 370.428008 87.503632 
L 370.839469 91.423754 
L 371.045199 91.428234 
L 371.25093 89.832856 
L 371.45666 92.312863 
L 371.868122 103.699753 
L 372.073852 106.665521 
L 372.279583 102.470546 
L 372.485313 89.193903 
L 372.691044 91.741602 
L 372.896774 110.030081 
L 373.102505 109.820152 
L 373.308235 94.443509 
L 373.513966 94.678267 
L 373.719696 105.976608 
L 373.925427 98.743825 
L 374.131157 97.64123 
L 374.542619 88.484529 
L 374.748349 85.057999 
L 375.15981 82.285595 
L 375.365541 81.963643 
L 375.571271 79.861967 
L 376.394193 63.683165 
L 376.599924 65.104813 
L 376.805654 62.224696 
L 377.217116 52.949741 
L 377.628577 49.152297 
L 377.834307 45.380172 
L 378.040038 45.218189 
L 378.245768 47.807283 
L 378.451499 48.150468 
L 378.657229 46.678729 
L 378.86296 46.458146 
L 379.06869 46.60778 
L 379.274421 48.510897 
L 379.480151 48.241747 
L 379.685882 53.456453 
L 380.097343 70.474405 
L 380.508804 80.376454 
L 380.714535 80.88215 
L 380.920265 85.019673 
L 381.125996 92.547545 
L 381.331726 95.831406 
L 381.537457 95.873214 
L 381.743187 99.775246 
L 381.948918 106.685644 
L 382.154648 109.779266 
L 382.360379 109.907723 
L 382.56611 110.474259 
L 382.77184 110.359638 
L 383.183301 108.194995 
L 383.594762 102.747093 
L 384.006223 94.950918 
L 384.211954 94.976086 
L 384.417684 99.764027 
L 384.623415 94.193805 
L 384.829145 93.129065 
L 385.034876 94.601125 
L 385.446337 84.342017 
L 385.652068 82.892358 
L 385.857798 80.500468 
L 386.063529 79.424472 
L 386.269259 75.117379 
L 386.47499 85.356571 
L 386.68072 85.140374 
L 387.503642 67.319886 
L 387.709373 58.321121 
L 387.915104 54.565825 
L 388.120834 56.425929 
L 388.326565 53.94741 
L 388.738026 44.693895 
L 388.943756 41.08221 
L 389.149487 42.20122 
L 389.972409 68.178538 
L 390.178139 66.654862 
L 390.589601 66.681912 
L 391.001062 64.755566 
L 391.206792 67.238208 
L 391.412523 73.732796 
L 391.618253 75.545688 
L 391.823984 73.118183 
L 392.029714 73.808131 
L 392.235445 76.209602 
L 392.441175 76.303686 
L 392.646906 74.960761 
L 392.852636 75.635273 
L 393.058367 77.986258 
L 393.264098 81.931679 
L 393.469828 88.278403 
L 393.675559 88.459191 
L 393.881289 95.661253 
L 394.08702 96.128547 
L 394.29275 89.28842 
L 394.498481 92.532768 
L 394.704211 91.515071 
L 394.909942 91.386312 
L 395.115672 89.350578 
L 395.321403 88.85324 
L 395.527133 89.440408 
L 395.732864 89.338738 
L 395.938595 88.94546 
L 396.144325 92.219683 
L 396.350056 99.27676 
L 396.555786 97.402199 
L 396.761517 102.382956 
L 396.967247 102.209133 
L 397.172978 101.084268 
L 397.378708 97.749112 
L 397.9959 83.154355 
L 398.20163 82.254121 
L 398.613092 73.293588 
L 399.230283 60.853309 
L 399.436014 52.046401 
L 399.641744 37.963439 
L 399.847475 32.99087 
L 400.464666 46.4813 
L 400.670397 57.731638 
L 400.876127 81.382669 
L 401.081858 88.975579 
L 401.287589 86.50794 
L 401.493319 85.979637 
L 401.90478 83.17589 
L 402.316241 85.894833 
L 402.521972 88.800062 
L 402.727702 89.14577 
L 403.344894 82.407652 
L 403.550624 81.973017 
L 404.785008 93.545534 
L 404.990738 98.206392 
L 405.196469 105.428143 
L 405.402199 104.142105 
L 405.81366 108.540157 
L 406.019391 108.6445 
L 406.430852 105.424171 
L 406.636583 102.953728 
L 407.048044 89.716729 
L 407.253774 98.547394 
L 407.459505 83.508967 
L 407.870966 82.141175 
L 408.076696 82.303873 
L 408.282427 84.094026 
L 408.488157 82.311666 
L 409.105349 63.855576 
L 409.31108 51.545053 
L 409.31108 51.545053 
" clip-path="url(#p801e26d035)" style="fill: none; stroke-dasharray: 1.5,2.475; stroke-dashoffset: 0; stroke: #2ca02c; stroke-width: 1.5"/>
   </g>
   <g id="patch_3">
    <path d="M 36.465625 130.584879 
L 36.465625 7.2 
" style="fill: none; stroke: #000000; stroke-width: 0.8; stroke-linejoin: miter; stroke-linecap: square"/>
   </g>
   <g id="patch_4">
    <path d="M 427.065625 130.584879 
L 427.065625 7.2 
" style="fill: none; stroke: #000000; stroke-width: 0.8; stroke-linejoin: miter; stroke-linecap: square"/>
   </g>
   <g id="patch_5">
    <path d="M 36.465625 130.584879 
L 427.065625 130.584879 
" style="fill: none; stroke: #000000; stroke-width: 0.8; stroke-linejoin: miter; stroke-linecap: square"/>
   </g>
   <g id="patch_6">
    <path d="M 36.465625 7.2 
L 427.065625 7.2 
" style="fill: none; stroke: #000000; stroke-width: 0.8; stroke-linejoin: miter; stroke-linecap: square"/>
   </g>
   <g id="legend_1">
    <g id="patch_7">
     <path d="M 171.838281 59.234375 
L 291.692969 59.234375 
Q 293.692969 59.234375 293.692969 57.234375 
L 293.692969 14.2 
Q 293.692969 12.2 291.692969 12.2 
L 171.838281 12.2 
Q 169.838281 12.2 169.838281 14.2 
L 169.838281 57.234375 
Q 169.838281 59.234375 171.838281 59.234375 
z
" style="fill: #ffffff; opacity: 0.8; stroke: #cccccc; stroke-linejoin: miter"/>
    </g>
    <g id="line2d_17">
     <path d="M 173.838281 20.298438 
L 183.838281 20.298438 
L 193.838281 20.298438 
" style="fill: none; stroke: #1f77b4; stroke-width: 1.5; stroke-linecap: square"/>
    </g>
    <g id="text_14">
     <!-- raw -->
     <g transform="translate(201.838281 23.798438) scale(0.1 -0.1)">
      <defs>
       <path id="DejaVuSans-72" d="M 2631 2963 
Q 2534 3019 2420 3045 
Q 2306 3072 2169 3072 
Q 1681 3072 1420 2755 
Q 1159 2438 1159 1844 
L 1159 0 
L 581 0 
L 581 3500 
L 1159 3500 
L 1159 2956 
Q 1341 3275 1631 3429 
Q 1922 3584 2338 3584 
Q 2397 3584 2469 3576 
Q 2541 3569 2628 3553 
L 2631 2963 
z
" transform="scale(0.015625)"/>
       <path id="DejaVuSans-61" d="M 2194 1759 
Q 1497 1759 1228 1600 
Q 959 1441 959 1056 
Q 959 750 1161 570 
Q 1363 391 1709 391 
Q 2188 391 2477 730 
Q 2766 1069 2766 1631 
L 2766 1759 
L 2194 1759 
z
M 3341 1997 
L 3341 0 
L 2766 0 
L 2766 531 
Q 2569 213 2275 61 
Q 1981 -91 1556 -91 
Q 1019 -91 701 211 
Q 384 513 384 1019 
Q 384 1609 779 1909 
Q 1175 2209 1959 2209 
L 2766 2209 
L 2766 2266 
Q 2766 2663 2505 2880 
Q 2244 3097 1772 3097 
Q 1472 3097 1187 3025 
Q 903 2953 641 2809 
L 641 3341 
Q 956 3463 1253 3523 
Q 1550 3584 1831 3584 
Q 2591 3584 2966 3190 
Q 3341 2797 3341 1997 
z
" transform="scale(0.015625)"/>
       <path id="DejaVuSans-77" d="M 269 3500 
L 844 3500 
L 1563 769 
L 2278 3500 
L 2956 3500 
L 3675 769 
L 4391 3500 
L 4966 3500 
L 4050 0 
L 3372 0 
L 2619 2869 
L 1863 0 
L 1184 0 
L 269 3500 
z
" transform="scale(0.015625)"/>
      </defs>
      <use xlink:href="#DejaVuSans-72"/>
      <use xlink:href="#DejaVuSans-61" transform="translate(41.113281 0)"/>
      <use xlink:href="#DejaVuSans-77" transform="translate(102.392578 0)"/>
     </g>
    </g>
    <g id="line2d_18">
     <path d="M 173.838281 34.976562 
L 183.838281 34.976562 
L 193.838281 34.976562 
" style="fill: none; stroke-dasharray: 5.55,2.4; stroke-dashoffset: 0; stroke: #ff7f0e; stroke-width: 1.5"/>
    </g>
    <g id="text_15">
     <!-- fft denoised -->
     <g transform="translate(201.838281 38.476562) scale(0.1 -0.1)">
      <defs>
       <path id="DejaVuSans-66" d="M 2375 4863 
L 2375 4384 
L 1825 4384 
Q 1516 4384 1395 4259 
Q 1275 4134 1275 3809 
L 1275 3500 
L 2222 3500 
L 2222 3053 
L 1275 3053 
L 1275 0 
L 697 0 
L 697 3053 
L 147 3053 
L 147 3500 
L 697 3500 
L 697 3744 
Q 697 4328 969 4595 
Q 1241 4863 1831 4863 
L 2375 4863 
z
" transform="scale(0.015625)"/>
       <path id="DejaVuSans-74" d="M 1172 4494 
L 1172 3500 
L 2356 3500 
L 2356 3053 
L 1172 3053 
L 1172 1153 
Q 1172 725 1289 603 
Q 1406 481 1766 481 
L 2356 481 
L 2356 0 
L 1766 0 
Q 1100 0 847 248 
Q 594 497 594 1153 
L 594 3053 
L 172 3053 
L 172 3500 
L 594 3500 
L 594 4494 
L 1172 4494 
z
" transform="scale(0.015625)"/>
       <path id="DejaVuSans-20" transform="scale(0.015625)"/>
       <path id="DejaVuSans-64" d="M 2906 2969 
L 2906 4863 
L 3481 4863 
L 3481 0 
L 2906 0 
L 2906 525 
Q 2725 213 2448 61 
Q 2172 -91 1784 -91 
Q 1150 -91 751 415 
Q 353 922 353 1747 
Q 353 2572 751 3078 
Q 1150 3584 1784 3584 
Q 2172 3584 2448 3432 
Q 2725 3281 2906 2969 
z
M 947 1747 
Q 947 1113 1208 752 
Q 1469 391 1925 391 
Q 2381 391 2643 752 
Q 2906 1113 2906 1747 
Q 2906 2381 2643 2742 
Q 2381 3103 1925 3103 
Q 1469 3103 1208 2742 
Q 947 2381 947 1747 
z
" transform="scale(0.015625)"/>
       <path id="DejaVuSans-65" d="M 3597 1894 
L 3597 1613 
L 953 1613 
Q 991 1019 1311 708 
Q 1631 397 2203 397 
Q 2534 397 2845 478 
Q 3156 559 3463 722 
L 3463 178 
Q 3153 47 2828 -22 
Q 2503 -91 2169 -91 
Q 1331 -91 842 396 
Q 353 884 353 1716 
Q 353 2575 817 3079 
Q 1281 3584 2069 3584 
Q 2775 3584 3186 3129 
Q 3597 2675 3597 1894 
z
M 3022 2063 
Q 3016 2534 2758 2815 
Q 2500 3097 2075 3097 
Q 1594 3097 1305 2825 
Q 1016 2553 972 2059 
L 3022 2063 
z
" transform="scale(0.015625)"/>
       <path id="DejaVuSans-6e" d="M 3513 2113 
L 3513 0 
L 2938 0 
L 2938 2094 
Q 2938 2591 2744 2837 
Q 2550 3084 2163 3084 
Q 1697 3084 1428 2787 
Q 1159 2491 1159 1978 
L 1159 0 
L 581 0 
L 581 3500 
L 1159 3500 
L 1159 2956 
Q 1366 3272 1645 3428 
Q 1925 3584 2291 3584 
Q 2894 3584 3203 3211 
Q 3513 2838 3513 2113 
z
" transform="scale(0.015625)"/>
       <path id="DejaVuSans-6f" d="M 1959 3097 
Q 1497 3097 1228 2736 
Q 959 2375 959 1747 
Q 959 1119 1226 758 
Q 1494 397 1959 397 
Q 2419 397 2687 759 
Q 2956 1122 2956 1747 
Q 2956 2369 2687 2733 
Q 2419 3097 1959 3097 
z
M 1959 3584 
Q 2709 3584 3137 3096 
Q 3566 2609 3566 1747 
Q 3566 888 3137 398 
Q 2709 -91 1959 -91 
Q 1206 -91 779 398 
Q 353 888 353 1747 
Q 353 2609 779 3096 
Q 1206 3584 1959 3584 
z
" transform="scale(0.015625)"/>
       <path id="DejaVuSans-69" d="M 603 3500 
L 1178 3500 
L 1178 0 
L 603 0 
L 603 3500 
z
M 603 4863 
L 1178 4863 
L 1178 4134 
L 603 4134 
L 603 4863 
z
" transform="scale(0.015625)"/>
       <path id="DejaVuSans-73" d="M 2834 3397 
L 2834 2853 
Q 2591 2978 2328 3040 
Q 2066 3103 1784 3103 
Q 1356 3103 1142 2972 
Q 928 2841 928 2578 
Q 928 2378 1081 2264 
Q 1234 2150 1697 2047 
L 1894 2003 
Q 2506 1872 2764 1633 
Q 3022 1394 3022 966 
Q 3022 478 2636 193 
Q 2250 -91 1575 -91 
Q 1294 -91 989 -36 
Q 684 19 347 128 
L 347 722 
Q 666 556 975 473 
Q 1284 391 1588 391 
Q 1994 391 2212 530 
Q 2431 669 2431 922 
Q 2431 1156 2273 1281 
Q 2116 1406 1581 1522 
L 1381 1569 
Q 847 1681 609 1914 
Q 372 2147 372 2553 
Q 372 3047 722 3315 
Q 1072 3584 1716 3584 
Q 2034 3584 2315 3537 
Q 2597 3491 2834 3397 
z
" transform="scale(0.015625)"/>
      </defs>
      <use xlink:href="#DejaVuSans-66"/>
      <use xlink:href="#DejaVuSans-66" transform="translate(35.205078 0)"/>
      <use xlink:href="#DejaVuSans-74" transform="translate(68.660156 0)"/>
      <use xlink:href="#DejaVuSans-20" transform="translate(107.869141 0)"/>
      <use xlink:href="#DejaVuSans-64" transform="translate(139.65625 0)"/>
      <use xlink:href="#DejaVuSans-65" transform="translate(203.132812 0)"/>
      <use xlink:href="#DejaVuSans-6e" transform="translate(264.65625 0)"/>
      <use xlink:href="#DejaVuSans-6f" transform="translate(328.035156 0)"/>
      <use xlink:href="#DejaVuSans-69" transform="translate(389.216797 0)"/>
      <use xlink:href="#DejaVuSans-73" transform="translate(417 0)"/>
      <use xlink:href="#DejaVuSans-65" transform="translate(469.099609 0)"/>
      <use xlink:href="#DejaVuSans-64" transform="translate(530.623047 0)"/>
     </g>
    </g>
    <g id="line2d_19">
     <path d="M 173.838281 49.654688 
L 183.838281 49.654688 
L 193.838281 49.654688 
" style="fill: none; stroke-dasharray: 1.5,2.475; stroke-dashoffset: 0; stroke: #2ca02c; stroke-width: 1.5"/>
    </g>
    <g id="text_16">
     <!-- wavelet denoised -->
     <g transform="translate(201.838281 53.154688) scale(0.1 -0.1)">
      <defs>
       <path id="DejaVuSans-76" d="M 191 3500 
L 800 3500 
L 1894 563 
L 2988 3500 
L 3597 3500 
L 2284 0 
L 1503 0 
L 191 3500 
z
" transform="scale(0.015625)"/>
       <path id="DejaVuSans-6c" d="M 603 4863 
L 1178 4863 
L 1178 0 
L 603 0 
L 603 4863 
z
" transform="scale(0.015625)"/>
      </defs>
      <use xlink:href="#DejaVuSans-77"/>
      <use xlink:href="#DejaVuSans-61" transform="translate(81.787109 0)"/>
      <use xlink:href="#DejaVuSans-76" transform="translate(143.066406 0)"/>
      <use xlink:href="#DejaVuSans-65" transform="translate(202.246094 0)"/>
      <use xlink:href="#DejaVuSans-6c" transform="translate(263.769531 0)"/>
      <use xlink:href="#DejaVuSans-65" transform="translate(291.552734 0)"/>
      <use xlink:href="#DejaVuSans-74" transform="translate(353.076172 0)"/>
      <use xlink:href="#DejaVuSans-20" transform="translate(392.285156 0)"/>
      <use xlink:href="#DejaVuSans-64" transform="translate(424.072266 0)"/>
      <use xlink:href="#DejaVuSans-65" transform="translate(487.548828 0)"/>
      <use xlink:href="#DejaVuSans-6e" transform="translate(549.072266 0)"/>
      <use xlink:href="#DejaVuSans-6f" transform="translate(612.451172 0)"/>
      <use xlink:href="#DejaVuSans-69" transform="translate(673.632812 0)"/>
      <use xlink:href="#DejaVuSans-73" transform="translate(701.416016 0)"/>
      <use xlink:href="#DejaVuSans-65" transform="translate(753.515625 0)"/>
      <use xlink:href="#DejaVuSans-64" transform="translate(815.039062 0)"/>
     </g>
    </g>
   </g>
  </g>
 </g>
 <defs>
  <clipPath id="p801e26d035">
   <rect x="36.465625" y="7.2" width="390.6" height="123.384879"/>
  </clipPath>
 </defs>
</svg>
