<?xml version="1.0" encoding="utf-8" standalone="no"?>
<!DOCTYPE svg PUBLIC "-//W3C//DTD SVG 1.1//EN"
  "http://www.w3.org/Graphics/SVG/1.1/DTD/svg11.dtd">
<svg xmlns:xlink="http://www.w3.org/1999/xlink" width="441.584375pt" height="325.755469pt" viewBox="0 0 441.584375 325.755469" xmlns="http://www.w3.org/2000/svg" version="1.1">
 <metadata>
  <rdf:RDF xmlns:dc="http://purl.org/dc/elements/1.1/" xmlns:cc="http://creativecommons.org/ns#" xmlns:rdf="http://www.w3.org/1999/02/22-rdf-syntax-ns#">
   <cc:Work>
    <dc:type rdf:resource="http://purl.org/dc/dcmitype/StillImage"/>
    <dc:date>2025-10-02T10:19:28.868877</dc:date>
    <dc:format>image/svg+xml</dc:format>
    <dc:creator>
     <cc:Agent>
      <dc:title>Matplotlib v3.10.3, https://matplotlib.org/</dc:title>
     </cc:Agent>
    </dc:creator>
   </cc:Work>
  </rdf:RDF>
 </metadata>
 <defs>
  <style type="text/css">*{stroke-linejoin: round; stroke-linecap: butt}</style>
 </defs>
 <g id="figure_1">
  <g id="patch_1">
   <path d="M 0 325.755469 
L 441.584375 325.755469 
L 441.584375 0 
L 0 0 
z
" style="fill: #ffffff"/>
  </g>
  <g id="axes_1">
   <g id="patch_2">
    <path d="M 40.603125 288.199219 
L 431.203125 288.199219 
L 431.203125 10.999219 
L 40.603125 10.999219 
z
" style="fill: #ffffff"/>
   </g>
   <g id="matplotlib.axis_1">
    <g id="xtick_1">
     <g id="line2d_1">
      <path d="M 40.603125 288.199219 
L 40.603125 10.999219 
" clip-path="url(#pcca99cfde5)" style="fill: none; stroke: #b0b0b0; stroke-width: 0.8; stroke-linecap: square"/>
     </g>
     <g id="line2d_2">
      <defs>
       <path id="m845980222c" d="M 0 0 
L 0 3.5 
" style="stroke: #000000; stroke-width: 0.8"/>
      </defs>
      <g>
       <use xlink:href="#m845980222c" x="40.603125" y="288.199219" style="stroke: #000000; stroke-width: 0.8"/>
      </g>
     </g>
     <g id="text_1">
      <!-- −3 -->
      <g transform="translate(33.232031 302.797656) scale(0.1 -0.1)">
       <defs>
        <path id="DejaVuSans-2212" d="M 678 2272 
L 4684 2272 
L 4684 1741 
L 678 1741 
L 678 2272 
z
" transform="scale(0.015625)"/>
        <path id="DejaVuSans-33" d="M 2597 2516 
Q 3050 2419 3304 2112 
Q 3559 1806 3559 1356 
Q 3559 666 3084 287 
Q 2609 -91 1734 -91 
Q 1441 -91 1130 -33 
Q 819 25 488 141 
L 488 750 
Q 750 597 1062 519 
Q 1375 441 1716 441 
Q 2309 441 2620 675 
Q 2931 909 2931 1356 
Q 2931 1769 2642 2001 
Q 2353 2234 1838 2234 
L 1294 2234 
L 1294 2753 
L 1863 2753 
Q 2328 2753 2575 2939 
Q 2822 3125 2822 3475 
Q 2822 3834 2567 4026 
Q 2313 4219 1838 4219 
Q 1578 4219 1281 4162 
Q 984 4106 628 3988 
L 628 4550 
Q 988 4650 1302 4700 
Q 1616 4750 1894 4750 
Q 2613 4750 3031 4423 
Q 3450 4097 3450 3541 
Q 3450 3153 3228 2886 
Q 3006 2619 2597 2516 
z
" transform="scale(0.015625)"/>
       </defs>
       <use xlink:href="#DejaVuSans-2212"/>
       <use xlink:href="#DejaVuSans-33" transform="translate(83.789062 0)"/>
      </g>
     </g>
    </g>
    <g id="xtick_2">
     <g id="line2d_3">
      <path d="M 105.703125 288.199219 
L 105.703125 10.999219 
" clip-path="url(#pcca99cfde5)" style="fill: none; stroke: #b0b0b0; stroke-width: 0.8; stroke-linecap: square"/>
     </g>
     <g id="line2d_4">
      <g>
       <use xlink:href="#m845980222c" x="105.703125" y="288.199219" style="stroke: #000000; stroke-width: 0.8"/>
      </g>
     </g>
     <g id="text_2">
      <!-- −2 -->
      <g transform="translate(98.332031 302.797656) scale(0.1 -0.1)">
       <defs>
        <path id="DejaVuSans-32" d="M 1228 531 
L 3431 531 
L 3431 0 
L 469 0 
L 469 531 
Q 828 903 1448 1529 
Q 2069 2156 2228 2338 
Q 2531 2678 2651 2914 
Q 2772 3150 2772 3378 
Q 2772 3750 2511 3984 
Q 2250 4219 1831 4219 
Q 1534 4219 1204 4116 
Q 875 4013 500 3803 
L 500 4441 
Q 881 4594 1212 4672 
Q 1544 4750 1819 4750 
Q 2544 4750 2975 4387 
Q 3406 4025 3406 3419 
Q 3406 3131 3298 2873 
Q 3191 2616 2906 2266 
Q 2828 2175 2409 1742 
Q 1991 1309 1228 531 
z
" transform="scale(0.015625)"/>
       </defs>
       <use xlink:href="#DejaVuSans-2212"/>
       <use xlink:href="#DejaVuSans-32" transform="translate(83.789062 0)"/>
      </g>
     </g>
    </g>
    <g id="xtick_3">
     <g id="line2d_5">
      <path d="M 170.803125 288.199219 
L 170.803125 10.999219 
" clip-path="url(#pcca99cfde5)" style="fill: none; stroke: #b0b0b0; stroke-width: 0.8; stroke-linecap: square"/>
     </g>
     <g id="line2d_6">
      <g>
       <use xlink:href="#m845980222c" x="170.803125" y="288.199219" style="stroke: #000000; stroke-width: 0.8"/>
      </g>
     </g>
     <g id="text_3">
      <!-- −1 -->
      <g transform="translate(163.432031 302.797656) scale(0.1 -0.1)">
       <defs>
        <path id="DejaVuSans-31" d="M 794 531 
L 1825 531 
L 1825 4091 
L 703 3866 
L 703 4441 
L 1819 4666 
L 2450 4666 
L 2450 531 
L 3481 531 
L 3481 0 
L 794 0 
L 794 531 
z
" transform="scale(0.015625)"/>
       </defs>
       <use xlink:href="#DejaVuSans-2212"/>
       <use xlink:href="#DejaVuSans-31" transform="translate(83.789062 0)"/>
      </g>
     </g>
    </g>
    <g id="xtick_4">
     <g id="line2d_7">
      <path d="M 235.903125 288.199219 
L 235.903125 10.999219 
" clip-path="url(#pcca99cfde5)" style="fill: none; stroke: #b0b0b0; stroke-width: 0.8; stroke-linecap: square"/>
     </g>
     <g id="line2d_8">
      <g>
       <use xlink:href="#m845980222c" x="235.903125" y="288.199219" style="stroke: #000000; stroke-width: 0.8"/>
      </g>
     </g>
     <g id="text_4">
      <!-- 0 -->
      <g transform="translate(232.721875 302.797656) scale(0.1 -0.1)">
       <defs>
        <path id="DejaVuSans-30" d="M 2034 4250 
Q 1547 4250 1301 3770 
Q 1056 3291 1056 2328 
Q 1056 1369 1301 889 
Q 1547 409 2034 409 
Q 2525 409 2770 889 
Q 3016 1369 3016 2328 
Q 3016 3291 2770 3770 
Q 2525 4250 2034 4250 
z
M 2034 4750 
Q 2819 4750 3233 4129 
Q 3647 3509 3647 2328 
Q 3647 1150 3233 529 
Q 2819 -91 2034 -91 
Q 1250 -91 836 529 
Q 422 1150 422 2328 
Q 422 3509 836 4129 
Q 1250 4750 2034 4750 
z
" transform="scale(0.015625)"/>
       </defs>
       <use xlink:href="#DejaVuSans-30"/>
      </g>
     </g>
    </g>
    <g id="xtick_5">
     <g id="line2d_9">
      <path d="M 301.003125 288.199219 
L 301.003125 10.999219 
" clip-path="url(#pcca99cfde5)" style="fill: none; stroke: #b0b0b0; stroke-width: 0.8; stroke-linecap: square"/>
     </g>
     <g id="line2d_10">
      <g>
       <use xlink:href="#m845980222c" x="301.003125" y="288.199219" style="stroke: #000000; stroke-width: 0.8"/>
      </g>
     </g>
     <g id="text_5">
      <!-- 1 -->
      <g transform="translate(297.821875 302.797656) scale(0.1 -0.1)">
       <use xlink:href="#DejaVuSans-31"/>
      </g>
     </g>
    </g>
    <g id="xtick_6">
     <g id="line2d_11">
      <path d="M 366.103125 288.199219 
L 366.103125 10.999219 
" clip-path="url(#pcca99cfde5)" style="fill: none; stroke: #b0b0b0; stroke-width: 0.8; stroke-linecap: square"/>
     </g>
     <g id="line2d_12">
      <g>
       <use xlink:href="#m845980222c" x="366.103125" y="288.199219" style="stroke: #000000; stroke-width: 0.8"/>
      </g>
     </g>
     <g id="text_6">
      <!-- 2 -->
      <g transform="translate(362.921875 302.797656) scale(0.1 -0.1)">
       <use xlink:href="#DejaVuSans-32"/>
      </g>
     </g>
    </g>
    <g id="xtick_7">
     <g id="line2d_13">
      <path d="M 431.203125 288.199219 
L 431.203125 10.999219 
" clip-path="url(#pcca99cfde5)" style="fill: none; stroke: #b0b0b0; stroke-width: 0.8; stroke-linecap: square"/>
     </g>
     <g id="line2d_14">
      <g>
       <use xlink:href="#m845980222c" x="431.203125" y="288.199219" style="stroke: #000000; stroke-width: 0.8"/>
      </g>
     </g>
     <g id="text_7">
      <!-- 3 -->
      <g transform="translate(428.021875 302.797656) scale(0.1 -0.1)">
       <use xlink:href="#DejaVuSans-33"/>
      </g>
     </g>
    </g>
    <g id="text_8">
     <!-- $x$ -->
     <g transform="translate(232.903125 316.475781) scale(0.1 -0.1)">
      <defs>
       <path id="DejaVuSans-Oblique-78" d="M 3841 3500 
L 2234 1784 
L 3219 0 
L 2559 0 
L 1819 1388 
L 531 0 
L -166 0 
L 1556 1844 
L 641 3500 
L 1300 3500 
L 1972 2234 
L 3144 3500 
L 3841 3500 
z
" transform="scale(0.015625)"/>
      </defs>
      <use xlink:href="#DejaVuSans-Oblique-78" transform="translate(0 0.3125)"/>
     </g>
    </g>
   </g>
   <g id="matplotlib.axis_2">
    <g id="ytick_1">
     <g id="line2d_15">
      <path d="M 40.603125 288.199219 
L 431.203125 288.199219 
" clip-path="url(#pcca99cfde5)" style="fill: none; stroke: #b0b0b0; stroke-width: 0.8; stroke-linecap: square"/>
     </g>
     <g id="line2d_16">
      <defs>
       <path id="m13eb5605bd" d="M 0 0 
L -3.5 0 
" style="stroke: #000000; stroke-width: 0.8"/>
      </defs>
      <g>
       <use xlink:href="#m13eb5605bd" x="40.603125" y="288.199219" style="stroke: #000000; stroke-width: 0.8"/>
      </g>
     </g>
     <g id="text_9">
      <!-- 0 -->
      <g transform="translate(27.240625 291.998438) scale(0.1 -0.1)">
       <use xlink:href="#DejaVuSans-30"/>
      </g>
     </g>
    </g>
    <g id="ytick_2">
     <g id="line2d_17">
      <path d="M 40.603125 232.759219 
L 431.203125 232.759219 
" clip-path="url(#pcca99cfde5)" style="fill: none; stroke: #b0b0b0; stroke-width: 0.8; stroke-linecap: square"/>
     </g>
     <g id="line2d_18">
      <g>
       <use xlink:href="#m13eb5605bd" x="40.603125" y="232.759219" style="stroke: #000000; stroke-width: 0.8"/>
      </g>
     </g>
     <g id="text_10">
      <!-- 2 -->
      <g transform="translate(27.240625 236.558438) scale(0.1 -0.1)">
       <use xlink:href="#DejaVuSans-32"/>
      </g>
     </g>
    </g>
    <g id="ytick_3">
     <g id="line2d_19">
      <path d="M 40.603125 177.319219 
L 431.203125 177.319219 
" clip-path="url(#pcca99cfde5)" style="fill: none; stroke: #b0b0b0; stroke-width: 0.8; stroke-linecap: square"/>
     </g>
     <g id="line2d_20">
      <g>
       <use xlink:href="#m13eb5605bd" x="40.603125" y="177.319219" style="stroke: #000000; stroke-width: 0.8"/>
      </g>
     </g>
     <g id="text_11">
      <!-- 4 -->
      <g transform="translate(27.240625 181.118437) scale(0.1 -0.1)">
       <defs>
        <path id="DejaVuSans-34" d="M 2419 4116 
L 825 1625 
L 2419 1625 
L 2419 4116 
z
M 2253 4666 
L 3047 4666 
L 3047 1625 
L 3713 1625 
L 3713 1100 
L 3047 1100 
L 3047 0 
L 2419 0 
L 2419 1100 
L 313 1100 
L 313 1709 
L 2253 4666 
z
" transform="scale(0.015625)"/>
       </defs>
       <use xlink:href="#DejaVuSans-34"/>
      </g>
     </g>
    </g>
    <g id="ytick_4">
     <g id="line2d_21">
      <path d="M 40.603125 121.879219 
L 431.203125 121.879219 
" clip-path="url(#pcca99cfde5)" style="fill: none; stroke: #b0b0b0; stroke-width: 0.8; stroke-linecap: square"/>
     </g>
     <g id="line2d_22">
      <g>
       <use xlink:href="#m13eb5605bd" x="40.603125" y="121.879219" style="stroke: #000000; stroke-width: 0.8"/>
      </g>
     </g>
     <g id="text_12">
      <!-- 6 -->
      <g transform="translate(27.240625 125.678437) scale(0.1 -0.1)">
       <defs>
        <path id="DejaVuSans-36" d="M 2113 2584 
Q 1688 2584 1439 2293 
Q 1191 2003 1191 1497 
Q 1191 994 1439 701 
Q 1688 409 2113 409 
Q 2538 409 2786 701 
Q 3034 994 3034 1497 
Q 3034 2003 2786 2293 
Q 2538 2584 2113 2584 
z
M 3366 4563 
L 3366 3988 
Q 3128 4100 2886 4159 
Q 2644 4219 2406 4219 
Q 1781 4219 1451 3797 
Q 1122 3375 1075 2522 
Q 1259 2794 1537 2939 
Q 1816 3084 2150 3084 
Q 2853 3084 3261 2657 
Q 3669 2231 3669 1497 
Q 3669 778 3244 343 
Q 2819 -91 2113 -91 
Q 1303 -91 875 529 
Q 447 1150 447 2328 
Q 447 3434 972 4092 
Q 1497 4750 2381 4750 
Q 2619 4750 2861 4703 
Q 3103 4656 3366 4563 
z
" transform="scale(0.015625)"/>
       </defs>
       <use xlink:href="#DejaVuSans-36"/>
      </g>
     </g>
    </g>
    <g id="ytick_5">
     <g id="line2d_23">
      <path d="M 40.603125 66.439219 
L 431.203125 66.439219 
" clip-path="url(#pcca99cfde5)" style="fill: none; stroke: #b0b0b0; stroke-width: 0.8; stroke-linecap: square"/>
     </g>
     <g id="line2d_24">
      <g>
       <use xlink:href="#m13eb5605bd" x="40.603125" y="66.439219" style="stroke: #000000; stroke-width: 0.8"/>
      </g>
     </g>
     <g id="text_13">
      <!-- 8 -->
      <g transform="translate(27.240625 70.238437) scale(0.1 -0.1)">
       <defs>
        <path id="DejaVuSans-38" d="M 2034 2216 
Q 1584 2216 1326 1975 
Q 1069 1734 1069 1313 
Q 1069 891 1326 650 
Q 1584 409 2034 409 
Q 2484 409 2743 651 
Q 3003 894 3003 1313 
Q 3003 1734 2745 1975 
Q 2488 2216 2034 2216 
z
M 1403 2484 
Q 997 2584 770 2862 
Q 544 3141 544 3541 
Q 544 4100 942 4425 
Q 1341 4750 2034 4750 
Q 2731 4750 3128 4425 
Q 3525 4100 3525 3541 
Q 3525 3141 3298 2862 
Q 3072 2584 2669 2484 
Q 3125 2378 3379 2068 
Q 3634 1759 3634 1313 
Q 3634 634 3220 271 
Q 2806 -91 2034 -91 
Q 1263 -91 848 271 
Q 434 634 434 1313 
Q 434 1759 690 2068 
Q 947 2378 1403 2484 
z
M 1172 3481 
Q 1172 3119 1398 2916 
Q 1625 2713 2034 2713 
Q 2441 2713 2670 2916 
Q 2900 3119 2900 3481 
Q 2900 3844 2670 4047 
Q 2441 4250 2034 4250 
Q 1625 4250 1398 4047 
Q 1172 3844 1172 3481 
z
" transform="scale(0.015625)"/>
       </defs>
       <use xlink:href="#DejaVuSans-38"/>
      </g>
     </g>
    </g>
    <g id="ytick_6">
     <g id="line2d_25">
      <path d="M 40.603125 10.999219 
L 431.203125 10.999219 
" clip-path="url(#pcca99cfde5)" style="fill: none; stroke: #b0b0b0; stroke-width: 0.8; stroke-linecap: square"/>
     </g>
     <g id="line2d_26">
      <g>
       <use xlink:href="#m13eb5605bd" x="40.603125" y="10.999219" style="stroke: #000000; stroke-width: 0.8"/>
      </g>
     </g>
     <g id="text_14">
      <!-- 10 -->
      <g transform="translate(20.878125 14.798438) scale(0.1 -0.1)">
       <use xlink:href="#DejaVuSans-31"/>
       <use xlink:href="#DejaVuSans-30" transform="translate(63.623047 0)"/>
      </g>
     </g>
    </g>
    <g id="text_15">
     <!-- $y$ -->
     <g transform="translate(14.778125 152.599219) rotate(-90) scale(0.1 -0.1)">
      <defs>
       <path id="DejaVuSans-Oblique-79" d="M 1588 -325 
Q 1188 -997 936 -1164 
Q 684 -1331 294 -1331 
L -159 -1331 
L -63 -850 
L 269 -850 
Q 509 -850 678 -719 
Q 847 -588 1056 -206 
L 1234 128 
L 459 3500 
L 1069 3500 
L 1650 819 
L 3256 3500 
L 3859 3500 
L 1588 -325 
z
" transform="scale(0.015625)"/>
      </defs>
      <use xlink:href="#DejaVuSans-Oblique-79" transform="translate(0 0.3125)"/>
     </g>
    </g>
   </g>
   <g id="line2d_27">
    <defs>
     <path id="m1955ad2eb1" d="M 0 3 
C 0.795609 3 1.55874 2.683901 2.12132 2.12132 
C 2.683901 1.55874 3 0.795609 3 0 
C 3 -0.795609 2.683901 -1.55874 2.12132 -2.12132 
C 1.55874 -2.683901 0.795609 -3 0 -3 
C -0.795609 -3 -1.55874 -2.683901 -2.12132 -2.12132 
C -2.683901 -1.55874 -3 -0.795609 -3 0 
C -3 0.795609 -2.683901 1.55874 -2.12132 2.12132 
C -1.55874 2.683901 -0.795609 3 0 3 
z
" style="stroke: #ff0000"/>
    </defs>
    <g clip-path="url(#pcca99cfde5)">
     <use xlink:href="#m1955ad2eb1" x="281.836958" y="208.700348" style="fill: #ff0000; stroke: #ff0000"/>
     <use xlink:href="#m1955ad2eb1" x="381.281287" y="127.674695" style="fill: #ff0000; stroke: #ff0000"/>
     <use xlink:href="#m1955ad2eb1" x="383.069311" y="89.57151" style="fill: #ff0000; stroke: #ff0000"/>
     <use xlink:href="#m1955ad2eb1" x="394.535275" y="120.450409" style="fill: #ff0000; stroke: #ff0000"/>
     <use xlink:href="#m1955ad2eb1" x="68.939325" y="259.421468" style="fill: #ff0000; stroke: #ff0000"/>
     <use xlink:href="#m1955ad2eb1" x="391.713285" y="113.818698" style="fill: #ff0000; stroke: #ff0000"/>
     <use xlink:href="#m1955ad2eb1" x="313.660172" y="173.71876" style="fill: #ff0000; stroke: #ff0000"/>
     <use xlink:href="#m1955ad2eb1" x="64.526771" y="171.105677" style="fill: #ff0000; stroke: #ff0000"/>
     <use xlink:href="#m1955ad2eb1" x="345.688022" y="132.241032" style="fill: #ff0000; stroke: #ff0000"/>
     <use xlink:href="#m1955ad2eb1" x="145.122005" y="253.102924" style="fill: #ff0000; stroke: #ff0000"/>
     <use xlink:href="#m1955ad2eb1" x="313.194455" y="235.849394" style="fill: #ff0000; stroke: #ff0000"/>
     <use xlink:href="#m1955ad2eb1" x="281.73165" y="219.174011" style="fill: #ff0000; stroke: #ff0000"/>
     <use xlink:href="#m1955ad2eb1" x="396.607435" y="66.512061" style="fill: #ff0000; stroke: #ff0000"/>
     <use xlink:href="#m1955ad2eb1" x="282.038697" y="246.417201" style="fill: #ff0000; stroke: #ff0000"/>
     <use xlink:href="#m1955ad2eb1" x="166.85573" y="272.105229" style="fill: #ff0000; stroke: #ff0000"/>
     <use xlink:href="#m1955ad2eb1" x="81.692909" y="168.238555" style="fill: #ff0000; stroke: #ff0000"/>
     <use xlink:href="#m1955ad2eb1" x="233.775362" y="235.079609" style="fill: #ff0000; stroke: #ff0000"/>
     <use xlink:href="#m1955ad2eb1" x="198.683314" y="236.958093" style="fill: #ff0000; stroke: #ff0000"/>
     <use xlink:href="#m1955ad2eb1" x="51.166186" y="219.755594" style="fill: #ff0000; stroke: #ff0000"/>
     <use xlink:href="#m1955ad2eb1" x="81.825033" y="222.503919" style="fill: #ff0000; stroke: #ff0000"/>
     <use xlink:href="#m1955ad2eb1" x="427.537442" y="22.77356" style="fill: #ff0000; stroke: #ff0000"/>
     <use xlink:href="#m1955ad2eb1" x="144.511562" y="211.944781" style="fill: #ff0000; stroke: #ff0000"/>
     <use xlink:href="#m1955ad2eb1" x="270.688337" y="194.741548" style="fill: #ff0000; stroke: #ff0000"/>
     <use xlink:href="#m1955ad2eb1" x="46.044981" y="225.050142" style="fill: #ff0000; stroke: #ff0000"/>
     <use xlink:href="#m1955ad2eb1" x="393.711413" y="78.767987" style="fill: #ff0000; stroke: #ff0000"/>
     <use xlink:href="#m1955ad2eb1" x="106.076276" y="247.894246" style="fill: #ff0000; stroke: #ff0000"/>
     <use xlink:href="#m1955ad2eb1" x="227.915127" y="236.223405" style="fill: #ff0000; stroke: #ff0000"/>
     <use xlink:href="#m1955ad2eb1" x="114.127998" y="201.785669" style="fill: #ff0000; stroke: #ff0000"/>
     <use xlink:href="#m1955ad2eb1" x="112.864435" y="229.083976" style="fill: #ff0000; stroke: #ff0000"/>
     <use xlink:href="#m1955ad2eb1" x="88.243322" y="229.505125" style="fill: #ff0000; stroke: #ff0000"/>
     <use xlink:href="#m1955ad2eb1" x="49.867388" y="224.193454" style="fill: #ff0000; stroke: #ff0000"/>
     <use xlink:href="#m1955ad2eb1" x="186.165239" y="227.389458" style="fill: #ff0000; stroke: #ff0000"/>
     <use xlink:href="#m1955ad2eb1" x="140.110108" y="227.847294" style="fill: #ff0000; stroke: #ff0000"/>
     <use xlink:href="#m1955ad2eb1" x="82.350248" y="246.655855" style="fill: #ff0000; stroke: #ff0000"/>
     <use xlink:href="#m1955ad2eb1" x="339.12356" y="131.176902" style="fill: #ff0000; stroke: #ff0000"/>
     <use xlink:href="#m1955ad2eb1" x="103.581194" y="234.38841" style="fill: #ff0000; stroke: #ff0000"/>
     <use xlink:href="#m1955ad2eb1" x="314.342458" y="122.759353" style="fill: #ff0000; stroke: #ff0000"/>
     <use xlink:href="#m1955ad2eb1" x="412.657348" y="39.844021" style="fill: #ff0000; stroke: #ff0000"/>
     <use xlink:href="#m1955ad2eb1" x="271.053627" y="279.111001" style="fill: #ff0000; stroke: #ff0000"/>
     <use xlink:href="#m1955ad2eb1" x="359.873826" y="103.243017" style="fill: #ff0000; stroke: #ff0000"/>
     <use xlink:href="#m1955ad2eb1" x="116.608988" y="255.337604" style="fill: #ff0000; stroke: #ff0000"/>
     <use xlink:href="#m1955ad2eb1" x="277.065221" y="249.46427" style="fill: #ff0000; stroke: #ff0000"/>
     <use xlink:href="#m1955ad2eb1" x="124.965443" y="224.461867" style="fill: #ff0000; stroke: #ff0000"/>
     <use xlink:href="#m1955ad2eb1" x="402.07518" y="44.804313" style="fill: #ff0000; stroke: #ff0000"/>
     <use xlink:href="#m1955ad2eb1" x="403.127613" y="60.618205" style="fill: #ff0000; stroke: #ff0000"/>
     <use xlink:href="#m1955ad2eb1" x="198.84302" y="251.722358" style="fill: #ff0000; stroke: #ff0000"/>
     <use xlink:href="#m1955ad2eb1" x="194.99675" y="259.67255" style="fill: #ff0000; stroke: #ff0000"/>
     <use xlink:href="#m1955ad2eb1" x="50.406965" y="172.486491" style="fill: #ff0000; stroke: #ff0000"/>
     <use xlink:href="#m1955ad2eb1" x="96.566561" y="226.744734" style="fill: #ff0000; stroke: #ff0000"/>
     <use xlink:href="#m1955ad2eb1" x="202.755177" y="250.728746" style="fill: #ff0000; stroke: #ff0000"/>
     <use xlink:href="#m1955ad2eb1" x="379.308027" y="105.023581" style="fill: #ff0000; stroke: #ff0000"/>
     <use xlink:href="#m1955ad2eb1" x="60.227973" y="206.863238" style="fill: #ff0000; stroke: #ff0000"/>
     <use xlink:href="#m1955ad2eb1" x="373.755526" y="121.773251" style="fill: #ff0000; stroke: #ff0000"/>
     <use xlink:href="#m1955ad2eb1" x="262.921004" y="235.335075" style="fill: #ff0000; stroke: #ff0000"/>
     <use xlink:href="#m1955ad2eb1" x="68.643139" y="256.536251" style="fill: #ff0000; stroke: #ff0000"/>
     <use xlink:href="#m1955ad2eb1" x="169.776577" y="229.037769" style="fill: #ff0000; stroke: #ff0000"/>
     <use xlink:href="#m1955ad2eb1" x="380.461878" y="79.82519" style="fill: #ff0000; stroke: #ff0000"/>
     <use xlink:href="#m1955ad2eb1" x="289.816915" y="177.495817" style="fill: #ff0000; stroke: #ff0000"/>
     <use xlink:href="#m1955ad2eb1" x="429.320793" y="56.146364" style="fill: #ff0000; stroke: #ff0000"/>
     <use xlink:href="#m1955ad2eb1" x="187.26325" y="267.539803" style="fill: #ff0000; stroke: #ff0000"/>
     <use xlink:href="#m1955ad2eb1" x="366.934525" y="87.195675" style="fill: #ff0000; stroke: #ff0000"/>
     <use xlink:href="#m1955ad2eb1" x="294.356302" y="173.799275" style="fill: #ff0000; stroke: #ff0000"/>
     <use xlink:href="#m1955ad2eb1" x="360.683791" y="137.074973" style="fill: #ff0000; stroke: #ff0000"/>
     <use xlink:href="#m1955ad2eb1" x="398.874128" y="48.679823" style="fill: #ff0000; stroke: #ff0000"/>
     <use xlink:href="#m1955ad2eb1" x="333.426117" y="128.896097" style="fill: #ff0000; stroke: #ff0000"/>
     <use xlink:href="#m1955ad2eb1" x="271.190121" y="248.176646" style="fill: #ff0000; stroke: #ff0000"/>
     <use xlink:href="#m1955ad2eb1" x="420.177106" y="22.201308" style="fill: #ff0000; stroke: #ff0000"/>
     <use xlink:href="#m1955ad2eb1" x="311.324094" y="215.538203" style="fill: #ff0000; stroke: #ff0000"/>
     <use xlink:href="#m1955ad2eb1" x="415.247775" y="-1" style="fill: #ff0000; stroke: #ff0000"/>
     <use xlink:href="#m1955ad2eb1" x="414.068891" y="-1" style="fill: #ff0000; stroke: #ff0000"/>
     <use xlink:href="#m1955ad2eb1" x="54.957898" y="178.595658" style="fill: #ff0000; stroke: #ff0000"/>
     <use xlink:href="#m1955ad2eb1" x="116.150757" y="217.697797" style="fill: #ff0000; stroke: #ff0000"/>
     <use xlink:href="#m1955ad2eb1" x="415.475522" y="51.120652" style="fill: #ff0000; stroke: #ff0000"/>
     <use xlink:href="#m1955ad2eb1" x="288.073638" y="189.315706" style="fill: #ff0000; stroke: #ff0000"/>
     <use xlink:href="#m1955ad2eb1" x="260.415804" y="217.161717" style="fill: #ff0000; stroke: #ff0000"/>
     <use xlink:href="#m1955ad2eb1" x="194.58795" y="258.593202" style="fill: #ff0000; stroke: #ff0000"/>
     <use xlink:href="#m1955ad2eb1" x="184.324089" y="228.444595" style="fill: #ff0000; stroke: #ff0000"/>
     <use xlink:href="#m1955ad2eb1" x="393.628106" y="100.478789" style="fill: #ff0000; stroke: #ff0000"/>
     <use xlink:href="#m1955ad2eb1" x="360.688868" y="123.231147" style="fill: #ff0000; stroke: #ff0000"/>
     <use xlink:href="#m1955ad2eb1" x="361.082679" y="105.035181" style="fill: #ff0000; stroke: #ff0000"/>
     <use xlink:href="#m1955ad2eb1" x="89.789166" y="238.3724" style="fill: #ff0000; stroke: #ff0000"/>
     <use xlink:href="#m1955ad2eb1" x="379.995129" y="109.449711" style="fill: #ff0000; stroke: #ff0000"/>
     <use xlink:href="#m1955ad2eb1" x="423.771478" y="34.040458" style="fill: #ff0000; stroke: #ff0000"/>
     <use xlink:href="#m1955ad2eb1" x="316.204726" y="193.222181" style="fill: #ff0000; stroke: #ff0000"/>
     <use xlink:href="#m1955ad2eb1" x="256.206657" y="173.006406" style="fill: #ff0000; stroke: #ff0000"/>
     <use xlink:href="#m1955ad2eb1" x="104.272438" y="255.643077" style="fill: #ff0000; stroke: #ff0000"/>
     <use xlink:href="#m1955ad2eb1" x="140.51422" y="235.413882" style="fill: #ff0000; stroke: #ff0000"/>
     <use xlink:href="#m1955ad2eb1" x="247.970306" y="228.719585" style="fill: #ff0000; stroke: #ff0000"/>
     <use xlink:href="#m1955ad2eb1" x="247.6287" y="235.612572" style="fill: #ff0000; stroke: #ff0000"/>
     <use xlink:href="#m1955ad2eb1" x="394.866525" y="69.844159" style="fill: #ff0000; stroke: #ff0000"/>
     <use xlink:href="#m1955ad2eb1" x="347.814031" y="150.477233" style="fill: #ff0000; stroke: #ff0000"/>
     <use xlink:href="#m1955ad2eb1" x="96.869579" y="256.63606" style="fill: #ff0000; stroke: #ff0000"/>
     <use xlink:href="#m1955ad2eb1" x="420.581463" y="3.759035" style="fill: #ff0000; stroke: #ff0000"/>
     <use xlink:href="#m1955ad2eb1" x="274.57247" y="174.111569" style="fill: #ff0000; stroke: #ff0000"/>
     <use xlink:href="#m1955ad2eb1" x="190.107118" y="250.690027" style="fill: #ff0000; stroke: #ff0000"/>
     <use xlink:href="#m1955ad2eb1" x="236.791723" y="251.473157" style="fill: #ff0000; stroke: #ff0000"/>
     <use xlink:href="#m1955ad2eb1" x="256.028999" y="251.594859" style="fill: #ff0000; stroke: #ff0000"/>
     <use xlink:href="#m1955ad2eb1" x="170.889841" y="271.703379" style="fill: #ff0000; stroke: #ff0000"/>
     <use xlink:href="#m1955ad2eb1" x="41.520556" y="172.27541" style="fill: #ff0000; stroke: #ff0000"/>
     <use xlink:href="#m1955ad2eb1" x="370.83669" y="111.195565" style="fill: #ff0000; stroke: #ff0000"/>
     <use xlink:href="#m1955ad2eb1" x="380.700097" y="110.981552" style="fill: #ff0000; stroke: #ff0000"/>
    </g>
   </g>
   <g id="line2d_28">
    <path d="M 40.603125 275.178891 
L 47.113125 272.121194 
L 53.623125 269.063497 
L 60.133125 266.0058 
L 66.643125 262.948103 
L 73.153125 259.890406 
L 79.663125 256.832709 
L 86.173125 253.775012 
L 92.683125 250.717315 
L 99.193125 247.659618 
L 105.703125 244.601921 
L 112.213125 241.544224 
L 118.723125 238.486527 
L 125.233125 235.42883 
L 131.743125 232.371133 
L 138.253125 229.313436 
L 144.763125 226.255739 
L 151.273125 223.198042 
L 157.783125 220.140344 
L 164.293125 217.082647 
L 170.803125 214.02495 
L 177.313125 210.967253 
L 183.823125 207.909556 
L 190.333125 204.851859 
L 196.843125 201.794162 
L 203.353125 198.736465 
L 209.863125 195.678768 
L 216.373125 192.621071 
L 222.883125 189.563374 
L 229.393125 186.505677 
L 235.903125 183.44798 
L 242.413125 180.390283 
L 248.923125 177.332586 
L 255.433125 174.274889 
L 261.943125 171.217192 
L 268.453125 168.159494 
L 274.963125 165.101797 
L 281.473125 162.0441 
L 287.983125 158.986403 
L 294.493125 155.928706 
L 301.003125 152.871009 
L 307.513125 149.813312 
L 314.023125 146.755615 
L 320.533125 143.697918 
L 327.043125 140.640221 
L 333.553125 137.582524 
L 340.063125 134.524827 
L 346.573125 131.46713 
L 353.083125 128.409433 
L 359.593125 125.351736 
L 366.103125 122.294039 
L 372.613125 119.236342 
L 379.123125 116.178645 
L 385.633125 113.120947 
L 392.143125 110.06325 
L 398.653125 107.005553 
L 405.163125 103.947856 
L 411.673125 100.890159 
L 418.183125 97.832462 
L 424.693125 94.774765 
" clip-path="url(#pcca99cfde5)" style="fill: none; stroke: #1f77b4; stroke-width: 1.5; stroke-linecap: square"/>
   </g>
   <g id="line2d_29">
    <path d="M 40.603125 190.986982 
L 47.113125 196.79169 
L 53.623125 202.29996 
L 60.133125 207.511793 
L 66.643125 212.427188 
L 73.153125 217.046145 
L 79.663125 221.368665 
L 86.173125 225.394747 
L 92.683125 229.124392 
L 99.193125 232.557599 
L 105.703125 235.694368 
L 112.213125 238.534699 
L 118.723125 241.078593 
L 125.233125 243.326049 
L 131.743125 245.277068 
L 138.253125 246.931648 
L 144.763125 248.289792 
L 151.273125 249.351497 
L 157.783125 250.116765 
L 164.293125 250.585595 
L 170.803125 250.757988 
L 177.313125 250.633943 
L 183.823125 250.21346 
L 190.333125 249.49654 
L 196.843125 248.483181 
L 203.353125 247.173386 
L 209.863125 245.567152 
L 216.373125 243.664481 
L 222.883125 241.465373 
L 229.393125 238.969826 
L 235.903125 236.177842 
L 242.413125 233.089421 
L 248.923125 229.704561 
L 255.433125 226.023264 
L 261.943125 222.04553 
L 268.453125 217.771357 
L 274.963125 213.200747 
L 281.473125 208.3337 
L 287.983125 203.170214 
L 294.493125 197.710292 
L 301.003125 191.953931 
L 307.513125 185.901133 
L 314.023125 179.551897 
L 320.533125 172.906223 
L 327.043125 165.964112 
L 333.553125 158.725563 
L 340.063125 151.190577 
L 346.573125 143.359152 
L 353.083125 135.231291 
L 359.593125 126.806991 
L 366.103125 118.086254 
L 372.613125 109.069079 
L 379.123125 99.755467 
L 385.633125 90.145417 
L 392.143125 80.238929 
L 398.653125 70.036003 
L 405.163125 59.53664 
L 411.673125 48.74084 
L 418.183125 37.648601 
L 424.693125 26.259925 
" clip-path="url(#pcca99cfde5)" style="fill: none; stroke: #ff7f0e; stroke-width: 1.5; stroke-linecap: square"/>
   </g>
   <g id="line2d_30">
    <path d="M 40.603125 173.270005 
L 47.113125 203.295979 
L 53.623125 205.98052 
L 60.133125 206.333378 
L 66.643125 211.173337 
L 73.153125 219.470348 
L 79.663125 228.056608 
L 86.173125 234.332003 
L 92.683125 237.157872 
L 99.193125 236.778028 
L 105.703125 234.32374 
L 112.213125 231.243171 
L 118.723125 228.837453 
L 125.233125 227.976064 
L 131.743125 228.994244 
L 138.253125 231.736118 
L 144.763125 235.69074 
L 151.273125 240.167538 
L 157.783125 244.466431 
L 164.293125 248.011575 
L 170.803125 250.432457 
L 177.313125 251.589506 
L 183.823125 251.551767 
L 190.333125 250.540864 
L 196.843125 248.858301 
L 203.353125 246.812625 
L 209.863125 244.659782 
L 216.373125 242.565216 
L 222.883125 240.590789 
L 229.393125 238.704501 
L 235.903125 236.806914 
L 242.413125 234.765738 
L 248.923125 232.44949 
L 255.433125 229.752339 
L 261.943125 226.605082 
L 268.453125 222.970882 
L 274.963125 218.828486 
L 281.473125 214.149195 
L 287.983125 208.876145 
L 294.493125 202.915014 
L 301.003125 196.143508 
L 307.513125 188.443031 
L 314.023125 179.750113 
L 320.533125 170.118224 
L 327.043125 159.7739 
L 333.553125 149.146178 
L 340.063125 138.847119 
L 346.573125 129.585524 
L 353.083125 122.007411 
L 359.593125 116.476133 
L 366.103125 112.831531 
L 372.613125 110.198387 
L 379.123125 106.943621 
L 385.633125 100.898823 
L 392.143125 89.953584 
L 398.653125 73.062148 
L 405.163125 51.557884 
L 411.673125 30.392225 
L 418.183125 18.447576 
L 424.693125 26.340495 
" clip-path="url(#pcca99cfde5)" style="fill: none; stroke: #2ca02c; stroke-width: 1.5; stroke-linecap: square"/>
   </g>
   <g id="line2d_31">
    <path d="M 53.607058 -1 
L 53.60709 326.755469 
M 60.084531 326.755469 
L 60.097255 -1 
M 81.914442 -1 
L 86.173125 280.240916 
L 92.683125 228.522529 
L 99.193125 244.915503 
L 105.703125 244.038471 
L 112.213125 233.05842 
L 118.723125 220.524317 
L 125.233125 233.070199 
L 131.743125 237.612182 
L 138.253125 227.05214 
L 144.763125 236.621248 
L 151.273125 269.137403 
L 157.783125 288.91053 
L 164.293125 276.60071 
L 170.803125 249.8163 
L 177.313125 234.856736 
L 183.823125 238.771855 
L 190.333125 249.764617 
L 196.843125 253.573941 
L 203.353125 245.40779 
L 209.863125 231.108521 
L 216.373125 221.368706 
L 222.883125 223.557939 
L 229.393125 235.385634 
L 235.903125 245.568743 
L 242.413125 243.283337 
L 248.923125 229.34687 
L 255.433125 217.07079 
L 261.943125 218.851848 
L 268.453125 230.880929 
L 274.963125 234.546812 
L 281.473125 217.248081 
L 287.983125 190.507374 
L 294.493125 180.017209 
L 301.003125 193.365038 
L 307.513125 205.272277 
L 314.023125 187.072028 
L 320.533125 147.294552 
L 327.043125 122.532164 
L 333.553125 125.436177 
L 340.063125 134.320691 
L 346.573125 140.68351 
L 353.083125 146.572561 
L 359.593125 123.357997 
L 366.103125 91.814011 
L 372.613125 116.751756 
L 379.123125 111.714631 
L 385.633125 106.578341 
L 392.143125 109.513463 
L 398.653125 49.24221 
L 402.42785 -1 
M 412.023938 -1 
L 412.109901 326.755469 
M 418.188729 326.755469 
L 418.188808 -1 
" clip-path="url(#pcca99cfde5)" style="fill: none; stroke: #d62728; stroke-width: 1.5; stroke-linecap: square"/>
   </g>
   <g id="patch_3">
    <path d="M 40.603125 288.199219 
L 40.603125 10.999219 
" style="fill: none; stroke: #000000; stroke-width: 0.8; stroke-linejoin: miter; stroke-linecap: square"/>
   </g>
   <g id="patch_4">
    <path d="M 431.203125 288.199219 
L 431.203125 10.999219 
" style="fill: none; stroke: #000000; stroke-width: 0.8; stroke-linejoin: miter; stroke-linecap: square"/>
   </g>
   <g id="patch_5">
    <path d="M 40.603125 288.199219 
L 431.203125 288.199219 
" style="fill: none; stroke: #000000; stroke-width: 0.8; stroke-linejoin: miter; stroke-linecap: square"/>
   </g>
   <g id="patch_6">
    <path d="M 40.603125 10.999219 
L 431.203125 10.999219 
" style="fill: none; stroke: #000000; stroke-width: 0.8; stroke-linejoin: miter; stroke-linecap: square"/>
   </g>
   <g id="legend_1">
    <g id="patch_7">
     <path d="M 47.603125 92.389844 
L 143.954688 92.389844 
Q 145.954688 92.389844 145.954688 90.389844 
L 145.954688 17.999219 
Q 145.954688 15.999219 143.954688 15.999219 
L 47.603125 15.999219 
Q 45.603125 15.999219 45.603125 17.999219 
L 45.603125 90.389844 
Q 45.603125 92.389844 47.603125 92.389844 
z
" style="fill: #ffffff; opacity: 0.8; stroke: #cccccc; stroke-linejoin: miter"/>
    </g>
    <g id="line2d_32">
     <g>
      <use xlink:href="#m1955ad2eb1" x="59.603125" y="24.097656" style="fill: #ff0000; stroke: #ff0000"/>
     </g>
    </g>
    <g id="text_16">
     <!-- observations -->
     <g transform="translate(77.603125 27.597656) scale(0.1 -0.1)">
      <defs>
       <path id="DejaVuSans-6f" d="M 1959 3097 
Q 1497 3097 1228 2736 
Q 959 2375 959 1747 
Q 959 1119 1226 758 
Q 1494 397 1959 397 
Q 2419 397 2687 759 
Q 2956 1122 2956 1747 
Q 2956 2369 2687 2733 
Q 2419 3097 1959 3097 
z
M 1959 3584 
Q 2709 3584 3137 3096 
Q 3566 2609 3566 1747 
Q 3566 888 3137 398 
Q 2709 -91 1959 -91 
Q 1206 -91 779 398 
Q 353 888 353 1747 
Q 353 2609 779 3096 
Q 1206 3584 1959 3584 
z
" transform="scale(0.015625)"/>
       <path id="DejaVuSans-62" d="M 3116 1747 
Q 3116 2381 2855 2742 
Q 2594 3103 2138 3103 
Q 1681 3103 1420 2742 
Q 1159 2381 1159 1747 
Q 1159 1113 1420 752 
Q 1681 391 2138 391 
Q 2594 391 2855 752 
Q 3116 1113 3116 1747 
z
M 1159 2969 
Q 1341 3281 1617 3432 
Q 1894 3584 2278 3584 
Q 2916 3584 3314 3078 
Q 3713 2572 3713 1747 
Q 3713 922 3314 415 
Q 2916 -91 2278 -91 
Q 1894 -91 1617 61 
Q 1341 213 1159 525 
L 1159 0 
L 581 0 
L 581 4863 
L 1159 4863 
L 1159 2969 
z
" transform="scale(0.015625)"/>
       <path id="DejaVuSans-73" d="M 2834 3397 
L 2834 2853 
Q 2591 2978 2328 3040 
Q 2066 3103 1784 3103 
Q 1356 3103 1142 2972 
Q 928 2841 928 2578 
Q 928 2378 1081 2264 
Q 1234 2150 1697 2047 
L 1894 2003 
Q 2506 1872 2764 1633 
Q 3022 1394 3022 966 
Q 3022 478 2636 193 
Q 2250 -91 1575 -91 
Q 1294 -91 989 -36 
Q 684 19 347 128 
L 347 722 
Q 666 556 975 473 
Q 1284 391 1588 391 
Q 1994 391 2212 530 
Q 2431 669 2431 922 
Q 2431 1156 2273 1281 
Q 2116 1406 1581 1522 
L 1381 1569 
Q 847 1681 609 1914 
Q 372 2147 372 2553 
Q 372 3047 722 3315 
Q 1072 3584 1716 3584 
Q 2034 3584 2315 3537 
Q 2597 3491 2834 3397 
z
" transform="scale(0.015625)"/>
       <path id="DejaVuSans-65" d="M 3597 1894 
L 3597 1613 
L 953 1613 
Q 991 1019 1311 708 
Q 1631 397 2203 397 
Q 2534 397 2845 478 
Q 3156 559 3463 722 
L 3463 178 
Q 3153 47 2828 -22 
Q 2503 -91 2169 -91 
Q 1331 -91 842 396 
Q 353 884 353 1716 
Q 353 2575 817 3079 
Q 1281 3584 2069 3584 
Q 2775 3584 3186 3129 
Q 3597 2675 3597 1894 
z
M 3022 2063 
Q 3016 2534 2758 2815 
Q 2500 3097 2075 3097 
Q 1594 3097 1305 2825 
Q 1016 2553 972 2059 
L 3022 2063 
z
" transform="scale(0.015625)"/>
       <path id="DejaVuSans-72" d="M 2631 2963 
Q 2534 3019 2420 3045 
Q 2306 3072 2169 3072 
Q 1681 3072 1420 2755 
Q 1159 2438 1159 1844 
L 1159 0 
L 581 0 
L 581 3500 
L 1159 3500 
L 1159 2956 
Q 1341 3275 1631 3429 
Q 1922 3584 2338 3584 
Q 2397 3584 2469 3576 
Q 2541 3569 2628 3553 
L 2631 2963 
z
" transform="scale(0.015625)"/>
       <path id="DejaVuSans-76" d="M 191 3500 
L 800 3500 
L 1894 563 
L 2988 3500 
L 3597 3500 
L 2284 0 
L 1503 0 
L 191 3500 
z
" transform="scale(0.015625)"/>
       <path id="DejaVuSans-61" d="M 2194 1759 
Q 1497 1759 1228 1600 
Q 959 1441 959 1056 
Q 959 750 1161 570 
Q 1363 391 1709 391 
Q 2188 391 2477 730 
Q 2766 1069 2766 1631 
L 2766 1759 
L 2194 1759 
z
M 3341 1997 
L 3341 0 
L 2766 0 
L 2766 531 
Q 2569 213 2275 61 
Q 1981 -91 1556 -91 
Q 1019 -91 701 211 
Q 384 513 384 1019 
Q 384 1609 779 1909 
Q 1175 2209 1959 2209 
L 2766 2209 
L 2766 2266 
Q 2766 2663 2505 2880 
Q 2244 3097 1772 3097 
Q 1472 3097 1187 3025 
Q 903 2953 641 2809 
L 641 3341 
Q 956 3463 1253 3523 
Q 1550 3584 1831 3584 
Q 2591 3584 2966 3190 
Q 3341 2797 3341 1997 
z
" transform="scale(0.015625)"/>
       <path id="DejaVuSans-74" d="M 1172 4494 
L 1172 3500 
L 2356 3500 
L 2356 3053 
L 1172 3053 
L 1172 1153 
Q 1172 725 1289 603 
Q 1406 481 1766 481 
L 2356 481 
L 2356 0 
L 1766 0 
Q 1100 0 847 248 
Q 594 497 594 1153 
L 594 3053 
L 172 3053 
L 172 3500 
L 594 3500 
L 594 4494 
L 1172 4494 
z
" transform="scale(0.015625)"/>
       <path id="DejaVuSans-69" d="M 603 3500 
L 1178 3500 
L 1178 0 
L 603 0 
L 603 3500 
z
M 603 4863 
L 1178 4863 
L 1178 4134 
L 603 4134 
L 603 4863 
z
" transform="scale(0.015625)"/>
       <path id="DejaVuSans-6e" d="M 3513 2113 
L 3513 0 
L 2938 0 
L 2938 2094 
Q 2938 2591 2744 2837 
Q 2550 3084 2163 3084 
Q 1697 3084 1428 2787 
Q 1159 2491 1159 1978 
L 1159 0 
L 581 0 
L 581 3500 
L 1159 3500 
L 1159 2956 
Q 1366 3272 1645 3428 
Q 1925 3584 2291 3584 
Q 2894 3584 3203 3211 
Q 3513 2838 3513 2113 
z
" transform="scale(0.015625)"/>
      </defs>
      <use xlink:href="#DejaVuSans-6f"/>
      <use xlink:href="#DejaVuSans-62" transform="translate(61.181641 0)"/>
      <use xlink:href="#DejaVuSans-73" transform="translate(124.658203 0)"/>
      <use xlink:href="#DejaVuSans-65" transform="translate(176.757812 0)"/>
      <use xlink:href="#DejaVuSans-72" transform="translate(238.28125 0)"/>
      <use xlink:href="#DejaVuSans-76" transform="translate(279.394531 0)"/>
      <use xlink:href="#DejaVuSans-61" transform="translate(338.574219 0)"/>
      <use xlink:href="#DejaVuSans-74" transform="translate(399.853516 0)"/>
      <use xlink:href="#DejaVuSans-69" transform="translate(439.0625 0)"/>
      <use xlink:href="#DejaVuSans-6f" transform="translate(466.845703 0)"/>
      <use xlink:href="#DejaVuSans-6e" transform="translate(528.027344 0)"/>
      <use xlink:href="#DejaVuSans-73" transform="translate(591.40625 0)"/>
     </g>
    </g>
    <g id="line2d_33">
     <path d="M 49.603125 38.775781 
L 59.603125 38.775781 
L 69.603125 38.775781 
" style="fill: none; stroke: #1f77b4; stroke-width: 1.5; stroke-linecap: square"/>
    </g>
    <g id="text_17">
     <!-- $m=1$ -->
     <g transform="translate(77.603125 42.275781) scale(0.1 -0.1)">
      <defs>
       <path id="DejaVuSans-Oblique-6d" d="M 5747 2113 
L 5338 0 
L 4763 0 
L 5166 2094 
Q 5191 2228 5203 2325 
Q 5216 2422 5216 2491 
Q 5216 2772 5059 2928 
Q 4903 3084 4622 3084 
Q 4203 3084 3875 2770 
Q 3547 2456 3450 1953 
L 3066 0 
L 2491 0 
L 2900 2094 
Q 2925 2209 2937 2307 
Q 2950 2406 2950 2484 
Q 2950 2769 2794 2926 
Q 2638 3084 2363 3084 
Q 1938 3084 1609 2770 
Q 1281 2456 1184 1953 
L 800 0 
L 225 0 
L 909 3500 
L 1484 3500 
L 1375 2956 
Q 1609 3263 1923 3423 
Q 2238 3584 2597 3584 
Q 2978 3584 3223 3384 
Q 3469 3184 3519 2828 
Q 3781 3197 4126 3390 
Q 4472 3584 4856 3584 
Q 5306 3584 5551 3325 
Q 5797 3066 5797 2591 
Q 5797 2488 5784 2364 
Q 5772 2241 5747 2113 
z
" transform="scale(0.015625)"/>
       <path id="DejaVuSans-3d" d="M 678 2906 
L 4684 2906 
L 4684 2381 
L 678 2381 
L 678 2906 
z
M 678 1631 
L 4684 1631 
L 4684 1100 
L 678 1100 
L 678 1631 
z
" transform="scale(0.015625)"/>
      </defs>
      <use xlink:href="#DejaVuSans-Oblique-6d" transform="translate(0 0.09375)"/>
      <use xlink:href="#DejaVuSans-3d" transform="translate(116.894531 0.09375)"/>
      <use xlink:href="#DejaVuSans-31" transform="translate(220.166016 0.09375)"/>
     </g>
    </g>
    <g id="line2d_34">
     <path d="M 49.603125 53.453906 
L 59.603125 53.453906 
L 69.603125 53.453906 
" style="fill: none; stroke: #ff7f0e; stroke-width: 1.5; stroke-linecap: square"/>
    </g>
    <g id="text_18">
     <!-- $m=2$ -->
     <g transform="translate(77.603125 56.953906) scale(0.1 -0.1)">
      <use xlink:href="#DejaVuSans-Oblique-6d" transform="translate(0 0.78125)"/>
      <use xlink:href="#DejaVuSans-3d" transform="translate(116.894531 0.78125)"/>
      <use xlink:href="#DejaVuSans-32" transform="translate(220.166016 0.78125)"/>
     </g>
    </g>
    <g id="line2d_35">
     <path d="M 49.603125 68.132031 
L 59.603125 68.132031 
L 69.603125 68.132031 
" style="fill: none; stroke: #2ca02c; stroke-width: 1.5; stroke-linecap: square"/>
    </g>
    <g id="text_19">
     <!-- $m=16$ -->
     <g transform="translate(77.603125 71.632031) scale(0.1 -0.1)">
      <use xlink:href="#DejaVuSans-Oblique-6d" transform="translate(0 0.78125)"/>
      <use xlink:href="#DejaVuSans-3d" transform="translate(116.894531 0.78125)"/>
      <use xlink:href="#DejaVuSans-31" transform="translate(220.166016 0.78125)"/>
      <use xlink:href="#DejaVuSans-36" transform="translate(283.789062 0.78125)"/>
     </g>
    </g>
    <g id="line2d_36">
     <path d="M 49.603125 82.810156 
L 59.603125 82.810156 
L 69.603125 82.810156 
" style="fill: none; stroke: #d62728; stroke-width: 1.5; stroke-linecap: square"/>
    </g>
    <g id="text_20">
     <!-- $m=300$ -->
     <g transform="translate(77.603125 86.310156) scale(0.1 -0.1)">
      <use xlink:href="#DejaVuSans-Oblique-6d" transform="translate(0 0.78125)"/>
      <use xlink:href="#DejaVuSans-3d" transform="translate(116.894531 0.78125)"/>
      <use xlink:href="#DejaVuSans-33" transform="translate(220.166016 0.78125)"/>
      <use xlink:href="#DejaVuSans-30" transform="translate(283.789062 0.78125)"/>
      <use xlink:href="#DejaVuSans-30" transform="translate(347.412109 0.78125)"/>
     </g>
    </g>
   </g>
  </g>
 </g>
 <defs>
  <clipPath id="pcca99cfde5">
   <rect x="40.603125" y="10.999219" width="390.6" height="277.2"/>
  </clipPath>
 </defs>
</svg>
