<?xml version="1.0" encoding="utf-8" standalone="no"?>
<!DOCTYPE svg PUBLIC "-//W3C//DTD SVG 1.1//EN"
  "http://www.w3.org/Graphics/SVG/1.1/DTD/svg11.dtd">
<svg xmlns:xlink="http://www.w3.org/1999/xlink" width="348.5625pt" height="139.004107pt" viewBox="0 0 348.5625 139.004107" xmlns="http://www.w3.org/2000/svg" version="1.1">
 <metadata>
  <rdf:RDF xmlns:dc="http://purl.org/dc/elements/1.1/" xmlns:cc="http://creativecommons.org/ns#" xmlns:rdf="http://www.w3.org/1999/02/22-rdf-syntax-ns#">
   <cc:Work>
    <dc:type rdf:resource="http://purl.org/dc/dcmitype/StillImage"/>
    <dc:date>2025-01-14T09:06:10.658887</dc:date>
    <dc:format>image/svg+xml</dc:format>
    <dc:creator>
     <cc:Agent>
      <dc:title>Matplotlib v3.9.2, https://matplotlib.org/</dc:title>
     </cc:Agent>
    </dc:creator>
   </cc:Work>
  </rdf:RDF>
 </metadata>
 <defs>
  <style type="text/css">*{stroke-linejoin: round; stroke-linecap: butt}</style>
 </defs>
 <g id="figure_1">
  <g id="patch_1">
   <path d="M -0 139.004107 
L 348.5625 139.004107 
L 348.5625 0 
L -0 0 
z
" style="fill: #ffffff"/>
  </g>
  <g id="axes_1">
   <g id="patch_2">
    <path d="M 34.4625 101.447857 
L 341.3625 101.447857 
L 341.3625 7.2 
L 34.4625 7.2 
z
" style="fill: #ffffff"/>
   </g>
   <g id="matplotlib.axis_1">
    <g id="xtick_1">
     <g id="line2d_1">
      <defs>
       <path id="m91aa09928b" d="M 0 0 
L 0 3.5 
" style="stroke: #000000; stroke-width: 0.8"/>
      </defs>
      <g>
       <use xlink:href="#m91aa09928b" x="76.340428" y="101.447857" style="stroke: #000000; stroke-width: 0.8"/>
      </g>
     </g>
     <g id="text_1">
      <!-- −4 -->
      <g transform="translate(68.969334 116.046295) scale(0.1 -0.1)">
       <defs>
        <path id="DejaVuSans-2212" d="M 678 2272 
L 4684 2272 
L 4684 1741 
L 678 1741 
L 678 2272 
z
" transform="scale(0.015625)"/>
        <path id="DejaVuSans-34" d="M 2419 4116 
L 825 1625 
L 2419 1625 
L 2419 4116 
z
M 2253 4666 
L 3047 4666 
L 3047 1625 
L 3713 1625 
L 3713 1100 
L 3047 1100 
L 3047 0 
L 2419 0 
L 2419 1100 
L 313 1100 
L 313 1709 
L 2253 4666 
z
" transform="scale(0.015625)"/>
       </defs>
       <use xlink:href="#DejaVuSans-2212"/>
       <use xlink:href="#DejaVuSans-34" x="83.789062"/>
      </g>
     </g>
    </g>
    <g id="xtick_2">
     <g id="line2d_2">
      <g>
       <use xlink:href="#m91aa09928b" x="132.196284" y="101.447857" style="stroke: #000000; stroke-width: 0.8"/>
      </g>
     </g>
     <g id="text_2">
      <!-- −2 -->
      <g transform="translate(124.82519 116.046295) scale(0.1 -0.1)">
       <defs>
        <path id="DejaVuSans-32" d="M 1228 531 
L 3431 531 
L 3431 0 
L 469 0 
L 469 531 
Q 828 903 1448 1529 
Q 2069 2156 2228 2338 
Q 2531 2678 2651 2914 
Q 2772 3150 2772 3378 
Q 2772 3750 2511 3984 
Q 2250 4219 1831 4219 
Q 1534 4219 1204 4116 
Q 875 4013 500 3803 
L 500 4441 
Q 881 4594 1212 4672 
Q 1544 4750 1819 4750 
Q 2544 4750 2975 4387 
Q 3406 4025 3406 3419 
Q 3406 3131 3298 2873 
Q 3191 2616 2906 2266 
Q 2828 2175 2409 1742 
Q 1991 1309 1228 531 
z
" transform="scale(0.015625)"/>
       </defs>
       <use xlink:href="#DejaVuSans-2212"/>
       <use xlink:href="#DejaVuSans-32" x="83.789062"/>
      </g>
     </g>
    </g>
    <g id="xtick_3">
     <g id="line2d_3">
      <g>
       <use xlink:href="#m91aa09928b" x="188.05214" y="101.447857" style="stroke: #000000; stroke-width: 0.8"/>
      </g>
     </g>
     <g id="text_3">
      <!-- 0 -->
      <g transform="translate(184.87089 116.046295) scale(0.1 -0.1)">
       <defs>
        <path id="DejaVuSans-30" d="M 2034 4250 
Q 1547 4250 1301 3770 
Q 1056 3291 1056 2328 
Q 1056 1369 1301 889 
Q 1547 409 2034 409 
Q 2525 409 2770 889 
Q 3016 1369 3016 2328 
Q 3016 3291 2770 3770 
Q 2525 4250 2034 4250 
z
M 2034 4750 
Q 2819 4750 3233 4129 
Q 3647 3509 3647 2328 
Q 3647 1150 3233 529 
Q 2819 -91 2034 -91 
Q 1250 -91 836 529 
Q 422 1150 422 2328 
Q 422 3509 836 4129 
Q 1250 4750 2034 4750 
z
" transform="scale(0.015625)"/>
       </defs>
       <use xlink:href="#DejaVuSans-30"/>
      </g>
     </g>
    </g>
    <g id="xtick_4">
     <g id="line2d_4">
      <g>
       <use xlink:href="#m91aa09928b" x="243.907995" y="101.447857" style="stroke: #000000; stroke-width: 0.8"/>
      </g>
     </g>
     <g id="text_4">
      <!-- 2 -->
      <g transform="translate(240.726745 116.046295) scale(0.1 -0.1)">
       <use xlink:href="#DejaVuSans-32"/>
      </g>
     </g>
    </g>
    <g id="xtick_5">
     <g id="line2d_5">
      <g>
       <use xlink:href="#m91aa09928b" x="299.763851" y="101.447857" style="stroke: #000000; stroke-width: 0.8"/>
      </g>
     </g>
     <g id="text_5">
      <!-- 4 -->
      <g transform="translate(296.582601 116.046295) scale(0.1 -0.1)">
       <use xlink:href="#DejaVuSans-34"/>
      </g>
     </g>
    </g>
    <g id="text_6">
     <!-- t -->
     <g transform="translate(185.952344 129.72442) scale(0.1 -0.1)">
      <defs>
       <path id="DejaVuSans-74" d="M 1172 4494 
L 1172 3500 
L 2356 3500 
L 2356 3053 
L 1172 3053 
L 1172 1153 
Q 1172 725 1289 603 
Q 1406 481 1766 481 
L 2356 481 
L 2356 0 
L 1766 0 
Q 1100 0 847 248 
Q 594 497 594 1153 
L 594 3053 
L 172 3053 
L 172 3500 
L 594 3500 
L 594 4494 
L 1172 4494 
z
" transform="scale(0.015625)"/>
      </defs>
      <use xlink:href="#DejaVuSans-74"/>
     </g>
    </g>
   </g>
   <g id="matplotlib.axis_2">
    <g id="ytick_1">
     <g id="line2d_6">
      <defs>
       <path id="mb5ab861bff" d="M 0 0 
L -3.5 0 
" style="stroke: #000000; stroke-width: 0.8"/>
      </defs>
      <g>
       <use xlink:href="#mb5ab861bff" x="34.4625" y="70.728075" style="stroke: #000000; stroke-width: 0.8"/>
      </g>
     </g>
     <g id="text_7">
      <!-- 0 -->
      <g transform="translate(21.1 74.527294) scale(0.1 -0.1)">
       <use xlink:href="#DejaVuSans-30"/>
      </g>
     </g>
    </g>
    <g id="ytick_2">
     <g id="line2d_7">
      <g>
       <use xlink:href="#mb5ab861bff" x="34.4625" y="28.836183" style="stroke: #000000; stroke-width: 0.8"/>
      </g>
     </g>
     <g id="text_8">
      <!-- 1 -->
      <g transform="translate(21.1 32.635402) scale(0.1 -0.1)">
       <defs>
        <path id="DejaVuSans-31" d="M 794 531 
L 1825 531 
L 1825 4091 
L 703 3866 
L 703 4441 
L 1819 4666 
L 2450 4666 
L 2450 531 
L 3481 531 
L 3481 0 
L 794 0 
L 794 531 
z
" transform="scale(0.015625)"/>
       </defs>
       <use xlink:href="#DejaVuSans-31"/>
      </g>
     </g>
    </g>
    <g id="text_9">
     <!-- $\psi_{\frac{1}{2}, \frac{1}{2}}$ -->
     <g transform="translate(12.7 63.573929) rotate(-90) scale(0.1 -0.1)">
      <defs>
       <path id="DejaVuSans-Oblique-3c8" d="M 1591 -78 
Q 891 38 616 341 
Q 278 713 425 1472 
L 819 3500 
L 1400 3500 
L 1009 1494 
Q 900 922 1119 684 
Q 1313 478 1691 434 
L 2284 3500 
L 2856 3500 
L 2263 438 
Q 2681 481 2928 688 
Q 3247 950 3353 1497 
L 3741 3500 
L 4322 3500 
L 3928 1475 
Q 3775 688 3300 344 
Q 2872 34 2163 -75 
L 1919 -1331 
L 1347 -1331 
L 1591 -78 
z
" transform="scale(0.015625)"/>
       <path id="DejaVuSans-2c" d="M 750 794 
L 1409 794 
L 1409 256 
L 897 -744 
L 494 -744 
L 750 256 
L 750 794 
z
" transform="scale(0.015625)"/>
      </defs>
      <use xlink:href="#DejaVuSans-Oblique-3c8" transform="translate(0 0.3125)"/>
      <use xlink:href="#DejaVuSans-31" transform="translate(65.966797 14.564063) scale(0.49)"/>
      <use xlink:href="#DejaVuSans-32" transform="translate(65.966797 -43.678125) scale(0.49)"/>
      <use xlink:href="#DejaVuSans-2c" transform="translate(105.89209 -16.09375) scale(0.7)"/>
      <use xlink:href="#DejaVuSans-31" transform="translate(141.780762 14.564063) scale(0.49)"/>
      <use xlink:href="#DejaVuSans-32" transform="translate(141.780762 -43.678125) scale(0.49)"/>
      <path d="M 65.966797 -2.935937 
L 65.966797 1.439063 
L 97.14209 1.439063 
L 97.14209 -2.935937 
L 65.966797 -2.935937 
z
"/>
      <path d="M 141.780762 -2.935937 
L 141.780762 1.439063 
L 172.956055 1.439063 
L 172.956055 -2.935937 
L 141.780762 -2.935937 
z
"/>
     </g>
    </g>
   </g>
   <g id="line2d_8">
    <path d="M 48.4125 70.728075 
L 142.250338 70.83606 
L 146.718806 71.070214 
L 149.790878 71.434076 
L 152.304392 71.952163 
L 154.259347 72.556351 
L 156.214302 73.394115 
L 157.889977 74.340897 
L 159.565653 75.535014 
L 161.241329 77.005016 
L 162.917005 78.768272 
L 164.871959 81.194229 
L 167.106194 84.393842 
L 173.808896 94.45298 
L 174.926014 95.666258 
L 176.043131 96.566549 
L 176.880968 96.990567 
L 177.718806 97.163864 
L 178.556644 97.055738 
L 179.394482 96.637438 
L 180.23232 95.883024 
L 181.070158 94.770247 
L 181.907995 93.28142 
L 182.745833 91.404256 
L 183.86295 88.2877 
L 184.980068 84.475415 
L 186.376464 78.777643 
L 187.77286 72.150752 
L 189.727815 61.653522 
L 195.871959 27.361434 
L 197.268356 21.275207 
L 198.385473 17.324777 
L 199.223311 14.979944 
L 200.061149 13.21161 
L 200.898986 12.051222 
L 201.457545 11.626085 
L 202.016104 11.483994 
L 202.574662 11.626085 
L 203.133221 12.051222 
L 203.691779 12.756013 
L 204.529617 14.324678 
L 205.367455 16.48147 
L 206.484572 20.204749 
L 207.601689 24.789164 
L 208.998086 31.516036 
L 210.953041 42.227882 
L 216.259347 72.150752 
L 217.935023 79.995994 
L 219.331419 85.492571 
L 220.448536 89.132641 
L 221.565653 92.073638 
L 222.68277 94.31648 
L 223.520608 95.552892 
L 224.358446 96.424496 
L 225.196284 96.952116 
L 226.034122 97.160559 
L 226.871959 97.077737 
L 227.709797 96.733796 
L 228.547635 96.160276 
L 229.664752 95.094021 
L 231.061149 93.38253 
L 233.016104 90.528395 
L 238.880968 81.571358 
L 240.835923 79.090958 
L 242.511599 77.27828 
L 244.187275 75.760215 
L 245.86295 74.521873 
L 247.538626 73.536152 
L 249.493581 72.66043 
L 251.448536 72.026247 
L 253.68277 71.528574 
L 256.475563 71.147283 
L 260.106194 70.896776 
L 265.691779 70.763876 
L 279.935023 70.728385 
L 327.4125 70.728075 
L 327.4125 70.728075 
" clip-path="url(#p6ad65d6e6a)" style="fill: none; stroke: #1f77b4; stroke-width: 1.5; stroke-linecap: square"/>
   </g>
   <g id="patch_3">
    <path d="M 34.4625 101.447857 
L 34.4625 7.2 
" style="fill: none; stroke: #000000; stroke-width: 0.8; stroke-linejoin: miter; stroke-linecap: square"/>
   </g>
   <g id="patch_4">
    <path d="M 341.3625 101.447857 
L 341.3625 7.2 
" style="fill: none; stroke: #000000; stroke-width: 0.8; stroke-linejoin: miter; stroke-linecap: square"/>
   </g>
   <g id="patch_5">
    <path d="M 34.4625 101.447857 
L 341.3625 101.447857 
" style="fill: none; stroke: #000000; stroke-width: 0.8; stroke-linejoin: miter; stroke-linecap: square"/>
   </g>
   <g id="patch_6">
    <path d="M 34.4625 7.2 
L 341.3625 7.2 
" style="fill: none; stroke: #000000; stroke-width: 0.8; stroke-linejoin: miter; stroke-linecap: square"/>
   </g>
  </g>
 </g>
 <defs>
  <clipPath id="p6ad65d6e6a">
   <rect x="34.4625" y="7.2" width="306.9" height="94.247857"/>
  </clipPath>
 </defs>
</svg>
