<?xml version="1.0" encoding="utf-8" standalone="no"?>
<!DOCTYPE svg PUBLIC "-//W3C//DTD SVG 1.1//EN"
  "http://www.w3.org/Graphics/SVG/1.1/DTD/svg11.dtd">
<svg xmlns:xlink="http://www.w3.org/1999/xlink" width="459.079687pt" height="325.755469pt" viewBox="0 0 459.079687 325.755469" xmlns="http://www.w3.org/2000/svg" version="1.1">
 <metadata>
  <rdf:RDF xmlns:dc="http://purl.org/dc/elements/1.1/" xmlns:cc="http://creativecommons.org/ns#" xmlns:rdf="http://www.w3.org/1999/02/22-rdf-syntax-ns#">
   <cc:Work>
    <dc:type rdf:resource="http://purl.org/dc/dcmitype/StillImage"/>
    <dc:date>2025-10-13T09:26:33.666373</dc:date>
    <dc:format>image/svg+xml</dc:format>
    <dc:creator>
     <cc:Agent>
      <dc:title>Matplotlib v3.10.3, https://matplotlib.org/</dc:title>
     </cc:Agent>
    </dc:creator>
   </cc:Work>
  </rdf:RDF>
 </metadata>
 <defs>
  <style type="text/css">*{stroke-linejoin: round; stroke-linecap: butt}</style>
 </defs>
 <g id="figure_1">
  <g id="patch_1">
   <path d="M 0 325.755469 
L 459.079687 325.755469 
L 459.079687 0 
L 0 0 
z
" style="fill: #ffffff"/>
  </g>
  <g id="axes_1">
   <g id="patch_2">
    <path d="M 53.328125 288.199219 
L 443.928125 288.199219 
L 443.928125 10.999219 
L 53.328125 10.999219 
z
" style="fill: #ffffff"/>
   </g>
   <g id="matplotlib.axis_1">
    <g id="xtick_1">
     <g id="line2d_1">
      <defs>
       <path id="mf683e0f3fc" d="M 0 0 
L 0 3.5 
" style="stroke: #000000; stroke-width: 0.8"/>
      </defs>
      <g>
       <use xlink:href="#mf683e0f3fc" x="53.328125" y="288.199219" style="stroke: #000000; stroke-width: 0.8"/>
      </g>
     </g>
     <g id="text_1">
      <!-- 0.0 -->
      <g transform="translate(45.376563 302.797656) scale(0.1 -0.1)">
       <defs>
        <path id="DejaVuSans-30" d="M 2034 4250 
Q 1547 4250 1301 3770 
Q 1056 3291 1056 2328 
Q 1056 1369 1301 889 
Q 1547 409 2034 409 
Q 2525 409 2770 889 
Q 3016 1369 3016 2328 
Q 3016 3291 2770 3770 
Q 2525 4250 2034 4250 
z
M 2034 4750 
Q 2819 4750 3233 4129 
Q 3647 3509 3647 2328 
Q 3647 1150 3233 529 
Q 2819 -91 2034 -91 
Q 1250 -91 836 529 
Q 422 1150 422 2328 
Q 422 3509 836 4129 
Q 1250 4750 2034 4750 
z
" transform="scale(0.015625)"/>
        <path id="DejaVuSans-2e" d="M 684 794 
L 1344 794 
L 1344 0 
L 684 0 
L 684 794 
z
" transform="scale(0.015625)"/>
       </defs>
       <use xlink:href="#DejaVuSans-30"/>
       <use xlink:href="#DejaVuSans-2e" transform="translate(63.623047 0)"/>
       <use xlink:href="#DejaVuSans-30" transform="translate(95.410156 0)"/>
      </g>
     </g>
    </g>
    <g id="xtick_2">
     <g id="line2d_2">
      <g>
       <use xlink:href="#mf683e0f3fc" x="131.448125" y="288.199219" style="stroke: #000000; stroke-width: 0.8"/>
      </g>
     </g>
     <g id="text_2">
      <!-- 0.2 -->
      <g transform="translate(123.496563 302.797656) scale(0.1 -0.1)">
       <defs>
        <path id="DejaVuSans-32" d="M 1228 531 
L 3431 531 
L 3431 0 
L 469 0 
L 469 531 
Q 828 903 1448 1529 
Q 2069 2156 2228 2338 
Q 2531 2678 2651 2914 
Q 2772 3150 2772 3378 
Q 2772 3750 2511 3984 
Q 2250 4219 1831 4219 
Q 1534 4219 1204 4116 
Q 875 4013 500 3803 
L 500 4441 
Q 881 4594 1212 4672 
Q 1544 4750 1819 4750 
Q 2544 4750 2975 4387 
Q 3406 4025 3406 3419 
Q 3406 3131 3298 2873 
Q 3191 2616 2906 2266 
Q 2828 2175 2409 1742 
Q 1991 1309 1228 531 
z
" transform="scale(0.015625)"/>
       </defs>
       <use xlink:href="#DejaVuSans-30"/>
       <use xlink:href="#DejaVuSans-2e" transform="translate(63.623047 0)"/>
       <use xlink:href="#DejaVuSans-32" transform="translate(95.410156 0)"/>
      </g>
     </g>
    </g>
    <g id="xtick_3">
     <g id="line2d_3">
      <g>
       <use xlink:href="#mf683e0f3fc" x="209.568125" y="288.199219" style="stroke: #000000; stroke-width: 0.8"/>
      </g>
     </g>
     <g id="text_3">
      <!-- 0.4 -->
      <g transform="translate(201.616563 302.797656) scale(0.1 -0.1)">
       <defs>
        <path id="DejaVuSans-34" d="M 2419 4116 
L 825 1625 
L 2419 1625 
L 2419 4116 
z
M 2253 4666 
L 3047 4666 
L 3047 1625 
L 3713 1625 
L 3713 1100 
L 3047 1100 
L 3047 0 
L 2419 0 
L 2419 1100 
L 313 1100 
L 313 1709 
L 2253 4666 
z
" transform="scale(0.015625)"/>
       </defs>
       <use xlink:href="#DejaVuSans-30"/>
       <use xlink:href="#DejaVuSans-2e" transform="translate(63.623047 0)"/>
       <use xlink:href="#DejaVuSans-34" transform="translate(95.410156 0)"/>
      </g>
     </g>
    </g>
    <g id="xtick_4">
     <g id="line2d_4">
      <g>
       <use xlink:href="#mf683e0f3fc" x="287.688125" y="288.199219" style="stroke: #000000; stroke-width: 0.8"/>
      </g>
     </g>
     <g id="text_4">
      <!-- 0.6 -->
      <g transform="translate(279.736563 302.797656) scale(0.1 -0.1)">
       <defs>
        <path id="DejaVuSans-36" d="M 2113 2584 
Q 1688 2584 1439 2293 
Q 1191 2003 1191 1497 
Q 1191 994 1439 701 
Q 1688 409 2113 409 
Q 2538 409 2786 701 
Q 3034 994 3034 1497 
Q 3034 2003 2786 2293 
Q 2538 2584 2113 2584 
z
M 3366 4563 
L 3366 3988 
Q 3128 4100 2886 4159 
Q 2644 4219 2406 4219 
Q 1781 4219 1451 3797 
Q 1122 3375 1075 2522 
Q 1259 2794 1537 2939 
Q 1816 3084 2150 3084 
Q 2853 3084 3261 2657 
Q 3669 2231 3669 1497 
Q 3669 778 3244 343 
Q 2819 -91 2113 -91 
Q 1303 -91 875 529 
Q 447 1150 447 2328 
Q 447 3434 972 4092 
Q 1497 4750 2381 4750 
Q 2619 4750 2861 4703 
Q 3103 4656 3366 4563 
z
" transform="scale(0.015625)"/>
       </defs>
       <use xlink:href="#DejaVuSans-30"/>
       <use xlink:href="#DejaVuSans-2e" transform="translate(63.623047 0)"/>
       <use xlink:href="#DejaVuSans-36" transform="translate(95.410156 0)"/>
      </g>
     </g>
    </g>
    <g id="xtick_5">
     <g id="line2d_5">
      <g>
       <use xlink:href="#mf683e0f3fc" x="365.808125" y="288.199219" style="stroke: #000000; stroke-width: 0.8"/>
      </g>
     </g>
     <g id="text_5">
      <!-- 0.8 -->
      <g transform="translate(357.856562 302.797656) scale(0.1 -0.1)">
       <defs>
        <path id="DejaVuSans-38" d="M 2034 2216 
Q 1584 2216 1326 1975 
Q 1069 1734 1069 1313 
Q 1069 891 1326 650 
Q 1584 409 2034 409 
Q 2484 409 2743 651 
Q 3003 894 3003 1313 
Q 3003 1734 2745 1975 
Q 2488 2216 2034 2216 
z
M 1403 2484 
Q 997 2584 770 2862 
Q 544 3141 544 3541 
Q 544 4100 942 4425 
Q 1341 4750 2034 4750 
Q 2731 4750 3128 4425 
Q 3525 4100 3525 3541 
Q 3525 3141 3298 2862 
Q 3072 2584 2669 2484 
Q 3125 2378 3379 2068 
Q 3634 1759 3634 1313 
Q 3634 634 3220 271 
Q 2806 -91 2034 -91 
Q 1263 -91 848 271 
Q 434 634 434 1313 
Q 434 1759 690 2068 
Q 947 2378 1403 2484 
z
M 1172 3481 
Q 1172 3119 1398 2916 
Q 1625 2713 2034 2713 
Q 2441 2713 2670 2916 
Q 2900 3119 2900 3481 
Q 2900 3844 2670 4047 
Q 2441 4250 2034 4250 
Q 1625 4250 1398 4047 
Q 1172 3844 1172 3481 
z
" transform="scale(0.015625)"/>
       </defs>
       <use xlink:href="#DejaVuSans-30"/>
       <use xlink:href="#DejaVuSans-2e" transform="translate(63.623047 0)"/>
       <use xlink:href="#DejaVuSans-38" transform="translate(95.410156 0)"/>
      </g>
     </g>
    </g>
    <g id="xtick_6">
     <g id="line2d_6">
      <g>
       <use xlink:href="#mf683e0f3fc" x="443.928125" y="288.199219" style="stroke: #000000; stroke-width: 0.8"/>
      </g>
     </g>
     <g id="text_6">
      <!-- 1.0 -->
      <g transform="translate(435.976562 302.797656) scale(0.1 -0.1)">
       <defs>
        <path id="DejaVuSans-31" d="M 794 531 
L 1825 531 
L 1825 4091 
L 703 3866 
L 703 4441 
L 1819 4666 
L 2450 4666 
L 2450 531 
L 3481 531 
L 3481 0 
L 794 0 
L 794 531 
z
" transform="scale(0.015625)"/>
       </defs>
       <use xlink:href="#DejaVuSans-31"/>
       <use xlink:href="#DejaVuSans-2e" transform="translate(63.623047 0)"/>
       <use xlink:href="#DejaVuSans-30" transform="translate(95.410156 0)"/>
      </g>
     </g>
    </g>
    <g id="text_7">
     <!-- Scaled index -->
     <g transform="translate(216.73125 316.475781) scale(0.1 -0.1)">
      <defs>
       <path id="DejaVuSans-53" d="M 3425 4513 
L 3425 3897 
Q 3066 4069 2747 4153 
Q 2428 4238 2131 4238 
Q 1616 4238 1336 4038 
Q 1056 3838 1056 3469 
Q 1056 3159 1242 3001 
Q 1428 2844 1947 2747 
L 2328 2669 
Q 3034 2534 3370 2195 
Q 3706 1856 3706 1288 
Q 3706 609 3251 259 
Q 2797 -91 1919 -91 
Q 1588 -91 1214 -16 
Q 841 59 441 206 
L 441 856 
Q 825 641 1194 531 
Q 1563 422 1919 422 
Q 2459 422 2753 634 
Q 3047 847 3047 1241 
Q 3047 1584 2836 1778 
Q 2625 1972 2144 2069 
L 1759 2144 
Q 1053 2284 737 2584 
Q 422 2884 422 3419 
Q 422 4038 858 4394 
Q 1294 4750 2059 4750 
Q 2388 4750 2728 4690 
Q 3069 4631 3425 4513 
z
" transform="scale(0.015625)"/>
       <path id="DejaVuSans-63" d="M 3122 3366 
L 3122 2828 
Q 2878 2963 2633 3030 
Q 2388 3097 2138 3097 
Q 1578 3097 1268 2742 
Q 959 2388 959 1747 
Q 959 1106 1268 751 
Q 1578 397 2138 397 
Q 2388 397 2633 464 
Q 2878 531 3122 666 
L 3122 134 
Q 2881 22 2623 -34 
Q 2366 -91 2075 -91 
Q 1284 -91 818 406 
Q 353 903 353 1747 
Q 353 2603 823 3093 
Q 1294 3584 2113 3584 
Q 2378 3584 2631 3529 
Q 2884 3475 3122 3366 
z
" transform="scale(0.015625)"/>
       <path id="DejaVuSans-61" d="M 2194 1759 
Q 1497 1759 1228 1600 
Q 959 1441 959 1056 
Q 959 750 1161 570 
Q 1363 391 1709 391 
Q 2188 391 2477 730 
Q 2766 1069 2766 1631 
L 2766 1759 
L 2194 1759 
z
M 3341 1997 
L 3341 0 
L 2766 0 
L 2766 531 
Q 2569 213 2275 61 
Q 1981 -91 1556 -91 
Q 1019 -91 701 211 
Q 384 513 384 1019 
Q 384 1609 779 1909 
Q 1175 2209 1959 2209 
L 2766 2209 
L 2766 2266 
Q 2766 2663 2505 2880 
Q 2244 3097 1772 3097 
Q 1472 3097 1187 3025 
Q 903 2953 641 2809 
L 641 3341 
Q 956 3463 1253 3523 
Q 1550 3584 1831 3584 
Q 2591 3584 2966 3190 
Q 3341 2797 3341 1997 
z
" transform="scale(0.015625)"/>
       <path id="DejaVuSans-6c" d="M 603 4863 
L 1178 4863 
L 1178 0 
L 603 0 
L 603 4863 
z
" transform="scale(0.015625)"/>
       <path id="DejaVuSans-65" d="M 3597 1894 
L 3597 1613 
L 953 1613 
Q 991 1019 1311 708 
Q 1631 397 2203 397 
Q 2534 397 2845 478 
Q 3156 559 3463 722 
L 3463 178 
Q 3153 47 2828 -22 
Q 2503 -91 2169 -91 
Q 1331 -91 842 396 
Q 353 884 353 1716 
Q 353 2575 817 3079 
Q 1281 3584 2069 3584 
Q 2775 3584 3186 3129 
Q 3597 2675 3597 1894 
z
M 3022 2063 
Q 3016 2534 2758 2815 
Q 2500 3097 2075 3097 
Q 1594 3097 1305 2825 
Q 1016 2553 972 2059 
L 3022 2063 
z
" transform="scale(0.015625)"/>
       <path id="DejaVuSans-64" d="M 2906 2969 
L 2906 4863 
L 3481 4863 
L 3481 0 
L 2906 0 
L 2906 525 
Q 2725 213 2448 61 
Q 2172 -91 1784 -91 
Q 1150 -91 751 415 
Q 353 922 353 1747 
Q 353 2572 751 3078 
Q 1150 3584 1784 3584 
Q 2172 3584 2448 3432 
Q 2725 3281 2906 2969 
z
M 947 1747 
Q 947 1113 1208 752 
Q 1469 391 1925 391 
Q 2381 391 2643 752 
Q 2906 1113 2906 1747 
Q 2906 2381 2643 2742 
Q 2381 3103 1925 3103 
Q 1469 3103 1208 2742 
Q 947 2381 947 1747 
z
" transform="scale(0.015625)"/>
       <path id="DejaVuSans-20" transform="scale(0.015625)"/>
       <path id="DejaVuSans-69" d="M 603 3500 
L 1178 3500 
L 1178 0 
L 603 0 
L 603 3500 
z
M 603 4863 
L 1178 4863 
L 1178 4134 
L 603 4134 
L 603 4863 
z
" transform="scale(0.015625)"/>
       <path id="DejaVuSans-6e" d="M 3513 2113 
L 3513 0 
L 2938 0 
L 2938 2094 
Q 2938 2591 2744 2837 
Q 2550 3084 2163 3084 
Q 1697 3084 1428 2787 
Q 1159 2491 1159 1978 
L 1159 0 
L 581 0 
L 581 3500 
L 1159 3500 
L 1159 2956 
Q 1366 3272 1645 3428 
Q 1925 3584 2291 3584 
Q 2894 3584 3203 3211 
Q 3513 2838 3513 2113 
z
" transform="scale(0.015625)"/>
       <path id="DejaVuSans-78" d="M 3513 3500 
L 2247 1797 
L 3578 0 
L 2900 0 
L 1881 1375 
L 863 0 
L 184 0 
L 1544 1831 
L 300 3500 
L 978 3500 
L 1906 2253 
L 2834 3500 
L 3513 3500 
z
" transform="scale(0.015625)"/>
      </defs>
      <use xlink:href="#DejaVuSans-53"/>
      <use xlink:href="#DejaVuSans-63" transform="translate(63.476562 0)"/>
      <use xlink:href="#DejaVuSans-61" transform="translate(118.457031 0)"/>
      <use xlink:href="#DejaVuSans-6c" transform="translate(179.736328 0)"/>
      <use xlink:href="#DejaVuSans-65" transform="translate(207.519531 0)"/>
      <use xlink:href="#DejaVuSans-64" transform="translate(269.042969 0)"/>
      <use xlink:href="#DejaVuSans-20" transform="translate(332.519531 0)"/>
      <use xlink:href="#DejaVuSans-69" transform="translate(364.306641 0)"/>
      <use xlink:href="#DejaVuSans-6e" transform="translate(392.089844 0)"/>
      <use xlink:href="#DejaVuSans-64" transform="translate(455.46875 0)"/>
      <use xlink:href="#DejaVuSans-65" transform="translate(518.945312 0)"/>
      <use xlink:href="#DejaVuSans-78" transform="translate(578.71875 0)"/>
     </g>
    </g>
   </g>
   <g id="matplotlib.axis_2">
    <g id="ytick_1">
     <g id="line2d_7">
      <defs>
       <path id="m92611cf0d9" d="M 0 0 
L -3.5 0 
" style="stroke: #000000; stroke-width: 0.8"/>
      </defs>
      <g>
       <use xlink:href="#m92611cf0d9" x="53.328125" y="271.893336" style="stroke: #000000; stroke-width: 0.8"/>
      </g>
     </g>
     <g id="text_8">
      <!-- 200 -->
      <g transform="translate(27.240625 275.692555) scale(0.1 -0.1)">
       <use xlink:href="#DejaVuSans-32"/>
       <use xlink:href="#DejaVuSans-30" transform="translate(63.623047 0)"/>
       <use xlink:href="#DejaVuSans-30" transform="translate(127.246094 0)"/>
      </g>
     </g>
    </g>
    <g id="ytick_2">
     <g id="line2d_8">
      <g>
       <use xlink:href="#m92611cf0d9" x="53.328125" y="239.281572" style="stroke: #000000; stroke-width: 0.8"/>
      </g>
     </g>
     <g id="text_9">
      <!-- 400 -->
      <g transform="translate(27.240625 243.08079) scale(0.1 -0.1)">
       <use xlink:href="#DejaVuSans-34"/>
       <use xlink:href="#DejaVuSans-30" transform="translate(63.623047 0)"/>
       <use xlink:href="#DejaVuSans-30" transform="translate(127.246094 0)"/>
      </g>
     </g>
    </g>
    <g id="ytick_3">
     <g id="line2d_9">
      <g>
       <use xlink:href="#m92611cf0d9" x="53.328125" y="206.669807" style="stroke: #000000; stroke-width: 0.8"/>
      </g>
     </g>
     <g id="text_10">
      <!-- 600 -->
      <g transform="translate(27.240625 210.469026) scale(0.1 -0.1)">
       <use xlink:href="#DejaVuSans-36"/>
       <use xlink:href="#DejaVuSans-30" transform="translate(63.623047 0)"/>
       <use xlink:href="#DejaVuSans-30" transform="translate(127.246094 0)"/>
      </g>
     </g>
    </g>
    <g id="ytick_4">
     <g id="line2d_10">
      <g>
       <use xlink:href="#m92611cf0d9" x="53.328125" y="174.058042" style="stroke: #000000; stroke-width: 0.8"/>
      </g>
     </g>
     <g id="text_11">
      <!-- 800 -->
      <g transform="translate(27.240625 177.857261) scale(0.1 -0.1)">
       <use xlink:href="#DejaVuSans-38"/>
       <use xlink:href="#DejaVuSans-30" transform="translate(63.623047 0)"/>
       <use xlink:href="#DejaVuSans-30" transform="translate(127.246094 0)"/>
      </g>
     </g>
    </g>
    <g id="ytick_5">
     <g id="line2d_11">
      <g>
       <use xlink:href="#m92611cf0d9" x="53.328125" y="141.446278" style="stroke: #000000; stroke-width: 0.8"/>
      </g>
     </g>
     <g id="text_12">
      <!-- 1000 -->
      <g transform="translate(20.878125 145.245496) scale(0.1 -0.1)">
       <use xlink:href="#DejaVuSans-31"/>
       <use xlink:href="#DejaVuSans-30" transform="translate(63.623047 0)"/>
       <use xlink:href="#DejaVuSans-30" transform="translate(127.246094 0)"/>
       <use xlink:href="#DejaVuSans-30" transform="translate(190.869141 0)"/>
      </g>
     </g>
    </g>
    <g id="ytick_6">
     <g id="line2d_12">
      <g>
       <use xlink:href="#m92611cf0d9" x="53.328125" y="108.834513" style="stroke: #000000; stroke-width: 0.8"/>
      </g>
     </g>
     <g id="text_13">
      <!-- 1200 -->
      <g transform="translate(20.878125 112.633732) scale(0.1 -0.1)">
       <use xlink:href="#DejaVuSans-31"/>
       <use xlink:href="#DejaVuSans-32" transform="translate(63.623047 0)"/>
       <use xlink:href="#DejaVuSans-30" transform="translate(127.246094 0)"/>
       <use xlink:href="#DejaVuSans-30" transform="translate(190.869141 0)"/>
      </g>
     </g>
    </g>
    <g id="ytick_7">
     <g id="line2d_13">
      <g>
       <use xlink:href="#m92611cf0d9" x="53.328125" y="76.222748" style="stroke: #000000; stroke-width: 0.8"/>
      </g>
     </g>
     <g id="text_14">
      <!-- 1400 -->
      <g transform="translate(20.878125 80.021967) scale(0.1 -0.1)">
       <use xlink:href="#DejaVuSans-31"/>
       <use xlink:href="#DejaVuSans-34" transform="translate(63.623047 0)"/>
       <use xlink:href="#DejaVuSans-30" transform="translate(127.246094 0)"/>
       <use xlink:href="#DejaVuSans-30" transform="translate(190.869141 0)"/>
      </g>
     </g>
    </g>
    <g id="ytick_8">
     <g id="line2d_14">
      <g>
       <use xlink:href="#m92611cf0d9" x="53.328125" y="43.610983" style="stroke: #000000; stroke-width: 0.8"/>
      </g>
     </g>
     <g id="text_15">
      <!-- 1600 -->
      <g transform="translate(20.878125 47.410202) scale(0.1 -0.1)">
       <use xlink:href="#DejaVuSans-31"/>
       <use xlink:href="#DejaVuSans-36" transform="translate(63.623047 0)"/>
       <use xlink:href="#DejaVuSans-30" transform="translate(127.246094 0)"/>
       <use xlink:href="#DejaVuSans-30" transform="translate(190.869141 0)"/>
      </g>
     </g>
    </g>
    <g id="ytick_9">
     <g id="line2d_15">
      <g>
       <use xlink:href="#m92611cf0d9" x="53.328125" y="10.999219" style="stroke: #000000; stroke-width: 0.8"/>
      </g>
     </g>
     <g id="text_16">
      <!-- 1800 -->
      <g transform="translate(20.878125 14.798437) scale(0.1 -0.1)">
       <use xlink:href="#DejaVuSans-31"/>
       <use xlink:href="#DejaVuSans-38" transform="translate(63.623047 0)"/>
       <use xlink:href="#DejaVuSans-30" transform="translate(127.246094 0)"/>
       <use xlink:href="#DejaVuSans-30" transform="translate(190.869141 0)"/>
      </g>
     </g>
    </g>
    <g id="text_17">
     <!-- Net rent - nm -->
     <g transform="translate(14.798438 183.135156) rotate(-90) scale(0.1 -0.1)">
      <defs>
       <path id="DejaVuSans-4e" d="M 628 4666 
L 1478 4666 
L 3547 763 
L 3547 4666 
L 4159 4666 
L 4159 0 
L 3309 0 
L 1241 3903 
L 1241 0 
L 628 0 
L 628 4666 
z
" transform="scale(0.015625)"/>
       <path id="DejaVuSans-74" d="M 1172 4494 
L 1172 3500 
L 2356 3500 
L 2356 3053 
L 1172 3053 
L 1172 1153 
Q 1172 725 1289 603 
Q 1406 481 1766 481 
L 2356 481 
L 2356 0 
L 1766 0 
Q 1100 0 847 248 
Q 594 497 594 1153 
L 594 3053 
L 172 3053 
L 172 3500 
L 594 3500 
L 594 4494 
L 1172 4494 
z
" transform="scale(0.015625)"/>
       <path id="DejaVuSans-72" d="M 2631 2963 
Q 2534 3019 2420 3045 
Q 2306 3072 2169 3072 
Q 1681 3072 1420 2755 
Q 1159 2438 1159 1844 
L 1159 0 
L 581 0 
L 581 3500 
L 1159 3500 
L 1159 2956 
Q 1341 3275 1631 3429 
Q 1922 3584 2338 3584 
Q 2397 3584 2469 3576 
Q 2541 3569 2628 3553 
L 2631 2963 
z
" transform="scale(0.015625)"/>
       <path id="DejaVuSans-2d" d="M 313 2009 
L 1997 2009 
L 1997 1497 
L 313 1497 
L 313 2009 
z
" transform="scale(0.015625)"/>
       <path id="DejaVuSans-6d" d="M 3328 2828 
Q 3544 3216 3844 3400 
Q 4144 3584 4550 3584 
Q 5097 3584 5394 3201 
Q 5691 2819 5691 2113 
L 5691 0 
L 5113 0 
L 5113 2094 
Q 5113 2597 4934 2840 
Q 4756 3084 4391 3084 
Q 3944 3084 3684 2787 
Q 3425 2491 3425 1978 
L 3425 0 
L 2847 0 
L 2847 2094 
Q 2847 2600 2669 2842 
Q 2491 3084 2119 3084 
Q 1678 3084 1418 2786 
Q 1159 2488 1159 1978 
L 1159 0 
L 581 0 
L 581 3500 
L 1159 3500 
L 1159 2956 
Q 1356 3278 1631 3431 
Q 1906 3584 2284 3584 
Q 2666 3584 2933 3390 
Q 3200 3197 3328 2828 
z
" transform="scale(0.015625)"/>
      </defs>
      <use xlink:href="#DejaVuSans-4e"/>
      <use xlink:href="#DejaVuSans-65" transform="translate(74.804688 0)"/>
      <use xlink:href="#DejaVuSans-74" transform="translate(136.328125 0)"/>
      <use xlink:href="#DejaVuSans-20" transform="translate(175.537109 0)"/>
      <use xlink:href="#DejaVuSans-72" transform="translate(207.324219 0)"/>
      <use xlink:href="#DejaVuSans-65" transform="translate(246.1875 0)"/>
      <use xlink:href="#DejaVuSans-6e" transform="translate(307.710938 0)"/>
      <use xlink:href="#DejaVuSans-74" transform="translate(371.089844 0)"/>
      <use xlink:href="#DejaVuSans-20" transform="translate(410.298828 0)"/>
      <use xlink:href="#DejaVuSans-2d" transform="translate(442.085938 0)"/>
      <use xlink:href="#DejaVuSans-20" transform="translate(478.169922 0)"/>
      <use xlink:href="#DejaVuSans-6e" transform="translate(509.957031 0)"/>
      <use xlink:href="#DejaVuSans-6d" transform="translate(573.335938 0)"/>
     </g>
    </g>
   </g>
   <g id="line2d_16">
    <path d="M 53.328125 291.899023 
L 53.518476 291.25168 
L 53.708827 288.386736 
L 53.899178 287.524155 
L 54.089529 287.237172 
L 54.279879 287.184993 
L 54.660581 286.679511 
L 54.850932 286.247405 
L 55.041283 286.229468 
L 55.421985 284.807595 
L 55.993037 283.250383 
L 56.56409 282.457918 
L 56.944792 280.10824 
L 57.135143 279.883219 
L 57.706195 277.898793 
L 57.896546 277.859659 
L 58.8483 276.522576 
L 59.038651 276.42148 
L 59.229002 276.008941 
L 59.990406 275.584988 
L 60.751809 274.650661 
L 60.94216 274.484341 
L 61.132511 273.005398 
L 61.322862 272.972786 
L 61.703564 272.591228 
L 62.084265 272.310767 
L 62.274616 271.824852 
L 62.464967 271.756367 
L 62.655318 271.281866 
L 63.03602 271.102501 
L 63.226371 270.497553 
L 64.178125 269.771941 
L 64.558827 269.292548 
L 65.129879 268.315826 
L 65.510581 268.237558 
L 65.700932 268.224513 
L 65.891283 267.890242 
L 66.081634 267.880459 
L 66.271985 267.342365 
L 66.843037 266.977113 
L 67.223739 266.153666 
L 67.41409 266.029741 
L 67.794792 265.596005 
L 68.365844 265.320435 
L 68.556195 264.987795 
L 68.746546 264.986165 
L 69.50795 264.36328 
L 69.6983 264.314362 
L 70.079002 263.887148 
L 70.459704 263.72572 
L 71.221107 263.507221 
L 71.411458 263.101205 
L 72.172862 262.608767 
L 72.553564 262.550066 
L 72.743914 262.085348 
L 74.076371 261.716835 
L 74.837774 261.296143 
L 75.218476 261.25864 
L 75.599178 261.151021 
L 75.789529 261.089059 
L 76.17023 260.746635 
L 76.550932 260.718915 
L 76.931634 260.539551 
L 77.693037 260.467805 
L 78.073739 260.308007 
L 79.025493 260.169407 
L 79.977248 259.840028 
L 80.35795 259.579134 
L 80.929002 259.186162 
L 81.309704 258.977447 
L 82.071107 258.814388 
L 82.64216 258.651329 
L 83.022862 258.649699 
L 83.403564 258.396958 
L 84.73602 258.106713 
L 85.687774 257.914303 
L 87.02023 257.648518 
L 87.210581 257.400668 
L 87.400932 257.368056 
L 87.781634 257.149558 
L 88.162336 257.102271 
L 88.923739 256.787567 
L 89.494792 256.692993 
L 89.875493 256.557654 
L 90.636897 256.285346 
L 91.017599 256.164682 
L 91.588651 255.952706 
L 92.159704 255.750513 
L 92.540406 255.665722 
L 93.111458 255.649416 
L 93.49216 255.414612 
L 93.872862 255.399936 
L 94.634265 254.899346 
L 94.824616 254.897715 
L 95.014967 254.721612 
L 97.108827 254.359621 
L 97.489529 254.313965 
L 97.679879 254.121555 
L 97.87023 254.119925 
L 98.250932 253.808482 
L 98.821985 253.630748 
L 99.202686 253.457906 
L 99.583388 253.355179 
L 100.725493 253.183967 
L 100.915844 252.8872 
L 101.296546 252.815454 
L 101.677248 252.714358 
L 101.867599 252.455094 
L 106.626371 251.372383 
L 106.816721 251.207694 
L 108.339529 251.016915 
L 109.862336 250.654925 
L 111.004441 250.271736 
L 111.385143 249.9766 
L 111.765844 249.846153 
L 115.763213 248.905303 
L 115.953564 248.64604 
L 116.714967 248.540052 
L 117.095669 248.403082 
L 117.28602 248.373732 
L 117.476371 248.212303 
L 118.618476 248.114468 
L 118.999178 247.977499 
L 119.189529 247.974238 
L 119.379879 247.812809 
L 119.950932 247.760631 
L 120.141283 247.589419 
L 120.331634 247.587788 
L 120.712336 247.131223 
L 121.854441 246.979579 
L 122.615844 246.878482 
L 127.374616 245.844689 
L 128.707072 245.710981 
L 129.087774 245.492482 
L 130.229879 245.326162 
L 130.991283 245.122339 
L 131.181634 245.102772 
L 131.371985 244.815788 
L 132.323739 244.478256 
L 133.085143 244.403249 
L 134.227248 244.055934 
L 136.130757 243.643395 
L 137.843914 243.496642 
L 138.224616 243.256946 
L 139.176371 243.088995 
L 139.557072 243.005835 
L 140.508827 242.872127 
L 141.841283 242.521551 
L 142.412336 242.418823 
L 142.793037 242.29816 
L 144.125493 241.976934 
L 146.980757 241.885621 
L 147.171107 241.839965 
L 147.361458 241.629619 
L 147.74216 241.528522 
L 148.693914 241.246431 
L 149.645669 241.140442 
L 152.12023 240.791496 
L 152.500932 240.726273 
L 152.691283 240.577889 
L 153.643037 240.475162 
L 155.927248 240.160459 
L 156.30795 239.896303 
L 157.259704 239.791946 
L 157.640406 239.579969 
L 161.447423 239.209826 
L 161.828125 238.978282 
L 162.018476 238.973391 
L 162.208827 238.808701 
L 162.589529 238.785873 
L 162.779879 238.644012 
L 163.350932 238.599986 
L 165.254441 237.840132 
L 166.015844 237.745558 
L 166.777248 237.492816 
L 167.538651 237.2254 
L 168.109704 237.081908 
L 168.300055 237.054188 
L 168.680757 236.89276 
L 169.822862 236.737854 
L 170.203564 236.524247 
L 170.964967 236.309009 
L 171.726371 236.22748 
L 172.487774 236.141059 
L 173.058827 236.108447 
L 173.439529 235.978 
L 176.485143 235.457842 
L 177.436897 235.306198 
L 179.150055 234.923009 
L 179.911458 234.704511 
L 180.29216 234.600153 
L 181.243914 234.380023 
L 181.624616 234.138696 
L 182.38602 233.921828 
L 182.766721 233.859866 
L 183.147423 233.67724 
L 184.479879 233.475047 
L 185.050932 232.972826 
L 185.812336 232.889666 
L 186.002686 232.620619 
L 186.383388 232.529306 
L 186.573739 232.529306 
L 186.954441 232.358094 
L 187.906195 232.06948 
L 190.190406 231.877071 
L 190.571107 231.738471 
L 191.713213 231.580303 
L 192.284265 231.399308 
L 192.664967 231.365066 
L 193.23602 231.138414 
L 193.616721 231.047101 
L 194.758827 230.776423 
L 194.949178 230.46172 
L 195.900932 230.26768 
L 196.091283 230.109513 
L 196.852686 229.954607 
L 197.994792 229.703496 
L 198.565844 229.674146 
L 198.756195 229.498042 
L 199.70795 229.470322 
L 199.8983 229.304002 
L 200.659704 229.202906 
L 201.040406 229.008866 
L 202.943914 228.449574 
L 203.514967 228.387612 
L 203.705318 228.043558 
L 203.895669 228.017468 
L 204.276371 227.803861 
L 204.847423 227.782663 
L 205.228125 227.542967 
L 206.750932 226.970631 
L 206.941283 226.969 
L 207.512336 226.607009 
L 208.844792 226.324918 
L 210.938651 226.018367 
L 211.129002 225.785193 
L 213.793914 225.574847 
L 214.364967 225.382438 
L 215.697423 225.269927 
L 217.600932 224.950332 
L 220.265844 224.423652 
L 220.646546 224.340492 
L 221.027248 224.213306 
L 221.5983 224.051878 
L 222.740406 223.942628 
L 223.121107 223.867621 
L 223.311458 223.654014 
L 224.072862 223.466496 
L 224.453564 223.220278 
L 224.834265 223.172991 
L 225.595669 222.983842 
L 226.928125 222.799586 
L 227.499178 222.599023 
L 227.689529 222.556628 
L 228.07023 222.302256 
L 229.783388 222.018534 
L 230.925493 221.831016 
L 231.496546 221.50816 
L 233.590406 221.133125 
L 234.351809 221.030398 
L 235.113213 220.836358 
L 235.493914 220.790701 
L 236.064967 220.435233 
L 237.778125 220.241193 
L 238.349178 219.957471 
L 238.729879 219.898769 
L 239.110581 219.660703 
L 241.585143 219.231859 
L 245.201809 218.171976 
L 245.772862 218.056205 
L 246.343914 217.935541 
L 248.628125 217.382772 
L 248.818476 217.118616 
L 251.673739 216.665313 
L 251.86409 216.476165 
L 252.435143 216.358762 
L 252.815844 216.159831 
L 254.529002 215.973943 
L 254.719353 215.897306 
L 255.100055 215.519009 
L 256.051809 215.295619 
L 256.24216 215.287466 
L 256.622862 215.121146 
L 257.384265 214.874927 
L 257.764967 214.736327 
L 257.955318 214.570007 
L 258.907072 214.462388 
L 259.097423 214.276501 
L 259.858827 214.170513 
L 260.429879 214.046588 
L 261.000932 213.952014 
L 261.762336 213.77428 
L 262.333388 213.508494 
L 262.523739 213.294887 
L 264.80795 212.967139 
L 265.188651 212.797558 
L 266.711458 212.771468 
L 266.901809 212.574167 
L 268.995669 212.179565 
L 269.376371 211.962696 
L 270.518476 211.907256 
L 271.089529 211.736045 
L 272.041283 211.61212 
L 272.802686 211.452322 
L 273.183388 211.300678 
L 273.754441 211.012063 
L 274.135143 210.886508 
L 275.277248 210.708774 
L 276.229002 210.284821 
L 276.419353 210.279929 
L 276.800055 209.961965 
L 277.180757 209.878805 
L 277.371107 209.544534 
L 277.94216 209.459743 
L 279.274616 209.216786 
L 280.987774 208.794463 
L 281.178125 208.628143 
L 282.700932 208.626513 
L 283.081634 208.500958 
L 283.271985 208.492805 
L 283.652686 208.212343 
L 284.223739 208.107986 
L 285.365844 208.021565 
L 285.746546 207.837308 
L 286.6983 207.685663 
L 287.079002 207.560108 
L 287.459704 207.496515 
L 288.411458 206.961682 
L 289.363213 206.852433 
L 290.124616 206.410543 
L 290.88602 206.306186 
L 291.647423 206.136605 
L 293.550932 205.986591 
L 293.931634 205.759939 
L 294.312336 205.727327 
L 295.26409 205.295221 
L 296.025493 205.197386 
L 296.406195 204.913663 
L 296.786897 204.784847 
L 298.309704 204.678859 
L 298.690406 204.530475 
L 299.64216 204.458729 
L 301.355318 204.458729 
L 301.545669 204.292409 
L 301.73602 204.292409 
L 302.116721 203.987489 
L 302.497423 203.853781 
L 303.639529 203.625499 
L 304.02023 203.597779 
L 304.400932 203.418414 
L 305.162336 203.336885 
L 305.543037 203.160781 
L 306.685143 203.064576 
L 307.065844 202.813466 
L 308.3983 202.542788 
L 308.969353 202.249282 
L 313.347423 200.540426 
L 314.108827 200.481725 
L 314.489529 200.292576 
L 315.250932 200.276271 
L 315.631634 200.147454 
L 317.154441 199.873515 
L 317.535143 199.738176 
L 318.106195 199.615882 
L 319.819353 199.038654 
L 320.009704 198.873965 
L 320.200055 198.873965 
L 320.580757 198.624485 
L 321.913213 198.508713 
L 322.484265 198.202162 
L 323.43602 198.0016 
L 323.626371 197.955943 
L 323.816721 197.791254 
L 324.768476 197.706463 
L 327.433388 196.641689 
L 327.623739 196.623753 
L 328.385143 196.121532 
L 330.288651 196.121532 
L 330.479002 195.872052 
L 331.811458 195.526367 
L 332.19216 195.094261 
L 332.763213 194.870871 
L 333.143914 194.624652 
L 334.666721 194.401261 
L 335.428125 194.166456 
L 335.808827 194.039271 
L 336.57023 193.799574 
L 336.950932 193.726198 
L 337.331634 193.620209 
L 337.712336 193.5664 
L 337.902686 193.453889 
L 338.283388 193.015261 
L 340.9483 192.030386 
L 342.280757 191.68144 
L 348.371985 189.452426 
L 348.752686 189.346438 
L 349.323739 189.266539 
L 350.085143 189.15892 
L 350.275493 188.694202 
L 350.656195 188.619195 
L 351.60795 188.578431 
L 352.559704 188.278402 
L 353.511458 188.037075 
L 354.082511 187.784334 
L 355.605318 187.754983 
L 355.98602 187.526701 
L 356.557072 187.288635 
L 357.128125 187.084812 
L 357.699178 186.877727 
L 358.079879 186.533673 
L 358.650932 186.390181 
L 359.412336 186.134179 
L 359.602686 185.873285 
L 360.173739 185.767296 
L 360.36409 185.354758 
L 360.554441 185.283012 
L 360.744792 185.015595 
L 361.125493 184.885148 
L 361.696546 184.731873 
L 362.077248 184.572075 
L 362.45795 184.425322 
L 363.219353 184.037242 
L 363.600055 183.616551 
L 364.932511 183.61492 
L 365.313213 182.925181 
L 366.264967 182.664287 
L 366.645669 182.581127 
L 367.026371 182.447419 
L 367.407072 182.259901 
L 367.597423 181.950089 
L 368.549178 181.67452 
L 368.739529 181.177191 
L 369.12023 180.948908 
L 369.500932 180.650511 
L 369.691283 180.264061 
L 369.881634 180.197207 
L 370.071985 179.846631 
L 370.833388 179.725967 
L 371.594792 179.447136 
L 372.927248 179.362346 
L 375.59216 178.34812 
L 375.782511 178.054614 
L 375.972862 178.046461 
L 376.163213 177.810026 
L 377.114967 177.589896 
L 377.68602 177.170835 
L 378.066721 177.025713 
L 378.637774 176.758296 
L 379.589529 176.145195 
L 380.731634 175.866365 
L 381.302686 175.695153 
L 381.683388 175.145645 
L 382.06409 175.018459 
L 382.254441 174.985847 
L 382.444792 174.698863 
L 383.206195 174.529282 
L 383.777248 174.315675 
L 384.15795 173.880308 
L 385.300055 173.188939 
L 385.680757 172.869343 
L 386.061458 172.7764 
L 386.44216 172.712807 
L 386.822862 172.112751 
L 387.013213 172.101336 
L 387.203564 171.9448 
L 387.774616 171.846965 
L 388.155318 171.683906 
L 388.726371 171.496388 
L 388.916721 171.250169 
L 389.107072 171.245278 
L 389.487774 171.111569 
L 390.058827 171.109939 
L 391.010581 170.279969 
L 391.200932 170.276708 
L 391.771985 169.903303 
L 392.152686 169.769595 
L 392.533388 169.670129 
L 392.91409 169.461414 
L 393.294792 168.608616 
L 393.485143 168.489583 
L 393.675493 167.775386 
L 393.865844 167.775386 
L 394.056195 167.573193 
L 394.627248 167.499816 
L 394.817599 167.359586 
L 395.00795 166.942155 
L 395.579002 166.940525 
L 395.769353 166.462762 
L 396.150055 166.263831 
L 397.101809 166.029026 
L 397.29216 165.826833 
L 397.482511 165.363746 
L 397.863213 165.084915 
L 398.243914 165.005016 
L 398.814967 164.887614 
L 399.005318 163.855452 
L 399.195669 163.605972 
L 399.38602 162.772741 
L 400.528125 162.668383 
L 400.718476 162.643925 
L 401.289529 161.939511 
L 401.860581 161.593826 
L 402.241283 161.502513 
L 402.431634 161.068776 
L 402.621985 160.933438 
L 403.002686 160.437739 
L 403.383388 160.271419 
L 403.573739 159.382748 
L 403.76409 159.286543 
L 404.144792 158.852807 
L 404.525493 158.697901 
L 405.096546 158.603327 
L 405.477248 158.567454 
L 405.85795 158.171221 
L 406.0483 158.081539 
L 406.238651 157.796186 
L 407.000055 157.646172 
L 407.190406 157.491266 
L 407.571107 156.524327 
L 407.951809 156.103635 
L 408.332511 155.350303 
L 409.093914 154.437174 
L 410.045669 154.415976 
L 410.616721 154.080075 
L 410.807072 154.060508 
L 411.758827 153.336527 
L 411.949178 153.253367 
L 412.139529 151.955419 
L 412.710581 151.880412 
L 413.091283 151.458089 
L 413.471985 151.436892 
L 413.662336 150.26776 
L 414.233388 150.266129 
L 414.423739 149.656289 
L 414.994792 149.375828 
L 415.185143 149.304082 
L 415.375493 148.599668 
L 416.70795 147.342485 
L 416.8983 146.931576 
L 417.850055 146.329889 
L 418.040406 146.098346 
L 418.611458 146.098346 
L 419.372862 144.190558 
L 419.563213 144.056849 
L 419.753564 143.570934 
L 420.134265 143.212205 
L 420.514967 142.377343 
L 420.705318 142.261572 
L 420.895669 141.935454 
L 421.466721 141.928932 
L 421.657072 141.637056 
L 422.228125 141.379423 
L 422.608827 140.989713 
L 422.989529 140.794042 
L 423.179879 139.394998 
L 423.560581 139.349341 
L 423.941283 138.594379 
L 424.321985 138.449256 
L 424.512336 137.832894 
L 424.893037 137.761148 
L 425.273739 137.748103 
L 425.46409 137.645376 
L 426.035143 135.848468 
L 426.606195 135.171774 
L 427.55795 132.763395 
L 427.938651 131.367612 
L 428.129002 131.30728 
L 428.319353 131.092042 
L 428.509704 130.33708 
L 428.890406 130.084339 
L 429.080757 129.423951 
L 429.461458 129.423951 
L 429.651809 128.853245 
L 429.84216 127.0384 
L 430.222862 126.870449 
L 430.603564 126.089398 
L 430.793914 126.042111 
L 430.984265 125.875791 
L 431.174616 124.838736 
L 431.364967 124.814278 
L 431.745669 122.893445 
L 431.93602 121.919983 
L 432.126371 119.606179 
L 433.078125 118.618042 
L 433.839529 116.918969 
L 434.029879 116.918969 
L 434.410581 116.372722 
L 434.600932 116.084108 
L 434.791283 115.461223 
L 435.171985 113.183292 
L 435.362336 113.083826 
L 435.552686 112.752816 
L 435.933388 109.565016 
L 436.31409 109.160631 
L 436.504441 107.138701 
L 436.885143 106.064143 
L 437.075493 106.038054 
L 437.456195 103.616631 
L 437.646546 102.902433 
L 437.836897 102.744266 
L 438.40795 96.07516 
L 438.5983 96.07516 
L 440.121107 83.514739 
L 440.311458 79.400765 
L 440.501809 78.649063 
L 440.882511 67.592045 
L 441.453564 65.185296 
L 442.214967 55.46536 
L 442.405318 54.537555 
L 442.595669 54.389172 
L 442.78602 53.650515 
L 442.976371 47.571682 
L 443.166721 47.134685 
L 443.928125 12.703183 
L 443.928125 12.703183 
" clip-path="url(#p1891a05c92)" style="fill: none; stroke: #1f77b4; stroke-width: 1.5; stroke-linecap: square"/>
   </g>
   <g id="line2d_17">
    <path d="M 53.328125 240.920313 
L 150.978125 240.920313 
L 150.978125 291.899023 
" clip-path="url(#p1891a05c92)" style="fill: none; stroke: #ff7f0e; stroke-width: 1.5; stroke-linecap: square"/>
   </g>
   <g id="line2d_18">
    <path d="M 53.328125 217.382772 
L 248.628125 217.382772 
L 248.628125 291.899023 
" clip-path="url(#p1891a05c92)" style="fill: none; stroke: #2ca02c; stroke-width: 1.5; stroke-linecap: square"/>
   </g>
   <g id="line2d_19">
    <path d="M 53.328125 190.285656 
L 346.278125 190.285656 
L 346.278125 291.899023 
" clip-path="url(#p1891a05c92)" style="fill: none; stroke: #d62728; stroke-width: 1.5; stroke-linecap: square"/>
   </g>
   <g id="line2d_20">
    <path d="M 53.328125 211.54641 
L 443.928125 211.54641 
" clip-path="url(#p1891a05c92)" style="fill: none; stroke: #9467bd; stroke-width: 1.5; stroke-linecap: square"/>
   </g>
   <g id="patch_3">
    <path d="M 53.328125 288.199219 
L 53.328125 10.999219 
" style="fill: none; stroke: #000000; stroke-width: 0.8; stroke-linejoin: miter; stroke-linecap: square"/>
   </g>
   <g id="patch_4">
    <path d="M 443.928125 288.199219 
L 443.928125 10.999219 
" style="fill: none; stroke: #000000; stroke-width: 0.8; stroke-linejoin: miter; stroke-linecap: square"/>
   </g>
   <g id="patch_5">
    <path d="M 53.328125 288.199219 
L 443.928125 288.199219 
" style="fill: none; stroke: #000000; stroke-width: 0.8; stroke-linejoin: miter; stroke-linecap: square"/>
   </g>
   <g id="patch_6">
    <path d="M 53.328125 10.999219 
L 443.928125 10.999219 
" style="fill: none; stroke: #000000; stroke-width: 0.8; stroke-linejoin: miter; stroke-linecap: square"/>
   </g>
   <g id="legend_1">
    <g id="patch_7">
     <path d="M 347.703125 92.389844 
L 436.928125 92.389844 
Q 438.928125 92.389844 438.928125 90.389844 
L 438.928125 17.999219 
Q 438.928125 15.999219 436.928125 15.999219 
L 347.703125 15.999219 
Q 345.703125 15.999219 345.703125 17.999219 
L 345.703125 90.389844 
Q 345.703125 92.389844 347.703125 92.389844 
z
" style="fill: #ffffff; opacity: 0.8; stroke: #cccccc; stroke-linejoin: miter"/>
    </g>
    <g id="line2d_21">
     <path d="M 349.703125 24.097656 
L 359.703125 24.097656 
L 369.703125 24.097656 
" style="fill: none; stroke: #1f77b4; stroke-width: 1.5; stroke-linecap: square"/>
    </g>
    <g id="text_18">
     <!-- net rent -->
     <g transform="translate(377.703125 27.597656) scale(0.1 -0.1)">
      <use xlink:href="#DejaVuSans-6e"/>
      <use xlink:href="#DejaVuSans-65" transform="translate(63.378906 0)"/>
      <use xlink:href="#DejaVuSans-74" transform="translate(124.902344 0)"/>
      <use xlink:href="#DejaVuSans-20" transform="translate(164.111328 0)"/>
      <use xlink:href="#DejaVuSans-72" transform="translate(195.898438 0)"/>
      <use xlink:href="#DejaVuSans-65" transform="translate(234.761719 0)"/>
      <use xlink:href="#DejaVuSans-6e" transform="translate(296.285156 0)"/>
      <use xlink:href="#DejaVuSans-74" transform="translate(359.664062 0)"/>
     </g>
    </g>
    <g id="line2d_22">
     <path d="M 349.703125 38.775781 
L 359.703125 38.775781 
L 369.703125 38.775781 
" style="fill: none; stroke: #ff7f0e; stroke-width: 1.5; stroke-linecap: square"/>
    </g>
    <g id="text_19">
     <!-- 1st quartile -->
     <g transform="translate(377.703125 42.275781) scale(0.1 -0.1)">
      <defs>
       <path id="DejaVuSans-73" d="M 2834 3397 
L 2834 2853 
Q 2591 2978 2328 3040 
Q 2066 3103 1784 3103 
Q 1356 3103 1142 2972 
Q 928 2841 928 2578 
Q 928 2378 1081 2264 
Q 1234 2150 1697 2047 
L 1894 2003 
Q 2506 1872 2764 1633 
Q 3022 1394 3022 966 
Q 3022 478 2636 193 
Q 2250 -91 1575 -91 
Q 1294 -91 989 -36 
Q 684 19 347 128 
L 347 722 
Q 666 556 975 473 
Q 1284 391 1588 391 
Q 1994 391 2212 530 
Q 2431 669 2431 922 
Q 2431 1156 2273 1281 
Q 2116 1406 1581 1522 
L 1381 1569 
Q 847 1681 609 1914 
Q 372 2147 372 2553 
Q 372 3047 722 3315 
Q 1072 3584 1716 3584 
Q 2034 3584 2315 3537 
Q 2597 3491 2834 3397 
z
" transform="scale(0.015625)"/>
       <path id="DejaVuSans-71" d="M 947 1747 
Q 947 1113 1208 752 
Q 1469 391 1925 391 
Q 2381 391 2643 752 
Q 2906 1113 2906 1747 
Q 2906 2381 2643 2742 
Q 2381 3103 1925 3103 
Q 1469 3103 1208 2742 
Q 947 2381 947 1747 
z
M 2906 525 
Q 2725 213 2448 61 
Q 2172 -91 1784 -91 
Q 1150 -91 751 415 
Q 353 922 353 1747 
Q 353 2572 751 3078 
Q 1150 3584 1784 3584 
Q 2172 3584 2448 3432 
Q 2725 3281 2906 2969 
L 2906 3500 
L 3481 3500 
L 3481 -1331 
L 2906 -1331 
L 2906 525 
z
" transform="scale(0.015625)"/>
       <path id="DejaVuSans-75" d="M 544 1381 
L 544 3500 
L 1119 3500 
L 1119 1403 
Q 1119 906 1312 657 
Q 1506 409 1894 409 
Q 2359 409 2629 706 
Q 2900 1003 2900 1516 
L 2900 3500 
L 3475 3500 
L 3475 0 
L 2900 0 
L 2900 538 
Q 2691 219 2414 64 
Q 2138 -91 1772 -91 
Q 1169 -91 856 284 
Q 544 659 544 1381 
z
M 1991 3584 
L 1991 3584 
z
" transform="scale(0.015625)"/>
      </defs>
      <use xlink:href="#DejaVuSans-31"/>
      <use xlink:href="#DejaVuSans-73" transform="translate(63.623047 0)"/>
      <use xlink:href="#DejaVuSans-74" transform="translate(115.722656 0)"/>
      <use xlink:href="#DejaVuSans-20" transform="translate(154.931641 0)"/>
      <use xlink:href="#DejaVuSans-71" transform="translate(186.71875 0)"/>
      <use xlink:href="#DejaVuSans-75" transform="translate(250.195312 0)"/>
      <use xlink:href="#DejaVuSans-61" transform="translate(313.574219 0)"/>
      <use xlink:href="#DejaVuSans-72" transform="translate(374.853516 0)"/>
      <use xlink:href="#DejaVuSans-74" transform="translate(415.966797 0)"/>
      <use xlink:href="#DejaVuSans-69" transform="translate(455.175781 0)"/>
      <use xlink:href="#DejaVuSans-6c" transform="translate(482.958984 0)"/>
      <use xlink:href="#DejaVuSans-65" transform="translate(510.742188 0)"/>
     </g>
    </g>
    <g id="line2d_23">
     <path d="M 349.703125 53.453906 
L 359.703125 53.453906 
L 369.703125 53.453906 
" style="fill: none; stroke: #2ca02c; stroke-width: 1.5; stroke-linecap: square"/>
    </g>
    <g id="text_20">
     <!-- 2st quartile -->
     <g transform="translate(377.703125 56.953906) scale(0.1 -0.1)">
      <use xlink:href="#DejaVuSans-32"/>
      <use xlink:href="#DejaVuSans-73" transform="translate(63.623047 0)"/>
      <use xlink:href="#DejaVuSans-74" transform="translate(115.722656 0)"/>
      <use xlink:href="#DejaVuSans-20" transform="translate(154.931641 0)"/>
      <use xlink:href="#DejaVuSans-71" transform="translate(186.71875 0)"/>
      <use xlink:href="#DejaVuSans-75" transform="translate(250.195312 0)"/>
      <use xlink:href="#DejaVuSans-61" transform="translate(313.574219 0)"/>
      <use xlink:href="#DejaVuSans-72" transform="translate(374.853516 0)"/>
      <use xlink:href="#DejaVuSans-74" transform="translate(415.966797 0)"/>
      <use xlink:href="#DejaVuSans-69" transform="translate(455.175781 0)"/>
      <use xlink:href="#DejaVuSans-6c" transform="translate(482.958984 0)"/>
      <use xlink:href="#DejaVuSans-65" transform="translate(510.742188 0)"/>
     </g>
    </g>
    <g id="line2d_24">
     <path d="M 349.703125 68.132031 
L 359.703125 68.132031 
L 369.703125 68.132031 
" style="fill: none; stroke: #d62728; stroke-width: 1.5; stroke-linecap: square"/>
    </g>
    <g id="text_21">
     <!-- 3st quartile -->
     <g transform="translate(377.703125 71.632031) scale(0.1 -0.1)">
      <defs>
       <path id="DejaVuSans-33" d="M 2597 2516 
Q 3050 2419 3304 2112 
Q 3559 1806 3559 1356 
Q 3559 666 3084 287 
Q 2609 -91 1734 -91 
Q 1441 -91 1130 -33 
Q 819 25 488 141 
L 488 750 
Q 750 597 1062 519 
Q 1375 441 1716 441 
Q 2309 441 2620 675 
Q 2931 909 2931 1356 
Q 2931 1769 2642 2001 
Q 2353 2234 1838 2234 
L 1294 2234 
L 1294 2753 
L 1863 2753 
Q 2328 2753 2575 2939 
Q 2822 3125 2822 3475 
Q 2822 3834 2567 4026 
Q 2313 4219 1838 4219 
Q 1578 4219 1281 4162 
Q 984 4106 628 3988 
L 628 4550 
Q 988 4650 1302 4700 
Q 1616 4750 1894 4750 
Q 2613 4750 3031 4423 
Q 3450 4097 3450 3541 
Q 3450 3153 3228 2886 
Q 3006 2619 2597 2516 
z
" transform="scale(0.015625)"/>
      </defs>
      <use xlink:href="#DejaVuSans-33"/>
      <use xlink:href="#DejaVuSans-73" transform="translate(63.623047 0)"/>
      <use xlink:href="#DejaVuSans-74" transform="translate(115.722656 0)"/>
      <use xlink:href="#DejaVuSans-20" transform="translate(154.931641 0)"/>
      <use xlink:href="#DejaVuSans-71" transform="translate(186.71875 0)"/>
      <use xlink:href="#DejaVuSans-75" transform="translate(250.195312 0)"/>
      <use xlink:href="#DejaVuSans-61" transform="translate(313.574219 0)"/>
      <use xlink:href="#DejaVuSans-72" transform="translate(374.853516 0)"/>
      <use xlink:href="#DejaVuSans-74" transform="translate(415.966797 0)"/>
      <use xlink:href="#DejaVuSans-69" transform="translate(455.175781 0)"/>
      <use xlink:href="#DejaVuSans-6c" transform="translate(482.958984 0)"/>
      <use xlink:href="#DejaVuSans-65" transform="translate(510.742188 0)"/>
     </g>
    </g>
    <g id="line2d_25">
     <path d="M 349.703125 82.810156 
L 359.703125 82.810156 
L 369.703125 82.810156 
" style="fill: none; stroke: #9467bd; stroke-width: 1.5; stroke-linecap: square"/>
    </g>
    <g id="text_22">
     <!-- mean -->
     <g transform="translate(377.703125 86.310156) scale(0.1 -0.1)">
      <use xlink:href="#DejaVuSans-6d"/>
      <use xlink:href="#DejaVuSans-65" transform="translate(97.412109 0)"/>
      <use xlink:href="#DejaVuSans-61" transform="translate(158.935547 0)"/>
      <use xlink:href="#DejaVuSans-6e" transform="translate(220.214844 0)"/>
     </g>
    </g>
   </g>
  </g>
 </g>
 <defs>
  <clipPath id="p1891a05c92">
   <rect x="53.328125" y="10.999219" width="390.6" height="277.2"/>
  </clipPath>
 </defs>
</svg>
